<?xml version="1.0" encoding="UTF-8"?>
<!DOCTYPE svg PUBLIC "-//W3C//DTD SVG 1.1//EN" "http://www.w3.org/Graphics/SVG/1.1/DTD/svg11.dtd">
<svg xmlns="http://www.w3.org/2000/svg" version="1.1" width="634px" height="115px" style="shape-rendering:geometricPrecision; text-rendering:geometricPrecision; image-rendering:optimizeQuality; fill-rule:evenodd; clip-rule:evenodd" xmlns:xlink="http://www.w3.org/1999/xlink">
<g><path style="opacity:1" fill="#ffffff" d="M 482.5,4.5 C 485.909,4.24933 489.242,4.58266 492.5,5.5C 493.499,18.8167 493.833,32.15 493.5,45.5C 489.486,45.6655 485.486,45.4988 481.5,45C 480.536,40.9341 480.203,36.7675 480.5,32.5C 460.936,32.5963 441.603,32.7629 422.5,33C 421.584,32.6258 420.75,32.1258 420,31.5C 419.201,26.9132 419.368,22.4132 420.5,18C 440.167,17.6667 459.833,17.3333 479.5,17C 479.93,12.6079 480.93,8.44122 482.5,4.5 Z"/></g>
<g><path style="opacity:1" fill="#ffffff" d="M 580.5,11.5 C 597.61,26.7715 614.61,42.2715 631.5,58C 614.667,73.5 597.833,89 581,104.5C 564.171,89.1709 547.671,73.5042 531.5,57.5C 547.854,42.145 564.187,26.8117 580.5,11.5 Z"/></g>
<g><path style="opacity:1" fill="#ffffff" d="M 60.5,15.5 C 70.6456,14.4274 79.9789,16.594 88.5,22C 92.8616,26.7647 94.8616,32.4314 94.5,39C 95.4477,47.12 92.1144,52.4533 84.5,55C 92.561,58.0116 95.8944,63.8449 94.5,72.5C 95.2516,84.5667 89.9183,92.4 78.5,96C 67.2346,99.7335 56.2346,99.0668 45.5,94C 38.0019,89.2475 35.3353,82.4142 37.5,73.5C 44.1894,73.3047 50.8561,73.1381 57.5,73C 56.7786,83.6498 61.4453,86.9831 71.5,83C 72.6433,76.5816 72.81,70.0816 72,63.5C 67.7062,61.7518 63.2062,61.0852 58.5,61.5C 58.5,57.5 58.5,53.5 58.5,49.5C 63.2062,49.9148 67.7062,49.2482 72,47.5C 72.8422,43.5026 73.3422,39.6693 73.5,36C 71.5562,29.2281 67.2228,27.2281 60.5,30C 60,30.5 59.5,31 59,31.5C 58.7883,34.7577 58.2883,37.9243 57.5,41C 50.8417,41.4996 44.175,41.6663 37.5,41.5C 37.1211,36.7027 37.6211,32.036 39,27.5C 44.833,20.9582 51.9996,16.9582 60.5,15.5 Z"/></g>
<g><path style="opacity:1" fill="#ffffff" d="M 139.5,16.5 C 157.107,16.2671 164.44,24.7671 161.5,42C 156.833,42.6667 152.167,42.6667 147.5,42C 146.761,38.5129 145.927,35.0129 145,31.5C 139.754,28.5394 136.587,30.0394 135.5,36C 135.482,38.3788 136.149,40.5455 137.5,42.5C 142.304,47.0688 147.637,50.9021 153.5,54C 164.828,63.6702 167.662,75.5036 162,89.5C 156.737,96.7124 149.57,100.046 140.5,99.5C 125.982,99.1479 118.649,91.6479 118.5,77C 118.536,74.9063 118.869,72.9063 119.5,71C 124.167,70.3333 128.833,70.3333 133.5,71C 135.15,74.9403 135.983,79.107 136,83.5C 142.895,88.3033 146.729,86.4699 147.5,78C 147.274,74.9883 146.441,72.155 145,69.5C 137.64,64.6519 130.64,59.3185 124,53.5C 116.23,41.9678 117.063,31.1345 126.5,21C 130.715,18.7632 135.048,17.2632 139.5,16.5 Z"/></g>
<g><path style="opacity:1" fill="#ffffff" d="M 9.5,17.5 C 16.1667,17.5 22.8333,17.5 29.5,17.5C 29.2439,44.2581 29.2439,70.2581 29.5,95.5C 29.1667,96.1667 28.8333,96.8333 28.5,97.5C 21.8665,98.4967 15.1998,98.83 8.5,98.5C 8.17594,71.4259 8.50927,44.4259 9.5,17.5 Z"/></g>
<g><path style="opacity:1" fill="#ffffff" d="M 167.5,17.5 C 180.837,17.3334 194.171,17.5001 207.5,18C 209.059,19.9958 209.726,22.3291 209.5,25C 209.316,27.865 208.982,30.6984 208.5,33.5C 204.5,33.5 200.5,33.5 196.5,33.5C 196.667,54.8359 196.5,76.1693 196,97.5C 193.254,98.1432 190.421,98.4765 187.5,98.5C 184.309,98.6218 181.309,98.1218 178.5,97C 179.417,76.3251 179.75,55.8251 179.5,35.5C 179.291,34.914 178.957,34.414 178.5,34C 174.514,33.5012 170.514,33.3345 166.5,33.5C 166.218,28.0735 166.551,22.7401 167.5,17.5 Z"/></g>
<g><path style="opacity:1" fill="#ffffff" d="M 218.5,17.5 C 229.881,17.1445 241.215,17.6445 252.5,19C 258.164,21.3324 261.664,25.4991 263,31.5C 263.848,38.8992 263.515,46.2325 262,53.5C 259.923,55.0758 258.423,57.0758 257.5,59.5C 259.253,62.0048 260.753,64.6714 262,67.5C 262.95,74.8065 263.617,82.1398 264,89.5C 264.452,92.1494 265.286,94.6494 266.5,97C 260.674,98.617 254.674,98.9503 248.5,98C 247.083,95.0169 246.25,91.8502 246,88.5C 245.667,82.8333 245.333,77.1667 245,71.5C 242.575,66.9372 238.742,65.2706 233.5,66.5C 233.809,76.8857 233.476,87.219 232.5,97.5C 227.533,98.6623 222.533,98.8289 217.5,98C 217,97.5 216.5,97 216,96.5C 215.5,70.5021 215.333,44.5021 215.5,18.5C 216.791,18.7373 217.791,18.404 218.5,17.5 Z M 234.5,33.5 C 244.001,32.3869 247.501,36.7203 245,46.5C 244.535,47.9308 243.701,49.0975 242.5,50C 239.854,50.4974 237.187,50.6641 234.5,50.5C 234.5,44.8333 234.5,39.1667 234.5,33.5 Z"/></g>
<g><path style="opacity:1" fill="#ffffff" d="M 273.5,17.5 C 285.838,17.3335 298.171,17.5001 310.5,18C 311.632,22.4132 311.799,26.9132 311,31.5C 310.5,32 310,32.5 309.5,33C 303.175,33.4995 296.842,33.6662 290.5,33.5C 290.5,38.8333 290.5,44.1667 290.5,49.5C 296.537,49.1707 302.537,49.5041 308.5,50.5C 309.811,55.0308 309.811,59.5308 308.5,64C 302.252,64.1883 296.085,64.6883 290,65.5C 290.402,71.0806 290.569,76.7472 290.5,82.5C 297.5,82.5 304.5,82.5 311.5,82.5C 311.313,87.8446 310.98,93.1779 310.5,98.5C 297.92,98.8221 285.42,98.4888 273,97.5C 272.185,70.791 272.351,44.1243 273.5,17.5 Z"/></g>
<g><path style="opacity:1" fill="#ffffff" d="M 320.5,17.5 C 333.167,17.5 345.833,17.5 358.5,17.5C 358.805,22.7616 358.471,27.9283 357.5,33C 350.842,33.4996 344.175,33.6663 337.5,33.5C 337.5,38.5 337.5,43.5 337.5,48.5C 343.797,49.3197 350.131,49.653 356.5,49.5C 356.803,54.43 356.469,59.2633 355.5,64C 349.509,64.4995 343.509,64.6662 337.5,64.5C 337.5,70.5 337.5,76.5 337.5,82.5C 344.5,82.5 351.5,82.5 358.5,82.5C 358.5,87.5 358.5,92.5 358.5,97.5C 346.181,98.4822 333.848,98.6489 321.5,98C 320.874,97.2496 320.374,96.4162 320,95.5C 319.529,69.8586 319.696,43.8586 320.5,17.5 Z"/></g>
<g><path style="opacity:1" fill="#ffffff" d="M 366.5,17.5 C 380.504,17.3334 394.504,17.5001 408.5,18C 413.264,30.2435 409.264,35.4102 396.5,33.5C 396.5,54.8333 396.5,76.1667 396.5,97.5C 390.833,97.5 385.167,97.5 379.5,97.5C 379.5,76.1667 379.5,54.8333 379.5,33.5C 375.233,33.797 371.066,33.4637 367,32.5C 366.501,27.5111 366.334,22.5111 366.5,17.5 Z"/></g>
<g><path style="opacity:1" fill="#090909" d="M 561.5,53.5 C 564.287,54.4767 567.287,54.81 570.5,54.5C 570.5,51.1667 570.5,47.8333 570.5,44.5C 573.167,44.5 575.833,44.5 578.5,44.5C 578.5,53.5 578.5,62.5 578.5,71.5C 575.615,71.8064 572.948,71.4731 570.5,70.5C 570.5,67.1667 570.5,63.8333 570.5,60.5C 567.287,60.19 564.287,60.5233 561.5,61.5C 561.665,64.5184 561.498,67.5184 561,70.5C 558.619,71.435 556.119,71.7683 553.5,71.5C 553.5,62.5 553.5,53.5 553.5,44.5C 556.167,44.5 558.833,44.5 561.5,44.5C 561.5,47.5 561.5,50.5 561.5,53.5 Z"/></g>
<g><path style="opacity:1" fill="#090909" d="M 585.5,44.5 C 592.257,44.1226 598.924,44.6226 605.5,46C 613.5,53.6667 613.5,61.3333 605.5,69C 599.062,71.2382 592.395,72.0716 585.5,71.5C 585.5,62.5 585.5,53.5 585.5,44.5 Z"/></g>
<g><path style="opacity:1" fill="#ffffff" d="M 592.5,50.5 C 598.722,49.0992 602.389,51.4326 603.5,57.5C 602.389,63.5674 598.722,65.9008 592.5,64.5C 592.5,59.8333 592.5,55.1667 592.5,50.5 Z"/></g>
<g><path style="opacity:1" fill="#ffffff" d="M 420.5,53.5 C 444.833,53.5 469.167,53.5 493.5,53.5C 493.5,58.8333 493.5,64.1667 493.5,69.5C 483.833,69.5 474.167,69.5 464.5,69.5C 464.5,73.5 464.5,77.5 464.5,81.5C 473.571,82.4408 482.904,82.6074 492.5,82C 493.471,87.0717 493.805,92.2384 493.5,97.5C 468.833,97.5 444.167,97.5 419.5,97.5C 419.5,92.5 419.5,87.5 419.5,82.5C 430.198,82.7369 440.865,82.4036 451.5,81.5C 451.759,77.7604 451.426,74.0938 450.5,70.5C 440.188,69.5014 429.855,69.1681 419.5,69.5C 419.218,64.0735 419.551,58.7401 420.5,53.5 Z"/></g>
<g><path style="opacity:1" fill="#939393" d="M 570.5,44.5 C 570.5,47.8333 570.5,51.1667 570.5,54.5C 567.287,54.81 564.287,54.4767 561.5,53.5C 564.167,53.5 566.833,53.5 569.5,53.5C 569.19,50.2869 569.523,47.2869 570.5,44.5 Z"/></g>
<g><path style="opacity:1" fill="#939393" d="M 561.5,61.5 C 564.287,60.5233 567.287,60.19 570.5,60.5C 570.5,63.8333 570.5,67.1667 570.5,70.5C 569.523,67.7131 569.19,64.7131 569.5,61.5C 566.833,61.5 564.167,61.5 561.5,61.5 Z"/></g>
</svg>
