<svg width="171" height="169" viewBox="0 0 171 169" xmlns="http://www.w3.org/2000/svg" xmlns:xlink="http://www.w3.org/1999/xlink"><title>13th_street_logo_uk_master_rgb_green</title><defs><path id="a" d="M.06.421h170.512V168.94H.06V.421z"/></defs><g fill="none" fill-rule="evenodd"><mask id="b" fill="#fff"><use xlink:href="#a"/></mask><path d="M160.317 87.127l-3.284-3.286 6.867-6.875-3.388-3.388-17.071 17.081 3.389 3.392 7.395-7.399 3.283 3.287-7.395 7.398 3.389 3.391 17.07-17.082-3.388-3.392-6.867 6.873zM155.48 74.16l2.807-2.809-9.157-9.166-2.81 2.81 2.899 2.901-14.262 14.273 3.363 3.365 14.26-14.273 2.9 2.899zm-20.467-15.282c.27-2.722.516-12.242-7.729-20.5-5.268-5.279-12.268-8.188-19.698-8.187-7.186.002-13.913 2.77-18.941 7.798l-8.012 8.003 14.069 14.1 7.884-7.888c1.101-1.098 3.074-2.27 5.323-2.27 1.843-.001 3.54.766 5.053 2.28 3.149 3.152 3.146 7.228-.006 10.383l-11.142 11.135c-2.599 2.595-4.581 3.755-6.417 3.755-2.594 0-5.432-2.324-9.166-6.075l-.867-.867-12.627 12.632.864.866c4.039 4.049 5.77 6.573 5.976 8.714.198 2.062-1.05 4.228-4.301 7.479l-12.358 12.339c-2.011 2.01-4.189 3.071-6.289 3.075-1.788 0-3.449-.754-4.935-2.237-1.448-1.451-2.214-3.174-2.211-4.972.004-2.057 1.007-4.192 2.835-6.009l7.276-7.273L45.526 81.06l-7.881 7.886c-6.341 6.329-9.268 13.753-8.465 21.463.635 6.121 3.664 12.301 8.31 16.951 5.486 5.499 11.8 8.286 18.77 8.28 1.762 0 3.594-.181 5.438-.535 6.662-1.274 10.1-3.252 21.592-14.733 11.591-11.578 15.14-15.123 12.866-26.58 2.603.582 4.464.826 6.168.826 6.144-.004 10.227-3.475 18.752-11.992 11.141-11.124 13.299-16.322 13.937-23.748zM13.575 101.486l87.414-87.48L87.415.421 0 87.903l13.575 13.583zm55.582 55.626c5.862 5.864 11.979-1.419 15.896 2.497 1.07 1.075 2.045 2.468.711 3.814-1.503 1.492-2.863.498-4.1-.741a23.582 23.582 0 0 0-1.133-1.234l-.053.006-3.598 3.598c.187.238.397.447.603.66 3.5 3.496 6.856 4.805 10.743.91 3.812-3.809 4.045-7.357.186-11.219-5.776-5.729-12.634 1.184-15.996-2.178-.897-.896-1.525-1.998-.429-3.101 1.732-1.736 3.159.213 4.419 1.361l3.546-3.547-.369-.367c-3.127-3.181-6.334-4.179-9.773-.738-3.228 3.236-4.099 6.84-.653 10.279zm31.823-3.82l-15.186-15.195 3.022-3.022-3.361-3.365-9.827 9.832 3.362 3.365 3.05-3.05 15.184 15.195 3.756-3.76zm8.625-8.635l-7.482-7.491 1.397-1.395c1.654-1.656 3.256-.324 4.597.916.756.709 1.469 1.47 2.234 2.18.889.783 1.897 1.574 3.096 1.943l3.969-3.967c-1.528-.524-2.812-1.445-4.023-2.498-2.018-1.762-4.672-5.258-7.721-3.62 1.49-2.816-.604-4.97-2.498-6.864-3.158-3.1-6.322-3.544-9.621-.258l-6.319 6.325 18.545 18.562 3.826-3.833zm-8.744-12.382l-1.812 1.814-4.836-4.836 1.684-1.684c1.818-1.814 3.129-.285 4.518 1.106 1.213 1.209 1.898 2.154.446 3.6zm19.522-35.517l-8.721 8.727 18.542 18.56 8.722-8.73-3.389-3.391-4.94 4.946-4.493-4.496 4.442-4.443-3.283-3.286-4.44 4.444-4.022-4.022 4.941-4.947-3.359-3.362zm-.865 31.201l-4.49-4.496 4.439-4.443-3.283-3.286-4.442 4.443-4.021-4.025 4.941-4.944-3.358-3.364-8.723 8.729 18.544 18.561 8.724-8.731-3.39-3.39-4.941 4.946zm9.342-32.96l15.184 15.194 3.755-3.756-15.183-15.196 3.021-3.024-3.366-3.362-9.823 9.83 3.363 3.367 3.049-3.053z" fill="#A1C93C" mask="url(#b)"/></g></svg>