<svg xmlns="http://www.w3.org/2000/svg" width="273" height="75" viewBox="-51.45 0 273 75" style="enable-background:new -51.45 0 273 75" xml:space="preserve"><path style="fill:#fff" d="M94.531 42.907h13.123v8.361H83.902V14.391h10.629zM121.607 51.268h-10.63V14.391h10.63zM123.934 14.391h11.406l6.368 19.435c.886 2.77 1.604 5.703 1.659 5.924h.111c.057-.221.83-3.211 1.661-5.924l6.089-19.435h10.633l-13.73 36.875h-9.967l-14.23-36.875zM188.83 51.268v-8.582h-14.229v-6.202h12.346V28.51h-12.346v-5.536h13.842v-8.583h-24.254v36.877zM35.416 26.475l-2.021-3.458c-.549-.904-1.544-.904-1.918-.904h-.44v4.362h-3.092v-4.501h-.229l-.057.099c-.689 2.839-3.061 4.402-6.672 4.402h-4.004v-10.25h-.227l-.062.097-2.669 10.152h-3.44l-1.838-7.916h-.205l-.059.101-1.814 7.814H3.17L0 14.39h3.406l1.106 4.94c.234 1.022.433 2.332.436 2.345l.017.111h.218l.057-.108c.001-.015.254-1.473.487-2.496l.947-4.792h3.853l.945 4.788c.236 1.027.488 2.485.492 2.5l.018.108h.218l.053-.111c.003-.013.203-1.324.436-2.344l1.106-4.941h7.302c3.62 0 5.889 1.448 6.563 4.187l.025.099h.229l.033-.131v-4.154h5.122c2.151 0 4.713.63 4.713 3.631 0 2.129-1.429 2.964-2.281 3.271l-.084.032v.159l.053.074c.456.339.959.98 1.493 1.907l1.759 3.01h-3.306zm-15.307-2.537h1.148c2.162 0 3.259-1.205 3.259-3.579 0-2.372-1.034-3.43-3.352-3.43h-1.056l.001 7.009zm10.927-4.172h1.958c1.058 0 1.638-.534 1.638-1.503 0-1.023-.572-1.521-1.747-1.521h-1.849v3.024z" transform="translate(-51.414 .02)"/><path style="fill:#f09" d="M65.614 68 84.091 0H49.685L31.209 68z" transform="translate(-51.414 .02)"/><path style="fill:#fff" d="m51.751 14.749-2.347 8.588h5.231v27.606h9.734V14.749zM197.193 14.392h75.735v1.44h-75.735z" transform="translate(-51.414 .02)"/><path style="fill:#1d1719" d="M197.193 49.812h75.735v1.443h-75.735z" transform="translate(-51.414 .02)"/><path style="fill:#fff" d="M205.021 37.87c3.545 0 5.28-1.862 5.28-5.436 0-3.573-1.708-5.177-5.41-5.177h-1.476V37.87h1.606zm-5.797-13.927h5.616c6.756 0 9.863 3.417 9.863 8.388 0 4.969-3.158 8.853-10.019 8.853h-5.462l.002-17.241zM222.753 41.184h-4.22V23.943h4.22zM226.791 32.538c0-4.686 3.494-8.905 9.628-8.905 2.667 0 4.401.57 5.748 1.528l-1.812 3.106c-.984-.672-2.252-1.191-4.014-1.191-3.416 0-5.126 2.175-5.126 5.359 0 3.185 1.451 5.695 4.815 5.695 1.217 0 2.148-.259 2.641-.543v-2.978h-3.002V31.4h6.988v8.491c-1.217.726-3.105 1.604-6.602 1.604-6.08-.001-9.264-4.27-9.264-8.957zM246.23 32.538c0-4.686 3.492-8.905 9.629-8.905 2.668 0 4.4.57 5.746 1.528l-1.812 3.106c-.98-.672-2.251-1.191-4.012-1.191-3.416 0-5.125 2.175-5.125 5.359 0 3.185 1.449 5.695 4.814 5.695 1.217 0 2.146-.259 2.641-.543v-2.978h-3.004V31.4h6.99v8.491c-1.217.726-3.105 1.604-6.602 1.604-6.081-.001-9.265-4.27-9.265-8.957zM270.898 41.184h-4.219V23.943h4.219z" transform="translate(-51.414 .02)"/></svg>