<?xml version="1.0" encoding="UTF-8"?>
<svg xmlns="http://www.w3.org/2000/svg" xmlns:xlink="http://www.w3.org/1999/xlink" width="365pt" height="165.95pt" viewBox="0 0 365 165.95" version="1.1">
<defs>
<clipPath id="clip1">
  <path d="M 0 0 L 365 0 L 365 165.949219 L 0 165.949219 Z M 0 0 "/>
</clipPath>
</defs>
<g id="surface1">
<g clip-path="url(#clip1)" clip-rule="nonzero">
<path style="opacity:1" fill="#ffffff" d="M 56.9375 72.285156 C 41.332031 75.410156 30.34375 92.007813 33.269531 107.601563 C 35.078125 120.011719 45.195313 130.625 57.527344 132.960938 C 66.636719 134.703125 76.59375 131.75 83.222656 125.242188 C 92.65625 116.804688 95.578125 102.152344 90.589844 90.597656 C 85.558594 77.558594 70.675781 69.292969 56.9375 72.285156 Z M 155.515625 63.335938 C 155.503906 79.4375 155.53125 95.539063 155.503906 111.652344 C 155.558594 117.945313 157.449219 124.90625 162.84375 128.734375 C 166.691406 131.84375 171.832031 132.34375 176.59375 132.582031 C 175.132813 127.738281 172.328125 123.417969 171.121094 118.480469 C 165.351563 100.234375 168.195313 79.933594 177.492188 63.347656 C 170.167969 63.296875 162.84375 63.308594 155.515625 63.335938 M 202.25 84.761719 C 223.476563 84.804688 244.691406 84.816406 265.914063 84.75 C 263.070313 68.796875 246.433594 57.886719 230.65625 59.914063 C 217.101563 61 205.429688 71.695313 202.25 84.761719 M 46.875 0.378906 C 59.164063 -0.144531 71.496094 0.394531 83.785156 0.00390625 C 83.625 0.675781 83.328125 1.988281 83.167969 2.660156 C 76.042969 15.566406 68.933594 28.503906 61.742188 41.382813 C 75.800781 40.847656 90.199219 44.375 101.535156 52.9375 C 110.421875 59.6875 117.921875 68.769531 121.4375 79.488281 C 122.292969 74.136719 121.90625 68.714844 121.972656 63.320313 C 122 42.738281 121.917969 22.171875 122.011719 1.585938 C 133.175781 1.613281 144.339844 1.585938 155.503906 1.601563 C 155.542969 12.335938 155.488281 23.054688 155.515625 33.789063 C 163.109375 33.828125 170.691406 33.789063 178.285156 33.789063 C 178.433594 42.980469 178.179688 52.171875 178.421875 61.363281 C 181.558594 58.464844 183.480469 54.53125 186.484375 51.515625 C 196.640625 40.765625 210.40625 33.039063 225.179688 31.292969 C 235.40625 31.011719 246.03125 30.246094 255.757813 34.03125 C 276.769531 40.511719 292.644531 59.445313 297.019531 80.777344 C 299.285156 68.179688 303.472656 55.351563 312.839844 46.175781 C 318.957031 40.121094 326.578125 35.695313 334.84375 33.320313 C 344.515625 30.058594 354.847656 31.375 364.859375 31.121094 C 364.910156 41.410156 365.03125 51.703125 364.992188 61.980469 C 357.4375 61.980469 349.292969 61.148438 342.585938 65.359375 C 333.6875 70.03125 329.824219 80.589844 329.917969 90.171875 C 329.960938 114.402344 329.984375 138.648438 329.90625 162.878906 C 319.210938 162.933594 308.53125 162.945313 297.835938 162.878906 C 297.609375 145.800781 297.808594 128.71875 297.742188 111.636719 C 265.78125 111.625 233.835938 111.585938 201.875 111.664063 C 204.371094 120.949219 210.757813 129.296875 219.476563 133.523438 C 233.390625 140.109375 252.527344 136.382813 260.617188 122.546875 C 272.128906 122.117188 283.667969 122.453125 295.195313 122.386719 C 295.421875 128.167969 292 133.105469 289.25 137.898438 C 279.734375 153.660156 262.078125 163.203125 244.058594 165.253906 C 224.644531 168.152344 204.15625 161.875 189.824219 148.429688 C 186.082031 145.558594 183.949219 141.078125 180.152344 138.328125 C 180.058594 146.027344 180.300781 153.742188 180.125 161.445313 C 179.132813 163.699219 176.207031 162.785156 174.300781 163.082031 C 163.070313 163.445313 151.34375 161.191406 142.058594 154.546875 C 131.460938 147.128906 125.285156 134.691406 123.394531 122.117188 C 118.09375 137.5625 107.265625 151.289063 92.546875 158.679688 C 74.125 168.421875 50.832031 168.261719 32.542969 158.292969 C 7.910156 145.453125 -5.238281 114.816406 1.964844 88.050781 C 4.058594 79.019531 8.230469 70.675781 12.472656 62.503906 C 22.640625 44.039063 32.773438 25.550781 42.835938 7.019531 C 44.164063 4.820313 44.957031 2.152344 46.875 0.378906 "/>
</g>
</g>
</svg>
