<?xml version="1.0" encoding="UTF-8"?>
<!DOCTYPE svg PUBLIC "-//W3C//DTD SVG 1.1//EN" "http://www.w3.org/Graphics/SVG/1.1/DTD/svg11.dtd">
<svg xmlns="http://www.w3.org/2000/svg" version="1.1" width="278px" height="182px" style="shape-rendering:geometricPrecision; text-rendering:geometricPrecision; image-rendering:optimizeQuality; fill-rule:evenodd; clip-rule:evenodd" xmlns:xlink="http://www.w3.org/1999/xlink">
<g><path style="opacity:1" fill="#e2030b" d="M 251.5,181.5 C 175.833,181.5 100.167,181.5 24.5,181.5C 10.5,178.833 2.16667,170.5 -0.5,156.5C -0.5,112.167 -0.5,67.8333 -0.5,23.5C 1.68414,12.1424 8.3508,4.64235 19.5,1C 98.5,0.333333 177.5,0.333333 256.5,1C 267.638,4.47151 274.138,11.9715 276,23.5C 276.667,68.5 276.667,113.5 276,158.5C 272.791,171.545 264.624,179.212 251.5,181.5 Z"/></g>
<g><path style="opacity:1" fill="#fefdfd" d="M 109.5,113.5 C 100.348,114.494 91.015,114.827 81.5,114.5C 74.914,103.663 68.5806,92.6633 62.5,81.5C 60.3926,80.5318 58.0593,80.1984 55.5,80.5C 55.5,91.8333 55.5,103.167 55.5,114.5C 47.1667,114.5 38.8333,114.5 30.5,114.5C 30.5,83.5 30.5,52.5 30.5,21.5C 44.8372,21.3334 59.1705,21.5001 73.5,22C 98.3848,27.9864 105.218,42.4864 94,65.5C 90.9416,69.0617 87.4416,72.0617 83.5,74.5C 92.425,87.3566 101.092,100.357 109.5,113.5 Z"/></g>
<g><path style="opacity:1" fill="#fefefe" d="M 107.5,21.5 C 130.833,21.5 154.167,21.5 177.5,21.5C 177.5,28.1667 177.5,34.8333 177.5,41.5C 169.981,41.175 162.648,41.5084 155.5,42.5C 154.502,66.3275 154.169,90.3275 154.5,114.5C 146.5,114.5 138.5,114.5 130.5,114.5C 130.831,89.9943 130.498,65.6609 129.5,41.5C 122.167,41.5 114.833,41.5 107.5,41.5C 107.5,34.8333 107.5,28.1667 107.5,21.5 Z"/></g>
<g><path style="opacity:1" fill="#fefbfb" d="M 249.5,94.5 C 249.5,101.167 249.5,107.833 249.5,114.5C 229.167,114.5 208.833,114.5 188.5,114.5C 188.5,83.5 188.5,52.5 188.5,21.5C 197.167,21.5 205.833,21.5 214.5,21.5C 214.5,45.8333 214.5,70.1667 214.5,94.5C 226.167,94.5 237.833,94.5 249.5,94.5 Z"/></g>
<g><path style="opacity:1" fill="#e21312" d="M 55.5,40.5 C 60.7163,40.1343 65.7163,40.9676 70.5,43C 74.4321,48.2645 74.4321,53.5978 70.5,59C 65.742,61.1439 60.742,61.9773 55.5,61.5C 55.5,54.5 55.5,47.5 55.5,40.5 Z"/></g>
<g><path style="opacity:1" fill="#ed8c8d" d="M 107.5,21.5 C 107.5,28.1667 107.5,34.8333 107.5,41.5C 114.833,41.5 122.167,41.5 129.5,41.5C 129.5,41.8333 129.5,42.1667 129.5,42.5C 121.833,42.5 114.167,42.5 106.5,42.5C 106.175,35.3134 106.509,28.3134 107.5,21.5 Z"/></g>
<g><path style="opacity:1" fill="#f09697" d="M 177.5,21.5 C 178.491,28.3134 178.825,35.3134 178.5,42.5C 170.833,42.5 163.167,42.5 155.5,42.5C 162.648,41.5084 169.981,41.175 177.5,41.5C 177.5,34.8333 177.5,28.1667 177.5,21.5 Z"/></g>
<g><path style="opacity:1" fill="#f4b6b7" d="M 129.5,41.5 C 130.498,65.6609 130.831,89.9943 130.5,114.5C 138.5,114.5 146.5,114.5 154.5,114.5C 154.169,90.3275 154.502,66.3275 155.5,42.5C 155.5,66.8333 155.5,91.1667 155.5,115.5C 146.833,115.5 138.167,115.5 129.5,115.5C 129.5,91.1667 129.5,66.8333 129.5,42.5C 129.5,42.1667 129.5,41.8333 129.5,41.5 Z"/></g>
<g><path style="opacity:1" fill="#ec6f70" d="M 62.5,81.5 C 60.5,81.5 58.5,81.5 56.5,81.5C 56.5,92.8333 56.5,104.167 56.5,115.5C 47.6506,115.826 38.9839,115.493 30.5,114.5C 38.8333,114.5 47.1667,114.5 55.5,114.5C 55.5,103.167 55.5,91.8333 55.5,80.5C 58.0593,80.1984 60.3926,80.5318 62.5,81.5 Z"/></g>
<g><path style="opacity:1" fill="#ef9395" d="M 109.5,113.5 C 110.043,113.56 110.376,113.893 110.5,114.5C 100.675,115.823 91.008,115.823 81.5,114.5C 91.015,114.827 100.348,114.494 109.5,113.5 Z"/></g>
<g><path style="opacity:1" fill="#ef9092" d="M 249.5,94.5 C 250.491,101.313 250.825,108.313 250.5,115.5C 229.66,115.831 208.993,115.497 188.5,114.5C 208.833,114.5 229.167,114.5 249.5,114.5C 249.5,107.833 249.5,101.167 249.5,94.5 Z"/></g>
<g><path style="opacity:1" fill="#fef8f8" d="M 227.5,125.5 C 245.264,123.764 253.098,131.764 251,149.5C 247.153,160.803 239.32,164.97 227.5,162C 223.291,160.813 220.124,158.313 218,154.5C 215.489,146.15 216.155,138.15 220,130.5C 222.479,128.686 224.979,127.019 227.5,125.5 Z"/></g>
<g><path style="opacity:1" fill="#fefafa" d="M 46.5,126.5 C 55.0887,127.343 58.5887,132.009 57,140.5C 55.6912,142.976 53.8579,144.976 51.5,146.5C 54.8333,151.5 58.1667,156.5 61.5,161.5C 57.8333,162.833 54.1667,162.833 50.5,161.5C 48.3333,157.833 46.1667,154.167 44,150.5C 42.9887,149.663 41.8221,149.33 40.5,149.5C 40.5,153.5 40.5,157.5 40.5,161.5C 37.5,161.5 34.5,161.5 31.5,161.5C 31.5,149.833 31.5,138.167 31.5,126.5C 36.5,126.5 41.5,126.5 46.5,126.5 Z"/></g>
<g><path style="opacity:1" fill="#fef6f6" d="M 90.5,125.5 C 95.0986,125.2 99.5986,125.533 104,126.5C 108.142,138.426 111.976,150.426 115.5,162.5C 111.833,162.5 108.167,162.5 104.5,162.5C 104.007,160.194 103.674,157.861 103.5,155.5C 99.4862,155.334 95.4862,155.501 91.5,156C 90.7599,157.785 90.0933,159.618 89.5,161.5C 86.2317,162.487 82.8984,162.82 79.5,162.5C 82.9617,150.114 86.6284,137.781 90.5,125.5 Z"/></g>
<g><path style="opacity:1" fill="#fefcfc" d="M 151.5,126.5 C 161.105,128.022 165.772,133.688 165.5,143.5C 165.675,153.319 161.009,159.319 151.5,161.5C 146.167,161.5 140.833,161.5 135.5,161.5C 135.5,149.833 135.5,138.167 135.5,126.5C 140.833,126.5 146.167,126.5 151.5,126.5 Z"/></g>
<g><path style="opacity:1" fill="#f3a7a9" d="M 196.5,126.5 C 193.5,126.5 190.5,126.5 187.5,126.5C 187.5,138.167 187.5,149.833 187.5,161.5C 190.5,161.5 193.5,161.5 196.5,161.5C 193.375,162.479 190.042,162.813 186.5,162.5C 186.5,150.167 186.5,137.833 186.5,125.5C 190.042,125.187 193.375,125.521 196.5,126.5 Z"/></g>
<g><path style="opacity:1" fill="#fefffe" d="M 196.5,126.5 C 196.5,138.167 196.5,149.833 196.5,161.5C 193.5,161.5 190.5,161.5 187.5,161.5C 187.5,149.833 187.5,138.167 187.5,126.5C 190.5,126.5 193.5,126.5 196.5,126.5 Z"/></g>
<g><path style="opacity:1" fill="#f09596" d="M 46.5,126.5 C 41.5,126.5 36.5,126.5 31.5,126.5C 31.5,138.167 31.5,149.833 31.5,161.5C 34.5,161.5 37.5,161.5 40.5,161.5C 37.3752,162.479 34.0419,162.813 30.5,162.5C 30.5,150.167 30.5,137.833 30.5,125.5C 36.0262,125.179 41.3595,125.512 46.5,126.5 Z"/></g>
<g><path style="opacity:1" fill="#f19c9d" d="M 151.5,126.5 C 146.167,126.5 140.833,126.5 135.5,126.5C 135.5,138.167 135.5,149.833 135.5,161.5C 140.833,161.5 146.167,161.5 151.5,161.5C 146.025,162.489 140.358,162.822 134.5,162.5C 134.5,150.167 134.5,137.833 134.5,125.5C 140.358,125.178 146.025,125.511 151.5,126.5 Z"/></g>
<g><path style="opacity:1" fill="#e21916" d="M 40.5,133.5 C 47.004,133.138 48.6707,135.638 45.5,141C 43.8659,141.494 42.1992,141.66 40.5,141.5C 40.5,138.833 40.5,136.167 40.5,133.5 Z"/></g>
<g><path style="opacity:1" fill="#e4291e" d="M 96.5,132.5 C 98.6079,137.178 99.9412,142.178 100.5,147.5C 98.076,147.808 95.7427,147.474 93.5,146.5C 95.3335,142.003 96.3335,137.336 96.5,132.5 Z"/></g>
<g><path style="opacity:1" fill="#ea6060" d="M 149.5,134.5 C 148.167,134.5 146.833,134.5 145.5,134.5C 145.5,140.833 145.5,147.167 145.5,153.5C 146.833,153.5 148.167,153.5 149.5,153.5C 148.081,154.451 146.415,154.784 144.5,154.5C 144.5,147.5 144.5,140.5 144.5,133.5C 146.415,133.216 148.081,133.549 149.5,134.5 Z"/></g>
<g><path style="opacity:1" fill="#e2050b" d="M 149.5,134.5 C 153.553,135.742 155.553,138.576 155.5,143C 155.238,145.547 154.738,148.047 154,150.5C 152.871,152.141 151.371,153.141 149.5,153.5C 148.167,153.5 146.833,153.5 145.5,153.5C 145.5,147.167 145.5,140.833 145.5,134.5C 146.833,134.5 148.167,134.5 149.5,134.5 Z"/></g>
<g><path style="opacity:1" fill="#e20b0d" d="M 230.5,133.5 C 234.426,133.047 237.592,134.38 240,137.5C 240.667,141.5 240.667,145.5 240,149.5C 238.336,154.038 235.169,155.538 230.5,154C 228.951,152.786 227.785,151.286 227,149.5C 225.52,143.451 226.686,138.118 230.5,133.5 Z"/></g>
</svg>
