<?xml version="1.0" encoding="UTF-8"?>
<!DOCTYPE svg PUBLIC "-//W3C//DTD SVG 1.1//EN" "http://www.w3.org/Graphics/SVG/1.1/DTD/svg11.dtd">
<svg xmlns="http://www.w3.org/2000/svg" version="1.1" width="479px" height="127px" style="shape-rendering:geometricPrecision; text-rendering:geometricPrecision; image-rendering:optimizeQuality; fill-rule:evenodd; clip-rule:evenodd" xmlns:xlink="http://www.w3.org/1999/xlink">
<g><path style="opacity:1" fill="#c6d300" d="M 120.5,-0.5 C 131.167,-0.5 141.833,-0.5 152.5,-0.5C 152.5,6.16667 152.5,12.8333 152.5,19.5C 160.5,19.5 168.5,19.5 176.5,19.5C 176.5,29.1667 176.5,38.8333 176.5,48.5C 168.5,48.5 160.5,48.5 152.5,48.5C 152.057,61.5742 152.557,74.5742 154,87.5C 155.167,90 157,91.8333 159.5,93C 164.401,94.3254 169.401,94.8254 174.5,94.5C 174.5,104.167 174.5,113.833 174.5,123.5C 164.801,123.725 155.134,123.392 145.5,122.5C 149.362,103.194 141.529,93.1943 122,92.5C 120.59,61.5232 120.09,30.5232 120.5,-0.5 Z"/></g>
<g><path style="opacity:1" fill="#ffffff" d="M 56.5,126.5 C 51.5,126.5 46.5,126.5 41.5,126.5C 18.2089,120.302 4.20888,105.302 -0.5,81.5C -0.5,74.8333 -0.5,68.1667 -0.5,61.5C 7.21933,30.1345 27.2193,15.6345 59.5,18C 67.246,19.7893 74.0793,23.2893 80,28.5C 80.498,25.5184 80.6646,22.5184 80.5,19.5C 89.5,19.5 98.5,19.5 107.5,19.5C 107.5,54.1667 107.5,88.8333 107.5,123.5C 98.5,123.5 89.5,123.5 80.5,123.5C 80.6646,120.482 80.498,117.482 80,114.5C 73.2504,120.791 65.4171,124.791 56.5,126.5 Z M 49.5,42.5 C 66.1676,42.7526 76.0009,51.0859 79,67.5C 80.3014,83.0706 73.8014,93.9039 59.5,100C 43.2013,102.099 32.7013,95.2662 28,79.5C 25.0272,61.0294 32.1939,48.6961 49.5,42.5 Z"/></g>
<g><path style="opacity:1" fill="#c6d300" d="M 185.5,19.5 C 192.5,19.5 199.5,19.5 206.5,19.5C 213.691,42.5747 221.191,65.5747 229,88.5C 237.119,65.9788 244.952,43.3121 252.5,20.5C 262.812,19.5014 273.145,19.1681 283.5,19.5C 270.833,54.1667 258.167,88.8333 245.5,123.5C 234.813,123.832 224.146,123.499 213.5,122.5C 204.235,98.5391 195.069,74.5391 186,50.5C 185.5,40.172 185.334,29.8387 185.5,19.5 Z"/></g>
<g><path style="opacity:1" fill="#ffffff" d="M 309.5,19.5 C 312.833,19.5 316.167,19.5 319.5,19.5C 319.5,34.1667 319.5,48.8333 319.5,63.5C 336.5,63.5 353.5,63.5 370.5,63.5C 370.5,48.8333 370.5,34.1667 370.5,19.5C 374.167,19.5 377.833,19.5 381.5,19.5C 381.5,54.1667 381.5,88.8333 381.5,123.5C 377.833,123.5 374.167,123.5 370.5,123.5C 370.5,107.167 370.5,90.8333 370.5,74.5C 353.5,74.5 336.5,74.5 319.5,74.5C 319.5,90.8333 319.5,107.167 319.5,123.5C 316.167,123.5 312.833,123.5 309.5,123.5C 309.5,88.8333 309.5,54.1667 309.5,19.5 Z"/></g>
<g><path style="opacity:1" fill="#ffffff" d="M 478.5,60.5 C 478.5,67.8333 478.5,75.1667 478.5,82.5C 476.376,97.5845 469.043,109.418 456.5,118C 452.05,120.261 447.383,121.928 442.5,123C 427.837,123.5 413.17,123.667 398.5,123.5C 398.5,88.8333 398.5,54.1667 398.5,19.5C 412.837,19.3334 427.171,19.5001 441.5,20C 457.99,22.6642 469.157,31.8308 475,47.5C 476.318,51.9288 477.484,56.2621 478.5,60.5 Z M 409.5,29.5 C 458.127,24.9573 476.293,46.2907 464,93.5C 458.862,104.965 450.028,111.465 437.5,113C 428.173,113.5 418.839,113.666 409.5,113.5C 409.5,85.5 409.5,57.5 409.5,29.5 Z"/></g>
<g><path style="opacity:1" fill="#ffffff" d="M 131.5,126.5 C 128.833,126.5 126.167,126.5 123.5,126.5C 115.402,123.312 112.235,117.312 114,108.5C 118.417,99.7179 125.25,97.2179 134.5,101C 140.969,106.865 142.136,113.698 138,121.5C 136.035,123.55 133.868,125.217 131.5,126.5 Z"/></g>
</svg>
