<?xml version="1.0" encoding="UTF-8"?>
<!DOCTYPE svg PUBLIC "-//W3C//DTD SVG 1.1//EN" "http://www.w3.org/Graphics/SVG/1.1/DTD/svg11.dtd">
<svg xmlns="http://www.w3.org/2000/svg" version="1.1" width="800px" height="250px" style="shape-rendering:geometricPrecision; text-rendering:geometricPrecision; image-rendering:optimizeQuality; fill-rule:evenodd; clip-rule:evenodd" xmlns:xlink="http://www.w3.org/1999/xlink">
<g><path fill="#133294" d="M 10.5,4.5 C 269.834,4.33333 529.167,4.5 788.5,5C 791.057,5.68532 792.891,7.18532 794,9.5C 794.667,86.1667 794.667,162.833 794,239.5C 793.167,241.667 791.667,243.167 789.5,244C 529.5,244.667 269.5,244.667 9.5,244C 7.33333,243.167 5.83333,241.667 5,239.5C 4.33333,162.833 4.33333,86.1667 5,9.5C 6.35157,7.25103 8.18491,5.58437 10.5,4.5 Z"/></g>
<g><path fill="#7eb201" d="M 471.5,136.5 C 471.5,99.1667 471.5,61.8333 471.5,24.5C 465.833,24.5 460.167,24.5 454.5,24.5C 454.5,64.1667 454.5,103.833 454.5,143.5C 446.987,146.004 439.321,148.004 431.5,149.5C 424.509,107.886 417.842,66.2193 411.5,24.5C 404.578,24.1878 397.744,24.5212 391,25.5C 384.351,68.3938 377.185,111.06 369.5,153.5C 368.5,153.5 367.5,153.5 366.5,153.5C 362.081,152.028 357.414,151.362 352.5,151.5C 344.701,150.893 337.034,149.56 329.5,147.5C 329.5,117.167 329.5,86.8333 329.5,56.5C 337.833,56.5 346.167,56.5 354.5,56.5C 354.5,45.8333 354.5,35.1667 354.5,24.5C 332.167,24.5 309.833,24.5 287.5,24.5C 287.5,35.1667 287.5,45.8333 287.5,56.5C 295.833,56.5 304.167,56.5 312.5,56.5C 312.5,85.5 312.5,114.5 312.5,143.5C 310.167,142.833 307.833,142.167 305.5,141.5C 300.384,139.463 295.051,137.797 289.5,136.5C 281.146,134.295 272.813,131.961 264.5,129.5C 264.082,128.778 263.416,128.278 262.5,128C 269.955,117.04 274.121,104.873 275,91.5C 276.404,75.5814 275.071,59.9148 271,44.5C 267.71,34.2084 260.876,27.7084 250.5,25C 238.838,24.5001 227.171,24.3335 215.5,24.5C 215.5,54.8333 215.5,85.1667 215.5,115.5C 213.435,115.483 211.435,115.15 209.5,114.5C 207.485,113.076 205.152,112.41 202.5,112.5C 199.455,112.492 196.455,112.159 193.5,111.5C 193.5,82.5 193.5,53.5 193.5,24.5C 187.833,24.5 182.167,24.5 176.5,24.5C 176.5,51.8333 176.5,79.1667 176.5,106.5C 170.833,106.5 165.167,106.5 159.5,106.5C 152.38,105.072 145.047,104.406 137.5,104.5C 137.5,77.8333 137.5,51.1667 137.5,24.5C 131.833,24.5 126.167,24.5 120.5,24.5C 120.5,51.1667 120.5,77.8333 120.5,104.5C 115.305,104.179 110.305,104.513 105.5,105.5C 105.167,105.5 104.833,105.5 104.5,105.5C 99.8189,105.669 95.1522,106.002 90.5,106.5C 86.1668,79.1677 81.8335,51.8343 77.5,24.5C 70.5778,24.1878 63.7445,24.5212 57,25.5C 52.0478,57.2132 46.8811,88.8799 41.5,120.5C 33.7405,123.212 26.7405,127.212 20.5,132.5C 19.3334,96.5046 19.1668,60.5046 20,24.5C 20.8333,22.3333 22.3333,20.8333 24.5,20C 184.5,19.5 344.5,19.3333 504.5,19.5C 504.667,53.5016 504.5,87.5016 504,121.5C 493.335,126.916 482.502,131.916 471.5,136.5 Z"/></g>
<g><path fill="#ffffff" d="M 741.5,21.5 C 750.745,21.7064 757.245,26.0398 761,34.5C 769.782,56.4643 773.616,79.2976 772.5,103C 773.679,125.04 770.845,146.54 764,167.5C 761.004,178.159 754.337,185.159 744,188.5C 737.357,187.676 732.357,184.342 729,178.5C 718.429,155.682 713.929,131.682 715.5,106.5C 714.833,86.8369 717,67.5035 722,48.5C 724.658,36.442 731.158,27.442 741.5,21.5 Z"/></g>
<g><path fill="#fcfcfd" d="M 90.5,106.5 C 90.2155,108.415 90.5489,110.081 91.5,111.5C 97.7441,149.117 103.744,186.783 109.5,224.5C 103.167,224.5 96.8333,224.5 90.5,224.5C 88.7812,208.468 86.7812,192.468 84.5,176.5C 72.8333,176.5 61.1667,176.5 49.5,176.5C 47.1101,192.45 45.1101,208.45 43.5,224.5C 37.1667,224.5 30.8333,224.5 24.5,224.5C 29.5185,189.723 35.1851,155.056 41.5,120.5C 46.8811,88.8799 52.0478,57.2132 57,25.5C 63.7445,24.5212 70.5778,24.1878 77.5,24.5C 81.8335,51.8343 86.1668,79.1677 90.5,106.5 Z"/></g>
<g><path fill="#ffffff" d="M 137.5,104.5 C 144.424,106.463 151.757,107.13 159.5,106.5C 165.167,106.5 170.833,106.5 176.5,106.5C 176.5,79.1667 176.5,51.8333 176.5,24.5C 182.167,24.5 187.833,24.5 193.5,24.5C 193.5,53.5 193.5,82.5 193.5,111.5C 193.5,149.167 193.5,186.833 193.5,224.5C 187.833,224.5 182.167,224.5 176.5,224.5C 176.5,196.5 176.5,168.5 176.5,140.5C 163.5,140.5 150.5,140.5 137.5,140.5C 137.5,168.5 137.5,196.5 137.5,224.5C 131.833,224.5 126.167,224.5 120.5,224.5C 120.5,184.833 120.5,145.167 120.5,105.5C 115.5,105.5 110.5,105.5 105.5,105.5C 110.305,104.513 115.305,104.179 120.5,104.5C 120.5,77.8333 120.5,51.1667 120.5,24.5C 126.167,24.5 131.833,24.5 137.5,24.5C 137.5,51.1667 137.5,77.8333 137.5,104.5 Z"/></g>
<g><path fill="#fdfefe" d="M 264.5,129.5 C 261.342,130.313 258.676,131.98 256.5,134.5C 262.284,143.408 266.45,153.074 269,163.5C 274.605,183.481 280.105,203.481 285.5,223.5C 278.866,224.497 272.2,224.83 265.5,224.5C 259.905,201.365 253.739,178.365 247,155.5C 244.958,148.06 240.125,145.06 232.5,146.5C 232.5,172.5 232.5,198.5 232.5,224.5C 226.833,224.5 221.167,224.5 215.5,224.5C 215.5,188.167 215.5,151.833 215.5,115.5C 215.5,85.1667 215.5,54.8333 215.5,24.5C 227.171,24.3335 238.838,24.5001 250.5,25C 260.876,27.7084 267.71,34.2084 271,44.5C 275.071,59.9148 276.404,75.5814 275,91.5C 274.121,104.873 269.955,117.04 262.5,128C 263.416,128.278 264.082,128.778 264.5,129.5 Z"/></g>
<g><path fill="#ffffff" d="M 329.5,147.5 C 329.5,173.167 329.5,198.833 329.5,224.5C 323.833,224.5 318.167,224.5 312.5,224.5C 312.5,197.5 312.5,170.5 312.5,143.5C 312.5,114.5 312.5,85.5 312.5,56.5C 304.167,56.5 295.833,56.5 287.5,56.5C 287.5,45.8333 287.5,35.1667 287.5,24.5C 309.833,24.5 332.167,24.5 354.5,24.5C 354.5,35.1667 354.5,45.8333 354.5,56.5C 346.167,56.5 337.833,56.5 329.5,56.5C 329.5,86.8333 329.5,117.167 329.5,147.5 Z"/></g>
<g><path fill="#fdfdfd" d="M 431.5,149.5 C 436.015,174.409 440.015,199.409 443.5,224.5C 437.167,224.5 430.833,224.5 424.5,224.5C 422.781,208.468 420.781,192.468 418.5,176.5C 406.833,176.5 395.167,176.5 383.5,176.5C 381.11,192.45 379.11,208.45 377.5,224.5C 371.167,224.5 364.833,224.5 358.5,224.5C 361.921,200.796 365.588,177.129 369.5,153.5C 377.185,111.06 384.351,68.3938 391,25.5C 397.744,24.5212 404.578,24.1878 411.5,24.5C 417.842,66.2193 424.509,107.886 431.5,149.5 Z"/></g>
<g><path fill="#ffffff" d="M 471.5,136.5 C 471.5,155.167 471.5,173.833 471.5,192.5C 482.5,192.5 493.5,192.5 504.5,192.5C 504.5,203.167 504.5,213.833 504.5,224.5C 487.833,224.5 471.167,224.5 454.5,224.5C 454.5,197.5 454.5,170.5 454.5,143.5C 454.5,103.833 454.5,64.1667 454.5,24.5C 460.167,24.5 465.833,24.5 471.5,24.5C 471.5,61.8333 471.5,99.1667 471.5,136.5 Z"/></g>
<g><path fill="#f8f8fb" d="M 519.5,24.5 C 528.582,24.0863 537.582,24.5863 546.5,26C 551.789,29.0641 555.289,33.5641 557,39.5C 562.103,60.3546 561.437,81.0213 555,101.5C 553.477,105.852 550.977,109.519 547.5,112.5C 550.351,117.553 552.518,122.886 554,128.5C 558.341,146.531 562.675,164.531 567,182.5C 574.494,129.869 581.661,77.2025 588.5,24.5C 593.167,24.5 597.833,24.5 602.5,24.5C 609.864,78.1102 616.864,131.777 623.5,185.5C 619.5,185.5 615.5,185.5 611.5,185.5C 609.505,172.876 607.839,160.209 606.5,147.5C 598.833,147.5 591.167,147.5 583.5,147.5C 582.466,160.206 581.133,172.873 579.5,185.5C 570.833,185.5 562.167,185.5 553.5,185.5C 550.101,165.573 545.601,145.906 540,126.5C 538.323,122.949 535.49,121.616 531.5,122.5C 531.5,143.5 531.5,164.5 531.5,185.5C 527.5,185.5 523.5,185.5 519.5,185.5C 519.5,131.833 519.5,78.1667 519.5,24.5 Z"/></g>
<g><path fill="#c2cae3" d="M 655.5,25.5 C 647.833,25.5 640.167,25.5 632.5,25.5C 632.5,78.8333 632.5,132.167 632.5,185.5C 631.501,132.003 631.168,78.3359 631.5,24.5C 639.684,24.1743 647.684,24.5076 655.5,25.5 Z"/></g>
<g><path fill="#fbfbfd" d="M 655.5,25.5 C 661.456,26.5676 666.29,29.5676 670,34.5C 676.829,47.6571 680.829,61.6571 682,76.5C 683.065,97.5648 682.399,118.565 680,139.5C 678.268,152.771 673.934,165.105 667,176.5C 663.878,180.969 659.712,183.802 654.5,185C 647.174,185.5 639.841,185.666 632.5,185.5C 632.5,132.167 632.5,78.8333 632.5,25.5C 640.167,25.5 647.833,25.5 655.5,25.5 Z"/></g>
<g><path fill="#ffffff" d="M 693.5,24.5 C 697.167,24.5 700.833,24.5 704.5,24.5C 704.5,78.1667 704.5,131.833 704.5,185.5C 700.833,185.5 697.167,185.5 693.5,185.5C 693.5,131.833 693.5,78.1667 693.5,24.5 Z"/></g>
<g><path fill="#163395" d="M 531.5,49.5 C 539.358,47.414 544.525,50.0806 547,57.5C 549.407,69.8041 548.407,81.8041 544,93.5C 543.167,95 542,96.1667 540.5,97C 537.518,97.498 534.518,97.6646 531.5,97.5C 531.5,81.5 531.5,65.5 531.5,49.5 Z"/></g>
<g><path fill="#143294" d="M 740.5,49.5 C 745.126,48.7004 748.96,50.0337 752,53.5C 757.012,63.2144 759.679,73.5478 760,84.5C 761.339,103.973 760.339,123.306 757,142.5C 755.973,147.921 753.973,152.921 751,157.5C 744.534,163.342 739.201,162.342 735,154.5C 731.65,145.083 729.316,135.417 728,125.5C 727.134,109.468 727.468,93.4676 729,77.5C 729.636,66.7382 733.469,57.4048 740.5,49.5 Z"/></g>
<g><path fill="#123194" d="M 643.5,50.5 C 649.646,49.5465 655.146,50.8799 660,54.5C 664.943,61.3891 667.943,69.0558 669,77.5C 670.962,95.1711 670.962,112.838 669,130.5C 667.619,137.357 665.619,144.023 663,150.5C 658.861,158.485 652.361,161.485 643.5,159.5C 643.5,123.167 643.5,86.8333 643.5,50.5 Z"/></g>
<g><path fill="#7fb304" d="M 232.5,54.5 C 244.147,51.5709 251.98,55.5709 256,66.5C 258.982,81.2838 257.648,95.6171 252,109.5C 250.127,111.709 247.96,113.542 245.5,115C 241.179,115.499 236.846,115.666 232.5,115.5C 232.5,95.1667 232.5,74.8333 232.5,54.5 Z"/></g>
<g><path fill="#7384bf" d="M 596.5,62.5 C 595.833,61.5 595.167,60.5 594.5,59.5C 594.335,56.4816 594.502,53.4816 595,50.5C 596.015,54.4402 596.515,58.4402 596.5,62.5 Z"/></g>
<g><path fill="#1b3596" d="M 594.5,59.5 C 595.167,60.5 595.833,61.5 596.5,62.5C 598.833,82.5 601.167,102.5 603.5,122.5C 598.167,122.5 592.833,122.5 587.5,122.5C 589.751,101.488 592.085,80.4884 594.5,59.5 Z"/></g>
<g><path fill="#84b51a" d="M 73.5,110.5 C 68.7185,111.074 64.0519,112.074 59.5,113.5C 61.671,94.8021 64.171,76.1355 67,57.5C 68.9725,75.1944 71.1392,92.8611 73.5,110.5 Z"/></g>
<g><path fill="#82b513" d="M 400.5,57.5 C 404.411,86.4274 408.744,115.427 413.5,144.5C 405.193,145.498 396.86,145.831 388.5,145.5C 392.663,116.193 396.663,86.8599 400.5,57.5 Z"/></g>
<g><path fill="#2c467c" d="M 137.5,104.5 C 145.047,104.406 152.38,105.072 159.5,106.5C 151.757,107.13 144.424,106.463 137.5,104.5 Z"/></g>
<g><path fill="#496679" d="M 104.5,105.5 C 100.409,106.895 96.0758,107.562 91.5,107.5C 91.5,108.833 91.5,110.167 91.5,111.5C 90.5489,110.081 90.2155,108.415 90.5,106.5C 95.1522,106.002 99.8189,105.669 104.5,105.5 Z"/></g>
<g><path fill="#1a3595" d="M 73.5,110.5 C 75.8598,121.646 77.8598,132.98 79.5,144.5C 71.1932,145.498 62.8599,145.831 54.5,145.5C 55.6127,134.708 57.2793,124.041 59.5,113.5C 64.0519,112.074 68.7185,111.074 73.5,110.5 Z"/></g>
<g><path fill="#4e7548" d="M 202.5,112.5 C 205.152,112.41 207.485,113.076 209.5,114.5C 206.848,114.59 204.515,113.924 202.5,112.5 Z"/></g>
<g><path fill="#35536d" d="M 289.5,136.5 C 295.051,137.797 300.384,139.463 305.5,141.5C 299.656,140.994 294.323,139.327 289.5,136.5 Z"/></g>
<g><path fill="#4d7449" d="M 352.5,151.5 C 357.414,151.362 362.081,152.028 366.5,153.5C 361.586,153.638 356.919,152.972 352.5,151.5 Z"/></g>
<g><path fill="#eef0f7" d="M 665.5,190.5 C 671.812,190.648 674.978,193.981 675,200.5C 675.988,207.668 675.322,214.668 673,221.5C 670.029,225.092 666.696,225.425 663,222.5C 659.196,213.772 658.529,204.772 661,195.5C 662.059,193.341 663.559,191.674 665.5,190.5 Z"/></g>
<g><path fill="#f3f4f9" d="M 709.5,190.5 C 716.52,190.322 719.853,193.822 719.5,201C 717.562,208.72 714.895,216.22 711.5,223.5C 709.833,223.167 708.833,222.167 708.5,220.5C 709.301,217.432 710.301,214.432 711.5,211.5C 705.856,207.593 704.022,202.259 706,195.5C 706.997,193.677 708.164,192.01 709.5,190.5 Z"/></g>
<g><path fill="#e1e4f1" d="M 646.5,191.5 C 648.833,191.5 651.167,191.5 653.5,191.5C 653.5,202.167 653.5,212.833 653.5,223.5C 651.833,223.5 650.167,223.5 648.5,223.5C 648.5,214.833 648.5,206.167 648.5,197.5C 647.167,197.5 645.833,197.5 644.5,197.5C 644.604,195.297 645.27,193.297 646.5,191.5 Z"/></g>
<g><path fill="#eff0f7" d="M 678.5,191.5 C 683.5,191.5 688.5,191.5 693.5,191.5C 690.733,202.64 686.9,213.307 682,223.5C 680.268,223.266 679.434,222.266 679.5,220.5C 681.674,212.81 684.341,205.31 687.5,198C 684.518,197.502 681.518,197.335 678.5,197.5C 678.5,195.5 678.5,193.5 678.5,191.5 Z"/></g>
<g><path fill="#f2f3f9" d="M 570.5,192.5 C 571.833,192.5 573.167,192.5 574.5,192.5C 574.334,200.174 574.5,207.841 575,215.5C 577.135,220.325 579.801,220.659 583,216.5C 583.5,208.507 583.666,200.507 583.5,192.5C 584.833,192.5 586.167,192.5 587.5,192.5C 587.666,200.84 587.5,209.173 587,217.5C 584.163,223.542 579.663,225.042 573.5,222C 572.107,220.829 571.273,219.329 571,217.5C 570.5,209.173 570.334,200.84 570.5,192.5 Z"/></g>
<g><path fill="#ebedf6" d="M 590.5,192.5 C 591.833,192.5 593.167,192.5 594.5,192.5C 594.334,196.514 594.501,200.514 595,204.5C 597.5,200.833 600,197.167 602.5,193.5C 605.5,192.167 608.5,192.167 611.5,193.5C 612.762,198.771 613.762,204.104 614.5,209.5C 615.663,203.852 616.663,198.185 617.5,192.5C 619.451,192.227 620.951,192.893 622,194.5C 623.107,199.477 624.107,204.477 625,209.5C 626.161,203.874 626.994,198.207 627.5,192.5C 628.833,192.5 630.167,192.5 631.5,192.5C 629.92,202.804 628.587,213.137 627.5,223.5C 625.549,223.773 624.049,223.107 623,221.5C 622.277,216.104 621.277,210.771 620,205.5C 617.954,211.315 616.788,217.315 616.5,223.5C 615.167,223.5 613.833,223.5 612.5,223.5C 611.219,213.76 609.552,204.094 607.5,194.5C 604.403,197.698 602.069,201.364 600.5,205.5C 602.85,211.527 605.183,217.527 607.5,223.5C 606.022,223.762 604.689,223.429 603.5,222.5C 601.333,218.167 599.167,213.833 597,209.5C 596.333,210.167 595.667,210.833 595,211.5C 594.501,215.486 594.334,219.486 594.5,223.5C 593.167,223.5 591.833,223.5 590.5,223.5C 590.5,213.167 590.5,202.833 590.5,192.5 Z"/></g>
<g><path fill="#223998" d="M 665.5,196.5 C 668.86,195.79 670.693,197.124 671,200.5C 671.667,204.833 671.667,209.167 671,213.5C 669.885,218.736 667.885,219.403 665,215.5C 664.249,209.116 664.416,202.783 665.5,196.5 Z"/></g>
<g><path fill="#293e9b" d="M 710.5,196.5 C 713.352,196.352 715.019,197.686 715.5,200.5C 715.121,205.121 713.288,206.121 710,203.5C 709.444,201.115 709.61,198.782 710.5,196.5 Z"/></g>
<g><path fill="#dfe3f0" d="M 697.5,217.5 C 699.196,217.685 700.529,218.519 701.5,220C 700.188,222.941 698.688,225.774 697,228.5C 696.13,227.892 695.63,227.059 695.5,226C 696.687,223.276 697.353,220.443 697.5,217.5 Z"/></g>
</svg>
