<?xml version="1.0" encoding="UTF-8"?>
<!DOCTYPE svg PUBLIC "-//W3C//DTD SVG 1.1//EN" "http://www.w3.org/Graphics/SVG/1.1/DTD/svg11.dtd">
<svg xmlns="http://www.w3.org/2000/svg" version="1.1" width="615px" height="170px" style="shape-rendering:geometricPrecision; text-rendering:geometricPrecision; image-rendering:optimizeQuality; fill-rule:evenodd; clip-rule:evenodd" xmlns:xlink="http://www.w3.org/1999/xlink">
<g><path style="opacity:1" fill="#cb3727" d="M 475.5,-0.5 C 478.167,-0.5 480.833,-0.5 483.5,-0.5C 524.604,24.559 565.937,49.3923 607.5,74C 610.358,75.6941 612.691,77.8607 614.5,80.5C 614.5,83.1667 614.5,85.8333 614.5,88.5C 613.728,89.6935 612.728,90.6935 611.5,91.5C 601.482,86.8336 591.148,82.6669 580.5,79C 572.5,78.3333 564.5,78.3333 556.5,79C 537.146,84.2113 517.479,86.2113 497.5,85C 492.777,83.8044 488.443,81.8044 484.5,79C 481.525,78.2873 479.025,79.1207 477,81.5C 476.316,82.7839 476.483,83.9505 477.5,85C 486.005,89.0894 493.672,94.4228 500.5,101C 516.081,112.067 532.748,121.234 550.5,128.5C 528.5,142.167 506.5,155.833 484.5,169.5C 481.5,169.5 478.5,169.5 475.5,169.5C 473.193,168.023 471.36,166.023 470,163.5C 469.333,110.833 469.333,58.1667 470,5.5C 471.36,2.97739 473.193,0.977392 475.5,-0.5 Z"/></g>
<g><path style="opacity:1" fill="#ffffff" d="M 363.5,49.5 C 365.5,49.5 367.5,49.5 369.5,49.5C 369.5,72.8333 369.5,96.1667 369.5,119.5C 368.167,119.5 366.833,119.5 365.5,119.5C 365.313,117.436 364.813,115.436 364,113.5C 361.559,115.969 358.726,117.802 355.5,119C 337.007,121.848 327.674,113.848 327.5,95C 328.857,71.9965 340.191,64.6632 361.5,73C 362.701,73.9025 363.535,75.0692 364,76.5C 363.619,67.5454 363.452,58.5454 363.5,49.5 Z M 343.5,74.5 C 353.466,72.3918 359.966,76.0585 363,85.5C 363.89,92.914 363.557,100.247 362,107.5C 359.218,112.553 354.885,115.22 349,115.5C 340.473,114.641 335.473,109.974 334,101.5C 333.039,94.6638 333.705,87.9972 336,81.5C 337.742,78.2543 340.242,75.921 343.5,74.5 Z"/></g>
<g><path style="opacity:1" fill="#ffffff" d="M -0.5,119.5 C -0.5,118.5 -0.5,117.5 -0.5,116.5C 8.00204,95.679 16.3354,74.679 24.5,53.5C 31.1667,52.1667 37.8333,52.1667 44.5,53.5C 53.0873,75.3306 61.0873,97.3306 68.5,119.5C 62.1318,119.83 55.7985,119.496 49.5,118.5C 48.1667,115.167 46.8333,111.833 45.5,108.5C 37.8622,107.503 30.1955,107.169 22.5,107.5C 21.5711,111.284 20.2378,114.951 18.5,118.5C 12.2015,119.496 5.86818,119.83 -0.5,119.5 Z M 33.5,75.5 C 36.1046,81.1309 38.4379,86.9643 40.5,93C 36.5138,93.4988 32.5138,93.6655 28.5,93.5C 30.1667,87.5 31.8333,81.5 33.5,75.5 Z"/></g>
<g><path style="opacity:1" fill="#ffffff" d="M 76.5,52.5 C 82.5,52.5 88.5,52.5 94.5,52.5C 94.5,74.8333 94.5,97.1667 94.5,119.5C 88.5,119.5 82.5,119.5 76.5,119.5C 76.5,97.1667 76.5,74.8333 76.5,52.5 Z"/></g>
<g><path style="opacity:1" fill="#ffffff" d="M 108.5,52.5 C 118.839,52.3335 129.172,52.5002 139.5,53C 161.134,59.0894 169.967,73.2561 166,95.5C 160.933,109.226 151.1,117.059 136.5,119C 127.173,119.5 117.839,119.666 108.5,119.5C 108.5,97.1667 108.5,74.8333 108.5,52.5 Z M 126.5,68.5 C 144.104,67.9408 150.937,76.2741 147,93.5C 142.575,101.462 135.741,104.795 126.5,103.5C 126.5,91.8333 126.5,80.1667 126.5,68.5 Z"/></g>
<g><path style="opacity:1" fill="#ffffff" d="M 191.5,52.5 C 198.2,52.17 204.866,52.5033 211.5,53.5C 220.03,75.0883 228.363,96.755 236.5,118.5C 229.866,119.497 223.2,119.83 216.5,119.5C 215.863,115.422 214.53,111.589 212.5,108C 205.167,107.333 197.833,107.333 190.5,108C 188.833,111.667 187.167,115.333 185.5,119C 179.141,119.831 172.807,119.664 166.5,118.5C 175.233,96.632 183.566,74.632 191.5,52.5 Z M 200.5,76.5 C 201.497,76.4701 202.164,76.9701 202.5,78C 204.068,82.8707 205.735,87.7041 207.5,92.5C 203.5,93.8333 199.5,93.8333 195.5,92.5C 197.575,87.2755 199.242,81.9422 200.5,76.5 Z"/></g>
<g><path style="opacity:1" fill="#ffffff" d="M 385.5,52.5 C 389.074,51.9079 391.074,53.4079 391.5,57C 391.011,59.4904 389.677,61.3237 387.5,62.5C 384.343,59.7657 383.676,56.4324 385.5,52.5 Z"/></g>
<g><path style="opacity:1" fill="#ffffff" d="M 259.5,69.5 C 263.833,69.5 268.167,69.5 272.5,69.5C 272.5,71.1667 272.5,72.8333 272.5,74.5C 263.074,72.4611 256.574,75.7945 253,84.5C 251.588,96.1041 251.088,107.771 251.5,119.5C 249.833,119.5 248.167,119.5 246.5,119.5C 246.5,103.167 246.5,86.8333 246.5,70.5C 248.167,70.5 249.833,70.5 251.5,70.5C 251.338,72.5273 251.505,74.5273 252,76.5C 254.396,73.9334 256.896,71.6 259.5,69.5 Z"/></g>
<g><path style="opacity:1" fill="#ffffff" d="M 291.5,69.5 C 297.262,69.1493 302.928,69.6493 308.5,71C 311.381,72.2506 313.214,74.4173 314,77.5C 315.447,91.4271 315.947,105.427 315.5,119.5C 311.336,119.228 309.503,116.894 310,112.5C 303.544,119.139 295.71,121.306 286.5,119C 279.558,115.2 277.058,109.367 279,101.5C 281.547,94.9666 286.38,91.4666 293.5,91C 299.157,90.5006 304.824,90.3339 310.5,90.5C 311.384,77.213 305.384,72.0463 292.5,75C 290.278,75.6946 288.111,76.5279 286,77.5C 283.752,76.2635 283.252,74.5969 284.5,72.5C 287.016,71.6701 289.35,70.6701 291.5,69.5 Z M 302.5,94.5 C 305.167,94.5 307.833,94.5 310.5,94.5C 311.275,109.563 304.275,116.063 289.5,114C 287.714,113.215 286.214,112.049 285,110.5C 282.998,104.315 284.831,99.8151 290.5,97C 294.637,96.1606 298.637,95.3272 302.5,94.5 Z"/></g>
<g><path style="opacity:1" fill="#ffffff" d="M 417.5,69.5 C 432.341,66.6564 441.841,72.3231 446,86.5C 447.839,96.2362 446.172,105.236 441,113.5C 438.592,115.956 435.759,117.789 432.5,119C 418.225,122.284 408.725,117.117 404,103.5C 402.898,95.3209 403.565,87.3209 406,79.5C 408.794,74.8659 412.627,71.5326 417.5,69.5 Z M 419.5,74.5 C 429.987,72.521 436.821,76.521 440,86.5C 440.87,92.9172 440.536,99.2506 439,105.5C 434.936,113.61 428.436,116.443 419.5,114C 411.648,110.007 407.981,103.507 408.5,94.5C 408.068,85.3794 411.734,78.7127 419.5,74.5 Z"/></g>
<g><path style="opacity:1" fill="#ffffff" d="M 384.5,70.5 C 386.5,70.5 388.5,70.5 390.5,70.5C 390.5,86.8333 390.5,103.167 390.5,119.5C 388.5,119.5 386.5,119.5 384.5,119.5C 384.5,103.167 384.5,86.8333 384.5,70.5 Z"/></g>
<g><path style="opacity:1" fill="#fdf7f7" d="M 611.5,91.5 C 608.554,94.3131 605.221,96.6465 601.5,98.5C 588.628,88.4451 573.962,84.2784 557.5,86C 546.427,88.4707 535.26,90.304 524,91.5C 516.469,90.8022 508.969,90.3022 501.5,90C 506.35,91.7315 511.35,92.7315 516.5,93C 531.846,93.905 547.179,94.905 562.5,96C 571.655,97.9211 579.988,101.421 587.5,106.5C 585.206,108.653 582.54,110.32 579.5,111.5C 562.565,103.063 544.565,99.2294 525.5,100C 516.942,98.4427 508.608,96.4427 500.5,94C 519.143,105.988 538.81,115.822 559.5,123.5C 556.76,125.56 553.76,127.226 550.5,128.5C 532.748,121.234 516.081,112.067 500.5,101C 493.672,94.4228 486.005,89.0894 477.5,85C 476.483,83.9505 476.316,82.7839 477,81.5C 479.025,79.1207 481.525,78.2873 484.5,79C 488.443,81.8044 492.777,83.8044 497.5,85C 517.479,86.2113 537.146,84.2113 556.5,79C 564.5,78.3333 572.5,78.3333 580.5,79C 591.148,82.6669 601.482,86.8336 611.5,91.5 Z"/></g>
<g><path style="opacity:1" fill="#cb3727" d="M 601.5,98.5 C 597.074,101.594 592.407,104.261 587.5,106.5C 579.988,101.421 571.655,97.9211 562.5,96C 547.179,94.905 531.846,93.905 516.5,93C 511.35,92.7315 506.35,91.7315 501.5,90C 508.969,90.3022 516.469,90.8022 524,91.5C 535.26,90.304 546.427,88.4707 557.5,86C 573.962,84.2784 588.628,88.4451 601.5,98.5 Z"/></g>
<g><path style="opacity:1" fill="#cb3727" d="M 579.5,111.5 C 573.118,115.863 566.451,119.863 559.5,123.5C 538.81,115.822 519.143,105.988 500.5,94C 508.608,96.4427 516.942,98.4427 525.5,100C 544.565,99.2294 562.565,103.063 579.5,111.5 Z"/></g>
</svg>
