<?xml version="1.0" encoding="UTF-8" standalone="no"?>
<svg
   width="347.78177"
   height="49.580002"
   version="1.0"
   id="svg15"
   sodipodi:docname="Anixe HD.svg"
   inkscape:version="1.1.1 (3bf5ae0d25, 2021-09-20)"
   xmlns:inkscape="http://www.inkscape.org/namespaces/inkscape"
   xmlns:sodipodi="http://sodipodi.sourceforge.net/DTD/sodipodi-0.dtd"
   xmlns="http://www.w3.org/2000/svg"
   xmlns:svg="http://www.w3.org/2000/svg">
  <defs
     id="defs19" />
  <sodipodi:namedview
     id="namedview17"
     pagecolor="#ffffff"
     bordercolor="#666666"
     borderopacity="1.0"
     inkscape:pageshadow="2"
     inkscape:pageopacity="0.0"
     inkscape:pagecheckerboard="0"
     showgrid="false"
     inkscape:zoom="2.3778304"
     inkscape:cx="234.24716"
     inkscape:cy="24.60226"
     inkscape:window-width="1920"
     inkscape:window-height="1017"
     inkscape:window-x="-8"
     inkscape:window-y="-8"
     inkscape:window-maximized="1"
     inkscape:current-layer="svg15" />
  <g
     id="g13"
     transform="translate(-3.02081,-5)">
    <title
       id="title2">Layer 1</title>
    <g
       id="layer1">
      <g
         id="g3261">
        <path
           fill="#f5b02f"
           id="path2406"
           d="m 306.79822,5 -6.47112,49.58 h 23.11142 c 7.95046,0 14.42158,-2.29897 19.59846,-6.89635 5.17715,-4.75424 7.7656,-11.02342 7.7656,-18.96471 0,-8.15006 -2.58845,-14.3149 -7.7656,-18.33785 C 338.59977,6.82867 331.94352,5 323.62337,5 Z m 15.90064,14.62857 h 1.66418 c 2.58845,0 4.62233,0.94031 6.28627,2.71652 1.4791,1.82867 2.40361,4.02294 2.40361,6.58287 0,3.60488 -1.29425,6.47826 -3.88266,8.51571 -2.40361,1.77649 -5.36204,2.7168 -9.05986,2.7168 z" />
        <path
           fill="#f5b02f"
           id="path2402"
           d="m 283.50195,5 -2.03391,16.97944 H 270.55947 L 272.59334,5 h -18.30448 l -6.10143,49.58 h 18.30449 l 2.03363,-17.91977 h 11.09346 L 277.40052,54.58 h 18.30425 L 301.80619,5 Z" />
        <path
           fill="#f5b02f"
           id="path2400"
           d="m 195.12349,5 -6.10139,49.58 h 32.72579 l 1.84906,-13.47927 h -15.16124 l 0.55482,-5.48545 h 13.49702 l 1.4791,-12.27746 h -13.49707 l 0.92452,-5.48574 h 14.60642 L 227.66447,5 Z" />
        <path
           fill="#f5b02f"
           id="path2398"
           d="M 171.08756,5 164.8013,14.61309 159.80925,5 H 140.39539 L 153.33788,27.93523 133.55457,54.58 h 20.33813 l 8.32015,-12.27744 6.84082,12.27744 h 18.67418 L 173.3063,28.82331 191.42567,5 Z" />
        <path
           fill="#f5b02f"
           id="path2396"
           d="m 120.42723,5 -6.28652,49.58 H 132.4452 L 138.54661,5 Z" />
        <path
           fill="#f5b02f"
           id="path2394"
           d="m 96.94584,5 -2.7733,25.5998 C 90.84443,21.61383 86.96176,13.09784 82.33942,5 H 64.40489 L 58.11863,54.58 H 75.6832 L 78.45675,28.77113 90.84443,54.58 h 17.74968 L 114.69552,5 Z" />
        <path
           fill="#f5b02f"
           id="path2392"
           d="M 25.94738,5 3.02081,54.58 h 19.22875 l 2.58845,-6.53071 H 37.04084 L 37.59565,54.58 H 55.34507 L 48.3194,5 Z m 6.84108,20.89778 c 0.92426,-2.50774 1.66393,-4.64983 2.21849,-6.47826 l 1.10937,17.39727 h -7.02593 c 0.36996,-1.51497 1.66418,-5.17204 3.69807,-10.91901 z" />
      </g>
    </g>
  </g>
</svg>
