<?xml version="1.0" encoding="UTF-8" standalone="no"?>
<!DOCTYPE svg PUBLIC "-//W3C//DTD SVG 1.1//EN" "http://www.w3.org/Graphics/SVG/1.1/DTD/svg11.dtd">
<svg width="100%" height="100%" viewBox="0 0 289 159" version="1.1" xmlns="http://www.w3.org/2000/svg" xmlns:xlink="http://www.w3.org/1999/xlink" xml:space="preserve" xmlns:serif="http://www.serif.com/" style="fill-rule:evenodd;clip-rule:evenodd;stroke-miterlimit:10;">
    <g id="Ebene_2">
        <g transform="matrix(0.725248,0,0,0.725248,-0.117441,-0.62668)">
            <path d="M394.58,200.27L394.58,19.64C352.13,12.8 277.57,3.09 196.66,3.09C116.41,3.09 44.14,12.65 2.75,19.48L2.75,200.22C45.17,207.06 119.81,216.81 200.82,216.81C278.93,216.81 352.44,207.11 394.58,200.27" style="fill:rgb(255,152,0);fill-rule:nonzero;"/>
        </g>
        <g transform="matrix(0.725248,0,0,0.725248,-0.117441,-0.62668)">
            <path d="M395,110L395,18.5L295.5,8.5L195,3.5L99.5,7.5L3,18.5L3,110L395,110Z" style="fill:rgb(0,72,149);fill-rule:nonzero;"/>
        </g>
        <g transform="matrix(0.725248,0,0,0.725248,-0.117441,-0.62668)">
            <path d="M196.65,3.09C116.41,3.09 44.14,12.65 2.75,19.48L2.75,200.22C45.17,207.06 119.81,216.81 200.82,216.81C278.93,216.81 352.44,207.11 394.58,200.27L394.58,19.64C352.13,12.8 277.57,3.09 196.65,3.09Z" style="fill:none;fill-rule:nonzero;stroke:white;stroke-width:4.75px;"/>
        </g>
        <g transform="matrix(0.725248,0,0,0.725248,-0.117441,-0.62668)">
            <path d="M69.95,58.52C69.95,46.71 61.85,42.13 46.95,42.13C44.369,42.133 41.791,42.293 39.23,42.61C35.13,43.28 34.09,44.33 34.09,48.42L34.09,48.8C34.09,52.99 35.23,53.95 39.42,53.28C42.168,52.908 44.937,52.717 47.71,52.71C54.28,52.71 57.62,53.95 57.62,58.52L57.62,62.14L47.99,62.14C35.13,62.14 28.66,67.09 28.66,77C28.66,86.91 34.94,92 49.33,92C63.72,92 70,87 70,76.66L69.95,58.52ZM57.57,76.09C57.09,81.23 53.95,81.8 49.09,81.71C44.42,81.8 41.37,81.32 40.99,76.71C40.99,73.19 43.28,71.47 47.75,71.47L57.57,71.47L57.57,76.09ZM90.81,61.42C90.81,56.08 92.72,53.89 100.05,53.89C107.38,53.89 109.05,56.08 109.05,61.42L109.05,85.61C109.05,89.9 110.1,90.95 114.38,90.95L116.19,90.95C120.48,90.95 121.53,89.9 121.53,85.61L121.53,61.38C121.53,48.38 114.86,42.13 100,42.13C85.61,42.13 78.28,48.8 78.28,61.38L78.28,85.57C78.28,89.86 79.28,90.91 83.61,90.91L85.42,90.91C89.71,90.91 90.76,89.86 90.76,85.57L90.81,61.42ZM125.81,50.27C125.81,54.08 126.81,55.03 130.58,55.03L134.39,55.03L134.39,73.8C134.39,85.9 140.48,91.99 152.77,91.99C155.007,92.041 157.244,91.85 159.44,91.42C163.54,90.56 164.68,88.95 164.68,84.66L164.68,83.66C164.68,79.47 163.73,78.99 159.44,79.76C157.241,80.167 155.007,80.358 152.77,80.33C148.77,80.33 146.77,78.23 146.77,73.95L146.77,54.99L157.63,54.99C161.92,54.99 162.96,53.99 162.96,49.66L162.96,48.61C162.96,44.33 161.96,43.28 157.63,43.28L146.82,43.28L146.82,35.85C146.82,31.75 145.96,30.85 141.82,30.85L141.25,30.85C137.15,30.85 136.01,31.85 135.53,35.71L134.39,43.24L130.48,44.09C126.77,44.86 125.81,46 125.81,49.81L125.81,50.27ZM212.81,62.75C212.81,49.03 205.857,42.17 191.95,42.17C177.19,42.17 169.76,49.32 169.76,63.61L169.76,71.23C169.76,85.8 177.57,92.09 194.62,92.09C198.531,92.189 202.438,91.772 206.24,90.85C210.43,89.8 211.24,88.85 211.24,84.66L211.24,83.66C211.24,79.18 210.24,78.23 206.24,79.09C202.451,79.92 198.588,80.366 194.71,80.42C185.95,80.42 182.23,78.14 182.23,73.18L182.23,71.75L206.43,71.75C210.91,71.75 212.15,70.8 212.62,66.52C212.72,65.37 212.81,64.13 212.81,62.8L212.81,62.75ZM182.23,60.23C182.23,55.37 185.38,52.99 191.57,52.99C197.76,52.99 201,55.37 201,60.23L201,61.66L182.25,61.66L182.23,60.23ZM233.67,61.47C233.67,56.13 235.58,53.94 242.91,53.94C250.24,53.94 251.91,56.13 251.91,61.47L251.91,85.66C251.91,89.95 252.96,91 257.25,91L259.06,91C263.34,91 264.39,89.95 264.39,85.66L264.39,61.38C264.39,48.38 257.72,42.13 242.86,42.13C228.48,42.13 221.14,48.8 221.14,61.38L221.14,85.57C221.14,89.86 222.19,90.91 226.48,90.91L228.29,90.91C232.58,90.91 233.62,89.86 233.62,85.57L233.67,61.47ZM286.25,61.47C286.25,56.13 288.16,53.94 295.5,53.94C302.84,53.94 304.5,56.13 304.5,61.47L304.5,85.66C304.5,89.95 305.5,91 309.84,91L311.65,91C315.93,91 316.98,89.95 316.98,85.66L316.98,61.38C316.98,48.38 310.31,42.13 295.46,42.13C281.07,42.13 273.74,48.8 273.74,61.38L273.74,85.57C273.74,89.86 274.74,90.91 279.07,90.91L280.88,90.91C285.17,90.91 286.21,89.86 286.21,85.57L286.25,61.47ZM368.46,62.8C368.46,49.08 361.507,42.22 347.6,42.22C332.83,42.22 325.4,49.37 325.4,63.66L325.4,71.28C325.4,85.85 333.22,92.14 350.27,92.14C354.181,92.237 358.088,91.821 361.89,90.9C366.08,89.85 366.89,88.9 366.89,84.71L366.89,83.71C366.89,79.23 365.89,78.28 361.89,79.14C358.101,79.97 354.238,80.416 350.36,80.47C341.6,80.47 337.88,78.19 337.88,73.23L337.88,71.8L362.07,71.8C366.55,71.8 367.78,70.85 368.26,66.57C368.36,65.42 368.45,64.18 368.45,62.85L368.46,62.8ZM337.87,60.28C337.87,55.42 341.02,53.04 347.21,53.04C353.4,53.04 356.64,55.42 356.64,60.28L356.64,61.71L337.9,61.71L337.87,60.28Z" style="fill:white;fill-rule:nonzero;"/>
        </g>
        <g transform="matrix(0.725248,0,0,0.725248,-0.117441,-0.62668)">
            <path d="M150.29,187.24L152.37,187.24C157.06,187.24 158.07,186.24 158.07,181.54L158.07,153.71C158.07,138.91 150.34,132.02 133.74,132.02C117.68,132.02 109.2,139.52 109.2,153.71L109.2,181.54C109.2,186.23 110.2,187.24 114.9,187.24L116.98,187.24C121.67,187.24 122.68,186.24 122.68,181.54L122.68,153.71C122.68,147.95 124.49,144.62 133.74,144.62C142.99,144.62 144.59,147.82 144.59,153.71L144.59,181.54C144.59,186.23 145.59,187.24 150.29,187.24" style="fill:rgb(0,72,149);fill-rule:nonzero;"/>
        </g>
        <g transform="matrix(0.725248,0,0,0.725248,-0.117441,-0.62668)">
            <path d="M193.24,132.02L192.07,132.02C177.45,132.02 169.72,138.76 169.72,151.52L169.72,181.52C169.72,186.21 170.72,187.22 175.42,187.22L177.5,187.22C182.19,187.22 183.2,186.22 183.2,181.52L183.2,152.62C183.2,147.55 184.65,144.62 192.07,144.62L193.28,144.62C195.36,144.78 196.77,144.73 197.5,144.04C198.23,143.35 198.43,142.2 198.43,139.8L198.43,138.59C198.43,133.59 197.18,132.02 193.28,132.02" style="fill:rgb(0,72,149);fill-rule:nonzero;"/>
        </g>
        <g transform="matrix(0.725248,0,0,0.725248,-0.117441,-0.62668)">
            <path d="M285.4,133.34L279.2,133.34C275.4,133.34 274.72,137.02 273.79,142.13C273.61,143.07 273.43,144.07 273.22,145.08L267.22,174.51C266.77,176.44 266.12,177.16 264.82,177.16C262.56,177.16 262.19,175.16 262.12,173.61L258.77,145.89C258.3,141.96 257.33,133.78 246.62,133.35L246.51,133.35C235.71,133.73 234.7,142.25 234.27,145.89L234.27,146.06L230.98,173.64C230.91,175.13 230.54,177.16 228.28,177.16C226.98,177.16 226.28,176.44 225.88,174.52L219.88,145.08C219.67,144.08 219.49,143.08 219.31,142.08C218.38,136.98 217.7,133.3 213.9,133.3L207.7,133.3C207.327,133.268 206.952,133.324 206.605,133.463C206.258,133.602 205.948,133.82 205.7,134.1C204.26,135.88 205.24,140.34 206.18,144.64C206.34,145.38 206.5,146.12 206.65,146.84L212.4,175.09C214.84,184.77 219.58,188.55 229.3,188.55C237.55,188.55 242.84,182.7 243.78,172.07C244.78,161.22 246.52,146.07 246.52,146.07C246.52,146.07 248.38,161.97 249.29,172.32C250.23,182.94 255.49,188.59 263.74,188.59C273.46,188.59 278.2,184.81 280.65,175.11L286.46,146.91C286.61,146.19 286.77,145.45 286.93,144.71C287.87,140.4 288.85,135.95 287.41,134.17C287.162,133.89 286.852,133.672 286.505,133.533C286.158,133.394 285.783,133.338 285.41,133.37" style="fill:rgb(0,72,149);fill-rule:nonzero;"/>
        </g>
    </g>
</svg>
