<svg id="Ebene_1" data-name="Ebene 1" xmlns="http://www.w3.org/2000/svg" viewBox="0 0 493.13 247.18"><defs><clipPath id="clip-path" transform="translate(-436.93 -260.91)"><path class="cls-1" d="M890.51 489.18V308.55C848.06 301.71 773.5 292 692.59 292c-80.25 0-152.52 9.56-193.91 16.39v180.74c42.42 6.84 117.06 16.59 198.07 16.59 78.11 0 151.62-9.7 193.76-16.54"/></clipPath><style>.cls-1{fill:none}.cls-4{fill:#004895}</style></defs><path d="M890.51 489.18V308.55C848.06 301.71 773.5 292 692.59 292c-80.25 0-152.52 9.56-193.91 16.39v180.74c42.42 6.84 117.06 16.59 198.07 16.59 78.11 0 151.62-9.7 193.76-16.54" transform="translate(-436.93 -260.91)" style="fill:#ff9800"/><path class="cls-4" d="M0 0h493.13v137.94H0z" style="clip-path:url(#clip-path)"/><path class="cls-1" d="M498.68 308.38v180.75c42.43 6.84 117.06 16.59 198.07 16.59 78.11 0 151.62-9.7 193.76-16.54V308.55C848.06 301.71 773.5 292 692.59 292c-80.25 0-152.52 9.56-193.91 16.39" transform="translate(-436.93 -260.91)"/><path d="M692.58 292c-80.24 0-152.51 9.56-193.9 16.39v180.74c42.42 6.84 117.06 16.59 198.07 16.59 78.11 0 151.62-9.7 193.76-16.54V308.55C848.06 301.71 773.5 292 692.58 292z" transform="translate(-436.93 -260.91)" style="stroke:#fff;stroke-miterlimit:10;stroke-width:4.75px;fill:none"/><path d="M565.88 347.43c0-11.81-8.1-16.39-23-16.39a63.56 63.56 0 0 0-7.72.48c-4.1.67-5.14 1.72-5.14 5.81v.38c0 4.19 1.14 5.15 5.33 4.48a62.92 62.92 0 0 1 8.29-.57c6.57 0 9.91 1.24 9.91 5.81v3.62h-9.63c-12.86 0-19.33 4.95-19.33 14.86s6.28 15 20.67 15 20.67-5 20.67-15.34zM553.5 365c-.48 5.14-3.62 5.71-8.48 5.62-4.67.09-7.72-.39-8.1-5 0-3.52 2.29-5.24 6.76-5.24h9.82zm33.24-14.67c0-5.34 1.91-7.53 9.24-7.53s9 2.19 9 7.53v24.19c0 4.29 1.05 5.34 5.33 5.34h1.81c4.29 0 5.34-1.05 5.34-5.34v-24.23c0-13-6.67-19.25-21.53-19.25-14.39 0-21.72 6.67-21.72 19.25v24.19c0 4.29 1 5.34 5.33 5.34h1.81c4.29 0 5.34-1.05 5.34-5.34zm35-11.15c0 3.81 1 4.76 4.77 4.76h3.81v18.77c0 12.1 6.09 18.19 18.38 18.19a31 31 0 0 0 6.67-.57c4.1-.86 5.24-2.47 5.24-6.76v-1c0-4.19-.95-4.67-5.24-3.9a34.27 34.27 0 0 1-6.67.57c-4 0-6-2.1-6-6.38V343.9h10.86c4.29 0 5.33-1 5.33-5.33v-1.05c0-4.28-1-5.33-5.33-5.33h-10.81v-7.43c0-4.1-.86-5-5-5h-.57c-4.1 0-5.24 1-5.72 4.86l-1.14 7.53-3.91.85c-3.71.77-4.67 1.91-4.67 5.72zm87 12.48q0-20.58-20.86-20.58c-14.76 0-22.19 7.15-22.19 21.44v7.62c0 14.57 7.81 20.86 24.86 20.86a44.56 44.56 0 0 0 11.62-1.24c4.19-1.05 5-2 5-6.19v-1c0-4.48-1-5.43-5-4.57a57.67 57.67 0 0 1-11.53 1.33c-8.76 0-12.48-2.28-12.48-7.24v-1.43h24.2c4.48 0 5.72-.95 6.19-5.23.1-1.15.19-2.39.19-3.72m-30.58-2.57c0-4.86 3.15-7.24 9.34-7.24s9.43 2.38 9.43 7.24v1.43h-18.75zm51.44 1.24c0-5.34 1.91-7.53 9.24-7.53s9 2.19 9 7.53v24.19c0 4.29 1.05 5.34 5.34 5.34h1.81c4.28 0 5.33-1.05 5.33-5.34v-24.28c0-13-6.67-19.25-21.53-19.25-14.38 0-21.72 6.67-21.72 19.25v24.19c0 4.29 1.05 5.34 5.34 5.34h1.81c4.29 0 5.33-1.05 5.33-5.34zm52.58 0c0-5.34 1.91-7.53 9.25-7.53s9 2.19 9 7.53v24.19c0 4.29 1 5.34 5.34 5.34h1.81c4.28 0 5.33-1.05 5.33-5.34v-24.28c0-13-6.67-19.25-21.52-19.25-14.39 0-21.72 6.67-21.72 19.25v24.19c0 4.29 1 5.34 5.33 5.34h1.81c4.29 0 5.33-1.05 5.33-5.34zm82.21 1.33q0-20.58-20.86-20.58c-14.77 0-22.2 7.15-22.2 21.44v7.62c0 14.57 7.82 20.86 24.87 20.86a44.66 44.66 0 0 0 11.62-1.24c4.19-1.05 5-2 5-6.19v-1c0-4.48-1-5.43-5-4.57a57.67 57.67 0 0 1-11.53 1.33c-8.76 0-12.48-2.28-12.48-7.24v-1.43H858c4.48 0 5.71-.95 6.19-5.23.1-1.15.19-2.39.19-3.72m-30.58-2.57c0-4.86 3.15-7.24 9.34-7.24s9.43 2.38 9.43 7.24v1.43h-18.74z" transform="translate(-436.93 -260.91)" style="fill:#fff"/><path class="cls-4" d="M646.22 476.15h2.08c4.69 0 5.7-1 5.7-5.7v-27.83c0-14.8-7.73-21.69-24.33-21.69-16.06 0-24.54 7.5-24.54 21.69v27.83c0 4.69 1 5.7 5.7 5.7h2.08c4.69 0 5.7-1 5.7-5.7v-27.83c0-5.76 1.81-9.09 11.06-9.09s10.85 3.2 10.85 9.09v27.83c0 4.69 1 5.7 5.7 5.7M689.17 420.93H688c-14.62 0-22.35 6.74-22.35 19.5v30c0 4.69 1 5.7 5.7 5.7h2.08c4.69 0 5.7-1 5.7-5.7v-28.9c0-5.07 1.45-8 8.87-8h1.21c2.08.16 3.49.11 4.22-.58s.93-1.84.93-4.24v-1.21c0-5-1.25-6.57-5.15-6.57M781.33 422.25h-6.2c-3.8 0-4.48 3.68-5.41 8.79-.18.94-.36 1.94-.57 2.95l-6 29.43c-.45 1.93-1.1 2.65-2.4 2.65-2.26 0-2.63-2-2.7-3.55l-3.35-27.72c-.47-3.93-1.44-12.11-12.15-12.54h-.11c-10.8.38-11.81 8.9-12.24 12.54v.17l-3.29 27.58c-.07 1.49-.44 3.52-2.7 3.52-1.3 0-2-.72-2.4-2.64l-6-29.44c-.21-1-.39-2-.57-3-.93-5.1-1.61-8.78-5.41-8.78h-6.2a2.4 2.4 0 0 0-2 .8c-1.44 1.78-.46 6.24.48 10.54.16.74.32 1.48.47 2.2l5.75 28.25c2.44 9.68 7.18 13.46 16.9 13.46 8.25 0 13.54-5.85 14.48-16.48 1-10.85 2.74-26 2.74-26s1.86 15.9 2.77 26.25c.94 10.62 6.2 16.27 14.45 16.27 9.72 0 14.46-3.78 16.91-13.48l5.81-28.2c.15-.72.31-1.46.47-2.2.94-4.31 1.92-8.76.48-10.54a2.4 2.4 0 0 0-2-.8" transform="translate(-436.93 -260.91)"/></svg>