<svg version="1.1" id="Layer_1" xmlns="http://www.w3.org/2000/svg" x="0" y="0" width="72" height="72" xml:space="preserve">
<path style="opacity:1" fill="#ffffff" d="M25.779 35.517c0-8.815-11.239-7.145-11.239-11.53 0-1.588 1.253-2.758 3.969-2.758 1.671 0 3.426.292 5.013.752l.377-5.641a28.865 28.865 0 0 0-5.139-.501c-7.06 0-11.197 3.508-11.197 8.815 0 9.444 11.239 6.978 11.239 11.783 0 2.006-1.713 3.008-4.095 3.008-2.047 0-4.345-.46-5.932-1.044l-.335 6.015c1.797.418 3.803.627 5.767.627 7.185-.001 11.572-4.054 11.572-9.526zM51.059 44.5l-5.975-9.024a486.904 486.904 0 0 0-2.172-3.176c3.76-.919 6.224-4.012 6.224-7.813 0-5.974-4.012-8.355-10.653-8.355-3.384 0-6.435.042-8.814.208V44.5h6.517V33.511h.251L43.119 44.5h7.94zm-8.732-19.47c0 2.382-1.755 3.844-4.514 3.844-.625 0-1.292-.042-1.627-.084v-7.227a19.116 19.116 0 0 1 1.797-.084c3.048 0 4.344 1.336 4.344 3.551zM40.637 54.778c0 .246.208.283.334.283.401 0 .685-.375.744-.77-.689.03-1.078.204-1.078.487zm3.737 0c0 .246.208.283.332.283.402 0 .688-.375.747-.77-.689.03-1.079.204-1.079.487zm-10.309-2.007c-.277 0-.494.166-.6.45h1.167a.57.57 0 0 0-.146-.293.578.578 0 0 0-.421-.157zM7.5 47.587V58.5h43.862V47.587H7.5zm5.134 8.343-.403-1.134h-1.759l-.402 1.134H8.941l1.921-5.27h1.029l1.937 5.27h-1.194zm4.691 0h-1.07v-2.517c0-.541-.165-.584-.398-.584-.464 0-.8.494-.8 1.174v1.928h-1.07v-3.992h1.049v.267a1.542 1.542 0 0 1 1-.338c.832 0 1.29.48 1.29 1.354l-.001 2.708zm2.93-3.065h-.999v1.611c0 .534.069.534.298.534.171 0 .348-.036.438-.058l.263-.064v.99l-.17.035a3.857 3.857 0 0 1-.731.074c-.829 0-1.168-.372-1.168-1.282v-1.841h-.731v-.928h.732v-1.104l1.071-.3v1.401h.998l-.001.932zm3.557 1.055-.022.188h-2.309c.015.326.096.567.24.716.146.151.365.225.673.225.328 0 .684-.076.95-.201l.27-.127.107.978-.146.061a3.342 3.342 0 0 1-1.289.237c-1.242 0-1.9-.705-1.9-2.041 0-1.244.726-2.08 1.806-2.08 1.013 0 1.641.656 1.641 1.715.002.088-.005.196-.021.329zm3.876 2.01h-1.07v-2.517c0-.541-.165-.584-.398-.584-.463 0-.799.494-.799 1.174v1.928H24.35v-3.992h1.049v.267a1.545 1.545 0 0 1 1.001-.338c.832 0 1.289.48 1.289 1.354l-.001 2.708zm4.128 0h-1.071v-2.517c0-.541-.165-.584-.397-.584-.463 0-.8.494-.8 1.174v1.928h-1.07v-3.992h1.049v.267a1.542 1.542 0 0 1 1-.338c.832 0 1.29.48 1.29 1.354l-.001 2.708zm3.895-2.011-.021.188h-2.309c.015.326.095.567.24.716.145.151.365.225.673.225.328 0 .683-.076.95-.201l.269-.127.108.978-.146.061a3.339 3.339 0 0 1-1.289.237c-1.242 0-1.899-.705-1.899-2.041 0-1.244.725-2.08 1.806-2.08 1.012 0 1.641.656 1.641 1.715.001.089-.008.197-.023.329zm1.568 2.076c-.356 0-.723-.043-1.028-.122l-.17-.044.062-1.092.268.098c.284.102.638.164.925.164.389 0 .851-.107.851-.617 0-.338-.294-.474-.815-.679-.609-.242-1.366-.545-1.366-1.524 0-.948.778-1.584 1.935-1.584.312 0 .622.03.918.088l.182.038-.063 1.037-.254-.072a3.055 3.055 0 0 0-.817-.122c-.297 0-.793.07-.793.54 0 .316.309.458.811.658.615.248 1.379.555 1.379 1.525-.003 1.023-.817 1.708-2.025 1.708zm4.481-.065v-.265c-.265.21-.606.33-.979.33-.729 0-1.201-.43-1.201-1.095 0-.871.815-1.433 2.146-1.484v-.057c0-.364-.09-.55-.57-.55-.318 0-.706.106-.969.264l-.282.17-.12-1.04.149-.06a3.42 3.42 0 0 1 1.326-.274c1.032 0 1.536.458 1.536 1.402v1.422c0 .337.006.715.015 1.021l.005.218H41.76v-.002zm3.739 0v-.265c-.265.209-.606.33-.979.33-.729 0-1.203-.43-1.203-1.095 0-.872.816-1.434 2.146-1.487v-.055c0-.364-.089-.549-.569-.549-.319 0-.707.106-.968.264l-.282.171-.123-1.039.148-.062c.435-.18.894-.274 1.329-.274 1.032 0 1.534.458 1.534 1.402v1.422c0 .337.008.715.015 1.021l.005.218-1.053-.002zm4.01-2.963-.236-.04a.953.953 0 0 0-.17-.016c-.17 0-.694 0-.694 1.37v1.647h-1.071v-3.993h1.05v.218c.26-.223.58-.325.974-.281l.195.022-.048 1.073zm-38.163-.632a3.92 3.92 0 0 0-.029.078l-.521 1.435h1.103l-.527-1.443-.026-.07zm10.82.436c-.277 0-.493.166-.599.45h1.167a.578.578 0 0 0-.146-.293.582.582 0 0 0-.422-.157zM52.575 20.463a6.962 6.962 0 0 1 6.964-6.963 6.963 6.963 0 0 1 0 13.925 6.962 6.962 0 0 1-6.964-6.962zm.924 0a6.048 6.048 0 0 0 6.04 6.04 6.046 6.046 0 0 0 6.037-6.04 6.047 6.047 0 0 0-6.037-6.04 6.047 6.047 0 0 0-6.04 6.04z"/>
<path style="opacity:1" fill="#ffffff" d="m55.398 18.876 6.831-2.48v6.797l-4.569 1.684-.003-5.162-2.256.802z"/>
</svg>
