<svg height="109.09" width="260.36" xmlns="http://www.w3.org/2000/svg">
<path style="text-align:start" fill="#ffffff" d="M132.39 80.281v17.531h1.781V80.281h-1.781zm12 0v5.563a23.867 23.867 0 0 0-2.188-.094c-3.724 0-6.156 2.372-6.156 6.625 0 3.484 1.451 5.656 4.406 5.656 1.923 0 3.453-1.138 4.125-2.844l.032.031c-.144.721-.22 1.873-.22 2.594h1.782v-17.53h-1.781zm50.625 0v17.531h1.781v-6.25l4.719 6.25h2.344l-5.125-6.5 4.75-5.437h-2.188l-4.5 5.375V80.28h-1.78zm44.406 0v17.531h1.781V80.281h-1.781zm-111.19 1c-.573.115-1 .63-1 1.219 0 .697.553 1.219 1.25 1.219.673 0 1.25-.522 1.25-1.22 0-.672-.577-1.218-1.25-1.218-.087 0-.168-.016-.25 0zm-66.885.219c-1.874 0-3.383.022-4.656.094v16.219h3.125v-6.688h.094l4.53 6.688h3.876l-3.906-5.438c-.409-.552-.856-1.18-1.313-1.781 2.45-.384 4.125-2.129 4.125-4.531 0-3.316-2.295-4.563-5.875-4.563zm14.375 0c-1.994 0-3.977.077-5.25.125v16.156c1.37.048 2.85.125 4.531.125 5.286 0 8.938-2.894 8.938-8.469 0-5.694-3.197-7.937-8.22-7.937zm44.125.031c-1.946 0-3.426.039-4.531.063v16.219c1.393.024 2.921.093 3.906.093 5.118 0 6.187-3.12 6.187-4.875 0-1.73-1.034-3.39-3.437-3.75v-.062c1.826-.529 3.062-2.066 3.062-3.844 0-2.354-1.655-3.844-5.187-3.844zm-74.219.063-5.688 16.219h3.157L44.22 94.5h6.125l1.156 3.313h3.437l-5.78-16.22h-3.532zm73.875 1.437c2.86 0 3.594 1.119 3.594 2.656 0 1.923-1.492 3.063-4.375 3.063-.625 0-1.058-.007-1.563-.031v-5.656a72.3 72.3 0 0 1 2.344-.032zm-58.477 1.03c1.97 0 2.938.751 2.938 2.313 0 1.513-1.158 2.469-3.032 2.469-.48 0-.908-.008-1.125-.032v-4.687c.313-.048.763-.063 1.22-.063zm14.469.063c3.7 0 5.063 2.078 5.063 5.562 0 3.845-2.2 5.563-5.25 5.563-.625 0-1.287-.053-1.72-.125V84.186c.505-.048 1.186-.063 1.907-.063zm-28.25 1.062h.031c.192.913.438 1.705.75 2.594l1.5 4.25h-4.5l1.47-4.125c.311-.937.557-1.878.75-2.719zm120.28.44c-2.09 0-3.577 1.176-4.25 2.905h-.063c.12-.72.188-1.887.188-2.656h-1.781v11.938h1.812v-5.75c0-2.835 1.518-4.937 3.656-4.937 1.73 0 2.22 1.094 2.22 2.969v7.718h1.812V89.47c0-2.115-.855-3.844-3.594-3.844zm54.219 0c-2.09 0-3.608 1.176-4.281 2.905h-.063c.12-.72.219-1.887.219-2.656h-1.781v11.938h1.781v-5.75c0-2.835 1.518-4.937 3.656-4.937 1.73 0 2.25 1.094 2.25 2.969v7.718h1.781V89.47c0-2.115-.823-3.844-3.562-3.844zm-43.219.03c-3.244 0-5.188 2.127-5.188 4.625 0 1.538.58 2.772 1.782 3.47-.841.384-1.313 1.12-1.313 1.937 0 .769.443 1.382 1.188 1.719-1.13.576-2.063 1.697-2.063 3.187 0 2.283 1.942 3.5 4.969 3.5 3.676 0 6.281-1.883 6.281-4.406 0-2.09-1.405-3.344-4-3.344h-2.344c-1.49 0-2.156-.334-2.156-1.031 0-.433.275-.846.875-1.063.433.096 1.104.157 1.656.157 3.436 0 5.188-1.954 5.188-4.5 0-1.13-.46-2.073-1.156-2.625h2.156v-1.407h-4.063a7.49 7.49 0 0 0-1.812-.218zm11.344 0c-3.027 0-4.688 1.506-4.688 3.5 0 4.253 5.844 2.461 5.844 5.344 0 1.25-1.207 2.031-2.937 2.031-.937 0-1.919-.19-2.688-.406l-.03 1.656c.72.145 1.641.25 2.53.25 3.124 0 4.97-1.666 4.97-3.78 0-4.061-5.813-2.423-5.813-5.282 0-1.177.84-1.875 2.593-1.875.817 0 1.707.142 2.5.406l.032-1.562c-.745-.144-1.568-.281-2.313-.281zm18.719 0c-1.61 0-2.996.402-4.125.907l.156 1.562c1.057-.673 2.503-1.031 3.656-1.031 2.067 0 2.72 1.01 2.72 2.813v1c-4.662 0-7.25 1.72-7.25 4.218 0 1.898 1.351 2.907 3.25 2.907 2.042 0 3.579-1.206 4.155-2.72h.063c-.12.698-.125 1.588-.125 2.5h1.781a84.424 84.424 0 0 1-.062-3.562v-4.687c0-2.259-.927-3.906-4.22-3.906zm23.562 0c-1.61 0-2.996.402-4.125.907l.156 1.562c1.057-.673 2.503-1.031 3.656-1.031 2.067 0 2.72 1.01 2.72 2.813v1c-4.662 0-7.25 1.72-7.25 4.218 0 1.898 1.382 2.907 3.28 2.907 2.043 0 3.58-1.206 4.157-2.72h.03c-.12.698-.124 1.588-.124 2.5h1.781c-.048-1.056-.031-2.384-.031-3.562v-4.687c0-2.259-.958-3.906-4.25-3.906zm-104.62.22v11.937h1.813V85.875h-1.813zm21.625 0v8.343c0 2.114.855 3.844 3.594 3.844 2.09 0 3.608-1.176 4.281-2.906l.031.03c-.12.722-.187 1.857-.187 2.626h1.78V85.875h-1.812v5.75c0 2.835-1.486 4.937-3.625 4.937-1.73 0-2.25-1.063-2.25-2.937v-7.75h-1.812zm29.281 1.187c1.97 0 3.156 1.109 3.156 3.03s-1.28 2.97-3.25 2.97c-2.018 0-3.187-1.023-3.187-2.97 0-1.753 1.215-3.03 3.28-3.03zm-36.406.093c.769 0 1.527.09 2.344.282v4.219c0 2.114-1.184 4.906-3.563 4.906-1.97 0-2.875-1.622-2.875-4.313 0-3.604 1.643-5.094 4.094-5.094zm-23.312 2.97c2.667 0 4.781.685 4.781 2.968 0 1.898-1.266 3.313-4.125 3.313-1.057 0-1.786-.085-2.219-.157v-6.093a36.803 36.803 0 0 1 1.563-.032zm92.281 2.093v.188c0 2.066-1.386 4.156-3.5 4.156-1.177 0-1.969-.7-1.969-1.781 0-1.154.976-2.563 5.469-2.563zm23.562 0v.188c0 2.066-1.386 4.156-3.5 4.156-1.177 0-1.938-.7-1.938-1.781 0-1.154.945-2.563 5.438-2.563zm-58.125 5.656c.216.024.541.031.781.031h2.438c1.826 0 2.719.758 2.719 2.032 0 1.585-1.538 2.687-4.157 2.687-1.994 0-3.468-.806-3.468-2.344 0-1.009.654-1.877 1.687-2.406z"/>
<path fill-rule="evenodd" fill="#db502b" d="M240.57 5c-8.17 0-14.781 6.632-14.781 14.781 0 8.197 6.612 14.844 14.781 14.844 8.166 0 14.781-6.646 14.781-14.844.01-8.149-6.61-14.781-14.78-14.781zm0 2.188c6.934 0 12.625 5.64 12.625 12.593 0 7.001-5.69 12.689-12.625 12.689s-12.625-5.687-12.625-12.688c0-6.954 5.691-12.594 12.625-12.594zM72.76 10.844a1 1 0 0 0-1 1v62.812c0 .543.441 1 1 1h8.875c.56 0 1-.458 1-1V11.844a1 1 0 0 0-1-1H72.76zm67.658.031a1 1 0 0 0-1 1v62.781c0 .558.44 1 1 1h8.906c.56 0 1-.443 1-1V55.25c0-7.417 4.343-13.719 9.875-13.719 4.003 0 5.188 2.632 5.188 7.063l-.031 26.062c0 .557.458 1 1 1h8.843c.542 0 1-.444 1-1V45.967c0-7.403-3.062-13.53-12.594-13.53-6.545 0-11.405 3.146-13.875 7.906l-.2-.093c.6-2.473.782-6.036.782-8.594V11.875c0-.544-.442-1-1-1h-8.907zm106.16.094-14.938 5.375v3.687l4.938-1.78v11.124l10-3.562V10.969zM30.728 30.906c-8.188 0-16.046 8.08-20.219 14.812-1.943 3.415-4.539 8.844-5.281 14.219-.747 5.359.129 11.175 5.5 14.219 8.133 4.63 16.803.614 22.875-4.031.545-.386 1.09-.878 1.719-1.407a45.692 45.692 0 0 0 3.906-3.75c.029-.043.096-.113.125-.156 1.27-1.33 2.593-2.78 3.906-4.281l.156.312c4.416 7.89 10.233 15.483 19.094 14.812 1.072-.185 1.05-1.106 1.063-2.25.014-2.23-.063-7.25-.063-7.25.03-.8-.582-1.212-1.625-1.312-.486-.043-1.42-.055-1.937-.313-2.357-1.157-3.479-3.29-5.406-6.406-1.274-2.058-2.458-4.296-3.688-6.625 2.502-3.073 12.313-15.469 12.312-15.469 2.76-3.774 1.233-4.032-1.28-4.032l-7.97-.031c-1.156.057-1.933.471-2.219.844-.673.843-1.763 2.291-2.906 3.75-1.229 1.6-2.404 3.172-3.594 4.687-3.5-5.687-7.578-10.344-14.469-10.344zm177.78.437c-8.202 0-16.012 8.08-20.188 14.812-1.958 3.415-4.552 8.863-5.281 14.25-.743 5.36.126 11.143 5.5 14.188 11.232 6.388 23.484-3.685 28.5-9.187.357-.386.527-1.323.125-1.938l-4.719-6.062c-.857-1.016-1.777-1.13-2.937 0-2.986 2.915-4.59 5.334-9.375 7.406-3.516 1.515-5.485.72-6.188-.438-1.83-2.973 3.261-11.257 3.875-12.344 3.915-6.273 8.03-9.277 10.656-9.406.544-.029 1.544.28 2.531 1.281.97.972 1.994 2.436 3.094 4.25 2.232 3.716 4.55 8.554 7.125 13.156 4.401 7.889 10.03 15.047 18.906 14.375 1.057-.17 1.031-1.074 1.031-2.218.015-2.244-.062-7.282-.062-7.282.043-.786-.566-1.196-1.594-1.28-.487-.044-1.421-.07-1.938-.313-2.37-1.158-3.195-2.9-5.125-6-2.045-3.316-3.67-7.3-5.843-11.188-4.486-8.062-8.889-16.062-18.094-16.062zm-92.25.688c-6.388 0-10.892 2.96-13.281 7.906h-.188c.245-1.63.378-3.598.407-5.313.014-.043 0-.937 0-.937 0-.557-.423-1-.969-1h-8.125c-.556 0-1 .443-1 1V97.03c0 .557.444 1 1 1h8.875c.56 0 1.031-.443 1.031-1V75.437c1.8.257 3.394.344 5.438.344 14.635 0 22.312-9.28 22.312-24-.001-12.52-5.453-19.75-15.5-19.75zm-3.156 8.937c4.928 0 7.25 4.083 7.25 12 0 10.476-4.524 14.375-10.656 14.375-2.199 0-3.975-.235-5.688-.75v-11.75c0-7.232 3.391-13.875 9.094-13.875zM30.67 42.186c.527-.029 1.544.28 2.531 1.281.973.972 2.086 2.42 3.188 4.25a74.74 74.74 0 0 1 1.593 2.75c-2.001 2.416-3.942 4.642-5.875 6.657-2.945 2.873-5.035 5.191-9.78 7.25-3.517 1.515-5.458.705-6.157-.438-1.815-2.973 3.261-11.288 3.875-12.375 3.918-6.273 8.01-9.246 10.625-9.375z"/>
<path style="fill:#ffffff;stroke-width:.25" d="M239.625 89.125V80.5h1.5v17.25h-1.5zM229.486 97.74c-1.24-.372-1.986-1.356-1.986-2.617 0-2.071 1.844-3.462 5.239-3.95l1.886-.273v-1.219c0-1.014-.123-1.342-.73-1.95-.63-.63-.917-.73-2.063-.72-.733.006-1.775.169-2.315.361-1.095.39-1.392.314-1.392-.354 0-1.047 5.197-1.602 6.57-.702 1.443.945 1.547 1.366 1.644 6.61l.089 4.824h-.776c-.77 0-.777-.012-.777-1.307v-1.307l-.773.937c-1.24 1.505-3.02 2.148-4.616 1.668zm3.368-1.686c1.031-.77 1.57-1.69 1.708-2.918l.132-1.172-.847.132c-.466.073-1.38.2-2.033.283-1.65.21-2.69 1.114-2.685 2.33.002.504.086 1.038.187 1.187.633.936 2.391 1.014 3.538.158zM215.875 91.875V86h.75c.746 0 .75.007.75 1.438l.002 1.437.464-.76c1.508-2.474 4.624-3.14 6.397-1.368l.762.761.077 5.121.077 5.121h-1.499l-.077-4.772-.078-4.772-.733-.63c-1.459-1.254-3.853-.296-4.81 1.924-.252.583-.424 2.104-.516 4.562l-.139 3.688h-1.427zM205.75 97.617a22.16 22.16 0 0 0-1.056-.363c-.224-.015-.819-1.618-.819-2.205 0-.94.904-2.267 1.966-2.887.96-.561 3.26-1.152 4.502-1.158l.844-.004-.118-1.417c-.097-1.17-.242-1.525-.83-2.03-.64-.552-.878-.601-2.378-.494-.916.066-2.019.295-2.45.51l-.786.393v-.692c0-.596.145-.734 1.063-1.01 2.013-.603 3.739-.621 5.027-.051 1.76.779 1.91 1.319 1.91 6.908v4.633h-1.57l.148-1.25c.171-1.442 0-1.55-.703-.44-.955 1.51-3.01 2.184-4.75 1.557zm3.62-1.563c.788-.573 1.755-2.429 1.755-3.368 0-.659-.058-.7-.813-.583-.446.069-1.322.19-1.945.268-1.64.207-2.68.918-2.876 1.966-.19 1.006.181 1.841.963 2.173.748.317 2.154.098 2.915-.456zM195.125 89.125V80.5h1.5v5.375c0 2.956.086 5.375.191 5.375.106 0 1.177-1.181 2.381-2.625 2.05-2.457 2.248-2.625 3.105-2.625h.917l-.625.688c-2.95 3.244-3.992 4.573-3.815 4.864.107.178 1.244 1.645 2.525 3.26l2.33 2.938h-1.001c-.99 0-1.026-.033-3.317-3.114-1.274-1.713-2.4-3.12-2.503-3.125-.104-.006-.188 1.395-.188 3.114v3.125h-1.5zM186.292 97.817c-.732-.076-.924-.19-.812-.479.08-.208.145-.522.145-.696 0-.242.308-.269 1.296-.113 2.456.389 4.204-.474 4.204-2.075 0-.954-.7-1.509-2.727-2.162-2.213-.713-3.023-1.573-3.023-3.211 0-.946.135-1.266.824-1.955 1.177-1.177 3.09-1.63 5.145-1.22.605.121.781.287.781.736 0 .563-.048.575-1.7.436-2.088-.175-3.172.27-3.42 1.403-.3 1.363.378 2.005 3.037 2.873 1.888.617 2.583 1.414 2.583 2.96 0 1.105-.105 1.35-.937 2.182-.692.691-1.285 1.01-2.263 1.22-.728.156-1.516.265-1.75.242l-1.383-.141zM181.313 85.817a14.32 14.32 0 0 1 2.125 0c.584.053.106.096-1.063.096s-1.647-.043-1.063-.096zM175.584 103.622c-.676-.217-1.439-.698-1.813-1.143-1.131-1.344-.738-3.542.83-4.64l.548-.384-.637-.59c-.35-.325-.637-.773-.637-.994 0-.532.485-1.425.967-1.78.335-.247.285-.397-.383-1.158-1.45-1.652-1.29-4.035.383-5.709 1.275-1.275 2.237-1.477 6.186-1.298 3.302.15 3.347.159 3.347.738 0 .529-.111.586-1.132.586h-1.133l.555.751c.403.544.55 1.083.537 1.955-.042 2.81-1.848 4.26-5.34 4.283-.925.006-1.767.141-1.937.311-.392.392-.385 1.367.012 1.618.172.11 1.628.258 3.236.33 3.327.151 4.06.48 4.676 2.1.669 1.755-.439 3.707-2.67 4.704-1.445.646-4.108.798-5.595.32zm4.635-1.144c.534-.148 1.243-.542 1.577-.876.502-.502.593-.81.53-1.792-.069-1.074-.158-1.226-.951-1.622-1.227-.613-4.9-.61-5.658.005-1.618 1.31-1.37 3.383.503 4.198.948.413 2.69.45 4 .087zm-.519-9.495c1.93-.535 2.635-3.43 1.223-5.011-1.25-1.398-4.128-1.278-5.306.22-.692.88-.679 3.003.024 3.896.802 1.02 2.368 1.365 4.06.895zM161.625 91.875V86h1.666l-.09 1.438c-.075 1.228-.042 1.368.23.966.84-1.24 1.617-2.002 2.362-2.313 1.744-.729 3.858-.212 4.655 1.14.363.614.427 1.451.427 5.62v4.899h-1.5v-4.512c0-5.213-.17-5.857-1.624-6.13-1.23-.23-2.08.046-3.015.981-1.113 1.113-1.358 2.233-1.36 6.223v3.438h-1.751zM151.25 97.663c-1.7-.78-1.742-.935-1.827-6.564L149.346 86h1.499l.077 4.744c.075 4.551.101 4.766.647 5.312.42.42.86.569 1.67.569 1.378 0 2.318-.652 3.074-2.13.508-.995.562-1.457.562-4.798V86h1.75v11.75h-.75c-.745 0-.75-.01-.75-1.413v-1.412l-.745 1.029c-.41.565-1.083 1.203-1.496 1.416-1.09.564-2.752.698-3.634.293zM139 97.624c-1.311-.464-2.024-1.325-2.526-3.053-.728-2.504-.047-5.619 1.556-7.12 1.155-1.082 2.473-1.504 4.649-1.49l1.946.013V80.5h1.5v17.25h-.75c-.746 0-.75-.007-.75-1.438l-.002-1.437-.463.75c-.645 1.044-1.343 1.616-2.456 2.013-1.194.426-1.466.424-2.704-.014zm3.62-1.57c.346-.252.883-.954 1.192-1.56.493-.963.563-1.48.563-4.157v-3.056l-1.139-.171c-2.408-.361-3.838.279-4.813 2.155-.498.957-.567 1.409-.5 3.28.083 2.334.482 3.236 1.726 3.901.747.4 2.134.216 2.97-.392zM132.625 89.125V80.5h1.5v17.25h-1.5zM127.686 83.21c-.716-.715-.078-1.821.962-1.667.76.113 1.181.826.826 1.395-.337.537-1.367.694-1.788.273zM127.625 91.875V86h1.5v11.75h-1.5zM115.375 89.776V81.75l3.188.005c2.6.005 3.381.094 4.244.486 1.458.662 2.126 1.783 1.992 3.34-.122 1.418-.738 2.352-2.006 3.044-.992.541-1.175.874-.48.876 1.515.003 3.27 2.443 2.93 4.074-.318 1.526-1.288 2.841-2.552 3.461-1.006.494-1.666.598-4.254.675l-3.062.09zm6.447 6.227c1.284-.583 1.927-1.818 1.726-3.316-.238-1.775-1.339-2.44-4.345-2.628l-2.078-.13V96.5l1.813-.005c1.252-.004 2.143-.156 2.884-.492zm-.289-7.66c1.177-.56 1.592-1.245 1.592-2.635 0-.887-.15-1.354-.603-1.882-.57-.663-.733-.706-3-.788l-2.397-.086v5.798h1.775c1.122 0 2.09-.15 2.633-.408zM70.625 89.778V81.75l2.438-.031c3.933-.05 5.108.055 6.527.586 2.758 1.032 4.14 3.391 4.14 7.07 0 3.735-1.417 6.152-4.403 7.512-1.45.66-1.864.726-5.14.818l-3.562.1zm7.4 4.996c1.728-.785 2.601-2.506 2.599-5.124-.002-2.08-.401-3.352-1.349-4.3-.952-.952-2.22-1.347-4.338-1.349L73.376 84v11.25l1.813-.005c1.223-.004 2.145-.157 2.837-.471zM56.875 89.776v-7.973l2.063-.107c4.539-.235 6.838.482 7.711 2.405 1.18 2.6-.038 5.226-2.848 6.138l-.95.308.597.789c1.434 1.894 4.427 6.131 4.427 6.266 0 .081-.76.146-1.688.143L64.5 97.74l-2.223-3.37C61.055 92.516 59.957 91 59.84 91c-.118 0-.215 1.519-.215 3.375v3.375h-2.75zm5.747-1.214c1.625-.815 1.988-2.615.772-3.831-.647-.648-.904-.731-2.25-.731h-1.519v5h1.063c.584 0 1.454-.197 1.934-.438zM40.167 97.536c.045-.118 1.311-3.718 2.813-8l2.73-7.786h1.707c.94 0 1.708.04 1.708.088 0 .048 1.238 3.558 2.75 7.798 1.512 4.241 2.75 7.807 2.75 7.924 0 .118-.697.18-1.55.14l-1.549-.075-.5-1.57-.502-1.569-3.248.07-3.248.069-.5 1.563-.5 1.562h-1.472c-.81 0-1.435-.096-1.39-.214zm9.458-5.442c0-.085-.533-1.723-1.184-3.638-.787-2.314-1.238-3.332-1.344-3.032-.088.248-.583 1.745-1.1 3.326a231.268 231.268 0 0 1-1.058 3.188c-.089.236.467.312 2.284.312 1.321 0 2.402-.07 2.402-.156z"/>
</svg>
