<?xml version="1.0" encoding="UTF-8"?>
<!DOCTYPE svg PUBLIC "-//W3C//DTD SVG 1.1//EN" "http://www.w3.org/Graphics/SVG/1.1/DTD/svg11.dtd">
<svg xmlns="http://www.w3.org/2000/svg" version="1.1" width="1170px" height="124px" style="shape-rendering:geometricPrecision; text-rendering:geometricPrecision; image-rendering:optimizeQuality; fill-rule:evenodd; clip-rule:evenodd" xmlns:xlink="http://www.w3.org/1999/xlink">
<g><path style="opacity:1" fill="#ffffff" d="M 371.5,-0.5 C 377.5,-0.5 383.5,-0.5 389.5,-0.5C 411.547,6.74359 422.047,22.0769 421,45.5C 413.641,74.1013 395.474,85.268 366.5,79C 345.863,69.9029 337.029,54.0696 340,31.5C 344.683,14.9848 355.183,4.31811 371.5,-0.5 Z M 379.5,5.5 C 400.601,7.43435 412.268,18.9343 414.5,40C 412.351,60.8156 400.851,72.3156 380,74.5C 355.899,70.7377 344.899,56.7377 347,32.5C 352.003,16.319 362.836,7.31901 379.5,5.5 Z"/></g>
<g><path style="opacity:1" fill="#ffffff" d="M 690.5,123.5 C 686.833,123.5 683.167,123.5 679.5,123.5C 668.212,121.056 660.379,114.389 656,103.5C 650.285,86.0831 651.951,69.4164 661,53.5C 673.128,39.9552 688.294,34.6219 706.5,37.5C 706.666,30.825 706.5,24.1583 706,17.5C 702.7,16.3737 699.366,15.3737 696,14.5C 695.501,10.8484 695.335,7.18174 695.5,3.5C 706.453,2.13023 717.453,1.46356 728.5,1.5C 728.167,36.5063 728.5,71.5063 729.5,106.5C 732.708,107.802 736.041,108.469 739.5,108.5C 740.044,112.673 739.377,116.506 737.5,120C 727.606,122.05 717.606,122.883 707.5,122.5C 707.663,120.143 707.497,117.81 707,115.5C 702.017,119.428 696.517,122.094 690.5,123.5 Z M 691.5,51.5 C 696.599,51.3173 701.433,52.3173 706,54.5C 706.667,66.5 706.667,78.5 706,90.5C 704.603,99.343 699.603,104.676 691,106.5C 685.028,105.861 680.695,102.861 678,97.5C 673.265,85.0412 673.598,72.7079 679,60.5C 681.917,55.6369 686.083,52.6369 691.5,51.5 Z"/></g>
<g><path style="opacity:1" fill="#ffffff" d="M 898.5,123.5 C 896.833,123.5 895.167,123.5 893.5,123.5C 884.462,122.541 878.962,117.541 877,108.5C 875.596,89.8704 875.096,71.2037 875.5,52.5C 871.833,52.5 868.167,52.5 864.5,52.5C 864.5,47.8333 864.5,43.1667 864.5,38.5C 868.5,38.5 872.5,38.5 876.5,38.5C 878.173,31.4759 880.006,24.4759 882,17.5C 887.072,16.5286 892.238,16.1953 897.5,16.5C 897.5,23.8333 897.5,31.1667 897.5,38.5C 904.833,38.5 912.167,38.5 919.5,38.5C 919.5,43.1667 919.5,47.8333 919.5,52.5C 912.167,52.5 904.833,52.5 897.5,52.5C 897.042,69.9028 897.542,87.2361 899,104.5C 901.064,105.591 903.231,105.758 905.5,105C 909.422,103.202 913.422,101.702 917.5,100.5C 918.038,104.447 919.371,108.113 921.5,111.5C 924.955,109.689 928.455,108.022 932,106.5C 932.833,76.8277 932.667,47.1611 931.5,17.5C 927.928,16.319 924.262,15.6524 920.5,15.5C 920.5,11.8333 920.5,8.16667 920.5,4.5C 931.389,2.40145 942.389,1.40145 953.5,1.5C 953.333,15.8372 953.5,30.1705 954,44.5C 969.365,33.1858 984.032,33.8524 998,46.5C 1001.39,52.3888 1003.39,58.7221 1004,65.5C 1004.5,79.496 1004.67,93.496 1004.5,107.5C 1007.94,108.134 1011.1,109.467 1014,111.5C 1014.5,114.817 1014.67,118.15 1014.5,121.5C 1000.17,121.5 985.833,121.5 971.5,121.5C 971.18,118.102 971.513,114.768 972.5,111.5C 975.746,109.961 978.912,108.294 982,106.5C 982.206,97.2986 982.706,88.132 983.5,79C 983.284,71.5467 981.784,64.38 979,57.5C 968.996,51.2736 961.33,53.607 956,64.5C 955.08,67.1013 954.413,69.7679 954,72.5C 953.333,83.8333 953.333,95.1667 954,106.5C 957.088,108.294 960.254,109.961 963.5,111.5C 964.487,114.768 964.82,118.102 964.5,121.5C 949.833,121.5 935.167,121.5 920.5,121.5C 920.664,118.813 920.497,116.146 920,113.5C 913.557,118.641 906.391,121.975 898.5,123.5 Z"/></g>
<g><path style="opacity:1" fill="#ffffff" d="M 1169.5,110.5 C 1169.5,114.5 1169.5,118.5 1169.5,122.5C 1160.83,122.666 1152.16,122.5 1143.5,122C 1136,111.833 1128.5,101.667 1121,91.5C 1120.5,96.8229 1120.33,102.156 1120.5,107.5C 1123.85,108.008 1126.85,109.342 1129.5,111.5C 1130.49,114.768 1130.82,118.102 1130.5,121.5C 1116.17,121.5 1101.83,121.5 1087.5,121.5C 1087.33,118.15 1087.5,114.817 1088,111.5C 1091.21,109.562 1094.54,107.895 1098,106.5C 1098.67,76.8333 1098.67,47.1667 1098,17.5C 1094.7,16.3737 1091.37,15.3737 1088,14.5C 1087.33,11.1667 1087.33,7.83333 1088,4.5C 1098.65,2.11667 1109.49,1.11667 1120.5,1.5C 1120.33,23.1692 1120.5,44.8359 1121,66.5C 1125.13,61.3656 1129.63,56.5323 1134.5,52C 1131.9,51.0229 1129.4,49.8563 1127,48.5C 1126.5,45.1832 1126.33,41.8499 1126.5,38.5C 1140.17,38.5 1153.83,38.5 1167.5,38.5C 1167.82,42.226 1167.49,45.8927 1166.5,49.5C 1161.59,51.1906 1156.92,53.3573 1152.5,56C 1146.5,62 1140.5,68 1134.5,74C 1143.05,84.2139 1151.22,94.7139 1159,105.5C 1162.29,107.563 1165.79,109.23 1169.5,110.5 Z"/></g>
<g><path style="opacity:1" fill="#ffffff" d="M 764.5,7.5 C 773.5,7.14902 778.834,11.3157 780.5,20C 777.007,32.0508 769.674,35.0508 758.5,29C 754.114,23.8468 753.614,18.3468 757,12.5C 759.17,10.1769 761.67,8.51027 764.5,7.5 Z"/></g>
<g><path style="opacity:1" fill="#ffffff" d="M 441.5,11.5 C 453.414,11.1785 465.247,11.5118 477,12.5C 486.137,36.9116 495.47,61.2449 505,85.5C 514.53,61.2449 523.863,36.9116 533,12.5C 544.419,11.5122 555.919,11.1789 567.5,11.5C 567.665,14.8499 567.498,18.1832 567,21.5C 563.938,23.4019 560.772,25.0685 557.5,26.5C 559.829,53.1393 562.996,79.8059 567,106.5C 569.835,107.916 572.502,109.583 575,111.5C 575.498,114.817 575.665,118.15 575.5,121.5C 561.167,121.5 546.833,121.5 532.5,121.5C 532.18,118.102 532.513,114.768 533.5,111.5C 536.339,109.58 539.339,107.913 542.5,106.5C 541.885,86.4565 540.052,66.4565 537,46.5C 527.527,71.7541 518.361,97.0875 509.5,122.5C 504.57,122.803 499.737,122.469 495,121.5C 485.47,97.2449 476.137,72.9116 467,48.5C 464.951,67.8054 463.617,87.1388 463,106.5C 466.29,107.645 469.29,109.312 472,111.5C 472.498,114.817 472.665,118.15 472.5,121.5C 459.833,121.5 447.167,121.5 434.5,121.5C 434.18,118.102 434.513,114.768 435.5,111.5C 438.086,109.957 440.586,108.291 443,106.5C 447.004,79.8084 450.171,53.1417 452.5,26.5C 449.167,24.8333 445.833,23.1667 442.5,21.5C 441.513,18.2317 441.18,14.8984 441.5,11.5 Z"/></g>
<g><path style="opacity:1" fill="#ffffff" d="M -0.5,118.5 C -0.5,114.833 -0.5,111.167 -0.5,107.5C 2.21649,105.387 5.04982,103.387 8,101.5C 17.5374,73.0541 27.3707,44.7208 37.5,16.5C 46.1411,15.502 54.8078,15.1686 63.5,15.5C 73.0564,44.0021 82.7231,72.5021 92.5,101C 95.0323,103.532 97.5323,106.032 100,108.5C 100.498,111.817 100.665,115.15 100.5,118.5C 85.5,118.5 70.5,118.5 55.5,118.5C 55.3347,114.818 55.5014,111.152 56,107.5C 58.5641,105.273 61.3974,103.439 64.5,102C 63.4067,99.5567 62.4067,97.0567 61.5,94.5C 56.5,94.1667 51.5,93.8333 46.5,93.5C 41.0849,93.5285 35.9183,94.1952 31,95.5C 29.8495,97.7538 29.5162,100.087 30,102.5C 32.3333,104.167 34.6667,105.833 37,107.5C 37.4986,111.152 37.6653,114.818 37.5,118.5C 24.8333,118.5 12.1667,118.5 -0.5,118.5 Z M 45.5,44.5 C 49.3318,55.3288 52.9985,66.3288 56.5,77.5C 49.8665,78.4967 43.1998,78.83 36.5,78.5C 39.1868,67.0864 42.1868,55.7531 45.5,44.5 Z"/></g>
<g><path style="opacity:1" fill="#ffffff" d="M 131.5,15.5 C 144.504,15.3334 157.504,15.5001 170.5,16C 192.988,18.8001 201.821,31.3001 197,53.5C 193.77,61.0628 188.27,66.2295 180.5,69C 183.667,70.8333 186.167,73.3333 188,76.5C 190.848,84.8949 193.848,93.2282 197,101.5C 198.715,104.397 201.215,105.731 204.5,105.5C 205.424,109.735 205.424,113.901 204.5,118C 196.564,120.595 188.564,120.929 180.5,119C 176.612,116.778 173.779,113.612 172,109.5C 168.912,99.8957 165.245,90.5624 161,81.5C 158.303,78.1295 154.803,76.7962 150.5,77.5C 150.169,85.8599 150.502,94.1932 151.5,102.5C 158.502,105.494 161.168,110.827 159.5,118.5C 143.5,118.5 127.5,118.5 111.5,118.5C 111.335,115.15 111.502,111.817 112,108.5C 115.54,105.396 119.54,103.063 124,101.5C 124.5,78.5024 124.667,55.5024 124.5,32.5C 119.894,31.4471 115.727,29.4471 112,26.5C 111.502,23.1832 111.335,19.8499 111.5,16.5C 118.354,16.824 125.021,16.4907 131.5,15.5 Z M 150.5,31.5 C 167.728,29.9274 174.228,37.594 170,54.5C 168.878,56.6238 167.378,58.4571 165.5,60C 160.716,62.0324 155.716,62.8657 150.5,62.5C 150.5,52.1667 150.5,41.8333 150.5,31.5 Z"/></g>
<g><path style="opacity:1" fill="#ffffff" d="M 244.5,15.5 C 256.838,15.3335 269.171,15.5001 281.5,16C 301.988,16.834 315.154,27.0006 321,46.5C 326.788,68.5047 322.288,88.0047 307.5,105C 297.337,113.242 285.67,117.909 272.5,119C 255.167,119.216 237.834,119.05 220.5,118.5C 220.177,114.774 220.511,111.107 221.5,107.5C 224.919,105.374 228.419,103.374 232,101.5C 232.5,78.5024 232.667,55.5024 232.5,32.5C 228.478,31.6566 224.812,29.9899 221.5,27.5C 220.511,23.8927 220.177,20.226 220.5,16.5C 228.684,16.8257 236.684,16.4924 244.5,15.5 Z M 259.5,31.5 C 271.092,29.2002 280.925,32.2002 289,40.5C 297.665,58.1763 297.665,75.843 289,93.5C 280.912,102.149 271.078,104.816 259.5,101.5C 259.5,78.1667 259.5,54.8333 259.5,31.5 Z"/></g>
<g><path style="opacity:1" fill="#ffffff" d="M 394.5,15.5 C 395.5,15.5 396.5,15.5 397.5,15.5C 397.667,29.1707 397.5,42.8374 397,56.5C 387.67,60.3322 378.17,63.6655 368.5,66.5C 368.666,56.4944 368.5,46.4944 368,36.5C 364.081,38.3618 360.081,40.0285 356,41.5C 355.501,37.5138 355.334,33.5138 355.5,29.5C 368.867,25.6018 381.867,20.9352 394.5,15.5 Z"/></g>
<g><path style="opacity:1" fill="#ffffff" d="M 618.5,123.5 C 614.833,123.5 611.167,123.5 607.5,123.5C 588.767,120.596 578.267,109.596 576,90.5C 573.521,75.2232 576.521,61.2232 585,48.5C 595.834,37.9491 608.668,34.4491 623.5,38C 637.931,42.4447 645.765,52.2781 647,67.5C 647.499,72.1548 647.666,76.8215 647.5,81.5C 630.833,81.5 614.167,81.5 597.5,81.5C 597.862,100.029 607.196,107.863 625.5,105C 631.51,104.077 637.01,101.91 642,98.5C 644.03,101.213 645.696,104.213 647,107.5C 647.781,108.944 647.614,110.277 646.5,111.5C 638.044,117.732 628.711,121.732 618.5,123.5 Z M 608.5,51.5 C 619.117,51.3264 624.45,56.6597 624.5,67.5C 615.808,67.8314 607.141,67.498 598.5,66.5C 599.639,59.8476 602.973,54.8476 608.5,51.5 Z"/></g>
<g><path style="opacity:1" fill="#ffffff" d="M 846.5,123.5 C 845.167,123.5 843.833,123.5 842.5,123.5C 840.998,120.495 839.498,117.495 838,114.5C 833.187,118.923 827.687,121.923 821.5,123.5C 818.5,123.5 815.5,123.5 812.5,123.5C 794.429,117.502 788.929,105.502 796,87.5C 806.541,75.9245 819.708,70.2579 835.5,70.5C 837.244,54.7221 830.744,49.0554 816,53.5C 814.411,58.6015 812.245,63.4348 809.5,68C 805.848,68.4986 802.182,68.6653 798.5,68.5C 798.183,59.5822 798.516,50.7489 799.5,42C 813.556,36.5851 827.89,35.5851 842.5,39C 849.428,41.5936 853.928,46.4269 856,53.5C 856.243,69.8533 856.743,86.1867 857.5,102.5C 860.221,101.859 862.888,101.359 865.5,101C 867.493,104.311 868.659,107.811 869,111.5C 861.931,116.449 854.431,120.449 846.5,123.5 Z M 829.5,84.5 C 831.5,84.5 833.5,84.5 835.5,84.5C 837.185,92.6249 834.851,99.1249 828.5,104C 819.099,106.94 814.599,103.44 815,93.5C 815.707,91.9194 816.54,90.4194 817.5,89C 821.432,86.9716 825.432,85.4716 829.5,84.5 Z"/></g>
<g><path style="opacity:1" fill="#ffffff" d="M 1058.5,123.5 C 1054.83,123.5 1051.17,123.5 1047.5,123.5C 1029.21,120.711 1018.71,110.045 1016,91.5C 1013.25,76.3847 1015.92,62.3847 1024,49.5C 1034.92,38.195 1048.09,34.3617 1063.5,38C 1074.24,41.0707 1081.4,47.904 1085,58.5C 1086.36,66.0952 1086.86,73.7618 1086.5,81.5C 1070.17,81.5 1053.83,81.5 1037.5,81.5C 1037.86,100.023 1047.19,107.856 1065.5,105C 1071.82,103.505 1077.82,101.338 1083.5,98.5C 1084.8,102.55 1085.96,106.55 1087,110.5C 1078.6,117.456 1069.1,121.789 1058.5,123.5 Z M 1048.5,51.5 C 1058.25,51.5741 1063.58,56.5741 1064.5,66.5C 1055.86,67.498 1047.19,67.8314 1038.5,67.5C 1039.07,60.2948 1042.41,54.9615 1048.5,51.5 Z"/></g>
<g><path style="opacity:1" fill="#ffffff" d="M 761.5,37.5 C 766.833,37.5 772.167,37.5 777.5,37.5C 777.333,60.5024 777.5,83.5024 778,106.5C 781.457,107.895 784.791,109.562 788,111.5C 788.498,114.817 788.665,118.15 788.5,121.5C 773.833,121.5 759.167,121.5 744.5,121.5C 744.335,118.15 744.502,114.817 745,111.5C 748.303,109.432 751.803,107.766 755.5,106.5C 756.833,88.8333 756.833,71.1667 755.5,53.5C 751.99,52.4337 748.49,51.4337 745,50.5C 744.333,47.1667 744.333,43.8333 745,40.5C 750.561,39.2687 756.061,38.2687 761.5,37.5 Z"/></g>
</svg>
