<?xml version="1.0" encoding="UTF-8" standalone="no"?>
<!-- Generator: Adobe Illustrator 15.0.2, SVG Export Plug-In . SVG Version: 6.00 Build 0)  -->

<svg
   xmlns:dc="http://purl.org/dc/elements/1.1/"
   xmlns:cc="http://creativecommons.org/ns#"
   xmlns:rdf="http://www.w3.org/1999/02/22-rdf-syntax-ns#"
   xmlns:svg="http://www.w3.org/2000/svg"
   xmlns="http://www.w3.org/2000/svg"
   xmlns:sodipodi="http://sodipodi.sourceforge.net/DTD/sodipodi-0.dtd"
   xmlns:inkscape="http://www.inkscape.org/namespaces/inkscape"
   version="1.1"
   id="LIVEWEB"
   x="0px"
   y="0px"
   width="486.50165"
   height="205.095"
   viewBox="0 0 486.50165 205.09501"
   enable-background="new 0 0 621.56 340.158"
   xml:space="preserve"
   inkscape:version="0.48.4 r9939"
   sodipodi:docname="Ajax.svg"><metadata
   id="metadata19"><rdf:RDF><cc:Work
       rdf:about=""><dc:format>image/svg+xml</dc:format><dc:type
         rdf:resource="http://purl.org/dc/dcmitype/StillImage" /></cc:Work></rdf:RDF></metadata><defs
   id="defs17" /><sodipodi:namedview
   pagecolor="#ffffff"
   bordercolor="#666666"
   borderopacity="1"
   objecttolerance="10"
   gridtolerance="10"
   guidetolerance="10"
   inkscape:pageopacity="0"
   inkscape:pageshadow="2"
   inkscape:window-width="1280"
   inkscape:window-height="1001"
   id="namedview15"
   showgrid="false"
   fit-margin-top="0.5"
   fit-margin-right="0.5"
   fit-margin-bottom="0.5"
   fit-margin-left="0.5"
   inkscape:zoom="1.0167965"
   inkscape:cx="149.12424"
   inkscape:cy="65.984669"
   inkscape:window-x="-8"
   inkscape:window-y="-8"
   inkscape:window-maximized="1"
   inkscape:current-layer="LIVEWEB" />

<path
   d="m 38.391663,75.039 c 14.595,0.043 32.563,3.992 32.563,18.537 v 34.746 h -25.746 v -14.988 c -0.019,-0.043 -6.252,2.205 -11.038,3.68 -3.229,0.885 -5.668,2.707 -5.859,5.99 -0.253,2.773 2.888,5.318 2.888,5.318 H 5.9566634 c -0.035,0 -5.61999999,-2.014 -5.45299999,-8.043 0.52099999,-11.482 9.46799999,-15.715 31.48499959,-18.252 11.859,-1.469 13.2,-2.611 13.219,-5.588 -0.019,-2.449 -1.462,-5.215 -8.181,-5.32 -9.685,0.008 -9.008,6.561 -8.998,6.541 H 3.3686634 c -0.054,-0.009 0.238,-22.595 35.0229996,-22.621 m 78.664997,0.549 c -8.563,1.248 -11.569,8.33 -11.58,8.311 V 76.54 H 81.491663 v 51.783 H 107.65966 V 103.52 c 0.025,-4.383 1.255,-6.344 2.855,-7.902 1.808,-1.859 4.977,-3.154 8.448,-3.137 h 7.358 V 76.539 c 10e-4,0 -3.778,-1.759 -9.264,-0.951 m 52.195,-11.31 h -25.893 V 76.54 h -10.765 v 15.941 h 10.765 v 21.125 c 0.024,4.555 -0.069,8.271 3.272,11.854 2.926,2.99 6.751,2.852 11.313,2.863 h 11.308 V 92.481 h 15.536 V 76.539 h -15.536 V 64.278 z m 53.843,11.17 c 43.423,0.48 36.401,39.738 36.384,39.795 h -46.342 v 13.08 h -18.937 c 0.059,0 -7.775,-7.041 -7.635,-20.984 0.284,-32.477 35.162,-31.917 36.53,-31.891 m 11.301,26.712 c -0.023,-0.047 1.087,-10.617 -11.301,-10.635 -11.95,-0.057 -10.638,10.588 -10.638,10.635 h 21.939"
   id="path5"
   style="fill:#fa481c;fill-opacity:1;stroke:none"
   inkscape:connector-curvature="0" />
<g
   id="g7"
   transform="translate(-67.527337,-67.531)">
	<path
   d="m 451.472,68.031 c -56.269,0 -102.038,45.778 -102.038,102.038 0,56.26 45.77,102.057 102.038,102.057 56.272,0 102.057,-45.797 102.057,-102.057 0,-56.26 -45.785,-102.038 -102.057,-102.038 z m 0,193.013 c -50.159,0 -90.969,-40.805 -90.969,-90.975 0,-50.151 40.81,-90.965 90.969,-90.965 50.172,0 90.992,40.813 90.992,90.965 0,50.17 -40.82,90.975 -90.992,90.975 z"
   id="path9"
   style="fill:#fa481c;fill-opacity:1;stroke:none"
   inkscape:connector-curvature="0" />
	<polygon
   points="397.363,165.031 397.363,175.099 414.919,175.099 414.919,192.548 425.324,192.548 425.324,175.099 442.881,175.099 442.881,165.031 425.324,165.031 425.324,147.582 414.919,147.582 414.919,165.031 "
   id="polygon11"
   style="fill:#fa481c;fill-opacity:1;stroke:none" />
	<polygon
   points="471.645,202.246 500.532,146.761 500.532,138.263 455.555,138.263 455.555,148.126 487.742,148.126 459.038,202.246 "
   id="polygon13"
   style="fill:#fa481c;fill-opacity:1;stroke:none" />
</g>
</svg>