<?xml version="1.0" encoding="utf-8"?>
<svg version="1.1" xmlns="http://www.w3.org/2000/svg" xmlns:xlink="http://www.w3.org/1999/xlink" x="0px" y="0px"
	 viewBox="0 0 500 140" style="enable-background:new 0 0 500 140;" xml:space="preserve">
<g>
	<path fill="#FF8BCA" d="M35,70.2c0,29.5,8.3,45.5,32.6,46.4v-14.4c-11.8-1-16.2-10.6-16.2-32c0-21.5,4.4-31,16.2-31.9V23.8
		C43.3,24.7,35,40.8,35,70.2z"/>
	<path fill="#FF8BCA" d="M89.8,28.2c-4-2.2-11.4-4.2-18.5-4.5v14.5c4.6,0.3,9.4,1.8,11.8,3.1L89.8,28.2z"/>
	<path fill="#FF8BCA" d="M71.4,102.2v14.2c10.8-0.5,19.6-5.1,19.6-5.1l-6.8-12.9C84.2,98.4,78.8,101.7,71.4,102.2z"/>
	<polygon fill="#FF8BCA" points="190.4,25 190.4,27 238.3,115.5 252.8,115.5 252.8,113 205.3,25 	"/>
	<polygon fill="#FF8BCA" points="190.4,115.5 206.3,115.5 206.3,64.9 190.4,35.5 	"/>
	<polygon fill="#FF8BCA" points="236.9,75.6 252.8,104.9 252.8,25 236.9,25 	"/>
	<path fill="#FF8BCA" d="M259.4,70.2c0,29.5,8.2,45.5,32.4,46.4v-14.4c-11.8-1-16-10.6-16-32c0-21.5,4.2-31,16-31.9V23.8
		C267.6,24.7,259.4,40.8,259.4,70.2z"/>
	<path fill="#FF8BCA" d="M314,28.2c-4-2.2-11.4-4.2-18.5-4.5v14.5c4.6,0.3,9.4,1.8,11.8,3.1L314,28.2z"/>
	<path fill="#FF8BCA" d="M295.6,102.2v14.2c10.8-0.5,19.4-5.1,19.4-5.1l-6.8-12.9C308.1,98.4,303,101.7,295.6,102.2z"/>
	<polygon fill="#FF8BCA" points="369.9,61.2 336.6,61.2 336.6,24.8 320.7,24.8 320.7,115.5 336.6,115.5 336.6,75.8 369.9,75.8 	"/>
	<rect x="340.4" y="24.8" fill="#FF8BCA" width="29.5" height="14.6"/>
	<rect x="340.4" y="100.9" fill="#FF8BCA" width="30.1" height="14.6"/>
	<path fill="#FF8BCA" d="M404.7,67.9h-9.3v14.4h9.3c21.7,0,32.3-7.3,32.3-28.7s-11.8-28.7-32.2-28.7h-29v14.4h29
		c11.6,0,16.2,3.6,16.2,14.4C421,64.5,416.8,67.9,404.7,67.9z"/>
	<rect x="375.9" y="43.2" fill="#FF8BCA" width="15.6" height="72.3"/>
	<path fill="#FF8BCA" d="M404,85.9l16.8,29.6h17.6l-18-31.7C415.6,85,410.5,85.9,404,85.9z"/>
	<rect x="439.7" y="24.8" fill="#FF8BCA" width="60.3" height="14.6"/>
	<rect x="462.2" y="43.5" fill="#FF8BCA" width="15.6" height="71.8"/>
	<path fill="#FF8BCA" d="M134,21.5c-27.4,0-49.7,22.3-49.7,49.7s22.3,49.7,49.7,49.7s49.7-22.3,49.7-49.7S161.4,21.5,134,21.5z
		 M134,108.5c-18.3,0-33.6-13.3-36.7-30.7c-0.5-1.9-0.8-4-0.8-6.1c0-1.5,0.2-3.1,0.4-4.5c2-18.7,17.9-33.3,37.1-33.3
		c20.6,0,37.3,16.7,37.3,37.3S154.6,108.5,134,108.5z"/>
	<path fill="#FF8BCA" d="M119.8,95.1c12.9,0,23.3-10.5,23.3-23.3c0-12.9-10.5-23.3-23.3-23.3c-11.3,0-20.8,8.1-22.9,18.8
		c-0.1,1.3-0.2,2.7-0.2,4c0,2.2,0.2,4.4,0.6,6.6C100,87.7,109,95.1,119.8,95.1z M119.8,54.2c9.6,0,17.5,7.8,17.5,17.5
		c0,9.6-7.8,17.5-17.5,17.5s-17.5-7.8-17.5-17.5C102.3,62.1,110.2,54.2,119.8,54.2z"/>
	<path fill="#E54B22" d="M6,119c0,17.2,10.6,19.2,12.9,19.4c0.2,0,0.4-0.2,0.4-0.4v-14l0,0c-0.4,0.1-3.3,0.2-3.3-4.2
		c0-2.3,0.6-3.3,2-3.3c1.2,0,1.3,0.3,2.1,6.1C21.7,134.7,22.9,140,31,140c2.9,0,4.5-3,4.5-3v-14.7h-1.2c-0.3,0.3-1.3,1.6-2,1.5
		c-1.6,0-2.2-0.9-2.7-2.5c-0.9-2.6-1.6-4.9-1.5-4.9h7.6V101H16.2C8.2,101,6,110.9,6,119z"/>
	<path fill="#E54B22" d="M17.9,80.6c-0.9-0.9-1.5-1.9-1.5-3.7v-4.4c0-0.1-0.1-0.2-0.2-0.2H6.9c-0.1,0-0.2,0.1-0.2,0.1
		C6.5,73,5.6,75.3,6,77.9c0.5,3.5,2,4.8,2.7,5.2c0.1,0.1,0.1,0.2-0.1,0.2H6.8c-0.1,0-0.2,0.1-0.2,0.2v14.1h28.9V82.1H21.7
		C19.6,82.1,18.6,81.2,17.9,80.6z"/>
	<path fill="#E54B22" d="M6.5,70.4c0,0.1,0.1,0.2,0.2,0.2h9.5c0.1,0,0.1-0.1,0.1-0.1v-5.8h11c2.5,0,4.6-0.2,6.6-2.1
		c1.7-1.6,1.6-4.7,1.6-7.3v-5.5c0-0.1-0.1-0.3-0.3-0.3H16.4v-7.9c0-0.1-0.1-0.2-0.2-0.2H6.8c-0.1,0-0.2,0.1-0.2,0.2v7.9H0v15.1h6.5
		V70.4z"/>
	<path fill="#E54B22" d="M23.9,40.4c7.7,0.1,11.6-4.3,11.6-4.2V25h-7V0.5c0-0.1-0.1-0.1-0.1-0.2C26.6,0,6.5-2.8,6.2,20.2
		C6.2,20.9,5.9,40.3,23.9,40.4z M19.9,15.5v9.6c0,0-3.9,0.6-3.9-4.6C16,15,19.8,15.5,19.9,15.5z"/>
</g>
</svg>
