<?xml version="1.0" encoding="UTF-8" standalone="no"?>
<!-- Created with Inkscape (http://www.inkscape.org/) -->

<svg
   width="1374.3081"
   height="377.8804"
   id="svg2"
   sodipodi:version="0.32"
   inkscape:version="1.1.1 (3bf5ae0d25, 2021-09-20)"
   version="1.0"
   sodipodi:docname="ATV2.svg"
   inkscape:output_extension="org.inkscape.output.svg.inkscape"
   inkscape:export-filename="/home/infanf/Downloads/ATV2.png"
   inkscape:export-xdpi="5.2397532"
   inkscape:export-ydpi="5.2397532"
   xmlns:inkscape="http://www.inkscape.org/namespaces/inkscape"
   xmlns:sodipodi="http://sodipodi.sourceforge.net/DTD/sodipodi-0.dtd"
   xmlns="http://www.w3.org/2000/svg"
   xmlns:svg="http://www.w3.org/2000/svg"
   xmlns:rdf="http://www.w3.org/1999/02/22-rdf-syntax-ns#"
   xmlns:cc="http://creativecommons.org/ns#"
   xmlns:dc="http://purl.org/dc/elements/1.1/">
  <defs
     id="defs4" />
  <sodipodi:namedview
     id="base"
     pagecolor="#ffffff"
     bordercolor="#ffffff"
     borderopacity="1.0"
     inkscape:pageopacity="0.0"
     inkscape:pageshadow="2"
     inkscape:zoom="0.29796541"
     inkscape:cx="870.90646"
     inkscape:cy="209.75589"
     inkscape:document-units="px"
     inkscape:current-layer="layer1"
     showgrid="false"
     inkscape:window-width="1920"
     inkscape:window-height="1017"
     inkscape:window-x="-8"
     inkscape:window-y="-8"
     inkscape:window-maximized="1"
     fit-margin-top="0"
     fit-margin-left="0"
     fit-margin-right="0"
     fit-margin-bottom="0"
     inkscape:pagecheckerboard="0" />
  <metadata
     id="metadata7">
    <rdf:RDF>
      <cc:Work
         rdf:about="">
        <dc:format>image/svg+xml</dc:format>
        <dc:type
           rdf:resource="http://purl.org/dc/dcmitype/StillImage" />
        <dc:title />
      </cc:Work>
    </rdf:RDF>
  </metadata>
  <g
     inkscape:label="Ebene 1"
     inkscape:groupmode="layer"
     id="layer1"
     transform="translate(-7.4445887,-4.8734614)">
    <path
       style="fill:#ffffff;fill-opacity:1;fill-rule:nonzero;stroke:none"
       d="M 187.78125 0 C 164.67583 -0.0153333 143.56666 13.08125 133.3125 33.78125 L 6.3125 290.21875 C -8.570417 320.2625 3.737499 356.67958 33.78125 371.5625 C 63.834585 386.44542 100.27334 374.1375 115.15625 344.09375 C 115.15625 344.09375 152.0875 262.27708 187.59375 190.59375 C 222.90834 262.23875 259.625 343.96875 259.625 343.96875 C 274.45042 374.05084 310.865 386.41917 340.9375 371.59375 C 371.01959 356.76833 383.38792 320.35375 368.5625 290.28125 L 242.1875 33.90625 C 231.97167 13.187083 210.88666 0.0191667 187.78125 0 z M 949.65625 0 C 927.06958 -0.24457182 905.25959 12.180416 894.5625 33.78125 C 894.5625 33.78125 857.63125 115.61959 822.125 187.3125 C 786.81999 115.6675 750.0625 33.90625 750.0625 33.90625 C 739.31 12.084999 717.22417 -0.3470833 694.40625 0.09375 C 694.28128 0.09375 694.14625 0.09375 694.03125 0.09375 L 363.9375 0.09375 C 330.66417 0.09375 303.6875 27.070415 303.6875 60.34375 C 303.6875 93.617084 330.66417 120.59375 363.9375 120.59375 L 456.375 120.59375 L 456.375 316.6875 C 456.375 350.21959 483.56166 377.40625 517.09375 377.40625 C 550.62583 377.40625 577.8125 350.21959 577.8125 316.6875 L 577.8125 120.59375 L 657.40625 120.59375 L 767.53125 344 C 777.7375 364.72875 798.83208 377.85583 821.9375 377.875 C 845.04292 377.8903 866.15208 364.79375 876.40625 344.09375 L 1003.375 87.6875 C 1018.258 57.634166 1005.9595 21.205001 975.90625 6.3125 C 967.45645 2.1266796 958.49451 0.095702018 949.65625 0 z "
       transform="translate(7.4445887,4.8734614)"
       id="path2982" />
    <path
       style="fill:#dc181d;stroke:none"
       d="M 1134.5 0.65625 C 1111.9906 0.35809539 1090.2844 12.702019 1079.5625 34.28125 L 952.3125 290.375 C 937.39506 320.39828 949.53922 356.58256 979.5625 371.5 C 1009.5858 386.41744 1045.7701 374.24203 1060.6875 344.21875 L 1187.9375 88.15625 C 1202.8549 58.132972 1190.6795 21.948691 1160.6562 7.03125 C 1152.2122 2.8357198 1143.308 0.7729192 1134.5 0.65625 z M 1314.5 0.65625 C 1291.9906 0.35809539 1270.2844 12.702019 1259.5625 34.28125 L 1132.3125 290.375 C 1117.3951 320.39828 1129.5392 356.58256 1159.5625 371.5 C 1189.5858 386.41744 1225.7701 374.24203 1240.6875 344.21875 L 1367.9375 88.15625 C 1382.8549 58.132972 1370.6795 21.948691 1340.6562 7.03125 C 1332.2122 2.8357198 1323.308 0.7729192 1314.5 0.65625 z "
       transform="translate(7.4445887,4.8734614)"
       id="rect2991" />
    <path
       style="fill:#ffffff;stroke-width:none"
       d="M 34.702622,369.09714 C 12.357338,357.29245 -1.3611838,331.02631 2.9204091,308.24538 4.081367,302.06831 36.369423,234.33928 74.671647,157.73643 142.66783,21.746891 144.65002,18.27363 158.62661,10.627632 174.47179,1.9594083 197.53493,0.26981555 210.29297,6.8425832 230.21541,17.106353 238.83444,31.515323 304.56828,164.44862 c 60.05106,121.44101 67.23864,137.75498 67.46504,153.1285 0.67269,45.67467 -50.20217,72.90861 -90.11626,48.24034 -10.39179,-6.42249 -15.74604,-14.89116 -34.67412,-54.843 -12.31154,-25.98621 -30.86893,-64.67697 -41.23864,-85.97945 l -18.85401,-38.73178 -19.21807,40.27313 c -10.56993,22.15022 -27.53323,58.39604 -37.69621,80.54626 -10.16298,22.15023 -22.48027,44.6123 -27.37176,49.91573 -17.692605,19.18263 -45.432164,24.10642 -68.161628,12.09879 z"
       id="path64"
       transform="translate(7.4445887,4.8734614)" />
    <path
       style="fill:#ffffff;stroke-width:none"
       d="m 493.34586,369.57065 c -15.96768,-7.3324 -23.12322,-14.81679 -30.07686,-31.45919 -4.26835,-10.2156 -5.16213,-30.34948 -5.16213,-116.28512 V 117.89595 l -58.49766,-1.05535 c -53.16128,-0.95908 -59.36092,-1.69581 -67.96091,-8.07612 -17.19206,-12.754765 -24.56568,-27.268896 -24.56568,-48.354783 0,-29.864457 18.00728,-51.6014659 47.46134,-57.2916975 21.03551,-4.0638511 327.05063,-3.84065237 348.6432,0.2542906 25.07804,4.7559577 37.28228,15.4133069 50.65974,44.2386519 40.92975,88.194328 65.48102,137.884648 68.30272,138.240648 1.79444,0.2264 20.36002,-35.7872 41.25684,-80.03023 20.89682,-44.243024 40.33176,-83.024842 43.18877,-86.181814 14.32969,-15.834107 48.19466,-21.6721215 67.57624,-11.649526 21.93486,11.342967 36.88613,39.446026 32.74103,61.541464 -2.4474,13.045531 -133.15467,277.171476 -142.23015,287.410656 -21.70074,24.48327 -62.41114,24.51026 -84.847,0.0564 -4.86573,-5.3036 -34.18346,-61.36857 -65.15048,-124.58899 L 658.38119,117.4633 h -41.27522 -41.27524 l -0.96931,110.17896 -0.9693,110.17897 -9.67868,12.68375 c -10.66983,13.98266 -31.78936,25.23018 -47.37493,25.23018 -5.53755,0 -16.10925,-2.77405 -23.49265,-6.16451 z"
       id="path103"
       transform="translate(7.4445887,4.8734614)" />
  </g>
</svg>
