<?xml version="1.0" encoding="UTF-8"?>
<!DOCTYPE svg PUBLIC "-//W3C//DTD SVG 1.1//EN" "http://www.w3.org/Graphics/SVG/1.1/DTD/svg11.dtd">
<svg xmlns="http://www.w3.org/2000/svg" version="1.1" width="798px" height="173px" style="shape-rendering:geometricPrecision; text-rendering:geometricPrecision; image-rendering:optimizeQuality; fill-rule:evenodd; clip-rule:evenodd" xmlns:xlink="http://www.w3.org/1999/xlink">
<g><path style="opacity:1" fill="#b2b2b2" d="M 4.5,-0.5 C 266.5,-0.5 528.5,-0.5 790.5,-0.5C 792.934,0.131069 795.268,1.13107 797.5,2.5C 797.5,3.16667 797.5,3.83333 797.5,4.5C 794.958,3.37562 792.292,2.54229 789.5,2C 527.833,1.33333 266.167,1.33333 4.5,2C 3.29857,2.90252 2.46524,4.06919 2,5.5C 1.33333,59.8333 1.33333,114.167 2,168.5C 2.83333,169.333 3.66667,170.167 4.5,171C 266.167,171.667 527.833,171.667 789.5,171C 792.292,170.458 794.958,169.624 797.5,168.5C 797.5,169.5 797.5,170.5 797.5,171.5C 796.508,171.328 795.842,171.662 795.5,172.5C 531.167,172.5 266.833,172.5 2.5,172.5C 1.30766,170.887 0.307663,169.22 -0.5,167.5C -0.5,113.5 -0.5,59.5 -0.5,5.5C 0.415309,2.91426 2.08198,0.914258 4.5,-0.5 Z"/></g>
<g><path style="opacity:1" fill="#f6e7e6" d="M 797.5,4.5 C 797.5,59.1667 797.5,113.833 797.5,168.5C 794.958,169.624 792.292,170.458 789.5,171C 527.833,171.667 266.167,171.667 4.5,171C 3.66667,170.167 2.83333,169.333 2,168.5C 1.33333,114.167 1.33333,59.8333 2,5.5C 2.46524,4.06919 3.29857,2.90252 4.5,2C 266.167,1.33333 527.833,1.33333 789.5,2C 792.292,2.54229 794.958,3.37562 797.5,4.5 Z"/></g>
<g><path style="opacity:1" fill="#f1f0f0" d="M 379.5,4.5 C 379.5,59.1667 379.5,113.833 379.5,168.5C 254.5,168.5 129.5,168.5 4.5,168.5C 4.5,113.833 4.5,59.1667 4.5,4.5C 129.5,4.5 254.5,4.5 379.5,4.5 Z"/></g>
<g><path style="opacity:1" fill="#c80201" d="M 379.5,4.5 C 516.834,4.33333 654.167,4.5 791.5,5C 792.165,32.0956 792.498,59.2623 792.5,86.5C 792.498,113.738 792.165,140.904 791.5,168C 654.167,168.5 516.834,168.667 379.5,168.5C 379.5,113.833 379.5,59.1667 379.5,4.5 Z"/></g>
<g><path style="opacity:1" fill="#fefbfb" d="M 730.5,40.5 C 744.366,38.9004 756.699,42.4004 767.5,51C 763.685,55.9819 759.352,60.4819 754.5,64.5C 747.968,57.8995 740.301,56.0661 731.5,59C 727.062,62.5679 726.395,66.7346 729.5,71.5C 739.793,75.3212 749.793,79.8212 759.5,85C 769.217,95.6989 770.05,107.199 762,119.5C 757.119,125.193 750.952,128.693 743.5,130C 731.074,132.134 719.407,130.134 708.5,124C 706.024,122.691 704.024,120.858 702.5,118.5C 706.5,113.833 710.833,109.5 715.5,105.5C 723.619,113.676 732.952,115.51 743.5,111C 747.838,105.67 747.171,101.003 741.5,97C 731.64,94.1601 722.307,90.1601 713.5,85C 706.951,77.7393 704.784,69.2393 707,59.5C 711.716,49.2817 719.549,42.9484 730.5,40.5 Z"/></g>
<g><path style="opacity:1" fill="#010101" d="M 35.5,42.5 C 66.5,42.5 97.5,42.5 128.5,42.5C 128.5,71.8333 128.5,101.167 128.5,130.5C 97.5,130.5 66.5,130.5 35.5,130.5C 35.5,101.167 35.5,71.8333 35.5,42.5 Z"/></g>
<g><path style="opacity:1" fill="#010101" d="M 236.5,42.5 C 236.5,71.8333 236.5,101.167 236.5,130.5C 205.5,130.5 174.5,130.5 143.5,130.5C 143.5,101.167 143.5,71.8333 143.5,42.5C 174.5,42.5 205.5,42.5 236.5,42.5 Z"/></g>
<g><path style="opacity:1" fill="#020202" d="M 251.5,42.5 C 282.833,42.5 314.167,42.5 345.5,42.5C 345.5,71.8333 345.5,101.167 345.5,130.5C 314.167,130.5 282.833,130.5 251.5,130.5C 251.5,101.167 251.5,71.8333 251.5,42.5 Z"/></g>
<g><path style="opacity:1" fill="#fefbfb" d="M 435.5,74.5 C 435.217,73.7109 434.717,73.0442 434,72.5C 433.5,91.1637 433.333,109.83 433.5,128.5C 426.833,128.5 420.167,128.5 413.5,128.5C 413.5,99.8333 413.5,71.1667 413.5,42.5C 421.507,42.3336 429.507,42.5003 437.5,43C 449.376,61.2482 460.876,79.7482 472,98.5C 472.5,79.8363 472.667,61.1696 472.5,42.5C 479.167,42.5 485.833,42.5 492.5,42.5C 492.5,71.1667 492.5,99.8333 492.5,128.5C 484.493,128.666 476.493,128.5 468.5,128C 457.364,110.222 446.364,92.3891 435.5,74.5 Z"/></g>
<g><path style="opacity:1" fill="#fefcfc" d="M 567.5,42.5 C 567.5,48.1667 567.5,53.8333 567.5,59.5C 554.989,59.1714 542.655,59.5048 530.5,60.5C 530.5,65.8333 530.5,71.1667 530.5,76.5C 542.167,76.5 553.833,76.5 565.5,76.5C 565.5,81.8333 565.5,87.1667 565.5,92.5C 553.655,92.1717 541.988,92.5051 530.5,93.5C 530.5,99.1667 530.5,104.833 530.5,110.5C 543.833,110.5 557.167,110.5 570.5,110.5C 570.5,116.5 570.5,122.5 570.5,128.5C 550.5,128.5 530.5,128.5 510.5,128.5C 510.5,99.8333 510.5,71.1667 510.5,42.5C 529.5,42.5 548.5,42.5 567.5,42.5 Z"/></g>
<g><path style="opacity:1" fill="#fefbfb" d="M 610.5,97.5 C 611.167,100.167 611.833,100.167 612.5,97.5C 617.42,79.2326 622.087,60.8993 626.5,42.5C 634.167,42.5 641.833,42.5 649.5,42.5C 654.172,61.5221 659.006,80.5221 664,99.5C 668.964,80.9788 673.63,62.3121 678,43.5C 685.079,42.5201 692.245,42.1868 699.5,42.5C 691.971,70.9472 683.971,99.2806 675.5,127.5C 668.532,128.497 661.532,128.83 654.5,128.5C 649.317,109.103 643.817,89.7694 638,70.5C 632.022,89.4023 626.188,108.402 620.5,127.5C 613.532,128.497 606.532,128.83 599.5,128.5C 591.911,100.063 583.911,71.73 575.5,43.5C 583.138,42.5025 590.804,42.1692 598.5,42.5C 602.499,60.8267 606.499,79.16 610.5,97.5 Z"/></g>
<g><path style="opacity:1" fill="#f7f7f7" d="M 325.5,59.5 C 325.815,63.3714 325.482,67.0381 324.5,70.5C 315.221,64.9572 305.221,63.1239 294.5,65C 277.842,71.6284 273.342,83.1284 281,99.5C 287.789,107.208 296.289,110.375 306.5,109C 313.554,107.872 320.054,105.372 326,101.5C 326.667,105.5 326.667,109.5 326,113.5C 308.92,122.266 292.42,121.433 276.5,111C 261.573,94.3777 261.906,78.0443 277.5,62C 287.774,54.9047 299.107,52.5713 311.5,55C 316.277,56.2037 320.944,57.7037 325.5,59.5 Z"/></g>
<g><path style="opacity:1" fill="#fafafa" d="M 59.5,54.5 C 67.5069,54.3336 75.5069,54.5003 83.5,55C 98.6307,57.7686 103.464,66.2686 98,80.5C 96.6487,82.019 95.1487,83.3523 93.5,84.5C 105.67,89.1755 109.17,97.5089 104,109.5C 100.205,114.815 95.038,117.648 88.5,118C 78.8391,118.5 69.1724,118.666 59.5,118.5C 59.5,97.1667 59.5,75.8333 59.5,54.5 Z"/></g>
<g><path style="opacity:1" fill="#bababa" d="M 193.5,55.5 C 185.167,55.5 176.833,55.5 168.5,55.5C 168.5,76.5 168.5,97.5 168.5,118.5C 167.503,97.3399 167.169,76.0065 167.5,54.5C 176.349,54.1736 185.016,54.507 193.5,55.5 Z"/></g>
<g><path style="opacity:1" fill="#fbfbfb" d="M 193.5,55.5 C 205.744,57.9161 210.578,65.2494 208,77.5C 206.357,79.9768 204.524,82.3102 202.5,84.5C 213.379,89.2582 216.879,97.2582 213,108.5C 209.386,114.063 204.219,117.23 197.5,118C 187.839,118.5 178.172,118.666 168.5,118.5C 168.5,97.5 168.5,76.5 168.5,55.5C 176.833,55.5 185.167,55.5 193.5,55.5 Z"/></g>
<g><path style="opacity:1" fill="#727272" d="M 325.5,59.5 C 326.809,63.3507 326.809,67.3507 325.5,71.5C 324.893,71.3764 324.56,71.0431 324.5,70.5C 325.482,67.0381 325.815,63.3714 325.5,59.5 Z"/></g>
<g><path style="opacity:1" fill="#f2c6c6" d="M 567.5,42.5 C 568.49,48.31 568.823,54.31 568.5,60.5C 555.833,60.5 543.167,60.5 530.5,60.5C 542.655,59.5048 554.989,59.1714 567.5,59.5C 567.5,53.8333 567.5,48.1667 567.5,42.5 Z"/></g>
<g><path style="opacity:1" fill="#5e5e5e" d="M 82.5,65.5 C 78.8333,65.5 75.1667,65.5 71.5,65.5C 71.5,70.5 71.5,75.5 71.5,80.5C 74.5,80.5 77.5,80.5 80.5,80.5C 77.3752,81.4794 74.0419,81.8128 70.5,81.5C 70.5,75.8333 70.5,70.1667 70.5,64.5C 74.7016,64.1832 78.7016,64.5166 82.5,65.5 Z"/></g>
<g><path style="opacity:1" fill="#020202" d="M 82.5,65.5 C 88.1919,67.0017 90.0252,70.6684 88,76.5C 86.1535,79.0072 83.6535,80.3406 80.5,80.5C 77.5,80.5 74.5,80.5 71.5,80.5C 71.5,75.5 71.5,70.5 71.5,65.5C 75.1667,65.5 78.8333,65.5 82.5,65.5 Z"/></g>
<g><path style="opacity:1" fill="#9d9d9d" d="M 190.5,65.5 C 186.833,65.5 183.167,65.5 179.5,65.5C 179.5,70.8333 179.5,76.1667 179.5,81.5C 178.511,76.0247 178.178,70.358 178.5,64.5C 182.702,64.1832 186.702,64.5166 190.5,65.5 Z"/></g>
<g><path style="opacity:1" fill="#080808" d="M 190.5,65.5 C 197.907,67.6588 199.407,71.9921 195,78.5C 190.162,80.9852 184.995,81.9852 179.5,81.5C 179.5,76.1667 179.5,70.8333 179.5,65.5C 183.167,65.5 186.833,65.5 190.5,65.5 Z"/></g>
<g><path style="opacity:1" fill="#080808" d="M 70.5,91.5 C 77.2414,91.1712 83.908,91.6712 90.5,93C 96.0923,98.1668 95.759,102.833 89.5,107C 83.2584,108.37 76.9251,108.87 70.5,108.5C 70.5,102.833 70.5,97.1667 70.5,91.5 Z"/></g>
<g><path style="opacity:1" fill="#040404" d="M 179.5,91.5 C 185.176,91.3339 190.843,91.5006 196.5,92C 202.267,94.4108 203.933,98.5775 201.5,104.5C 200.5,105.333 199.5,106.167 198.5,107C 192.258,108.37 185.925,108.87 179.5,108.5C 179.5,102.833 179.5,97.1667 179.5,91.5 Z"/></g>
<g><path style="opacity:1" fill="#ea9d9d" d="M 565.5,76.5 C 566.489,81.9753 566.822,87.642 566.5,93.5C 554.5,93.5 542.5,93.5 530.5,93.5C 541.988,92.5051 553.655,92.1717 565.5,92.5C 565.5,87.1667 565.5,81.8333 565.5,76.5 Z"/></g>
<g><path style="opacity:1" fill="#e68482" d="M 610.5,97.5 C 611.167,97.5 611.833,97.5 612.5,97.5C 611.833,100.167 611.167,100.167 610.5,97.5 Z"/></g>
<g><path style="opacity:1" fill="#e27472" d="M 435.5,74.5 C 434.833,92.5 434.167,110.5 433.5,128.5C 433.333,109.83 433.5,91.1637 434,72.5C 434.717,73.0442 435.217,73.7109 435.5,74.5 Z"/></g>
<g><path style="opacity:1" fill="#7f7e7e" d="M 35.5,42.5 C 35.5,71.8333 35.5,101.167 35.5,130.5C 66.5,130.5 97.5,130.5 128.5,130.5C 97.3378,131.498 66.0044,131.832 34.5,131.5C 34.1686,101.662 34.5019,71.9953 35.5,42.5 Z"/></g>
<g><path style="opacity:1" fill="#8a8989" d="M 236.5,42.5 C 237.498,71.9953 237.831,101.662 237.5,131.5C 205.996,131.832 174.662,131.498 143.5,130.5C 174.5,130.5 205.5,130.5 236.5,130.5C 236.5,101.167 236.5,71.8333 236.5,42.5 Z"/></g>
</svg>
