<?xml version="1.0" encoding="UTF-8"?>
<!DOCTYPE svg PUBLIC "-//W3C//DTD SVG 1.1//EN" "http://www.w3.org/Graphics/SVG/1.1/DTD/svg11.dtd">
<svg xmlns="http://www.w3.org/2000/svg" version="1.1" width="803px" height="73px" style="shape-rendering:geometricPrecision; text-rendering:geometricPrecision; image-rendering:optimizeQuality; fill-rule:evenodd; clip-rule:evenodd" xmlns:xlink="http://www.w3.org/1999/xlink">
<g><path style="opacity:1" fill="#9a0402" d="M -0.5,-0.5 C 267.167,-0.5 534.833,-0.5 802.5,-0.5C 802.5,23.8333 802.5,48.1667 802.5,72.5C 534.833,72.5 267.167,72.5 -0.5,72.5C -0.5,48.1667 -0.5,23.8333 -0.5,-0.5 Z"/></g>
<g><path style="opacity:1" fill="#fcf8f8" d="M 791.5,11.5 C 791.806,14.3854 791.473,17.0521 790.5,19.5C 783.567,14.332 776.734,14.332 770,19.5C 769.333,21.1667 769.333,22.8333 770,24.5C 774.543,29.1866 779.709,33.02 785.5,36C 796.516,44.7521 797.183,54.0854 787.5,64C 778.423,67.8157 770.09,66.649 762.5,60.5C 762.19,57.2869 762.523,54.2869 763.5,51.5C 768.744,58.2785 775.411,60.1118 783.5,57C 787.582,52.4494 787.249,48.116 782.5,44C 776.388,40.2214 770.555,36.0547 765,31.5C 758.749,17.3478 763.416,9.34784 779,7.5C 783.556,7.84289 787.723,9.17622 791.5,11.5 Z"/></g>
<g><path style="opacity:1" fill="#fdf9f9" d="M 334.5,8.5 C 360.224,8.38652 371.724,21.0532 369,46.5C 362.055,63.0464 349.555,69.8797 331.5,67C 313.736,61.3257 306.236,49.159 309,30.5C 313.373,18.2879 321.873,10.9546 334.5,8.5 Z"/></g>
<g><path style="opacity:1" fill="#fcf8f7" d="M 570.5,8.5 C 572.924,8.19244 575.257,8.52577 577.5,9.5C 590.186,23.6854 602.686,38.0187 615,52.5C 615.5,37.8371 615.667,23.1705 615.5,8.5C 618.167,8.5 620.833,8.5 623.5,8.5C 623.5,27.5 623.5,46.5 623.5,65.5C 620.813,65.6641 618.146,65.4974 615.5,65C 603.372,50.5365 590.872,36.3698 578,22.5C 577.5,36.8295 577.333,51.1628 577.5,65.5C 575.167,65.5 572.833,65.5 570.5,65.5C 570.5,46.5 570.5,27.5 570.5,8.5 Z"/></g>
<g><path style="opacity:1" fill="#fdfafa" d="M 635.5,8.5 C 646.5,8.5 657.5,8.5 668.5,8.5C 668.5,11.1667 668.5,13.8333 668.5,16.5C 660.167,16.5 651.833,16.5 643.5,16.5C 643.5,22.1667 643.5,27.8333 643.5,33.5C 651.5,33.5 659.5,33.5 667.5,33.5C 667.5,36.1667 667.5,38.8333 667.5,41.5C 659.5,41.5 651.5,41.5 643.5,41.5C 643.5,46.8333 643.5,52.1667 643.5,57.5C 651.833,57.5 660.167,57.5 668.5,57.5C 668.5,60.1667 668.5,62.8333 668.5,65.5C 657.5,65.5 646.5,65.5 635.5,65.5C 635.5,46.5 635.5,27.5 635.5,8.5 Z"/></g>
<g><path style="opacity:1" fill="#fcf7f7" d="M 671.5,9.5 C 674.287,8.52333 677.287,8.19 680.5,8.5C 684.709,21.4575 689.709,34.1241 695.5,46.5C 700.649,34.1969 705.816,21.8635 711,9.5C 713.795,8.21748 716.628,8.21748 719.5,9.5C 724.943,22.053 730.11,34.7197 735,47.5C 740.069,34.7932 745.236,22.1265 750.5,9.5C 753.167,8.16667 755.833,8.16667 758.5,9.5C 751.333,27.1667 744.167,44.8333 737,62.5C 736.632,63.91 735.799,64.91 734.5,65.5C 728.091,50.4343 721.591,35.4343 715,20.5C 708.784,35.6579 702.284,50.6579 695.5,65.5C 687.289,46.8487 679.289,28.1821 671.5,9.5 Z"/></g>
<g><path style="opacity:1" fill="#fcf7f7" d="M 220.5,10.5 C 223.287,9.52333 226.287,9.19 229.5,9.5C 233.709,22.4575 238.709,35.1241 244.5,47.5C 249.649,35.1969 254.816,22.8635 260,10.5C 262.795,9.21748 265.628,9.21748 268.5,10.5C 273.943,23.053 279.11,35.7197 284,48.5C 289.069,35.7932 294.236,23.1265 299.5,10.5C 302.167,9.16667 304.833,9.16667 307.5,10.5C 300.333,28.1667 293.167,45.8333 286,63.5C 285.632,64.91 284.799,65.91 283.5,66.5C 277.091,51.4343 270.591,36.4343 264,21.5C 257.784,36.6579 251.284,51.6579 244.5,66.5C 236.289,47.8487 228.289,29.1821 220.5,10.5 Z"/></g>
<g><path style="opacity:1" fill="#fcf9f8" d="M 380.5,9.5 C 389,8.93402 397.333,9.76735 405.5,12C 413.214,16.605 415.381,23.105 412,31.5C 409.994,34.6717 407.494,37.3383 404.5,39.5C 407.122,41.4113 409.289,43.7446 411,46.5C 414.67,53.1758 418.836,59.5091 423.5,65.5C 420.554,66.6548 417.554,66.8214 414.5,66C 409.605,57.7703 403.938,50.1036 397.5,43C 394.649,41.7114 391.649,41.2114 388.5,41.5C 388.5,49.8333 388.5,58.1667 388.5,66.5C 385.833,66.5 383.167,66.5 380.5,66.5C 380.5,47.5 380.5,28.5 380.5,9.5 Z"/></g>
<g><path style="opacity:1" fill="#fdf9f9" d="M 430.5,9.5 C 433.167,9.5 435.833,9.5 438.5,9.5C 438.5,25.8333 438.5,42.1667 438.5,58.5C 447.167,58.5 455.833,58.5 464.5,58.5C 464.5,61.1667 464.5,63.8333 464.5,66.5C 453.167,66.5 441.833,66.5 430.5,66.5C 430.5,47.5 430.5,28.5 430.5,9.5 Z"/></g>
<g><path style="opacity:1" fill="#faf4f4" d="M 471.5,9.5 C 480.173,9.33358 488.84,9.50025 497.5,10C 517.522,12.8687 526.355,24.3687 524,44.5C 520.732,56.1011 513.232,63.2678 501.5,66C 491.506,66.4998 481.506,66.6665 471.5,66.5C 471.5,47.5 471.5,28.5 471.5,9.5 Z"/></g>
<g><path style="opacity:1" fill="#c87776" d="M 791.5,11.5 C 792.803,14.3553 792.803,17.3553 791.5,20.5C 790.893,20.3764 790.56,20.0431 790.5,19.5C 791.473,17.0521 791.806,14.3854 791.5,11.5 Z"/></g>
<g><path style="opacity:1" fill="#fdfafa" d="M 8.5,11.5 C 26.5,11.5 44.5,11.5 62.5,11.5C 62.5,28.5 62.5,45.5 62.5,62.5C 44.5,62.5 26.5,62.5 8.5,62.5C 8.5,45.5 8.5,28.5 8.5,11.5 Z"/></g>
<g><path style="opacity:1" fill="#fefdfd" d="M 70.5,11.5 C 88.5,11.5 106.5,11.5 124.5,11.5C 124.5,28.5 124.5,45.5 124.5,62.5C 106.5,62.5 88.5,62.5 70.5,62.5C 70.5,45.5 70.5,28.5 70.5,11.5 Z"/></g>
<g><path style="opacity:1" fill="#fcf7f7" d="M 132.5,11.5 C 150.833,11.5 169.167,11.5 187.5,11.5C 187.5,28.5 187.5,45.5 187.5,62.5C 169.167,62.5 150.833,62.5 132.5,62.5C 132.5,45.5 132.5,28.5 132.5,11.5 Z"/></g>
<g><path style="opacity:1" fill="#9a0804" d="M 335.5,16.5 C 356.764,17.3721 364.597,28.0387 359,48.5C 349.474,60.5746 337.974,62.7413 324.5,55C 315.395,45.7893 314.228,35.6227 321,24.5C 325.185,20.3309 330.018,17.6642 335.5,16.5 Z"/></g>
<g><path style="opacity:1" fill="#9a0804" d="M 388.5,17.5 C 392.897,17.4246 397.23,17.9246 401.5,19C 405.423,23.2606 405.423,27.594 401.5,32C 397.3,33.3674 392.967,33.8674 388.5,33.5C 388.5,28.1667 388.5,22.8333 388.5,17.5 Z"/></g>
<g><path style="opacity:1" fill="#9a0402" d="M 480.5,17.5 C 487.175,17.3337 493.842,17.5004 500.5,18C 514.621,23.4103 519.121,33.2436 514,47.5C 510.665,53.0827 505.832,56.5827 499.5,58C 493.175,58.4995 486.842,58.6662 480.5,58.5C 480.5,44.8333 480.5,31.1667 480.5,17.5 Z"/></g>
<g><path style="opacity:1" fill="#9d110b" d="M 155.5,18.5 C 162.031,17.9885 168.364,18.8218 174.5,21C 175.769,23.1385 175.769,25.3052 174.5,27.5C 167.202,23.8489 159.868,23.6823 152.5,27C 145.635,34.2967 145.968,41.2967 153.5,48C 161.434,51.5825 168.934,50.7491 176,45.5C 176.769,48.0991 176.602,50.5991 175.5,53C 166.296,56.6516 157.296,56.3183 148.5,52C 140.009,43.2572 139.342,33.9239 146.5,24C 149.564,22.1412 152.564,20.3079 155.5,18.5 Z"/></g>
<g><path style="opacity:1" fill="#9c0d07" d="M 22.5,18.5 C 29.8773,17.6893 36.8773,18.856 43.5,22C 46.6743,27.2801 46.0076,31.9468 41.5,36C 48.7287,38.6207 50.8953,43.454 48,50.5C 46.786,52.0488 45.286,53.2155 43.5,54C 36.5888,55.3844 29.5888,55.8844 22.5,55.5C 22.5,43.1667 22.5,30.8333 22.5,18.5 Z"/></g>
<g><path style="opacity:1" fill="#b53f3e" d="M 99.5,19.5 C 94.8333,19.5 90.1667,19.5 85.5,19.5C 85.5,31.5 85.5,43.5 85.5,55.5C 84.5048,43.3446 84.1714,31.0113 84.5,18.5C 89.6946,18.1795 94.6946,18.5128 99.5,19.5 Z"/></g>
<g><path style="opacity:1" fill="#9c0f09" d="M 99.5,19.5 C 106.42,20.5888 109.253,24.5888 108,31.5C 107.215,33.286 106.049,34.786 104.5,36C 112.558,40.4016 113.558,46.0683 107.5,53C 105.913,53.8624 104.246,54.5291 102.5,55C 96.8431,55.4994 91.1764,55.6661 85.5,55.5C 85.5,43.5 85.5,31.5 85.5,19.5C 90.1667,19.5 94.8333,19.5 99.5,19.5 Z"/></g>
<g><path style="opacity:1" fill="#cc9494" d="M 29.5,24.5 C 29.5,27.5 29.5,30.5 29.5,33.5C 30.8333,33.5 32.1667,33.5 33.5,33.5C 32.0813,34.4511 30.4147,34.7845 28.5,34.5C 28.1872,30.9581 28.5206,27.6248 29.5,24.5 Z"/></g>
<g><path style="opacity:1" fill="#fcf7f7" d="M 29.5,24.5 C 31.8568,24.3367 34.1902,24.5034 36.5,25C 39.0799,26.4814 39.9132,28.648 39,31.5C 37.5557,33.1554 35.7224,33.822 33.5,33.5C 32.1667,33.5 30.8333,33.5 29.5,33.5C 29.5,30.5 29.5,27.5 29.5,24.5 Z"/></g>
<g><path style="opacity:1" fill="#fbf4f3" d="M 91.5,24.5 C 94.9297,24.1065 98.0964,24.7732 101,26.5C 101.896,29.025 101.396,31.1917 99.5,33C 96.9865,34.2525 94.3198,34.7525 91.5,34.5C 91.5,31.1667 91.5,27.8333 91.5,24.5 Z"/></g>
<g><path style="opacity:1" fill="#d3a0a0" d="M 38.5,40.5 C 35.5,40.5 32.5,40.5 29.5,40.5C 29.5,43.5 29.5,46.5 29.5,49.5C 28.5206,46.3752 28.1872,43.0419 28.5,39.5C 32.0419,39.1872 35.3752,39.5206 38.5,40.5 Z"/></g>
<g><path style="opacity:1" fill="#fdfcfc" d="M 38.5,40.5 C 42.1461,41.4615 43.3128,43.7949 42,47.5C 38.078,49.3124 33.9113,49.979 29.5,49.5C 29.5,46.5 29.5,43.5 29.5,40.5C 32.5,40.5 35.5,40.5 38.5,40.5 Z"/></g>
<g><path style="opacity:1" fill="#fcf7f7" d="M 91.5,39.5 C 95.7121,39.0775 99.7121,39.7442 103.5,41.5C 104.952,44.2815 104.619,46.7815 102.5,49C 98.8484,49.4986 95.1817,49.6653 91.5,49.5C 91.5,46.1667 91.5,42.8333 91.5,39.5 Z"/></g>
<g><path style="opacity:1" fill="#ca6464" d="M 763.5,51.5 C 762.523,54.2869 762.19,57.2869 762.5,60.5C 761.194,57.3132 761.194,53.9798 762.5,50.5C 763.107,50.6236 763.44,50.9569 763.5,51.5 Z"/></g>
</svg>
