<?xml version="1.0" encoding="UTF-8"?>
<!DOCTYPE svg PUBLIC "-//W3C//DTD SVG 1.1//EN" "http://www.w3.org/Graphics/SVG/1.1/DTD/svg11.dtd">
<svg xmlns="http://www.w3.org/2000/svg" version="1.1" width="620px" height="73px" style="shape-rendering:geometricPrecision; text-rendering:geometricPrecision; image-rendering:optimizeQuality; fill-rule:evenodd; clip-rule:evenodd" xmlns:xlink="http://www.w3.org/1999/xlink">
<g><path style="opacity:1" fill="#9d110b" d="M -0.5,3.5 C 64.8333,3.5 130.167,3.5 195.5,3.5C 195.5,25.8333 195.5,48.1667 195.5,70.5C 130.167,70.5 64.8333,70.5 -0.5,70.5C -0.5,48.1667 -0.5,25.8333 -0.5,3.5 Z"/></g>
<g><path style="opacity:1" fill="#ffffff" d="M 597.5,10.5 C 601.875,10.3469 605.708,11.6803 609,14.5C 609.808,16.5787 609.641,18.5787 608.5,20.5C 604.417,17.3727 600.083,16.8727 595.5,19C 594.409,21.0639 594.242,23.2305 595,25.5C 599.857,29.601 604.524,33.9343 609,38.5C 613.569,48.9276 610.403,55.5943 599.5,58.5C 591.264,58.4365 588.098,54.4365 590,46.5C 594.063,52.913 599.063,53.913 605,49.5C 605.755,46.6967 605.422,44.0301 604,41.5C 599.296,38.3083 594.962,34.6416 591,30.5C 586.871,21.7197 589.038,15.0531 597.5,10.5 Z"/></g>
<g><path style="opacity:1" fill="#ffffff" d="M 297.5,11.5 C 313.161,11.8276 321.161,19.8276 321.5,35.5C 321.534,49.9656 314.367,57.9656 300,59.5C 284.431,56.2274 277.764,46.5607 280,30.5C 282.287,20.7193 288.12,14.386 297.5,11.5 Z M 296.5,18.5 C 305.222,17.2752 311.388,20.6085 315,28.5C 317.673,38.4905 314.84,46.3238 306.5,52C 293.776,54.1411 286.776,48.8078 285.5,36C 285.796,27.8805 289.463,22.0472 296.5,18.5 Z"/></g>
<g><path style="opacity:1" fill="#ffffff" d="M 458.5,11.5 C 460.288,11.2148 461.955,11.5481 463.5,12.5C 471.833,23.8333 480.167,35.1667 488.5,46.5C 489.499,34.8523 489.832,23.1857 489.5,11.5C 491.167,11.5 492.833,11.5 494.5,11.5C 494.5,26.8333 494.5,42.1667 494.5,57.5C 492.208,57.7564 490.041,57.4231 488,56.5C 480.387,45.2199 472.387,34.2199 464,23.5C 463.5,34.8284 463.333,46.1618 463.5,57.5C 461.833,57.5 460.167,57.5 458.5,57.5C 458.5,42.1667 458.5,26.8333 458.5,11.5 Z"/></g>
<g><path style="opacity:1" fill="#ffffff" d="M 502.5,11.5 C 510.167,11.5 517.833,11.5 525.5,11.5C 525.5,13.8333 525.5,16.1667 525.5,18.5C 519.833,18.5 514.167,18.5 508.5,18.5C 508.5,22.8333 508.5,27.1667 508.5,31.5C 513.833,31.5 519.167,31.5 524.5,31.5C 524.5,33.8333 524.5,36.1667 524.5,38.5C 519.167,38.5 513.833,38.5 508.5,38.5C 508.5,42.8333 508.5,47.1667 508.5,51.5C 514.167,51.5 519.833,51.5 525.5,51.5C 525.5,53.5 525.5,55.5 525.5,57.5C 517.833,57.5 510.167,57.5 502.5,57.5C 502.5,42.1667 502.5,26.8333 502.5,11.5 Z"/></g>
<g><path style="opacity:1" fill="#ffffff" d="M 527.5,11.5 C 529.467,11.2606 531.301,11.5939 533,12.5C 536.498,22.4885 539.998,32.4885 543.5,42.5C 547.272,32.3493 550.939,22.1826 554.5,12C 556.441,11.2571 558.274,11.4238 560,12.5C 563.049,22.381 566.549,32.0476 570.5,41.5C 574.479,32.0687 577.979,22.402 581,12.5C 582.814,11.2404 584.647,11.2404 586.5,12.5C 581.557,27.6628 576.224,42.6628 570.5,57.5C 565.701,45.6545 561.201,33.6545 557,21.5C 552.759,33.6395 548.259,45.6395 543.5,57.5C 537.563,42.3553 532.23,27.0219 527.5,11.5 Z"/></g>
<g><path style="opacity:1" fill="#ffffff" d="M 8.5,11.5 C 26.5,11.5 44.5,11.5 62.5,11.5C 62.5,28.5 62.5,45.5 62.5,62.5C 44.5,62.5 26.5,62.5 8.5,62.5C 8.5,45.5 8.5,28.5 8.5,11.5 Z"/></g>
<g><path style="opacity:1" fill="#ffffff" d="M 70.5,11.5 C 88.5,11.5 106.5,11.5 124.5,11.5C 124.5,28.5 124.5,45.5 124.5,62.5C 106.5,62.5 88.5,62.5 70.5,62.5C 70.5,45.5 70.5,28.5 70.5,11.5 Z"/></g>
<g><path style="opacity:1" fill="#ffffff" d="M 132.5,11.5 C 150.833,11.5 169.167,11.5 187.5,11.5C 187.5,28.5 187.5,45.5 187.5,62.5C 169.167,62.5 150.833,62.5 132.5,62.5C 132.5,45.5 132.5,28.5 132.5,11.5 Z"/></g>
<g><path style="opacity:1" fill="#ffffff" d="M 219.5,13.5 C 221.56,12.1888 223.726,12.1888 226,13.5C 229.025,23.5964 232.358,33.5964 236,43.5C 239.867,33.5657 243.533,23.5657 247,13.5C 248.814,12.2404 250.647,12.2404 252.5,13.5C 256.272,23.3837 259.772,33.3837 263,43.5C 266.959,33.3325 270.459,22.9991 273.5,12.5C 275.604,12.2011 277.604,12.5344 279.5,13.5C 274.292,28.6264 268.792,43.6264 263,58.5C 258.466,46.5652 254.133,34.5652 250,22.5C 245.573,32.5271 241.906,42.8605 239,53.5C 238.261,55.2205 237.427,56.8872 236.5,58.5C 235.914,58.2907 235.414,57.9574 235,57.5C 230.625,42.445 225.458,27.7783 219.5,13.5 Z"/></g>
<g><path style="opacity:1" fill="#ffffff" d="M 328.5,12.5 C 333.93,12.161 339.264,12.661 344.5,14C 351.023,18.2353 352.856,24.0687 350,31.5C 348.959,33.5852 347.459,35.2519 345.5,36.5C 350.21,43.4174 354.544,50.584 358.5,58C 356.098,58.8141 353.765,58.6474 351.5,57.5C 348.372,50.7369 344.372,44.5702 339.5,39C 337.866,38.5065 336.199,38.3398 334.5,38.5C 334.5,45.1667 334.5,51.8333 334.5,58.5C 332.5,58.5 330.5,58.5 328.5,58.5C 328.5,43.1667 328.5,27.8333 328.5,12.5 Z M 334.5,19.5 C 344.014,18.3227 347.014,21.9894 343.5,30.5C 340.572,31.4841 337.572,31.8174 334.5,31.5C 334.5,27.5 334.5,23.5 334.5,19.5 Z"/></g>
<g><path style="opacity:1" fill="#ffffff" d="M 363.5,12.5 C 365.167,12.5 366.833,12.5 368.5,12.5C 368.5,25.8333 368.5,39.1667 368.5,52.5C 374.5,52.5 380.5,52.5 386.5,52.5C 386.5,54.5 386.5,56.5 386.5,58.5C 378.833,58.5 371.167,58.5 363.5,58.5C 363.5,43.1667 363.5,27.8333 363.5,12.5 Z"/></g>
<g><path style="opacity:1" fill="#ffffff" d="M 391.5,12.5 C 400.382,11.8641 409.049,12.8641 417.5,15.5C 430.408,28.2962 430.742,41.4628 418.5,55C 416.043,56.5621 413.376,57.5621 410.5,58C 404.175,58.4995 397.842,58.6662 391.5,58.5C 391.5,43.1667 391.5,27.8333 391.5,12.5 Z M 397.5,19.5 C 416.188,17.0208 423.688,25.0208 420,43.5C 414.641,51.4608 407.141,54.4608 397.5,52.5C 397.5,41.5 397.5,30.5 397.5,19.5 Z"/></g>
<g><path style="opacity:1" fill="#9d110b" d="M 155.5,18.5 C 162.031,17.9885 168.364,18.8218 174.5,21C 175.769,23.1385 175.769,25.3052 174.5,27.5C 167.202,23.8489 159.868,23.6823 152.5,27C 145.635,34.2967 145.968,41.2967 153.5,48C 161.434,51.5825 168.934,50.7491 176,45.5C 176.769,48.0991 176.602,50.5991 175.5,53C 166.296,56.6516 157.296,56.3183 148.5,52C 140.009,43.2572 139.342,33.9239 146.5,24C 149.564,22.1412 152.564,20.3079 155.5,18.5 Z"/></g>
<g><path style="opacity:1" fill="#9d110b" d="M 22.5,18.5 C 29.8773,17.6893 36.8773,18.856 43.5,22C 46.6743,27.2801 46.0076,31.9468 41.5,36C 48.7287,38.6207 50.8953,43.454 48,50.5C 46.786,52.0488 45.286,53.2155 43.5,54C 36.5888,55.3844 29.5888,55.8844 22.5,55.5C 22.5,43.1667 22.5,30.8333 22.5,18.5 Z"/></g>
<g><path style="opacity:1" fill="#9d110b" d="M 99.5,19.5 C 94.8333,19.5 90.1667,19.5 85.5,19.5C 85.5,31.5 85.5,43.5 85.5,55.5C 84.5048,43.3446 84.1714,31.0113 84.5,18.5C 89.6946,18.1795 94.6946,18.5128 99.5,19.5 Z"/></g>
<g><path style="opacity:1" fill="#9d110b" d="M 99.5,19.5 C 106.42,20.5888 109.253,24.5888 108,31.5C 107.215,33.286 106.049,34.786 104.5,36C 112.558,40.4016 113.558,46.0683 107.5,53C 105.913,53.8624 104.246,54.5291 102.5,55C 96.8431,55.4994 91.1764,55.6661 85.5,55.5C 85.5,43.5 85.5,31.5 85.5,19.5C 90.1667,19.5 94.8333,19.5 99.5,19.5 Z"/></g>
<g><path style="opacity:1" fill="#cc9494" d="M 29.5,24.5 C 29.5,27.5 29.5,30.5 29.5,33.5C 30.8333,33.5 32.1667,33.5 33.5,33.5C 32.0813,34.4511 30.4147,34.7845 28.5,34.5C 28.1872,30.9581 28.5206,27.6248 29.5,24.5 Z"/></g>
<g><path style="opacity:1" fill="#ffffff" d="M 29.5,24.5 C 31.8568,24.3367 34.1902,24.5034 36.5,25C 39.0799,26.4814 39.9132,28.648 39,31.5C 37.5557,33.1554 35.7224,33.822 33.5,33.5C 32.1667,33.5 30.8333,33.5 29.5,33.5C 29.5,30.5 29.5,27.5 29.5,24.5 Z"/></g>
<g><path style="opacity:1" fill="#ffffff" d="M 91.5,24.5 C 94.9297,24.1065 98.0964,24.7732 101,26.5C 101.896,29.025 101.396,31.1917 99.5,33C 96.9865,34.2525 94.3198,34.7525 91.5,34.5C 91.5,31.1667 91.5,27.8333 91.5,24.5 Z"/></g>
<g><path style="opacity:1" fill="#d3a0a0" d="M 38.5,40.5 C 35.5,40.5 32.5,40.5 29.5,40.5C 29.5,43.5 29.5,46.5 29.5,49.5C 28.5206,46.3752 28.1872,43.0419 28.5,39.5C 32.0419,39.1872 35.3752,39.5206 38.5,40.5 Z"/></g>
<g><path style="opacity:1" fill="#ffffff" d="M 38.5,40.5 C 42.1461,41.4615 43.3128,43.7949 42,47.5C 38.078,49.3124 33.9113,49.979 29.5,49.5C 29.5,46.5 29.5,43.5 29.5,40.5C 32.5,40.5 35.5,40.5 38.5,40.5 Z"/></g>
<g><path style="opacity:1" fill="#ffffff" d="M 91.5,39.5 C 95.7121,39.0775 99.7121,39.7442 103.5,41.5C 104.952,44.2815 104.619,46.7815 102.5,49C 98.8484,49.4986 95.1817,49.6653 91.5,49.5C 91.5,46.1667 91.5,42.8333 91.5,39.5 Z"/></g>
</svg>
