<svg version="1.1" id="Ebene_1" x="0" y="0" xml:space="preserve" width="309.282" height="59.514" xmlns="http://www.w3.org/2000/svg"><style type="text/css" id="style2">.st0{fill:#fff}</style><g id="g60" style="fill:#fff" transform="translate(-24.059 -18.677)"><path class="st0" d="M43.2 38.5c2.9 1.1 4 3.8 4 6.4 0 4.8-4 8-9 8h-9.5c-1.8 0-2.3-.7-2.3-2.3V28.8c0-1.6.5-2.3 2.3-2.3H38c4.6 0 8.1 1.9 8.1 6.7 0 2.1-1.2 4.1-2.9 5.1zm-10.9-2h5.1c1.2 0 2.8-.5 2.8-2.6 0-1.5-1-2.4-2.6-2.4h-5.3zm5.4 4.6h-5.4v6.7h5.4c2.9 0 3.7-1.9 3.7-3.4-.1-1.9-1.3-3.3-3.7-3.3z" id="path4" style="fill:#fff"/><path class="st0" d="M71 52.9H59.8c-5.6 0-7-3.5-7-6.9V33.4c0-3.6 1.8-7 6.9-7h10.8c.6 0 .7.2.7.9v3.2c0 .6-.2.8-.7.8H61c-2 0-2.5 1-2.5 2.3v2.9h10.8c.6 0 .7.2.7.9v2.9c0 .6-.1.9-.7.9H58.6v4.3c0 1.7.9 2.3 2.5 2.3h10c.6 0 .8.2.8.9V52c-.2.6-.3.9-.9.9z" id="path6" style="fill:#fff"/><path class="st0" d="M92.7 47.4h-8.6l-1.5 4.8c-.2.5-.3.7-1.1.7h-4.4c-.5 0-.6-.4-.5-.8l7.8-23.6c.5-1.7 1.2-2 2.8-2.1h2.3c1.7 0 2.3.2 2.9 2.1l7.8 23.6c.1.3 0 .8-.5.8h-4.5c-.6 0-.9-.1-1.1-.6zm-7.2-4.7h5.9L90 37.9l-1.4-5.4h-.2L87 37.9z" id="path8" style="fill:#fff"/><path class="st0" d="M121.1 31.4h-6.8v20.7c0 .6-.2.8-.9.8h-4c-.6 0-.9-.2-.9-.8V31.4h-6.7c-.5 0-.7-.2-.7-.8v-3.4c0-.6.2-.8.7-.8h19.3c.6 0 .8.2.8.8v3.4c0 .6-.3.8-.8.8z" id="path10" style="fill:#fff"/><path class="st0" d="M144.8 52.9h-11.2c-5.6 0-7-3.5-7-6.9V33.4c0-3.6 1.8-7 6.9-7h10.8c.6 0 .7.2.7.9v3.2c0 .6-.2.8-.7.8h-9.6c-2 0-2.5 1-2.5 2.3v2.9H143c.6 0 .7.2.7.9v2.9c0 .6-.1.9-.7.9h-10.8v4.3c0 1.7.9 2.3 2.5 2.3h10c.6 0 .8.2.8.9V52c.1.6-.1.9-.7.9z" id="path12" style="fill:#fff"/><path class="st0" d="M185.8 49.2c0 1.8-.6 3.1-2.8 3.6-2 .5-5.1.5-6.4.5-8.7 0-12.2-2.6-12.2-11.4V27.3c0-.6.3-.8.9-.8h4c.8 0 .9.2.9.8v15c0 4.1 1.2 6.1 6 6.1.7 0 2.6 0 3.9-.3V27.3c0-.6.3-.8.9-.8h4c.8 0 .8.2.8.8z" id="path14" style="fill:#fff"/><path class="st0" d="M214.1 52.9h-4c-.6 0-.9-.2-.9-.8V41.6H199v10.6c0 .6-.2.8-.9.8h-4c-.6 0-.9-.2-.9-.8V27.3c0-.6.3-.8.9-.8h4c.8 0 .9.2.9.8v9.4h10.2v-9.4c0-.6.2-.8.9-.8h4c.8 0 .9.2.9.8v24.8c0 .6-.1.8-.9.8z" id="path16" style="fill:#fff"/><path class="st0" d="M230.9 26.1c2.9 0 6.3.6 8.4 1.7.6.3.6.5.4 1.2l-1 2.8c-.3.7-.4.7-1 .6-2.3-.7-4.8-1.2-6.8-1.2-2.2 0-3 .9-3 2.1 0 1.3 1.1 2.1 4.4 3.4 5.1 2 8.8 3.8 8.8 8.7 0 5.3-4 7.9-9.8 7.9-3.2 0-7.1-.6-10-2.4-.4-.2-.5-.5-.2-1.1l1.3-3c.3-.6.5-.6 1.1-.4 2 .8 4.9 1.8 7.5 1.8 3.2 0 4.1-1.3 4.1-2.6 0-1.5-1-2.4-4.2-3.6-5.3-2-8.8-4-8.8-8.2-.2-4.4 2.6-7.7 8.8-7.7z" id="path18" style="fill:#fff"/><path class="st0" d="M264.9 52.9h-11.2c-5.6 0-7-3.5-7-6.9V33.4c0-3.6 1.8-7 6.9-7h10.8c.6 0 .7.2.7.9v3.2c0 .6-.2.8-.7.8h-9.6c-2 0-2.5 1-2.5 2.3v2.9h10.8c.6 0 .7.2.7.9v2.9c0 .6-.1.9-.7.9h-10.8v4.3c0 1.7.9 2.3 2.5 2.3h10c.6 0 .8.2.8.9V52c0 .6-.1.9-.7.9z" id="path20" style="fill:#fff"/><path class="st0" d="M302.1 31.4h-6.8v20.7c0 .6-.2.8-.9.8h-4c-.6 0-.9-.2-.9-.8V31.4h-6.7c-.5 0-.7-.2-.7-.8v-3.4c0-.6.2-.8.7-.8h19.3c.6 0 .8.2.8.8v3.4c-.1.6-.3.8-.8.8z" id="path22" style="fill:#fff"/><path class="st0" d="M318.9 46.6h.3L321 40l4-13c.2-.5.5-.6 1-.6h4.6c.5 0 .5.4.4.6l-8.1 23.8c-.6 1.8-1.3 2-2.7 2h-2.3c-1.5 0-2.2-.3-2.8-2l-8-23.8c-.1-.3 0-.6.5-.6h4.5c.7 0 .9.2 1 .7l4 12.8z" id="path24" style="fill:#fff"/><path class="st0" d="M134.8 76.4c-1.1 0-2.5-.2-3.7-.7-.1 0-.1-.1-.1-.3l.3-.8c0-.1.1-.1.2-.1 1 .4 2.1.7 3 .7 1.5 0 2.3-.6 2.3-1.6s-.8-1.5-2.4-2c-2.1-.8-3.2-1.5-3.2-2.9 0-1.6 1.1-2.7 3.2-2.7 1 0 2.1.2 3 .6.1.1.1.1.1.2l-.3.8c-.1.1-.1.1-.2.1-1-.4-1.9-.5-2.7-.5-1.2 0-1.8.6-1.8 1.4 0 1 .8 1.3 2.5 2 1.6.6 3 1.3 3 3 .4 1.8-1.2 2.8-3.2 2.8z" id="path26" style="fill:#fff"/><path class="st0" d="M147.2 74.6c.2-.1.3 0 .3.1l.3.6c.1.2.1.3-.1.4-.9.5-2.1.7-3.1.7-2.7 0-4.3-1.6-4.3-5.1 0-3.2 1.8-5.3 4.4-5.3.8 0 1.7.1 2.7.6.1.1.2.1.1.3l-.3.7c-.1.1-.1.2-.3.1-.6-.3-1.4-.4-2.1-.4-2.2 0-3.1 2-3.1 4.1 0 2.1.7 3.8 3.2 3.8.8-.1 1.6-.3 2.3-.6z" id="path28" style="fill:#fff"/><path class="st0" d="M156.5 66.4c0-.2.1-.2.3-.2h.8c.2 0 .3 0 .3.2V76c0 .2-.1.2-.3.2h-.8c-.2 0-.3 0-.3-.2v-4.5h-5.1V76c0 .2-.1.2-.3.2h-.8c-.2 0-.3 0-.3-.2v-9.6c0-.2.1-.2.3-.2h.8c.2 0 .3 0 .3.2v3.9h5.1z" id="path30" style="fill:#fff"/><path class="st0" d="M167.3 76.2c-.2 0-.3 0-.3-.2l-.7-2.1h-4.1l-.7 2.1c0 .1-.1.2-.3.2h-1c-.2 0-.2-.1-.2-.3l3.3-9.3c.2-.5.3-.6.7-.6h.4c.5 0 .6.1.8.6l3.2 9.3c.1.1 0 .3-.2.3zm-4.4-10.7c-.4 0-.8-.4-.8-.8s.4-.8.8-.8.8.4.8.8c-.1.4-.4.8-.8.8zm2 4.2-.7-2.1h-.1l-.6 2-1 3.1h3.3zm.6-4.2c-.4 0-.8-.4-.8-.8s.4-.8.8-.8.8.4.8.8-.4.8-.8.8z" id="path32" style="fill:#fff"/><path class="st0" d="M170.6 66.8c0-.5.2-.7.7-.7h3.3c1.8 0 3 1.2 3 2.8 0 1.2-.6 2.1-1.6 2.5v.1c.8.2 1.1.8 1.3 1.5l.8 3c0 .1 0 .3-.2.3h-1c-.1 0-.2 0-.3-.2l-.8-2.8c-.3-1.1-1-1.4-2-1.4h-2.1V76c0 .2-.1.2-.3.2h-.8c-.2 0-.3 0-.3-.2v-9.2zm3.8.5h-2.5v3.4h2.4c1.4 0 2-.8 2-1.7 0-.8-.4-1.7-1.9-1.7z" id="path34" style="fill:#fff"/><path class="st0" d="M181.4 76.2h-.7c-.2 0-.3 0-.3-.3v-7.3c0-1.3.6-2.5 2.4-2.5h4c.2 0 .3.1.3.3v.6c0 .2 0 .3-.3.3h-3.9c-.8 0-1.1.3-1.1 1.1v2h4.6c.2 0 .3.1.3.3v.6c0 .2 0 .3-.3.3h-4.6V76c-.1.2-.2.2-.4.2z" id="path36" style="fill:#fff"/><path class="st0" d="M195.7 76.2h-4c-1.9 0-2.4-1.1-2.4-2.5v-5.2c0-1.3.7-2.5 2.4-2.5h3.9c.2 0 .3.1.3.3v.7c0 .2 0 .3-.3.3h-3.9c-.8 0-1.1.3-1.1 1.1v1.9h4.6c.2 0 .3.1.3.3v.5c0 .2 0 .3-.3.3h-4.6v2.5c0 .6.3 1.1 1.1 1.1h4c.2 0 .3.1.3.3v.6c-.1.2-.1.3-.3.3z" id="path38" style="fill:#fff"/><path class="st0" d="M198.2 66.8c0-.5.2-.7.7-.7h3.3c1.8 0 3 1.2 3 2.8 0 1.2-.6 2.1-1.6 2.5v.1c.8.2 1.1.8 1.3 1.5l.8 3c0 .1 0 .3-.2.3h-1c-.1 0-.2 0-.3-.2l-.8-2.8c-.3-1.1-1-1.4-2-1.4h-2.1V76c0 .2-.1.2-.3.2h-.8c-.2 0-.3 0-.3-.2v-9.2zm3.9.5h-2.5v3.4h2.4c1.4 0 2-.8 2-1.7 0-.8-.4-1.7-1.9-1.7z" id="path40" style="fill:#fff"/><path class="st0" d="M213.6 76.2h-.7c-.2 0-.3 0-.3-.3v-7.3c0-1.3.6-2.5 2.4-2.5h4c.2 0 .3.1.3.3v.6c0 .2 0 .3-.3.3h-4c-.8 0-1.1.3-1.1 1.1v2h4.6c.2 0 .3.1.3.3v.6c0 .2 0 .3-.3.3h-4.6V76c0 .2-.1.2-.3.2z" id="path42" style="fill:#fff"/><path class="st0" d="M227.8 76.2h-4c-1.9 0-2.4-1.1-2.4-2.5v-5.2c0-1.3.7-2.5 2.4-2.5h3.9c.2 0 .3.1.3.3v.7c0 .2 0 .3-.3.3h-3.9c-.8 0-1.1.3-1.1 1.1v1.9h4.6c.2 0 .3.1.3.3v.5c0 .2 0 .3-.3.3h-4.6v2.5c0 .6.3 1.1 1.1 1.1h4c.2 0 .3.1.3.3v.6c0 .2 0 .3-.3.3z" id="path44" style="fill:#fff"/><path class="st0" d="M230.4 66.8c0-.5.2-.7.7-.7h3.3c1.8 0 3 1.2 3 2.8 0 1.2-.6 2.1-1.6 2.5v.1c.8.2 1.1.8 1.3 1.5l.8 3c0 .1 0 .3-.2.3h-1c-.1 0-.2 0-.3-.2l-.8-2.8c-.3-1.1-1-1.4-2-1.4h-2.1V76c0 .2-.1.2-.3.2h-.8c-.2 0-.3 0-.3-.2v-9.2zm3.9.5h-2.5v3.4h2.4c1.4 0 2-.8 2-1.7 0-.8-.5-1.7-1.9-1.7z" id="path46" style="fill:#fff"/><path class="st0" d="M246.8 66.3c0-.2.1-.2.3-.2h.7c.2 0 .3 0 .3.2v9.1c0 .5-.2.7-.7.7h-.4c-.4 0-.5-.2-.8-.6l-3.4-5.7-1.1-2v8c0 .2-.1.2-.3.2h-.7c-.2 0-.3 0-.3-.2v-9.1c0-.5.2-.7.7-.7h.4c.4 0 .5.2.8.6l3.4 5.5 1.2 2.1v-7.9z" id="path48" style="fill:#fff"/><path class="st0" d="M254.1 76.4c-1.1 0-2.5-.2-3.7-.7-.1 0-.1-.1-.1-.3l.3-.8c0-.1.1-.1.2-.1 1 .4 2.1.7 3 .7 1.5 0 2.3-.6 2.3-1.6s-.8-1.5-2.4-2c-2.1-.8-3.2-1.5-3.2-2.9 0-1.6 1.1-2.7 3.2-2.7 1 0 2.1.2 3 .6.1.1.1.1.1.2l-.3.8c-.1.1-.1.1-.2.1-1-.4-1.9-.5-2.7-.5-1.2 0-1.8.6-1.8 1.4 0 1 .8 1.3 2.5 2 1.6.6 3 1.3 3 3 .4 1.8-1.2 2.8-3.2 2.8z" id="path50" style="fill:#fff"/><path class="st0" d="M266.3 76.2h-4c-1.9 0-2.4-1.1-2.4-2.5v-5.2c0-1.3.7-2.5 2.4-2.5h3.9c.2 0 .3.1.3.3v.7c0 .2 0 .3-.3.3h-3.9c-.8 0-1.1.3-1.1 1.1v1.9h4.6c.2 0 .3.1.3.3v.5c0 .2 0 .3-.3.3h-4.6v2.5c0 .6.3 1.1 1.1 1.1h4c.2 0 .3.1.3.3v.6c0 .2 0 .3-.3.3z" id="path52" style="fill:#fff"/><path class="st0" d="M275.3 66.4c0-.2.1-.2.3-.2h.8c.2 0 .3 0 .3.2V76c0 .2-.1.2-.3.2h-.8c-.2 0-.3 0-.3-.2v-4.5h-5.1V76c0 .2-.1.2-.3.2h-.8c-.2 0-.3 0-.3-.2v-9.6c0-.2.1-.2.3-.2h.8c.2 0 .3 0 .3.2v3.9h5.1z" id="path54" style="fill:#fff"/><path class="st0" d="M286 76.2h-4c-1.9 0-2.4-1.1-2.4-2.5v-5.2c0-1.3.7-2.5 2.4-2.5h3.9c.2 0 .3.1.3.3v.7c0 .2 0 .3-.3.3H282c-.8 0-1.1.3-1.1 1.1v1.9h4.6c.2 0 .3.1.3.3v.5c0 .2 0 .3-.3.3h-4.6v2.5c0 .6.3 1.1 1.1 1.1h4c.2 0 .3.1.3.3v.6c0 .2 0 .3-.3.3z" id="path56" style="fill:#fff"/><path class="st0" d="M295.1 66.3c0-.2.1-.2.3-.2h.7c.2 0 .3 0 .3.2v9.1c0 .5-.2.7-.7.7h-.4c-.4 0-.5-.2-.8-.6l-3.4-5.7-1.1-2v8c0 .2-.1.2-.3.2h-.7c-.2 0-.3 0-.3-.2v-9.1c0-.5.2-.7.7-.7h.4c.4 0 .5.2.8.6l3.4 5.5 1.2 2.1v-7.9z" id="path58" style="fill:#fff"/></g></svg>