<?xml version="1.0" encoding="UTF-8"?>
<!DOCTYPE svg PUBLIC "-//W3C//DTD SVG 1.1//EN" "http://www.w3.org/Graphics/SVG/1.1/DTD/svg11.dtd">
<svg xmlns="http://www.w3.org/2000/svg" version="1.1" width="668px" height="118px" style="shape-rendering:geometricPrecision; text-rendering:geometricPrecision; image-rendering:optimizeQuality; fill-rule:evenodd; clip-rule:evenodd" xmlns:xlink="http://www.w3.org/1999/xlink">
<g><path style="opacity:1" fill="#ffffff" d="M 74.5,3.5 C 75.675,3.28099 76.675,3.61432 77.5,4.5C 100.419,38.6733 123.586,72.6733 147,106.5C 148.009,108.025 148.509,109.692 148.5,111.5C 100.833,111.5 53.1667,111.5 5.5,111.5C 4.88432,106.95 6.05098,102.95 9,99.5C 31.0905,67.6446 52.9239,35.6446 74.5,3.5 Z M 63.5,41.5 C 72.0557,52.2522 80.3891,63.2522 88.5,74.5C 91.5667,70.7132 94.4,66.7132 97,62.5C 97.8373,60.9926 99.0039,60.4926 100.5,61C 109.639,74.3055 118.972,87.4722 128.5,100.5C 92.838,101.667 57.1713,101.833 21.5,101C 36.134,81.5469 50.134,61.7135 63.5,41.5 Z"/></g>
<g><path style="opacity:1" fill="#ffffff" d="M 372.5,30.5 C 384.571,29.1329 394.738,32.7995 403,41.5C 407.647,53.9005 403.48,59.2338 390.5,57.5C 390.294,45.83 384.294,41.33 372.5,44C 369.087,45.0774 366.587,47.2441 365,50.5C 364.333,58.8333 364.333,67.1667 365,75.5C 370.307,82.4412 377.141,84.2745 385.5,81C 389.089,79.3258 390.755,76.4925 390.5,72.5C 381.13,73.7891 376.464,69.7891 376.5,60.5C 384.84,60.3336 393.173,60.5003 401.5,61C 402.416,61.3742 403.25,61.8742 404,62.5C 408.474,83.7045 399.807,94.7045 378,95.5C 363.533,95.663 354.2,88.9963 350,75.5C 349.333,67.1667 349.333,58.8333 350,50.5C 353.002,38.66 360.502,31.9933 372.5,30.5 Z"/></g>
<g><path style="opacity:1" fill="#ffffff" d="M 479.5,30.5 C 481.833,30.5 484.167,30.5 486.5,30.5C 486.5,47.5 486.5,64.5 486.5,81.5C 494.84,81.3336 503.173,81.5003 511.5,82C 516.564,84.6294 518.564,88.7961 517.5,94.5C 503.829,94.6666 490.163,94.4999 476.5,94C 474.714,93.2155 473.214,92.0488 472,90.5C 471.333,72.5 471.333,54.5 472,36.5C 473.707,33.4096 476.207,31.4096 479.5,30.5 Z"/></g>
<g><path style="opacity:1" fill="#ffffff" d="M 534.5,30.5 C 536.167,30.5 537.833,30.5 539.5,30.5C 539.667,50.1695 539.5,69.8362 539,89.5C 538.535,90.9308 537.701,92.0975 536.5,93C 533.077,94.9039 529.41,95.7372 525.5,95.5C 525.333,76.1638 525.5,56.8305 526,37.5C 526.309,36.2341 526.809,35.0674 527.5,34C 529.713,32.3838 532.047,31.2172 534.5,30.5 Z"/></g>
<g><path style="opacity:1" fill="#ffffff" d="M 571.5,30.5 C 582.408,29.3536 591.908,32.3536 600,39.5C 607.164,52.8101 603.33,58.8101 588.5,57.5C 589.843,48.0609 585.676,43.3942 576,43.5C 569.896,43.2673 565.563,45.934 563,51.5C 562.333,58.8333 562.333,66.1667 563,73.5C 565.205,79.4454 569.539,82.4454 576,82.5C 585.447,82.3897 589.947,77.8897 589.5,69C 603.077,67.5861 606.91,73.0861 601,85.5C 596.287,91.3062 590.12,94.4729 582.5,95C 559.038,97.3662 547.704,86.8662 548.5,63.5C 546.126,45.1875 553.793,34.1875 571.5,30.5 Z"/></g>
<g><path style="opacity:1" fill="#ffffff" d="M 618.5,30.5 C 620.833,30.5 623.167,30.5 625.5,30.5C 625.334,38.84 625.5,47.1733 626,55.5C 634.777,47.7252 643.277,39.5585 651.5,31C 654.672,30.8494 656.839,32.3494 658,35.5C 660,37.8333 660,40.1667 658,42.5C 651.787,49.0133 645.287,55.18 638.5,61C 646.181,70.6777 653.847,80.3444 661.5,90C 656.654,96.6895 651.154,97.1895 645,91.5C 639.489,84.461 633.989,77.461 628.5,70.5C 627.201,71.09 626.368,72.09 626,73.5C 625.667,78.1667 625.333,82.8333 625,87.5C 624.5,92 622,94.5 617.5,95C 615.19,95.4966 612.857,95.6633 610.5,95.5C 610.333,75.8305 610.5,56.1638 611,36.5C 613.109,33.8782 615.609,31.8782 618.5,30.5 Z"/></g>
<g><path style="opacity:1" fill="#ffffff" d="M 180.5,31.5 C 191.505,31.3335 202.505,31.5002 213.5,32C 225.214,35.8061 229.381,43.6395 226,55.5C 224.89,57.9422 223.39,60.1089 221.5,62C 227.524,64.7308 230.191,69.3975 229.5,76C 229.125,86.3765 223.792,92.3765 213.5,94C 202.833,94.6667 192.167,94.6667 181.5,94C 180.234,93.6905 179.067,93.1905 178,92.5C 176.372,73.8989 176.039,55.2322 177,36.5C 177.257,34.0935 178.424,32.4268 180.5,31.5 Z M 190.5,43.5 C 196.509,43.3338 202.509,43.5005 208.5,44C 212.292,46.0527 213.458,49.2194 212,53.5C 211.167,54.3333 210.333,55.1667 209.5,56C 203.258,57.3696 196.925,57.8696 190.5,57.5C 190.5,52.8333 190.5,48.1667 190.5,43.5 Z M 190.5,69.5 C 197.841,69.3337 205.174,69.5003 212.5,70C 216.5,73.6667 216.5,77.3333 212.5,81C 205.174,81.4997 197.841,81.6663 190.5,81.5C 190.5,77.5 190.5,73.5 190.5,69.5 Z"/></g>
<g><path style="opacity:1" fill="#ffffff" d="M 239.5,31.5 C 254.167,31.5 268.833,31.5 283.5,31.5C 284.154,35.8394 283.154,39.6727 280.5,43C 270.891,44.3589 261.224,44.8589 251.5,44.5C 251.5,48.5 251.5,52.5 251.5,56.5C 259.196,56.1692 266.862,56.5025 274.5,57.5C 274.811,63.0598 272.478,66.8931 267.5,69C 262.177,69.4994 256.844,69.666 251.5,69.5C 251.5,73.5 251.5,77.5 251.5,81.5C 260.839,81.3335 270.173,81.5002 279.5,82C 284.564,84.6294 286.564,88.7961 285.5,94.5C 270.496,94.6666 255.496,94.4999 240.5,94C 239.069,93.5348 237.903,92.7014 237,91.5C 236.333,72.5 236.333,53.5 237,34.5C 238.045,33.6266 238.878,32.6266 239.5,31.5 Z"/></g>
<g><path style="opacity:1" fill="#ffffff" d="M 295.5,31.5 C 307.171,31.3335 318.838,31.5001 330.5,32C 341.877,36.7306 346.044,45.2306 343,57.5C 342.332,61.4987 340.165,64.332 336.5,66C 339,67.1667 340.833,69 342,71.5C 343.359,76.7753 343.692,82.1087 343,87.5C 342.654,89.8477 341.487,91.6811 339.5,93C 336.077,94.9039 332.41,95.7372 328.5,95.5C 328.929,88.0528 328.429,80.7194 327,73.5C 326.25,72.8742 325.416,72.3742 324.5,72C 318.509,71.5005 312.509,71.3338 306.5,71.5C 306.666,77.1764 306.499,82.8431 306,88.5C 303.014,93.5776 298.514,95.9109 292.5,95.5C 292.333,75.1639 292.5,54.8306 293,34.5C 294.045,33.6266 294.878,32.6266 295.5,31.5 Z M 306.5,43.5 C 313.257,43.1226 319.924,43.6226 326.5,45C 330.5,49.3333 330.5,53.6667 326.5,58C 319.908,59.3288 313.241,59.8288 306.5,59.5C 306.5,54.1667 306.5,48.8333 306.5,43.5 Z"/></g>
<g><path style="opacity:1" fill="#ffffff" d="M 415.5,31.5 C 426.838,31.3335 438.172,31.5001 449.5,32C 459.741,35.6494 463.907,42.816 462,53.5C 460.789,56.7591 458.956,59.5925 456.5,62C 462.328,64.6547 464.995,69.1547 464.5,75.5C 464.363,86.1383 459.03,92.305 448.5,94C 437.833,94.6667 427.167,94.6667 416.5,94C 415.069,93.5348 413.903,92.7014 413,91.5C 412.333,72.5 412.333,53.5 413,34.5C 414.045,33.6266 414.878,32.6266 415.5,31.5 Z M 426.5,43.5 C 432.176,43.3339 437.843,43.5006 443.5,44C 449.496,47.6207 449.83,51.6207 444.5,56C 438.593,57.3608 432.593,57.8608 426.5,57.5C 426.5,52.8333 426.5,48.1667 426.5,43.5 Z M 425.5,69.5 C 432.841,69.3337 440.174,69.5003 447.5,70C 451.5,73.6667 451.5,77.3333 447.5,81C 440.174,81.4997 432.841,81.6663 425.5,81.5C 425.5,77.5 425.5,73.5 425.5,69.5 Z"/></g>
</svg>
