<svg id="svg" version="1.1" xmlns="http://www.w3.org/2000/svg" xmlns:xlink="http://www.w3.org/1999/xlink" width="400" height="80.8080808080808" viewBox="0, 0, 400,80.8080808080808"><g id="svgg"><path id="path0" d="M88.249 2.375 C 88.200 2.581,88.179 19.813,88.204 40.667 L 88.250 78.583 96.292 78.627 L 104.333 78.670 104.346 76.960 C 104.354 76.019,104.402 75.362,104.455 75.500 C 104.590 75.855,104.848 75.995,105.375 75.997 C 105.784 76.000,105.833 76.060,105.833 76.564 C 105.833 77.224,106.062 77.328,107.532 77.331 L 108.480 77.333 108.532 77.958 L 108.583 78.583 109.875 78.632 L 111.167 78.681 111.167 79.168 C 111.167 79.943,111.474 80.000,115.656 80.000 C 119.389 80.000,119.500 80.010,119.500 80.333 C 119.500 80.642,119.611 80.667,121.000 80.667 C 122.389 80.667,122.500 80.642,122.500 80.333 C 122.500 80.013,122.618 79.999,125.542 79.980 C 129.316 79.956,129.535 79.916,129.743 79.208 C 129.893 78.697,129.946 78.667,130.680 78.667 C 132.121 78.667,132.480 78.524,132.596 77.906 C 132.689 77.411,132.766 77.346,133.309 77.301 C 133.880 77.253,133.920 77.213,133.968 76.625 C 134.018 76.027,134.047 76.000,134.635 75.991 C 135.730 75.974,136.403 75.646,136.499 75.083 C 136.567 74.689,136.681 74.572,137.041 74.531 C 137.528 74.475,138.000 73.949,138.000 73.463 C 138.000 73.300,138.300 72.867,138.667 72.500 C 139.222 71.944,139.333 71.722,139.333 71.167 L 139.333 70.500 140.000 70.500 L 140.667 70.500 140.667 69.167 L 140.667 67.833 141.333 67.833 L 142.000 67.833 142.000 67.021 C 142.000 65.549,142.138 65.191,142.727 65.134 C 143.325 65.076,143.445 64.566,143.489 61.917 C 143.512 60.544,143.719 60.040,144.363 59.793 C 144.818 59.619,144.859 58.708,144.803 50.083 C 144.746 41.314,144.731 41.167,143.911 41.167 C 143.512 41.167,143.500 41.131,143.499 39.958 C 143.496 37.518,143.364 37.000,142.749 37.000 C 142.154 37.000,142.000 36.514,142.000 34.632 C 142.000 33.595,141.800 33.222,141.168 33.084 C 140.715 32.984,140.667 32.911,140.667 32.320 C 140.667 31.670,140.663 31.667,140.007 31.667 L 139.347 31.667 139.299 30.375 L 139.250 29.083 138.625 29.032 C 138.019 28.981,138.000 28.960,138.000 28.333 C 138.000 27.707,137.981 27.685,137.375 27.635 C 136.801 27.588,136.743 27.536,136.667 27.000 C 136.594 26.489,136.506 26.398,135.958 26.262 C 135.488 26.146,135.333 26.022,135.331 25.762 C 135.326 25.159,135.110 25.031,133.883 24.910 L 132.684 24.792 132.634 24.188 L 132.583 23.583 131.616 23.533 C 130.608 23.481,130.090 23.173,129.971 22.557 C 129.919 22.282,129.701 22.245,127.873 22.203 L 125.833 22.156 125.833 21.667 C 125.833 20.881,125.548 20.832,121.053 20.846 C 116.534 20.860,115.905 20.960,115.533 21.721 C 115.317 22.163,115.301 22.167,113.505 22.167 C 111.291 22.167,111.167 22.208,111.167 22.934 L 111.167 23.500 110.097 23.500 C 108.672 23.500,108.500 23.583,108.500 24.268 C 108.500 24.799,108.466 24.833,107.937 24.833 C 107.033 24.833,106.196 25.269,105.930 25.877 C 105.723 26.349,105.692 24.910,105.680 14.381 C 105.667 2.659,105.658 2.341,105.344 2.173 C 105.134 2.060,102.112 2.000,96.681 2.000 L 88.340 2.000 88.249 2.375 M146.243 2.208 C 146.199 2.323,146.183 5.642,146.207 9.583 L 146.250 16.750 154.695 16.793 C 162.208 16.832,163.169 16.807,163.403 16.573 C 163.801 16.175,163.803 2.660,163.405 2.262 C 163.053 1.910,146.377 1.858,146.243 2.208 M167.778 2.111 C 167.717 2.172,167.667 19.423,167.667 40.446 L 167.667 78.670 175.708 78.627 L 183.750 78.583 183.799 77.193 C 183.840 76.022,183.888 75.819,184.104 75.902 C 184.245 75.956,184.542 76.000,184.764 76.000 C 185.094 76.000,185.167 76.084,185.167 76.467 C 185.167 77.080,185.444 77.333,186.116 77.333 C 186.532 77.333,186.834 77.496,187.353 78.000 C 188.037 78.663,188.047 78.667,189.353 78.667 L 190.667 78.667 190.667 79.232 C 190.667 80.004,190.644 80.000,195.097 80.000 C 198.889 80.000,199.000 80.009,199.000 80.333 C 199.000 80.642,199.111 80.667,200.500 80.667 C 201.889 80.667,202.000 80.642,202.000 80.333 C 202.000 80.012,202.111 80.000,205.000 80.000 C 206.650 80.000,208.000 79.944,208.001 79.875 C 208.002 79.806,208.227 79.622,208.501 79.466 C 208.775 79.310,209.000 79.077,209.000 78.949 C 209.000 78.781,209.317 78.688,210.125 78.620 C 211.589 78.495,211.831 78.388,211.946 77.812 C 212.027 77.405,212.121 77.333,212.571 77.333 C 213.220 77.333,213.500 77.076,213.500 76.477 C 213.500 76.070,213.568 76.015,214.124 75.968 C 214.572 75.931,214.764 75.831,214.805 75.610 C 214.880 75.217,215.382 74.714,215.775 74.638 C 215.942 74.606,216.108 74.432,216.143 74.252 C 216.212 73.893,216.553 73.571,217.114 73.336 C 217.382 73.224,217.493 73.014,217.531 72.550 C 217.581 71.949,217.616 71.914,218.208 71.865 C 218.816 71.815,218.833 71.795,218.833 71.157 C 218.833 70.549,218.868 70.500,219.300 70.500 C 220.007 70.500,220.167 70.220,220.167 68.977 L 220.167 67.853 220.792 67.802 L 221.417 67.750 221.465 66.384 C 221.507 65.181,221.553 65.006,221.851 64.911 C 222.603 64.672,222.832 63.911,222.833 61.652 C 222.833 59.596,222.841 59.550,223.236 59.370 C 223.457 59.269,223.687 59.032,223.747 58.843 C 224.043 57.911,224.330 59.592,224.332 62.271 C 224.333 63.360,224.454 63.565,225.203 63.753 C 225.637 63.862,225.655 63.911,225.702 65.141 L 225.750 66.417 226.375 66.468 L 227.000 66.520 227.000 67.643 C 227.000 68.886,227.159 69.167,227.867 69.167 C 228.300 69.167,228.333 69.214,228.333 69.833 L 228.333 70.500 229.000 70.500 C 229.664 70.500,229.667 70.502,229.667 71.152 C 229.667 71.783,229.688 71.808,230.333 71.917 C 230.954 72.022,231.000 72.067,231.000 72.580 C 231.000 73.162,231.212 73.333,231.930 73.333 C 232.277 73.333,232.333 73.412,232.333 73.899 C 232.333 74.496,232.540 74.667,233.264 74.667 C 233.611 74.667,233.667 74.745,233.667 75.232 C 233.667 75.846,233.870 76.000,234.680 76.000 C 235.081 76.000,235.167 76.070,235.167 76.396 C 235.167 76.976,235.498 77.163,236.722 77.278 C 237.795 77.378,237.817 77.390,237.866 77.892 C 237.929 78.534,238.231 78.628,240.292 78.650 L 241.833 78.667 241.833 79.232 C 241.833 80.004,241.810 80.000,246.264 80.000 C 250.056 80.000,250.167 80.009,250.167 80.333 C 250.167 80.644,250.278 80.667,251.833 80.667 C 253.384 80.667,253.500 80.644,253.500 80.336 C 253.500 80.017,253.638 80.004,257.607 79.961 C 261.450 79.920,261.726 79.896,261.899 79.598 C 262.383 78.762,262.606 78.667,264.071 78.667 C 265.595 78.667,266.000 78.478,266.000 77.766 C 266.000 77.425,266.110 77.376,267.204 77.237 C 268.372 77.088,268.412 77.067,268.561 76.542 C 268.677 76.134,268.809 76.000,269.094 76.000 C 269.793 76.000,270.000 75.824,270.000 75.232 C 270.000 74.745,270.056 74.667,270.403 74.667 C 271.119 74.667,271.333 74.495,271.333 73.920 C 271.333 73.414,271.380 73.368,272.000 73.269 C 272.649 73.166,272.667 73.145,272.667 72.498 C 272.667 71.834,272.667 71.833,273.333 71.833 L 274.000 71.833 274.000 71.167 C 274.000 70.543,274.031 70.500,274.480 70.500 C 275.149 70.500,275.308 70.230,275.366 68.994 L 275.417 67.917 276.025 67.866 L 276.634 67.815 276.750 66.500 L 276.866 65.185 277.391 65.134 C 277.822 65.092,277.934 64.994,278.021 64.583 C 278.161 63.925,278.195 60.435,278.066 60.097 C 277.930 59.744,263.660 59.691,263.231 60.042 C 262.295 60.806,262.000 61.254,262.000 61.910 C 262.000 62.423,261.947 62.500,261.597 62.500 C 260.877 62.500,260.667 62.671,260.667 63.258 C 260.667 63.779,260.629 63.816,260.042 63.865 C 259.451 63.914,259.414 63.951,259.365 64.542 L 259.313 65.167 258.365 65.169 C 256.895 65.172,256.667 65.276,256.667 65.936 L 256.667 66.500 252.423 66.500 C 248.415 66.500,248.169 66.482,248.008 66.182 C 247.755 65.709,246.783 65.167,246.189 65.167 C 245.784 65.167,245.667 65.094,245.667 64.845 C 245.667 64.406,245.225 64.000,244.747 64.000 C 244.485 64.000,244.278 63.851,244.134 63.557 C 244.015 63.313,243.767 63.032,243.583 62.932 C 243.109 62.673,243.005 62.487,243.003 61.893 C 243.000 61.344,242.776 61.167,242.090 61.167 C 241.722 61.167,241.704 61.104,241.638 59.593 C 241.565 57.925,241.304 57.333,240.641 57.333 C 240.387 57.333,240.333 57.201,240.333 56.583 L 240.333 55.833 259.740 55.833 C 275.083 55.833,279.175 55.790,279.282 55.625 C 279.356 55.510,279.454 60.629,279.500 67.000 L 279.583 78.583 288.250 78.583 L 296.917 78.583 296.917 40.333 L 296.917 2.083 288.583 2.037 C 284.000 2.012,280.081 2.032,279.875 2.082 L 279.500 2.173 279.477 23.295 C 279.465 34.912,279.422 44.245,279.381 44.035 C 279.341 43.825,279.063 43.407,278.762 43.107 C 278.220 42.564,278.215 42.546,278.129 40.595 C 278.038 38.527,277.962 38.341,277.208 38.336 C 276.879 38.334,276.833 38.247,276.831 37.625 C 276.828 36.405,276.649 35.667,276.353 35.661 C 275.900 35.653,275.444 34.833,275.366 33.887 L 275.292 33.000 274.646 33.000 L 274.000 33.000 274.000 32.000 C 274.000 30.919,273.652 30.333,273.010 30.333 C 272.757 30.333,272.676 30.198,272.635 29.708 C 272.586 29.119,272.548 29.080,271.968 29.032 C 271.390 28.984,271.349 28.944,271.301 28.366 C 271.253 27.785,271.214 27.747,270.625 27.698 C 270.094 27.654,270.000 27.587,270.000 27.254 C 270.000 26.554,269.825 26.333,269.270 26.333 C 268.877 26.333,268.535 26.142,267.926 25.583 C 267.311 25.019,266.976 24.833,266.573 24.833 C 266.096 24.833,266.025 24.771,265.931 24.270 C 265.813 23.640,265.461 23.500,264.000 23.500 C 263.261 23.500,263.202 23.468,263.113 23.021 C 262.980 22.359,262.735 22.292,260.125 22.205 C 257.878 22.130,257.833 22.122,257.833 21.751 C 257.833 20.943,257.651 20.917,252.099 20.917 C 246.330 20.917,246.075 20.947,245.921 21.646 L 245.816 22.125 243.422 22.197 C 240.864 22.274,240.500 22.387,240.500 23.104 C 240.500 23.480,240.446 23.500,239.430 23.500 C 238.056 23.500,237.864 23.584,237.741 24.239 C 237.641 24.770,237.618 24.783,236.454 24.932 C 235.312 25.078,235.263 25.103,235.135 25.604 C 235.021 26.049,234.906 26.139,234.334 26.231 C 233.703 26.331,233.667 26.369,233.667 26.919 C 233.667 27.422,233.613 27.500,233.264 27.500 C 232.545 27.500,232.333 27.671,232.333 28.253 C 232.333 28.766,232.287 28.812,231.667 28.917 C 231.022 29.026,231.000 29.051,231.000 29.681 C 231.000 30.331,230.998 30.333,230.333 30.333 L 229.667 30.333 229.667 31.000 L 229.667 31.667 229.000 31.667 L 228.333 31.667 228.333 32.333 C 228.333 32.928,228.290 33.000,227.929 33.000 C 227.240 33.000,227.000 33.410,227.000 34.585 L 227.000 35.647 226.375 35.698 L 225.750 35.750 225.702 37.105 L 225.654 38.461 225.157 38.560 C 224.530 38.686,224.336 39.168,224.324 40.636 C 224.311 42.059,224.118 43.199,223.958 42.792 C 223.884 42.603,223.665 42.500,223.339 42.500 L 222.833 42.500 222.833 39.923 C 222.833 37.135,222.787 37.000,221.844 37.000 C 221.525 37.000,221.500 36.903,221.500 35.667 L 221.500 34.333 220.833 34.333 L 220.167 34.333 220.167 33.000 L 220.167 31.667 219.523 31.667 L 218.880 31.667 218.784 30.738 C 218.681 29.736,218.478 29.380,217.882 29.153 C 217.652 29.066,217.500 28.870,217.500 28.660 C 217.500 28.037,217.187 27.667,216.661 27.667 C 216.256 27.667,216.167 27.597,216.167 27.282 C 216.167 26.731,215.826 26.362,215.261 26.302 C 214.881 26.262,214.743 26.142,214.643 25.764 C 214.477 25.140,214.289 25.033,213.125 24.900 C 212.326 24.808,212.167 24.737,212.167 24.468 C 212.167 23.667,211.894 23.500,210.588 23.500 L 209.353 23.500 209.302 22.875 L 209.250 22.250 207.292 22.203 C 205.395 22.158,205.333 22.144,205.331 21.786 C 205.325 20.907,205.380 20.917,200.198 20.917 C 195.082 20.917,194.913 20.942,194.802 21.720 C 194.753 22.065,194.647 22.088,192.750 22.167 L 190.750 22.250 190.698 22.875 L 190.647 23.500 189.440 23.500 C 188.122 23.500,187.833 23.650,187.833 24.338 C 187.833 24.757,187.779 24.784,186.631 24.930 C 185.549 25.068,185.417 25.125,185.314 25.500 C 185.251 25.729,185.188 20.929,185.174 14.833 C 185.144 2.320,185.156 2.500,184.331 2.218 C 183.701 2.002,167.988 1.901,167.778 2.111 M146.167 51.083 L 146.167 78.667 154.717 78.667 C 161.144 78.667,163.316 78.617,163.467 78.467 C 163.758 78.176,163.758 23.991,163.467 23.700 C 163.316 23.550,161.144 23.500,154.717 23.500 L 146.167 23.500 146.167 51.083 M119.198 34.958 L 119.250 35.583 120.532 35.632 L 121.814 35.680 121.865 36.299 C 121.914 36.882,121.952 36.920,122.542 36.968 C 123.073 37.012,123.167 37.079,123.167 37.413 C 123.167 38.126,123.339 38.333,123.933 38.333 C 124.461 38.333,124.503 38.375,124.603 39.000 C 124.706 39.645,124.731 39.667,125.355 39.667 L 126.000 39.667 126.000 41.667 L 126.000 43.667 126.667 43.667 L 127.333 43.667 127.333 51.083 L 127.333 58.500 126.667 58.500 L 126.000 58.500 126.000 59.833 L 126.000 61.167 125.351 61.167 L 124.701 61.167 124.583 62.500 L 124.465 63.833 123.917 63.833 C 123.340 63.833,123.167 64.046,123.167 64.757 C 123.167 65.135,123.110 65.155,121.875 65.201 L 120.583 65.250 120.532 65.875 L 120.480 66.500 118.754 66.500 C 116.630 66.500,116.500 66.544,116.500 67.268 C 116.500 68.197,115.212 68.141,115.135 67.208 L 115.083 66.583 113.135 66.536 L 111.186 66.490 111.135 65.870 C 111.087 65.289,111.046 65.247,110.478 65.199 C 109.914 65.152,109.866 65.104,109.768 64.491 C 109.666 63.853,109.643 63.833,108.998 63.833 C 108.334 63.833,108.333 63.833,108.333 63.167 L 108.333 62.500 107.667 62.500 L 107.000 62.500 107.000 61.833 L 107.000 61.167 106.333 61.167 L 105.667 61.167 105.667 59.167 L 105.667 57.167 105.000 57.167 L 104.333 57.167 104.333 51.083 L 104.333 45.000 105.000 45.000 L 105.667 45.000 105.667 43.000 L 105.667 41.000 106.333 41.000 L 107.000 41.000 107.000 40.333 L 107.000 39.667 107.667 39.667 L 108.333 39.667 108.333 38.333 L 108.333 37.000 109.649 37.000 C 111.053 37.000,111.167 36.931,111.167 36.077 C 111.167 35.698,111.223 35.679,112.458 35.632 L 113.750 35.583 113.802 34.958 L 113.853 34.333 116.500 34.333 L 119.147 34.333 119.198 34.958 M198.698 34.958 L 198.750 35.583 200.032 35.632 L 201.314 35.680 201.365 36.299 C 201.414 36.880,201.453 36.920,202.032 36.968 C 202.610 37.016,202.651 37.056,202.699 37.634 C 202.747 38.213,202.787 38.253,203.368 38.301 L 203.986 38.353 204.035 39.635 L 204.083 40.917 204.701 40.968 L 205.320 41.019 205.368 42.301 L 205.417 43.583 206.042 43.635 L 206.667 43.687 206.667 51.083 L 206.667 58.480 206.042 58.532 L 205.417 58.583 205.368 59.865 L 205.320 61.147 204.701 61.199 L 204.083 61.250 204.035 62.532 L 203.986 63.814 203.368 63.865 C 202.786 63.914,202.747 63.953,202.699 64.535 L 202.647 65.153 201.365 65.201 L 200.083 65.250 200.032 65.870 L 199.980 66.490 198.032 66.536 L 196.083 66.583 196.032 67.208 C 195.961 68.061,194.667 68.211,194.667 67.367 C 194.667 66.590,194.429 66.500,192.383 66.500 L 190.500 66.500 190.500 65.833 L 190.500 65.167 189.167 65.167 L 187.833 65.167 187.833 63.833 L 187.833 62.500 187.167 62.500 L 186.500 62.500 186.500 61.833 L 186.500 61.167 185.833 61.167 L 185.167 61.167 185.167 59.167 L 185.167 57.167 184.500 57.167 L 183.833 57.167 183.833 50.417 L 183.833 43.667 184.500 43.667 L 185.167 43.667 185.167 42.333 L 185.167 41.000 185.833 41.000 L 186.500 41.000 186.500 39.667 L 186.500 38.333 187.167 38.333 L 187.833 38.333 187.833 37.667 L 187.833 37.000 188.500 37.000 L 189.167 37.000 189.167 36.333 L 189.167 35.667 190.500 35.667 L 191.833 35.667 191.833 35.000 L 191.833 34.333 195.240 34.333 L 198.647 34.333 198.698 34.958 M255.198 34.958 L 255.250 35.583 256.541 35.632 L 257.832 35.681 257.937 36.340 C 258.039 36.977,258.065 37.000,258.688 37.000 C 259.330 37.000,259.333 37.004,259.333 37.667 L 259.333 38.333 260.000 38.333 L 260.667 38.333 260.667 39.667 L 260.667 41.000 261.333 41.000 L 262.000 41.000 262.000 42.333 L 262.000 43.667 251.167 43.667 L 240.333 43.667 240.333 42.333 L 240.333 41.000 241.000 41.000 L 241.667 41.000 241.667 39.667 L 241.667 38.333 242.316 38.333 C 243.000 38.333,243.167 38.153,243.167 37.410 C 243.167 37.031,243.223 37.012,244.458 36.965 L 245.750 36.917 245.801 36.299 L 245.853 35.680 247.135 35.632 L 248.417 35.583 248.468 34.958 L 248.520 34.333 251.833 34.333 L 255.147 34.333 255.198 34.958 M310.888 60.129 C 310.781 60.197,310.642 60.457,310.580 60.705 L 310.466 61.156 308.525 61.203 L 306.583 61.250 306.500 61.833 C 306.425 62.359,306.359 62.422,305.835 62.472 C 305.176 62.534,305.006 62.718,305.003 63.375 C 305.000 63.768,304.932 63.833,304.520 63.833 C 303.842 63.833,303.690 64.105,303.633 65.424 L 303.583 66.583 303.059 66.634 C 302.375 66.701,302.338 66.862,302.336 69.864 C 302.333 72.731,302.442 73.167,303.163 73.167 L 303.667 73.167 303.667 74.236 C 303.667 75.619,303.750 75.803,304.433 75.931 C 304.848 76.009,305.000 76.124,305.000 76.363 C 305.000 77.001,305.316 77.333,305.923 77.333 C 306.454 77.333,306.500 77.373,306.500 77.837 C 306.500 78.610,306.876 78.667,311.997 78.667 C 317.243 78.667,317.167 78.678,317.167 77.899 C 317.167 77.363,317.197 77.333,317.755 77.333 C 318.165 77.333,318.375 77.245,318.447 77.042 C 318.602 76.604,319.038 76.146,319.448 75.989 C 319.718 75.886,319.826 75.686,319.864 75.216 C 319.913 74.633,319.962 74.577,320.500 74.500 L 321.083 74.417 321.128 69.877 L 321.172 65.338 320.503 65.231 C 319.882 65.132,319.833 65.085,319.833 64.587 C 319.833 63.229,319.102 62.500,317.740 62.500 C 317.221 62.500,317.184 62.461,317.135 61.875 L 317.083 61.250 315.627 61.202 C 314.383 61.161,314.146 61.107,313.997 60.829 C 313.636 60.154,311.578 59.691,310.888 60.129 " stroke="none" fill="#fcfcfc" fill-rule="evenodd"></path><path id="path1" d="M31.667 0.333 C 31.667 0.611,31.556 0.667,31.000 0.667 C 30.466 0.667,30.333 0.727,30.333 0.971 C 30.333 1.345,29.663 2.000,29.281 2.000 C 29.126 2.000,29.000 2.075,29.000 2.167 C 29.000 2.258,28.852 2.333,28.671 2.333 C 27.741 2.333,27.754 2.157,27.701 15.468 L 27.652 27.702 27.285 27.603 C 27.082 27.549,26.748 27.504,26.542 27.502 C 26.238 27.500,26.167 27.406,26.167 27.010 C 26.167 26.388,26.117 26.362,24.688 26.229 L 23.500 26.119 23.500 25.577 C 23.500 24.992,23.287 24.833,22.504 24.833 C 22.144 24.833,22.012 24.737,21.932 24.418 C 21.810 23.934,20.926 23.500,20.063 23.500 C 19.550 23.500,19.500 23.456,19.500 23.006 C 19.500 22.362,19.118 22.167,17.854 22.167 L 16.853 22.167 16.802 21.542 C 16.752 20.935,16.729 20.915,16.042 20.865 C 15.443 20.822,15.319 20.750,15.228 20.389 C 15.104 19.896,14.308 19.500,13.439 19.500 C 12.915 19.500,12.854 19.447,12.719 18.875 L 12.572 18.250 11.370 18.201 L 10.168 18.152 10.063 17.493 C 9.962 16.863,9.930 16.833,9.342 16.833 C 8.808 16.833,8.695 16.762,8.488 16.292 C 8.194 15.624,7.880 15.546,5.370 15.520 C 3.719 15.502,3.477 15.536,3.387 15.792 C 3.141 16.488,2.627 16.833,1.838 16.833 C 0.950 16.833,0.667 17.043,0.667 17.700 C 0.667 18.056,0.587 18.167,0.333 18.167 C 0.007 18.167,0.000 18.278,0.000 23.500 L 0.000 28.833 0.625 28.836 C 1.292 28.839,2.000 29.386,2.000 29.898 C 2.000 30.105,2.172 30.167,2.750 30.167 C 3.495 30.167,3.500 30.170,3.500 30.747 C 3.500 31.383,3.520 31.394,5.074 31.574 C 5.941 31.674,6.160 31.849,6.164 32.446 C 6.166 32.763,6.288 32.824,7.125 32.925 C 8.130 33.045,8.609 33.333,8.848 33.958 C 8.960 34.249,9.124 34.333,9.579 34.333 C 10.077 34.333,10.167 34.391,10.169 34.708 C 10.174 35.344,10.377 35.468,11.626 35.591 L 12.833 35.710 12.833 36.254 C 12.833 36.878,13.035 37.000,14.068 37.000 C 14.790 37.000,15.316 37.368,15.553 38.042 C 15.624 38.243,15.834 38.333,16.226 38.333 C 16.742 38.333,16.806 38.387,16.902 38.898 C 17.024 39.545,17.284 39.661,18.625 39.664 C 19.439 39.667,19.500 39.695,19.500 40.070 C 19.500 40.664,19.668 41.000,19.966 41.000 C 20.204 41.000,20.203 41.021,19.960 41.208 C 19.812 41.323,19.666 41.604,19.637 41.833 C 19.592 42.184,19.483 42.258,18.949 42.302 C 18.538 42.336,18.280 42.453,18.216 42.636 C 17.975 43.321,17.457 43.667,16.671 43.667 C 15.793 43.667,15.500 43.877,15.500 44.505 C 15.500 44.924,15.446 44.950,14.292 45.097 C 13.120 45.245,13.078 45.266,12.924 45.792 C 12.806 46.191,12.668 46.333,12.396 46.333 C 11.715 46.333,11.500 46.513,11.500 47.080 L 11.500 47.624 10.167 47.740 L 8.833 47.856 8.833 48.420 L 8.833 48.983 7.809 49.099 C 6.715 49.223,6.167 49.580,6.167 50.167 C 6.167 50.443,6.056 50.500,5.518 50.500 C 4.832 50.500,4.667 50.680,4.667 51.430 C 4.667 51.821,4.628 51.833,3.419 51.833 L 2.171 51.833 2.064 52.500 C 1.970 53.090,1.905 53.167,1.500 53.167 C 1.248 53.167,0.807 53.214,0.521 53.271 L 0.000 53.375 0.000 58.604 C 0.000 63.668,0.010 63.833,0.323 63.833 C 0.577 63.833,0.658 63.969,0.698 64.458 C 0.747 65.044,0.788 65.087,1.348 65.133 C 1.884 65.178,1.961 65.247,2.098 65.800 L 2.250 66.417 5.458 66.462 L 8.667 66.507 8.667 65.837 L 8.667 65.167 9.678 65.167 C 10.951 65.167,11.333 64.973,11.333 64.327 C 11.333 63.861,11.372 63.833,12.005 63.833 C 12.495 63.833,12.705 63.754,12.780 63.542 C 13.037 62.814,13.533 62.500,14.428 62.500 C 15.351 62.500,15.500 62.371,15.500 61.570 C 15.500 61.198,15.564 61.167,16.322 61.167 C 17.492 61.167,17.987 60.939,18.106 60.345 C 18.191 59.920,18.289 59.844,18.811 59.801 C 19.380 59.753,19.420 59.712,19.468 59.125 L 19.520 58.500 20.580 58.500 C 21.983 58.500,22.167 58.414,22.167 57.755 L 22.167 57.213 23.284 57.098 C 24.533 56.970,24.833 56.804,24.833 56.240 C 24.833 55.914,24.931 55.845,25.458 55.802 C 26.033 55.754,26.090 55.703,26.167 55.167 C 26.245 54.615,26.288 54.581,26.958 54.532 L 27.667 54.481 27.668 65.782 C 27.669 78.027,27.685 78.279,28.501 78.442 C 28.928 78.527,28.988 78.617,29.033 79.227 L 29.083 79.917 30.375 79.965 C 31.530 80.009,31.667 80.049,31.667 80.340 C 31.667 80.655,31.806 80.667,35.667 80.667 C 39.453 80.667,39.667 80.650,39.667 80.357 C 39.667 80.102,39.839 80.029,40.639 79.946 C 42.551 79.746,42.381 80.989,42.456 66.663 L 42.521 54.410 43.177 54.472 C 43.772 54.529,43.833 54.579,43.833 55.008 C 43.833 55.614,43.934 55.667,45.324 55.783 L 46.483 55.880 46.533 56.482 C 46.581 57.056,46.615 57.087,47.298 57.167 C 47.850 57.231,48.061 57.345,48.219 57.667 C 48.332 57.896,48.592 58.107,48.796 58.137 C 49.000 58.166,49.167 58.260,49.167 58.345 C 49.167 58.430,49.467 58.500,49.833 58.500 C 50.428 58.500,50.500 58.544,50.500 58.905 C 50.500 59.595,50.910 59.833,52.095 59.833 C 53.117 59.833,53.167 59.852,53.167 60.236 C 53.167 60.989,53.331 61.167,54.027 61.167 C 54.606 61.167,54.704 61.225,54.857 61.663 C 55.043 62.195,55.738 62.497,56.782 62.499 C 57.275 62.500,57.317 62.544,57.365 63.125 L 57.417 63.750 58.708 63.799 L 60.000 63.847 60.000 64.507 L 60.000 65.167 60.750 65.167 C 61.429 65.167,61.500 65.204,61.500 65.563 C 61.500 66.325,61.837 66.413,65.025 66.475 L 68.000 66.532 68.000 65.857 L 68.000 65.181 69.292 65.132 L 70.583 65.083 70.635 64.458 C 70.685 63.851,70.705 63.833,71.343 63.833 L 72.000 63.833 72.000 59.167 L 72.000 54.500 71.343 54.500 C 70.705 54.500,70.685 54.483,70.635 53.875 L 70.583 53.250 69.677 53.199 C 68.743 53.146,68.000 52.647,68.000 52.075 C 68.000 51.906,67.808 51.833,67.363 51.833 C 66.765 51.833,66.716 51.795,66.571 51.208 L 66.417 50.583 65.218 50.535 L 64.019 50.486 63.968 49.868 C 63.922 49.316,63.863 49.245,63.417 49.204 C 62.485 49.119,62.207 49.004,62.119 48.669 C 62.071 48.485,61.893 48.284,61.724 48.221 C 61.555 48.159,61.371 48.040,61.316 47.958 C 61.260 47.875,60.908 47.767,60.533 47.717 C 59.915 47.634,59.847 47.577,59.801 47.104 C 59.750 46.585,59.746 46.583,58.458 46.433 L 57.167 46.282 57.167 45.742 C 57.167 45.159,56.953 45.000,56.171 45.000 C 55.811 45.000,55.679 44.904,55.598 44.584 C 55.477 44.101,54.593 43.667,53.730 43.667 C 53.217 43.667,53.167 43.623,53.167 43.173 C 53.167 42.527,52.784 42.333,51.511 42.333 L 50.500 42.333 50.500 41.750 C 50.500 41.429,50.481 41.110,50.458 41.042 C 50.435 40.973,50.604 40.891,50.833 40.859 C 51.403 40.780,51.667 40.532,51.667 40.073 C 51.667 39.737,51.760 39.679,52.375 39.635 C 53.063 39.585,53.085 39.565,53.135 38.958 L 53.187 38.333 54.246 38.333 C 55.661 38.333,55.833 38.250,55.833 37.566 C 55.833 37.039,55.870 37.000,56.375 36.999 C 57.427 36.997,58.179 36.681,58.359 36.165 C 58.496 35.771,58.635 35.676,59.133 35.634 C 59.682 35.588,59.753 35.525,59.886 34.958 C 60.012 34.422,60.099 34.333,60.493 34.333 C 61.968 34.333,62.466 34.149,62.576 33.563 C 62.655 33.145,62.768 33.000,63.017 33.000 C 64.021 33.000,64.871 32.616,65.104 32.059 C 65.314 31.557,65.406 31.500,66.002 31.500 C 66.665 31.500,66.667 31.498,66.667 30.840 L 66.667 30.181 67.958 30.132 L 69.250 30.083 69.302 29.458 C 69.350 28.878,69.391 28.833,69.885 28.832 C 71.954 28.829,72.020 28.635,71.961 22.722 L 71.917 18.250 71.000 18.198 C 70.014 18.142,69.333 17.710,69.333 17.138 C 69.333 16.894,69.201 16.833,68.667 16.833 C 68.051 16.833,68.000 16.798,67.997 16.375 C 67.993 15.509,67.921 15.487,65.237 15.537 L 62.750 15.583 62.698 16.208 L 62.647 16.833 61.585 16.833 C 60.410 16.833,60.000 17.074,60.000 17.762 C 60.000 18.123,59.928 18.167,59.333 18.167 C 58.827 18.167,58.667 18.232,58.667 18.439 C 58.667 18.979,57.888 19.479,56.965 19.533 C 56.109 19.582,56.092 19.594,55.947 20.208 C 55.804 20.816,55.779 20.834,55.025 20.850 C 53.741 20.877,53.424 21.025,53.365 21.622 C 53.317 22.111,53.264 22.152,52.615 22.199 C 51.939 22.248,51.915 22.270,51.865 22.875 L 51.813 23.500 50.690 23.500 C 49.459 23.500,49.167 23.661,49.167 24.338 C 49.167 24.757,49.113 24.783,47.958 24.930 C 46.787 25.079,46.745 25.100,46.591 25.625 C 46.473 26.025,46.334 26.167,46.062 26.167 C 45.375 26.167,45.167 26.345,45.167 26.934 C 45.167 27.465,45.132 27.500,44.607 27.500 C 44.299 27.500,43.699 27.548,43.273 27.606 L 42.500 27.712 42.499 16.731 C 42.499 10.691,42.450 4.906,42.390 3.875 L 42.282 2.000 41.641 2.000 C 41.023 2.000,41.000 1.979,41.000 1.434 C 41.000 0.749,40.828 0.667,39.403 0.667 C 38.444 0.667,38.333 0.632,38.333 0.333 C 38.333 0.011,38.222 0.000,35.000 0.000 C 31.778 0.000,31.667 0.011,31.667 0.333 M311.396 23.755 C 310.621 24.096,310.611 24.164,310.537 29.810 C 310.456 35.960,310.490 36.303,311.262 37.158 C 311.576 37.506,311.833 37.867,311.833 37.961 C 311.833 38.302,312.484 38.333,319.514 38.333 L 326.667 38.333 326.667 58.413 L 326.667 78.494 327.042 78.585 C 327.248 78.635,331.126 78.655,335.659 78.630 L 343.902 78.583 344.018 78.167 C 344.081 77.938,344.141 68.881,344.150 58.042 L 344.167 38.333 348.143 38.333 L 352.118 38.333 352.271 38.875 C 352.387 39.283,352.557 39.456,352.962 39.576 L 353.500 39.736 353.500 41.274 C 353.500 43.222,353.654 43.667,354.329 43.667 L 354.833 43.667 354.836 45.292 C 354.839 47.466,354.902 47.667,355.585 47.667 L 356.131 47.667 356.192 49.612 C 356.237 51.019,356.314 51.577,356.472 51.629 C 357.312 51.910,357.504 52.357,357.652 54.377 C 357.803 56.429,357.916 56.734,358.590 56.903 C 358.994 57.005,359.000 57.033,359.000 58.816 C 359.000 60.747,359.046 60.866,359.875 61.064 L 360.333 61.173 360.333 62.970 C 360.333 64.921,360.430 65.167,361.195 65.167 L 361.656 65.167 361.703 67.125 L 361.750 69.083 362.375 69.135 L 363.000 69.187 363.000 71.177 L 363.000 73.167 363.403 73.167 C 364.306 73.167,364.333 73.227,364.333 75.261 L 364.333 77.154 365.070 77.912 L 365.806 78.669 375.111 78.626 L 384.417 78.583 384.465 77.201 C 384.513 75.839,384.523 75.810,385.174 75.160 L 385.833 74.500 385.833 72.924 C 385.833 71.283,386.186 70.500,386.924 70.500 C 387.123 70.500,387.167 70.140,387.167 68.510 L 387.167 66.520 387.792 66.468 L 388.417 66.417 388.464 64.468 L 388.510 62.520 389.130 62.468 L 389.750 62.417 389.797 60.458 L 389.844 58.500 390.297 58.497 C 391.097 58.493,391.152 58.361,391.203 56.327 L 391.250 54.417 391.833 54.333 C 392.475 54.242,392.601 53.771,392.649 51.302 C 392.667 50.359,392.669 50.354,393.208 50.302 C 393.822 50.243,393.956 49.755,393.985 47.458 C 393.999 46.389,394.020 46.333,394.396 46.333 C 395.045 46.333,395.197 45.952,395.292 44.085 L 395.381 42.330 395.898 42.197 C 396.506 42.039,396.642 41.551,396.657 39.458 C 396.666 38.212,396.681 38.167,397.063 38.167 C 397.712 38.167,397.863 37.786,397.959 35.906 C 398.044 34.233,398.070 34.132,398.449 33.988 C 399.049 33.760,399.333 32.881,399.333 31.255 C 399.333 29.944,399.359 29.833,399.667 29.833 C 399.988 29.833,400.000 29.722,400.000 26.667 L 400.000 23.500 392.329 23.500 L 384.658 23.500 384.506 23.900 C 384.423 24.120,384.087 24.504,383.760 24.753 L 383.167 25.206 383.167 27.175 C 383.167 29.090,383.156 29.145,382.792 29.197 C 382.103 29.295,381.834 30.182,381.834 32.356 L 381.833 34.296 381.268 34.402 C 380.546 34.538,380.505 34.701,380.502 37.458 C 380.500 39.578,380.486 39.667,380.156 39.667 C 379.218 39.667,379.167 39.812,379.167 42.491 L 379.167 44.971 378.500 45.083 L 377.833 45.196 377.833 47.233 L 377.833 49.271 377.333 49.640 C 377.058 49.844,376.833 50.120,376.833 50.255 C 376.833 50.390,376.758 50.500,376.667 50.500 C 376.564 50.500,376.500 51.302,376.500 52.572 L 376.500 54.645 376.046 54.697 C 375.337 54.779,375.176 55.321,375.136 57.750 C 375.109 59.337,375.084 59.561,375.042 58.588 C 375.011 57.858,374.932 57.220,374.867 57.172 C 374.803 57.123,374.669 56.933,374.570 56.750 C 374.471 56.567,374.229 56.344,374.033 56.254 C 373.700 56.102,373.673 55.953,373.630 54.004 L 373.583 51.917 372.963 51.865 L 372.342 51.814 372.296 49.199 L 372.250 46.583 371.625 46.532 L 371.000 46.480 371.000 44.146 C 371.000 41.581,370.909 41.246,370.168 41.084 L 369.667 40.974 369.666 39.112 C 369.665 36.717,369.483 36.022,368.824 35.890 L 368.333 35.792 368.333 33.807 C 368.333 32.069,368.297 31.810,368.042 31.716 C 367.166 31.393,367.012 30.954,366.963 28.628 L 366.917 26.429 366.298 26.283 L 365.680 26.137 365.632 24.860 L 365.583 23.583 338.750 23.555 C 316.332 23.531,311.831 23.564,311.396 23.755 M5.290 62.875 C 5.258 63.448,5.231 62.979,5.231 61.833 C 5.231 60.688,5.258 60.219,5.290 60.792 C 5.323 61.365,5.323 62.302,5.290 62.875 " stroke="none" fill="#f9c804" fill-rule="evenodd"></path><path id="path2" d="" stroke="none" fill="#f8dc100" fill-rule="evenodd"></path><path id="path3" d="" stroke="none" fill="#f8dc100" fill-rule="evenodd"></path><path id="path4" d="" stroke="none" fill="#f8dc100" fill-rule="evenodd"></path></g></svg>