<?xml version="1.0" encoding="UTF-8" standalone="no"?>
<svg
   width="792.77002"
   height="132.37"
   viewBox="0 0 792.77002 132.37"
   version="1.1"
   id="svg1997"
   sodipodi:docname="Bibel TV HD.svg"
   inkscape:version="1.1.1 (3bf5ae0d25, 2021-09-20)"
   xmlns:inkscape="http://www.inkscape.org/namespaces/inkscape"
   xmlns:sodipodi="http://sodipodi.sourceforge.net/DTD/sodipodi-0.dtd"
   xmlns="http://www.w3.org/2000/svg"
   xmlns:svg="http://www.w3.org/2000/svg">
  <defs
     id="defs2001" />
  <sodipodi:namedview
     id="namedview1999"
     pagecolor="#ffffff"
     bordercolor="#666666"
     borderopacity="1.0"
     inkscape:pageshadow="2"
     inkscape:pageopacity="0.0"
     inkscape:pagecheckerboard="0"
     showgrid="false"
     inkscape:zoom="1.1760417"
     inkscape:cx="391.56775"
     inkscape:cy="98.210803"
     inkscape:window-width="1920"
     inkscape:window-height="1017"
     inkscape:window-x="-8"
     inkscape:window-y="-8"
     inkscape:window-maximized="1"
     inkscape:current-layer="svg1997" />
  <path
     d="m 136.77,119.56 h 21.64 v -10.58 h 0.36 c 5,9.14 15.06,12.83 27.24,12.83 16.5,0 34.29,-13.3 34.29,-43.75 0,-30.29 -17.79,-43.59 -34.29,-43.59 -10.26,0 -20.52,3.84 -26.12,12.34 h -0.33 V 5.14 h -22.79 z m 60.74,-41.34 c 0,13.78 -5.93,26.44 -19.39,26.44 -13.46,0 -19.35,-12.66 -19.35,-26.44 0,-13.95 5.92,-26.61 19.39,-26.61 13.47,0 19.39,12.66 19.39,26.61 z"
     fill="#005689"
     fill-rule="evenodd"
     id="path1961"
     style="fill:#ffffff" />
  <path
     d="m 225.77,119.56 h 22.76 V 37.62 H 225.77 Z M 248.53,5.14 h -22.76 v 18.75 h 22.76 z"
     fill="#005689"
     fill-rule="evenodd"
     id="path1963"
     style="fill:#ffffff" />
  <path
     d="m 258.41,119.56 h 21.63 v -10.58 h 0.32 c 5,9.14 15.06,12.83 27.24,12.83 16.5,0 34.3,-13.3 34.3,-43.75 0,-30.29 -17.8,-43.59 -34.3,-43.59 -10.25,0 -20.51,3.84 -26.12,12.34 h -0.32 V 5.14 h -22.75 z m 60.73,-41.34 c 0,13.78 -5.93,26.44 -19.39,26.44 -13.46,0 -19.39,-12.66 -19.39,-26.44 0,-13.95 5.93,-26.61 19.39,-26.61 13.46,0 19.39,12.66 19.39,26.61 z"
     fill="#005689"
     fill-rule="evenodd"
     id="path1965"
     style="fill:#ffffff" />
  <path
     d="m 426.82,83.67 c 1.6,-25.48 -12,-49.2 -40.22,-49.2 -25.16,0 -42.31,18.91 -42.31,43.75 0,25.64 16.19,43.59 42.31,43.59 18.74,0 32.37,-8.34 38.78,-27.89 h -20 c -1.43,5.13 -8.8,10.74 -17.95,10.74 -12.65,0 -19.7,-6.57 -20.34,-21 z M 367.05,69.24 c 0.32,-6.41 4.48,-17.63 18.9,-17.63 11.06,0 16,6.09 18.12,17.63 z"
     fill="#005689"
     fill-rule="evenodd"
     id="path1967"
     style="fill:#ffffff" />
  <polygon
     points="542.29,176.77 519.54,176.77 519.54,291.19 542.29,291.19 "
     fill="#005689"
     id="polygon1969"
     transform="translate(-88.23,-171.63)"
     style="fill:#ffffff" />
  <polygon
     points="567.72,227.56 592.18,227.56 592.18,291.19 613.55,291.19 613.55,227.56 638.01,227.56 638.01,209.18 567.72,209.18 "
     fill="#f7a600"
     id="polygon1971"
     transform="translate(-88.23,-171.63)" />
  <polygon
     points="663.63,270.17 663.41,270.17 647.33,209.18 625.04,209.18 650.88,291.19 675.46,291.19 702,209.18 679.71,209.18 "
     fill="#f7a600"
     id="polygon1973"
     transform="translate(-88.23,-171.63)" />
  <path
     d="m 466.53,107.25 a 12.32,12.32 0 1 1 12.32,12.31 12.33,12.33 0 0 1 -12.32,-12.31 z"
     fill="#005689"
     id="path1975"
     style="fill:#ffffff" />
  <polygon
     points="196.61,212.57 196.61,202.34 151.26,229.63 159.75,234.8 "
     fill="#f7a600"
     id="polygon1977"
     transform="translate(-88.23,-171.63)" />
  <polygon
     points="151.26,291.2 151.26,250.51 142.46,245.21 142.46,295.51 "
     fill="#ffe500"
     id="polygon1979"
     transform="translate(-88.23,-171.63)" />
  <polygon
     points="96.6,272.81 133.65,250.51 133.65,291.2 142.46,295.51 142.46,245.21 188.31,272.81 188.31,262.51 142.46,234.93 96.6,262.51 "
     fill="#f7a600"
     id="polygon1981"
     transform="translate(-88.23,-171.63)" />
  <polygon
     points="96.52,196.92 88.3,202.34 133.65,229.61 133.65,219.26 133.65,219.25 "
     fill="#ffe500"
     id="polygon1983"
     transform="translate(-88.23,-171.63)" />
  <polygon
     points="196.61,202.34 188.39,196.92 151.26,219.25 151.26,176.77 142.46,171.63 133.65,176.77 142.46,181.27 142.46,234.93 188.3,262.52 188.31,262.51 188.31,272.81 196.68,267.41 196.68,257.28 151.26,229.63 "
     fill="#ffe500"
     id="polygon1985"
     transform="translate(-88.23,-171.63)" />
  <polygon
     points="142.45,234.93 142.46,234.93 142.46,181.27 133.65,176.77 133.65,229.61 "
     fill="#f7a600"
     id="polygon1987"
     transform="translate(-88.23,-171.63)" />
  <polygon
     points="88.23,257.28 88.23,257.28 88.23,267.41 96.6,272.81 96.6,262.51 96.61,262.52 142.46,234.93 133.64,229.6 "
     fill="#ffe500"
     id="polygon1989"
     transform="translate(-88.23,-171.63)" />
  <polygon
     points="88.3,212.57 125.14,234.79 133.64,229.6 88.3,202.34 "
     fill="#f7a600"
     id="polygon1991"
     transform="translate(-88.23,-171.63)" />
  <polygon
     points="748.74,290.19 748.74,257.56 773.58,257.56 773.58,290.19 794.34,290.19 794.34,211.99 773.58,211.99 773.58,242.1 748.74,242.1 748.74,211.99 727.97,211.99 727.97,290.19 "
     fill="#005689"
     id="polygon1993"
     transform="translate(-92.48155,-175.03124)"
     style="fill:#ffffff" />
  <path
     d="m 740.55861,36.968757 h -24.876 v 78.200003 h 25.99557 c 24.93493,0 42.09182,-12.56 42.09182,-39.46 0,-26.9 -17.15689,-38.740003 -43.21139,-38.740003 z m -1.11956,63.940003 h -3.36853 v -49.7 h 3.36853 c 13.98477,0 23.5011,5.81 23.5011,24.49 0,18.68 -9.55561,25.2 -23.54038,25.2 z"
     fill="#005689"
     id="path1995"
     style="fill:#ffffff;stroke-width:0.991002" />
</svg>
