<?xml version="1.0" encoding="UTF-8"?>
<!DOCTYPE svg PUBLIC "-//W3C//DTD SVG 1.1//EN" "http://www.w3.org/Graphics/SVG/1.1/DTD/svg11.dtd">
<svg xmlns="http://www.w3.org/2000/svg" version="1.1" width="181px" height="95px" style="shape-rendering:geometricPrecision; text-rendering:geometricPrecision; image-rendering:optimizeQuality; fill-rule:evenodd; clip-rule:evenodd" xmlns:xlink="http://www.w3.org/1999/xlink">
<g><path style="opacity:1" fill="#f2f2f2" d="M 137.5,-0.5 C 142.167,-0.5 146.833,-0.5 151.5,-0.5C 166.833,3.5 176.5,13.1667 180.5,28.5C 180.5,32.8333 180.5,37.1667 180.5,41.5C 174.101,62.7013 159.768,72.2013 137.5,70C 133.586,69.0407 129.919,67.5407 126.5,65.5C 125.807,84.861 115.807,94.1943 96.5,93.5C 87.9969,94.1695 80.4969,91.8362 74,86.5C 72.0073,84.1825 70.8406,81.5158 70.5,78.5C 62.8333,78.5 55.1667,78.5 47.5,78.5C 47.719,77.325 47.3857,76.325 46.5,75.5C 42.7127,77.9288 38.546,79.2621 34,79.5C 23.1865,78.6079 12.3532,78.2745 1.5,78.5C 1.5,56.5 1.5,34.5 1.5,12.5C 10.8333,12.5 20.1667,12.5 29.5,12.5C 29.1744,16.8839 29.5078,21.2172 30.5,25.5C 36.2791,23.9785 41.6124,24.9785 46.5,28.5C 44.9178,17.822 48.9178,10.322 58.5,6C 67.1786,4.35775 73.3453,7.52441 77,15.5C 77.1725,19.8711 77.6725,24.2044 78.5,28.5C 86.3598,24.279 94.6932,23.279 103.5,25.5C 105.833,25.1667 108.167,24.8333 110.5,24.5C 115.378,11.6191 124.378,3.28573 137.5,-0.5 Z"/></g>
<g><path style="opacity:1" fill="#535154" d="M 150.5,2.5 C 145.13,2.39212 139.797,2.72546 134.5,3.5C 137.356,1.99421 140.523,1.32755 144,1.5C 146.361,1.50393 148.527,1.83726 150.5,2.5 Z"/></g>
<g><path style="opacity:1" fill="#1f1a1d" d="M 150.5,2.5 C 159.007,4.03655 166.007,8.03655 171.5,14.5C 169.167,15.1667 166.833,15.8333 164.5,16.5C 162.6,20.6326 160.433,24.6326 158,28.5C 155.567,24.6326 153.4,20.6326 151.5,16.5C 148.713,15.5233 145.713,15.19 142.5,15.5C 142.172,26.3464 142.506,37.0131 143.5,47.5C 145.833,47.5 148.167,47.5 150.5,47.5C 151.167,43.1667 151.833,38.8333 152.5,34.5C 155.599,42.0566 159.266,42.3899 163.5,35.5C 164.167,39.5 164.833,43.5 165.5,47.5C 167.833,47.5 170.167,47.5 172.5,47.5C 173.167,38.1667 173.833,28.8333 174.5,19.5C 180.068,30.9946 179.568,42.3279 173,53.5C 162.069,67.0276 148.236,71.1942 131.5,66C 128.397,64.5606 125.564,62.7272 123,60.5C 124.895,71.3229 121.729,80.1562 113.5,87C 103.374,90.7293 93.0403,91.396 82.5,89C 77.0198,86.0291 73.6864,81.5291 72.5,75.5C 65.1667,75.5 57.8333,75.5 50.5,75.5C 50.8076,73.076 50.4742,70.7427 49.5,68.5C 46.5304,71.9876 42.8637,74.4876 38.5,76C 26.8511,75.7678 15.1844,75.6011 3.5,75.5C 3.5,55.1667 3.5,34.8333 3.5,14.5C 11.5,14.5 19.5,14.5 27.5,14.5C 27.1734,19.2137 27.5067,23.8804 28.5,28.5C 29.1067,28.3764 29.44,28.0431 29.5,27.5C 37.6258,26.9295 44.4592,29.5962 50,35.5C 50.3607,32.4748 50.8607,29.4748 51.5,26.5C 48.8008,12.3658 54.4675,6.86577 68.5,10C 71,11.1667 72.8333,13 74,15.5C 74.2488,20.0466 74.4155,24.38 74.5,28.5C 74.1924,30.924 74.5258,33.2573 75.5,35.5C 76.1067,35.3764 76.44,35.0431 76.5,34.5C 78.7244,31.376 81.7244,29.2094 85.5,28C 94.488,28.0403 103.488,28.207 112.5,28.5C 112.249,24.6689 113.416,21.3356 116,18.5C 116.499,23.4889 116.666,28.4889 116.5,33.5C 112.167,33.5 107.833,33.5 103.5,33.5C 104.187,39.5988 102.854,40.0988 99.5,35C 85.3593,29.6376 77.3593,34.4709 75.5,49.5C 75.4339,57.2004 78.4339,63.3671 84.5,68C 91.0141,70.3875 96.8474,69.2208 102,64.5C 104.261,73.225 101.094,77.0583 92.5,76C 91.8333,75 91.1667,74 90.5,73C 85.8024,72.6489 81.1358,72.1489 76.5,71.5C 76.3781,78.0915 79.3781,82.5915 85.5,85C 91.5,85.6667 97.5,85.6667 103.5,85C 110.132,84.3639 114.298,80.8639 116,74.5C 116.5,65.5062 116.666,56.5062 116.5,47.5C 119.167,47.5 121.833,47.5 124.5,47.5C 124.5,43.5 124.5,39.5 124.5,35.5C 128.5,35.5 132.5,35.5 136.5,35.5C 136.5,33.1667 136.5,30.8333 136.5,28.5C 132.5,28.5 128.5,28.5 124.5,28.5C 124.5,26.8333 124.5,25.1667 124.5,23.5C 129.167,23.5 133.833,23.5 138.5,23.5C 138.5,20.8333 138.5,18.1667 138.5,15.5C 131.646,15.824 124.979,15.4907 118.5,14.5C 122.757,9.23837 128.091,5.5717 134.5,3.5C 139.797,2.72546 145.13,2.39212 150.5,2.5 Z"/></g>
<g><path style="opacity:1" fill="#e57b02" d="M 57.5,13.5 C 66.7911,11.7017 70.6244,15.3684 69,24.5C 65.2951,28.982 60.9618,29.6487 56,26.5C 53.6385,21.7295 54.1385,17.3962 57.5,13.5 Z"/></g>
<g><path style="opacity:1" fill="#949395" d="M 27.5,14.5 C 28.1667,18.8333 28.8333,23.1667 29.5,27.5C 29.44,28.0431 29.1067,28.3764 28.5,28.5C 27.5067,23.8804 27.1734,19.2137 27.5,14.5 Z"/></g>
<g><path style="opacity:1" fill="#979698" d="M 118.5,14.5 C 124.979,15.4907 131.646,15.824 138.5,15.5C 138.5,18.1667 138.5,20.8333 138.5,23.5C 133.833,23.5 129.167,23.5 124.5,23.5C 128.634,22.5151 132.968,22.1818 137.5,22.5C 137.5,20.5 137.5,18.5 137.5,16.5C 130.8,16.83 124.134,16.4967 117.5,15.5C 117.624,14.8933 117.957,14.56 118.5,14.5 Z"/></g>
<g><path style="opacity:1" fill="#9c9b9d" d="M 171.5,14.5 C 172.043,14.56 172.376,14.8933 172.5,15.5C 169.914,16.48 167.247,16.8134 164.5,16.5C 166.833,15.8333 169.167,15.1667 171.5,14.5 Z"/></g>
<g><path style="opacity:1" fill="#636164" d="M 151.5,16.5 C 148.833,16.5 146.167,16.5 143.5,16.5C 143.5,26.8333 143.5,37.1667 143.5,47.5C 142.506,37.0131 142.172,26.3464 142.5,15.5C 145.713,15.19 148.713,15.5233 151.5,16.5 Z"/></g>
<g><path style="opacity:1" fill="#787679" d="M 174.5,19.5 C 173.833,28.8333 173.167,38.1667 172.5,47.5C 172.334,37.4944 172.5,27.4944 173,17.5C 173.717,18.0442 174.217,18.7109 174.5,19.5 Z"/></g>
<g><path style="opacity:1" fill="#ba670a" d="M 8.5,19.5 C 8.5,36.1667 8.5,52.8333 8.5,69.5C 12.5,69.5 16.5,69.5 20.5,69.5C 20.238,68.0222 20.5713,66.6888 21.5,65.5C 22.1067,65.6236 22.44,65.9569 22.5,66.5C 21.5655,67.5676 21.2322,68.901 21.5,70.5C 16.8333,70.5 12.1667,70.5 7.5,70.5C 7.17008,53.3251 7.50341,36.3251 8.5,19.5 Z"/></g>
<g><path style="opacity:1" fill="#ea7d01" d="M 8.5,19.5 C 12.8333,19.5 17.1667,19.5 21.5,19.5C 21.1712,25.2055 21.5046,30.8722 22.5,36.5C 23.1067,36.3764 23.44,36.0431 23.5,35.5C 34.2082,30.0132 42.3748,32.6798 48,43.5C 50.3021,53.2662 48.1355,61.7662 41.5,69C 34.3688,72.9849 28.0355,72.1516 22.5,66.5C 22.44,65.9569 22.1067,65.6236 21.5,65.5C 20.5713,66.6888 20.238,68.0222 20.5,69.5C 16.5,69.5 12.5,69.5 8.5,69.5C 8.5,52.8333 8.5,36.1667 8.5,19.5 Z"/></g>
<g><path style="opacity:1" fill="#995810" d="M 21.5,19.5 C 22.1667,24.8333 22.8333,30.1667 23.5,35.5C 23.44,36.0431 23.1067,36.3764 22.5,36.5C 21.5046,30.8722 21.1712,25.2055 21.5,19.5 Z"/></g>
<g><path style="opacity:1" fill="#a2a2a3" d="M 74.5,28.5 C 75.1667,30.5 75.8333,32.5 76.5,34.5C 76.44,35.0431 76.1067,35.3764 75.5,35.5C 74.5258,33.2573 74.1924,30.924 74.5,28.5 Z"/></g>
<g><path style="opacity:1" fill="#e87c01" d="M 116.5,33.5 C 116.5,38.1667 116.5,42.8333 116.5,47.5C 116.666,56.5062 116.5,65.5062 116,74.5C 114.298,80.8639 110.132,84.3639 103.5,85C 97.5,85.6667 91.5,85.6667 85.5,85C 79.3781,82.5915 76.3781,78.0915 76.5,71.5C 81.1358,72.1489 85.8024,72.6489 90.5,73C 91.1667,74 91.8333,75 92.5,76C 101.094,77.0583 104.261,73.225 102,64.5C 96.8474,69.2208 91.0141,70.3875 84.5,68C 78.4339,63.3671 75.4339,57.2004 75.5,49.5C 77.3593,34.4709 85.3593,29.6376 99.5,35C 102.854,40.0988 104.187,39.5988 103.5,33.5C 107.833,33.5 112.167,33.5 116.5,33.5 Z"/></g>
<g><path style="opacity:1" fill="#e37a03" d="M 54.5,33.5 C 59.5,33.5 64.5,33.5 69.5,33.5C 69.5,45.8333 69.5,58.1667 69.5,70.5C 64.5,70.5 59.5,70.5 54.5,70.5C 54.5,58.1667 54.5,45.8333 54.5,33.5 Z"/></g>
<g><path style="opacity:1" fill="#7a787a" d="M 165.5,47.5 C 164.833,43.5 164.167,39.5 163.5,35.5C 163.369,34.6236 163.702,33.9569 164.5,33.5C 165.493,38.1196 165.827,42.7863 165.5,47.5 Z"/></g>
<g><path style="opacity:1" fill="#9d9c9d" d="M 152.5,34.5 C 151.833,38.8333 151.167,43.1667 150.5,47.5C 150.173,42.7863 150.507,38.1196 151.5,33.5C 152.107,33.6236 152.44,33.9569 152.5,34.5 Z"/></g>
<g><path style="opacity:1" fill="#211b1d" d="M 24.5,43.5 C 33.1303,43.6279 35.9637,47.9612 33,56.5C 30.4512,60.9255 27.1179,61.5921 23,58.5C 20.6323,53.1224 21.1323,48.1224 24.5,43.5 Z"/></g>
<g><path style="opacity:1" fill="#221b1b" d="M 92.5,43.5 C 100.748,42.6317 103.915,46.2983 102,54.5C 99.1685,60.2005 95.5018,60.8672 91,56.5C 89.9784,51.8711 90.4784,47.5377 92.5,43.5 Z"/></g>
<g><path style="opacity:1" fill="#abaaac" d="M 95.5,48.5 C 96.5,48.5 97.5,48.5 98.5,48.5C 98.9492,50.9775 98.2825,52.9775 96.5,54.5C 95.5344,52.604 95.2011,50.604 95.5,48.5 Z"/></g>
<g><path style="opacity:1" fill="#c6c5c6" d="M 27.5,48.5 C 28.7251,49.1522 29.3917,50.3189 29.5,52C 29.1667,53.1667 28.8333,54.3333 28.5,55.5C 27.5258,53.2573 27.1924,50.924 27.5,48.5 Z"/></g>
</svg>
