<?xml version="1.0" encoding="UTF-8" standalone="no"?>
<svg
   width="433.44998"
   height="339.00195"
   viewBox="0 0 433.44998 339.00195"
   version="1.1"
   id="svg30"
   sodipodi:docname="Bild HD.svg"
   inkscape:version="1.1.1 (3bf5ae0d25, 2021-09-20)"
   xmlns:inkscape="http://www.inkscape.org/namespaces/inkscape"
   xmlns:sodipodi="http://sodipodi.sourceforge.net/DTD/sodipodi-0.dtd"
   xmlns="http://www.w3.org/2000/svg"
   xmlns:svg="http://www.w3.org/2000/svg">
  <defs
     id="defs34" />
  <sodipodi:namedview
     id="namedview32"
     pagecolor="#ffffff"
     bordercolor="#666666"
     borderopacity="1.0"
     inkscape:pageshadow="2"
     inkscape:pageopacity="0.0"
     inkscape:pagecheckerboard="0"
     showgrid="false"
     inkscape:zoom="1.1760417"
     inkscape:cx="170.062"
     inkscape:cy="178.13995"
     inkscape:window-width="1920"
     inkscape:window-height="1017"
     inkscape:window-x="-8"
     inkscape:window-y="-8"
     inkscape:window-maximized="1"
     inkscape:current-layer="svg30" />
  <rect
     x="0"
     y="0"
     width="338"
     height="338"
     fill="#dd0000"
     id="rect4" />
  <polygon
     points="518.08,393.89 485.3,393.89 485.3,127.95 518.08,127.95 "
     fill="#ffffff"
     fill-rule="evenodd"
     id="polygon6"
     transform="translate(-309.35001,-92)" />
  <path
     d="M 100.56999,36 H 35.879994 v 265.8 h 64.629996 a 14.31,14.31 0 0 0 14.31,-14.34 V 172.11 A 15.11,15.11 0 0 0 99.729994,157.05 h 1.429996 a 13.63,13.63 0 0 0 13.66,-13.58 V 50.3 A 14.3,14.3 0 0 0 100.56999,36 Z M 82.109994,269 h -13.46 v -91.91 h 13.46 z m 0,-124.37 h -13.46 V 68.78 h 13.46 v 75.76 z"
     fill="#ffffff"
     id="path8" />
  <rect
     x="68.649994"
     y="68.779999"
     width="13.46"
     height="75.760002"
     fill="none"
     id="rect10" />
  <rect
     x="68.649994"
     y="177.09"
     width="13.46"
     height="91.809998"
     fill="none"
     id="rect12" />
  <path
     d="m 269.00999,35.94 v 46.28 h -31.91 a 14.32,14.32 0 0 0 -14.17,14.35 v 190.88 a 14.31,14.31 0 0 0 14.31,14.34 l 64.59,0.09 V 35.94 Z m 0,233 h -13.46 V 114.72 h 13.45 v 154.19 z"
     fill="#ffffff"
     id="path14" />
  <rect
     x="255.55997"
     y="114.72"
     width="13.45"
     height="154.19"
     fill="none"
     id="rect16" />
  <polygon
     points="471.11,160.78 438.32,160.78 438.32,127.95 471.11,127.95 "
     fill="#ffffff"
     fill-rule="evenodd"
     id="polygon18"
     transform="translate(-309.35001,-92)" />
  <polygon
     points="471.11,393.89 438.32,393.89 438.32,174.24 471.11,174.24 "
     fill="#ffffff"
     fill-rule="evenodd"
     id="polygon20"
     transform="translate(-309.35001,-92)" />
  <g
     style="isolation:isolate"
     id="g28"
     transform="translate(-309.35001,-92)">
    <g
       style="isolation:isolate"
       id="g26">
      <path
         d="m 677.33,387.79 v 16.68 h 13.79 v -16.68 h 9.28 v 42.83 h -9.28 v -17.93 h -13.79 v 17.93 h -9.28 v -42.83 z"
         id="path22" />
      <path
         d="m 708.53,388.39 a 70.52,70.52 0 0 1 11.68,-0.89 c 7.31,0 12.15,1.43 15.85,4.36 4.21,3.32 6.74,8.67 6.74,16.46 0,8.35 -2.75,14.16 -6.75,17.59 -4,3.43 -10.12,5.09 -17.76,5.09 a 72.24,72.24 0 0 1 -9.76,-0.59 z m 9.26,35.15 a 17.26,17.26 0 0 0 2.81,0.15 c 7.35,0.05 12.43,-4.52 12.43,-15.23 0,-8.87 -4.32,-13.75 -11.66,-13.75 a 16,16 0 0 0 -3.58,0.32 z"
         id="path24" />
    </g>
  </g>
  <path
     style="opacity:0.9;fill:#ffffff;stroke-width:0.85031"
     d="m 358.83082,317.16563 v -21.25775 h 4.67671 4.6767 v 8.07795 8.07794 h 6.80248 6.80248 v -8.07794 -8.07795 h 4.67671 4.6767 v 21.25775 21.25775 h -4.6767 -4.67671 v -8.92825 -8.92826 h -6.80248 -6.80248 v 8.92826 8.92825 h -4.6767 -4.67671 z"
     id="path1046" />
  <path
     style="opacity:0.9;fill:#ffffff;stroke-width:0.85031"
     d="m 401.54417,338.70924 -2.77824,-0.3958 0.22731,-20.9902 0.22731,-20.9902 9.6398,-0.24112 c 8.71144,-0.21789 10.07713,-0.0409 14.18073,1.83779 8.03574,3.67888 11.8002,12.68428 9.87773,23.62967 -1.92119,10.93804 -8.98335,16.50683 -21.79392,17.18536 -3.74136,0.19816 -8.05269,0.18219 -9.58072,-0.0355 z m 15.57937,-8.44285 c 3.86959,-1.83624 6.33084,-7.04443 6.33084,-13.39653 0,-9.15234 -4.35527,-14.45112 -11.47918,-13.96597 l -3.40124,0.23163 -0.23314,14.24269 -0.23314,14.24269 h 3.08072 c 1.69439,0 4.36521,-0.60953 5.93514,-1.35451 z"
     id="path1085" />
</svg>
