<svg width="1000" height="312.294" xmlns="http://www.w3.org/2000/svg"><g style="fill:#000"><g style="font-size:25.04999924px;font-style:normal;font-weight:700;text-align:start;text-anchor:start;fill:#000;font-family:Helvetica Black"><path d="M9.594 17.662c.958-.028 1.735.054 2.333.248.597.193.905.67.923 1.43-.015.661-.26 1.106-.732 1.335-.473.228-1.08.335-1.823.319h-2.58v-3.332zm.2-6.287c.649-.028 1.206.034 1.672.188.467.153.711.567.733 1.24-.01.526-.202.92-.573 1.183-.37.263-.856.395-1.456.395H7.715v-3.006zm.802 13.827c2.373.026 4.253-.376 5.64-1.205 1.386-.83 2.095-2.24 2.125-4.23-.003-.996-.26-1.867-.77-2.612-.51-.745-1.255-1.252-2.236-1.522.603-.365 1.14-.88 1.61-1.543.47-.664.719-1.46.745-2.39-.05-1.755-.758-2.959-2.123-3.61-1.365-.65-3.087-.958-5.166-.923H1.804v18.035zM24.317 25.202V7.167h-5.21v18.035zM32.49 15.208c.663-.016 1.184.285 1.562.901.377.617.57 1.419.577 2.405-.006 1.233-.2 2.136-.583 2.709-.383.572-.918.855-1.605.848-.654.007-1.18-.276-1.577-.848-.396-.573-.6-1.476-.61-2.709a4.836 4.836 0 0 1 .47-2.207c.33-.688.918-1.054 1.766-1.1zm-7.292 3.582c.047 2.244.743 3.936 2.09 5.075 1.347 1.14 3.065 1.71 5.153 1.713 2.089.006 3.806-.57 5.153-1.728 1.347-1.159 2.044-2.937 2.09-5.336-.021-2.07-.67-3.716-1.947-4.938-1.276-1.221-3.05-1.847-5.32-1.875-2.183.01-3.924.622-5.223 1.835-1.299 1.212-1.964 2.964-1.996 5.254zM47.598 15.208c.657-.016 1.172.285 1.546.901.374.617.565 1.419.572 2.405-.006 1.233-.199 2.136-.578 2.709-.379.572-.908.855-1.588.848-.648.007-1.168-.276-1.56-.848-.393-.573-.594-1.476-.605-2.709-.014-.784.14-1.52.466-2.207.325-.688.908-1.054 1.747-1.1zm-7.217 3.582c.046 2.244.736 3.936 2.069 5.075 1.333 1.14 3.033 1.71 5.1 1.713 2.067.006 3.768-.57 5.1-1.728 1.334-1.159 2.024-2.937 2.07-5.336-.022-2.07-.664-3.716-1.928-4.938-1.263-1.221-3.019-1.847-5.266-1.875-2.16.01-3.884.622-5.17 1.835-1.285 1.212-1.944 2.964-1.975 5.254zM55.593 25.202h5.058v-6.487c-.019-.812.092-1.494.332-2.045.24-.552.72-.839 1.444-.861.656-.008 1.107.202 1.352.63.246.427.363 1.119.35 2.075v6.688h5.058v-6.487c-.018-.812.092-1.494.332-2.045.24-.552.72-.839 1.444-.861.656-.008 1.107.202 1.353.63.245.427.362 1.119.35 2.075v6.688h5.058v-7.765c.029-1.806-.321-3.21-1.05-4.211-.727-1.002-2.007-1.51-3.839-1.525-.934.001-1.765.205-2.492.61-.728.406-1.364 1.004-1.91 1.794a3.747 3.747 0 0 0-1.45-1.728c-.67-.438-1.573-.664-2.708-.676-.927.034-1.749.297-2.466.789-.717.491-1.24 1.005-1.571 1.54v-1.954h-4.645zM84.187 7.167h-5.093v18.035h4.578V23.35h.05c.309.64.78 1.169 1.41 1.584.631.416 1.475.63 2.531.645 2.073-.05 3.564-.733 4.471-2.05.907-1.319 1.351-2.973 1.331-4.964-.027-2.017-.547-3.656-1.56-4.916-1.013-1.26-2.354-1.909-4.022-1.947-.755-.005-1.435.13-2.04.4-.606.272-1.158.706-1.656 1.303zm2.032 14.654c-.819-.045-1.386-.4-1.702-1.065a4.654 4.654 0 0 1-.453-2.117 3.81 3.81 0 0 1 .499-1.96c.34-.594.891-.909 1.656-.945.807.037 1.371.363 1.692.977.32.613.475 1.29.462 2.029a4.377 4.377 0 0 1-.453 2.076c-.316.63-.883.966-1.701 1.005zM99.02 17.161c.003-.708.203-1.264.6-1.665.396-.402.965-.607 1.706-.614.601.02 1.112.25 1.531.689.42.44.64.97.657 1.59zm9.441 2.656c.015-2.42-.62-4.368-1.905-5.843-1.285-1.475-3.092-2.233-5.42-2.273-2.042.025-3.72.663-5.03 1.916-1.311 1.252-1.99 2.968-2.034 5.148.046 2.212.728 3.899 2.046 5.06 1.318 1.16 2.998 1.745 5.042 1.753a8.984 8.984 0 0 0 4.216-.945c1.307-.654 2.2-1.783 2.681-3.388h-4.733c-.184.387-.44.676-.767.867-.327.19-.69.285-1.088.285a2.411 2.411 0 0 1-1.715-.708c-.47-.461-.714-1.085-.735-1.872zM109.469 25.202h5.051v-5.33c0-1.397.255-2.39.764-2.977.51-.587 1.27-.872 2.28-.855.168.003.508-.002.682.032.173.035.709.09.876.118v-4.203c-.107-.044-.618-.087-.725-.09-.133-.005-.345.01-.452.009-.96-.003-1.752.246-2.378.745-.627.499-1.11 1.056-1.451 2.08h-.048v-2.414h-4.6zM126.14 15.433c.798.027 1.452.317 1.777.87.326.554.483 1.207.472 1.96.008.732-.155 1.367-.49 1.908-.335.54-.983.806-1.759.798-.684-.036-1.19-.302-1.52-.798-.328-.497-.492-1.082-.49-1.757-.012-.871.13-1.584.426-2.139.297-.554.825-.835 1.584-.842zm-6.728 9.722c.103 1.002 1.204 2.597 2.26 3.338 1.055.742 2.706 1.131 4.953 1.168 2.074-.014 3.387-.328 4.355-.944.969-.616 1.586-1.45 1.852-2.503.266-1.053.382-2.242.349-3.567v-10.4h-4.72v1.558c-.462-.647-.81-.987-1.488-1.36-.677-.375-1.369-.583-2.15-.591-2.083.076-3.381.782-4.264 2.12-.882 1.337-1.31 2.698-1.286 4.39.01 1.727.497 3.182 1.46 4.365.964 1.182 2.34 1.798 4.127 1.847.912-.012 1.662-.156 2.252-.432.59-.276.83-.607 1.19-.996v1.077c.007 1.038-.284 1.312-.608 1.705-.325.393-.748.44-1.477.429-.257-.001-.7-.019-.883-.076a1.791 1.791 0 0 1-.546-.322c-.11-.103-.36-.338-.412-.44-.051-.102-.168-.288-.167-.366z" style="font-size:25.04999924px;font-style:normal;font-weight:700;text-align:start;text-anchor:start;fill:#fff;font-family:Helvetica Black" transform="matrix(7.61135 0 0 8.23727 -13.728 -59.011)"/></g><g style="font-size:25.04999924px;font-style:normal;font-weight:700;text-align:start;text-anchor:start;fill:#000;font-family:Helvetica Black"><path d="M.777 42.474h5.31v13.781H12v-13.78h5.31V38.22H.777z" style="font-size:25.04999924px;font-style:normal;font-weight:700;text-align:start;text-anchor:start;fill:#fff;font-family:Helvetica Black" transform="matrix(7.356 0 0 8.27675 -4.542 -156.45)"/><path d="M19.727 48.214c.004-.708.206-1.264.608-1.665.4-.402.976-.607 1.726-.614.608.02 1.125.25 1.55.689.424.44.646.97.664 1.59zm9.554 2.656c.014-2.42-.628-4.368-1.928-5.843-1.3-1.475-3.128-2.233-5.484-2.273-2.067.025-3.763.663-5.09 1.916-1.327 1.252-2.013 2.968-2.058 5.148.046 2.212.736 3.899 2.07 5.06 1.334 1.16 3.034 1.745 5.102 1.753a9.18 9.18 0 0 0 4.265-.946c1.323-.653 2.227-1.782 2.714-3.388h-4.79c-.186.388-.444.677-.775.868-.331.19-.698.285-1.101.285-.683-.01-1.261-.247-1.736-.708-.475-.461-.723-1.085-.743-1.872zM35.738 56.255V38.22h-5.005v18.035zM42.105 48.389c.004-.694.213-1.238.626-1.631.413-.394 1.005-.594 1.778-.601.626.02 1.158.244 1.595.674.437.43.665.95.684 1.558zm9.838 2.6c.015-2.37-.647-4.277-1.986-5.721-1.338-1.445-3.22-2.187-5.646-2.227-2.128.025-3.875.65-5.241 1.877-1.366 1.227-2.072 2.907-2.119 5.041.048 2.167.758 3.818 2.131 4.955 1.373 1.137 3.124 1.709 5.253 1.717 1.567.023 3.03-.286 4.392-.926 1.362-.64 2.294-1.746 2.794-3.318h-4.93c-.193.38-.46.663-.8.85-.34.186-.718.28-1.134.279-.702-.01-1.298-.241-1.787-.693-.489-.452-.744-1.063-.765-1.834zM55.659 56.263h6.08l4.564-12.86H61.49l-2.552 8.107-2.52-8.106h-5.14zM71.98 56.263v-12.86h-4.967v12.86zm-4.967-13.927h4.968v-3.632h-4.968zM73.065 52.263c.199 1.696.926 2.856 2.18 3.482 1.256.625 2.639.92 4.15.886 2.303-.02 4.394-.434 5.507-1.242 1.113-.809 1.558-1.867 1.552-3.225-.041-1.179-.348-2.076-1.136-2.645-.789-.568-1.701-.971-2.738-1.21-1.038-.239-2.447-.454-3.235-.645-.788-.19-1.394-.498-1.436-.923.005-.317.134-.548.386-.693.251-.145.596-.217 1.034-.215.194 0 .855.025 1.028.077a1.306 1.306 0 0 1 .782.635c.082.152.135.332.16.54h4.548c-.216-1.661-.952-2.762-2.208-3.304-1.256-.541-2.606-.79-4.049-.745-.9-.009-2.167.114-3.076.37-.91.255-1.673.692-2.29 1.313-.618.62-.94 1.475-.965 2.562.04 1.219.443 2.104 1.207 2.656.765.551 2.012.931 3.018 1.139 1.006.208 1.891.405 2.656.591.764.187 1.167.525 1.207 1.013-.018.445-.187.751-.506.917-.318.166-.851.245-1.254.237a2.19 2.19 0 0 1-.677-.105 1.785 1.785 0 0 1-.55-.288c-.17-.135-.3-.3-.392-.497a1.615 1.615 0 0 1-.138-.681zM101.266 46.471c.672-.015 1.2.28 1.582.884.382.604.577 1.39.584 2.356-.006 1.208-.203 2.092-.59 2.653-.388.561-.93.838-1.625.831-.663.007-1.195-.27-1.596-.83-.402-.562-.608-1.446-.619-2.654a4.61 4.61 0 0 1 .477-2.163c.333-.673.929-1.032 1.787-1.077zm-7.382 3.51c.047 2.199.752 3.856 2.116 4.972 1.364 1.116 3.103 1.676 5.217 1.678 2.115.006 3.854-.558 5.217-1.693 1.364-1.135 2.07-2.878 2.117-5.227-.022-2.028-.68-3.641-1.972-4.838-1.293-1.197-3.088-1.81-5.386-1.837-2.21.01-3.973.61-5.288 1.797-1.315 1.188-1.989 2.904-2.021 5.148zM109.57 56.263h5.005v-6.552c-.015-.83.118-1.477.397-1.942.28-.465.989-.701 1.744-.709.694.02 1.393.262 1.64.724.246.462.361 1.023.345 1.681v6.798h5.082v-7.706c.004-1.776-.395-3.138-1.197-4.086-.802-.948-2.031-1.426-3.688-1.435-.938.002-1.86.206-2.533.61a6.458 6.458 0 0 0-1.917 1.77v-2.012h-4.878zM92.522 56.263v-12.86h-4.967v12.86zm-4.967-13.927h4.967v-3.632h-4.967z" style="font-size:25.04999924px;font-style:normal;font-weight:700;text-align:start;text-anchor:start;fill:#fff;font-family:Helvetica Black" transform="matrix(7.356 0 0 8.27675 -4.542 -156.45)"/></g></g></svg>