<?xml version="1.0" encoding="UTF-8"?>
<!DOCTYPE svg PUBLIC "-//W3C//DTD SVG 1.1//EN" "http://www.w3.org/Graphics/SVG/1.1/DTD/svg11.dtd">
<svg xmlns="http://www.w3.org/2000/svg" version="1.1" width="1088px" height="129px" style="shape-rendering:geometricPrecision; text-rendering:geometricPrecision; image-rendering:optimizeQuality; fill-rule:evenodd; clip-rule:evenodd" xmlns:xlink="http://www.w3.org/1999/xlink">
<g><path style="opacity:1" fill="#fefffe" d="M 8.5,11.5 C 23.837,11.3334 39.1703,11.5001 54.5,12C 74.1412,15.1094 81.3079,26.2761 76,45.5C 73.9936,48.6717 71.4936,51.3383 68.5,53.5C 77.1819,58.1804 81.8485,65.5137 82.5,75.5C 81.9848,89.1593 75.3181,97.9926 62.5,102C 44.5031,102.5 26.5031,102.667 8.5,102.5C 8.5,72.1667 8.5,41.8333 8.5,11.5 Z M 32.5,31.5 C 38.1764,31.3339 43.8431,31.5006 49.5,32C 54.7679,34.8034 56.2679,38.97 54,44.5C 53.0975,45.7014 51.9308,46.5348 50.5,47C 44.5,47.6667 38.5,47.6667 32.5,47C 31.1904,41.8338 31.1904,36.6671 32.5,31.5 Z M 33.5,63.5 C 39.5092,63.3338 45.5092,63.5005 51.5,64C 58.4816,67.2131 60.315,72.3797 57,79.5C 55.6811,81.4875 53.8477,82.6541 51.5,83C 45.1405,83.8306 38.8072,83.6639 32.5,82.5C 31.3791,76.8862 31.2124,71.2195 32,65.5C 32.7172,64.9558 33.2172,64.2891 33.5,63.5 Z"/></g>
<g><path style="opacity:1" fill="#fefffe" d="M 88.5,11.5 C 95.2257,11.2049 101.892,11.5383 108.5,12.5C 109.5,42.4926 109.833,72.4926 109.5,102.5C 101.833,102.5 94.1667,102.5 86.5,102.5C 85.8532,71.9425 86.5198,41.6092 88.5,11.5 Z"/></g>
<g><path style="opacity:1" fill="#fefffe" d="M 360.5,11.5 C 367.09,11.189 373.59,11.5223 380,12.5C 380.024,22.9922 380.691,33.3256 382,43.5C 388.537,36.9577 396.371,34.791 405.5,37C 414.322,40.106 419.822,46.2726 422,55.5C 423.505,64.113 423.839,72.7797 423,81.5C 419.767,99.198 409.267,106.698 391.5,104C 387.148,102.477 383.481,99.9772 380.5,96.5C 379.534,98.396 379.201,100.396 379.5,102.5C 372.578,102.812 365.744,102.479 359,101.5C 358.333,72.1667 358.333,42.8333 359,13.5C 359.717,12.9558 360.217,12.2891 360.5,11.5 Z M 389.5,52.5 C 394.456,52.6188 397.956,54.9521 400,59.5C 402.22,67.2993 401.887,74.9659 399,82.5C 393.667,89.1667 388.333,89.1667 383,82.5C 378.492,74.1829 378.492,65.8496 383,57.5C 384.805,55.1743 386.972,53.5077 389.5,52.5 Z"/></g>
<g><path style="opacity:1" fill="#fefffe" d="M 624.5,11.5 C 647.836,11.3334 671.169,11.5 694.5,12C 695.833,19 695.833,26 694.5,33C 686.841,33.4997 679.174,33.6664 671.5,33.5C 671.5,56.5 671.5,79.5 671.5,102.5C 663.5,102.5 655.5,102.5 647.5,102.5C 647.667,79.8309 647.5,57.1642 647,34.5C 639.253,33.5183 631.42,33.185 623.5,33.5C 623.203,26.0796 623.536,18.7463 624.5,11.5 Z"/></g>
<g><path style="opacity:1" fill="#fefffe" d="M 702.5,11.5 C 710.174,11.3336 717.841,11.5003 725.5,12C 731.244,29.5754 736.41,47.4087 741,65.5C 741.419,66.6721 742.085,67.6721 743,68.5C 748.071,49.7898 753.238,31.1232 758.5,12.5C 766.03,11.1797 773.53,11.1797 781,12.5C 773.241,42.2896 764.741,71.9563 755.5,101.5C 746.19,102.498 736.857,102.832 727.5,102.5C 719.307,72.7336 710.64,43.067 701.5,13.5C 701.863,12.8165 702.196,12.1499 702.5,11.5 Z"/></g>
<g><path style="opacity:1" fill="#fa831d" d="M 891.5,12.5 C 956.5,12.5 1021.5,12.5 1086.5,12.5C 1086.5,42.1667 1086.5,71.8333 1086.5,101.5C 1021.5,101.5 956.5,101.5 891.5,101.5C 891.5,71.8333 891.5,42.1667 891.5,12.5 Z"/></g>
<g><path style="opacity:1" fill="#fefffe" d="M 811.5,24.5 C 817.425,24.1918 823.259,24.5251 829,25.5C 829.033,33.3324 829.7,40.9991 831,48.5C 837.667,47.1667 844.333,47.1667 851,48.5C 851.499,54.4908 851.666,60.4908 851.5,66.5C 844.492,66.3337 837.492,66.5004 830.5,67C 829.685,74.0867 829.185,81.2534 829,88.5C 823,89.8333 817,89.8333 811,88.5C 810.815,81.2534 810.315,74.0867 809.5,67C 802.508,66.5004 795.508,66.3337 788.5,66.5C 788.19,60.2424 788.524,54.0758 789.5,48C 796.492,47.5004 803.492,47.3337 810.5,47.5C 810.201,39.747 810.534,32.0804 811.5,24.5 Z"/></g>
<g><path style="opacity:1" fill="#fff8f2" d="M 909.5,26.5 C 913.106,26.2108 916.606,26.5442 920,27.5C 920.141,42.8646 920.808,58.1979 922,73.5C 923.695,77.8629 926.862,79.5296 931.5,78.5C 936.589,79.2381 940.089,77.2381 942,72.5C 942.333,57.8333 942.667,43.1667 943,28.5C 944.648,26.9716 946.648,26.3049 949,26.5C 951.352,26.3049 953.352,26.9716 955,28.5C 955.667,43.5 955.667,58.5 955,73.5C 953.67,80.3305 949.837,85.1639 943.5,88C 933.673,90.7772 924.339,89.7772 915.5,85C 913.3,82.7664 911.467,80.2664 910,77.5C 908.876,68.7383 908.376,59.9049 908.5,51C 908.515,42.7578 908.848,34.5911 909.5,26.5 Z"/></g>
<g><path style="opacity:1" fill="#fff8f3" d="M 976.5,49.5 C 979.768,50.8222 983.435,51.4888 987.5,51.5C 991.349,51.4987 995.016,51.1654 998.5,50.5C 999.301,42.9119 999.801,35.2452 1000,27.5C 1003.67,26.1667 1007.33,26.1667 1011,27.5C 1011.67,47.5 1011.67,67.5 1011,87.5C 1007.33,88.8333 1003.67,88.8333 1000,87.5C 999.667,79.1667 999.333,70.8333 999,62.5C 991.667,61.1667 984.333,61.1667 977,62.5C 976.667,70.8333 976.333,79.1667 976,87.5C 974.262,88.1271 972.429,88.4604 970.5,88.5C 967.989,88.712 965.822,88.0454 964,86.5C 963.333,67.1667 963.333,47.8333 964,28.5C 965.822,26.9546 967.989,26.288 970.5,26.5C 972.429,26.5396 974.262,26.8729 976,27.5C 976.5,34.8258 976.666,42.1591 976.5,49.5 Z"/></g>
<g><path style="opacity:1" fill="#fff9f4" d="M 1022.5,26.5 C 1032.57,26.1048 1042.57,26.6048 1052.5,28C 1062.44,32.28 1068.28,39.78 1070,50.5C 1072.43,63.6549 1068.93,74.8216 1059.5,84C 1056.38,85.893 1053.05,87.2264 1049.5,88C 1040.5,88.6667 1031.5,88.6667 1022.5,88C 1022,87.5 1021.5,87 1021,86.5C 1020.33,67.1667 1020.33,47.8333 1021,28.5C 1021.72,27.9558 1022.22,27.2891 1022.5,26.5 Z"/></g>
<g><path style="opacity:1" fill="#fefffe" d="M 457.5,35.5 C 473.324,35.3204 483.824,42.6537 489,57.5C 490.763,63.4013 491.429,69.4013 491,75.5C 477.246,76.4899 463.412,76.8233 449.5,76.5C 450.292,85.79 455.292,89.6233 464.5,88C 466.833,87 468.5,85.3333 469.5,83C 476.669,82.042 483.669,82.3753 490.5,84C 483.304,100.602 470.638,107.269 452.5,104C 438.834,100.332 430.668,91.4984 428,77.5C 424.995,54.0622 434.829,40.0622 457.5,35.5 Z M 458.5,51.5 C 465.525,52.4867 468.858,56.32 468.5,63C 462.251,63.8087 456.084,63.642 450,62.5C 450.014,56.6527 452.847,52.9861 458.5,51.5 Z"/></g>
<g><path style="opacity:1" fill="#fefffe" d="M 139.5,36.5 C 152.69,34.3593 163.856,38.026 173,47.5C 181.66,62.8884 181.66,78.2217 173,93.5C 163.641,103.617 152.141,107.117 138.5,104C 126.768,101.268 119.268,94.1011 116,82.5C 110.528,59.9533 118.361,44.6199 139.5,36.5 Z M 143.5,52.5 C 152.132,51.6234 156.632,55.6234 157,64.5C 157.717,70.2247 157.384,75.8913 156,81.5C 152.341,90.2281 147.008,91.5614 140,85.5C 135.392,75.4902 135.392,65.4902 140,55.5C 141.145,54.3636 142.312,53.3636 143.5,52.5 Z"/></g>
<g><path style="opacity:1" fill="#fefffe" d="M 208.5,36.5 C 239.005,36.1816 251.839,51.1816 247,81.5C 240.167,100.509 226.667,108.009 206.5,104C 191.007,99.0337 183.007,88.3671 182.5,72C 182.583,53.6009 191.249,41.7676 208.5,36.5 Z M 211.5,52.5 C 218.778,51.2718 223.278,54.2718 225,61.5C 225.884,68.5817 225.551,75.5817 224,82.5C 220.183,90.2088 215.183,91.2088 209,85.5C 205.737,78.5133 204.737,71.18 206,63.5C 206.787,59.2586 208.621,55.5919 211.5,52.5 Z"/></g>
<g><path style="opacity:1" fill="#fefffe" d="M 287.5,36.5 C 292.599,36.1746 297.599,36.6746 302.5,38C 306.006,40.3405 309.006,43.1738 311.5,46.5C 318.918,36.5572 328.585,33.7239 340.5,38C 346.403,41.9159 349.903,47.4159 351,54.5C 351.5,70.4965 351.667,86.4965 351.5,102.5C 344.167,102.5 336.833,102.5 329.5,102.5C 329.667,88.496 329.5,74.496 329,60.5C 324.833,54.241 320.167,53.9077 315,59.5C 314.667,60.8333 314.333,62.1667 314,63.5C 313.5,76.4957 313.333,89.4957 313.5,102.5C 306.167,102.5 298.833,102.5 291.5,102.5C 291.667,88.8293 291.5,75.1626 291,61.5C 289.542,55.9411 286.042,54.1077 280.5,56C 278.383,57.7309 276.883,59.8976 276,62.5C 275.5,75.8292 275.333,89.1625 275.5,102.5C 268.167,102.5 260.833,102.5 253.5,102.5C 253.333,81.1641 253.5,59.8307 254,38.5C 259.872,37.5189 266.038,37.3522 272.5,38C 274.166,40.4797 274.999,43.313 275,46.5C 278.512,42.1341 282.679,38.8008 287.5,36.5 Z"/></g>
<g><path style="opacity:1" fill="#fefffe" d="M 533.5,36.5 C 535.262,36.3573 536.929,36.6906 538.5,37.5C 539.496,43.7985 539.83,50.1318 539.5,56.5C 530.41,55.0164 523.91,58.3498 520,66.5C 518.562,78.4242 518.062,90.4242 518.5,102.5C 511.245,102.813 504.079,102.48 497,101.5C 496.333,80.5 496.333,59.5 497,38.5C 503.517,37.6273 509.517,37.294 515,37.5C 515.414,37.9574 515.914,38.2907 516.5,38.5C 517.167,41.5 517.833,44.5 518.5,47.5C 522.201,41.7634 527.201,38.0967 533.5,36.5 Z"/></g>
<g><path style="opacity:1" fill="#fefffe" d="M 560.5,36.5 C 569.113,35.1472 576.446,37.4806 582.5,43.5C 583.01,40.8477 584.343,38.8477 586.5,37.5C 592.617,38.0586 598.451,38.3919 604,38.5C 604.956,60.5507 604.623,82.5507 603,104.5C 598.353,118.844 588.353,125.511 573,124.5C 559.736,125.374 550.069,120.041 544,108.5C 543.506,106.866 543.34,105.199 543.5,103.5C 550.175,103.334 556.842,103.5 563.5,104C 568.074,108.697 573.407,109.697 579.5,107C 582.56,102.937 583.227,98.4372 581.5,93.5C 568.907,102.423 557.407,101.09 547,89.5C 540.546,77.164 539.879,64.4973 545,51.5C 548.106,44.2253 553.272,39.2253 560.5,36.5 Z M 571.5,53.5 C 579.967,54.7115 583.967,59.7115 583.5,68.5C 583.756,78.415 579.089,82.915 569.5,82C 565.181,78.5291 563.181,74.0291 563.5,68.5C 563.19,61.6647 565.856,56.6647 571.5,53.5 Z"/></g>
<g><path style="opacity:1" fill="#fa831e" d="M 1034.5,37.5 C 1043.79,35.7545 1050.95,38.7545 1056,46.5C 1058.28,54.9775 1057.95,63.3108 1055,71.5C 1049,77.2018 1042,78.8685 1034,76.5C 1033.19,63.4247 1033.35,50.4247 1034.5,37.5 Z"/></g>
<g><path style="opacity:1" fill="#fcd3b0" d="M 976.5,49.5 C 983.746,50.464 991.08,50.7973 998.5,50.5C 995.016,51.1654 991.349,51.4987 987.5,51.5C 983.435,51.4888 979.768,50.8222 976.5,49.5 Z"/></g>
</svg>
