<svg xmlns="http://www.w3.org/2000/svg" width="1000" height="759.338">
<g style="fill:none;fill-rule:evenodd;stroke:none;stroke-width:1">
<path d="M31.12 23.321c1.095-.6 1.059-1.385-.162-2.1l-2.92-1.708a.662.662 0 0 1-.199-.09c-.334-.213-.624-.24-.845-.203l-2.755 1.53c-.098.14-.168.359.132.552.002 0 .002.002.004.003l3.107 1.83c1.212.715 2.63.74 3.639.187m2.61-7.135c.004.002.005.005.008.007l2.58 1.491c1.274.737 2.59.825 3.703.214 1.115-.612.95-1.334-.335-2.071L37.201 14.4a.908.908 0 0 1-.107-.057c-.459-.292-.834-.234-1.06-.14l-.206.114-.033.026-.006-.005-2.061 1.144.003.009s-.487.383 0 .696M9.68 17.516l20.714-12.05c1.56-.77 2.85-.627 3.74-.297l1.406.796 15.02 8.506c5.273 2.987 5.817 6.088.97 8.692-2.887 1.55-6.202 1.613-8.712.929 1.522 1.804 1.523 4.597-1.53 6.235-4.647 2.492-10.144 2.136-15.146-.85L9.16 19.684c-1.393-1.162.52-2.168.52-2.168zM33.334 38.24l32.628-18.984v.023l.038-.023L32.911.153.038 19.257l32.878 18.982.21.12zm32.053-8.532h-.06v-.328l-.08.328h-.054l-.08-.328v.328h-.06v-.395h.098l.07.293h.001l.068-.293h.097zm-.37-.342h-.093v.342h-.063v-.342h-.094v-.053h.25zm-2.806 2.216c-1.484.887-3.024.008-3.032-2.7-.008-2.72 1.149-4.92 2.685-5.89 1.176-.748 2.792-1.42 2.702.229-.02.36-.188.676-.405.932-.233.272-.527.428-.85.55a2.792 2.792 0 0 0-1.415 1.222c-.352.6-.414 1.299-.416 1.54-.002.334.1 1.512 1.033.941.11-.068.211-.143.312-.231a1.42 1.42 0 0 0 .466-.904l-.4.246c-.464.287-.456-.5-.456-.54.009-.876.43-1.139.452-1.153l1.616-1.013c.025-.015.49-.31.473.554-.056 2.925-.8 5.027-2.765 6.217zm-4.583 2.69c-.22.128-.406.082-.633-.177l-1.465-1.87.005 1.609c0 .075.005 1.696-1.061 2.312-1.057.61-1.061-1.012-1.061-1.087l-.016-5.292c0-.062-.004-1.684 1.052-2.293.333-.193.621-.095.804.127l1.448 1.8-.004-1.51c0-.062-.152-1.684.906-2.295 1.073-.619 1.07 1.007 1.07 1.07l.014 5.296c0 .075.005 1.696-1.059 2.31zm-5.654 3.277c-.367.212-.709.095-.888-.269l-.207-.534-2.175 1.256-.282 1.003c-.179.57-.516 1.08-.884 1.292-.536.31-1.312.138-1.314-.793-.001-.275.048-.566.183-.982l2.228-6.912c.098-.296.337-.976 1-1.359.67-.387 1.045-.037 1.145.146l2.18 4.179c.144.281.207.572.208.861.003.905-.604 1.771-1.194 2.112zm-6.05 1.28v.616c0 .075-.004 1.614-1.309 2.367-1.293.747-1.08-1.004-1.08-1.078l-.004-1.145c-.002-.652-.16-.7-.308-.615l-.66.473.005 1.973c0 .076-.024 1.588-1.29 2.319-1.248.72-1.298-.748-1.298-.825l-.015-5.29c0-.063-.014-1.679 1.492-2.548l2.387-1.41c1.775-1.024 2.268-.327 2.272 1.093.001.59-.08 1.519-1.069 2.492.881-.093.873.521.876 1.578zm-7.533 6.6-2.99 1.726c-1.449.836-1.443-.791-1.443-.866l-.015-5.166c0-.062-.014-1.678 1.508-2.557l2.916-1.684c.086-.05 1.066-.603 1.07.692.004 1.33-1.015 1.919-1.063 1.946l-1.804 1.042.003.755 1.869-1.08c.327-.189.702-.203.703.462.003.716-.37 1.12-.698 1.31l-1.87 1.079.002.742 1.804-1.041c.087-.05 1.067-.603 1.07.691.004 1.333-1.014 1.92-1.062 1.948zm-6.226.905c-.003.571-.226 1.237-.844 1.237-.207 0-.447-.076-.714-.225-.936-.525-1.045-1.86-1.045-2.817l.009-1.468-1.005.694c-.195.158-.397.191-.574.087a.874.874 0 0 1-.35-.368l-1.309-2.152-.006.86c0 .708-.185 1.908-.88 1.908a.74.74 0 0 1-.37-.113c-1.262-.737-1.288-2.103-1.267-2.503l.032-5.305c0-.127.029-1.234.842-1.234.208 0 .45.079.716.234.54.314.906.912 1.075 1.24l1.643 3.056 1.49-1.167c.302-.243.747-.249 1.174-.001 1.382.803 1.415 2.403 1.415 2.583zm-12.467-5.468c-1.91-1.154-3.584-3.744-3.568-6.597.016-2.801 1.623-3.555 3.618-2.35 2.053 1.242 3.677 3.889 3.661 6.69-.015 2.714-1.658 3.498-3.711 2.257zm-7.495-4.199c-1.91-1.154-3.72-3.807-3.703-6.66.016-2.801 1.759-3.492 3.753-2.286 2.051 1.24 3.596 3.895 3.58 6.696-.015 2.714-1.579 3.49-3.63 2.25zm-4.018-5.08c-.009 1.42-.788 1.95-2.694.842l-2.576-1.507c-1.618-.94-1.6-2.556-1.599-2.619l.03-5.177c0-.062 0-1.689 1.62-.748l2.575 1.507c1.906 1.108 2.674 2.538 2.665 3.958-.003.616-.098 1.48-1.192 1.185 1.09.976 1.174 1.943 1.17 2.56zm25.149 6.653-.207.12-.21-.121L0 19.257v11.909l33.089 19.103 32.873-19.103V19.278zM19.68 34.986c-.65-.322-.908.175-.847.939.06.752.443 1.553 1.073 1.865.631.312.91-.163.849-.915-.062-.764-.415-1.563-1.075-1.89m-14.8-6.324-.775-.451-.008 1.269.745.433c.406.236.567.003.569-.275.002-.364-.174-.769-.532-.976m45.685 6.531-.619-1.988-.701 2.712zM4.868 25.616l-.745-.433-.007 1.268.775.451c.357.208.537.01.539-.354a1.12 1.12 0 0 0-.562-.932M43.32 35.91l-.977.62.004 1.452.7-.427.306-.208c.332-.192.498-.59.497-.954 0-.278-.15-.702-.53-.483m-31.433-5.174c-.668-.283-.896.227-.79.986.105.748.533 1.526 1.181 1.801.647.275.899-.215.793-.963-.106-.758-.506-1.536-1.184-1.824" style="fill:#ffffff" transform="matrix(15.15151 0 0 15.15151 0 -2.315)"/>
</g></svg>