<?xml version="1.0" encoding="UTF-8" standalone="no"?>
<!-- Created with Inkscape (http://www.inkscape.org/) -->

<svg
   version="1.1"
   width="69"
   height="36"
   id="svg2"
   sodipodi:docname="BR Fernsehen Nord HD.svg"
   inkscape:version="1.1.1 (3bf5ae0d25, 2021-09-20)"
   xmlns:inkscape="http://www.inkscape.org/namespaces/inkscape"
   xmlns:sodipodi="http://sodipodi.sourceforge.net/DTD/sodipodi-0.dtd"
   xmlns="http://www.w3.org/2000/svg"
   xmlns:svg="http://www.w3.org/2000/svg"
   xmlns:rdf="http://www.w3.org/1999/02/22-rdf-syntax-ns#"
   xmlns:cc="http://creativecommons.org/ns#"
   xmlns:dc="http://purl.org/dc/elements/1.1/">
  <sodipodi:namedview
     id="namedview8"
     pagecolor="#ffffff"
     bordercolor="#666666"
     borderopacity="1.0"
     inkscape:pageshadow="2"
     inkscape:pageopacity="0.0"
     inkscape:pagecheckerboard="0"
     showgrid="false"
     inkscape:zoom="16.362319"
     inkscape:cx="34.469442"
     inkscape:cy="17.998671"
     inkscape:window-width="1920"
     inkscape:window-height="1017"
     inkscape:window-x="-8"
     inkscape:window-y="-8"
     inkscape:window-maximized="1"
     inkscape:current-layer="svg2" />
  <metadata
     id="metadata8">
    <rdf:RDF>
      <cc:Work
         rdf:about="">
        <dc:format>image/svg+xml</dc:format>
        <dc:type
           rdf:resource="http://purl.org/dc/dcmitype/StillImage" />
        <dc:title />
      </cc:Work>
    </rdf:RDF>
  </metadata>
  <defs
     id="defs6" />
  <g
     transform="translate(0.315658,-0.08550122)"
     id="g2984">
    <path
       d="m 32.718897,18.583771 c 4.063403,-1.40501 6.970906,-4.64474 6.970906,-9.4564406 0,-1.205034 -0.610332,-4.131166 -2.825637,-6.018527 -1.459935,-1.244051 -3.571211,-2.71628697 -10.386658,-2.88078097 -1.409308,-0.03448 -5.694083,0.118138 -5.694083,0.118138 l 0,0.246325 c 1.210031,0.92416697 2.511,2.45585797 3.136693,4.22156897 0.651129,-0.02141 1.636732,-0.07378 2.610521,-0.02141 2.736964,0.145832 3.928616,0.657656 5.161862,1.627171 1.24051,0.973789 1.907759,2.646274 1.8997,4.1638966 -0.0079,2.070475 -0.990678,4.210229 -3.979765,5.428359 -2.41882,0.98632 -5.343941,1.20321 -5.343941,1.20321 l -0.0021,0.75437 c 0,0 1.751567,0.83876 3.501923,3.15359 1.508027,1.99216 10.260733,14.87676 10.260733,14.87676 l 7.231295,0 c 0,0 -11.685886,-16.27895 -12.541528,-17.41624 z m -23.1299309,12.44457 -4.0492963,0 0,-26.2656756 c 0.056674,0 1.8171031,-0.02243 2.9135507,-0.02243 4.5210545,0 7.0277865,2.337998 7.0980805,5.5467236 0.04358,1.947824 -0.533995,3.816542 -2.520871,5.191102 -1.621861,1.12414 -3.8815019,1.4591 -3.8815019,1.4591 l 0,0.84586 c 0,0 3.1324189,0.4665 4.7228009,1.21027 2.961916,1.38262 3.841471,3.53121 3.861902,6.30897 0.03299,4.39236 -4.207465,5.72601 -8.1446649,5.72601 z M 0,0.33507643 0,35.999911 l 7.9139434,0 c 10.3894376,0 15.8817446,-3.82816 15.8817446,-11.07283 0,-4.31299 -2.708505,-7.16628 -6.971879,-8.15621 2.777757,-1.64378 4.561853,-4.060111 4.561853,-7.6605396 0,-3.850298 -2.285324,-8.93932997 -11.8563939,-8.93932997 -4.0293843,0 -8.4453996,0.1302 -9.5292681,0.16397 z"
       id="path10"
       style="fill:#0086cb;fill-rule:evenodd;stroke:none" />
    <path
       d="m 62.704296,0.38438143 c -0.625427,10e-6 -1.266895,0.0096 -1.926429,0.03014 -0.648165,0.0103 -1.274619,0.02546 -1.877297,0.04601 l 0,10.38083457 c 0.284282,0.01029 0.495157,0.01588 0.631615,0.01588 1.125754,0.04113 2.013386,0.06187 2.661551,0.06187 1.921743,0 3.382875,-0.541908 4.520014,-1.4879346 1.148487,-0.946023 1.654924,-2.224894 1.654934,-3.972991 -1e-5,-0.904887 -0.06792,-1.681234 -0.340827,-2.329062 -0.261547,-0.647814 -0.580047,-1.171235 -1.091745,-1.572278 -0.500346,-0.401022 -1.110041,-0.69543597 -1.826418,-0.88053797 -0.705027,-0.195365 -1.507074,-0.291917 -2.405398,-0.291926 z m -15.350375,0.06187 0,10.34301057 2.251918,0 0,-4.4423546 4.893186,0 0,4.4423546 2.183951,0 0,-10.34301057 -2.183951,0 0,4.10283397 -4.893186,0 0,-4.10283397 z M 62.534109,2.0682204 c 1.216721,8e-6 2.155555,0.360803 2.678639,0.946919 0.523075,0.575851 0.78425,1.424007 0.784256,2.544836 -6e-6,1.141404 -0.387377,2.068695 -1.024161,2.644534 -0.636803,0.575844 -1.489147,0.863089 -2.558037,0.863087 -0.386631,2e-6 -0.964655,-0.02074 -1.328528,-0.06188 l 0,-6.907355 c 0.227419,-0.02055 0.845148,-0.03013 1.447831,-0.03014 z"
       id="path3763"
       style="font-size:303.80941772px;font-style:normal;font-variant:normal;font-weight:bold;font-stretch:normal;text-align:start;line-height:125%;letter-spacing:-11.5556469px;word-spacing:0px;writing-mode:lr-tb;text-anchor:start;fill:#00437d;fill-opacity:1;stroke:none;font-family:TheSansCorrespondence;-inkscape-font-specification:TheSansCorrespondence Bold Italic" />
  </g>
  <path
     style="fill:#0086cb;fill-opacity:1;stroke-width:0.061116"
     d="M 47.670505,5.5310009 V 0.36669619 h 1.100088 1.100089 V 2.4446413 4.5225864 h 2.475199 2.4752 V 2.4446413 0.36669619 h 1.06953 1.069531 V 5.5310009 10.695306 h -1.069531 -1.06953 V 8.4645704 6.2338353 h -2.4752 -2.475199 v 2.2307351 2.2307356 h -1.100089 -1.100088 z"
     id="path2851" />
  <path
     style="fill:#ffffff;fill-opacity:1;stroke-width:0.061116"
     d="m 60.275686,10.771799 -1.054251,-0.01826 V 5.5960457 0.43855616 l 0.229185,-0.0365237 c 0.126052,-0.020088 1.205514,-0.0423131 2.398804,-0.0493891 2.313734,-0.01372 2.718251,0.0215831 3.758636,0.32802425 1.485553,0.43756329 2.492577,1.45793139 2.886924,2.92517839 0.159308,0.5927384 0.154887,2.7271828 -0.0069,3.3308236 -0.39526,1.4747506 -1.297798,2.5026796 -2.826296,3.2189584 -0.966249,0.452799 -2.186457,0.673674 -3.580771,0.648172 -0.413094,-0.0076 -1.225493,-0.02196 -1.805332,-0.032 z M 64.113657,8.8175124 C 64.84802,8.5490401 65.274828,8.2533925 65.651238,7.7524385 66.130715,7.1143138 66.317712,6.448072 66.315376,5.3862123 66.311935,3.8220247 65.811854,2.8462849 64.756846,2.3452638 64.149569,2.0568692 63.551258,1.9604165 62.353632,1.9578452 l -0.993136,-0.00213 V 5.429143 c 0,1.9103855 0.02063,3.4943884 0.04584,3.520007 0.02521,0.025619 0.568379,0.034372 1.207042,0.019453 C 63.581826,8.94598 63.830868,8.9209 64.11366,8.817515 Z"
     id="path2890" />
  <path
     style="fill:#ffffff;fill-opacity:1;stroke-width:0.061116"
     d="M 0.38187161,18.075066 0.39725421,0.27502214 1.894597,0.22911227 c 2.847691,-0.0873128 9.619512,-0.0841101 10.389725,0.004914 5.370282,0.62071501 8.516647,3.09971233 9.264455,7.29939463 0.132926,0.7465097 0.135427,2.2684364 0.0049,3.0090951 -0.310108,1.760271 -0.979643,3.091834 -2.177671,4.330927 -0.569234,0.588746 -1.499037,1.342939 -2.008958,1.629531 -0.140033,0.0787 -0.254604,0.160216 -0.254604,0.181141 0,0.02093 0.193134,0.0844 0.429185,0.14105 1.48684,0.356842 3.082426,1.208214 4.146484,2.212479 1.806094,1.704603 2.616042,4.112668 2.337627,6.950022 -0.245101,2.497841 -1.089851,4.384969 -2.661414,5.945461 -0.825558,0.819742 -1.575881,1.359932 -2.662864,1.917108 -2.16612,1.110329 -4.757584,1.73666 -8.118015,1.96204 -0.515285,0.03456 -3.0249089,0.06284 -5.5769419,0.06284 H 0.36648903 Z M 11.825952,30.86675 c 3.460079,-0.494364 5.503141,-1.896945 6.078183,-4.17273 0.325232,-1.287138 0.169501,-3.217233 -0.367866,-4.559244 -0.501987,-1.253652 -1.649951,-2.423975 -3.085548,-3.145644 -0.441657,-0.222018 -1.464469,-0.568674 -2.285445,-0.774592 -0.576826,-0.144679 -2.5397161,-0.552007 -2.6600951,-0.552007 -0.017708,0 -0.032196,-0.17408 -0.032196,-0.386846 v -0.386846 l 0.5042073,-0.107795 c 2.1157608,-0.452329 3.8249138,-1.409999 4.7908458,-2.684399 0.374429,-0.494002 0.770604,-1.34205 0.946576,-2.026231 0.121267,-0.471487 0.14161,-0.702794 0.142442,-1.619575 0.0011,-1.266067 -0.0694,-1.6114111 -0.518105,-2.5363149 C 14.550126,6.2885567 13.13261,5.3036594 10.878654,4.8154884 10.369154,4.705139 10.022996,4.686354 8.0520372,4.6620965 L 5.806023,4.6344539 V 17.816676 30.998897 l 2.7655005,-0.03114 c 1.5627995,-0.0176 2.9781325,-0.06153 3.2544285,-0.101002 z"
     id="path2966" />
  <path
     style="fill:#ffffff;fill-opacity:1;stroke-width:0.061116"
     d="m 37.887419,35.185045 c -1.076264,-1.59279 -5.748413,-8.418423 -7.015927,-10.249704 -2.663196,-3.847736 -3.106317,-4.438732 -3.9945,-5.3275 -0.580052,-0.580436 -1.470571,-1.295265 -1.94687,-1.562776 l -0.300237,-0.168626 -6.1e-5,-0.347298 c -7.3e-5,-0.397734 -0.01861,-0.384806 0.641656,-0.44735 1.153282,-0.109244 3.221092,-0.583908 4.301647,-0.987439 2.277753,-0.850623 3.619308,-2.159628 4.166184,-4.065105 0.195806,-0.682244 0.229093,-1.921676 0.07195,-2.6791071 C 33.498748,7.8437825 32.739504,6.7374411 31.433903,5.8859422 30.087739,5.0079888 28.640041,4.6944507 25.864849,4.6798133 L 24.258043,4.6713385 24.051391,4.1959692 C 23.628044,3.2221248 22.9832,2.278279 22.14503,1.4056687 21.87059,1.1199513 21.53422,0.80367582 21.397542,0.70283437 21.009421,0.41647785 21.056576,0.32467944 21.619796,0.27015995 c 0.862119,-0.0834527 6.752182,-0.0641783 7.624225,0.0249491 4.191205,0.4283634 6.417695,1.26911365 8.282008,3.12738875 0.942757,0.9397044 1.552748,1.9535865 2.01343,3.3465776 0.405039,1.224739 0.516442,2.2898441 0.36608,3.5000206 -0.366377,2.948738 -1.781914,5.258948 -4.213365,6.87637 -0.631483,0.420068 -1.70094,0.971733 -2.307542,1.190314 -0.210086,0.0757 -0.381975,0.150624 -0.381975,0.166493 0,0.01587 0.07818,0.129068 0.173723,0.251554 0.29151,0.373696 11.969587,16.604792 12.200427,16.957097 l 0.107579,0.164187 -3.567038,-0.0025 -3.567038,-0.0025 z"
     id="path20631" />
  <path
     style="fill:#ffffff;fill-opacity:1;stroke-width:0.061116"
     d="M 47.670505,5.5310009 V 0.36669619 h 1.100088 1.100089 V 2.4446413 4.5225864 h 2.475199 2.4752 V 2.4446413 0.36669619 h 1.06953 1.069531 V 5.5310009 10.695306 h -1.069531 -1.06953 V 8.4645704 6.2338353 h -2.4752 -2.475199 v 2.2307351 2.2307356 h -1.100089 -1.100088 z"
     id="path20670" />
</svg>
