<?xml version="1.0" encoding="UTF-8" standalone="no"?>
<svg
   viewBox="0 0 1016.6 352.70001"
   enable-background="new 0 0 1020 2500"
   width="1016.6"
   height="352.70001"
   version="1.1"
   id="svg33"
   sodipodi:docname="BRF 2.svg"
   inkscape:version="1.1.1 (3bf5ae0d25, 2021-09-20)"
   xmlns:inkscape="http://www.inkscape.org/namespaces/inkscape"
   xmlns:sodipodi="http://sodipodi.sourceforge.net/DTD/sodipodi-0.dtd"
   xmlns="http://www.w3.org/2000/svg"
   xmlns:svg="http://www.w3.org/2000/svg">
  <defs
     id="defs37" />
  <sodipodi:namedview
     id="namedview35"
     pagecolor="#ffffff"
     bordercolor="#666666"
     borderopacity="1.0"
     inkscape:pageshadow="2"
     inkscape:pageopacity="0.0"
     inkscape:pagecheckerboard="0"
     showgrid="false"
     inkscape:zoom="0.3236"
     inkscape:cx="511.43387"
     inkscape:cy="177.6885"
     inkscape:window-width="1920"
     inkscape:window-height="1017"
     inkscape:window-x="-8"
     inkscape:window-y="-8"
     inkscape:window-maximized="1"
     inkscape:current-layer="g19" />
  <path
     fill="#ffffff"
     d="M 1016.6,0 H 783.3 l -40,300.1 h 233.3 z"
     id="path9" />
  <path
     fill="#e3000e"
     d="m 931.9,218.5 h 55.6 l 7.2,-54.2 c -1.2,1.1 -2.3,2.2 -3.5,3.4 -9.4,8.6 -29.1,25 -59.1,49.2 l -0.2,1.6 m 79.4,-179 5.3,-39.4 H 783.3 l -40,300.1 h 233.3 l 3.8,-28.4 H 840.9 l 6,-42.4 67.2,-59.9 c 19.3,-17.7 31.9,-29.8 38,-36.3 6.1,-6.5 10.4,-12 13.1,-16.7 2.7,-4.6 4.4,-9.5 5.1,-14.6 0.9,-6.3 -0.4,-11.3 -4,-15 -3.5,-3.6 -9,-5.5 -16.3,-5.5 -7.6,0 -15.5,2.2 -23.8,6.6 -8.4,4.4 -18,10.8 -28.9,19.4 L 867.5,65.7 c 13.9,-10.8 25.4,-18.5 34.5,-23.2 9.1,-4.7 18.8,-8.2 29,-10.7 10.3,-2.5 21.6,-3.7 34,-3.7 15.5,0 29,2.7 40.4,8.1 2,1 4,2.1 5.9,3.3"
     id="path11" />
  <g
     id="g19"
     transform="translate(-1,-1073.1)">
    <path
       fill="#ffffff"
       d="M 432.5,1198.8 H 390 v -36.5 h 42.5 c 9.9,0 18.2,8.4 18.2,18.2 0.1,10 -8.3,18.3 -18.2,18.3 M 548,1180.6 c 0,-43.4 -35.6,-79 -79,-79 H 292.7 v 243.1 H 390 v -115.9 l 48.6,115.9 h 103.3 l -39,-92.9 c 26.6,-12.8 45.1,-39.9 45.1,-71.2"
       id="path13" />
    <path
       fill="#ffffff"
       d="M 140.8,1283.9 H 98.3 v -36.5 h 42.5 c 9.9,0 18.2,8.3 18.2,18.2 0,9.9 -8.3,18.3 -18.2,18.3 M 98.3,1162.4 h 36.5 c 9.9,0 18.2,8.3 18.2,18.2 0,9.9 -8.4,18.2 -18.2,18.2 H 98.3 Z m 126.8,53 c 18.6,-10.4 31.2,-30.3 31.2,-53 0,-33.4 -27.3,-60.8 -60.8,-60.8 H 1 v 176.2 66.8 h 200.5 c 36.8,0 66.9,-30.1 66.9,-66.8 0,-28.5 -18.1,-52.9 -43.3,-62.4"
       id="path15" />
    <path
       d="M 806.1,1198.8 H 673.3 v -24.3 h 136 l 9.8,-72.9 h -243 v 243.1 h 97.2 v -73 h 123.1 z"
       id="path17"
       style="fill:#ffffff" />
  </g>
  <g
     id="g31"
     transform="translate(-1,-1073.1)">
    <path
       fill="#e3000e"
       d="M 30.2,1424.9 20,1406.5 h -8 v 18.4 H 1 v -51.7 h 24.2 c 10.8,0 17.4,7 17.4,16.7 0,9.1 -5.8,14 -11.4,15.3 l 11.7,19.7 H 30.2 m 1.1,-35.1 c 0,-4.3 -3.3,-6.9 -7.7,-6.9 H 12 v 13.9 h 11.6 c 4.3,0.1 7.7,-2.6 7.7,-7"
       id="path21" />
    <path
       fill="#e3000e"
       d="m 91.7,1424.9 -3.3,-8.8 H 66.3 l -3.3,8.8 H 50.5 l 19.9,-51.7 h 13.8 l 19.9,51.7 H 91.7 m -14.4,-40.7 -8.1,22.2 h 16.1 l -8,-22.2"
       id="path23" />
    <path
       fill="#e3000e"
       d="m 112.9,1424.9 v -51.7 h 20.4 c 16.2,0 27.4,10.3 27.4,25.8 0,15.6 -11.2,25.9 -27.3,25.9 h -20.5 m 36.6,-25.9 c 0,-9.1 -5.6,-16.1 -16.1,-16.1 h -9.5 v 32.3 h 9.4 c 10.2,0 16.2,-7.4 16.2,-16.2"
       id="path25" />
    <path
       fill="#e3000e"
       d="m 172.6,1424.9 v -51.7 h 11 v 51.7 h -11"
       id="path27" />
    <path
       fill="#e3000e"
       d="m 195.3,1399.1 c 0,-15.6 11.4,-26.7 27,-26.7 15.6,0 27,11.2 27,26.7 0,15.6 -11.4,26.7 -27,26.7 -15.6,0 -27,-11.1 -27,-26.7 m 42.7,0 c 0,-9.7 -6.1,-17 -15.6,-17 -9.6,0 -15.7,7.3 -15.7,17 0,9.6 6.1,17 15.7,17 9.5,0 15.6,-7.4 15.6,-17"
       id="path29" />
  </g>
</svg>
