<svg version="1.1" id="Ebene_1" xmlns="http://www.w3.org/2000/svg" xmlns:xlink="http://www.w3.org/1999/xlink" x="0px" y="0px" viewBox="1986.7 324.2 413.9 122.2" enable-background="new 1986.7 324.2 413.9 122.2" width="413" height="122" xml:space="preserve">
<g><path fill="#FFFFFF" d="M2400.6,324.2h-95l-16.3,122.2h95L2400.6,324.2z"/></g>
<g><path fill="#C6007E" d="M2400.6,324.2h-95l-16.3,122.2h95l6.7-49.8l-52.1,29.7c-4.8,2.9-8.1,0.7-7.3-4.7l10.2-72.6,c0.8-5.5,4.7-7.6,8.6-4.7l43.6,29.6L2400.6,324.2"/></g>
<g><path fill="#C6007E" d="M2350.4,355.9l42.1,28.6l-50.2,28.6L2350.4,355.9z"/></g>
<g><path fill="#ffffff" d="M2162.4,375.3H2145v-14.9h17.3c4,0,7.4,3.4,7.4,7.4C2169.8,371.9,2166.4,375.3,2162.4,375.3 M2209.4,367.9,c0-17.7-14.5-32.2-32.2-32.2h-71.8v99h39.6v-47.2l19.8,47.2h42.1l-15.9-37.8C2201.8,391.7,2209.4,380.7,2209.4,367.9"/></g>
<g><path fill="#ffffff" d="M2043.6,410h-17.3v-14.9h17.3c4,0,7.4,3.4,7.4,7.4C2051,406.6,2047.6,410,2043.6,410 M2026.3,360.5h14.9,c4,0,7.4,3.4,7.4,7.4c0,4-3.4,7.4-7.4,7.4h-14.9V360.5L2026.3,360.5z M2077.9,382c7.5-4.2,12.7-12.3,12.7-21.6,c0-13.6-11.1-24.7-24.7-24.7h-79.2v71.8v27.2h81.6c15,0,27.2-12.2,27.2-27.2C2095.5,395.9,2088.2,386,2077.9,382"/></g>
<g><path fill="#ffffff" d="M2314.4,375.3h-54v-9.9h55.4l4-29.7h-98.9v99h39.6V405h50.1L2314.4,375.3z"/></g>
</svg>
