<?xml version="1.0" encoding="UTF-8"?>
<!DOCTYPE svg PUBLIC "-//W3C//DTD SVG 1.1//EN" "http://www.w3.org/Graphics/SVG/1.1/DTD/svg11.dtd">
<svg xmlns="http://www.w3.org/2000/svg" version="1.1" width="1024px" height="360px" style="shape-rendering:geometricPrecision; text-rendering:geometricPrecision; image-rendering:optimizeQuality; fill-rule:evenodd; clip-rule:evenodd" xmlns:xlink="http://www.w3.org/1999/xlink">
<g><path style="opacity:0.714" fill="#01a983" d="M 787.5,3.5 C 865.332,2.50072 943.332,2.16739 1021.5,2.5C 1021.74,3.79105 1021.4,4.79105 1020.5,5.5C 943.174,3.50292 865.507,2.83625 787.5,3.5 Z"/></g>
<g><path style="opacity:1" fill="#01a983" d="M 787.5,3.5 C 865.507,2.83625 943.174,3.50292 1020.5,5.5C 1019.83,14.211 1018.83,22.8777 1017.5,31.5C 1002.83,31.3334 988.163,31.5001 973.5,32C 943.167,54.3333 912.833,76.6667 882.5,99C 891.81,113.133 901.476,126.966 911.5,140.5C 928.148,129.254 943.981,116.92 959,103.5C 950.512,160.355 942.679,217.355 935.5,274.5C 951.325,275.496 967.325,275.83 983.5,275.5C 983.5,276.833 983.5,278.167 983.5,279.5C 983.073,287.252 982.073,294.919 980.5,302.5C 902.5,303.833 824.5,303.833 746.5,302.5C 751.171,269.471 755.838,236.471 760.5,203.5C 773.323,202.505 786.323,202.171 799.5,202.5C 803.074,178.243 806.074,153.91 808.5,129.5C 795.656,129.829 782.989,129.495 770.5,128.5C 771.255,120.796 772.255,113.13 773.5,105.5C 786.167,105.5 798.833,105.5 811.5,105.5C 814.739,80.8257 818.072,56.1591 821.5,31.5C 808.833,31.5 796.167,31.5 783.5,31.5C 784.559,22.0875 785.892,12.7542 787.5,3.5 Z"/></g>
<g><path style="opacity:0.988" fill="#ffffff" d="M 293.5,31.5 C 356.501,31.3333 419.501,31.5 482.5,32C 514.373,37.8716 535.873,56.0383 547,86.5C 556.849,128.958 543.016,161.125 505.5,183C 518.208,213.623 531.208,244.123 544.5,274.5C 509.506,275.5 474.506,275.833 439.5,275.5C 424.497,238 408.997,200.667 393,163.5C 392.5,200.832 392.333,238.165 392.5,275.5C 359.5,275.5 326.5,275.5 293.5,275.5C 293.5,194.167 293.5,112.833 293.5,31.5 Z M 392.5,92.5 C 408.224,92.0631 423.891,92.5631 439.5,94C 447.042,96.8923 451.375,102.392 452.5,110.5C 451.36,118.794 447.026,124.628 439.5,128C 423.837,128.5 408.17,128.667 392.5,128.5C 392.5,116.5 392.5,104.5 392.5,92.5 Z"/></g>
<g><path style="opacity:0.993" fill="#ffffff" d="M 783.5,31.5 C 796.167,31.5 808.833,31.5 821.5,31.5C 818.072,56.1591 814.739,80.8257 811.5,105.5C 798.833,105.5 786.167,105.5 773.5,105.5C 740.833,105.5 708.167,105.5 675.5,105.5C 675.5,113.167 675.5,120.833 675.5,128.5C 707.167,128.5 738.833,128.5 770.5,128.5C 782.989,129.495 795.656,129.829 808.5,129.5C 806.074,153.91 803.074,178.243 799.5,202.5C 786.323,202.171 773.323,202.505 760.5,203.5C 732.5,203.5 704.5,203.5 676.5,203.5C 676.5,227.833 676.5,252.167 676.5,276.5C 643.833,276.5 611.167,276.5 578.5,276.5C 578.5,194.833 578.5,113.167 578.5,31.5C 646.833,31.5 715.167,31.5 783.5,31.5 Z"/></g>
<g><path style="opacity:0.992" fill="#ffffff" d="M 1017.5,31.5 C 1006.58,112.52 995.581,193.52 984.5,274.5C 968.167,274.5 951.833,274.5 935.5,274.5C 942.679,217.355 950.512,160.355 959,103.5C 943.981,116.92 928.148,129.254 911.5,140.5C 901.476,126.966 891.81,113.133 882.5,99C 912.833,76.6667 943.167,54.3333 973.5,32C 988.163,31.5001 1002.83,31.3334 1017.5,31.5 Z"/></g>
<g><path style="opacity:0.989" fill="#ffffff" d="M 1.5,32.5 C 70.5008,32.3333 139.501,32.5 208.5,33C 239.742,40.9046 256.409,60.9046 258.5,93C 257.807,116.064 247.807,133.731 228.5,146C 255.599,158.333 269.599,179.5 270.5,209.5C 267.597,248.902 246.597,271.402 207.5,277C 138.834,277.5 70.1675,277.667 1.5,277.5C 1.5,195.833 1.5,114.167 1.5,32.5 Z M 100.5,92.5 C 114.559,92.0715 128.559,92.5715 142.5,94C 154.602,100.306 157.435,109.472 151,121.5C 148.407,124.543 145.24,126.71 141.5,128C 127.837,128.5 114.171,128.667 100.5,128.5C 100.5,116.5 100.5,104.5 100.5,92.5 Z M 100.5,178.5 C 115.504,178.333 130.504,178.5 145.5,179C 159.907,184.627 163.407,194.127 156,207.5C 153.222,210.807 149.722,212.974 145.5,214C 130.504,214.5 115.504,214.667 100.5,214.5C 100.5,202.5 100.5,190.5 100.5,178.5 Z"/></g>
<g><path style="opacity:1" fill="#00a983" d="M 935.5,274.5 C 951.833,274.5 968.167,274.5 984.5,274.5C 984.784,276.415 984.451,278.081 983.5,279.5C 983.5,278.167 983.5,276.833 983.5,275.5C 967.325,275.83 951.325,275.496 935.5,274.5 Z"/></g>
<g><path style="opacity:0.956" fill="#00a983" d="M 215.5,302.5 C 241.777,300.607 252.943,312.607 249,338.5C 244.55,350.818 235.716,356.818 222.5,356.5C 205.681,355.347 197.014,346.347 196.5,329.5C 196.252,315.764 202.585,306.764 215.5,302.5 Z M 219.5,312.5 C 231.419,311.583 238.086,317.083 239.5,329C 237.766,343.357 230.099,348.357 216.5,344C 209.06,336.62 207.56,328.12 212,318.5C 214.134,315.847 216.634,313.847 219.5,312.5 Z"/></g>
<g><path style="opacity:0.952" fill="#00a983" d="M 1.5,303.5 C 10.5062,303.334 19.5062,303.5 28.5,304C 42.8388,307.634 47.3388,316.467 42,330.5C 39.7357,333.433 36.9024,335.6 33.5,337C 37.5,343.333 41.5,349.667 45.5,356C 40.8333,356.667 36.1667,356.667 31.5,356C 28.0402,350.248 24.7069,344.415 21.5,338.5C 18.9135,337.52 16.2469,337.187 13.5,337.5C 13.5,343.833 13.5,350.167 13.5,356.5C 9.5,356.5 5.5,356.5 1.5,356.5C 1.5,338.833 1.5,321.167 1.5,303.5 Z M 13.5,314.5 C 18.5111,314.334 23.5111,314.501 28.5,315C 33.7342,318.534 33.7342,322.2 28.5,326C 23.5111,326.499 18.5111,326.666 13.5,326.5C 13.5,322.5 13.5,318.5 13.5,314.5 Z"/></g>
<g><path style="opacity:0.941" fill="#00a983" d="M 70.5,303.5 C 75.7616,303.195 80.9283,303.529 86,304.5C 92.6757,321.696 98.8423,339.03 104.5,356.5C 100.5,356.5 96.5,356.5 92.5,356.5C 92.1489,353.762 91.4822,351.096 90.5,348.5C 82.8622,347.503 75.1955,347.169 67.5,347.5C 67.1489,350.238 66.4822,352.904 65.5,355.5C 60.8333,356.833 56.1667,356.833 51.5,355.5C 58.2376,338.285 64.5709,320.951 70.5,303.5 Z M 78.5,317.5 C 81.2618,323.534 83.9284,329.701 86.5,336C 81.467,336.829 76.467,336.662 71.5,335.5C 73.8414,329.471 76.1747,323.471 78.5,317.5 Z"/></g>
<g><path style="opacity:0.953" fill="#00a983" d="M 113.5,303.5 C 121.507,303.334 129.507,303.5 137.5,304C 158.654,308.178 166.154,320.678 160,341.5C 155.933,350.232 149.1,355.065 139.5,356C 130.84,356.5 122.173,356.666 113.5,356.5C 113.5,338.833 113.5,321.167 113.5,303.5 Z M 125.5,313.5 C 131.262,313.149 136.928,313.649 142.5,315C 149.991,321.954 151.491,330.121 147,339.5C 145.59,340.787 144.09,341.954 142.5,343C 136.928,344.351 131.262,344.851 125.5,344.5C 125.5,334.167 125.5,323.833 125.5,313.5 Z"/></g>
<g><path style="opacity:1" fill="#00aa83" d="M 173.5,303.5 C 177.767,303.203 181.934,303.536 186,304.5C 186.5,321.83 186.667,339.163 186.5,356.5C 182.167,356.5 177.833,356.5 173.5,356.5C 173.5,338.833 173.5,321.167 173.5,303.5 Z"/></g>
</svg>
