<?xml version="1.0" encoding="utf-8"?>
<!-- Generator: Adobe Illustrator 16.0.0, SVG Export Plug-In . SVG Version: 6.00 Build 0)  -->
<!DOCTYPE svg PUBLIC "-//W3C//DTD SVG 1.1//EN" "http://www.w3.org/Graphics/SVG/1.1/DTD/svg11.dtd">
<svg version="1.1" id="Ebene_1" xmlns="http://www.w3.org/2000/svg" xmlns:xlink="http://www.w3.org/1999/xlink" x="0px" y="0px"
	 width="220px" height="39.453px" viewBox="0 0 220 39.453" enable-background="new 0 0 220 39.453" xml:space="preserve">
<g>
	<path fill="#FFFFFF" d="M15.271,35.546c0.18-0.47,0.284-1.104,0.09-1.178c-0.328-0.126-0.392,1.468-1.134,2.067
		c-0.426,0.342-0.809,0.164-1.103,0.052c-0.239,0.22-0.296,0.553-0.167,0.901c-0.762-0.184-0.709-1.029-0.559-1.528
		c-0.109-0.184-0.019-0.537,0.082-0.626c0.612-0.538,1.007-0.448,1.671-1.113c0.125-0.125,0.309-0.446,0.022-0.453
		c-0.847-0.018-1.989,1.013-2.762,0.627c-0.103-0.052-0.197-0.129-0.269-0.271c-0.284,0.013-0.67,0.234-0.855,0.694
		c-0.46-0.718,0.167-1.566,0.646-1.714c0.127-0.198,0.203-0.46,0.589-0.496c0.342-0.079,0.989,0.053,1.823,0.036
		c1.045-0.021,1.089,0.167,1.605-0.386c1.689-1.811,3.171-4.968,3.46-5.38c0.162-0.231,0.151-0.334,0.083-0.425
		c-0.405-0.076-0.661-0.038-0.93-0.128c0.224-0.249,0.516-0.493,0.884-0.921c0.921-1.399,1.29-2.247,2.137-4.09
		c0.206-0.446,0.217-1.212,0.11-1.695c-0.147-0.661-0.405-1.841-0.92-1.878c-0.336-0.024-0.667,0.025-0.848,0.405
		c-0.308,0.647-3.406,8.958-4.163,10.058c-1.216,1.766-2.911,2.172-3.721,1.878c0.81-0.958,1.214-1.952,1.583-3.058
		c0.259-0.77,2.434-5.76,3.958-9.431c0.101-0.244,0.006-0.612-0.2-0.663c-0.624-0.155-0.691,0.4-0.885,0.773
		c-0.331,0.637-4.347,8.877-5.819,12.009c-0.411,0.875-2.8,3.17-5.379,2.396c0.995-0.773,1.621-1.276,2.727-3.315
		c0.491-0.906,2.544-4.872,3.573-6.778c1.014-1.879,2.577-4.709,3.279-6.3c0.092-0.207,0.088-0.527-0.111-0.558
		c-0.333-0.052-0.499,0.063-0.743,0.406C12.61,16.05,8.396,23.313,6.77,25.859c-0.521,0.814-3.177,3.182-5.387,1.856
		c1.068-0.405,1.993-1.736,2.84-2.98c1.381-2.026,6.668-10.345,7.732-11.834c0.118-0.166,0.039-0.622-0.225-0.701
		c-0.323-0.098-0.581,0.323-0.854,0.644c-0.465,0.545-3.727,5.443-5.7,7.595C4.365,21.325,2.197,23.161,0,22.078
		c1.179-0.515,5.469-6.292,7.009-7.984c1.219-1.339,2.511-2.967,3.196-3.772c0.213-0.249,0.461-0.479,0.295-0.727
		c-0.156-0.233-0.458-0.082-0.774,0.198c-0.537,0.476-4.549,4.316-5.637,5.088c-1.275,0.905-3.167,0.278-3.876-0.811
		c1.032,0.11,2.173-1.084,2.833-1.67c0.611-0.543,4.161-3.653,7.225-6.472c0.391-0.363,0.35-0.726,0.236-0.863
		c-0.141-0.168-0.715-0.242-0.687-0.994c0.34,0.125,0.674,0.178,1.504,0.069c0.38-0.049,0.657-0.092,1.099-0.275
		c2.295-0.949,2.583-0.714,3.208-0.635c0.512,0.065,1.52,0.725,1.475,1.971c-0.037,1.021-0.446,1.554-1.964,1.96
		c-0.257,0.069-0.485,0.671-0.051,0.921c0.928,0.534,1.37,0.977,1.971,2.357c1.831-0.496,2.53,0.388,3.83,0.295
		c0.092-2.313,1.181-3.887,1.673-4.619c-1.013-0.139-2.084-0.631-2.43-1.441c1.025,0.403,1.568,0.323,1.846,0.06
		c-1.493-0.259-3.124-0.697-3.577-1.406c0.268,0.111,1.392,0.75,3.876,0.44c-0.009-0.63-0.182-1.016-0.182-1.016
		s-1.518-0.302-2.758,0.37c-0.637-0.51-2.397-4.581,5.575-2.567c0.25-0.097,0.47-0.081,1.021-0.029
		c0.674,0.065,1.107-0.317,1.107-0.317s-0.079,0.643-0.821,1.078c0.239,0.386,1.86,2.707,1.271,8.399
		c-0.068,0.665,0.094,1.366,0.958,1.027c0.645-0.253,1.05-0.548,2.459-0.286c0.507-1.183,1.037-1.756,1.783-2.344
		c0.394-0.31,0.207-0.853-0.051-0.921c-1.518-0.406-2.111-1.024-2.148-2.044c-0.045-1.247,0.963-1.907,1.475-1.972
		c0.625-0.08,1.097-0.23,3.392,0.719c0.442,0.183,0.718,0.226,1.099,0.275c0.83,0.109,1.505-0.069,1.505-0.069
		c0,0.844-0.68,0.821-0.828,0.982c-0.154,0.169-0.13,0.423,0.261,0.787c3.064,2.817,6.729,6.017,7.34,6.56
		c0.66,0.586,1.802,1.781,2.833,1.67c-0.709,1.089-2.602,1.716-3.877,0.811c-1.087-0.772-5.1-4.613-5.636-5.088
		c-0.316-0.279-0.619-0.431-0.774-0.198c-0.166,0.248,0.083,0.479,0.295,0.727c0.685,0.805,1.977,2.433,3.195,3.772
		c1.541,1.692,5.83,7.469,7.009,7.984c-2.196,1.083-4.364-0.753-5.176-1.64c-1.973-2.152-5.235-7.049-5.7-7.595
		c-0.273-0.32-0.532-0.742-0.854-0.644c-0.264,0.079-0.342,0.536-0.225,0.701c1.064,1.489,6.351,9.808,7.732,11.834
		c0.847,1.244,1.772,2.575,2.841,2.98c-2.211,1.327-4.868-1.042-5.388-1.856c-1.626-2.546-5.84-9.809-6.256-10.393
		c-0.245-0.344-0.409-0.458-0.742-0.406c-0.2,0.03-0.204,0.351-0.112,0.559c0.701,1.591,2.265,4.42,3.278,6.299
		c1.029,1.906,3.083,5.872,3.574,6.778c1.105,2.039,1.731,2.542,2.726,3.315c-2.579,0.774-4.967-1.521-5.379-2.396
		c-1.472-3.132-5.489-11.373-5.819-12.009c-0.194-0.373-0.262-0.929-0.886-0.773c-0.207,0.051-0.301,0.419-0.2,0.663
		c1.524,3.671,3.313,8.55,3.57,9.32c0.371,1.105,0.773,2.102,1.584,3.06c-0.811,0.294-2.505-0.114-3.721-1.88
		c-0.757-1.1-3.339-9.336-3.647-9.984c-0.181-0.38-0.511-0.429-0.847-0.405c-0.516,0.037-0.693,1.438-0.811,2.21
		c-0.063,0.415-0.013,1.222,0.153,1.657c0.661,1.745,1.071,2.45,1.98,3.832c0.368,0.428,0.66,0.672,0.884,0.921
		c-0.27,0.09-0.526,0.052-0.931,0.128c-0.069,0.091-0.079,0.193,0.083,0.425c0.291,0.412,1.771,3.569,3.46,5.38
		c0.516,0.553,0.56,0.364,1.605,0.386c0.833,0.017,1.481-0.115,1.823-0.036c0.387,0.036,0.462,0.298,0.59,0.496
		c0.479,0.147,1.105,0.996,0.645,1.714c-0.184-0.46-0.571-0.682-0.854-0.694c-0.073,0.142-0.167,0.219-0.27,0.271
		c-0.773,0.386-1.916-0.645-2.763-0.627c-0.285,0.007-0.103,0.328,0.022,0.453c0.665,0.665,1.06,0.575,1.672,1.113
		c0.101,0.089,0.19,0.442,0.082,0.626c0.149,0.499,0.203,1.345-0.56,1.528c0.129-0.349,0.072-0.682-0.167-0.901
		c-0.294,0.112-0.676,0.29-1.102-0.052c-0.743-0.6-0.807-2.193-1.134-2.067c-0.194,0.074-0.09,0.708,0.089,1.178
		c0.105,0.275,0.199,0.933,0.165,1.18c-0.03,0.209-0.104,0.528-0.464,0.544c-0.38,0.813-1.134,0.903-1.514,0.724
		c0.49-0.324,0.347-0.603,0.407-0.812c-0.211-0.066-0.542-0.221-0.512-0.732c0.015-0.254,0.299-0.708,0.334-0.919
		c0.126-0.737,0.09-1.178,0.06-1.812c-0.015-0.306-0.364-0.604-0.918-0.897c-0.503-0.27-1.014-0.544-1.79-0.453
		c-0.313,0.036-0.954,0.065-1.029-0.373c-0.239,0.045-0.404,0.148-0.574,0.753c-0.254-0.319-0.374-1.373,0.515-1.724
		c0.015-0.299,0.423-0.477,0.634-0.454c0.866,0.093,2.018,0.942,2.394,1.109c0.168,0.074,0.277-0.151,0.146-0.338
		c-0.131-0.188-1.485-2.161-2.282-3.457c-0.294-0.479-0.332-0.331-0.664-0.111c-0.09,0.109-0.132,0.166-0.181,0.215
		c-0.092,0.091-0.209,0.157-0.704,0.485c0.037-1.658-0.626-2.727-0.883-2.652c-0.362,0.104-0.351,0.993-0.332,2.543
		c0.036,3.02,0.221,7.403,3.794,8.841c-0.669,0.704-2.108,1.267-3.459,0.847c-0.321,0.961-1.842,1.4-1.842,1.4
		c0.005,0.007-1.521-0.439-1.809-1.4c-1.409,0.252-2.792-0.143-3.459-0.847c3.573-1.438,3.757-5.821,3.793-8.841
		c0.019-1.55,0.03-2.438-0.331-2.543c-0.258-0.074-0.921,0.994-0.884,2.652c-0.494-0.328-0.611-0.395-0.703-0.485
		c-0.049-0.049-0.091-0.105-0.182-0.215c-0.332-0.22-0.368-0.367-0.663,0.111c-0.797,1.296-2.152,3.269-2.283,3.457
		c-0.131,0.187-0.022,0.412,0.146,0.338c0.375-0.167,1.527-1.017,2.393-1.109c0.211-0.022,0.619,0.155,0.634,0.454
		c0.889,0.351,0.77,1.404,0.516,1.724c-0.171-0.604-0.336-0.708-0.575-0.753c-0.075,0.438-0.716,0.409-1.029,0.373
		c-0.776-0.091-1.287,0.184-1.79,0.453c-0.553,0.294-0.903,0.592-0.918,0.897c-0.029,0.634-0.066,1.074,0.061,1.812
		c0.035,0.211,0.32,0.665,0.335,0.919c0.03,0.512-0.301,0.666-0.513,0.732c0.061,0.209-0.083,0.487,0.408,0.812
		c-0.381,0.18-1.135,0.09-1.515-0.724c-0.358-0.016-0.434-0.335-0.463-0.544C15.073,36.479,15.167,35.822,15.271,35.546
		L15.271,35.546z M86.345,19.688L86.345,19.688c0,1.796-0.109,3.484-0.109,6.052c0,3.813,2.309,6.015,6.12,6.015
		c2.309,0,4.471-1.248,5.718-3.521h0.072c0,1.026,0,2.091-0.072,3.154c0.476-0.111,0.952-0.184,1.429-0.184s0.952,0.072,1.43,0.184
		c-0.11-2.054-0.147-4.218-0.147-6.382c0-3.887,0.037-7.334,0.257-11.149c-0.477,0.11-0.953,0.184-1.503,0.184
		c-0.549,0-1.025-0.073-1.539-0.184c0.074,1.761,0.074,4.034,0.074,6.015c0,5.757-0.037,6.052-0.771,7.628
		c-0.622,1.319-2.016,2.348-4.068,2.348c-1.429,0-2.454-0.588-3.151-1.357c-0.623-0.697-1.136-1.907-1.136-4.438
		c0-3.593,0.146-7.334,0.367-10.196c-0.514,0.11-1.027,0.184-1.503,0.184c-0.477,0-1.026-0.073-1.54-0.184
		C86.309,15.911,86.345,17.965,86.345,19.688L86.345,19.688z M113.979,15.396L113.979,15.396c2.418,0,3.994,1.981,3.994,5.575v2.238
		c0,2.823-0.184,5.5-0.257,8.178c0.514-0.111,0.989-0.184,1.502-0.184c0.514,0,0.99,0.072,1.54,0.184
		c-0.072-1.576-0.072-3.118-0.072-4.73c0-2.494,0.146-4.695,0.146-6.785c0-5.061-3.151-6.381-5.863-6.381
		c-2.64,0-4.508,1.21-5.864,3.301h-0.072c0-0.99,0.036-1.944,0.109-2.935c-0.55,0.11-1.1,0.184-1.466,0.184
		c-0.55,0-1.1-0.073-1.65-0.184c0.222,2.091,0.294,4.658,0.294,6.858v3.814c0,2.2-0.072,4.767-0.294,6.858
		c0.551-0.111,1.101-0.184,1.65-0.184c0.549,0,1.099,0.072,1.648,0.184c-0.22-2.092-0.292-4.658-0.292-6.858v-3.117
		C109.031,17.598,110.569,15.396,113.979,15.396L113.979,15.396z M165.726,27.867L165.726,27.867h-0.44
		c0,0.733-0.403,2.054-0.697,2.678c1.027,0.586,2.492,1.21,4.729,1.21c4.068,0,6.597-3.008,6.597-5.795
		c0-6.199-8.648-3.265-8.648-8.032c0-2.164,1.686-3.081,3.114-3.081c1.649,0,2.858,1.101,3.226,2.274h0.439
		c0.074-0.55,0.477-1.907,0.879-2.604c-1.136-0.366-2.271-1.026-4.067-1.026c-3.885,0-6.083,2.348-6.083,5.536
		c0,6.2,8.648,3.522,8.648,8.071c0,2.162-1.722,3.3-3.555,3.3C167.814,30.397,166.239,28.857,165.726,27.867L165.726,27.867z
		 M189.07,16.864L189.07,16.864l0.256-0.183c0-0.991,0-2.385,0.257-2.972c-0.478-0.184-0.733-0.22-1.174-0.22
		c-1.685,0-3.444,1.32-4.836,3.961l-0.073-0.037c0-0.917,0-1.797,0.181-3.558c-0.475,0.11-0.988,0.184-1.464,0.184
		c-0.515,0-0.99-0.073-1.54-0.184c0.147,3.154,0.147,5.685,0.147,7.591v1.174c0,4.107,0,6.969-0.147,8.766
		c0.55-0.111,1.025-0.184,1.54-0.184c0.476,0,0.989,0.072,1.464,0.184c-0.146-1.688-0.146-3.631-0.146-10.013
		c0-2.86,1.393-5.097,3.737-5.097C188.006,16.277,188.814,16.571,189.07,16.864L189.07,16.864z M215.749,8.942L215.749,8.942
		l-3.042,1.283c0.073,1.577,0.111,3.154,0.146,4.108c-0.512,0-1.318-0.037-2.418-0.109c0.036,0.256,0.073,0.476,0.073,0.733
		c0,0.293-0.037,0.55-0.073,0.843c0.952-0.073,1.759-0.073,2.492-0.073c-0.037,5.463-0.257,8.763-0.257,11.442
		c0,2.86,1.466,4.585,4.508,4.585c0.915,0,1.979-0.257,2.821-0.551v-0.88c-0.477,0.146-1.245,0.257-1.649,0.257
		c-2.895,0-2.969-2.788-2.969-5.538c0-3.19,0.186-8.948,0.258-9.315c0.878,0,2.602,0,3.884,0.073
		c-0.037-0.257-0.037-0.514-0.037-0.771s0-0.514,0.037-0.771c-1.686,0.074-3.37,0.111-3.884,0.111
		c0.073-1.798,0.146-3.595,0.292-5.429H215.749L215.749,8.942z M68.608,17.341L68.608,17.341h1.978c3.445,0,7-1.21,7-5.281
		c0-3.961-3.188-4.621-5.974-4.621c-1.246,0-2.089,0.073-2.786,0.184c-0.073,2.31-0.219,4.657-0.219,6.967V17.341L68.608,17.341z
		 M65.603,21.852L65.603,21.852v-6.308c0-3.154-0.147-6.345-0.293-9.461c1.283,0.109,2.602,0.183,3.884,0.183
		c1.283,0,2.603-0.183,3.886-0.183c4.178,0,7.732,1.136,7.732,5.281c0,3.595-2.492,5.611-6.157,6.418v0.073
		c4.361,0.22,7.037,1.981,7.037,6.162c0,5.427-5.021,7.371-9.272,7.371c-1.172,0-2.382-0.184-3.555-0.184
		c-1.172,0-2.382,0.072-3.554,0.184C65.456,28.197,65.603,25.005,65.603,21.852L65.603,21.852z M68.608,18.697L68.608,18.697v3.741
		c0,2.457,0.146,4.95,0.219,7.409c0.917,0.109,2.273,0.183,3.592,0.183c3.152,0,5.9-2.199,5.9-6.161
		c0-4.181-3.188-5.171-8.062-5.171H68.608L68.608,18.697z M127.794,22.952L127.794,22.952c0,5.867,2.676,7.445,5.059,7.445
		c3.811,0,5.46-4.145,5.46-8.142c0-4.621-1.869-7.225-5.351-7.225C129.443,15.03,127.794,18.515,127.794,22.952L127.794,22.952z
		 M138.165,31.387L138.165,31.387l0.111-3.595h-0.075c-0.731,1.541-2.602,3.962-6.192,3.962c-3.701,0-7.438-2.715-7.438-9.023
		c0-6.234,4.066-9.241,7.879-9.241c2.712,0,4.616,1.283,5.643,3.667h0.073c0-4.62,0-10.378-0.146-13.533
		c0.586,0.074,1.136,0.184,1.649,0.184c0.513,0,1.024-0.11,1.648-0.184c-0.331,3.081-0.44,12.689-0.44,18.961
		c0,3.338,0.073,5.867,0.109,8.802c-0.548-0.073-0.988-0.184-1.429-0.184C139.119,31.204,138.679,31.314,138.165,31.387
		L138.165,31.387z M153.668,14.664L153.668,14.664c-3.592,0-4.948,3.704-5.131,6.343c1.502,0.038,3.225,0.111,4.765,0.111
		c1.611,0,3.335-0.073,4.873-0.111C158.175,18.405,157.479,14.664,153.668,14.664L153.668,14.664z M145.202,23.135L145.202,23.135
		c0-5.942,3.005-9.645,8.393-9.645c5.13,0,7.586,3.41,7.586,7.481c0,0.477-0.037,0.953-0.073,1.431
		c-2.64-0.037-5.241-0.109-7.843-0.109c-1.612,0-3.188,0.072-4.802,0.109c-0.036,0.367-0.036,0.696-0.036,1.026
		c0,3.814,2.273,6.785,6.341,6.785c1.942,0,4.214-1.138,5.497-2.604l0.183,0.109l-0.219,1.797c-1.466,1.174-3.849,2.238-6.12,2.238
		C148.831,31.754,145.202,28.012,145.202,23.135L145.202,23.135z M202.849,27.647L202.849,27.647l0.146-5.502
		c-2.528,0.843-7.658,0.586-7.658,4.584c0,2.311,1.575,3.484,3.188,3.484C200.394,30.213,202.005,29.002,202.849,27.647
		L202.849,27.647z M193.944,17.524L193.944,17.524v-1.907c2.197-1.65,3.956-2.127,5.899-2.127c3.52,0,5.937,2.164,5.937,5.427
		c0,2.751-0.146,5.464-0.146,8.546c0,1.21,0,2.713,1.428,2.713c0.221,0,0.514,0,0.77-0.146v0.808
		c-0.512,0.22-1.393,0.513-2.345,0.513c-1.576,0-2.383-1.026-2.528-2.274c-1.759,1.762-3.262,2.679-5.754,2.679
		c-2.456,0-4.874-1.725-4.874-4.512c0-2.934,1.979-4.512,5.167-5.023c5.315-0.845,5.497-1.138,5.497-2.569
		c0-2.457-1.098-4.62-4.031-4.62c-1.941,0-3.774,0.917-4.617,2.494H193.944L193.944,17.524z"/>
</g>
</svg>
