<?xml version="1.0" encoding="UTF-8" standalone="no"?>
<svg
   version="1.1"
   id="svg17"
   sodipodi:docname="Bundestag TV.svg"
   width="310.62262"
   height="81.785713"
   inkscape:version="1.1.1 (3bf5ae0d25, 2021-09-20)"
   xmlns:inkscape="http://www.inkscape.org/namespaces/inkscape"
   xmlns:sodipodi="http://sodipodi.sourceforge.net/DTD/sodipodi-0.dtd"
   xmlns="http://www.w3.org/2000/svg"
   xmlns:svg="http://www.w3.org/2000/svg">
  <defs
     id="defs21" />
  <sodipodi:namedview
     id="namedview19"
     pagecolor="#ffffff"
     bordercolor="#666666"
     borderopacity="1.0"
     inkscape:pageshadow="2"
     inkscape:pageopacity="0.0"
     inkscape:pagecheckerboard="0"
     showgrid="false"
     inkscape:zoom="3.0570583"
     inkscape:cx="187.92576"
     inkscape:cy="60.679248"
     inkscape:window-width="1920"
     inkscape:window-height="1017"
     inkscape:window-x="-8"
     inkscape:window-y="-8"
     inkscape:window-maximized="1"
     inkscape:current-layer="svg17" />
  <g
     id="g11"
     style="fill:#ffffff"
     transform="translate(0,0.01208951)">
    <path
       style="opacity:1;fill:#ffffff"
       fill="#ffffff"
       d="m 224.11964,31.093102 c -5.89973,0 -9.32746,4.838325 -9.32746,13.401422 0,9.366406 1.51755,16.690375 8.85088,16.690375 4.52036,0 7.89772,-2.668466 8.59257,-9.3701 0.0413,-1.052613 -0.74007,-1.052613 -1.34579,-1.052613 -0.78138,0 -1.47622,0 -1.47622,0.99352 -0.51661,2.914075 -0.60573,7.320274 -5.16613,7.320274 -5.50968,0 -5.55359,-7.202087 -5.55359,-12.843721 h 13.88526 c 0.30609,-8.99707 -1.82364,-15.139157 -8.45952,-15.139157 z M 228.64,44.123339 h -9.93707 c -0.0865,-5.399718 0.64578,-11.045046 4.9892,-11.045046 4.34342,0 5.15709,5.5216 4.94139,11.045046 z M 124.51147,37.918464 v -0.125585 c 4.07867,-0.989826 6.1167,-3.721078 6.1167,-9.802225 0,-9.493829 -4.29434,-10.359925 -9.80662,-10.359925 -1.17141,0 -6.33496,0.121872 -7.59291,0.121872 -2.03933,-0.05909 -4.07867,-0.05909 -6.11799,-0.121872 v 2.108917 c 4.20781,0 4.16648,0.867944 4.16648,4.221532 V 54.35953 c 0,3.349894 0.0413,4.221532 -4.16648,4.221532 v 2.105225 c 2.03932,-0.05909 4.07866,-0.05909 6.11799,-0.121885 2.16849,0.06278 4.38346,0.06278 6.55194,0.121885 2.25632,-0.121885 5.90231,-0.308398 7.94034,-1.859616 3.03768,-2.232647 3.73255,-5.582542 3.73255,-10.238044 -0.005,-6.825362 -2.26407,-9.925953 -6.94845,-10.670169 z m -9.33003,-17.619259 c 1.52013,-0.123735 3.03769,-0.310244 4.59914,-0.310244 4.73089,0 6.50934,1.239128 6.50934,8.494769 0,5.333237 -1.43232,8.372888 -5.20617,8.372888 h -5.90231 z m 8.59129,37.037195 c -2.04282,0.720892 -4.14809,1.013264 -6.24975,0.867944 l -2.34154,-0.184671 V 39.222227 h 5.03698 c 4.85874,0 6.85544,1.983345 6.85544,9.242678 -0.01,3.661985 -0.40036,7.818881 -3.30761,8.871495 z m 58.55161,-3.039651 V 41.763272 c 0,-6.760729 -0.64576,-10.67017 -6.19936,-10.67017 -3.42772,0 -4.72829,1.180034 -7.2894,4.094108 v -3.471775 h -7.2158 v 1.861463 c 3.55947,0.18467 3.86169,0.432125 3.86169,4.402508 v 16.317343 c 0,4.468988 -0.60573,4.094109 -3.86169,4.406199 v 1.983345 c 1.86627,-0.05909 3.73253,-0.05909 5.64273,-0.121885 1.90757,0.06278 3.77385,0.06278 5.46574,0.121885 v -1.983345 c -3.55817,0 -3.6886,-0.923343 -3.6886,-4.406199 V 43.006093 c 0,-5.458813 0.86918,-9.183585 5.29528,-9.183585 4.38216,0 4.42735,4.343413 4.42735,9.491981 v 10.98226 c 0,4.343413 -0.56568,4.094109 -3.73252,4.406199 v 1.983345 c 1.73581,-0.05909 3.60209,-0.05909 5.50969,-0.121885 1.91017,0.06278 3.77644,0.06278 5.55358,0.121885 v -1.983345 c -3.6008,0 -3.76998,-0.873483 -3.76998,-4.406199 z m -26.65593,0.06279 V 31.715435 h -7.20418 v 1.861463 c 3.47165,0 3.64341,0.923345 3.64341,4.341566 v 10.051529 c 0,5.769056 -0.25831,10.611075 -5.29528,10.611075 -4.12257,0 -4.38216,-3.599198 -4.38216,-8.504002 V 31.715435 h -7.42116 v 1.861463 c 3.68862,0 3.86299,0.80331 3.86299,4.341566 v 15.447554 c 0,6.143933 2.60244,7.818881 6.50673,7.818881 2.52918,-0.06104 4.94192,-1.530546 6.72501,-4.095956 v 3.59735 c 1.17401,-0.05909 2.34543,-0.05909 3.51684,-0.121885 1.30059,0.06278 2.55982,0.06278 3.90301,0.121885 v -1.983345 c -3.677,0 -3.85521,-0.807002 -3.85521,-4.343411 z m 130.43187,0 V 40.839927 c 0,-7.255641 -1.86628,-9.739439 -7.07372,-9.739439 -3.16813,0 -7.2016,1.05446 -7.68075,6.57606 -0.17177,1.861462 0.17436,3.104285 1.34578,3.163379 0.82528,0 1.86625,-0.184669 1.86625,-1.610313 0,-3.8485 0.25832,-6.01836 3.94822,-6.01836 2.38675,0 4.03603,1.239128 4.03603,4.65181 v 6.267663 c -4.77865,0 -12.23727,-1.36655 -12.23727,8.3101 0,6.701634 2.56111,8.679437 6.98591,8.679437 1.99922,0.02763 3.93365,-1.012891 5.42444,-2.917767 v 2.481949 c 1.13009,-0.05909 2.2563,-0.05909 3.38639,-0.121886 1.30058,0.06278 2.55853,0.06278 3.42773,0.121886 v -1.981498 c -3.08289,-0.249301 -3.42901,-0.504144 -3.42901,-4.343411 z m -3.5543,-2.232647 c 0,4.838325 -0.99965,6.699788 -4.77868,6.699788 -2.73546,0 -3.73122,-2.729407 -3.73122,-6.267662 0,-5.953726 2.55981,-6.389546 6.11799,-6.389546 h 2.39191 z m 20.39846,4.094109 c -1.73582,0 -3.47164,0.249303 -5.38181,0.369338 -2.42809,0.121885 -2.94857,-2.854982 -2.12587,-6.648081 1.30785,0.998784 2.77037,1.51126 4.25302,1.490279 4.59785,0 8.93999,-2.729406 8.93999,-10.175256 0.0109,-2.639479 -0.62014,-5.202322 -1.7849,-7.250102 l 3.64471,0.18467 -0.0865,-2.664773 -0.51661,-0.125573 -4.59915,0.738675 c -1.65963,-0.71832 -3.38566,-1.073821 -5.11963,-1.054459 -4.47129,0 -8.1147,3.414528 -8.1147,10.298985 -0.0436,2.864992 0.79786,5.611917 2.30022,7.508636 -1.20172,3.70284 -1.18609,7.979027 0.0426,11.663689 -2.16849,1.922403 -3.34248,3.783865 -3.34248,7.632365 0,6.697941 5.94104,7.877976 9.46047,7.877976 4.59914,0 10.10882,-3.783866 10.10882,-11.290657 -0.003,-7.131912 -3.34248,-8.55571 -7.68204,-8.55571 z m -2.60501,-23.083612 c 3.6886,0 4.59915,3.783867 4.59915,8.06449 0,4.842019 -1.17144,8.125432 -4.59915,8.125432 -3.47166,0 -4.64953,-3.28526 -4.64953,-8.125432 0.002,-4.771843 1.17401,-8.060798 4.64564,-8.060798 z m 0.30479,40.885695 c -2.64633,0 -5.68275,-1.240976 -6.55324,-5.272299 -0.43265,-2.607523 0.43397,-5.213202 1.56405,-7.818879 h 6.72501 c 1.73582,-0.121885 3.73253,-0.121885 4.72959,2.295433 2.07807,6.703481 -2.95502,10.799438 -6.46929,10.799438 z M 266.74665,58.141553 c -0.66165,0.388996 -1.36798,0.599374 -2.08324,0.620486 -2.73418,0 -2.86461,-3.846652 -2.86461,-6.832748 V 34.071812 h 4.90781 V 31.715435 H 261.7988 V 21.165302 l -3.55818,2.173553 v 8.37658 h -3.38381 v 2.356377 h 3.38381 v 17.556472 c 0,5.087628 0.17435,9.556615 4.64953,9.556615 1.77433,-0.09695 3.51628,-0.709578 5.11963,-1.800522 l -0.51662,-1.737733 z m -58.68594,-3.8485 V 14.33994 h -7.42373 v 1.987038 c 3.55818,0.184669 3.86298,0.494912 3.86298,4.406198 v 13.774455 c -1.64642,-2.362528 -3.921,-3.605235 -6.24974,-3.414529 -6.98459,0 -9.06784,7.386756 -9.06784,16.250863 0,8.376583 2.86333,13.835395 8.9387,13.835395 2.46967,0.158567 4.84245,-1.38769 6.37888,-4.156898 v 3.658291 c 1.1714,-0.05909 2.38674,-0.05909 3.55688,-0.121885 1.30186,0.06278 2.56112,0.06278 3.86298,0.121885 v -1.977805 c -3.68863,0 -3.86298,-0.807002 -3.86298,-4.406199 z m -3.65246,-5.205817 c 0,5.708116 -1.25923,9.924107 -5.72794,9.924107 -4.4248,0 -5.64012,-6.326756 -5.64012,-11.539959 0,-6.016513 0.0412,-14.143791 5.68275,-14.143791 5.3805,0 5.68273,5.150415 5.68273,11.539959 z m 38.45798,-6.330449 c -1.35884,-0.446971 -2.37956,-2.055982 -2.55854,-4.033169 0,-3.595504 0.69227,-5.333237 4.07866,-5.519753 3.77386,0 3.47164,2.356374 3.77386,6.884455 h 2.30022 v -7.442153 c -1.70832,-1.072489 -3.55902,-1.602361 -5.42443,-1.553065 -4.38217,0 -7.94033,2.356375 -7.94033,9.307312 0,5.024842 2.77677,6.326757 5.55357,7.386757 2.7768,1.059998 5.5536,1.861462 5.5536,5.769056 0,3.970382 -2.60245,5.645329 -5.03698,5.645329 -4.64307,0 -3.99343,-4.09411 -4.29435,-8.001704 h -2.2576 v 8.251006 c 1.56357,1.177388 3.30878,1.774883 5.07572,1.737734 4.51262,0 9.72137,-1.108012 9.72137,-9.244523 0.009,-7.141148 -4.89878,-7.512332 -8.53962,-9.187279 z"
       id="path9" />
  </g>
  <g
     id="g15"
     style="fill:#ffffff"
     transform="translate(0,0.01208951)">
    <path
       style="opacity:1;fill:#ffffff"
       fill="#ffffff"
       d="m 35.277,77.74 a 2.48,2.48 0 0 0 4.96,0 V 67.482 c -1.815,1.587 -3.527,3.021 -4.96,4.191 z M 10.1,47.091 C 11.089,46.333 22.817,36.266 28.747,31.158 a 14.761,14.761 0 0 1 -2.94,-5.974 C 15.971,33.382 0.3,46.285 0.111,46.447 A 7.706,7.706 0 0 0 10.1,47.091 Z M 0,35.388 a 7.8,7.8 0 0 0 10.217,0.6 c 0.507,-0.381 9.985,-7.992 15.322,-12.291 a 16.949,16.949 0 0 1 -0.133,-1.835 c 0,-0.05 -0.021,-1.044 -0.021,-1.044 V 15.2 C 15.452,23.117 0.194,35.233 0,35.388 Z m 12.721,20.579 c 0.415,-0.366 10.843,-9.886 17.032,-15.527 0.582,-2.115 1.2,-4.307 1.864,-6.554 A 15.552,15.552 0 0 1 29.451,31.962 C 19.807,40.561 2.723,55.8 2.519,55.981 A 7.559,7.559 0 0 0 12.721,55.967 Z M 75.51,75.433 C 74.858,75.133 70.262,72.754 70.262,72.754 68.374,62.063 66.275,53.1 64.527,46.447 63.537,42.283 62.432,37.806 61.234,33.164 a 13.733,13.733 0 0 0 6.11,-11.33 c 0,0 0.026,-0.571 0.026,-1.019 v -8.761 l 25.756,20 C 92.626,29.72 89.559,19.545 79.104,9.607 c 0,0 -8.768,-8.341 -14.257,-8.341 -0.925,0 -5.063,0.313 -5.063,6.123 v 10.463 c 0,0 0.033,2.159 -1.7,2.159 h -0.42 C 56.648,16.438 55.584,12.841 54.475,9.278 54.332,8.812 54.183,8.348 54.039,7.886 52.565,3.1 50.347,1.642 48.819,0.9 A 10.737,10.737 0 0 0 43.979,0 c -5.693,0.092 -6.806,2.292 -6.885,3.1 a 12.251,12.251 0 0 0 0.4,3.584 2.454,2.454 0 0 1 0.429,-1.423 2.944,2.944 0 0 1 2.277,-0.866 h 4.157 c 0,0 0.518,0 0.518,0.418 0,0.418 -0.518,0.424 -0.518,0.424 h -3.8 a 2.474,2.474 0 0 0 -1.832,0.589 1,1 0 0 0 -0.11,0.142 c 0.045,-0.02 0.093,-0.037 0.147,-0.056 a 2.525,2.525 0 0 1 0.814,-0.033 c 0.524,0.079 2.108,0.605 2.057,1.847 A 1.88,1.88 0 0 1 41.526,8.28 c -1.516,3.987 -2.915,7.913 -4.209,11.731 h -1.4 c -1.728,0 -1.7,-2.159 -1.7,-2.159 V 7.391 c 0,-5.81 -4.135,-6.123 -5.06,-6.123 -5.489,0 -14.26,8.341 -14.26,8.341 C 4.45,19.547 1.386,29.722 0.885,32.056 l 25.756,-20 v 8.761 c 0,0.448 0.02,1.019 0.02,1.019 a 13.727,13.727 0 0 0 6.421,11.521 333.972,333.972 0 0 0 -9.336,39.4 c 0,0 -4.593,2.375 -5.246,2.679 a 1.47,1.47 0 0 0 -0.753,2.068 1.455,1.455 0 0 0 1,0.844 c 0,0 -0.657,-0.975 0.106,-1.332 l 4.051,-1.7 c 0,0 -1.933,2.5 -2.388,3.057 a 1.474,1.474 0 0 0 0.223,2.192 1.445,1.445 0 0 0 1.261,0.319 c 0,0 -1.019,-0.594 -0.487,-1.246 l 3.2,-3.483 c 0,0 -0.913,2.794 -1.188,3.46 a 1.558,1.558 0 0 0 2.156,1.972 c 0,0 -1.148,-0.268 -0.828,-1.047 l 0.892,-1.981 c 0,0 0.8,-1.913 1.9,-2.1 l 0.6,-0.092 a 8.015,8.015 0 0 1 3.365,-0.025 c 0.917,0.313 0.283,1.518 0.283,1.518 a 1.676,1.676 0 0 0 1.046,-1.093 1.888,1.888 0 0 0 -1.128,-2.284 c -0.771,-0.36 -1.328,-0.6 -1.328,-0.6 A 171.431,171.431 0 0 0 47,59.385 a 171.381,171.381 0 0 0 16.518,14.5 c 0,0 -0.56,0.244 -1.33,0.6 a 1.891,1.891 0 0 0 -1.124,2.284 1.68,1.68 0 0 0 1.045,1.093 c 0,0 -0.638,-1.2 0.283,-1.518 a 8.017,8.017 0 0 1 3.365,0.025 l 0.6,0.092 c 1.1,0.185 1.895,2.1 1.895,2.1 l 0.895,1.981 c 0.32,0.779 -0.828,1.047 -0.828,1.047 a 1.454,1.454 0 0 0 1.307,0.056 1.469,1.469 0 0 0 0.85,-2.028 c -0.275,-0.666 -1.192,-3.46 -1.192,-3.46 l 3.2,3.483 c 0.533,0.652 -0.485,1.246 -0.485,1.246 a 1.447,1.447 0 0 0 1.266,-0.326 1.469,1.469 0 0 0 0.22,-2.192 C 73.028,77.81 71.099,75.311 71.099,75.311 l 4.054,1.7 c 0.762,0.357 0.1,1.332 0.1,1.332 a 1.455,1.455 0 0 0 1,-0.844 1.472,1.472 0 0 0 -0.743,-2.066 z M 43.4,3.066 A 1.069,1.069 0 1 1 44.467,2 1.069,1.069 0 0 1 43.4,3.066 Z M 32.913,23.385 a 2.042,2.042 0 0 1 0.121,-0.7 1.244,1.244 0 0 0 2.241,0 2.008,2.008 0 0 1 0.126,0.7 A 1.465,1.465 0 0 1 34.155,25 1.462,1.462 0 0 1 32.913,23.385 Z m 0.121,22.255 a 1.244,1.244 0 0 0 2.241,0 2.016,2.016 0 0 1 0.126,0.709 1.463,1.463 0 0 1 -1.246,1.612 1.46,1.46 0 0 1 -1.242,-1.612 2.04,2.04 0 0 1 0.121,-0.709 z m -3.066,19.532 a 1.467,1.467 0 0 1 -1.245,-1.616 2.031,2.031 0 0 1 0.127,-0.7 1.241,1.241 0 0 0 2.238,0 2.03,2.03 0 0 1 0.126,0.709 1.468,1.468 0 0 1 -1.246,1.607 z m 4.187,-5.733 a 1.462,1.462 0 0 1 -1.242,-1.615 2.009,2.009 0 0 1 0.121,-0.7 1.245,1.245 0 0 0 2.241,0 1.987,1.987 0 0 1 0.126,0.706 1.465,1.465 0 0 1 -1.246,1.609 z m 2.239,5.733 a 1.465,1.465 0 0 1 -1.243,-1.616 2.007,2.007 0 0 1 0.124,-0.7 1.244,1.244 0 0 0 2.241,0 2.053,2.053 0 0 1 0.125,0.709 1.469,1.469 0 0 1 -1.247,1.607 z M 37.365,53.7 a 1.463,1.463 0 0 1 -1.242,-1.616 2.065,2.065 0 0 1 0.121,-0.7 1.246,1.246 0 0 0 2.242,0 2.033,2.033 0 0 1 0.124,0.7 1.466,1.466 0 0 1 -1.245,1.616 z m 0,-11.474 a 1.467,1.467 0 0 1 -1.242,-1.616 2.05,2.05 0 0 1 0.121,-0.7 1.246,1.246 0 0 0 2.242,-0.005 2.024,2.024 0 0 1 0.124,0.709 1.469,1.469 0 0 1 -1.245,1.61 z m 0,-11.484 a 1.461,1.461 0 0 1 -1.242,-1.614 2.053,2.053 0 0 1 0.121,-0.7 1.246,1.246 0 0 0 2.242,0 2.034,2.034 0 0 1 0.124,0.705 1.464,1.464 0 0 1 -1.245,1.607 z m 3.213,28.7 a 1.464,1.464 0 0 1 -1.242,-1.615 2.009,2.009 0 0 1 0.123,-0.7 1.245,1.245 0 0 0 2.241,0 2.032,2.032 0 0 1 0.123,0.706 1.464,1.464 0 0 1 -1.245,1.606 z m 0,-11.481 a 1.462,1.462 0 0 1 -1.242,-1.612 2.04,2.04 0 0 1 0.123,-0.706 1.244,1.244 0 0 0 2.241,0 2.061,2.061 0 0 1 0.123,0.709 1.463,1.463 0 0 1 -1.245,1.606 z m 0,-11.474 a 1.467,1.467 0 0 1 -1.242,-1.614 2.033,2.033 0 0 1 0.123,-0.707 1.244,1.244 0 0 0 2.241,0 2.025,2.025 0 0 1 0.123,0.707 1.467,1.467 0 0 1 -1.245,1.611 z m 0,-11.482 a 1.464,1.464 0 0 1 -1.242,-1.617 2.042,2.042 0 0 1 0.123,-0.7 1.244,1.244 0 0 0 2.241,0 2.054,2.054 0 0 1 0.123,0.7 A 1.465,1.465 0 0 1 40.578,25 Z m 3.213,28.7 a 1.465,1.465 0 0 1 -1.245,-1.616 2.019,2.019 0 0 1 0.126,-0.7 1.244,1.244 0 0 0 2.239,0 1.944,1.944 0 0 1 0.126,0.7 1.468,1.468 0 0 1 -1.246,1.611 z m 0,-11.474 a 1.469,1.469 0 0 1 -1.245,-1.616 2,2 0 0 1 0.126,-0.7 1.243,1.243 0 0 0 2.239,-0.005 1.937,1.937 0 0 1 0.126,0.709 1.472,1.472 0 0 1 -1.246,1.605 z m 0,-11.484 a 1.463,1.463 0 0 1 -1.245,-1.614 2.006,2.006 0 0 1 0.126,-0.7 1.244,1.244 0 0 0 2.239,0 1.946,1.946 0 0 1 0.126,0.705 1.466,1.466 0 0 1 -1.246,1.602 z m 0,-11.476 a 1.466,1.466 0 0 1 -1.245,-1.614 2.046,2.046 0 0 1 0.126,-0.707 1.244,1.244 0 0 0 2.241,0 2,2 0 0 1 0.124,0.71 1.469,1.469 0 0 1 -1.246,1.604 z M 47,47.958 a 1.459,1.459 0 0 1 -1.239,-1.612 2.04,2.04 0 0 1 0.121,-0.706 1.242,1.242 0 0 0 2.238,0 1.971,1.971 0 0 1 0.125,0.709 A 1.462,1.462 0 0 1 47,47.958 Z m 0,-11.474 a 1.463,1.463 0 0 1 -1.239,-1.614 2.033,2.033 0 0 1 0.121,-0.707 1.242,1.242 0 0 0 2.238,0 1.937,1.937 0 0 1 0.125,0.707 A 1.467,1.467 0 0 1 47,36.484 Z M 47,25 a 1.461,1.461 0 0 1 -1.239,-1.617 2.042,2.042 0 0 1 0.121,-0.7 1.242,1.242 0 0 0 2.238,0 1.964,1.964 0 0 1 0.125,0.7 A 1.464,1.464 0 0 1 47,25 Z m 8.518,3.424 a 1.246,1.246 0 0 0 2.242,0 2.034,2.034 0 0 1 0.124,0.705 1.286,1.286 0 1 1 -2.487,0 2.053,2.053 0 0 1 0.125,-0.703 z m 0,11.478 a 1.246,1.246 0 0 0 2.242,-0.005 2.024,2.024 0 0 1 0.124,0.709 1.286,1.286 0 1 1 -2.487,0 2.05,2.05 0 0 1 0.125,-0.706 z M 50.216,53.7 a 1.463,1.463 0 0 1 -1.242,-1.616 2.066,2.066 0 0 1 0.122,-0.7 1.246,1.246 0 0 0 2.242,0 2.033,2.033 0 0 1 0.125,0.7 1.465,1.465 0 0 1 -1.247,1.616 z m 0,-11.474 a 1.467,1.467 0 0 1 -1.242,-1.616 2.05,2.05 0 0 1 0.122,-0.7 1.246,1.246 0 0 0 2.242,-0.005 2.024,2.024 0 0 1 0.125,0.709 1.469,1.469 0 0 1 -1.247,1.61 z m 0,-11.484 a 1.462,1.462 0 0 1 -1.242,-1.614 2.053,2.053 0 0 1 0.122,-0.7 1.246,1.246 0 0 0 2.242,0 2.035,2.035 0 0 1 0.125,0.705 1.464,1.464 0 0 1 -1.247,1.607 z m 0,-11.476 a 1.465,1.465 0 0 1 -1.242,-1.614 2.094,2.094 0 0 1 0.122,-0.707 1.245,1.245 0 0 0 2.242,0 2.046,2.046 0 0 1 0.125,0.71 1.467,1.467 0 0 1 -1.247,1.609 z m 3.213,40.175 a 1.464,1.464 0 0 1 -1.245,-1.615 2.009,2.009 0 0 1 0.125,-0.7 1.244,1.244 0 0 0 2.239,0 2.032,2.032 0 0 1 0.125,0.706 1.464,1.464 0 0 1 -1.244,1.607 z m 0,-11.481 a 1.463,1.463 0 0 1 -1.244,-1.612 2.04,2.04 0 0 1 0.122,-0.706 1.246,1.246 0 0 0 2.243,0 2.062,2.062 0 0 1 0.125,0.709 1.463,1.463 0 0 1 -1.244,1.607 z m 0,-11.474 a 1.468,1.468 0 0 1 -1.245,-1.614 1.988,1.988 0 0 1 0.125,-0.707 1.244,1.244 0 0 0 2.24,0 2.025,2.025 0 0 1 0.125,0.707 1.467,1.467 0 0 1 -1.242,1.612 z m 0,-11.482 a 1.465,1.465 0 0 1 -1.244,-1.617 2.042,2.042 0 0 1 0.122,-0.7 1.246,1.246 0 0 0 2.243,0 2.054,2.054 0 0 1 0.125,0.7 A 1.465,1.465 0 0 1 53.431,25 Z m 1.97,27.08 a 2.065,2.065 0 0 1 0.121,-0.7 1.246,1.246 0 0 0 2.242,0 2.033,2.033 0 0 1 0.124,0.7 1.286,1.286 0 1 1 -2.487,0 z m 2.209,13.1 a 1.468,1.468 0 0 1 -1.242,-1.614 1.992,1.992 0 0 1 0.127,-0.707 1.244,1.244 0 0 0 2.239,0 2.021,2.021 0 0 1 0.125,0.707 1.468,1.468 0 0 1 -1.247,1.609 z m 2.242,-5.74 a 1.462,1.462 0 0 1 -1.242,-1.615 1.986,1.986 0 0 1 0.124,-0.7 1.244,1.244 0 0 0 2.24,0 2.032,2.032 0 0 1 0.125,0.706 1.465,1.465 0 0 1 -1.245,1.604 z m 0,-11.481 a 1.461,1.461 0 0 1 -1.243,-1.612 2.017,2.017 0 0 1 0.125,-0.706 1.243,1.243 0 0 0 2.24,0 2.061,2.061 0 0 1 0.123,0.709 1.463,1.463 0 0 1 -1.239,1.604 z m 0,-22.956 a 1.463,1.463 0 0 1 -1.243,-1.617 2.02,2.02 0 0 1 0.125,-0.7 1.244,1.244 0 0 0 2.24,0 2.054,2.054 0 0 1 0.123,0.7 1.465,1.465 0 0 1 -1.239,1.61 z m 4.182,40.177 a 1.463,1.463 0 0 1 -1.232,-1.619 2.037,2.037 0 0 1 0.122,-0.707 1.246,1.246 0 0 0 2.242,0 2.021,2.021 0 0 1 0.125,0.707 1.467,1.467 0 0 1 -1.251,1.614 z M 26.109,54.817 C 26.934,51.263 27.918,47.289 29.066,42.983 19.745,51.668 6.269,64.191 6.1,64.348 A 8.051,8.051 0 0 0 16.267,63.99 c 0.463,-0.41 5.346,-4.955 9.842,-9.173 z M 23.2,68.625 C 23.7,65.946 24.485,61.989 25.593,57.073 19.045,63.466 11.512,70.926 11.4,71.034 a 7.283,7.283 0 0 0 9.806,-0.5 C 21.3,70.446 22.153,69.627 23.2,68.625 Z m 18.22,8.919 a 2.484,2.484 0 0 0 4.967,0 V 61.793 c -1.623,1.6 -3.319,3.176 -4.967,4.642 z m 6.2,0 a 2.486,2.486 0 0 0 4.971,0 V 66.435 C 50.944,64.969 49.246,63.394 47.62,61.793 Z m 23.154,-8.959 c 1.062,1.02 1.937,1.859 2.029,1.945 a 7.294,7.294 0 0 0 9.812,0.5 C 82.498,70.922 74.944,63.444 68.395,57.048 q 1.275,5.682 2.379,11.537 z m -8.112,-34.9 q 0.876,3.39 1.735,6.884 c 6.2,5.657 16.482,15.035 16.892,15.4 a 7.556,7.556 0 0 0 10.2,0.014 C 91.289,55.801 74.205,40.559 64.557,31.964 a 15.087,15.087 0 0 1 -1.895,1.72 z m 3.087,12.469 q 1.116,4.246 2.133,8.646 c 4.5,4.225 9.4,8.783 9.859,9.2 a 8.048,8.048 0 0 0 10.167,0.358 C 87.742,64.191 74.32,51.719 65,43.031 c 0.25,1.039 0.5,2.077 0.749,3.122 z m -0.491,-15 c 5.929,5.108 17.661,15.177 18.651,15.935 A 7.707,7.707 0 0 0 93.9,46.445 C 93.708,46.283 78.04,33.38 68.2,25.182 a 14.753,14.753 0 0 1 -2.942,5.974 z M 53.773,77.74 a 2.481,2.481 0 0 0 4.961,0 v -6.067 c -1.436,-1.17 -3.145,-2.6 -4.961,-4.191 z M 68.626,20.815 c 0,0 -0.022,0.994 -0.024,1.044 a 16.177,16.177 0 0 1 -0.131,1.832 C 73.8,27.989 83.287,35.6 83.793,35.985 a 7.8,7.8 0 0 0 10.217,-0.6 C 93.817,35.23 78.557,23.114 68.626,15.199 Z"
       id="path13" />
  </g>
</svg>
