<?xml version="1.0" encoding="UTF-8"?>
<!DOCTYPE svg PUBLIC "-//W3C//DTD SVG 1.1//EN" "http://www.w3.org/Graphics/SVG/1.1/DTD/svg11.dtd">
<svg xmlns="http://www.w3.org/2000/svg" version="1.1" width="235px" height="80px" style="shape-rendering:geometricPrecision; text-rendering:geometricPrecision; image-rendering:optimizeQuality; fill-rule:evenodd; clip-rule:evenodd" xmlns:xlink="http://www.w3.org/1999/xlink">
<g><path style="opacity:1" fill="#000000" d="M 78.5,1.5 C 78.5,26.8333 78.5,52.1667 78.5,77.5C 53.1667,77.5 27.8333,77.5 2.5,77.5C 2.5,52.1667 2.5,26.8333 2.5,1.5C 27.8333,1.5 53.1667,1.5 78.5,1.5 Z"/></g>
<g><path style="opacity:1" fill="#ffffff" d="M 79.5,1.5 C 104.833,1.5 130.167,1.5 155.5,1.5C 155.5,27.1667 155.5,52.8333 155.5,78.5C 130.167,78.5 104.833,78.5 79.5,78.5C 79.5,52.8333 79.5,27.1667 79.5,1.5 Z"/></g>
<g><path style="opacity:1" fill="#ffffff" d="M 35.5,5.5 C 51.2962,3.90156 63.6296,9.56823 72.5,22.5C 66.4159,26.2926 60.2493,29.9592 54,33.5C 45.4466,24.9459 37.78,25.6126 31,35.5C 30.2166,46.7167 35.3833,51.8834 46.5,51C 49.5616,49.9392 52.0616,48.1059 54,45.5C 60.2493,49.0408 66.4159,52.7074 72.5,56.5C 63.6426,69.592 51.3093,75.092 35.5,73C 15.9905,66.48 7.15714,52.98 9,32.5C 13.3506,18.9836 22.1839,9.98363 35.5,5.5 Z"/></g>
<g><path style="opacity:1" fill="#000000" d="M 128.5,7.5 C 135.5,7.5 142.5,7.5 149.5,7.5C 149.5,28.8333 149.5,50.1667 149.5,71.5C 142.167,71.5 134.833,71.5 127.5,71.5C 120.5,62.9958 113.667,54.3292 107,45.5C 106.5,54.1603 106.334,62.8269 106.5,71.5C 99.1667,71.5 91.8333,71.5 84.5,71.5C 84.5,50.1667 84.5,28.8333 84.5,7.5C 92.1955,7.16917 99.8622,7.50251 107.5,8.5C 114.144,16.9787 120.978,25.312 128,33.5C 128.5,24.8397 128.666,16.1731 128.5,7.5 Z"/></g>
<g><path style="opacity:1" fill="#7a7a7a" d="M 128.5,7.5 C 135.648,6.50837 142.981,6.17503 150.5,6.5C 150.5,28.5 150.5,50.5 150.5,72.5C 142.648,72.8254 134.982,72.492 127.5,71.5C 134.833,71.5 142.167,71.5 149.5,71.5C 149.5,50.1667 149.5,28.8333 149.5,7.5C 142.5,7.5 135.5,7.5 128.5,7.5 Z"/></g>
<g><path style="opacity:1" fill="#ffffff" d="M 163.5,38.5 C 166.167,38.5 168.833,38.5 171.5,38.5C 171.5,42.8333 171.5,47.1667 171.5,51.5C 176.833,51.5 182.167,51.5 187.5,51.5C 187.5,47.1667 187.5,42.8333 187.5,38.5C 190.5,38.5 193.5,38.5 196.5,38.5C 196.5,49.8333 196.5,61.1667 196.5,72.5C 193.5,72.5 190.5,72.5 187.5,72.5C 187.5,68.1667 187.5,63.8333 187.5,59.5C 182.167,59.5 176.833,59.5 171.5,59.5C 171.5,63.8333 171.5,68.1667 171.5,72.5C 168.833,72.5 166.167,72.5 163.5,72.5C 163.5,61.1667 163.5,49.8333 163.5,38.5 Z"/></g>
<g><path style="opacity:1" fill="#ffffff" d="M 197.5,38.5 C 204.508,38.3337 211.508,38.5004 218.5,39C 229.593,43.0207 233.426,50.854 230,62.5C 227.673,67.4232 223.84,70.5899 218.5,72C 211.508,72.4996 204.508,72.6663 197.5,72.5C 197.5,61.1667 197.5,49.8333 197.5,38.5 Z M 205.5,45.5 C 220.091,43.5817 224.758,49.415 219.5,63C 215.116,65.2078 210.449,66.0411 205.5,65.5C 205.5,58.8333 205.5,52.1667 205.5,45.5 Z"/></g>
<g><path style="opacity:1" fill="#7a7a7a" d="M 78.5,1.5 C 78.8333,1.5 79.1667,1.5 79.5,1.5C 79.5,27.1667 79.5,52.8333 79.5,78.5C 53.6612,78.8311 27.9946,78.4978 2.5,77.5C 27.8333,77.5 53.1667,77.5 78.5,77.5C 78.5,52.1667 78.5,26.8333 78.5,1.5 Z"/></g>
</svg>
