<?xml version="1.0" encoding="UTF-8"?>
<!DOCTYPE svg PUBLIC "-//W3C//DTD SVG 1.1//EN" "http://www.w3.org/Graphics/SVG/1.1/DTD/svg11.dtd">
<svg xmlns="http://www.w3.org/2000/svg" version="1.1" width="159px" height="80px" style="shape-rendering:geometricPrecision; text-rendering:geometricPrecision; image-rendering:optimizeQuality; fill-rule:evenodd; clip-rule:evenodd" xmlns:xlink="http://www.w3.org/1999/xlink">
<g><path style="opacity:1" fill="#000000" d="M 78.5,1.5 C 78.5,26.8333 78.5,52.1667 78.5,77.5C 53.1667,77.5 27.8333,77.5 2.5,77.5C 2.5,52.1667 2.5,26.8333 2.5,1.5C 27.8333,1.5 53.1667,1.5 78.5,1.5 Z"/></g>
<g><path style="opacity:1" fill="#ffffff" d="M 79.5,1.5 C 104.833,1.5 130.167,1.5 155.5,1.5C 155.5,27.1667 155.5,52.8333 155.5,78.5C 130.167,78.5 104.833,78.5 79.5,78.5C 79.5,52.8333 79.5,27.1667 79.5,1.5 Z"/></g>
<g><path style="opacity:1" fill="#ffffff" d="M 35.5,5.5 C 51.2962,3.90156 63.6296,9.56823 72.5,22.5C 66.4159,26.2926 60.2493,29.9592 54,33.5C 45.4466,24.9459 37.78,25.6126 31,35.5C 30.2166,46.7167 35.3833,51.8834 46.5,51C 49.5616,49.9392 52.0616,48.1059 54,45.5C 60.2493,49.0408 66.4159,52.7074 72.5,56.5C 63.6426,69.592 51.3093,75.092 35.5,73C 15.9905,66.48 7.15714,52.98 9,32.5C 13.3506,18.9836 22.1839,9.98363 35.5,5.5 Z"/></g>
<g><path style="opacity:1" fill="#000000" d="M 128.5,7.5 C 135.5,7.5 142.5,7.5 149.5,7.5C 149.5,28.8333 149.5,50.1667 149.5,71.5C 142.167,71.5 134.833,71.5 127.5,71.5C 120.5,62.9958 113.667,54.3292 107,45.5C 106.5,54.1603 106.334,62.8269 106.5,71.5C 99.1667,71.5 91.8333,71.5 84.5,71.5C 84.5,50.1667 84.5,28.8333 84.5,7.5C 92.1955,7.16917 99.8622,7.50251 107.5,8.5C 114.144,16.9787 120.978,25.312 128,33.5C 128.5,24.8397 128.666,16.1731 128.5,7.5 Z"/></g>
<g><path style="opacity:1" fill="#000000" d="M 128.5,7.5 C 135.648,6.50837 142.981,6.17503 150.5,6.5C 150.5,28.5 150.5,50.5 150.5,72.5C 142.648,72.8254 134.982,72.492 127.5,71.5C 134.833,71.5 142.167,71.5 149.5,71.5C 149.5,50.1667 149.5,28.8333 149.5,7.5C 142.5,7.5 135.5,7.5 128.5,7.5 Z"/></g>
</svg>
