<?xml version="1.0" encoding="UTF-8"?>
<!DOCTYPE svg PUBLIC "-//W3C//DTD SVG 1.1//EN" "http://www.w3.org/Graphics/SVG/1.1/DTD/svg11.dtd">
<svg xmlns="http://www.w3.org/2000/svg" version="1.1" width="924px" height="182px" style="shape-rendering:geometricPrecision; text-rendering:geometricPrecision; image-rendering:optimizeQuality; fill-rule:evenodd; clip-rule:evenodd" xmlns:xlink="http://www.w3.org/1999/xlink">
<g><path style="opacity:1" fill="#ffffff" d="M 79.5,0.5 C 276.928,0.563577 473.928,0.89691 670.5,1.5C 646.782,60.3602 623.115,119.027 599.5,177.5C 584.258,177.667 568.925,177.667 553.5,177.5C 558.858,160.773 565.358,144.44 573,128.5C 581.796,106.842 590.796,84.842 600,62.5C 600.977,60.26 601.477,57.9267 601.5,55.5C 593.58,55.185 585.747,55.5183 578,56.5C 570.595,75.5492 563.095,94.5492 555.5,113.5C 547.408,94.9786 539.575,76.3119 532,57.5C 531.5,57 531,56.5 530.5,56C 522.841,55.5003 515.174,55.3336 507.5,55.5C 519.125,84.9225 531.458,114.089 544.5,143C 539.005,153.991 534.338,165.324 530.5,177C 396.793,177.652 263.293,178.152 130,178.5C 89.2336,177.836 48.4003,177.169 7.5,176.5C 21.4234,143.332 34.7567,109.999 47.5,76.5C 58.1257,52.1888 68.7924,26.8554 79.5,0.5 Z M 411.5,21.5 C 425.653,20.6416 430.987,26.9749 427.5,40.5C 421.871,47.3279 415.204,48.6612 407.5,44.5C 403.188,39.0848 402.355,33.0848 405,26.5C 406.965,24.4497 409.132,22.783 411.5,21.5 Z M 475.5,29.5 C 476.5,29.5 477.5,29.5 478.5,29.5C 478.5,38.5 478.5,47.5 478.5,56.5C 484.5,56.5 490.5,56.5 496.5,56.5C 496.5,62.5 496.5,68.5 496.5,74.5C 490.364,74.3586 484.531,74.6919 479,75.5C 478.833,82.8333 478.667,90.1667 478.5,97.5C 478.379,105.906 478.879,114.239 480,122.5C 481.319,124.487 483.152,125.654 485.5,126C 488.89,126.246 492.223,126.746 495.5,127.5C 496.496,133.798 496.83,140.132 496.5,146.5C 486.341,147.168 476.675,145.335 467.5,141C 461.858,135.757 458.691,129.257 458,121.5C 457.5,106.17 457.333,90.837 457.5,75.5C 452.167,75.5 446.833,75.5 441.5,75.5C 441.5,69.1667 441.5,62.8333 441.5,56.5C 446.833,56.5 452.167,56.5 457.5,56.5C 457.334,51.8215 457.501,47.1548 458,42.5C 464.169,38.5114 470.002,34.178 475.5,29.5 Z M 186.5,32.5 C 193.422,32.1878 200.256,32.5212 207,33.5C 207.667,70.8333 207.667,108.167 207,145.5C 200.256,146.479 193.422,146.812 186.5,146.5C 186.5,108.5 186.5,70.5 186.5,32.5 Z M 119.5,56.5 C 142.812,53.9881 160.146,62.8214 171.5,83C 165.947,86.0759 160.114,88.5759 154,90.5C 144.265,76.5904 131.432,72.7571 115.5,79C 102.106,88.4064 98.9393,100.573 106,115.5C 117.456,128.215 130.623,130.382 145.5,122C 148.453,118.592 151.287,115.092 154,111.5C 160.028,113.764 165.861,116.431 171.5,119.5C 160.954,140.442 143.954,149.275 120.5,146C 95.5514,140.046 82.7181,124.213 82,98.5C 85.0794,75.9631 97.5794,61.9631 119.5,56.5 Z M 257.5,56.5 C 271.033,54.6667 283.033,58 293.5,66.5C 294.487,63.2317 294.82,59.8984 294.5,56.5C 301.5,56.5 308.5,56.5 315.5,56.5C 315.5,86.5 315.5,116.5 315.5,146.5C 308.833,146.5 302.167,146.5 295.5,146.5C 295.666,142.486 295.499,138.486 295,134.5C 293,135.833 291,137.167 289,138.5C 288.586,138.043 288.086,137.709 287.5,137.5C 283.933,142.369 279.099,145.035 273,145.5C 251.615,148.474 235.615,140.474 225,121.5C 217.412,101.028 220.912,82.8615 235.5,67C 242.281,62.1074 249.614,58.6074 257.5,56.5 Z M 333.5,56.5 C 340.175,56.3337 346.842,56.5004 353.5,57C 354.397,60.6793 354.73,64.1793 354.5,67.5C 361.873,58.0613 371.539,54.5613 383.5,57C 386.874,57.521 389.874,58.8543 392.5,61C 390.78,64.3408 389.28,67.8408 388,71.5C 386.833,72.6667 385.667,73.8333 384.5,75C 376.765,75.8506 369.098,77.184 361.5,79C 358.727,81.3834 356.561,84.2167 355,87.5C 354.5,107.164 354.333,126.831 354.5,146.5C 347.5,146.5 340.5,146.5 333.5,146.5C 333.5,116.5 333.5,86.5 333.5,56.5 Z M 405.5,56.5 C 412.5,56.5 419.5,56.5 426.5,56.5C 426.5,86.5 426.5,116.5 426.5,146.5C 419.578,146.812 412.744,146.479 406,145.5C 406.051,115.695 405.884,86.0286 405.5,56.5 Z"/></g>
<g><path style="opacity:1" fill="#ffffff" d="M 744.5,38.5 C 751.146,39.0927 757.812,39.7593 764.5,40.5C 758.951,53.6533 754.118,66.9866 750,80.5C 746.53,89.0786 743.363,97.7453 740.5,106.5C 750.478,107.499 760.478,107.832 770.5,107.5C 770.5,92.1667 770.5,76.8333 770.5,61.5C 777.681,63.3855 785.014,63.3855 792.5,61.5C 792.5,76.5 792.5,91.5 792.5,106.5C 796.5,106.5 800.5,106.5 804.5,106.5C 803.167,113.5 803.167,120.5 804.5,127.5C 800.5,127.5 796.5,127.5 792.5,127.5C 792.5,135.833 792.5,144.167 792.5,152.5C 785.032,150.854 777.699,151.187 770.5,153.5C 770.5,144.833 770.5,136.167 770.5,127.5C 752.833,127.5 735.167,127.5 717.5,127.5C 718.768,119.487 718.768,111.487 717.5,103.5C 726.789,81.9265 735.789,60.2598 744.5,38.5 Z"/></g>
<g><path style="opacity:1" fill="#ffffff" d="M 814.5,38.5 C 821.833,38.5 829.167,38.5 836.5,38.5C 836.333,59.5026 836.5,80.5026 837,101.5C 849.213,88.6195 860.713,75.1195 871.5,61C 880.5,60.3333 889.5,60.3333 898.5,61C 900.325,62.4659 900.825,64.2992 900,66.5C 889.197,78.3042 878.03,89.8042 866.5,101C 867.227,102.399 867.727,103.899 868,105.5C 880.105,119.596 890.605,134.763 899.5,151C 899.355,151.772 899.022,152.439 898.5,153C 890.479,153.832 882.479,153.665 874.5,152.5C 866.167,141.167 857.833,129.833 849.5,118.5C 845.526,122.138 841.526,125.805 837.5,129.5C 836.669,136.811 836.169,144.144 836,151.5C 835.5,152 835,152.5 834.5,153C 827.842,153.5 821.175,153.666 814.5,153.5C 814.5,115.167 814.5,76.8333 814.5,38.5 Z"/></g>
<g><path style="opacity:1" fill="#ffffff" d="M 261.5,75.5 C 284.986,73.4888 296.153,84.1555 295,107.5C 290.215,122.278 280.048,129.112 264.5,128C 244.891,121.948 238.057,109.114 244,89.5C 248.214,82.7833 254.048,78.1166 261.5,75.5 Z"/></g>
<g><path style="opacity:0.249" fill="#ffffff" d="M 751.5,80.5 C 752.525,80.8966 752.692,81.5632 752,82.5C 751.536,81.9056 751.369,81.2389 751.5,80.5 Z"/></g>
<g><path style="opacity:1" fill="#ffffff" d="M 692.5,137.5 C 693.833,138.167 693.833,138.167 692.5,137.5 Z"/></g>
<g><path style="opacity:1" fill="#ffffff" d="M 649.5,169.5 C 650.833,170.167 650.833,170.167 649.5,169.5 Z"/></g>
<g><path style="opacity:1" fill="#ffffff" d="M 608.5,172.5 C 609.833,173.167 609.833,173.167 608.5,172.5 Z"/></g>
<g><path style="opacity:1" fill="#ffffff" d="M 608.5,174.5 C 609.833,175.167 609.833,175.167 608.5,174.5 Z"/></g>
<g><path style="opacity:1" fill="#ffffff" d="M 601.5,179.5 C 602.833,180.167 602.833,180.167 601.5,179.5 Z"/></g>
</svg>
