<?xml version="1.0" encoding="UTF-8"?>
<!DOCTYPE svg PUBLIC "-//W3C//DTD SVG 1.1//EN" "http://www.w3.org/Graphics/SVG/1.1/DTD/svg11.dtd">
<svg xmlns="http://www.w3.org/2000/svg" version="1.1" width="466px" height="120px" style="shape-rendering:geometricPrecision; text-rendering:geometricPrecision; image-rendering:optimizeQuality; fill-rule:evenodd; clip-rule:evenodd" xmlns:xlink="http://www.w3.org/1999/xlink">
<g><path style="opacity:1" fill="#ffffff" d="M 255.5,1.5 C 265.1,-0.455215 270.767,3.21145 272.5,12.5C 267.109,12.7102 262.109,11.8768 257.5,10C 256.167,10.6667 256.167,11.3333 257.5,12C 261.575,13.0827 265.575,14.416 269.5,16C 274.693,22.26 274.027,27.9267 267.5,33C 259.207,36.0136 252.707,33.847 248,26.5C 247.316,25.2161 247.483,24.0495 248.5,23C 250.833,22.3333 253.167,22.3333 255.5,23C 258.262,26.2253 261.262,26.7253 264.5,24.5C 260.35,22.5275 256.016,20.6942 251.5,19C 246.705,11.7102 248.038,5.87688 255.5,1.5 Z"/></g>
<g><path style="opacity:1" fill="#ffffff" d="M 274.5,1.5 C 282.528,1.16897 290.528,1.5023 298.5,2.5C 300.557,9.3977 297.89,12.0644 290.5,10.5C 290.5,18.1667 290.5,25.8333 290.5,33.5C 287.552,33.7771 284.719,33.4438 282,32.5C 281.5,25.1742 281.334,17.8409 281.5,10.5C 273.766,11.7918 271.433,8.79179 274.5,1.5 Z"/></g>
<g><path style="opacity:1" fill="#ffffff" d="M 302.5,1.5 C 305.167,1.5 307.833,1.5 310.5,1.5C 310.5,12.1667 310.5,22.8333 310.5,33.5C 307.833,33.5 305.167,33.5 302.5,33.5C 302.5,22.8333 302.5,12.1667 302.5,1.5 Z"/></g>
<g><path style="opacity:1" fill="#ffffff" d="M 316.5,1.5 C 319.247,1.18665 321.914,1.51998 324.5,2.5C 328.192,7.02523 331.692,11.6919 335,16.5C 335.221,11.78 335.721,7.11334 336.5,2.5C 339.086,1.51998 341.753,1.18665 344.5,1.5C 344.5,12.1667 344.5,22.8333 344.5,33.5C 341.813,33.6641 339.146,33.4974 336.5,33C 333.028,27.8936 329.194,23.0603 325,18.5C 324.501,23.4889 324.334,28.4889 324.5,33.5C 321.833,33.5 319.167,33.5 316.5,33.5C 316.5,22.8333 316.5,12.1667 316.5,1.5 Z"/></g>
<g><path style="opacity:1" fill="#ffffff" d="M 358.5,1.5 C 368.553,-0.977615 375.22,2.52239 378.5,12C 377.771,13.9922 376.271,14.8256 374,14.5C 370.989,12.685 367.823,11.0183 364.5,9.5C 359.474,10.0198 356.807,12.8532 356.5,18C 358.076,25.103 362.41,27.4364 369.5,25C 368.234,24.6905 367.067,24.1905 366,23.5C 365.231,20.9009 365.398,18.4009 366.5,16C 371.823,15.5006 377.156,15.334 382.5,15.5C 382.664,18.1873 382.497,20.854 382,23.5C 380.989,24.3366 379.822,24.67 378.5,24.5C 377.793,29.7102 374.793,32.8769 369.5,34C 352.985,35.4807 346.151,27.9807 349,11.5C 351.022,6.98004 354.189,3.6467 358.5,1.5 Z"/></g>
<g><path style="opacity:1" fill="#ffffff" d="M 385.5,1.5 C 390.511,1.33407 395.511,1.50074 400.5,2C 407.666,4.83413 410.166,10.0008 408,17.5C 407.215,19.286 406.049,20.786 404.5,22C 406.552,25.6 407.886,29.4333 408.5,33.5C 405.813,33.6641 403.146,33.4974 400.5,33C 399.039,30.5794 397.706,28.0794 396.5,25.5C 395.675,24.6143 394.675,24.281 393.5,24.5C 393.5,27.5 393.5,30.5 393.5,33.5C 390.833,33.5 388.167,33.5 385.5,33.5C 385.5,22.8333 385.5,12.1667 385.5,1.5 Z M 393.5,10.5 C 395.527,10.3379 397.527,10.5045 399.5,11C 400.833,12.3333 400.833,13.6667 399.5,15C 397.527,15.4955 395.527,15.6621 393.5,15.5C 393.5,13.8333 393.5,12.1667 393.5,10.5 Z"/></g>
<g><path style="opacity:1" fill="#ffffff" d="M 421.5,1.5 C 423.924,1.19244 426.257,1.52577 428.5,2.5C 432.243,12.7289 435.577,23.0622 438.5,33.5C 431.954,35.3292 428.621,32.9959 428.5,26.5C 423.345,25.4727 420.345,27.4727 419.5,32.5C 416.349,33.894 413.349,33.7273 410.5,32C 414.4,21.8902 418.066,11.7235 421.5,1.5 Z M 424.5,16.5 C 425.776,17.3864 425.776,18.3864 424.5,19.5C 423.913,18.7666 423.913,17.7666 424.5,16.5 Z"/></g>
<g><path style="opacity:1" fill="#ffffff" d="M 436.5,1.5 C 439.187,1.33591 441.854,1.50258 444.5,2C 447.037,4.90631 449.204,8.07298 451,11.5C 452.96,8.41513 454.793,5.24847 456.5,2C 459.146,1.50258 461.813,1.33591 464.5,1.5C 460.683,12.141 456.016,22.4743 450.5,32.5C 447.572,33.4841 444.572,33.8174 441.5,33.5C 442.458,29.0447 444.125,24.8781 446.5,21C 443.967,15.4321 440.8,10.2655 437,5.5C 436.51,4.20677 436.343,2.87344 436.5,1.5 Z"/></g>
<g><path style="opacity:1" fill="#ffffff" d="M 101.5,16.5 C 102.833,16.5 104.167,16.5 105.5,16.5C 105.5,47.8333 105.5,79.1667 105.5,110.5C 106.5,110.5 107.5,110.5 108.5,110.5C 108.5,112.167 108.5,113.833 108.5,115.5C 98.8333,115.5 89.1667,115.5 79.5,115.5C 79.5,113.833 79.5,112.167 79.5,110.5C 80.5,110.5 81.5,110.5 82.5,110.5C 82.5,85.1667 82.5,59.8333 82.5,34.5C 81.5,34.5 80.5,34.5 79.5,34.5C 79.5,32.8333 79.5,31.1667 79.5,29.5C 89.074,28.7216 96.4073,24.3883 101.5,16.5 Z"/></g>
<g><path style="opacity:1" fill="#ffffff" d="M 39.5,27.5 C 51.2391,26.0191 62.2391,28.1858 72.5,34C 75.9943,35.9841 76.9943,38.8174 75.5,42.5C 62.6606,32.4968 48.6606,30.3301 33.5,36C 31.3834,37.7309 29.8834,39.8976 29,42.5C 27.4009,60.7891 27.0676,79.1225 28,97.5C 29.9305,108.493 36.5971,113.493 48,112.5C 58.241,112.032 67.4077,108.698 75.5,102.5C 76.7691,104.695 76.7691,106.861 75.5,109C 59.4285,119.152 42.7618,120.152 25.5,112C 3.92039,97.1948 -2.24628,77.3615 7,52.5C 14.5268,39.7995 25.3601,31.4661 39.5,27.5 Z"/></g>
<g><path style="opacity:1" fill="#ffffff" d="M 163.5,110.5 C 145.959,119.357 130.459,116.69 117,102.5C 106.071,83.8675 108.904,67.7008 125.5,54C 139.134,46.576 152.468,47.076 165.5,55.5C 166.474,53.2573 166.808,50.924 166.5,48.5C 167.873,48.3433 169.207,48.51 170.5,49C 176.686,56.5934 184.686,60.7601 194.5,61.5C 194.5,63.1667 194.5,64.8333 194.5,66.5C 193.5,66.5 192.5,66.5 191.5,66.5C 191.5,81.1667 191.5,95.8333 191.5,110.5C 192.5,110.5 193.5,110.5 194.5,110.5C 194.5,112.167 194.5,113.833 194.5,115.5C 184.167,115.5 173.833,115.5 163.5,115.5C 163.5,113.833 163.5,112.167 163.5,110.5 Z M 142.5,53.5 C 152.262,53.3 160.095,56.9667 166,64.5C 166.667,76.5 166.667,88.5 166,100.5C 160.316,106.508 153.316,109.841 145,110.5C 139.9,109.73 137.233,106.73 137,101.5C 136.333,88.8333 136.333,76.1667 137,63.5C 137.049,59.0604 138.882,55.727 142.5,53.5 Z M 163.5,110.5 C 164.14,108.668 165.14,108.335 166.5,109.5C 165.675,110.386 164.675,110.719 163.5,110.5 Z"/></g>
<g><path style="opacity:1" fill="#ffffff" d="M 315.5,48.5 C 316.833,48.5 318.167,48.5 319.5,48.5C 319.167,69.1774 319.5,89.8441 320.5,110.5C 322.596,111.62 322.93,113.12 321.5,115C 312.167,115.667 302.833,115.667 293.5,115C 292.397,113.32 292.73,111.82 294.5,110.5C 295.833,95.8333 295.833,81.1667 294.5,66.5C 293.713,65.7579 293.047,64.9246 292.5,64C 297.754,61.3483 303.087,58.6816 308.5,56C 311.039,53.6303 313.372,51.1303 315.5,48.5 Z"/></g>
<g><path style="opacity:1" fill="#ffffff" d="M 409.5,48.5 C 417.927,48.1446 425.427,50.4779 432,55.5C 432.333,53.5 432.667,51.5 433,49.5C 433.725,48.9415 434.558,48.6082 435.5,48.5C 439.284,51.1093 442.951,53.9426 446.5,57C 451.183,59.617 456.183,61.117 461.5,61.5C 461.849,64.0448 461.016,66.0448 459,67.5C 458.5,81.8295 458.333,96.1628 458.5,110.5C 459.5,110.5 460.5,110.5 461.5,110.5C 461.5,112.167 461.5,113.833 461.5,115.5C 451.167,115.5 440.833,115.5 430.5,115.5C 430.66,113.801 430.494,112.134 430,110.5C 412.624,119.334 397.291,116.668 384,102.5C 372.994,83.8587 375.828,67.692 392.5,54C 397.919,50.9333 403.586,49.0999 409.5,48.5 Z M 404.5,68.5 C 405.833,67.8333 405.833,67.1667 404.5,66.5C 402.856,57.3209 406.523,53.1543 415.5,54C 421.911,55.1322 427.411,57.9656 432,62.5C 432.667,75.5 432.667,88.5 432,101.5C 425.762,107.69 418.262,110.524 409.5,110C 407.333,109.167 405.833,107.667 405,105.5C 404.5,93.1712 404.333,80.8378 404.5,68.5 Z"/></g>
<g><path style="opacity:1" fill="#ffffff" d="M 215.5,49.5 C 219.182,49.3347 222.848,49.5014 226.5,50C 231.347,51.7021 236.014,53.0354 240.5,54C 241.632,58.4132 241.799,62.9132 241,67.5C 239.644,68.3802 238.144,68.7135 236.5,68.5C 236.286,59.619 231.62,54.9523 222.5,54.5C 219.482,54.3402 217.482,55.6735 216.5,58.5C 217.194,61.0876 218.36,63.421 220,65.5C 226.333,71.8333 232.667,78.1667 239,84.5C 247.937,103.817 241.77,114.817 220.5,117.5C 213.867,117.012 207.867,114.845 202.5,111C 200.781,109.13 199.781,106.963 199.5,104.5C 202.961,103.889 205.628,105.056 207.5,108C 213.82,111.85 220.32,112.35 227,109.5C 227.823,105.262 227.156,101.262 225,97.5C 218.636,90.8014 211.969,84.4681 205,78.5C 195.488,64.183 198.988,54.5163 215.5,49.5 Z"/></g>
<g><path style="opacity:1" fill="#ffffff" d="M 262.5,49.5 C 266.182,49.3347 269.848,49.5014 273.5,50C 277.96,52.0676 282.627,53.2343 287.5,53.5C 287.5,58.5 287.5,63.5 287.5,68.5C 285.833,68.5 284.167,68.5 282.5,68.5C 283.035,59.1983 278.535,54.5316 269,54.5C 266.108,54.0657 264.275,55.2324 263.5,58C 264.167,61.1662 265.5,63.9995 267.5,66.5C 275.935,73.4314 283.102,81.4314 289,90.5C 291.767,107.422 284.434,116.422 267,117.5C 257.776,116.976 250.61,112.976 245.5,105.5C 246.5,105.167 247.5,104.833 248.5,104.5C 252.34,106.812 256.34,108.978 260.5,111C 275.21,113.089 278.377,107.922 270,95.5C 263.031,89.5319 256.364,83.1986 250,76.5C 243.348,62.4718 247.514,53.4718 262.5,49.5 Z"/></g>
<g><path style="opacity:1" fill="#ffffff" d="M 350.5,49.5 C 359.951,48.3005 368.784,49.9672 377,54.5C 377.808,56.5787 377.641,58.5787 376.5,60.5C 371.448,57.2219 365.948,55.2219 360,54.5C 356.196,54.3996 353.529,56.0662 352,59.5C 349.725,75.9384 350.059,92.2717 353,108.5C 354.686,110.919 357.019,111.919 360,111.5C 366.088,111.454 371.422,109.454 376,105.5C 378.074,108.137 377.907,110.637 375.5,113C 357.623,121.092 342.456,117.592 330,102.5C 319.951,85.0664 322.451,69.5664 337.5,56C 341.776,53.5179 346.109,51.3512 350.5,49.5 Z"/></g>
<g><path style="opacity:0.116" fill="#ffffff" d="M 404.5,66.5 C 405.833,67.1667 405.833,67.8333 404.5,68.5C 403.494,67.6043 403.494,66.9377 404.5,66.5 Z"/></g>
</svg>
