<?xml version="1.0" encoding="utf-8"?>
<!-- Generator: Adobe Illustrator 16.0.2, SVG Export Plug-In . SVG Version: 6.00 Build 0)  -->
<!DOCTYPE svg PUBLIC "-//W3C//DTD SVG 1.0//EN" "http://www.w3.org/TR/2001/REC-SVG-20010904/DTD/svg10.dtd">
<svg version="1.0" id="Ebene_1" xmlns="http://www.w3.org/2000/svg" xmlns:xlink="http://www.w3.org/1999/xlink" x="0px" y="0px"
	 width="505px" height="126px" viewBox="0 0 505 126" enable-background="new 0 0 505 126" xml:space="preserve">
<g>
	<path fill="#ffffff" d="M284.757,6.496v43.259h47.949V6.496h29.036v112.141h-29.036V71.884h-47.949v46.753h-29.036V6.496H284.757z"/>
	<path fill="#ffffff" d="M387.146,6.016c0,0,24.644-0.352,39.161-0.352c24.643,0,40.689,3.494,52.915,11.646C492.594,25.962,501,39.938,501,59.904
		c0,21.463-8.979,36.272-21.205,45.423c-13.563,9.815-34.386,14.475-59.602,14.475c-15.092,0-33.048-0.927-33.048-0.927V6.016z
		 M416.182,99.503c2.483,0.499,6.686,0.499,10.125,0.499c26.553,0.166,43.937-12.479,43.937-39.266
		c0-24.125-15.663-35.605-40.88-35.605c-6.305,0-10.698,0.499-13.182,0.999V99.503z"/>
</g>
<g>
	<path fill="#ffffff" d="M245.516,109.922c2.481,0,4.461,2.021,4.461,4.501c0,2.521-1.979,4.521-4.48,4.521c-2.48,0-4.501-2.001-4.501-4.521
		c0-2.48,2.021-4.501,4.501-4.501H245.516z M245.477,110.822c-1.881,0-3.401,1.62-3.401,3.621c0,2.021,1.521,3.601,3.421,3.601
		c1.9,0.02,3.44-1.58,3.44-3.601c0-2.001-1.54-3.621-3.44-3.621H245.477z M244.716,117.044h-1.061v-5.001
		c0.4-0.061,0.841-0.141,1.601-0.141c0.86,0,1.381,0.141,1.721,0.4c0.28,0.22,0.439,0.56,0.439,1.08c0,0.601-0.42,1.021-0.96,1.16
		v0.04c0.44,0.08,0.721,0.48,0.801,1.221c0.1,0.78,0.199,1.08,0.279,1.24h-1.1c-0.12-0.181-0.2-0.62-0.3-1.301
		c-0.08-0.54-0.4-0.76-0.94-0.76h-0.48V117.044z M244.716,114.163h0.5c0.62,0,1.101-0.2,1.101-0.721c0-0.42-0.3-0.739-1.021-0.739
		c-0.26,0-0.44,0-0.58,0.02V114.163z"/>
</g>
<path id="path2997" fill="#D81921" d="M102.992,5.708C93.133,6.412,84.773,14.7,84.773,26.397
	V82.04c0.004,2.008-1.498,3.743-3.672,3.743H63.731c-37.619,0.046-34.281-48.031-2.26-48.088h19.207V23.714H60.765
	c-12.752,0-22.214,4.759-28.599,11.863c-6.384,7.103-9.584,16.661-9.604,26.198c-0.02,9.534,3.141,19.038,9.674,26.126
	c6.533,7.089,16.403,11.864,29.94,11.864h32.765c2.162,0,3.954-1.865,3.954-4.027V27.88c-0.012-3.496,1.954-6.198,4.52-6.994
	c2.565-0.789,5.575,0.215,7.344,2.755l0.07,0.075c9.319,15.245,46.331,74.605,46.394,74.709c1.014,1.448,2.226,1.705,3.107,1.412
	c0.882-0.294,1.772-1.248,1.765-3.602V27.882c-0.012-3.494,1.958-6.199,4.519-6.991c2.563-0.791,5.506,0.215,7.274,2.753v0.074
	h0.141c9.319,15.246,46.33,74.605,46.393,74.709c1.004,1.435,2.174,1.717,3.107,1.414c0.932-0.304,1.843-1.193,1.836-3.533V6.065
	h-14.053v52.677c0,0-8.377-14.312-22.738-38.979c-14.062-24.156-40.601-14.156-40.603,6.638v32.34c0,0-8.235-14.312-22.597-38.979
	C119.224,9.198,110.66,5.165,102.992,5.712V5.708z M63.236,6.062c-78.2,0-77.444,111.44,1.06,111.498h30.717
	c13.2,0,21.628-7.818,21.608-22.243V67.072c0,0,17.251,28.512,24.009,39.686c11.482,18.983,39.261,15.251,39.191-8.473V67.074
	c0,0,17.178,28.508,23.938,39.685c11.48,18.983,39.331,15.249,39.261-8.473V6.065h-14.053V96.31
	c0.012,3.461-1.804,6.032-4.307,6.849c-2.503,0.813-5.385-0.2-7.131-2.683h-0.071v-0.134c0,0-37.027-59.205-46.464-74.639
	c-0.022-0.029-0.048,0.029-0.07,0c-0.009,0,0.008-0.075,0-0.075c-0.974-1.296-2.227-1.588-3.249-1.27
	c-1.056,0.327-2.055,1.235-2.047,3.531v68.354c0.012,3.444-1.756,6.163-4.237,6.989c-2.48,0.827-5.323-0.271-7.061-2.752v-0.073
	h-0.071c0,0-37.052-59.315-46.464-74.709c-0.982-1.404-2.257-1.74-3.318-1.412c-1.062,0.327-2.055,1.232-2.048,3.529v0.075v67.858
	c0,4.113-3.382,7.557-7.485,7.557H62.177c-14.378,0-25.277-5.176-32.482-12.992c-7.205-7.815-10.753-18.185-10.733-28.528
	c0.02-10.342,3.561-20.774,10.592-28.598c7.031-7.822,17.57-12.97,31.211-12.993h19.913V6.071H63.236V6.062z"/>
</svg>
