<svg width="3543.307" height="1222.161" viewBox="0 0 1000 344.921" xmlns="http://www.w3.org/2000/svg">
<path style="fill:#ffffff;fill-rule:evenodd;stroke:none" d="M650.232 58.178 611.91 190.972h27.626l4.011-16.928H679.2l3.568 16.928h28.07L672.069 58.178zm11.141 36.095c0 1.785.374 4.457 1.114 8.026.748 3.56 1.41 6.832 2.01 9.8l8.913 38.766H648.9l9.357-38.766c.592-2.968 1.261-6.24 2.001-9.8.748-3.569 1.115-6.241 1.115-8.026zM522.34 57.735v133.237h26.738v-42.336h11.583l17.826 42.336h26.295l-18.724-47.679c5.65-3.864 10.254-9.139 13.823-15.823 3.56-6.684 5.344-14.336 5.344-22.944V101.4c0-12.472-3.786-22.873-11.367-31.194-7.572-8.32-17.303-12.472-29.183-12.472zm26.738 24.953h12.924c4.753 0 8.765 1.56 12.03 4.675 3.263 3.125 4.899 7.945 4.899 14.482v.898c0 7.424-1.636 12.776-4.9 16.04-3.264 3.264-7.276 4.9-12.029 4.9h-12.924zM593.64-102.693V30.544h42.78c6.832 0 13.142-1.331 18.939-4.003 5.796-2.681 10.619-6.388 14.483-11.14 3.865-4.761 6.911-10.776 9.14-18.052 2.227-7.276 3.341-15.076 3.341-23.396v-24.067c0-7.424-1.114-14.403-3.342-20.94-2.228-6.536-5.274-12.186-9.139-16.938-3.864-4.752-8.687-8.39-14.483-10.914-5.797-2.524-12.107-3.787-18.94-3.787zM620.38-77.74h12.925c3.855 0 7.128.593 9.8 1.785 2.672 1.184 4.9 2.969 6.684 5.345 2.08 2.672 3.57 5.797 4.457 9.357.888 3.568 1.34 7.58 1.34 12.037v21.384c0 5.648-.452 10.619-1.34 14.927-.888 4.308-2.377 7.947-4.457 10.924-1.784 2.376-4.012 4.308-6.684 5.788-2.672 1.488-5.945 2.227-9.8 2.227h-12.925zM291.941-104.476c-6.231 0-11.654.817-16.258 2.444-4.604 1.636-8.843 3.796-12.707 6.468-5.64 5.049-10.096 11.732-13.368 20.053-3.264 8.32-4.901 18.713-4.901 31.194v16.04c0 12.778 1.637 23.476 4.9 32.084 3.273 8.617 7.729 15.153 13.369 19.609a45.842 45.842 0 0 0 12.707 6.91c4.604 1.637 10.027 2.447 16.258 2.447 5.65 0 10.776-.81 15.38-2.447a45.805 45.805 0 0 0 12.7-6.91c5.945-4.456 10.4-10.992 13.369-19.609 2.968-8.608 4.455-19.158 4.455-31.64v-16.484c0-12.481-1.487-22.873-4.455-31.194-2.968-8.32-7.424-15.004-13.369-20.053-3.864-2.672-8.096-4.832-12.7-6.468-4.604-1.627-9.73-2.444-15.38-2.444zm0 24.953c2.681 0 5.058.443 7.139 1.34 2.08.888 3.856 2.228 5.344 4.003 2.08 2.376 3.716 6.024 4.9 10.924 1.192 4.9 1.784 11.506 1.784 19.827v15.153c0 8.32-.592 14.858-1.785 19.61-1.183 4.753-2.819 8.32-4.899 10.697-1.488 2.08-3.342 3.639-5.57 4.674-2.229 1.045-4.536 1.558-6.913 1.558-2.968 0-5.639-.513-8.015-1.558-2.376-1.035-4.308-2.594-5.797-4.674-2.08-2.376-3.708-5.944-4.9-10.696-1.193-4.753-1.784-11.29-1.784-19.611V-43.43c0-8.321.59-14.927 1.783-19.827 1.193-4.9 2.821-8.548 4.901-10.924 1.489-1.775 3.421-3.115 5.797-4.003 2.376-.897 5.047-1.34 8.015-1.34zM719.749 57.735v133.237h65.513v-24.51h-38.775V57.735zM456.826 82.689v108.283h26.294V82.689h24.954V57.735h-76.202v24.954zM334.73 57.735v133.237h24.057v-77.09l36.103 77.09h23.613V57.735h-24.51v77.986L357.9 57.735zM247.379 57.735v133.237h67.741v-24.51h-41.003v-30.741h34.763v-24.963h-34.763v-28.07h41.003V57.736zM177.862 86.701c1.488-2.08 3.342-3.49 5.57-4.239 2.229-.74 4.683-1.114 7.355-1.114 3.569 0 7.059.897 10.47 2.672 3.421 1.785 6.163 5.353 8.243 10.697l23.622-9.8c-3.864-10.105-9.583-17.53-17.155-22.282-7.58-4.752-15.971-7.128-25.18-7.128-5.649 0-10.914.888-15.823 2.672-4.9 1.784-9.13 4.16-12.699 7.128-5.64 4.752-10.027 11.289-13.143 19.61-3.124 8.32-4.682 18.713-4.682 31.194v16.485c0 12.777 1.558 23.326 4.682 31.638 3.116 8.32 7.503 14.857 13.143 19.61 3.569 2.976 7.799 5.204 12.699 6.684 4.909 1.488 10.174 2.228 15.823 2.228 9.8 0 18.348-2.298 25.624-6.902s12.847-11.515 16.711-20.723L209.5 154.434c-2.08 5.344-4.752 8.912-8.016 10.697-3.272 1.784-6.832 2.672-10.697 2.672-2.672 0-5.126-.375-7.354-1.114-2.229-.74-4.083-2.15-5.57-4.23-2.081-2.08-3.709-5.57-4.901-10.48-1.192-4.9-1.784-11.506-1.784-19.827v-14.71c0-8.912.592-15.744 1.784-20.497 1.192-4.752 2.82-8.164 4.9-10.244z" transform="translate(214.738 128.543)"/>
<path d="M-24.004 67.092c-3.864 7.128-9.435 12.846-16.711 17.155-7.285 4.308-15.232 6.458-23.848 6.458-12.769 0-23.692-4.526-32.753-13.587-9.06-9.06-13.586-19.984-13.586-32.752 0-12.777 4.526-23.77 13.586-32.979C-88.255 2.18-77.332-2.425-64.563-2.425c8.616 0 16.563 2.297 23.848 6.902 7.276 4.604 12.847 10.322 16.711 17.155L12.091 1.134C4.658-12.234-5.883-23-19.548-31.174c-13.673-8.164-28.67-12.255-45.015-12.255-11.881 0-23.17 2.307-33.867 6.911-10.697 4.604-19.975 10.845-27.852 18.713-7.868 7.877-14.108 17.155-18.713 27.852-4.604 10.697-6.91 22.134-6.91 34.319 0 12.177 2.306 23.613 6.91 34.31 4.605 10.697 10.845 19.975 18.713 27.852 7.877 7.877 17.155 14.109 27.852 18.713 10.697 4.605 21.986 6.911 33.867 6.911 16.05 0 30.976-4.16 44.79-12.481 13.812-8.312 24.43-19.01 31.864-32.082z" style="fill:#f8ba0f;fill-opacity:.94117647;fill-rule:evenodd;stroke:none" transform="translate(214.738 128.543)"/>
<path d="M405.134 30.544h21.838l19.61-72.632 8.468 72.632h24.51l-15.153-133.237h-24.954l-23.178 83.774-23.17-83.774H367.7L352.103 30.544h24.962l8.016-72.632zM500.501-102.693V30.544h70.414V6.034h-44.12v-30.741h38.767v-25.406h-38.767V-77.74h44.12v-24.954zM719.749-33.62v64.164h26.738V-33.62l37.435-69.073h-28.966L732.674-60.81l-21.385-41.883h-28.966zM177.862-74.179c1.488-1.776 3.342-3.116 5.57-4.004 2.229-.896 4.683-1.34 7.355-1.34 3.569 0 7.059.966 10.47 2.898 3.421 1.932 6.163 5.719 8.243 11.359l23.622-10.689c-3.864-10.105-9.583-17.381-17.155-21.837-7.58-4.457-15.971-6.685-25.18-6.685-5.649 0-10.914.818-15.823 2.446-4.9 1.636-9.13 3.795-12.699 6.467-5.64 5.048-10.027 11.732-13.143 20.053-3.124 8.321-4.682 18.713-4.682 31.195v16.04c0 12.778 1.558 23.475 4.682 32.083 3.116 8.616 7.503 15.153 13.143 19.61 3.569 2.976 7.799 5.274 12.699 6.91 4.909 1.636 10.174 2.446 15.823 2.446 9.8 0 18.348-2.298 25.624-6.902 7.276-4.605 12.847-11.663 16.711-21.168L209.5-5.55c-2.08 5.048-4.752 8.617-8.016 10.697-3.272 2.08-6.832 3.116-10.697 3.116-2.672 0-5.126-.514-7.354-1.558-2.229-1.036-4.083-2.594-5.57-4.674-2.081-2.376-3.709-5.945-4.901-10.697-1.192-4.752-1.784-11.289-1.784-19.61v-15.153c0-8.32.592-14.927 1.784-19.827 1.192-4.9 2.82-8.547 4.9-10.923z" style="fill:#ffffff;fill-rule:evenodd;stroke:none" transform="translate(214.738 128.543)"/>
<path style="fill:#f8ba0f;fill-opacity:.94117647;fill-rule:evenodd;stroke:none" d="M107.901 43.47c0 23.77-4.534 46.199-13.595 67.297-9.06 21.09-21.315 39.437-36.765 55.034-15.449 15.597-33.718 27.921-54.807 36.982-21.098 9.06-43.527 13.595-67.297 13.595-32.082 0-61.423-8.173-88.013-24.51-26.59-16.336-47.305-37.73-62.162-64.172l36.095-19.61c10.992 19.61 26.737 35.503 47.235 47.688 20.506 12.177 42.787 18.27 66.845 18.27 17.825 0 34.762-3.421 50.803-10.254 16.041-6.832 29.933-16.11 41.665-27.852 11.742-11.732 21.098-25.545 28.079-41.438 6.98-15.893 10.47-32.9 10.47-51.03v.896c0-18.13-3.49-35.137-10.47-51.03S39.647-36.37 27.905-48.103C16.173-59.844 2.281-69.123-13.76-75.955c-16.04-6.832-32.978-10.253-50.803-10.253-24.058 0-46.34 6.093-66.845 18.27-20.498 12.185-36.243 28.078-47.235 47.687l-36.095-19.61c14.857-26.441 35.572-47.835 62.162-64.172 26.59-16.337 55.93-24.51 88.013-24.51 23.77 0 46.2 4.535 67.297 13.596 21.09 9.06 39.358 21.385 54.807 36.982 15.45 15.597 27.705 33.944 36.765 55.034 9.06 21.098 13.595 43.527 13.595 67.297z" transform="translate(214.738 128.543)"/>
<path style="opacity:.9;fill:#fff;stroke-width:8" d="M1377.47 560.41c-38.444-13.712-58.604-31.886-80.321-72.41-15.494-28.912-17.149-44.413-17.149-160.627V198.745l24.102-38.983c27.867-45.074 58.794-65.724 108.676-72.56 66.106-9.062 135.723 23.621 163.105 76.573 11.233 21.721 11.04 21.995-28.73 40.622l-40.04 18.753-17.557-21.56c-25.21-30.96-61.25-35.968-88.73-12.329-18.323 15.76-23.118 28.709-30.166 81.455-21.71 162.465 39.431 264.424 113.904 189.95l23.334-23.333 39.546 16.708c38.707 16.353 39.318 17.145 28.81 37.333-34.826 66.917-120.904 96.81-198.784 69.036zM1728 557.384c-70.917-33.848-93.233-81.567-98.257-210.102-2.816-72.046-.582-103.18 10.018-139.642 46.758-160.843 258.665-165.594 304.817-6.834 9.874 33.963 12.265 68.978 9.966 145.939-3.64 121.868-18.305 163.634-69.304 197.384-43.637 28.877-112.37 34.672-157.24 13.255zm108.606-94.004c18.074-19.216 19.57-27.52 21.974-122 1.45-56.987-1.02-110.83-5.643-122.962-21.107-55.395-88.376-59.048-114.925-6.24-18.052 35.907-19.88 186.293-2.762 227.262 20.087 48.074 68.009 59.393 101.356 23.94zM2011.725 554c-.151-5.5 11.379-111.7 25.622-236l25.898-226H2153.783l32.662 118c17.964 64.9 35.053 127.9 37.976 140 2.922 12.1 8.133 22 11.579 22 3.446 0 8.636-9.9 11.533-22 2.897-12.1 19.91-75.1 37.805-140l32.537-118h42.91c37.972 0 43.374 2.071 46.938 18 2.216 9.9 13.269 102.6 24.562 206 11.293 103.4 22.609 201.5 25.146 218l4.614 30h-87.952l-8.797-70c-4.839-38.5-11.247-94.692-14.241-124.872-2.994-30.18-7.927-49.98-10.963-44-3.036 5.98-19.24 62.172-36.01 124.872l-30.49 114h-38.488c-37.667 0-38.664-.64-46.78-30-64.286-232.587-61.315-224.096-66.47-190-2.66 17.6-9.23 74.3-14.6 126l-9.765 94h-42.744c-28.716 0-42.835-3.282-43.02-10zM2532 328V92h248v88h-152v96h136v96h-136v104h152v88h-248zM2868 328V92h86.053c100.08 0 131.97 7.355 164.077 37.842 48.886 46.42 57.751 75.579 57.814 190.158.06 113.315-7.75 148.282-42.3 189.342-35.801 42.546-73.64 54.283-175.644 54.482l-90 .176zm171.19 138.914c30.369-13.837 44.81-60.03 44.81-143.333C3084 210.01 3063.827 180 2987.48 180H2956v296h31.624c17.393 0 40.597-4.089 51.566-9.086zM3308 447.2V330.4l-54.846-101.2c-30.166-55.66-59.092-109.3-64.282-119.2-9.31-17.76-8.763-18 40.953-18h50.388l38.847 72.703 38.848 72.702 37.876-70.702L3433.66 96l52.602-2.353 52.603-2.352-67.432 124.126L3404 339.548V564h-96zM3308 896V660h96v384h136v88h-232zM2932.209 1126c.115-3.3 29.815-108.6 66-234L3064 664h79.025l62.16 212c34.188 116.6 64.393 221.9 67.123 234l4.963 22h-47.78c-49.686 0-57.491-5.52-57.491-40.654 0-13.908-6.287-15.346-67.11-15.346h-67.11l-5.252 28-5.253 28h-47.638c-26.2 0-47.543-2.7-47.428-6zm203.365-184c-6.041-25.3-15.365-67.6-20.72-94l-9.735-48-22.188 92c-12.203 50.6-22.355 92.9-22.56 94-.204 1.1 19.104 2 42.907 2h43.279zM2612 896V660h89.474c111.288 0 147.317 14.025 180.206 70.145 39.093 66.707 25.745 171.741-28.003 220.348-15.976 14.448-15.945 14.695 10.176 80 44.234 110.587 44.93 102.734-8.851 99.926l-46.343-2.419-31.222-74c-26.988-63.963-33.814-74-50.33-74-18.802 0-19.107 1.214-19.107 76v76h-96zm183.42-25.079C2835.97 819.37 2804.003 748 2740.363 748H2708v144h35.42c28.735 0 38.548-3.978 52-21.079zM2380 940V748h-88v-88h272v88h-88v384h-96zM1948 895.582V659.164l41.612 2.418 41.613 2.418 60.387 131.34L2152 926.68l2.193-133.34 2.194-133.34H2244v472h-84.716l-59.642-128.816L2040 874.37l-2.198 128.815-2.198 128.816H1948zM1636 896V660h240v88h-144v96h120v96h-120v104h144v88h-240zM1377.47 1128.41c-38.444-13.712-58.604-31.886-80.321-72.41-15.418-28.77-17.149-44.517-17.149-156 0-114.304 1.483-127.013 18.97-162.528 23.426-47.582 64.617-76.282 118.666-82.683 66.267-7.849 130.718 23.75 158.661 77.785l11.722 22.669-37.026 16.378c-45.59 20.167-41.428 20.404-63.694-3.621-23.407-25.257-73.733-27.83-94.544-4.834-18.79 20.763-30.675 112.044-24.028 184.55 4.712 51.394 8.71 62.952 28.694 82.936 19.252 19.251 27.609 22.378 48.9 18.293 14.123-2.71 33.457-13.758 42.963-24.55l17.285-19.623 40.21 16.988c39.949 16.878 40.138 17.13 29.003 38.661-33.65 65.073-121.775 95.285-198.312 67.988z" transform="scale(.28222)"/>
</svg>