<svg width="1278.789" height="344.7" xml:space="preserve" xmlns="http://www.w3.org/2000/svg">
<path style="fill:#fff" d="m873.035 240.097-9.435 39.358h24.754l-9.436-39.358c-.602-2.607-1.226-5.76-1.872-9.436-.657-3.687-1.047-6.473-1.158-8.378-.123 1.905-.447 4.635-.98 8.2-.536 3.553-1.159 6.762-1.873 9.614m24.933 79.43-4.09-17.279h-35.804l-4.1 17.278h-27.248l38.3-133.57h21.545l38.645 133.57h-27.248zM392.26 54.2c-4.279 4.99-6.763 13.713-6.763 30.802v14.96c0 16.923 2.484 25.646 6.762 30.458 3.387 3.91 7.832 5.515 13.179 5.515 7.832 0 14.248-3.198 18.872-13.18l23.505 10.16c-7.832 19.05-22.793 27.951-42.377 27.951-11.931 0-21.188-3.197-28.497-9.079-11.93-9.435-18.158-26.18-18.158-51.646V83.943c0-24.753 6.227-41.14 18.158-50.754 7.309-5.704 16.566-9.447 28.497-9.447 19.228 0 34.545 8.734 42.377 28.853L424.31 62.744c-4.267-11.04-11.575-14.07-18.872-14.07-5.525 0-9.792 1.782-13.179 5.525m100.681.001c-4.277 4.99-6.772 13.713-6.772 30.802v14.96c0 16.923 2.495 25.646 6.773 30.458 3.387 3.91 7.831 5.515 13.18 5.515 5.335 0 9.791-1.604 13.178-5.515 4.266-4.812 6.762-13.535 6.762-30.457V85.002c0-17.09-2.496-25.812-6.762-30.803-3.387-3.743-7.665-5.525-13.179-5.525-5.526 0-9.792 1.782-13.18 5.525m-15.317 97.588c-11.93-9.435-18.158-26.18-18.158-51.646V83.943c0-24.753 6.227-41.14 18.158-50.754 7.308-5.704 16.566-9.269 28.497-9.447 11.93.178 21.189 3.743 28.496 9.447 11.932 9.614 18.16 26 18.16 50.754v16.911c0 24.754-6.228 41.498-18.16 50.933-7.307 5.882-16.565 9.08-28.496 9.08-11.931 0-21.189-3.198-28.496-9.08m142.516 7.294-20.12-73.19-8.199 73.19h-24.754l15.496-133.56h25.11l22.972 84.41 22.97-84.41h24.932l15.675 133.56h-24.754l-8.366-73.19-19.953 73.19zm94.764-133.565h70.908v24.932h-44.194v28.318h38.312v24.932h-38.312v30.446h44.194v24.932h-70.908zm133.048 108.632c7.486 0 13.18-2.673 16.923-8.01 3.731-5.525 5.514-13.891 5.514-25.288v-21.2c0-9.435-1.783-16.732-5.514-21.723-3.743-4.98-9.437-7.475-16.923-7.475h-13v83.696zM808.238 25.52h42.744c14.25 0 25.646 5.514 33.656 15.139 8.01 9.436 12.466 22.614 12.466 38.11v23.862c0 16.911-4.457 30.981-12.466 40.952-8.01 9.792-19.407 15.496-33.656 15.496h-42.744zm126.246 69.279-37.397-69.27h28.853l21.902 42.199 21.901-42.2h28.854l-37.398 69.27v64.29h-26.715zM392.26 214.414c-4.279 4.98-6.763 13.713-6.763 30.814v14.95c0 16.922 2.484 25.644 6.762 30.457 3.387 3.91 7.832 5.514 13.179 5.514 7.832 0 14.248-3.197 18.872-13.178l23.505 10.159c-7.832 19.05-22.793 27.951-42.377 27.951-11.931 0-21.188-3.197-28.497-9.079-11.93-9.437-18.158-26.18-18.158-51.647v-16.197c0-24.764 6.227-41.14 18.158-50.755 7.309-5.704 16.566-9.446 28.497-9.446 19.228 0 34.545 8.733 42.377 28.853l-23.505 10.148c-4.267-11.04-11.575-14.07-18.872-14.07-5.525 0-9.792 1.783-13.179 5.526m69.916-28.666h67.51v24.93h-40.796v28.32h34.914v24.93h-34.914v30.447h40.796v24.932h-67.51zm87.232 0h23.506l35.692 78.18v-78.18h24.398v133.559h-23.506l-35.693-77.113v77.113h-24.397zm121.881 24.932h-24.887v-24.93h76.478v24.932h-24.876V319.31h-26.715zm104.999 41.316c9.97 0 17.278-6.238 17.278-20.832v-.356c0-13.357-7.307-20.13-17.278-20.13h-12.822v41.318zm-12.822 67.31H736.75v-133.56h42.566c23.506 0 40.952 18.882 40.952 44.171v3.019c0 17.1-7.832 30.992-20.12 38.466l19.584 47.904h-26.88l-17.279-42.378h-12.11v42.378zm171.019-133.558H961.2v108.627h38.8v24.932h-65.516z"/>
<path fill="#f8ba0f" d="M150.248 0C85.758 0 29.533 35.448 0 87.93l36.094 20.297c22.437-39.871 65.148-66.819 114.154-66.819 72.3 0 130.908 58.63 130.908 130.942 0 72.322-58.609 130.941-130.908 130.941-48.94 0-91.595-26.87-114.054-66.651L.1 256.948C29.655 309.33 85.824 344.7 150.248 344.7c95.159 0 172.305-77.157 172.305-172.35C322.553 77.169 245.407 0 150.248 0"/>
<path fill="#f8ba0f" d="M190.582 195.147c-7.954 14.048-23.038 23.528-40.328 23.528-25.588 0-46.331-20.742-46.331-46.332 0-25.589 20.743-46.332 46.331-46.332 17.368 0 32.485 9.558 40.417 23.696l36.06-20.287c-15.016-26.725-43.647-44.795-76.477-44.795-48.437 0-87.695 39.27-87.695 87.718 0 48.437 39.258 87.718 87.695 87.718 32.764 0 61.338-17.992 76.389-44.627z"/>
<path style="fill:#fff" d="M390.432 318.978c-15.036-4.957-24.667-16.161-29.113-33.87-2.408-9.59-3.413-41.18-1.735-54.552 2.722-21.702 10.71-34.933 25.294-41.902 7.095-3.39 11.747-4.373 20.826-4.399 13.474-.038 23.631 3.892 31.842 12.32 4.263 4.376 10.786 15.358 9.689 16.312-.209.182-5.43 2.535-11.605 5.23l-11.225 4.899-1.064-2.569c-1.663-4.016-7.45-9.425-11.194-10.465-8.692-2.413-16.933.012-21.019 6.185-4.514 6.822-5.342 12.423-5.36 36.269-.019 23.714.863 29.766 5.321 36.519 6.537 9.902 23.4 9.194 30.08-1.263 1.462-2.288 3.053-4.18 3.537-4.207.784-.043 21.52 8.663 22.574 9.477 1.285.993-6.056 12.24-11.02 16.883-8.462 7.917-14.608 10.122-29.263 10.5-9.455.245-12.418 0-16.565-1.367zm71.924-66.099v-66.874h67.316v24.801h-40.744v28.344h34.544v24.8h-34.544v30.116h40.744v25.686h-67.316zm86.803-.469v-66.455l12.039.247 12.039.246 17.412 38.138 17.411 38.137.231-38.359.23-38.359h24.782v132.911l-12.12-.246-12.123-.247-17.329-37.482-17.329-37.482-.23 37.704-.232 37.703h-24.78zm122.231 12.869v-54.473h-24.8v-24.8h76.174v24.8h-24.801v108.946H671.39zm65.545-12.902v-66.49l26.351.28 26.35.281 5.987 2.836c6.657 3.153 14.754 10.267 18.01 15.823 4.895 8.353 5.995 13.22 5.995 26.514 0 10.597-.284 13.173-1.956 17.715-2.624 7.125-7.044 13.602-12.48 18.282-2.465 2.124-4.483 4.164-4.483 4.535 0 .37 4.036 10.535 8.97 22.586 4.933 12.052 9.165 22.422 9.404 23.044.343.893-2.41 1.079-13.102.885l-13.536-.245-8.373-20.593-8.374-20.594h-12.19v41.63h-26.573zm41.877-.79c2.815-.46 6.353-1.717 7.862-2.792 7.94-5.654 9.217-24.47 2.201-32.46-3.93-4.476-7.154-5.529-16.924-5.529h-8.443v41.63l5.093-.005c2.8-.003 7.396-.383 10.21-.844zm48.708 65.836c.244-1.282 8.76-31.37 18.925-66.862l18.48-64.533 10.781-.011 10.782-.012.913 2.879c2.639 8.32 37.311 129.028 37.311 129.894 0 .736-3.749.952-13.438.776l-13.439-.245-1.204-5.314c-.662-2.923-1.607-6.818-2.1-8.655l-.898-3.34-17.828.24-17.827.24-1.205 5.314c-.662 2.923-1.605 6.81-2.096 8.636l-.892 3.322h-26.711zm60.253-38.194c.201-.365-1.963-10.43-4.81-22.365-2.846-11.935-5.432-23.602-5.745-25.927-.78-5.786-1.759-5.948-2.422-.402-.304 2.546-2.909 14.394-5.788 26.33-2.88 11.935-5.053 21.999-4.829 22.364.532.868 23.115.868 23.594 0zm47.273 39.932c-.325-.324-.59-30.417-.59-66.873v-66.283h26.57v108.06H1000v25.688h-32.182c-17.7 0-32.447-.266-32.772-.59zm-.591-192.063V94.762L916.187 60.89c-10.047-18.63-18.44-34.173-18.653-34.538-.211-.366 6.116-.661 14.061-.657l14.446.007 10.152 19.566c5.584 10.762 10.566 20.122 11.072 20.8.702.943 3.432-3.68 11.548-19.555l10.629-20.79 14.393-.018c7.917-.01 14.394.096 14.394.235 0 .139-8.37 15.77-18.601 34.734l-18.6 34.482v64.279h-26.573zm-126.07 31.745c-.325-.325-.59-30.418-.59-66.874V25.686h25.057c19.655 0 26.181.293 30.27 1.358 15.128 3.94 26.586 16.118 31.643 33.63 1.904 6.591 2.046 8.69 2.046 30.114 0 26.497-.855 32.069-6.723 43.792-6.59 13.167-18.503 22.013-32.25 23.946-6.924.974-48.53 1.24-49.453.317zm49.697-26.985c4.897-2.371 8.33-7.053 10.434-14.23 1.37-4.674 1.644-8.823 1.68-25.511.048-21.942-.61-26.42-4.858-33.12-3.937-6.207-8.048-7.912-20.121-8.344l-9.965-.357v83.451h9.464c7.85 0 10.129-.322 13.366-1.89zM714.792 92.56V25.686h70.858v24.801h-44.287v28.344h38.973v24.8h-38.973v30.116h44.287v25.686h-70.86zm-147.305 66.209c-.276-.488 14.743-131.4 15.246-132.885.046-.136 5.728-.136 12.626 0l12.543.245 11.09 40.966c6.1 22.53 11.337 40.965 11.636 40.965.299 0 5.543-18.434 11.653-40.965l11.11-40.966 12.543-.245c6.898-.136 12.561-.136 12.585 0 .919 5.377 15.526 132.433 15.277 132.885-.202.365-5.68.664-12.176.664-11.523 0-11.82-.048-12.255-1.993-.246-1.096-2.174-17.413-4.286-36.259-2.111-18.847-3.959-34.147-4.105-34-.269.268-19.699 71.156-19.699 71.868 0 .211-4.783.384-10.628.384-5.846 0-10.63-.196-10.63-.436 0-.903-19.659-71.768-20.007-72.12-.2-.204-.364.242-.364.99 0 1.855-6.97 65.085-7.572 68.687l-.48 2.88h-11.865c-6.526 0-12.035-.3-12.242-.665zm-69.258 1.551c-20.155-2.8-33.16-17.058-37.268-40.857-1.15-6.662-1.355-12.738-1.041-30.884.44-25.54 1.427-31.212 7.404-42.587 15.7-29.877 63.358-29.296 78.127.952 6.037 12.364 6.723 17.02 6.723 45.616 0 23.764-.146 26.216-1.956 32.772-4.135 14.98-11.917 25.644-22.44 30.75-8.205 3.981-19.616 5.618-29.55 4.238zm15.75-26.016c9.599-4.09 12.697-16.322 11.911-47.021-.756-29.53-4.509-37.242-18.638-38.308-10.817-.816-17.137 5.334-19.757 19.225-1.97 10.443-1.323 45.85.973 53.288 1.793 5.807 5.789 11.074 9.692 12.774 3.57 1.554 12.216 1.577 15.819.042zm-113.625 26.377c-12.916-2.126-19.855-5.245-26.533-11.922-5.471-5.472-10.07-14.31-12.54-24.1-2.571-10.192-3.368-43.777-1.352-56.985 4.372-28.64 20.314-43.799 46.005-43.746 12.847.026 23.132 3.98 31.142 11.97 3.987 3.975 10.222 13.838 10.222 16.167 0 .488-1.494 1.5-3.321 2.25-1.827.75-7.005 2.953-11.507 4.897l-8.185 3.533-1.337-2.817c-3.094-6.52-10.07-11.156-16.842-11.193-10.187-.056-16.027 5.343-19.139 17.695-1.945 7.72-1.695 45.576.351 53.145 1.868 6.912 5.29 12.073 9.48 14.301 4.271 2.273 13.12 2.222 17.673-.101 3.144-1.604 4.32-2.78 8.787-8.78l1.57-2.11 10.571 4.604c5.814 2.532 10.915 4.941 11.336 5.354 1.257 1.233-3.081 8.847-8.205 14.401-5.454 5.91-10.342 9.05-17.614 11.311-5.162 1.605-16.565 2.784-20.562 2.126z"/>
<g style="clip-rule:evenodd;fill:#fff;fill-rule:evenodd;image-rendering:optimizeQuality;shape-rendering:geometricPrecision;text-rendering:geometricPrecision">
<path style="opacity:1;fill:#fff" fill="#fefefe" d="M232.5 59.5a86.739 86.739 0 0 1 18 1 547.375 547.375 0 0 1 1.5 33 145.004 145.004 0 0 0 34 0c.178-11.243.678-22.41 1.5-33.5 6-.667 12-.667 18 0a4.451 4.451 0 0 1 2 1.5c-.314 28.264.02 56.598 1 85-.029 1.529-.696 2.696-2 3.5a90.455 90.455 0 0 1-19 0 611.661 611.661 0 0 1-1.5-34.5 145.036 145.036 0 0 0-34 0 611.661 611.661 0 0 1-1.5 34.5 90.455 90.455 0 0 1-19 0l-1.5-1.5a1848.326 1848.326 0 0 1 0-86c.698-1.19 1.531-2.19 2.5-3z" transform="matrix(1.19597 0 0 1.20622 791.341 132.717)"/>
</g>
<g style="clip-rule:evenodd;fill:#fff;fill-rule:evenodd;image-rendering:optimizeQuality;shape-rendering:geometricPrecision;text-rendering:geometricPrecision">
<path style="opacity:1;fill:#fff" fill="#fefefe" d="M346.495 57.423c14.7-.328 29.367.172 44 1.5 23.474 8.1 34.64 24.6 33.5 49.5-3.7 22.034-16.534 35.201-38.5 39.5a276.59 276.59 0 0 1-40.5-.5l-.5-44.5a523.985 523.985 0 0 1 2-45.5zm20 21c19.629-2.835 31.296 5.332 35 24.5-3.48 19.435-15.147 27.601-35 24.5v-49z" transform="matrix(1.19597 0 0 1.20622 771.608 135.826)"/>
</g>
</svg>