<?xml version="1.0" encoding="UTF-8"?>
<!DOCTYPE svg PUBLIC "-//W3C//DTD SVG 1.1//EN" "http://www.w3.org/Graphics/SVG/1.1/DTD/svg11.dtd">
<svg xmlns="http://www.w3.org/2000/svg" version="1.1" width="1393px" height="307px" style="shape-rendering:geometricPrecision; text-rendering:geometricPrecision; image-rendering:optimizeQuality; fill-rule:evenodd; clip-rule:evenodd" xmlns:xlink="http://www.w3.org/1999/xlink">
<g><path style="opacity:1" fill="#ffffff" d="M 60.5,17.5 C 79.1597,15.2763 96.1597,19.4429 111.5,30C 121.891,40.7071 126.224,53.5404 124.5,68.5C 113.5,68.5 102.5,68.5 91.5,68.5C 91.4255,54.9241 84.5922,47.5907 71,46.5C 61.4432,46.5995 54.7765,50.9328 51,59.5C 49.8931,68.2754 49.3931,77.1087 49.5,86C 49.3931,94.8913 49.8931,103.725 51,112.5C 56.3203,122.91 64.8203,127.076 76.5,125C 87.1479,121.842 92.1479,114.675 91.5,103.5C 102.5,103.5 113.5,103.5 124.5,103.5C 126.813,128.335 116.147,144.502 92.5,152C 69.9195,157.871 48.9195,154.538 29.5,142C 21.0722,133.977 16.2388,124.144 15,112.5C 14.3333,95.1667 14.3333,77.8333 15,60.5C 17.3059,40.8549 27.8059,27.6883 46.5,21C 51.2954,19.8011 55.9621,18.6345 60.5,17.5 Z"/></g>
<g><path style="opacity:1" fill="#ffffff" d="M 135.5,19.5 C 159.872,19.0602 184.205,19.5602 208.5,21C 227.818,25.6497 238.652,37.8164 241,57.5C 242.933,77.4771 235.1,91.9771 217.5,101C 228.268,117.588 237.935,134.754 246.5,152.5C 233.829,152.667 221.162,152.5 208.5,152C 200.293,137.086 191.96,122.252 183.5,107.5C 179.217,106.508 174.884,106.174 170.5,106.5C 170.5,121.833 170.5,137.167 170.5,152.5C 158.833,152.5 147.167,152.5 135.5,152.5C 135.5,108.167 135.5,63.8333 135.5,19.5 Z M 171.5,47.5 C 180.235,47.1241 188.902,47.6241 197.5,49C 203.571,51.9082 206.571,56.7416 206.5,63.5C 206.922,70.4958 203.922,75.3291 197.5,78C 188.568,79.3813 179.568,79.8813 170.5,79.5C 170.191,68.7517 170.524,58.085 171.5,47.5 Z"/></g>
<g><path style="opacity:1" fill="#ffffff" d="M 255.5,19.5 C 267.167,19.5 278.833,19.5 290.5,19.5C 290.5,63.8333 290.5,108.167 290.5,152.5C 278.833,152.5 267.167,152.5 255.5,152.5C 255.5,108.167 255.5,63.8333 255.5,19.5 Z"/></g>
<g><path style="opacity:1" fill="#ffffff" d="M 304.5,19.5 C 318.849,19.1674 333.182,19.5007 347.5,20.5C 355.765,41.4606 363.931,62.4606 372,83.5C 380.623,62.4148 389.123,41.2481 397.5,20C 411.496,19.5001 425.496,19.3334 439.5,19.5C 439.5,63.8333 439.5,108.167 439.5,152.5C 428.833,152.5 418.167,152.5 407.5,152.5C 407.667,126.831 407.5,101.165 407,75.5C 399.5,95.1667 392,114.833 384.5,134.5C 376.167,135.833 367.833,135.833 359.5,134.5C 351.902,114.872 344.402,95.2057 337,75.5C 336.5,101.165 336.333,126.831 336.5,152.5C 325.833,152.5 315.167,152.5 304.5,152.5C 304.5,108.167 304.5,63.8333 304.5,19.5 Z"/></g>
<g><path style="opacity:1" fill="#ffffff" d="M 540.5,81.5 C 540.5,84.5 540.5,87.5 540.5,90.5C 540.5,93.5 540.5,96.5 540.5,99.5C 523.167,99.5 505.833,99.5 488.5,99.5C 488.5,107.5 488.5,115.5 488.5,123.5C 508.167,123.5 527.833,123.5 547.5,123.5C 547.5,133.167 547.5,142.833 547.5,152.5C 516.167,152.5 484.833,152.5 453.5,152.5C 453.5,108.167 453.5,63.8333 453.5,19.5C 484.5,19.5 515.5,19.5 546.5,19.5C 546.5,29.1667 546.5,38.8333 546.5,48.5C 527.167,48.5 507.833,48.5 488.5,48.5C 488.5,56.1667 488.5,63.8333 488.5,71.5C 505.833,71.5 523.167,71.5 540.5,71.5C 540.5,74.8333 540.5,78.1667 540.5,81.5 Z"/></g>
<g><path style="opacity:1" fill="#e21d2d" d="M 540.5,90.5 C 540.5,87.5 540.5,84.5 540.5,81.5C 556.5,81.5 572.5,81.5 588.5,81.5C 588.5,65.1667 588.5,48.8333 588.5,32.5C 591.5,32.5 594.5,32.5 597.5,32.5C 597.5,48.8333 597.5,65.1667 597.5,81.5C 614.167,81.5 630.833,81.5 647.5,81.5C 647.5,84.5 647.5,87.5 647.5,90.5C 630.833,90.5 614.167,90.5 597.5,90.5C 597.5,106.833 597.5,123.167 597.5,139.5C 594.5,139.5 591.5,139.5 588.5,139.5C 588.5,123.167 588.5,106.833 588.5,90.5C 572.5,90.5 556.5,90.5 540.5,90.5 Z"/></g>
<g><path style="opacity:1" fill="#ffffff" d="M 736.5,248.5 C 728.92,247.501 720.587,247.168 711.5,247.5C 711.5,239.5 711.5,231.5 711.5,223.5C 731.007,223.83 750.341,223.497 769.5,222.5C 770.895,236.369 770.728,250.369 769,264.5C 765.423,277.745 757.256,286.911 744.5,292C 726.3,298.836 707.967,299.169 689.5,293C 674.708,287.211 665.208,276.711 661,261.5C 659.426,242.201 659.092,222.867 660,203.5C 662.673,180.826 675.173,166.992 697.5,162C 718.64,156.963 738.307,160.296 756.5,172C 766.919,181.919 771.419,194.085 770,208.5C 759.248,209.487 748.415,209.82 737.5,209.5C 737.174,195.84 730.174,188.84 716.5,188.5C 704.974,188.827 697.807,194.494 695,205.5C 694.333,220.5 694.333,235.5 695,250.5C 696.719,259.886 702.219,265.719 711.5,268C 727.084,270.561 735.417,264.061 736.5,248.5 Z"/></g>
<g><path style="opacity:1" fill="#ffffff" d="M 1098.5,159.5 C 1113.58,158.68 1127.92,161.513 1141.5,168C 1152.49,175 1159.66,184.833 1163,197.5C 1165,218.167 1165,238.833 1163,259.5C 1157,280.5 1143.16,292.666 1121.5,296C 1103.58,299.009 1086.58,296.342 1070.5,288C 1060.77,281.266 1054.61,272.099 1052,260.5C 1051.33,239.833 1051.33,219.167 1052,198.5C 1055.79,181.375 1065.96,169.875 1082.5,164C 1087.91,162.295 1093.24,160.795 1098.5,159.5 Z M 1100.5,189.5 C 1115.55,187.09 1125.05,193.09 1129,207.5C 1129.92,223.213 1129.59,238.879 1128,254.5C 1119.88,267.979 1108.72,271.146 1094.5,264C 1090.9,261.292 1088.4,257.792 1087,253.5C 1086.33,236.833 1086.33,220.167 1087,203.5C 1089.02,196.318 1093.52,191.652 1100.5,189.5 Z"/></g>
<g><path style="opacity:1" fill="#ffffff" d="M 565.5,295.5 C 554.679,294.505 543.679,294.172 532.5,294.5C 532.833,259.427 532.499,225.094 531.5,191.5C 518.496,191.667 505.496,191.5 492.5,191C 491.726,188.595 491.226,186.095 491,183.5C 484.578,189.764 477.745,195.431 470.5,200.5C 467.05,198.226 463.717,195.726 460.5,193C 450.584,187.814 440.584,187.48 430.5,192C 425.411,196.775 425.411,201.442 430.5,206C 444.187,211.256 458.187,215.59 472.5,219C 491.553,227.748 499.053,242.581 495,263.5C 489.225,283.267 476.059,294.434 455.5,297C 440.978,298.339 426.645,297.339 412.5,294C 402.015,290.507 393.515,284.34 387,275.5C 386.5,282.158 386.334,288.825 386.5,295.5C 355.167,295.5 323.833,295.5 292.5,295.5C 292.5,251.167 292.5,206.833 292.5,162.5C 323.5,162.5 354.5,162.5 385.5,162.5C 385.5,172.167 385.5,181.833 385.5,191.5C 366.167,191.5 346.833,191.5 327.5,191.5C 327.5,199.167 327.5,206.833 327.5,214.5C 344.325,215.497 361.325,215.83 378.5,215.5C 378.173,224.682 378.507,233.682 379.5,242.5C 362.341,243.497 345.008,243.83 327.5,243.5C 327.5,251.167 327.5,258.833 327.5,266.5C 346.836,266.333 366.17,266.5 385.5,267C 386.227,268.399 386.727,269.899 387,271.5C 392.929,266.116 398.762,260.616 404.5,255C 405.609,254.362 406.775,253.862 408,253.5C 414.932,261.069 423.432,266.235 433.5,269C 442.027,270.569 450.027,269.235 457.5,265C 460.567,259.8 459.9,255.133 455.5,251C 452.583,249.472 449.583,248.139 446.5,247C 434.598,244.442 422.931,241.108 411.5,237C 394.488,226.318 388.655,211.151 394,191.5C 398.976,176.526 409.143,167.026 424.5,163C 443.091,158.726 461.091,160.393 478.5,168C 483.252,170.748 487.419,174.248 491,178.5C 491.499,173.177 491.666,167.844 491.5,162.5C 529.833,162.5 568.167,162.5 606.5,162.5C 606.5,172.167 606.5,181.833 606.5,191.5C 593.167,191.5 579.833,191.5 566.5,191.5C 566.832,226.337 566.498,261.004 565.5,295.5 Z"/></g>
<g><path style="opacity:1" fill="#fdfefe" d="M 812.5,161.5 C 825.167,161.5 837.833,161.5 850.5,161.5C 865.302,205.908 880.302,250.241 895.5,294.5C 883.482,294.832 871.482,294.499 859.5,293.5C 856.927,285.945 854.26,278.445 851.5,271C 836.822,270.167 822.155,270.334 807.5,271.5C 804.96,279.119 802.626,286.786 800.5,294.5C 789.167,294.5 777.833,294.5 766.5,294.5C 781.83,250.178 797.163,205.845 812.5,161.5 Z M 829.5,201.5 C 834.402,214.877 838.735,228.543 842.5,242.5C 833.808,242.831 825.141,242.498 816.5,241.5C 820.841,228.143 825.175,214.81 829.5,201.5 Z"/></g>
<g><path style="opacity:1" fill="#fefffe" d="M 49.5,163.5 C 48.5013,206.997 48.168,250.663 48.5,294.5C 37.3206,294.172 26.3206,294.505 15.5,295.5C 14.5013,251.336 14.1679,207.003 14.5,162.5C 26.3453,162.172 38.012,162.505 49.5,163.5 Z"/></g>
<g><path style="opacity:1" fill="#ffffff" d="M 170.5,163.5 C 169.501,206.997 169.168,250.663 169.5,294.5C 158.986,294.172 148.653,294.506 138.5,295.5C 123.194,273.576 108.36,251.242 94,228.5C 93.832,251.004 93.332,273.337 92.5,295.5C 81.6794,294.505 70.6794,294.172 59.5,294.5C 59.5,251.167 59.5,207.833 59.5,164.5C 70.3464,164.828 81.0131,164.494 91.5,163.5C 106.137,184.99 120.637,206.656 135,228.5C 135.5,206.503 135.667,184.503 135.5,162.5C 147.345,162.172 159.012,162.505 170.5,163.5 Z"/></g>
<g><path style="opacity:1" fill="#ffffff" d="M 173.5,162.5 C 185.5,162.5 197.5,162.5 209.5,162.5C 216.381,191.691 224.048,220.691 232.5,249.5C 240.964,220.645 248.964,191.645 256.5,162.5C 267.833,162.5 279.167,162.5 290.5,162.5C 276.988,206.88 263.322,251.213 249.5,295.5C 237.167,295.5 224.833,295.5 212.5,295.5C 200.315,254.1 187.815,212.767 175,171.5C 174.047,168.568 173.547,165.568 173.5,162.5 Z"/></g>
<g><path style="opacity:1" fill="#ffffff" d="M 612.5,163.5 C 623.988,162.505 635.655,162.172 647.5,162.5C 647.832,207.003 647.499,251.336 646.5,295.5C 635.679,294.505 624.679,294.172 613.5,294.5C 613.832,250.663 613.499,206.997 612.5,163.5 Z"/></g>
<g><path style="opacity:1" fill="#fefffe" d="M 1037.5,162.5 C 1038.83,206.5 1038.83,250.5 1037.5,294.5C 1026.68,293.505 1015.68,293.172 1004.5,293.5C 1004.5,250.167 1004.5,206.833 1004.5,163.5C 1015.68,163.828 1026.68,163.495 1037.5,162.5 Z"/></g>
<g><path style="opacity:1" fill="#ffffff" d="M 1210.5,162.5 C 1226.17,184.5 1241.83,206.5 1257.5,228.5C 1258.5,209.528 1258.84,187.861 1258.5,163.5C 1269.68,163.828 1280.68,163.495 1291.5,162.5C 1292.5,206.33 1292.83,250.33 1292.5,294.5C 1281.15,294.832 1269.81,294.499 1258.5,293.5C 1242.8,270.971 1227.3,248.304 1212,225.5C 1211.83,248.67 1211.33,271.67 1210.5,294.5C 1199.68,293.505 1188.68,293.172 1177.5,293.5C 1177.5,250.167 1177.5,206.833 1177.5,163.5C 1188.68,163.828 1199.68,163.495 1210.5,162.5 Z"/></g>
<g><path style="opacity:1" fill="#d6dbdc" d="M 49.5,163.5 C 49.5,207.5 49.5,251.5 49.5,295.5C 38.1667,295.5 26.8333,295.5 15.5,295.5C 26.3206,294.505 37.3206,294.172 48.5,294.5C 48.168,250.663 48.5013,206.997 49.5,163.5 Z"/></g>
<g><path style="opacity:1" fill="#d5dadc" d="M 170.5,163.5 C 170.5,207.5 170.5,251.5 170.5,295.5C 159.833,295.5 149.167,295.5 138.5,295.5C 148.653,294.506 158.986,294.172 169.5,294.5C 169.168,250.663 169.501,206.997 170.5,163.5 Z"/></g>
<g><path style="opacity:0.569" fill="#e0e4e6" d="M 612.5,163.5 C 613.499,206.997 613.832,250.663 613.5,294.5C 624.679,294.172 635.679,294.505 646.5,295.5C 635.167,295.5 623.833,295.5 612.5,295.5C 612.5,251.5 612.5,207.5 612.5,163.5 Z"/></g>
<g><path style="opacity:1" fill="#ffffff" d="M 875.5,162.5 C 913.5,162.5 951.5,162.5 989.5,162.5C 989.5,171.833 989.5,181.167 989.5,190.5C 976.5,190.5 963.5,190.5 950.5,190.5C 950.5,225.167 950.5,259.833 950.5,294.5C 938.5,294.5 926.5,294.5 914.5,294.5C 914.5,259.833 914.5,225.167 914.5,190.5C 901.5,190.5 888.5,190.5 875.5,190.5C 875.5,181.167 875.5,171.833 875.5,162.5 Z"/></g>
<g><path style="opacity:0.639" fill="#dadee0" d="M 1037.5,162.5 C 1026.68,163.495 1015.68,163.828 1004.5,163.5C 1004.5,206.833 1004.5,250.167 1004.5,293.5C 1015.68,293.172 1026.68,293.505 1037.5,294.5C 1026.17,294.5 1014.83,294.5 1003.5,294.5C 1003.5,250.5 1003.5,206.5 1003.5,162.5C 1014.83,162.5 1026.17,162.5 1037.5,162.5 Z"/></g>
<g><path style="opacity:0.58" fill="#dee2e4" d="M 1210.5,162.5 C 1199.68,163.495 1188.68,163.828 1177.5,163.5C 1177.5,206.833 1177.5,250.167 1177.5,293.5C 1188.68,293.172 1199.68,293.505 1210.5,294.5C 1199.17,294.5 1187.83,294.5 1176.5,294.5C 1176.5,250.5 1176.5,206.5 1176.5,162.5C 1187.83,162.5 1199.17,162.5 1210.5,162.5 Z"/></g>
<g><path style="opacity:0.569" fill="#e0e4e5" d="M 1291.5,162.5 C 1280.68,163.495 1269.68,163.828 1258.5,163.5C 1258.84,187.861 1258.5,209.528 1257.5,228.5C 1257.5,206.5 1257.5,184.5 1257.5,162.5C 1268.83,162.5 1280.17,162.5 1291.5,162.5 Z"/></g>
<g><path style="opacity:1" fill="#d8dcdd" d="M 91.5,163.5 C 81.0131,164.494 70.3464,164.828 59.5,164.5C 59.5,207.833 59.5,251.167 59.5,294.5C 70.6794,294.172 81.6794,294.505 92.5,295.5C 81.1667,295.5 69.8333,295.5 58.5,295.5C 58.5,251.5 58.5,207.5 58.5,163.5C 69.5,163.5 80.5,163.5 91.5,163.5 Z"/></g>
<g><path style="opacity:0.58" fill="#dfe3e4" d="M 565.5,295.5 C 554.167,295.5 542.833,295.5 531.5,295.5C 531.5,260.833 531.5,226.167 531.5,191.5C 532.499,225.094 532.833,259.427 532.5,294.5C 543.679,294.172 554.679,294.505 565.5,295.5 Z"/></g>
<g><path style="opacity:1" fill="#d6dbdc" d="M 327.5,214.5 C 344.833,214.5 362.167,214.5 379.5,214.5C 379.5,223.833 379.5,233.167 379.5,242.5C 378.507,233.682 378.173,224.682 378.5,215.5C 361.325,215.83 344.325,215.497 327.5,214.5 Z"/></g>
<g><path style="opacity:1" fill="#e31d2d" d="M 1299.5,238.5 C 1303.77,238.203 1307.93,238.536 1312,239.5C 1312.5,246.826 1312.67,254.159 1312.5,261.5C 1317.17,261.5 1321.83,261.5 1326.5,261.5C 1326.07,254.053 1326.57,246.719 1328,239.5C 1332.08,238.371 1336.25,238.204 1340.5,239C 1341.16,248.092 1341.49,257.258 1341.5,266.5C 1341.49,275.742 1341.16,284.908 1340.5,294C 1336.13,294.828 1331.8,294.661 1327.5,293.5C 1326.54,286.892 1326.2,280.226 1326.5,273.5C 1321.83,273.5 1317.17,273.5 1312.5,273.5C 1312.5,280.5 1312.5,287.5 1312.5,294.5C 1307.83,294.5 1303.17,294.5 1298.5,294.5C 1298.18,275.757 1298.51,257.09 1299.5,238.5 Z"/></g>
<g><path style="opacity:1" fill="#e31e2d" d="M 1344.5,238.5 C 1351.17,238.334 1357.84,238.5 1364.5,239C 1372.88,239.378 1378.38,243.545 1381,251.5C 1381.67,261.5 1381.67,271.5 1381,281.5C 1379.5,288.333 1375.33,292.5 1368.5,294C 1360.17,294.5 1351.84,294.666 1343.5,294.5C 1343.18,275.757 1343.51,257.09 1344.5,238.5 Z M 1356.5,250.5 C 1360.63,249.943 1364.3,250.943 1367.5,253.5C 1369.96,262.105 1370.13,270.772 1368,279.5C 1367.17,280.333 1366.33,281.167 1365.5,282C 1362.52,282.498 1359.52,282.665 1356.5,282.5C 1356.5,271.833 1356.5,261.167 1356.5,250.5 Z"/></g>
<g><path style="opacity:0.604" fill="#dbe0e1" d="M 769.5,222.5 C 750.341,223.497 731.007,223.83 711.5,223.5C 711.5,231.5 711.5,239.5 711.5,247.5C 720.587,247.168 728.92,247.501 736.5,248.5C 727.833,248.5 719.167,248.5 710.5,248.5C 710.5,239.833 710.5,231.167 710.5,222.5C 730.167,222.5 749.833,222.5 769.5,222.5 Z"/></g>
</svg>
