<?xml version="1.0" encoding="UTF-8"?>
<!DOCTYPE svg PUBLIC "-//W3C//DTD SVG 1.1//EN" "http://www.w3.org/Graphics/SVG/1.1/DTD/svg11.dtd">
<svg xmlns="http://www.w3.org/2000/svg" version="1.1" width="280px" height="60px" style="shape-rendering:geometricPrecision; text-rendering:geometricPrecision; image-rendering:optimizeQuality; fill-rule:evenodd; clip-rule:evenodd" xmlns:xlink="http://www.w3.org/1999/xlink">
<g><path style="opacity:1" fill="#ffffff" d="M 5.5,-0.5 C 9.5,-0.5 13.5,-0.5 17.5,-0.5C 21.7388,1.83812 23.7388,5.50479 23.5,10.5C 20.8333,10.5 18.1667,10.5 15.5,10.5C 15.2204,6.77468 13.2204,5.60802 9.5,7C 7.9409,8.99577 7.27423,11.3291 7.5,14C 6.58909,19.7564 8.92243,22.0897 14.5,21C 15.3366,19.9887 15.67,18.8221 15.5,17.5C 18.1667,17.5 20.8333,17.5 23.5,17.5C 23.5948,24.4014 20.2614,28.0681 13.5,28.5C 12.609,29.1098 11.609,29.4431 10.5,29.5C 6.07774,28.45 2.41108,26.1167 -0.5,22.5C -0.5,16.8333 -0.5,11.1667 -0.5,5.5C 1.5,3.5 3.5,1.5 5.5,-0.5 Z"/></g>
<g><path style="opacity:1" fill="#ffffff" d="M 25.5,-0.5 C 31.1667,-0.5 36.8333,-0.5 42.5,-0.5C 49.9969,5.18943 50.3302,11.3561 43.5,18C 45.883,21.1994 47.5497,24.6994 48.5,28.5C 45.8127,28.6641 43.146,28.4974 40.5,28C 38.7275,24.5613 36.5608,21.3946 34,18.5C 33.5,18.6667 33,18.8333 32.5,19C 33.4505,22.0567 33.7839,25.2234 33.5,28.5C 30.8333,28.5 28.1667,28.5 25.5,28.5C 25.5,18.8333 25.5,9.16667 25.5,-0.5 Z M 33.5,6.5 C 36.3456,6.03008 38.6789,6.86341 40.5,9C 39.1971,12.044 36.8638,13.2107 33.5,12.5C 33.5,10.5 33.5,8.5 33.5,6.5 Z"/></g>
<g><path style="opacity:1" fill="#ffffff" d="M 50.5,-0.5 C 53.1667,-0.5 55.8333,-0.5 58.5,-0.5C 58.5,9.16667 58.5,18.8333 58.5,28.5C 55.8333,28.5 53.1667,28.5 50.5,28.5C 50.5,18.8333 50.5,9.16667 50.5,-0.5 Z"/></g>
<g><path style="opacity:1" fill="#ffffff" d="M 60.5,-0.5 C 63.8333,-0.5 67.1667,-0.5 70.5,-0.5C 71.8503,3.90986 73.3503,8.2432 75,12.5C 76.5482,8.01514 78.3815,3.68181 80.5,-0.5C 83.5,-0.5 86.5,-0.5 89.5,-0.5C 90.638,8.75573 90.8046,18.0891 90,27.5C 87.6194,28.435 85.1194,28.7683 82.5,28.5C 82.6658,23.8215 82.4992,19.1548 82,14.5C 80.6667,17.8333 79.3333,21.1667 78,24.5C 76.1862,25.7596 74.3529,25.7596 72.5,24.5C 70.7725,21.7127 69.6058,18.7127 69,15.5C 68.501,19.8206 68.3343,24.1539 68.5,28.5C 65.8333,28.5 63.1667,28.5 60.5,28.5C 60.5,18.8333 60.5,9.16667 60.5,-0.5 Z"/></g>
<g><path style="opacity:1" fill="#ffffff" d="M 91.5,-0.5 C 98.5,-0.5 105.5,-0.5 112.5,-0.5C 112.5,1.83333 112.5,4.16667 112.5,6.5C 108.5,6.5 104.5,6.5 100.5,6.5C 100.5,7.83333 100.5,9.16667 100.5,10.5C 104.329,9.93104 107.663,10.5977 110.5,12.5C 110.5,13.5 110.5,14.5 110.5,15.5C 107.663,17.4023 104.329,18.069 100.5,17.5C 100.5,18.8333 100.5,20.1667 100.5,21.5C 104.5,21.5 108.5,21.5 112.5,21.5C 112.5,23.8333 112.5,26.1667 112.5,28.5C 105.5,28.5 98.5,28.5 91.5,28.5C 91.5,18.8333 91.5,9.16667 91.5,-0.5 Z"/></g>
<g><path style="opacity:1" fill="#fa0833" d="M 110.5,15.5 C 110.5,14.5 110.5,13.5 110.5,12.5C 113.85,12.665 117.183,12.4983 120.5,12C 119.549,8.94325 119.216,5.77659 119.5,2.5C 120.833,2.5 122.167,2.5 123.5,2.5C 123.5,5.83333 123.5,9.16667 123.5,12.5C 126.833,12.5 130.167,12.5 133.5,12.5C 133.5,13.5 133.5,14.5 133.5,15.5C 130.167,15.5 126.833,15.5 123.5,15.5C 123.5,18.8333 123.5,22.1667 123.5,25.5C 122.167,25.5 120.833,25.5 119.5,25.5C 119.216,22.2234 119.549,19.0567 120.5,16C 117.183,15.5017 113.85,15.335 110.5,15.5 Z"/></g>
<g><path style="opacity:1" fill="#ffffff" d="M -0.5,29.5 C 2.16667,29.5 4.83333,29.5 7.5,29.5C 7.5,39.5 7.5,49.5 7.5,59.5C 4.83333,59.5 2.16667,59.5 -0.5,59.5C -0.5,49.5 -0.5,39.5 -0.5,29.5 Z"/></g>
<g><path style="opacity:1" fill="#ffffff" d="M 13.5,28.5 C 14.531,29.2485 15.6976,29.9152 17,30.5C 19.4159,35.0006 22.0825,39.3339 25,43.5C 25.4992,38.8452 25.6658,34.1785 25.5,29.5C 28.2788,29.2786 30.9455,29.612 33.5,30.5C 32.0674,32.5184 32.4008,34.1851 34.5,35.5C 33.8048,43.4006 33.1382,51.4006 32.5,59.5C 30.1667,59.5 27.8333,59.5 25.5,59.5C 23.2721,55.388 20.7721,51.388 18,47.5C 17.7668,51.5845 17.2668,55.5845 16.5,59.5C 13.8333,59.5 11.1667,59.5 8.5,59.5C 7.85899,49.1107 8.52565,39.1107 10.5,29.5C 11.609,29.4431 12.609,29.1098 13.5,28.5 Z"/></g>
<g><path style="opacity:1" fill="#ffffff" d="M 57.5,29.5 C 57.8333,30.1667 58.1667,30.8333 58.5,31.5C 57.1667,31.8333 57.1667,32.1667 58.5,32.5C 58.8261,41.0168 58.4927,49.3501 57.5,57.5C 57.6664,49.8261 57.4997,42.1594 57,34.5C 54.6524,42.8928 52.1524,51.2261 49.5,59.5C 46.8333,59.5 44.1667,59.5 41.5,59.5C 39.1652,51.496 36.8318,43.496 34.5,35.5C 32.4008,34.1851 32.0674,32.5184 33.5,30.5C 35.8953,29.1857 38.3953,29.1857 41,30.5C 42.6667,36.1667 44.3333,41.8333 46,47.5C 47.311,41.776 48.811,36.1093 50.5,30.5C 52.7427,29.5258 55.076,29.1924 57.5,29.5 Z"/></g>
<g><path style="opacity:1" fill="#ffffff" d="M 57.5,29.5 C 64.5,29.5 71.5,29.5 78.5,29.5C 78.5,31.8333 78.5,34.1667 78.5,36.5C 74.5,36.5 70.5,36.5 66.5,36.5C 66.5,37.8333 66.5,39.1667 66.5,40.5C 69.8499,40.335 73.1832,40.5017 76.5,41C 77.4231,43.0408 77.7564,45.2075 77.5,47.5C 73.8333,47.5 70.1667,47.5 66.5,47.5C 66.5,48.8333 66.5,50.1667 66.5,51.5C 71.1785,51.6658 75.8452,51.4992 80.5,51C 81.0253,50.3076 81.6919,49.8076 82.5,49.5C 86.1905,52.8652 89.8572,53.0319 93.5,50C 89.9099,48.4698 86.2432,47.1365 82.5,46C 76.4889,36.4178 79.1556,30.9178 90.5,29.5C 94.3598,29.3917 97.5265,30.7251 100,33.5C 100.49,32.2068 100.657,30.8734 100.5,29.5C 108.5,29.5 116.5,29.5 124.5,29.5C 124.5,31.8333 124.5,34.1667 124.5,36.5C 121.833,36.5 119.167,36.5 116.5,36.5C 116.5,44.1667 116.5,51.8333 116.5,59.5C 113.833,59.5 111.167,59.5 108.5,59.5C 108.5,51.8333 108.5,44.1667 108.5,36.5C 105.552,36.7771 102.719,36.4438 100,35.5C 98.9384,36.8993 97.605,37.8993 96,38.5C 93.4534,36.8225 90.6201,36.1559 87.5,36.5C 87.5,37.5 87.5,38.5 87.5,39.5C 91.1944,40.5083 94.8611,41.675 98.5,43C 101.875,46.7618 102.375,50.9284 100,55.5C 97.9847,56.6966 96.1513,58.0299 94.5,59.5C 91.1667,59.5 87.8333,59.5 84.5,59.5C 82.6455,58.3104 80.8121,56.9771 79,55.5C 78.51,56.7932 78.3433,58.1266 78.5,59.5C 71.8333,59.5 65.1667,59.5 58.5,59.5C 58.1667,58.8333 57.8333,58.1667 57.5,57.5C 58.4927,49.3501 58.8261,41.0168 58.5,32.5C 58.5,32.1667 58.5,31.8333 58.5,31.5C 58.1667,30.8333 57.8333,30.1667 57.5,29.5 Z"/></g>
<g><path style="opacity:1" fill="#ffffff" d="M 133.5,59.5 C 130.833,59.5 128.167,59.5 125.5,59.5C 125.5,49.5 125.5,39.5 125.5,29.5C 128.167,29.5 130.833,29.5 133.5,29.5C 133.5,39.5 133.5,49.5 133.5,59.5 Z"/></g>
<g><path style="opacity:1" fill="#ffffff" d="M 162.5,51.5 C 162.5,52.1667 162.167,52.5 161.5,52.5C 161.167,52.5 160.833,52.5 160.5,52.5C 159.596,53.209 159.263,54.209 159.5,55.5C 157.833,56.8333 156.167,58.1667 154.5,59.5C 151.5,59.5 148.5,59.5 145.5,59.5C 137.969,55.4499 135.136,49.1166 137,40.5C 138.8,31.3887 144.3,27.8887 153.5,30C 159.88,31.1742 162.214,34.8408 160.5,41C 156.237,42.539 153.57,41.2057 152.5,37C 149.975,36.1041 147.808,36.6041 146,38.5C 145.333,42.5 145.333,46.5 146,50.5C 148.738,53.3107 151.238,53.1441 153.5,50C 148.115,50.3127 146.115,47.8127 147.5,42.5C 152.167,42.5 156.833,42.5 161.5,42.5C 161.19,45.7131 161.523,48.7131 162.5,51.5 Z"/></g>
<g><path style="opacity:1" fill="#ffffff" d="M 236.5,59.5 C 233.5,59.5 230.5,59.5 227.5,59.5C 224.242,58.079 221.742,55.7457 220,52.5C 219.333,47.1667 219.333,41.8333 220,36.5C 222.34,31.3814 226.34,29.048 232,29.5C 238.166,29.0105 242.166,31.6771 244,37.5C 244.851,43.2531 244.517,48.9198 243,54.5C 241.035,56.5503 238.868,58.217 236.5,59.5 Z M 229.5,36.5 C 231.467,36.2606 233.301,36.5939 235,37.5C 235.499,42.1548 235.666,46.8215 235.5,51.5C 232.606,51.9577 230.106,51.291 228,49.5C 226.978,44.8711 227.478,40.5377 229.5,36.5 Z"/></g>
<g><path style="opacity:1" fill="#ffffff" d="M 271.5,59.5 C 268.833,59.5 266.167,59.5 263.5,59.5C 261.106,55.0553 258.44,50.722 255.5,46.5C 254.508,50.7828 254.174,55.1161 254.5,59.5C 251.833,59.5 249.167,59.5 246.5,59.5C 245.361,49.9107 245.194,40.244 246,30.5C 248.401,29.3977 250.901,29.231 253.5,30C 257.036,34.2372 260.202,38.7372 263,43.5C 263.499,38.8452 263.666,34.1785 263.5,29.5C 266.167,29.5 268.833,29.5 271.5,29.5C 271.5,39.5 271.5,49.5 271.5,59.5 Z"/></g>
<g><path style="opacity:1" fill="#ffffff" d="M 187.5,59.5 C 184.833,59.5 182.167,59.5 179.5,59.5C 178.699,57.9582 178.366,56.2915 178.5,54.5C 175.167,54.5 171.833,54.5 168.5,54.5C 168.371,56.2161 168.038,57.8828 167.5,59.5C 165.167,59.5 162.833,59.5 160.5,59.5C 160.768,57.901 160.434,56.5676 159.5,55.5C 159.263,54.209 159.596,53.209 160.5,52.5C 160.833,55.1667 161.167,55.1667 161.5,52.5C 162.167,52.5 162.5,52.1667 162.5,51.5C 164.181,43.9238 166.848,36.7571 170.5,30C 172.833,29.3333 175.167,29.3333 177.5,30C 181.833,39.5034 185.167,49.3367 187.5,59.5 Z M 173.5,41.5 C 174.339,42.6412 175.006,43.9745 175.5,45.5C 174.167,46.8333 172.833,46.8333 171.5,45.5C 172.18,44.1401 172.847,42.8068 173.5,41.5 Z"/></g>
<g><path style="opacity:1" fill="#ffffff" d="M 199.5,59.5 C 196.833,59.5 194.167,59.5 191.5,59.5C 191.5,51.8333 191.5,44.1667 191.5,36.5C 188.5,36.5 185.5,36.5 182.5,36.5C 182.5,34.1667 182.5,31.8333 182.5,29.5C 190.833,29.5 199.167,29.5 207.5,29.5C 207.5,31.8333 207.5,34.1667 207.5,36.5C 204.482,36.3354 201.482,36.502 198.5,37C 199.481,44.4129 199.814,51.9129 199.5,59.5 Z"/></g>
<g><path style="opacity:1" fill="#ffffff" d="M 217.5,59.5 C 214.833,59.5 212.167,59.5 209.5,59.5C 209.5,49.5 209.5,39.5 209.5,29.5C 212.167,29.5 214.833,29.5 217.5,29.5C 217.5,39.5 217.5,49.5 217.5,59.5 Z"/></g>
<g><path style="opacity:1" fill="#ffffff" d="M 276.5,59.5 C 275.5,59.5 274.5,59.5 273.5,59.5C 272.699,57.9582 272.366,56.2915 272.5,54.5C 273.833,54.5 275.167,54.5 276.5,54.5C 276.5,56.1667 276.5,57.8333 276.5,59.5 Z"/></g>
</svg>
