<?xml version="1.0" encoding="utf-8"?>
<svg version="1.1" id="Ebene_1" xmlns="http://www.w3.org/2000/svg" xmlns:xlink="http://www.w3.org/1999/xlink" x="0px" y="0px"
	 viewBox="62 24 380.6 210" style="enable-background:new 62 24 380.6 210;" xml:space="preserve">
<g>
	<path style="opacity:1" fill="#ffffff" d="M350.2,73.4c-8.6-4.6-16.8-2.4-25.4,1.9c1.7-3.1,4.2-4.9,6.4-6.8c2.2-1.9,5.2-2.7,7.6-6.1
		c-9,1.3-17.2,1.7-22.9,9.7c-2.5-5.6-6.4-9.7-11-13.1c-4.4-3.3-8.8-6.7-16.3-7.4c5.8,6.5,11.1,11.7,14.5,19
		c-13.4-4.4-26.5-7.3-39.9,1.7c10.9,0.5,20.9,1.7,31.2,5.6c-11.9,2.4-19.8,7.9-20.6,21.4c10.8-8,22-12,35.1-10.9
		c-8.7,12.7-17.9,25-19.6,41.2c-12.3,0-24.7-0.4-36.9,0.2c-5.2,0.2-7.1-1.8-8.6-6.3c-9.8-27.7,2.7-59,29-72.4
		c26.2-13.4,59-5.2,75.5,19C349.2,71.3,349.7,72.3,350.2,73.4C350.1,73.3,350.2,73.4,350.2,73.4z"/>
	<path style="opacity:1" fill="#ffffff" d="M328.3,83.2c8.5-1.3,16.1-1.6,23.8-0.2c2.3,0.4,3.9,1.3,4.6,3.9c4,13.9,3.3,27.4-2.4,40.8
		c-0.5,1.1-0.7,2.3-2.5,2.3c-16.6-0.1-33.1,0-50.1,0c1.7-14.9,7.2-28,15.2-40.5c11.5,7.5,19,17.5,21.8,32
		C346.5,105,339.7,93.7,328.3,83.2z"/>
	<path style="opacity:1" fill="#ffffff" d="M350.1,73.3L350.1,73.3C350.2,73.3,350.2,73.4,350.1,73.3C350.2,73.4,350.1,73.3,350.1,73.3z"/>
</g>
<g>
	<path style="opacity:1" fill="#ffffff" d="M159.4,99.2h13.8c8.6,0,10.7,7.5,10.7,15.5c0,9.8-3.3,15.4-10.7,15.4h-13.8V99.2z M172.5,124
		c3.2,0,4.3-3.3,4.3-9.4c0-8-1.7-9.6-4.3-9.6h-6.2v19H172.5z"/>
	<path style="opacity:1" fill="#ffffff" d="M194.7,99.2h8l9.8,30.9h-7.3l-2-6.3h-9.3l-2,6.3h-7.3L194.7,99.2z M201.7,117.8l-2.9-9.8l-3.2,9.8H201.7z"/>
	<path style="opacity:1" fill="#ffffff" d="M213.5,107c0-6.2,3.6-8.1,8.4-8.2c5.2-0.1,9.8,0.4,12.4,1.3v5.5c-2.7-0.3-8.2-0.5-10.2-0.5
		c-2.5,0-3.7,0.1-3.7,2.5v1c0,1.9,0.6,2.6,2.9,2.6h4.5c6.3,0,7.5,5.2,7.5,8.6v1.7c0,7.4-4.4,8.8-8.6,8.8c-6.4,0-8.7-0.2-12.4-1.4
		v-5.4c1.7,0.2,6.9,0.5,10.9,0.5c1.8,0,3.2-0.4,3.2-2.2v-1.2c0-1.6-0.5-2.4-2.6-2.4h-4.3c-7.7,0-8.2-6.2-8.2-8.6L213.5,107
		C213.4,107,213.5,107,213.5,107z"/>
</g>
<g>
	<path style="opacity:1" fill="#ffffff" d="M91.3,134.5h9.8v45.1h-9.8V134.5z"/>
	<path style="opacity:1" fill="#ffffff" d="M106.6,134.5h9.8l15.1,26.4v-26.4h9.8v45.1h-9.8l-15.2-25.9v25.9h-9.8V134.5z"/>
	<path style="opacity:1" fill="#ffffff" d="M146.2,146.1c0-8.9,5.2-11.8,11.8-11.9c7.4-0.2,13.6,0.6,17.5,1.9v7.9c-3.8-0.4-11.5-0.6-14.4-0.6
		c-3.4,0-5.2,0.2-5.2,3.7v1.6c0,2.9,0.9,3.8,4.2,3.8h6.3c8.7,0,10.7,7.5,10.7,12.4v2.6c0,10.8-6.2,12.9-12.1,12.9
		c-9,0-12.3-0.3-17.5-1.9v-7.9c2.4,0.3,9.8,0.6,15.3,0.6c2.5,0,4.5-0.6,4.5-3.3V166c0-2.2-0.6-3.6-3.6-3.6h-6.1
		c-10.9,0-11.5-9-11.5-12.4L146.2,146.1L146.2,146.1z"/>
	<path style="opacity:1" fill="#ffffff" d="M181.8,144.4c0-8.5,6-9.9,10.1-9.8c0,0,14.1,0.3,19.2,1v8.5h-16.6c-3.1,0-3.1,1.7-3.1,3.5v5.2l16.8,0.6v8.4
		l-16.8,0.6v5.2c0,3.2,1.9,3.2,3.7,3.2h16v8.4c-4.6,0.6-18.7,1-18.7,1c-3.9,0.2-10.8-0.7-10.8-9.5L181.8,144.4L181.8,144.4
		L181.8,144.4z"/>
	<path style="opacity:1" fill="#ffffff" d="M215.7,134.5h9.8v32.8c0,3.2,1.9,3.2,3.7,3.2h13.7v9.2h-17.8c-5.1,0-9.4-2.2-9.4-9.1V134.5z"/>
	<path style="opacity:1" fill="#ffffff" d="M247,134.5h19.2c7.2,0,12.5,3.3,12.5,14.3s-4,12.4-6.7,13.4l7.9,17.5h-11l-6.4-16.6l-5.6-0.8v17.5h-9.8
		L247,134.5L247,134.5z M265.1,154.4c2.9,0,3.8-1.2,3.8-5.6c0-4-1.2-5.4-3.8-5.4h-8.3v11.1L265.1,154.4L265.1,154.4z"/>
	<path style="opacity:1" fill="#ffffff" d="M296.5,134.5h11.3l13.7,45.1h-10.2l-2.9-9h-13.1l-2.9,9h-10.2L296.5,134.5z M306.3,161.8l-4.1-14.4l-4.5,14.4
		H306.3z"/>
	<path style="opacity:1" fill="#ffffff" d="M325.3,134.5h19.3c12.2,0,14.9,10.9,14.9,22.7c0,14.4-4.7,22.4-14.9,22.4h-19.3V134.5z M343.7,170.8
		c4.5,0,6.1-4.8,6.1-13.7c0-11.7-2.3-14-6.1-14H335v27.6L343.7,170.8L343.7,170.8z"/>
	<path style="opacity:1" fill="#ffffff" d="M364.7,134.5h9.8v45.1h-9.8V134.5z"/>
	<path style="opacity:1" fill="#ffffff" d="M397,134.2c10.3,0,17.7,2,17.7,23.2c0,19.9-7,22.5-17.7,22.5s-17.8-1.9-17.8-22.5
		C379.4,136.2,387.1,134.2,397,134.2z M397,170.7c6.2,0,7.9-2.3,7.9-13.3c0-12.4-1.8-14-7.9-14c-5.9,0-8,1.1-8,14
		C389.1,168.4,390.3,170.7,397,170.7z"/>
</g>
<g>
	<path style="opacity:1" fill="#ffffff" d="M161.3,187.8h8.8l3.7,16.7l3.8-16.7h8.8l2.9,26.6H183l-1.8-16.3l-3.6,16.3h-7.2l-3.8-16.3l-1.7,16.3h-6.3
		L161.3,187.8z"/>
	<path style="opacity:1" fill="#ffffff" d="M201,187.8h7.4l8.9,26.6h-6.6l-1.8-5.3h-8.6l-1.8,5.3h-6.6L201,187.8z M207.4,204l-2.7-8.5l-2.9,8.5H207.4z"/>
	<path style="opacity:1" fill="#ffffff" d="M219.7,187.8h6.3v19.2c0,1.9,1.3,1.8,2.4,1.8h8.9v5.4h-11.5c-3.3,0-6.2-1.3-6.2-5.4V187.8z"/>
	<path style="opacity:1" fill="#ffffff" d="M240.3,187.8h6.3v19.2c0,1.9,1.3,1.8,2.4,1.8h8.9v5.4h-11.5c-3.3,0-6.2-1.3-6.2-5.4L240.3,187.8L240.3,187.8z"
		/>
	<path style="opacity:1" fill="#ffffff" d="M271,187.7c6.7,0,11.5,1.2,11.5,13.6c0,11.7-4.6,13.2-11.5,13.2c-7,0-11.5-1.2-11.5-13.2
		C259.4,188.9,264.5,187.7,271,187.7z M271,209.1c4,0,5.2-1.4,5.2-7.8c0-7.4-1.2-8.3-5.2-8.3c-3.9,0-5.2,0.6-5.2,8.3
		C265.7,207.8,266.6,209.1,271,209.1z"/>
	<path style="opacity:1" fill="#ffffff" d="M285.4,187.8h12.5c4.7,0,8.1,1.9,8.1,8.4s-2.6,7.3-4.3,7.9l5.2,10.3h-7.2l-4.2-9.8l-3.7-0.6v10.3h-6.3V187.8z
		 M297.2,199.5c1.9,0,2.5-0.7,2.5-3.3c0-2.4-0.7-3.2-2.5-3.2h-5.3v6.5H297.2z"/>
	<path style="opacity:1" fill="#ffffff" d="M317.6,187.6c4.7,0,6.8,0.4,10,1.3v4.6c0,0-4.4-0.6-8.3-0.6c-3.7,0-5.1,0.4-5.1,8.2c0,6,0.9,8.1,5.2,8.1
		c4,0,8.3-0.3,8.3-0.3v4.6c-2.5,0.8-5.2,1.2-10,1.1c-7.2-0.1-9.7-5-9.7-13.5C308,192.5,309.9,187.6,317.6,187.6z"/>
	<path style="opacity:1" fill="#ffffff" d="M338.9,187.8h7.4l8.9,26.6h-6.6l-1.8-5.3h-8.6l-1.8,5.3h-6.6L338.9,187.8z M345.3,204l-2.7-8.5l-2.9,8.5H345.3
		z"/>
</g>
</svg>
