<?xml version="1.0" encoding="UTF-8"?>
<!DOCTYPE svg PUBLIC "-//W3C//DTD SVG 1.1//EN" "http://www.w3.org/Graphics/SVG/1.1/DTD/svg11.dtd">
<svg xmlns="http://www.w3.org/2000/svg" version="1.1" width="313px" height="161px" style="shape-rendering:geometricPrecision; text-rendering:geometricPrecision; image-rendering:optimizeQuality; fill-rule:evenodd; clip-rule:evenodd" xmlns:xlink="http://www.w3.org/1999/xlink">
<g><path style="opacity:1" fill="#010101" d="M -0.5,-0.5 C 103.833,-0.5 208.167,-0.5 312.5,-0.5C 312.5,53.1667 312.5,106.833 312.5,160.5C 208.167,160.5 103.833,160.5 -0.5,160.5C -0.5,136.833 -0.5,113.167 -0.5,89.5C 2.4493,86.2123 5.4493,82.879 8.5,79.5C 5.81228,76.1456 2.81228,73.1456 -0.5,70.5C -0.5,46.8333 -0.5,23.1667 -0.5,-0.5 Z"/></g>
<g><path style="opacity:1" fill="#fbfbfb" d="M 9.5,8.5 C 56.5,8.5 103.5,8.5 150.5,8.5C 150.667,27.8362 150.5,47.1695 150,66.5C 145.299,70.1845 141.799,74.6845 139.5,80C 142.196,84.7085 145.696,88.8752 150,92.5C 150.5,111.83 150.667,131.164 150.5,150.5C 103.5,150.5 56.5,150.5 9.5,150.5C 9.33338,131.497 9.50005,112.497 10,93.5C 14.6345,89.544 18.4678,85.044 21.5,80C 21.3749,78.3732 20.8749,76.8732 20,75.5C 16.6667,72.1667 13.3333,68.8333 10,65.5C 9.50005,46.5029 9.33338,27.5029 9.5,8.5 Z"/></g>
<g><path style="opacity:1" fill="#020202" d="M 40.5,26.5 C 48.5415,26.3359 56.5415,26.8359 64.5,28C 72.609,32.7825 75.609,39.9491 73.5,49.5C 74.9097,57.4569 72.9097,64.2902 67.5,70C 65.913,70.8624 64.2464,71.5291 62.5,72C 55.1742,72.4997 47.8409,72.6663 40.5,72.5C 40.5,57.1667 40.5,41.8333 40.5,26.5 Z"/></g>
<g><path style="opacity:1" fill="#080808" d="M 99.5,26.5 C 103.437,26.2065 107.27,26.5399 111,27.5C 116.142,42.4258 120.976,57.4258 125.5,72.5C 122.15,72.665 118.817,72.4983 115.5,72C 114.653,69.2824 113.653,66.6157 112.5,64C 107.167,63.3333 101.833,63.3333 96.5,64C 95.6532,66.7176 94.6532,69.3843 93.5,72C 90.5184,72.498 87.5184,72.6646 84.5,72.5C 88.7119,56.8652 93.7119,41.5319 99.5,26.5 Z"/></g>
<g><path style="opacity:1" fill="#fcfcfc" d="M 224.5,26.5 C 234.416,26.181 244.25,26.5144 254,27.5C 254.667,62.1667 254.667,96.8333 254,131.5C 243,132.833 232,132.833 221,131.5C 220.5,107.836 220.333,84.169 220.5,60.5C 213.159,60.6663 205.826,60.4997 198.5,60C 197.378,56.5915 197.211,53.0915 198,49.5C 207.026,41.9683 215.859,34.3017 224.5,26.5 Z"/></g>
<g><path style="opacity:1" fill="#f3f3f3" d="M 50.5,35.5 C 61.3068,34.205 65.6401,39.0383 63.5,50C 65.6919,60.9734 61.3586,65.4734 50.5,63.5C 50.5,54.1667 50.5,44.8333 50.5,35.5 Z"/></g>
<g><path style="opacity:1" fill="#ededed" d="M 103.5,38.5 C 106.828,43.1269 108.828,48.4603 109.5,54.5C 106.167,54.5 102.833,54.5 99.5,54.5C 100.629,49.1123 101.963,43.779 103.5,38.5 Z"/></g>
<g><path style="opacity:1" fill="#080808" d="M 41.5,86.5 C 52.0821,86.1801 62.5821,86.5134 73,87.5C 73.9115,91.4525 73.2448,95.1191 71,98.5C 64.9733,106.36 59.14,114.36 53.5,122.5C 60.1335,123.497 66.8002,123.83 73.5,123.5C 73.5,126.5 73.5,129.5 73.5,132.5C 62.5,132.5 51.5,132.5 40.5,132.5C 40.1632,128.692 40.6632,125.026 42,121.5C 47.7106,113.245 53.544,105.079 59.5,97C 53.5,96.6667 47.5,96.3333 41.5,96C 40.208,92.8347 40.208,89.668 41.5,86.5 Z"/></g>
<g><path style="opacity:1" fill="#070707" d="M 98.5,107.5 C 98.44,106.957 98.1067,106.624 97.5,106.5C 96.5021,114.807 96.1688,123.14 96.5,131.5C 93.7131,132.477 90.7131,132.81 87.5,132.5C 87.3334,117.496 87.5001,102.496 88,87.5C 91.5653,85.9465 94.8986,86.2799 98,88.5C 102.333,96.5 106.667,104.5 111,112.5C 111.333,104.167 111.667,95.8333 112,87.5C 115,86.1667 118,86.1667 121,87.5C 121.5,102.496 121.667,117.496 121.5,132.5C 117.894,132.789 114.394,132.456 111,131.5C 106.565,123.631 102.399,115.631 98.5,107.5 Z"/></g>
<g><path style="opacity:1" fill="#3c3c3c" d="M 98.5,107.5 C 97.8333,115.5 97.1667,123.5 96.5,131.5C 96.1688,123.14 96.5021,114.807 97.5,106.5C 98.1067,106.624 98.44,106.957 98.5,107.5 Z"/></g>
</svg>
