<?xml version="1.0" encoding="UTF-8"?>
<!DOCTYPE svg PUBLIC "-//W3C//DTD SVG 1.1//EN" "http://www.w3.org/Graphics/SVG/1.1/DTD/svg11.dtd">
<svg xmlns="http://www.w3.org/2000/svg" version="1.1" width="313px" height="161px" style="shape-rendering:geometricPrecision; text-rendering:geometricPrecision; image-rendering:optimizeQuality; fill-rule:evenodd; clip-rule:evenodd" xmlns:xlink="http://www.w3.org/1999/xlink">
<g><path style="opacity:1" fill="#020202" d="M -0.5,-0.5 C 103.833,-0.5 208.167,-0.5 312.5,-0.5C 312.5,53.1667 312.5,106.833 312.5,160.5C 208.167,160.5 103.833,160.5 -0.5,160.5C -0.5,136.833 -0.5,113.167 -0.5,89.5C 2.4493,86.2123 5.4493,82.879 8.5,79.5C 5.81228,76.1456 2.81228,73.1456 -0.5,70.5C -0.5,46.8333 -0.5,23.1667 -0.5,-0.5 Z"/></g>
<g><path style="opacity:1" fill="#fbfbfb" d="M 9.5,8.5 C 56.5,8.5 103.5,8.5 150.5,8.5C 150.667,27.8362 150.5,47.1695 150,66.5C 147.086,69.4829 144.086,72.4829 141,75.5C 139.627,77.6954 139.294,80.0288 140,82.5C 143.333,85.8333 146.667,89.1667 150,92.5C 150.5,111.83 150.667,131.164 150.5,150.5C 103.5,150.5 56.5,150.5 9.5,150.5C 9.33338,131.497 9.50005,112.497 10,93.5C 14.6345,89.544 18.4678,85.044 21.5,80C 21.3749,78.3732 20.8749,76.8732 20,75.5C 16.6667,72.1667 13.3333,68.8333 10,65.5C 9.50005,46.5029 9.33338,27.5029 9.5,8.5 Z"/></g>
<g><path style="opacity:1" fill="#020202" d="M 40.5,26.5 C 48.5415,26.3359 56.5415,26.8359 64.5,28C 72.5066,32.8679 75.5066,40.0346 73.5,49.5C 74.9097,57.4569 72.9097,64.2902 67.5,70C 65.913,70.8624 64.2464,71.5291 62.5,72C 55.1742,72.4997 47.8409,72.6663 40.5,72.5C 40.5,57.1667 40.5,41.8333 40.5,26.5 Z"/></g>
<g><path style="opacity:1" fill="#080808" d="M 99.5,26.5 C 103.437,26.2065 107.27,26.5399 111,27.5C 116.142,42.4258 120.976,57.4258 125.5,72.5C 122.15,72.665 118.817,72.4983 115.5,72C 114.653,69.2824 113.653,66.6157 112.5,64C 107.167,63.3333 101.833,63.3333 96.5,64C 95.6532,66.7176 94.6532,69.3843 93.5,72C 90.5184,72.498 87.5184,72.6646 84.5,72.5C 88.5865,56.8024 93.5865,41.469 99.5,26.5 Z"/></g>
<g><path style="opacity:1" fill="#fcfcfc" d="M 222.5,65.5 C 212.833,65.5 203.167,65.5 193.5,65.5C 193.5,58.1667 193.5,50.8333 193.5,43.5C 202.978,31.8847 215.312,26.218 230.5,26.5C 246.544,25.8916 259.377,31.8916 269,44.5C 269.667,55.5 269.667,66.5 269,77.5C 259.167,86 249.333,94.5 239.5,103C 249.167,103.333 258.833,103.667 268.5,104C 269.485,113.417 269.818,122.917 269.5,132.5C 243.833,132.5 218.167,132.5 192.5,132.5C 192.334,124.493 192.5,116.493 193,108.5C 207.333,94.5 221.667,80.5 236,66.5C 239.344,56.2036 235.844,51.7036 225.5,53C 224.667,53.8333 223.833,54.6667 223,55.5C 222.502,58.8168 222.335,62.1501 222.5,65.5 Z"/></g>
<g><path style="opacity:1" fill="#f3f3f3" d="M 50.5,35.5 C 61.3068,34.205 65.6401,39.0383 63.5,50C 65.6919,60.9734 61.3586,65.4734 50.5,63.5C 50.5,54.1667 50.5,44.8333 50.5,35.5 Z"/></g>
<g><path style="opacity:1" fill="#ededed" d="M 103.5,38.5 C 106.828,43.1269 108.828,48.4603 109.5,54.5C 106.167,54.5 102.833,54.5 99.5,54.5C 100.629,49.1123 101.963,43.779 103.5,38.5 Z"/></g>
<g><path style="opacity:1" fill="#a1a1a1" d="M 193.5,43.5 C 193.5,50.8333 193.5,58.1667 193.5,65.5C 203.167,65.5 212.833,65.5 222.5,65.5C 212.681,66.494 202.681,66.8274 192.5,66.5C 192.175,58.6484 192.508,50.9818 193.5,43.5 Z"/></g>
<g><path style="opacity:1" fill="#080808" d="M 41.5,86.5 C 52.0821,86.1801 62.5821,86.5134 73,87.5C 73.9115,91.4525 73.2448,95.1191 71,98.5C 64.9733,106.36 59.14,114.36 53.5,122.5C 60.1335,123.497 66.8002,123.83 73.5,123.5C 73.5,126.5 73.5,129.5 73.5,132.5C 62.5,132.5 51.5,132.5 40.5,132.5C 40.1632,128.692 40.6632,125.026 42,121.5C 48.2014,113.597 54.0348,105.431 59.5,97C 53.5,96.6667 47.5,96.3333 41.5,96C 40.208,92.8347 40.208,89.668 41.5,86.5 Z"/></g>
<g><path style="opacity:1" fill="#070707" d="M 98.5,107.5 C 98.44,106.957 98.1067,106.624 97.5,106.5C 96.5021,114.807 96.1688,123.14 96.5,131.5C 93.7131,132.477 90.7131,132.81 87.5,132.5C 87.3334,117.496 87.5001,102.496 88,87.5C 91.5653,85.9465 94.8986,86.2799 98,88.5C 102.333,96.5 106.667,104.5 111,112.5C 111.333,104.167 111.667,95.8333 112,87.5C 115,86.1667 118,86.1667 121,87.5C 121.5,102.496 121.667,117.496 121.5,132.5C 117.894,132.789 114.394,132.456 111,131.5C 106.565,123.631 102.399,115.631 98.5,107.5 Z"/></g>
<g><path style="opacity:1" fill="#3c3c3c" d="M 98.5,107.5 C 97.8333,115.5 97.1667,123.5 96.5,131.5C 96.1688,123.14 96.5021,114.807 97.5,106.5C 98.1067,106.624 98.44,106.957 98.5,107.5 Z"/></g>
</svg>
