<svg width="192.875" height="118.9" xmlns:xlink="http://www.w3.org/1999/xlink" xmlns="http://www.w3.org/2000/svg"><defs><linearGradient id="a"><stop style="stop-color:#8f1719;stop-opacity:1" offset="0"/><stop style="stop-color:#bc151f;stop-opacity:1" offset="1"/></linearGradient><linearGradient x1="296.463" y1="368.791" x2="258.012" y2="327.778" id="b" xlink:href="#a" gradientUnits="userSpaceOnUse"/><linearGradient x1="235.197" y1="276.187" x2="296.589" y2="274.387" id="d" xlink:href="#a" gradientUnits="userSpaceOnUse"/><linearGradient x1="-299.7" y1="582.163" x2="-360.67" y2="575.661" id="c" xlink:href="#a" gradientUnits="userSpaceOnUse"/></defs><g transform="translate(-203.125 -327.566)"><path d="m203.125 359.441 54.844-31.875 54.844 31.875-.033.757-54.811 32.493-54.797-32.513z" style="fill:url(#b);fill-opacity:1;stroke:none"/><path d="M-361.868 541.355h63.438l4.018-.467-3.449 54.652-.569.955h-63.438z" transform="matrix(-.86444 .50273 0 1 0 0)" style="fill:url(#c);fill-opacity:1;stroke:none"/><path transform="skewY(30.181) scale(.86444 1)" style="fill:url(#d);fill-opacity:1;stroke:none" d="M234.992 241.296h63.438v55.14h-63.438z"/><path d="M159 45v39h17.5c10.803 0 19.5-8.697 19.5-19.5S187.303 45 176.5 45zm9 8h7.5c6.371 0 11.5 5.129 11.5 11.5S181.871 76 175.5 76H168zM121 45v39h9V69h15v15h9V45h-9v15h-15V45z" transform="translate(200 324.648)" style="fill:#fff;fill-opacity:1;stroke:none"/><path d="M211 368.648v17h7.5c4.709 0 8.5-3.791 8.5-8.5a8.48 8.48 0 0 0-8.5-8.5zm4 4h3.5a4.49 4.49 0 0 1 4.5 4.5 4.49 4.49 0 0 1-4.5 4.5H215zm14-4v17h12v-4h-8v-2.5h6.5v-4H233v-2.5h8v-4zm16 0v17h12v-4h-8v-13zm13.5 0v9.5c0 4.155 3.345 7.5 7.5 7.5 4.155 0 7.5-3.345 7.5-7.5v-9.5h-4v9.5c0 1.939-1.561 3.5-3.5 3.5a3.492 3.492 0 0 1-3.5-3.5v-9.5zm16.5 0 5.5 8.5-5.5 8.5h5l3-4.625 3 4.625h5l-5.5-8.5 5.5-8.5h-5l-3 4.625-3-4.625zm18 0v17h12v-4h-8v-2.5h6.5v-4H297v-2.5h8v-4z" style="fill:#fff;stroke:none"/><path d="M11 63.5v21h5V72.687l4.344 6.844h2.312L27 72.687V84.5h5v-21h-5l-5.5 8.625L16 63.5z" transform="translate(200 324.648)" style="fill:#fff;stroke:none"/><path d="M236 388.148v12.5c0 4.986 4.014 9 9 9s9-4.014 9-9v-12.5h-5v12.5c0 2.216-1.784 4-4 4s-4-1.784-4-4v-12.5z" style="fill:#fff;stroke:none"/><rect width="5" height="21" ry="0" x="276.5" y="388.148" style="fill:#fff;stroke:none"/><path d="M295.031 387.648a11.004 11.004 0 0 0-9.406 6.187c-2.663 5.46-.398 12.025 5.063 14.688 5.46 2.663 12.024.398 14.687-5.063l-4.469-2.187a5.996 5.996 0 0 1-5.406 3.375 6 6 0 1 1 0-12 5.996 5.996 0 0 1 5.406 3.375l4.469-2.188a10.99 10.99 0 0 0-5.063-5.062c-1.706-.832-3.509-1.203-5.28-1.125zm-26.195 7.327 4.874-1.375c-1.057-2.236-2.622-5.908-8.359-5.908-4.662 0-7.908 2.394-7.898 6.526.016 7.236 10.925 6.18 10.935 9.138.004 1.225-1.376 2.037-2.704 1.99-1.554-.055-2.793-.787-4.64-3.417l-4.546 1.711c1.522 3.233 3.616 6.008 8.877 6.008 5.683 0 8.21-2.624 8.209-6.362-.004-7.32-10.876-6.509-10.859-9.667.006-1.096.775-1.508 2.64-1.334 1.592.149 2.837 1.497 3.471 2.69z" style="fill:#fff;stroke:none"/></g></svg>