<?xml version="1.0" encoding="UTF-8" standalone="no"?>
<svg
   version="1.1"
   width="249px"
   height="160px"
   style="shape-rendering:geometricPrecision; text-rendering:geometricPrecision; image-rendering:optimizeQuality; fill-rule:evenodd; clip-rule:evenodd"
   id="svg97"
   sodipodi:docname="Deluxe Lounge HD.svg"
   inkscape:version="1.1.1 (3bf5ae0d25, 2021-09-20)"
   xmlns:inkscape="http://www.inkscape.org/namespaces/inkscape"
   xmlns:sodipodi="http://sodipodi.sourceforge.net/DTD/sodipodi-0.dtd"
   xmlns="http://www.w3.org/2000/svg"
   xmlns:svg="http://www.w3.org/2000/svg">
  <defs
     id="defs101" />
  <sodipodi:namedview
     id="namedview99"
     pagecolor="#ffffff"
     bordercolor="#666666"
     borderopacity="1.0"
     inkscape:pageshadow="2"
     inkscape:pageopacity="0.0"
     inkscape:pagecheckerboard="0"
     showgrid="false"
     inkscape:zoom="5.05625"
     inkscape:cx="124.49938"
     inkscape:cy="80"
     inkscape:window-width="1920"
     inkscape:window-height="1017"
     inkscape:window-x="-8"
     inkscape:window-y="-8"
     inkscape:window-maximized="1"
     inkscape:current-layer="g51" />
  <g
     id="g11">
    <path
       style="opacity:1"
       fill="#ff8e18"
       d="M 67.5,2.5 C 70.0163,2.75526 72.3496,3.58859 74.5,5C 94.7489,16.7072 114.916,28.5406 135,40.5C 135.833,66.5064 135.667,92.5064 134.5,118.5C 112.959,131.103 91.2919,143.436 69.5,155.5C 47.2139,143.69 25.2139,131.357 3.5,118.5C 2.3335,92.5064 2.16683,66.5064 3,40.5C 24.6455,27.933 46.1455,15.2663 67.5,2.5 Z"
       id="path9" />
  </g>
  <g
     id="g15">
    <path
       style="opacity:1"
       fill="#ff8e18"
       d="M 143.5,52.5 C 148.167,52.5 152.833,52.5 157.5,52.5C 157.5,60.1667 157.5,67.8333 157.5,75.5C 164.167,75.5 170.833,75.5 177.5,75.5C 177.5,67.8333 177.5,60.1667 177.5,52.5C 182.167,52.5 186.833,52.5 191.5,52.5C 191.5,70.1667 191.5,87.8333 191.5,105.5C 186.833,105.5 182.167,105.5 177.5,105.5C 177.5,99.5 177.5,93.5 177.5,87.5C 170.833,87.5 164.167,87.5 157.5,87.5C 157.5,93.5 157.5,99.5 157.5,105.5C 152.833,105.5 148.167,105.5 143.5,105.5C 143.5,87.8333 143.5,70.1667 143.5,52.5 Z"
       id="path13" />
  </g>
  <g
     id="g19">
    <path
       style="opacity:1"
       fill="#ff8e18"
       d="M 197.5,52.5 C 207.506,52.3335 217.506,52.5002 227.5,53C 240.3,56.6416 246.3,65.1416 245.5,78.5C 245.839,92.6568 239.172,101.49 225.5,105C 216.173,105.5 206.839,105.666 197.5,105.5C 197.5,87.8333 197.5,70.1667 197.5,52.5 Z M 210.5,64.5 C 227.015,62.5088 233.515,69.5088 230,85.5C 227.189,90.9459 222.689,93.2792 216.5,92.5C 214.5,92.1667 212.5,91.8333 210.5,91.5C 211.806,82.5003 211.806,73.5003 210.5,64.5 Z"
       id="path17" />
  </g>
  <g
     id="g23">
    <path
       style="opacity:1"
       fill="#ffffff"
       d="M 10.5,53.5 C 16.072,52.9896 21.4053,53.8229 26.5,56C 30.6386,61.9024 30.3053,67.569 25.5,73C 20.5805,74.2503 15.5805,74.7503 10.5,74.5C 10.5,67.5 10.5,60.5 10.5,53.5 Z"
       id="path21" />
  </g>
  <g
     id="g27">
    <path
       style="opacity:1"
       fill="#ffffff"
       d="M 47.5,54.5 C 47.5,55.8333 47.5,57.1667 47.5,58.5C 44.1667,58.5 40.8333,58.5 37.5,58.5C 37.5,59.5 37.5,60.5 37.5,61.5C 40.1667,61.5 42.8333,61.5 45.5,61.5C 45.5,63.1667 45.5,64.8333 45.5,66.5C 42.8333,66.5 40.1667,66.5 37.5,66.5C 37.5,67.5 37.5,68.5 37.5,69.5C 41.1667,69.5 44.8333,69.5 48.5,69.5C 48.5,71.1667 48.5,72.8333 48.5,74.5C 43.1667,74.5 37.8333,74.5 32.5,74.5C 32.5,67.8333 32.5,61.1667 32.5,54.5C 37.5,54.5 42.5,54.5 47.5,54.5 Z"
       id="path25" />
  </g>
  <g
     id="g31">
    <path
       style="opacity:1"
       fill="#ffffff"
       d="M 56.5,53.5 C 56.5,58.8333 56.5,64.1667 56.5,69.5C 59.8333,69.5 63.1667,69.5 66.5,69.5C 66.5,71.1667 66.5,72.8333 66.5,74.5C 61.5,74.5 56.5,74.5 51.5,74.5C 51.5,67.5 51.5,60.5 51.5,53.5C 53.1667,53.5 54.8333,53.5 56.5,53.5 Z"
       id="path29" />
  </g>
  <g
     id="g35">
    <path
       style="opacity:1"
       fill="#ffffff"
       d="M 68.5,54.5 C 70.1667,54.5 71.8333,54.5 73.5,54.5C 73.1832,58.7016 73.5166,62.7016 74.5,66.5C 75.9692,70.0684 78.1358,70.4017 81,67.5C 81.4992,62.8452 81.6658,58.1785 81.5,53.5C 83.1667,53.5 84.8333,53.5 86.5,53.5C 86.6662,59.5092 86.4995,65.5092 86,71.5C 83.6941,73.8881 80.8608,74.8881 77.5,74.5C 73.675,75.17 70.8417,73.8366 69,70.5C 68.5006,65.1771 68.334,59.8437 68.5,54.5 Z"
       id="path33" />
  </g>
  <g
     id="g39">
    <path
       style="opacity:1"
       fill="#ffffff"
       d="M 89.5,53.5 C 91.5273,53.3379 93.5273,53.5045 95.5,54C 96.5418,55.918 97.7085,57.7513 99,59.5C 100.167,57.6667 101.333,55.8333 102.5,54C 104.579,53.1923 106.579,53.359 108.5,54.5C 106.625,57.7511 104.625,60.9177 102.5,64C 105.08,67.1584 107.413,70.4918 109.5,74C 107.167,74.6667 104.833,74.6667 102.5,74C 101.333,72.1667 100.167,70.3333 99,68.5C 97.7085,70.2487 96.5418,72.082 95.5,74C 93.1667,74.6667 90.8333,74.6667 88.5,74C 90.7582,70.8161 92.7582,67.4828 94.5,64C 92.4288,60.6911 90.7622,57.1911 89.5,53.5 Z"
       id="path37" />
  </g>
  <g
     id="g43">
    <path
       style="opacity:1"
       fill="#ffffff"
       d="M 111.5,53.5 C 116.833,53.5 122.167,53.5 127.5,53.5C 127.5,55.1667 127.5,56.8333 127.5,58.5C 124.167,58.5 120.833,58.5 117.5,58.5C 117.5,59.5 117.5,60.5 117.5,61.5C 120.167,61.5 122.833,61.5 125.5,61.5C 125.5,63.1667 125.5,64.8333 125.5,66.5C 122.833,66.5 120.167,66.5 117.5,66.5C 117.5,67.5 117.5,68.5 117.5,69.5C 121.167,69.5 124.833,69.5 128.5,69.5C 128.5,71.1667 128.5,72.8333 128.5,74.5C 122.833,74.5 117.167,74.5 111.5,74.5C 111.5,67.5 111.5,60.5 111.5,53.5 Z"
       id="path41" />
  </g>
  <g
     id="g47">
    <path
       style="opacity:1"
       fill="#ffdcb8"
       d="M 47.5,54.5 C 42.5,54.5 37.5,54.5 32.5,54.5C 32.5,61.1667 32.5,67.8333 32.5,74.5C 31.5088,67.6866 31.1755,60.6866 31.5,53.5C 37.0262,53.1786 42.3595,53.5119 47.5,54.5 Z"
       id="path45" />
  </g>
  <g
     id="g51">
    <path
       style="opacity:1;fill:#ffffff"
       fill="#ffb96f"
       d="M 56.5,53.5 C 54.8333,53.5 53.1667,53.5 51.5,53.5C 51.5,60.5 51.5,67.5 51.5,74.5C 56.5,74.5 61.5,74.5 66.5,74.5C 66.5,72.8333 66.5,71.1667 66.5,69.5C 63.1667,69.5 59.8333,69.5 56.5,69.5C 56.5,64.1667 56.5,58.8333 56.5,53.5 Z"
       id="path49" />
  </g>
  <g
     id="g55">
    <path
       style="opacity:1"
       fill="#ffdebc"
       d="M 68.5,54.5 C 70.2646,53.5386 72.2646,53.2053 74.5,53.5C 74.5,57.8333 74.5,62.1667 74.5,66.5C 73.5166,62.7016 73.1832,58.7016 73.5,54.5C 71.8333,54.5 70.1667,54.5 68.5,54.5 Z"
       id="path53" />
  </g>
  <g
     id="g59">
    <path
       style="opacity:1"
       fill="#ff8715"
       d="M 16.5,59.5 C 23.4863,59.331 25.153,62.1643 21.5,68C 19.8659,68.4935 18.1992,68.6602 16.5,68.5C 16.5,65.5 16.5,62.5 16.5,59.5 Z"
       id="path57" />
  </g>
  <g
     id="g63">
    <path
       style="opacity:1"
       fill="#ffffff"
       d="M 31.5,84.5 C 42.5424,83.0444 47.3757,87.711 46,98.5C 42.7231,104.109 37.8897,105.942 31.5,104C 26.7255,100.345 25.2255,95.5116 27,89.5C 28.7073,87.9625 30.2073,86.2959 31.5,84.5 Z"
       id="path61" />
  </g>
  <g
     id="g67">
    <path
       style="opacity:1"
       fill="#ffffff"
       d="M 100.5,93.5 C 103.5,93.5 106.5,93.5 109.5,93.5C 109.5,96.5 109.5,99.5 109.5,102.5C 105.36,104.349 101.026,104.849 96.5,104C 94.4299,103.052 92.9299,101.552 92,99.5C 89.9932,86.7542 95.1599,82.2542 107.5,86C 108.727,87.5874 108.394,88.9207 106.5,90C 104.891,90.0706 103.224,89.9039 101.5,89.5C 96.8487,90.1926 95.3487,92.8593 97,97.5C 99.2185,99.6187 101.718,99.952 104.5,98.5C 103.311,97.5713 101.978,97.238 100.5,97.5C 100.5,96.1667 100.5,94.8333 100.5,93.5 Z"
       id="path65" />
  </g>
  <g
     id="g71">
    <path
       style="opacity:1"
       fill="#ffffff"
       d="M 10.5,84.5 C 12.5,84.5 14.5,84.5 16.5,84.5C 16.5,89.5 16.5,94.5 16.5,99.5C 19.5,99.5 22.5,99.5 25.5,99.5C 25.5,101.167 25.5,102.833 25.5,104.5C 20.5,104.5 15.5,104.5 10.5,104.5C 10.5,97.8333 10.5,91.1667 10.5,84.5 Z"
       id="path69" />
  </g>
  <g
     id="g75">
    <path
       style="opacity:1"
       fill="#ffffff"
       d="M 49.5,84.5 C 51.1667,84.5 52.8333,84.5 54.5,84.5C 54.3343,88.8461 54.501,93.1794 55,97.5C 57.084,100.033 59.084,100.033 61,97.5C 61.499,93.1794 61.6657,88.8461 61.5,84.5C 63.5,84.5 65.5,84.5 67.5,84.5C 67.6659,89.5111 67.4993,94.5111 67,99.5C 65.2003,103.235 62.2003,104.902 58,104.5C 54.4552,104.961 51.7885,103.628 50,100.5C 49.5006,95.1771 49.334,89.8437 49.5,84.5 Z"
       id="path73" />
  </g>
  <g
     id="g79">
    <path
       style="opacity:1"
       fill="#ffffff"
       d="M 69.5,84.5 C 74.5684,86.0423 78.7351,89.0423 82,93.5C 82.498,90.5184 82.6646,87.5184 82.5,84.5C 84.5,84.5 86.5,84.5 88.5,84.5C 88.5,91.1667 88.5,97.8333 88.5,104.5C 87.448,104.649 86.448,104.483 85.5,104C 82.6312,100.796 79.4646,97.9626 76,95.5C 75.502,98.4816 75.3354,101.482 75.5,104.5C 73.5,104.5 71.5,104.5 69.5,104.5C 69.5,97.8333 69.5,91.1667 69.5,84.5 Z"
       id="path77" />
  </g>
  <g
     id="g83">
    <path
       style="opacity:1"
       fill="#ffffff"
       d="M 117.5,99.5 C 120.625,100.479 123.958,100.813 127.5,100.5C 127.5,101.5 127.5,102.5 127.5,103.5C 122.5,103.5 117.5,103.5 112.5,103.5C 112.5,97.1667 112.5,90.8333 112.5,84.5C 117.5,84.5 122.5,84.5 127.5,84.5C 127.5,86.1667 127.5,87.8333 127.5,89.5C 124.167,89.5 120.833,89.5 117.5,89.5C 117.5,90.5 117.5,91.5 117.5,92.5C 120.167,92.5 122.833,92.5 125.5,92.5C 125.5,94.1667 125.5,95.8333 125.5,97.5C 122.302,96.9644 119.635,97.631 117.5,99.5 Z"
       id="path81" />
  </g>
  <g
     id="g87">
    <path
       style="opacity:1"
       fill="#ff8e18"
       d="M 33.5,89.5 C 40.6275,89.7063 42.2942,92.873 38.5,99C 36.2992,99.8249 34.4659,99.3249 33,97.5C 32.2782,94.7395 32.4448,92.0728 33.5,89.5 Z"
       id="path85" />
  </g>
  <g
     id="g91">
    <path
       style="opacity:1"
       fill="#ffc281"
       d="M 100.5,93.5 C 103.625,92.5206 106.958,92.1872 110.5,92.5C 110.813,96.0419 110.479,99.3752 109.5,102.5C 109.5,99.5 109.5,96.5 109.5,93.5C 106.5,93.5 103.5,93.5 100.5,93.5 Z"
       id="path89" />
  </g>
  <g
     id="g95">
    <path
       style="opacity:1"
       fill="#ffe4c8"
       d="M 117.5,99.5 C 121.167,99.5 124.833,99.5 128.5,99.5C 128.5,101.167 128.5,102.833 128.5,104.5C 122.974,104.821 117.64,104.488 112.5,103.5C 117.5,103.5 122.5,103.5 127.5,103.5C 127.5,102.5 127.5,101.5 127.5,100.5C 123.958,100.813 120.625,100.479 117.5,99.5 Z"
       id="path93" />
  </g>
</svg>
