<?xml version="1.0" encoding="UTF-8" standalone="no"?>
<!-- Generator: Adobe Illustrator 23.1.0, SVG Export Plug-In . SVG Version: 6.00 Build 0)  -->

<svg
   version="1.1"
   id="Layer_2"
   x="0px"
   y="0px"
   width="568.72382"
   height="616.47137"
   viewBox="0 0 568.72382 616.47137"
   enable-background="new 0 0 1000 616.4713745"
   xml:space="preserve"
   sodipodi:docname="DELUXE MUSIC.svg"
   inkscape:version="1.1.1 (3bf5ae0d25, 2021-09-20)"
   xmlns:inkscape="http://www.inkscape.org/namespaces/inkscape"
   xmlns:sodipodi="http://sodipodi.sourceforge.net/DTD/sodipodi-0.dtd"
   xmlns="http://www.w3.org/2000/svg"
   xmlns:svg="http://www.w3.org/2000/svg"><defs
   id="defs33" /><sodipodi:namedview
   id="namedview31"
   pagecolor="#ffffff"
   bordercolor="#666666"
   borderopacity="1.0"
   inkscape:pageshadow="2"
   inkscape:pageopacity="0.0"
   inkscape:pagecheckerboard="0"
   showgrid="false"
   inkscape:zoom="1.129"
   inkscape:cx="500.88574"
   inkscape:cy="307.79451"
   inkscape:window-width="1920"
   inkscape:window-height="1017"
   inkscape:window-x="-8"
   inkscape:window-y="-8"
   inkscape:window-maximized="1"
   inkscape:current-layer="Layer_2" />
<polygon
   fill="#c5030e"
   points="0.0810547,166.53362 0.0810547,451.1199 284.39243,616.47137 284.39243,616.4411 284.41245,616.47137 568.72382,451.1199 568.72382,165.24797 568.68378,165.26848 568.68378,165.25822 284.34116,0 284.34262,0 0,165.25774 "
   id="polygon2" />


<path
   fill="#ffffff"
   d="m 40.854473,213.0121 v 88.13765 h 38.884258 c 24.414049,0 44.068829,-19.6543 44.068829,-44.06882 0,-24.41404 -19.65478,-44.06883 -44.068829,-44.06883 z m 20.73827,20.73828 h 18.145988 c 12.925286,0 23.330549,10.40526 23.330549,23.33055 0,12.92527 -10.405263,23.33054 -23.330549,23.33054 H 61.592743 Z"
   id="path8" />
<polygon
   fill="#ffffff"
   points="196.39151,301.14975 196.39151,280.41147 154.91496,280.41147 154.91496,267.45004 188.61465,267.45004 188.61465,246.71179 154.91496,246.71179 154.91496,233.75038 196.39151,233.75038 196.39151,213.0121 134.1767,213.0121 134.1767,301.14975 "
   id="polygon10" />
<polygon
   fill="#ffffff"
   points="279.3446,301.14975 279.3446,280.41147 237.86804,280.41147 237.86804,213.0121 217.12978,213.0121 217.12978,301.14975 "
   id="polygon12" />
<path
   fill="#ffffff"
   d="m 287.12143,213.0121 v 49.2534 c 0,21.54196 17.34228,38.88425 38.88428,38.88425 21.54196,0 38.88424,-17.34229 38.88424,-38.88425 v -49.2534 h -20.73828 v 49.2534 c 0,10.05271 -8.09323,18.14597 -18.14596,18.14597 -10.05274,0 -18.146,-8.09326 -18.146,-18.14597 v -49.2534 z"
   id="path14" />
<polygon
   fill="#ffffff"
   points="372.66681,301.14975 398.58966,301.14975 414.14334,277.17123 429.69705,301.14975 455.6199,301.14975 427.10477,257.08093 455.6199,213.0121 429.69705,213.0121 414.14334,236.9906 398.58966,213.0121 372.66681,213.0121 401.18195,257.08093 "
   id="polygon16" />
<polygon
   fill="#ffffff"
   points="528.20435,301.14975 528.20435,280.41147 486.72729,280.41147 486.72729,267.45004 520.427,267.45004 520.427,246.71179 486.72729,246.71179 486.72729,233.75038 528.20435,233.75038 528.20435,213.0121 465.98904,213.0121 465.98904,301.14975 "
   id="polygon18" />
<polygon
   fill="#ffffff"
   points="66.777313,422.98709 66.777313,361.74689 89.297806,397.22928 101.28755,397.22928 123.80804,361.74689 123.80804,422.98709 149.73088,422.98709 149.73088,314.11118 123.80804,314.11118 95.292923,358.82794 66.777801,314.11118 40.854473,314.11118 40.854473,422.98709 "
   id="polygon20" />
<path
   fill="#ffffff"
   d="m 170.46867,314.11118 v 64.80758 c 0,25.84958 20.81102,46.6611 46.66111,46.6611 25.85008,0 46.66111,-20.81152 46.66111,-46.6611 v -64.80758 h -25.92285 v 64.80758 c 0,11.48828 -9.24901,20.73825 -20.73826,20.73825 -11.48877,0 -20.73827,-9.24997 -20.73827,-20.73825 v -64.80758 z"
   id="path22" />
<rect
   x="380.44366"
   y="314.11118"
   fill="#ffffff"
   width="25.922838"
   height="108.87592"
   id="rect24" />
<path
   fill="#ffffff"
   d="m 476.51392,311.51938 c -20.21238,0.88672 -39.27488,12.61719 -48.76706,32.07907 -13.80762,28.30957 -2.0625,62.33884 26.24658,76.15134 28.30954,13.81152 62.33981,2.06152 76.15134,-26.24707 l -23.16895,-11.34177 c -5.03711,10.39157 -15.70703,17.49802 -28.02881,17.49802 -17.18014,0 -31.10739,-13.92673 -31.10739,-31.1074 0,-17.17968 13.92725,-31.10742 31.10739,-31.10742 12.32227,0 22.9917,7.10742 28.02881,17.49805 l 23.16895,-11.34082 c -5.57813,-11.4375 -14.81055,-20.66892 -26.24707,-26.24704 -8.84668,-4.31543 -18.19385,-6.23633 -27.38086,-5.83301 z"
   id="path26" />
<path
   fill="#ffffff"
   d="m 340.72983,349.47052 25.26999,-7.12891 c -5.48291,-11.59082 -13.59375,-30.62887 -43.33689,-30.62887 -24.1748,0 -40.99951,12.41015 -40.95166,33.83395 0.0845,37.51465 56.64698,32.03809 56.69336,47.37692 0.021,6.35352 -7.13183,10.56153 -14.01709,10.31836 -8.0581,-0.28418 -14.48144,-4.083 -24.05713,-17.71579 l -23.57125,8.87204 c 7.88961,16.76172 18.75045,31.14649 46.02438,31.14649 29.46335,0 42.56882,-13.60352 42.56003,-32.98438 -0.0205,-37.95407 -56.38718,-33.74508 -56.29929,-50.11911 0.0312,-5.68261 4.01416,-7.81933 13.68164,-6.91601 8.25488,0.77148 14.71094,7.76367 18.00049,13.94531 h 0.003 z"
   id="path28" />
</svg>
