<svg xmlns="http://www.w3.org/2000/svg" viewBox="0 0 1470 284.79"><defs>
<style>.cls-1{fill:#e91b2d;}.cls-2,.cls-3{fill:#fff;}.cls-3{fill-rule:evenodd;}</style>
</defs>
<g id="Ebene_2" data-name="Ebene 2"> fill="#ffffff"
<g id="Ebene_1-2" data-name="Ebene 1">
<g id="Ebene_2-2" data-name="Ebene 2">
<g id="Layer_3" data-name="Layer 3">
<rect fill="#e91b2d" width="1185.87" height="284.79"/>
<g id="Layer_1" data-name="Layer 1">
<polygon points="1185.87 0 1470 0 1470 284.79 1185.87 284.79 1185.87 0 1185.87 0"/>
</g>
<polygon fill="#ffffff" points="754.33 200.44 754.33 84.36 731.18 84.36 731.18 200.44 754.33 200.44 754.33 200.44"/>
<polygon fill="#ffffff" points="944.08 200.44 944.08 84.36 921.52 84.36 921.52 143.15 896.39 84.36 876.57 84.36 876.57 200.44 899.13 200.44 899.13 140.74 924.75 200.44 944.08 200.44 944.08 200.44"/>
<path fill="#ffffff" d="M1146.26,200.44l-21-50.21c12.89-6.45,14.21-18.1,14.21-30.49,0-22.18-6-35.38-29.26-35.38h-37.12V200.44h23.15V155.28h7.66l18.21,45.16Zm-28.91-80.7c0,6.68-.49,14.67-9.3,14.67h-11.79V105.23h11.79C1116.86,105.23,1117.35,113.05,1117.35,119.74Z"/>
<path fill="#ffffff" d="M805.91,116.29c0-8.65,2.56-12.82,10.58-12.82s10.58,4.17,10.58,12.82v52.22c0,8.66-2.57,12.82-10.58,12.82s-10.58-4.16-10.58-12.82Zm44.65,26.11c0-28.06.86-36.68-8.44-47.77-5.38-6.36-12.75-11.58-25.79-11.58s-20.1,5.22-25.48,11.58c-9.29,11.09-8.44,19.71-8.44,47.77s-.85,36.68,8.44,47.77c5.38,6.36,12.43,11.58,25.48,11.58s20.41-5.22,25.79-11.58C851.42,179.08,850.56,170.45,850.56,142.4Z"/>
<path fill="#ffffff" d="M499.14,161.51H479.59L489.37,111Zm31.68,39L501,84.36H477.75L447.92,200.44h23.92l3.35-18.09h28.35l3.35,18.09Z"/>
<polygon fill="#ffffff" points="983.65 105.23 983.65 84.36 965.49 84.36 965.49 105.23 983.65 105.23 983.65 105.23"/>
<polygon fill="#ffffff" points="1054.08 105.23 1054.08 84.36 1035.93 84.36 1035.93 105.23 1054.08 105.23 1054.08 105.23"/>
<path fill="#ffffff" d="M1019.36,161.51H999.81l9.78-50.49,9.77,50.49Zm31.68,39L1021.2,84.36H998L968.14,200.44h23.92l3.35-18.09h28.35l3.35,18.09Z"/>
<polygon fill="#ffffff" points="710.34 104.94 710.34 84.36 640.01 84.36 640.01 104.94 663.6 104.94 663.6 200.44 686.75 200.44 686.75 104.94 710.34 104.94 710.34 104.94"/>
<polygon fill="#ffffff" points="630.25 200.44 597.87 135.41 623.67 84.36 600.51 84.36 577.31 134.25 577.31 84.36 554.16 84.36 554.16 200.44 577.31 200.44 577.31 169.68 583.81 156.28 605.46 200.44 630.25 200.44 630.25 200.44"/>
<path fill="#ffffff" d="M292.89,200.44l-21-50.21c12.89-6.45,14.21-18.1,14.21-30.49,0-22.18-6-35.38-29.26-35.38h-37.1V200.44h23.15V155.28h7.66l18.21,45.16ZM264,119.74c0,6.68-.49,14.67-9.3,14.67H242.89V105.23h11.79c8.81,0,9.3,7.82,9.3,14.51Z"/>
<path fill="#ffffff" d="M68.81,105.23h9c10.61,0,12.52,6,12.52,18.23v37.89c0,12.22-1.91,18.22-12.52,18.22h-9ZM46.37,200.45H81.52c20.58,0,31.51-11.26,31.51-35.06v-46c0-23.8-10.93-35-31.51-35H46.37Z"/>
<polygon fill="#ffffff" points="194.18 200.44 194.18 179.57 162.85 179.57 162.85 152.35 187.93 152.35 187.93 131.48 162.85 131.48 162.85 105.23 194.18 105.23 194.18 84.36 139.7 84.36 139.7 200.44 194.18 200.44 194.18 200.44"/>
<path fill="#ffffff" d="M1289.45,109.86v90.87h-28.6V109.86h-28.61V84.36h85.81v25.5Z"/>
<path fill="#ffffff" d="M1385.06,200.73h-21.25L1325.4,84.36H1355l19.61,65.05,19.29-65h29.74Z"/>
<path fill="#ffffff" d="M401.15,170.83l.31.3c1.29,0,2.56-.1,3.81-.19l-.58-.52-1-.75c-1,.06-2.08.09-3.14.1A2.54,2.54,0,0,1,401.15,170.83Z"/>
<polygon fill="#ffffff" points="383.4 127.96 383.82 127.83 385.88 122.13 385.54 122.64 384.37 122.85 384.25 122.6 382.37 127.82 383.4 127.96"/>
<path fill="#ffffff" d="M402.24,116.76c-.31-1-.64-2.06-1-3.08l-.45.49-.67.5q.31.9.6,1.8l.08.1Z"/>
<path fill="#ffffff" d="M377.12,106.56h1.45l.86-.49.19.07c1.66-1,3.36-1.87,5.09-2.69h-.1l-1.19.22-1.07.18-1.1-.07H381c-1.65.89-3.27,1.84-4.84,2.85Z"/><path fill="#ffffff" d="M388.13,143.84V144l2,.42v-.08l-.24-1.18-.22-.23c-.7-.15-1.4-.32-2.11-.49l.07.36Z"/>
<path fill="#ffffff" d="M381.92,141.88l-.06.39c1.34.42,2.67.8,4,1.15l.18-1-.15-.41c-1.27-.33-2.55-.71-3.83-1.12Z"/>
<path fill="#ffffff" d="M403.1,154.51l.71-1.2-.12-.92-.59-.72c-.15,1-.33,2-.52,3Z"/>
<path fill="#ffffff" d="M395.48,121.64l-.29-.63c-1-.21-1.92-.46-2.9-.72l.74.91v.71c1,.25,2,.47,2.91.67Z"/>
<path fill="#ffffff" d="M393.31,143.62l.37,1.13-.1.29c1.05.16,2.08.31,3.11.43l.33-.27,1.44.16,1.29.08.71.37c.75,0,1.48.08,2.22.1l1.46-.58,1.14-.77c0-.53.05-1.06.08-1.59l-.48-.24-.88-.22c0,.69-.07,1.38-.11,2.06A69.46,69.46,0,0,1,393.31,143.62Z"/>
<path fill="#ffffff" d="M400.87,161.81c-.38,1.37-.8,2.73-1.25,4.09l.6,1.76v.65c.59-1.62,1.11-3.25,1.6-4.88l-.41-1.18Z"/>
<path fill="#ffffff" d="M415.25,144.51v.32a32.89,32.89,0,0,0,4.12-1.2v-.19l-1,.32-.91.35v-.6l0-.63c-.79.24-1.61.46-2.45.66Z"/>
<path fill="#ffffff" d="M380.6,141.86h0l.66-.93.61-.05c-.82-.26-1.63-.52-2.45-.81l.61-1.69-1.52.17-.38,1.06-1.13-.49h-.06l-1.24.43-.16.45c.7.27,1.39.56,2.11.82l-2,5.5,1-.18h.52l1.83-4.83C379.51,141.51,380.05,141.68,380.6,141.86Z"/>
<path fill="#ffffff" d="M350.74,105.73v-.16l-.26.19Z"/>
<path fill="#ffffff" d="M397.52,122.61l-1.16.07,1.27.24Z"/>
<path fill="#ffffff" d="M353.53,104.84l-.53.67.05.16c.36-.25.72-.5,1.08-.73Z"/>
<path fill="#ffffff" d="M323.08,157.14l.69.34c.06-.85.12-1.71.21-2.56l-.39.17-1,.21-.07.08c0,.57-.1,1.14-.14,1.71l.1.06Z"/>
<path fill="#ffffff" d="M323.59,159.51l.08.45v-1Z"/>
<path fill="#ffffff" d="M323.81,161.32l.41.72.49.5.55.66h0c-.52-.69-1-1.39-1.48-2.09Z"/>
<path fill="#ffffff" d="M422.28,137.9v.63a1.66,1.66,0,0,0,.08.62l1.07.38.36-.07c-.09-.67-.18-1.33-.29-2l-.37.06Z"/>
<path fill="#ffffff" d="M366.66,97.18l1-.2,1.28-.1.92-.68.92-.4.14-.19c-1.69.51-3.35,1.08-5,1.71Z"/>
<path fill="#ffffff" d="M433.48,160.8a59.46,59.46,0,0,0-72-68.83l-.1-.12-.19.19a59.49,59.49,0,1,0,72.31,68.78h0Zm-92-55.08.27.23.15.13v-.72c.49-.36,1-.71,1.49-1.06a13.42,13.42,0,0,0-.19,2.45l.33.08h.66l.93.21.77.06.42-.86v-.63l-.36-.82-.41-.15-.49-.18-.32-.65.42-.52.64.34.85.19.79.27.61-.45.85.42,1.24.46.74.47-.13.58c1.52-1.1,3.08-2.15,4.69-3.12v-1.59l.12-1,.83-.73.85-.81.59-.11.6-.69.71-.34V96.7l1.41-.41h0l.12-.07a56,56,0,0,1,10.76-1.71l-.24.65-.3.43c1.48-.46,3-.84,4.51-1.2a52.34,52.34,0,0,1,5.62.32,67.32,67.32,0,0,0-17.53,5.1l-.69.76-.65.23.44,1,.49.51,1,.14,1.74-.16.9.33,1.2-.25.86.42,1.3.14,1.06.48.71.49,1,.83.9.3.74-.18.34-.64.86-1.15,1.15-.36,1.38.38,1.79.64.91.06q2.79-1.5,5.7-2.73a11.7,11.7,0,0,1-4.4-4.35,3.69,3.69,0,0,1-.38-1.82,9,9,0,0,1,1.37.17,2.43,2.43,0,0,0,.25,1.06,10.61,10.61,0,0,0,4,3.84l-.11-1.72.09-1.18V95.81a55.06,55.06,0,0,1,16.41,6.7,2.52,2.52,0,0,1-.84.61c-2.16,1-6.45.66-10.68-.88a26,26,0,0,1-4.81-2.31v.12l-1,1.94-.45.81c.7-.32,1.41-.62,2.12-.9a29.17,29.17,0,0,0,3,1.39l-4.63,12.84.54-.32,1.19-.88.43-.73,3.76-10.44a28,28,0,0,0,3.23.87,57,57,0,0,1,2.65,5.52l.48.3,1.19.13c-.79-1.93-1.65-3.82-2.61-5.67a11.67,11.67,0,0,0,6.14-.54,3.79,3.79,0,0,0,1.45-1.12l.91.59c1.46,1.64,2.85,3.33,4.13,5.08l.48-.6L410.2,107l.35.29a68.69,68.69,0,0,1,7.66,12.82,7.49,7.49,0,0,0,2.23-2c.28.39.56.79.83,1.2a9.44,9.44,0,0,1-2.5,2.08,67.85,67.85,0,0,1,4.68,16.08l.71-.11.65.68.24.87-.47.38-.84.18a3.4,3.4,0,0,0,.08.53,15,15,0,0,0,4.69-4.78c.16.59.31,1.19.46,1.79a17.31,17.31,0,0,1-5,4.45,68.37,68.37,0,0,1-.75,19l1.25,1.11.93,1.09,1,.53.26.56c.84-.46,1.66-.94,2.46-1.45-.14.63-.29,1.26-.45,1.88-.69.4-1.39.79-2.1,1.15l.25,1.39.13,1.76-.21,1.06.07.34a55.68,55.68,0,0,1-12.19,18.9,45.45,45.45,0,0,1-4.63,1.9A69.36,69.36,0,0,0,420.2,172c.52-1.46,1-2.92,1.42-4.4a43.65,43.65,0,0,0,5-2.21h0l.35-1-.26-.58a41.61,41.61,0,0,1-4.59,2.15c.48-1.8.87-3.62,1.19-5.44l-.18-.16-1.11-.4c-.39,2.21-.87,4.41-1.48,6.6-1.34.48-2.73.9-4.15,1.28l-.69.61-.88,1.18a53,53,0,0,0,5.25-1.46c-.34,1.13-.71,2.25-1.12,3.36a67.84,67.84,0,0,1-11.25,20,63.27,63.27,0,0,1-16.81,2.4l-.2.57-.75.49-.9.32a67.12,67.12,0,0,0,17.11-1.94,66.45,66.45,0,0,1-6.41,6.37,54.32,54.32,0,0,1-6.83,2.84l.07-.62.45-.62-.17-.72h-.87l-1,.6-.54.91-.42.58-1.1.67-.33.34a54.75,54.75,0,0,1-7.83,1.44l.42-.76,1.15-1.1,1.14.06,1.35-.09.7-1.45,1.09-.91.66-1.31.36-1-.31-1.25.6-1.11.51-.92.17-.06c-1.34,0-2.68-.05-4-.13a78.84,78.84,0,0,1-10.49,10.34c-.72,0-1.44,0-2.15-.06A76.87,76.87,0,0,0,383.31,195a86.1,86.1,0,0,1-16.92-3.14l-.1.19-.08.74L365.4,194l-1,1.14h-.95l-.63.72-.13.87-.26,1.24-.66,1.28-.92,1.54-.37,1-.74,1,.14.46c-1-.28-1.92-.58-2.86-.9l4.39-12.16c1.64.58,3.3,1.1,5,1.58l.5-.92.09-.34c-1.73-.5-3.45-1-5.17-1.65l3.51-9.72-.3-.07-1.05-.24-3.45,9.57a85.22,85.22,0,0,1-20.35-10.79,85.17,85.17,0,0,1,4-25.79,83.83,83.83,0,0,0,9.58,6.48l.24-1.1v-.35a82.69,82.69,0,0,1-9.35-6.41c.21-.62.42-1.23.64-1.84a86.27,86.27,0,0,1,10.35-20,73.05,73.05,0,0,0,11.88,7.72l.25-.72.33-.52a71.75,71.75,0,0,1-11.7-7.57,80.06,80.06,0,0,1,14.43-15.33,67.48,67.48,0,0,0,13.3,6.85l.08-1.23.18-.14A66.58,66.58,0,0,1,372,111.3c1.37-1.07,2.78-2.08,4.2-3l-.35-.29,0-.77.13-.53c-1.81,1.17-3.57,2.43-5.28,3.76a43.81,43.81,0,0,1-4.44-3.59,22,22,0,0,1-4.8-6.1c.66-.32,1.33-.62,2-.92l.06-.07.62-.79.82-1,.77-.54c-1.63.65-3.24,1.34-4.81,2.1a7.3,7.3,0,0,1-.42-3.11l-.31.18-.73.5-.37.17a9.42,9.42,0,0,0,.6,2.88c-1.44.73-2.85,1.52-4.24,2.35l.22,1.07.1.36q2.18-1.39,4.44-2.55a23.05,23.05,0,0,0,5.08,6.49,45.84,45.84,0,0,0,4.26,3.48,79.05,79.05,0,0,0-14.31,15.26c-5.25-4.45-9-9.28-10.83-14a65.84,65.84,0,0,1,5.75-4.93H350l-.65.57-.79-.3-.16-.63c-1.54,1.23-3,2.5-4.47,3.86a16,16,0,0,1-.72-4.45l-.8-.21-.54-.46a17.35,17.35,0,0,0,1,6.14,68.84,68.84,0,0,0-14.09,20,43,43,0,0,1-3.24-7.54A56.08,56.08,0,0,1,341.48,105.72Zm70.25,85.72a54.73,54.73,0,0,1-7.09,5.33c1.32-1.35,2.59-2.75,3.79-4.21C409.55,192.22,410.65,191.85,411.73,191.44Zm-56.08,10.45A55.49,55.49,0,0,1,342,194.45a77.67,77.67,0,0,1-1.79-15.12A87.15,87.15,0,0,0,360,189.72Zm-12.13-52.38a61.66,61.66,0,0,1-13.86-15.82,67.69,67.69,0,0,1,13.78-20.1c2,4.75,5.84,9.6,11.08,14.06A88.45,88.45,0,0,0,344,148.17C343.83,148.62,343.67,149.08,343.52,149.51Zm-18.9,23.55c-.14-.84-.28-1.68-.39-2.52l-.52.45q-.61-1.5-1.14-3c-.21-2.24-.32-4.48-.31-6.73-.8-1.22-1.53-2.45-2.2-3.7-.18-1.3-.31-2.62-.4-3.95a43.48,43.48,0,0,0,2.66,5.17c0-.57.07-1.14.1-1.71l-.54-.38L322,156l.52-.61a68.89,68.89,0,0,1,2.29-12.4l-.06-.52-.08-.7-.7-.57.09-.87-.07-1,.21-.6.34-1.22-.62-.78-.44-.84-.59-.54-.75-.39-.33-.63-.06-.09a54.69,54.69,0,0,1,2.93-7.7,45.22,45.22,0,0,0,3.4,7.34c-.61,1.4-1.18,2.83-1.7,4.29-.59,1.62-1.12,3.25-1.57,4.89v.42l.61.78v1l.14.29a69.72,69.72,0,0,1,2.09-6.92c.4-1.12.83-2.22,1.28-3.3A64.63,64.63,0,0,0,343,151a87,87,0,0,0-4.26,25.7A68.74,68.74,0,0,1,326.6,165l-.34.71-.08.86v.06a71.67,71.67,0,0,0,12.6,11.76,79,79,0,0,0,1.5,14.8,55.7,55.7,0,0,1-15.66-20.08Z"/>
<path fill="#ffffff" d="M376.93,108.94l1.11.62,1.27-.1,1.23-.9.18-.82.38-.42-.39-.81-1.09-.4c-1.17.68-2.31,1.4-3.45,2.16l.16.13Z"/><path fill="#ffffff" d="M376,106.61v.07l.13-.08Z"/>
<path fill="#ffffff" d="M324.4,154.72l.75-.85.17-1.4.09-1.21v-1.13l-.23-.92.26-1,.16-1.06.36-1-.31-.64A67.29,67.29,0,0,0,324,155Z"/>
<path fill="#ffffff" d="M326.27,163.84l-1-.63c.43.58.88,1.16,1.34,1.73l.08-.16Z"/>
<path fill="#ffffff" d="M323.67,159.91v1l.16.23-.06-.84Z"/>
<path fill="#ffffff" d="M325.16,169.7l.48-1,.5-1,.05-1c-.89-1.07-1.74-2.16-2.54-3.26a67.85,67.85,0,0,0,.58,7.26l.23-.2Z"/>
<path fill="#ffffff" d="M324,157.61l-.25-.13a10,10,0,0,1-.07,1.46l.07-.32Z"/>
<polygon fill="#ffffff" points="376.99 126.15 377.49 126.64 378.61 126.63 379.53 126.86 380.21 126.54 380.13 125.84 379.9 125.2 380.14 124.27 380.54 123.75 380.36 123.02 379.82 122.36 379.5 121.69 380.18 121.04 379.99 120.31 379.12 120.54 378.44 121.52 378.28 122.27 377.93 122.91 378.52 123.48 378.2 124.02 377.9 124.57 377.51 125 376.88 125.23 376.56 125.78 376.99 126.15"/>
<polygon fill="#ffffff" points="375.43 124.59 376.1 124.6 376.7 123.83 376.81 122.63 376.35 122.02 375.72 122.23 375.13 122.92 375.38 123.79 375.43 124.59"/>
<path fill="#ffffff" d="M385.83,103.19l.22-.4c-.45.2-.9.42-1.34.63Z"/>
<path fill="#ffffff" d="M365.82,97.34h-.07l.15-.06Z"/>
<path fill="#ffffff" d="M385.81,143.65l-.16,1-1.64.94-1.15-1.08-.29,1.41,1.14,1.09,1.63-.31.61-1.08,1.32-.62,1.14,1.06.08-.84-.33-1.27c-.76-.18-1.54-.37-2.31-.57Z"/>
<path fill="#ffffff" d="M396.19,147l-.36,1,1.07,1.71,1.27.64,1.94.34,1.4.31,1.49.53.07.08c.3-1.89.53-3.79.69-5.68h-1.11l-.37.14-1.25.08-.6-.32c-1.24-.07-2.5-.19-3.77-.34l-.48.39Z"/>
<path fill="#ffffff" d="M387.31,122l1-.29.09,1.56.36,1.42,1.29,0,1.7-1.18,1.25-1v-.59c-2.08-.53-4.21-1.18-6.36-1.93l-.78,2.15.14-.21Z"/>
<path fill="#ffffff" d="M390.43,145.32l.75.93,1,1,1.06-1.15.38-1q-1.69-.27-3.42-.63Z"/>
<path fill="#ffffff" d="M353.78,158.33l-.06.28-.31.84-.75,1.06-.6,1.11.26,1.42v1.66l.48.74.95.53v1.12l.07,1.35.12,1.35.64,1.36.81.86.18,1.58,1.05.75.25.87.71.63.92,1.09,1.05.75,1.75-.13,1.1.58,1.28.65.36.08,4.84-13.44A94.44,94.44,0,0,1,353.78,158.33Z"/>
<path fill="#ffffff" d="M405.58,144.35l-.3.21h0a46.66,46.66,0,0,0,9.72-1.05v-.14l-.41-1-.25-.88.2-.83.54-.89,1.49.21,1-.53,1.37,1.15-.64.83-.82,1v.41a25.76,25.76,0,0,0,5.06-2.11c-.06-.54-.14-1.08-.21-1.62h-.13l.05-.57a66.31,66.31,0,0,0-4.68-16.5c-3.37,1.47-8.08,2.1-13.57,1.71A79.43,79.43,0,0,1,405.36,143l.49.24Z"/>
<path fill="#ffffff" d="M396.36,122.68l-.44-.1.06.12Z"/>
<path fill="#ffffff" d="M397,124.14l-.92.74-1.7.5a1.24,1.24,0,0,0-.67,1.27l-.75.84-.34,1-1.16-.41-1.63.28-1.83.15-.9-.53-.12-.92.81-1-.1-.91-1.37.16-.67.64-.16,1-1.11.67-.55.18L380,138.33h.07l1.87.25,1.24-.43,1.16.41.94,1,.17,1.35.4,1.1c.57.16,1.13.28,1.69.42l-.16-.82-.3-1,.11-1.49.65-.62,1,1,.09,1.56.35,1.44.42.42c1.22.27,2.43.49,3.63.7v-.11l.61-.57,1.35-.09,1.78.29,1.52-.6v-2.06l.74-.49,1-.2,1.16.43.14,1.17.49.74,1.16.27.77.11a77.52,77.52,0,0,0-1.43-18.92c-1.6-.15-3.25-.39-4.95-.71l.21.65Z"/>
<path fill="#ffffff" d="M397.7,171.13a90.57,90.57,0,0,1-27.6-5.24l-4.79,13.28,1.08.26.65.8.55,1.11,1.11.9.2.17-.53.92-.53.94-.47,1.33.35,1.63.09.79-.08.73-.4,1.16-.33.6a85.78,85.78,0,0,0,17.34,3.08A85.81,85.81,0,0,0,397.7,171.13Z"/>
<path fill="#ffffff" d="M422.67,142.19a27.84,27.84,0,0,1-3.27,1.42v.71l.14.84-1.22.9-.12,1,.31.68v1l-.6,1-.78.62-1-.48-.39-1.14a3,3,0,0,0-.11-1.51,3.86,3.86,0,0,1-.27-1.43l-.07-1a48.41,48.41,0,0,1-10.11,1.13,87.41,87.41,0,0,1-3.33,17.49v.14l.64,1.37.49,1.28v2.65l.65.8h0a62.22,62.22,0,0,0,12.66-1.94l.7-.62.52-.93-.36-1.07-.42-.91v-1.13l-.86-1.25-1,.59-1.12.15-1-.85-.86-.86-1-.66-1.24-1.08-.28-1.15,1.2-.7.86,1.25,1.34.48,1.85.66,1.45.17,1.26,1.2,1,.36,1-.77,1-.58,1.4-.25.22.07A66.9,66.9,0,0,0,422.67,142.19Z"/>
<path fill="#ffffff" d="M367.52,138.16l.75.91.89,1.18.78,2,1.18-.23,1.69-.48,1.88.25.76-1.48.11-.32a83.13,83.13,0,0,1-8-3.7l-.31.84Z"/>
<path fill="#ffffff" d="M375.68,146.35l-.41.07-1.51-.54-1.21-.82-1.31-1-1.13.52-1.48.42-1.24.86-1.46-.15-1.32,1.58-.81.67-1.25.88-1.87-.11-1.43.82-1.2,1.25-.7.88-1,.58L355,153.61l-.58,1.1-.42,1.17.05,1a93.59,93.59,0,0,0,15.27,7.25Z"/>
<path fill="#ffffff" d="M400.24,168.31v.12c-.16.45-.33.91-.5,1.36h.8a2.11,2.11,0,0,0-.23-.19Z"/>
<path fill="#ffffff" d="M399.64,164.07l.26-1.23-.09-.79.74-.49.32.25c.68-2.39,1.24-4.78,1.71-7.18l-.88.29-.93,1.08-.9,1.17-.58,1.1-.93.42-1.16-1-.58-1-.83-.29-1.35-.48L394,155l-.71-.63-1.08.37-.85.8-1.44-.7-1.05-.75-.82-.3-1.47-.71-1-.75-.89-.7-.82-.86.47-.78-.81-.86-.82-.85-1.29-.08-1.93-1.45-1.44-.71h-.81L370.6,164.5a89.15,89.15,0,0,0,27.67,5.17c.24-.6.46-1.2.68-1.81s.48-1.37.71-2.06l-.13-.36Z"/>
<path fill="#ffffff" d="M405.4,171.05l.26,1.4v1l.71.63.85-.26,1.15-.51.7-.89,1.51-.57,1.76-.69,2.16-1.29.21-.3a63.1,63.1,0,0,1-9.47,1.42Z"/>
<path fill="#ffffff" d="M384.4,117.67l1.42.55.76-2.1-.84.49Z"/>
<path fill="#ffffff" d="M392.29,120.29h0v-2.4l1.91-2.38,1.07-1.15.42-1.15.7.46.41,1.89-.68,1.3-.62,1.08-.93.76.18,1.35.44,1a60.49,60.49,0,0,0,7.08,1.2q-.66-2.91-1.55-5.74l-1.12-1.41.52-.39q-.8-2.31-1.74-4.53l-1.11-.71-1.88-.25-1.5.55-1.57.74-1.66,1.58-1.19.89-.73,1.25-1.62,4.5C388.86,119.3,390.59,119.83,392.29,120.29Z"/>
<path fill="#ffffff" d="M391.76,192.7h1.13l1-.58,1.19-.71.43-1.17,1.24-.86,1.09-.94,1.08-.37,1.86-.47,2.38-.26.19-1.07,1-.58,1.71-.52,1.07-.92.54-.8L408,183l1.26-1.42,1.11-1.5.69-.88,1.1-.94-.54-1.14-.89-.13-1.37.65-1.06.35-1,.21-1.14.57-1-.38-.25-.87-1.12-2.1-.19-1-.32-1.22-1-1.49-.67-.62h-2.29A87.1,87.1,0,0,1,386,193.72c1.62.07,3.22.09,4.81.06l.15-.42Z"/>
<path fill="#ffffff" d="M408.41,110l-.9-.53-.75.66-.76,1.07-.86,1.12L404,113l-.15,1,1,1.47-.81,1-1.42.36-.44-.06q.84,2.76,1.47,5.59c5.45.42,10.1-.1,13.29-1.55A66.64,66.64,0,0,0,410,108.89l-.32.41Z"/>
<path fill="#ffffff" d="M401.52,113.36l-.23-1.18-.75-1.56h-.49c.42,1,.82,2.06,1.19,3.11Z"/>
<path fill="#ffffff" d="M378.28,138.51h.23l3.85-10.68h0l-.66.62-1.06.5-1.17.23-1.35-.48-1-.37-.85-.07-.33,1v2.4l-.47.7-.84,1.15a2.49,2.49,0,0,1-2.13-.12l-1.5-.74-.89-.53-.67.62-.68,1.29-.68,1.06a85.79,85.79,0,0,0,8.92,4Z"/>
<path fill="#ffffff" d="M383.83,120.71l-.09.84.51,1,1.11-3-1.22-.47v.26Z"/>
<path fill="#ffffff" d="M354.36,105l1-.08.53-.55-.14-.51q-.87.53-1.71,1.08Z"/>
<path fill="#ffffff" d="M352.17,107.68l.78-.61.22-.91-.17-.47c-.94.65-1.88,1.31-2.79,2h2Z"/>
<path fill="#ffffff" d="M349.81,105.84l-.63.21-.71.42-.06.77v.1c.69-.54,1.38-1.07,2.09-1.58Z"/>
<polygon fill="#ffffff" points="393.66 150.44 394.65 150.22 394.12 149.49 392.94 148.72 392.15 148.76 391.65 149.5 392.44 150.11 393.66 150.44"/>
<polygon fill="#ffffff" points="399.8 153.31 400.57 153.03 400.65 152.51 399.6 152.01 398.41 152.5 399.06 153.49 399.8 153.31"/>
<path fill="#ffffff" d="M380.69,143.09l.46.27.64-.55.07-.54-1.26-.41Z"/>
<path fill="#ffffff" d="M382.06,140.81h-.19l.18.06Z"/>
</g></g></g></g></svg>