<svg xmlns="http://www.w3.org/2000/svg" width="676" height="232" style="shape-rendering:geometricPrecision;text-rendering:geometricPrecision;image-rendering:optimizeQuality;fill-rule:evenodd;clip-rule:evenodd"><path style="opacity:.998" fill="#3f67a2" d="M17.5-.5h44c-4.729 14.123-5.229 28.457-1.5 43A192.418 192.418 0 0 0 67.5 67C47.727 77.822 30.227 91.655 15 108.5a445.977 445.977 0 0 1-15.5 19v-110c3-9 9-15 18-18z"/><path style="opacity:1" fill="#fdfdfe" d="M61.5-.5h33c-9.043 3.88-15.21 10.547-18.5 20-4.022 12.262-4.355 24.596-1 37 .118 2.073 1.118 3.407 3 4 13.219-5.947 23.885-14.947 32-27a69.926 69.926 0 0 0 4.5-17c-.15-7.306-3.15-12.972-9-17h33c9.13 30.098 1.797 55.264-22 75.5a20004.501 20004.501 0 0 1-25 19 61783.91 61783.91 0 0 0 11 27c14.528-2.281 29.194-2.948 44-2 17.791 1.475 31.957 9.308 42.5 23.5 10.246 25.011 3.413 43.844-20.5 56.5a175.14 175.14 0 0 1-28 12.5l-1 2a180.895 180.895 0 0 1 5 18h-9a81.453 81.453 0 0 1-6-16 295.69 295.69 0 0 1-50.5 6c-21.538 1.497-40.704-4.336-57.5-17.5a261.425 261.425 0 0 1-22-25.5v-51a445.977 445.977 0 0 0 15.5-19C30.227 91.655 47.727 77.822 67.5 67A192.418 192.418 0 0 1 60 42.5c-3.729-14.543-3.229-28.877 1.5-43z"/><path style="opacity:1" fill="#4168a2" d="M94.5-.5h11c5.85 4.028 8.85 9.694 9 17a69.926 69.926 0 0 1-4.5 17c-8.115 12.053-18.781 21.053-32 27-1.882-.593-2.882-1.927-3-4-3.355-12.404-3.022-24.738 1-37 3.29-9.453 9.457-16.12 18.5-20z"/><path style="opacity:.999" fill="#3f67a2" d="M138.5-.5h126v232h-120a180.895 180.895 0 0 0-5-18l1-2a175.14 175.14 0 0 0 28-12.5c23.913-12.656 30.746-31.489 20.5-56.5-10.543-14.192-24.709-22.025-42.5-23.5-14.806-.948-29.472-.281-44 2a61783.91 61783.91 0 0 1-11-27c8.314-6.308 16.647-12.642 25-19 23.797-20.236 31.13-45.403 22-75.5z"/><path style="opacity:.94" fill="#fff" d="M285.5-.5h26c15.186 2.992 22.186 12.325 21 28 1.413 17.072-6.253 26.905-23 29.5-7.993.5-15.993.666-24 .5v-58zm8 7c25.611-3.75 35.444 6.916 29.5 32-2.44 6.808-7.273 10.642-14.5 11.5-4.989.5-9.989.666-15 .5v-44z"/><path style="opacity:.956" fill="#fff" d="M534.5-.5h7c-.166 6.675 0 13.342.5 20 5.311-4.646 11.477-6.146 18.5-4.5 3.833 1.167 6.333 3.667 7.5 7.5.5 11.662.667 23.329.5 35h-7c.166-10.339 0-20.672-.5-31-1.399-3.738-4.066-5.404-8-5-6.044.04-9.71 3.04-11 9-.5 8.994-.666 17.994-.5 27h-7v-58z"/><path style="opacity:.901" fill="#fff" d="M429.5 2.5h8v13h8v6h-8c-.166 9.34 0 18.673.5 28 2.381.935 4.881 1.268 7.5 1v7a41.07 41.07 0 0 1-13-1.5 6.977 6.977 0 0 1-2.5-3.5 481.169 481.169 0 0 1-.5-31h-7v-6h7v-13z"/><path style="opacity:.921" fill="#fff" d="M352.5 14.5c16.835-1.07 24.835 6.93 24 24a241.136 241.136 0 0 0-31 1c2.968 10.934 9.634 14.1 20 9.5a10.939 10.939 0 0 0 3-4.5 13.118 13.118 0 0 1 7-1c-1.595 9.752-7.428 14.752-17.5 15-13.076-1.745-19.91-9.245-20.5-22.5.607-10.41 5.607-17.577 15-21.5zm0 7c8.058-1.642 13.392 1.358 16 9a121.871 121.871 0 0 1-22 1c.471-4.28 2.471-7.612 6-10z"/><path style="opacity:.918" fill="#fff" d="M460.5 14.5a84.94 84.94 0 0 1 13 .5c5.901 1.773 9.234 5.773 10 12-2.727.818-5.394.652-8-.5-1.799-3.794-4.799-5.46-9-5-8.169-.39-9.836 2.443-5 8.5a135.75 135.75 0 0 1 19 6l3.5 3.5c2.828 8.783-.005 14.617-8.5 17.5-8.649 2.47-16.483.97-23.5-4.5-1.908-2.706-2.741-5.706-2.5-9 2.357-.163 4.69.003 7 .5 3.047 6.142 8.047 8.475 15 7 3.261-.426 4.928-2.26 5-5.5-.186-2.08-1.186-3.58-3-4.5a81.894 81.894 0 0 1-19-6c-4.896-5.397-5.229-11.064-1-17l7-3.5z"/><path style="opacity:.907" fill="#fff" d="M503.5 14.5c6.721-.749 13.054.418 19 3.5 2.906 3.31 4.573 7.144 5 11.5a16.868 16.868 0 0 1-8-1c-2.862-6.658-7.862-8.825-15-6.5-6.944 6.095-8.777 13.595-5.5 22.5 5.532 8.374 11.866 9.04 19 2 1.009-1.525 1.509-3.192 1.5-5h8c-3.187 14.1-11.854 19.267-26 15.5-6.44-2.773-10.274-7.606-11.5-14.5-2.611-13.106 1.889-22.44 13.5-28z"/><path style="opacity:.919" fill="#fff" d="M590.5 14.5c16.938-1.062 24.938 6.938 24 24h-30c1.189 11.104 7.189 14.938 18 11.5 1.914-1.413 3.247-3.247 4-5.5 8.036-2.847 9.87-.847 5.5 6-10.648 10.508-21.315 10.508-32 0-6.167-12.603-4.334-23.77 5.5-33.5a38.715 38.715 0 0 0 5-2.5zm0 7c4.621-.507 8.954.326 13 2.5 1.702 2.235 2.702 4.735 3 7.5h-22c-.009-1.808.491-3.475 1.5-5a31.473 31.473 0 0 0 4.5-5z"/><path style="opacity:.918" fill="#fff" d="M629.5 14.5a84.94 84.94 0 0 1 13 .5c5.901 1.773 9.234 5.773 10 12-2.727.818-5.394.652-8-.5-1.799-3.794-4.799-5.46-9-5-8.169-.39-9.836 2.443-5 8.5a135.75 135.75 0 0 1 19 6l3.5 3.5c2.828 8.783-.005 14.617-8.5 17.5-8.649 2.47-16.483.97-23.5-4.5-1.908-2.706-2.741-5.706-2.5-9 2.357-.163 4.69.003 7 .5 3.047 6.142 8.047 8.475 15 7 3.261-.426 4.928-2.26 5-5.5-.186-2.08-1.186-3.58-3-4.5a81.894 81.894 0 0 1-19-6c-4.896-5.397-5.229-11.064-1-17l7-3.5z"/><path style="opacity:.929" fill="#fff" d="M382.5 15.5h8c-.166 10.339 0 20.672.5 31 5.492 6.59 11.158 6.59 17 0a22.973 22.973 0 0 0 2-5c.5-8.66.666-17.327.5-26h7v42h-7c.687-6.099-.646-6.599-4-1.5-8.025 3.727-15.191 2.56-21.5-3.5a25.78 25.78 0 0 1-2-8c-.5-9.66-.666-19.328-.5-29z"/><path style="opacity:.961" fill="#fff" d="M284.5 85.5a91.123 91.123 0 0 1 19 1 2418.103 2418.103 0 0 1 12.5 37 1555.895 1555.895 0 0 0 12-37 88.658 88.658 0 0 1 18.5-1v57h-12c.167-12.671 0-25.338-.5-38a2529.623 2529.623 0 0 0-12.5 38c-3.937.293-7.77-.04-11.5-1a1083.936 1083.936 0 0 1-12-35 647.854 647.854 0 0 0-.5 36h-13v-57z"/><path style="opacity:.941" fill="#fff" d="M445.5 85.5h12v10h-12v-10z"/><path style="opacity:.961" fill="#fff" d="M466.5 85.5h12c-.166 9.672 0 19.339.5 29l12.5-12.5c4.918-.195 9.751-.695 14.5-1.5-4.473 5.324-9.307 10.657-14.5 16a207.676 207.676 0 0 0 17 25.5c-5 .667-10 .667-15 0a434.457 434.457 0 0 0-11-16.5 14.972 14.972 0 0 0-3.5 3 98.432 98.432 0 0 0-.5 14h-12v-57z"/><path style="opacity:1" fill="#4068a2" d="M79.5 99.5c1.175-.219 2.175.114 3 1a481.202 481.202 0 0 0 9 23c-11.332 4.914-21.165 11.914-29.5 21-15.502 24.122-9.335 39.955 18.5 47.5 16.961 3.966 17.295 2.632 1-4-9.336-8.007-10.502-17.174-3.5-27.5 6.078-7.407 13.745-12.407 23-15a922.987 922.987 0 0 1 23.5 60 3.647 3.647 0 0 1-1 1.5c-17.844 4.977-35.844 5.643-54 2-37.013-11.522-47.846-35.022-32.5-70.5 11.209-16.382 25.375-29.382 42.5-39z"/><path style="opacity:.934" fill="#fff" d="M417.5 99.5a61.722 61.722 0 0 1 14 2.5c4.178 2.685 6.512 6.518 7 11.5h-12c.363-2.411-.637-3.911-3-4.5a16.242 16.242 0 0 0-8 0c-2.629 2.789-1.962 4.789 2 6a323.066 323.066 0 0 1 17 5c6.804 7.264 6.471 14.264-1 21-7.121 2.46-14.455 3.126-22 2-6.935-2.375-10.601-7.208-11-14.5h12c1.058 6.206 4.724 8.372 11 6.5 5.333-2.667 5.333-5.333 0-8a107.8 107.8 0 0 1-17-5c-5.576-4.695-6.409-10.195-2.5-16.5 3.811-3.828 8.311-5.828 13.5-6z"/><path style="opacity:.965" fill="#fff" d="M355.5 101.5h12c-.166 9.006 0 18.006.5 27 2.072 5.781 5.906 7.281 11.5 4.5a6.978 6.978 0 0 0 2.5-3.5c.5-9.327.666-18.661.5-28h12v41h-11a8.43 8.43 0 0 0-.5-4c-3.324 3.744-7.491 5.411-12.5 5-8.619.546-13.452-3.454-14.5-12-.5-9.994-.666-19.994-.5-30z"/><path style="opacity:.974" fill="#fff" d="M445.5 101.5h12v41h-12v-41z"/><path style="opacity:1" fill="#4068a2" d="M112.5 144.5c18.452-1.364 31.952 5.969 40.5 22 5.596 18.142-.571 30.476-18.5 37a782.517 782.517 0 0 1-22-59z"/><path style="opacity:.94" fill="#fff" d="M284.5 173.5h41v11h-27v12h23v11h-23v23h-14v-57z"/><path style="opacity:.961" fill="#fff" d="M543.5 173.5h12c-.166 6.675 0 13.342.5 20 6.262-6.43 13.429-7.597 21.5-3.5 2.117 1.731 3.617 3.898 4.5 6.5.5 11.328.667 22.662.5 34h-12c.166-9.672 0-19.339-.5-29-2.89-4.328-6.723-5.161-11.5-2.5a14.444 14.444 0 0 0-2.5 5.5c-.5 8.66-.666 17.327-.5 26h-12v-57z"/><path style="opacity:.995" fill="#3f67a2" d="M-.5 178.5a261.425 261.425 0 0 0 22 25.5c16.796 13.164 35.962 18.997 57.5 17.5a295.69 295.69 0 0 0 50.5-6 81.453 81.453 0 0 0 6 16h-110c-12.566-2.27-21.233-9.27-26-21v-32z"/><path style="opacity:.94" fill="#fff" d="M356.5 231.5h-13c-11.269-4.855-16.102-13.522-14.5-26 2.365-11.363 9.365-17.363 21-18 8.317.001 14.317 3.668 18 11a35.014 35.014 0 0 1 2.5 14 225.771 225.771 0 0 0-30 1c1.393 7.301 5.726 10.134 13 8.5 4.5-4.466 9.833-5.633 16-3.5a46.928 46.928 0 0 1-4.5 8c-2.682 2.085-5.516 3.752-8.5 5zm-8-35c5.541-.123 8.541 2.543 9 8a145.053 145.053 0 0 1-17-.5l3-5a38.715 38.715 0 0 0 5-2.5z"/><path style="opacity:.947" fill="#fff" d="M397.5 187.5h6v12c-5.339-1.54-9.839-.206-13.5 4a133.23 133.23 0 0 0-1.5 27h-12v-42h11a18.453 18.453 0 0 0 .5 6c2.505-3.353 5.671-5.686 9.5-7z"/><path style="opacity:.958" fill="#fff" d="M428.5 187.5a37.118 37.118 0 0 1 12 1.5c2.5 1.167 4.333 3 5.5 5.5a230.452 230.452 0 0 1 1.5 36h-12c.166-9.339 0-18.673-.5-28-.712-3.45-2.878-5.116-6.5-5-4.151-.012-6.651 1.988-7.5 6-.5 8.994-.666 17.994-.5 27h-12v-42h11a12.93 12.93 0 0 0 .5 5c2.322-2.895 5.155-4.895 8.5-6z"/><path style="opacity:.936" fill="#fff" d="M480.5 231.5h-15c-7.548-2.069-11.548-7.069-12-15h12c.524 4.618 3.191 6.951 8 7 3.357-.006 5.69-1.506 7-4.5-.259-1.261-.926-2.261-2-3a404.715 404.715 0 0 0-19-6c-6.777-6.934-6.443-13.601 1-20 7.217-2.855 14.551-3.188 22-1 5.814 2.124 8.814 6.29 9 12.5h-12c.203-1.89-.463-3.39-2-4.5-4.313-2.212-7.98-1.379-11 2.5.864 1.697 2.197 2.863 4 3.5a107.8 107.8 0 0 1 17 5c5.616 5.086 6.449 10.919 2.5 17.5-2.843 2.663-6.009 4.663-9.5 6z"/><path style="opacity:.948" fill="#fff" d="M524.5 231.5h-13c-12.722-5.443-17.555-15.109-14.5-29 6.943-14.452 17.776-18.286 32.5-11.5 6.509 5.69 9.176 12.856 8 21.5h-29c.616 7.45 4.616 10.617 12 9.5a14.587 14.587 0 0 0 6-4 30.485 30.485 0 0 1 11 0c-2.52 6.352-6.854 10.852-13 13.5zm-8-35c4.442.438 7.442 2.772 9 7-5.667 1.333-11.333 1.333-17 0 1.511-3.856 4.177-6.189 8-7z"/><path style="opacity:.94" fill="#fff" d="M616.5 231.5h-13c-13.43-6.755-17.596-17.421-12.5-32 7.068-11.355 16.901-14.522 29.5-9.5 7.515 5.538 10.848 13.038 10 22.5h-29c.263 7.652 4.263 10.819 12 9.5 2.055-.687 3.721-1.854 5-3.5a31.116 31.116 0 0 1 11-1c-1.59 7.255-5.923 11.922-13 14zm-8-35c5.178.008 8.511 2.508 10 7.5-5.657.499-11.324.666-17 .5.928-3.926 3.261-6.593 7-8z"/><path style="opacity:.958" fill="#fff" d="M675.5 197.5v33h-12c.166-9.339 0-18.673-.5-28-.712-3.45-2.878-5.116-6.5-5-4.151-.012-6.651 1.988-7.5 6-.5 8.994-.666 17.994-.5 27h-12v-42h11c-.687 6.099.646 6.599 4 1.5 7.762-3.8 14.928-2.967 21.5 2.5a38.715 38.715 0 0 0 2.5 5z"/></svg>