<?xml version="1.0" encoding="UTF-8"?>
<!DOCTYPE svg PUBLIC "-//W3C//DTD SVG 1.1//EN" "http://www.w3.org/Graphics/SVG/1.1/DTD/svg11.dtd">
<svg xmlns="http://www.w3.org/2000/svg" version="1.1" width="620px" height="213px" style="shape-rendering:geometricPrecision; text-rendering:geometricPrecision; image-rendering:optimizeQuality; fill-rule:evenodd; clip-rule:evenodd" xmlns:xlink="http://www.w3.org/1999/xlink">
<g><path style="opacity:0.996" fill="#fcfdfe" d="M 516.5,212.5 C 513.833,212.5 511.167,212.5 508.5,212.5C 507.301,208.901 506.301,205.235 505.5,201.5C 486.457,206.297 467.124,209.297 447.5,210.5C 432.458,210.936 419.458,206.103 408.5,196C 407.563,195.308 406.897,195.475 406.5,196.5C 405.167,171.833 405.167,147.167 406.5,122.5C 406.369,123.239 406.536,123.906 407,124.5C 419.922,107.909 435.588,94.576 454,84.5C 450.633,75.0598 447.633,65.3931 445,55.5C 442.198,32.9351 451.031,16.7684 471.5,7C 483.799,3.82238 494.132,6.98904 502.5,16.5C 517.235,35.9354 518.402,56.2687 506,77.5C 497.019,89.0604 486.185,98.3937 473.5,105.5C 476.932,112.246 479.599,119.246 481.5,126.5C 501.104,120.246 520.104,121.746 538.5,131C 554.102,143.574 557.269,158.741 548,176.5C 544.5,181.333 540.333,185.5 535.5,189C 527.731,192.98 519.731,196.48 511.5,199.5C 513.766,203.634 515.432,207.967 516.5,212.5 Z"/></g>
<g><path style="opacity:1" fill="#fcfcfc" d="M 22.5,17.5 C 30.9295,17.7888 39.2628,17.9555 47.5,18C 59.1361,21.4163 64.8028,29.2497 64.5,41.5C 64.7892,53.7884 59.1226,61.6217 47.5,65C 39.1733,65.4997 30.84,65.6664 22.5,65.5C 22.5,49.5 22.5,33.5 22.5,17.5 Z M 33.5,27.5 C 50.1728,25.808 56.3395,33.1414 52,49.5C 51.2155,51.286 50.0488,52.786 48.5,54C 43.6278,55.3885 38.6278,55.8885 33.5,55.5C 33.5,46.1667 33.5,36.8333 33.5,27.5 Z"/></g>
<g><path style="opacity:1" fill="#fcfcfc" d="M 240.5,17.5 C 243.833,17.5 247.167,17.5 250.5,17.5C 250.334,23.1764 250.501,28.8431 251,34.5C 256.173,29.0823 262.006,28.249 268.5,32C 270.049,33.214 271.215,34.714 272,36.5C 272.181,45.7444 272.681,54.911 273.5,64C 270.108,65.7826 266.608,65.9493 263,64.5C 262.667,56.8333 262.333,49.1667 262,41.5C 261.242,39.0904 259.575,38.0904 257,38.5C 253.498,38.3332 251.498,39.9998 251,43.5C 250.5,50.8258 250.334,58.1591 250.5,65.5C 247.167,65.5 243.833,65.5 240.5,65.5C 240.5,49.5 240.5,33.5 240.5,17.5 Z"/></g>
<g><path style="opacity:1" fill="#fbfcfe" d="M 619.5,28.5 C 619.5,33.1667 619.5,37.8333 619.5,42.5C 618.076,44.5145 617.41,46.8478 617.5,49.5C 613.903,55.9209 608.569,60.4209 601.5,63C 591.557,64.3645 581.557,64.8645 571.5,64.5C 573.833,49.1664 576.167,33.833 578.5,18.5C 588.172,18.3335 597.839,18.5002 607.5,19C 613.149,20.1552 617.149,23.3218 619.5,28.5 Z"/></g>
<g><path style="opacity:1" fill="#fdfdfd" d="M 148.5,20.5 C 151.518,20.3354 154.518,20.502 157.5,21C 157.566,23.8671 157.566,26.7005 157.5,29.5C 159.743,30.4742 162.076,30.8076 164.5,30.5C 164.5,32.8333 164.5,35.1667 164.5,37.5C 162.396,37.2011 160.396,37.5344 158.5,38.5C 157.167,44.5 157.167,50.5 158.5,56.5C 160.396,57.4656 162.396,57.7989 164.5,57.5C 164.5,60.1667 164.5,62.8333 164.5,65.5C 160.818,65.6653 157.152,65.4986 153.5,65C 150.667,64.1667 148.833,62.3333 148,59.5C 147.5,52.1742 147.334,44.8409 147.5,37.5C 145.833,37.5 144.167,37.5 142.5,37.5C 142.5,35.1667 142.5,32.8333 142.5,30.5C 144.167,30.5 145.833,30.5 147.5,30.5C 147.253,27.0613 147.586,23.728 148.5,20.5 Z"/></g>
<g><path style="opacity:1" fill="#fafafa" d="M 83.5,29.5 C 96.4082,30.413 102.742,37.413 102.5,50.5C 94.5,50.5 86.5,50.5 78.5,50.5C 78.9973,56.5962 82.3306,59.0962 88.5,58C 90.4552,57.0467 92.1218,55.7134 93.5,54C 94.6667,53.8333 95.8333,53.6667 97,53.5C 98.9729,53.3094 100.473,53.976 101.5,55.5C 96.6231,65.1476 88.9564,68.3143 78.5,65C 68.9322,59.8252 65.7655,51.9919 69,41.5C 71.9642,35.0186 76.7975,31.0186 83.5,29.5 Z M 83.5,37.5 C 89.06,37.0558 91.3933,39.3892 90.5,44.5C 86.6816,44.3303 82.6816,44.3303 78.5,44.5C 78.492,40.8129 80.1587,38.4796 83.5,37.5 Z"/></g>
<g><path style="opacity:1" fill="#fafafa" d="M 179.5,29.5 C 186.012,28.9576 191.512,30.9576 196,35.5C 197.128,37.3453 197.628,39.3453 197.5,41.5C 194.482,41.6646 191.482,41.498 188.5,41C 185.322,36.0529 181.655,35.5529 177.5,39.5C 177.977,40.4776 178.643,41.3109 179.5,42C 184.167,43.3333 188.833,44.6667 193.5,46C 198.155,48.8966 199.655,53.0633 198,58.5C 194.478,63.7633 189.478,66.43 183,66.5C 173.75,66.7355 168.25,62.4021 166.5,53.5C 169.833,53.5 173.167,53.5 176.5,53.5C 176.837,57.3333 179.004,59.3333 183,59.5C 189.284,57.7063 189.784,55.2063 184.5,52C 178.02,51.4064 172.52,48.9064 168,44.5C 167.088,40.5475 167.755,36.8809 170,33.5C 173.139,31.8502 176.306,30.5169 179.5,29.5 Z"/></g>
<g><path style="opacity:1" fill="#fafafa" d="M 217.5,29.5 C 226.893,29.1867 233.227,33.3533 236.5,42C 233.367,43.5697 230.033,43.9031 226.5,43C 223.862,37.5865 220.029,36.4198 215,39.5C 211.558,45.4915 211.725,51.3248 215.5,57C 220.685,59.4119 224.352,57.9119 226.5,52.5C 229.833,51.1667 233.167,51.1667 236.5,52.5C 232.567,64.3008 224.567,68.4675 212.5,65C 205.735,61.645 202.402,56.145 202.5,48.5C 202.771,38.2474 207.771,31.9141 217.5,29.5 Z"/></g>
<g><path style="opacity:1" fill="#fbfbfb" d="M 292.5,29.5 C 305.924,29.9857 312.257,36.9857 311.5,50.5C 303.5,50.5 295.5,50.5 287.5,50.5C 289.142,58.1528 293.475,60.1528 300.5,56.5C 301.287,55.7579 301.953,54.9246 302.5,54C 305.706,53.1098 308.706,53.4431 311.5,55C 305.678,65.9609 297.011,68.9609 285.5,64C 275.205,54.0306 274.872,43.6972 284.5,33C 287.158,31.522 289.825,30.3554 292.5,29.5 Z M 292.5,37.5 C 297.874,36.8805 300.874,39.2138 301.5,44.5C 296.891,44.4424 292.225,44.1091 287.5,43.5C 288.497,40.845 290.164,38.845 292.5,37.5 Z"/></g>
<g><path style="opacity:1" fill="#fafafa" d="M 327.5,29.5 C 334.659,28.8137 340.492,31.1471 345,36.5C 345.494,38.1341 345.66,39.8008 345.5,41.5C 342.482,41.6646 339.482,41.498 336.5,41C 333.322,36.0529 329.655,35.5529 325.5,39.5C 325.977,40.4776 326.643,41.3109 327.5,42C 331.465,43.1265 335.465,44.1265 339.5,45C 345.795,47.4252 347.962,51.9252 346,58.5C 342.62,63.9765 337.62,66.6432 331,66.5C 321.763,66.7517 316.263,62.4183 314.5,53.5C 317.898,53.1796 321.232,53.513 324.5,54.5C 327.245,59.4681 331.078,60.4681 336,57.5C 336.72,55.8876 336.554,54.3876 335.5,53C 330.833,51.6667 326.167,50.3333 321.5,49C 315.337,45.5368 314.004,40.7035 317.5,34.5C 320.395,31.719 323.728,30.0523 327.5,29.5 Z"/></g>
<g><path style="opacity:1" fill="#f7f7f7" d="M 106.5,30.5 C 110.167,30.5 113.833,30.5 117.5,30.5C 117.334,38.84 117.5,47.1733 118,55.5C 121.263,59.224 124.596,59.224 128,55.5C 129.37,47.2363 129.87,38.903 129.5,30.5C 132.833,30.5 136.167,30.5 139.5,30.5C 139.667,41.8382 139.5,53.1716 139,64.5C 135.943,65.4505 132.777,65.7839 129.5,65.5C 129.657,64.1266 129.49,62.7932 129,61.5C 122.378,68.1517 115.712,68.1517 109,61.5C 107.956,59.2852 107.29,56.9519 107,54.5C 106.5,46.5069 106.334,38.5069 106.5,30.5 Z"/></g>
<g><path style="opacity:1" fill="#1e6fb5" d="M 591.5,30.5 C 602.232,28.734 606.732,33.0674 605,43.5C 601.712,51.1149 595.879,54.1149 587.5,52.5C 588.641,45.0933 589.975,37.7599 591.5,30.5 Z"/></g>
<g><path style="opacity:1" fill="#277fc4" d="M 619.5,42.5 C 619.5,99.1667 619.5,155.833 619.5,212.5C 619.167,212.5 618.833,212.5 618.5,212.5C 618.832,157.997 618.499,103.664 617.5,49.5C 617.41,46.8478 618.076,44.5145 619.5,42.5 Z"/></g>
<g><path style="opacity:1" fill="#0f6db4" d="M 406.5,-0.5 C 477.5,-0.5 548.5,-0.5 619.5,-0.5C 619.5,9.16667 619.5,18.8333 619.5,28.5C 617.149,23.3218 613.149,20.1552 607.5,19C 597.839,18.5002 588.172,18.3335 578.5,18.5C 576.167,33.833 573.833,49.1664 571.5,64.5C 581.557,64.8645 591.557,64.3645 601.5,63C 608.569,60.4209 613.903,55.9209 617.5,49.5C 618.499,103.664 618.832,157.997 618.5,212.5C 584.5,212.5 550.5,212.5 516.5,212.5C 515.432,207.967 513.766,203.634 511.5,199.5C 519.731,196.48 527.731,192.98 535.5,189C 540.333,185.5 544.5,181.333 548,176.5C 557.269,158.741 554.102,143.574 538.5,131C 520.104,121.746 501.104,120.246 481.5,126.5C 479.599,119.246 476.932,112.246 473.5,105.5C 486.185,98.3937 497.019,89.0604 506,77.5C 518.402,56.2687 517.235,35.9354 502.5,16.5C 494.132,6.98904 483.799,3.82238 471.5,7C 451.031,16.7684 442.198,32.9351 445,55.5C 447.633,65.3931 450.633,75.0598 454,84.5C 435.588,94.576 419.922,107.909 407,124.5C 406.536,123.906 406.369,123.239 406.5,122.5C 406.5,81.5 406.5,40.5 406.5,-0.5 Z"/></g>
<g><path style="opacity:1" fill="#146db4" d="M 477.5,29.5 C 486.989,28.1523 491.656,32.3189 491.5,42C 491.392,52.2115 487.725,60.8782 480.5,68C 474.833,71.5 469.167,75 463.5,78.5C 452.329,57.6776 456.995,41.3443 477.5,29.5 Z"/></g>
<g><path style="opacity:1" fill="#fbfcfe" d="M 529.5,18.5 C 534.544,18.1725 539.544,18.5059 544.5,19.5C 543.177,24.4367 542.177,29.4367 541.5,34.5C 546.167,34.5 550.833,34.5 555.5,34.5C 556.037,29.1494 556.704,23.8161 557.5,18.5C 562.167,18.5 566.833,18.5 571.5,18.5C 568.838,33.7999 566.505,49.1332 564.5,64.5C 559.833,64.5 555.167,64.5 550.5,64.5C 550.514,58.4189 551.181,52.4189 552.5,46.5C 548.167,46.5 543.833,46.5 539.5,46.5C 538.069,52.4222 537.069,58.4222 536.5,64.5C 531.833,64.5 527.167,64.5 522.5,64.5C 525.021,49.1881 527.354,33.8547 529.5,18.5 Z"/></g>
<g><path style="opacity:1" fill="#fcfcfc" d="M 165.5,82.5 C 170.762,82.1953 175.928,82.5286 181,83.5C 184.597,93.4569 188.097,103.457 191.5,113.5C 194.832,103.506 198.166,93.5057 201.5,83.5C 206.456,82.5059 211.456,82.1725 216.5,82.5C 216.5,98.5 216.5,114.5 216.5,130.5C 213.167,130.5 209.833,130.5 206.5,130.5C 206.666,120.161 206.5,109.828 206,99.5C 202.86,109.252 199.527,118.919 196,128.5C 193.275,130.758 190.275,131.091 187,129.5C 183.273,120.319 179.939,110.985 177,101.5C 176.5,111.161 176.334,120.828 176.5,130.5C 172.894,130.789 169.394,130.456 166,129.5C 165.5,113.837 165.333,98.1702 165.5,82.5 Z"/></g>
<g><path style="opacity:1" fill="#efefef" d="M 297.5,82.5 C 300.833,82.5 304.167,82.5 307.5,82.5C 307.5,85.5 307.5,88.5 307.5,91.5C 304.167,91.5 300.833,91.5 297.5,91.5C 297.5,88.5 297.5,85.5 297.5,82.5 Z"/></g>
<g><path style="opacity:1" fill="#fcfcfc" d="M 315.5,82.5 C 318.518,82.3354 321.518,82.502 324.5,83C 324.957,83.414 325.291,83.914 325.5,84.5C 324.201,91.8061 324.201,99.1394 325.5,106.5C 328.623,102.875 331.956,99.375 335.5,96C 339.5,95.3333 343.5,95.3333 347.5,96C 343.119,100.045 339.119,104.378 335.5,109C 339.702,115.901 344.035,122.735 348.5,129.5C 344.5,130.833 340.5,130.833 336.5,129.5C 333.468,124.965 330.635,120.298 328,115.5C 327,116.5 326,117.5 325,118.5C 324.498,122.241 324.498,125.908 325,129.5C 321.667,130.833 318.333,130.833 315,129.5C 314.183,113.759 314.35,98.0924 315.5,82.5 Z"/></g>
<g><path style="opacity:1" fill="#fbfbfb" d="M 273.5,94.5 C 279.531,94.1659 284.864,95.8325 289.5,99.5C 290.946,101.618 291.613,103.951 291.5,106.5C 288.482,106.665 285.482,106.498 282.5,106C 279.311,101.089 275.644,100.589 271.5,104.5C 271.977,105.478 272.643,106.311 273.5,107C 279.82,107.994 285.654,110.161 291,113.5C 294.047,125.148 289.38,131.148 277,131.5C 267.737,131.721 262.237,127.387 260.5,118.5C 263.833,118.5 267.167,118.5 270.5,118.5C 270.837,122.333 273.004,124.333 277,124.5C 282.363,124.193 283.53,122.027 280.5,118C 276.224,116.514 271.891,115.181 267.5,114C 260.902,110.203 259.736,105.037 264,98.5C 267.005,96.4883 270.171,95.155 273.5,94.5 Z"/></g>
<g><path style="opacity:1" fill="#fcfcfc" d="M 224.5,95.5 C 227.5,95.5 230.5,95.5 233.5,95.5C 233.094,103.917 233.594,112.251 235,120.5C 237.594,123.948 240.594,124.281 244,121.5C 244.973,119.608 245.64,117.608 246,115.5C 246.809,109.251 246.642,103.084 245.5,97C 248.892,95.2174 252.392,95.0507 256,96.5C 256.667,107.5 256.667,118.5 256,129.5C 252.943,130.451 249.777,130.784 246.5,130.5C 246.633,125.728 245.3,125.562 242.5,130C 233.349,133.354 227.182,130.52 224,121.5C 223.198,112.755 223.364,104.088 224.5,95.5 Z"/></g>
<g><path style="opacity:1" fill="#fefffe" d="M 297.5,95.5 C 300.833,95.5 304.167,95.5 307.5,95.5C 307.5,107.167 307.5,118.833 307.5,130.5C 304.167,130.5 300.833,130.5 297.5,130.5C 297.5,118.833 297.5,107.167 297.5,95.5 Z"/></g>
<g><path style="opacity:1" fill="#156eb4" d="M 463.5,110.5 C 464.822,110.33 465.989,110.663 467,111.5C 469.99,117.637 472.49,123.971 474.5,130.5C 461.845,134.647 452.345,142.647 446,154.5C 442.739,165.486 446.239,173.653 456.5,179C 461.175,181.784 466.175,183.117 471.5,183C 458.434,176.732 456.268,167.899 465,156.5C 468.595,151.558 473.262,148.225 479,146.5C 479.833,146.833 480.667,147.167 481.5,147.5C 488.548,162.971 495.215,178.638 501.5,194.5C 486.971,197.772 472.304,198.272 457.5,196C 428.303,187.83 419.137,169.664 430,141.5C 433.902,135.541 438.402,130.041 443.5,125C 450.057,119.9 456.724,115.067 463.5,110.5 Z"/></g>
<g><path style="opacity:1" fill="#8cb8db" d="M 496.5,145.5 C 494.265,145.205 492.265,145.539 490.5,146.5C 489.957,146.44 489.624,146.107 489.5,145.5C 491.973,144.203 494.307,144.203 496.5,145.5 Z"/></g>
<g><path style="opacity:1" fill="#fefefe" d="M 24.5,147.5 C 35.8333,147.5 47.1667,147.5 58.5,147.5C 58.5,150.833 58.5,154.167 58.5,157.5C 50.8333,157.5 43.1667,157.5 35.5,157.5C 35.5,160.833 35.5,164.167 35.5,167.5C 42.1667,167.5 48.8333,167.5 55.5,167.5C 55.7771,170.448 55.4438,173.281 54.5,176C 48.1754,176.5 41.8421,176.666 35.5,176.5C 35.5,182.833 35.5,189.167 35.5,195.5C 31.8936,195.789 28.3936,195.456 25,194.5C 24.5001,178.837 24.3334,163.17 24.5,147.5 Z"/></g>
<g><path style="opacity:1" fill="#fcfcfc" d="M 236.5,147.5 C 240.167,147.5 243.833,147.5 247.5,147.5C 247.334,152.844 247.501,158.177 248,163.5C 254.159,158.413 260.326,158.413 266.5,163.5C 267.609,165.385 268.443,167.385 269,169.5C 269.667,177.833 269.667,186.167 269,194.5C 265.943,195.451 262.777,195.784 259.5,195.5C 259.906,187.083 259.406,178.749 258,170.5C 254.574,167.043 251.241,167.377 248,171.5C 247.667,179.167 247.333,186.833 247,194.5C 243.667,195.833 240.333,195.833 237,194.5C 236.5,178.837 236.333,163.17 236.5,147.5 Z"/></g>
<g><path style="opacity:1" fill="#156db4" d="M 496.5,145.5 C 510.865,147.092 521.031,154.425 527,167.5C 528.115,175.438 525.282,181.605 518.5,186C 515.383,187.973 512.216,189.807 509,191.5C 502.86,176.545 496.693,161.545 490.5,146.5C 492.265,145.539 494.265,145.205 496.5,145.5 Z"/></g>
<g><path style="opacity:1" fill="#fcfcfc" d="M 76.5,159.5 C 89.4337,160.437 95.767,167.437 95.5,180.5C 87.5,180.5 79.5,180.5 71.5,180.5C 71.5886,187.063 74.922,189.563 81.5,188C 83.6238,186.878 85.4571,185.378 87,183.5C 88.7891,183.623 90.6225,183.623 92.5,183.5C 93.5,183.833 94.1667,184.5 94.5,185.5C 89.6231,195.148 81.9564,198.314 71.5,195C 61.7406,189.504 58.574,181.338 62,170.5C 65.1786,164.51 70.0119,160.843 76.5,159.5 Z M 75.5,167.5 C 80.1361,166.812 83.1361,168.645 84.5,173C 84.1667,173.5 83.8333,174 83.5,174.5C 79.6205,174.251 75.6205,174.251 71.5,174.5C 71.1868,171.163 72.5201,168.829 75.5,167.5 Z"/></g>
<g><path style="opacity:1" fill="#fbfbfb" d="M 117.5,159.5 C 119.144,159.286 120.644,159.62 122,160.5C 122.498,163.482 122.665,166.482 122.5,169.5C 115.981,167.884 111.814,170.218 110,176.5C 109.5,182.825 109.334,189.158 109.5,195.5C 106.167,195.5 102.833,195.5 99.5,195.5C 99.3335,184.162 99.5001,172.828 100,161.5C 102.737,160.39 105.571,160.223 108.5,161C 109.191,162.067 109.691,163.234 110,164.5C 112.426,162.548 114.926,160.881 117.5,159.5 Z"/></g>
<g><path style="opacity:1" fill="#fcfcfc" d="M 143.5,159.5 C 150.363,158.732 155.196,161.399 158,167.5C 158.5,176.827 158.666,186.161 158.5,195.5C 155.167,195.5 151.833,195.5 148.5,195.5C 148.666,187.493 148.5,179.493 148,171.5C 144.38,167.513 140.713,167.513 137,171.5C 136.667,179.167 136.333,186.833 136,194.5C 132.943,195.451 129.777,195.784 126.5,195.5C 126.5,183.833 126.5,172.167 126.5,160.5C 129.5,160.5 132.5,160.5 135.5,160.5C 135.343,161.873 135.51,163.207 136,164.5C 138.17,162.177 140.67,160.51 143.5,159.5 Z"/></g>
<g><path style="opacity:1" fill="#fbfbfb" d="M 175.5,159.5 C 181.645,159.224 187.145,160.891 192,164.5C 193.427,166.705 193.927,168.872 193.5,171C 190.446,171.821 187.446,171.655 184.5,170.5C 181.081,165.419 177.414,165.253 173.5,170C 174.167,170.667 174.833,171.333 175.5,172C 181.093,173.045 186.426,174.712 191.5,177C 197.01,184.308 195.677,190.308 187.5,195C 180.554,197.176 173.888,196.509 167.5,193C 164.38,190.592 163.047,187.426 163.5,183.5C 166.572,183.183 169.572,183.516 172.5,184.5C 175.328,189.5 179.161,190.5 184,187.5C 184.72,185.888 184.554,184.388 183.5,183C 178.903,181.414 174.236,180.081 169.5,179C 162.001,173.898 161.667,168.232 168.5,162C 171.004,161.302 173.337,160.469 175.5,159.5 Z"/></g>
<g><path style="opacity:1" fill="#fbfbfb" d="M 213.5,159.5 C 226.405,160.41 232.738,167.41 232.5,180.5C 224.5,180.5 216.5,180.5 208.5,180.5C 208.064,185.898 210.564,188.564 216,188.5C 219.184,188.158 221.684,186.658 223.5,184C 226.146,183.503 228.813,183.336 231.5,183.5C 230.31,190.855 225.977,195.022 218.5,196C 206.387,197.057 199.387,191.557 197.5,179.5C 198.144,168.875 203.478,162.209 213.5,159.5 Z M 212.5,167.5 C 216.908,166.866 219.908,168.533 221.5,172.5C 221.167,173.167 220.833,173.833 220.5,174.5C 216.791,173.545 212.791,173.545 208.5,174.5C 208.998,171.674 210.331,169.34 212.5,167.5 Z"/></g>
<g><path style="opacity:1" fill="#fafafa" d="M 289.5,159.5 C 302.448,160.45 308.781,167.45 308.5,180.5C 300.5,180.5 292.5,180.5 284.5,180.5C 285.361,188.101 289.361,190.268 296.5,187C 299.423,183.827 303.089,182.66 307.5,183.5C 306.31,190.855 301.977,195.022 294.5,196C 281.683,196.853 274.683,190.853 273.5,178C 274.137,167.543 279.47,161.376 289.5,159.5 Z M 288.5,167.5 C 294.19,166.726 297.024,169.059 297,174.5C 293.197,174.466 289.364,174.466 285.5,174.5C 284.54,171.411 285.54,169.078 288.5,167.5 Z"/></g>
<g><path style="opacity:1" fill="#fdfdfd" d="M 330.5,159.5 C 338.623,158.966 343.456,162.633 345,170.5C 345.667,178.5 345.667,186.5 345,194.5C 341.943,195.451 338.777,195.784 335.5,195.5C 335.906,187.083 335.406,178.749 334,170.5C 331.636,167.115 328.803,166.615 325.5,169C 324.283,170.648 323.45,172.481 323,174.5C 322.5,181.492 322.334,188.492 322.5,195.5C 319.223,195.784 316.057,195.451 313,194.5C 312.333,183.5 312.333,172.5 313,161.5C 315.737,160.39 318.571,160.223 321.5,161C 322.191,162.067 322.691,163.234 323,164.5C 325.17,162.177 327.67,160.51 330.5,159.5 Z"/></g>
<g><path style="opacity:1" fill="#156db5" d="M 508.5,212.5 C 474.5,212.5 440.5,212.5 406.5,212.5C 406.5,207.167 406.5,201.833 406.5,196.5C 406.897,195.475 407.563,195.308 408.5,196C 419.458,206.103 432.458,210.936 447.5,210.5C 467.124,209.297 486.457,206.297 505.5,201.5C 506.301,205.235 507.301,208.901 508.5,212.5 Z"/></g>
</svg>
