<?xml version="1.0" encoding="utf-8"?>
<!-- Generator: Adobe Illustrator 19.0.0, SVG Export Plug-In . SVG Version: 6.00 Build 0)  -->
<svg version="1.1" id="Layer_1" xmlns="http://www.w3.org/2000/svg" xmlns:xlink="http://www.w3.org/1999/xlink" x="0px" y="0px"
	 viewBox="0 0 500 500" style="enable-background:new 0 0 500 500;" xml:space="preserve">
<style type="text/css">
	.st0{fill:#2E62CC;}
	.st1{fill:#013366;}
</style>
<g id="XMLID_1_">
	<path id="XMLID_6_" class="st0" d="M314.2,217.2v12.9H333v52.8h13.1v-52.8h19v-12.9H314.2z M373,217.2l23.3,65.7h12.8l23.3-65.7
		h-14.4l-12,38c-1.2,3.9-2.5,8.4-3,10.9c-0.6-2.3-2-7.2-3.2-10.9l-12.3-38H373z M281.1,242.2v13.1h27v-13.1H281.1z"/>
	<path id="XMLID_10_" class="st1" d="M67.5,217.4v65h31.8h2h9.7c19.8,0,35.5-14.7,35.5-32.5c0-17.8-15.7-32.5-35.5-32.5h-9.7h-2.2
		H67.5z M153.2,217.4l24.5,65.1h19.7l14.1-41.6l14.2,41.6h19.7l24.5-65.1h-22l-12.3,39.2l-13.6-39.2h-10.3h-10.4l-13.5,39l-12.6-39
		H153.2z M88.2,234.8h11.5h2h6.8c10.5,0,17.1,6.3,17.1,15.2c0,8.9-6.3,15.4-16.8,15.4h-7.3h-1.9H88.2V234.8z"/>
</g>
</svg>
