<?xml version="1.0" encoding="UTF-8"?>
<svg width="880" height="100" version="1.1" viewBox="0 0 880 100" xmlns="http://www.w3.org/2000/svg">
<title>Deutschlandfunk Kultur logo</title>
 <g id="vlpa">
  <rect width="880" height="100" fill-opacity="0"/>
 </g>
 <path d="m4e-3 100h100v-99.99h-100z" fill="#FF6400"/>
 <path d="m108.5 100h771v-100h-771z" fill="#FF6400"/>
 <path d="m82 44.3h-60v12.9h60zm-60-6.519h54.34v-8.315h-54.34zm0-14.23h39.46v-5.552h-39.46zm50.54 40.17h-50.55v7.61h50.55zm-11.09 18.27h-39.46v-4.755h39.46z" fill="#fff"/>
 <path d="m841.2 39.36h7.782v6.304c2.127-4.244 5.274-6.752 10.94-6.819v7.27c-6.822 0.067-10.94 2.254-10.94 9.395v17.5h-7.782zm-39.9 21.55v-21.55h7.786v20.65c0 5.084 2.124 7.401 6.629 7.401 4.184 0 7.849-2.702 7.849-8.043v-20.01h7.786v33.65h-7.786v-5.274c-1.676 3.281-5.211 5.92-10.68 5.92-6.628 0-11.58-3.796-11.58-12.74m-22.07 2.705v-18.4h-4.508v-5.852h4.508v-7.402h7.782v7.402h7.395v5.852h-7.395v17.7c0 2.96 1.415 4.311 3.86 4.311 1.545 0 2.702-0.194 3.796-0.645v6.177c-1.225 0.451-2.897 0.836-5.278 0.836-6.689 0-10.16-3.598-10.16-9.97m-18.48-39.82h7.786v49.22h-7.786zm-40.08 37.12v-21.55h7.786v20.65c0 5.084 2.124 7.401 6.625 7.401 4.18 0 7.849-2.702 7.849-8.043v-20.01h7.786v33.65h-7.786v-5.274c-1.668 3.281-5.21 5.92-10.68 5.92-6.629 0-11.58-3.796-11.58-12.74m-39.79-33.91h8.555v20.85l17.63-20.91h9.2l-19.04 22.01 20.01 24.06h-10.1l-17.69-21.49v21.49h-8.555zm-50.93-3.217h7.786v30.37l12.03-14.8h8.491l-13.06 15.44 14.15 18.21h-9.007l-12.61-16.53v16.53h-7.786zm-39.76 15.57h7.786v5.341c1.605-3.281 5.337-6.05 10.87-6.05 6.752 0 11.51 3.926 11.51 13.19v21.17h-7.783v-20.46c0-5.084-2.06-7.398-6.692-7.398-4.374 0-7.909 2.699-7.909 8.04v19.82h-7.786zm-39.89 21.55v-21.55h7.782v20.65c0 5.084 2.124 7.398 6.625 7.398 4.184 0 7.85-2.699 7.85-8.04v-20.01h7.785v33.65h-7.785v-5.274c-1.673 3.281-5.211 5.92-10.68 5.92-6.625 0-11.58-3.796-11.58-12.74m-21.91-15.7h-4.568v-5.852h4.568v-4.502c0-7.401 4.114-11.39 11.32-11.39 1.866 0 3.023 0.194 4.441 0.646v6.046c-0.899-0.321-2.127-0.575-3.538-0.575-3.158 0-4.442 2.057-4.442 4.953v4.823h7.656v5.852h-7.656v27.8h-7.782zm-18.79 11.13v-0.511c0-7.402-3.411-11.07-9.073-11.07-5.725 0-9.07 3.99-9.07 11.26v0.511c0 7.401 3.729 10.94 8.749 10.94 5.405 0 9.394-3.606 9.394-11.13m-26.12 0.388v-0.515c0-10.74 6.364-17.56 15.12-17.56 5.472 0 8.88 2.511 10.75 5.856v-20.72h7.783v49.22h-7.783v-5.658c-1.806 3.344-6.117 6.304-11.07 6.304-8.431 0-14.8-5.987-14.8-16.92m-37.57-17.37h7.782v5.341c1.609-3.281 5.341-6.05 10.87-6.05 6.755 0 11.52 3.926 11.52 13.19v21.17h-7.786v-20.46c0-5.084-2.06-7.398-6.692-7.398-4.375 0-7.913 2.699-7.913 8.04v19.82h-7.782zm-17.44 16.98v-0.511c0-7.465-3.475-11.07-8.689-11.07-5.341 0-8.812 3.99-8.812 11.26v0.511c0 7.401 3.736 10.94 8.428 10.94 5.02 0 9.073-3.606 9.073-11.13m-25.48 0.388v-0.515c0-10.74 6.759-17.56 14.86-17.56 5.147 0 8.431 2.444 10.36 5.792v-5.083h7.782v33.65h-7.782v-5.531c-1.869 3.281-6.05 6.177-10.68 6.177-7.85 0-14.54-5.987-14.54-16.92m-15.7-32.94h7.786v49.22h-7.786zm-39.96 0h7.793v20.91c1.605-3.281 5.341-6.05 10.87-6.05 6.756 0 11.52 3.926 11.52 13.19v21.17h-7.789v-20.46c0-5.084-2.056-7.398-6.688-7.398-4.375 0-7.913 2.699-7.913 8.04v19.82h-7.793zm-39.89 32.82v-0.515c0-10.68 7.592-17.44 16.98-17.44 7.465 0 14.48 3.344 15.38 12.61h-7.528c-0.642-4.505-3.602-6.371-7.719-6.371-5.341 0-9.137 4.117-9.137 11.07v0.515c0 7.334 3.602 11.19 9.327 11.19 4.121 0 7.659-2.444 8.107-7.207h7.144c-0.579 7.722-6.435 13.19-15.57 13.19-9.648 0-16.98-6.304-16.98-17.05m-32.75 5.916h7.334c0.384 3.412 2.12 5.408 6.689 5.408 4.183 0 6.046-1.481 6.046-4.311 0-2.765-2.251-3.795-7.204-4.635-8.879-1.415-12.16-3.923-12.16-10.23 0-6.759 6.304-10.1 12.61-10.1 6.887 0 12.36 2.575 13.19 10.17h-7.204c-0.646-3.086-2.381-4.504-5.987-4.504-3.344 0-5.337 1.608-5.337 3.989 0 2.449 1.609 3.408 6.946 4.311 7.916 1.224 12.61 3.151 12.61 10.29 0 6.816-4.826 10.75-13.44 10.75-8.689 0-13.77-3.99-14.09-11.13m-19.79 1.097v-18.4h-4.505v-5.852h4.505v-7.402h7.782v7.402h7.398v5.852h-7.398v17.7c0 2.96 1.418 4.311 3.859 4.311 1.545 0 2.706-0.194 3.8-0.645v6.177c-1.225 0.451-2.897 0.836-5.278 0.836-6.689 0-10.16-3.602-10.16-9.97m-40.83-2.705v-21.55h7.786v20.65c0 5.084 2.123 7.398 6.628 7.398 4.181 0 7.846-2.699 7.846-8.04v-20.01h7.786v33.65h-7.786v-5.274c-1.672 3.281-5.21 5.92-10.68 5.92-6.626 0-11.58-3.796-11.58-12.74m-14.99-8.234c-0.388-5.789-3.345-8.364-8.174-8.364-4.696 0-7.846 3.153-8.618 8.364zm-24.9 3.859v-0.511c0-10.42 7.14-17.37 16.72-17.37 8.368 0 15.89 4.952 15.89 16.99v2.25h-24.64c0.258 6.371 3.475 9.973 9.264 9.973 4.699 0 7.144-1.862 7.722-5.147h7.528c-1.093 7.077-6.819 10.94-15.44 10.94-9.909 0-17.05-6.498-17.05-17.12m-30.11 9.716c10.29 0 15.25-5.92 15.25-16.09v-0.511c0-9.91-4.505-15.89-15.31-15.89h-4.953v32.49zm-13.58-39.25h13.96c16.02 0 23.8 9.137 23.8 22.52v0.578c0 13.38-7.786 22.9-23.94 22.9h-13.83z" fill="#fff"/>
</svg>
