<svg xmlns="http://www.w3.org/2000/svg" width="617" height="249" style="shape-rendering:geometricPrecision;text-rendering:geometricPrecision;image-rendering:optimizeQuality;fill-rule:evenodd;clip-rule:evenodd"><path style="opacity:1" fill="#7b4105" d="M69.5 38.5c-5.034.898-9.7 2.565-14 5-2.854.424-5.52 1.424-8 3a3.646 3.646 0 0 1-1.5-1c-1.025 2.187-2.525 3.854-4.5 5-6.722 5.067-11.056 11.733-13 20-.617.11-1.117.444-1.5 1-1.897-1.516-4.064-2.183-6.5-2-5.46-6.864-7.293-14.531-5.5-23a94.358 94.358 0 0 1 8.5-8c6.55-.197 12.55 1.47 18 5-2.116-13.701 3.55-20.201 17-19.5 5.047 3.38 9.047 7.713 12 13-.556.383-.89.883-1 1.5z"/><path style="opacity:1" fill="#794007" d="M67.5 41.5a5.728 5.728 0 0 1 3 1v1c-.418 5.318-1.751 10.318-4 15-1.014 1.174-2.347 1.84-4 2-1.955.824-3.955.99-6 .5-3.8-2.614-6.134-6.114-7-10.5 5.154-4.577 11.154-7.577 18-9z"/><path style="opacity:1" fill="#7b4108" d="M47.5 52.5c2.712 4.77 5.378 9.437 8 14-.591 4.505-2.758 8.171-6.5 11a4.932 4.932 0 0 0-.5 3l-6-3a39.175 39.175 0 0 1-4.5-2c-1.21-7.915.79-14.915 6-21 .816-1.323 1.983-1.99 3.5-2z"/><path style="opacity:1" fill="#ea5b17" d="M99.5 75.5a289.26 289.26 0 0 0 6 5c2.008 2.427 4.674 3.427 8 3 9.305-.615 12.638-5.282 10-14v-1c-.131-.876.202-1.543 1-2a27.127 27.127 0 0 0 10 4.5 335.759 335.759 0 0 1 22.5 4.5c.345 1.7-.322 3.034-2 4-1.09 3.079-.257 5.412 2.5 7 1.391-1.145 2.724-1.145 4 0a109.434 109.434 0 0 1-8 18 287.815 287.815 0 0 1-9 11.5l4 7c2.354.847 4.688 1.68 7 2.5 10.927 6.593 19.927 15.259 27 26a113.733 113.733 0 0 1-17 3.5c-8.631 2.963-15.131 8.463-19.5 16.5a58.47 58.47 0 0 0-7.5 16 81.238 81.238 0 0 1-25-3.5c-8.69-3.76-17.69-6.76-27-9-3.8-1.979-7.134-4.479-10-7.5 3.381-16.019-.785-29.686-12.5-41a14.827 14.827 0 0 0-6.5-2c9.966-11.892 10.466-24.225 1.5-37-2.96-3.224-6.46-5.558-10.5-7a4.932 4.932 0 0 1 .5-3c3.742-2.829 5.909-6.495 6.5-11l7-6c1.653-.16 2.986-.826 4-2 11.182-6.185 22.849-7.352 35-3.5l1 1c-6.753 5.52-7.753 12.02-3 19.5z"/><path style="opacity:.835" fill="#4d4946" d="M23.5 38.5a94.358 94.358 0 0 0-8.5 8c-1.793 8.469.04 16.136 5.5 23-2.253-.416-3.753-1.749-4.5-4-2.771-6.077-3.771-12.41-3-19 2.828-3.675 6.328-6.342 10.5-8z"/><path style="opacity:1" fill="#8ea3a9" d="M69.5 38.5c10.16-1.46 19.493.54 28 6l-1 1c-9.134-6.116-18.8-7.45-29-4-6.846 1.423-12.846 4.423-18 9-1 .333-1.667 1-2 2-1.517.01-2.684.677-3.5 2-5.21 6.085-7.21 13.085-6 21 1.47.767 2.97 1.433 4.5 2-.955 2.21-2.455 2.543-4.5 1-.292 1.826-.125 3.66.5 5.5l-.5 2.5c-4.31-11.339-2.976-22.006 4-32a200.52 200.52 0 0 1 13.5-11c4.3-2.435 8.966-4.102 14-5z"/><path style="opacity:1" fill="#403d3e" d="m158.5 98.5-2 8c-.132-2.507-1.132-3.174-3-2a109.434 109.434 0 0 0 8-18c-1.276-1.145-2.609-1.145-4 0-2.757-1.588-3.59-3.921-2.5-7 1.678-.966 2.345-2.3 2-4a335.759 335.759 0 0 0-22.5-4.5 27.127 27.127 0 0 1-10-4.5c-.798.457-1.131 1.124-1 2-3.66-3.89-7.327-3.89-11 0l-2-1c.453-.958 1.119-1.792 2-2.5a56.268 56.268 0 0 0 7-2.5c-16.297-10.014-22.964-5.681-20 13-4.753-7.48-3.753-13.98 3-19.5l-1-1c-12.151-3.852-23.818-2.685-35 3.5 2.249-4.682 3.582-9.682 4-15 .901.79 1.568 1.79 2 3v2c-1.548.321-2.215 1.321-2 3 2.177-.086 4.177-.753 6-2a11.074 11.074 0 0 0 3.5 2 31.653 31.653 0 0 0 5.5-4l8-2c-4.564-3.135-9.564-4.301-15-3.5l4 2c-2.177 1.202-4.51 1.702-7 1.5h-1v-1c.763-.768 1.763-1.268 3-1.5-2.344-1.415-4.677-1.582-7-.5a5.728 5.728 0 0 0-3-1c10.2-3.45 19.866-2.116 29 4l1-1c-8.507-5.46-17.84-7.46-28-6 .11-.617.444-1.117 1-1.5-2.953-5.287-6.953-9.62-12-13-13.45-.701-19.116 5.799-17 19.5-5.45-3.53-11.45-5.197-18-5 .874-1.025 2.04-1.692 3.5-2a90.915 90.915 0 0 1 12.5 4c.859-5.5 2.525-10.667 5-15.5 4.79-2.2 9.79-2.866 15-2a42.885 42.885 0 0 1 12 12.5c4.632.828 9.298 1.328 14 1.5a409.708 409.708 0 0 0 25 10 103.04 103.04 0 0 1 13 16.5 19.358 19.358 0 0 0 7 4.5l30.5 6.5c3.944-3.19 6.944-7.19 9-12l1.5 1.5c-1.651 4.97-4.317 9.303-8 13l1 .5a139.778 139.778 0 0 0 16-12c1.021.502 1.188 1.168.5 2-4.579 5.574-10.079 10.074-16.5 13.5 5.486-.211 10.819-1.378 16-3.5l1 1c-5.238 4.12-11.238 6.12-18 6a61.72 61.72 0 0 1-5 14zm-86-52c2.433 1.048 2.433 1.714 0 2v-2z"/><path style="opacity:1" fill="#adc3cb" d="M98.5 45.5c8.091.546 14.091 4.38 18 11.5-1 .667-2 .667-3 0-4.428-4.847-9.428-8.68-15-11.5z"/><path style="opacity:.011" fill="#6e8777" d="M74.5 44.5c-1.333.333-1.333.667 0 1 .333 1.333.667 1.333 1 0 2.49.202 4.823-.298 7-1.5l-4-2c5.436-.801 10.436.365 15 3.5l-8 2a31.653 31.653 0 0 1-5.5 4 11.074 11.074 0 0 1-3.5-2c-1.823 1.247-3.823 1.914-6 2-.215-1.679.452-2.679 2-3 2.433-.286 2.433-.952 0-2-.432-1.21-1.099-2.21-2-3v-1c2.323-1.082 4.656-.915 7 .5-1.237.232-2.237.732-3 1.5z"/><path style="opacity:.49" fill="#4d3c35" d="M49.5 50.5c.866 4.386 3.2 7.886 7 10.5 2.045.49 4.045.324 6-.5l-7 6c-2.622-4.563-5.288-9.23-8-14 .333-1 1-1.667 2-2z"/><path style="opacity:1" fill="#ef5b0d" d="M110.5 67.5a3375.249 3375.249 0 0 1-11 8c-2.964-18.681 3.703-23.014 20-13a56.268 56.268 0 0 1-7 2.5c-.881.708-1.547 1.542-2 2.5z"/><path style="opacity:1" fill="#141110" d="m110.5 67.5 2 1c3.754 1.328 4.921 3.994 3.5 8-4.562 4.323-8.395 3.657-11.5-2l-1 1.5a15.424 15.424 0 0 1 2 4.5 289.26 289.26 0 0 1-6-5c3.648-2.642 7.315-5.309 11-8z"/><path style="opacity:1" fill="#7196a6" d="M41.5 50.5a2.428 2.428 0 0 1 2 .5c-4.841 4.513-8.008 10.013-9.5 16.5a63.981 63.981 0 0 0 1.5 21h-6a132.64 132.64 0 0 1-1-18c1.944-8.267 6.278-14.933 13-20z"/><path style="opacity:1" fill="#421908" d="M91.5 79.5a42.28 42.28 0 0 1-8-3.5c-2.72-.602-5.387-.435-8 .5 1.906-2.832 4.573-3.666 8-2.5a49.078 49.078 0 0 1 8 5.5z"/><path style="opacity:1" fill="#e2e2e2" d="M123.5 68.5v1c-.443 12.235-6.443 15.902-18 11a15.424 15.424 0 0 0-2-4.5l1-1.5c3.105 5.657 6.938 6.323 11.5 2 1.421-4.006.254-6.672-3.5-8 3.673-3.89 7.34-3.89 11 0z"/><path style="opacity:1" fill="#f35c0d" d="M91.5 79.5c1.098.897 1.098 1.73 0 2.5-8.933 3.594-16.1 9.427-21.5 17.5a39.094 39.094 0 0 1-1-16 90.095 90.095 0 0 0 6.5-7c2.613-.935 5.28-1.102 8-.5a42.28 42.28 0 0 0 8 3.5z"/><path style="opacity:.992" fill="#1f91bc" d="M554.5 122.5a199.207 199.207 0 0 0-20 2.5c-73.34 4.123-146.673 8.29-220 12.5a19.22 19.22 0 0 1-1 6c-11.998.403-23.998.737-36 1a1427.18 1427.18 0 0 1-3-47 36619.42 36619.42 0 0 1 277-16 1087.561 1087.561 0 0 1 3 41z"/><path style="opacity:1" fill="#2f383c" d="M55.5 43.5a200.52 200.52 0 0 0-13.5 11c-6.976 9.994-8.31 20.661-4 32l.5-2.5c-.625-1.84-.792-3.674-.5-5.5 2.045 1.543 3.545 1.21 4.5-1l6 3c4.04 1.442 7.54 3.776 10.5 7 8.966 12.775 8.466 25.108-1.5 37-.996.086-1.83-.248-2.5-1a29.865 29.865 0 0 1-7 3 110.194 110.194 0 0 1 1 16c-.477-5.431-2.144-10.431-5-15a86.099 86.099 0 0 1-11.5-7c11.91 4.035 17.91-.298 18-13-1.578-13.43-8.91-18.93-22-16.5-4.799 4.842-6.299 10.675-4.5 17.5 1.009 1.525 1.509 3.192 1.5 5h-2c-.06-2.841-.726-5.507-2-8-.706-7.176.794-13.843 4.5-20 .828-4.371.66-8.705-.5-13-1.896-.775-3.563-1.775-5-3 2.436-.183 4.603.484 6.5 2 .383-.556.883-.89 1.5-1a132.64 132.64 0 0 0 1 18h6a63.981 63.981 0 0 1-1.5-21c1.492-6.487 4.659-11.987 9.5-16.5a2.428 2.428 0 0 0-2-.5c1.975-1.146 3.475-2.813 4.5-5 .414.457.914.79 1.5 1 2.48-1.576 5.146-2.576 8-3z"/><path style="opacity:1" fill="#362d2c" d="M123.5 69.5c2.638 8.718-.695 13.385-10 14-3.326.427-5.992-.573-8-3 11.557 4.902 17.557 1.235 18-11z"/><path style="opacity:1" fill="#271b18" d="M75.5 76.5a90.095 90.095 0 0 1-6.5 7 39.094 39.094 0 0 0 1 16c5.4-8.073 12.567-13.906 21.5-17.5 1.098-.77 1.098-1.603 0-2.5 3.234.506 3.9 2.172 2 5 5.481 5.235 6.315 11.235 2.5 18-8.002 8.11-15.835 7.943-23.5-.5-.95-.617-1.782-.451-2.5.5-3.575-6.414-4.241-13.08-2-20 2.066-2.607 4.566-4.607 7.5-6z"/><path style="opacity:1" fill="#e4e4e4" d="M93.5 84.5c3.314 5.341 3.814 11.008 1.5 17-7.66 6.964-14.993 6.631-22-1-.345-1.7.322-3.034 2-4 1.948 7.546 5.948 8.879 12 4 1.892-5.542.059-9.042-5.5-10.5 3.14-3.737 7.14-5.57 12-5.5z"/><path style="opacity:1" fill="#769eb0" d="M32.5 120.5c-3.365-1.365-5.699-3.699-7-7 .009-1.808-.491-3.475-1.5-5-1.799-6.825-.299-12.658 4.5-17.5 13.09-2.43 20.422 3.07 22 16.5-.09 12.702-6.09 17.035-18 13z"/><path style="opacity:1" fill="#85310e" d="M131.5 89.5a18.437 18.437 0 0 1 6 .5c-9.254 3.423-18.587 4.09-28 2l19-1c1.237-.232 2.237-.732 3-1.5z"/><path style="opacity:1" fill="#f9fbfb" d="M498.5 94.5h6c.476 8.326.809 16.66 1 25a31.116 31.116 0 0 1-11-1c-4.928-12.29-6.595-11.957-5 1a21.127 21.127 0 0 1-9 1v-24a49.393 49.393 0 0 1 11-1c.843 4.022 2.51 7.688 5 11 1.21-3.159 1.21-6.326 0-9.5.556-1.011 1.222-1.844 2-2.5zM466.5 96.5h9a73.49 73.49 0 0 1 0 21.5 9.568 9.568 0 0 1-3 3c-5.013 1.893-10.013 1.893-15 0-1.167-.5-2-1.333-2.5-2.5a112.57 112.57 0 0 1-2.5-21h9a240.173 240.173 0 0 1 1.5 16c.71 1.473 1.876 2.14 3.5 2v-19z"/><path style="opacity:1" fill="#a8bfc7" d="M39.5 86.5c8.621 1.116 14.455 5.783 17.5 14 2.048 9.898-1.285 17.231-10 22l-1.5-.5c2.5-1.167 4.333-3 5.5-5.5 3.733-12.867-.434-22.2-12.5-28 .363-.683.696-1.35 1-2z"/><path style="opacity:1" fill="#f7fafa" d="M432.5 98.5c13.69-1.477 19.19 4.523 16.5 18-1.167 2.5-3 4.333-5.5 5.5a147.933 147.933 0 0 1-17 2.5 296.602 296.602 0 0 1-1-25c2.559.302 4.893-.032 7-1z"/><path style="opacity:1" fill="#f8fbfa" d="M387.5 101.5h5v6a32.462 32.462 0 0 0-8 .5c-.837 1.011-1.17 2.178-1 3.5h9v5a32.462 32.462 0 0 0-8 .5c-1.298 2.395-.465 3.562 2.5 3.5a29.495 29.495 0 0 1 6.5-1v7c-6.369-.153-12.703.18-19 1 .205-8.367-.129-16.7-1-25 4.863.319 9.53-.014 14-1z"/><path style="opacity:1" fill="#f7fafa" d="M412.5 99.5h8a358.83 358.83 0 0 0 1 25 60.931 60.931 0 0 1-11-.5 55.099 55.099 0 0 0-5.5-10.5 72.367 72.367 0 0 0-.5 12h-8a361.829 361.829 0 0 0-1-24c3.725-.095 7.391-.262 11-.5a133.668 133.668 0 0 0 5.5 9.5c.499-3.652.665-7.318.5-11z"/><path style="opacity:1" fill="#6b290e" d="M131.5 99.5c2.205.346 2.372 1.013.5 2-6.609 2.589-13.443 3.756-20.5 3.5 6.997-.948 13.664-2.781 20-5.5z"/><path style="opacity:1" fill="#693709" d="M156.5 106.5a48.42 48.42 0 0 1-3 15c.252 1.573.918 2.906 2 4-2.312-.82-4.646-1.653-7-2.5l-4-7c3.14-3.812 6.14-7.645 9-11.5 1.868-1.174 2.868-.507 3 2z"/><path style="opacity:1" fill="#f7fafa" d="M356.5 102.5a40.914 40.914 0 0 1 9 .5c2.333 1 4 2.667 5 5-1.444 1.064-3.111 1.564-5 1.5-2.676-.337-5.343-.67-8-1v3c5.153.074 9.653 1.74 13.5 5 1.378 4.442.212 7.942-3.5 10.5-6.182 2.422-12.016 1.922-17.5-1.5-1.113-1.26-1.28-2.427-.5-3.5 3.762-.927 7.262-.427 10.5 1.5 3.12-1.093 3.287-2.593.5-4.5-4.419-.22-8.253-1.72-11.5-4.5-1.282-6.447 1.218-10.447 7.5-12zM517.5 93.5a60.94 60.94 0 0 1 11 .5c3.193 1.025 4.526 3.192 4 6.5a233.739 233.739 0 0 1-12-.5c-2.023 3.183-2.523 6.683-1.5 10.5 1.808 1.896 3.975 2.396 6.5 1.5 1.333-.667 1.333-1.333 0-2a4.934 4.934 0 0 0-3-.5v-5c3.906-.857 7.74-.857 11.5 0 .499 4.321.666 8.654.5 13a153.022 153.022 0 0 0-13 2c-8.224-.725-12.557-5.225-13-13.5-.007-6.533 2.993-10.7 9-12.5z"/><path style="opacity:1" fill="#fafcfb" d="M313.5 113.5h6c.032 5.689.366 11.355 1 17-2.579.417-4.746-.25-6.5-2a112.97 112.97 0 0 1-.5-15z"/><path style="opacity:1" fill="#2691bb" d="M434.5 103.5c4.37.541 6.37 3.041 6 7.5.37 4.459-1.63 6.959-6 7.5v-15z"/><path style="opacity:1" fill="#f3f8f9" d="M294.5 114.5a40.842 40.842 0 0 1 14 1.5c4.212 12.636-.455 17.803-14 15.5a162.82 162.82 0 0 1 0-17z"/><path style="opacity:1" fill="#fafbfb" d="M329.5 112.5h6v4c-2.477-.449-4.477.217-6 2a9.86 9.86 0 0 0 6 1v3c-2.477-.449-4.477.217-6 2a13.116 13.116 0 0 0 7 1v4h-13v-16c2.235.295 4.235-.039 6-1z"/><path style="opacity:.992" fill="#f06220" d="M313.5 143.5a19.22 19.22 0 0 0 1-6c73.327-4.21 146.66-8.377 220-12.5a199.207 199.207 0 0 1 20-2.5 369.28 369.28 0 0 1 31-1 912.624 912.624 0 0 0 3 44 4.933 4.933 0 0 1-1 2.5 33254.434 33254.434 0 0 1-271 16.5 2536.838 2536.838 0 0 0-3-41z"/><path style="opacity:1" fill="#2593be" d="M300.5 118.5c3.234-.263 4.568 1.237 4 4.5.568 3.263-.766 4.763-4 4.5v-9z"/><path style="opacity:1" fill="#fcfbf9" d="M524.5 136.5h3a381.838 381.838 0 0 1 1.5 18c1 1.333 2 1.333 3 0 .499-5.991.666-11.991.5-18h10c.166 6.675 0 13.342-.5 20-2.877 4.099-6.877 5.766-12 5-4.785 1.064-8.118-.603-10-5a400.88 400.88 0 0 1-1.5-19c2.235.295 4.235-.039 6-1z"/><path style="opacity:1" fill="#fcfaf7" d="M473.5 139.5h14a2043.4 2043.4 0 0 1 1 25h-8a46.94 46.94 0 0 0-1.5-11l-3.5 11c-2.339 1.224-4.672 1.224-7 0-3.722-14.802-5.388-14.469-5 1h-7a386.554 386.554 0 0 0-2-24 28.717 28.717 0 0 1 13-.5 108.715 108.715 0 0 1 3.5 9.5c2.075-3.334 2.909-7.001 2.5-11z"/><path style="opacity:1" fill="#fbf9f6" d="M552.5 134.5c3.35-.165 6.683.002 10 .5 3.985 1.274 4.652 3.274 2 6-3.45.175-6.783.342-10 .5 4.396 1.85 8.729 3.85 13 6 2.249 5.224.915 9.058-4 11.5-5 2-10 2-15 0-1.655-1.444-2.322-3.278-2-5.5a33.79 33.79 0 0 1 10.5 1c1.28-.113 2.113-.78 2.5-2a209.93 209.93 0 0 1-13.5-6c-1.695-6.287.472-10.287 6.5-12z"/><path style="opacity:.997" fill="#3a8cae" d="M158.5 98.5c4.309.985 8.309 2.819 12 5.5a245.085 245.085 0 0 1 29.5 25.5c1.879 2.027 3.046 4.36 3.5 7 1.322-.17 2.489.163 3.5 1a20.505 20.505 0 0 1 3.5 6.5c18.187 8.497 33.354 20.663 45.5 36.5 4.466 8.787 6.799 18.121 7 28 .871 13.633.371 26.966-1.5 40h-249c.63-7.497 1.296-14.997 2-22.5a3179.026 3179.026 0 0 1-4-48.5c-.37-10.262 1.797-19.928 6.5-29a20.495 20.495 0 0 0 3.5-2.5 108.068 108.068 0 0 0 20 4 65.4 65.4 0 0 1-12-7c-4.882-1.213-9.048-.046-12.5 3.5-6.326 13.268-8.659 27.268-7 42a445.054 445.054 0 0 1 3.5 39.5 89.756 89.756 0 0 1-2 20.5h-2a343.85 343.85 0 0 0-9-32v-75a24912.568 24912.568 0 0 0 18.5-33c.759-1.563 1.926-2.563 3.5-3 1.274 2.493 1.94 5.159 2 8a34.069 34.069 0 0 0-3 7.5c.594 2.79 1.76 5.29 3.5 7.5a122.012 122.012 0 0 0 22.5 19c.64.982 1.307 1.982 2 3a4.458 4.458 0 0 1-2 1.5 292.45 292.45 0 0 0 27 13.5l3 2c2.866 3.021 6.2 5.521 10 7.5 9.31 2.24 18.31 5.24 27 9a81.238 81.238 0 0 0 25 3.5c2.234-.12 4.401.213 6.5 1a924.854 924.854 0 0 0 38.5-6c1.609 10.666 5.275 20.499 11 29.5 4.333.667 8.667.667 13 0 4.936-.855 9.436-2.022 13.5-3.5.33-3.366-.003-6.699-1-10a97.31 97.31 0 0 0-9.5-7 144.537 144.537 0 0 0-4-22.5 69.934 69.934 0 0 1 6-13.5 29.146 29.146 0 0 0 1-9 34.029 34.029 0 0 0-14-1.5c-3.357 1.512-5.357 4.012-6 7.5-3.871.315-7.538-.018-11-1-7.073-10.741-16.073-19.407-27-26-1.082-1.094-1.748-2.427-2-4a48.42 48.42 0 0 0 3-15l2-8z"/><path style="opacity:1" fill="#7a4005" d="M138.5 187.5a58.47 58.47 0 0 1 7.5-16c4.369-8.037 10.869-13.537 19.5-16.5a113.733 113.733 0 0 0 17-3.5c3.462.982 7.129 1.315 11 1 .643-3.488 2.643-5.988 6-7.5a34.029 34.029 0 0 1 14 1.5 29.146 29.146 0 0 1-1 9 69.934 69.934 0 0 0-6 13.5 144.537 144.537 0 0 1 4 22.5 97.31 97.31 0 0 1 9.5 7c.997 3.301 1.33 6.634 1 10-4.064 1.478-8.564 2.645-13.5 3.5a42.479 42.479 0 0 1-13 0c-5.725-9.001-9.391-18.834-11-29.5a924.854 924.854 0 0 1-38.5 6 15.894 15.894 0 0 0-6.5-1z"/><path style="opacity:1" fill="#7c2f0f" d="M136.5 121.5c1.879-.107 2.212.393 1 1.5-10.292 6.326-21.292 7.993-33 5a184.612 184.612 0 0 0 23-2c3.34-1.003 6.34-2.503 9-4.5z"/><path style="opacity:1" fill="#7d4205" d="M23.5 113.5h2c1.301 3.301 3.635 5.635 7 7a86.099 86.099 0 0 0 11.5 7c2.856 4.569 4.523 9.569 5 15 .054-5.382-.28-10.715-1-16a29.865 29.865 0 0 0 7-3c.67.752 1.504 1.086 2.5 1 2.327.165 4.493.831 6.5 2 11.715 11.314 15.881 24.981 12.5 41l-3-2c-6.175-4.97-12.842-9.47-20-13.5-2.386-1.887-3.553-4.387-3.5-7.5-.422 1.926-1.59 2.926-3.5 3a122.012 122.012 0 0 1-22.5-19c-1.74-2.21-2.906-4.71-3.5-7.5a34.069 34.069 0 0 1 3-7.5z"/><path style="opacity:1" fill="#fcf8f5" d="M496.5 138.5c4.599-.3 9.099.033 13.5 1a288.796 288.796 0 0 0 8.5 22l-5 1c-3.465-.454-6.632-1.454-9.5-3-2.22.045-3.72 1.045-4.5 3a21.127 21.127 0 0 1-9 1 680.92 680.92 0 0 0 6-25z"/><path style="opacity:1" fill="#f66826" d="M502.5 144.5c2.054 2.508 3.054 5.508 3 9h-4a29.23 29.23 0 0 1 1-9z"/><path style="opacity:1" fill="#fcf7f4" d="M425.5 150.5a57.15 57.15 0 0 1 15 1c1.507 2.469 1.173 4.635-1 6.5 2.085 2.419 3.085 5.253 3 8.5h-6c.256-2.412-.744-4.079-3-5a9.86 9.86 0 0 0-1 6h-6a160.278 160.278 0 0 0-1-17z"/><path style="opacity:1" fill="#19272c" d="M12.5 248.5h-2a89.756 89.756 0 0 0 2-20.5A445.054 445.054 0 0 0 9 188.5c-1.659-14.732.674-28.732 7-42 3.452-3.546 7.618-4.713 12.5-3.5a65.4 65.4 0 0 0 12 7 108.068 108.068 0 0 1-20-4 20.495 20.495 0 0 1-3.5 2.5c-4.703 9.072-6.87 18.738-6.5 29a3179.026 3179.026 0 0 0 4 48.5c-.704 7.503-1.37 15.003-2 22.5z"/><path style="opacity:1" fill="#fbf8f5" d="M410.5 151.5h13v4c-8 .667-8 1.333 0 2v4a9.86 9.86 0 0 0-6 1 13.116 13.116 0 0 0 7 1v4c-4.357.086-8.69.42-13 1a242.945 242.945 0 0 1-1-17z"/><path style="opacity:1" fill="#fcfbf9" d="M358.5 154.5h7v17h-6a84.118 84.118 0 0 0-1-17z"/><path style="opacity:1" fill="#fbf7f3" d="M391.5 152.5a84.902 84.902 0 0 1 13 .5c5.547 5.64 5.214 10.973-1 16a60.931 60.931 0 0 1-11 .5 160.278 160.278 0 0 1-1-17z"/><path style="opacity:1" fill="#fcf7f3" d="M346.5 154.5h9c.032 5.689.366 11.355 1 17-4.772.897-7.105-1.103-7-6a20.2 20.2 0 0 0-1.5 6c-1.699.906-3.533 1.239-5.5 1-2.174-8.942-3.174-8.942-3 0h-5a242.945 242.945 0 0 1-1-17h9c-.253 2.327.414 4.327 2 6a3.647 3.647 0 0 0 1.5-1c.495-1.973.662-3.973.5-6z"/><path style="opacity:1" fill="#fcf9f5" d="M367.5 153.5h15v4c-1.322-.17-2.489.163-3.5 1a72.367 72.367 0 0 0-.5 12h-6a54.968 54.968 0 0 0-1-12h-4v-5z"/><path style="opacity:1" fill="#162027" d="M73.5 165.5a292.45 292.45 0 0 1-27-13.5 4.458 4.458 0 0 0 2-1.5 187.991 187.991 0 0 1-2-3c1.91-.074 3.078-1.074 3.5-3-.053 3.113 1.114 5.613 3.5 7.5 7.158 4.03 13.825 8.53 20 13.5z"/><path style="opacity:1" fill="#f97437" d="M397.5 155.5c1.322-.17 2.489.163 3.5 1a16.242 16.242 0 0 1 0 8c-1 1.333-2 1.333-3 0a40.914 40.914 0 0 1-.5-9z"/></svg>