<?xml version="1.0" encoding="UTF-8"?>
<!DOCTYPE svg PUBLIC "-//W3C//DTD SVG 1.1//EN" "http://www.w3.org/Graphics/SVG/1.1/DTD/svg11.dtd">
<svg xmlns="http://www.w3.org/2000/svg" version="1.1" width="320px" height="80px" style="shape-rendering:geometricPrecision; text-rendering:geometricPrecision; image-rendering:optimizeQuality; fill-rule:evenodd; clip-rule:evenodd" xmlns:xlink="http://www.w3.org/1999/xlink">
<g><path style="opacity:0.906" fill="#ffffff" d="M 2.5,-0.5 C 10.5,-0.5 18.5,-0.5 26.5,-0.5C 43.9968,7.18144 49.4968,20.1814 43,38.5C 38.6802,46.1538 32.1802,50.6538 23.5,52C 16.5079,52.4996 9.50793,52.6663 2.5,52.5C 2.5,48.5 2.5,44.5 2.5,40.5C 9.50793,40.6663 16.5079,40.4996 23.5,40C 32.7938,34.7852 35.2938,27.2852 31,17.5C 29.1266,15.2911 26.96,13.4578 24.5,12C 17.2542,10.6095 9.92087,10.1095 2.5,10.5C 2.5,6.83333 2.5,3.16667 2.5,-0.5 Z"/></g>
<g><path style="opacity:0.802" fill="#ffffff" d="M 51.5,-0.5 C 53.8333,-0.5 56.1667,-0.5 58.5,-0.5C 62.9739,4.73912 61.9739,8.40579 55.5,10.5C 49.2142,8.80438 47.8809,5.13772 51.5,-0.5 Z"/></g>
<g><path style="opacity:0.688" fill="#ffffff" d="M -0.5,30.5 C -0.5,27.1667 -0.5,23.8333 -0.5,20.5C 6.58298,10.7493 14.4163,10.0826 23,18.5C 26.9559,27.0635 24.7892,33.5635 16.5,38C 8.77462,39.7983 3.10795,37.2983 -0.5,30.5 Z M 14.5,17.5 C 16.1667,17.5 17.8333,17.5 19.5,17.5C 21.7094,22.7162 20.3761,24.2162 15.5,22C 16.4706,20.7964 17.4706,20.2964 18.5,20.5C 16.9223,19.7022 15.2556,19.2022 13.5,19C 14.056,18.6174 14.3893,18.1174 14.5,17.5 Z M 11.5,25.5 C 9.05815,25.8808 8.39149,25.2141 9.5,23.5C 11.0064,22.2528 12.5064,22.2528 14,23.5C 14.2151,26.1258 14.0484,28.4592 13.5,30.5C 12.6781,28.8614 12.0114,27.1947 11.5,25.5 Z M 3.5,25.5 C 6.16264,27.1107 6.66264,29.1107 5,31.5C 4.18701,29.5643 3.68701,27.5643 3.5,25.5 Z"/></g>
<g><path style="opacity:0.874" fill="#ffffff" d="M 74.5,13.5 C 81.2061,12.4075 87.0395,14.0742 92,18.5C 93.4114,20.6504 94.2447,22.9837 94.5,25.5C 91.9979,25.7495 89.4979,26.0828 87,26.5C 84.33,25.5053 81.83,24.172 79.5,22.5C 75.8673,23.2007 75.2007,24.7007 77.5,27C 81.2106,27.8443 84.8772,28.8443 88.5,30C 94.1768,33.6363 96.0101,38.803 94,45.5C 90.8788,51.1463 86.0455,53.813 79.5,53.5C 70.5396,53.5331 65.2063,49.1997 63.5,40.5C 66.1933,40.4285 68.8599,40.0951 71.5,39.5C 74.1237,41.1011 76.7904,42.7678 79.5,44.5C 84.1525,43.0938 84.4858,41.2605 80.5,39C 66.7322,37.9263 62.2322,31.093 67,18.5C 69.1699,16.1769 71.6699,14.5103 74.5,13.5 Z"/></g>
<g><path style="opacity:0.882" fill="#ffffff" d="M 110.5,13.5 C 118.934,12.1451 126.101,14.4785 132,20.5C 133.411,22.6504 134.245,24.9837 134.5,27.5C 130.904,28.1993 127.404,29.1993 124,30.5C 121.548,25.1834 117.715,23.6834 112.5,26C 107.564,30.3437 107.231,35.0104 111.5,40C 117.08,42.7788 121.58,41.6122 125,36.5C 128.611,37.2492 131.777,38.7492 134.5,41C 131.137,48.8565 125.137,53.0232 116.5,53.5C 101.601,51.7636 95.101,43.4302 97,28.5C 98.9136,21.0903 103.414,16.0903 110.5,13.5 Z"/></g>
<g><path style="opacity:0.897" fill="#ffffff" d="M 149.5,13.5 C 169.523,12.5714 177.689,21.9048 174,41.5C 168.119,52.1885 159.286,55.6885 147.5,52C 136.756,46.1111 133.256,37.2778 137,25.5C 139.769,19.8947 143.936,15.8947 149.5,13.5 Z M 153.5,24.5 C 162.144,25.5795 164.978,30.2462 162,38.5C 159.441,41.3492 156.274,42.1825 152.5,41C 145.829,35.1522 146.162,29.6522 153.5,24.5 Z"/></g>
<g><path style="opacity:0.887" fill="#ffffff" d="M 225.5,13.5 C 242.321,11.9884 250.321,19.6551 249.5,36.5C 240.827,36.3336 232.16,36.5002 223.5,37C 225.789,41.6438 229.456,43.3105 234.5,42C 236.244,40.659 238.077,39.4923 240,38.5C 249.122,38.7389 250.622,42.0722 244.5,48.5C 236.559,54.5311 228.226,55.0311 219.5,50C 210.364,40.779 209.198,30.6124 216,19.5C 218.843,16.8373 222.009,14.8373 225.5,13.5 Z M 227.5,23.5 C 232.116,22.4427 235.449,23.9427 237.5,28C 233.129,28.8275 228.795,28.6609 224.5,27.5C 225.524,26.1482 226.524,24.8149 227.5,23.5 Z"/></g>
<g><path style="opacity:0.907" fill="#ffffff" d="M 49.5,14.5 C 53.5,14.5 57.5,14.5 61.5,14.5C 61.5,27.1667 61.5,39.8333 61.5,52.5C 57.5,52.5 53.5,52.5 49.5,52.5C 49.5,39.8333 49.5,27.1667 49.5,14.5 Z"/></g>
<g><path style="opacity:0.887" fill="#ffffff" d="M 172.5,14.5 C 177.167,14.5 181.833,14.5 186.5,14.5C 188.496,21.6546 190.996,28.6546 194,35.5C 196.136,28.758 198.469,22.0914 201,15.5C 205.066,14.5363 209.233,14.203 213.5,14.5C 209.177,27.1513 204.844,39.818 200.5,52.5C 196.116,52.8256 191.783,52.4922 187.5,51.5C 182.298,39.2229 177.298,26.8896 172.5,14.5 Z"/></g>
<g><path style="opacity:0.905" fill="#ffffff" d="M 252.5,14.5 C 256.5,14.5 260.5,14.5 264.5,14.5C 264.351,15.552 264.517,16.552 265,17.5C 268.327,14.8461 272.161,13.8461 276.5,14.5C 276.5,18.5 276.5,22.5 276.5,26.5C 274.143,26.3367 271.81,26.5034 269.5,27C 267.667,27.5 266.5,28.6667 266,30.5C 264.609,37.7458 264.109,45.0791 264.5,52.5C 260.5,52.5 256.5,52.5 252.5,52.5C 252.5,39.8333 252.5,27.1667 252.5,14.5 Z"/></g>
<g><path style="opacity:0.888" fill="#ffffff" d="M 319.5,14.5 C 319.5,15.5 319.5,16.5 319.5,17.5C 312.216,33.4096 304.882,49.4096 297.5,65.5C 293.167,66.8333 288.833,66.8333 284.5,65.5C 287.304,59.3916 289.971,53.2249 292.5,47C 287.909,36.318 282.909,25.818 277.5,15.5C 282.167,14.1667 286.833,14.1667 291.5,15.5C 294,21.1667 296.5,26.8333 299,32.5C 302.329,26.8422 304.829,20.8422 306.5,14.5C 310.833,14.5 315.167,14.5 319.5,14.5 Z"/></g>
<g><path style="opacity:0.684" fill="#ffffff" d="M 131.5,79.5 C 128.5,79.5 125.5,79.5 122.5,79.5C 117.879,76.4106 116.379,72.0773 118,66.5C 121.329,61.3901 125.829,59.8901 131.5,62C 133.329,63.1133 134.163,64.6133 134,66.5C 133.586,66.9574 133.086,67.2907 132.5,67.5C 127.065,62.8587 123.065,63.8587 120.5,70.5C 123.538,77.5971 127.538,78.2637 132.5,72.5C 133.672,72.9186 134.672,73.5853 135.5,74.5C 134.143,76.1856 132.81,77.8523 131.5,79.5 Z"/></g>
<g><path style="opacity:0.654" fill="#ffffff" d="M 158.5,79.5 C 157.167,79.5 155.833,79.5 154.5,79.5C 154.5,77.1667 154.5,74.8333 154.5,72.5C 152.167,72.5 149.833,72.5 147.5,72.5C 147.5,74.8333 147.5,77.1667 147.5,79.5C 146.167,79.5 144.833,79.5 143.5,79.5C 143.5,73.5 143.5,67.5 143.5,61.5C 144.833,61.5 146.167,61.5 147.5,61.5C 147.5,63.8333 147.5,66.1667 147.5,68.5C 149.833,68.5 152.167,68.5 154.5,68.5C 154.5,66.1667 154.5,63.8333 154.5,61.5C 155.833,61.5 157.167,61.5 158.5,61.5C 158.5,67.5 158.5,73.5 158.5,79.5 Z"/></g>
<g><path style="opacity:0.721" fill="#ffffff" d="M 183.5,79.5 C 182.5,79.5 181.5,79.5 180.5,79.5C 178.779,75.8263 175.779,74.4929 171.5,75.5C 171.567,76.9587 171.234,78.2921 170.5,79.5C 169.167,79.5 167.833,79.5 166.5,79.5C 168.757,73.901 170.923,68.2344 173,62.5C 176.084,61.041 178.084,62.041 179,65.5C 180.802,70.0952 182.302,74.7619 183.5,79.5 Z M 174.5,67.5 C 177.229,69.1386 177.562,70.8052 175.5,72.5C 174.833,72.1667 174.167,71.8333 173.5,71.5C 174.246,70.2638 174.579,68.9305 174.5,67.5 Z"/></g>
<g><path style="opacity:0.728" fill="#ffffff" d="M 207.5,79.5 C 206.167,79.5 204.833,79.5 203.5,79.5C 201.225,75.3845 198.725,71.3845 196,67.5C 195.501,71.4862 195.334,75.4862 195.5,79.5C 194.5,79.5 193.5,79.5 192.5,79.5C 192.5,73.5 192.5,67.5 192.5,61.5C 193.873,61.3433 195.207,61.51 196.5,62C 198.543,65.2534 200.71,68.4201 203,71.5C 203.498,68.1832 203.665,64.8499 203.5,61.5C 204.833,61.5 206.167,61.5 207.5,61.5C 207.5,67.5 207.5,73.5 207.5,79.5 Z"/></g>
<g><path style="opacity:0.712" fill="#ffffff" d="M 232.5,79.5 C 231.167,79.5 229.833,79.5 228.5,79.5C 226.593,76.0246 224.426,72.6912 222,69.5C 221.502,72.8168 221.335,76.1501 221.5,79.5C 220.167,79.5 218.833,79.5 217.5,79.5C 217.5,73.5 217.5,67.5 217.5,61.5C 218.873,61.3433 220.207,61.51 221.5,62C 224.123,65.412 226.623,68.912 229,72.5C 229.499,68.8484 229.665,65.1817 229.5,61.5C 230.5,61.5 231.5,61.5 232.5,61.5C 232.5,67.5 232.5,73.5 232.5,79.5 Z"/></g>
<g><path style="opacity:0.691" fill="#ffffff" d="M 255.5,79.5 C 251.167,79.5 246.833,79.5 242.5,79.5C 242.5,73.5 242.5,67.5 242.5,61.5C 246.833,61.5 251.167,61.5 255.5,61.5C 255.5,62.5 255.5,63.5 255.5,64.5C 252.5,64.5 249.5,64.5 246.5,64.5C 246.5,65.8333 246.5,67.1667 246.5,68.5C 249.5,68.5 252.5,68.5 255.5,68.5C 255.5,69.8333 255.5,71.1667 255.5,72.5C 252.5,72.5 249.5,72.5 246.5,72.5C 246.5,73.8333 246.5,75.1667 246.5,76.5C 249.5,76.5 252.5,76.5 255.5,76.5C 255.5,77.5 255.5,78.5 255.5,79.5 Z"/></g>
<g><path style="opacity:0.705" fill="#ffffff" d="M 276.5,79.5 C 272.5,79.5 268.5,79.5 264.5,79.5C 264.5,73.5 264.5,67.5 264.5,61.5C 265.833,61.5 267.167,61.5 268.5,61.5C 268.5,66.5 268.5,71.5 268.5,76.5C 271.167,76.5 273.833,76.5 276.5,76.5C 276.5,77.5 276.5,78.5 276.5,79.5 Z"/></g>
</svg>
