<svg xmlns="http://www.w3.org/2000/svg" height="173.227" width="1115.627" xml:space="preserve"><path style="fill:#fff;fill-opacity:1;fill-rule:nonzero;stroke:none" d="M1450.1 512.605c2.88-49.082 37.54-96.746 112.64-96.746 56.32 0 83.77 30.34 83.77 62.098 0 25.988-17.33 47.637-70.78 59.199l-82.31 18.789c-153.09 33.207-213.74 119.836-213.74 220.91 0 131.418 115.53 238.265 275.84 238.265 207.97 0 280.17-129.96 287.4-213.714l-181.97-33.215c-5.78 47.668-36.1 88.086-102.54 88.086-41.89 0-77.99-24.554-77.99-62.097 0-30.321 24.56-47.645 56.33-53.41l95.31-18.786c148.75-30.316 220.96-119.836 220.96-225.246 0-122.754-93.87-242.59-285.95-242.59-225.29 0-297.49 145.848-303.27 225.247l186.3 33.21M2121.41 633.898c0-114.066 76.55-177.601 167.53-177.601 85.2 0 132.86 53.437 148.75 106.848l193.52-59.2c-31.77-125.625-150.2-249.797-342.27-249.797-213.74 0-385.6 157.383-385.6 379.75 0 223.84 167.53 381.222 378.37 381.222 197.86 0 313.4-121.3 345.17-249.8l-196.41-59.222c-15.88 54.89-59.21 106.863-144.43 106.863-90.98 0-164.63-63.527-164.63-179.063M3210.1 635.363c0 121.27-77.98 177.598-161.74 177.598-82.32 0-161.75-56.328-161.75-177.598 0-119.867 79.43-179.066 161.75-179.066 83.76 0 161.74 57.766 161.74 179.066zm219.52 0c0-222.375-166.08-381.215-381.26-381.215-213.74 0-381.27 158.84-381.27 381.215 0 222.375 167.53 379.757 381.27 379.757 215.18 0 381.26-157.382 381.26-379.757M3909.13 275.801h-220.96l-294.61 717.66h238.28l166.09-446.176 153.08 446.176h231.07l-272.95-717.66M4660.27 720.551c-2.89 54.867-40.43 121.297-144.42 121.297-92.43 0-138.65-67.864-142.98-121.297zm199.3-238.266c-34.67-124.164-148.76-228.137-330.73-228.137-197.85 0-374.04 141.516-374.04 382.649 0 231.039 171.86 378.323 358.16 378.323 222.41 0 359.6-137.186 359.6-368.225 0-30.321-2.88-63.532-4.33-67.864h-499.69c4.33-80.859 77.98-138.621 163.2-138.621 79.43 0 124.19 37.547 144.42 93.875l183.41-52M5411.23 776.855c-24.54 5.79-47.64 7.223-69.32 7.223-88.1 0-167.51-51.969-167.51-194.926V275.801h-219.53v717.66h212.3v-96.742c37.55 80.851 128.53 103.971 186.3 103.971 21.66 0 43.32-2.897 57.76-7.229V776.855M5580.08 0l163.2 372.547-301.84 620.914h245.51l174.75-384.113 158.86 384.113h232.51L5811.15 0h-231.07M670.43 784.727c0 168.617-135.676 305.313-304.301 305.313H60.812v203.55l305.317-.03c295.039 0 527.676-215.61 527.676-508.833 0-293.235-232.637-508.836-527.676-508.836l-305.317-.032v203.543H366.13c168.625 0 304.301 136.7 304.301 305.325M58.277 914.531c-.648-.781-.465-.718.63.207.734.625.777.692.34.539-.212-.031-.653-.363-.97-.746" transform="matrix(.13333 0 0 -.13333 0 173.227)"/><path style="fill:#fff;fill-opacity:1;fill-rule:nonzero;stroke:none" d="M210.441 964.258c-.074.906-.253.828-.804-.379-.36-.75-.289-.981.164-.676.394.223.676.676.64 1.055M227.199 988.195c.106.578-1.047.301-1.363-.351-.223-.356.016-.5.473-.293.461.215.859.5.89.644M109.504 631.633c-.531-.613-.512-.68.351-.528.473.067.934.305.961.583.071.777-.683.765-1.312-.055M183.902 565.848c.293-.215.582-.243.637-.106.082.125-.172.34-.535.379-.375.09-.426-.047-.102-.273M173.84 955.984c.242.235.094.442-.371.344-.434-.027-.641-.262-.41-.461.187-.211.574-.113.781.117M422.441 800.176c.254-.203.215.082-.027.648-.551 1.274-.84 1.481-.586.473.106-.43.367-.922.613-1.121M65.508 799.285c-.586.078-.613.004-.383-1.289.246-1.367 1.02-1.156 1.016.344.03.469-.282.902-.633.945M66.043 878.027c-.035.203-.223.121-.45-.308-.187-.364-.34-.934-.304-1.141.07-.207.227-.125.45.309.19.363.37.933.304 1.14M84.563 792.168c-.586-.82-.844-3.223-.344-3.289.187-.024.605.41.933 1.023.727 1.289.18 3.391-.59 2.266M107.262 634.66c-.035-.273.16-.597.386-.648.266-.059.391.199.282.504-.121.367-.293.629-.383.648-.133.031-.274-.168-.285-.504M91.324 718.074c.235-.547.817-1.226 1.364-1.461.8-.351.82-.215.062.93-1.016 1.547-1.89 1.84-1.426.531M103.039 644.129c-.226.051-.234-.18.02-.582.234-.336.562-.692.699-.723.086-.019.078.27-.02.582-.125.371-.425.664-.699.723M163.621 977.57c-.07-.136.039-.371.184-.605.175-.16.484.012.648.351.203.411.09.645-.183.602-.278-.039-.586-.211-.649-.348M247.723 799.336c-2.18 1.016-2.336.844-1.192-1.477.684-1.464 3.129-1.527 3.137-.062.008.258-.859.941-1.945 1.539M209.227 782.625c-.563.258-1.063.348-1.071.176-.015-.172.438-.77.973-1.371.605-.606 1.039-.696 1.078-.176.027.426-.43 1.031-.98 1.371M308.703 794.219c.375.258.602.676.57.929-.019.172-.308.34-.71.332-.34-.003-.625-.421-.575-.929.051-.422.407-.586.715-.332M208.926 778.859c-.254-.421-.141-.851.226-.851.438-.008.836.418.868.847.039.512-.079.856-.223.86-.219 0-.609-.344-.871-.856M307.703 770.949c-.086-1.246.313-2.715.969-3.269.984-.957 1.051-.953.359.093-.371.641-.761 2.114-.894 3.27-.059.828-.254 1.254-.449 2.09.027-.875.132-1.317.015-2.184M425.398 880.516c-.089.41-.293.714-.496.746-.218.039-.281-.207-.125-.633.137-.356.371-.727.493-.746.152-.031.191.297.128.633M301.172 731.352c.078.964-.109 1.843-.43 2.05-.254.211-.578-1.371-.625-3.507-.039-2.059-.168-4.317-.16-4.969-.055-.582.246-1.645.641-2.34.625-.965.722-.613.941 2.512.121 2.031.024 3.929-.152 4.132-.176.286-.293 1.231-.215 2.122M248.023 932.367c-.476-.547-.914-1.254-.918-1.496-.023-.625 2.016.313 2.34 1.102.493 1.093-.468 1.41-1.422.394M297.344 752.391c.937.273 2.082.472 2.648.5.571.101.867.351.602.574-.196.23.32 1.676 1.125 3.14 1.285 2.364 1.386 2.774.496 3.145-1.731.668-4.406.418-4.969-.566-.312-.414-.781-2.286-1.023-4.055-.528-2.895-.391-3.113 1.121-2.738M339.914 958.039c-.07.012-.031-.262.125-.691.133-.356.441-.743.652-.782.176-.031.11.317-.125.692-.261.445-.546.762-.652.781M276.344 940.539c.043-.469-.215-.687-.621-.437-.403.242-.805-.051-.887-.664-.078-.696-.391-.993-.66-.676-.258.246-.582.105-.738-.36-.11-.382.117-.777.503-.793 1.211-.043 3.012 1.594 2.891 2.754-.055.543-.195 1.012-.336 1.016-.141.008-.199-.375-.152-.84M271.465 958.332c.035-.375.246-.762.465-.769.269-.012.543.355.636.726.09.449-.113.758-.464.774-.399.011-.676-.274-.637-.731M271.504 941.488c.031-.386.285-.55.504-.328.269.227.426.606.406.836-.012.156-.215.317-.5.328-.238.008-.449-.371-.41-.836M269.492 939.387c-.121-.379.016-.926.332-1.25.262-.239.481.066.438.683-.106 1.403-.407 1.641-.77.567M154.98 957.41c.29.559-.882.168-1.386-.476-.324-.368-.149-.481.351-.227.5.25.965.563 1.035.703M127.082 906.059c-.355-.012-.969-.407-1.305-.871-1.039-1.317-.722-1.387.645-.208 1.105.938 1.172 1.094.66 1.079M150.773 945.879c.516.043.551.184.215.637-.679.839-1.254.652-1.871-.567-.398-.789-.328-.988.227-.672.437.243 1.062.504 1.429.602M147.617 959.477c.113.203.613.648 1.031.828.422.25.188.343-.457.312-.679-.09-1.375.055-1.558.274-.227.152-.391.129-.449-.188-.02-.25-.364-.855-.832-1.359-.508-.571-.352-.731.64-.531.746.101 1.477.39 1.625.664M134.277 954.457c.118-.102.508-.039.821.133.312.234.23.34-.227.265-.465-.078-.707-.238-.594-.398M134.176 906.609c.519 1.164.207 1.536-.625.676-.606-.621-.797-1.851-.262-1.844.203.008.609.547.887 1.168M143.707 913.309c.25 0 .457.39.504.769.078.465-.117.766-.324.758-.242-.004-.418-.313-.5-.77-.047-.386.117-.761.32-.757M149.355 979.875c-.351-.078-.554-.285-.41-.422.114-.148.442-.019.645.195.242.219.156.372-.235.227M154.043 982.645c.617.753.391.703-1.129-.243-.434-.273-.652-.418-1.09-.691.336.051.5.074.832.129.449.039 1.114.465 1.387.805M126.5 941.063c.25.933-.621 1.449-1.098.621-.199-.344-.226-.606-.058-.582.172.023.449-.133.629-.368.211-.226.386-.14.527.329M145.617 978.195c-.406.352-.531.325-.719-.324-.085-.301-.664-.82-1.214-1.055-.743-.343-.657-.378.254-.281 1.296.242 2.187 1.113 1.679 1.66M129.117 670.945c.336.532.465 1.098.328 1.246-.402.45-1.215-.859-1.035-1.656.078-.336.375-.121.707.41M150.602 913.402c.656.86.656.86-.856-.004-.906-.554-1.016-.71-.418-.703.352-.074.981.321 1.274.707M100.914 890.109c-1.254-1.308-5.074-8.929-5.062-10.066.015-1.445 1.953.945 3.453 4.234 1.164 2.524 1.758 3.364 3.347 4.836 2.403 2.325 2.438 2.336 2.653.528.133-1.203.035-1.668-.707-2.442-.524-.547-1.114-1.316-1.328-1.777-.184-.383.082-.301.527.164.742.773.891.629.781-.75-.07-.707-.105-1.059-.172-1.766.703 1.082 1.055 1.625 1.758 2.711.953 1.469 1.832 3.012 1.934 3.321.105.3.347.003.562-.602.481-1.75 1.547-.121 1.25 1.855-.25 1.668-1.246 2.172-1.48.801-.071-.383-.328-.765-.52-.773-.226-.004-.273.301-.09.683.805 1.688-5.211.821-6.906-.957M110.137 884.289c1.426.012 2.57.406 3.164 1.109.898 1.016 1.125 2.493.226 1.555-.23-.234-1.285-.633-2.304-.797-2.895-.648-3.664-1.89-1.086-1.867M92.652 936.648c-.738-.71-1.109-1.07-1.84-1.781-.738-.719-1.105-1.074-1.835-1.789.27.051.406.074.671.117.407.106 1.024.524 1.317.868.336.398.773.722.988.773.274.07.117-.238-.316-.715-.45-.539-.145-.359.66.375.762.668 1.824 1.41 2.324 1.641 1.688.73 2.203 1.933.606 1.324-1.09-.43-1.262-.422-.559.125 1.418 1.094-.41.527-3.441-1.156-.965-.524-1.446-.785-2.403-1.313.758.305 1.137.461 1.907.77.761.304 1.144.461 1.921.761M109.27 933.828c.449.75-.434.547-1.106-.242-.301-.356-.453-.746-.324-.91.223-.34.851.195 1.43 1.152M105.637 901.391c.492.972.261 1.609-.328.996-.817-.844-1.09-1.731-.551-1.699.281.015.687.328.879.703M97.805 917.742c-.618-.668-.895-1.094-.676-1.07.351.047 2.871 2.851 3.437 3.84.528.914-.168.562-1.23-.621-.547-.59-.89-1.09-.766-1.075.13.016-.218-.484-.765-1.074M100.973 894.344c.91.558 1.422.726 1.125.344-.703-.915.254-1.692 2.25-1.696.668-.004 1-.012 1.675-.019.262.847.395 1.273.665 2.117.363 1.133.441 1.953.109 1.793-.332-.238-.625.051-.652.566-.207 1.914-1.446 1.696-5.192-.976-2-1.414-3.808-2.743-4.027-2.973-.801-.844 2.441-.187 4.047.844M119.563 945.766c-.157-.032-.383-.309-.532-.688-.113-.324-.16-.633-.066-.613.066.012.332.359.539.695.242.399.25.641.059.606M94.102 902.121c.222.227.527 1.164.675 2.078.18.922.125 1.328-.074.965-.512-.945-1.035-3.496-.601-3.043M95.168 923.332c-.531-.023-1.563-.629-2.223-1.23-1.425-1.34-1.406-1.336 1.223.203 1.973 1.121 2.043 1.199 1 1.027M95.914 910.07c-.965-1.254-1.168-1.609-.941-1.925.136-.196.023-.684-.305-1.055-.297-.371-.512-.875-.473-1.145.078-.199.485.317.97 1.254.515.946 1.14 2.301 1.448 3.078.496 1.344.496 1.336-.699-.207M103.23 881.445c-1.597-.636-2.285-1.871-1.05-1.855 1.117.008 5.515 2.277 6.258 3.215.773 1.011.144.851-5.208-1.36M99.328 911.504c-.074-.074-.45-.25-.863-.496-.406-.176-.906-.633-1.067-.922-.554-1.012-.816-2.953-.492-3.758.157-.476-.004-1.601-.414-2.613-.617-1.449-.594-1.594.082-.625.594.82 1.27 2.633 1.864 4.898.507 1.981.89 3.516.89 3.516M96.242 898.738c.309.02.82.551 1.13 1.149a6.17 6.17 0 0 1 .44 1.097c-.066-.004-.578-.535-1.124-1.148-.81-.906-.926-1.125-.446-1.098M93.371 929.395c-.207.3-.305.222-.48-.446-.145-.664-.547-1.094-2.051-2.265-.703-.539-1.055-.805-1.758-1.344.578.094.871.14 1.457.234.824.16 1.883.598 2.344.922.469.383 1.59 1.246 2.488 1.949.934.707 1.883 1.364 2.086 1.399.238.047.715.429 1.008.781.89 1.055-.309.59-1.98-.73-1.485-1.223-2.548-1.368-3.114-.5M364.586 881.563c-.574.039-1.059-.243-1.047-.704.016-.464.441-.8 1.02-.839.574-.04 1.027.308 1.035.695-.016.465-.438.808-1.008.848M362.492 892.305c-.64.05-.836-.086-.363-.352.41-.187.969-.23 1.203-.098.164.215-.16.395-.84.45M366.164 960.488c-.152.039-.176-.187.008-.586.156-.332.461-.703.613-.742.18-.051.145.254-.012.578-.183.403-.429.7-.609.75M357.93 892.902c-1.446-.652-1.782-1.324-1.367-2.742.46-1.578.933-1.379 1.023.387.031.844.48 1.504 1.055 1.457.57-.047.902.312.781.703-.145.469-.281.789-.293.715-.059-.074-.598-.258-1.199-.52M345.793 956.672c-.012-.789.066-1.004.414-1.063.238-.043.531-.562.625-1.039.137-.691.324-.925.512-.757.195.164.008 1.058-.414 2.058-.805 1.988-1.098 2.176-1.137.801M364.07 958.926c-.644 1.054-1.961 2.273-1.593 1.472.121-.269.675-.941 1.195-1.429.824-.864.855-.813.398-.043M367.996 896.504c-.191.019.008-.379.442-.793.429-.418 1.011-.848 1.203-.863.222-.024-.016.375-.446.789-.429.418-.972.84-1.199.867M392.422 911.805c-.059.011-.02-1.071.035-2.367.172-2.676-.648-6.282-1.559-6.985-.57-.473-.574-.473.129-.648.411-.133 1.016.41 1.336 1.125.352.707.754 1.261.938 1.234.656-.101.613 3.262-.071 5.41-.371 1.211-.75 2.223-.808 2.231M399 864.66c-.172.012-.211-.281-.062-.742.125-.375.488-.773.796-.793.274-.027.282.344.055.734-.246.465-.582.789-.789.801" transform="matrix(.13333 0 0 -.13333 0 173.227)"/><path style="fill:#fff;fill-opacity:1;fill-rule:nonzero;stroke:none" d="M468.738 749.867c-.074-.051-.019.231.082.543.118.371.27.656.332.695.075.051.036-.175-.082-.539-.105-.312-.269-.664-.332-.699zm-1.168-2.301c.086.5.219.778.387.727.148.047.199-.223.102-.574-.258-.903-.637-.981-.489-.153zm-1.285 14.875c-.043-.437-.101-.671-.16-.543-.055.133-.035.504.027.844.153.801.227.672.133-.301zm-.769-1.613c-.164-.078-.254.094-.196.375.051.289.207.465.34.371.133-.097.219-.261.195-.375-.019-.113-.175-.293-.339-.371zm-1.231 4.856c-.211-.508-.32 1.14-.148 2.113.058.34.172.117.234-.488.059-.664.016-1.368-.086-1.625zm-.859 4.011c-.055.141-.059.567-.012.852.059.34.149.43.199.285.071-.129.059-.559.012-.848-.059-.343-.133-.425-.199-.289zm-1.953-3.965c-.207-.238-.52-.199-.719.11-.152.199-.227.301-.383.508.34.207.504.316.832.519.524.305.961.906 1.258 1.715.469 1.25.742 1.621.586.703-.117-.687-1.141-3.012-1.574-3.555zm-1.864-30.621c-.113-.058-.226.696-.273 1.653-.078 2.269.156 2.386.363.183.09-.925.039-1.765-.09-1.836zm-1.621 23.758c-.156 2.336-.617 3-1.418 1.828-.328-.449-.695-1.242-.8-1.722-.34-1.559-1.79-2.028-2.004-.707-.137.902-.348 1-1.02.492-.726-.582-.801-.547-.508.336.184.566.469 1.054.633 1.109.168.059.359.402.449.824.219 1.028-.043 4.383-.336 4.293-.144-.043-.668.422-1.179 1.012-.535.59-1.028.856-1.086.551-.063-.309-.199-.574-.332-.61-.114-.035-.137.36-.039.848.082.43.05 1.109-.094 1.363-.227.454-.137.594.519.832.61.219.7.36.293.422-.285.039-.546.43-.582.828-.054.387-.273.911-.523 1.082-.188.137-.281.207-.477.348.332.387.496.574.825.957.714.875 1.879 1.11 2.011.453.043-.105-.043-.933-.164-1.828-.133-.832-.168-1.988-.09-2.543.149-1.043.223-.957 1.508 1.399 1.145 2.078 1.34 2.3 1.653 1.879.199-.278 1.054-1.051 1.836-1.754 1.511-1.309 2.054-2.422 1.843-3.536-.066-.351.129-1.054.449-1.484.399-.566.442-.926.188-1.184-.52-.519-.699-1.679-.48-2.957.109-.609.125-1.418.046-1.769-.066-.301-.046-.457.067-.301.113.207.269-.383.347-1.215.118-1.246.086-1.527-.148-1.406-.156.098-.504.227-.781.332-.274.109-.547.922-.606 1.828zm-7.957 2.313c.196.629.434 1.445.496 1.75.067.304.227.578.34.613.305.094.102-.707-.601-2.234-.539-1.133-.563-1.145-.235-.129zm-1.679-14.883c.043.016.023-.215-.075-.586-.078-.309-.273-.66-.406-.707-.109-.039-.07.254.074.59.168.39.336.679.407.703zm5.355.465c.293-.317.293-.809-.008-1.965-.242-.91-.469-2.039-.539-2.606-.047-.507-.238-1.722-.43-2.671-.203-1.11-.175-2.071.09-2.704.203-.605.266-1.91.102-3.046-.168-1.141-.188-2.149-.035-2.239.117-.156.14-.566.015-.996-.113-.367-.214-1.676-.199-2.762 0-1.414-.168-2.578-.519-3.679-.297-.922-.7-2.352-.864-3.106-.191-.863-.679-2.332-1.187-3.605-.449-1.145-1.149-2.863-1.528-3.817-.394-.957-1.039-2.289-1.449-2.996-.988-1.652-4.668-9.136-5.281-10.726-.375-.985-.613-1.348-1.004-1.539-.266-.129-1.164-1.055-1.957-2.028-1.406-1.714-1.48-1.746-1.476-.886-.004.804-.063.773-.934-.379-.684-.91-1.016-1.164-1.133-.864-.101.211-.441.411-.773.469-.778.071-.832.821-.188 2.492.668 1.731.68 2.676.031 1.981-.371-.36-.347-.195.071.66.847 1.707.871 2.453.031 1.004-1.105-1.867-.863-.938.301 1.281 1.558 2.957 1.422 3.164-.356.434-1.707-2.653-2.215-3.223-1.773-2.035.539 1.429.496 4.714-.047 4.613-.348-.078-.703.055-.816.281-.133.223-.883-.062-1.813-.68-4.348-2.918-5.976-4.218-6.805-5.878-.421-.801-.918-1.145-2.25-1.598-1.226-.363-2.222-1.02-3.437-2.25-2.059-2.059-2.402-2.227-3.234-1.266-.692.785-.61 1.371.285 2.157.613.527 2.277 4.699 2.039 5.132-.078.149.058 1.035.312 1.965.246.981.668 3.156.953 4.906.438 2.598.633 3.348 1.094 3.832.484.547.586.922.621 2.09.063 1.813 2.153 7.614 2.625 7.223.18-.129.422.117.543.504.121.383.371.75.582.808.18.055.707.61 1.18 1.274.426.594 1.957 1.914 3.344 2.965 1.398.996 2.742 2.101 3.007 2.418.793.933 2.086 3.355 2.489 4.636.519 1.614 1.543 3.2 1.39 2.168-.05-.421.004-.754.161-.707.16.051.347.512.386.989.074.605.297.961.668 1.078.317.097.59.469.664.898.102.781 1.535 3.25 1.946 3.379.156.043.324.332.414.645.222.824 1.234 1.539 1.523.996.141-.246.145-.821.024-1.262-.137-.504.062-.609.585-.273.504.281.844.793.911 1.269.043.418.371 1.207.714 1.836.368.637.719 1.379.801 1.691.196.75.934 1.555 1.547 1.758.594.192 1.164 1.52.942 2.074-.301.704.058.641.714-.113.348-.394 1.016-.625 1.5-.57.645.101.805-.117.606-.75-.172-.508-.41-1.043-.547-1.258-.113-.211-.551-1.203-.973-2.25-.879-2.164-.828-2.391.321-4.414.402-.625.671-1.461.648-1.742-.039-.899.566-.332 1.332 1.336.41.875 1.168 3.094 1.695 4.894 1.211 4.266 2.039 7.231 2.371 8.016.536 1.305.579.656.09-2.664-.382-2.68-.41-3.453-.113-3.828zm-1.578-44.739c-.121-.078-.371-.507-.555-.984-.535-1.387-2.57-5.043-2.687-4.84-.059.192.07.543.527 1.461.516 1.039.582 1.309.469 1.707-.129.426.097 1.356.379 1.52.082.051.441.734.84 1.574.726 1.551 1.476 3.973 1.414 4.602-.024.175.097.867.218 1.417.289 1.215.438 1.446.547.797.051-.211-.156-1.238-.433-2.207-.282-.972-.391-1.597-.235-1.414.141.184.231-.047.157-.605-.086-.656.023-.774.476-.262.34.395.539.516.445.277-.378-1.027-1.355-2.918-1.562-3.043zm-5.145-8.699c-.601-1.035-1.23-2.222-1.379-2.582-.175-.418-.273-.566-.253-.422.07.543-1.118-1.289-1.973-2.996-1.274-2.594-2.141-3.719-2.981-3.82-.41-.051-.597.215-.418.629.461 1.074 2.063 3.472 3.797 5.789.887 1.183 2.063 3.055 2.961 4.73.996 1.871 1.438 2.594 1.379 2.192-.035-.254.067-.426.235-.328.414.246-.11-.985-1.368-3.192zm-11.039-5.629c-.41-.832-.742-1.379-.754-1.238-.003.145-.32-.254-.671-.809-.895-1.445-1.016-.683-.379 1.934.207.844.308 1.27.515 2.117.555.262.832.387 1.379.645 1.426.621 1.406.461-.09-2.649zm-3.218 10.215c-.094.121.074.293.398.43.332.137.402.058.191-.188-.211-.191-.492-.308-.589-.242zm-12.649 205.363c-.117.032-.379.407-.527.75-.176.411-.176.649-.055.618.145-.039.356-.336.531-.746.145-.336.2-.653.051-.622zm12.832 4.332c.094-.296.094-.554 0-.515-.105.043-.273.363-.363.664-.125.359-.094.551 0 .516.105-.043.242-.309.363-.665zm-168.644 22.5c-.02.469.48.774 1.144.754.918-.027.985-.183.399-.796-.926-.993-1.5-.977-1.543.042zm-7-2.203c.156.477.523.782.839.778.266 0 .481-.321.489-.797.011-.391-.356-.774-.832-.77-.434.004-.653.399-.496.789zm-12.11-4.457c1.504.641 1.715.559 1.692-.078-.039-1.191-1.262-2.383-1.989-1.988-.988.559-.824 1.672.297 2.066zm-2.058-2.23c-.274-.238-.641-.078-.825.394-.136.403.09.797.516.801.949 0 1.09-.472.309-1.195zm46.894-58.336c.125.492.938.805 1.781.785.84-.023 1.352-.363 1.231-.863-.133-.41-.926-.805-1.777-.785-.844.023-1.368.367-1.235.863zm-15.273 1.031c1.207-.023 1.722-.207 1.168-.445-.621-.152-1.649-.125-2.235.055-.652.261-.144.418 1.067.39zm-29.477 8.106c.008.332 1.422.679 3.164.687 2.961.024 3.11-.058 2.762-2.058-.141-1.172-.484-2.09-.742-1.93-.196.164-1.5.824-2.778 1.484-1.347.66-2.414 1.485-2.406 1.817zm-7.668 13.375c.778.996 1.403.422 1.321-1.145-.047-.906-.329-1.656-.633-1.66-.668-.004-1.203 2.141-.688 2.805zm-.058-4.219c1.422.43 1.82-.149 1.695-2.723-.102-2.074-1.106-3.332-2.59-3.347-.25 0-.355 1.328-.262 2.91.114 1.91.477 2.988 1.157 3.16zm-13.27-4.551c-.144.414.137.832.609.84 1.075.012 1.211-.484.301-1.242-.32-.254-.722-.094-.91.402zm186.899-64.851c-.192-.75-.286-1.125-.481-1.883-.488-1.891-.906-2.129-2.094-1.418-.484.285-.687.801-.726 2.082-.059 1.804-1.606 5.699-2.239 5.687-.222-.004-.433.524-.488 1.129-.027.684-.492 1.434-1.23 1.957-.703.524-1.77 2.11-2.543 3.711-1.508 3.195-2.797 4.43-2.504 2.363.133-.765-.012-1.375-.301-1.453-.305 0-1.098-.23-1.773-.465-.703-.152-1.516-.386-1.75-.386-.258-.078-.336-.699-.133-1.465.426-1.617.09-3.238-.676-3.246-.285-.004-.836-1.168-1.242-2.492-1.137-4.27-2.223-6.86-2.692-6.868-.253-.011-.394-.324-.3-.71.097-.383-.176-.86-.637-1.102-.637-.406-.613-1.035.176-4.195 1.199-4.274 2.218-9.188.84-13.52-1.2-3.695-2.02-3.609-3.7.504-.675 1.594-2.023 4.34-3.011 6.098-.993 1.761-1.942 3.691-2.063 4.238-.121.547-1.09 2.559-2.133 4.5-2.297 4.551-4.457 9.746-5.39 14.812.023.477-.391 1.825-.969 3.098-1.02 2.145-1.02 2.149-.996.477.012-2.946-1.496-3.118-3.856-.321-1.914 2.321-1.996 2.489-.957 2.481.567 0 .946.402.828.879-.089.402-.363.562-.546.324-.508-.641-2.957 1.527-5.801 5.098-1.199 1.453-2.313 2.519-2.5 2.281-4.242-1.422-10.871-.574-15.047 1.086-.309.25-.895 1.32-1.371 2.39-.945 2.055-2.125 2.735-1.774 1.008.098-.492-.031-.652-.234-.402-.258.246-.824.176-1.309-.309-3.793-.8-7.902 4.032-9.757 6.989-1.817 3.328-3.153 3.937-4.922 2.41-.887-.887-.899-.887.773-4.059.863-1.746 2.047-3.422 2.539-3.676.43-.254 1.449-1.918 2.078-3.578 1.204-2.988 1.336-3.07 1.407-1.34.191 2.305 1.554 1.461 1.554-.925.075-4.614 4.871-4.653 7.243-.172.55 1.105.82 1.66 1.355 2.765.25-.918.371-1.382.621-2.3.84-2.872 1.707-4.028 3.633-4.7.887-.254 2.254-1.324 3.086-2.304.59-.754.883-1.133 1.472-1.883-.257-1.039-.39-1.559-.664-2.602-.343-1.383-.89-2.609-1.214-2.609-.688 0-.985-2.285-.387-3.184.191-.41-.164-1.062-.77-1.558-.648-.571-1.109-1.313-1.015-1.801.078-.41-.336-.82-.938-.824-.605 0-1.012-.5-.89-1.153.125-.656-.645-1.312-1.981-1.656-1.23-.336-2.594-1.332-3.078-2.488-.504-1.074-1.895-2.41-3.086-3-1.191-.59-2.734-1.68-3.449-2.438-.66-.75-1.426-1.254-1.61-1.257-.195.082-.878-.176-1.609-.602-.726-.418-1.66-.766-2.152-.77-.43-.007-1.473-.519-2.313-1.195-.84-.676-1.922-1.023-2.328-.855-.879.402-3.18 6.566-3.617 9.738-.137 1.004-1.34 3.34-2.582 5.098-1.317 1.843-2.391 3.769-2.469 4.355-.066.504-1.273 2.02-2.617 3.199-1.645 1.52-2.582 2.95-2.754 4.293-.375 2.938-1.961 6.059-3.898 7.594-.848.762-1.657 1.781-1.719 2.285-.059.5-1.414 2.871-3 5.242-1.586 2.375-3.113 4.914-3.442 5.586-.285.844-.441.598-.296-.664.222-2.597-1.11-1.988-3.036 1.403-.839 1.441-1.777 2.632-2.035 2.718-.316.004.192-1.257 1.032-2.703.847-1.523 2.113-3.98 2.839-5.422.664-1.519 1.969-4.144 2.989-5.922.953-1.695 1.832-3.808 1.968-4.484.153-.762 1.098-2.367 2.133-3.559 1.184-1.355 2.137-3.464 2.711-6.16.66-2.867 1.442-4.55 2.75-5.734.938-.844 2.25-3.113 2.867-4.965.805-2.348 1.84-3.863 3.758-5.277 3.5-2.668 8.11-8.047 7.223-8.563-.422-.168.035-1.164 1.172-2.484.726-.856 1.093-1.285 1.82-2.137 2.5.711 3.73 1.063 6.145 1.77 3.371.976 6.476 2.105 7.015 2.449.961.676 1.063.43 1.305-3.27.105-2.132.039-4.355-.188-4.855-.218-.5-.894-3.152-1.511-5.965-1.336-5.785-3.653-10.43-8.192-14.055-1.015-.601-3.457-3.093-5.449-5.464-2.055-2.383-4.563-5.317-5.664-6.54-1.102-1.218-2.953-4.027-4.16-6.312-1.762-3.238-2.059-4.309-1.606-5.641.301-.886.508-3.281.43-5.218-.027-2.082.285-3.899.797-4.375.687-.618.805-2.387.293-7.153-.578-5.777-.738-6.453-2.297-8.179-.852-.977-2.531-2.219-3.699-2.727-1.168-.504-2.926-1.809-3.864-2.988-.996-1.18-2.515-2.602-3.394-3.285-1.426-1.133-1.508-1.422-1.09-3.848.281-1.481.324-3.848.16-5.34-.281-2.512-.426-2.715-3.238-4.18-2.871-1.402-2.945-1.55-3.43-4.617-.359-2.465-.906-3.676-2.363-5.207-1.059-1.113-2.797-3.176-3.867-4.539-3.731-5.293-9.551-7.402-15.586-7.91-2.078-.16-4.309-.633-5.059-1.106-.992-.554-1.726-.582-2.851-.117-1.688.696-3.289 3.313-2.657 4.36.504.843-3.496 8.437-5.07 9.578-1.656 1.34-2.926 4.328-3.703 9.172-.387 2.422-1.207 5.14-1.953 6.093-2.488 3.403-5.727 7.676-6.313 11.618-.425 2.839 1.454 9.07 3.067 10.867 1.187 1.344 1.375 2.23.887 4.554-.379 1.579-.883 4.079-1.11 5.528-1.09 5.621-4.094 10.984-7.832 15.137-4.293 4.433-5.726 6.941-4.808 8.273.351.496.753 2.66.839 4.859.098 2.114.34 4.516.614 5.203.187.774-.536 2.153-1.891 3.375-1.953 1.825-2.484 2.071-5.48 1.559-3.547-.598-5.04.184-4.93 2.336.031.602-.754 1.719-1.774 2.496-3.863 2.363-9.437 0-13.035-1.726-3.57-1.598-4.968-1.836-7.14-1.219-1.61.445-4.024.476-5.973-.008-6.43-1.613-6.863-1.59-8.469-.039-2.98 2.894-8.453 7.012-8.648 10.617-.039.758-.742 3.219-1.887 5.09-1.141 1.875-2 3.734-1.953 4.074.059.418-.539 1.02-1.313 1.278-1.117.433-1.335 1.027-.878 2.789.253 1.265.23 3.113-.098 4.128-.352 1.266-.301 1.942.16 2.188.789.332 2.902 5.973 3.379 8.926.742 4.972.777 6.578.129 8.004-.602 1.347-.465 1.761 1.336 5.058 1.043 1.946 2.558 4.313 3.32 5.328.801.934 1.477 2.118 1.559 2.625.304 1.77 4.937 7.457 7.242 9 3.59 2.231 5.723 4.957 5.699 7.055-.082 2.52 2.973 7.176 5.746 8.981 1.41.859 2.754 2.472 3.438 3.988 1.152 2.781 1.601 3.117 2.304 1.875.664-1.074 6.938-1.524 7.715-.711 3.25 3.402 9.645 4.332 14.453 4.711 3.727.293 7.84.758 9.184 1.019 1.469.348 2.355.188 2.328-.394-.023-.504.484-.582 1.133-.328.984.515.976.429.156-.832-.75-1.18-.773-1.68-.105-2.762.664-1.164.59-1.586-.7-2.859-.816-.844-1.507-1.778-1.523-2.028-.027-.672 5.883-3.812 6.43-3.386.957.683 5.523-1.551 6.203-3.063.34-.84 1.375-1.504 2.207-1.5.836.012 2.859-.73 4.496-1.562 2.633-1.493 3.031-1.551 3.832-.391.465.664.773 2.09.816 3.019-.058 2.274 2.911 4.137 5.27 3.332.937-.265 1.687-.789 1.703-1.121.02-.425 1.777-1.132 3.914-1.761a210.43 210.43 0 0 0 6.125-1.973c3.195-1.242 4.606-1.188 6.832.023 1.625.883 2.184.875 3.652-.16 2.817-1.984 4.715-.429 5.958 4.867.55 2.485.937 6.043.886 7.868a479.22 479.22 0 0 1-.078 3.39c-.769-.109-1.16-.164-1.937-.277-1.094-.137-2.098-.606-2.231-1.016-.336-1.148-2.758-.84-4.824.625-1.613 1.117-1.91 1.129-2.766-.093-.746-1.059-1.293-1.133-2.453-.438-.777.516-2.195 1.305-3.16 1.91-1.027.52-1.836 1.453-1.891 2.199-.046.672-.336 1.258-.644 1.266-.25.004-.434.922-.336 2.074.086 1.324-.149 2.078-.637 2.086-.422.012-.637.512-.5 1.172.594 2.711-3.777 4.309-5.176 1.867-.39-.734-1.242-1.043-1.871-.781-1.265.609-1.644-.703-.484-1.641.328-.254.484-1.007.269-1.746-.156-.66-.07-1.156.239-1.082 2.797.594 3.785-1.418 1.261-2.601-1.046-.559-1.464-1.211-1.167-2.051.222-.754.054-1.25-.524-1.238-1.09.027-3.984 3.668-3.168 4.062.317.078-.57 1.68-1.957 3.449-1.715 2.114-2.574 3.95-2.605 5.356-.039 1.652-.676 2.773-2.528 4.25-1.406 1.144-3.281 2.293-4.152 2.621-.93.324-2.152 1.637-2.688 2.867-.593 1.551-1.304 2.207-1.91 1.957-.547-.25-1.144.078-1.308.731-.493 1.964-2.785.644-2.856-1.653-.035-1.066.172-1.968.535-1.968.301.003 1.582-1.465 2.903-3.274 1.316-1.805 2.863-3.285 3.367-3.281.566 0 1.008-.324 1-.824 0-.411.379-.821.82-.821 1.016.004 5.227-3.285 4.778-3.785-.192-.25-.915-.004-1.692.656-1.105.825-1.484.821-2.129-.011-.636-.828-.644-1.243.137-1.821.84-.66.656-1.156-.906-3.082-1.696-2.168-1.832-2.254-1.367-.418.796 3.328-.293 5.067-4.434 7.606-2.168 1.394-5.149 4.18-6.563 6.23-1.418 1.969-2.863 3.602-3.222 3.512-.41 0-2.055-.922-3.715-2.008-2.395-1.508-3.359-1.765-4.301-1.117-1.984 1.379-4.156.113-4.64-2.535-.274-1.652-.872-2.406-2.336-3.09-2.442-1.113-5.379-4.555-5.399-6.297-.015-1.668-1.93-5.027-2.93-5.039-.414-.012-.957-.601-1.214-1.269-.34-.84-1.336-1.278-2.746-1.301-1.235-.02-3.043-.465-3.969-.899-1.387-.777-1.891-.617-2.715.785-.742 1.239-1.43 1.559-2.856 1.114-1.726-.531-1.867-.371-1.574 1.465.172 1.086.11 2.41-.144 2.902-.379.738-.227 1.648.636 3.574.622 1.414 1.231 4.156 1.454 6.133.261 3.211.457 3.707 1.722 4.559.781.507 1.68.777 2.016.539.351-.157 2.894-.426 5.683-.532 4.965-.23 5.196-.148 5.934 1.758.41 1.074.859 2.883 1 4.031.375 3.04-2.105 6.817-4.437 6.762-.637-.012-1.028.547-.934 1.199.18 1.219 1.211 1.571 4.039 1.301 1.102-.058 1.465.274 1.645 1.656.195 1.461.355 1.543 1.222.836.754-.718 1.41-.621 2.914.375 1.043.746 2.074 1.817 2.305 2.465.234.653 1.16 1.387 2.098 1.727.933.258 2.402 1.648 3.332 3.027 1.132 1.859 1.687 2.27 1.89 1.547.258-.719.481-.559.797.652.414 1.688.824 1.856 4.777 2.047 1.446.086 1.508.59 1.168 6.387-.113 2.301-.015 2.93.426 2.539.285-.316.926.004 1.43.641.957 1.429 2.617 1.746 2.035.484-.23-.477-.172-1.348.16-1.98.43-.79.309-1.192-.551-1.586-.535-.243-1.207-.961-1.347-1.598-.629-1.836 1.035-3.176 4.219-3.172 1.671 0 3.292-.316 3.613-.559.32-.32 2.301.079 4.39.946 2.473 1.023 3.954 1.25 4.293.769.731-1.039 3.09-1.097 3.059-.066-.012.476.465.785 1.062.769.864-.023 1.059.532.985 2.594-.156 4.274 1.371 6.039 3.453 3.93 1.312-1.371 1.922-1.074 2.203 1.117.086 1.023-.152 1.656-.832 1.91-.574.254-1.012.817-1.039 1.285-.059 1.098 1.453 1.61 5.797 1.778 1.976.008 3.656.336 3.82.64.496.918-1.16 2.071-2.699 1.809-.77-.125-2.801-.449-4.469-.707-3.734-.586-6.179.648-6.179 3.207-.036.855-.188 2.18-.411 2.883-.39 1.246.235 1.797 5.485 6.23 1.508 1.254.863 2.348-1.617 2.653-2.25.296-4.778-1.321-4.153-2.715.371-.93-.476-1.907-3.183-3.387-2.317-1.336-3.774-3.566-3.762-5.977 0-.773.305-1.406.66-1.41.359 0 1.129-.476 1.652-1.109.84-.945.899-1.184.239-2.113-.403-.621-1.387-1.547-2.219-2.09-1.199-.77-1.414-1.317-1.258-3.211.266-2.52-.875-4.02-3.066-4.016-.746.004-1.336-.312-1.348-.707-.027-1.426-2.176-1.504-2.664-.074-.246.715-.324 1.504-.211 1.742.164.242-.176 1.031-.723 1.824-.546.789-.964 1.895-.937 2.524.019.551-.164 1.023-.473 1.023-.254 0-.488.469-.461 1.102.028.551-.285 1.492-.664 2.039-.468.625-.711.703-.746.078-.023-.469-1.039-1.57-2.211-2.52-1.64-1.191-2.679-1.511-4.008-1.128-2.41.691-2.644 1.152-1.496 2.421.938 1.11.895 1.188-.281.704-1.125-.403-1.164-.325-.398.546.769.872.789 1.184.328 2.039-1.18 2.02-.41 4.364 1.91 5.86 1.152.707 2.484 1.336 2.965 1.336.429.004.847.547.886 1.168.051.691.348.926.762.699.363-.234 1.25.234 2.012 1.16.715.844 1.492 1.383 1.719 1.152.226-.23.425 0 .445.387.02.457.32.844.699.844.375-.004 1.121.992 1.586 2.211.516 1.379 2.012 3.121 3.598 4.394 2.562 1.95 3.734 3.809 1.957 2.93-.457-.219-1.137-.058-1.492.402-.532.61-.403.684.41.293.765-.386.945-.312.726.372-.261.679-.132.679.68-.012 1.172-1.074 2.898-.43 1.813.722-.547.614-.457.762.441.821.633.066 1.398.125 1.668.117.316-.082.441.215.301.594-.282.832.16.824 1.386-.028.547-.39 1.348-.257 2.036.328.644.508 1.601.782 2.183.618.539-.243 1.192-.11 1.43.257.246.368 1.207 1.004 2.125 1.426 1.426.621 1.555.543 1.012-.258-.391-.515-.688-1.25-.664-1.55.019-.301.316-.16.625.351.312.442.964.938 1.511 1.067.559.054 1.297.394 1.696.679.402.282.707.196.757-.328.043-.449.313-.609.602-.472.238.136 1.195-.055 2.039-.391 1.523-.738 1.574-.742.578-1.367-.848-.485-.574-.645 1.629-1.199 6.207-1.497 7.258-1.875 11.281-3.993 2.356-1.269 4.477-2.757 4.715-3.375.238-.609-.117-1.41-1.019-2.105-1.207-.899-1.985-.922-5.832.051-4.364 1.152-6.082 1.078-3.594-.036.797-.339 1.242-.972 1.191-1.578-.047-.605.227-1.605.578-2.23.703-1.18 3.485-3.004 4.61-3.067.945-.054.511 1.266-.547 1.782-.528.261-1.02.894-1.094 1.355-.094.61.195.746.965.324.582-.336 1.988-.871 3.117-1.093 1.836-.489 1.949-.418 1.219.757-1.016 1.579-.961 1.657.965 2.805.922.539 2.078.688 2.777.336 1.402-.695 2.309.805 1.227 1.856-.321.32-.594 1.089-.563 1.757.004.59-.293 1.43-.66 1.825-.762.73 1.988.664 3.121-.09 1.055-.754 1.219-1.871.262-1.797-1.082.086-1.211-1.094-.242-1.766 1.289-.843 3.168-.765 3.265.262.129.879 2.629 2.289 4.918 2.586.629.156 1.375.449 1.742.707.325.262.797.066 1.075-.395.371-.691 1.382-.785 3.785-.464 2.515.312 3.359.214 3.777-.481.426-.695.703-.723 1.152-.203.711.926.188 1.914-1.836 3.504-1.214.996-1.292 1.144-.457.691.598-.285 2.457-.925 4.129-1.484 1.672-.563 4.5-1.836 6.325-2.918 3.832-2.195 4.625-1.598 1.382 1.152-1.152.922-1.875 1.715-1.613 1.684.227-.031.281.449.09 1.035-.191.582-.578 1.121-.82 1.227-.258.031-.094.496.339.988.469.488.84 1.465.829 2.223-.016.753.265 1.324.593 1.269.356-.055.524.258.403.621-.153.426.105.653.57.582.641-.097.727-.25.496-.754-.215-.437 0-.672.859-.808 1.321-.211 2.161-1.356 2.047-2.762-.054-.805.071-1.164.543-1.648.352-.329.918-1.641 1.317-3.008.5-1.723.992-2.77 1.656-3.492.816-.946.855-1.227.383-3.047-.461-1.758-.778-2-2.102-1.473-1.035.418-1.402.324-1.078-.215.844-1.387 3.875-1.281 5.02.102.847 1 .918 1.679.41 2.933-.481 1.176-.453 1.586.144 1.633 1.176.235 2.731-.898 3.223-2.281.398-1.09.469-1.106.418-.199-.07 1.59-1.648 3-3.77 3.324-2.046.316-2.937 1.277-2.851 2.973.062.878-.078 1.171-.953 2.125-.942 1.035-1.055 1.253-.793 1.753.156.317.562.59.914.532.316-.055.422.398.16 1.113-.234.645-.227.906.051.594.242-.309.711-1.321 1-2.11.465-1.289.82-1.613 1.859-1.922 1.11-.316 1.152-.257.274.426-1.602 1.203-1.547 1.805.109 1.055 1.383-.637 1.41-.641.352.535-1.086 1.254-1.047 1.25.429.59.844-.344 2.34-1.141 3.231-1.629.953-.566 1.965-.949 2.222-.801.395.125.176.36-.804.938-1.188.679-3.36 3.437-2.793 3.523.105.047 1.91-.027 3.906-.168 2.465-.23 3.301-.097 2.637.418-.395.289-.598.43-.993.711.196.266.293.399.485.656.75 1.227 6.902 1.528 10.742.559 1.207-.309 2.031-.348 1.781.008-.179.277 0 .406.43.293.426-.114.727.039.629.41-.063.305.176.754.562.934 1.125.593 3.668-.481 3.911-1.614.136-.597 2.343-1.726 4.16-2.101.836-.192 2.05-.723 2.668-1.184.644-.469 1.371-.965 1.629-1.098.261-.136.613-.464.796-.738.805-1.336.813-1.719.043-2.051-.496-.183-1.328-.562-1.921-.797-.532-.3-1.309-.605-1.661-.746-1.105-.277-.019-1.035 1.465-.976.903-.016 1.235.234.899.734-.403.567-.02.516 1.265-.191.989-.508 3.067-1.391 4.555-1.895 1.492-.504 3.227-1.367 3.863-1.949.629-.523 1.906-1.191 2.879-1.504 1.371-.433 1.617-.355 1.195.481-.418.828-.152.793 1.633-.071 1.117-.535 2.442-1.304 2.899-1.621.754-.515.808-.59.547-.863-.223-.344-.196-.406.343-.59.7-.289 1.754-1.699 1.09-1.473-.383.129-.32 0 .586-.988 2.059-2.285 2.899-2.832 2.942-1.906-.028.742.48.723 1.902.156 1-.359 2.18-1.004 2.59-1.363.418-.356.636-.336.539 0-.094.289.199.273.625-.031.707-.575.687-.465-.071.765-.695 1.156-.722 1.313-.234 1.215.32-.078.828-.281 1.074-.379.285-.168 1.164-.566 2.012-1.015 1.133-.52 1.543-.879 1.984-1.676.329-.61.434-.746.231-.239-.461 1.086 2.035-.136 3.086-1.515 1.195-1.539-.321-1.039 2.59-2.43 1.226-.574 2.101-1.055 2.742-1.539.496-.59.996-1.187 1.488-1.781.008-.031.024-.055.035-.086.207-.496.489-.852.742-.969.063-.031.145-.105.243-.195l.558-.692c.059-.082.11-.16.16-.242.387-.625.524-.797.536-.629a233.423 233.423 0 0 0 15.203-21.422c-.114-.148-.285-.062-.543.258-.84 1.059-1.371 1.203-1.461.446-.035-.434-.172-.481-.375-.039-.18.375-.332.492-.395.316-.058-.176-.301-.223-.562-.063-.254.102-.324-.48-.09-1.66.398-2.133.574-2.636 1.074-2.832.262-.097.481-.445.84-1.383.266-.683.582-1.285.691-1.324.11-.043.344-.398.52-.785.172-.387.148-.535-.047-.301-.637.664-.531-.504.121-1.777.473-.934.551-1.289.227-1.457-.27-.066-.254-.629.027-1.395.254-.699.316-1.339.152-1.457-.136-.179-.097-.707.125-1.234.563-1.32.524-3.617-.047-2.457-.23.473-1.187 2.387-2.128 4.234-.942 1.844-2.114 4.266-2.61 5.383-1.101 2.567-1.601 5-1.121 5.641.192.312.313.965.262 1.515-.07.61-.008 1.688.117 2.465.215 1.606-.586 4.41-1.27 4.703-.203.086-.14-.429.129-1.144.301-.774.438-1.184.289-.867-.144.257-.293.019-.382-.504-.161-1.004-.668-.707-1.25.804-.254.672-.532.938-1.317 1.247-.828.324-1.023.097-.996-1.559-.035-1.633.063-2.07.59-2.578.574-.586.605-.649.195-.508-.215.02-.761.051-1.187-.023-.551-.036-.883.128-1.004.558-.231.852-2.356 2.289-2.293 1.535.019-.281-.664-.175-1.527.211-3.051 1.418-.848.403-1.364-5.183-.101-.813-.34-2.02-.547-2.633a57.185 57.185 0 0 0-.402-1.059c.356-.164.531-.246.883-.406.586-.273 1-.746 1.348-1.566.437-1.032.484-1.047.296-.204-.164.84.129.399.61-.886.301-.813.543-.688.625.203.195 2.148 4.035-3.215 4.484-6.277.067-.508.621-2.247 1.195-3.813.969-2.594 1.141-3.531 1.434-8.73.359-6.825 0-8.293-1.301-7.012-.734.715-.922.617-1.172-.813-.156-.976-.148-2.191.039-2.691.336-.926.043-3.188-.449-3.801-.078-.129.766-1.676 1.883-3.387 1.699-2.605 2.164-3.543 2.824-5.671.758-2.415.75-2.614-.109-3.282-.516-.429-1.043-.519-1.113-.304-.762 1.804-1.934 5.523-1.875 5.859.093.75-.801 2.09-1.453 2.168-.817.098-1.149.691-1.594 2.672-.321 1.488-.449 1.711-1.43 2.246-.691.367-1.234.226-1.5-.434-.547-1.183-1.262-.195-1.301 1.754.004 1.25-.05 1.391-.644 1.883-.406.332-.805-.238-1.102-1.668-.262-1.226-.73-2.226-1.019-2.266-.746.012.054-2.121.953-2.496.39-.187.847-.726 1.054-1.308.477-1.391 1.274-1.895 1.348-.778.082.625.535.719 1.297.352 1.387-.641 1.793-1.512.973-2.059-.785-.48-1.258-4.453-.586-5.011.597-.473 1.129-1.305 3.047-4.703 1.925-3.399 2.613-5.477 2.171-6.372-.14-.296-.214-.449-.351-.757.242-.008.363-.02.601-.032 1.172-.211 1.754-2.492 1.618-6.808-.063-1.199-.055-2.406.035-2.696.082-.355.183-.785.262-1.148.179-.785-.043-3.117-.622-5.394-.554-2.348-2.312-3.641-3.011-2.34-.317.578-.36.437-.133-.36.226-.797-.063-1.515-.961-2.383-1.355-1.164-1.391-2.621-.074-4.488.406-.574.554-1.219.578-2.304-.016-1.739-.363-2.399-1.172-1.84-1.195.84-1.312 3.902-.172 3.914.492.011.461.226.004.871-.359.504-.773 1.445-.98 2.172-.653 2.32-2.332 1.672-2.93-1.121-.688-3.157-.152-4.875 2.75-9 3.406-4.836 3.945-5.922 4.957-9.797.73-2.891.809-3.586.379-5.043-.27-.946-.758-1.703-1.039-1.723-.313-.031-.481-.402-.375-.82.183-.766-.465-3.469-.836-3.574-.16-.016-.442.746-.676 1.726-.254 1.055-.703 1.953-1.094 2.207-.394.262-1.554 1.613-2.625 3.063-1.07 1.457-2.187 2.632-2.457 2.617-.273-.02-.605.48-.765 1.129-.586 2.312-.871.457-.578-3.41.386-4.965.507-5.536 1.808-7.317.586-.828 1.227-2.215 1.418-3.062.25-1.059.688-1.739 1.258-1.969 1.629-.766 4.891-4.324 4.469-6.734-.231-1.274-.344-3.114-.286-4.145.114-1.738.075-1.934-.386-2.004-1.524-.226-2.864 5.399-3.762 9.231-.348 1.539-3.203 6.605-3.66 6.566-.176-.02-.809 2.547-1.488 5.797-.875 4.336-1.532 6.523-2.422 8.476-.668 1.524-1.758 4.082-2.41 5.774-.481 1.234-.719 1.855-1.207 3.098zm-15.247-30.352c-.746-.813-1.023-.762-1.57.113-.699 1.172-1.828 5.934-1.84 7.774-.015 1.847.469 1.476 2.211-1.629 2.094-3.699 2.36-5.106 1.199-6.258zm-30.98-166.859c-.164.097.02.308.371.421.383.168.484.051.266-.167-.184-.211-.5-.36-.637-.254zm-20.906 183.058c1.027.02 1.289-.465.613-1.219-.242-.253-.672-.097-.992.391-.242.406-.082.816.379.828zm-3.469-89.324c.082.41.246.695.352.711.156.012.363-.231.433-.621.086-.324-.09-.676-.351-.703-.317-.035-.508.273-.434.613zm.18-73.055c.832-.039.941-.258.449-.707-1.133-.984-2.219-1.051-1.899-.086.196.578.668.84 1.45.793zm-20.766 76.7c-.297 3.746 1.109 6.171 4.512 7.578 1.234.523 2.797 1.707 3.398 2.597.602.895 1.66 2.176 2.344 2.871.609.614 1.246 1.727 1.348 2.371.093.579.39 1.383.66 1.618.215.304.543.543.601.547.461.043 1.157-4.071 1.078-6.52-.058-2.305-.175-2.656-.894-2.305-.688.211-.824.059-.738-1.039.039-.758-.129-1.738-.496-2.254-.309-.515-.68-1.375-.891-1.941-2.176-6.027-4.539-13.266-7.641-17.742-.144-.211-1.324-.723-2.535-1.098-2.715-.855-3.906.598-3.734 4.895.062 2.55.312 3.453 1.691 5.332 1.387 1.949 1.528 2.433 1.297 5.09zm-88.016-138.454c.141.414.317.774.317.774.07-.008.176-.383.312-.817.098-.488-.011-.8-.324-.777-.312.02-.414.348-.305.82zm-20.789-4.929c-.05.32-.011.523.055.515.102-.015.309-.254.465-.59.141-.285.113-.542-.059-.523-.207.035-.422.328-.461.598zm32.852-13.34c-13.836 0-27.363 1.297-40.527 3.64.464.09.793.223.918.422.019.039-.59.528-1.153.645-.437.098-.656.156-1.097.262.328.226.488.343.82.578.773.527.707.527-1.262.652-1.176.129-2.258.149-2.469.078-.496-.156-4.871 2.071-4.82 2.297.563 2.332 13.832 2.508 17.969 1.953 1.277-.176 2.187-.051 2.215.262.023.312 1.027 1.027 2.238 1.562 1.914.872 2.043 1.016.777.856-1.133-.121-1.422.019-1.383.547.055.414.598.719 1.243.742.644.027 1.269.273 1.449.516.148.25.543.418.855.378.344-.039 1.016.149 1.512.364.859.437.867.496.172 1.359-.691.867-.699.867-.043.535.371-.254 1.195-.179 1.805.133.988.43 1.242.356 1.875-.5.715-1.023.769-.973 1.632.012.868 1.039 2.403 1.398 2.075.465-.133-.254 1.371-.7 3.336-.942 3.093-.379 4.82-.191 6.824.625 1.305.532 8.594.379 9.937-.164.59-.242 1.227-.219 1.52.145 3.367.843 6.93.472 10.297.066 2.105-.215 4.719-.098 7.758.485 4.449.867 5.753 1.351 7.394 2.734.633.531.934.437 1.68-.473.496-.633 1.168-.945 1.59-.719.41.176.742.145.722-.156.02-.695 1.633-.191 2.442.75.633.735 2.683 1.66 5.3 2.453.551.141 1.571.516 2.305.868.715.304 1.84.5 2.504.418.934-.153 1.195-.032 1.231.453.015.433.281.55 1.097.488.785-.07 1.078.059 1.215.551.32 1.418 5.664 2.73 6.793 1.742.297-.293.543-.684.531-.867-.008-.375 4.371-.571 9.172-.328 1.758.109 2.938-.036 2.836-.317-.258-.703-2.344-2.777-2.894-2.875-.266-.051-.629-.289-.852-.547-.551-.625-.004-.968.848-.465.589.372.562.321-.184-.468-.441-.469-1-.922-1.203-.957-.719-.133-1.516-1.586-.957-1.743.754-.25 2.937 1.122 4.269 2.625.637.723 1.164 1.211 1.168 1.086.036-.125.371.067.844.5.449.391 1.832 1.172 3.074 1.676 1.211.5 3.114 1.606 4.203 2.383 1.094.816 2.293 1.535 2.657 1.605.359.079 1.082.446 1.617.852.75.535 2.48 1.152 5.375 1.914.434.141 1.148.594 1.676 1.121l.121.11c.082.132.332.339.867.66 1.34.804 1.98.89 4.562.926 2.653.054 3.028.179 3.813.898 1.148 1.09 3.199 2.004 3.402 1.535.203-.555 1.633-.617 3.028-.187 2.332.679 6.132 2.265 6.648 2.718.25.227.5.168.531-.097.039-.688 1.09-.313 2.078.691.575.578 1.27.961 2.422 1.379 1.457.535 1.657.68 2.196 1.492.355.535.746.949.937 1.024.227.089.137-.153-.367-.813-.531-.707-.598-.894-.285-.808.797.207 1.359.316 2.457.539 1.91.375 2.969.691 3.433.89.278.153.313.051.106-.195-.379-.438.523-.613 1.738-.332.34.07.539.019.418-.145-.09-.129.188-.078.637.137.449.219.891.516 1.012.684.355.504.761.621.472.156-.14-.234.246-.207.774-.012.574.242 1.16.344 1.324.231.301-.25.785-.145 2.215.519-37.973-27.82-84.785-44.277-135.465-44.277zm-57.121 67.465c-1.145.855-1.164.914.058.476.664-.222 1.43-.629 1.668-.945.657-.879-.308-.641-1.726.469zm-.988-59.438c-.668-.039-1.383-.012-2.09.008-3.145.852-6.27 1.746-9.356 2.727.258.019.551.039.953.039 1.289-.02 1.864.359 2.032 1.132.132.586.785 1.145 1.453 1.219 2.086.246 5.797-1.082 6.011-2.168.063-.312.473-1.004.93-1.562.746-.965.742-1.074.067-1.395zm-15.711 377.801c-.774 3.301-.758 3.355.578 4.984 1.347 1.555 1.347 1.555-.082.743-1.832-1.133-1.871-1.133-1.383.152.234.605.207 1.793-.012 2.734-.359 1.012-.289 1.672.16 1.914.516.325.59.621.34 1.258-.273.789-.109 1.086 1.434 2.563.941.925 2.094 1.722 2.566 1.75.512.035 1.313.808 2.047 2.007.984 1.579 1.074 1.797.316 1.032-.445-.465-.785-.559-.722-.192.109.367-.367.91-1.016 1.078-1.14.352-1.14.352-.629-.539.211-.386.313-.582.528-.972-.446-.2-.664-.305-1.114-.504-1.519-.68-2.617-.039-2.109 1.207.238.586.609 1.039.84 1.058.191.016.426.313.457.668.035.36.398.879.828 1.125.394.243.516.18.227-.265-.333-.449.011-.707.82-.649.734.055 1.496-.105 1.758-.3.949-.872.91.988.023 2.062-.676.731-1.578.871-2.762.496-1.89-.574-1.957.121-.254 1.867.747.758.864 1.34.563 3.571-.188 1.425-.547 2.601-.805 2.578-.289-.035-.543.347-.582.812-.136 1.66-3.179 2.172-7.621 1.242-2.875-.648-4.394-.75-4.64-.281-.18.352-.665.844-1.11 1.02-.652.273-.48.363 1.063.668 1.023.226 1.984.683 2.187 1.09.164.343.129.523-.211.218-.679-.605-4.246.227-3.902.895.246.465 1.539 1.015 6.633 2.707 2.851.887 3.84 1.406 4.203 2.148.195.399-.328.567-1.11.438-.777-.121-1.152.058-.855.351 1.008 1.02 4.836 2.75 6.672 3.032 1.156.175 1.762.515 1.976 1.105.465 1.188 8.864 3.445 9.336 2.422.227-.547.473-.582.844-.023.371.492.852.617 1.453.238 1.379-.805 1.899-.625 1.879.535 0 1.301.484 1.387 3.848.418 3.054-.875 3.16-.895 3.211-.027.05.406.222.683.468.711.813.07.293.886-.789 1.308-.707.258.692.539 3.602.598 2.586.094 4.852.449 4.941.73.118.34 1.317.832 2.676.989 4.414.605 9.328.945 13.731-.235.601-.336 1.894-.668 2.839-.656 1.086.008 1.606-.274 1.372-.699-.192-.356-1.184-.715-2.168-.723-.989-.012-1.969-.309-2.18-.734-.246-.43.488-.555 2.027-.262 2.211.375 2.344.297 1.461-.703-.547-.641-1.137-1.145-1.363-1.149-.184 0-.293-.14-.231-.355.032-.215.95.078 1.989.574 1.015.578 2.367.856 2.961.637.636-.149 1.984.055 3.031.469 1.219.55 2.719.668 4.226.261.95-.258 1.426-.39 2.383-.652-.945-.348-1.426-.52-2.383-.863-2.238-.801-3.41-1.504-5.339-3.067-.446-.359-1.227-.633-1.723-.625-.5.004-1.09-.496-1.359-1.078-.231-.574-.68-1.082-1.024-1.078-.308.008-1.055-.645-1.707-1.516-.453-.605-.683-.914-1.141-1.523.391.199.586.301.973.5.606.289 1.004.137 1.098-.375.066-.438.652-.887 1.367-.902 1.445-.094 1.637-.618.633-1.93-.469-.582-.688-.652-.59-.137.074.391-.59.68-1.781.649-.176-.246-.407-.45-.582-.453-.141 0-.235.171-.262.402-2.027-.211-2.356-1.266-.195-1.297 1-.008 2.015-1.434 1.804-2.547-.043-.226-.531-.441-1.101-.43-1.512.028-1.52-1.464.023-1.566l1.305-.098c-.52-.203-.777-.3-1.297-.5-.742-.211-1.34-.726-1.348-1.175-.105-1.196-2.918-1.829-4.222-.993-.649.454-1.332.684-1.508.461-.176-.226.348-.828 1.187-1.359 1.438-.836 1.723-1.746.907-2.418-.661-.516-2.84 1.012-2.672 1.758.097.449-.121.754-.492.754-1.196.004-.336-2.168 1.097-2.711 1.246-.465 2.606-2.758 2.36-3.973-.172-.836-3.575-.406-3.715.508-.043.379-.504.988-.981 1.297-.703.453-.906.308-.906-.602-.019-.828-.336-1.281-1.023-1.508-.61-.222-.348-.375.64-.531.922-.082 2.098-.402 2.637-.715.805-.468.492-.765-2.434-2.187-4.765-2.246-10.289-3.477-11.109-2.414-.539.676-.688.597-.746-.387.004-.605-8.766-1.262-9.059-1.266-.254-.007 7.145-.726 6.133-1.726-1.055-1.004-2.766-2.164-3.781-2.402-1.035-.325-2.379-.954-2.926-1.34-.898-.703-.937-.551-.332.601.629 1.231.613 1.305-.422.145-.637-.696-2.035-1.485-3.156-1.809-1.641-.488-1.973-.73-1.84-1.637.113-.839-.004-1.07-.668-1.164-.473-.007-.676-.242-.41-.461.711-.597.117-1.531-1.906-2.878-1.121-.79-1.989-1.727-1.942-2.114-.019-.457-.742-2.015-1.64-3.426-1.274-2.039-1.899-2.589-2.864-2.609-.636.063-1.101.363-.968.754.101.313-.094.613-.446.609-.343-.011-.547.293-.41.684.106.309-.316.453-1 .203-1.871-.59-2.773.324-3.601 3.922zm-5.723-371.648c.082.031.203.05.199.121.008.504 1.02.297 1.567-.328.113-.11.187-.297.234-.508-.668.238-1.34.468-2 .715zm-4.781 26.925c.086-.254-.09-.449-.383-.379-.293.067-.633.387-.723.637-.101.305.09.445.383.379.293-.07.621-.332.723-.637zm1.582-15.129c-.668.274-1.157.313-1.059.055.078-.203.399-.476.715-.562.352-.094.348-.508-.012-1.188-.312-.558-.777-.793-1.047-.582-.289.27-.589.172-.613-.234-.074-.434-1-.582-2.637-.41-1.386.14-3.074.253-3.785.253-1.703-.093-4.648.938-7.582 2.59-1.418.809-2.594 1.289-2.808 1.184-.442-.402 2.64-2.676 5.019-3.719 1.27-.547 1.856-.953 1.656-1.148-.226-.274-4.257 1.242-7.726 2.949-1.051.531-1.395.566-1.07.16.242-.332 1.144-.859 2-1.156.851-.297 1.898-.863 2.296-1.262.235-.211-.019-.203-.515-.062a229.423 229.423 0 0 0-27.875 16.011c-.281.258-.547.489-.692.543-.242.098-.632.41-.898.707a9.862 9.862 0 0 1-1.25 1.075c-.395.273.051.093.965-.356.883-.43 1.543-.582 1.426-.344-.114.243-1.024.754-2.012 1.149-1.106.449-1.875.918-2.039 1.246-.16.328.148.277.867-.16 4.277-2.301 9.109-4.485 13.855-5.563.539.047 1.157-.133 1.368-.41.187-.227 1.027-.648 1.871-.941.847-.262 1.644-.621 1.832-.852.152-.215 1.367-.883 2.734-1.523 2.039-.942 2.465-1 2.621-.465.129.465.524.422 1.231-.024.554-.351 1.41-.8 1.902-1.004.516-.25 1.539-.753 2.336-1.183.953-.516 1.332-.594 1.16-.195-.125.296-.437.617-.664.726-.234.074-.176.274.117.484.449.25.715.122 1.367-.734.754-.926 1.094-1.098 4.25-1.609 3.219-.528 4.559-.317 4.168.511-.078.207-.738 1.153-1.406 2.063-2.914 3.926-2.793 3.707-1.668 3.387.84-.227.938-.078.574 1.199-.336 1.133-.539 1.504-.82 1.394-.184-.082-.457.129-.59.481-.136.351.406.922 1.176 1.355.754.391 1.574.914 1.73 1.196.375.406 2.579 1.144 4.399 1.402.625.039 1.129.25 1.187.371.098.121.633.137 1.278-.062.465-.129.695-.192 1.164-.313-.414-.078-.621-.113-1.031-.187-.575-.102-.973-.43-.883-.684.101-.301-.231-.41-.703-.297-1.321.317-2.926-.586-2.942-1.64-.035-.547-.281-.758-.695-.512-.524.359-1.172-.031-2.149-1.266-.05-.035.196-.601.559-1.246.465-.805.879-1.141 1.379-1.18.824-.089 3.895-2.816 3.848-3.449.004-.277.39-.695.867-.965.68-.363.953-.757 1.156-1.636.184-.645.465-1.231.676-1.286.211-.058.305-.218.238-.382-.023-.176.465-.723 1.129-1.227.492-.371.742-.559 1.234-.934-.472.188-.707.274-1.179.461zm-5.699-7.511c-.465-.157-.961-.196-1.43-.184-.563.238-1.106.508-1.66.75.074.234.687.383 1.41.367 2.289-.074 3.09-.5 1.68-.933zm-37.918 22.754a46.92 46.92 0 0 1-2.434.832c-.406.117-.77.379-.805.547-.004.117-.504.539-1.09.851-.586.309.231.055 1.895-.629 3.129-1.219 5.309-2.625 2.434-1.601zm-1.258 55.683c.09-.316-.008-.601-.297-.547-.238.043-.567.407-.66.723-.106.383.058.59.304.547.282-.055.547-.344.653-.723zm8.66-58.804c.109-.239.098-.434-.094-.364-.156.059-.43.356-.543.598-.133.289-.062.422.094.367.195-.066.41-.309.543-.601zm3.211 37.128c-.586-.414-.699-.336-.762.438.035.457.285.82.66.75.953-.176.942-.586.102-1.188zm1.996-.652c-.91-.246-.981-.172-.695.649.16.5.789.792 1.316.699 1.246-.219.855-1.035-.621-1.348zm10.047-41.668c.004-.219-.289-.336-.625-.226-.332.105-.848.488-1.055.765-.266.344.02.418.625.231.606-.196 1.059-.512 1.055-.77zm6.894 6.668c.223.566.684.535.95-.172.093-.25-.047-.613-.321-.808-.543-.391-.933.207-.629.98zm-5.953-2.676c.356-.062.625-.273.547-.383-.039-.121-.328-.078-.629.149-.34.23-.293.348.082.234zm.867-1.527c1.746-.535 1.711-.742-.066-.547-.758.102-1.344.371-1.309.574-.004.219.625.2 1.375-.027zm4.504-3.113c-.414.347-1.222.543-1.953.5-.89-.078-1.367.074-1.859.613-.442.484-.477.625-.117.559.238-.075.742-.137 1.078-.153.332-.015 1.14-.082 1.836-.16 1.492-.18 1.742.195.359.602-.723.214-.922.402-.695.605.168.164.047.781-.282 1.359-.417.743-.437 1.098-.117 1.145 1.016.145 1.446-.148 3.512-2.477 3.547-3.953 3.48-5.086-.262-4.187-2.187.476-2.367.625-1.179.883.343.117.324.164-.321.711zm5.582 10.195c.09-.254-.109-.434-.437-.352-.535.137-.61.247-.285.536.468.429.507.421.722-.184zm-62.61 217.715c1.286-.52 2.185.875 1.817 2.707-.347 1.746 3.95.742 5.328-1.188.668-.961 1.118-1.91 1.016-2.066-.121-.07-1.09-.234-2.16-.305-1.067-.074-2.227-.301-2.531-.519-.856-.582-5.098.617-4.88 1.25.114.316.782.422 1.41.121zm-1.019 17.801c.18.468.512.769.723.761.254-.015.297-.343.117-.816-.152-.395-.469-.781-.722-.762-.211.008-.27.418-.118.817zm-4.12-18.321c.277-.593.019-.812-1.012-.718-.727.066-1.352.527-1.344.933.02 1.047 1.851.887 2.355-.215zm.867 7.219c-.508.047-.81.633-.708 1.27.063.644-.277 1.238-.777 1.277-.539.039-.976.473-.957.871.055.484-.402.836-.98.879-.532.039-.828.465-.684.855.356.934-.953 1.11-1.793.207-.39-.371-1.195-.871-1.875-1.144-1.082-.477-1.094-.395-.168.734.547.676 1.711 1.473 2.543 1.817 2.547.941 3.66.183 7.7-5.157.757-.953 1.632-2 1.984-2.273 1.125-.984-.45-2.078-2.61-1.902-1.734.14-1.976.406-1.465 1.336.461.773.43 1.183-.21 1.23zm16.402-8.742c-.133-.406-.797-.762-1.461-.703-.668.058-1.055.5-.918.906.164.484.793.758 1.457.703.664-.058 1.082-.426.922-.906zm1.613-22.617c-.117-.403-.441-.782-.742-.75-.262.031-.398.461-.273.859.14.484.488.777.742.754.304-.035.414-.383.273-.863zm32.836 101.531c-.512-.074-1.066.484-1.242 1.195-.168.637-.164.949.035.715.215-.316.762-.875 1.242-1.191.727-.563.742-.641-.035-.719zm3.926 8.293c-.559.312-1.09.859-1.172 1.172-.191 1.25 1.566.789 1.941-.465.313-1.098.235-1.176-.769-.707zm13.523-.543c-.746-1.352-.824-1.676-.183-1.203.457.234-.305-.555-1.692-1.903-2.547-2.457-4.117-3.316-2.468-1.41.75.871.218.961-2.536.828-2.054-.058-3.316.11-3.125.586.192.473.543.793.762.793.27-.007.668.551.922 1.184.254.633.656 1.187.875 1.187.219-.003.785.629 1.312 1.5.45.786 1.735 2.446 2.75 3.543 2.184 2.364 4.274 3.075 2.184.711-1.867-2.129-2.941-3.711-2.066-3.082.39.317.8-.004.91-.64.18-.797.762-1.039 1.828-.731 1.422.383 1.484.301.527-1.363zm-.863-5.453c-.395-.563-.996-.793-1.336-.465-.559.492-.496.652.754 2 1.434 1.59 2.09 1.984 1.223.789-.332-.398-.426-.879-.207-1.047.203-.082.007-.723-.434-1.277zm-33.773 15.648c-.188-.375-.524-.539-.707-.328-.149.285-.262.57-.184.723.074.148.406.312.703.328.301.016.41-.27.188-.723zm6.937 8.824c-.074-.148-.484-.46-.926-.777-.41-.238-.597-.109-.41.262.227.445.633.762.93.777.301.02.484-.113.406-.262zm4.32 16.047c-.296-.371-.984-.773-1.476-.824-.496-.047-.621.207-.281.645.332.437.976.777 1.472.824.492.055.617-.203.285-.645zm2.86-.414c.285.024.281-.254-.055-.699-.297-.371-.844-.762-1.133-.785-.289-.027-.246.324.055.695.336.442.844.762 1.133.789zm-1.43 3.332c-.598.535-1.019.422-2.57-.75-1.481-1.093-1.832-1.195-1.891-.539-.004.461-.469.61-1.074.278-.914-.442-.914-.442.113.535.582.535 1.66 1.843 2.348 2.906.683 1 1.574 2.016 1.957 2.199.461.254.812.422.918.5.035.008-.121-.273-.391-.695-.301-.43-.371-.895-.129-.934 1.301-.367 2.426-1.515 2.118-2.082-.231-.429-.063-.676.324-.636.383.039.551-.215.324-.645-.496-.93-1.18-.992-2.047-.137zm5.27-.656c-.223-.223-.586-.32-.723-.133-.176.192.047.418.441.457.434.106.536-.093.282-.324zm6.988 14.84c-.543-.586-1.156-1.113-1.367-1.137-.211-.027.195.477.883 1.078 1.582 1.422 1.757 1.446.484.059zm3.539-2.711c.504.051.613-.074.285-.309-.324-.164-.754-.207-.894-.086-.141.184.113.348.609.395zm-1.023.23c-.93-1.695-1.77-2.382-2.973-2.511-1.531-.157.101 2.203 1.992 2.937.82.356 1.535.629 1.606.703 0 0-.258-.492-.625-1.129zm-82.66-43.949c.202.324.574.578.898.649.394.082.297-.286-.457-1.539-.551-.922-1.024-1.661-1.074-1.668-.2-.039.343 2.093.632 2.558zm-7.477 4.133c-1.055-.625-.492.379.625 1.125.508.352 1.097.879 1.308 1.191.203.309.547.61.762.672.3.098.238-.019-.375-.597-.383-.368-.656-.696-.527-.657.41.129-1.012-1.246-1.793-1.734zm55.293-278.867c.113-.926-.11-1.61-.469-1.531-.363.082-.625.359-.598.64.032.274-.351.414-.91.363-.543-.101-1.211.157-1.476.555-.309.403-.368.695-.098.637.27-.059-.316 1.141-1.246 2.637-1.25 2.082-1.899 2.793-2.484 2.808-.493-.004-.668.149-.458.387.372.484.165 2.973-.285 3.07-.175.039-.418-.367-.527-.906-.23-.809-.293-.734-.602.812-.234 1.075-.648 1.965-1.101 2.348-.395.32-.668.777-.551.926.07.156.598-.191 1.18-.832.586-.637 1.019-1.078 1.027-.965-.715 3.699-1.305 4.531-3.215 4.656-.36-.039-.347.305.082.789.364.442 1.114.575 1.649.227.769-.449.922-.137.691 1.426-.164 1.086-.316 2.293-.371 2.593-.484 3.571-.953 5.223-1.586 5.356-.367.074-.527-.551-.316-1.543.168-.863.129-1.738-.192-1.789-.394-.094-.543.109-.578.945-.027.656-.242 2.238-.535 3.551-.293 1.312-.441 2.723-.293 3.113.145.391-.168 1.66-.605 2.782-.657 1.585-.82 2.953-.606 5.257.414 4.664.195 7.758-.812 10.629-.555 1.574-.75 2.77-.493 2.981.215.218.168.804-.101 1.375-.25.5-.473 2.422-.54 4.269-.253 5.891-1.378 11.688-2.421 17.461-.664 4.653-2.746 8.352-6.488 11.113-3.348 2.817-6.356 6.567-6.266 7.797 0 .512-.781 2.563-1.742 4.528-1.004 1.961-2.758 6.039-3.98 9.086-1.16 2.964-2.723 6.285-3.497 7.355-1.953 2.703-2.695 7.043-1.515 8.68.976 1.269.93 3.23-.059 3.242-.422.078-.84.801-1.043 1.734-.437 2.2.328 8.653 1.047 8.528.293-.051.562.832.547 2.023.023 1.18.41 1.981.55 2.035 1.485.586 2.407 10.688 2.52 14.086.016 1.828-.058 3.594-.238 3.86-.383.769-2.602-1.622-2.707-2.954-.14-1.484-1.121-1.261-1.856.43-.324.754-.93 1.555-1.39 1.703-1.324.508-1.356.512-1.004 1.641.351 1.129-.348 2.488-1.551 2.973-.195.023-.125.878.188 1.855.293.902.312 2.715.093 4-.261 1.293-.328 2.637-.203 3.012.106.304-.14.644-.558.699-1.797.219-4.274 3.016-4.582 5.152-.59 3.563-1.02 4.067-2.641 2.93-1.324-.934-1.602-.813-3.324 1.367-1.028 1.258-1.97 2.727-2.14 3.281-.2.473-.61 1.2-.923 1.532-.664.675-1.547 4-1.41 5.269.07.446.441 1.391.863 2.035 1.196 1.86 1.602 5.168 1.422 9.661-.078 2.171-.054 4.093.04 4.316.124.293.175 2.148.163 4.133-.007 1.992.348 4.836.778 6.363.508 1.816.605 2.973.254 3.48-.512.723-.512.719-1.446-1.664-.484-1.226-.851-2.597-.843-3.031.043-.367-.168-2.18-.41-4.004-.247-1.82-.407-3.433-.383-3.656-.004-.223-.368-1.68-.778-3.215-.441-1.601-.597-3.004-.418-3.23.395-.321.067-2.305-.445-2.871-.574-.711-.742 4.554-.219 5.785.313.722.45 1.816.317 2.484-.883 3.695-.825 3.379.117 4.309.816.781.914 1.074.851 2.742-.007 1.016.473 3.828 1.102 6.269 1.293 4.879 1.363 6.29.316 6.891-.398.195-.566.68-.422.961.141.289.532 1.91.832 3.516.344 1.742.926 3.492 1.32 4.062.41.645.505.922.196.629-.558-.512-.176 1.828.594 3.301.262.496.488 1.121.465 1.32 1.82 4.492 4.394 8.621 6.82 12.789 2.082 3.496 2.746 4.735 3.203 6.137.563 1.668.606 1.734.887 1.453.996-1 1.254-.977 1.781.25.762 1.762.899 2.734.418 3.164-.254.149-.293.578-.09.922.2.344.258.598.098.574-.48-.074-1.012-1.707-.89-2.887.093-.679-.075-1.277-.41-1.515-.642-.469-1.58 3.933-1.052 4.812.203.34.438.5.5.325.45-.829.797-.903 1.157-.293.246.41.156.703-.204.64-.554-.094-.406.543.332 1.457.067.071.383.793.715 1.571.367.91.352 1.261-.066.941-.54-.395-.426-.137.508 1.164.976 1.367 1.035 1.492.34.77-1.602-1.719-1.586-1.184-.028 1.222.895 1.403 1.274 2.114 1.016 1.942-.578-.469-.227 2.273.332 2.843.238.278.191.434-.133.36-.543-.125-.61-.196-.957-1.332-.21-.664-.223-1.059-.027-.848.183.156-.035-.289-.422-.937-.64-1.051-.77-1.192-.758-.622.047.407.387 1.383.781 2.196.39.812.442 1.207.192.988-.27-.23-.282-.129-.078.199.253.391.628.754.855.805.438.109 1.66 2.102 1.488 2.434-.086.086-.328-.188-.648-.813-.305-.559-.645-1.023-.793-1.059-.145-.039-.082.25.129.571.222.383.535.89.762 1.269.21.325.457.926.562 1.321.18.574.129.562-.129.019-.238-.484-.496-.82-.687-.871-.196-.047-.348-.246-.41-.531-.063-.492-1.696-3.774-1.915-3.828-.414-.098.899 2.984 1.875 4.351.594.844.762 1.098.414.688-.882-1.129-1.367-1.196-1.43-.332-.034.676.786 2.418.333 2.394-.922-.019-.63.512-.719.774-.258.754-.492.527-1.094-.532-.375-.652-.66-.937-1.015-1.043-.332-.156-1.075-.679-1.72-1.269-1.355-1.25-2.523-1.816-1.304-.656.535.508.66.687.461.625-.41-.133 1.953 2.398 2.758 2.945.547.367.586.43.191.348-.488-.118-2.93-2.243-3.476-3.039-.168-.243-.66-.688-1.086-.973-.887-.625-1.817-1.824-1.258-1.645.316.102.234-.019-.629-.875-.527-.507-1.578-1.418-2.332-2.05-.73-.571-1.496-1.301-1.664-1.547-.164-.242-.473-.535-.66-.602-.184-.058-1.004-.762-1.766-1.484-.758-.727-1.93-1.688-2.59-2.098a15.164 15.164 0 0 1-1.277-.922c.18.301.367.598.55.899.474.398.774.586.727.441-.046-.199.192-.023.477.309.266.324 1.297 1.332 2.297 2.238.996.902 2.34 2.293 3.004 3.129 1.125 1.406 1.187 1.523.597 1.269-.347-.171-.777-.503-.945-.746-.168-.242-.305-.246-.277.039.012.278-.34.282-.844-.035-.777-.511-.793-.426-.012.746.575.844.7 1.125.43 1.02a218.867 218.867 0 0 0 4.879 6.906c.8.524 1.781 1.309 2.09 1.727.152.226.578.8.957 1.32.558.746.523.805-.145.289a10.264 10.264 0 0 0-.855-.594c.73.969 1.472 1.934 2.226 2.891.297.09.66.289.856.547.726.965 1.261 1.902.781 1.355-.164-.175-.281-.269-.367-.3a220.843 220.843 0 0 0 5.707 6.89 44.454 44.454 0 0 0 2.71 1.93c.47.328 1.134.769 1.598 1.121.414.301.832.562.852.5.086.004.457.066.898.191a6.425 6.425 0 0 0 1.286.196c.238-.051.855.05 1.363.222 3.305 1.086 1.937-.199 3.46-.554.727-.215 1.118-.09 1.973.695 1.06.945 3.438 2.215 5.86 3.098.746.289 1.77.886 2.27 1.371.734.699.851.648.71-.145-.242-1.16.168-1.14 1.34.027.547.547.735.606.613.137-.066-.355.403-.316 1.239.117.804.43 1.812.524 2.523.215.68-.269 1.875-.32 2.555-.199 1.422.359 2.379-.312 1.094-.68-.379-.144-.957-.55-1.325-.961-.41-.472.188-.484 2.129.079 3.258.863 4.621.64 3.746-.735-.336-.527-.378-.762-.105-.535.273.23.789.961 1.156 1.664.508.953.922 1.32 1.996 1.832.762.387 1.418.805 1.45.981.07.179-.645-.082-1.575-.614-.859-.465-1.48-.601-1.402-.363.391 1.031 3.242 1.879 3.523.977.489-1.2 5.305-.836 6.75.617 1.297 1.297 1.485 1.922.582 1.75-.562-.102-.378.105.938 1.109 1.613 1.242 2.512 1.188 2.621-.223.066-.82.066-.82-.578-.996-.391-.129-.899-.214-1.106-.199-.246.024-.347-.23-.261-.695.097-.403-.125-1.106-.434-1.52-.308-.414-.375-.91-.144-1.054.378-.18.554-.028 1.003.957.442.922.84 1.351 1.778 1.812 1.371.652 2.68 1.961 1.847 1.82-.289-.046-.214.266.083.618.335.414.496.683.375.722-1.426.047-1.778.746-.954 2.121.539.914 1.192 1.618 1.942 2.106 1.293.883 1.785 1.562 2.394 3.332.344 1.027.578 1.355 1.278 1.945.8.672 6.242 2.031 5.929 1.512-.515-.848-3.957-3.289-4.367-3.137-.289.176-1.004-.301-1.933-1.23-.868-.86-1.356-1.469-1.133-1.43.57.106.773-3.047.195-3.391-.957-.578-1.238-1.527-.398-1.39.554.094.675-.254.214-1.18-.761-1.594-.636-1.641 1.028-.027 1.051 1.027 1.273 1.062 1.64.5.332-.571.243-.836-.468-1.442-.715-.605-.84-.875-.746-1.617.058-1.125.82-.769 1.55.723.368.75.657 1.043.836.812.153-.168.996.395 1.832 1.207.903.883 1.391 1.516 1.184 1.489-.633-.09.234 1.16 1.102 1.597.378.18-.27.403-1.368.547-1.597.063-2.09.531-2.066 1.555.023 1.328.066 1.394 1.648 3.203 1.946 2.234 3.516 3.281 5.477 3.621 1.437.246 1.434.184.246-.734-.664-.469-1.34-1.121-1.465-1.383-.195-.332-.515-.922-.789-1.391-.312-.531-.383-1.211-.152-1.543.48-.84.582-.828 1.09.043.234.407.183.645-.079.606-.234-.039-.179.519.153 1.242.781 1.695 1.961 2.613 4.695 3.535 1.652.563 2.121.574 1.934-.129-.18-.637-.078-.625.265-.019.305.539.989.886 2.102 1.05 1.824.27 3.242-.601 2.414-1.589-.293-.36-.199-.598.215-.543.379.046.902-.649 1.152-1.52.32-.992.77-1.336 1.238-.894.86.75 2.586.019 2.118-.887-.184-.348.066-.524.535-.473 1.437.078 1.621-.039 1.051-.769-.395-.508-.25-.625.472-.293.649.332 1.09.234.989-.176-.106-.481-.465-.785-1.012-.902-.727-.133-.762-.27-.059-.614.625-.351.633-.488-.031-.617-2.414-.41-1.77-2.594 1.055-3.074.718-.156 1.23-.613 1.179-1.035-.093-.426.496-.879 1.27-1.043.574-.137.863-.199 1.437-.336-.722-.699-1.082-1.043-1.808-1.742-1.024-.981-1.946-1.606-2-1.399-.086.211-.379-.09-.653-.676-.582-1.246-1.753-1.023-2.05.371-.559 2.231-.969 2.532-2.246 1.465-1.207-1.066-1.247-1.132-.911-2.238.211-.613.614-1.09.914-1.07.27.019.528-.672.54-1.602.027-1.355-.133-1.867-1.043-2.93-.946-1.132-1.122-1.058-2.434.079-1.731 1.691-2.469 1.074-1.043-.774 1.016-1.375.898-3.34-.109-2.597-.321.125-1.032.519-1.657.703-.586.254-1.097.789-1.187 1.14-.086.352-.391.473-.801.16-.816-.691-1.707.95-1.016 1.844.258.297.18.57-.191.543-.371-.027-.711.438-.82.914-.078.692-1.039.75-3.215.352-1.746-.293-2.883-.262-2.695.094.675 1.289 2.347 2.535 2.914 2.179.355-.172 1.328-.078 2.242.278 1.195.378 1.562.683 1.64 1.375.079.691.372 1.054 1.172 1.464 3.016 1.641 3.91 4.246 1.977 5.371-.703.329-1.109.946-.926 1.29.192.351-.125.445-.687.25-.571-.258-.848-.223-.629.058.258.293.215 1.008-.106 1.543-.711 1.137-.871 1.176-1.269.035-.242-.668-1.063-.957-3.61-1.172-1.769-.109-3.117-.367-2.984-.41.121-.109.629-.472 1.176-.844.468-.445.703-1.062.406-1.48-.332-.43-.727-.738-.855-.625-.497.195-.989-1.09-.774-2.035.07-.383.109-.574.184-.953-.489-.371-.731-.559-1.219-.934-.652-.469-1.75-1.055-2.336-1.191-.766-.157-1.23-.543-1.48-1.227-.254-.676-.36-.762-.36-.238-.043.324-.558.781-1.187.894-.629.114-1.036.059-.914-.117.351-.597-5.274-6.113-6.379-6.254-1.149-.144-3.067-1.554-3.317-2.433-.062-.336-.488-.649-.89-.699-1.075-.137-4.266-2.883-6.547-5.653-2.84-3.433-3.5-4.703-2.617-5.14.511-.145.566-1.008.246-2.059-.504-1.543-.289-1.723 1.211-1.719 1.093.035 2.054-.496 2.425-1.371.34-.808.946-1.465 1.336-1.433.391.027.664-.231.539-.665-.082-.363.727-.66 1.813-.582 2.062.137 2.062.004-.488-4.937-.266-.449-.352-1.91-.164-3.149.265-1.972.464-2.199 1.632-1.48 1.504 1.031 1.903 1.73 3.153 5.68.34 1.101.508 1.656.851 2.75.957.633 1.434.949 2.391 1.59 1.277.796 2.734 2.043 3.18 2.718 1.371 1.969 2.066 4.539 1.546 5.43-.515.754-.511.82.829 2.266 1.183 1.289 1.554 1.961 2.578 4.562.636 1.66 1.429 3.32 1.726 3.692.258.296 1.059.437 1.75.214.653-.226 1.867-.269 2.571-.214 1.406.242 2.734-1.012 2.265-1.969-.144-.293.281-.699.934-.942 1.156-.363 1.129-.507-.121-3.117-1.141-2.383-1.203-2.758-.516-2.43.461.165.941-.031 1.004-.542.23-1.313 2.465-.184 4.898 2.57.84.949 1.258 1.426 2.098 2.371.082-1.703.133-2.559.25-4.285.199-2.383.086-4.883-.219-5.5-.351-.614-.39-1.449-.168-1.981.258-.449.465-1.133.465-1.519-.039-.383.387-.762.867-.91.469-.067.914-.219.969-.293.027-.235.574-.536 1.195-.684.352-.07.29-.227-.332-.695-.574-.477-.418-1.012.454-1.711 1.121-.848 1.152-1.317.402-3.203-.801-1.883-1.227-2.274-3.133-2.985-1.238-.472-3.211-1.57-4.305-2.441-1.804-1.336-2.601-1.484-6.175-1.117-3.184.289-4.356.113-5.598-.828a71.67 71.67 0 0 0-3.273-2.293c-.942-.629-2.809-2.356-4.133-3.77-1.844-2.035-1.992-2.269-.653-1.016 3.047 2.907 5.727 4.411 7.977 4.586 1.676.094 2.055-.218 1.684-1.082-.262-.625-1.153-1.418-1.977-1.652-1.141-.398-1.293-.555-.566-.629.605-.078.703-.547.234-1.652-.836-1.965-.039-3.871 1.758-4.199 1.074-.165 1.812.226 3.207 1.808 1.476 1.66 1.679 1.738 1.277.629-.324-.797-.312-1.434 0-1.441.356 0 .215-.239-.457-.789-.59-.473-.918-.391-.879.25.02.714-.066.714-.39-.079-.415-1.035-3.516-3.082-5.286-3.546-.504-.157-1.675-.864-2.656-1.649-.984-.793-1.887-1.183-2.012-.859-.289.554.555 2.777 1.067 2.773.222 0 .969.551 1.746 1.258 1.273 1.188 1.223 1.188-.184.719-.82-.317-1.722-.629-2.015-.707-.242-.078-1.043-.555-1.68-.946-.668-.472-2.195-1.257-3.398-1.886-2.457-1.102-4.84-4.09-4.805-5.992.043-.793-.434-1.106-2.402-1.567-1.563-.305-2.301-.773-2.094-1.172.172-.476-.098-.711-.852-.703-.828.004-1.367-.465-2.219-1.961-.71-1.258-1.386-1.965-1.925-1.961-.535.004-.875-.386-1.055-1.094-.145-.636-.738-1.816-1.324-2.601-.91-1.258-.926-1.094-.188 1.191.571 1.817.614 2.289.063 1.582-.844-1.101-2.024-4.484-1.946-5.679.04-.403-.339-1.188-.851-1.817-.676-.703-.77-1.015-.438-1.027.289-.004.207-.399-.086-.793-.363-.469-.691-.543-.835-.301-.122.403-.34.09-.508-.707-.192-.953-.524-1.344-1.059-1.328-.414.012-1.223-.531-1.777-1.152-.551-.625-1.235-1.168-1.48-1.157-.29.004-1.305-.843-2.294-1.929-.992-1.09-2.004-1.934-2.246-1.922-.484.012-2.762-3.176-3.41-4.742-.195-.469-.57-1.969-.797-3.317-1.023-5.629-1.55-7.777-2.539-9.648-.594-1.094-1.219-1.938-1.465-1.922-.492.027-.82 2.051-.508 2.832.125.316.196 1.43.207 2.469-.035 1.039.329 2.535.766 3.312 1.145 2.098.543 5.219-.785 4.321-.742-.528-1.137-.43-1.309.281-.168.64-1.28 1.152-2.574 1.191-2.164.074-2.293-.004-2.867-1.703-.57-1.699-.613-1.695-1.8-1.031-2.263 1.336-4.712 1.242-6.079-.176-.687-.672-1.516-1.258-1.832-1.25-.914.035-3.219-3.332-4.121-5.98-.367-1.215-.941-2.418-1.207-2.633-.3-.215-1.414-2.543-2.45-5.09-1.617-3.981-1.945-5.254-2.21-8.551-.446-4.601.383-6.156 2.656-5.199.828.312 1.582.398 1.68.156.297-.734 2.539 1.879 3.234 3.703.926 2.438 2.043 3.371 4.5 3.739 2.2.304 2.297-.184.586-2.813-.496-.676-1.328-2.266-1.91-3.398-.547-1.145-1.086-1.961-1.192-1.715-.07.242-.62-.813-1.214-2.336-.567-1.438-1.422-3.164-1.844-3.672-.926-1.16-1.024-1.156 2.824-1.398 2.094-.149 2.758-.536 2.984-1.672.305-1.387.098-1.942-1.89-6.625-1.988-4.684-2.125-5.278-2.004-7.27.078-1.199.46-2.672.84-3.359.578-1.031.898-1.082 2.46-.106 1.97 1.16 3.016.711 3.684-1.781.453-1.582.446-1.59 2.36.645 1.007 1.226 2.043 2.789 2.238 3.41.195.617.586 1.136.809 1.105.285.051.667.086.91.133.222-.027.675.238.976.609.281.289.797.469 1.153.43.32-.039 1.437.559 2.507 1.414 2.141 1.707 2.547 1.332.98-.93-1.253-1.734-1.234-3.199.028-1.878.496.511 1.219.835 1.68.781.422-.051.894.39.973.953.101.476.175.715.171.391.016-.411.313-.696.641-.731.375-.043.86-.836 1.04-1.84.273-1.179.862-1.66 1.898-1.531.816.066 1.71-.285 2.074-.738.344-.7 1.246-.723 2.918-.09 2.113.754 2.426.723 2.492-.449.039-.746.559-1.633 1.199-1.957.899-.516 1.02-1.036.414-2.207-.621-1.258-.562-1.598.571-1.731.875-.101 1.769-1.453 2.707-3.976 1.355-3.575 1.652-3.868 5.117-4.625 3.109-.79 3.797-1.29 5.082-3.793.789-1.692 2.031-4.289 2.43-5.825.445-1.461 1.261-3.214 1.847-3.894 1.031-1.078 1.004-1.43-.156-3.516-.754-1.277-1.203-3.094-1.09-4.039.234-1.461.332-1.394 1.066.461.641 1.617 1.223 1.973 2.356 1.496 2.137-.773 2.648-2.199 1.316-3.894-.593-.766-.929-1.731-.656-2.098.27-.367 1.027.371 1.676 1.641.465.918.691 1.382 1.16 2.308 1.387-.844 2.09-1.265 3.492-2.109 2.824-1.684 3.645-2.535 3.742-3.883.164-1.445.36-1.629 1.489-1.094.843.403 1.82.207 2.609-.379.656-.492 2.414-1.109 3.895-1.273 2.164-.242 3.421-1.055 6.414-4.02 2.023-2.031 4.406-3.75 5.234-3.839 1.219-.125 1.672-.84 2.516-3.508.562-1.758.937-4.196.812-5.371-1.086-4.25-3.992-8.176-6.285-11.758-.762-1.137-.875-2.574-.422-5.985.266-2.414.367-5.734.125-7.308-.262-1.504-.281-2.945-.137-3.102.137-.16-.183-1.566-.773-2.996-.531-1.441-.934-2.875-.879-3.238.191-1.219-1.949-2.719-3.648-2.582-2.2.125-7.727-2.641-8.735-4.43-.406-.699-.527-2.594-.234-4.383.324-2.207.141-3.718-.594-5.211-.558-1.117-1.285-2.601-1.562-3.218-.27-.684-.399-.797-.235-.36.149.5.09 1.039-.183 1.336-.535.606-1.368-1.328-1.766-4.125-.137-1.215-.797-2.988-1.43-3.922-1.105-1.5-1.488-1.566-4.05-.847-1.524.422-3.207 1.199-3.719 1.726-.582.602-.832.641-.719.176.094-.394.703-1.129 1.352-1.609.644-.485 1.324-1.481 1.484-2.141.172-.723.566-1.351.82-1.391.91-.14.934-1.664.09-3.277-.797-1.621-2.64-2.058-6.027-1.605-1.367.234-1.762-.004-1.43-.551.215-.469.43-1.613.383-2.457 0-1.528-.184-1.559-2.297-.813-2.168.754-2.242.703-1.512-.754.403-.8 1.012-1.695 1.375-2.003.489-.45.473-.567.094-.497-.332.055-.519-.089-.375-.41.188-.519.258-2.332.141-3.73-.043-.473-.539-.91-1.09-.985-2.125-.304-.922-3.945 1.418-4.394 1.355-.262 1.496-2.168.226-2.844-.589-.351-.996-1.258-.968-2.012.027-.757-.262-1.336-.625-1.261-1.012.207-.946-.672.148-2.555.817-1.43.852-1.664.188-1.582-.59.125-.442-.078.457-.609.656-.418 1.297-1.063 1.422-1.43.308-.918 3.824-3.637 5.07-3.891 1.742-.351 1.078-1.191-.899-1.125-1.109.004-2.175.403-2.73.914-.734.664-.781.672-.293.004.394-.535.203-.722-.609-.547-.68.141-1.172.473-1.122.801.055.328-.527.68-1.386.863-.809.176-1.367.465-1.274.672.075.262.328.379.504.34.18-.039.508.344.75.856.391.82.371.882-.355 1.035-.59.125-.699.316-.492.957.203.633.097.828-.493.953-.457.098-.703-.535-.64-1.453zM53.586 765.176c-.18.031-.395.648-.469 1.316-.074.672.035.981.25.696.168-.286.375-.817.434-1.321.043-.418-.063-.722-.215-.691zm-31.77 60.023c-.144-.433-.414-.929-.554-1.047-.207-.179-.149.254.125 1.063.27.805.508 1.238.605 1.113.04-.191-.023-.695-.176-1.129zm73.727 126.84c1.39 1.406 1.957 2.055 1.973 2.336-.004.223.433.605 1.21 1.102.622.355 1.782.816 2.536.937.75.121 1.687.344 2.086.52 1.078.453 2-.262 1.359-.996-.394-.465-.203-.504.461-.204.719.321.871.219.523-.285-.421-.578-.203-.613.957-.015 1.059.515 1.434.519 1.239.004-.192-.516.004-.465.758.167 1.503 1.25 1.992 1.293 1.617-.019-.457-1.707.351-1.281.984.531.5 1.403.539 1.461 1.266 1.66.402.114 1.039.547 1.328.887.644.754 2.758 1.492 2.359.852-.164-.254-.683-.821-1.16-1.266-.781-.742-.996-1.109-1.621-3.012-.477-1.429-.496-2.222-.117-2.187.359.086.863-.188 1.164-.512.219-.246.332-.371.551-.621-.457-.148-.688-.227-1.149-.371-.613-.199-1.035-.469-.941-.621.754-.965-2.828-2.461-4.028-1.68-.414.238-.941.109-1.609-.449-1.691-1.414-7.066-3.281-6.824-2.406.113.406-.235.629-.797.472-.516-.086-1.078.071-1.258.375-.117.242-.176.36-.293.586.645.36.965.535 1.617.887.883.461 2.063.852 2.688.922.621.066 1.301.359 1.461.613.199.32-.957.164-2.457-.273-1.555-.45-2.676-.586-2.508-.235.137.344.625.696 1.187.914 1.047.368 1 .512-.136.657-.313.043-.465.062-.774.105.64.59.961.891 1.602 1.484.641.59.961.891 1.605 1.481-.394-.238-.589-.363-.98-.602-1.598-.996-3.121-2.211-3.485-2.769-.78-1.172-3.035-2.031-3.687-1.453-.266.211-.395.316-.656.515.777.793 1.168 1.184 1.949 1.969zm9.199 9.293c3.043 2.246 6.192 3.621 5.082 2.234-.922-1.132-3.074-2.464-2.644-1.679.273.457-.078.242-.914-.5-.711-.657-1.172-.996-1.012-.758.168.234-.031.121-.399-.234-.429-.422-1.203-.786-1.738-.844-.394-.055-.59-.078-.976-.133 1.035.766 1.558 1.148 2.601 1.914zm.309-1.461c.32.391.836.746 1.156.859.484.168.43.059-.219-.531-1.07-.969-1.683-1.176-.937-.328zm7.012 2.602c.226-.36.878-.508 1.472-.325 1.055.317 1.055.321 1.043 1.106.008.641.156.93.715 1.441 1.121.977 1.383.969 1.055-.164-.215-.758-.004-.894 1.086-.379.839.399 1.23.407.953-.027-.719-1.125-2.352-2.246-3.535-2.492-.618-.078-2.332-.832-3.844-1.688-1.985-1.097-2.676-1.312-2.785-1.007-.063.468-.024.527.656.792.527.165.691.317.668.649-.02.234-.367.172-.746-.145-.453-.386-1.035-.664-1.379-.73a4.619 4.619 0 0 1-1.176-.199c-.258-.063-.387-.098-.641-.16.622.613.93.925 1.551 1.543 1.274 1.265 1.84 1.64 3.039 1.992.782.215 1.633.105 1.868-.207zm.503 3.586c.34.16.383.039.157-.176-.207-.207-.496-.352-.563-.238-.097.101.102.304.406.414zm2.864 1.011c.953.313 1.328.243.976-.152-.281-.332-1.191-.859-1.972-1.113-.754-.246-1.161-.153-.961.144.238.36 1.093.832 1.957 1.121zm.5 1.082c.769.446 1.453.813 1.578.899.082.023.273-.047.379-.242.156-.231-.321-.481-1.582-.895-1.582-.48-1.621-.453-.375.238zm3.621-9.082c.488.508.547.684.183.598-.754-.188.079 1.004 1.047 1.465 1.594.726 3.074 1.14 3.309.922.219-.114.031-.383-.828-1.203-1.063-.977-1.074-1.036-.414-1.219.882-.305-.352-2.129-1.621-2.414-.493-.11-1.122-.539-1.422-.949-.332-.477-.742-.391-1.078.316-.329.543-.856 1.078-1.188 1.16-.332.082-.351.465-.066.809.332.41.679.441.922.175.265-.32.668-.167 1.156.34zm-.317 4.731c.528.148.383-.207-.39-.887-.27-.23-.391-.16-.274.184.114.289.43.636.664.703zm2.536 2.047c.398-.563.519-.532 1.035.285.433.691.59.785.722.402.262-.605 1.004-.457.926.25-.058.356.387.637 1.473.922 1.293.344 1.484.231.941-.82-.793-1.543-2.113-2.688-3.472-3.035-.786-.2-.817-.051-.157.82.7.926.586.953-.746.332-.961-.469-1.515-.566-1.359-.16.109.293-.106.484-.488.379-.383-.106-.594.09-.489.375.293.797 1.063.918 1.614.25zm-.461 2.093c.058-.378-.02-.5-.457-.628-.258-.079-.383.132-.27.414.285.726.66.839.727.214zm1.832 3.536c.316.48.824.738 1.586.726a35.7 35.7 0 0 0 2.117.102c1.066.066 1.621-.692 1.078-1.563-.43-.683-1.828-1.015-1.563-.332.145.344-.765.285-1.871.012-1.453-.379-1.777-.383-1.015.137 1.011.699.98.691.152.484-.484-.098-.719.074-.484.434zm6.886-4.903c.434-1.281-1.519-2.511-2.664-1.742-.199.109-.297.16-.496.27.477.355.719.535 1.196.894 1.527 1.141 1.71 1.184 1.964.578zm-.605 2.684c.281.34.754.57 1.008.472.261-.042 1.379-.082 2.496-.035 1.152.059 2.148-.32 2.304-.847.215-.86.817-.762 5.18.359 3.555.957 5.117 1.121 5.36.621l.296-.668c-.41-.269-.617-.406-1.019-.676-.617-.414-3.961-1.199-7.43-1.898-4.926-.938-6.144-1.074-6.004-.426.117.481.282.856.438.891.156.039.269.457.265.898-.039.438-.609.688-1.289.52-1.64-.399-2.285-.028-1.605.789zm.332 3.222c.234.372.695.606 1.086.508.39-.05 1.066-.019 1.461.082.547.145.578-.054.07-.715-.547-.722-.5-.976.219-.957.957.086.887.016-.469-.382-.812-.262-1.461-.325-1.43-.106.032.223-.086.403-.23.418-.672-.019-1.059.594-.707 1.152zm.594 2.485c.414.121.484.043.191-.192-.289-.179-.644-.289-.742-.214-.094.121.137.289.551.406zm5.742-4.184c.098.02.101-.203-.027-.566-.098-.305-.348-.641-.508-.68-.192-.039-.157.25.031.57.23.387.441.661.504.676zm-.145 1.067c.243.773.957.949 1.094.261.07-.425-.035-.562-.598-.695-.378-.086-.593.137-.496.434zm-2.027 4.39c.332.446.887.91 1.328 1.133.438.219.875.598.938.817.183.453.742.765 2.554 1.367.614.218 2.211-.172 3.078-.746.172-.067.524-.192.829-.172.265-.039.746-.137.968-.356.348-.191.543-.09.684.379.176.531.996.844 3.183 1.293 1.618.32 3.204.836 3.438 1.055.449.488-1.219.301-4.227-.528-1.203-.335-1.41-.281-.804.243.742.668.812.789.34.675-.278-.07-.813-.468-1.157-.871-.703-.875-2.343-.847-2.871-.047-.543.696.192 1.356 2.305 2.012 1.023.321 2.449.895 3.133 1.328.715.446 1.679.692 2.258.618.605-.067 1.367.175 1.933.632.567.461 2.524 1.36 4.383 1.953 4.98 1.602 14.453 4.723 19.715 2.625-.262-.347-1.699-1.003-3.215-1.433-1.543-.492-2.742-1.117-2.641-1.348.106-.222-.625-.707-1.699-1.191-1.043-.418-2.949-1.352-4.223-2.055-2.785-1.57-6.601-3.285-8.125-3.633-1.187-.289-1.753-1.336-.597-1.117.695.067.699.067-.426-.973-.648-.601-1.758-1.218-2.453-1.351-.695-.133-1.399-.508-1.578-.836-.176-.332-.758-.859-1.301-1.195-.977-.606-1.016-.668-.301-.953.996-.473.196-.606-7.004-2.266-5.883-1.328-7.343-1.207-3.859.426 1.297.574 1.535.797 1.293 1.136-.227.231.379.485 1.582.579 1.035.062 1.812.281 1.699.429-.117.086-.023.449.184.723.246.281-.16.301-.832.098-1.477-.446-1.688-.11-.672.792.508.45.359.469-.391.075-3.48-1.805-4.578-2.188-5.39-1.957-1.27.379-1.258.797.156 1.636.93.5.812.528-.418.149-1.813-.528-2.594-.18-1.797.855zm58.094 19.883c.769.102 1.234-.098 1.043-.391-.364-.582-2.754-.64-2.567-.085.051.136.723.363 1.524.476zm33.883-51.523c-1.723.187-2.895.609-2.555.777.89.563.933 1.785.086 1.762-.633-.02-.594.215-.008 1.148.641 1.012.527 1.156-.754 1.117-1.637-.054-1.141 1.106.824 1.93.836.328 1.371.117 1.782-.707.316-.832.871-1.043 1.41-.652.445.32 2.05.742 3.55.925 1.504.262 2.856.743 2.946 1.122.133.386.347.695.476.695.582.008 3.965-3.445 3.844-3.844-.973-3.207-7.965-4.672-11.601-4.273zm-12.387-36.313c.855.903 2.105 1.738 2.836 1.836 1.039.102 1.011.262-.41.711-.914.383-1.871.441-2.094.273-.293-.246-.422-.089-.363.309.062.406.66.981 1.304 1.242.977.422 1.059.664.66 1.692-.386 1.113-.257 1.277.848 1.3.707.02 1.445.594 1.738 1.239.246.644.227 1.203-.027 1.199-.297-.008-.414.547-.324 1.184.129.878-.242 1.031-1.446.601-1.445-.433-1.531-.355-.871 1.641.633 2.16.032 2.929-.8 1.09-.286-.567-.231-.247.019.707.34 1.195.258 1.586-.273 1.254-.539-.325-.442.23.519 2.3.664 1.438 1.465 2.871 1.805 3.196.336.324 1.281.664 2.043.687 1.277-.043 1.32-.121.457-1.086-1.473-1.531-1.324-1.762.605-1.398 1.942.441 2.137-.657.477-3.063-.867-1.285-.895-1.445-.023-1.898.507-.227.976-1.168 1.015-1.961.039-.793.469-1.738.938-1.965.476-.23 1.043-1.336 1.273-2.371.219-1.117.836-1.984 1.352-1.977 1.347.024 1.632-1.656.449-2.879-.59-.574-.945-1.382-.789-1.867.097-.476-.117-.965-.485-.976a27.084 27.084 0 0 0-2.304-.36c-.864-.175-2.949-.543-4.594-.82-1.652-.281-3.414-.723-4.027-1.062-.828-.34-.68-.098.492 1.222zm-.309 20.727c.227.472.656.801.895.812.281.008.273-.304.054-.781-.21-.402-.66-.809-.894-.813-.285-.007-.266.383-.055.782zm-6.894-13.969c-.297.23-.43 1.098-.266 1.977.199 1.039.621 1.527 1.449 1.558.629.02 1.36.602 1.668 1.246.684 1.684 4.367 1.797 4.524.059.031-.715-.262-1.598-.657-1.93-.402-.328-.664-1.051-.546-1.527.312-1.422-1.231-3.863-2.762-4.391-.848-.265-2.063-.699-2.82-1.047-.735-.261-1.602-.125-1.922.262-.512.703-.414.945.629 2.098.863.98 1.05 1.465.703 1.695zm38.519 74.902c.348-.382.664-.39.629-.093a5.81 5.81 0 0 0 .027 1.175c.094.801 1.918.524 2.188-.367.156-.445.512-.609.828-.398.274.211.633.051.754-.25.078-.371.879-.907 1.676-1.157.84-.32 2.453-1.117 3.562-1.902 1.149-.715 2.262-1.207 2.457-1.07.274.137.282-.09.028-.52-.614-1.23-4.446-1.222-4.035-.05.257.878-1.11 2.332-2.192 2.371-.402.011-1.078-.629-1.473-1.438-.402-.797-.972-1.441-1.257-1.433-.289.011-.7-.571-.911-1.235-.378-1.105-.566-1.094-2.386.074-1.172.703-1.637 1.309-1.149 1.371.571.059.453.282-.386.598-1.075.551-.981.625 1.046 1.164 1.782.469 2.02.68 1.223 1.074-.551.239-1.469.192-2.039-.164-1.187-.785-4.066.004-3.687 1.106.183.367 0 .664-.317.672-.312 0-.683.375-.777.742-.254.961 5.191.715 6.191-.27zm6.629 2.051c1.633-.207 3.07-.191 3.184-.051.242.575 5.414-.343 5.812-1.023.489-.762-4.336-2.27-5.344-1.637-.406.238-1.875.668-3.296.938-3.801.8-4.059 2.125-.356 1.773zm45.844-5.551c.816-.05 1.219-.074 2.027-.125-.754-.254-1.133-.382-1.902-.644-1.922-.711-2.301-.68-2.234.34.039.265.957.5 2.109.429zm7.379-29.429c.195-.825-1.238-1.504-1.848-.938-.254.242-.414.77-.375 1.133.117.867 2.012.699 2.223-.195zm.812 7.078c.43-.043.883.554 1.063 1.32.137.766.535 1.363.844 1.328.3-.035.433.446.277 1.024-.156.586-.027 1.062.348 1.015.339-.039.914.672 1.324 1.524.793 1.785 4.73 3.179 8.054 2.824 1.09-.098 2.278-.012 2.68.195.985.582 3.586.215 3.856-.558.121-.352-.957-.766-2.414-.942-4.692-.672-6.743-1.25-6.766-1.863-.008-.348-.285-.586-.656-.539-.996.133-4.196-4.449-3.871-5.621.136-.512 1.07-1.61 2.101-2.512.735-.652 1.102-.976 1.832-1.633-.867.071-1.301.102-2.18.172-1.246.137-2.515.629-2.98 1.25-.391.473-1.266 1.063-1.91 1.207-1.309.203-2.84 1.938-1.602 1.809zm2.043 20.476c.629-.093.707-.242.457-.734-.39-.805-.781-.75-1.054.156-.125.418.144.645.597.578zm3.192.164c1.007-.16 1.797-.488 1.726-.671-.097-.704-2.676-.497-3.101.226-.274.441.3.617 1.375.445zm3.414-.566c.39.195.98.352 1.351.289.547-.098.563-.23.02-.523-.387-.192-.981-.348-1.356-.282-.55.086-.562.223-.015.516zm33.394-9c.289.223.356.488.172.539-.187.102-.207.512.02.856.613 1.21 4.933-.45 5.422-1.985.128-.371.828-.848 1.582-1.172 1.152-.492 1.425-.73 1.949-1.89.558-1.219.449-1.239-2.184-.246-3.031 1.101-4.461 2.043-4.203 2.722.125.196-.582.5-1.547.637-1.25.148-1.594.293-1.211.539zm10.645-5.473c.406 1.071 1.746 1.446 1.98.493.035-.227.637-.625 1.321-.879 1.128-.383 1.933-1.008 1.921-1.496 0-.114-1.253.031-2.804.304-1.125.184-1.692.27-2.832.442.164.457.246.683.414 1.136zM376.012 956c.074-.305-.055-.543-.278-.48-.23.07-.562.445-.718.773-.192.391-.063.574.285.477.312-.09.609-.403.711-.77zm28.121-11.449c.574-.711-.266-.457-1.367.472-.543.411-.719.672-.684.942.023.414 1.234-.418 2.051-1.414zm-7.266 7.297c.211.054.528-.032.746-.262.157-.156 1.391-.856 2.641-1.484 2.18-1.071 2.773-1.524 2.937-2.172.098-.539-4.175.8-5.168 1.668-1.14.98-1.683 2.05-1.156 2.25zm7.965-4.438c.164-.074.414-.219.695-.39.383-.395.762-.79 1.145-1.188-.684.328-1.488.82-1.871 1.199-.582.571-.582.657.031.379zm30.727-57.344c-.11.387-.079.61.039.579.277-.086.41-.536.25-.895-.078-.156-.188-.07-.289.316zm1.238-16.25c-.215.043-.379-.367-.34-.945.074-.848-.098-.879-.648-.324-.813.859-1.68 1.027-1.629.305.015-.266.164-.485.316-.516.25-.043.324-.254.356-.84.031-.652-.079-.633-.547.231-.637 1.152-.973 3.414-.504 3.324.336-.067-.012 1.414-.91 3.765-.715 1.868-.481 1.75 1.179-.691.528-.742 1.223-1.52 1.528-1.652 1.039-.532 2.058-2.828 1.199-2.657zm2.937-15.785c.649-2.129.782-3.34.227-2.277-.32.641-.434.586-.418-.078-.016-.457-.41-.809-.914-.746-.68.082-.863-.231-.672-1.258.281-1.711-.348-1.711-.867-.039-.254.84-.535 1.203-.938 1.254-.496.054-.496-.082.047-1.02.688-1.16 1.008-2.746.418-2.008-.211.231-.406-.023-.433-.629-.059-1.015-.11-1.011-.579-.015-.355.785-.394 1.332-.125 1.715.485.761.297 1.32-.425 1.261-.313-.031-.465-.355-.348-.707.117-.351.02-.476-.242-.25-.703.621-.586-.214.18-1.242.601-.742.695-1.023.996-3.027.433-2.91-.235-3-1.004-.051-.41 1.613-.578 1.973-.735 1.641-.363-.512-.703.824-.574 2.32.199 3.063.785 4.273 1.945 4.137 1.184-.145 1.278.453.563 3.941-.176.828-.125.817.238-.226.41-1.125.461-1.129.735-.239.41 1.203.093 4.075-.629 6.09-.899 2.5-1.11 3.645-.578 3.16.347-.316.363-.187.074.313-.27.504-.422.855-.352.84.067-.008.699-1.161 1.375-2.508 1.16-2.344 1.258-2.617 1.52-4.356.238-1.672.48-2.558 1.515-5.996zm.789-54.789c-.543.785-.914 1.106-.796.633.125-.473.027-.621-.243-.293-.254.254-.718.504-1.011.481-.348-.02-.633.375-.801 1.125-.145.683-.317 1.027-.399.812-.085-.215-.5.453-.949 1.547-.531 1.301-.719 1.996-.562 2.144.129.145.047.981-.196 1.883-.238.899-.492 2.156-.566 2.715-.078.703.156 1.063.66 1.004.66-.125.86-.469 1.352-2.195.312-1.176.539-2.629.488-3.254-.18-1.891.965-4.539 2.102-4.942.644-.234 1.132-.824 1.445-1.757.508-1.403.484-1.407-.524.097zm1.055-2.996c-.277.184-.543.5-.574.637-.133.535.422.308.734-.348.176-.394.094-.472-.16-.289zm.863 1.027c.555.047.907-.949 1.301-3.808.18-1.399.156-1.402-.394-.375-.457.828-.567 1.293-.446 1.644.114.282.004.746-.402 1.454-.531.91-.512 1.05-.059 1.085zm-4.628-47.378c1.164.128.949-.762-.262-1.079-.512-.136-.891.004-.797.391.078.316.578.684 1.059.688zm4.753 42.23c-.093.938-.015.945.532.055.351-.504.574-1.149.535-1.422-.039-.274-.235-.098-.391.359-.168.391-.379.633-.461.422-.066-.277-.168.051-.215.586zm-.308-2.266c-.422.563-.485.965-.481 2.391.032 1.766.028 1.77-.351.918-.34-.789-.422-.66-.781.809-.301 1.269-.262 1.546.191 1.32.746-.348 1.23-1.598 1.617-4.133.27-1.59.223-1.863-.195-1.305zm-4.231 9.274c-.066.269.106.351.368.16.285-.254.675-1.055.875-1.863.32-1.422.328-1.426-.368-.168-.394.73-.785 1.531-.875 1.871zm.594-6.309c.137.016.078-1.23-.172-2.769-.527-3.418-.922-3.188-.422.234.176 1.395.43 2.52.594 2.535zm-6.289 29.078.012-1.488c-.293.594-.438.891-.731 1.492-.578 1.137-.777 1.918-.957 3.555-.09 1.137-.074 2.203.055 2.414.125.207.281.418.336.414.203.137 1.25-5.043 1.285-6.387zm-1.652 60.145c.136-.344.765-1.426 1.383-2.383.957-1.465 1.058-1.672.546-1.184-.328.321-.605.258-.601-.117 0-.566-.371.344-2.449 5.692-1.387 3.566-2.789 6.793-3.102 7.3-.59.942-1.797 4.293-1.504 4.215.113-.031-.031.489-.316 1.164-.328.809-.149.579.672-.843.609-1.063 1.187-2.243 1.265-2.563.153-.644 2.489-5.387 3.242-6.558.731-1.161.918-1.821.457-1.707-.394.097-.164-1.575.407-3.016zm0-131.094c-.192.145-.055.36.269.43.34.137.473-.012.309-.238-.133-.215-.418-.336-.578-.192zm-3.735 8.41c-.023.313.176.664.43.707.566.11.574-.269.004-.949-.199-.223-.395-.133-.434.242zm-1.879 2.465c.512.797.731.508.735-1.082-.004-.894-.102-1.613-.227-1.637-.386-.07-.789 2.289-.508 2.719zm.711-10.566c.289-.567 1.078-.649 2.399-.242 1.504.449 1.879.285 1.933-.442-.004-.613.528-1.109 1.246-1.125.668-.086 1.137-.402 1.059-.726-.156-.645-3.519-1.008-5.07-.551-.598.176-1.66.316-2.309.371-1.539.109-2.535 1.172-2.07 2.336.43 1.156 2.269 1.394 2.812.379zm-8.398 20.824c-.856 2.254-2.695 4.512-2.789 4.937-.098.43.129.598.508.415.379-.18.972-.336 1.367-.297.363.039 2.59-1.641 3.34-3.559.754-1.918 1.5-3.469 1.707-3.441.203.027.578-.45.867-1.004.242-.617.742-1.598 1.078-2.196.324-.668.402-1.57.191-2.121-.21-.55.016-2.004.512-3.531.836-2.488.836-2.73 0-5.617-.683-2.356-1.019-3.109-1.574-3.344-.934-.375-3.035 5.203-3.047 8.137-.008 1.238-.226 3.101-.484 4.187-.27 1.012-.414 2.188-.336 2.594.082.406-.489 2.586-1.34 4.84zm-.387-5.871c-.105-.016-.215.301-.258.629-.023.398.098.683.278.703.215.027.343-.219.261-.633-.066-.34-.207-.691-.281-.699zm.672-4.207c.168-.168.199-.692.125-1.035-.082-.403-.238-.493-.41-.321-.133.176-.195.692-.125 1.032.086.41.277.5.41.324zm15.742-13.645c-.078-.32-.273-.672-.445-.715-.141-.035-.207.254-.129.579.094.382.305.675.445.711.172.042.219-.184.129-.575zm1.321 10.61c-.579-.68-.743-.649-.805-.051-.016.555-.524.758-1.391.519-.742-.152-1.301-.074-1.23.25.058.262-.215.457-.641.375-.605-.117-.73.235-.543 1.84.145 1.098.086 2.094-.058 2.262-.395.242-.032 3.992.535 5.551.258.742.605.984 1.34.851.757-.199 1.004.039 1.16.883.121.652.691 1.567 1.34 2.176.582.535 1.519 1.816 2.046 2.773.2.985.485 1.844.68 1.871.199.032.477 1.157.613 2.473.27 2.688.567 2.992 1.532 1.43.39-.625 1.004-1.41 1.371-1.832.609-.649.621-.707.222-.77-.253-.109-.371-.594-.257-1.113.105-.52.019-1.004-.227-1.043-.211-.031-.199-.313-.184-.676.032-.308-.078-.637-.214-.656-.161-.027-.219-1.152-.172-2.5.078-1.344.222-2.422.351-2.391.516.09-.004-1.168-.609-1.465-.453-.21-.781-.828-1.051-1.925-.222-.903-.769-2.176-1.176-2.875-.433-.703-.765-1.508-.746-1.813.067-.844-.988-3.152-1.886-4.144zm.328-10.68c-.278-.074-.778-.375-1.149-.715-.492-.48-.558-.437-.301.289.211.539.575.93.825.871.218-.062.406.16.402.465.008.36.18.52.473.414.586-.273.375-1.226-.25-1.324zm.875-1.094c.328.082.601-.14.586-.504.023-1.121-.43-1.425-.817-.511l-.351.863c.23.058.347.09.582.152zm7.207 3.735c-.149-.336-.449-.711-.621-.762-.176-.047-.922-.902-1.649-1.934-1.554-2.136-1.66-2.23-1.347-.961.187.758 1.367 2.262 2.785 3.598.769.742 1.133.73.832.059zm2.289 20.086c-.602-.965-1.02-1.239-2.36-1.274-1.32.031-1.679-.152-1.976-1.066-.223-.657-.277-1.578-.16-2.16.211-.985.3-1.024 1.09-.071.488.59 1.097 1.082 1.375 1.141.394.023.253-.242-.665-1.527-.464-.629-.703-.95-1.175-1.583 0-.773.004-1.156 0-1.925 0-1.082.043-2.27.078-2.68.097-.816-.324-2.945-.582-3.008-.391-.097-.297.762.14 1.645.582 1.101.196 1.125-.445.011-.316-.55-.457-.41-.492.606-.004.777.055 1.754.117 2.07.086.379.016.668-.086.762-.148.027-.57-1.273-.996-2.883-.469-1.797-.988-3.187-1.25-3.43-.355-.328-.324.043.156 1.606.407 1.363.555 2.305.41 2.816-.207.864.825 5.227 1.383 5.95.168.218.438 1.062.586 1.824.281 1.457 1.86 4.136 2.133 3.586.434-.766 2.09-.481 2.68.418.91 1.382.953.679.039-.828zm.031-24.649c.039.067 0-.172-.094-.547-.078-.312-.39-.699-.664-.73-.527-.164-.508-.102.067.543.343.39.644.718.691.734zm-.168 15.121c-.195-.051-.375.199-.387.492 0 .356.203.641.469.707.293.075.461-.121.387-.492-.063-.312-.274-.66-.469-.707zm-.859 27.481c.136.953.316 1.707.414 1.722.23.094 1.847-4.879 1.844-5.668 0-.332-.231-.429-.465-.269-.383.273-.375.012-.012-.985.352-1.07.348-1.398.012-1.453-.66-.101-1.168.606-1.637 2.403-.356 1.281-.566 1.519-1.031 1.261-.336-.113-.59-.617-.594-1.086-.023-.472-.133-.355-.289.364-.133.586.019 1.547.297 2.187.312.574.613.746.683.418.219-.976.504-.605.778 1.106zm3.293-34.094c.004-.168-.176-.688-.403-1.098-.261-.484-.394-.582-.308-.211.086.371.265.891.402 1.106.125.262.277.371.309.203zm.023 9c.727.191 1.035-.02 1-.609-.055-.715-.172-.86-.605-.625-.297.152-.743.152-.973.035-.234-.059-.434.062-.43.414-.031.289.422.633 1.008.785zm.5 9.523c.223.75.281.707.258-.246-.012-.707.062-.808.144-.32.11.496.196.75.235.578.074-.219-1.363-4.894-1.508-4.93-.117-.023.613 4.032.871 4.918zm1.82-3.172c.258.125.36-.027.239-.234-.102-.195-.313-.305-.442-.16-.148.137-.047.336.203.394zm15.598-9.992c.117-.105.129-.41.051-.605-.074-.192-.16-.074-.192.277-.027.512-.003.574.141.328zm-221.66 264.482C109.246 1028.72 0 919.48 0 784.719c0-134.754 109.246-243.996 244.004-243.996 134.762 0 244.004 109.242 244.004 243.996 0 134.761-109.242 244.001-244.004 244.001" transform="matrix(.13333 0 0 -.13333 0 173.227)"/><path style="fill:#fff;fill-opacity:1;fill-rule:nonzero;stroke:none" d="M386.715 901.219c.305-.821.484-1.059.363-.473-.094.508-.379 1.188-.558 1.422-.211.312-.141-.125.195-.949M391.676 946.73c.054-.011-.059.29-.219.606-.191.383-.449.684-.605.734-.133.043-.055-.195.218-.601.239-.348.528-.711.606-.739M377.801 901.355c-.18.02-.211-.269-.051-.722.133-.379.512-.789.832-.824.281-.036.285.328.047.722-.262.465-.621.797-.828.824M295.613 765.344c-.211.246-.816-.102-1.367-.86-.555-.754-.887-1.504-.672-1.664.207-.238.813.102 1.367.86.547.754.879 1.504.672 1.664M309.777 872.957c-.601.02-.722-.223-.25-.484.426-.258.903-.196 1.028.05.175.239-.192.493-.778.434M321.027 928.699c-.117.465-.285.781-.367.785-.133.012-.262-.281-.277-.734-.031-.379.152-.773.363-.789.262-.023.379.348.281.738M290.617 873.625c.223-.414.563-.84.738-.844.118-.004.184.407.141.821-.058.5-.387.836-.738.843-.293.012-.371-.316-.141-.82M328.68 874.863c.109.399-.207.731-.657.75-.503.02-.875.602-.957 1.496-.074.809.274 1.278.856 1.094.531-.187 1.211-.137 1.551.09.476.305.312.793-.821 2.207-1.269 1.59-1.574 1.68-2.246.906-.687-.933-.754-.851-.828.684-.058.965-.312 1.699-.562 1.711-.243.012-1.508 1.355-2.817 2.941-1.328 1.668-2.023 2.906-1.625 2.887.395-.02.887.437 1.043 1.066.211.633.758 1.004 1.231.821.957-.207 1.343.89.918 2.824-.547 2.496-3.59 2.504-6.414.086-3.118-2.727-3.661-4.164-2.164-6.727.593-.992 1.167-2.144 1.23-2.472.059-.325 1.215-2.153 2.656-4.071l2.543-3.422c-.164-1.027-.25-1.543-.414-2.578-.234-1.453-.207-3.242.102-4.07 1.109-2.805 6.906-5.363 8.941-3.977.801.539-.07 5.59-1.039 6.438-.371.34-.594.914-.527 1.316M314.371 871.25c-.105.004.043-.578.324-1.242.325-.664.805-1.25 1.075-1.258.324-.012.183.48-.325 1.234-.492.672-.965 1.258-1.074 1.266M280.016 880.52c-1.129.031-2.235-.266-2.379-.762-.199-.488.547-.832 1.804-.867 1.133-.036 2.223.351 2.368.757.187.489-.547.84-1.793.872M312.297 918.164c.371.598.492 1.293.301 1.535-.141.246-.496-.199-.789-.961-.45-1.527.39-4.472 1.043-3.652.214.297.07.777-.391 1.195-.645.664-.656.977-.164 1.883M289.102 745.945c-.028-2.109.429-4.398 1.089-5.371.598-.816 1.215-2.308 1.446-3.207.226-.976.738-1.703 1.086-1.691.976.051.84.929-.684 3.762-.762 1.41-1.418 3.769-1.484 5.242-.266 4.566-1.383 5.636-1.453 1.265M281.191 934.457c1.848.152 1.575 1.871-.476 3.277-2.16 1.485-2.199 1.485-2.469.411-.379-1.301 1.613-3.79 2.945-3.688M338.02 890.688c-.7.984-.817 1.468-.606 2.398.238 1.008.063 1.176-1.008 1.164-2.07.051-3.562-2.625-2.941-5.437.398-1.692.832-2.11 3.457-2.887 1.492-.477 1.976-.43 1.59.23-.258.489-.313 1.442-.059 2.059.336 1.008.238 1.562-.433 2.473M288.082 936.77c.141.304-.262 1.48-.883 2.589-.664 1.11-1.133 1.512-1.047.899.078-.543-.156-.84-.613-.508-1.254.75-.687-.738.824-2.277.754-.731 1.543-1.078 1.719-.703M293.426 928.977c-.067.398-.602 1.125-1.199 1.617-.848.668-1.039.679-.825-.114.512-1.808 2.282-3.148 2.024-1.503M297.926 890.09c-1.422.949-2.582 1.965-2.637 2.371-.043.324.27.394.734.137.688-.352 1.477 1.965.891 2.718-.125.164.309.797.969 1.332.457.434.687.649 1.14 1.086-.527.02-.785.028-1.312.051-.738.031-1.742-.254-2.27-.637-.539-.304-1.925-1.054-3.101-1.5-1.926-.902-2.086-1.058-1.09-2.07.563-.586 1.633-.871 2.305-.648.879.293 1.172.121.988-.524-.152-.48-.746-.863-1.348-.843-.601.015-1.539-.352-2.043-.743-.742-.625-1.269-.445-2.238.809-1.23 1.586-1.246 1.75-.449 2.449.683.711.512.797-.93.926-.992.035-1.863.469-1.91.879-.262 2.441-3.777-.363-4.281-3.442-.153-.812-.449-1.289-.707-.957-.645.832-2.504-6.636-2.035-8.043.894-2.414 6.171-3.136 9.164-1.171 2.148 1.328 4.121 1.179 7.019-.547 2.656-1.563 8.996-2.344 10.227-1.246 2.988 3.824-4.535 7.886-7.086 9.613M980.422 275.801v717.66h219.518v-717.66H980.422M1089.03 1294.63c57.76 0 103.97-46.21 103.97-102.81 0-56.61-46.21-102.83-103.97-102.83-55.46 0-101.675 46.22-101.675 102.83 0 56.6 46.215 102.81 101.675 102.81" transform="matrix(.13333 0 0 -.13333 0 173.227)"/><path style="fill:#c0d0e0;fill-opacity:1;fill-rule:nonzero;stroke:none" d="M7150.54 693.695h-413.51V275.98h-199.05v1023.26h199.05V887.133h413.51v412.107h197.64V275.98h-197.64v417.715M7701.4 1115.61V461.016h123.35c51.38 0 98.34 8.406 140.88 25.222 42.51 16.828 78.48 39.953 107.92 69.395 29.44 29.43 52.34 63.996 68.7 103.722 16.32 39.708 24.51 82.461 24.51 128.254 0 46.719-7.7 90.172-23.13 130.364-15.4 40.164-37.84 74.988-67.26 104.417-29.44 29.45-65.67 52.34-108.63 68.69-43.01 16.35-92.53 24.53-148.59 24.53zm-199.05 183.63h330.81c81.3 0 154.89-13.1 220.77-39.25 65.88-26.17 121.96-62.16 168.21-107.93 46.25-45.8 81.99-99.76 107.23-161.9 25.24-62.16 37.84-129.66 37.84-202.551 0-72.89-13.31-140.648-39.93-203.25-26.65-62.613-63.58-116.586-110.75-161.898-47.19-45.332-103.02-81.074-167.51-107.227-64.47-26.175-135.04-39.254-211.66-39.254h-335.01v1023.26" transform="matrix(.13333 0 0 -.13333 0 173.227)"/></svg>