<svg width="320" height="67" style="clip-rule:evenodd;fill-rule:evenodd;image-rendering:optimizeQuality;shape-rendering:geometricPrecision;text-rendering:geometricPrecision" xmlns="http://www.w3.org/2000/svg"><g style="fill:#fff"><path style="opacity:1;fill:#fff" fill="#fff" d="M2.5-.5h24c17.497 7.681 22.997 20.681 16.5 39-4.32 7.654-10.82 12.154-19.5 13.5-6.992.5-13.992.666-21 .5v-12c7.008.166 14.008 0 21-.5 9.294-5.215 11.794-12.715 7.5-22.5a25.556 25.556 0 0 0-6.5-5.5 90.946 90.946 0 0 0-22-1.5v-11z" transform="translate(.5 .5)"/></g><g style="fill:#fff"><path style="opacity:1;fill:#fff" fill="#fff" d="M51.5-.5h7c4.474 5.24 3.474 8.906-3 11-6.286-1.696-7.62-5.362-4-11z" transform="translate(.5 .5)"/></g><g style="fill:#fff"><path style="opacity:1;fill:#fff" fill="#fff" d="M-.5 30.5v-10c7.083-9.75 14.916-10.417 23.5-2 3.956 8.563 1.79 15.063-6.5 19.5-7.725 1.798-13.392-.702-17-7.5zm15-13h5c2.21 5.216.876 6.716-4 4.5.97-1.204 1.97-1.704 3-1.5a14.73 14.73 0 0 0-5-1.5c.556-.383.89-.883 1-1.5zm-3 8c-2.442.38-3.109-.286-2-2 1.506-1.247 3.006-1.247 4.5 0 .215 2.626.048 4.96-.5 7a31.326 31.326 0 0 1-2-5zm-8 0c2.663 1.61 3.163 3.61 1.5 6a20.089 20.089 0 0 1-1.5-6z" transform="translate(.5 .5)"/></g><g style="fill:#fff"><path style="opacity:1;fill:#fff" fill="#fff" d="M74.5 13.5c6.706-1.093 12.54.574 17.5 5 1.411 2.15 2.245 4.484 2.5 7-2.502.25-5.002.583-7.5 1a31.93 31.93 0 0 1-7.5-4c-3.633.7-4.3 2.2-2 4.5a134 134 0 0 1 11 3c5.677 3.636 7.51 8.803 5.5 15.5-3.121 5.646-7.955 8.313-14.5 8-8.96.033-14.294-4.3-16-13a41.278 41.278 0 0 0 8-1 451.876 451.876 0 0 1 8 5c4.652-1.406 4.986-3.24 1-5.5-13.768-1.074-18.268-7.907-13.5-20.5 2.17-2.323 4.67-3.99 7.5-5z" transform="translate(.5 .5)"/></g><g style="fill:#fff"><path style="opacity:1;fill:#fff" fill="#fff" d="M110.5 13.5c8.434-1.355 15.601.979 21.5 7 1.411 2.15 2.245 4.484 2.5 7-3.596.7-7.096 1.7-10.5 3-2.452-5.317-6.285-6.817-11.5-4.5-4.936 4.344-5.269 9.01-1 14 5.58 2.779 10.08 1.612 13.5-3.5 3.611.75 6.777 2.25 9.5 4.5-3.363 7.856-9.363 12.023-18 12.5-14.899-1.736-21.399-10.07-19.5-25 1.914-7.41 6.414-12.41 13.5-15z" transform="translate(.5 .5)"/></g><g style="fill:#fff"><path style="opacity:1;fill:#fff" fill="#fff" d="M149.5 13.5c20.023-.929 28.189 8.405 24.5 28-5.881 10.688-14.714 14.188-26.5 10.5-10.744-5.889-14.244-14.722-10.5-26.5 2.769-5.605 6.936-9.605 12.5-12zm4 11c8.644 1.08 11.478 5.746 8.5 14-2.559 2.85-5.726 3.683-9.5 2.5-6.671-5.848-6.338-11.348 1-16.5z" transform="translate(.5 .5)"/></g><g style="fill:#fff"><path style="opacity:1;fill:#fff" fill="#fff" d="M225.5 13.5c16.821-1.512 24.821 6.155 24 23-8.673-.166-17.34 0-26 .5 2.289 4.644 5.956 6.31 11 5a36.37 36.37 0 0 1 5.5-3.5c9.122.239 10.622 3.572 4.5 10-7.941 6.031-16.274 6.531-25 1.5-9.136-9.221-10.302-19.388-3.5-30.5 2.843-2.663 6.009-4.663 9.5-6zm2 10c4.616-1.057 7.949.443 10 4.5-4.371.828-8.705.66-13-.5a512.469 512.469 0 0 0 3-4z" transform="translate(.5 .5)"/></g><g style="fill:#fff"><path style="opacity:1;fill:#fff" fill="#fff" d="M49.5 14.5h12v38h-12v-38z" transform="translate(.5 .5)"/></g><path style="opacity:1;fill:#fff" fill="#fff" d="M172.5 14.5h14a157.564 157.564 0 0 0 7.5 21 354.257 354.257 0 0 1 7-20c4.066-.964 8.233-1.297 12.5-1a54133.497 54133.497 0 0 1-13 38 43.123 43.123 0 0 1-13-1 1275.268 1275.268 0 0 1-15-37z" transform="translate(.5 .5)"/><g style="fill:#fff"><path style="opacity:1;fill:#fff" fill="#fff" d="M252.5 14.5h12a4.934 4.934 0 0 0 .5 3c3.327-2.654 7.161-3.654 11.5-3v12a24.939 24.939 0 0 0-7 .5c-1.833.5-3 1.667-3.5 3.5a90.896 90.896 0 0 0-1.5 22h-12v-38z" transform="translate(.5 .5)"/></g><g style="fill:#fff"><path style="opacity:1;fill:#fff" fill="#fff" d="M319.5 14.5v3c-7.284 15.91-14.618 31.91-22 48-4.333 1.333-8.667 1.333-13 0a453.484 453.484 0 0 0 8-18.5 453.502 453.502 0 0 0-15-31.5c4.667-1.333 9.333-1.333 14 0l7.5 17a71 71 0 0 0 7.5-18h13z" transform="translate(.5 .5)"/></g></svg>