<svg height="208.535" width="472" xmlns="http://www.w3.org/2000/svg"><linearGradient id="b" gradientUnits="userSpaceOnUse" x1="488.625" x2="488.625" y1="-4.618" y2="419.713"><stop offset="0" stop-color="#1c65ae"/><stop offset=".5" stop-color="#219ed4"/><stop offset=".6" stop-color="#196ea7"/><stop offset="1" stop-color="#183975"/></linearGradient><linearGradient id="a" gradientUnits="userSpaceOnUse" x1="534.97" x2="534.97" y1="-7" y2="422.744"><stop offset="0" stop-color="#2c8ac8"/><stop offset="1" stop-color="#21375f"/></linearGradient><path d="M916.693 143.472c-37.224-13.462-64.907-4.914-85.455 13.84l-.028-.112-.518-1.153c-17.962-14.615-32.852-14.615-32.852-14.615-38.94-1.826-93.804 16.071-93.804 16.071s-20.401-34.952-43.235-32.21c-22.834 2.74-18.574 40.19-18.574 40.19-52.673-45.06-186.773-12.239-186.777-12.239.937-.343 1.85-.752 2.73-1.234 28.314-15.527 36.535-32.197 36.535-32.197 5.937 1.827 43.387-3.426 45.898-35.394 2.512-31.969-24.205-47.268-40.875-48.638-16.67-1.37-30.142 7.536-30.142 7.536-7.992-39.047-46.127-33.11-46.127-33.11-52.748 10.504-32.197 56.63-32.197 56.63-23.748 21.693-22.377 42.015-22.377 42.015C231.045-18.416 75.007 1.071 75.007 1.071 31.849 2.213-2.175 25.733.109 51.764c2.283 26.032 31.284 26.032 31.284 26.032 29.248 0 31.13-20.093 31.13-20.093 62.416-3.046 100.17 10.96 100.17 10.96-11.57 22.834-15.223 78.86-15.223 78.86s-94.385 17.048-90.731 62.715c3.653 45.67 89.515 88.907 89.515 88.907.304 8.526 9.798 36.23 33.795 36.23 23.996 0 29.39-14.615 29.39-14.615 16.08 5.42 47.474 3.654 47.474 3.654v18.806c2.56 44.686 48.268 46.016 48.268 46.016h477.707c3.654 6.4 20.056 29.719 39.316 29.719s23.935-24.328 24.24-31.944c.302-7.613 22-79.405 22-79.405l-.01-.157c.63-.176 1.26-.393 1.894-.58 49.38-14.557 90.672-48.8 90.672-96.487s-44.307-66.91-44.307-66.91z" fill="none" stroke="url(#a)" stroke-width="6" transform="matrix(.48604 0 0 .48604 2.458 2.448)"/><path d="M916.693 143.472c-37.224-13.462-64.907-4.914-85.455 13.84l-.028-.112-.518-1.153c-17.962-14.615-32.852-14.615-32.852-14.615-38.94-1.826-93.804 16.071-93.804 16.071s-20.401-34.952-43.235-32.21c-22.834 2.74-18.574 40.19-18.574 40.19-52.673-45.06-186.773-12.239-186.777-12.239.937-.343 1.85-.752 2.73-1.234 28.314-15.527 36.535-32.197 36.535-32.197 5.937 1.827 43.387-3.426 45.898-35.394 2.512-31.969-24.205-47.268-40.875-48.638-16.67-1.37-30.142 7.536-30.142 7.536-7.992-39.047-46.127-33.11-46.127-33.11-52.748 10.504-32.197 56.63-32.197 56.63-23.748 21.693-22.377 42.015-22.377 42.015C231.045-18.416 75.007 1.071 75.007 1.071 31.849 2.213-2.175 25.733.109 51.764c2.283 26.032 31.284 26.032 31.284 26.032 29.248 0 31.13-20.093 31.13-20.093 62.416-3.046 100.17 10.96 100.17 10.96-11.57 22.834-15.223 78.86-15.223 78.86s-94.385 17.048-90.731 62.715c3.653 45.67 89.515 88.907 89.515 88.907.304 8.526 9.798 36.23 33.795 36.23 23.996 0 29.39-14.615 29.39-14.615 16.08 5.42 47.474 3.654 47.474 3.654v18.806c2.56 44.686 48.268 46.016 48.268 46.016h477.707c3.654 6.4 20.056 29.719 39.316 29.719s23.935-24.328 24.24-31.944c.302-7.613 22-79.405 22-79.405l-.01-.157c.63-.176 1.26-.393 1.894-.58 49.38-14.557 90.672-48.8 90.672-96.487s-44.307-66.91-44.307-66.91z" fill="url(#b)" transform="matrix(.48604 0 0 .48604 2.458 2.448)"/><path d="M273.01 155.655c-1.651.007-2.906 1.144-3.02 2.765a187.595 187.595 0 0 0-.219 3.83c-.282 5.673-.686 11.343-.681 17.03 0 .2-.037.402-.089.944-.376-.372-.574-.524-.715-.71-.374-.496-.71-1.02-1.091-1.51a1326.898 1326.898 0 0 0-5.713-7.382c-1.721-2.206-3.432-4.424-5.206-6.595a17.64 17.64 0 0 0-2.296-2.322c-1.898-1.595-5.07-.139-5.12 1.933-.01.354-.135.708-.147 1.061-.09 2.302-.243 4.603-.228 6.905.037 5.53.154 11.054.246 16.582.01.56.035 1.129.139 1.68.183.984.805 1.646 1.78 1.994 1.12.401 2.1.102 2.94-.628.817-.714 1.255-1.61 1.22-2.72-.09-3.071-.144-6.14-.212-9.212-.049-2.097-.099-4.193-.132-6.292-.002-.231-.097-.516.254-.712.498.195.73.677 1.034 1.065 2.631 3.341 5.235 6.702 7.873 10.038a69.775 69.775 0 0 0 3.027 3.558c.518.57 1.113 1.116 1.772 1.525 1.739 1.074 3.866.646 5.078-.96.704-.919 1.218-1.93 1.324-3.084.132-1.426.256-2.852.307-4.283.152-4.452.24-8.901.42-13.351.094-2.3.33-4.592.495-6.889.038-.51.097-1.028.053-1.533-.133-1.56-1.488-2.733-3.094-2.727zM53.562 16.221c-17.946.52-32.376 2.729-35.613 6.187-2.823 3.133-6.445 5.641-6.517 9.833-.103 4.063 4.686 4.44 7.569 4.406 2.838 0 5.497-.25 5.458-1.984 0-2.323-3.87-1.834-3.87-4.255 0-2.731 14.843-3.349 22.24-3.349 63.484-.222 136.588 43.803 136.702 81.162.095 28.987-37.638 35.513-58.44 35.513-7.412.038-14.568-.728-21.37-2.06-.348-9.229-.877-28.584-1.11-40.858 2.398-.036 4.647-.097 6.548-.097 15.433-.028 35.676 5.433 35.693 9.021 0 3.087-5.395 5.245-5.395 8.186.046 2.2 4.993 1.755 9.241 2.11.789.089 9.494-4.807 9.48-12.518-.051-10.183-12.71-22.2-54.062-22.034h-1.81c-.378-11.456-2.03-29.435-8.582-29.423-5.354.03-6.92 19.877-7.375 30.732-23.205 3.573-43.814 12.993-43.778 22.305 0 7.613 16.612 26.757 43.42 38.409.479 8.64 2.1 14.548 9.769 14.505 5.56 0 7.416-4.08 7.998-8.373a111.642 111.642 0 0 0 28.072 3.497c38.911-.101 70.186-20.938 70.067-49.472-.09-38.303-77.195-93.299-144.335-91.443m-10.457 95.26c0-6.646 20.203-9.238 38.925-10.187-.114 10.474-.254 25.46-.223 35.538-23.029-8.128-38.702-21.044-38.702-25.35M338.31 180.12c-.672.014-1.346.134-2.015.242-2.677.428-5.34.934-8.026 1.288-1.855.246-3.737.308-5.608.421-.398.024-.808-.08-1.226-.125-.39-1.559-.863-3.013-.738-4.763 1.549-.09 2.949-.18 4.352-.25 3.021-.159 6.026-.45 9.016-.94.964-.158 1.778-.535 2.495-1.176.73-.65.941-1.461.752-2.367-.339-1.584-1.98-2.496-3.073-2.325-.616.097-1.233.206-1.856.255-3.689.294-7.377.576-11.068.855-.26.02-.526.019-.782.003-.35-.018-.589-.207-.66-.542-.143-.649-.311-1.294-.379-1.95-.071-.693-.222-1.404-.013-2.187.372-.044.72-.113 1.072-.123 3.39-.1 6.778-.167 10.166-.29 1.72-.06 3.435-.226 5.152-.326 1.098-.061 2.015-.49 2.775-1.246.71-.706.972-1.546.687-2.526-.417-1.437-1.65-2.379-3.262-2.37-.936.008-1.868.19-2.806.224-3.802.14-7.608.264-11.412.378-.988.03-1.984-.035-2.97.023-.83.049-1.662.157-2.473.338-1.057.234-1.862.836-2.456 1.756-.675 1.044-.87 2.15-.768 3.36.422 4.837.821 9.674 1.613 14.47.258 1.558.65 3.1 1.003 4.64.372 1.623 1.447 2.509 3.094 2.855 1.558.327 3.111.25 4.673.152 1.456-.091 2.914-.18 4.37-.264 1.98-.105 3.966-.148 5.939-.315 1.24-.104 2.472-.35 3.696-.586.99-.194 1.857-.676 2.642-1.29 1.048-.817 1.366-2.133.867-3.466-.444-1.184-1.418-1.863-2.773-1.834z" fill="#175773"/><path d="M53.562 11.679c-17.946.52-32.376 2.728-35.613 6.186-2.823 3.134-6.445 5.641-6.517 9.833-.103 4.064 4.686 4.44 7.569 4.407 2.838 0 5.497-.251 5.458-1.985 0-2.323-3.87-1.834-3.87-4.254 0-2.732 14.843-3.35 22.24-3.35 63.484-.222 136.588 43.804 136.702 81.163.095 28.986-37.638 35.513-58.44 35.513-7.412.037-14.568-.729-21.37-2.06-.348-9.23-.877-28.585-1.11-40.859 2.398-.035 4.647-.097 6.548-.097 15.433-.028 35.676 5.433 35.693 9.022 0 3.086-5.395 5.244-5.395 8.185.046 2.2 4.993 1.755 9.241 2.11.789.09 9.494-4.807 9.48-12.517-.051-10.183-12.71-22.2-54.062-22.035h-1.81c-.378-11.456-2.03-29.434-8.582-29.423-5.354.03-6.92 19.877-7.375 30.732-23.205 3.573-43.814 12.993-43.778 22.305 0 7.614 16.612 26.757 43.42 38.41.479 8.64 2.1 14.547 9.769 14.505 5.56 0 7.416-4.08 7.998-8.373a111.642 111.642 0 0 0 28.072 3.496c38.911-.1 70.186-20.937 70.067-49.472-.09-38.303-77.195-93.298-144.335-91.442m-10.457 95.26c0-6.646 20.203-9.238 38.925-10.188-.114 10.474-.254 25.46-.223 35.539-23.029-8.128-38.702-21.045-38.702-25.352" fill="#f5f5f5"/><path d="M177.627 179.49c-.311.028-.617.118-.924.178-1.287.255-2.563.582-3.863.752-5.263.687-10.563.988-15.863 1.235-1.837.087-3.68.058-5.517.066a7.82 7.82 0 0 1-4.2-1.175c-1.482-.915-1.935-1.22-.744-3.145.7-1.128 1.64-2.06 2.67-2.88a200.276 200.276 0 0 1 6.242-4.806c1.695-1.247 3.53-2.28 5.44-3.167 1.775-.824 3.611-1.418 5.566-1.641.957-.108 1.764-.057 2.233.977.297.653.888 1.038 1.597 1.171 1.276.243 2.387-.106 3.316-1.013.893-.868 1.01-1.936.681-3.063-.385-1.305-1.177-2.337-2.31-3.096-1.118-.748-2.353-1.135-3.696-1.213-1.59-.092-3.143.167-4.689.473-3.075.61-5.907 1.853-8.606 3.406-3.935 2.259-7.522 5-10.905 8.013-.745.66-1.423 1.4-2.077 2.154a11.801 11.801 0 0 0-1.998 3.195c-1.17 2.796-.698 5.345 1.191 7.661 1.364 1.676 3.113 2.792 5.136 3.52 2.014.724 4.098.901 6.211.862 1.681-.032 3.36-.101 5.042-.152l.005.08c3.775-.263 7.55-.498 11.32-.796 1.727-.135 3.448-.362 5.167-.598 1.09-.15 2.183-.337 3.247-.61.752-.191 1.516-.466 2.182-.86 1.28-.757 1.62-1.974 1.23-3.385-.442-1.58-1.814-2.255-3.084-2.143zM210.423 84.829c-6.457.072-6.653 26.524-6.84 36.19-.434 22.001 2.789 24.575 8.577 24.575 5.172 0 6.936-.636 6.493-19.06-.812-34.981-3.15-41.705-8.23-41.705" fill="#175773"/><path d="M210.423 80.286c-6.457.072-6.653 26.524-6.84 36.19-.434 22.001 2.789 24.575 8.577 24.575 5.172 0 6.936-.636 6.493-19.06-.812-34.981-3.15-41.705-8.23-41.705" fill="#f5f5f5"/><path d="M287.481 90.877c0-6.07-15.804-6.013-24.706-6.003-6.676.055-40.517.803-40.482 19.633.028 12.703 18.985 9.6 31.557 10.862 10.211 1.01 22.626 4.377 22.7 7.698 0 7.487-27.135 10.456-32.69 10.456-11.532.068-11.763-3.244-11.763-4.944 0-1.703 1.911-4.56 6.244-4.56 4.296-.015 13.153 5.454 19.304 5.439 6.074-.051 11.174-2.718 11.174-5.45 0-5.012-20.262-7.409-26.547-7.409-6.604.046-16.066 2.728-16.013 12.577 0 5.116 8.393 17.19 31.959 17.086 23.24-.106 29.117-13.217 29.083-19.979-.039-16.449-15.733-18.35-29.407-19.527-10.255-.877-21.258-1.376-21.22-3.629.087-7.52 50.807-2.014 50.807-12.25" fill="#175773"/><path d="M287.481 86.335c0-6.071-15.804-6.013-24.706-6.003-6.676.054-40.517.802-40.482 19.632.028 12.703 18.985 9.6 31.557 10.862 10.211 1.01 22.626 4.377 22.7 7.698 0 7.487-27.135 10.457-32.69 10.457-11.532.067-11.763-3.245-11.763-4.945 0-1.703 1.911-4.56 6.244-4.56 4.296-.015 13.153 5.454 19.304 5.44 6.074-.052 11.174-2.72 11.174-5.451 0-5.012-20.262-7.408-26.547-7.408-6.604.046-16.066 2.728-16.013 12.576 0 5.116 8.393 17.19 31.959 17.086 23.24-.106 29.117-13.217 29.083-19.978-.039-16.45-15.733-18.352-29.407-19.528-10.255-.877-21.258-1.375-21.22-3.628.087-7.52 50.807-2.015 50.807-12.25" fill="#f5f5f5"/><path d="M325.273 76.724c-1.913 0-2.276 2.026-2.276 4.159 0 6.529 9.01 28.967 9.01 37.607 0 1.756-.142 4.939-1.55 5.386-2.15.618-20.87-33.49-28.613-34.07-7.986-.616-12.29 33.459-12.248 41.848 0 8.32 1.508 13.977 7.752 13.943 9.21 0 4.443-34.027 8.148-34.027 2.759 0 17.828 31.12 26.23 31.088 9.086-.03 14.472-13.35 14.457-22.006-.063-19.791-13.258-43.99-20.91-43.928" fill="#175773"/><path d="M325.273 72.18c-1.913 0-2.276 2.027-2.276 4.16 0 6.53 9.01 28.967 9.01 37.608 0 1.755-.142 4.938-1.55 5.385-2.15.618-20.87-33.49-28.613-34.07-7.986-.616-12.29 33.459-12.248 41.849 0 8.319 1.508 13.976 7.752 13.943 9.21 0 4.443-34.028 8.148-34.028 2.759 0 17.828 31.12 26.23 31.088 9.086-.03 14.472-13.35 14.457-22.006-.063-19.791-13.258-43.99-20.91-43.928" fill="#f5f5f5"/><path d="M386.718 129.307c-3.192 0-21.2 4.029-22.384 2.968-1.198-1.112 1.063-11.584 3.304-12.28 2.26-.695 16.337-.518 18.58-.658 6.54-.374 5.307-9.275 1.264-9.606-2.056-.193-14.752-.232-15.484-1.415-.663-1.144.234-7.094 1.622-7.707 2.925-1.245 22.246-1.718 23.706-2.093 2.409-.636 4.163-1.916 4.742-3.984.577-2.09-6.711-10.554-15.733-9.592-15.502 1.69-35.585 1.609-35.585 6.728 0 4.791 9.437 6.723 9.676 8.057.25 1.276-1.212 6.258-1.768 7.82-.558 1.665-7.301 2.176-7.745 6.818-.093 1.097 1.684 2.766 1.379 4.114-1.074 3.923-4.302 12.044-4.297 15.39 0 5.207 3.828 16.764 14.327 16.37 16.652-.511 31.54-12.215 31.797-14.28.347-3.058-4.206-6.65-7.401-6.65" fill="#175773"/><path d="M386.718 124.764c-3.192 0-21.2 4.029-22.384 2.969-1.198-1.113 1.063-11.585 3.304-12.28 2.26-.695 16.337-.519 18.58-.66 6.54-.372 5.307-9.274 1.264-9.605-2.056-.193-14.752-.232-15.484-1.415-.663-1.144.234-7.094 1.622-7.706 2.925-1.245 22.246-1.719 23.706-2.093 2.409-.636 4.163-1.917 4.742-3.985.577-2.09-6.711-10.553-15.733-9.592-15.502 1.69-35.585 1.61-35.585 6.728 0 4.792 9.437 6.724 9.676 8.057.25 1.276-1.212 6.259-1.768 7.82-.558 1.665-7.301 2.176-7.745 6.818-.093 1.097 1.684 2.766 1.379 4.115-1.074 3.922-4.302 12.044-4.297 15.39 0 5.206 3.828 16.763 14.327 16.369 16.652-.511 31.54-12.215 31.797-14.28.347-3.057-4.206-6.65-7.401-6.65" fill="#f5f5f5"/><path d="M447.135 88.994c-9.06.49-26.452 19.754-36.605 32.732-.645-1.33-1.001-2.613-1.001-3.75-.023-5.54 10.274-21.967 12.193-26.099 2.012-4.256-.24-9.953-2.765-7.901-4.814 3.963-20.261 22.064-20.229 38.907 0 3.876 1 8.567 3.143 12.885-3.421 11.285-11.886 36.421-11.626 51.651.158 7.86 8.088 15.582 12.865 14.607 1.813-.43 2.165-10.764 4.6-17.746 3.318-10.08 8.69-28.493 10.535-36.345.865.091 1.73.166 2.672.166 18.87-.074 39.827-20.317 39.788-37.71-.07-17.45-10.354-21.617-13.57-21.397m-21.79 43.06c7.606-13.235 18.67-30.754 22.743-30.686 2.856 0 3.947 2.927 3.947 7.198 0 12.942-15.538 23.666-26.69 23.488" fill="#175773"/><path d="M447.135 84.451c-9.06.49-26.452 19.755-36.605 32.733-.645-1.33-1.001-2.614-1.001-3.75-.023-5.54 10.274-21.968 12.193-26.1 2.012-4.256-.24-9.953-2.765-7.9-4.814 3.962-20.261 22.063-20.229 38.906 0 3.876 1 8.567 3.143 12.885-3.421 11.285-11.886 36.422-11.626 51.651.158 7.86 8.088 15.582 12.865 14.608 1.813-.431 2.165-10.764 4.6-17.747 3.318-10.08 8.69-28.493 10.535-36.345.865.092 1.73.166 2.672.166 18.87-.074 39.827-20.316 39.788-37.709-.07-17.45-10.354-21.617-13.57-21.398m-21.79 43.06c7.606-13.235 18.67-30.754 22.743-30.685 2.856 0 3.947 2.926 3.947 7.197 0 12.942-15.538 23.667-26.69 23.488M273.01 151.112c-1.651.007-2.906 1.144-3.02 2.765a187.595 187.595 0 0 0-.219 3.831c-.282 5.673-.686 11.342-.681 17.03 0 .2-.037.401-.089.944-.376-.372-.574-.525-.715-.71-.374-.497-.71-1.02-1.091-1.512a1327.258 1327.258 0 0 0-5.713-7.38c-1.721-2.207-3.432-4.425-5.206-6.596a17.64 17.64 0 0 0-2.296-2.322c-1.898-1.594-5.07-.138-5.12 1.933-.01.354-.135.708-.147 1.061-.09 2.302-.243 4.603-.228 6.905.037 5.53.154 11.055.246 16.582.01.56.035 1.13.139 1.681.183.984.805 1.645 1.78 1.994 1.12.4 2.1.101 2.94-.629.817-.714 1.255-1.61 1.22-2.719-.09-3.072-.144-6.14-.212-9.213-.049-2.097-.099-4.193-.132-6.292-.002-.231-.097-.516.254-.712.498.195.73.677 1.034 1.066 2.631 3.34 5.235 6.7 7.873 10.037a69.775 69.775 0 0 0 3.027 3.559c.518.57 1.113 1.115 1.772 1.524 1.739 1.074 3.866.646 5.078-.959.704-.92 1.218-1.931 1.324-3.085.132-1.426.256-2.852.307-4.283.152-4.451.24-8.9.42-13.35.094-2.3.33-4.593.495-6.89.038-.51.097-1.028.053-1.532-.133-1.56-1.488-2.734-3.094-2.728z" fill="#f5f5f5"/><path d="M242.752 179.506c-.946-1.856-1.905-3.707-2.955-5.748.09-.296.209-.64.295-.992.304-1.267-.185-2.41-1.308-3.06-.178-.106-.365-.237-.562-.263-.71-.094-1.05-.575-1.368-1.147-.781-1.414-1.556-2.836-2.41-4.205a105.034 105.034 0 0 0-3.456-5.21c-.503-.71-1.166-1.338-1.851-1.88-.96-.76-2.08-.875-3.255-.491a3.172 3.172 0 0 0-1.864 1.573c-.631 1.2-1.252 2.407-1.74 3.667-1.57 4.042-2.654 8.241-3.79 12.417-.15.55-.309 1.097-.472 1.678-.707.285-1.387.538-2.049.83-.474.209-.963.415-1.383.713-.766.546-1.225 1.33-1.115 2.28.157 1.406.61 2.663 2.182 3.103.19.051.363.172.612.296-.044.323-.055.63-.127.92-.23.91-.468 1.82-.728 2.722-.271.94-.2 1.857.108 2.769.285.846.868 1.363 1.7 1.698 1.244.503 3.084-.339 3.69-1.847.173-.432.273-.896.38-1.353.508-2.131 1.025-4.262 1.499-6.4.16-.733.511-1.191 1.234-1.447 3.09-1.092 6.166-2.221 9.254-3.322.273-.097.587-.071.901-.108.297.51.568.95.805 1.41a4925.41 4925.41 0 0 1 4.74 9.174c.192.37.358.756.572 1.112 1.145 1.87 3.58 1.935 4.785.104.79-1.203 1.034-2.458.292-3.829-.917-1.698-1.74-3.443-2.616-5.164zm-17.456-6.504c.012-.27-.016-.513.041-.736 1.137-4.53 1.624-6.006 2.255-6.904.878.83 2.91 4.289 3.336 5.683-.95.591-2.961 1.293-5.632 1.957z" fill="#175773"/><path d="M338.31 175.577c-.672.014-1.346.134-2.015.242-2.677.428-5.34.934-8.026 1.289-1.855.246-3.737.308-5.608.42-.398.024-.808-.08-1.226-.125-.39-1.558-.863-3.012-.738-4.763 1.549-.09 2.949-.179 4.352-.25 3.021-.158 6.026-.45 9.016-.94.964-.157 1.778-.534 2.495-1.176.73-.65.941-1.46.752-2.367-.339-1.584-1.98-2.495-3.073-2.324-.616.096-1.233.205-1.856.255-3.689.293-7.377.575-11.068.854-.26.021-.526.02-.782.003-.35-.018-.589-.207-.66-.542-.143-.648-.311-1.294-.379-1.95-.071-.693-.222-1.404-.013-2.186.372-.045.72-.114 1.072-.124 3.39-.1 6.778-.166 10.166-.29 1.72-.06 3.435-.225 5.152-.326 1.098-.061 2.015-.49 2.775-1.245.71-.707.972-1.547.687-2.527-.417-1.437-1.65-2.379-3.262-2.37-.936.009-1.868.191-2.806.224-3.802.141-7.608.264-11.412.378-.988.03-1.984-.035-2.97.023-.83.049-1.662.157-2.473.338-1.057.234-1.862.836-2.456 1.756-.675 1.044-.87 2.15-.768 3.361.422 4.836.821 9.674 1.613 14.469.258 1.559.65 3.1 1.003 4.641.372 1.623 1.447 2.508 3.094 2.855 1.558.326 3.111.25 4.673.15 1.456-.09 2.914-.18 4.37-.262 1.98-.106 3.966-.149 5.939-.316 1.24-.104 2.472-.349 3.696-.586.99-.193 1.857-.676 2.642-1.29 1.048-.817 1.366-2.133.867-3.465-.444-1.185-1.418-1.863-2.773-1.835z" fill="#f5f5f5"/><path d="M209.16 167.54c-.506-.108-1.027-.152-1.596-.238-.043-.275-.104-.527-.118-.784-.105-2.155-.194-4.315-.313-6.471-.033-.627-.078-1.273-.25-1.872-.438-1.52-1.802-2.307-3.446-2.065-1.818.265-2.787 1.332-2.763 3.053.003.263.04.525.053.788.143 2.79.288 5.579.416 8.367.016.352-.074.71-.12 1.09-2.842.57-5.474 1.664-8.228 2.203-.374-.554-.252-1.095-.257-1.608-.013-2.317.005-4.638-.02-6.956a9.767 9.767 0 0 0-.22-1.876c-.172-.818-.705-1.394-1.43-1.796-2.166-1.198-4.857.341-4.89 2.822-.01.788.132 1.575.137 2.364.021 2.74.019 5.48.01 8.221 0 .354-.09.708-.133 1.026-1.034.323-1.995.59-2.934.925-.954.335-1.602 1.01-1.858 2.003-.539 2.086 1.409 4.208 3.533 3.86.4-.064.794-.156 1.158-.226.34.596.234 1.134.244 1.65.017 1.266.025 2.531.014 3.794-.006.764.214 1.455.608 2.097.706 1.16 2.025 1.638 3.284 1.14 1.443-.569 2.373-1.569 2.37-3.205-.004-1.63-.056-3.262-.09-4.894-.016-.632-.043-1.263-.066-1.894-.012-.49.235-.787.696-.921.203-.06.4-.142.6-.2 2.22-.66 4.442-1.321 6.665-1.97.344-.102.702-.14 1.174-.231.064.588.144 1.099.172 1.613.17 3.21.33 6.42.475 9.633.03.69.121 1.358.402 1.999.597 1.36 1.97 1.983 3.386 1.527 1.639-.527 2.537-1.845 2.45-3.606-.045-.949-.128-1.893-.162-2.842-.113-3.106-.172-6.216-.594-9.301-.027-.2.012-.41.018-.545.086-.11.11-.17.154-.186.338-.128.676-.258 1.02-.367a4.51 4.51 0 0 0 2.09-1.353c1.164-1.313.765-4.251-1.642-4.768z" fill="#175773"/><path d="M177.627 174.947c-.311.028-.617.118-.924.178-1.287.255-2.563.582-3.863.752-5.263.687-10.563.988-15.863 1.235-1.837.087-3.68.058-5.517.067a7.82 7.82 0 0 1-4.2-1.176c-1.482-.915-1.935-1.22-.744-3.144.7-1.129 1.64-2.061 2.67-2.881a200.275 200.275 0 0 1 6.242-4.805c1.695-1.248 3.53-2.28 5.44-3.168 1.775-.824 3.611-1.418 5.566-1.64.957-.11 1.764-.058 2.233.977.297.652.888 1.037 1.597 1.17 1.276.243 2.387-.106 3.316-1.012.893-.868 1.01-1.937.681-3.063-.385-1.306-1.177-2.337-2.31-3.097-1.118-.747-2.353-1.135-3.696-1.213-1.59-.091-3.143.167-4.689.473-3.075.61-5.907 1.853-8.606 3.406-3.935 2.26-7.522 5-10.905 8.013-.745.66-1.423 1.401-2.077 2.155a11.801 11.801 0 0 0-1.998 3.194c-1.17 2.797-.698 5.345 1.191 7.662 1.364 1.675 3.113 2.792 5.136 3.518 2.014.725 4.098.903 6.211.863 1.681-.032 3.36-.101 5.042-.152l.005.08c3.775-.262 7.55-.498 11.32-.796 1.727-.135 3.448-.362 5.167-.598 1.09-.149 2.183-.337 3.247-.61.752-.191 1.516-.466 2.182-.86 1.28-.757 1.62-1.974 1.23-3.385-.442-1.58-1.814-2.255-3.084-2.143z" fill="#f5f5f5"/><path d="M308.948 181.179c-.247-2.623-.482-5.246-.74-7.87-.27-2.724-.555-5.447-.838-8.172-.182-1.727-.388-3.454-.57-5.182-.116-1.068-.609-1.889-1.496-2.46-1.588-1.025-3.335-.509-4.18 1.202-.334.686-.433 1.402-.352 2.15.162 1.518.326 3.038.485 4.556.453 4.352.902 8.7 1.343 13.052.045.456.008.923.008 1.675-.44-.36-.657-.501-.83-.683-1.714-1.76-3.434-3.513-5.122-5.298-2.336-2.466-4.64-4.965-6.979-7.432a50.284 50.284 0 0 0-2.678-2.638c-.496-.454-1.049-.875-1.638-1.187-1.735-.918-3.82.057-4.264 1.975a8.605 8.605 0 0 0-.22 1.721c-.039 1.264-.091 2.534-.02 3.794.326 5.684.687 11.362 1.044 17.044.025.417.09.843.2 1.247.356 1.269 1.368 2.016 2.655 1.998 1.574-.023 2.969-1.383 3.061-2.998.021-.42-.002-.843-.032-1.263-.17-2.418-.337-4.835-.528-7.252-.113-1.472-.28-2.938-.397-4.408-.039-.5-.005-1.012-.005-1.703.316.212.497.29.625.423.581.6 1.157 1.213 1.723 1.828 3.084 3.343 6.18 6.677 9.573 9.705a44.49 44.49 0 0 0 3.03 2.468c.579.429 1.238.774 1.9 1.06 2.906 1.245 5.482-1.365 5.484-3.57.002-.524 0-1.051-.035-1.578-.05-.738-.137-1.47-.207-2.204z" fill="#175773"/><path d="M242.752 174.964c-.946-1.856-1.905-3.707-2.955-5.749.09-.295.209-.64.295-.992.304-1.267-.185-2.41-1.308-3.06-.178-.105-.365-.237-.562-.263-.71-.094-1.05-.575-1.368-1.147-.781-1.414-1.556-2.836-2.41-4.205a105.034 105.034 0 0 0-3.456-5.21c-.503-.71-1.166-1.338-1.851-1.88-.96-.76-2.08-.875-3.255-.491a3.172 3.172 0 0 0-1.864 1.573c-.631 1.2-1.252 2.407-1.74 3.667-1.57 4.042-2.654 8.241-3.79 12.417-.15.55-.309 1.097-.472 1.679-.707.285-1.387.537-2.049.83-.474.208-.963.415-1.383.713-.766.545-1.225 1.33-1.115 2.28.157 1.406.61 2.662 2.182 3.102.19.051.363.172.612.297-.044.322-.055.629-.127.92-.23.91-.468 1.82-.728 2.721-.271.94-.2 1.858.108 2.77.285.845.868 1.362 1.7 1.698 1.244.502 3.084-.34 3.69-1.848.173-.432.273-.896.38-1.353.508-2.13 1.025-4.261 1.499-6.4.16-.733.511-1.19 1.234-1.447 3.09-1.092 6.166-2.22 9.254-3.321.273-.098.587-.072.901-.109.297.51.568.951.805 1.41 1.584 3.056 3.162 6.115 4.74 9.174.192.37.358.757.572 1.112 1.145 1.87 3.58 1.936 4.785.104.79-1.202 1.034-2.458.292-3.829-.917-1.698-1.74-3.442-2.616-5.163zm-17.456-6.505c.012-.27-.016-.513.041-.735 1.137-4.53 1.624-6.007 2.255-6.905.878.83 2.91 4.289 3.336 5.683-.95.591-2.961 1.293-5.632 1.957z" fill="#f5f5f5"/><path d="M377.478 183.31c-.607-.502-1.298-.841-2.082-.922-1.068-.112-2.136-.245-3.204-.271a237.466 237.466 0 0 0-6.592-.063 51.309 51.309 0 0 0-10.947 1.194c-.485.105-.985.277-1.576.035-.034-.221-.099-.47-.109-.72-.061-1.413-.125-2.823-.153-4.238-.117-5.708-.212-11.416-.332-17.121-.038-1.886-1.008-3.087-2.71-3.485-.758-.176-1.473-.055-2.013.463-.905.862-1.725 1.812-1.568 3.237.024.208.01.42.013.629.149 7.226.298 14.454.45 21.678.012.523.04 1.047.112 1.566.337 2.39 1.795 3.982 4.085 4.516 1.016.236 2.027.2 3.045.014 1.454-.269 2.906-.584 4.368-.82 5.384-.866 10.796-.798 16.206-.384.961.073 1.779-.118 2.64-.542 1.782-.88 1.873-3.517.367-4.766z" fill="#175773"/><path d="M209.16 162.997c-.506-.107-1.027-.152-1.596-.237-.043-.275-.104-.528-.118-.784-.105-2.156-.194-4.315-.313-6.472-.033-.627-.078-1.272-.25-1.872-.438-1.52-1.802-2.307-3.446-2.065-1.818.265-2.787 1.332-2.763 3.054.003.262.04.524.053.787.143 2.79.288 5.579.416 8.367.016.352-.074.71-.12 1.09-2.842.57-5.474 1.664-8.228 2.203-.374-.554-.252-1.095-.257-1.608-.013-2.317.005-4.638-.02-6.956a9.767 9.767 0 0 0-.22-1.876c-.172-.818-.705-1.394-1.43-1.796-2.166-1.198-4.857.342-4.89 2.822-.01.788.132 1.575.137 2.364.021 2.74.019 5.48.01 8.221 0 .354-.09.708-.133 1.026-1.034.323-1.995.59-2.934.925-.954.335-1.602 1.01-1.858 2.004-.539 2.085 1.409 4.208 3.533 3.86.4-.065.794-.156 1.158-.227.34.596.234 1.134.244 1.65.017 1.266.025 2.531.014 3.795-.006.764.214 1.454.608 2.096.706 1.16 2.025 1.639 3.284 1.14 1.443-.568 2.373-1.568 2.37-3.205-.004-1.63-.056-3.262-.09-4.893-.016-.633-.043-1.264-.066-1.895-.012-.49.235-.787.696-.92.203-.061.4-.143.6-.201 2.22-.66 4.442-1.321 6.665-1.97.344-.102.702-.14 1.174-.23.064.588.144 1.098.172 1.612.17 3.21.33 6.42.475 9.633.03.691.121 1.359.402 1.999.597 1.36 1.97 1.984 3.386 1.527 1.639-.527 2.537-1.844 2.45-3.606-.045-.949-.128-1.893-.162-2.842-.113-3.105-.172-6.216-.594-9.3-.027-.201.012-.411.018-.546.086-.11.11-.17.154-.185.338-.13.676-.258 1.02-.367a4.51 4.51 0 0 0 2.09-1.354c1.164-1.313.765-4.251-1.642-4.768zM308.948 176.636c-.247-2.623-.482-5.246-.74-7.869-.27-2.725-.555-5.448-.838-8.173-.182-1.727-.388-3.453-.57-5.182-.116-1.068-.609-1.888-1.496-2.46-1.588-1.024-3.335-.508-4.18 1.203-.334.685-.433 1.4-.352 2.149.162 1.518.326 3.038.485 4.557.453 4.35.902 8.7 1.343 13.051.045.456.008.923.008 1.676-.44-.361-.657-.502-.83-.684-1.714-1.76-3.434-3.513-5.122-5.298-2.336-2.466-4.64-4.965-6.979-7.432a50.288 50.288 0 0 0-2.678-2.638c-.496-.454-1.049-.875-1.638-1.187-1.735-.918-3.82.057-4.264 1.975a8.605 8.605 0 0 0-.22 1.721c-.039 1.264-.091 2.535-.02 3.795.326 5.683.687 11.361 1.044 17.044.025.416.09.842.2 1.246.356 1.27 1.368 2.017 2.655 1.999 1.574-.024 2.969-1.384 3.061-2.999.021-.42-.002-.843-.032-1.263-.17-2.418-.337-4.835-.528-7.252-.113-1.471-.28-2.938-.397-4.408-.039-.5-.005-1.012-.005-1.702.316.212.497.29.625.423.581.599 1.157 1.212 1.723 1.827 3.084 3.343 6.18 6.678 9.573 9.705a44.491 44.491 0 0 0 3.03 2.468c.579.43 1.238.774 1.9 1.06 2.906 1.245 5.482-1.364 5.484-3.569.002-.524 0-1.052-.035-1.579-.05-.737-.137-1.47-.207-2.204zM377.478 178.767c-.607-.502-1.298-.841-2.082-.922-1.068-.112-2.136-.245-3.204-.271a237.485 237.485 0 0 0-6.592-.062 51.309 51.309 0 0 0-10.947 1.193c-.485.106-.985.277-1.576.035-.034-.221-.099-.47-.109-.719-.061-1.413-.125-2.824-.153-4.239-.117-5.708-.212-11.416-.332-17.121-.038-1.885-1.008-3.086-2.71-3.485-.758-.176-1.473-.054-2.013.463-.905.862-1.725 1.812-1.568 3.237.024.209.01.42.013.63.149 7.225.298 14.453.45 21.677.012.523.04 1.048.112 1.566.337 2.391 1.795 3.982 4.085 4.516 1.016.236 2.027.2 3.045.014 1.454-.269 2.906-.584 4.368-.82 5.384-.866 10.796-.798 16.206-.384.961.073 1.779-.118 2.64-.542 1.782-.879 1.873-3.517.367-4.766z" fill="#f5f5f5"/><path d="M257.085 43.944c-1.196-7.555-8.19-11.398-14.443-11.446-6.558.51-10.538 4.834-11.303 10.52a8.723 8.723 0 0 1-1.115-.824c-2.757-2.357-5.89-3.673-9.373-3.97 1.312-2.154 2.21-4.702 2.427-7.127.013-6.765-5.176-11.206-12.788-11.505-7.065 0-12.792 5.15-12.792 11.505 0 4.117 3.782 8.345 7.474 10.413a31.824 31.824 0 0 0-4.165 2.496c-.355.25-.708.503-1.056.77-3.568 2.736-6.517 6.005-8.38 10.144-.694 1.541-1.124 3.134-1.14 4.847-.026 2.989.849 5.682 2.579 8.092.02.027.033.055.053.083a15.455 15.455 0 0 0 9.585 6.044l.074.014c.076.015.154.032.236.053 2.36.604 4.775.81 6.216.865 3.234.076 5.421-.279 7.56-.929 7.195-2.19 13.28-6.129 18.369-11.607 1.425-1.534 2.656-3.203 3.587-5.056a12.822 12.822 0 0 0 7.067 1.157c8.82-1.361 12.188-7.362 11.328-14.539zm-54.85 11.364a72.186 72.186 0 0 0-2.841 2.835c-.402.437-.792.875-1.162 1.313a7.892 7.892 0 0 1-.215-.944 2.69 2.69 0 0 1-.056-.99c.23-3.422 5.221-8.55 14.928-10.137-3.689 2.202-7.449 4.969-10.654 7.923zm9.814 11.073c-2.592 0-4.766-.353-6.625-.94.196-.221.407-.451.624-.687.192-.291.456-.518.692-.76a112.532 112.532 0 0 1 3.473-3.393l.384-.357c.867-.8 1.745-1.583 2.642-2.347 5.302-4.537 11.457-8.769 15.193-8.784 3.87 0 4.561 3.103 4.561 4.287 0 7.113-14.636 12.956-20.944 12.98z" fill="#175773"/><path d="M257.085 39.402c-1.196-7.556-8.19-11.398-14.443-11.447-6.558.51-10.538 4.835-11.303 10.52a8.723 8.723 0 0 1-1.115-.824c-2.757-2.357-5.89-3.672-9.373-3.97 1.312-2.154 2.21-4.702 2.427-7.127.013-6.765-5.176-11.205-12.788-11.505-7.065 0-12.792 5.15-12.792 11.505 0 4.117 3.782 8.345 7.474 10.413a31.824 31.824 0 0 0-4.165 2.496c-.355.25-.708.504-1.056.77-3.568 2.736-6.517 6.005-8.38 10.144-.694 1.542-1.124 3.134-1.14 4.847-.026 2.989.849 5.682 2.579 8.092.02.028.033.056.053.084a15.455 15.455 0 0 0 9.585 6.043l.074.014c.076.015.154.033.236.053 2.36.604 4.775.811 6.216.865 3.234.077 5.421-.279 7.56-.929 7.195-2.19 13.28-6.128 18.369-11.606 1.425-1.535 2.656-3.204 3.587-5.057a12.822 12.822 0 0 0 7.067 1.157c8.82-1.361 12.188-7.362 11.328-14.538zm-54.85 11.363a72.19 72.19 0 0 0-2.841 2.835c-.402.437-.792.875-1.162 1.313a7.892 7.892 0 0 1-.215-.944 2.69 2.69 0 0 1-.056-.99c.23-3.422 5.221-8.55 14.928-10.137-3.689 2.202-7.449 4.969-10.654 7.923zm9.814 11.073c-2.592 0-4.766-.352-6.625-.94.196-.221.407-.45.624-.687.192-.29.456-.518.692-.76a112.514 112.514 0 0 1 3.473-3.393l.384-.356c.867-.8 1.745-1.584 2.642-2.348 5.302-4.537 11.457-8.769 15.193-8.784 3.87 0 4.561 3.103 4.561 4.287 0 7.113-14.636 12.956-20.944 12.98z" fill="#f5f5f5"/></svg>