<?xml version="1.0" encoding="UTF-8"?>
<!DOCTYPE svg PUBLIC "-//W3C//DTD SVG 1.1//EN" "http://www.w3.org/Graphics/SVG/1.1/DTD/svg11.dtd">
<svg xmlns="http://www.w3.org/2000/svg" version="1.1" width="566px" height="240px" style="shape-rendering:geometricPrecision; text-rendering:geometricPrecision; image-rendering:optimizeQuality; fill-rule:evenodd; clip-rule:evenodd" xmlns:xlink="http://www.w3.org/1999/xlink">
<g><path style="opacity:0.969" fill="#2597d4" d="M 51.5,1.5 C 111.191,0.997768 162.691,20.9978 206,61.5C 206.776,52.9468 210.443,45.9468 217,40.5C 212.959,16.4416 223.126,5.60826 247.5,8C 256.07,10.9038 261.57,16.7372 264,25.5C 277.454,18.6113 289.12,20.9447 299,32.5C 304.161,43.237 303.495,53.5703 297,63.5C 291.299,68.1015 284.799,70.6015 277.5,71C 273.134,75.7007 268.467,80.034 263.5,84C 281.978,80.8021 300.645,79.8021 319.5,81C 332.966,81.3227 345.466,84.8227 357,91.5C 356.905,85.9104 357.905,80.5771 360,75.5C 364.709,70.6316 370.209,69.465 376.5,72C 379.433,73.2709 382.099,74.9376 384.5,77C 387.632,80.7816 390.632,84.6149 393.5,88.5C 412.788,82.4632 432.455,80.2966 452.5,82C 456.095,83.7134 459.595,85.5467 463,87.5C 482.456,73.2578 501.956,73.0912 521.5,87C 534.764,99.5451 538.93,114.712 534,132.5C 524.695,154.971 508.195,168.971 484.5,174.5C 478.887,191.951 474.054,209.618 470,227.5C 466.877,233.996 461.71,236.496 454.5,235C 448.622,233.475 443.789,230.308 440,225.5C 438.907,222.414 437.074,219.914 434.5,218C 343.833,217.667 253.167,217.333 162.5,217C 153.667,214.833 148.167,209.333 146,200.5C 144.547,194.966 144.047,189.466 144.5,184C 136.216,183.807 128.05,182.974 120,181.5C 109.938,191.432 99.2717,192.099 88,183.5C 85.3634,179.928 83.6967,175.928 83,171.5C 81.8333,170.333 80.6667,169.167 79.5,168C 61.9713,159.48 47.4713,147.313 36,131.5C 29.1195,117.793 31.9528,106.626 44.5,98C 48.0066,95.746 51.6733,93.746 55.5,92C 64.7663,88.8983 73.933,85.7317 83,82.5C 84.1539,68.7425 86.6539,55.2425 90.5,42C 90.0946,41.0546 89.428,40.3879 88.5,40C 71.7111,35.9825 54.7111,34.6491 37.5,36C 32.5634,45.1741 24.8968,48.5074 14.5,46C 4.31365,43.4622 0.146988,36.9622 2,26.5C 5.49232,14.1484 13.659,6.98176 26.5,5C 34.9448,3.57156 43.2782,2.40489 51.5,1.5 Z"/></g>
<g><path style="opacity:1" fill="#fbfdfe" d="M 45.5,12.5 C 99.1645,10.666 146.831,26.4994 188.5,60C 203.79,71.9492 215.29,86.7825 223,104.5C 227.049,120.632 223.716,134.966 213,147.5C 201.668,158.753 188.168,166.253 172.5,170C 153.095,174.765 133.762,174.598 114.5,169.5C 112.931,171.988 111.264,174.488 109.5,177C 105.961,178.504 102.295,178.837 98.5,178C 94.7087,173.966 92.8754,169.133 93,163.5C 81.0694,157.456 69.9027,150.289 59.5,142C 53.0097,136.502 47.8431,130.002 44,122.5C 43.1834,119.036 43.5167,115.702 45,112.5C 54.3519,104.24 65.1852,98.7402 77.5,96C 82.7052,94.8266 87.8719,93.6599 93,92.5C 92.9283,82.3085 94.2617,72.3085 97,62.5C 98.0295,59.1247 100.196,57.9581 103.5,59C 105.617,60.7309 107.117,62.8976 108,65.5C 109.807,73.9571 110.973,82.4571 111.5,91C 123.579,91.6731 135.579,93.0065 147.5,95C 156.363,96.8487 164.197,100.682 171,106.5C 177.961,119.244 174.461,127.578 160.5,131.5C 158.161,131.331 155.994,130.664 154,129.5C 153.333,128.5 153.333,127.5 154,126.5C 156.438,124.571 158.272,122.238 159.5,119.5C 158.115,117.295 156.115,115.795 153.5,115C 140.181,110.669 126.515,108.669 112.5,109C 111.855,111.914 111.522,114.914 111.5,118C 111.984,130.737 112.651,143.404 113.5,156C 138.004,160.712 161.67,158.045 184.5,148C 200.243,139.345 206.41,126.179 203,108.5C 198.281,94.9016 190.448,83.4016 179.5,74C 144.115,44.9892 103.448,28.6558 57.5,25C 48.8333,24.3333 40.1667,24.3333 31.5,25C 28.635,25.8368 25.8017,26.6702 23,27.5C 22.8333,28 22.6667,28.5 22.5,29C 23.9958,30.3307 25.3291,31.8307 26.5,33.5C 26.2907,34.086 25.9574,34.586 25.5,35C 21.8333,35.6667 18.1667,35.6667 14.5,35C 11.1426,28.9357 12.4759,23.9357 18.5,20C 20.8877,18.1395 23.5544,16.8061 26.5,16C 32.9065,14.4378 39.2398,13.2712 45.5,12.5 Z"/></g>
<g><path style="opacity:1" fill="#fafcfe" d="M 234.5,16.5 C 249.849,15.4894 255.516,22.1561 251.5,36.5C 255.295,38.2315 258.962,40.2315 262.5,42.5C 267.429,31.236 275.429,28.4027 286.5,34C 295.453,41.6636 295.787,49.6636 287.5,58C 282.37,60.5429 277.037,61.2095 271.5,60C 262.008,74.4124 248.675,80.7457 231.5,79C 217.45,73.7483 213.95,64.5816 221,51.5C 224.39,47.6068 228.223,44.2735 232.5,41.5C 222.563,32.0464 223.229,23.713 234.5,16.5 Z"/></g>
<g><path style="opacity:1" fill="#2a99d5" d="M 256.5,50.5 C 266.215,50.8643 267.881,54.6976 261.5,62C 253.441,67.8527 244.441,70.3527 234.5,69.5C 240.201,61.3103 247.534,54.977 256.5,50.5 Z"/></g>
<g><path style="opacity:1" fill="#3da2d9" d="M 235.5,49.5 C 236.873,49.3433 238.207,49.51 239.5,50C 234.412,53.0834 229.912,56.9167 226,61.5C 225.48,59.7111 225.813,58.0444 227,56.5C 229.441,53.5464 232.275,51.2131 235.5,49.5 Z"/></g>
<g><path style="opacity:1" fill="#fbfdfe" d="M 369.5,81.5 C 373.886,82.366 377.386,84.6994 380,88.5C 388.404,101.043 393.237,114.877 394.5,130C 394.48,139.739 391.147,148.072 384.5,155C 381.298,156.483 377.964,156.817 374.5,156C 365.327,146.482 357.494,135.982 351,124.5C 349.89,122.963 348.39,122.297 346.5,122.5C 345.936,132.85 345.102,143.184 344,153.5C 343.382,158.803 340.548,160.97 335.5,160C 333.19,158.363 331.69,156.196 331,153.5C 329.499,137.503 331.166,121.837 336,106.5C 339.849,94.5442 345.515,93.5442 353,103.5C 360.601,114.382 368.434,125.049 376.5,135.5C 377.086,135.291 377.586,134.957 378,134.5C 378.667,130.833 378.667,127.167 378,123.5C 375.405,113.049 372.405,102.716 369,92.5C 368.245,88.7446 368.411,85.0779 369.5,81.5 Z"/></g>
<g><path style="opacity:1" fill="#fbfdfe" d="M 477.5,89.5 C 478.822,89.33 479.989,89.6634 481,90.5C 481.667,92.8333 481.667,95.1667 481,97.5C 475.822,106.523 471.155,115.857 467,125.5C 466.149,128.053 466.482,130.386 468,132.5C 478.167,119.667 489.667,108.167 502.5,98C 509.956,93.9255 516.122,95.4255 521,102.5C 528.163,117.178 526.497,130.844 516,143.5C 510.652,150.189 504.152,155.355 496.5,159C 489.571,161.175 482.738,163.342 476,165.5C 470.263,184.712 464.93,204.045 460,223.5C 451.534,223.731 446.534,219.398 445,210.5C 444.152,202.377 444.818,194.377 447,186.5C 450.112,173.886 453.612,161.386 457.5,149C 452.327,134.283 454.16,120.45 463,107.5C 467.122,100.921 471.955,94.9207 477.5,89.5 Z"/></g>
<g><path style="opacity:1" fill="#f9fcfd" d="M 238.5,90.5 C 241.642,90.7993 243.809,92.4659 245,95.5C 246.732,100.35 247.732,105.35 248,110.5C 248.667,125.833 248.667,141.167 248,156.5C 246.982,159.683 244.815,161.016 241.5,160.5C 238.675,160.881 236.509,159.881 235,157.5C 233.438,155.043 232.438,152.376 232,149.5C 230.729,131.354 231.729,113.354 235,95.5C 235.997,93.6769 237.164,92.0103 238.5,90.5 Z"/></g>
<g><path style="opacity:1" fill="#fafcfe" d="M 272.5,127.5 C 283.629,127.132 294.296,129.132 304.5,133.5C 306.377,138.15 304.71,140.65 299.5,141C 290.34,142.062 281.673,140.395 273.5,136C 267.132,134.742 264.298,137.242 265,143.5C 265.903,144.701 267.069,145.535 268.5,146C 283.817,147.669 298.483,145.336 312.5,139C 315.462,135.512 314.795,132.845 310.5,131C 298.839,127.042 286.839,125.209 274.5,125.5C 268.511,125.802 262.845,124.636 257.5,122C 253.178,117.139 252.345,111.639 255,105.5C 262.618,97.1754 272.118,92.6754 283.5,92C 294.5,91.3333 305.5,91.3333 316.5,92C 320.558,92.3783 324.058,93.8783 327,96.5C 327.667,97.5 327.667,98.5 327,99.5C 324.531,101.652 321.698,103.152 318.5,104C 304.512,105.443 290.512,106.777 276.5,108C 267.167,110.333 267.167,112.667 276.5,115C 286.868,115.735 297.202,116.735 307.5,118C 326.962,122.762 331.795,133.928 322,151.5C 315.414,157.588 307.581,160.755 298.5,161C 284.144,162.991 271.644,159.158 261,149.5C 254.989,137.192 258.822,129.859 272.5,127.5 Z"/></g>
<g><path style="opacity:1" fill="#fafdfe" d="M 429.5,91.5 C 436.257,91.1226 442.924,91.6226 449.5,93C 453.846,94.6795 456.846,97.6795 458.5,102C 457.846,103.987 456.513,105.32 454.5,106C 444.748,106.695 435.082,107.862 425.5,109.5C 423.367,112.128 423.034,114.961 424.5,118C 430.515,118.535 436.515,119.201 442.5,120C 445.379,121.666 446.212,124.166 445,127.5C 444.097,128.701 442.931,129.535 441.5,130C 433.784,130.199 426.118,130.699 418.5,131.5C 415.752,135.41 414.585,139.743 415,144.5C 415.725,145.059 416.558,145.392 417.5,145.5C 425.778,143.627 434.111,142.46 442.5,142C 447.257,143.069 449.091,145.902 448,150.5C 437.392,160.22 424.892,165.054 410.5,165C 399.812,161.295 395.312,153.795 397,142.5C 400.263,135.756 401.596,128.756 401,121.5C 408.382,119.227 411.215,114.393 409.5,107C 404.974,105.747 401.64,103.081 399.5,99C 400.261,96.5751 401.928,95.2418 404.5,95C 412.953,93.6935 421.287,92.5268 429.5,91.5 Z"/></g>
<g><path style="opacity:1" fill="#77bce3" d="M 88.5,109.5 C 83.3839,110.806 78.0506,111.473 72.5,111.5C 77.598,110.043 82.9313,109.376 88.5,109.5 Z"/></g>
<g><path style="opacity:1" fill="#2497d4" d="M 88.5,109.5 C 89.8333,109.5 91.1667,109.5 92.5,109.5C 92.5,122.833 92.5,136.167 92.5,149.5C 76.3228,144.996 62.1562,136.996 50,125.5C 47.8451,122.46 48.0117,119.627 50.5,117C 57.3763,113.354 64.7097,111.52 72.5,111.5C 78.0506,111.473 83.3839,110.806 88.5,109.5 Z"/></g>
<g><path style="opacity:1" fill="#2a99d5" d="M 509.5,109.5 C 514.111,110.12 516.111,112.787 515.5,117.5C 512.941,132.559 504.108,141.559 489,144.5C 487.833,144.167 486.667,143.833 485.5,143.5C 492.034,131.085 500.034,119.752 509.5,109.5 Z"/></g>
<g><path style="opacity:1" fill="#349cd6" d="M 274.5,125.5 C 286.839,125.209 298.839,127.042 310.5,131C 314.795,132.845 315.462,135.512 312.5,139C 298.483,145.336 283.817,147.669 268.5,146C 267.069,145.535 265.903,144.701 265,143.5C 264.298,137.242 267.132,134.742 273.5,136C 281.673,140.395 290.34,142.062 299.5,141C 304.71,140.65 306.377,138.15 304.5,133.5C 294.296,129.132 283.629,127.132 272.5,127.5C 273.167,126.833 273.833,126.167 274.5,125.5 Z"/></g>
<g><path style="opacity:0.884" fill="#2c99d5" d="M 552.5,167.5 C 555.5,167.5 558.5,167.5 561.5,167.5C 561.432,184.196 560.765,200.863 559.5,217.5C 542.167,217.5 524.833,217.5 507.5,217.5C 506.763,202.178 506.43,186.845 506.5,171.5C 522.002,170.443 537.335,169.109 552.5,167.5 Z"/></g>
<g><path style="opacity:1" fill="#f8fcfd" d="M 291.5,192.5 C 291.44,191.957 291.107,191.624 290.5,191.5C 289.503,198.134 289.17,204.8 289.5,211.5C 288.068,213.647 286.235,213.98 284,212.5C 283.333,201.5 283.333,190.5 284,179.5C 286.333,176.833 288.667,176.833 291,179.5C 296,186.167 301,192.833 306,199.5C 306.335,190.474 307.001,181.474 308,172.5C 312.433,170.338 314.6,171.671 314.5,176.5C 313.778,185.818 313.278,195.152 313,204.5C 312.091,208.951 309.591,210.617 305.5,209.5C 300.81,203.814 296.143,198.147 291.5,192.5 Z"/></g>
<g><path style="opacity:1" fill="#f8fbfd" d="M 230.5,172.5 C 232.39,172.297 233.89,172.963 235,174.5C 235.333,177.833 235.667,181.167 236,184.5C 241.282,186.293 241.782,188.96 237.5,192.5C 236.815,198.721 236.148,204.888 235.5,211C 232.783,212.033 230.949,211.2 230,208.5C 229.501,204.179 229.334,199.846 229.5,195.5C 219.737,194.766 215.737,199.266 217.5,209C 215.741,209.798 214.074,209.631 212.5,208.5C 211.607,205.916 211.274,203.249 211.5,200.5C 206.932,200.917 205.432,198.917 207,194.5C 208.333,193.833 209.667,193.167 211,192.5C 211.333,187.5 211.667,182.5 212,177.5C 213.726,176.424 215.559,176.257 217.5,177C 218.297,180.745 218.797,184.579 219,188.5C 221.899,189.579 224.733,189.246 227.5,187.5C 228.328,183.204 228.828,178.871 229,174.5C 229.717,173.956 230.217,173.289 230.5,172.5 Z"/></g>
<g><path style="opacity:1" fill="#f8fbfd" d="M 256.5,172.5 C 257.873,172.343 259.207,172.51 260.5,173C 264.34,178.334 268.34,183.5 272.5,188.5C 273.825,194.153 275.991,199.486 279,204.5C 280.583,209.1 279.083,210.934 274.5,210C 271.787,206.076 269.453,201.909 267.5,197.5C 262.7,196.701 258.2,197.701 254,200.5C 252.897,204.178 251.73,207.845 250.5,211.5C 244.854,212.491 243.188,210.158 245.5,204.5C 244.723,202.553 243.723,200.72 242.5,199C 243.744,196.618 245.577,194.785 248,193.5C 249.572,185.944 252.405,178.944 256.5,172.5 Z"/></g>
<g><path style="opacity:1" fill="#f6fafd" d="M 344.5,173.5 C 347.238,172.965 349.072,173.965 350,176.5C 351.452,186.802 352.119,197.135 352,207.5C 349.373,209.988 346.54,210.155 343.5,208C 338.333,202.833 333.167,197.667 328,192.5C 327.667,198.5 327.333,204.5 327,210.5C 324.224,212.14 322.224,211.473 321,208.5C 320,199.846 319.667,191.179 320,182.5C 321.808,180.604 323.975,180.104 326.5,181C 332.376,186.708 338.042,192.541 343.5,198.5C 343.965,190.111 344.299,181.777 344.5,173.5 Z"/></g>
<g><path style="opacity:1" fill="#f6fafd" d="M 395.5,174.5 C 397.722,174.178 399.556,174.845 401,176.5C 401.5,185.494 401.666,194.494 401.5,203.5C 410.817,202.556 420.151,202.39 429.5,203C 432.167,205 432.167,207 429.5,209C 418.825,209.637 408.158,209.97 397.5,210C 396.107,208.829 395.273,207.329 395,205.5C 394.192,195.09 394.359,184.757 395.5,174.5 Z"/></g>
<g><path style="opacity:1" fill="#f8fbfd" d="M 184.5,175.5 C 188.308,175.163 191.974,175.663 195.5,177C 198.432,180.146 198.098,182.646 194.5,184.5C 191.752,182.709 188.752,182.209 185.5,183C 178.041,186.143 171.541,190.643 166,196.5C 165.219,197.944 165.386,199.277 166.5,200.5C 178.179,201.833 189.846,201.5 201.5,199.5C 205.073,199.427 206.24,201.094 205,204.5C 203.509,206.004 201.676,206.837 199.5,207C 195.5,207.333 191.5,207.667 187.5,208C 179.395,208.934 171.395,208.601 163.5,207C 157.889,202.618 157.056,197.452 161,191.5C 167.807,184.524 175.641,179.191 184.5,175.5 Z"/></g>
<g><path style="opacity:1" fill="#f8fbfd" d="M 360.5,176.5 C 369.085,176.183 377.585,176.517 386,177.5C 386.825,179.701 386.325,181.534 384.5,183C 377.842,183.5 371.175,183.666 364.5,183.5C 364.5,185.5 364.5,187.5 364.5,189.5C 370.822,188.723 377.155,188.556 383.5,189C 385.318,192.387 384.318,194.387 380.5,195C 375.536,195.912 370.536,196.412 365.5,196.5C 365.261,198.467 365.594,200.301 366.5,202C 373.77,201.185 381.104,200.685 388.5,200.5C 389.275,204.182 387.941,206.682 384.5,208C 376.833,208.667 369.167,208.667 361.5,208C 360.044,205.734 359.21,203.234 359,200.5C 357.835,193.528 357.502,186.528 358,179.5C 359.045,178.627 359.878,177.627 360.5,176.5 Z"/></g>
<g><path style="opacity:1" fill="#f3f9fc" d="M 525.5,175.5 C 528.365,175.055 530.865,175.722 533,177.5C 533.667,189.167 533.667,200.833 533,212.5C 530.084,214.013 527.418,213.68 525,211.5C 524.501,206.845 524.334,202.179 524.5,197.5C 523.167,197.5 521.833,197.5 520.5,197.5C 520.666,202.511 520.499,207.511 520,212.5C 517.084,214.013 514.418,213.68 512,211.5C 511.5,199.838 511.333,188.171 511.5,176.5C 514.448,176.223 517.281,176.556 520,177.5C 520.499,181.486 520.666,185.486 520.5,189.5C 521.833,189.5 523.167,189.5 524.5,189.5C 524.226,184.737 524.559,180.07 525.5,175.5 Z"/></g>
<g><path style="opacity:1" fill="#f9fcfd" d="M 536.5,176.5 C 542.176,176.334 547.843,176.501 553.5,177C 554.667,178.167 555.833,179.333 557,180.5C 557.859,190.219 557.526,199.885 556,209.5C 554.681,211.487 552.848,212.654 550.5,213C 545.845,213.499 541.179,213.666 536.5,213.5C 536.5,201.167 536.5,188.833 536.5,176.5 Z"/></g>
<g><path style="opacity:1" fill="#49a6db" d="M 258.5,183.5 C 264.416,187.683 263.75,190.35 256.5,191.5C 256.963,188.779 257.629,186.112 258.5,183.5 Z"/></g>
<g><path style="opacity:1" fill="#279ad5" d="M 544.5,183.5 C 545.822,183.33 546.989,183.663 548,184.5C 548.5,191.492 548.666,198.492 548.5,205.5C 547.167,205.5 545.833,205.5 544.5,205.5C 544.5,198.167 544.5,190.833 544.5,183.5 Z"/></g>
<g><path style="opacity:1" fill="#c3e2f3" d="M 291.5,192.5 C 290.833,198.833 290.167,205.167 289.5,211.5C 289.17,204.8 289.503,198.134 290.5,191.5C 291.107,191.624 291.44,191.957 291.5,192.5 Z"/></g>
</svg>
