<?xml version="1.0" encoding="UTF-8"?>
<!DOCTYPE svg PUBLIC "-//W3C//DTD SVG 1.1//EN" "http://www.w3.org/Graphics/SVG/1.1/DTD/svg11.dtd">
<svg xmlns="http://www.w3.org/2000/svg" version="1.1" width="292px" height="64px" style="shape-rendering:geometricPrecision; text-rendering:geometricPrecision; image-rendering:optimizeQuality; fill-rule:evenodd; clip-rule:evenodd" xmlns:xlink="http://www.w3.org/1999/xlink">
<g><path style="opacity:1" fill="#ffffff" d="M 45.5,2.5 C 56.505,2.33349 67.505,2.50015 78.5,3C 92.9315,6.94214 99.9315,16.4421 99.5,31.5C 99.6923,47.4639 92.0256,56.9639 76.5,60C 66.172,60.4998 55.8387,60.6665 45.5,60.5C 45.5,41.1667 45.5,21.8333 45.5,2.5 Z"/></g>
<g><path style="opacity:1" fill="#ffffff" d="M 103.5,2.5 C 110.841,2.33368 118.174,2.50034 125.5,3C 128.727,12.8485 132.061,22.6818 135.5,32.5C 139.75,22.8445 143.083,12.8445 145.5,2.5C 153.167,2.5 160.833,2.5 168.5,2.5C 168.5,21.8333 168.5,41.1667 168.5,60.5C 146.833,60.5 125.167,60.5 103.5,60.5C 103.5,41.1667 103.5,21.8333 103.5,2.5 Z"/></g>
<g><path style="opacity:1" fill="#ffffff" d="M 191.5,2.5 C 196.875,2.17182 202.208,2.50515 207.5,3.5C 214.5,22.1667 221.5,40.8333 228.5,59.5C 209.167,60.8333 189.833,60.8333 170.5,59.5C 177.704,40.5533 184.704,21.5533 191.5,2.5 Z"/></g>
<g><path style="opacity:1" fill="#ffffff" d="M 232.5,3.5 C 250.338,2.17264 268.338,2.17264 286.5,3.5C 280.376,12.2468 274.376,21.0801 268.5,30C 274.971,39.9701 281.638,49.8034 288.5,59.5C 269.175,60.6664 249.842,60.833 230.5,60C 237.917,50.4993 244.584,40.4993 250.5,30C 245.043,20.7256 239.043,11.8923 232.5,3.5 Z"/></g>
<g><path style="opacity:1" fill="#ffffff" d="M 2.5,22.5 C 4.5,22.5 6.5,22.5 8.5,22.5C 8.5,24.8333 8.5,27.1667 8.5,29.5C 9.83333,29.5 11.1667,29.5 12.5,29.5C 12.5,27.1667 12.5,24.8333 12.5,22.5C 14.8333,22.5 17.1667,22.5 19.5,22.5C 19.5,29.1667 19.5,35.8333 19.5,42.5C 17.1667,42.5 14.8333,42.5 12.5,42.5C 12.5,40.1667 12.5,37.8333 12.5,35.5C 11.1667,35.5 9.83333,35.5 8.5,35.5C 8.5,37.8333 8.5,40.1667 8.5,42.5C 6.5,42.5 4.5,42.5 2.5,42.5C 2.5,35.8333 2.5,29.1667 2.5,22.5 Z"/></g>
<g><path style="opacity:1" fill="#ffffff" d="M 22.5,22.5 C 27.2973,22.1211 31.964,22.6211 36.5,24C 42.6733,38.122 38.0066,44.2886 22.5,42.5C 22.5,35.8333 22.5,29.1667 22.5,22.5 Z M 28.5,27.5 C 31.2721,27.6273 32.6054,29.1273 32.5,32C 32.8727,34.617 31.8727,36.4503 29.5,37.5C 28.513,34.2317 28.1796,30.8984 28.5,27.5 Z"/></g>
</svg>
