<svg xmlns="http://www.w3.org/2000/svg" width="1200" height="171" style="shape-rendering:geometricPrecision;text-rendering:geometricPrecision;image-rendering:optimizeQuality;fill-rule:evenodd;clip-rule:evenodd"><path style="opacity:1" fill="#a69e94" d="M-.5-.5h171v171H-.5V-.5z"/><path style="opacity:1" fill="#f9f9f8" d="M170.5-.5h15v171h-15V-.5z"/><path style="opacity:1" fill="#a69e94" d="M185.5-.5h1014v171h-1014V-.5z"/><path style="opacity:1" fill="#cac5bf" d="M37.5 30.5c-.31 3.213.023 6.213 1 9h66v-9c.979 3.125 1.313 6.458 1 10h-69c-.313-3.542.02-6.875 1-10z"/><path style="opacity:1" fill="#fcfdfc" d="M104.5 31.5v8h-66v-8h66z"/><path style="opacity:1" fill="#f0efed" d="M37.5 30.5h67v1h-66v8c-.977-2.787-1.31-5.787-1-9z"/><path style="opacity:1" fill="#fcfcfc" d="M595.5 40.5h12a289.882 289.882 0 0 0 1 34c.607-.124.94-.457 1-1 5.312-6.98 12.312-9.48 21-7.5 8.156 1.657 13.156 6.49 15 14.5v43h-12a380.93 380.93 0 0 0-1-39c-1.745-5.47-5.578-8.137-11.5-8-5.191.172-9.191 2.505-12 7a276.794 276.794 0 0 0-1.5 40h-12v-83z"/><path style="opacity:1" fill="#c7c1bb" d="m607.5 40.5 2 33c-.06.543-.393.876-1 1a289.882 289.882 0 0 1-1-34z"/><path style="opacity:1" fill="#fcfdfc" d="M675.5 40.5v83h-12v-83h12z"/><path style="opacity:1" fill="#fbfbfa" d="M884.5 40.5v83h-12a16.873 16.873 0 0 0-1-8c-.607.124-.94.457-1 1-8.744 9.792-19.077 11.625-31 5.5-8.531-7.063-12.531-16.23-12-27.5 1.169-20.342 11.836-29.842 32-28.5 4.393 1.523 8.06 4.023 11 7.5.06.543.393.876 1 1a289.882 289.882 0 0 0 1-34h12z"/><path style="opacity:1" fill="#f9f9f8" d="M1053.5 40.5h13v84h-14c.16-3.018 0-6.018-.5-9-3.48 5.126-8.31 8.292-14.5 9.5-15.06 1.643-24.39-4.857-28-19.5a97.201 97.201 0 0 1-1-16c4.24-19.117 15.91-26.617 35-22.5 3.78 1.377 6.45 3.877 8 7.5.06.543.39.876 1 1 1-11.648 1.33-23.314 1-35z"/><path style="opacity:1" fill="#efeeec" d="M595.5 40.5v83h12c-4.134.985-8.468 1.318-13 1-.331-28.172.002-56.172 1-84z"/><path style="opacity:1" fill="#e8e7e4" d="M675.5 40.5h1v84h-13v-1h12v-83z"/><path style="opacity:1" fill="#d4d0cc" d="M885.5 40.5h-13a289.882 289.882 0 0 1-1 34c-.607-.124-.94-.457-1-1 .995-11.154 1.328-22.488 1-34 4.863-.32 9.53.014 14 1z"/><path style="opacity:1" fill="#e7e6e3" d="M884.5 40.5h1v84h-14c.306-2.885-.027-5.552-1-8 .06-.543.393-.876 1-1a16.873 16.873 0 0 1 1 8h12v-83z"/><path style="opacity:1" fill="#e9e8e5" d="M1053.5 40.5c.33 11.686 0 23.352-1 35-.61-.124-.94-.457-1-1 .67-11.333 1.33-22.667 2-34z"/><path style="opacity:1" fill="#f9f8f8" d="M1085.5 42.5c3.76-.43 7.26.237 10.5 2 3.21 9.08.05 13.247-9.5 12.5-6.31-4.385-6.64-9.218-1-14.5z"/><path style="opacity:1" fill="#fbfbfb" d="M223.5 45.5c10.006-.166 20.006 0 30 .5 17.791 1.288 28.957 10.455 33.5 27.5 3.095 15.517-.405 29.183-10.5 41-6.33 5.335-13.663 8.335-22 9h-31v-78z"/><path style="opacity:1" fill="#f8f8f7" d="M37.5 49.5h93v15h-93v-15z"/><path style="opacity:1" fill="#fcfcfb" d="M436.5 54.5h13v12c3.798.983 7.798 1.317 12 1v9h-12c-.328 11.18.005 22.18 1 33a9.175 9.175 0 0 0 2 4.5c3.368.543 6.701.376 10-.5v11c-8.254 2.393-15.754 1.06-22.5-4a42.302 42.302 0 0 1-3.5-8v-36h-8v-9h8v-13z"/><path style="opacity:1" fill="#a7a096" d="M237.5 57.5c30.196-1.337 41.029 12.663 32.5 42-3.176 7.169-8.676 11.336-16.5 12.5-5.323.499-10.656.666-16 .5v-55z"/><path style="opacity:1" fill="#fafaf9" d="M353.5 88.5v10h-42c-.284 1.915.049 3.581 1 5 4.748 12.254 13.081 15.254 25 9a18.924 18.924 0 0 0 3-5 43.117 43.117 0 0 1 13-1c-1.956 11.119-8.623 17.286-20 18.5-22.754 2.406-34.421-7.76-35-30.5 1.512-20.952 12.846-30.452 34-28.5 12.39 2.554 19.39 10.054 21 22.5z"/><path style="opacity:1" fill="#d6d2ce" d="M436.5 54.5v13h-8c2.107-.968 4.441-1.302 7-1-.317-4.202.017-8.202 1-12z"/><path style="opacity:1" fill="#e0deda" d="M498.5 66.5a96.939 96.939 0 0 0-16 1c2.856-1.506 6.023-2.172 9.5-2 2.361.004 4.527.337 6.5 1z"/><path style="opacity:1" fill="#fafafa" d="M498.5 66.5c7.931.605 13.265 4.605 16 12v4h-11c-3.25-6.613-8.583-8.78-16-6.5-5.56 4.522-5.227 8.522 1 12a109.77 109.77 0 0 1 20 5c7.805 3.78 10.638 9.947 8.5 18.5-4.126 10.239-11.793 14.906-23 14-13.769.712-21.602-5.621-23.5-19h13c.143 6.474 3.477 9.474 10 9a23.813 23.813 0 0 0 8-1.5c4-3.667 4-7.333 0-11a740.912 740.912 0 0 0-20-5c-8.677-4.19-11.843-11.024-9.5-20.5 2.053-4.887 5.553-8.22 10.5-10a96.939 96.939 0 0 1 16-1zM580.5 82.5v4h-12c-.632-4.805-3.299-7.972-8-9.5-13.343-1.67-20.343 4.33-21 18 .844 17.751 9.51 23.418 26 17 2.282-2.397 3.616-5.231 4-8.5 4.471-.589 8.471.077 12 2-2.17 11.003-8.837 17.503-20 19.5-26.725 1.133-38.225-11.701-34.5-38.5 8.617-20.05 23.117-25.883 43.5-17.5 5.48 2.97 8.814 7.47 10 13.5zM731.5 73.5c.06.543.393.876 1 1a13.115 13.115 0 0 0 1-7h12v56h-12a16.873 16.873 0 0 0-1-8c-.607.124-.94.457-1 1-7.629 9.035-16.962 11.201-28 6.5-9.708-6.924-14.375-16.424-14-28.5 1.026-19.867 11.36-29.367 31-28.5 4.741 1.029 8.408 3.529 11 7.5z"/><path style="opacity:1" fill="#fafaf9" d="M788.5 65.5c5.902-.538 11.568.295 17 2.5 5.791 3.074 8.957 7.907 9.5 14.5.5 13.996.667 27.996.5 42h-14c.167-14.004 0-28.004-.5-42-5.475-6.417-11.975-7.584-19.5-3.5a69.162 69.162 0 0 0-4.5 6.5 760.311 760.311 0 0 0-.5 39h-13v-58h13a40.911 40.911 0 0 0 .5 9c2.794-4.634 6.627-7.967 11.5-10z"/><path style="opacity:1" fill="#fbfbfb" d="M930.5 66.5h3v11c-1.291-.237-2.291.096-3 1-7.121-.02-11.954 3.313-14.5 10a647.854 647.854 0 0 0-.5 36h-13v-58h13c-.165 3.35.002 6.683.5 10 3.098-5.943 7.931-9.276 14.5-10z"/><path style="opacity:1" fill="#e4e2df" d="M930.5 66.5c1.068-.934 2.401-1.268 4-1v13h-4c.709-.904 1.709-1.237 3-1v-11h-3z"/><path style="opacity:1" fill="#fbfafa" d="M980.5 73.5c.06.543.393.876 1 1a13.115 13.115 0 0 0 1-7h12v56h-12a16.873 16.873 0 0 0-1-8c-.607.124-.94.457-1 1-8.411 9.729-18.411 11.562-30 5.5-9.886-9.339-13.719-20.839-11.5-34.5 5.389-18.442 17.223-24.942 35.5-19.5 2.496 1.331 4.496 3.164 6 5.5z"/><path style="opacity:1" fill="#fafafa" d="M1167.5 84.5a89.522 89.522 0 0 1 1 15c-2.31 16.683-11.98 25.35-29 26-14.87-.375-24.37-7.708-28.5-22-3.64-22.347 5.69-35.014 28-38 14-.136 23.5 6.197 28.5 19z"/><path style="opacity:1" fill="#fbfbfb" d="M366.5 66.5h13c-.167 13.338 0 26.67.5 40 1.384 5.561 4.884 8.228 10.5 8 7.144.183 11.644-3.151 13.5-10 .5-12.662.667-25.329.5-38h13v58h-13a32.462 32.462 0 0 0-.5-8c-8.73 9.601-18.896 11.435-30.5 5.5-3.866-3.252-6.033-7.419-6.5-12.5-.5-14.33-.667-28.663-.5-43z"/><path style="opacity:1" fill="#e1dfdb" d="M449.5 66.5h13v10h-1v-9c-4.202.317-8.202-.017-12-1z"/><path style="opacity:1" fill="#e4e2df" d="M731.5 116.5c.06-.543.393-.876 1-1a16.873 16.873 0 0 1 1 8h12v-56h-12a13.115 13.115 0 0 1-1 7c-.607-.124-.94-.457-1-1 .968-2.107 1.302-4.44 1-7h14v58h-14c.306-2.885-.027-5.552-1-8z"/><path style="opacity:1" fill="#fcfcfb" d="M1083.5 66.5h13v58h-13v-58z"/><path style="opacity:1" fill="#dddad6" d="M980.5 116.5c.06-.543.393-.876 1-1a16.873 16.873 0 0 1 1 8h12v-56h-12a13.115 13.115 0 0 1-1 7c-.607-.124-.94-.457-1-1 .968-2.107 1.302-4.44 1-7h14v58h-14c.306-2.885-.027-5.552-1-8z"/><path style="opacity:1" fill="#a8a097" d="M321.5 75.5c11.372-1.839 17.706 2.828 19 14h-28c.497-6.338 3.497-11.004 9-14z"/><path style="opacity:1" fill="#a79f95" d="M712.5 76.5c10-1.92 16.834 1.746 20.5 11 2.347 9.526.18 17.693-6.5 24.5-11.88 5.809-19.38 2.309-22.5-10.5-2.401-10.302.433-18.635 8.5-25zM850.5 76.5c17.408-1.418 24.575 6.582 21.5 24-3.386 12.444-11.219 16.61-23.5 12.5-3.043-2.593-5.21-5.76-6.5-9.5a52.76 52.76 0 0 1 1-19c2.028-3.192 4.528-5.859 7.5-8zM961.5 76.5c16.345-1.145 23.178 6.522 20.5 23-2.519 12.842-10.019 17.342-22.5 13.5-3.031-2.559-5.198-5.726-6.5-9.5-2.964-11.104-.13-20.104 8.5-27zM1031.5 76.5c9.32-2.249 16.16.751 20.5 9 .88 7.082.55 14.082-1 21-5.38 7.79-12.54 9.957-21.5 6.5-2.93-2.264-5.1-5.098-6.5-8.5-.67-6-.67-12 0-18 1.98-4.138 4.81-7.471 8.5-10zM1133.5 76.5c9.32-2.249 16.16.751 20.5 9 2.17 7.441 1.84 14.774-1 22-5.23 6.596-12.06 8.763-20.5 6.5-9.74-9.007-11.58-19.507-5.5-31.5a53.698 53.698 0 0 1 6.5-6z"/><path style="opacity:1" fill="#c6c0ba" d="M428.5 76.5h8v36c-.995-11.488-1.328-23.155-1-35-2.559.302-4.893-.032-7-1z"/><path style="opacity:1" fill="#b4ada5" d="M461.5 76.5h1c-3.798.983-7.798 1.317-12 1v32c-.995-10.82-1.328-21.82-1-33h12z"/><path style="opacity:1" fill="#d3cfca" d="M514.5 78.5c.951 1.419 1.284 3.085 1 5-4.202.317-8.202-.017-12-1h11v-4z"/><path style="opacity:1" fill="#e0ddd9" d="M580.5 82.5c.951 1.419 1.284 3.085 1 5-4.532.318-8.866-.015-13-1h12v-4z"/><path style="opacity:1" fill="#dedbd7" d="M645.5 80.5a484.727 484.727 0 0 1 1 44h-14v-40a380.93 380.93 0 0 1 1 39h12v-43z"/><path style="opacity:1" fill="#d7d3cf" d="M676.5 40.5h-13v84a1807.262 1807.262 0 0 1-1-85c4.863-.32 9.53.014 14 1z"/><path style="opacity:1" fill="#d8d5d1" d="M1167.5 84.5c1.49 2.686 2.16 5.686 2 9 0 2.197-.34 4.197-1 6a89.522 89.522 0 0 0-1-15z"/><path style="opacity:1" fill="#bab4ad" d="M1008.5 89.5c-.11 5.37.23 10.703 1 16-1.51-2.856-2.17-6.023-2-9.5 0-2.36.34-4.527 1-6.5z"/><path style="opacity:1" fill="#e8e7e4" d="M38.5 75.5v21h101v-21c.992 7.148 1.325 14.48 1 22h-103c-.325-7.52.008-14.852 1-22z"/><path style="opacity:1" fill="#fcfdfc" d="M38.5 75.5h101v21h-101v-21z"/><path style="opacity:1" fill="#b1aaa1" d="M353.5 88.5c.982 3.462 1.315 7.129 1 11h-42v4c-.951-1.419-1.284-3.085-1-5h42v-10z"/><path style="opacity:1" fill="#d6d3ce" d="M569.5 103.5c4.134-.985 8.468-1.318 13-1 .237 1.291-.096 2.291-1 3-3.529-1.923-7.529-2.589-12-2z"/><path style="opacity:1" fill="#b4aea5" d="M37.5 108.5a1893.415 1893.415 0 0 1 87-1c.319 4.863-.014 9.53-1 14v-13h-86z"/><path style="opacity:1" fill="#fcfcfb" d="M38.5 108.5h85v12h-85v-12z"/><path style="opacity:1" fill="#f0eeec" d="M37.5 108.5h1v12h85v1h-86v-13z"/><path style="opacity:1" fill="#d8d5d1" d="M223.5 45.5v78h31c-10.487.994-21.154 1.328-32 1-.331-26.505.002-52.839 1-79z"/><path style="opacity:1" fill="#fcfcfc" d="M104.5 132.5v7h-3a992.735 992.735 0 0 0-63-1v-6h66z"/><path style="opacity:1" fill="#f0efed" d="M104.5 131.5v1h-66v6a992.735 992.735 0 0 1 63 1h-64v-8h67z"/><path style="opacity:1" fill="#bbb4ad" d="M104.5 131.5c.977 2.787 1.31 5.787 1 9-22.84.331-45.506-.003-68-1h67v-8z"/></svg>