<svg xmlns="http://www.w3.org/2000/svg" width="70.556mm" height="9.903mm" viewBox="0 0 200 28.07">
  <g>
    <polygon style="fill:#c5143e;fill-opacity:1" points="0 0 16.17 28.07 32.341 0 0 0"/>
    <rect style="fill:#c5143e;fill-opacity:1" x="34.383" width="165.617" height="28.07"/>
    <polygon style="fill:#ffffff;fill-opacity:1" points="83.149 16.046 77.815 6.067 74.947 6.067 74.947 21.935 77.845 21.935 77.845 12.531 83.149 21.908 88.432 12.531 88.432 21.935 91.352 21.935 91.352 6.067 88.463 6.067 83.149 16.046"/>
    <path style="fill:#ffffff;fill-opacity:1" d="M172.995,6.07h-6.12V21.938h5.991c4.81,0,7.687-3.05,7.687-7.9C180.553,9.14,177.718,6.07,172.995,6.07Zm-.021,13.055H169.8V8.882h3.2c2.962,0,4.508,2.3,4.508,5.089C177.5,16.806,175.957,19.125,172.973,19.125Z"/>
    <path style="fill:#ffffff;fill-opacity:1" d="M46.618,6.07H40.5V21.938h5.991c4.81,0,7.686-3.05,7.686-7.9C54.175,9.14,51.341,6.07,46.618,6.07ZM46.6,19.125H43.418V8.882h3.2c2.962,0,4.508,2.3,4.508,5.089C51.126,16.806,49.58,19.125,46.6,19.125Z"/>
    <polygon style="fill:#ffffff;fill-opacity:1" points="193.886 8.819 193.886 6.07 183.344 6.07 183.344 21.938 193.886 21.938 193.886 19.188 186.285 19.188 186.285 15.282 193.306 15.282 193.306 12.554 186.285 12.554 186.285 8.819 193.886 8.819"/>
    <path style="fill:#ffffff;fill-opacity:1" d="M64.294,5.791a8.184,8.184,0,0,0-8.246,8.266,8.028,8.028,0,0,0,8.2,8.139,8.2,8.2,0,1,0,.044-16.4Zm0,13.527a5.145,5.145,0,0,1-5.2-5.3,5.2,5.2,0,1,1,10.392,0A5.133,5.133,0,0,1,64.294,19.318Z"/>
    <path style="fill:#ffffff;fill-opacity:1" d="M114.17,6.07l-6.141,15.868h3.114l1.309-3.607h5.625l1.31,3.607H122.5L116.424,6.07Zm-.859,9.619,1.976-5.432,1.953,5.432Z"/>
    <rect style="fill:#ffffff;fill-opacity:1" x="140.357" y="6.07" width="2.941" height="15.868"/>
    <path style="fill:#ffffff;fill-opacity:1" d="M130.31,6.07h-6.12V21.938h5.991c4.81,0,7.687-3.05,7.687-7.9C137.867,9.14,135.033,6.07,130.31,6.07Zm-.023,13.055H127.11V8.882h3.2c2.962,0,4.509,2.3,4.509,5.089C134.819,16.806,133.272,19.125,130.287,19.125Z"/>
    <path style="fill:#ffffff;fill-opacity:1" d="M153.947,5.791a8.185,8.185,0,0,0-8.246,8.266,8.028,8.028,0,0,0,8.2,8.139,8.2,8.2,0,1,0,.044-16.4Zm0,13.527a5.146,5.146,0,0,1-5.2-5.3,5.2,5.2,0,1,1,10.393,0A5.133,5.133,0,0,1,153.947,19.318Z"/>
    <path style="fill:#ffffff;fill-opacity:1" d="M163.273,19.165a1.488,1.488,0,1,0,0,2.976,1.488,1.488,0,0,0,0-2.976Z"/>
    <path style="fill:#ffffff;fill-opacity:1" d="M106.262,11.03c0-2.577-1.7-4.96-5.325-4.96h-5.9V21.938h2.919V15.99h1.954l3.542,5.948h3.479l-3.993-6.291A4.672,4.672,0,0,0,106.262,11.03Zm-5.647,2.318H97.952V8.8h2.985a2.167,2.167,0,0,1,2.319,2.253C103.256,12.211,102.525,13.349,100.614,13.349Z"/>
  </g>
</svg>
