<?xml version="1.0" encoding="UTF-8"?>
<!DOCTYPE svg PUBLIC "-//W3C//DTD SVG 1.1//EN" "http://www.w3.org/Graphics/SVG/1.1/DTD/svg11.dtd">
<svg xmlns="http://www.w3.org/2000/svg" version="1.1" width="71px" height="120px" style="shape-rendering:geometricPrecision; text-rendering:geometricPrecision; image-rendering:optimizeQuality; fill-rule:evenodd; clip-rule:evenodd" xmlns:xlink="http://www.w3.org/1999/xlink">
<g><path style="opacity:1" fill="#ffffff" d="M -0.5,-0.5 C 12.1667,-0.5 24.8333,-0.5 37.5,-0.5C 36.6365,5.45491 36.3032,11.4549 36.5,17.5C 31.1667,17.5 25.8333,17.5 20.5,17.5C 20.5,22.5 20.5,27.5 20.5,32.5C 25.7616,32.1953 30.9283,32.5286 36,33.5C 35.6127,38.4134 35.446,43.4134 35.5,48.5C 30.5,48.5 25.5,48.5 20.5,48.5C 20.5,55.5 20.5,62.5 20.5,69.5C 25.1667,69.5 29.8333,69.5 34.5,69.5C 34.5,75.1667 34.5,80.8333 34.5,86.5C 23.8333,86.5 13.1667,86.5 2.5,86.5C 1.78081,62.998 0.78081,39.6647 -0.5,16.5C -0.5,10.8333 -0.5,5.16667 -0.5,-0.5 Z"/></g>
<g><path style="opacity:1" fill="#ffffff" d="M 34.5,119.5 C 23.8333,119.5 13.1667,119.5 2.5,119.5C 2.5,110.5 2.5,101.5 2.5,92.5C 13.1667,92.5 23.8333,92.5 34.5,92.5C 34.5,101.5 34.5,110.5 34.5,119.5 Z"/></g>
<g><path style="opacity:1" fill="#ffffff" d="M 55.5,119.5 C 53.8333,119.5 52.1667,119.5 50.5,119.5C 50.5,115.833 50.5,112.167 50.5,108.5C 49.1667,108.5 47.8333,108.5 46.5,108.5C 46.5,112.167 46.5,115.833 46.5,119.5C 44.8333,119.5 43.1667,119.5 41.5,119.5C 41.5,110.5 41.5,101.5 41.5,92.5C 42.8333,92.5 44.1667,92.5 45.5,92.5C 45.5,96.1667 45.5,99.8333 45.5,103.5C 47.1667,103.5 48.8333,103.5 50.5,103.5C 50.5,99.8333 50.5,96.1667 50.5,92.5C 52.1667,92.5 53.8333,92.5 55.5,92.5C 55.5,101.5 55.5,110.5 55.5,119.5 Z"/></g>
<g><path style="opacity:1" fill="#ffffff" d="M 70.5,96.5 C 70.5,103.5 70.5,110.5 70.5,117.5C 69.5,117.833 68.8333,118.5 68.5,119.5C 64.8333,119.5 61.1667,119.5 57.5,119.5C 57.5,110.5 57.5,101.5 57.5,92.5C 60.8499,92.335 64.1832,92.5017 67.5,93C 68.6364,94.1451 69.6364,95.3117 70.5,96.5 Z M 61.5,96.5 C 63.1439,96.2865 64.6439,96.6198 66,97.5C 66.6667,103.167 66.6667,108.833 66,114.5C 64.6439,115.38 63.1439,115.714 61.5,115.5C 61.5,109.167 61.5,102.833 61.5,96.5 Z"/></g>
<g><path style="opacity:0.004" fill="#ffffff" d="M 47.5,112.5 C 48.8333,113.167 48.8333,113.167 47.5,112.5 Z"/></g>
</svg>
