<?xml version="1.0" encoding="UTF-8"?>
<!DOCTYPE svg PUBLIC "-//W3C//DTD SVG 1.1//EN" "http://www.w3.org/Graphics/SVG/1.1/DTD/svg11.dtd">
<svg xmlns="http://www.w3.org/2000/svg" version="1.1" width="700px" height="177px" style="shape-rendering:geometricPrecision; text-rendering:geometricPrecision; image-rendering:optimizeQuality; fill-rule:evenodd; clip-rule:evenodd" xmlns:xlink="http://www.w3.org/1999/xlink">
<g><path style="opacity:1" fill="#ffffff" d="M 163.5,2.5 C 165.16,20.8153 166.16,39.482 166.5,58.5C 184.406,46.3382 202.739,45.5049 221.5,56C 234.72,67.807 241.053,82.6403 240.5,100.5C 239.68,135.814 222.013,156.98 187.5,164C 168.121,165.564 148.788,165.064 129.5,162.5C 129.5,112.167 129.5,61.8333 129.5,11.5C 141.098,9.10193 152.431,6.10193 163.5,2.5 Z M 178.5,74.5 C 189.037,74.0172 196.204,78.6839 200,88.5C 204.015,102.709 202.682,116.376 196,129.5C 187.673,138.498 177.673,141.165 166,137.5C 165.333,119.5 165.333,101.5 166,83.5C 168.917,78.6369 173.083,75.6369 178.5,74.5 Z"/></g>
<g><path style="opacity:1" fill="#ffffff" d="M 288.5,9.5 C 309.133,7.41005 328.633,11.0767 347,20.5C 347.257,23.0168 346.59,25.3502 345,27.5C 341.824,33.8626 338.157,39.8626 334,45.5C 322.227,40.8451 310.06,38.6784 297.5,39C 282.514,43.9367 280.847,51.6034 292.5,62C 304.674,68.9209 317.007,75.5876 329.5,82C 351.497,96.6572 357.33,116.157 347,140.5C 338.866,152.265 327.699,159.765 313.5,163C 288.931,169.218 265.931,165.718 244.5,152.5C 249.128,144.742 254.128,137.242 259.5,130C 270.671,132.659 282.004,134.825 293.5,136.5C 301.736,136.466 308.236,133.132 313,126.5C 313.581,116.837 309.414,110.003 300.5,106C 285.336,98.5899 271.002,89.9232 257.5,80C 246.365,67.9466 243.531,54.1132 249,38.5C 253.061,29.772 259.228,22.9386 267.5,18C 274.182,14.0582 281.182,11.2248 288.5,9.5 Z"/></g>
<g><path style="opacity:1" fill="#ffffff" d="M 8.5,12.5 C 40.1667,12.5 71.8333,12.5 103.5,12.5C 102.833,21.1667 102.167,29.8333 101.5,38.5C 82.8333,38.5 64.1667,38.5 45.5,38.5C 45.5,49.8333 45.5,61.1667 45.5,72.5C 62.1667,72.5 78.8333,72.5 95.5,72.5C 95.5,81.1667 95.5,89.8333 95.5,98.5C 78.8333,98.5 62.1667,98.5 45.5,98.5C 45.5,110.833 45.5,123.167 45.5,135.5C 66.5,135.5 87.5,135.5 108.5,135.5C 108.5,144.5 108.5,153.5 108.5,162.5C 75.1667,162.5 41.8333,162.5 8.5,162.5C 8.5,112.5 8.5,62.5 8.5,12.5 Z"/></g>
<g><path style="opacity:1" fill="#ffffff" d="M 450.5,31.5 C 459.751,31.1822 468.917,31.5155 478,32.5C 478.5,44.8288 478.667,57.1622 478.5,69.5C 490.5,69.5 502.5,69.5 514.5,69.5C 514.5,79.5 514.5,89.5 514.5,99.5C 502.5,99.5 490.5,99.5 478.5,99.5C 478.5,111.5 478.5,123.5 478.5,135.5C 468.833,135.5 459.167,135.5 449.5,135.5C 449.5,123.5 449.5,111.5 449.5,99.5C 437.5,99.5 425.5,99.5 413.5,99.5C 413.5,89.5 413.5,79.5 413.5,69.5C 425.5,69.5 437.5,69.5 449.5,69.5C 449.187,56.7536 449.52,44.087 450.5,31.5 Z"/></g>
<g><path style="opacity:1" fill="#084ea1" d="M 572.5,41.5 C 614.5,41.5 656.5,41.5 698.5,41.5C 698.5,69.8333 698.5,98.1667 698.5,126.5C 656.5,126.5 614.5,126.5 572.5,126.5C 572.5,98.1667 572.5,69.8333 572.5,41.5 Z"/></g>
<g><path style="opacity:1" fill="#cfc359" d="M 634.5,54.5 C 638.69,54.6459 639.524,56.3126 637,59.5C 636,58.1667 635,58.1667 634,59.5C 633.691,58.2341 633.191,57.0674 632.5,56C 633.416,55.7216 634.082,55.2216 634.5,54.5 Z"/></g>
<g><path style="opacity:1" fill="#dbce4d" d="M 621.5,56.5 C 622.434,57.7725 623.101,59.2725 623.5,61C 622.397,61.1466 621.23,61.98 620,63.5C 619.383,62.5509 619.549,61.7175 620.5,61C 619.833,60.3333 619.167,59.6667 618.5,59C 620.119,58.7645 621.119,57.9311 621.5,56.5 Z"/></g>
<g><path style="opacity:1" fill="#cec259" d="M 648.5,56.5 C 649.534,57.6871 650.867,58.5204 652.5,59C 651.833,59.6667 651.167,60.3333 650.5,61C 651.673,64.1103 651.173,64.277 649,61.5C 648.667,61.8333 648.333,62.1667 648,62.5C 647.535,61.0692 646.701,59.9025 645.5,59C 647.119,58.7645 648.119,57.9311 648.5,56.5 Z"/></g>
<g><path style="opacity:1" fill="#d8cb50" d="M 611.5,66.5 C 612.738,68.2143 613.405,70.2143 613.5,72.5C 611.891,72.9059 610.557,72.9059 609.5,72.5C 610.668,71.0944 610.335,69.9277 608.5,69C 610.119,68.7645 611.119,67.9311 611.5,66.5 Z"/></g>
<g><path style="opacity:1" fill="#cdc15a" d="M 658.5,66.5 C 659.534,67.6871 660.867,68.5204 662.5,69C 661.833,69.6667 661.167,70.3333 660.5,71C 661.673,74.1103 661.173,74.277 659,71.5C 658.667,71.8333 658.333,72.1667 658,72.5C 657.535,71.0692 656.701,69.9025 655.5,69C 657.119,68.7645 658.119,67.9311 658.5,66.5 Z"/></g>
<g><path style="opacity:1" fill="#d5c954" d="M 607.5,80.5 C 608.534,81.6871 609.867,82.5204 611.5,83C 609.792,84.0623 609.126,85.229 609.5,86.5C 608.575,85.3595 607.741,85.3595 607,86.5C 606.535,85.0692 605.701,83.9025 604.5,83C 606.119,82.7645 607.119,81.9311 607.5,80.5 Z"/></g>
<g><path style="opacity:1" fill="#f4e62a" d="M 662.5,80.5 C 663.309,81.4687 664.309,82.3021 665.5,83C 664.809,84.0674 664.309,85.2341 664,86.5C 662.5,85.3333 661,84.1667 659.5,83C 661.119,82.7645 662.119,81.9311 662.5,80.5 Z"/></g>
<g><path style="opacity:1" fill="#f5e727" d="M 611.5,94.5 C 615.018,95.9665 615.185,97.6331 612,99.5C 610.831,98.9915 609.998,98.1581 609.5,97C 610.756,96.5831 611.423,95.7498 611.5,94.5 Z"/></g>
<g><path style="opacity:1" fill="#f6e824" d="M 658.5,94.5 C 662.018,95.9665 662.185,97.6331 659,99.5C 657.831,98.9915 656.998,98.1581 656.5,97C 657.756,96.5831 658.423,95.7498 658.5,94.5 Z"/></g>
<g><path style="opacity:1" fill="#f1e330" d="M 621.5,104.5 C 625.018,105.966 625.185,107.633 622,109.5C 620.829,108.66 619.662,107.827 618.5,107C 620.119,106.764 621.119,105.931 621.5,104.5 Z"/></g>
<g><path style="opacity:1" fill="#f3e52b" d="M 648.5,104.5 C 649.534,105.687 650.867,106.52 652.5,107C 650.312,110.073 648.312,110.073 646.5,107C 647.756,106.583 648.423,105.75 648.5,104.5 Z"/></g>
<g><path style="opacity:1" fill="#c9bd5e" d="M 634.5,108.5 C 639.411,109.388 639.744,111.055 635.5,113.5C 633.853,112.722 632.52,111.556 631.5,110C 632.737,109.768 633.737,109.268 634.5,108.5 Z"/></g>
</svg>
