<?xml version="1.0" encoding="UTF-8"?>
<!DOCTYPE svg PUBLIC "-//W3C//DTD SVG 1.1//EN" "http://www.w3.org/Graphics/SVG/1.1/DTD/svg11.dtd">
<svg xmlns="http://www.w3.org/2000/svg" version="1.1" width="600px" height="177px" style="shape-rendering:geometricPrecision; text-rendering:geometricPrecision; image-rendering:optimizeQuality; fill-rule:evenodd; clip-rule:evenodd" xmlns:xlink="http://www.w3.org/1999/xlink">
<g><path style="opacity:1" fill="#ffffff" d="M 163.5,2.5 C 165.16,20.8153 166.16,39.482 166.5,58.5C 184.406,46.3382 202.739,45.5049 221.5,56C 234.72,67.807 241.053,82.6403 240.5,100.5C 239.68,135.814 222.013,156.98 187.5,164C 168.121,165.564 148.788,165.064 129.5,162.5C 129.5,112.167 129.5,61.8333 129.5,11.5C 141.098,9.10193 152.431,6.10193 163.5,2.5 Z M 178.5,74.5 C 189.037,74.0172 196.204,78.6839 200,88.5C 204.015,102.709 202.682,116.376 196,129.5C 187.673,138.498 177.673,141.165 166,137.5C 165.333,119.5 165.333,101.5 166,83.5C 168.917,78.6369 173.083,75.6369 178.5,74.5 Z"/></g>
<g><path style="opacity:1" fill="#ffffff" d="M 288.5,9.5 C 309.133,7.41005 328.633,11.0767 347,20.5C 347.257,23.0168 346.59,25.3502 345,27.5C 341.824,33.8626 338.157,39.8626 334,45.5C 322.227,40.8451 310.06,38.6784 297.5,39C 282.514,43.9367 280.847,51.6034 292.5,62C 304.674,68.9209 317.007,75.5876 329.5,82C 351.497,96.6572 357.33,116.157 347,140.5C 338.866,152.265 327.699,159.765 313.5,163C 288.931,169.218 265.931,165.718 244.5,152.5C 249.128,144.742 254.128,137.242 259.5,130C 270.671,132.659 282.004,134.825 293.5,136.5C 301.736,136.466 308.236,133.132 313,126.5C 313.581,116.837 309.414,110.003 300.5,106C 285.336,98.5899 271.002,89.9232 257.5,80C 246.365,67.9466 243.531,54.1132 249,38.5C 253.061,29.772 259.228,22.9386 267.5,18C 274.182,14.0582 281.182,11.2248 288.5,9.5 Z"/></g>
<g><path style="opacity:1" fill="#ffffff" d="M 8.5,12.5 C 40.1667,12.5 71.8333,12.5 103.5,12.5C 102.833,21.1667 102.167,29.8333 101.5,38.5C 82.8333,38.5 64.1667,38.5 45.5,38.5C 45.5,49.8333 45.5,61.1667 45.5,72.5C 62.1667,72.5 78.8333,72.5 95.5,72.5C 95.5,81.1667 95.5,89.8333 95.5,98.5C 78.8333,98.5 62.1667,98.5 45.5,98.5C 45.5,110.833 45.5,123.167 45.5,135.5C 66.5,135.5 87.5,135.5 108.5,135.5C 108.5,144.5 108.5,153.5 108.5,162.5C 75.1667,162.5 41.8333,162.5 8.5,162.5C 8.5,112.5 8.5,62.5 8.5,12.5 Z"/></g>
<g><path style="opacity:1" fill="#084ea1" d="M 416.5,43.5 C 458.5,43.5 500.5,43.5 542.5,43.5C 542.5,71.8333 542.5,100.167 542.5,128.5C 500.5,128.5 458.5,128.5 416.5,128.5C 416.5,100.167 416.5,71.8333 416.5,43.5 Z"/></g>
<g><path style="opacity:1" fill="#cfc359" d="M 478.5,56.5 C 482.69,56.6459 483.524,58.3126 481,61.5C 480,60.1667 479,60.1667 478,61.5C 477.691,60.2341 477.191,59.0674 476.5,58C 477.416,57.7216 478.082,57.2216 478.5,56.5 Z"/></g>
<g><path style="opacity:1" fill="#dbce4d" d="M 465.5,58.5 C 466.434,59.7725 467.101,61.2725 467.5,63C 466.397,63.1466 465.23,63.98 464,65.5C 463.383,64.5509 463.549,63.7175 464.5,63C 463.833,62.3333 463.167,61.6667 462.5,61C 464.119,60.7645 465.119,59.9311 465.5,58.5 Z"/></g>
<g><path style="opacity:1" fill="#cec259" d="M 492.5,58.5 C 493.534,59.6871 494.867,60.5204 496.5,61C 495.833,61.6667 495.167,62.3333 494.5,63C 495.673,66.1103 495.173,66.277 493,63.5C 492.667,63.8333 492.333,64.1667 492,64.5C 491.535,63.0692 490.701,61.9025 489.5,61C 491.119,60.7645 492.119,59.9311 492.5,58.5 Z"/></g>
<g><path style="opacity:1" fill="#d8cb50" d="M 455.5,68.5 C 456.738,70.2143 457.405,72.2143 457.5,74.5C 455.891,74.9059 454.557,74.9059 453.5,74.5C 454.668,73.0944 454.335,71.9277 452.5,71C 454.119,70.7645 455.119,69.9311 455.5,68.5 Z"/></g>
<g><path style="opacity:1" fill="#cdc15a" d="M 502.5,68.5 C 503.534,69.6871 504.867,70.5204 506.5,71C 505.833,71.6667 505.167,72.3333 504.5,73C 505.673,76.1103 505.173,76.277 503,73.5C 502.667,73.8333 502.333,74.1667 502,74.5C 501.535,73.0692 500.701,71.9025 499.5,71C 501.119,70.7645 502.119,69.9311 502.5,68.5 Z"/></g>
<g><path style="opacity:1" fill="#d5c954" d="M 451.5,82.5 C 452.534,83.6871 453.867,84.5204 455.5,85C 453.792,86.0623 453.126,87.229 453.5,88.5C 452.575,87.3595 451.741,87.3595 451,88.5C 450.535,87.0692 449.701,85.9025 448.5,85C 450.119,84.7645 451.119,83.9311 451.5,82.5 Z"/></g>
<g><path style="opacity:1" fill="#f4e62a" d="M 506.5,82.5 C 507.309,83.4687 508.309,84.3021 509.5,85C 508.809,86.0674 508.309,87.2341 508,88.5C 506.5,87.3333 505,86.1667 503.5,85C 505.119,84.7645 506.119,83.9311 506.5,82.5 Z"/></g>
<g><path style="opacity:1" fill="#f5e727" d="M 455.5,96.5 C 459.018,97.9665 459.185,99.6331 456,101.5C 454.831,100.991 453.998,100.158 453.5,99C 454.756,98.5831 455.423,97.7498 455.5,96.5 Z"/></g>
<g><path style="opacity:1" fill="#f6e824" d="M 502.5,96.5 C 506.018,97.9665 506.185,99.6331 503,101.5C 501.831,100.991 500.998,100.158 500.5,99C 501.756,98.5831 502.423,97.7498 502.5,96.5 Z"/></g>
<g><path style="opacity:1" fill="#f1e330" d="M 465.5,106.5 C 469.018,107.966 469.185,109.633 466,111.5C 464.829,110.66 463.662,109.827 462.5,109C 464.119,108.764 465.119,107.931 465.5,106.5 Z"/></g>
<g><path style="opacity:1" fill="#f3e52b" d="M 492.5,106.5 C 493.534,107.687 494.867,108.52 496.5,109C 494.312,112.073 492.312,112.073 490.5,109C 491.756,108.583 492.423,107.75 492.5,106.5 Z"/></g>
<g><path style="opacity:1" fill="#c9bd5e" d="M 478.5,110.5 C 483.411,111.388 483.744,113.055 479.5,115.5C 477.853,114.722 476.52,113.556 475.5,112C 476.737,111.768 477.737,111.268 478.5,110.5 Z"/></g>
</svg>
