<?xml version="1.0" encoding="utf-8"?>
<!-- Generator: Adobe Illustrator 23.1.0, SVG Export Plug-In . SVG Version: 6.00 Build 0)  -->
<svg version="1.1" id="Layer_2" xmlns="http://www.w3.org/2000/svg" xmlns:xlink="http://www.w3.org/1999/xlink" x="0px" y="0px"
	 width="1000px" height="76.7632217px" viewBox="0 0 1000 76.7632217" enable-background="new 0 0 1000 76.7632217"
	 xml:space="preserve">
<path fill="#FFFFFF" d="M66.4136047,75.2778702c-8.3945351-5.4355545-16.7890701-10.8711014-25.1821404-16.3076286
	C28.3169079,64.4067688,15.4038162,69.8423157,2.4897473,75.2778702
	c7.6562538-8.7880936,15.3120203-17.5752068,22.9682732-26.3632965C16.9716873,43.4780464,8.4853554,38.042984,0,32.6064606
	h39.5717964c8.9477577-10.328619,17.8950272-20.6562595,26.8418083-30.9848785v30.9848785h38.1880112L66.4136047,48.6430893
	v26.636734V75.2778702z"/>
<path fill="#FFFFFF" d="M114.0093307,16.8427792c1.5795898,0.0634766,2.7294922-1.5087872,2.4907227-3.0014639
	c-0.0083008-3.3413105,0.0170898-6.6835971-0.0126953-10.0244188c-0.1098633-1.5400398-1.7119141-2.4008801-3.1259766-2.1948252
	H72.7773819v15.2202196h41.2314606L114.0093307,16.8427792z"/>
<path fill="#FFFFFF" d="M114.0093307,75.2778702c1.5795898,0.0644531,2.7294922-1.5078201,2.4907227-3.0009842
	c-0.0083008-3.3417969,0.0170898-6.6835938-0.0126953-10.0244179c-0.1098633-1.5400391-1.7119141-2.4003906-3.1259766-2.1943359
	H72.7773819v15.219738h41.2314606H114.0093307z"/>
<path fill="#FFFFFF" d="M665.2468872,1.6215829h-51.1904297c-2.4726563-0.0332031-2.6513672,2.6523447-2.4892578,4.4926777
	c0.03125,2.9248066-0.0654297,5.8559599,0.0507813,8.776372c0.59375,2.5361309,3.4873047,1.866209,5.4160156,1.95117h15.0097656
	v56.2612534c0,2.4658279,2.7050781,2.5908279,4.5371094,2.4462967c2.9892578-0.03125,5.9863281,0.0634766,8.9726563-0.0498047
	c2.4912109-0.5087891,1.9384766-3.3105545,1.9863281-5.1865311V16.8461971
	c6.1630859-0.0327148,12.3330078,0.0649414,18.4912109-0.0493164c2.4912109-0.5097656,1.9375-3.3110342,1.9863281-5.1875
	c-0.0898438-2.6713877,0.1816406-5.3940458-0.1416016-8.0336952c-0.390625-1.0908208-1.4345703-1.9658211-2.6259766-1.9506844
	L665.2468872,1.6215829z"/>
<path fill="#FFFFFF" d="M460.7467957,18.2016678c-3.5859375-10.4243202-14.7202148-16.7998123-25.465332-16.583992
	c-9.4829102,0.0332031-18.9780273-0.0659181-28.4492188,0.0498047c-2.5005188,0.5141603-1.9346008,3.3295913-1.9863586,5.2119164
	v66.2168274c0,2.474617,2.7197571,2.5888748,4.5552063,2.4462967c2.984375-0.0332031,5.9741211,0.0644531,8.9545898-0.0498047
	c2.5004883-0.5136719,1.9345703-3.3291092,1.9863281-5.2119217V55.4302025
	c5.9990234-0.0712891,12.0083008,0.1572266,18.0004883-0.1494141c10.7709961-0.7802773,21.0170898-8.5937576,23.3408203-19.3501091
	c1.6938477-5.8515644,0.9282227-12.0297909-0.9399414-17.7397537L460.7467957,18.2016678z M446.08078,33.1504059
	c-1.2192383,3.6376953-4.5385742,6.4565468-8.4404297,6.5913124c-5.7558594,0.3681641-11.5307617,0.1396484-17.2949219,0.2041016
	V16.8427792c5.7773438,0.0625,11.5649414-0.1342773,17.3349609,0.1142578
	c6.0390625,0.6357441,10.0151367,7.0131874,9.1791992,12.7915115
	C446.7580261,30.9106579,446.5197449,32.0673981,446.08078,33.1504059z"/>
<path fill="#FFFFFF" d="M355.5949097,22.8217869c-0.3041992,3.6206074,3.2460938,5.9209003,6.3271484,6.7265663
	c5.7485352,1.8515625,11.8774414,2.0205078,17.6757813,3.7202168c6.8540039,1.5356445,14.1503906,5.0170898,16.9702148,11.9008827
	c3.2402344,8.0390663,1.7729492,18.3105583-4.9995117,24.1298943c-5.0292969,4.4541016-11.6899414,6.8330154-18.3706055,7.0771561
	c-10.2783203,1.3349609-20.8110352-2.2529373-28.828125-8.6435623c-1.827179-2.0400391-6.0718079-4.2910156-4.7036438-7.4531288
	c2.8754883-2.9404297,5.7002258-5.9560585,8.6855774-8.7802773c3.7026367-0.4365234,4.9267578,5.2812538,8.4702148,6.3623085
	c5.8916016,4.0419922,13.7041016,4.9707069,20.3789063,2.4736328c3.5009766-1.1298828,6-4.8164063,5.1040039-8.5097694
	c-0.9038086-3.5507813-4.8076172-5.4375038-8.1103516-6.1943398c-7.28125-1.5302734-14.8959961-1.9335938-21.8183594-4.8417969
	c-6.1591797-2.5908241-11.4702454-8.1064491-12.1001282-14.9873123c-1.03125-7.4780312,2.1572266-15.3086004,8.2563782-19.7978592
	c8.6586914-6.260745,20.4238281-7.4213905,30.5097656-4.3134785c6.7490234,2.0195322,12.8212891,6.4565458,16.7851563,12.2714901
	c0.9472656,2.0429697-1.5297852,3.156249-2.5957031,4.500001c-2.1196289,1.9365234-3.9677734,4.2163105-6.2939453,5.89258
	c-3.6054688,0.2241211-4.4975586-5.1733418-7.8198242-6.408205c-5.6147461-3.8359385-13.2163086-3.774415-19.3486328-1.2905293
	c-2.4272461,1.0922871-4.1645508,3.4536152-4.1801758,6.1606483L355.5949097,22.8217869z"/>
<path fill="#FFFFFF" d="M323.4894104,10.5913134c-10.296875-9.5810585-25.8896484-11.8418026-39.1235352-8.0429726
	c-11.035675,2.9726579-20.1811829,11.7856503-23.5898743,22.6855545
	c-4.2509766,13.4741268-2.0986328,29.6875172,7.9921875,40.086937c8.9379883,9.3466873,22.754425,12.396492,35.233429,10.5546951
	c10.2133789-1.4160156,19.8217773-7.193367,25.3735352-15.9580193c6.6201172-9.8876991,7.4072266-22.7861443,4.2587891-34.0258942
	c-1.5800781-5.561039-5.4418945-10.1245155-9.2211914-14.3623104c-0.3041992-0.3173828-0.6132813-0.6298828-0.9257813-0.9389658
	L323.4894104,10.5913134z M317.4020081,48.9145737c-2.8637695,7.698246-10.8642578,12.6630898-18.9423828,12.7421913
	c-7.1123047,0.4169922-14.902832-1.6425781-19.3130188-7.6103554c-5.140625-6.7558594-6.2148438-16.2548904-3.4584961-24.1889744
	c2.0063477-5.9790077,6.8989563-10.7524471,12.9013977-12.6689529c9.7827148-3.6142569,22.5874023-0.4199219,27.6186523,9.2412167
	c3.1401367,5.9707069,3.9194336,13.0449295,2.0761719,19.5473709c-0.2416992,0.9941444-0.5297852,1.9785194-0.8833008,2.9375038
	H317.4020081z"/>
<path fill="#FFFFFF" d="M532.6960449,10.5913134c-10.2978516-9.5810585-25.890625-11.8418026-39.1240234-8.0429726
	c-11.0283203,2.9726579-20.1811523,11.7856503-23.5898438,22.6865311
	c-4.2510071,13.4746151-2.098175,29.6875172,7.9921875,40.086937c8.9379883,9.3466873,22.7548828,12.396492,35.2333984,10.5546951
	c10.2138672-1.4160156,19.8212891-7.1923904,25.3730469-15.9580193c6.6210938-9.8876991,7.4072266-22.7861443,4.2597656-34.0254059
	c-1.5693359-5.3750038-5.1171875-9.9550819-8.8369141-14.0405331c-0.4248047-0.4331055-0.8623047-0.8530273-1.3115234-1.2612314
	H532.6960449z M526.6081543,48.9145737c-2.8632813,7.698246-10.8642578,12.6630898-18.9423828,12.7421913
	c-7.1123047,0.4169922-14.902832-1.6425781-19.3129883-7.6103554c-5.1401367-6.7558594-6.2148438-16.2548904-3.4584961-24.1889744
	c2.0063477-5.9790077,6.8989258-10.7524471,12.9013672-12.6689529c9.7822266-3.6142569,22.5869141-0.4199219,27.6191406,9.2412167
	c3.6162109,6.9272499,4.1210938,15.2153397,1.1914063,22.4809685L526.6081543,48.9145737z"/>
<path fill="#FFFFFF" d="M181.5259705,1.6215829c-3.6728516,0.0317383-7.3520508-0.063965-11.0200348,0.0493164
	c-2.5253906,0.5273441-1.9248047,3.375978-1.9863281,5.2749047c-0.0366211,14.7211971,0.0732422,29.4448357-0.0566406,44.163105
	c-0.2856445,5.3525429-5.0141602,9.5185585-10.2011719,9.9882851c-5.4916992,0.6875-12.0307617,0.5673828-16.0673828-3.7900391
	c-3.4131012-3.7070351-2.6455231-8.9130898-2.730484-13.5273514c-0.0327148-13.4023495,0.0673828-26.8110485-0.0507813-40.2085152
	c-0.6142578-2.5688488-3.5620117-1.8520516-5.5102539-1.9511727c-2.8012695,0.1025391-5.6547852-0.220215-8.4179688,0.1914063
	c-2.2871094,1.0898443-1.3037109,3.8945332-1.5180664,5.8974638c0.0385742,14.7612362-0.0791016,29.5224724,0.0610352,44.2856636
	c0.3891602,11.2236404,9.4135742,20.8554764,20.1220856,23.3896637c9.7416992,2.359375,20.9125977,1.640625,29.2539215-4.3554764
	c7.1972656-4.9863281,10.8007813-13.9746132,10.3408203-22.5634842c-0.0224609-15.1157303,0.0458984-30.2519684-0.034668-45.3540268
	c-0.2661133-0.9321294-1.2416992-1.5063483-2.1796875-1.4912115L181.5259705,1.6215829z"/>
<path fill="#FFFFFF" d="M255.6920166,71.473175c-5.7192383-6.9755859-11.4375-13.9521523-17.1567383-20.927742
	c8.4970703-3.4228516,13.8911133-12.443367,13.8261719-21.4809685c0.3666992-9.1689491-3.9892578-18.630867-11.9765625-23.443367
	c-5.6816406-3.7592793-12.6172028-4.4960961-19.2646637-4.2695332c-8.1064453,0.0327148-16.2192383-0.0664064-24.3213043,0.0493164
	c-2.6015625,0.570801-1.8930664,3.5268571-1.9863281,5.4809599v65.9526672
	c0.0063477,2.5029373,2.7626953,2.5820389,4.6108398,2.4462967c2.965332-0.0322266,5.9326324,0.0634766,8.8994293-0.0498047
	c2.6015625-0.5703125,1.8930664-3.5263748,1.9863281-5.4814529V16.8437557
	c5.7768555,0.0639648,11.5649414-0.1342773,17.3349609,0.1147461c6.0385742,0.6357441,10.0146637,7.0131874,9.1787262,12.7915115
	c-0.3457031,4.5659199-3.4619293,9.3354549-8.3037262,9.8779354c-4.2958984,0.5112305-8.6328125,0.2563477-12.9482422,0.3188477
	c-2.402832,0.9199219-1.3481445,3.2851563,0.0302734,4.5478516l22.9375153,29.6992302
	c1.5722656,1.7812576,4.0991211,0.8593826,6.1782227,1.0878983c3.3686523,0,6.7397461-0.0039063,10.1049805,0.0039063
	c2.1621094-0.1679688,2.1845703-2.6230545,0.8740234-3.8086014L255.6920166,71.473175z"/>
<path fill="#FFFFFF" d="M612.3933716,71.473175c-5.71875-6.9755859-11.4375-13.9521523-17.15625-20.927742
	c8.4970703-3.4228516,13.890625-12.443367,13.8261719-21.4809685c0.3662109-9.1689491-3.9892578-18.630867-11.9765625-23.443367
	c-5.6826172-3.7602558-12.6201172-4.4960961-19.2675781-4.2695332c-8.1972656,0.0327148-16.4014282-0.0649415-24.5957642,0.0493164
	c-2.6025391,0.570801-1.8916016,3.5288103-1.9863281,5.4834013v65.9502258
	c0.0058594,2.5039139,2.7636719,2.5820389,4.6132813,2.4462967c2.9648438-0.0322266,5.9326172,0.0634766,8.8984985-0.0498047
	c2.6025391-0.5703125,1.8916016-3.5293045,1.9853516-5.4834061V16.5761776
	c5.7773438,0.0634766,11.5654297-0.1342773,17.3349609,0.1142578c6.0390625,0.6357422,10.015625,7.0131874,9.1796875,12.7915115
	c-0.3457031,4.5659199-3.4619141,9.3359394-8.3037109,9.8784237c-4.4580078,0.5688477-8.9658203,0.1767578-13.4394531,0.3676758
	c-2.4179688,0.7939453-0.5742188,3.3232422,0.5224609,4.5c7.6455078,9.8984413,15.2910156,19.797863,22.9365234,29.6992302
	c1.5732422,1.7812576,4.1005859,0.8593826,6.1806641,1.0878983c3.6308594-0.0195313,7.2939453,0.0351563,10.9013672-0.0166016
	c1.6513672-0.4824219,1.2285156-2.5341873,0.3505859-3.5156326L612.3933716,71.473175z"/>
<path fill="#ED1441" d="M698.4471436,0c-1.3769531,0-2.4951172,1.1147467-2.4951172,2.4917004v71.7773819
	c0,1.3769531,1.1181641,2.4941406,2.4951172,2.4941406H868.227478c1.3769531,0,2.4941406-1.1171875,2.4941406-2.4941406V2.4917004
	C870.7216187,1.1147467,869.6044312,0,868.227478,0H698.4471436z"/>
<path fill="#FFFFFF" d="M850.8163452,12.4580135c-4.2197266,0-7.640625,3.4204121-7.640625,7.6401386
	s3.4208984,7.6401405,7.640625,7.6401405s7.6396484-3.4204121,7.6396484-7.6401405S855.0360718,12.4580135,850.8163452,12.4580135z
	 M850.8163452,15.9213943c2.3056641,0.0004883,4.1738281,1.8706055,4.1738281,4.1762695v0.0004883
	c-0.0009766,2.3051777-1.8691406,4.1733418-4.1738281,4.17383c-2.3056641,0.0009766-4.1757813-1.8671875-4.1767578-4.1733418
	v-0.0004883c-0.0009766-2.3056641,1.8671875-4.1757813,4.1728516-4.1767578H850.8163452z"/>
<path fill="#FFFFFF" d="M725.0252686,38.9272614V37.539566c0-0.2871094-0.0009766-0.8417969,0.3173828-1.2749023
	l9.0136719-12.066412h-15.40625c-0.7988281,0-1.4443359-0.6459961-1.4443359-1.4428711v-7.2070332
	c0-0.7973633,0.6455078-1.442872,1.4443359-1.442872h31.0175781c0.7958984,0,1.4433594,0.6455088,1.4433594,1.442872v0.8583965
	c0,0.7509766-0.1376953,0.9755859-0.3525391,1.3281269l-10.4707031,14.7724686
	c6.8955078,2.2539063,9.9121094,8.2812538,9.9121094,14.552742c0,10.1279335-7.2910156,17.2011795-17.7353516,17.2011795
	c-9.6884766,0-16.5742188-6.1777382-17.1318359-15.3720779c-0.0244141-0.3964844,0.1162109-0.7851563,0.3896484-1.0751953
	c0.2705078-0.2890625,0.6513672-0.4550781,1.0507813-0.4550781h7.3154297c0.7431641,0,1.3486328,0.5634766,1.4384766,1.3027344
	c0.5185547,4.2695313,4.3271484,5.5273438,6.8017578,5.5273438c4.7675781,0,7.6953125-3.0458984,7.6953125-7.0605469
	c0-2.4296913-0.8925781-4.3017616-2.578125-5.6709023c-2.4492188-1.9853516-7.2167969-2.5239296-10.9257813-1.515625
	c-0.7050781,0.1923828-1.7949219,0.3291016-1.7949219-1.014164"/>
<path fill="#FFFFFF" d="M782.7000732,46.831562c0,4.9658241-4.0390625,7.3144569-8.0253906,7.3144569
	c-3.9882813,0-8.0253906-2.546875-8.0253906-7.416996c0-4.8710938,4.0371094-7.2709961,8.0253906-7.2709961
	C778.6610107,39.4580269,782.7000732,41.8676949,782.7000732,46.831562 M774.9139404,30.8095837l9.3007813-14.7753963
	c0.4951172-0.8525391,0.0175781-1.930665-1.1943359-1.930665h-8.4863281c-0.6308594,0-1.1259766,0.2929688-1.5019531,0.8896494
	l-13.7822266,22.2456131c-1.8789063,3.0390663-2.7246094,6.2900429-2.7246094,9.6123085
	c0,10.0283279,7.6347656,17.4062614,18.1503906,17.4062614c10.6464844,0,18.0830078-7.1796913,18.0830078-17.4550896v-0.0195313
	v0.0390625v-0.0185547c0-10.2758827-8.1728516-16.8359432-17.8427734-15.9921932"/>
<path fill="#FFFFFF" d="M826.1073608,47.9370346c0.2958984-1.2529335,0.3183594-2.3476601,0.3183594-3.6728554V31.5068493
	c0-1.3237305-0.0986328-2.4599628-0.3183594-3.5654316c-0.8271484-3.7514668-3.9863281-5.7075214-7.9589844-5.7075214
	s-7.2168579,1.9780273-8.0440063,5.7299824c-0.2216797,1.1049805-0.2880859,2.2192402-0.2880859,3.5429707v12.7573299
	c0,1.3251953,0.0888672,2.4316406,0.3095703,3.5351601c0.8271484,3.6972656,4.0488892,5.7363281,8.022522,5.7363281
	c3.9716797,0,7.0859375-1.9130859,7.9580078-5.5986328 M836.5233765,29.5835094v16.9394588
	c0,10.7128983-8.2304688,17.0996208-18.375,17.0996208c-10.288147,0-18.5166626-6.3867226-18.5166626-17.0996208V29.5854626
	c0-10.6420956,8.2294922-16.9565506,18.5166626-16.9565506c10.1445313,0,18.375,6.314455,18.375,16.9565506"/>
<path fill="#FFFFFF" d="M928.8973999,2.4340832c0-0.6953129-0.5634766-1.2011725-1.2587891-1.2011725h-5.4443359
	c-0.6962891,0-1.2626953,0.5058596-1.2626953,1.2011725v13.3549871h-14.4052734V2.4218762
	c0-0.6953129-0.5664063-1.1894537-1.2626953-1.1894537h-5.4414063c-0.6982422,0-1.2617188,0.4941409-1.2617188,1.1894537v36.4013824
	c0,0.698246,0.5634766,1.2475624,1.2617188,1.2475624h5.4414063c0.6962891,0,1.2626953-0.5493164,1.2626953-1.2475624V23.7553806
	h14.4052734v15.0678768c0,0.698246,0.5673828,1.2475624,1.2626953,1.2475624h5.4443359
	c0.6953125,0,1.2587891-0.5493164,1.2587891-1.2475624V2.4340832z"/>
<path fill="#FFFFFF" d="M952.5097656,1.2319342c12.5224609,0,19.0771484,9.6733446,19.0771484,19.3086014
	c0,5.2045937-1.7529297,10.0293026-4.9326172,13.5800858c-3.4951172,3.9042969-8.3867188,5.9501991-14.1435547,5.9501991
	h-13.2216797c-0.6982422,0-1.2617188-0.5727539-1.2617188-1.2714882V2.4418957c0-0.6958011,0.5634766-1.2099615,1.2617188-1.2099615
	H952.5097656z M945.9404297,32.1455231h7.0488281c7.3623047,0,10.7167969-5.9877968,10.7167969-11.5551834
	c0-5.5610352-3.3369141-11.4209013-10.6669922-11.4209013h-7.0976563L945.9404297,32.1455231z"/>
<path fill="#FFFFFF" d="M994.4648438,19.6919022C998.1552734,22.0795994,1000,25.217783,1000,29.1054802
	c0,3.2563515-1.1640625,5.9008827-3.4931641,7.9335976c-2.328125,2.0126953-5.3671875,3.0190468-9.1171875,3.0190468
	c-3.8291016,0-6.9277344-0.9965858-9.2949219-2.9897499c-2.3691406-2.0126953-3.5527344-4.6279297-3.5527344-7.8447304
	c0-3.9667988,1.8554688-7.1245136,5.5654297-9.4726601c-1.5791016-1.3618164-2.7333984-2.6943378-3.4638672-3.996582
	c-0.7294922-1.3027353-1.0947266-2.7924814-1.0947266-4.4697285c0-2.7236347,1.015625-5.0820341,3.0488281-7.0751991
	c2.0527344-1.9931648,4.9238281-2.9897475,8.6142578-2.9897475c3.5917969,0,6.4541016,0.8979496,8.5849609,2.6938491
	c2.1513672,1.7958994,3.2265625,4.1840839,3.2265625,7.1640663
	C999.0234375,14.5312567,997.5039063,17.4028378,994.4648438,19.6919022z M991.3271484,12.3501034
	c0-1.2236328-0.3847656-2.239747-1.1552734-3.0493174c-0.75-0.8286142-1.6972656-1.243165-2.8417969-1.243165
	c-1.125,0-2.0615234,0.3847656-2.8125,1.1547861c-0.7490234,0.7495117-1.1240234,1.677247-1.1240234,2.7822275
	c0,1.1450205,0.375,2.1118174,1.1240234,2.9013691c0.7509766,0.7695313,1.6875,1.1542969,2.8125,1.1542969
	c1.0263672,0,1.9443359-0.375,2.7529297-1.1245117C990.9121094,14.1557684,991.3271484,13.29737,991.3271484,12.3501034z
	 M991.9785156,27.9511833c0-1.3222656-0.4638672-2.4472656-1.3916016-3.3750019
	c-0.9277344-0.9472656-2.0527344-1.4208984-3.375-1.4208984c-1.2626953,0-2.3486328,0.4931641-3.2558594,1.4799805
	c-0.9082031,0.9672871-1.3623047,2.1313496-1.3623047,3.493166c0,1.2436543,0.4638672,2.3584003,1.3916016,3.3452168
	c0.9472656,0.9672871,2.0224609,1.4506855,3.2265625,1.4506855c1.3222656,0,2.4472656-0.4833984,3.375-1.4506855
	c0.9277344-0.9667969,1.3916016-2.1411133,1.3916016-3.5229511V27.9511833z"/>
</svg>
