<svg height="53.26" width="600" viewBox="0 0 158.75 14.092" xmlns="http://www.w3.org/2000/svg"><g fill="#fff"><path d="M150.9.422c0-.129-.1-.22-.23-.22h-1c-.13 0-.23.091-.23.22v2.456h-2.65V.422c0-.129-.11-.22-.24-.22h-1c-.12 0-.23.091-.23.22v6.691c0 .129.11.232.23.232h1c.13 0 .24-.103.24-.232v-2.77h2.65v2.77c0 .129.1.232.23.232h1c.13 0 .23-.103.23-.232zM155.24.201c2.31 0 3.51 1.779 3.51 3.55 0 .961-.32 1.844-.9 2.499-.65.719-1.55 1.094-2.61 1.094h-2.43a.239.239 0 0 1-.23-.233V.425c0-.129.11-.224.23-.224zm-1.2 5.687h1.29c1.36 0 1.97-1.103 1.97-2.128 0-1.021-.61-2.098-1.96-2.098h-1.3zM12.07 13.845l-4.56-3.003-7.05 2.994 4.15-4.874L0 5.942h7.19L12.07.221v5.721h6.96l-6.96 2.967v4.936"/><path d="M20.72 3.011c.24 0 .44-.203.44-.442V.653a.44.44 0 0 0-.44-.441h-7.47v2.799h7.47M20.72 13.871c.24 0 .44-.203.44-.441v-1.916a.44.44 0 0 0-.44-.442h-7.47v2.799h7.47M120.95.203h-9.33c-.24 0-.45.203-.45.441v1.925c0 .239.21.442.45.442h3.26v10.427c0 .248.2.442.44.442h1.93a.44.44 0 0 0 .44-.442V3.011h3.26c.24 0 .45-.203.45-.442V.644a.455.455 0 0 0-.45-.441M81.11 6.057c-.1.265-.24.494-.42.689-.18.194-.38.317-.62.423s-.67.168-1.5.168h-2.15V3.011h2.83c.3 0 .58.053.82.168.25.105.47.256.64.441.18.185.32.415.41.68.1.274.15.565.15.874s-.05.609-.16.883zm2.65-2.79a4.527 4.527 0 0 0-.98-1.581c-.43-.45-.96-.812-1.57-1.077S79.9.203 79.13.203h-5.07c-.25 0-.45.203-.45.441V13.43c0 .238.2.441.45.441h1.92c.24 0 .44-.203.44-.441v-3.276h2.71c.77 0 1.46-.133 2.07-.389a4.86 4.86 0 0 0 1.56-1.077c.43-.441.76-.971.99-1.554.22-.583.34-1.324.34-1.978a5.47 5.47 0 0 0-.33-1.889M64.67 4.132c-.01.283.07.45.17.601.12.176.3.317.51.432.24.124.53.221.84.292.36.079.71.15 1.07.211.65.106 1.29.23 1.9.38.64.159 1.21.397 1.69.706.5.327.9.76 1.18 1.281.29.529.42 1.209.38 2.013-.03.777-.23 1.439-.59 1.978-.35.521-.81.944-1.35 1.262s-1.06.548-1.72.662c-.64.124-1.35.159-1.98.133-1.55-.071-3.85-.963-5-2.534-.09-.124-.2-.344.05-.592.24-.256 1.42-1.457 1.42-1.457.24-.256.48-.07.57.071.68.989 2.02 1.722 3.07 1.766.56.026.62 0 .97-.044.31-.044.59-.124.85-.239.24-.114.44-.256.6-.459.14-.185.23-.45.25-.759.02-.291-.06-.53-.2-.724a1.735 1.735 0 0 0-.6-.495c-.27-.141-.59-.229-.94-.3-.38-.07-.75-.132-1.11-.185-.6-.071-1.2-.194-1.77-.362a5.62 5.62 0 0 1-1.58-.707 3.592 3.592 0 0 1-1.13-1.218c-.29-.494-.42-1.068-.38-1.784.03-.724.21-1.359.53-1.889s.74-.962 1.25-1.289c.49-.327 1.06-.556 1.69-.706a6.916 6.916 0 0 1 3.67.158c1.31.415 2.37 1.422 2.85 2.128.09.133.18.345-.01.557s-1.35 1.342-1.35 1.342c-.25.238-.5.185-.64-.027-.71-1.042-1.63-1.51-2.69-1.58-1.14-.071-2.41.185-2.47 1.377M57.7 8.944c-.22.521-.51.971-.88 1.325-.37.353-.81.618-1.29.803-.5.177-1.04.274-1.6.274-.57 0-1.11-.097-1.61-.274-.48-.177-.91-.45-1.27-.803a3.79 3.79 0 0 1-.86-1.325c-.22-.538-.33-1.165-.33-1.881 0-.706.11-1.342.33-1.871.21-.53.51-.98.87-1.334.36-.353.79-.626 1.28-.812.5-.185 1.04-.282 1.61-.282.56 0 1.1.097 1.59.282.49.186.92.468 1.28.821.37.362.66.813.88 1.342.21.53.32 1.157.32 1.854 0 .716-.11 1.343-.32 1.881zm1.12-7.09A6.657 6.657 0 0 0 56.6.477c-.83-.309-1.72-.468-2.64-.468s-1.8.159-2.64.468a6.7 6.7 0 0 0-2.23 1.377c-.64.601-1.15 1.351-1.53 2.225-.37.874-.56 1.872-.56 2.967 0 1.112.18 2.11.55 2.975.37.866.88 1.616 1.51 2.217.63.6 1.38 1.068 2.21 1.377s1.72.468 2.65.468c1.01 0 1.96-.168 2.81-.503.86-.345 1.6-.83 2.22-1.457a6.619 6.619 0 0 0 1.43-2.225 7.75 7.75 0 0 0 .52-2.852c0-1.095-.19-2.093-.57-2.967a6.688 6.688 0 0 0-1.51-2.225M95.75 8.944c-.21.521-.51.971-.88 1.325-.37.353-.8.618-1.29.803a4.823 4.823 0 0 1-3.21 0 3.45 3.45 0 0 1-1.26-.803 3.956 3.956 0 0 1-.87-1.325c-.22-.538-.33-1.165-.33-1.881 0-.706.11-1.342.33-1.871.22-.53.51-.98.87-1.334.37-.353.8-.626 1.29-.812a4.537 4.537 0 0 1 1.61-.282c.55 0 1.09.097 1.58.282.49.186.92.468 1.28.821.37.362.67.813.88 1.342.22.53.33 1.157.33 1.854 0 .716-.11 1.343-.33 1.881zm1.12-7.09A6.613 6.613 0 0 0 94.66.477a7.604 7.604 0 0 0-2.65-.468c-.91 0-1.8.159-2.64.468a6.7 6.7 0 0 0-2.23 1.377c-.64.601-1.15 1.351-1.53 2.225-.37.874-.56 1.872-.56 2.967 0 1.112.19 2.11.56 2.975.36.866.87 1.616 1.5 2.217.63.6 1.38 1.068 2.22 1.377.83.309 1.72.468 2.64.468 1.02 0 1.96-.168 2.81-.503.86-.345 1.61-.83 2.22-1.457a6.8 6.8 0 0 0 1.44-2.225c.34-.866.51-1.819.51-2.852 0-1.095-.19-2.093-.56-2.967a6.864 6.864 0 0 0-1.52-2.225M33.01.203h-1.93c-.24 0-.44.203-.44.441v8.459c0 .362-.06.68-.18.945s-.28.485-.49.653c-.21.186-.46.327-.75.424-.3.097-.81.15-1.16.15s-.89-.053-1.19-.15-.56-.238-.78-.424a1.874 1.874 0 0 1-.49-.653 2.286 2.286 0 0 1-.18-.945V.644c0-.238-.2-.441-.44-.441h-1.92a.44.44 0 0 0-.44.441v8.53c0 .786.14 1.483.43 2.092.29.601.69 1.122 1.19 1.545.5.415 1.09.733 1.74.945.64.212 1.34.318 2.08.318.72 0 1.42-.106 2.06-.318.66-.212 1.24-.53 1.73-.953.49-.415.88-.936 1.17-1.537.29-.609.43-1.306.43-2.092V.644c0-.238-.2-.441-.44-.441M46.49 13.129l-3.11-3.867s2.51-.909 2.51-4.106a5.47 5.47 0 0 0-.33-1.889 4.527 4.527 0 0 0-.98-1.581c-.43-.45-.95-.812-1.56-1.077a5.267 5.267 0 0 0-2.08-.406h-5.07a.44.44 0 0 0-.44.441V13.43c0 .238.19.441.44.441h1.91c.25 0 .45-.203.45-.441V3.011h2.84c.3 0 .57.053.82.168.25.105.47.256.64.441.18.185.31.415.41.68a2.584 2.584 0 0 1-.01 1.757c-.1.265-.24.494-.42.689-.18.194-.38.317-.62.423s-.67.168-1.5.168H39.2c-.23 0-.41.212-.23.503l4.44 5.846c.08.114.22.185.36.185h2.45c.37 0 .61-.336.27-.742M111.34 13.129l-3.12-3.867s2.52-.909 2.52-4.106a5.47 5.47 0 0 0-.33-1.889 4.385 4.385 0 0 0-.98-1.581c-.43-.45-.96-.812-1.57-1.077s-1.31-.406-2.07-.406h-5.07c-.25 0-.45.203-.45.441V13.43c0 .238.2.441.45.441h1.91c.24 0 .44-.203.44-.441V3.011h2.84c.31 0 .58.053.83.168.25.105.46.256.64.441.17.185.31.415.4.68.11.274.15.565.15.874s-.05.609-.15.883c-.1.265-.25.494-.42.689-.18.194-.38.317-.62.423s-.67.168-1.5.168h-1.19c-.23 0-.41.212-.23.503l4.44 5.846c.08.114.22.185.36.185h2.45c.37 0 .61-.336.27-.742"/><path d="m12.07 13.845-4.56-3.003-7.05 2.994 4.15-4.874L0 5.942h7.19L12.07.221v5.721h6.96l-6.96 2.967v4.936"/><path d="M20.72 3.011c.24 0 .44-.203.44-.442V.653a.44.44 0 0 0-.44-.441h-7.47v2.799h7.47M20.72 13.871c.24 0 .44-.203.44-.441v-1.916a.44.44 0 0 0-.44-.442h-7.47v2.799h7.47M120.95.203h-9.33c-.24 0-.45.203-.45.441v1.925c0 .239.21.442.45.442h3.26v10.427c0 .248.2.442.44.442h1.93a.44.44 0 0 0 .44-.442V3.011h3.26c.24 0 .45-.203.45-.442V.644a.455.455 0 0 0-.45-.441M81.11 6.057c-.1.265-.24.494-.42.689-.18.194-.38.317-.62.423s-.67.168-1.5.168h-2.15V3.011h2.83c.3 0 .58.053.82.168.25.105.47.256.64.441.18.185.32.415.41.68.1.274.15.565.15.874s-.05.609-.16.883zm2.65-2.79a4.527 4.527 0 0 0-.98-1.581c-.43-.45-.96-.812-1.57-1.077S79.9.203 79.13.203h-5.07c-.25 0-.45.203-.45.441V13.43c0 .238.2.441.45.441h1.92c.24 0 .44-.203.44-.441v-3.276h2.71c.77 0 1.46-.133 2.07-.389a4.86 4.86 0 0 0 1.56-1.077c.43-.441.76-.971.99-1.554.22-.583.34-1.324.34-1.978a5.47 5.47 0 0 0-.33-1.889M64.67 4.132c-.01.283.07.45.17.601.12.176.3.317.51.432.24.124.53.221.84.292.36.079.71.15 1.07.211.65.106 1.29.23 1.9.38.64.159 1.21.397 1.69.706.5.327.9.76 1.18 1.281.29.529.42 1.209.38 2.013-.03.777-.23 1.439-.59 1.978-.35.521-.81.944-1.35 1.262s-1.06.548-1.72.662c-.64.124-1.35.159-1.98.133-1.55-.071-3.85-.963-5-2.534-.09-.124-.2-.344.05-.592.24-.256 1.42-1.457 1.42-1.457.24-.256.48-.07.57.071.68.989 2.02 1.722 3.07 1.766.56.026.62 0 .97-.044.31-.044.59-.124.85-.239.24-.114.44-.256.6-.459.14-.185.23-.45.25-.759.02-.291-.06-.53-.2-.724a1.735 1.735 0 0 0-.6-.495c-.27-.141-.59-.229-.94-.3-.38-.07-.75-.132-1.11-.185-.6-.071-1.2-.194-1.77-.362a5.62 5.62 0 0 1-1.58-.707 3.592 3.592 0 0 1-1.13-1.218c-.29-.494-.42-1.068-.38-1.784.03-.724.21-1.359.53-1.889s.74-.962 1.25-1.289c.49-.327 1.06-.556 1.69-.706a6.916 6.916 0 0 1 3.67.158c1.31.415 2.37 1.422 2.85 2.128.09.133.18.345-.01.557s-1.35 1.342-1.35 1.342c-.25.238-.5.185-.64-.027-.71-1.042-1.63-1.51-2.69-1.58-1.14-.071-2.41.185-2.47 1.377M57.7 8.944c-.22.521-.51.971-.88 1.325-.37.353-.81.618-1.29.803-.5.177-1.04.274-1.6.274-.57 0-1.11-.097-1.61-.274-.48-.177-.91-.45-1.27-.803a3.79 3.79 0 0 1-.86-1.325c-.22-.538-.33-1.165-.33-1.881 0-.706.11-1.342.33-1.871.21-.53.51-.98.87-1.334.36-.353.79-.626 1.28-.812.5-.185 1.04-.282 1.61-.282.56 0 1.1.097 1.59.282.49.186.92.468 1.28.821.37.362.66.813.88 1.342.21.53.32 1.157.32 1.854 0 .716-.11 1.343-.32 1.881zm1.12-7.09A6.657 6.657 0 0 0 56.6.477c-.83-.309-1.72-.468-2.64-.468s-1.8.159-2.64.468a6.7 6.7 0 0 0-2.23 1.377c-.64.601-1.15 1.351-1.53 2.225-.37.874-.56 1.872-.56 2.967 0 1.112.18 2.11.55 2.975.37.866.88 1.616 1.51 2.217.63.6 1.38 1.068 2.21 1.377s1.72.468 2.65.468c1.01 0 1.96-.168 2.81-.503.86-.345 1.6-.83 2.22-1.457a6.619 6.619 0 0 0 1.43-2.225 7.75 7.75 0 0 0 .52-2.852c0-1.095-.19-2.093-.57-2.967a6.688 6.688 0 0 0-1.51-2.225M95.75 8.944c-.21.521-.51.971-.88 1.325-.37.353-.8.618-1.29.803a4.823 4.823 0 0 1-3.21 0 3.45 3.45 0 0 1-1.26-.803 3.956 3.956 0 0 1-.87-1.325c-.22-.538-.33-1.165-.33-1.881 0-.706.11-1.342.33-1.871.22-.53.51-.98.87-1.334.37-.353.8-.626 1.29-.812a4.537 4.537 0 0 1 1.61-.282c.55 0 1.09.097 1.58.282.49.186.92.468 1.28.821.37.362.67.813.88 1.342.22.53.33 1.157.33 1.854 0 .716-.11 1.343-.33 1.881zm1.12-7.09A6.613 6.613 0 0 0 94.66.477a7.604 7.604 0 0 0-2.65-.468c-.91 0-1.8.159-2.64.468a6.7 6.7 0 0 0-2.23 1.377c-.64.601-1.15 1.351-1.53 2.225-.37.874-.56 1.872-.56 2.967 0 1.112.19 2.11.56 2.975.36.866.87 1.616 1.5 2.217.63.6 1.38 1.068 2.22 1.377.83.309 1.72.468 2.64.468 1.02 0 1.96-.168 2.81-.503.86-.345 1.61-.83 2.22-1.457a6.8 6.8 0 0 0 1.44-2.225c.34-.866.51-1.819.51-2.852 0-1.095-.19-2.093-.56-2.967a6.864 6.864 0 0 0-1.52-2.225M33.01.203h-1.93c-.24 0-.44.203-.44.441v8.459c0 .362-.06.68-.18.945s-.28.485-.49.653c-.21.186-.46.327-.75.424-.3.097-.81.15-1.16.15s-.89-.053-1.19-.15-.56-.238-.78-.424a1.874 1.874 0 0 1-.49-.653 2.286 2.286 0 0 1-.18-.945V.644c0-.238-.2-.441-.44-.441h-1.92a.44.44 0 0 0-.44.441v8.53c0 .786.14 1.483.43 2.092.29.601.69 1.122 1.19 1.545.5.415 1.09.733 1.74.945.64.212 1.34.318 2.08.318.72 0 1.42-.106 2.06-.318.66-.212 1.24-.53 1.73-.953.49-.415.88-.936 1.17-1.537.29-.609.43-1.306.43-2.092V.644c0-.238-.2-.441-.44-.441M46.49 13.129l-3.11-3.867s2.51-.909 2.51-4.106a5.47 5.47 0 0 0-.33-1.889 4.527 4.527 0 0 0-.98-1.581c-.43-.45-.95-.812-1.56-1.077a5.267 5.267 0 0 0-2.08-.406h-5.07a.44.44 0 0 0-.44.441V13.43c0 .238.19.441.44.441h1.91c.25 0 .45-.203.45-.441V3.011h2.84c.3 0 .57.053.82.168.25.105.47.256.64.441.18.185.31.415.41.68a2.584 2.584 0 0 1-.01 1.757c-.1.265-.24.494-.42.689-.18.194-.38.317-.62.423s-.67.168-1.5.168H39.2c-.23 0-.41.212-.23.503l4.44 5.846c.08.114.22.185.36.185h2.45c.37 0 .61-.336.27-.742M111.34 13.129l-3.12-3.867s2.52-.909 2.52-4.106a5.47 5.47 0 0 0-.33-1.889 4.385 4.385 0 0 0-.98-1.581c-.43-.45-.96-.812-1.57-1.077s-1.31-.406-2.07-.406h-5.07c-.25 0-.45.203-.45.441V13.43c0 .238.2.441.45.441h1.91c.24 0 .44-.203.44-.441V3.011h2.84c.31 0 .58.053.83.168.25.105.46.256.64.441.17.185.31.415.4.68.11.274.15.565.15.874s-.05.609-.15.883c-.1.265-.25.494-.42.689-.18.194-.38.317-.62.423s-.67.168-1.5.168h-1.19c-.23 0-.41.212-.23.503l4.44 5.846c.08.114.22.185.36.185h2.45c.37 0 .61-.336.27-.742"/></g><path fill="#d50032" d="M139.71 14.092h-12.73a.454.454 0 0 1-.46-.459V.459c0-.247.2-.459.46-.459h12.73c.25 0 .46.212.46.459v13.174a.46.46 0 0 1-.46.459"/><path fill="#fff" d="M130.26 11.337v.274c0 .176.13.318.3.318h5.92c.17 0 .3-.142.3-.318v-1.369a.318.318 0 0 0-.31-.309h-2.77l1.73-2.313c1.02-1.325 1.25-2.808.69-3.938-.47-.954-1.46-1.492-2.72-1.492-1.96.008-3.07 1.077-3.11 3.01l-.01.451c0 .185.13.309.33.309h1.32c.18 0 .31-.141.32-.318l.02-.415c.02-.512.23-1.13 1.08-1.13.68 0 1.03.432 1.04.883.02.485-.1.856-.53 1.412l-3.44 4.539a.542.542 0 0 0-.16.406"/><path style="opacity:1;fill:#fff;stroke-width:0" d="M2.498 51.38c.234-.385 3.534-4.348 7.334-8.806 3.8-4.458 6.965-8.268 7.034-8.466.07-.199-3.696-2.872-8.368-5.941l-8.495-5.58 13.554-.142 13.555-.142 9.163-10.711L45.438.882l.144 10.71.144 10.71 13.121.142 13.122.142-13.124 5.58-13.123 5.58-.009 9.168c-.005 5.042-.188 9.167-.407 9.167-.22 0-3.986-2.392-8.37-5.314-4.385-2.922-8.28-5.313-8.655-5.314-.375 0-6.298 2.391-13.161 5.314-6.863 2.923-12.606 5.314-12.763 5.314-.156 0-.093-.315.141-.7z" transform="matrix(.26459 0 0 .26459 0 0)"/><path style="opacity:1;fill:#fff;stroke-width:0" d="M49.956 6.112V.532h14.31c12.302 0 14.429.117 15.147.835 1.179 1.178 1.179 8.31 0 9.49-.718.717-2.845.835-15.146.835H49.956zM50.07 47.166l.151-5.448h14.502c12.312 0 14.578.12 15.005.797.74 1.173.647 8.696-.118 9.46-.465.465-4.574.638-15.164.638H49.919zM99.114 52.427c-5.683-1.877-9.8-5.227-12.057-9.809-1.206-2.448-1.232-2.85-1.38-21.848-.121-15.326-.01-19.445.53-19.789 1.085-.688 8.622-.536 9.347.188.47.47.637 5.192.637 17.945 0 15.866.083 17.46.99 19.158 1.587 2.968 3.855 3.978 8.936 3.978 4.706 0 6.097-.608 8.376-3.658 1.048-1.403 1.103-2.25 1.256-19.35.118-13.172.328-17.99.797-18.29 1.18-.75 8.69-.486 9.366.329.456.549.58 5.83.464 19.796l-.158 19.047-1.417 2.657c-1.92 3.6-5.371 6.82-9.212 8.592-2.74 1.264-3.975 1.492-8.769 1.614-3.57.091-6.346-.11-7.706-.56zM134.588 52.261c-.518-.21-.664-5.792-.664-25.402 0-21.335.117-25.231.772-25.776.569-.471 3.898-.588 12.622-.44 14.166.24 16.153.761 20.872 5.48 3.568 3.568 5.173 7.471 5.24 12.743.083 6.588-1.975 11.096-6.651 14.57l-2.444 1.815 6.052 7.548c3.329 4.151 6.052 7.912 6.052 8.358 0 1.202-1.159 1.456-6.637 1.456h-4.955l-2.076-2.524c-5.07-6.168-15.712-20.571-15.767-21.34-.05-.709.828-.892 5.349-1.114 4.357-.214 5.7-.48 6.909-1.366 4.397-3.227 4.436-10.839.07-13.5-1.51-.922-2.677-1.074-8.27-1.075l-6.51-.002v19.823c0 14.709-.164 19.987-.637 20.46-.628.628-7.926.851-9.327.286zM195.464 52.118c-7.958-2.544-13.722-8.104-16.431-15.848-1.52-4.343-1.87-11.663-.78-16.286C181.071 8.034 191.272 0 203.628 0c12.637 0 22.677 7.386 25.672 18.885 1.037 3.978 1.047 11.356.022 15.29-2.347 9.011-9.114 15.864-18.003 18.23-3.938 1.049-12.143.9-15.855-.287zm15.86-11.083c5.324-2.756 7.89-8.032 7.534-15.486-.187-3.923-.466-5.066-1.834-7.515-2.827-5.062-8.136-7.758-14.31-7.268-5.875.466-10.313 3.4-12.657 8.366-.916 1.94-1.129 3.393-1.129 7.706 0 4.555.18 5.656 1.254 7.706 3.17 6.042 6.879 8.045 14.424 7.786 3.355-.116 5.084-.449 6.719-1.295zM245.38 51.879c-1.98-.715-4.778-2.054-6.216-2.977-2.788-1.79-6.564-5.625-6.29-6.39.427-1.195 6.98-7.392 7.487-7.08.316.196 1.264 1.14 2.106 2.1 2.487 2.832 7.385 4.983 11.348 4.983 5.709 0 8.718-1.866 8.718-5.407 0-3.648-1.817-4.717-10.757-6.329-7.175-1.294-10.776-2.633-13.617-5.065-3.27-2.799-4.326-5.22-4.312-9.882.013-4.254.94-6.929 3.416-9.864 5.29-6.266 17.907-7.9 26.599-3.446 2.687 1.377 6.695 4.89 7.68 6.732.734 1.37.666 1.5-2.383 4.58-1.726 1.745-3.536 3.172-4.022 3.172-.486 0-1.503-.812-2.26-1.805-.757-.993-2.626-2.428-4.153-3.189-6.633-3.305-15.336-.427-14.062 4.649.555 2.208 2.916 3.262 10.854 4.843 8.524 1.697 11.947 3.158 14.898 6.36 2.638 2.862 3.476 5.712 3.156 10.742-.386 6.081-3.473 10.198-9.799 13.068-2.06.935-3.773 1.198-8.678 1.334-5.401.15-6.53.018-9.713-1.13zM278.583 51.975c-.918-.918-.918-49.888 0-50.806.798-.798 21.362-.87 24.76-.085 5.73 1.321 10.398 4.994 12.809 10.076 1.22 2.574 1.386 3.591 1.386 8.503 0 5.036-.145 5.876-1.489 8.611-1.863 3.795-5.86 7.456-9.717 8.898-2.412.903-4.156 1.092-10.072 1.092h-7.155v6.537c0 4.375-.21 6.747-.637 7.174-.391.391-2.303.638-4.943.638-2.64 0-4.551-.247-4.942-.638zm23.386-24.893c2.305-.64 3.918-2.485 4.695-5.37.782-2.904.116-5.635-1.915-7.853l-1.742-1.902-6.95-.175-6.952-.175v16.028l5.448-.003c2.996-.002 6.333-.249 7.416-.55zM339.563 52.142c-11.514-3.684-18.04-12.832-18.04-25.289 0-8.425 2.232-14.236 7.454-19.413 10.106-10.016 27.853-9.906 37.804.235 9.179 9.353 9.7 26.415 1.128 36.877-2.498 3.048-7.406 6.203-11.726 7.537-4.46 1.378-12.402 1.403-16.62.053zm13.915-10.438c3.408-1.162 6.016-3.534 7.737-7.038 1.33-2.707 1.493-3.606 1.47-8.094-.03-6.012-1.13-8.822-4.764-12.172-4.36-4.02-11.919-4.896-17.542-2.035-3.092 1.574-4.493 2.979-6.126 6.142-2.19 4.243-2.192 12.223-.003 16.513 1.287 2.522 5.232 6.074 7.583 6.828 2.656.85 8.953.773 11.645-.144zM379.557 51.975c-.478-.478-.638-6.859-.638-25.444 0-21.157.115-24.902.78-25.454.578-.48 3.917-.598 12.888-.46 11.768.182 12.191.227 15.094 1.584 6.175 2.888 10.132 8.36 10.842 14.994.72 6.712-1.681 12.507-6.724 16.232l-2.46 1.818 6.067 7.487c4 4.934 6.016 7.85 5.916 8.55-.142.992-.555 1.065-5.991 1.065h-5.839l-8.643-11.38c-4.754-6.26-8.644-11.82-8.644-12.356 0-.872.498-.977 4.65-.988 5.793-.014 8.564-1.096 9.873-3.854 1.215-2.561 1.145-6.603-.152-8.73-1.716-2.814-3.409-3.347-10.624-3.347h-6.404V31.83c0 17.873-.094 20.174-.84 20.46-1.532.588-8.487.349-9.15-.315zM434.854 52.261c-.515-.208-.664-4.795-.664-20.419v-20.15h-6.34c-7.864 0-8.01-.101-8.01-5.58 0-2.846.228-4.138.836-4.745.726-.727 3.18-.836 18.828-.836 15.649 0 18.102.11 18.828.836.608.607.835 1.899.835 4.745 0 5.479-.145 5.58-8.01 5.58h-6.339V31.83c0 17.873-.094 20.174-.84 20.46-.993.381-8.164.358-9.124-.029zM549.336 27.28c-.518-.517-.418-25.294.105-26.119.286-.451 1.27-.64 2.782-.531l2.339.167.152 4.916.153 4.916h10.018l.153-4.916.152-4.916H569.973l.142 13.42.142 13.418h-5.332v-11.16h-10.098v11.16h-2.568c-1.413 0-2.728-.16-2.923-.354zM576.74 14.216l.142-13.419 4.996-.154c2.748-.084 6.258.108 7.8.428 5.763 1.197 9.696 5.797 10.188 11.916.483 6.017-2.04 10.86-6.922 13.293-2.489 1.24-3.295 1.355-9.532 1.355h-6.814zm13.676 7.174c2.447-1.235 3.86-3.787 3.86-6.97 0-5.278-2.914-8.037-8.492-8.04l-3.322-.003v15.944l3.056-.001c1.851 0 3.782-.367 4.898-.93z" transform="matrix(.26459 0 0 .26459 0 0)"/></svg>