<?xml version="1.0" encoding="utf-8"?>
<!-- Generator: Adobe Illustrator 23.1.0, SVG Export Plug-In . SVG Version: 6.00 Build 0)  -->
<svg version="1.1" id="Layer_2" xmlns="http://www.w3.org/2000/svg" xmlns:xlink="http://www.w3.org/1999/xlink" x="0px" y="0px"
	 width="1000px" height="76.713829px" viewBox="0 0 1000 76.713829" enable-background="new 0 0 1000 76.713829"
	 xml:space="preserve">
<path fill="#FFFFFF" d="M66.3710632,75.229454c-8.3891563-5.4326172-16.7778244-10.8642502-25.1660042-16.2968674
	C28.2993031,64.3652039,15.3945236,69.7968369,2.4882801,75.229454
	c7.6513634-8.7822266,15.3022375-17.5644455,22.9536018-26.3466682C16.9609299,43.4501724,8.4799767,38.0180473,0,32.5854301
	h39.5468559c8.9418907-10.3222599,17.8837814-20.6430531,26.8242073-30.965313v30.965313h38.1640396L66.3710632,48.6113014
	v26.6191292V75.229454z"/>
<path fill="#FFFFFF" d="M113.93647,16.8315334c1.5786133,0.0639648,2.7280273-1.5073223,2.4892578-2.9995089
	c-0.0083008-3.3393536,0.0166016-6.6791959-0.0126953-10.0180616c-0.1098633-1.5390618-1.7104492-2.3989246-3.1240234-2.1928701
	H72.7309189v15.2099524h41.2050629L113.93647,16.8315334z"/>
<path fill="#FFFFFF" d="M113.93647,75.229454c1.5786133,0.0634766,2.7280273-1.5078125,2.4892578-3
	c-0.0083008-3.3388672,0.0166016-6.6787033-0.0126953-10.0175705c-0.1098633-1.5390625-1.7104492-2.3984375-3.1240234-2.1933594
	H72.7309189V75.229454h41.2050629H113.93647z"/>
<path fill="#FFFFFF" d="M664.8204956,1.6201164h-51.15625c-2.4726563-0.033203-2.6503906,2.650878-2.4892578,4.4897442
	c0.0322266,2.9233379-0.0644531,5.8525362,0.0507813,8.7709913c0.5947266,2.5341778,3.4863281,1.8647442,5.4130859,1.9497051
	h15.0009766v56.2250671c0,2.4638672,2.7021484,2.5888672,4.5332031,2.4453125
	c2.9882813-0.0322266,5.9833984,0.0634766,8.9677734-0.0498047c2.4892578-0.5087891,1.9365234-3.3085938,1.9853516-5.1835938
	V16.8349514c6.1582031-0.0327148,12.3242188,0.0649414,18.4785156-0.0493164
	c2.4892578-0.5092773,1.9365234-3.3085909,1.9853516-5.1840782c-0.0898438-2.6699209,0.1816406-5.3901339-0.1416016-8.0283165
	c-0.390625-1.0903316-1.4335938-1.9648429-2.6240234-1.9497062L664.8204956,1.6201164z"/>
<path fill="#FFFFFF" d="M460.4519348,18.1894417c-3.5834961-10.4174728-14.7109375-16.7885628-25.4492188-16.5727425
	c-9.4765625,0.0327148-18.9658203-0.0664061-28.4306641,0.0493164c-2.4989929,0.51416-1.933075,3.3276353-1.985321,5.208982
	v66.17379c0.0004883,2.4736328,2.7182312,2.5878906,4.5522156,2.4453125
	c2.9824219-0.0332031,5.9707031,0.0644531,8.9492188-0.0498047c2.4990234-0.5136719,1.9331055-3.328125,1.9848633-5.2089844
	V55.3935242c5.9951172-0.0703125,12.0009766,0.1582031,17.9887695-0.1484375
	c10.7641602-0.7802696,21.0039063-8.587883,23.3261719-19.3378792c1.6923828-5.8476543,0.9272461-12.0219669-0.9394531-17.728508
	L460.4519348,18.1894417z M445.7956848,33.1288872c-1.2192383,3.6352539-4.5361328,6.4521446-8.4350586,6.5869102
	c-5.7524414,0.3671875-11.5234375,0.1396484-17.2841797,0.2041016V16.8315334
	c5.7734375,0.0625,11.5576172-0.1342773,17.3242188,0.1142578c6.0351563,0.6357403,10.0083008,7.0087852,9.1728516,12.7836838
	C446.4719543,30.8906078,446.2341614,32.0468559,445.7956848,33.1288872z"/>
<path fill="#FFFFFF" d="M355.3674927,22.8066273c-0.3041992,3.6186504,3.2441406,5.9174786,6.3227539,6.7221642
	c5.7451172,1.8505859,11.8701172,2.0195313,17.6645508,3.7177715c6.8496094,1.534668,14.1416016,5.0146484,16.9599609,11.8940392
	c3.237793,8.0341759,1.7714844,18.2978401-4.9970703,24.1142426c-5.0258789,4.4511719-11.6821289,6.828125-18.3588867,7.0722656
	c-10.2714844,1.3339844-20.7973633-2.2509766-28.809082-8.6376953c-1.8261414-2.0390549-6.0683289-4.2880821-4.7011414-7.4482346
	c2.8740234-2.9384766,5.6967468-5.9531212,8.6801453-8.7744102c3.7001953-0.4365234,4.9238281,5.2763634,8.4648438,6.3574181
	c5.8876953,4.0400391,13.6958008,4.9677696,20.3662109,2.4716797c3.4985352-1.1289063,5.9960938-4.8125,5.1000977-8.5039024
	c-0.902832-3.5478516-4.8041992-5.4345665-8.1049805-6.1894493c-7.2763672-1.5302734-14.8862305-1.9335938-21.8041992-4.8388672
	c-6.1552734-2.5898399-11.4628601-8.1015587-12.0927429-14.978508c-1.0297852-7.4731407,2.15625-15.2988176,8.2514343-19.7851448
	c8.652832-6.2563448,20.4111328-7.4165001,30.4902344-4.310545c6.7446289,2.0180655,12.8129883,6.4526339,16.7744141,12.2636662
	c0.9467773,2.041503-1.5288086,3.154294-2.5942383,4.4970655c-2.1181641,1.9355469-3.965332,4.2138653-6.2895508,5.88867
	c-3.6035156,0.2241211-4.4946289-5.16992-7.8149414-6.4038067c-5.6108398-3.8334913-13.2080078-3.7719679-19.3359375-1.2895489
	c-2.4262695,1.0913067-4.1621094,3.45117-4.1777344,6.1562462L355.3674927,22.8066273z"/>
<path fill="#FFFFFF" d="M323.2825623,10.5844679c-10.2905273-9.5751915-25.8735352-11.8344669-39.0986328-8.0380821
	c-11.0282898,2.9707015-20.1684265,11.7778263-23.5746765,22.670887
	c-4.2485352,13.4658146-2.097168,29.6684399,7.9868164,40.0619965c8.9326172,9.3398361,22.7402039,12.3876877,35.2113953,10.5468674
	c10.206543-1.4140625,19.8085938-7.1875,25.3569336-15.947258c6.6162109-9.8808556,7.4023438-22.7719612,4.2563477-34.003891
	c-1.5795898-5.5576134-5.4389648-10.1181564-9.215332-14.3535061c-0.3041992-0.3173828-0.612793-0.6293945-0.925293-0.9384756
	L323.2825623,10.5844679z M317.1990662,48.8827858c-2.8623047,7.6933556-10.8574219,12.6542931-18.9306641,12.7333946
	c-7.1079102,0.4179688-14.8930664-1.640625-19.3007507-7.6044884c-5.1367188-6.7519531-6.2104492-16.2446213-3.4560547-24.1738186
	c2.0053711-5.9750938,6.8945007-10.7455997,12.8930359-12.6611252c9.7768555-3.6113253,22.5727539-0.4194336,27.6015625,9.2358341
	c3.1376953,5.9667931,3.9169922,13.0366135,2.074707,19.5346603c-0.2416992,0.9941368-0.5292969,1.9775352-0.8833008,2.9355431
	H317.1990662z"/>
<path fill="#FFFFFF" d="M532.3547363,10.5844679c-10.2900391-9.5751915-25.8730469-11.8344669-39.0986328-8.0380821
	c-11.0214844,2.9707015-20.168457,11.7778263-23.574707,22.6718636
	c-4.2480164,13.4658146-2.0971375,29.6684399,7.9868164,40.0619965
	c8.9326172,9.3398361,22.7402344,12.3886642,35.2119141,10.5468674c10.2060547-1.4140625,19.8085938-7.1875,25.3564453-15.947258
	c6.6162109-9.8808556,7.4023438-22.7714729,4.2568359-34.003891c-1.5683594-5.3715782-5.1142578-9.9482346-8.8310547-14.0317287
	c-0.4248047-0.4326172-0.8623047-0.8520508-1.3115234-1.2597647H532.3547363z M526.2717285,48.8827858
	c-2.8623047,7.6933556-10.8574219,12.6542931-18.9306641,12.7333946c-7.1079102,0.4179688-14.8935547-1.640625-19.3007813-7.6044884
	c-5.137207-6.7519531-6.2109375-16.2446213-3.4560547-24.1738186c2.0048828-5.9750938,6.894043-10.7455997,12.8930664-12.6611252
	c9.7758789-3.6113253,22.5727539-0.4194336,27.6010742,9.2358341c3.6142578,6.9223595,4.1181641,15.2055588,1.1904297,22.4662971
	L526.2717285,48.8827858z"/>
<path fill="#FFFFFF" d="M181.4100647,1.6201164c-3.6708984,0.0317383-7.347168-0.0639647-11.0131683,0.0493164
	c-2.5234375,0.5268553-1.9238281,3.3735337-1.9848633,5.271482c-0.0366211,14.7119045,0.0727539,29.425766-0.0566406,44.135231
	c-0.2851563,5.3496056-5.0107422,9.5126915-10.1948242,9.9814415c-5.4882813,0.6875-12.0234375,0.5673828-16.0566406-3.7871094
	c-3.4116058-3.7050743-2.6440277-8.9072227-2.7289886-13.5185471c-0.0332031-13.3945255,0.0673828-26.7944202-0.0507813-40.1835709
	c-0.6142578-2.5673816-3.5595703-1.8505851-5.5068359-1.9497062c-2.7998047,0.1025391-5.6508789-0.2202147-8.4125977,0.1914063
	c-2.2856445,1.0888666-1.3027344,3.8920879-1.5170898,5.8935518c0.0385742,14.7519436-0.0791016,29.5034027,0.0610352,44.2582779
	c0.3891602,11.2148361,9.4077148,20.8408089,20.1093597,23.374012c9.7353516,2.3574219,20.8989258,1.6396484,29.234848-4.3535156
	c7.1928711-4.9824142,10.7939453-13.9658127,10.3339844-22.5488167
	c-0.0224609-15.1054611,0.0458984-30.2324066-0.0341797-45.3246803c-0.2661133-0.9311519-1.2412109-1.5053705-2.1782227-1.4902338
	L181.4100647,1.6201164z"/>
<path fill="#FFFFFF" d="M255.5286865,71.4267197c-5.7158203-6.9706955-11.4301758-13.9433517-17.1459961-20.9140511
	c8.4916992-3.4208984,13.8823242-12.4355392,13.8173828-21.4667854c0.3666992-9.1635704-3.9868164-18.6196175-11.9692383-23.4286995
	c-5.6777344-3.756834-12.6088715-4.4931617-19.2519379-4.2670879c-8.1015625,0.0332031-16.2089844-0.0659178-24.3056488,0.0493164
	c-2.6000977,0.5708005-1.8916016,3.5244124-1.9848633,5.4780245v65.9096298
	c0.0058594,2.5019531,2.7602539,2.5800781,4.6074219,2.4453125c2.9633789-0.0322266,5.929184,0.0634766,8.8935394-0.0498047
	c2.6005859-0.5703125,1.8920898-3.5244141,1.9853516-5.4775391V16.8329983
	c5.7734375,0.0634766,11.5571289-0.1347656,17.3237305,0.1142578c6.0351563,0.635252,10.0087738,7.0087852,9.1728363,12.7831955
	c-0.3452148,4.5629864-3.4594574,9.3295879-8.2983246,9.8720646c-4.2929688,0.5107422-8.6269531,0.2558594-12.9399414,0.3183594
	c-2.4013672,0.9189453-1.3476563,3.2822266,0.0302734,4.5449219l22.9233246,29.6806488
	c1.5708008,1.7802734,4.0957031,0.8583984,6.1738281,1.0869141c3.3666992,0,6.7353516-0.0039063,10.0986328,0.0029297
	c2.1601563-0.1669922,2.1826172-2.6210938,0.8730469-3.8056641L255.5286865,71.4267197z"/>
<path fill="#FFFFFF" d="M612.0021362,71.4267197c-5.7158203-6.9706955-11.4306641-13.9433517-17.1464844-20.9140511
	c8.4921875-3.4208984,13.8818359-12.4355392,13.8173828-21.4667854c0.3662109-9.1635704-3.9863281-18.6196175-11.96875-23.4286995
	c-5.6796875-3.7578106-12.6113281-4.4931617-19.2548828-4.2670879c-8.1923828,0.0332031-16.3915405-0.0649413-24.5800171,0.0493164
	c-2.6015625,0.5708005-1.890625,3.5268538-1.9853516,5.4799776v65.9076767
	c0.0068359,2.5029297,2.7626953,2.5800781,4.6103516,2.4453125c2.9638672-0.0322266,5.9287109,0.0634766,8.8925171-0.0498047
	c2.6015625-0.5703125,1.890625-3.5263672,1.9853516-5.4794922V16.5654202
	c5.7734375,0.0634766,11.5566406-0.1347656,17.3232422,0.1142578c6.0351563,0.6352539,10.0087891,7.0087852,9.1728516,12.7831955
	c-0.3447266,4.5629864-3.4589844,9.3295879-8.2978516,9.8720646c-4.4541016,0.5683594-8.9599609,0.1767578-13.4306641,0.3681641
	c-2.4160156,0.7929688-0.5742188,3.3203125,0.5224609,4.4960938c7.640625,9.8925743,15.28125,19.7851448,22.9208984,29.6806488
	c1.5732422,1.7802734,4.0986328,0.8583984,6.1767578,1.0869141c3.6298828-0.0195313,7.2900391,0.0351563,10.8955078-0.0166016
	c1.6503906-0.4814453,1.2265625-2.5332031,0.3496094-3.5136719L612.0021362,71.4267197z"/>
<path fill="#ED1441" d="M697.9991455,0c-1.3759766,0-2.4921875,1.1137689-2.4921875,2.4897449V74.220665
	c0,1.3759766,1.1162109,2.4931641,2.4921875,2.4931641H867.671936c1.3759766,0,2.4921875-1.1171875,2.4921875-2.4931641V2.4897449
	C870.1641235,1.1137689,869.0479126,0,867.671936,0H697.9991455z"/>
<path fill="#FFFFFF" d="M850.2715454,12.4497013c-4.2167969,0-7.6357422,3.4184551-7.6357422,7.6352482
	s3.4189453,7.6352501,7.6357422,7.6352501s7.6347656-3.4184551,7.6347656-7.6352501S854.4883423,12.4497013,850.2715454,12.4497013z
	 M850.2715454,15.9111252c2.3037109,0.0004883,4.171875,1.8691368,4.1708984,4.173336v0.0004883
	c0,2.303709-1.8671875,4.1708965-4.1708984,4.1713848c-2.3046875,0.0009766-4.1738281-1.8662109-4.1748047-4.1708965v-0.0004883
	c0-2.3041992,1.8671875-4.1728477,4.1708984-4.1738243H850.2715454z"/>
<path fill="#FFFFFF" d="M724.5616455,38.9018364v-1.3867188c0-0.2866211-0.0019531-0.8413086,0.3164063-1.2739258
	l9.0087891-12.0590763h-15.3964844c-0.7988281,0-1.4443359-0.6450195-1.4443359-1.4418945v-7.2021427
	c0-0.796875,0.6455078-1.4418936,1.4443359-1.4418936h30.9980469c0.7949219,0,1.4414063,0.6450186,1.4414063,1.4418936v0.8579082
	c0,0.7504883-0.1367188,0.9750977-0.3525391,1.3271465l-10.4638672,14.763176
	c6.8916016,2.2519531,9.90625,8.2753868,9.90625,14.5429611c0,10.1220665-7.2871094,17.1904259-17.7246094,17.1904259
	c-9.6816406,0-16.5625-6.1738281-17.1201172-15.3623009c-0.0244141-0.3964844,0.1162109-0.7841797,0.3896484-1.0742188
	c0.2705078-0.2880859,0.6503906-0.4550781,1.0488281-0.4550781h7.3115234c0.7431641,0,1.3476563,0.5634766,1.4375,1.3017578
	c0.5185547,4.2666016,4.3242188,5.5244141,6.7978516,5.5244141c4.7646484,0,7.6904297-3.0439453,7.6904297-7.0566406
	c0-2.4277306-0.8925781-4.2988243-2.5771484-5.6669884c-2.4482422-1.984375-7.2119141-2.5224571-10.9189453-1.5146484
	c-0.7041016,0.1914063-1.7939453,0.3291016-1.7939453-1.0136681"/>
<path fill="#FFFFFF" d="M782.1983643,46.8017349c0,4.9619102-4.0361328,7.3095665-8.0195313,7.3095665
	c-3.9853516,0-8.0205078-2.5449219-8.0205078-7.4121056c0-4.8691406,4.0351563-7.2670898,8.0205078-7.2670898
	C778.1622314,39.432106,782.1983643,41.8407974,782.1983643,46.8017349 M774.4180908,30.7895336l9.2939453-14.7661037
	c0.4951172-0.8515625,0.0185547-1.9291983-1.1933594-1.9291983h-8.4804688c-0.6298828,0-1.125,0.2924805-1.5009766,0.8886709
	l-13.7734375,22.2319221c-1.8769531,3.0371056-2.7236328,6.2851524-2.7236328,9.6054649
	c0,10.0224533,7.6308594,17.3955002,18.1396484,17.3955002c10.6396484,0,18.0712891-7.1748047,18.0712891-17.4443283v-0.0185547
	v0.0390625V46.772438c0-10.2685509-8.1679688-16.8247013-17.8310547-15.9814396"/>
<path fill="#FFFFFF" d="M825.578186,47.9052467c0.2958984-1.2509727,0.3183594-2.3456993,0.3183594-3.6699181V31.486311
	c0-1.3227539-0.0976563-2.4584942-0.3183594-3.5629864c-0.8261719-3.7495098-3.984375-5.7040997-7.953125-5.7040997
	c-3.9707031,0-7.2128296,1.9770508-8.039978,5.7260723c-0.2207031,1.1044922-0.2871094,2.2182598-0.2871094,3.5410137v12.7490177
	c0,1.3242188,0.0888672,2.4306641,0.3095703,3.5331993c0.8261719,3.6943359,4.0458374,5.7324219,8.0165405,5.7324219
	c3.9697266,0,7.0820313-1.9121094,7.953125-5.5957031 M835.9883423,29.5639477v16.9291935
	c0,10.7060471-8.2255859,17.0878792-18.3632813,17.0878792c-10.281189,0-18.5048218-6.3818321-18.5048218-17.0878792V29.5659008
	c0-10.6347599,8.2236328-16.9453011,18.5048218-16.9453011c10.1376953,0,18.3632813,6.3105412,18.3632813,16.9453011"/>
<path fill="#FFFFFF" d="M928.3027954,2.4321277c0-0.6948239-0.5634766-1.2001947-1.2587891-1.2001947h-5.4404297
	c-0.6953125,0-1.2617188,0.5053709-1.2617188,1.2001947v13.346673h-14.3955078v-13.35888
	c0-0.6948239-0.5664063-1.188476-1.2617188-1.188476h-5.4384766c-0.6972656,0-1.2617188,0.4936521-1.2617188,1.188476v36.3779106
	c0,0.6982384,0.5644531,1.2470665,1.2617188,1.2470665h5.4384766c0.6953125,0,1.2617188-0.5488281,1.2617188-1.2470665V23.7397327
	h14.3955078v15.0580997c0,0.6982384,0.5664063,1.2470665,1.2617188,1.2470665h5.4404297
	c0.6953125,0,1.2587891-0.5488281,1.2587891-1.2470665V2.4321277z"/>
<path fill="#FFFFFF" d="M951.9003906,1.2309564c12.5146484,0,19.0644531,9.6669874,19.0644531,19.295887
	c0,5.2011681-1.7519531,10.0229435-4.9296875,13.5717697c-3.4921875,3.9018555-8.3818359,5.9462852-14.1347656,5.9462852
	h-13.2119141c-0.6982422,0-1.2616577-0.5727539-1.2616577-1.270504V2.4399402c0-0.6953121,0.5634155-1.2094721,1.2616577-1.2094721
	L951.9003906,1.2309564z M945.3349609,32.1244926h7.0449219c7.3564453,0,10.7089844-5.9838829,10.7089844-11.5473557
	c0-5.5581017-3.3349609-11.4140558-10.6591797-11.4140558h-7.09375L945.3349609,32.1244926z"/>
<path fill="#FFFFFF" d="M981.8330078,12.7040949h-7.6210938c0.2363281-3.4462872,1.4970703-6.2133756,3.78125-8.3002892
	c2.3037109-2.0874012,5.0615234-3.1313457,8.2705078-3.1313457c3.5253906,0,6.5185547,1.0043939,8.9804688,3.0131822
	c2.4814453,1.9887686,3.7216797,4.3911114,3.7216797,7.2075157c0,3.0717764-1.5166016,5.848629-4.5488281,8.3295841
	c1.9296875,1.2211914,3.3378906,2.5009747,4.2236328,3.8403301C999.546875,24.9824085,1000,26.5673676,1000,28.4184418
	c0,3.5253887-1.171875,6.3510704-3.515625,8.4775352c-2.34375,2.1269531-5.4453125,3.1909142-9.3046875,3.1909142
	c-3.5839844,0-6.5576172-1.0146484-8.9208984-3.0429649c-2.3427734-2.0478516-3.7910156-4.8837891-4.3417969-8.5073204h7.7978516
	c0.9257813,3.5839806,2.7080078,5.376461,5.3466797,5.376461c1.3193359,0,2.4316406-0.4628906,3.3378906-1.3886719
	c0.90625-0.9453106,1.359375-2.1069317,1.359375-3.4853477c0-1.6938477-0.5517578-3.0722656-1.6542969-4.135252
	c-1.0830078-1.0830078-2.4814453-1.625-4.1953125-1.625h-1.3876953v-6.3505821h0.8271484
	c1.7919922,0,3.2294922-0.4428711,4.3125-1.3290997c1.0830078-0.8862305,1.625-2.0581045,1.625-3.5151348
	c0-1.3193359-0.4335938-2.4418936-1.2998047-3.3676739c-0.8466797-0.9453125-1.890625-1.4179683-3.1308594-1.4179683
	C983.9599609,7.2983365,982.2861328,9.1005812,981.8330078,12.7040949z"/>
</svg>
