<?xml version="1.0" encoding="utf-8"?>
<!-- Generator: Adobe Illustrator 23.1.0, SVG Export Plug-In . SVG Version: 6.00 Build 0)  -->
<svg version="1.1" id="Layer_2" xmlns="http://www.w3.org/2000/svg" xmlns:xlink="http://www.w3.org/1999/xlink" x="0px" y="0px"
	 width="1000px" height="76.5048828px" viewBox="0 0 1000 76.5048828" enable-background="new 0 0 1000 76.5048828"
	 xml:space="preserve">
<path fill="#FFFFFF" d="M66.1899414,75.0244141c-8.3662109-5.4179688-16.7324219-10.8349609-25.097168-16.2529297
	C28.2216797,64.1894531,15.3520508,69.6064453,2.4814453,75.0244141
	c7.6303711-8.7587891,15.2607422-17.5166016,22.8911133-26.2753906C16.9145508,43.3310547,8.456543,37.9145508,0,32.496582
	h39.4384766C48.355957,22.2026348,57.2734375,11.909668,66.1899414,1.6157227V32.496582h38.0595703L66.1899414,48.4794922
	v26.5458984V75.0244141z"/>
<path fill="#FFFFFF" d="M113.6254883,16.7861309c1.5742188,0.0634766,2.7202148-1.5039043,2.4819336-2.9916973
	c-0.0083008-3.3300781,0.0170898-6.6611328-0.0126953-9.9902344c-0.109375-1.5351563-1.7055664-2.3930664-3.1152344-2.1875
	H72.5322266v15.1689434H113.625L113.6254883,16.7861309z"/>
<path fill="#FFFFFF" d="M113.6254883,75.0244141c1.5742188,0.0634766,2.7202148-1.5029297,2.4819336-2.9912109
	c-0.0083008-3.3300781,0.0170898-6.6611328-0.0126953-9.9902344c-0.109375-1.5351563-1.7055664-2.3925781-3.1152344-2.1875
	H72.5322266v15.1689453H113.625H113.6254883z"/>
<path fill="#FFFFFF" d="M663.0058594,1.6157227h-51.0175781c-2.4648438-0.0327148-2.6425781,2.644043-2.4814453,4.4775391
	c0.03125,2.9155273-0.0644531,5.8364258,0.0507813,8.7470703c0.5917969,2.5273418,3.4755859,1.8598614,5.3974609,1.944334
	h14.9599609v56.0717773c0,2.4570313,2.6953125,2.5820313,4.5205078,2.4384766
	c2.9804688-0.0322266,5.9667969,0.0634766,8.9433594-0.0498047c2.4833984-0.5078125,1.9316406-3.2988281,1.9794922-5.1699219
	V16.7895489c6.1425781-0.0332031,12.2919922,0.0644531,18.4287109-0.0493164
	c2.4833984-0.5078125,1.9316406-3.2998028,1.9794922-5.16992c-0.0888672-2.6625977,0.1816406-5.3759766-0.140625-8.0068359
	c-0.3886719-1.0869141-1.4296875-1.9594727-2.6171875-1.9438477L663.0058594,1.6157227z"/>
<path fill="#FFFFFF" d="M459.1943359,18.1401348c-3.5732422-10.3891582-14.6704102-16.7426739-25.3793945-16.5278301
	c-9.4511719,0.0327148-18.9140625-0.065918-28.3530273,0.0493164c-2.4921875,0.5126953-1.9282227,3.3183594-1.9799805,5.1948242
	v65.9931641c0.0004883,2.4667969,2.7109375,2.5800781,4.5400391,2.4384766
	c2.9741211-0.0332031,5.9541016,0.0644531,8.9243164-0.0498047c2.4921875-0.5126953,1.9282227-3.3183594,1.9799805-5.1943359
	V55.2431641c5.9785156-0.0703125,11.9677734,0.1572266,17.9394531-0.1484375
	c10.7348633-0.7783203,20.9462891-8.5644531,23.262207-19.2856445c1.6879883-5.8315449,0.925293-11.9887714-0.9370117-17.6796894
	L459.1943359,18.1401348z M444.578125,33.0385742c-1.215332,3.6254883-4.5234375,6.4350586-8.4121094,6.5688477
	c-5.7363281,0.3671875-11.4916992,0.1396484-17.2363281,0.203125v-23.024416
	c5.7578125,0.0620117,11.5258789-0.1342773,17.2763672,0.1137695c6.0185547,0.6337891,9.9814453,6.9897461,9.1479492,12.7485352
	C445.2529297,30.8061504,445.015625,31.9594707,444.578125,33.0385742z"/>
<path fill="#FFFFFF" d="M354.3974609,22.744627c-0.3037109,3.6088867,3.2348633,5.9008789,6.3051758,6.7041016
	c5.7294922,1.8452148,11.8374023,2.0136719,17.6162109,3.7075214c6.8310547,1.5302734,14.1030273,5.0004883,16.9135742,11.8613281
	c3.2290039,8.0117188,1.7666016,18.2480469-4.9829102,24.0478516c-5.0126953,4.4394531-11.6508789,6.8105469-18.309082,7.0537109
	c-10.2431641,1.3300781-20.7407227-2.2451172-28.7304688-8.6142578c-1.8212891-2.0341797-6.0517578-4.2763672-4.6879883-7.4277344
	c2.8657227-2.9306641,5.6811523-5.9365234,8.65625-8.7509766c3.6899414-0.4345703,4.9101563,5.2626953,8.4414063,6.3408203
	c5.871582,4.0283203,13.6582031,4.953125,20.3105469,2.4648438c3.4892578-1.1259766,5.9799805-4.7998047,5.0864258-8.4814453
	c-0.9003906-3.5380859-4.7910156-5.4189453-8.0825195-6.1728516c-7.2568359-1.5253906-14.8457031-1.9277344-21.7446289-4.8251953
	c-6.1386719-2.5825195-11.4321289-8.0791016-12.0600586-14.9370136c-1.0273438-7.453125,2.1503906-15.2573223,8.2290039-19.7314434
	c8.6293945-6.2392578,20.3549805-7.3959961,30.4067383-4.2988281c6.7265625,2.0126953,12.777832,6.4350586,16.7290039,12.2304688
	c0.9438477,2.0356445-1.5249023,3.1455059-2.5874023,4.4843731c-2.1123047,1.9301758-3.9545898,4.2026367-6.2724609,5.8730469
	c-3.59375,0.2231445-4.4824219-5.1557617-7.7939453-6.3867188c-5.5952148-3.822752-13.1713867-3.7617168-19.2827148-1.2861328
	c-2.4194336,1.0883789-4.1508789,3.4418945-4.1665039,6.1396484L354.3974609,22.744627z"/>
<path fill="#FFFFFF" d="M322.3994141,10.5556641c-10.262207-9.5488281-25.8022461-11.8022461-38.9916992-8.015625
	c-10.9980469,2.9619141-20.1132813,11.7456055-23.5102539,22.6083965
	c-4.2368164,13.4292011-2.0913086,29.5878925,7.965332,39.9521484c8.9082031,9.3154297,22.6782227,12.3544922,35.1147461,10.5185547
	c10.1791992-1.4101563,19.7548828-7.1679688,25.2880859-15.9033203c6.5981445-9.8544922,7.3823242-22.7099609,4.2446289-33.9111328
	c-1.5751953-5.5429688-5.4238281-10.0908184-9.1899414-14.3144512c-0.3037109-0.3164063-0.6113281-0.6279297-0.9228516-0.9355469
	L322.3994141,10.5556641z M316.3330078,48.7490234c-2.8544922,7.6728516-10.828125,12.6210938-18.8789063,12.6992188
	c-7.0883789,0.4160156-14.8525391-1.6357422-19.2480469-7.5839844c-5.1230469-6.7333984-6.1938477-16.2001953-3.4467773-24.1079121
	c1.9995117-5.9584961,6.8759766-10.7158203,12.8579102-12.6259766c9.75-3.6020489,22.5112305-0.418457,27.5258789,9.2099609
	c3.1293945,5.9506855,3.90625,13.0014668,2.0688477,19.4819355c-0.2407227,0.9912109-0.527832,1.9716797-0.8803711,2.9267578
	H316.3330078z"/>
<path fill="#FFFFFF" d="M530.9013672,10.5556641c-10.2626953-9.5488281-25.8027344-11.8022461-38.9921875-8.015625
	c-10.9912109,2.9619141-20.1132813,11.7456055-23.5102539,22.6098614
	c-4.2368164,13.4287128-2.0913086,29.5874043,7.965332,39.9516602c8.9082031,9.3154297,22.6777344,12.3554688,35.1152344,10.5185547
	c10.1787109-1.4101563,19.7539063-7.1679688,25.2871094-15.9033203c6.5986328-9.8544922,7.3828125-22.7094727,4.2451172-33.9111328
	c-1.5634766-5.3569336-5.0996094-9.9213848-8.8066406-13.9931622c-0.4238281-0.4316406-0.859375-0.8500977-1.3076172-1.2568359
	H530.9013672z M524.8339844,48.7490234c-2.8535156,7.6728516-10.8271484,12.6210938-18.8789063,12.6992188
	c-7.0878906,0.4160156-14.8525391-1.6357422-19.2475586-7.5839844c-5.1230469-6.7333984-6.1938477-16.2001953-3.4467773-24.1079121
	c1.9995117-5.9584961,6.8759766-10.7158203,12.8579102-12.6259766c9.7495117-3.6020489,22.5112305-0.418457,27.5258789,9.2099609
	c3.6044922,6.9038105,4.1074219,15.1645527,1.1875,22.4057636L524.8339844,48.7490234z"/>
<path fill="#FFFFFF" d="M180.9145508,1.6157227c-3.6606445,0.0317383-7.3271484-0.0634766-10.9829102,0.0493164
	c-2.5170898,0.5258789-1.918457,3.3647461-1.9794922,5.2573242c-0.0366211,14.6713848,0.0727539,29.3452148-0.0566406,44.0151367
	c-0.284668,5.3339844-4.9970703,9.4863281-10.1669922,9.9541016c-5.4731445,0.6845703-11.9902344,0.5654297-16.0126953-3.7773438
	c-3.4023438-3.6943359-2.6367188-8.8828125-2.7216797-13.4814453c-0.0327148-13.3579121,0.0673828-26.7211933-0.050293-40.0737305
	c-0.612793-2.5605469-3.550293-1.8457031-5.4921875-1.9443359c-2.7919922,0.1020508-5.6352539-0.2197266-8.3896484,0.1904297
	c-2.2792969,1.0859375-1.2988281,3.8813477-1.5126953,5.8774414c0.0385742,14.7119122-0.0791016,29.4233398,0.0610352,44.1376953
	c0.3876953,11.1845703,9.3818359,20.7841797,20.0541992,23.3095703c9.7084961,2.3515625,20.8417969,1.6357422,29.1552734-4.3408203
	c7.1728516-4.96875,10.7641602-13.9277344,10.3056641-22.4873047c-0.0224609-15.0644531,0.0458984-30.1499043-0.0341797-45.2011719
	c-0.265625-0.9287109-1.237793-1.5009766-2.1723633-1.4858398L180.9145508,1.6157227z"/>
<path fill="#FFFFFF" d="M254.8310547,71.2324219c-5.7001953-6.9521484-11.3989258-13.9052734-17.0991211-20.8574219
	c8.4682617-3.4111328,13.84375-12.4013672,13.7792969-21.408205c0.3657227-9.1386719-3.9755859-18.5688457-11.9360352-23.3647442
	c-5.6625977-3.746582-12.574707-4.480957-19.199707-4.2553711c-8.0795898,0.0327148-16.1645508-0.065918-24.2392578,0.0493164
	c-2.5932617,0.5688477-1.8867188,3.5146484-1.9794922,5.4628906v65.7299805
	c0.0058594,2.4941406,2.7529297,2.5732422,4.5947266,2.4384766c2.9555664-0.0322266,5.9130859,0.0634766,8.8696289-0.0498047
	c2.5932617-0.5693359,1.8867188-3.5146484,1.9794922-5.4628906V16.7871075
	c5.7578125,0.0634766,11.5258789-0.1342773,17.2763672,0.1137695c6.019043,0.6337891,9.9814453,6.9897461,9.1479492,12.7485352
	c-0.3442383,4.5507832-3.4501953,9.3042011-8.2753906,9.8452168c-4.28125,0.5092773-8.6035156,0.2553711-12.9047852,0.3168945
	c-2.3945313,0.9169922-1.34375,3.2744141,0.0302734,4.5332031l22.8603516,29.5996094
	c1.5668945,1.7753906,4.0849609,0.8554688,6.1572266,1.0839844c3.3574219,0,6.7172852-0.0039063,10.0708008,0.0029297
	c2.1547852-0.1669922,2.1772461-2.6142578,0.8710938-3.7949219L254.8310547,71.2324219z"/>
<path fill="#FFFFFF" d="M610.3310547,71.2324219c-5.7001953-6.9521484-11.3994141-13.9052734-17.0996094-20.8574219
	c8.46875-3.4111328,13.8447266-12.4013672,13.7792969-21.408205c0.3662109-9.1386719-3.9755859-18.5688457-11.9355469-23.3647442
	c-5.6640625-3.7475586-12.5771484-4.480957-19.2021484-4.2553711c-8.1699219,0.0327148-16.3466797-0.0644531-24.5136719,0.0493164
	c-2.59375,0.5688477-1.8847656,3.5170898-1.9794922,5.4648438v65.7280273
	c0.0058594,2.4960938,2.7548828,2.5732422,4.5976563,2.4384766c2.9550781-0.0322266,5.9130859,0.0634766,8.8681641-0.0498047
	c2.5947266-0.5693359,1.8857422-3.5175781,1.9794922-5.4648438V16.5200176
	c5.7578125,0.0634766,11.5263672-0.1337891,17.2763672,0.1142578c6.0195313,0.6337891,9.9814453,6.9897461,9.1484375,12.7485352
	c-0.3447266,4.5502949-3.4501953,9.3042011-8.2753906,9.8447285c-4.4423828,0.5664063-8.9355469,0.1762695-13.3945313,0.3671875
	c-2.4091797,0.7910156-0.5722656,3.3115234,0.5214844,4.484375c7.6191406,9.8652344,15.2392578,19.7314453,22.8583984,29.5996094
	c1.5683594,1.7753906,4.0878906,0.8554688,6.1601563,1.0839844c3.6191406-0.0205078,7.2695313,0.0351563,10.8652344-0.0166016
	c1.6455078-0.4804688,1.2236328-2.5263672,0.3486328-3.5039063L610.3310547,71.2324219z"/>
<path fill="#ED1441" d="M696.09375,0c-1.3720703,0-2.4863281,1.1108398-2.4863281,2.4833984v71.5351563
	c0,1.3720703,1.1142578,2.4863281,2.4863281,2.4863281h169.2089844c1.3720703,0,2.4863281-1.1142578,2.4863281-2.4863281V2.4833984
	C867.7890625,1.1108398,866.6748047,0,865.3027344,0H696.09375z"/>
<path fill="#FFFFFF" d="M847.9501953,12.4160156c-4.2060547,0-7.6152344,3.4086914-7.6152344,7.6142559
	s3.4091797,7.6147461,7.6152344,7.6147461c4.2050781,0,7.6142578-3.4091797,7.6142578-7.6147461
	S852.1552734,12.4160156,847.9501953,12.4160156z M847.9501953,15.8676758
	c2.2978516,0.0004883,4.1601563,1.8642559,4.1591797,4.1621075v0.0004883c0,2.2973633-1.8623047,4.159668-4.1591797,4.1601563
	c-2.2988281,0.0009766-4.1621094-1.8613281-4.1630859-4.1591797v-0.0009766
	c-0.0009766-2.2978516,1.8613281-4.1616192,4.1591797-4.1625957H847.9501953z"/>
<path fill="#FFFFFF" d="M722.5830078,38.7958984v-1.3828125c0-0.2861328-0.0019531-0.8393555,0.3154297-1.2705078
	l8.984375-12.0263691h-15.3544922c-0.7958984,0-1.4394531-0.6430664-1.4394531-1.4379883v-7.1826153
	c0-0.7944336,0.6435547-1.4379883,1.4394531-1.4379883h30.9130859c0.7929688,0,1.4384766,0.6435547,1.4384766,1.4379883v0.8554668
	c0,0.7490234-0.1367188,0.9726563-0.3515625,1.3242188l-10.4355469,14.7226582
	c6.8730469,2.2460938,9.8789063,8.2524414,9.8789063,14.503418c0,10.0947266-7.2666016,17.1435547-17.6757813,17.1435547
	c-9.6552734,0-16.5175781-6.1572266-17.0742188-15.3203125c-0.0234375-0.3955078,0.1162109-0.7832031,0.3886719-1.0722656
	c0.2695313-0.2871094,0.6494141-0.453125,1.046875-0.453125h7.2910156c0.7412109,0,1.3447266,0.5615234,1.4335938,1.2988281
	c0.5166016,4.2548828,4.3125,5.5087891,6.7792969,5.5087891c4.7509766,0,7.6689453-3.0361328,7.6689453-7.0371094
	c0-2.4208984-0.8896484-4.2880859-2.5693359-5.6513672c-2.4414063-1.9794922-7.1923828-2.5161133-10.8886719-1.5107422
	c-0.703125,0.1914063-1.7900391,0.3271484-1.7900391-1.0112305"/>
<path fill="#FFFFFF" d="M780.0625,46.6738281c0,4.9482422-4.0244141,7.2900391-7.9980469,7.2900391
	c-3.9746094,0-7.9980469-2.5380859-7.9980469-7.3925781s4.0234375-7.246582,7.9980469-7.246582
	C776.0380859,39.324707,780.0625,41.7265625,780.0625,46.6738281 M772.3037109,30.7060528l9.2685547-14.7260723
	c0.4941406-0.8491211,0.0185547-1.9243164-1.1904297-1.9243164h-8.4570313c-0.6289063,0-1.1220703,0.2924805-1.4970703,0.8867188
	l-13.7353516,22.1708984c-1.8730469,3.0283203-2.7158203,6.2685547-2.7158203,9.5800781
	c0,9.9941406,7.609375,17.3476563,18.0898438,17.3476563c10.6103516,0,18.0214844-7.15625,18.0214844-17.3964844V46.625v0.0390625
	v-0.0185547c0-10.2412109-8.1455078-16.7792988-17.7822266-15.9384785"/>
<path fill="#FFFFFF" d="M823.3242188,47.7753906c0.2949219-1.2490234,0.3173828-2.3398438,0.3173828-3.6611328V31.400877
	c0-1.3198242-0.0976563-2.4521484-0.3173828-3.5537109c-0.8242188-3.7387695-3.9736328-5.6884766-7.9316406-5.6884766
	c-3.9599609,0-7.1933594,1.9716797-8.0175781,5.7109375c-0.2207031,1.1010742-0.2871094,2.2114258-0.2871094,3.53125v12.7133808
	c0,1.3212891,0.0888672,2.4248047,0.3085938,3.5244141c0.8242188,3.6835938,4.0351563,5.7167969,7.9951172,5.7167969
	c3.9580078,0,7.0625-1.9072266,7.9316406-5.5800781 M833.7050781,29.4838848v16.8823261
	c0,10.6767578-8.2021484,17.0419922-18.3125,17.0419922c-10.2529297,0-18.4541016-6.3652344-18.4541016-17.0419922V29.4853497
	c0-10.605957,8.2011719-16.8989239,18.4541016-16.8989239c10.1103516,0,18.3125,6.2929668,18.3125,16.8989239"/>
<path fill="#FFFFFF" d="M925.7685547,2.4257813c0-0.6928711-0.5625-1.1967773-1.2548828-1.1967773h-5.4267578
	c-0.6933594,0-1.2578125,0.5039063-1.2578125,1.1967773v13.3100586h-14.3564453V2.4135742
	c0-0.6928711-0.5654297-1.1855469-1.2578125-1.1855469h-5.4238281c-0.6962891,0-1.2578125,0.4926758-1.2578125,1.1855469v36.2788086
	c0,0.6962891,0.5615234,1.2431641,1.2578125,1.2431641h5.4238281c0.6923828,0,1.2578125-0.5473633,1.2578125-1.2431641V23.6752911
	h14.3564453v15.0170918c0,0.6962891,0.5654297,1.2431641,1.2578125,1.2431641h5.4267578
	c0.6923828,0,1.2548828-0.5473633,1.2548828-1.2431641V2.4257813z"/>
<path fill="#FFFFFF" d="M949.3007813,1.2280273c12.4804688,0,19.0136719,9.6401367,19.0136719,19.2431622
	c0,5.1870117-1.7480469,9.9956055-4.9169922,13.5341816c-3.4833984,3.8916016-8.3583984,5.9301758-14.0957031,5.9301758H936.125
	c-0.6962891,0-1.2578125-0.5708008-1.2578125-1.2670898V2.4331055c0-0.6928711,0.5615234-1.2055664,1.2578125-1.2055664
	L949.3007813,1.2280273z M942.7539063,32.0371094h7.0253906c7.3369141,0,10.6806641-5.9677753,10.6806641-11.5161152
	c0-5.5424786-3.3261719-11.3823223-10.6308594-11.3823223h-7.0751953V32.0371094z"/>
<path fill="#FFFFFF" d="M983.7314453,1.2392578h10.0664063l-9.4365234,12.8828125
	c1.2978516-0.2397461,2.4765625-0.359375,3.5351563-0.359375c3.2949219,0,6.1318359,1.2280273,8.5087891,3.6850567
	C998.8017578,19.904295,1000,22.8305645,1000,26.2260723c0,3.9545898-1.4082031,7.2304707-4.2246094,9.8266621
	c-2.8164063,2.5966797-6.3808594,3.8945313-10.6953125,3.8945313c-3.9941406,0-7.2998047-1.2680664-9.9169922-3.8046875
	c-2.5966797-2.5566406-3.8945313-5.802248-3.8945313-9.7368183c0-2.8364258,0.6494141-5.7426758,1.9472656-8.71875
	c1.2988281-2.9760723,2.7363281-5.5722637,4.3144531-7.7895489L983.7314453,1.2392578z M991.28125,26.1660137
	c0-1.7177734-0.5488281-3.1557617-1.6474609-4.3139648c-1.0986328-1.1787109-2.4472656-1.7675781-4.0449219-1.7675781
	c-1.7373047,0-3.2050781,0.5991211-4.4042969,1.7973633c-1.1982422,1.1787109-1.796875,2.6264648-1.796875,4.3442383
	c0,1.6977539,0.5888672,3.1357422,1.7675781,4.3144531c1.1982422,1.1582031,2.6757813,1.7373066,4.4335938,1.7373066
	c1.5576172,0,2.8964844-0.599123,4.0146484-1.7973652C990.7216797,29.2817364,991.28125,27.8437481,991.28125,26.1660137z"/>
</svg>
