<?xml version="1.0" encoding="UTF-8" standalone="no"?>
<!-- Generator: Adobe Illustrator 23.0.1, SVG Export Plug-In . SVG Version: 6.00 Build 0)  -->

<svg
   version="1.1"
   id="Calque_1"
   x="0px"
   y="0px"
   viewBox="0 0 2106 250"
   enable-background="new 0 0 2106 250"
   xml:space="preserve"
   sodipodi:docname="euronews.svg"
   inkscape:version="1.1.1 (3bf5ae0d25, 2021-09-20)"
   xmlns:inkscape="http://www.inkscape.org/namespaces/inkscape"
   xmlns:sodipodi="http://sodipodi.sourceforge.net/DTD/sodipodi-0.dtd"
   xmlns="http://www.w3.org/2000/svg"
   xmlns:svg="http://www.w3.org/2000/svg"><defs
   id="defs25" /><sodipodi:namedview
   id="namedview23"
   pagecolor="#ffffff"
   bordercolor="#ffffff"
   borderopacity="1.0"
   inkscape:pageshadow="2"
   inkscape:pageopacity="0.0"
   inkscape:pagecheckerboard="0"
   showgrid="false"
   inkscape:zoom="0.53608737"
   inkscape:cx="1053"
   inkscape:cy="125.91231"
   inkscape:window-width="1920"
   inkscape:window-height="1017"
   inkscape:window-x="-8"
   inkscape:window-y="-8"
   inkscape:window-maximized="1"
   inkscape:current-layer="Calque_1" />
<g
   id="g20">
	<path
   fill="#ffffff"
   d="M195.9,180.4c-17.4,24.9-45.3,39.7-75,39.7c-43.1,0-81.1-31.6-90.3-75.1l-0.3-1.6h159.8h44.7h6.2   c1.3-8.6,0.9-17.9,0.9-17.9l0,0c0-0.3,0-0.5,0-0.8C241.9,56,187.7,0.1,121,0.1C54.3,0.1,0,56,0,124.8c0,68.8,54.3,124.7,121,124.7   c45.4,0,86.6-25.9,107.6-67.6l3-6.1h-32.6C197.8,177.7,196.7,179.3,195.9,180.4 M29.3,112.6c5.9-47.4,45.4-83.2,91.7-83.2   c46.3,0,85.8,35.8,91.7,83.2l0.2,1.5H29.1L29.3,112.6z"
   id="path2" />
	<path
   fill="#ffffff"
   d="M377.6,249.6c-13.4,0-26.3-2.4-38.2-7.1c-11.8-4.7-22.3-11.6-31.1-20.3c-9-8.9-16-19.5-20.8-31.5   c-5-12.5-7-26.2-6.9-40.6l0-145.1h28l0,142.8c0,11.2,1.3,21.6,5,31.1c3.5,9,8.5,16.9,15,23.6c6.3,6.5,13.7,11.6,22.1,15   c8.5,3.5,17.5,5.3,26.8,5.3c9.5,0,18.6-1.8,27.1-5.3c8.4-3.5,15.8-8.6,22.2-15.1c6.5-6.7,11.6-14.6,15.1-23.6c3.7-9.5,6-19.9,6-31   V4.9h27.9l0,145.1c0,14.5-3,28.1-8,40.5c-4.9,12-11.9,22.6-20.9,31.5c-8.9,8.8-19.3,15.6-31.1,20.3   C403.9,247.1,391.1,249.6,377.6,249.6L377.6,249.6z"
   id="path4" />
	<path
   fill="#ffffff"
   d="M515.8,243.1V105.7c0-10.2,1.2-20.2,3.6-29.7c3.3-13.2,8.7-24.9,16.1-34.9c9.2-12.4,21.6-22.2,36.8-29.1   c17.5-7.9,39-11.9,63.9-11.9h4.7V30l-4.6,0c-18.1,0-33.6,2.4-46.3,7.1c-11.1,4.1-20.2,10.1-27.1,17.8c-6,6.7-10.5,14.8-13.3,24.2   c-2.4,8-3.6,17-3.7,26.7v137.3L515.8,243.1L515.8,243.1z"
   id="path6" />
	<path
   fill="#ffffff"
   d="M1090.7,243.1V117.6c0-9.7-1-18.7-4.1-26.8c-2.9-7.5-7.1-14.1-12.4-19.7c-5.1-5.3-11.2-9.5-18-12.3   c-7-2.9-14.4-4.4-22.1-4.4c-7.9,0-15.4,1.5-22.4,4.4c-6.8,2.9-12.9,7-18.1,12.4c-5.4,5.5-9.6,12.2-12.5,19.7   c-3.2,8.1-5.2,17.2-5.3,26.8l0,125.4h-55.4l0-127.9c0.1-16.5,3.4-32.1,9.2-46.4c5.7-14,13.8-26.3,24.3-36.7   c10.3-10.2,22.5-18.2,36.2-23.7c13.7-5.5,28.5-8.3,43.9-8.3c15.4,0,30.2,2.8,43.9,8.3c13.7,5.5,25.9,13.5,36.2,23.7   c10.4,10.4,18.6,22.8,24.2,36.7c5.7,14.4,8,30.1,8,46.6v127.8H1090.7z"
   id="path8" />
	<path
   fill="#ffffff"
   d="M1294.2,249.4c-66.7,0-120.9-55.9-120.9-124.7C1173.2,56,1227.5,0,1294.2,0c66.7,0,120.9,56,120.9,124.7   c0,6.4-0.5,12.7-1.4,19l-0.3,1.9h-188.9l0.8,2.6c9.8,30.6,37.5,51.2,68.8,51.2c17,0,33.1-6,46.3-17.4c0,0,3.5-3,4-3.5h58.9   l-1.7,3.3C1380.8,223.5,1339.6,249.4,1294.2,249.4 M1294.2,50c-31.4,0-59,20.6-68.8,51.2l-0.8,2.6h139.2l-0.8-2.6   C1353.2,70.6,1325.5,50,1294.2,50"
   id="path10" />
	<path
   fill="#ffffff"
   d="M1434,6.3V4.9h60c7.3,57.4,26.2,148.5,42.4,189.7c17.2-41.2,37.3-132.2,44.7-189.7h49.8   c7.7,57.4,27.4,144.7,45,189.7c16.3-45,34.8-132.2,42.4-189.7h59.7v1.4c-13.7,89.7-39.9,181.9-62.2,236.7H1641   c-12.4-30-27.4-75.9-35.1-117.1c-7.3,41.2-23.6,89.7-34.8,117.1h-74.7C1470.3,183.1,1441.9,82.5,1434,6.3"
   id="path12" />
	<path
   fill="#ffffff"
   d="M1802.6,232.6v-45.5h2.5c13.5,4.1,42.7,9.7,63.7,9.7h12.2c19.4,0,34.2-6,34.2-25.7   c0-14.7-12.9-20.7-27-24.5l-36.7-9.7c-27-6.9-48.9-25.7-48.9-66.2c0-47.7,39.2-67.4,86.9-67.4h12.2c14.7,0,44.2,3.8,57.7,8.8v45.2   h-2.5c-12.2-3.5-41.7-7.2-55.2-7.2h-11c-17.2,0-32,3.4-32,20.7c0,13.5,10,18.8,22.3,22l36.7,10c35.4,9.4,53.9,30.4,53.9,68.4   c0,52.7-37.9,72.5-90.6,72.5h-12.2C1850.2,243.6,1819.5,238.6,1802.6,232.6"
   id="path14" />
	<path
   fill="#ffffff"
   d="M2106,193.4c0,27.8-22.5,50.3-50.3,50.3c-27.8,0-50.3-22.5-50.3-50.3s22.5-50.3,50.3-50.3   C2083.5,143.1,2106,165.6,2106,193.4"
   id="path16" />
	<path
   fill="#ffffff"
   d="M771.4,0.6c-67.2,0-121.7,55.8-121.7,124.7S704.2,250,771.4,250s121.7-55.8,121.7-124.7   S838.6,0.6,771.4,0.6 M771.4,216c-46.9,0-85-40.7-85-90.7s38.1-90.7,85-90.7c46.9,0,85,40.7,85,90.7S818.3,216,771.4,216"
   id="path18" />
</g>
<path
   style="fill:#ffffff;stroke-width:1"
   d="M 93.291168,245.08294 C 73.087335,240.19879 55.570617,230.05129 38.989687,213.62591 22.095449,196.89016 12.922818,182.00009 6.2145971,160.42161 -0.21223723,139.74828 0.16940914,107.65358 7.090769,86.739593 14.068389,65.655604 23.87464,50.244051 40.294217,34.556878 63.593535,12.296843 89.425216,1.8653676 121.24889,1.8653676 c 32.98211,0 58.16084,10.5808354 82.33531,34.5996814 12.6784,12.596797 16.56727,17.98593 23.58189,32.679441 4.6199,9.677307 9.28236,21.372472 10.36103,25.989257 2.82033,12.071223 4.72919,36.164793 3.31245,41.809553 l -1.21091,4.82464 H 134.27093 c -57.946754,0 -105.357732,0.33128 -105.357732,0.73619 0,0.40491 1.648718,6.07096 3.663816,12.59123 9.086146,29.4001 32.445936,52.5527 62.115478,61.56455 16.833018,5.11286 43.651998,4.223 59.653658,-1.97933 13.60438,-5.27313 31.39245,-18.59501 39.0305,-29.23077 l 5.91743,-8.23989 h 14.60673 c 8.03369,0 14.59885,0.62956 14.58922,1.39903 -0.0597,4.76428 -13.69004,23.87526 -24.96474,35.00261 -15.18524,14.98679 -36.53369,27.1622 -55.4413,31.61919 -14.8006,3.48888 -40.03081,3.42081 -54.792822,-0.14773 z M 213.56245,112.3884 C 213.52064,106.2256 208.56175,90.460249 203.1478,79.278122 196.0968,64.714796 176.9906,45.534628 162.60088,38.574238 109.49333,12.885797 48.805207,39.958783 31.919282,96.871338 30.265936,102.4438 28.913198,108.94927 28.913198,111.32794 v 4.32485 h 92.335692 c 86.70361,0 92.33436,-0.19911 92.31356,-3.26439 z"
   id="path100" /><path
   style="fill:#ffffff;stroke-width:1"
   d="m 352.0057,245.19022 c -32.00289,-8.61403 -55.72976,-30.98004 -66.03719,-62.24965 -3.8444,-11.66274 -4.07808,-16.277 -4.80096,-94.801952 L 280.40769,5.5961027 h 13.22264 13.22264 l 0.0576,70.4176263 c 0.0627,76.602631 1.2914,92.860421 8.15064,107.842971 23.4601,51.24363 98.55548,53.01189 124.10923,2.92239 8.82864,-17.30557 9.45046,-24.22062 9.45046,-105.094828 V 5.5961027 h 13.05758 13.05757 l -0.0276,77.8790963 c -0.0304,85.909691 -0.60906,91.596931 -11.58843,113.899211 -10.97053,22.2843 -34.83969,41.23737 -60.27816,47.86325 -13.52467,3.52272 -37.6559,3.50021 -50.83618,-0.0474 z"
   id="path139" /><path
   style="fill:#ffffff;stroke-width:1"
   d="M 517.66164,164.61869 C 517.6859,79.295459 517.93428,76.881449 529.00205,54.399618 540.05756,31.942672 563.14554,14.19 591.38592,6.4317678 c 6.1203,-1.681374 19.73182,-3.5066804 30.24783,-4.0562364 L 640.75376,1.3763388 V 15.61111 29.845881 l -13.52391,0.02757 c -31.44632,0.06411 -57.74635,11.821443 -70.15039,31.360472 -11.01372,17.348982 -11.45944,21.437741 -11.45944,105.122357 v 76.14151 H 531.62976 517.6395 Z"
   id="path178" /><path
   style="fill:#ffffff;stroke-width:1"
   d="M 756.70733,247.9314 C 708.95278,241.82064 667.45032,204.72512 654.62747,156.69088 650.3163,140.54131 650.21084,111.16327 654.40649,95.133747 666.0259,50.741632 699.8216,16.489991 742.86564,5.4811801 796.56755,-8.2534558 854.17552,18.931084 878.32726,69.403952 c 10.66403,22.285947 13.28227,33.550978 13.13381,56.508358 -0.23851,36.87963 -13.57678,66.92911 -40.76778,91.84473 -25.21465,23.10465 -60.55836,34.45181 -93.98596,30.17436 z m 38.70228,-35.08281 C 858.9923,193.05943 878.19334,107.22598 829.94405,58.470975 774.09487,2.0364306 680.60574,49.571675 686.13962,131.58941 c 3.94745,58.50526 56.59178,97.65447 109.26999,81.25918 z"
   id="path217" /><path
   style="fill:#ffffff;stroke-width:1"
   d="m 921.05426,169.28211 c 0.92015,-81.467881 0.97479,-81.88464 14.24546,-108.657664 11.98397,-24.177156 32.21806,-42.178212 58.9412,-52.4364484 17.31698,-6.6474969 49.65138,-8.35540182 67.92438,-3.5877764 39.0404,10.1860328 68.9923,39.6691058 79.6555,78.4086358 2.5415,9.233395 3.2362,24.169333 3.9696,85.340563 l 0.8888,74.14837 h -27.2532 -27.2533 v -64.94528 c 0,-81.826744 -1.4272,-90.498155 -17.6358,-107.150538 -10.6273,-10.918282 -20.1732,-14.958978 -37.6009,-15.916079 -13.5436,-0.7438 -16.3441,-0.286715 -26.6901,4.356284 -13.91507,6.244725 -24.36696,17.351127 -30.38374,32.28645 -4.11142,10.205693 -4.26187,12.727983 -4.82855,80.951533 l -0.58491,70.41763 H 947.338 920.22731 Z"
   id="path256" /><path
   style="fill:#ffffff;stroke-width:1"
   d="m 1267.5173,245.40481 c -75.8311,-19.3899 -114.6838,-104.37762 -80.2097,-175.453526 20.778,-42.838552 61.0553,-68.5105185 107.1518,-68.2965649 32.942,0.1528986 58.4313,10.9045159 82.2278,34.6844399 26.5506,26.532076 40.5581,63.610709 36.9764,97.878551 l -1.1791,11.28096 h -94.1376 -94.1375 l 1.2262,5.12976 c 4.2497,17.77821 26.3952,39.68529 46.5144,46.01355 21.7842,6.85198 49.4394,1.84589 66.869,-12.10449 l 6.9465,-5.5599 28.2393,0.51519 28.2394,0.51519 -9.6241,14.38495 c -15.6535,23.39701 -35.4605,38.59295 -63.0322,48.35816 -14.0973,4.99294 -47.3606,6.41506 -62.0706,2.65373 z m 96.9991,-142.86279 c 0,-5.05475 -12.3437,-25.454843 -19.7685,-32.670969 -34.9672,-33.984177 -93.261,-24.162093 -115.354,19.4363 -8.3167,16.412279 -13.7316,15.153229 65.1712,15.153229 46.6836,0 69.9513,-0.63816 69.9513,-1.91856 z"
   id="path295" /><path
   style="fill:#ffffff;stroke-width:1"
   d="m 1495.1899,237.36802 c -6.4646,-14.01342 -21.9539,-59.22635 -30.834,-90.00398 -11.0604,-38.33411 -19.4141,-74.888406 -25.1511,-110.056688 -5.7949,-35.5230831 -8.8131,-31.7112493 25.1088,-31.7112493 16.6696,0 28.9131,0.7377675 28.9131,1.7422377 0,5.4890786 12.1828,72.8167006 17.903,98.9400096 7.1345,32.58259 19.9943,79.98577 23.4512,86.44499 1.8997,3.5498 2.3664,3.11175 5.7078,-5.35743 10.5866,-26.83297 27.8835,-97.570745 36.5725,-149.568123 l 5.2252,-31.2690005 h 23.9437 23.9437 l 4.2516,25.1824625 c 8.9263,52.87088 22.5549,109.860481 35.0179,146.431351 5.9191,17.36853 6.4924,18.3129 8.3227,13.70738 6.2655,-15.76621 18.9102,-63.92342 27.2978,-103.963923 4.2216,-20.152741 14.0724,-76.731928 14.0724,-80.8263124 0,-0.8050029 13.0847,-1.4636419 29.0772,-1.4636419 h 29.0772 l -1.2593,7.9278123 c -11.0547,69.595419 -34.4096,159.308625 -56.8163,218.248005 l -4.0776,10.72587 h -36.3069 -36.3069 l -3.3966,-7.92782 c -8.76,-20.44687 -22.9611,-66.83187 -29.1568,-95.23489 -1.7465,-8.00676 -3.5457,-14.18752 -3.9982,-13.73503 -0.4525,0.45249 -2.9653,10.36114 -5.5839,22.01921 -4.8158,21.43969 -20.252,71.32395 -26.7909,86.57861 l -3.5578,8.29992 h -36.1415 -36.1416 z"
   id="path334" /><path
   style="fill:#ffffff;stroke-width:1"
   d="m 1841.1178,240.51654 c -6.1557,-0.95324 -17.0681,-3.2058 -24.2498,-5.00571 l -13.0575,-3.27257 -0.5256,-21.91807 c -0.289,-12.05493 0.17,-21.91806 1.02,-21.91806 0.8501,0 9.4807,1.81453 19.1792,4.03229 25.3645,5.80011 70.5688,6.12038 80.1235,0.56766 17.8873,-10.39513 16.2153,-34.8007 -2.9438,-42.9715 -3.1581,-1.34681 -18.245,-5.88809 -33.5265,-10.09173 -38.7623,-10.66274 -51.195,-19.67516 -59.8507,-43.385588 -3.5039,-9.598292 -4.0848,-34.825639 -1.0446,-45.366024 9.9882,-34.628974 50.3587,-51.63127831 109.059,-45.9308991 12.5487,1.2186113 27.013,3.3160134 32.1428,4.6608934 l 9.3268,2.4452367 0.5274,22.01683 0.5274,22.016831 -4.2581,-1.009188 c -13.3119,-3.154915 -36.87,-5.547861 -56.4885,-5.737886 -19.4471,-0.188364 -23.2411,0.285241 -28.9132,3.609304 -13.0297,7.635912 -13.4304,27.40521 -0.7056,34.816813 3.2027,1.865443 19.1006,7.168033 35.3286,11.783535 16.228,4.615502 33.041,10.463772 37.3622,12.996152 10.9754,6.43203 22.336,19.9913 26.3027,31.39304 3.9682,11.40628 4.4851,39.03411 0.9537,50.97651 -5.6938,19.25535 -22.0764,34.56284 -44.8516,41.90839 -10.0509,3.24166 -17.9328,4.11146 -41.3324,4.5612 -15.9023,0.30562 -33.9497,-0.22424 -40.1054,-1.17746 z"
   id="path373" /><path
   style="fill:#ffffff;stroke-width:1"
   d="m 2038.014,239.27488 c -4.777,-1.68658 -12.0473,-6.68147 -17.1448,-11.77892 -31.0072,-31.00728 -8.5633,-83.02733 35.6986,-82.74108 18.2958,0.11832 33.0631,8.95812 41.8089,25.02711 21.8175,40.0859 -17.0185,84.79606 -60.3627,69.49289 z"
   id="path412" /></svg>
