<?xml version="1.0" encoding="utf-8"?>
<!-- Generator: Adobe Illustrator 23.1.0, SVG Export Plug-In . SVG Version: 6.00 Build 0)  -->
<svg version="1.1" id="Layer_2" xmlns="http://www.w3.org/2000/svg" xmlns:xlink="http://www.w3.org/1999/xlink" x="0px" y="0px"
	 width="1000px" height="76.7611923px" viewBox="0 0 1000 76.7611923" enable-background="new 0 0 1000 76.7611923"
	 xml:space="preserve">
<path fill="#FFFFFF" d="M66.4125671,75.2768173c-8.3945274-5.4365234-16.7885666-10.8710861-25.1816292-16.3076096
	C28.3168812,64.4057312,15.403801,69.8402939,2.4897449,75.2768173c7.6562462-8.7880859,15.3120031-17.5751877,22.967762-26.3632698
	C16.9716721,43.4770279,8.4853477,38.0419731,0,32.605938h39.57127
	c8.9472618-10.3286076,17.8950119-20.6562366,26.8412971-30.9848442V32.605938h38.1874771L66.4125671,48.6420631v26.6357307
	V75.2768173z"/>
<path fill="#FFFFFF" d="M114.0077591,16.8422756c1.5791016,0.0634766,2.7294922-1.5087872,2.4902344-3.0019503
	c-0.0083008-3.3408184,0.0170898-6.6831021-0.0126953-10.023921c-0.1098633-1.5400383-1.7114258-2.4003894-3.1259766-2.194335
	H72.776329v15.219718h41.2309418L114.0077591,16.8422756z"/>
<path fill="#FFFFFF" d="M114.0077591,75.2768173c1.5791016,0.0634766,2.7294922-1.5087891,2.4902344-3.0019531
	c-0.0083008-3.3408203,0.0170898-6.6835861-0.0126953-10.0234299c-0.1098633-1.5400391-1.7114258-2.4013672-3.1259766-2.1953125
	H72.776329v15.2197189h41.2309418L114.0077591,75.2768173z"/>
<path fill="#FFFFFF" d="M665.2355347,1.6210929h-51.1894531c-2.4736328-0.0332031-2.6513672,2.6528311-2.4902344,4.4926739
	c0.0322266,2.9248028-0.0644531,5.8559542,0.0507813,8.7763624c0.5947266,2.5356426,3.4882813,1.8657207,5.4169922,1.9506817
	h15.0097656v56.2612c0,2.4648438,2.7041016,2.5898438,4.5361328,2.4462891
	c2.9902344-0.0322266,5.9873047,0.0634766,8.9736328-0.0498047c2.4902344-0.5097656,1.9375-3.3105469,1.9863281-5.1875V16.8456936
	c6.1621094-0.0332031,12.3320313,0.0649414,18.4902344-0.0498047c2.4912109-0.5092773,1.9375-3.310544,1.9863281-5.1870079
	c-0.0898438-2.6713858,0.1816406-5.3935518-0.1416016-8.0331993c-0.390625-1.0913081-1.4345703-1.9663078-2.6259766-1.951171
	L665.2355347,1.6210929z"/>
<path fill="#FFFFFF" d="M460.7385559,18.2006721c-3.5854492-10.4238205-14.7197266-16.7988167-25.4643555-16.5829964
	c-9.4829102,0.0327148-18.9780273-0.0664061-28.4492188,0.0493164c-2.5004578,0.51416-1.9340515,3.3295884-1.9858093,5.2119117
	v66.2152939c0,2.4746094,2.719696,2.5888672,4.5551453,2.4462891c2.9838867-0.0322266,5.9736328,0.0654297,8.9541016-0.0488281
	c2.5004883-0.5146484,1.9345703-3.3300781,1.9863281-5.2128906V55.4281921c5.9990234-0.0703125,12.0083008,0.1582031,18-0.1484375
	c10.7709961-0.7802696,21.0170898-8.5937424,23.340332-19.3500862c1.6938477-5.8515606,0.9282227-12.0297794-0.9399414-17.7392502
	L460.7385559,18.2006721z M446.0730286,33.149395c-1.2192383,3.6376953-4.5385742,6.4565392-8.4399414,6.5913048
	c-5.7558594,0.3671875-11.5307617,0.1396484-17.2949219,0.2041016V16.8422756
	c5.7773438,0.0625,11.5649414-0.1347656,17.3349609,0.1142578c6.0390625,0.6357403,10.0146484,7.0131798,9.1787109,12.7914963
	C446.7502747,30.9096508,446.5119934,32.0668755,446.0730286,33.149395z"/>
<path fill="#FFFFFF" d="M355.5891724,22.8207874c-0.3046875,3.6210918,3.2456055,5.9208965,6.3266602,6.7265587
	c5.7485352,1.8515625,11.8769531,2.0205078,17.675293,3.7202129c6.8540039,1.5356445,14.1503906,5.0170898,16.9702148,11.9008751
	c3.2402344,8.0390587,1.7729492,18.3095589-4.9995117,24.1298676c-5.0292969,4.453125-11.6899414,6.8320313-18.3706055,7.0761719
	c-10.277832,1.3349609-20.8105469-2.2529297-28.8271484-8.6425781c-1.8271179-2.041008-6.0722351-4.2910118-4.7035828-7.4531174
	c2.8754883-2.9404297,5.7001648-5.9570274,8.6855164-8.7802696c3.7021484-0.4365234,4.9262695,5.2802696,8.4697266,6.3623009
	c5.8916016,4.0419922,13.7041016,4.9697227,20.3789063,2.4726563c3.5004883-1.1298828,6-4.8154297,5.1035156-8.5097618
	c-0.9033203-3.5498047-4.8076172-5.4374962-8.1098633-6.1933556c-7.28125-1.5302734-14.8955078-1.9335938-21.8178711-4.8417969
	c-6.1591797-2.5908165-11.4706726-8.1059532-12.1005554-14.9872971c-1.0307617-7.4775352,2.1577148-15.308095,8.2563171-19.7973518
	c8.6586914-6.2607393,20.4238281-7.4213829,30.5097656-4.3134747c6.7485352,2.0195303,12.8208008,6.4565401,16.784668,12.2714787
	c0.9472656,2.0429678-1.5297852,3.1562471-2.5957031,4.499507c-2.1196289,1.9370117-3.9677734,4.216795-6.2939453,5.8925762
	c-3.6054688,0.2241211-4.4970703-5.1728497-7.8198242-6.4077129c-5.6142578-3.8359327-13.2158203-3.7744093-19.3481445-1.2905254
	c-2.4272461,1.0922832-4.1645508,3.4536114-4.1796875,6.1601524L355.5891724,22.8207874z"/>
<path fill="#FFFFFF" d="M323.4837341,10.5908155c-10.296875-9.5805626-25.8891602-11.8417912-39.1230469-8.0424767
	c-11.0351257,2.9721663-20.1806335,11.7851505-23.589325,22.6845589
	c-4.2509766,13.4741154-2.0981445,29.6874828,7.9921875,40.0868988c8.9379883,9.3456955,22.754364,12.3955002,35.2328796,10.5537033
	c10.2133789-1.4150391,19.8212891-7.1923828,25.3730469-15.9570236c6.6201172-9.8876915,7.4072266-22.7861214,4.2587891-34.0253754
	c-1.5800781-5.5615196-5.4418945-10.1245041-9.2207031-14.3622952c-0.3046875-0.3173828-0.6132813-0.6298828-0.9262695-0.9389639
	L323.4837341,10.5908155z M317.3968201,48.9135475c-2.8637695,7.6982384-10.8642578,12.6621056-18.9423828,12.7412071
	c-7.1123047,0.4179688-14.902832-1.6416016-19.3129578-7.6093712c-5.1401367-6.7568359-6.2143555-16.2548752-3.4580078-24.1889553
	c2.0063477-5.9790001,6.8988953-10.7519474,12.9008484-12.6689377c9.7827148-3.6137667,22.5869141-0.4194336,27.6186523,9.2412052
	c3.1396484,5.9706993,3.9194336,13.0449142,2.0756836,19.5473557c-0.2416992,0.9941368-0.5292969,1.9785118-0.8833008,2.9374962
	H317.3968201z"/>
<path fill="#FFFFFF" d="M532.6867676,10.5908155c-10.296875-9.5805626-25.8896484-11.8417912-39.1235352-8.0424767
	c-11.027832,2.9721663-20.1806641,11.7851505-23.5893555,22.6855354
	c-4.2504578,13.4746037-2.098114,29.6874828,7.9921875,40.0868988c8.9379883,9.3456955,22.7543945,12.3964767,35.2333984,10.5537033
	c10.2128906-1.4150391,19.8203125-7.1923828,25.3720703-15.9570236c6.6210938-9.8876915,7.4072266-22.7861214,4.2597656-34.0253754
	c-1.5693359-5.3745079-5.1171875-9.9545822-8.8369141-14.0405178c-0.4248047-0.4326172-0.8623047-0.8525391-1.3115234-1.2607412
	H532.6867676z M526.598877,48.9135475c-2.8632813,7.6982384-10.8642578,12.6621056-18.9423828,12.7412071
	c-7.1118164,0.4179688-14.9023438-1.6416016-19.3120117-7.6093712c-5.1401367-6.7568359-6.2148438-16.2548752-3.4584961-24.1889553
	c2.0063477-5.9790001,6.8989258-10.7519474,12.9008789-12.6689377c9.7827148-3.6137667,22.5874023-0.4194336,27.6186523,9.2412052
	c3.6162109,6.9272423,4.1210938,15.2153244,1.1914063,22.4809456L526.598877,48.9135475z"/>
<path fill="#FFFFFF" d="M181.5228577,1.6210929c-3.6728516,0.0317383-7.3515625-0.0634764-11.0200043,0.0493164
	c-2.5249023,0.5273434-1.9248047,3.3759751-1.9858398,5.2749c-0.0366211,14.7206936,0.0727539,29.4443207-0.0566406,44.1625748
	c-0.2856445,5.3525352-5.0141602,9.5185509-10.2011719,9.9882774c-5.4916992,0.6875-12.0307617,0.5673828-16.0668945-3.7900391
	c-3.413559-3.7070274-2.6454926-8.9130821-2.7304535-13.5273361c-0.0332031-13.402338,0.0668945-26.8105335-0.0507813-40.2079849
	c-0.6147461-2.5688465-3.5620117-1.8520499-5.5107422-1.9506828c-2.8007813,0.1025391-5.6542969-0.220703-8.4174805,0.190918
	c-2.2871094,1.0898432-1.3037109,3.8945293-1.5180664,5.8974581c0.0390625,14.7607327-0.0791016,29.5219574,0.0610352,44.2851334
	c0.3896484,11.2226486,9.4135742,20.8544807,20.1220551,23.3886604c9.7412109,2.359375,20.9121094,1.6416016,29.2529144-4.3554688
	c7.1972656-4.9853439,10.8007813-13.9746017,10.3408203-22.5634651c-0.0224609-15.1147385,0.0458984-30.250473-0.0341797-45.3525124
	c-0.2666016-0.9316401-1.2421875-1.5063471-2.1796875-1.4907221L181.5228577,1.6210929z"/>
<path fill="#FFFFFF" d="M255.6878662,71.4711533c-5.7192383-6.9746017-11.4375-13.9511642-17.1567383-20.9267464
	c8.4970703-3.4228516,13.890625-12.4433517,13.8261719-21.4804573c0.3666992-9.1694298-3.9892578-18.6308479-11.9765625-23.4433479
	c-5.6816406-3.7587872-12.616684-4.4960914-19.2641449-4.2695293c-8.1064453,0.0327148-16.2192383-0.0659178-24.3207855,0.0493164
	c-2.6020508,0.5708005-1.8930664,3.5268538-1.9863281,5.4809542v65.9511337
	c0.0058594,2.5029297,2.762207,2.5820313,4.6108398,2.4462891c2.9648438-0.03125,5.9326019,0.0634766,8.8989105-0.0498047
	c2.6020508-0.5703125,1.8930664-3.5263672,1.9863281-5.4804688V16.8432522
	c5.7768555,0.0639648,11.5644531-0.1342773,17.3344727,0.1142578c6.0390625,0.6357403,10.0151215,7.0131798,9.1786957,12.7914963
	c-0.3457031,4.5659161-3.4618988,9.3354435-8.3032074,9.877924c-4.2958984,0.5112305-8.6328125,0.2563477-12.9482422,0.3188477
	c-2.402832,0.9199219-1.3481445,3.2841797,0.0302734,4.5478516l22.9374847,29.6992035
	c1.5722656,1.78125,4.0986328,0.8583984,6.1777344,1.0869141c3.3686523,0.0009766,6.7397461-0.0029297,10.1044922,0.0039063
	c2.1621094-0.1669922,2.1845703-2.6230469,0.8740234-3.8085938L255.6878662,71.4711533z"/>
<path fill="#FFFFFF" d="M612.3829956,71.4711533c-5.71875-6.9746017-11.4375-13.9511642-17.15625-20.9267464
	c8.4970703-3.4228516,13.890625-12.4433517,13.8251953-21.4804573c0.3671875-9.1694298-3.9882813-18.6308479-11.9755859-23.4433479
	c-5.6826172-3.760252-12.6191406-4.4960914-19.2666016-4.2695293c-8.1972656,0.0327148-16.4022827-0.0649413-24.5956421,0.0493164
	c-2.6035156,0.5708005-1.8916016,3.5292952-1.9863281,5.4833956v65.9486923
	c0.0058594,2.5039063,2.7636719,2.5820313,4.6132813,2.4462891c2.9648438-0.03125,5.9326172,0.0634766,8.8973999-0.0498047
	c2.6035156-0.5703125,1.8916016-3.5283203,1.9863281-5.4824219V16.5756741
	c5.7773438,0.0634766,11.5644531-0.1347656,17.3349609,0.1142578c6.0390625,0.6357422,10.0146484,7.0131798,9.1787109,12.7914963
	c-0.3457031,4.5654278-3.4619141,9.3354473-8.3037109,9.877924c-4.4570313,0.5688477-8.9648438,0.1767578-13.4394531,0.3676758
	c-2.4169922,0.7939453-0.5742188,3.3232422,0.5224609,4.5c7.6455078,9.8984337,15.2910156,19.7978439,22.9365234,29.6992035
	c1.5732422,1.78125,4.1005859,0.8583984,6.1806641,1.0869141c3.6308594-0.0195313,7.2939453,0.0361328,10.9013672-0.015625
	c1.6513672-0.4824219,1.2275391-2.5351563,0.3505859-3.5166016L612.3829956,71.4711533z"/>
<path fill="#ED1441" d="M698.4346924,0c-1.3769531,0-2.4941406,1.1142572-2.4941406,2.4912097v71.7758408
	c0,1.3769531,1.1171875,2.4941406,2.4941406,2.4941406h169.7772827c1.3769531,0,2.4951172-1.1171875,2.4951172-2.4941406V2.4912097
	C870.7070923,1.1142572,869.5889282,0,868.2119751,0H698.4346924z"/>
<path fill="#FFFFFF" d="M850.8008423,12.4575138c-4.21875,0-7.6396484,3.4204082-7.6396484,7.640131
	c0,4.2192364,3.4208984,7.6401329,7.6396484,7.6401329c4.2197266,0,7.640625-3.4208965,7.640625-7.6401329
	C858.4414673,15.8779221,855.0205688,12.4575138,850.8008423,12.4575138z M850.8008423,15.9208908
	c2.3056641,0.0004883,4.1748047,1.8701134,4.1738281,4.1762657v0.0004883c0,2.3046856-1.8681641,4.1733379-4.1738281,4.1738262
	c-2.3056641,0.0009766-4.1757813-1.8676758-4.1767578-4.1733379v-0.0004883
	c-0.0009766-2.3056641,1.8681641-4.1757774,4.1738281-4.176754H850.8008423z"/>
<path fill="#FFFFFF" d="M725.0128174,38.9262505v-1.3876953c0-0.2871094-0.0019531-0.8417969,0.3173828-1.2749023
	l9.0136719-12.0664005h-15.40625c-0.7988281,0-1.4443359-0.6455078-1.4443359-1.4428711v-7.2065372
	c0-0.7973633,0.6455078-1.4428701,1.4443359-1.4428701h31.0175781c0.7958984,0,1.4423828,0.6455069,1.4423828,1.4428701v0.8579082
	c0,0.7514648-0.1367188,0.9760742-0.3525391,1.3286114l-10.4707031,14.7724533
	c6.8964844,2.253418,9.9130859,8.2807579,9.9130859,14.5512619c0,10.1289024-7.2919922,17.2011681-17.7353516,17.2011681
	c-9.6884766,0-16.5742188-6.1777344-17.1318359-15.3710899c-0.0244141-0.3974609,0.1162109-0.7851563,0.3896484-1.0751953
	c0.2705078-0.2890625,0.6513672-0.4550781,1.0507813-0.4550781h7.3154297c0.7431641,0,1.3486328,0.5634766,1.4384766,1.3027344
	c0.5185547,4.2695313,4.3271484,5.5273438,6.8017578,5.5273438c4.7675781,0,7.6953125-3.0458984,7.6953125-7.0605469
	c0-2.4296837-0.8925781-4.301754-2.578125-5.6708946c-2.4501953-1.9853516-7.2167969-2.523922-10.9257813-1.515625
	c-0.7050781,0.1923828-1.7958984,0.3291016-1.7958984-1.0141563"/>
<path fill="#FFFFFF" d="M782.6856689,46.8305435c0,4.9648399-4.0380859,7.3144493-8.0244141,7.3144493
	c-3.9882813,0-8.0253906-2.546875-8.0253906-7.4169884c0-4.8710938,4.0371094-7.2709961,8.0253906-7.2709961
	C778.647583,39.4570084,782.6856689,41.8666763,782.6856689,46.8305435 M774.9005127,30.8090649l9.3007813-14.7753811
	c0.4951172-0.8525391,0.0175781-1.9306631-1.1953125-1.9306631h-8.4853516c-0.6308594,0-1.1259766,0.2929688-1.5019531,0.8891592
	l-13.7822266,22.245594c-1.8779297,3.0390587-2.7246094,6.2890587-2.7246094,9.6123009
	c0,10.0283127,7.6357422,17.4062424,18.1503906,17.4062424c10.6464844,0,18.0820313-7.1796875,18.0820313-17.4560471v-0.0185547
	v0.0390625v-0.0185547c0-10.2758751-8.171875-16.8359318-17.8417969-15.9921818"/>
<path fill="#FFFFFF" d="M826.0928345,47.9350319c0.2958984-1.2519493,0.3183594-2.3466759,0.3183594-3.6718712V31.5058422
	c0-1.3237305-0.0976563-2.459959-0.3183594-3.5654278c-0.8271484-3.7514629-3.9863281-5.7075176-7.9580078-5.7075176
	c-3.9736328,0-7.2177124,1.9785156-8.0448608,5.7299786c-0.2216797,1.1049805-0.2880859,2.2192364-0.2880859,3.5429668v12.7573185
	c0,1.3251953,0.0898438,2.4316406,0.3095703,3.5351524c0.8271484,3.6962891,4.0487671,5.7363281,8.0223999,5.7363281
	c3.9716797,0,7.0869141-1.9130859,7.9580078-5.5996094 M836.5088501,29.5825024v16.9394474
	c0,10.712883-8.2304688,17.0986214-18.375,17.0986214c-10.2870483,0-18.515564-6.3857384-18.515564-17.0986214V29.5844555
	c0-10.6415958,8.2285156-16.9560432,18.515564-16.9560432c10.1445313,0,18.375,6.3144474,18.375,16.9560432"/>
<path fill="#FFFFFF" d="M928.881897,2.4335926c0-0.6953121-0.5644531-1.200683-1.2597656-1.200683h-5.4443359
	c-0.6953125,0-1.2626953,0.5053709-1.2626953,1.200683v13.3549738h-14.4042969V2.4213855
	c0-0.6953121-0.5673828-1.1894525-1.2626953-1.1894525h-5.4414063c-0.6982422,0-1.2617188,0.4941404-1.2617188,1.1894525v36.4008598
	c0,0.6982384,0.5634766,1.2475548,1.2617188,1.2475548h5.4414063c0.6953125,0,1.2626953-0.5493164,1.2626953-1.2475548V23.7548695
	h14.4042969v15.0673771c0,0.6982384,0.5673828,1.2475548,1.2626953,1.2475548h5.4443359
	c0.6953125,0,1.2597656-0.5493164,1.2597656-1.2475548V2.4335926z"/>
<path fill="#FFFFFF" d="M952.4931641,1.231933c12.5224609,0,19.0771484,9.6728468,19.0771484,19.3076057
	c0,5.204586-1.7539063,10.0292912-4.9326172,13.5800705c-3.4951172,3.9042969-8.3867188,5.9501915-14.1435547,5.9501915h-13.2207031
	c-0.6992188,0-1.2626953-0.5727539-1.2626953-1.2714806V2.4414051c0-0.6958004,0.5634766-1.2099603,1.2626953-1.2099603
	L952.4931641,1.231933z M945.9238281,32.1445122h7.0488281c7.3623047,0,10.7167969-5.9877892,10.7167969-11.5546799
	c0-5.5610313-3.3378906-11.4208918-10.6669922-11.4208918h-7.0976563L945.9238281,32.1445122z"/>
<path fill="#FFFFFF" d="M979.4404297,1.2270502h18.9404297v7.012692H986.84375l-0.4199219,4.5248995
	c4.3554688,0,7.7021484,1.2788086,10.0390625,3.8359346C998.8212891,19.1381721,1000,22.1347523,1000,25.5912933
	c0,3.9155254-1.5185547,7.3120079-4.5556641,10.188961c-3.0166016,2.8569336-6.5927734,4.2856407-10.7285156,4.2856407
	c-1.9580078,0-3.6865234-0.2695313-5.1845703-0.809082c-1.4785156-0.5595665-3.1464844-1.4687462-5.0048828-2.727047
	l0.8994141-8.7211876c4.1748047,2.7773418,7.4521484,4.1655254,9.8291016,4.1655254
	c1.6982422,0,3.1865234-0.609375,4.4658203-1.828125c1.2783203-1.2382793,1.9179688-2.6767559,1.9179688-4.3154278
	c0-1.8178692-0.6396484-3.3364239-1.9179688-4.555172c-1.2792969-1.21875-2.8876953-1.828125-4.8251953-1.828125
	c-2.2773438,0-4.7353516,0.5595703-7.3720703,1.6782227L979.4404297,1.2270502z"/>
</svg>
