<svg viewBox="0 0 264.583 23.482" height="88.751" width="1000" xmlns="http://www.w3.org/2000/svg"><path d="m0 0-8.488 5.578-13.12-5.561 7.726 9.068-8.577 5.628h13.376L0 25.359V14.713h12.964L0 9.19z" style="fill:#fff;fill-opacity:1;fill-rule:nonzero;stroke:none" transform="matrix(.89557 0 0 -.89557 20.114 23.07)"/><path d="M0 0c.454 0 .823.369.823.824l.001 3.565a.824.824 0 0 1-.823.823h-13.9V-.001z" style="fill:#fff;fill-opacity:1;fill-rule:nonzero;stroke:none" transform="matrix(.89557 0 0 -.89557 34.534 5.012)"/><path d="M0 0c.454 0 .823.369.823.823l.001 3.565a.824.824 0 0 1-.823.824h-13.9V-.001z" style="fill:#fff;fill-opacity:1;fill-rule:nonzero;stroke:none" transform="matrix(.89557 0 0 -.89557 34.534 23.114)"/><path d="M0 0h-17.366a.828.828 0 0 1-.826-.826v-3.571c0-.455.371-.826.826-.826h6.072v-19.412c0-.456.37-.826.826-.826h3.571c.455 0 .826.37.826.826v19.412H0c.455 0 .825.371.825.826v3.571C.825-.371.455 0 0 0" style="fill:#fff;fill-opacity:1;fill-rule:nonzero;stroke:none" transform="matrix(.89557 0 0 -.89557 201.602 .36)"/><path d="M0 0a3.952 3.952 0 0 0-.786-1.294c-.33-.358-.706-.583-1.157-.785-.444-.2-1.237-.32-2.783-.32h-4.011v8.06h5.262c.562 0 1.079-.102 1.536-.304a3.658 3.658 0 0 0 1.194-.831 3.56 3.56 0 0 0 .757-1.257c.182-.508.275-1.06.275-1.641C.287 1.053.19.505 0 0m4.923 5.178a8.488 8.488 0 0 1-1.826 2.954c-.798.834-1.78 1.509-2.919 2.004-1.141.496-2.441.748-3.862.748h-9.447a.827.827 0 0 1-.826-.826v-23.783c0-.456.37-.827.826-.827h3.569c.456 0 .826.371.826.827l-.001 6.093h5.053c1.419 0 2.712.245 3.842.73a8.766 8.766 0 0 1 2.906 1.989 8.749 8.749 0 0 1 1.837 2.906c.42 1.086.633 2.465.633 3.673a10.19 10.19 0 0 1-.611 3.512" style="fill:#fff;fill-opacity:1;fill-rule:nonzero;stroke:none" transform="matrix(.89557 0 0 -.89557 135.2 10.084)"/><path d="M0 0c-.023-.526.114-.846.313-1.129a2.6 2.6 0 0 1 .947-.8 6.314 6.314 0 0 1 1.57-.546 52.205 52.205 0 0 1 1.982-.392c1.206-.19 2.396-.43 3.537-.712 1.191-.296 2.248-.738 3.144-1.317a6.498 6.498 0 0 0 2.199-2.381c.535-.987.773-2.244.708-3.735-.063-1.449-.435-2.686-1.104-3.68a7.714 7.714 0 0 0-2.516-2.359c-.994-.582-1.975-1.011-3.19-1.237-1.191-.222-2.525-.289-3.69-.238-2.891.126-7.16 1.787-9.302 4.717-.17.235-.379.635.081 1.104l2.66 2.706c.445.469.876.137 1.059-.132 1.253-1.832 3.749-3.199 5.71-3.285 1.031-.045 1.154-.004 1.798.081a5.456 5.456 0 0 1 1.587.449c.446.203.819.473 1.112.847.272.348.43.841.469 1.411.037.55-.116.991-.369 1.345-.276.388-.657.685-1.114.922-.515.267-1.104.438-1.756.56a49.81 49.81 0 0 1-2.069.344 22.214 22.214 0 0 0-3.292.675c-1.105.315-2.094.761-2.938 1.325a6.643 6.643 0 0 0-2.104 2.256c-.531.933-.774 1.992-.716 3.329.059 1.346.394 2.529.995 3.518A7.418 7.418 0 0 0-1.97 6.042c.923.599 1.987 1.039 3.161 1.305a12.84 12.84 0 0 0 6.828-.285c2.439-.772 4.397-2.644 5.3-3.97.166-.244.33-.628-.022-1.026-.354-.397-2.507-2.504-2.507-2.504-.465-.444-.94-.341-1.203.047-1.321 1.942-3.022 2.812-4.995 2.943C2.475 2.692.097 2.218 0 0" style="fill:#fff;fill-opacity:1;fill-rule:nonzero;stroke:none" transform="matrix(.89557 0 0 -.89557 107.8 6.876)"/><path d="M0 0c-.4-.981-.951-1.811-1.639-2.468a6.897 6.897 0 0 0-2.404-1.496 8.53 8.53 0 0 0-2.965-.512 8.638 8.638 0 0 0-3 .512 6.565 6.565 0 0 0-2.359 1.486c-.668.659-1.211 1.493-1.612 2.478-.405.992-.61 2.166-.61 3.49 0 1.324.205 2.499.61 3.49.4.984.947 1.816 1.625 2.474a6.942 6.942 0 0 0 2.39 1.511c.919.35 1.926.527 2.992.527a8.27 8.27 0 0 0 2.956-.527A6.835 6.835 0 0 0-1.63 9.441C-.951 8.77-.402 7.93 0 6.945.405 5.952.61 4.79.61 3.49.61 2.167.405.992 0 0m2.083 13.182a12.057 12.057 0 0 1-4.119 2.568 14.006 14.006 0 0 1-4.927.873c-1.7 0-3.351-.294-4.907-.872a12.168 12.168 0 0 1-4.153-2.566c-1.187-1.122-2.144-2.514-2.842-4.138-.699-1.623-1.053-3.481-1.053-5.523 0-2.064.348-3.927 1.035-5.538.686-1.613 1.63-2.999 2.806-4.12a12.044 12.044 0 0 1 4.12-2.568 13.995 13.995 0 0 1 4.926-.872c1.886 0 3.646.318 5.23.946 1.595.631 2.982 1.54 4.124 2.7C3.459-4.773 4.36-3.376 4.999-1.774c.637 1.596.96 3.378.96 5.298 0 2.041-.354 3.899-1.053 5.524-.699 1.623-1.649 3.014-2.823 4.134" style="fill:#fff;fill-opacity:1;fill-rule:nonzero;stroke:none" transform="matrix(.89557 0 0 -.89557 96.17 14.897)"/><path d="M0 0c-.4-.981-.951-1.811-1.639-2.468a6.897 6.897 0 0 0-2.404-1.496 8.53 8.53 0 0 0-2.965-.512 8.638 8.638 0 0 0-3 .512 6.565 6.565 0 0 0-2.359 1.486c-.668.659-1.211 1.493-1.612 2.478-.405.992-.61 2.166-.61 3.49 0 1.324.205 2.499.61 3.49.4.984.947 1.816 1.625 2.474a6.942 6.942 0 0 0 2.39 1.511c.919.35 1.926.527 2.992.527a8.27 8.27 0 0 0 2.956-.527A6.835 6.835 0 0 0-1.63 9.441C-.951 8.77-.402 7.93 0 6.945.405 5.952.61 4.79.61 3.49.61 2.167.405.992 0 0m2.083 13.182a12.057 12.057 0 0 1-4.119 2.568 14.006 14.006 0 0 1-4.927.873c-1.7 0-3.351-.294-4.907-.872a12.168 12.168 0 0 1-4.153-2.566c-1.187-1.122-2.144-2.514-2.842-4.138-.699-1.623-1.053-3.481-1.053-5.523 0-2.064.348-3.927 1.035-5.538.686-1.613 1.63-2.999 2.806-4.12a12.044 12.044 0 0 1 4.12-2.568 13.995 13.995 0 0 1 4.926-.872c1.886 0 3.646.318 5.23.946 1.595.631 2.982 1.54 4.124 2.7C3.459-4.773 4.36-3.376 4.999-1.774c.637 1.596.96 3.378.96 5.298 0 2.041-.354 3.899-1.053 5.524-.699 1.623-1.649 3.014-2.823 4.134" style="fill:#fff;fill-opacity:1;fill-rule:nonzero;stroke:none" transform="matrix(.89557 0 0 -.89557 159.598 14.897)"/><path d="M0 0h-3.582a.828.828 0 0 1-.826-.826v-15.743c0-.672-.112-1.26-.334-1.749a3.49 3.49 0 0 0-.906-1.226 4.181 4.181 0 0 0-1.406-.778c-.557-.186-1.498-.28-2.153-.28-.658 0-1.653.095-2.222.282a4.342 4.342 0 0 0-1.443.782 3.404 3.404 0 0 0-.916 1.22c-.222.49-.334 1.078-.334 1.749V-.826a.828.828 0 0 1-.826.826h-3.569a.827.827 0 0 1-.826-.826v-15.869c0-1.455.273-2.764.811-3.889a8.541 8.541 0 0 1 2.219-2.876 9.552 9.552 0 0 1 3.233-1.768c1.2-.387 2.503-.583 3.873-.583 1.347 0 2.638.196 3.838.583 1.22.395 2.3.992 3.207 1.775a8.723 8.723 0 0 1 2.177 2.869c.538 1.127.811 2.435.811 3.889V-.826A.828.828 0 0 1 0 0" style="fill:#fff;fill-opacity:1;fill-rule:nonzero;stroke:none" transform="matrix(.89557 0 0 -.89557 55.016 .336)"/><path d="m0 0-5.799 7.193s4.682 1.704 4.682 7.642a10.19 10.19 0 0 1-.61 3.513 8.501 8.501 0 0 1-1.827 2.953c-.798.835-1.78 1.509-2.918 2.004-1.142.496-2.442.748-3.863.748h-9.437a.826.826 0 0 1-.826-.825V-.556c0-.456.37-.826.826-.826h3.559c.456 0 .826.37.826.826l-.001 19.386h5.285a3.677 3.677 0 0 0 2.731-1.134c.326-.345.581-.768.756-1.257a4.862 4.862 0 0 0 .275-1.642c0-.574-.097-1.122-.287-1.627a3.94 3.94 0 0 0-.786-1.295c-.329-.357-.706-.582-1.157-.785-.444-.199-1.237-.319-2.783-.319h-2.211c-.438 0-.773-.394-.438-.935l8.266-10.872a.825.825 0 0 1 .672-.347h4.564C.172-1.383.62-.765 0 0" style="fill:#fff;fill-opacity:1;fill-rule:nonzero;stroke:none" transform="matrix(.89557 0 0 -.89557 77.494 21.878)"/><path d="m0 0-5.799 7.193s4.682 1.704 4.682 7.642a10.19 10.19 0 0 1-.61 3.513 8.501 8.501 0 0 1-1.827 2.953c-.798.835-1.78 1.509-2.918 2.004-1.142.496-2.442.748-3.863.748h-9.437a.826.826 0 0 1-.826-.825V-.556c0-.456.37-.826.826-.826h3.559c.456 0 .826.37.826.826l-.001 19.386h5.286a3.677 3.677 0 0 0 2.73-1.134c.326-.345.581-.768.756-1.257a4.837 4.837 0 0 0 .275-1.642c0-.574-.097-1.122-.287-1.627a3.94 3.94 0 0 0-.786-1.295c-.329-.357-.706-.582-1.157-.785-.444-.199-1.237-.319-2.783-.319h-2.211c-.438 0-.773-.394-.438-.935l8.266-10.872a.825.825 0 0 1 .672-.347h4.564C.172-1.383.62-.765 0 0" style="fill:#fff;fill-opacity:1;fill-rule:nonzero;stroke:none" transform="matrix(.89557 0 0 -.89557 185.583 21.878)"/><path d="M0 0h-24.297a.554.554 0 0 0-.553.553v25.114c0 .306.248.553.553.553H0a.552.552 0 0 0 .553-.553V.553A.553.553 0 0 0 0 0" style="fill:#e40138;fill-opacity:1;fill-rule:nonzero;stroke:none" transform="matrix(.89557 0 0 -.89557 233.14 23.482)"/><path d="M0 0a.589.589 0 0 1-.589.588h-5.936a.59.59 0 0 1-.589-.59l.001-2.551c0-.351.219-.603.568-.603h2.535l.005-13.792c0-.324.235-.588.559-.588h2.888c.324 0 .559.264.559.588z" style="fill:#fff;fill-opacity:1;fill-rule:nonzero;stroke:none" transform="matrix(.89557 0 0 -.89557 224.853 4.152)"/><path d="M0 0c0 .238-.193.411-.431.411h-1.862c-.238 0-.431-.173-.431-.411v-4.567h-4.927V.004c0 .238-.194.407-.432.407h-1.861c-.239 0-.432-.169-.432-.407v-12.449c0-.239.193-.427.432-.427h1.861c.238 0 .432.188.432.427v5.153h4.927v-5.153c0-.239.193-.427.431-.427h1.862c.238 0 .431.188.431.427z" style="fill:#fff;fill-opacity:1;fill-rule:nonzero;stroke:none" transform="matrix(.89557 0 0 -.89557 251.505 .705)"/><path d="M0 0c4.283 0 6.525-3.308 6.525-6.603 0-1.781-.6-3.431-1.688-4.645C3.642-12.583 1.969-13.283 0-13.283h-4.522a.434.434 0 0 0-.431.435V-.414c0 .238.193.414.431.414zm-2.246-10.572h2.41c2.518 0 3.665 2.048 3.665 3.951S2.687-2.714.181-2.714h-2.427z" style="fill:#fff;fill-opacity:1;fill-rule:nonzero;stroke:none" transform="matrix(.89557 0 0 -.89557 258.74 .337)"/><path style="opacity:.9;fill:#fff;stroke-width:0" d="M3.915 86.03c.263-.424 5.867-7.094 12.453-14.82 6.587-7.728 11.976-14.313 11.976-14.634 0-.321-6.278-4.712-13.95-9.758L.442 37.644 23.09 37.2l22.649-.443 14.995-17.563L75.731 1.63l.24 17.785.24 17.785h21.416c11.992 0 21.046.335 20.575.76-.463.42-10.109 4.666-21.435 9.437l-20.593 8.676v15.364c0 8.45-.213 15.364-.473 15.364s-4.544-2.723-9.521-6.05c-4.978-3.329-11.274-7.466-13.993-9.194l-4.944-3.143-21.628 9.192C13.719 82.663 3.863 86.8 3.712 86.801c-.15 0-.059-.346.203-.77z" transform="scale(.26458)"/><path style="opacity:.9;fill:#fff;stroke-width:0" d="M83.26 9.743V.886h23.851c27.99 0 26.636-.45 26.636 8.848 0 9.702 2.428 8.867-25.782 8.867H83.26zM83.26 78.83v-8.857h24.18c17.626 0 24.469.289 25.244 1.063 1.649 1.65 1.393 13.538-.33 15.26-1.196 1.197-4.74 1.392-25.243 1.392H83.26zM164.748 86.962c-2.68-.889-5.826-2.13-6.993-2.759-3.997-2.154-9.995-8.402-12.352-12.865l-2.356-4.465-.264-31.745c-.193-23.276.013-32.078.773-32.994.71-.855 2.976-1.248 7.186-1.248 10.406 0 9.576-2.706 9.58 31.253.003 27.94.093 29.567 1.79 32.35 2.413 3.958 7.883 6.331 14.593 6.331 7.623 0 12.417-2.373 14.625-7.238 1.59-3.502 1.724-5.982 1.742-32.183.014-20.876.3-28.669 1.082-29.45 1.576-1.576 14.372-1.415 15.71.197.773.931.975 9.443.773 32.551l-.274 31.29-2.48 5.052c-3.115 6.342-9.736 12.391-16.385 14.969-7.045 2.731-19.997 3.193-26.75.954zM224.27 86.625c-1.531-1.53-1.531-83.146 0-84.676 1.345-1.346 32.835-1.476 39.75-.164 9.872 1.872 17.843 7.78 22.091 16.373 1.926 3.897 2.19 5.598 2.193 14.171.004 9.166-.153 10.027-2.644 14.526-1.457 2.63-3.988 5.818-5.624 7.085-7.01 5.427-7.298 3.69 2.659 16.033 11.751 14.568 11.857 14.734 10.457 16.42-.9 1.084-2.9 1.304-10.025 1.103l-8.9-.25-14.475-18.97c-7.962-10.433-14.355-19.6-14.208-20.372.215-1.13 1.983-1.491 9.115-1.86 9.956-.516 12.652-1.703 14.972-6.593 1.767-3.723 1.81-10.411.09-13.739-2.732-5.283-5.77-6.463-17.84-6.928l-10.96-.423v33.6c0 24.954-.273 33.875-1.063 34.664-.64.64-3.74 1.063-7.794 1.063-4.055 0-7.154-.422-7.795-1.063zM325.51 86.479c-14.946-4.859-25.151-16.127-28.372-31.324-2.305-10.879-.958-22.48 3.728-32.11C303.806 17 312.573 8.055 318.448 5.1c14.89-7.487 33.333-6.448 47.166 2.656 21.358 14.057 24.246 49.822 5.534 68.535-8.455 8.455-18.497 12.312-31.874 12.242-5.376-.028-9.359-.623-13.765-2.055zm25.243-17.533c9.193-3.96 14.384-12.503 14.443-23.77.07-13.065-5.896-22.705-16.16-26.114-14.27-4.74-29.962 2.812-33.684 16.21-1.312 4.723-1.118 14.209.394 19.3 4.094 13.786 20.62 20.571 35.007 14.374zM410.983 86.902c-10.69-3.46-22.143-11.58-22.143-15.697 0-1.674 9.452-11.86 11.005-11.86.423 0 2.716 1.821 5.097 4.048 5.92 5.538 11.177 7.727 18.559 7.727 7.772 0 12.289-2.212 13.81-6.762 2.313-6.918-1.696-10.33-14.733-12.541-23.395-3.967-32.853-11.115-32.853-24.83 0-13.152 7.48-22.196 21.288-25.737 7.245-1.858 17.938-1.295 24.77 1.304 5.765 2.193 13.962 8.451 16.22 12.383l1.606 2.794-5.062 5.306c-2.784 2.919-5.58 5.307-6.213 5.307s-3.111-1.96-5.506-4.355c-4.887-4.887-8.485-6.262-16.41-6.27-6.42-.005-10.683 1.908-12.152 5.455-1.472 3.554-.272 6.832 3.256 8.892 1.508.881 7.883 2.622 14.167 3.87 6.283 1.246 13.739 3.301 16.568 4.567 11.306 5.057 16.396 16.454 12.928 28.947-2.226 8.015-9.833 14.992-19.34 17.736-6.494 1.874-18.623 1.735-24.862-.284zM464.608 86.271c-1.265-1.266-1.39-5.814-1.17-42.548.212-35.414.431-41.248 1.575-41.97 1.839-1.162 33.044-1.084 39.439.098 7.08 1.309 12.588 4.267 17.142 9.207 6.05 6.563 7.583 10.852 7.611 21.287.023 8.268-.174 9.277-2.891 14.799-3.18 6.46-7.63 10.875-14.236 14.115-3.58 1.756-5.784 2.057-17.171 2.346l-13.065.33V74.42c0 13.016-.177 13.268-9.3 13.268-4.792 0-6.891-.375-7.934-1.417zm40.2-41.764c6.438-3.282 8.77-10.914 5.557-18.179-2.616-5.915-5.407-7.079-18.115-7.555l-10.408-.39V46.057h9.965c7.736-.002 10.644-.349 13.002-1.551zM567.108 87.209c-19.16-5.16-31.033-21.347-31.184-42.514-.155-21.61 12.701-38.593 32.803-43.331 27.483-6.478 52.18 11.167 54.533 38.961 1.941 22.93-12.051 42.864-33.18 47.27-6.34 1.322-17.312 1.138-22.972-.386zm23.935-18.355c8.68-3.653 13.917-12.934 13.917-24.66 0-15.132-8.925-25.265-23.151-26.282-7.266-.52-12.788.853-17.678 4.395-15.35 11.119-12.71 40.334 4.232 46.853 7.362 2.833 15.484 2.723 22.68-.306zM632.595 86.625c-.796-.796-1.063-11.448-1.063-42.484 0-41.26.007-41.425 1.873-42.424 1.291-.69 7.82-.89 21.036-.639 17.505.331 19.622.542 24.451 2.436 13.763 5.396 21.599 21.426 17.81 36.432-1.727 6.842-4.952 11.726-10.426 15.791l-4.087 3.036 10.092 12.465c5.55 6.855 10.096 13.12 10.101 13.92.014 2.113-1.816 2.53-11.095 2.53h-8.302l-14.433-19.04c-7.938-10.471-14.433-19.738-14.433-20.593 0-1.349 1.174-1.612 8.898-1.997 9.443-.47 12.62-1.663 14.681-5.515 3.335-6.231 2.316-14.209-2.337-18.294-3.438-3.02-8.426-3.933-19.028-3.486l-6.643.28-.232 33.138c-.16 22.66-.544 33.512-1.216 34.322-1.28 1.542-14.127 1.642-15.647.122zM724.712 86.625c-.789-.788-1.063-9.585-1.063-34.1V19.485h-10.451c-6.949 0-10.808-.356-11.515-1.063-.655-.655-1.063-3.87-1.063-8.383 0-6.331.232-7.444 1.713-8.237 2.21-1.183 59.31-1.23 61.175-.05 1.012.64 1.328 2.647 1.328 8.433s-.316 7.793-1.328 8.433c-.731.462-6.012.846-11.736.854l-10.408.013v33.038c0 24.516-.274 33.313-1.063 34.101-.64.64-3.74 1.063-7.794 1.063-4.055 0-7.155-.422-7.795-1.063zM915.56 45.468c-.325-.325-.591-10.041-.591-21.592 0-23.42-.027-23.315 5.917-22.826l3.383.279.255 8.193.255 8.193h16.696l.254-8.193.255-8.193h7.972l.236 22.365.237 22.364h-8.888v-18.6h-16.829v18.6h-4.28c-2.355 0-4.548-.265-4.872-.59zM961.234 23.694l.236-22.365 8.327-.257c10.37-.32 16.644.938 21.222 4.254 12.964 9.392 11.424 31.397-2.69 38.43-4.253 2.12-5.522 2.302-15.976 2.302h-11.356zm24.029 11.291c7.303-4.785 6.96-18.02-.585-22.62-2.012-1.227-4.444-1.73-8.371-1.733l-5.536-.003v26.81l6.032-.432c3.675-.262 6.981-1.053 8.46-2.022z" transform="scale(.26458)"/></svg>