<svg width="809.353" height="114.129" xmlns="http://www.w3.org/2000/svg">
<path d="M77.998 80.729a34.86 34.86 0 0 1-28.42 15.09c-16.38 0-30.8-12-34.3-28.52l-.13-.6h80a43.14 43.14 0 0 0 .35-6.8v-.31c0-26.12-20.62-47.37-46-47.37s-45.92 21.26-45.92 47.38 20.61 47.38 45.95 47.38c17.26 0 32.91-9.84 40.86-25.69l1.13-2.31h-12.38c-.43.71-.84 1.33-1.14 1.75m-63.3-25.75c2.26-18 17.23-31.6 34.83-31.6 17.6 0 32.58 13.58 34.82 31.6l.08.56h-69.8zM147.028 106.999a39 39 0 0 1-14.5-2.71 35.09 35.09 0 0 1-19.7-19.69 41 41 0 0 1-2.63-15.42v-55.12h10.63v54.23a32 32 0 0 0 1.9 11.79 26.56 26.56 0 0 0 5.7 9 24.93 24.93 0 0 0 8.38 5.71 26.88 26.88 0 0 0 20.47 0 25.19 25.19 0 0 0 8.42-5.73 27 27 0 0 0 5.74-9 32.26 32.26 0 0 0 2.3-11.78v-54.22h10.61v55.13a41.37 41.37 0 0 1-3 15.4 35.27 35.27 0 0 1-19.77 19.68 38.82 38.82 0 0 1-14.5 2.73zM199.578 104.539v-52.18a47.23 47.23 0 0 1 1.37-11.29 37.2 37.2 0 0 1 6.13-13.27 35.1 35.1 0 0 1 14-11c6.66-3 14.82-4.51 24.25-4.51h1.79v11.34h-1.74a50.94 50.94 0 0 0-17.58 2.69 25.82 25.82 0 0 0-10.31 6.75 24.08 24.08 0 0 0-5.05 9.18 35.81 35.81 0 0 0-1.47 10.11v52.17zM417.908 104.529v-47.66a27.76 27.76 0 0 0-1.56-10.2 22.25 22.25 0 0 0-4.72-7.47 20.32 20.32 0 0 0-6.84-4.67 21.58 21.58 0 0 0-8.41-1.67 21.87 21.87 0 0 0-8.49 1.68 20.66 20.66 0 0 0-6.88 4.7 22.66 22.66 0 0 0-4.76 7.48 27.89 27.89 0 0 0-2 10.18v47.64h-21v-48.59a47.25 47.25 0 0 1 3.5-17.64 41.07 41.07 0 0 1 23-22.95 45.71 45.71 0 0 1 33.35 0 40.66 40.66 0 0 1 13.74 9 41.12 41.12 0 0 1 9.11 14 47.08 47.08 0 0 1 3 17.68v48.55h-21.04zM495.188 106.939c-25.33 0-45.94-21.24-45.94-47.36s20.61-47.39 45.94-47.39 45.94 21.26 45.94 47.39a50 50 0 0 1-.53 7.23l-.11.71h-71.74l.3 1a27.55 27.55 0 0 0 26.14 19.46 26.64 26.64 0 0 0 17.59-6.62s1.35-1.15 1.51-1.31h22.37l-.63 1.26c-7.94 15.83-23.59 25.66-40.84 25.66m0-75.75a27.55 27.55 0 0 0-26.14 19.46l-.3 1h52.88l-.31-1a27.52 27.52 0 0 0-26.13-19.46M548.298 14.599v-.54h22.78c2.79 21.82 9.94 56.41 16.12 72.05 6.55-15.64 14.18-50.23 17-72.05h18.9c2.91 21.82 10.43 55 17.09 72.05 6.19-17.09 13.21-50.23 16.12-72.05h22.67v.54c-5.21 34.06-15.15 69.09-23.64 89.94h-28.38a242.62 242.62 0 0 1-13.38-44.49c-2.79 15.64-9 34.06-13.21 44.49h-28.32c-10-22.79-20.75-61-23.75-89.94M688.308 100.559v-17.27h.95a101.46 101.46 0 0 0 24.19 3.69h4.66c7.38 0 13-2.26 13-9.77 0-5.6-4.89-7.86-10.25-9.29l-13.94-3.69c-10.25-2.63-18.59-9.78-18.59-25.15 0-18.11 14.9-25.62 33-25.62h4.65c5.6 0 16.8 1.44 21.93 3.34v17.16h-1a109.66 109.66 0 0 0-21-2.74h-4.17c-6.55 0-12.15 1.31-12.15 7.86 0 5.13 3.81 7.15 8.46 8.34l13.94 3.81c13.46 3.58 20.49 11.56 20.49 26 0 20-14.41 27.53-34.43 27.53h-4.65a93.11 93.11 0 0 1-25.14-4.18M803.578 85.659a19.1 19.1 0 1 1-19.1-19.1 19.1 19.1 0 0 1 19.1 19.1M296.578 12.409c-25.53 0-46.23 21.21-46.23 47.37 0 26.16 20.74 47.38 46.23 47.38s46.22-21.21 46.22-47.38-20.65-47.37-46.22-47.37m0 81.83c-17.81 0-32.3-15.46-32.3-34.46s14.53-34.42 32.3-34.42c17.77 0 32.3 15.45 32.3 34.45 0 19-14.49 34.46-32.3 34.46" fill="#ffffff" style="fill:#ffffff"/>
</svg>
