<?xml version="1.0" encoding="utf-8"?>
<!-- Generator: Adobe Illustrator 23.1.0, SVG Export Plug-In . SVG Version: 6.00 Build 0)  -->
<svg version="1.1" id="Layer_2" xmlns="http://www.w3.org/2000/svg" xmlns:xlink="http://www.w3.org/1999/xlink" x="0px" y="0px"
	 width="1000px" height="76.4584961px" viewBox="0 0 1000 76.4584961" enable-background="new 0 0 1000 76.4584961"
	 xml:space="preserve">
<path fill="#FFFFFF" d="M66.1503906,74.9799805c-8.3613281-5.4150391-16.7226563-10.828125-25.0825195-16.2431641
	c-12.862793,5.4150391-25.7250977,10.828125-38.5878906,16.2431641
	c7.6254883-8.7539063,15.2514648-17.5058594,22.8769531-26.2597656C16.9042969,43.3051758,8.4516602,37.8920898,0,32.4770508
	h39.4150391C48.3271484,22.1894512,57.2392578,11.902832,66.1503906,1.6147461v30.8623047h38.0366211L66.1503906,48.449707v26.53125
	V74.9799805z"/>
<path fill="#FFFFFF" d="M113.5576172,16.775877c1.5732422,0.0634766,2.71875-1.5029278,2.4804688-2.9897442
	c-0.0083008-3.328125,0.0170898-6.6572266-0.0126953-9.984375c-0.109375-1.5341797-1.7045898-2.3916016-3.1132813-2.1860352
	H72.4887695v15.1596661h41.0683594L113.5576172,16.775877z"/>
<path fill="#FFFFFF" d="M113.5576172,74.9799805c1.5732422,0.0634766,2.71875-1.5029297,2.4804688-2.9902344
	c-0.0083008-3.328125,0.0170898-6.65625-0.0126953-9.984375c-0.109375-1.5341797-1.7045898-2.3916016-3.1132813-2.1855469
	H72.4887695v15.1591797h41.0683594L113.5576172,74.9799805z"/>
<path fill="#FFFFFF" d="M662.6103516,1.6147461h-50.9873047c-2.4638672-0.0327148-2.640625,2.6420898-2.4794922,4.4750977
	c0.03125,2.9135742-0.0654297,5.8325195,0.0498047,8.7416992c0.5927734,2.525877,3.4746094,1.8583965,5.3945313,1.9428692
	h14.9511719v56.0385742c0,2.4560547,2.6943359,2.5800781,4.5185547,2.4365234
	c2.9775391-0.03125,5.9628906,0.0634766,8.9375-0.0488281c2.4814453-0.5078125,1.9306641-3.2978516,1.9785156-5.1669922V16.779295
	c6.1386719-0.0327148,12.2841797,0.0644531,18.4179688-0.0493164c2.4814453-0.5073242,1.9296875-3.2978497,1.9785156-5.1669903
	c-0.0898438-2.6606445,0.1806641-5.3725586-0.1416016-8.0014648c-0.3886719-1.0869141-1.4287109-1.9584961-2.6152344-1.9433594
	L662.6103516,1.6147461z"/>
<path fill="#FFFFFF" d="M458.9204102,18.1293926c-3.5712891-10.3832989-14.6616211-16.7329082-25.3642578-16.5180645
	c-9.4453125,0.0327148-18.902832-0.065918-28.3364258,0.0493164c-2.4907227,0.512207-1.9267578,3.3164063-1.9785156,5.1914063
	v65.9541016c0.0004883,2.4648438,2.7094727,2.5791016,4.5371094,2.4365234
	c2.9726563-0.0332031,5.9506836,0.0644531,8.9194336-0.0488281c2.4907227-0.5126953,1.9267578-3.3164063,1.9785156-5.1914063
	V55.2094727c5.9750977-0.0703125,11.9604492,0.1582031,17.9287109-0.1474609
	c10.7285156-0.7783203,20.934082-8.5595703,23.2485352-19.2744141c1.6870117-5.8281269,0.9243164-11.9819355-0.9365234-17.6689472
	L458.9204102,18.1293926z M444.3129883,33.0185547c-1.2148438,3.6235352-4.5205078,6.4311523-8.4072266,6.5649414
	c-5.7329102,0.3662109-11.4848633,0.1396484-17.2260742,0.203125V16.775877
	c5.7543945,0.0620117,11.519043-0.1342773,17.2661133,0.1137695c6.0151367,0.6333008,9.9755859,6.9853516,9.1425781,12.7407227
	C444.9873047,30.7875957,444.75,31.9404278,444.3129883,33.0185547z"/>
<path fill="#FFFFFF" d="M354.1855469,22.7309551c-0.3027344,3.6064453,3.2333984,5.8974609,6.3017578,6.699707
	c5.7260742,1.8447266,11.8305664,2.0126953,17.605957,3.7055683c6.8266602,1.5297852,14.0942383,4.9975586,16.9033203,11.8535156
	c3.2270508,8.0078125,1.765625,18.2382813-4.9799805,24.0351563c-5.0097656,4.4355469-11.6435547,6.8056641-18.2978516,7.0488281
	c-10.2373047,1.3300781-20.7285156-2.2441406-28.7138672-8.609375c-1.8198242-2.0322266-6.0478516-4.2744141-4.6850586-7.4238281
	c2.8642578-2.9287109,5.6777344-5.9326172,8.6513672-8.7451172c3.6879883-0.4345703,4.9072266,5.2597656,8.4365234,6.3369141
	c5.8681641,4.0263672,13.6499023,4.9511719,20.2983398,2.4638672c3.4868164-1.1259766,5.9760742-4.796875,5.0834961-8.4765625
	c-0.8999023-3.5361328-4.7885742-5.4160156-8.078125-6.1689453c-7.2519531-1.5253906-14.8369141-1.9267578-21.7319336-4.8222656
	c-6.1347656-2.581543-11.4248047-8.074707-12.0522461-14.9287128c-1.0268555-7.4482422,2.1489258-15.248045,8.2236328-19.7192364
	c8.6245117-6.2358398,20.3432617-7.3920898,30.3891602-4.2963867c6.722168,2.0112305,12.7700195,6.4311523,16.71875,12.2226563
	c0.9433594,2.0351563-1.5239258,3.1440411-2.5859375,4.4819317c-2.1108398,1.9291992-3.9521484,4.2001953-6.2685547,5.8696289
	c-3.5917969,0.2231445-4.4794922-5.152832-7.7890625-6.3828125c-5.5922852-3.8207989-13.1640625-3.7592754-19.2719727-1.2851563
	c-2.4174805,1.0878906-4.1479492,3.4394531-4.1635742,6.1357422L354.1855469,22.7309551z"/>
<path fill="#FFFFFF" d="M322.2070313,10.5493164c-10.2558594-9.5429688-25.7871094-11.7954102-38.9682617-8.0112305
	c-10.9916992,2.9604492-20.1010742,11.7387695-23.496582,22.5952129
	c-4.2338867,13.4213886-2.0898438,29.5703144,7.9604492,39.9287109c8.902832,9.3095703,22.6645508,12.3476563,35.0942383,10.5117188
	c10.1728516-1.4091797,19.7426758-7.1640625,25.2729492-15.8935547c6.5942383-9.8486328,7.3774414-22.6962891,4.2421875-33.8911133
	c-1.5742188-5.5395508-5.4208984-10.084959-9.1850586-14.3056622c-0.3027344-0.3164063-0.6108398-0.6274414-0.921875-0.9355469
	L322.2070313,10.5493164z M316.144043,48.7202148c-2.8525391,7.6679688-10.8212891,12.6132813-18.8676758,12.6914063
	c-7.0839844,0.4160156-14.84375-1.6347656-19.2363281-7.5800781c-5.1196289-6.7294922-6.1899414-16.1899414-3.4443359-24.0927753
	c1.9980469-5.9550781,6.8710938-10.7094727,12.8500977-12.6186523c9.7436523-3.5996075,22.4975586-0.418457,27.5092773,9.2045898
	c3.1274414,5.9467793,3.9038086,12.9936543,2.0678711,19.4697285c-0.2407227,0.9912109-0.527832,1.9707031-0.8798828,2.9257813
	H316.144043z"/>
<path fill="#FFFFFF" d="M530.5839844,10.5493164C520.328125,1.0063477,504.796875-1.2460938,491.6157227,2.5380859
	c-10.984375,2.9604492-20.1010742,11.7387695-23.4960938,22.5966778c-4.234375,13.4209003-2.090332,29.5698261,7.9604492,39.9282227
	c8.902832,9.3095703,22.6645508,12.3476563,35.09375,10.5126953c10.1728516-1.4101563,19.7431641-7.1640625,25.2724609-15.8945313
	c6.5947266-9.8486328,7.3779297-22.6962891,4.2421875-33.8911133c-1.5615234-5.3535156-5.0957031-9.9155254-8.8007813-13.9848614
	c-0.4238281-0.4311523-0.859375-0.8496094-1.3066406-1.2558594H530.5839844z M524.5214844,48.7202148
	c-2.8525391,7.6679688-10.8212891,12.6132813-18.8681641,12.6914063c-7.0839844,0.4160156-14.84375-1.6347656-19.2363281-7.5800781
	c-5.1196289-6.7294922-6.1899414-16.1899414-3.4443359-24.0927753c1.9985352-5.9550781,6.871582-10.7094727,12.8500977-12.6186523
	c9.7436523-3.5996075,22.4975586-0.418457,27.5092773,9.2045898c3.6025391,6.899416,4.1054688,15.1552753,1.1865234,22.3916035
	L524.5214844,48.7202148z"/>
<path fill="#FFFFFF" d="M180.8066406,1.6147461c-3.6586914,0.0317383-7.3227539-0.0634766-10.9765625,0.0493164
	c-2.5151367,0.5253906-1.9174805,3.3623047-1.9785156,5.2539063c-0.0361328,14.6625957,0.0727539,29.328125-0.0561523,43.9887695
	c-0.2841797,5.3310547-4.9941406,9.4804688-10.1611328,9.9482422c-5.4697266,0.6845703-11.9829102,0.5654297-16.003418-3.7744141
	c-3.3999023-3.6923828-2.6347656-8.8789063-2.7197266-13.4746094c-0.0327148-13.349123,0.0668945-26.7045918-0.050293-40.0493164
	c-0.6123047-2.5585938-3.5478516-1.8442383-5.4887695-1.9428711c-2.7900391,0.1020508-5.6323242-0.2197266-8.3847656,0.1899414
	c-2.277832,1.0859375-1.2983398,3.8793945-1.5117188,5.8745117c0.0385742,14.7026348-0.0791016,29.4052734,0.0610352,44.1103516
	c0.3876953,11.1787109,9.3759766,20.7724609,20.0419922,23.296875c9.703125,2.3496094,20.8295898,1.6337891,29.1381836-4.3388672
	c7.168457-4.9658203,10.7578125-13.9189453,10.2993164-22.4736328c-0.0219727-15.0556641,0.0458984-30.1318378-0.0341797-45.1743164
	c-0.2651367-0.9282227-1.2368164-1.5004883-2.1708984-1.4848633L180.8066406,1.6147461z"/>
<path fill="#FFFFFF" d="M254.6787109,71.1899414c-5.6967773-6.9482422-11.3920898-13.8974609-17.0888672-20.8447266
	c8.4633789-3.4091797,13.8359375-12.3945313,13.7714844-21.395998c0.3652344-9.1328125-3.9736328-18.5576153-11.9291992-23.350584
	c-5.6591797-3.7441406-12.5668945-4.4785156-19.1884766-4.2529297c-8.0742188,0.0327148-16.1547852-0.065918-24.2246094,0.0493164
	c-2.5917969,0.5688477-1.8857422,3.5126953-1.9785156,5.4594727v65.690918
	c0.0058594,2.4931641,2.7514648,2.5712891,4.5922852,2.4365234c2.9536133-0.03125,5.909668,0.0634766,8.8642578-0.0488281
	c2.5917969-0.5693359,1.8857422-3.5126953,1.9785156-5.4599609V16.7768536
	c5.7539063,0.0634766,11.519043-0.1337891,17.2661133,0.1142578c6.0151367,0.6328125,9.9755859,6.9853516,9.1425781,12.7407227
	c-0.3442383,4.5478535-3.4482422,9.29883-8.2709961,9.8388691c-4.2783203,0.5092773-8.5981445,0.2553711-12.8969727,0.3168945
	c-2.3930664,0.9169922-1.3427734,3.2724609,0.0307617,4.5302734l22.8461914,29.5820313
	c1.5664063,1.7744141,4.0825195,0.8554688,6.1538086,1.0830078c3.3554688,0,6.7128906-0.0029297,10.0649414,0.0039063
	c2.1533203-0.1669922,2.1757813-2.6132813,0.8706055-3.7939453L254.6787109,71.1899414z"/>
<path fill="#FFFFFF" d="M609.9667969,71.1899414c-5.6972656-6.9482422-11.3925781-13.8974609-17.0888672-20.8447266
	c8.4628906-3.4091797,13.8359375-12.3945313,13.7714844-21.395998c0.3652344-9.1328125-3.9736328-18.5576153-11.9296875-23.350584
	c-5.6601563-3.7456055-12.5693359-4.4785156-19.1904297-4.2529297C567.3642578,1.378418,559.1923828,1.28125,551.03125,1.3950195
	c-2.5927734,0.5688477-1.8847656,3.5151367-1.9785156,5.4619141v65.6884766
	c0.0058594,2.4941406,2.7519531,2.5712891,4.5947266,2.4365234c2.953125-0.03125,5.9091797,0.0634766,8.8623047-0.0488281
	c2.5927734-0.5693359,1.8847656-3.515625,1.9785156-5.4619141V16.510252
	c5.7548828,0.0634766,11.5195313-0.1337891,17.2666016,0.1137695c6.0146484,0.6333008,9.9755859,6.9858398,9.1425781,12.7412109
	c-0.3447266,4.5473652-3.4482422,9.2983418-8.2714844,9.8388691c-4.4394531,0.565918-8.9296875,0.1762695-13.3857422,0.3666992
	c-2.4082031,0.7910156-0.5722656,3.3095703,0.5205078,4.4814453c7.6152344,9.859375,15.2304688,19.7197266,22.8457031,29.5820313
	c1.5673828,1.7744141,4.0849609,0.8554688,6.15625,1.0830078c3.6171875-0.0195313,7.2646484,0.0361328,10.8583984-0.015625
	c1.6445313-0.4804688,1.2236328-2.5253906,0.3486328-3.5029297L609.9667969,71.1899414z"/>
<path fill="#ED1441" d="M695.6787109,0c-1.3720703,0-2.484375,1.1103516-2.484375,2.4814453v71.4926758
	c0,1.3720703,1.1123047,2.484375,2.484375,2.484375h169.1074219c1.3720703,0,2.484375-1.1123047,2.484375-2.484375V2.4814453
	C867.2705078,1.1103516,866.1582031,0,864.7861328,0H695.6787109z"/>
<path fill="#FFFFFF" d="M847.4443359,12.4082031c-4.203125,0-7.6103516,3.4072266-7.6103516,7.6098614
	c0,4.203125,3.4072266,7.6103516,7.6103516,7.6103516c4.2021484,0,7.609375-3.4072266,7.609375-7.6103516
	C855.0537109,15.8154297,851.6464844,12.4082031,847.4443359,12.4082031z M847.4443359,15.8579102
	c2.2958984,0.0009766,4.1572266,1.8632793,4.1572266,4.1596661v0.0009766
	c-0.0009766,2.2954102-1.8613281,4.1567383-4.1572266,4.1572266c-2.296875,0.0009766-4.1601563-1.8603516-4.1601563-4.1567383
	v-0.0004883c-0.0009766-2.296875,1.859375-4.1596661,4.15625-4.1606426H847.4443359z"/>
<path fill="#FFFFFF" d="M722.1523438,38.7729492V37.390625c0-0.2861328-0.0019531-0.8388672,0.3154297-1.2700195
	l8.9785156-12.0185566h-15.3457031c-0.7958984,0-1.4384766-0.6430664-1.4384766-1.4375v-7.1782207
	c0-0.7939453,0.6425781-1.4370117,1.4384766-1.4370117h30.8955078c0.7919922,0,1.4365234,0.6430664,1.4365234,1.4370117v0.8549786
	c0,0.7485352-0.1367188,0.972168-0.3515625,1.3232422L737.6523438,32.378418
	c6.8691406,2.2446289,9.8730469,8.2480469,9.8730469,14.4941406c0,10.0888672-7.2626953,17.1337891-17.6650391,17.1337891
	c-9.6494141,0-16.5078125-6.1533203-17.0634766-15.3105469c-0.0244141-0.3955078,0.1152344-0.7822266,0.3876953-1.0712891
	c0.2695313-0.2880859,0.6494141-0.4541016,1.0458984-0.4541016h7.2871094c0.7402344,0,1.34375,0.5615234,1.4326172,1.2978516
	c0.5166016,4.2529297,4.3095703,5.5058594,6.7753906,5.5058594c4.7480469,0,7.6640625-3.0341797,7.6640625-7.0332031
	c0-2.4189453-0.8886719-4.2841797-2.5673828-5.6474609c-2.4404297-1.9780273-7.1884766-2.5146484-10.8828125-1.5097656
	c-0.7021484,0.1904297-1.7880859,0.3271484-1.7880859-1.0107422"/>
<path fill="#FFFFFF" d="M779.5976563,46.6459961c0,4.9453125-4.0224609,7.2851563-7.9931641,7.2851563
	c-3.9726563,0-7.9941406-2.5361328-7.9941406-7.3876953c0-4.8525391,4.0214844-7.2421875,7.9941406-7.2421875
	C775.5751953,39.3012695,779.5976563,41.7016602,779.5976563,46.6459961 M771.8427734,30.6874981l9.2636719-14.716795
	c0.4931641-0.8491211,0.0185547-1.9233398-1.1894531-1.9233398h-8.453125c-0.6279297,0-1.1210938,0.2919922-1.4960938,0.8857422
	l-13.7265625,22.1577148c-1.8720703,3.0268555-2.7148438,6.2651367-2.7148438,9.574707
	c0,9.9882813,7.6054688,17.3369141,18.0791016,17.3369141c10.6044922,0,18.0107422-7.1513672,18.0107422-17.3867188V46.597168
	v0.0390625v-0.0185547c0-10.2353516-8.140625-16.7695332-17.7714844-15.9292011"/>
<path fill="#FFFFFF" d="M822.8330078,47.746582c0.2949219-1.2480469,0.3173828-2.3378906,0.3173828-3.6582031V31.381834
	c0-1.3188477-0.0976563-2.4506836-0.3173828-3.5512695c-0.8242188-3.7368164-3.9707031-5.6850586-7.9267578-5.6850586
	c-3.9580078,0-7.1884766,1.9702148-8.0126953,5.7070313c-0.2207031,1.1010742-0.2871094,2.2104492-0.2871094,3.5292969v12.7065449
	c0,1.3203125,0.0888672,2.421875,0.3085938,3.5214844c0.8242188,3.6816406,4.0332031,5.7128906,7.9902344,5.7128906
	c3.9560547,0,7.0585938-1.9052734,7.9267578-5.5761719 M833.2080078,29.4658184v16.8725605
	c0,10.6708984-8.1972656,17.03125-18.3017578,17.03125c-10.2470703,0-18.4433594-6.3603516-18.4433594-17.03125V29.4677715
	c0-10.5996094,8.1962891-16.8891582,18.4433594-16.8891582c10.1044922,0,18.3017578,6.2895489,18.3017578,16.8891582"/>
<path fill="#FFFFFF" d="M925.2167969,2.4243164c0-0.6928711-0.5625-1.1962891-1.2548828-1.1962891h-5.4228516
	c-0.6933594,0-1.2578125,0.503418-1.2578125,1.1962891v13.3017578h-14.3476563V2.4121094
	c0-0.6928711-0.5644531-1.1845703-1.2578125-1.1845703h-5.4199219c-0.6953125,0-1.2568359,0.4916992-1.2568359,1.1845703v36.2568359
	c0,0.6958008,0.5615234,1.2426758,1.2568359,1.2426758h5.4199219c0.6933594,0,1.2578125-0.546875,1.2578125-1.2426758V23.6611309
	H917.28125v15.0078144c0,0.6958008,0.5654297,1.2426758,1.2578125,1.2426758h5.4228516
	c0.6923828,0,1.2548828-0.546875,1.2548828-1.2426758V2.4243164z"/>
<path fill="#FFFFFF" d="M948.7353516,1.2270508c12.4726563,0,19.0009766,9.6347656,19.0009766,19.2314434
	c0,5.184082-1.7460938,9.9897461-4.9130859,13.5268574c-3.4814453,3.8886719-8.3535156,5.9262695-14.0878906,5.9262695h-13.1689453
	c-0.6953125,0-1.2568359-0.5703125-1.2568359-1.2661133V2.4316406c0-0.6923828,0.5615234-1.2050781,1.2568359-1.2050781
	L948.7353516,1.2270508z M942.1914063,32.0180664h7.0214844c7.3320313,0,10.6738281-5.9643574,10.6738281-11.5092793
	c0-5.5395489-3.3242188-11.3759747-10.625-11.3759747h-7.0693359L942.1914063,32.0180664z"/>
<path fill="#FFFFFF" d="M988.5097656,1.2114258h7.8212891v22.3442364H1000v7.0942383h-3.6689453v9.2470722h-8.4882813v-9.2470722
	h-17.1904297V23.494627L988.5097656,1.2114258z M987.7216797,10.9736328l-9.9443359,12.5820293h10.0654297V10.9736328H987.7216797z"
	/>
</svg>
