<?xml version="1.0" encoding="utf-8"?>
<!-- Generator: Adobe Illustrator 23.1.0, SVG Export Plug-In . SVG Version: 6.00 Build 0)  -->
<svg version="1.1" id="Layer_2" xmlns="http://www.w3.org/2000/svg" xmlns:xlink="http://www.w3.org/1999/xlink" x="0px" y="0px"
	 width="1000px" height="76.3608398px" viewBox="0 0 1000 76.3608398" enable-background="new 0 0 1000 76.3608398"
	 xml:space="preserve">
<path fill="#FFFFFF" d="M66.0664063,74.8842773c-8.3505859-5.4082031-16.7011719-10.8144531-25.050293-16.2226563
	C28.1694336,64.0698242,15.3237305,69.4760742,2.4770508,74.8842773
	c7.6157227-8.7421875,15.2319336-17.4833984,22.8481445-26.2265625C16.8828125,43.2504883,8.440918,37.84375,0,32.4355469
	h39.3652344C48.265625,22.1606426,57.1665039,11.887207,66.0664063,1.6123047v30.8232422h37.9887695L66.0664063,48.3881836
	v26.4970703V74.8842773z"/>
<path fill="#FFFFFF" d="M113.4135742,16.7543926c1.5708008,0.0629883,2.7148438-1.5009747,2.4775391-2.9863262
	c-0.0083008-3.3237305,0.0166016-6.6484375-0.0126953-9.9716797c-0.109375-1.5317383-1.7026367-2.3881836-3.1098633-2.1831055
	h-40.371582v15.1406231h41.015625L113.4135742,16.7543926z"/>
<path fill="#FFFFFF" d="M113.4135742,74.8842773c1.5708008,0.0634766,2.7148438-1.5009766,2.4775391-2.9863281
	c-0.0083008-3.3232422,0.0166016-6.6484375-0.0126953-9.9716797c-0.109375-1.5322266-1.7026367-2.3876953-3.1098633-2.1826172
	h-40.371582v15.1396484h41.015625L113.4135742,74.8842773z"/>
<path fill="#FFFFFF" d="M661.7675781,1.6123047h-50.921875c-2.4599609-0.0327148-2.6376953,2.6391602-2.4765625,4.4692383
	c0.03125,2.9101563-0.0644531,5.8256836,0.0498047,8.730957c0.5917969,2.522459,3.4697266,1.8559551,5.3886719,1.9404278h14.9316406
	v55.9672852c0,2.4521484,2.6904297,2.5771484,4.5126953,2.4335938c2.9736328-0.03125,5.9550781,0.0634766,8.9257813-0.0488281
	c2.4785156-0.5068359,1.9277344-3.2939453,1.9765625-5.1601563V16.7578106
	c6.1298828-0.0327148,12.2675781,0.0644531,18.3935547-0.0493164c2.4785156-0.5068359,1.9277344-3.2934551,1.9765625-5.1601543
	c-0.0898438-2.6577148,0.1806641-5.3657227-0.140625-7.9916992c-0.3886719-1.0854492-1.4267578-1.9560547-2.6123047-1.9404297
	L661.7675781,1.6123047z"/>
<path fill="#FFFFFF" d="M458.3374023,18.1059551C454.7705078,7.7358398,443.6943359,1.394043,433.0053711,1.6088867
	c-9.4335938,0.0327148-18.8789063-0.0654297-28.3007813,0.0493164c-2.4873047,0.5117188-1.9238281,3.3125-1.9755859,5.1850586
	v65.8701172c0,2.4619141,2.7055664,2.5751953,4.53125,2.4335938c2.96875-0.0332031,5.9428711,0.0644531,8.9077148-0.0488281
	c2.487793-0.5117188,1.9243164-3.3125,1.9760742-5.1855469V55.1391602c5.9677734-0.0703125,11.9458008,0.1572266,17.90625-0.1474609
	c10.7143555-0.7763672,20.9072266-8.5488281,23.21875-19.2495117c1.6850586-5.8208027,0.9233398-11.9667988-0.9350586-17.6469746
	L458.3374023,18.1059551z M443.7485352,32.9765625c-1.2133789,3.6186523-4.5151367,6.4228516-8.3964844,6.5561523
	c-5.7260742,0.3662109-11.4707031,0.1396484-17.2045898,0.203125V16.7543926
	c5.7470703,0.0620117,11.5043945-0.1337891,17.2446289,0.1137695c6.0073242,0.6323242,9.9624023,6.9765625,9.1303711,12.7246094
	C444.421875,30.7485332,444.1845703,31.8994122,443.7485352,32.9765625z"/>
<path fill="#FFFFFF" d="M353.7358398,22.7016582c-0.3027344,3.6020508,3.2290039,5.8901367,6.293457,6.6914063
	c5.71875,1.8422852,11.8154297,2.0102539,17.5834961,3.7006855c6.8183594,1.527832,14.0761719,4.9916992,16.8818359,11.8393555
	c3.2231445,7.9970703,1.7636719,18.2138672-4.9736328,24.0039063c-5.003418,4.4296875-11.6289063,6.796875-18.2749023,7.0390625
	c-10.2241211,1.3291016-20.7016602-2.2402344-28.6767578-8.5976563c-1.8178711-2.0302734-6.0405273-4.2685547-4.6791992-7.4140625
	c2.8603516-2.9248047,5.6704102-5.9257813,8.6401367-8.734375c3.6831055-0.4345703,4.9008789,5.2529297,8.4257813,6.3291016
	c5.8608398,4.0205078,13.6328125,4.9443359,20.2724609,2.4599609c3.4824219-1.1240234,5.96875-4.7900391,5.0771484-8.4648438
	c-0.8989258-3.5322266-4.7827148-5.4091797-8.0678711-6.1611328c-7.2431641-1.5234375-14.8178711-1.9248047-21.7041016-4.8164063
	c-6.1269531-2.578125-11.4106445-8.0649414-12.0371094-14.9096699c-1.0253906-7.4389648,2.1459961-15.229002,8.2133789-19.694334
	c8.6132813-6.2280273,20.3168945-7.3828125,30.3500977-4.2910156c6.7138672,2.0087891,12.7539063,6.4228516,16.6977539,12.2075195
	c0.9418945,2.0322266-1.5219727,3.1396465-2.5825195,4.4760723c-2.1083984,1.9267578-3.9472656,4.1948242-6.2607422,5.8618164
	c-3.5869141,0.2231445-4.4741211-5.1459961-7.7792969-6.3745117c-5.5849609-3.8159161-13.1469727-3.7548809-19.2470703-1.2836914
	c-2.4150391,1.0864258-4.1430664,3.4355469-4.1582031,6.128418L353.7358398,22.7016582z"/>
<path fill="#FFFFFF" d="M321.7978516,10.5356445C311.5546875,1.0048828,296.043457-1.2446289,282.8789063,2.534668
	c-10.9775391,2.9570313-20.0756836,11.7241211-23.4667969,22.5664043
	c-4.2285156,13.4042988-2.0874023,29.5322285,7.9506836,39.8779297c8.8916016,9.296875,22.6357422,12.3320313,35.0493164,10.4990234
	c10.159668-1.4082031,19.7177734-7.1552734,25.2407227-15.8740234c6.5859375-9.8359375,7.3681641-22.6674805,4.2368164-33.8481445
	c-1.5722656-5.5322266-5.4135742-10.0717754-9.1733398-14.2875957c-0.3022461-0.3154297-0.6098633-0.6264648-0.9208984-0.9335938
	L321.7978516,10.5356445z M315.7421875,48.6577148c-2.8486328,7.6582031-10.8071289,12.5966797-18.8432617,12.6757813
	c-7.0751953,0.4150391-14.8251953-1.6337891-19.2119141-7.5703125c-5.1137695-6.7207031-6.1826172-16.1694336-3.4404297-24.0625019
	c1.9956055-5.9477539,6.862793-10.6958008,12.8339844-12.6025391c9.7314453-3.5952129,22.46875-0.4179688,27.4741211,9.1928711
	c3.1235352,5.939455,3.8994141,12.9770527,2.0654297,19.4458027c-0.2407227,0.9882813-0.5268555,1.9677734-0.8789063,2.9208984
	H315.7421875z"/>
<path fill="#FFFFFF" d="M529.9101563,10.5356445c-10.2431641-9.5307617-25.7548828-11.7802734-38.9194336-8.0009766
	c-10.9702148,2.9570313-20.0751953,11.7241211-23.4663086,22.5678692
	c-4.2285156,13.4038105-2.0874023,29.5327168,7.9506836,39.8774414
	c8.8911133,9.2978516,22.6357422,12.3320313,35.0493164,10.4990234
	c10.1601563-1.4082031,19.7177734-7.1552734,25.2402344-15.8740234c6.5859375-9.8359375,7.3691406-22.6674805,4.2373047-33.8476563
	c-1.5605469-5.347168-5.0898438-9.9028301-8.7910156-13.9672832c-0.421875-0.4306641-0.8574219-0.8486328-1.3046875-1.2543945
	H529.9101563z M523.8544922,48.6577148c-2.8486328,7.6582031-10.8076172,12.5966797-18.84375,12.6757813
	c-7.074707,0.4150391-14.824707-1.6337891-19.2119141-7.5703125c-5.1132813-6.7207031-6.1821289-16.1694336-3.4399414-24.0625019
	c1.9956055-5.9477539,6.862793-10.6958008,12.8334961-12.6025391c9.7314453-3.5952129,22.4697266-0.4179688,27.4746094,9.1928711
	c3.5976563,6.8911152,4.0996094,15.1362324,1.1855469,22.3637714L523.8544922,48.6577148z"/>
<path fill="#FFFFFF" d="M180.5766602,1.6123047c-3.6538086,0.0317383-7.3129883-0.0629883-10.9624023,0.0493164
	c-2.5117188,0.5244141-1.9145508,3.3583984-1.9755859,5.2470703c-0.0366211,14.6445293,0.0727539,29.2910156-0.0566406,43.9326172
	c-0.2836914,5.3251953-4.987793,9.46875-10.1479492,9.9355469c-5.4628906,0.6845703-11.9677734,0.5644531-15.9829102-3.7695313
	c-3.3955078-3.6875-2.6318359-8.8671875-2.7163086-13.4570313c-0.0327148-13.3320332,0.0668945-26.6704121-0.050293-39.9985352
	c-0.6113281-2.5551758-3.543457-1.8417969-5.4819336-1.9404297c-2.7866211,0.1020508-5.625-0.2192383-8.3740234,0.1899414
	c-2.2749023,1.0844727-1.2963867,3.8745117-1.5102539,5.8666992c0.0390625,14.6840801-0.0786133,29.3681641,0.0610352,44.0551758
	c0.387207,11.1640625,9.3647461,20.7451172,20.0170898,23.2666016c9.6904297,2.3466797,20.8032227,1.6318359,29.1005859-4.3330078
	c7.159668-4.9599609,10.7441406-13.9013672,10.2866211-22.4453125c-0.0224609-15.0366211,0.0458984-30.0937519-0.0341797-45.1171875
	c-0.2651367-0.9267578-1.2353516-1.4980469-2.1679688-1.4829102L180.5766602,1.6123047z"/>
<path fill="#FFFFFF" d="M254.3554688,71.0991211c-5.6894531-6.9394531-11.3779297-13.8789063-17.0673828-20.8183594
	c8.4526367-3.4052734,13.8183594-12.378418,13.7539063-21.3686543c0.3647461-9.121582-3.9682617-18.5336895-11.9140625-23.3207989
	c-5.6518555-3.7392578-12.5512695-4.4726563-19.1640625-4.2475586c-8.0639648,0.0327148-16.1342773-0.0654297-24.1938477,0.0493164
	c-2.5883789,0.5678711-1.8833008,3.5083008-1.9755859,5.4526367v65.6069336
	c0.0058594,2.4902344,2.7475586,2.5683594,4.5864258,2.4335938c2.949707-0.03125,5.9018555,0.0634766,8.8525391-0.0488281
	c2.5883789-0.5683594,1.8833008-3.5087891,1.9760742-5.453125V16.7553692
	c5.746582,0.0634766,11.5043945-0.1337891,17.2441406,0.1137695c6.0073242,0.6323242,9.9628906,6.9765625,9.1308594,12.7246094
	c-0.34375,4.5419941-3.4438477,9.2871113-8.2602539,9.8266621c-4.2734375,0.5078125-8.5874023,0.2548828-12.8808594,0.3164063
	c-2.3896484,0.9160156-1.3408203,3.2685547,0.0307617,4.5244141l22.8173828,29.5449219
	c1.5639648,1.7714844,4.0776367,0.8535156,6.1459961,1.0810547c3.3510742,0.0009766,6.7045898-0.0029297,10.0517578,0.0039063
	c2.1508789-0.1669922,2.1733398-2.609375,0.8696289-3.7890625L254.3554688,71.0991211z"/>
<path fill="#FFFFFF" d="M609.1914063,71.0991211c-5.6894531-6.9394531-11.3779297-13.8789063-17.0673828-20.8183594
	c8.453125-3.4052734,13.8183594-12.378418,13.7539063-21.3686543c0.3652344-9.121582-3.9677734-18.5336895-11.9140625-23.3207989
	c-5.6533203-3.7407227-12.5527344-4.4726563-19.1660156-4.2475586c-8.1542969,0.0327148-16.3164063-0.0644531-24.4667969,0.0493164
	c-2.5898438,0.5678711-1.8828125,3.5107422-1.9765625,5.4545898v65.6049805
	c0.0058594,2.4912109,2.7490234,2.5683594,4.5888672,2.4335938c2.9501953-0.03125,5.9023438,0.0634766,8.8515625-0.0488281
	c2.5898438-0.5683594,1.8818359-3.5107422,1.9765625-5.4550781V16.4892559
	c5.7460938,0.0629883,11.5039063-0.1337891,17.2441406,0.1137695c6.0068359,0.6323242,9.9619141,6.9765625,9.1308594,12.7246094
	c-0.34375,4.5419941-3.4443359,9.286623-8.2607422,9.8266621c-4.4335938,0.5649414-8.9179688,0.1757813-13.3691406,0.3657227
	c-2.4052734,0.7900391-0.5712891,3.3056641,0.5205078,4.4765625c7.6054688,9.8466797,15.2109375,19.6943359,22.8164063,29.5439453
	c1.5654297,1.7714844,4.0791016,0.8544922,6.1474609,1.0820313c3.6132813-0.0205078,7.2558594,0.0351563,10.8457031-0.0166016
	c1.6425781-0.4794922,1.2216797-2.5214844,0.3486328-3.4980469L609.1914063,71.0991211z"/>
<path fill="#ED1441" d="M694.7939453,0c-1.3691406,0-2.4804688,1.1083984-2.4804688,2.4780273v71.4023438
	c0,1.3691406,1.1113281,2.4804688,2.4804688,2.4804688H863.6875c1.3691406,0,2.4814453-1.1113281,2.4814453-2.4804688V2.4780273
	C866.1689453,1.1083984,865.0566406,0,863.6875,0H694.7939453z"/>
<path fill="#FFFFFF" d="M846.3671875,12.3920898c-4.1982422,0-7.6005859,3.402832-7.6005859,7.600584
	s3.4023438,7.6000977,7.6005859,7.6000977c4.1972656,0,7.5996094-3.4023438,7.5996094-7.6000977
	S850.5644531,12.3920898,846.3671875,12.3920898z M846.3671875,15.8378906
	c2.2929688,0.0004883,4.1523438,1.8603497,4.1513672,4.154295v0.0004883c0,2.2929688-1.859375,4.1513672-4.1513672,4.1523438
	c-2.2939453,0.0004883-4.1542969-1.8579102-4.1552734-4.1518555v-0.0004883
	c-0.0009766-2.2939453,1.8574219-4.1538067,4.1513672-4.1547832H846.3671875z"/>
<path fill="#FFFFFF" d="M721.234375,38.7231445v-1.3803711c0-0.2856445-0.0019531-0.8374023,0.3144531-1.2680664
	l8.9677734-12.0034199h-15.3261719c-0.7949219,0-1.4365234-0.6425781-1.4365234-1.4355469v-7.1694317
	c0-0.7929688,0.6416016-1.4350586,1.4365234-1.4350586h30.8554688c0.7919922,0,1.4355469,0.6420898,1.4355469,1.4350586v0.854002
	c0,0.7475586-0.1367188,0.9707031-0.3505859,1.3212891l-10.4160156,14.6953144
	c6.859375,2.2416992,9.8603516,8.237793,9.8603516,14.4760742c0,10.0761719-7.2529297,17.1113281-17.6425781,17.1113281
	c-9.6376953,0-16.4873047-6.1455078-17.0419922-15.2910156c-0.0244141-0.3955078,0.1162109-0.78125,0.3876953-1.0703125
	c0.2695313-0.2861328,0.6484375-0.4521484,1.0449219-0.4521484h7.2773438c0.7392578,0,1.3417969,0.5605469,1.4306641,1.2958984
	c0.5166016,4.2470703,4.3046875,5.4990234,6.7666016,5.4990234c4.7431641,0,7.6552734-3.0302734,7.6552734-7.0244141
	c0-2.4160156-0.8876953-4.2792969-2.5644531-5.640625c-2.4375-1.9755859-7.1796875-2.5112305-10.8691406-1.5078125
	c-0.7011719,0.1904297-1.7861328,0.3271484-1.7861328-1.0092773"/>
<path fill="#FFFFFF" d="M778.6064453,46.5864258c0,4.9394531-4.0175781,7.2763672-7.9833984,7.2763672
	c-3.9667969,0-7.9824219-2.5341797-7.9824219-7.3789063c0-4.8457031,4.015625-7.2329102,7.9824219-7.2329102
	C774.5888672,39.2509766,778.6064453,41.6479492,778.6064453,46.5864258 M770.8623047,30.6484356l9.2509766-14.6987305
	c0.4931641-0.8476543,0.0185547-1.9204082-1.1875-1.9204082h-8.4423828c-0.6269531,0-1.1201172,0.2915039-1.4941406,0.8847656
	L755.2792969,37.043457c-1.8681641,3.0234375-2.7109375,6.2568359-2.7109375,9.5625
	c0,9.9755859,7.5957031,17.3154297,18.0566406,17.3154297c10.5898438,0,17.9873047-7.1425781,17.9873047-17.3642578v-0.0195313
	v0.0390625v-0.0185547c0-10.222168-8.1298828-16.7480488-17.7490234-15.9086933"/>
<path fill="#FFFFFF" d="M821.7871094,47.6850586c0.2939453-1.2451172,0.3173828-2.3349609,0.3173828-3.6533203V31.341795
	c0-1.3168945-0.0986328-2.4472656-0.3173828-3.546875c-0.8222656-3.7319336-3.9658203-5.6777344-7.9169922-5.6777344
	c-3.9521484,0-7.1796875,1.9677734-8.0029297,5.699707c-0.2197266,1.0996094-0.2861328,2.2080078-0.2861328,3.5249023v12.6899433
	c0,1.3183594,0.0888672,2.4199219,0.3085938,3.5175781c0.8222656,3.6767578,4.0273438,5.7060547,7.9794922,5.7060547
	c3.9511719,0,7.0498047-1.9033203,7.9169922-5.5703125 M832.1494141,29.4282207v16.8515644
	c0,10.65625-8.1875,17.0087891-18.2792969,17.0087891c-10.234375,0-18.4199219-6.3525391-18.4199219-17.0087891V29.4301739
	c0-10.5864258,8.1865234-16.8676739,18.4199219-16.8676739c10.0917969,0,18.2792969,6.2812481,18.2792969,16.8676739"/>
<path fill="#FFFFFF" d="M924.0400391,2.4208984c0-0.6918945-0.5605469-1.1948242-1.2529297-1.1948242h-5.4160156
	c-0.6914063,0-1.2558594,0.5029297-1.2558594,1.1948242v13.2851563h-14.3291016V2.4086914
	c0-0.6918945-0.5644531-1.1831055-1.2558594-1.1831055h-5.4130859c-0.6953125,0-1.2558594,0.4912109-1.2558594,1.1831055v36.2109375
	c0,0.6948242,0.5605469,1.2412109,1.2558594,1.2412109h5.4130859c0.6914063,0,1.2558594-0.5463867,1.2558594-1.2412109V23.6308575
	h14.3291016v14.9887714c0,0.6948242,0.5644531,1.2412109,1.2558594,1.2412109h5.4160156
	c0.6923828,0,1.2529297-0.5463867,1.2529297-1.2412109V2.4208984z"/>
<path fill="#FFFFFF" d="M947.5292969,1.2250977c12.4570313,0,18.9775391,9.6225586,18.9775391,19.2075176
	c0,5.1772461-1.7451172,9.9765625-4.9072266,13.5092793c-3.4775391,3.8837891-8.34375,5.9189453-14.0703125,5.9189453h-13.1513672
	c-0.6953125,0-1.2558594-0.5698242-1.2558594-1.2646484V2.4282227c0-0.6914063,0.5605469-1.203125,1.2558594-1.203125H947.5292969z
	 M940.9941406,31.9770489h7.0117188c7.3232422,0,10.6611328-5.956543,10.6611328-11.4946289
	c0-5.5322247-3.3203125-11.3613262-10.6113281-11.3613262h-7.0615234V31.9770489z"/>
<polygon fill="#FFFFFF" points="970.3251953,1.2460938 1000,1.2460938 976.1132813,39.8823242 969.4433594,35.6806641 
	986.4550781,8.0629883 970.3242188,8.0629883 "/>
</svg>
