<?xml version="1.0" encoding="utf-8"?>
<!-- Generator: Adobe Illustrator 23.1.0, SVG Export Plug-In . SVG Version: 6.00 Build 0)  -->
<svg version="1.1" id="Layer_2" xmlns="http://www.w3.org/2000/svg" xmlns:xlink="http://www.w3.org/1999/xlink" x="0px" y="0px"
	 width="1000px" height="76.5209961px" viewBox="0 0 1000 76.5209961" enable-background="new 0 0 1000 76.5209961"
	 xml:space="preserve">
<path fill="#FFFFFF" d="M66.2041016,75.0405273C57.8359375,69.621582,49.4682617,64.2036133,41.1010742,58.784668
	C28.2275391,64.2036133,15.3554688,69.621582,2.4819336,75.0405273
	c7.6318359-8.7607422,15.2636719-17.5195313,22.8959961-26.2802734C16.9179688,43.3413086,8.4584961,37.9228516,0,32.5039063
	h39.4467773c8.9194336-10.2963886,17.8388672-20.5913086,26.7573242-30.8876953v30.8876953h38.0678711L66.2041016,48.4897461
	v26.5517578V75.0405273z"/>
<path fill="#FFFFFF" d="M113.6499023,16.7895489c1.5742188,0.0634766,2.7207031-1.5039043,2.4824219-2.9921856
	c-0.0083008-3.3305664,0.0170898-6.6621094-0.0126953-9.9926758c-0.109375-1.5351563-1.7060547-2.3930664-3.1157227-2.1875
	H72.5478516v15.1718731h41.1015625L113.6499023,16.7895489z"/>
<path fill="#FFFFFF" d="M113.6499023,75.0405273c1.5742188,0.0634766,2.7207031-1.5039063,2.4824219-2.9921875
	c-0.0083008-3.3300781,0.0170898-6.6621094-0.0126953-9.9921875c-0.109375-1.5351563-1.7060547-2.3935547-3.1157227-2.1875
	H72.5478516v15.171875h41.1015625H113.6499023z"/>
<path fill="#FFFFFF" d="M663.1484375,1.6162109h-51.0283203c-2.4658203-0.0327148-2.6435547,2.6445313-2.4824219,4.4785156
	c0.0322266,2.9160156-0.0644531,5.8378906,0.0507813,8.7490234c0.5927734,2.5278301,3.4765625,1.8598614,5.3994141,1.9448223
	h14.9628906v56.0839844c0,2.4570313,2.6953125,2.5820313,4.5214844,2.4384766
	c2.9804688-0.03125,5.96875,0.0634766,8.9453125-0.0488281c2.4833984-0.5087891,1.9316406-3.3007813,1.9804688-5.171875V16.7929668
	c6.1425781-0.0327148,12.2939453,0.0649414,18.4326172-0.0493164c2.4824219-0.5078125,1.9316406-3.3002911,1.9794922-5.1708965
	c-0.0888672-2.6630859,0.1816406-5.3769531-0.140625-8.0083008c-0.3896484-1.0874023-1.4296875-1.9599609-2.6171875-1.9448242
	L663.1484375,1.6162109z"/>
<path fill="#FFFFFF" d="M459.293457,18.1440411C455.7192383,7.7524414,444.6196289,1.3974609,433.9086914,1.612793
	c-9.4536133,0.0327148-18.918457-0.065918-28.3598633,0.0493164c-2.4926758,0.5126953-1.9282227,3.3193359-1.9799805,5.1958008
	v66.0078125c0,2.4667969,2.7114258,2.5810547,4.5410156,2.4384766c2.9746094-0.0332031,5.9550781,0.0644531,8.9262695-0.0498047
	c2.4926758-0.5126953,1.9282227-3.3183594,1.9799805-5.1953125V55.2553711
	c5.9799805-0.0712891,11.9707031,0.1572266,17.9433594-0.1484375c10.7373047-0.7783203,20.9511719-8.5664063,23.2675781-19.2900391
	c1.6884766-5.8330097,0.925293-11.9917011-0.9370117-17.6835957L459.293457,18.1440411z M444.6738281,33.0458984
	c-1.2158203,3.6259766-4.5244141,6.4360352-8.4135742,6.5698242c-5.737793,0.3671875-11.4946289,0.140625-17.2407227,0.2041016
	V16.7895489c5.7592773,0.0625,11.5288086-0.1337891,17.2802734,0.1142578
	c6.0200195,0.6337891,9.9838867,6.9907227,9.1499023,12.7509766
	C445.3486328,30.8129864,445.1113281,31.9663067,444.6738281,33.0458984z"/>
<path fill="#FFFFFF" d="M354.4736328,22.7495098c-0.3037109,3.6098633,3.2353516,5.9023438,6.3066406,6.7055664
	c5.730957,1.8457031,11.8398438,2.0141602,17.6201172,3.708498c6.8325195,1.5307617,14.105957,5.0014648,16.9169922,11.8632813
	c3.2299805,8.0136719,1.7670898,18.2529297-4.9838867,24.0537109c-5.0136719,4.4394531-11.6533203,6.8115234-18.3129883,7.0546875
	c-10.2456055,1.3310547-20.7451172-2.2451172-28.7368164-8.6162109c-1.8212891-2.0341797-6.0527344-4.2773438-4.6889648-7.4296875
	c2.8662109-2.9306641,5.6826172-5.9375,8.6582031-8.7519531c3.690918-0.4355469,4.9111328,5.2636719,8.4433594,6.3417969
	c5.8730469,4.0292969,13.6611328,4.9550781,20.3149414,2.4658203c3.4897461-1.1259766,5.980957-4.8007813,5.0874023-8.4833984
	c-0.9003906-3.5390625-4.7924805-5.4199219-8.0844727-6.1738281c-7.2578125-1.5263672-14.8486328-1.9287109-21.7495117-4.8261719
	c-6.1396484-2.5834961-11.434082-8.081543-12.0620117-14.9409199c-1.027832-7.4541016,2.1503906-15.260252,8.2304688-19.7353497
	c8.6313477-6.2407227,20.359375-7.3979492,30.4135742-4.2998047c6.7275391,2.0131836,12.7807617,6.4360352,16.7324219,12.2329102
	c0.9438477,2.0361328-1.5249023,3.1464825-2.5878906,4.4853497c-2.112793,1.9306641-3.9555664,4.2036133-6.2739258,5.8745117
	c-3.5942383,0.2231445-4.4833984-5.1572266-7.7954102-6.3881836c-5.5966797-3.8237286-13.1743164-3.7626934-19.2875977-1.2861328
	c-2.4194336,1.0883789-4.1513672,3.4423828-4.1665039,6.140625L354.4736328,22.7495098z"/>
<path fill="#FFFFFF" d="M322.4692383,10.5581055C312.2045898,1.0073242,296.6606445-1.246582,283.46875,2.5405273
	c-11.0004883,2.9628906-20.1176758,11.7480469-23.515625,22.6132793
	c-4.2373047,13.4321308-2.0913086,29.5947285,7.9672852,39.9609375c8.909668,9.3173828,22.6831055,12.3574219,35.1225586,10.5205078
	c10.1811523-1.4101563,19.7587891-7.1689453,25.2929688-15.90625c6.5996094-9.8564453,7.3837891-22.7148438,4.2456055-33.9189453
	c-1.5751953-5.5439453-5.4248047-10.0927715-9.1918945-14.3173809c-0.3032227-0.3164063-0.6113281-0.6279297-0.9228516-0.9360352
	L322.4692383,10.5581055z M316.4008789,48.7602539c-2.8549805,7.6738281-10.8300781,12.6230469-18.8828125,12.7011719
	c-7.0898438,0.4169922-14.855957-1.6367188-19.2519531-7.5859375c-5.1240234-6.734375-6.1953125-16.203125-3.4477539-24.1123066
	c2-5.9599609,6.8774414-10.7182617,12.8608398-12.6289063c9.7519531-3.6025372,22.5161133-0.4189453,27.5317383,9.2119141
	c3.1298828,5.9516621,3.9072266,13.0039082,2.0693359,19.48633c-0.2407227,0.9912109-0.527832,1.9716797-0.8803711,2.9277344
	H316.4008789z"/>
<path fill="#FFFFFF" d="M531.015625,10.5581055c-10.2646484-9.5507813-25.8085938-11.8046875-39.0004883-8.0175781
	c-10.9936523,2.9628906-20.1176758,11.7480469-23.515625,22.6147442
	c-4.2373047,13.4321308-2.0917969,29.5942402,7.9672852,39.9604492c8.909668,9.3173828,22.6826172,12.3574219,35.1220703,10.5214844
	c10.1816406-1.4111328,19.7587891-7.1699219,25.2939453-15.9072266c6.5996094-9.8564453,7.3837891-22.7148438,4.2451172-33.9189453
	c-1.5634766-5.3579102-5.1005859-9.9233379-8.8085938-13.9960918c-0.4228516-0.4316406-0.859375-0.8500977-1.3076172-1.2568359
	H531.015625z M524.9472656,48.7602539c-2.8544922,7.6738281-10.8300781,12.6230469-18.8828125,12.7011719
	c-7.0898438,0.4169922-14.855957-1.6367188-19.2519531-7.5859375c-5.1240234-6.734375-6.1953125-16.203125-3.4477539-24.1123066
	c2-5.9599609,6.8774414-10.7182617,12.8608398-12.6289063c9.7519531-3.6025372,22.515625-0.4189453,27.5322266,9.2119141
	c3.6044922,6.9052753,4.1074219,15.1679707,1.1875,22.4101582L524.9472656,48.7602539z"/>
<path fill="#FFFFFF" d="M180.953125,1.6162109c-3.6611328,0.0317383-7.3286133-0.0634766-10.9848633,0.0493164
	c-2.5175781,0.5258789-1.9189453,3.3652344-1.9799805,5.2583008c-0.0366211,14.6748028,0.0727539,29.3515625-0.0566406,44.0239258
	c-0.284668,5.3359375-4.9980469,9.4892578-10.1694336,9.9570313c-5.4741211,0.6855469-11.9926758,0.5654297-16.0161133-3.7783203
	c-3.402832-3.6953125-2.637207-8.8847656-2.722168-13.484375c-0.0327148-13.3603535,0.0673828-26.7265644-0.050293-40.0820313
	c-0.612793-2.5610352-3.5507813-1.8461914-5.4931641-1.9448242c-2.7924805,0.1020508-5.6367188-0.2202148-8.3916016,0.1904297
	c-2.2797852,1.0864258-1.2993164,3.8823242-1.5131836,5.8789063c0.0385742,14.7148418-0.0786133,29.4291992,0.0610352,44.1469727
	c0.3881836,11.1865234,9.3837891,20.7880859,20.0585938,23.3154297c9.7109375,2.3515625,20.8466797,1.6347656,29.1616211-4.3427734
	c7.1743164-4.9697266,10.7666016-13.9306641,10.3081055-22.4921875
	c-0.0224609-15.0673828,0.0458984-30.1562519-0.0341797-45.2109375c-0.265625-0.9287109-1.2382813-1.5014648-2.1728516-1.4858398
	L180.953125,1.6162109z"/>
<path fill="#FFFFFF" d="M254.8857422,71.2475586c-5.7011719-6.953125-11.4013672-13.9082031-17.1030273-20.8613281
	c8.4707031-3.4121094,13.847168-12.4047852,13.7827148-21.4130878c0.3657227-9.140625-3.9765625-18.572752-11.9389648-23.369627
	c-5.6635742-3.7475586-12.5771484-4.4824219-19.2036133-4.2563477c-8.0810547,0.0327148-16.1679688-0.065918-24.2446289,0.0493164
	c-2.59375,0.5688477-1.887207,3.515625-1.9799805,5.4638672v65.7446289
	c0.0058594,2.4941406,2.7539063,2.5732422,4.5961914,2.4384766c2.9560547-0.0322266,5.9140625,0.0634766,8.8710938-0.0498047
	c2.59375-0.5693359,1.887207-3.515625,1.9799805-5.4638672V16.7905254
	c5.7587891,0.0639648,11.5283203-0.1337891,17.2802734,0.1142578c6.0200195,0.6337891,9.9833984,6.9912109,9.1499023,12.7514648
	c-0.3442383,4.5512714-3.4506836,9.3061543-8.2773438,9.8466816c-4.2822266,0.5092773-8.6054688,0.2553711-12.9077148,0.3178711
	c-2.3950195,0.9169922-1.34375,3.2744141,0.0307617,4.5332031l22.8652344,29.6064453
	c1.5673828,1.7753906,4.0854492,0.8554688,6.1586914,1.0839844c3.3579102,0,6.7182617-0.0039063,10.0727539,0.0029297
	c2.1552734-0.1660156,2.1772461-2.6142578,0.8710938-3.7958984L254.8857422,71.2475586z"/>
<path fill="#FFFFFF" d="M610.4619141,71.2475586c-5.7011719-6.953125-11.4013672-13.9082031-17.1025391-20.8613281
	c8.4707031-3.4121094,13.8466797-12.4047852,13.7822266-21.4130878c0.3662109-9.140625-3.9765625-18.572752-11.9384766-23.369627
	c-5.6650391-3.7485352-12.5800781-4.4824219-19.2060547-4.2563477c-8.171875,0.0327148-16.3505859-0.0649414-24.5185547,0.0493164
	c-2.5947266,0.5688477-1.8857422,3.5180664-1.9804688,5.4663086v65.7421875
	c0.0058594,2.4960938,2.7548828,2.5732422,4.5986328,2.4384766c2.9560547-0.0322266,5.9140625,0.0634766,8.8701172-0.0498047
	c2.5947266-0.5693359,1.8857422-3.5175781,1.9804688-5.4658203V16.5239239
	c5.7587891,0.0634766,11.5283203-0.1342773,17.2802734,0.1137695c6.0195313,0.6337891,9.9833984,6.9912109,9.1494141,12.7514648
	c-0.3447266,4.5512714-3.4511719,9.3061543-8.2773438,9.8471699c-4.4433594,0.5668945-8.9365234,0.1762695-13.3964844,0.3666992
	c-2.4101563,0.7910156-0.5732422,3.3125,0.5205078,4.4853516c7.6210938,9.8671875,15.2431641,19.7353516,22.8642578,29.6064453
	c1.5683594,1.7753906,4.0878906,0.8554688,6.1611328,1.0839844c3.6201172-0.0205078,7.2705078,0.0351563,10.8671875-0.0166016
	c1.6464844-0.4814453,1.2246094-2.5263672,0.3496094-3.5048828L610.4619141,71.2475586z"/>
<path fill="#ED1441" d="M696.2431641,0c-1.3720703,0-2.4863281,1.1113281-2.4863281,2.4838867V74.034668
	c0,1.3720703,1.1142578,2.4863281,2.4863281,2.4863281h169.2460938c1.3720703,0,2.4863281-1.1142578,2.4863281-2.4863281V2.4838867
	C867.9755859,1.1113281,866.8613281,0,865.4892578,0H696.2431641z"/>
<path fill="#FFFFFF" d="M848.1318359,12.418457c-4.2060547,0-7.6162109,3.4101563-7.6162109,7.616209
	c0,4.206543,3.4101563,7.6162109,7.6162109,7.6162109c4.2070313,0,7.6162109-3.409668,7.6162109-7.6162109
	C855.7480469,15.8286133,852.3388672,12.418457,848.1318359,12.418457z M848.1318359,15.8710938
	c2.2988281,0.0004883,4.1621094,1.8647442,4.1611328,4.163084v0.0004883c0,2.2978516-1.8632813,4.1601563-4.1611328,4.1611328
	s-4.1621094-1.8618164-4.1630859-4.1601563v-0.0009766c-0.0009766-2.2983398,1.8613281-4.1625957,4.1601563-4.1635723H848.1318359z"
	/>
<path fill="#FFFFFF" d="M722.7382813,38.8046875v-1.3837891c0-0.2861328-0.0009766-0.8388672,0.3164063-1.2705078
	l8.9853516-12.0288105h-15.3574219c-0.796875,0-1.4404297-0.6435547-1.4404297-1.4379883v-7.1845684
	c0-0.7944336,0.6435547-1.4379883,1.4404297-1.4379883h30.9199219c0.7929688,0,1.4384766,0.6435547,1.4384766,1.4379883v0.8559551
	c0,0.7485352-0.1367188,0.9726563-0.3515625,1.3242188l-10.4375,14.7255878
	c6.8740234,2.246582,9.8808594,8.2548828,9.8808594,14.5068359c0,10.0966797-7.2685547,17.1464844-17.6796875,17.1464844
	c-9.6572266,0-16.5214844-6.1582031-17.078125-15.3232422c-0.0234375-0.3955078,0.1162109-0.7822266,0.3886719-1.0712891
	c0.2705078-0.2880859,0.6494141-0.4541016,1.046875-0.4541016h7.2929688c0.7412109,0,1.3447266,0.5615234,1.4335938,1.2988281
	c0.5175781,4.2558594,4.3134766,5.5097656,6.78125,5.5097656c4.7519531,0,7.6708984-3.0361328,7.6708984-7.0380859
	c0-2.421875-0.8896484-4.2890625-2.5703125-5.6533203c-2.4423828-1.9790039-7.1943359-2.5161133-10.8916016-1.5107422
	C723.8251953,40.0073242,722.7382813,40.144043,722.7382813,38.8046875"/>
<path fill="#FFFFFF" d="M780.2304688,46.684082c0,4.9492188-4.0253906,7.2910156-8,7.2910156
	s-7.9990234-2.5380859-7.9990234-7.3935547c0-4.8564453,4.0244141-7.2480469,7.9990234-7.2480469
	S780.2304688,41.7358398,780.2304688,46.684082 M772.4697266,30.7124004l9.2714844-14.7285137
	c0.4931641-0.8500977,0.0175781-1.9248047-1.1914063-1.9248047h-8.4589844c-0.6289063,0-1.1220703,0.2919922-1.4970703,0.8867188
	L756.8554688,37.121582c-1.8730469,3.0292969-2.7167969,6.2695313-2.7167969,9.5820313
	c0,9.9970703,7.6113281,17.3515625,18.09375,17.3515625c10.6123047,0,18.0253906-7.1572266,18.0253906-17.4013672v-0.0185547
	v0.0390625v-0.0185547c0-10.2436523-8.1474609-16.783205-17.7861328-15.9418964"/>
<path fill="#FFFFFF" d="M823.5009766,47.7856445c0.2949219-1.2490234,0.3183594-2.3398438,0.3183594-3.6611328V31.4077129
	c0-1.3198242-0.0986328-2.4526367-0.3183594-3.5546875c-0.8242188-3.7397461-3.9736328-5.6894531-7.9326172-5.6894531
	c-3.9609375,0-7.1943359,1.972168-8.0195313,5.7119141c-0.2207031,1.1015625-0.2871094,2.2124023-0.2871094,3.5322266v12.7167988
	c0,1.3212891,0.0888672,2.4238281,0.3085938,3.5244141c0.8242188,3.6845703,4.0361328,5.7177734,7.9970703,5.7177734
	C819.5263672,53.3666992,822.6318359,51.4594727,823.5009766,47.7856445 M833.8847656,29.4902325v16.8862324
	c0,10.6787109-8.2041016,17.0449219-18.3164063,17.0449219c-10.2558594,0-18.4589844-6.3662109-18.4589844-17.0449219V29.4916973
	c0-10.6079102,8.2041016-16.9023418,18.4589844-16.9023418c10.1123047,0,18.3164063,6.2944317,18.3164063,16.9023418"/>
<path fill="#FFFFFF" d="M925.9677734,2.4262695c0-0.6928711-0.5625-1.1972656-1.2558594-1.1972656h-5.4267578
	c-0.6933594,0-1.2587891,0.5039063-1.2587891,1.1972656v13.3129883h-14.359375V2.4140625
	c0-0.6933594-0.5654297-1.1855469-1.2587891-1.1855469h-5.4238281c-0.6962891,0-1.2587891,0.4921875-1.2587891,1.1855469v36.2866211
	c0,0.6962891,0.5625,1.2441406,1.2587891,1.2441406h5.4238281c0.6933594,0,1.2587891-0.5478516,1.2587891-1.2441406V23.6806622
	h14.359375v15.0200214c0,0.6962891,0.5654297,1.2441406,1.2587891,1.2441406h5.4267578
	c0.6933594,0,1.2558594-0.5478516,1.2558594-1.2441406V2.4262695z"/>
<path fill="#FFFFFF" d="M949.5058594,1.2280273c12.4824219,0,19.0166016,9.6425781,19.0166016,19.2475567
	c0,5.1879883-1.7480469,9.9975586-4.9169922,13.5375996c-3.484375,3.8920898-8.3613281,5.9306641-14.0996094,5.9306641h-13.1796875
	c-0.6953125,0-1.2578125-0.5708008-1.2578125-1.2666016V2.434082c0-0.6933594,0.5615234-1.2060547,1.2578125-1.2060547H949.5058594z
	 M942.9570313,32.0439453h7.0263672c7.3388672,0,10.6826172-5.9687519,10.6826172-11.5185566
	c0-5.5434551-3.3261719-11.3847637-10.6328125-11.3847637h-7.0761719V32.0439453z"/>
<path fill="#FFFFFF" d="M987.5722656,39.9594727h-10.1582031l9.5009766-12.9062519
	c-1.7929688,0.1992188-2.9384766,0.2988281-3.4365234,0.2988281c-3.3652344,0-6.2138672-1.2250977-8.5439453-3.6748047
	c-2.3105469-2.4697266-3.4658203-5.5068359-3.4658203-9.1118145c0-3.7641602,1.4248047-6.9208984,4.2724609-9.4707031
	c2.8486328-2.5688477,6.3837891-3.8535156,10.6054688-3.8535156c4.0234375,0,7.2998047,1.2944336,9.8291016,3.8837891
	C998.7255859,7.6938477,1000,11.0302734,1000,15.1328125c0,2.9877911-0.7470703,5.9750957-2.2412109,8.9628887
	c-1.4736328,2.9873047-2.7285156,5.2182617-3.7636719,6.6918945L987.5722656,39.9594727z M991.9042969,15.0429688
	c0-1.6928711-0.5878906-3.1166992-1.7626953-4.2719727c-1.1552734-1.175293-2.5996094-1.7626953-4.3320313-1.7626953
	c-1.5341797,0-2.8583984,0.5976563-3.9736328,1.7924805s-1.6728516,2.609375-1.6728516,4.2421875
	c0,1.6533184,0.5576172,3.0473614,1.6728516,4.1826153c1.1347656,1.1352539,2.5,1.703125,4.0927734,1.703125
	c1.6328125,0,3.0371094-0.5776367,4.2128906-1.7329102C991.3164063,18.0405254,991.9042969,16.6562481,991.9042969,15.0429688z"/>
</svg>
