<?xml version="1.0" encoding="UTF-8" standalone="no"?>
<svg
   height="53.260754"
   width="529.77289"
   version="1.1"
   viewBox="0 0 140.16908 14.092"
   id="svg67"
   sodipodi:docname="Eurosport 2.svg"
   inkscape:version="1.1.1 (3bf5ae0d25, 2021-09-20)"
   xmlns:inkscape="http://www.inkscape.org/namespaces/inkscape"
   xmlns:sodipodi="http://sodipodi.sourceforge.net/DTD/sodipodi-0.dtd"
   xmlns="http://www.w3.org/2000/svg"
   xmlns:svg="http://www.w3.org/2000/svg">
  <defs
     id="defs71" />
  <sodipodi:namedview
     id="namedview69"
     pagecolor="#ffffff"
     bordercolor="#666666"
     borderopacity="1.0"
     inkscape:pageshadow="2"
     inkscape:pageopacity="0.0"
     inkscape:pagecheckerboard="0"
     showgrid="false"
     inkscape:zoom="2.1616667"
     inkscape:cx="257.44025"
     inkscape:cy="26.599846"
     inkscape:window-width="1920"
     inkscape:window-height="1017"
     inkscape:window-x="-8"
     inkscape:window-y="-8"
     inkscape:window-maximized="1"
     inkscape:current-layer="g59" />
  <g
     transform="translate(265.77951,88.4)"
     id="g65">
    <g
       fill="#131b4d"
       id="g59">
      <g
         stroke-width="0.88294"
         id="g57"
         style="fill:#ffffff">
        <path
           d="m -253.71,-74.555 -4.56,-3.003 -7.05,2.994 4.15,-4.874 -4.61,-3.02 h 7.19 l 4.88,-5.721 v 5.721 h 6.96 l -6.96,2.967 v 4.936"
           id="path13"
           style="fill:#ffffff" />
        <path
           d="m -245.06,-85.389 c 0.24,0 0.44,-0.203 0.44,-0.442 v -1.916 c 0,-0.247 -0.2,-0.441 -0.44,-0.441 h -7.47 v 2.799 h 7.47"
           id="path15"
           style="fill:#ffffff" />
        <path
           d="m -245.06,-74.529 c 0.24,0 0.44,-0.203 0.44,-0.441 v -1.916 c 0,-0.248 -0.2,-0.442 -0.44,-0.442 h -7.47 v 2.799 h 7.47"
           id="path17"
           style="fill:#ffffff" />
        <path
           d="m -144.83,-88.197 h -9.33 c -0.24,0 -0.45,0.203 -0.45,0.441 v 1.925 c 0,0.239 0.21,0.442 0.45,0.442 h 3.26 v 10.427 c 0,0.248 0.2,0.442 0.44,0.442 h 1.93 c 0.24,0 0.44,-0.194 0.44,-0.442 v -10.427 h 3.26 c 0.24,0 0.45,-0.203 0.45,-0.442 v -1.925 c 0,-0.238 -0.21,-0.441 -0.45,-0.441"
           id="path19"
           style="fill:#ffffff" />
        <path
           d="m -184.67,-82.343 c -0.1,0.265 -0.24,0.494 -0.42,0.689 -0.18,0.194 -0.38,0.317 -0.62,0.423 -0.24,0.106 -0.67,0.168 -1.5,0.168 h -2.15 v -4.326 h 2.83 c 0.3,0 0.58,0.053 0.82,0.168 0.25,0.105 0.47,0.256 0.64,0.441 0.18,0.185 0.32,0.415 0.41,0.68 0.1,0.274 0.15,0.565 0.15,0.874 0,0.309 -0.05,0.609 -0.16,0.883 z m 2.65,-2.79 c -0.22,-0.601 -0.55,-1.13 -0.98,-1.581 -0.43,-0.45 -0.96,-0.812 -1.57,-1.077 -0.61,-0.265 -1.31,-0.406 -2.08,-0.406 h -5.07 c -0.25,0 -0.45,0.203 -0.45,0.441 v 12.786 c 0,0.238 0.2,0.441 0.45,0.441 h 1.92 c 0.24,0 0.44,-0.203 0.44,-0.441 v -3.276 h 2.71 c 0.77,0 1.46,-0.133 2.07,-0.389 0.6,-0.265 1.13,-0.627 1.56,-1.077 0.43,-0.441 0.76,-0.971 0.99,-1.554 0.22,-0.583 0.34,-1.324 0.34,-1.978 0,-0.653 -0.11,-1.289 -0.33,-1.889"
           id="path21"
           style="fill:#ffffff" />
        <path
           d="m -201.11,-84.268 c -0.01,0.283 0.07,0.45 0.17,0.601 0.12,0.176 0.3,0.317 0.51,0.432 0.24,0.124 0.53,0.221 0.84,0.292 0.36,0.079 0.71,0.15 1.07,0.211 0.65,0.106 1.29,0.23 1.9,0.38 0.64,0.159 1.21,0.397 1.69,0.706 0.5,0.327 0.9,0.76 1.18,1.281 0.29,0.529 0.42,1.209 0.38,2.013 -0.03,0.777 -0.23,1.439 -0.59,1.978 -0.35,0.521 -0.81,0.944 -1.35,1.262 -0.54,0.318 -1.06,0.548 -1.72,0.662 -0.64,0.124 -1.35,0.159 -1.98,0.133 -1.55,-0.071 -3.85,-0.963 -5,-2.534 -0.09,-0.124 -0.2,-0.344 0.05,-0.592 0.24,-0.256 1.42,-1.457 1.42,-1.457 0.24,-0.256 0.48,-0.07 0.57,0.071 0.68,0.989 2.02,1.722 3.07,1.766 0.56,0.026 0.62,0 0.97,-0.044 0.31,-0.044 0.59,-0.124 0.85,-0.239 0.24,-0.114 0.44,-0.256 0.6,-0.459 0.14,-0.185 0.23,-0.45 0.25,-0.759 0.02,-0.291 -0.06,-0.53 -0.2,-0.724 -0.15,-0.203 -0.35,-0.362 -0.6,-0.495 -0.27,-0.141 -0.59,-0.229 -0.94,-0.3 -0.38,-0.07 -0.75,-0.132 -1.11,-0.185 -0.6,-0.071 -1.2,-0.194 -1.77,-0.362 -0.59,-0.168 -1.13,-0.406 -1.58,-0.707 -0.47,-0.317 -0.85,-0.724 -1.13,-1.218 -0.29,-0.494 -0.42,-1.068 -0.38,-1.784 0.03,-0.724 0.21,-1.359 0.53,-1.889 0.32,-0.53 0.74,-0.962 1.25,-1.289 0.49,-0.327 1.06,-0.556 1.69,-0.706 1.23,-0.274 2.46,-0.23 3.67,0.158 1.31,0.415 2.37,1.422 2.85,2.128 0.09,0.133 0.18,0.345 -0.01,0.557 -0.19,0.212 -1.35,1.342 -1.35,1.342 -0.25,0.238 -0.5,0.185 -0.64,-0.027 -0.71,-1.042 -1.63,-1.51 -2.69,-1.58 -1.14,-0.071 -2.41,0.185 -2.47,1.377"
           id="path23"
           style="fill:#ffffff" />
        <path
           d="m -208.08,-79.456 c -0.22,0.521 -0.51,0.971 -0.88,1.325 -0.37,0.353 -0.81,0.618 -1.29,0.803 -0.5,0.177 -1.04,0.274 -1.6,0.274 -0.57,0 -1.11,-0.097 -1.61,-0.274 -0.48,-0.177 -0.91,-0.45 -1.27,-0.803 -0.36,-0.354 -0.65,-0.795 -0.86,-1.325 -0.22,-0.538 -0.33,-1.165 -0.33,-1.881 0,-0.706 0.11,-1.342 0.33,-1.871 0.21,-0.53 0.51,-0.98 0.87,-1.334 0.36,-0.353 0.79,-0.626 1.28,-0.812 0.5,-0.185 1.04,-0.282 1.61,-0.282 0.56,0 1.1,0.097 1.59,0.282 0.49,0.186 0.92,0.468 1.28,0.821 0.37,0.362 0.66,0.813 0.88,1.342 0.21,0.53 0.32,1.157 0.32,1.854 0,0.716 -0.11,1.343 -0.32,1.881 z m 1.12,-7.09 c -0.64,-0.6 -1.38,-1.059 -2.22,-1.377 -0.83,-0.309 -1.72,-0.468 -2.64,-0.468 -0.92,0 -1.8,0.159 -2.64,0.468 -0.84,0.318 -1.59,0.777 -2.23,1.377 -0.64,0.601 -1.15,1.351 -1.53,2.225 -0.37,0.874 -0.56,1.872 -0.56,2.967 0,1.112 0.18,2.11 0.55,2.975 0.37,0.866 0.88,1.616 1.51,2.217 0.63,0.6 1.38,1.068 2.21,1.377 0.83,0.309 1.72,0.468 2.65,0.468 1.01,0 1.96,-0.168 2.81,-0.503 0.86,-0.345 1.6,-0.83 2.22,-1.457 0.61,-0.618 1.09,-1.369 1.43,-2.225 0.34,-0.866 0.52,-1.819 0.52,-2.852 0,-1.095 -0.19,-2.093 -0.57,-2.967 -0.37,-0.874 -0.88,-1.616 -1.51,-2.225"
           id="path25"
           style="fill:#ffffff" />
        <path
           d="m -170.03,-79.456 c -0.21,0.521 -0.51,0.971 -0.88,1.325 -0.37,0.353 -0.8,0.618 -1.29,0.803 -0.5,0.177 -1.03,0.274 -1.59,0.274 -0.58,0 -1.12,-0.097 -1.62,-0.274 -0.48,-0.177 -0.91,-0.45 -1.26,-0.803 -0.36,-0.354 -0.65,-0.795 -0.87,-1.325 -0.22,-0.538 -0.33,-1.165 -0.33,-1.881 0,-0.706 0.11,-1.342 0.33,-1.871 0.22,-0.53 0.51,-0.98 0.87,-1.334 0.37,-0.353 0.8,-0.626 1.29,-0.812 0.49,-0.185 1.03,-0.282 1.61,-0.282 0.55,0 1.09,0.097 1.58,0.282 0.49,0.186 0.92,0.468 1.28,0.821 0.37,0.362 0.67,0.813 0.88,1.342 0.22,0.53 0.33,1.157 0.33,1.854 0,0.716 -0.11,1.343 -0.33,1.881 z m 1.12,-7.09 c -0.63,-0.6 -1.38,-1.059 -2.21,-1.377 -0.83,-0.309 -1.73,-0.468 -2.65,-0.468 -0.91,0 -1.8,0.159 -2.64,0.468 -0.84,0.318 -1.59,0.777 -2.23,1.377 -0.64,0.601 -1.15,1.351 -1.53,2.225 -0.37,0.874 -0.56,1.872 -0.56,2.967 0,1.112 0.19,2.11 0.56,2.975 0.36,0.866 0.87,1.616 1.5,2.217 0.63,0.6 1.38,1.068 2.22,1.377 0.83,0.309 1.72,0.468 2.64,0.468 1.02,0 1.96,-0.168 2.81,-0.503 0.86,-0.345 1.61,-0.83 2.22,-1.457 0.61,-0.618 1.09,-1.369 1.44,-2.225 0.34,-0.866 0.51,-1.819 0.51,-2.852 0,-1.095 -0.19,-2.093 -0.56,-2.967 -0.38,-0.874 -0.89,-1.616 -1.52,-2.225"
           id="path27"
           style="fill:#ffffff" />
        <path
           d="m -232.77,-88.197 h -1.93 c -0.24,0 -0.44,0.203 -0.44,0.441 v 8.459 c 0,0.362 -0.06,0.68 -0.18,0.945 -0.12,0.265 -0.28,0.485 -0.49,0.653 -0.21,0.186 -0.46,0.327 -0.75,0.424 -0.3,0.097 -0.81,0.15 -1.16,0.15 -0.35,0 -0.89,-0.053 -1.19,-0.15 -0.3,-0.097 -0.56,-0.238 -0.78,-0.424 -0.21,-0.176 -0.37,-0.397 -0.49,-0.653 -0.12,-0.265 -0.18,-0.583 -0.18,-0.945 v -8.459 c 0,-0.238 -0.2,-0.441 -0.44,-0.441 h -1.92 c -0.25,0 -0.44,0.203 -0.44,0.441 v 8.53 c 0,0.786 0.14,1.483 0.43,2.092 0.29,0.601 0.69,1.122 1.19,1.545 0.5,0.415 1.09,0.733 1.74,0.945 0.64,0.212 1.34,0.318 2.08,0.318 0.72,0 1.42,-0.106 2.06,-0.318 0.66,-0.212 1.24,-0.53 1.73,-0.953 0.49,-0.415 0.88,-0.936 1.17,-1.537 0.29,-0.609 0.43,-1.306 0.43,-2.092 v -8.53 c 0,-0.238 -0.2,-0.441 -0.44,-0.441"
           id="path29"
           style="fill:#ffffff" />
        <path
           d="m -219.29,-75.271 -3.11,-3.867 c 0,0 2.51,-0.909 2.51,-4.106 0,-0.653 -0.11,-1.289 -0.33,-1.889 -0.22,-0.601 -0.55,-1.13 -0.98,-1.581 -0.43,-0.45 -0.95,-0.812 -1.56,-1.077 -0.62,-0.265 -1.32,-0.406 -2.08,-0.406 h -5.07 c -0.25,0 -0.44,0.203 -0.44,0.441 v 12.786 c 0,0.238 0.19,0.441 0.44,0.441 h 1.91 c 0.25,0 0.45,-0.203 0.45,-0.441 v -10.419 h 2.84 c 0.3,0 0.57,0.053 0.82,0.168 0.25,0.105 0.47,0.256 0.64,0.441 0.18,0.185 0.31,0.415 0.41,0.68 0.1,0.274 0.15,0.565 0.15,0.874 0,0.309 -0.06,0.609 -0.16,0.883 -0.1,0.265 -0.24,0.494 -0.42,0.689 -0.18,0.194 -0.38,0.317 -0.62,0.423 -0.24,0.106 -0.67,0.168 -1.5,0.168 h -1.19 c -0.23,0 -0.41,0.212 -0.23,0.503 l 4.44,5.846 c 0.08,0.114 0.22,0.185 0.36,0.185 h 2.45 c 0.37,0 0.61,-0.336 0.27,-0.742"
           id="path31"
           style="fill:#ffffff" />
        <path
           d="m -154.44,-75.271 -3.12,-3.867 c 0,0 2.52,-0.909 2.52,-4.106 0,-0.653 -0.11,-1.289 -0.33,-1.889 -0.22,-0.601 -0.54,-1.13 -0.98,-1.581 -0.43,-0.45 -0.96,-0.812 -1.57,-1.077 -0.61,-0.265 -1.31,-0.406 -2.07,-0.406 h -5.07 c -0.25,0 -0.45,0.203 -0.45,0.441 v 12.786 c 0,0.238 0.2,0.441 0.45,0.441 h 1.91 c 0.24,0 0.44,-0.203 0.44,-0.441 v -10.419 h 2.84 c 0.31,0 0.58,0.053 0.83,0.168 0.25,0.105 0.46,0.256 0.64,0.441 0.17,0.185 0.31,0.415 0.4,0.68 0.11,0.274 0.15,0.565 0.15,0.874 0,0.309 -0.05,0.609 -0.15,0.883 -0.1,0.265 -0.25,0.494 -0.42,0.689 -0.18,0.194 -0.38,0.317 -0.62,0.423 -0.24,0.106 -0.67,0.168 -1.5,0.168 h -1.19 c -0.23,0 -0.41,0.212 -0.23,0.503 l 4.44,5.846 c 0.08,0.114 0.22,0.185 0.36,0.185 h 2.45 c 0.37,0 0.61,-0.336 0.27,-0.742"
           id="path33"
           style="fill:#ffffff" />
        <path
           d="m -253.71,-74.555 -4.56,-3.003 -7.05,2.994 4.15,-4.874 -4.61,-3.02 h 7.19 l 4.88,-5.721 v 5.721 h 6.96 l -6.96,2.967 v 4.936"
           id="path35"
           style="fill:#ffffff" />
        <path
           d="m -245.06,-85.389 c 0.24,0 0.44,-0.203 0.44,-0.442 v -1.916 c 0,-0.247 -0.2,-0.441 -0.44,-0.441 h -7.47 v 2.799 h 7.47"
           id="path37"
           style="fill:#ffffff" />
        <path
           d="m -245.06,-74.529 c 0.24,0 0.44,-0.203 0.44,-0.441 v -1.916 c 0,-0.248 -0.2,-0.442 -0.44,-0.442 h -7.47 v 2.799 h 7.47"
           id="path39"
           style="fill:#ffffff" />
        <path
           d="m -144.83,-88.197 h -9.33 c -0.24,0 -0.45,0.203 -0.45,0.441 v 1.925 c 0,0.239 0.21,0.442 0.45,0.442 h 3.26 v 10.427 c 0,0.248 0.2,0.442 0.44,0.442 h 1.93 c 0.24,0 0.44,-0.194 0.44,-0.442 v -10.427 h 3.26 c 0.24,0 0.45,-0.203 0.45,-0.442 v -1.925 c 0,-0.238 -0.21,-0.441 -0.45,-0.441"
           id="path41"
           style="fill:#ffffff" />
        <path
           d="m -184.67,-82.343 c -0.1,0.265 -0.24,0.494 -0.42,0.689 -0.18,0.194 -0.38,0.317 -0.62,0.423 -0.24,0.106 -0.67,0.168 -1.5,0.168 h -2.15 v -4.326 h 2.83 c 0.3,0 0.58,0.053 0.82,0.168 0.25,0.105 0.47,0.256 0.64,0.441 0.18,0.185 0.32,0.415 0.41,0.68 0.1,0.274 0.15,0.565 0.15,0.874 0,0.309 -0.05,0.609 -0.16,0.883 z m 2.65,-2.79 c -0.22,-0.601 -0.55,-1.13 -0.98,-1.581 -0.43,-0.45 -0.96,-0.812 -1.57,-1.077 -0.61,-0.265 -1.31,-0.406 -2.08,-0.406 h -5.07 c -0.25,0 -0.45,0.203 -0.45,0.441 v 12.786 c 0,0.238 0.2,0.441 0.45,0.441 h 1.92 c 0.24,0 0.44,-0.203 0.44,-0.441 v -3.276 h 2.71 c 0.77,0 1.46,-0.133 2.07,-0.389 0.6,-0.265 1.13,-0.627 1.56,-1.077 0.43,-0.441 0.76,-0.971 0.99,-1.554 0.22,-0.583 0.34,-1.324 0.34,-1.978 0,-0.653 -0.11,-1.289 -0.33,-1.889"
           id="path43"
           style="fill:#ffffff" />
        <path
           d="m -201.11,-84.268 c -0.01,0.283 0.07,0.45 0.17,0.601 0.12,0.176 0.3,0.317 0.51,0.432 0.24,0.124 0.53,0.221 0.84,0.292 0.36,0.079 0.71,0.15 1.07,0.211 0.65,0.106 1.29,0.23 1.9,0.38 0.64,0.159 1.21,0.397 1.69,0.706 0.5,0.327 0.9,0.76 1.18,1.281 0.29,0.529 0.42,1.209 0.38,2.013 -0.03,0.777 -0.23,1.439 -0.59,1.978 -0.35,0.521 -0.81,0.944 -1.35,1.262 -0.54,0.318 -1.06,0.548 -1.72,0.662 -0.64,0.124 -1.35,0.159 -1.98,0.133 -1.55,-0.071 -3.85,-0.963 -5,-2.534 -0.09,-0.124 -0.2,-0.344 0.05,-0.592 0.24,-0.256 1.42,-1.457 1.42,-1.457 0.24,-0.256 0.48,-0.07 0.57,0.071 0.68,0.989 2.02,1.722 3.07,1.766 0.56,0.026 0.62,0 0.97,-0.044 0.31,-0.044 0.59,-0.124 0.85,-0.239 0.24,-0.114 0.44,-0.256 0.6,-0.459 0.14,-0.185 0.23,-0.45 0.25,-0.759 0.02,-0.291 -0.06,-0.53 -0.2,-0.724 -0.15,-0.203 -0.35,-0.362 -0.6,-0.495 -0.27,-0.141 -0.59,-0.229 -0.94,-0.3 -0.38,-0.07 -0.75,-0.132 -1.11,-0.185 -0.6,-0.071 -1.2,-0.194 -1.77,-0.362 -0.59,-0.168 -1.13,-0.406 -1.58,-0.707 -0.47,-0.317 -0.85,-0.724 -1.13,-1.218 -0.29,-0.494 -0.42,-1.068 -0.38,-1.784 0.03,-0.724 0.21,-1.359 0.53,-1.889 0.32,-0.53 0.74,-0.962 1.25,-1.289 0.49,-0.327 1.06,-0.556 1.69,-0.706 1.23,-0.274 2.46,-0.23 3.67,0.158 1.31,0.415 2.37,1.422 2.85,2.128 0.09,0.133 0.18,0.345 -0.01,0.557 -0.19,0.212 -1.35,1.342 -1.35,1.342 -0.25,0.238 -0.5,0.185 -0.64,-0.027 -0.71,-1.042 -1.63,-1.51 -2.69,-1.58 -1.14,-0.071 -2.41,0.185 -2.47,1.377"
           id="path45"
           style="fill:#ffffff" />
        <path
           d="m -208.08,-79.456 c -0.22,0.521 -0.51,0.971 -0.88,1.325 -0.37,0.353 -0.81,0.618 -1.29,0.803 -0.5,0.177 -1.04,0.274 -1.6,0.274 -0.57,0 -1.11,-0.097 -1.61,-0.274 -0.48,-0.177 -0.91,-0.45 -1.27,-0.803 -0.36,-0.354 -0.65,-0.795 -0.86,-1.325 -0.22,-0.538 -0.33,-1.165 -0.33,-1.881 0,-0.706 0.11,-1.342 0.33,-1.871 0.21,-0.53 0.51,-0.98 0.87,-1.334 0.36,-0.353 0.79,-0.626 1.28,-0.812 0.5,-0.185 1.04,-0.282 1.61,-0.282 0.56,0 1.1,0.097 1.59,0.282 0.49,0.186 0.92,0.468 1.28,0.821 0.37,0.362 0.66,0.813 0.88,1.342 0.21,0.53 0.32,1.157 0.32,1.854 0,0.716 -0.11,1.343 -0.32,1.881 z m 1.12,-7.09 c -0.64,-0.6 -1.38,-1.059 -2.22,-1.377 -0.83,-0.309 -1.72,-0.468 -2.64,-0.468 -0.92,0 -1.8,0.159 -2.64,0.468 -0.84,0.318 -1.59,0.777 -2.23,1.377 -0.64,0.601 -1.15,1.351 -1.53,2.225 -0.37,0.874 -0.56,1.872 -0.56,2.967 0,1.112 0.18,2.11 0.55,2.975 0.37,0.866 0.88,1.616 1.51,2.217 0.63,0.6 1.38,1.068 2.21,1.377 0.83,0.309 1.72,0.468 2.65,0.468 1.01,0 1.96,-0.168 2.81,-0.503 0.86,-0.345 1.6,-0.83 2.22,-1.457 0.61,-0.618 1.09,-1.369 1.43,-2.225 0.34,-0.866 0.52,-1.819 0.52,-2.852 0,-1.095 -0.19,-2.093 -0.57,-2.967 -0.37,-0.874 -0.88,-1.616 -1.51,-2.225"
           id="path47"
           style="fill:#ffffff" />
        <path
           d="m -170.03,-79.456 c -0.21,0.521 -0.51,0.971 -0.88,1.325 -0.37,0.353 -0.8,0.618 -1.29,0.803 -0.5,0.177 -1.03,0.274 -1.59,0.274 -0.58,0 -1.12,-0.097 -1.62,-0.274 -0.48,-0.177 -0.91,-0.45 -1.26,-0.803 -0.36,-0.354 -0.65,-0.795 -0.87,-1.325 -0.22,-0.538 -0.33,-1.165 -0.33,-1.881 0,-0.706 0.11,-1.342 0.33,-1.871 0.22,-0.53 0.51,-0.98 0.87,-1.334 0.37,-0.353 0.8,-0.626 1.29,-0.812 0.49,-0.185 1.03,-0.282 1.61,-0.282 0.55,0 1.09,0.097 1.58,0.282 0.49,0.186 0.92,0.468 1.28,0.821 0.37,0.362 0.67,0.813 0.88,1.342 0.22,0.53 0.33,1.157 0.33,1.854 0,0.716 -0.11,1.343 -0.33,1.881 z m 1.12,-7.09 c -0.63,-0.6 -1.38,-1.059 -2.21,-1.377 -0.83,-0.309 -1.73,-0.468 -2.65,-0.468 -0.91,0 -1.8,0.159 -2.64,0.468 -0.84,0.318 -1.59,0.777 -2.23,1.377 -0.64,0.601 -1.15,1.351 -1.53,2.225 -0.37,0.874 -0.56,1.872 -0.56,2.967 0,1.112 0.19,2.11 0.56,2.975 0.36,0.866 0.87,1.616 1.5,2.217 0.63,0.6 1.38,1.068 2.22,1.377 0.83,0.309 1.72,0.468 2.64,0.468 1.02,0 1.96,-0.168 2.81,-0.503 0.86,-0.345 1.61,-0.83 2.22,-1.457 0.61,-0.618 1.09,-1.369 1.44,-2.225 0.34,-0.866 0.51,-1.819 0.51,-2.852 0,-1.095 -0.19,-2.093 -0.56,-2.967 -0.38,-0.874 -0.89,-1.616 -1.52,-2.225"
           id="path49"
           style="fill:#ffffff" />
        <path
           d="m -232.77,-88.197 h -1.93 c -0.24,0 -0.44,0.203 -0.44,0.441 v 8.459 c 0,0.362 -0.06,0.68 -0.18,0.945 -0.12,0.265 -0.28,0.485 -0.49,0.653 -0.21,0.186 -0.46,0.327 -0.75,0.424 -0.3,0.097 -0.81,0.15 -1.16,0.15 -0.35,0 -0.89,-0.053 -1.19,-0.15 -0.3,-0.097 -0.56,-0.238 -0.78,-0.424 -0.21,-0.176 -0.37,-0.397 -0.49,-0.653 -0.12,-0.265 -0.18,-0.583 -0.18,-0.945 v -8.459 c 0,-0.238 -0.2,-0.441 -0.44,-0.441 h -1.92 c -0.25,0 -0.44,0.203 -0.44,0.441 v 8.53 c 0,0.786 0.14,1.483 0.43,2.092 0.29,0.601 0.69,1.122 1.19,1.545 0.5,0.415 1.09,0.733 1.74,0.945 0.64,0.212 1.34,0.318 2.08,0.318 0.72,0 1.42,-0.106 2.06,-0.318 0.66,-0.212 1.24,-0.53 1.73,-0.953 0.49,-0.415 0.88,-0.936 1.17,-1.537 0.29,-0.609 0.43,-1.306 0.43,-2.092 v -8.53 c 0,-0.238 -0.2,-0.441 -0.44,-0.441"
           id="path51"
           style="fill:#ffffff" />
        <path
           d="m -219.29,-75.271 -3.11,-3.867 c 0,0 2.51,-0.909 2.51,-4.106 0,-0.653 -0.11,-1.289 -0.33,-1.889 -0.22,-0.601 -0.55,-1.13 -0.98,-1.581 -0.43,-0.45 -0.95,-0.812 -1.56,-1.077 -0.62,-0.265 -1.32,-0.406 -2.08,-0.406 h -5.07 c -0.25,0 -0.44,0.203 -0.44,0.441 v 12.786 c 0,0.238 0.19,0.441 0.44,0.441 h 1.91 c 0.25,0 0.45,-0.203 0.45,-0.441 v -10.419 h 2.84 c 0.3,0 0.57,0.053 0.82,0.168 0.25,0.105 0.47,0.256 0.64,0.441 0.18,0.185 0.31,0.415 0.41,0.68 0.1,0.274 0.15,0.565 0.15,0.874 0,0.309 -0.06,0.609 -0.16,0.883 -0.1,0.265 -0.24,0.494 -0.42,0.689 -0.18,0.194 -0.38,0.317 -0.62,0.423 -0.24,0.106 -0.67,0.168 -1.5,0.168 h -1.19 c -0.23,0 -0.41,0.212 -0.23,0.503 l 4.44,5.846 c 0.08,0.114 0.22,0.185 0.36,0.185 h 2.45 c 0.37,0 0.61,-0.336 0.27,-0.742"
           id="path53"
           style="fill:#ffffff" />
        <path
           d="m -154.44,-75.271 -3.12,-3.867 c 0,0 2.52,-0.909 2.52,-4.106 0,-0.653 -0.11,-1.289 -0.33,-1.889 -0.22,-0.601 -0.54,-1.13 -0.98,-1.581 -0.43,-0.45 -0.96,-0.812 -1.57,-1.077 -0.61,-0.265 -1.31,-0.406 -2.07,-0.406 h -5.07 c -0.25,0 -0.45,0.203 -0.45,0.441 v 12.786 c 0,0.238 0.2,0.441 0.45,0.441 h 1.91 c 0.24,0 0.44,-0.203 0.44,-0.441 v -10.419 h 2.84 c 0.31,0 0.58,0.053 0.83,0.168 0.25,0.105 0.46,0.256 0.64,0.441 0.17,0.185 0.31,0.415 0.4,0.68 0.11,0.274 0.15,0.565 0.15,0.874 0,0.309 -0.05,0.609 -0.15,0.883 -0.1,0.265 -0.25,0.494 -0.42,0.689 -0.18,0.194 -0.38,0.317 -0.62,0.423 -0.24,0.106 -0.67,0.168 -1.5,0.168 h -1.19 c -0.23,0 -0.41,0.212 -0.23,0.503 l 4.44,5.846 c 0.08,0.114 0.22,0.185 0.36,0.185 h 2.45 c 0.37,0 0.61,-0.336 0.27,-0.742"
           id="path55"
           style="fill:#ffffff" />
      </g>
    </g>
    <path
       stroke-width="0.88294"
       fill="#d50032"
       d="m -126.07,-74.308 h -12.73 c -0.26,0 -0.46,-0.203 -0.46,-0.459 v -13.174 c 0,-0.247 0.2,-0.459 0.46,-0.459 h 12.73 c 0.25,0 0.46,0.212 0.46,0.459 v 13.174 c 0,0.256 -0.21,0.459 -0.46,0.459"
       id="path61" />
    <path
       stroke-width="0.88294"
       fill="#ffffff"
       d="m -135.52,-77.063 v 0.274 c 0,0.176 0.13,0.318 0.3,0.318 h 5.92 c 0.17,0 0.3,-0.142 0.3,-0.318 v -1.369 c 0,-0.159 -0.14,-0.309 -0.31,-0.309 h -2.77 l 1.73,-2.313 c 1.02,-1.325 1.25,-2.808 0.69,-3.938 -0.47,-0.954 -1.46,-1.492 -2.72,-1.492 -1.96,0.008 -3.07,1.077 -3.11,3.01 l -0.01,0.451 c 0,0.185 0.13,0.309 0.33,0.309 h 1.32 c 0.18,0 0.31,-0.141 0.32,-0.318 l 0.02,-0.415 c 0.02,-0.512 0.23,-1.13 1.08,-1.13 0.68,0 1.03,0.432 1.04,0.883 0.02,0.485 -0.1,0.856 -0.53,1.412 l -3.44,4.539 c -0.11,0.123 -0.16,0.229 -0.16,0.406"
       id="path63" />
  </g>
</svg>
