<?xml version="1.0" encoding="utf-8"?>
<svg version="1.1" id="Layer_2" xmlns="http://www.w3.org/2000/svg" xmlns:xlink="http://www.w3.org/1999/xlink" x="0px" y="0px"
	 width="1000px" height="76.6591415px" viewBox="0 0 1000 76.6591415" enable-background="new 0 0 1000 76.6591415"
	 xml:space="preserve">
<path fill="#ffffff" d="M989.1816406,32.9575005H1000v7.0737267h-26.4824219l12.9287109-16.4360256
	c1.8828125-2.4174786,3.2197266-4.3989239,4.0126953-5.944334c0.8125-1.5454082,1.21875-2.9916954,1.21875-4.3393507
	c0-1.4658194-0.4853516-2.6748028-1.4570313-3.6259747c-0.9501953-0.9506826-2.1494141-1.4262686-3.5957031-1.4262686
	c-1.6640625,0-2.8730469,0.604003-3.6259766,1.8129873c-0.7529297,1.1884756-1.2089844,3.0610332-1.3671875,5.6171846h-8.4111328
	c-0.0195313-4.5971661,1.328125-8.1533165,4.0419922-10.6699162c2.7148438-2.5161121,6.0732422-3.7744122,10.0761719-3.7744122
	c3.7246094,0,6.765625,1.0898432,9.1240234,3.2690411C998.8203125,6.6738248,1000,9.4482374,1000,12.8364191
	c0,3.3085909-1.3769531,6.9741163-4.1318359,10.9965754l-2.2587891,3.2988262
	c-0.8916016,1.3276367-2.0205078,2.8432598-3.3876953,4.5473614L989.1816406,32.9575005z"/>
<path fill="#ffffff" d="M66.3237,75.1757431c-8.3828087-5.4287109-16.7661057-10.8564377-25.1479378-16.2851486
	c-12.8969669,5.4287109-25.792469,10.8564377-38.6889458,16.2851486
	c7.645504-8.7763596,15.2914953-17.5517502,22.9370003-26.3281136C16.9487228,43.4189224,8.4741173,37.9911919,0,32.5619926
	h39.5185356C48.4540787,22.2475452,57.3896217,11.933588,66.3237,1.6191398v30.942852h38.1366959L66.3237,48.5771217v26.5995979
	V75.1757431z"/>
<path fill="#ffffff" d="M113.8554153,16.8198147c1.5771484,0.0634766,2.7255859-1.506834,2.4868164-2.9975557
	c-0.0078125-3.3369122,0.0170898-6.6743131-0.0126953-10.0107374c-0.109375-1.5380852-1.7089844-2.3974597-3.121582-2.1918936
	H72.6791611v15.1996984h41.175766L113.8554153,16.8198147z"/>
<path fill="#ffffff" d="M113.8554153,75.1757431c1.5771484,0.0634766,2.7255859-1.5058594,2.4868164-2.9970703
	c-0.0078125-3.3369141,0.0170898-6.6747971-0.0126953-10.0107346c-0.109375-1.5380859-1.7089844-2.3974609-3.121582-2.1914063
	H72.6791611v15.1992111h41.175766H113.8554153z"/>
<path fill="#ffffff" d="M664.3458862,1.6191398H613.225769c-2.4707031-0.033203-2.6484375,2.6489248-2.4873047,4.4863262
	c0.0322266,2.9213848-0.0644531,5.8481417,0.0507813,8.7646437c0.59375,2.5327129,3.4833984,1.8637676,5.4091797,1.9482403
	h14.9902344v56.1855164c0,2.4619141,2.7001953,2.5869141,4.5302734,2.4433594
	c2.9853516-0.0322266,5.9785156,0.0634766,8.9609375-0.0498047c2.4873047-0.5087891,1.9355469-3.3066406,1.9833984-5.1806641
	V16.8232327c6.1542969-0.0332031,12.3164063,0.0649414,18.4658203-0.0493164
	c2.4882813-0.5092773,1.9355469-3.3066378,1.9833984-5.1806602c-0.0888672-2.6679678,0.1816406-5.3862276-0.140625-8.0224571
	c-0.390625-1.0898433-1.4326172-1.9638664-2.6220703-1.9482414L664.3458862,1.6191398z"/>
<path fill="#ffffff" d="M460.1228333,18.1767464c-3.5805664-10.4101486-14.7001953-16.776844-25.4306641-16.561512
	c-9.4702148,0.0332031-18.9521484-0.0659178-28.4106445,0.0498047c-2.4970398,0.5131835-1.9316101,3.3251939-1.9838562,5.2050757
	v66.126915c0.0004883,2.4707031,2.7162781,2.5849609,4.5492859,2.4423828
	c2.9799805-0.0322266,5.9658203,0.0654297,8.9423828-0.0488281c2.4970703-0.5136719,1.9321289-3.3251953,1.9838867-5.2050781
	V55.3544617c5.9907227-0.0703125,11.9921875,0.1582031,17.9755859-0.1484375
	c10.7563477-0.7792931,20.9887695-8.5820236,23.3095703-19.3246956c1.6914063-5.8432598,0.9267578-12.0131779-0.9389648-17.7153244
	L460.1228333,18.1767464z M445.4768372,33.1049614c-1.2177734,3.6328125-4.5322266,6.4482384-8.4287109,6.5825157
	c-5.7480469,0.3671875-11.5151367,0.1396484-17.2714844,0.203125V16.8198147
	c5.769043,0.0625,11.5493164-0.1342773,17.3115234,0.1142578c6.0307617,0.6347656,10.0014648,7.0034142,9.1665039,12.7739182
	C446.1531067,30.8681469,445.9153137,32.0239067,445.4768372,33.1049614z"/>
<path fill="#ffffff" d="M355.1135864,22.790514c-0.3037109,3.616209,3.2416992,5.913084,6.3183594,6.7172813
	c5.7412109,1.8496094,11.8613281,2.0180664,17.6518555,3.7153301c6.8447266,1.5336914,14.1313477,5.0107422,16.9477539,11.8852501
	c3.2353516,8.0283165,1.7700195,18.2851448-4.9931641,24.0966644c-5.0224609,4.4482422-11.6743164,6.8242188-18.3457031,7.0673828
	c-10.2641602,1.3339844-20.7827148-2.25-28.7890625-8.6318359c-1.8246765-2.0371017-6.0639343-4.2851524-4.6972351-7.4423752
	c2.871582-2.9365234,5.6928406-5.9482384,8.6737976-8.7685509c3.6977539-0.4355469,4.9199219,5.2734337,8.4584961,6.3535118
	c5.8837891,4.0371094,13.6860352,4.9638634,20.3515625,2.4697266c3.4960938-1.1279297,5.9921875-4.8085938,5.0966797-8.4980431
	c-0.9018555-3.5458984-4.8007813-5.4296837-8.0991211-6.1855431c-7.2709961-1.5283203-14.8754883-1.9316406-21.7885742-4.8349609
	c-6.1508789-2.5878868-11.4550476-8.0956993-12.0839539-14.9672775c-1.0292969-7.4677696,2.1542969-15.2880754,8.2450867-19.7709846
	c8.6469727-6.2524385,20.3964844-7.4116173,30.46875-4.3076153c6.7397461,2.0166006,12.8037109,6.447751,16.7626953,12.2548771
	c0.9458008,2.0400381-1.527832,3.1518526-2.5927734,4.4936476c-2.1166992,1.934082-3.9624023,4.2109356-6.2851563,5.8847637
	c-3.6005859,0.2236328-4.4912109-5.166502-7.8095703-6.3994122c-5.6064453-3.8305616-13.1982422-3.7695265-19.3217773-1.2885723
	c-2.4243164,1.0903301-4.1591797,3.4487286-4.1748047,6.1518517L355.1135864,22.790514z"/>
<path fill="#ffffff" d="M323.0516052,10.5766554c-10.2832031-9.5678673-25.8549805-11.8256779-39.0708008-8.0317345
	c-11.0204773,2.96826-20.1537781,11.7695255-23.558075,22.6542854c-4.2451172,13.456049-2.0952148,29.6474438,7.9814453,40.0331879
	c8.9262695,9.3330002,22.7240906,12.3798752,35.1860046,10.5400314c10.199707-1.4140625,19.7944336-7.1835938,25.3388672-15.9365158
	c6.6118164-9.8740196,7.3974609-22.7553596,4.253418-33.9794769c-1.578125-5.5537071-5.4345703-10.1108322-9.2084961-14.3432522
	c-0.3041992-0.3168945-0.612793-0.6289063-0.9248047-0.937499L323.0516052,10.5766554z M316.9725037,48.8476295
	c-2.8598633,7.6884727-10.8496094,12.645504-18.9169922,12.7246056c-7.1030273,0.4169922-14.8828125-1.6396484-19.2870789-7.5996056
	c-5.1333008-6.7470703-6.2060547-16.2324142-3.4536133-24.1562405c2.0039063-5.9706993,6.8896179-10.737299,12.8837585-12.6518478
	c9.7695313-3.6088839,22.5571289-0.4189453,27.5820313,9.2289982c3.1352539,5.9623985,3.9140625,13.0273361,2.0727539,19.5214767
	c-0.2412109,0.9931602-0.5288086,1.9755821-0.8823242,2.9326134H316.9725037z"/>
<path fill="#ffffff" d="M531.9748535,10.5766554c-10.2832031-9.5678673-25.8554688-11.8256779-39.0712891-8.0317345
	c-11.0131836,2.96826-20.1538086,11.7695255-23.5576172,22.655262c-4.2450867,13.4565372-2.0956726,29.6474438,7.9814453,40.0331879
	c8.9257813,9.3339767,22.7236328,12.3798752,35.1855469,10.5400314
	c10.2001953-1.4140625,19.7949219-7.1826172,25.3388672-15.9355392c6.6123047-9.8749962,7.3974609-22.7558479,4.2539063-33.9804535
	c-1.5664063-5.367672-5.1103516-9.9413986-8.8251953-14.0214748c-0.4238281-0.4321289-0.8613281-0.8515625-1.3095703-1.2592764
	H531.9748535z M525.895752,48.8476295c-2.8603516,7.6884727-10.8496094,12.645504-18.9169922,12.7246056
	c-7.1030273,0.4169922-14.8833008-1.6396484-19.2871094-7.5996056c-5.1333008-6.7470703-6.206543-16.2324142-3.4536133-24.1562405
	c2.003418-5.9706993,6.8891602-10.737299,12.8837891-12.6518478c9.769043-3.6088839,22.5561523-0.4189453,27.581543,9.2289982
	c3.6113281,6.9179649,4.1152344,15.1953049,1.1894531,22.4501839L525.895752,48.8476295z"/>
<path fill="#ffffff" d="M181.2801819,1.6191398c-3.6679688,0.0317383-7.3417969-0.0639647-11.0048676,0.0493164
	c-2.5219727,0.5263671-1.9223633,3.3710923-1.9838867,5.2675757c-0.0361328,14.7011623,0.0732422,29.4047699-0.0561523,44.103981
	c-0.2851563,5.3447227-5.0073242,9.5058556-10.1879883,9.9746056c-5.4838867,0.6865234-12.0141602,0.5664063-16.0449219-3.7851563
	c-3.4091644-3.7021446-2.6420746-8.9013634-2.7270355-13.5087814c-0.0327148-13.3847599,0.0673828-26.774889-0.0507813-40.1547623
	c-0.6132813-2.5654285-3.5571289-1.8491203-5.5029297-1.9482414c-2.7973633,0.1025391-5.6469727-0.2202147-8.4067383,0.190918
	c-2.2836914,1.0883783-1.3012695,3.8891582-1.515625,5.8896456c0.0385742,14.7412014-0.0791016,29.4824066,0.0610352,44.2265396
	c0.3886719,11.2070236,9.4008789,20.8261604,20.0947113,23.3574104c9.7285156,2.3554688,20.8842773,1.6386719,29.2143402-4.3505859
	c7.1875-4.978508,10.7861328-13.9550705,10.3266602-22.5322151c-0.0224609-15.0952072,0.0458984-30.2109222-0.0341797-45.292942
	c-0.2661133-0.9301753-1.2402344-1.5039057-2.1767578-1.4887689L181.2801819,1.6191398z"/>
<path fill="#ffffff" d="M255.3460693,71.3759384c-5.7114258-6.9658127-11.421875-13.9335861-17.1333008-20.8994026
	c8.4853516-3.4179688,13.8720703-12.4267502,13.8071289-21.4516487c0.3662109-9.1567345-3.9838867-18.6059456-11.9604492-23.4116096
	c-5.6738281-3.7539043-12.6000824-4.490232-19.238266-4.2641582c-8.0957031,0.0332031-16.1972656-0.0659178-24.288559,0.0493164
	c-2.5981445,0.5703123-1.8901367,3.521971-1.9833984,5.4741182v65.8627548c0.0058594,2.5,2.7587891,2.578125,4.6044922,2.4433594
	c2.9609375-0.0322266,5.9247894,0.0634766,8.8871918-0.0498047c2.5981445-0.5703125,1.890625-3.5214844,1.9833984-5.4736328
	V16.8207912c5.7695313,0.0634766,11.5493164-0.1342773,17.3115234,0.1142578
	c6.0307617,0.6347656,10.0014496,7.0039024,9.1664886,12.7744064c-0.3452148,4.5595684-3.457016,9.322752-8.2924652,9.8647404
	c-4.2900391,0.5097656-8.6210938,0.2558594-12.9306641,0.3183594c-2.3994141,0.9179688-1.3466797,3.2802734,0.0302734,4.5419922
	l22.906723,29.6591644c1.5698242,1.7783203,4.0932617,0.8574219,6.1699219,1.0859375
	c3.3637695,0,6.7304688-0.0039063,10.0908203,0.0039063c2.1591797-0.1679688,2.1816406-2.6201172,0.8730469-3.8037109
	L255.3460693,71.3759384z"/>
<path fill="#ffffff" d="M611.5646362,71.3759384c-5.7119141-6.9658127-11.421875-13.9335861-17.1337891-20.8994026
	c8.4853516-3.4179688,13.8720703-12.4267502,13.8076172-21.4516487c0.3662109-9.1567345-3.9833984-18.6059456-11.9609375-23.4116096
	c-5.6748047-3.7553692-12.6015625-4.490232-19.2402344-4.2641582c-8.1865234,0.0332031-16.3798218-0.0649413-24.562439,0.0493164
	c-2.5996094,0.5703123-1.8896484,3.5244124-1.984375,5.4760714v65.8608017
	c0.0068359,2.5009766,2.7607422,2.578125,4.6074219,2.4433594c2.9609375-0.0322266,5.9248047,0.0634766,8.8856812-0.0498047
	c2.5996094-0.5703125,1.8896484-3.5244141,1.9833984-5.4755859V16.5532131
	c5.7695313,0.0639648,11.5498047-0.1342773,17.3115234,0.1142578c6.03125,0.6352539,10.0019531,7.0039024,9.1669922,12.7744064
	c-0.3457031,4.5595684-3.4570313,9.3232403-8.2929688,9.8647404c-4.4511719,0.5683594-8.953125,0.1767578-13.4208984,0.3681641
	c-2.4140625,0.7919922-0.5732422,3.3173828,0.5224609,4.4931641c7.6347656,9.8847618,15.2695313,19.7704964,22.9052734,29.6591644
	c1.5712891,1.7792969,4.0947266,0.8574219,6.171875,1.0859375c3.6269531-0.0195313,7.2841797,0.0351563,10.8867188-0.0166016
	c1.6494141-0.4814453,1.2265625-2.53125,0.3505859-3.5107422L611.5646362,71.3759384z"/>
<path fill="#ED1441" d="M697.5010986,0c-1.375,0-2.4912109,1.1127924-2.4912109,2.4882801v71.6796494
	c0,1.375,1.1162109,2.4912109,2.4912109,2.4912109h169.5507202c1.375,0,2.4912109-1.1162109,2.4912109-2.4912109V2.4882801
	C869.5430298,1.1127924,868.4268188,0,867.0518188,0H697.5010986z"/>
<path fill="#FFFFFF" d="M849.6641235,12.4409122c-4.2138672,0-7.6298828,3.4160137-7.6298828,7.6298771
	s3.4160156,7.629879,7.6298828,7.629879s7.6298828-3.4160137,7.6298828-7.629879S853.8779907,12.4409122,849.6641235,12.4409122z
	 M849.6641235,15.8994064c2.3027344,0.0009766,4.1689453,1.8681602,4.1679688,4.1708946v0.0004883
	c0,2.3017559-1.8662109,4.1674786-4.1679688,4.1684551c-2.3027344,0.0004883-4.1699219-1.8652344-4.1708984-4.1679668v-0.0004883
	c-0.0009766-2.3027344,1.8642578-4.1704063,4.1669922-4.1713829H849.6641235z"/>
<path fill="#FFFFFF" d="M724.0440674,38.8744926v-1.3862305c0-0.2866211-0.0019531-0.8408203,0.3164063-1.2729492
	l9.0019531-12.0502872h-15.3857422c-0.7978516,0-1.4423828-0.6445313-1.4423828-1.440918v-7.1972599
	c0-0.7958984,0.6445313-1.440917,1.4423828-1.440917h30.9755859c0.7949219,0,1.4414063,0.6450186,1.4414063,1.440917v0.85742
	c0,0.75-0.1367188,0.9741211-0.3525391,1.32617L739.585083,32.4633598
	c6.8867188,2.2504883,9.8994141,8.2690392,9.8994141,14.5327072c0,10.114254-7.2822266,17.1777306-17.7119141,17.1777306
	c-9.6748047,0-16.5517578-6.1699219-17.1083984-15.3505821c-0.0244141-0.3964844,0.1162109-0.7841797,0.3886719-1.0742188
	c0.2705078-0.2880859,0.6503906-0.4550781,1.0488281-0.4550781h7.3056641c0.7431641,0,1.3476563,0.5634766,1.4365234,1.3017578
	c0.5185547,4.2636719,4.3212891,5.5205078,6.7929688,5.5205078c4.7617188,0,7.6845703-3.0429688,7.6845703-7.0517578
	c0-2.4257774-0.890625-4.2958946-2.5742188-5.6630821c-2.4462891-1.9829102-7.2070313-2.5209923-10.9111328-1.5136719
	c-0.7041016,0.1914063-1.7929688,0.328125-1.7929688-1.0131798"/>
<path fill="#FFFFFF" d="M781.6397705,46.7675552c0,4.9589806-4.0332031,7.3046837-8.0146484,7.3046837
	c-3.9824219,0-8.0136719-2.5429688-8.0136719-7.4062462c0-4.8652344,4.03125-7.2617188,8.0136719-7.2617188
	C777.6065674,39.404274,781.6397705,41.810524,781.6397705,46.7675552 M773.8653564,30.767561l9.2871094-14.7553616
	c0.4951172-0.8510742,0.0185547-1.9282217-1.1923828-1.9282217h-8.4746094c-0.6298828,0-1.125,0.2929688-1.5009766,0.8881826
	l-13.7626953,22.2158089c-1.8759766,3.0346642-2.7216797,6.2807579-2.7216797,9.5991173
	c0,10.0156174,7.6259766,17.3837814,18.1269531,17.3837814c10.6318359,0,18.0576172-7.1708984,18.0576172-17.4326096v-0.0185547
	v0.0380859v-0.0185547c0-10.2617149-8.1611328-16.8129826-17.8183594-15.9702091"/>
<path fill="#FFFFFF" d="M824.9883423,47.871067c0.2949219-1.2499962,0.3183594-2.3437462,0.3183594-3.6669884V31.46385
	c0-1.3217773-0.0986328-2.4570293-0.3183594-3.560545c-0.8261719-3.7465801-3.9814453-5.6997051-7.9472656-5.6997051
	c-3.9677734,0-7.2079468,1.9755859-8.0341187,5.7221661c-0.2207031,1.1035156-0.2871094,2.2163067-0.2871094,3.538084v12.7402287
	c0,1.3232422,0.0888672,2.4287109,0.3085938,3.5302696c0.8261719,3.6914063,4.0438843,5.7285156,8.0116577,5.7285156
	c3.9667969,0,7.0771484-1.9101563,7.9472656-5.5917969 M835.390686,29.5429516V46.459938
	c0,10.6982346-8.21875,17.0761604-18.3496094,17.0761604c-10.274353,0-18.4921265-6.3779259-18.4921265-17.0761604V29.5449047
	c0-10.6274357,8.21875-16.933094,18.4921265-16.933094c10.1308594,0,18.3496094,6.3056583,18.3496094,16.933094"/>
<path fill="#ffffff" d="M927.6397095,2.4306629c0-0.6948239-0.5625-1.1997064-1.2578125-1.1997064h-5.4365234
	c-0.6943359,0-1.2607422,0.5048826-1.2607422,1.1997064v13.3369074h-14.3857422V2.4184558
	c0-0.6948239-0.5664063-1.1879877-1.2607422-1.1879877h-5.4335938c-0.6982422,0-1.2607422,0.4931638-1.2607422,1.1879877v36.3520317
	c0,0.6972618,0.5625,1.2460899,1.2607422,1.2460899h5.4335938c0.6943359,0,1.2607422-0.5488281,1.2607422-1.2460899V23.7231312
	h14.3857422v15.0473576c0,0.6972618,0.5664063,1.2460899,1.2607422,1.2460899h5.4365234
	c0.6953125,0,1.2578125-0.5488281,1.2578125-1.2460899V2.4306629z"/>
<path fill="#ffffff" d="M951.2207031,1.2299799c12.5048828,0,19.0507813,9.6601515,19.0507813,19.2822151
	c0,5.1977501-1.7509766,10.0156193-4.9257813,13.5620041c-3.4912109,3.8989258-8.3759766,5.942379-14.125,5.942379h-13.203125
	c-0.6972046,0-1.2606812-0.5727539-1.2606812-1.2700157V2.4379871c0-0.6943356,0.5634766-1.2080072,1.2606812-1.2080072H951.2207031
	z M944.6591797,32.1015434h7.0400391c7.3515625,0,10.7021484-5.9794884,10.7021484-11.5390549
	c0-5.5537071-3.3330078-11.405755-10.6523438-11.405755h-7.0888672L944.6591797,32.1015434z"/>
</svg>
