<?xml version="1.0" encoding="UTF-8" standalone="no"?>
<!-- Generator: Adobe Illustrator 23.0.1, SVG Export Plug-In . SVG Version: 6.00 Build 0)  -->

<svg
   version="1.1"
   id="svg2985"
   inkscape:version="1.1.1 (3bf5ae0d25, 2021-09-20)"
   sodipodi:docname="Eurosport 1 HD.svg"
   x="0px"
   y="0px"
   viewBox="0 0 1989.9 200"
   enable-background="new 0 0 1989.9 200"
   xml:space="preserve"
   xmlns:inkscape="http://www.inkscape.org/namespaces/inkscape"
   xmlns:sodipodi="http://sodipodi.sourceforge.net/DTD/sodipodi-0.dtd"
   xmlns="http://www.w3.org/2000/svg"
   xmlns:svg="http://www.w3.org/2000/svg"><defs
   id="defs33" /><sodipodi:namedview
   id="namedview31"
   pagecolor="#ffffff"
   bordercolor="#ffffff"
   borderopacity="1.0"
   inkscape:pageshadow="2"
   inkscape:pageopacity="0.0"
   inkscape:pagecheckerboard="0"
   showgrid="false"
   inkscape:zoom="0.56736519"
   inkscape:cx="994.95001"
   inkscape:cy="99.583128"
   inkscape:window-width="1920"
   inkscape:window-height="1017"
   inkscape:window-x="-8"
   inkscape:window-y="-8"
   inkscape:window-maximized="1"
   inkscape:current-layer="svg2985" />
<g
   id="g28">
	<polygon
   fill="#ffffff"
   points="171.3,196.5 106.6,153.9 6.5,196.4 65.4,127.2 0,84.3 102,84.3 171.3,3.1 171.3,84.3 270.2,84.3    171.3,126.4  "
   id="polygon2" />
	<path
   fill="#ffffff"
   d="M294.1,42.7c3.5,0,6.3-2.8,6.3-6.3l0-27.2c0-3.5-2.8-6.3-6.3-6.3h-106v39.8L294.1,42.7z"
   id="path4" />
	<path
   fill="#ffffff"
   d="M294.1,196.9c3.5,0,6.3-2.8,6.3-6.3l0-27.2c0-3.5-2.8-6.3-6.3-6.3h-106v39.8L294.1,196.9z"
   id="path6" />
	<path
   fill="#ffffff"
   d="M1717,2.9h-132.5c-3.5,0-6.3,2.8-6.3,6.3v27.2c0,3.5,2.8,6.3,6.3,6.3h46.3v148.1c0,3.5,2.8,6.3,6.3,6.3   h27.2c3.5,0,6.3-2.8,6.3-6.3V42.7h46.3c3.5,0,6.3-2.8,6.3-6.3V9.2C1723.3,5.7,1720.5,2.9,1717,2.9"
   id="path8" />
	<path
   fill="#ffffff"
   d="M1189.1,46.4c-3.1-8.6-7.8-16.1-13.9-22.5c-6.1-6.4-13.6-11.5-22.3-15.3c-8.7-3.8-18.6-5.7-29.5-5.7h-72.1   c-3.5,0-6.3,2.8-6.3,6.3v181.4c0,3.5,2.8,6.3,6.3,6.3h27.2c3.5,0,6.3-2.8,6.3-6.3l0-46.5h38.5c10.8,0,20.7-1.9,29.3-5.6   c8.6-3.7,16.1-8.8,22.2-15.2c6.1-6.4,10.8-13.8,14-22.2c3.2-8.3,4.8-18.8,4.8-28C1193.7,63.8,1192.1,54.8,1189.1,46.4 M1151.5,85.9   c-1.4,3.8-3.5,7.1-6,9.9c-2.5,2.7-5.4,4.4-8.8,6c-3.4,1.5-9.4,2.4-21.2,2.4h-30.6V42.7h40.1c4.3,0,8.2,0.8,11.7,2.3   c3.5,1.6,6.6,3.7,9.1,6.3c2.5,2.6,4.4,5.9,5.8,9.6c1.4,3.9,2.1,8.1,2.1,12.5C1153.7,77.9,1152.9,82,1151.5,85.9"
   id="path10" />
	<path
   fill="#ffffff"
   d="M918.1,58.6c-0.2,4,0.9,6.5,2.4,8.6c1.7,2.4,4.1,4.5,7.2,6.1c3.4,1.8,7.4,3.2,12,4.2c5,1.1,10.1,2.1,15.1,3   c9.2,1.4,18.3,3.3,27,5.4c9.1,2.3,17.1,5.6,24,10c7.1,4.6,12.7,10.7,16.8,18.2c4.1,7.5,5.9,17.1,5.4,28.5   c-0.5,11.1-3.3,20.5-8.4,28.1c-5,7.4-11.5,13.5-19.2,18c-7.6,4.4-15.1,7.7-24.3,9.4c-9.1,1.7-19.3,2.2-28.1,1.8   c-22.1-1-54.6-13.6-71-36c-1.3-1.8-2.9-4.8,0.6-8.4c3.5-3.6,20.3-20.6,20.3-20.6c3.4-3.6,6.7-1,8.1,1c9.6,14,28.6,24.4,43.6,25.1   c7.9,0.3,8.8,0,13.7-0.6c4.5-0.6,8.4-1.7,12.1-3.4c3.4-1.5,6.2-3.6,8.5-6.5c2.1-2.7,3.3-6.4,3.6-10.8c0.3-4.2-0.9-7.6-2.8-10.3   c-2.1-3-5-5.2-8.5-7c-3.9-2-8.4-3.3-13.4-4.3c-5.3-1-10.6-1.9-15.8-2.6c-8.5-1.1-17-2.8-25.1-5.1c-8.4-2.4-16-5.8-22.4-10.1   c-6.7-4.5-12.1-10.3-16-17.2c-4.1-7.1-5.9-15.2-5.5-25.4c0.5-10.3,3-19.3,7.6-26.8c4.5-7.5,10.5-13.6,17.7-18.3   c7-4.6,15.2-7.9,24.1-10c17.4-4,34.8-3.3,52.1,2.2c18.6,5.9,33.5,20.2,40.4,30.3c1.3,1.9,2.5,4.8-0.2,7.8   c-2.7,3-19.1,19.1-19.1,19.1c-3.5,3.4-7.2,2.6-9.2-0.4c-10.1-14.8-23.1-21.4-38.1-22.4C937,38,918.9,41.6,918.1,58.6"
   id="path12" />
	<path
   fill="#ffffff"
   d="M835,26.3c-9-8.6-19.5-15.1-31.4-19.6c-11.8-4.4-24.4-6.7-37.6-6.7c-13,0-25.6,2.2-37.4,6.7   c-12,4.4-22.6,11-31.7,19.6c-9.1,8.6-16.4,19.2-21.7,31.6c-5.3,12.4-8,26.6-8,42.1c0,15.7,2.7,30,7.9,42.2   c5.2,12.3,12.4,22.9,21.4,31.4c9,8.5,19.5,15.1,31.4,19.6c11.8,4.4,24.4,6.7,37.6,6.7c14.4,0,27.8-2.4,39.9-7.2   c12.2-4.8,22.7-11.7,31.5-20.6c8.7-8.8,15.5-19.5,20.4-31.7c4.9-12.2,7.3-25.8,7.3-40.4c0-15.6-2.7-29.7-8-42.1   C851.2,45.5,843.9,34.9,835,26.3 M819.1,126.9c-3.1,7.5-7.3,13.8-12.5,18.8c-5.2,5-11.4,8.9-18.3,11.4c-7,2.6-14.6,3.9-22.6,3.9   c-8.2,0-15.9-1.3-22.9-3.9c-6.9-2.5-12.9-6.4-18-11.3c-5.1-5-9.2-11.4-12.3-18.9c-3.1-7.6-4.7-16.5-4.7-26.6s1.6-19.1,4.7-26.6   c3.1-7.5,7.2-13.9,12.4-18.9c5.2-5,11.3-8.9,18.2-11.5c7-2.7,14.7-4,22.8-4c8,0,15.5,1.4,22.5,4c6.9,2.6,13,6.5,18.2,11.6   c5.2,5.1,9.4,11.5,12.4,19c3.1,7.6,4.7,16.4,4.7,26.4C823.7,110.4,822.2,119.3,819.1,126.9"
   id="path14" />
	<path
   fill="#ffffff"
   d="M1375.2,26.3c-9-8.6-19.5-15.1-31.4-19.6c-11.8-4.4-24.4-6.7-37.6-6.7c-13,0-25.6,2.2-37.4,6.7   c-12,4.4-22.6,11-31.7,19.6c-9.1,8.6-16.4,19.2-21.7,31.6c-5.3,12.4-8,26.6-8,42.1c0,15.7,2.7,30,7.9,42.2   c5.2,12.3,12.4,22.9,21.4,31.4c9,8.5,19.5,15.1,31.4,19.6c11.8,4.4,24.4,6.7,37.6,6.7c14.4,0,27.8-2.4,39.9-7.2   c12.2-4.8,22.7-11.7,31.5-20.6c8.7-8.8,15.5-19.5,20.4-31.7c4.9-12.2,7.3-25.8,7.3-40.4c0-15.6-2.7-29.7-8-42.1   C1391.4,45.5,1384.1,34.9,1375.2,26.3 M1359.3,126.9c-3.1,7.5-7.3,13.8-12.5,18.8c-5.2,5-11.4,8.9-18.3,11.4   c-7,2.6-14.6,3.9-22.6,3.9c-8.2,0-15.9-1.3-22.9-3.9c-6.9-2.5-12.9-6.4-18-11.3c-5.1-5-9.2-11.4-12.3-18.9   c-3.1-7.6-4.7-16.5-4.7-26.6s1.6-19.1,4.7-26.6c3.1-7.5,7.2-13.9,12.4-18.9c5.2-5,11.3-8.9,18.2-11.5c7-2.7,14.7-4,22.8-4   c8,0,15.5,1.4,22.5,4c6.9,2.6,13,6.5,18.2,11.6c5.2,5.1,9.4,11.5,12.4,19c3.1,7.6,4.7,16.4,4.7,26.4   C1364,110.4,1362.4,119.3,1359.3,126.9"
   id="path16" />
	<path
   fill="#ffffff"
   d="M468.6,2.9h-27.3c-3.5,0-6.3,2.8-6.3,6.3v120.1c0,5.1-0.9,9.6-2.5,13.3c-1.7,3.7-4,6.9-6.9,9.4   c-3,2.6-6.6,4.6-10.7,5.9c-4.2,1.4-11.4,2.1-16.4,2.1c-5,0-12.6-0.7-16.9-2.2c-4.2-1.4-7.9-3.4-11-6c-3-2.5-5.3-5.6-7-9.3   c-1.7-3.7-2.5-8.2-2.5-13.3V9.2c0-3.5-2.8-6.3-6.3-6.3h-27.2c-3.5,0-6.3,2.8-6.3,6.3v121c0,11.1,2.1,21.1,6.2,29.7   c4.1,8.6,9.8,15.9,16.9,21.9c7.1,5.9,15.4,10.5,24.7,13.5c9.2,3,19.1,4.4,29.5,4.4c10.3,0,20.1-1.5,29.3-4.4   c9.3-3,17.5-7.6,24.5-13.5c6.9-6,12.5-13.4,16.6-21.9c4.1-8.6,6.2-18.6,6.2-29.7V9.2C474.9,5.7,472,2.9,468.6,2.9"
   id="path18" />
	<path
   fill="#ffffff"
   d="M660,186.3l-44.2-54.9c0,0,35.7-13,35.7-58.3c0-9.3-1.6-18.4-4.7-26.8c-3.1-8.5-7.8-16.1-13.9-22.5   c-6.1-6.4-13.6-11.5-22.3-15.3c-8.7-3.8-18.6-5.7-29.5-5.7h-72c-3.5,0-6.3,2.8-6.3,6.3v181.4c0,3.5,2.8,6.3,6.3,6.3h27.1   c3.5,0,6.3-2.8,6.3-6.3l0-147.9H583c4.3,0,8.2,0.8,11.7,2.3c3.5,1.5,6.6,3.7,9.1,6.3c2.5,2.6,4.4,5.9,5.8,9.6   c1.4,3.9,2.1,8.1,2.1,12.5c0,4.4-0.7,8.6-2.2,12.4c-1.4,3.8-3.4,7.1-6,9.9c-2.5,2.7-5.4,4.4-8.8,6c-3.4,1.5-9.4,2.4-21.2,2.4h-16.9   c-3.3,0-5.9,3-3.3,7.1l63,82.9c1.2,1.7,3.1,2.6,5.1,2.6h34.8C661.3,196.9,664.7,192.2,660,186.3"
   id="path20" />
	<path
   fill="#ffffff"
   d="M1580.6,186.3l-44.2-54.9c0,0,35.7-13,35.7-58.3c0-9.3-1.6-18.4-4.7-26.8c-3.1-8.5-7.8-16.1-13.9-22.5   c-6.1-6.4-13.6-11.5-22.3-15.3c-8.7-3.8-18.6-5.7-29.5-5.7h-72c-3.5,0-6.3,2.8-6.3,6.3v181.4c0,3.5,2.8,6.3,6.3,6.3h27.1   c3.5,0,6.3-2.8,6.3-6.3l0-147.9h40.3c4.3,0,8.2,0.8,11.7,2.3c3.5,1.5,6.6,3.7,9.1,6.3c2.5,2.6,4.4,5.9,5.8,9.6   c1.4,3.9,2.1,8.1,2.1,12.5c0,4.4-0.7,8.6-2.2,12.4c-1.4,3.8-3.4,7.1-6,9.9c-2.5,2.7-5.4,4.4-8.8,6c-3.4,1.5-9.4,2.4-21.2,2.4h-16.9   c-3.3,0-5.9,3-3.3,7.1l63,82.9c1.2,1.7,3.1,2.6,5.1,2.6h34.8C1581.9,196.9,1585.3,192.2,1580.6,186.3"
   id="path22" />
	<path
   fill="#D50032"
   d="M1983.4,200h-180.8c-3.6,0-6.5-2.9-6.5-6.5V6.5c0-3.6,2.9-6.5,6.5-6.5h180.8c3.6,0,6.5,2.9,6.5,6.5v187   C1989.9,197.1,1987,200,1983.4,200"
   id="path24" />
	<path
   fill="#FFFFFF"
   d="M1915.1,35.4c0-2.5-2-4.5-4.5-4.5h-45.3c-2.5,0-4.5,2-4.5,4.5l0,19.5c0,2.7,1.7,4.6,4.3,4.6h19.4v105.2   c0,2.5,1.8,4.5,4.3,4.5h22c2.5,0,4.3-2,4.3-4.5L1915.1,35.4z"
   id="path26" />
</g>
<path
   style="fill:#ffffff;stroke-width:0"
   d="m 138.35886,173.50944 c -16.96438,-11.09197 -31.33832,-20.16763 -31.94209,-20.16814 -0.60377,-5e-4 -21.59636,8.72363 -46.650199,19.38696 -25.053838,10.66332 -46.173957,19.38786 -46.933596,19.38786 -0.759639,0 10.913554,-14.40192 25.94043,-32.00428 15.026875,-17.60235 27.309463,-32.47373 27.29464,-33.0475 -0.01482,-0.57377 -14.085689,-10.16432 -31.268591,-21.31235 l -31.24164,-20.269128 49.81462,-0.468148 49.814616,-0.46815 33.00807,-38.678716 33.00807,-38.6787153 0.47435,38.7062313 0.47436,38.706231 47.99531,0.06509 47.99531,0.0651 -47.99309,20.600115 -47.9931,20.60012 -0.47657,33.87232 -0.47657,33.87233 z"
   id="path90" /><path
   style="fill:#ffffff;stroke-width:0"
   d="M 189.47232,22.88746 V 3.4741226 l 54.1979,0.4661052 54.1979,0.4661053 0.50801,17.4796679 c 0.37191,12.796562 -0.1003,17.865624 -1.76253,18.920243 -1.2488,0.792316 -25.86646,1.45272 -54.70591,1.467564 l -52.43537,0.02699 z"
   id="path129" /><path
   style="fill:#ffffff;stroke-width:0"
   d="m 189.47232,177.13459 v -18.55754 l 54.1979,0.4661 54.1979,0.46611 v 17.62533 17.62533 l -54.1979,0.46611 -54.1979,0.4661 z"
   id="path168" /><path
   style="fill:#ffffff;stroke-width:0"
   d="m 378.52632,196.61277 c -23.98237,-5.46163 -43.91589,-21.36836 -52.0181,-41.50985 -3.75,-9.3222 -3.922,-12.31768 -4.48539,-78.116362 -0.43613,-50.934954 -0.0514,-69.0663787 1.50516,-70.9419631 2.69412,-3.2462165 31.61706,-3.5824427 34.79502,-0.4044885 1.5686,1.5686045 2.11504,18.9174136 2.11504,67.1505266 0,73.302127 0.0305,73.495697 12.92511,82.028947 6.49546,4.29849 8.56753,4.68968 24.84064,4.68968 20.14625,0 27.16158,-2.82515 33.61684,-13.53789 3.33092,-5.52779 3.55383,-9.48565 4.04726,-71.862655 0.34639,-43.787387 1.16081,-66.7821603 2.41898,-68.2981634 1.29218,-1.5569711 6.86461,-2.2854851 17.48176,-2.2854851 13.96191,0 15.78853,0.3803494 17.53956,3.6521765 1.36659,2.553498 1.756,23.629742 1.29444,70.060696 -0.73364,73.800871 -1.04247,76.002441 -12.96634,92.433281 -16.54328,22.7963 -51.522,34.13526 -83.10998,26.94155 z"
   id="path207" /><path
   style="fill:#ffffff;stroke-width:0"
   d="m 505.31828,193.52615 c -1.59098,-1.59099 -2.11504,-24.90168 -2.11504,-94.079715 0,-78.023746 0.38593,-92.2849671 2.54586,-94.077551 1.87695,-1.5577316 14.2647,-1.9460932 47.14776,-1.4781042 41.52314,0.5909538 45.30173,0.9132358 54.74015,4.668873 21.90922,8.7178852 36.15455,25.9163242 41.09591,49.6152422 5.8027,27.829906 -4.62644,54.601015 -26.7467,68.657475 l -7.23814,4.59953 23.62702,29.64516 c 12.99485,16.30484 23.32556,30.55364 22.95712,31.66402 -0.43916,1.32351 -7.7407,2.18976 -21.19913,2.5151 -19.50102,0.47139 -20.70161,0.29484 -23.97045,-3.52506 -1.89265,-2.21174 -16.9313,-21.84298 -33.41921,-43.625 -22.59189,-29.84593 -29.51661,-40.15964 -28.10529,-41.86017 1.29845,-1.56453 7.4017,-2.25649 19.90286,-2.25649 15.79643,0 18.75201,-0.4913 23.85696,-3.9657 10.64706,-7.246328 13.20107,-12.447865 13.20107,-26.885508 0,-14.435357 -2.54751,-19.621003 -13.20107,-26.871755 -5.37429,-3.657707 -7.79142,-3.965699 -31.12291,-3.965699 h -25.29608 v 74.555152 c 0,55.6373 -0.53668,75.09183 -2.11504,76.6702 -1.31712,1.31712 -7.83348,2.11504 -17.27283,2.11504 -9.43934,0 -15.9557,-0.79792 -17.27282,-2.11504 z"
   id="path246" /><path
   style="fill:#ffffff;stroke-width:0"
   d="m 743.1384,196.45019 c -34.82518,-7.55647 -62.56392,-34.20817 -71.56319,-68.75871 -3.43487,-13.18735 -3.47523,-42.640104 -0.0759,-55.414289 11.43211,-42.960685 47.93423,-70.5501266 93.50584,-70.6746297 29.25564,-0.079928 51.85562,8.7284337 70.43564,27.4523587 19.42157,19.571985 27.41808,40.419581 27.48849,71.66495 0.0488,21.6784 -4.66493,38.99123 -15.02627,55.1886 -21.23306,33.19263 -63.41124,49.51471 -104.76457,40.54172 z m 45.93809,-38.74204 c 11.38358,-3.94844 23.15719,-14.84032 29.0806,-26.90273 4.54896,-9.26349 4.94593,-11.69876 4.94593,-30.34103 0,-23.466183 -2.6201,-31.329882 -14.86492,-44.61394 -9.77114,-10.600437 -21.94113,-15.697271 -39.77361,-16.657321 -17.95553,-0.966675 -31.29318,3.61403 -43.34398,14.886146 -13.08685,12.241218 -16.58215,22.018591 -16.58215,46.385115 0,16.89364 0.61806,21.6049 3.71129,28.29008 7.40616,16.0064 22.14083,28.27541 37.96692,31.61364 10.20246,2.15202 28.62167,0.89123 38.85992,-2.65996 z"
   id="path285" /><path
   style="fill:#ffffff;stroke-width:0"
   d="m 931.49882,196.38836 c -21.78601,-5.72164 -54.63853,-27.23588 -54.63853,-35.78133 0,-1.62516 5.52,-8.43255 12.26667,-15.12752 l 12.26667,-12.17268 9.11866,9.11866 c 13.55405,13.55404 25.50336,18.77304 43.07529,18.81361 23.14405,0.0534 34.3123,-7.28795 34.3123,-22.55502 0,-7.3003 -5.53703,-14.85441 -13.25028,-18.07721 -3.08455,-1.28881 -15.15512,-3.97214 -26.82349,-5.96296 -31.10788,-5.30752 -44.12412,-10.57573 -55.34945,-22.402202 -10.3365,-10.890035 -12.90523,-17.333501 -12.88284,-32.315578 0.0262,-17.494817 4.97104,-28.748292 17.77378,-40.449278 12.68709,-11.5952895 25.13769,-16.2542204 46.29086,-17.3217346 19.32455,-0.9752308 31.9691,1.3723345 46.3352,8.6025106 11.49634,5.785903 29.63184,22.60175 29.63184,27.475712 0,3.194683 -20.62725,25.217857 -23.61944,25.217857 -0.8211,0 -4.66376,-3.602289 -8.53926,-8.005086 -10.14258,-11.522581 -18.65078,-15.354756 -36.23217,-16.31932 -22.14782,-1.215091 -33.83608,5.675154 -33.83608,19.946417 0,10.969482 8.26601,16.437608 31.7256,20.987088 49.80423,9.658457 64.47425,17.208991 73.88795,38.029434 4.4634,9.87168 4.8692,29.32165 0.8575,41.09533 -10.0988,29.63851 -53.94051,47.2962 -92.37078,37.2033 z"
   id="path324" /><path
   style="fill:#ffffff;stroke-width:0"
   d="m 1047.2981,194.52573 c -0.6791,-0.67903 -1.2346,-43.0417 -1.2346,-94.13928 0,-79.282341 0.3771,-93.2177014 2.5722,-95.0394265 1.9141,-1.5885738 13.9766,-1.9594264 47.1477,-1.4495209 41.2901,0.6347101 45.3221,0.9801798 54.7043,4.6871552 14.1068,5.5737452 28.0164,18.7565242 35.214,33.3740782 5.4615,11.091461 5.7708,12.760957 5.7708,31.14695 0,18.138004 -0.3686,20.205316 -5.5542,31.150354 -7.0486,14.87726 -17.1965,25.02511 -32.0737,32.0737 -11.3268,5.36646 -12.706,5.58397 -40.8049,6.43545 l -29.0818,0.88127 -0.8812,25.55673 -0.8813,25.55673 -16.8314,0.50019 c -9.2572,0.27512 -17.3869,-0.0553 -18.0659,-0.73438 z m 91.6185,-92.88988 c 11.752,-6.077201 17.8507,-21.354282 14.4921,-36.30233 -4.2759,-19.030552 -12.0258,-23.032722 -44.601,-23.032722 h -23.9685 v 31.972118 31.972114 l 24.2699,-0.87281 c 17.5669,-0.63175 25.7993,-1.66369 29.8075,-3.73637 z"
   id="path363" /><path
   style="fill:#ffffff;stroke-width:0"
   d="m 1283.1242,196.35942 c -34.0466,-7.61619 -60.611,-32.33557 -70.8529,-65.93196 -4.0369,-13.24235 -4.7835,-37.895662 -1.6013,-52.875998 7.6765,-36.137137 33.8533,-63.851004 69.0916,-73.1486252 5.981,-1.5780657 17.6981,-2.7527743 27.5301,-2.7600487 28.3448,-0.020971 51.3533,9.5042449 69.5936,28.8109589 17.0234,18.018608 24.9491,36.92499 26.3933,62.960515 2.6132,47.108958 -21.3824,85.391998 -62.4823,99.685108 -16.5579,5.7583 -40.4634,7.10962 -57.6721,3.26005 z m 49.4701,-40.20306 c 12.1461,-5.5607 22.5872,-16.56945 27.4542,-28.94685 5.538,-14.08378 5.5676,-39.33451 0.063,-53.322966 -5.2434,-13.323805 -14.2534,-23.33033 -26.3595,-29.275155 -9.017,-4.427928 -11.962,-4.954391 -27.7145,-4.954391 -15.7212,0 -18.7071,0.531257 -27.6393,4.917617 -11.807,5.798079 -19.6423,14.150502 -25.8997,27.608822 -3.9828,8.566124 -4.5415,12.062009 -4.5198,28.280953 0.021,15.37562 0.6936,19.98113 3.9786,27.22223 7.8632,17.33343 19.0722,27.02367 37.2116,32.16972 11.5904,3.28813 31.951,1.55335 43.4258,-3.69998 z"
   id="path402" /><path
   style="fill:#ffffff;stroke-width:0"
   d="m 1425.8412,193.50221 c -0.4775,-1.24704 -0.6619,-44.30377 -0.41,-95.681615 l 0.4582,-93.4142619 h 46.7071 46.7072 l 11.6739,5.5311941 c 16.0386,7.5992348 25.0502,16.2846088 32.4673,31.2921418 14.9573,30.264129 6.5779,67.776391 -18.8155,84.230691 -4.7199,3.05842 -8.5595,6.02205 -8.5324,6.58584 0.027,0.56378 10.3561,13.7153 22.9533,29.22559 12.5973,15.51029 22.6768,29.39024 22.3989,30.84433 -0.4156,2.1749 -4.2521,2.6438 -21.6314,2.6438 h -21.1263 l -32.1572,-42.3008 c -17.6865,-23.26543 -32.1613,-43.20736 -32.1662,-44.31539 -0.015,-3.26948 4.6185,-4.15427 21.7536,-4.15427 19.9762,0 26.6718,-2.92375 32.4352,-14.163508 8.1295,-15.853849 3.1592,-37.218142 -10.2501,-44.059038 -5.7999,-2.9589 -10.4126,-3.466116 -31.5211,-3.466116 h -24.7269 l -0.4594,76.229562 -0.4593,76.22956 -17.2154,0.50483 c -12.7832,0.37485 -17.4389,-0.079 -18.0835,-1.76254 z"
   id="path441" /><path
   style="fill:#ffffff;stroke-width:0"
   d="m 1632.2943,192.85323 c -0.5884,-1.53337 -1.0698,-36.03496 -1.0698,-76.67019 V 42.300798 h -23.6683 c -29.1167,0 -29.2077,-0.05843 -29.2077,-18.748366 0,-21.9800973 -7.0176,-20.0273655 71.9734,-20.0273655 50.791,0 68.867,0.5427566 70.4393,2.1150399 2.6304,2.6304109 2.856,28.4577206 0.2905,33.2514956 -1.6702,3.120718 -3.9073,3.409196 -26.438,3.409196 h -24.6135 v 73.882242 c 0,40.63523 -0.4814,75.13682 -1.0698,76.67019 -1.5809,4.1198 -35.0551,4.1198 -36.6361,0 z"
   id="path480" /></svg>
