<?xml version="1.0" encoding="UTF-8" standalone="no"?>
<!-- Generator: Adobe Illustrator 23.1.0, SVG Export Plug-In . SVG Version: 6.00 Build 0)  -->

<svg
   version="1.1"
   id="Layer_2"
   x="0px"
   y="0px"
   width="1000px"
   height="77.4121094px"
   viewBox="0 0 1000 77.4121094"
   enable-background="new 0 0 1000 77.4121094"
   xml:space="preserve"
   sodipodi:docname="Eurosport360HD 1.svg"
   inkscape:version="1.1.1 (3bf5ae0d25, 2021-09-20)"
   xmlns:inkscape="http://www.inkscape.org/namespaces/inkscape"
   xmlns:sodipodi="http://sodipodi.sourceforge.net/DTD/sodipodi-0.dtd"
   xmlns="http://www.w3.org/2000/svg"
   xmlns:svg="http://www.w3.org/2000/svg"><defs
   id="defs43" /><sodipodi:namedview
   id="namedview41"
   pagecolor="#ffffff"
   bordercolor="#666666"
   borderopacity="1.0"
   inkscape:pageshadow="2"
   inkscape:pageopacity="0.0"
   inkscape:pagecheckerboard="0"
   showgrid="false"
   inkscape:zoom="1.129"
   inkscape:cx="500.44287"
   inkscape:cy="38.529672"
   inkscape:window-width="1920"
   inkscape:window-height="1017"
   inkscape:window-x="-8"
   inkscape:window-y="-8"
   inkscape:window-maximized="1"
   inkscape:current-layer="Layer_2" />
<polygon
   fill="#171F50"
   points="987.2714844,1.237793 1000,1.237793 1000,40.40625 991.4228516,40.40625 991.4228516,8.3701172   985.765625,8.3701172 "
   id="polygon2"
   style="fill:#ffffff" />
<path
   fill="#171F50"
   d="M66.9755859,75.9150391c-8.465332-5.4824219-16.9306641-10.9638672-25.3950195-16.4462891  C28.5571289,64.9511719,15.534668,70.4326172,2.5112305,75.9150391  c7.7207031-8.8632813,15.4414063-17.7246094,23.1625977-26.5869141C17.1152344,43.8457031,8.5571289,38.3642578,0,32.8818359  h39.9067383c9.0234375-10.4160175,18.046875-20.8310547,27.0688477-31.2470703v31.2470703h38.5112305l-38.5112305,16.171875  v26.8623047V75.9150391z"
   id="path4"
   style="fill:#ffffff" />
<path
   fill="#171F50"
   d="M114.9741211,16.9848614c1.5927734,0.0639648,2.7524414-1.5214825,2.5117188-3.0273418  c-0.0083008-3.3691406,0.0170898-6.7397461-0.0126953-10.1088867c-0.1108398-1.5527344-1.7260742-2.4208984-3.1523438-2.2128906  H73.3935547v15.3486309h41.5800781L114.9741211,16.9848614z"
   id="path6"
   style="fill:#ffffff" />
<path
   fill="#171F50"
   d="M114.9741211,75.9150391c1.5927734,0.0634766,2.7524414-1.5214844,2.5117188-3.0273438  c-0.0083008-3.3701172,0.0170898-6.7402344-0.0126953-10.109375c-0.1108398-1.5527344-1.7260742-2.4208984-3.1523438-2.2128906  H73.3935547v15.3486328h41.5800781L114.9741211,75.9150391z"
   id="path8"
   style="fill:#ffffff" />
<path
   fill="#171F50"
   d="M670.8740234,1.6347656h-51.6220703c-2.4951172-0.0332031-2.6748047,2.675293-2.5117188,4.5307617  c0.0322266,2.949707-0.0654297,5.9057617,0.0517578,8.8505859c0.5996094,2.5576153,3.5166016,1.881834,5.4619141,1.9672832  h15.1367188v56.7382813c0,2.4853516,2.7275391,2.6113281,4.5751953,2.4667969  c3.0146484-0.0322266,6.0371094,0.0644531,9.0488281-0.0498047c2.5126953-0.5146484,1.9550781-3.3388672,2.0039063-5.2314453  V16.9882793c6.2148438-0.0332031,12.4365234,0.0654297,18.6464844-0.0498047  c2.5126953-0.51367,1.9550781-3.3388653,2.0039063-5.2314434c-0.0908203-2.6938477,0.1826172-5.4394531-0.1435547-8.1015625  c-0.3935547-1.1000977-1.4462891-1.9824219-2.6474609-1.9672852L670.8740234,1.6347656z"
   id="path10"
   style="fill:#ffffff" />
<path
   fill="#171F50"
   d="M464.6445313,18.3549786c-3.6162109-10.5122051-14.8447266-16.9414043-25.6806641-16.7236309  c-9.5634766,0.0332031-19.1386719-0.0668945-28.6899414,0.0498047c-2.5214844,0.5185547-1.9506836,3.3579102-2.0029297,5.2563477  v66.7763672c0,2.4960938,2.7426758,2.6113281,4.59375,2.4667969c3.0092773-0.0332031,6.0244141,0.0654297,9.0302734-0.0498047  c2.5214844-0.5185547,1.9506836-3.3574219,2.0029297-5.2558594V55.8984375  c6.0498047-0.0712891,12.1103516,0.1591797,18.152832-0.1503906c10.8618164-0.7871094,21.1948242-8.6660156,23.5380859-19.5141602  c1.7080078-5.9008808,0.9360352-12.1313496-0.9477539-17.8896503L464.6445313,18.3549786z M449.8544922,33.4301758  c-1.2294922,3.668457-4.5766602,6.5112305-8.5117188,6.6469727c-5.8046875,0.3710938-11.6279297,0.1416016-17.440918,0.2060547  V16.9848614c5.8256836,0.0629883,11.6625977-0.1357422,17.4814453,0.1152344  c6.0898438,0.6411133,10.0996094,7.0727539,9.2563477,12.8999023  C450.5375977,31.1713848,450.2973633,32.3383789,449.8544922,33.4301758z"
   id="path12"
   style="fill:#ffffff" />
<path
   fill="#171F50"
   d="M358.6035156,23.0141582c-0.3071289,3.6518555,3.2734375,5.9711914,6.3803711,6.7836914  c5.7973633,1.8671875,11.9780273,2.0375977,17.8251953,3.7514668c6.9121094,1.5488281,14.2700195,5.0600586,17.1142578,12.0014648  c3.2675781,8.1074219,1.7875977,18.4658203-5.0424805,24.3339844c-5.0717773,4.4921875-11.7885742,6.890625-18.5258789,7.1376953  c-10.3647461,1.3457031-20.9868164-2.2724609-29.0717773-8.7167969c-1.8422852-2.0576172-6.1235352-4.3271484-4.7436523-7.5166016  c2.8999023-2.9648438,5.7490234-6.0068359,8.7592773-8.8544922c3.7338867-0.4394531,4.9682617,5.3251953,8.5415039,6.4160156  c5.9414063,4.0771484,13.8203125,5.0126953,20.5517578,2.4951172c3.5302734-1.1396484,6.0507813-4.8574219,5.1469727-8.5820313  c-0.9111328-3.5810547-4.8481445-5.4833984-8.1787109-6.2460938c-7.3427734-1.5439453-15.0219727-1.9511719-22.0029297-4.8828125  c-6.2114258-2.6132813-11.5673828-8.175293-12.2026367-15.114748c-1.0395508-7.5410156,2.175293-15.4379864,8.3261719-19.9653301  c8.7319336-6.3134766,20.5966797-7.4838867,30.7680664-4.3496094c6.8061523,2.0361328,12.9291992,6.5107422,16.9272461,12.375  c0.9550781,2.0600586-1.5429688,3.1831036-2.6181641,4.538084c-2.137207,1.953125-4.0014648,4.2519531-6.3466797,5.9423828  c-3.6362305,0.2260742-4.5356445-5.2167969-7.8862305-6.4624023c-5.6621094-3.8681622-13.328125-3.8061504-19.512207-1.3012695  c-2.4477539,1.1015625-4.2001953,3.4829102-4.215332,6.2124023L358.6035156,23.0141582z"
   id="path14"
   style="fill:#ffffff" />
<path
   fill="#171F50"
   d="M326.2260742,10.6806641c-10.3837891-9.6621094-26.1088867-11.9423828-39.4545898-8.1108398  c-11.1289063,2.9970703-20.3520508,11.8847656-23.7895508,22.8769512  c-4.2866211,13.5883808-2.1157227,29.9389668,8.0600586,40.4262695  c9.0136719,9.4257813,22.9472656,12.5009766,35.5317383,10.6435547  c10.2998047-1.4277344,19.9887695-7.2539063,25.5878906-16.0927734c6.6762695-9.9707031,7.4697266-22.9790039,4.2949219-34.3134766  c-1.59375-5.6083984-5.4882813-10.2104473-9.2993164-14.4838848c-0.3066406-0.3203125-0.6181641-0.6352539-0.9335938-0.9467773  L326.2260742,10.6806641z M320.0874023,49.328125c-2.8881836,7.7626953-10.956543,12.7695313-19.1030273,12.8496094  c-7.1723633,0.4208984-15.0288086-1.65625-19.4760742-7.6748047c-5.184082-6.8134766-6.2675781-16.3920898-3.487793-24.3935566  c2.0234375-6.0292969,6.9570313-10.8432617,13.0102539-12.7758789c9.8657227-3.6445293,22.7783203-0.4238281,27.8525391,9.3193359  c3.1665039,6.020998,3.9526367,13.1552753,2.09375,19.7133808c-0.2436523,1.0019531-0.5341797,1.9941406-0.8911133,2.9619141  H320.0874023z"
   id="path16"
   style="fill:#ffffff" />
<path
   fill="#171F50"
   d="M537.2021484,10.6806641c-10.3837891-9.6621094-26.109375-11.9423828-39.4545898-8.1108398  c-11.121582,2.9970703-20.3520508,11.8847656-23.7895508,22.8779278  c-4.2866211,13.5883808-2.1162109,29.9389668,8.0600586,40.4262695  c9.0136719,9.4257813,22.9467773,12.5019531,35.5317383,10.6435547  c10.2998047-1.4277344,19.9892578-7.2529297,25.5878906-16.0917969c6.6767578-9.9716797,7.4697266-22.9794922,4.2949219-34.3139648  c-1.5820313-5.4204102-5.1601563-10.0395489-8.9111328-14.1596661c-0.4287109-0.4365234-0.8701172-0.8598633-1.3232422-1.2714844  H537.2021484z M531.0634766,49.328125c-2.8886719,7.7626953-10.9560547,12.7695313-19.1035156,12.8496094  c-7.171875,0.4208984-15.0283203-1.65625-19.4760742-7.6748047c-5.1835938-6.8134766-6.2670898-16.3920898-3.4873047-24.3935566  c2.0229492-6.0292969,6.9570313-10.8432617,13.0102539-12.7758789c9.8652344-3.6445293,22.7783203-0.4238281,27.8525391,9.3193359  c3.6474609,6.9858418,4.15625,15.3442402,1.2011719,22.6713886L531.0634766,49.328125z"
   id="path18"
   style="fill:#ffffff" />
<path
   fill="#171F50"
   d="M183.0615234,1.6347656c-3.7036133,0.0322266-7.4135742-0.0644531-11.112793,0.0498047  c-2.546875,0.5317383-1.9414063,3.4042969-2.003418,5.3193359c-0.0366211,14.8457012,0.0737305,29.6938477-0.0571289,44.5371094  c-0.2875977,5.3984375-5.0561523,9.5996094-10.2875977,10.0722656c-5.5380859,0.6933594-12.1323242,0.5722656-16.2026367-3.8212891  c-3.4423828-3.7382813-2.6679688-8.9892578-2.7539063-13.6425781c-0.0332031-13.5156269,0.0678711-27.0371113-0.0512695-40.5483398  c-0.6196289-2.5908203-3.5917969-1.8676758-5.5571289-1.9677734c-2.824707,0.1035156-5.7021484-0.222168-8.4892578,0.1928711  c-2.3061523,1.0991211-1.3144531,3.9277344-1.5307617,5.9472656c0.0390625,14.8862286-0.0795898,29.7724609,0.0620117,44.6611328  c0.3925781,11.3173828,9.4931641,21.03125,20.2919922,23.5869141c9.8242188,2.3789063,21.0893555,1.6542969,29.5014648-4.3925781  c7.2583008-5.0273438,10.8920898-14.0927734,10.4282227-22.7548828c-0.0229492-15.2426758,0.0463867-30.5068378-0.034668-45.7368164  c-0.269043-0.9399414-1.2524414-1.519043-2.1982422-1.5039063L183.0615234,1.6347656z"
   id="path20"
   style="fill:#ffffff" />
<path
   fill="#171F50"
   d="M257.8554688,72.0771484c-5.7675781-7.0341797-11.5341797-14.0703125-17.3017578-21.1044922  c8.5688477-3.4521484,14.0083008-12.5488281,13.9428711-21.6625996c0.3696289-9.2470703-4.0229492-18.7885723-12.078125-23.6415997  c-5.7294922-3.7910156-12.7236328-4.534668-19.4272461-4.3061523c-8.175293,0.0332031-16.3564453-0.0664063-24.5268555,0.0498047  c-2.6240234,0.5756836-1.9091797,3.5566406-2.003418,5.527832v66.5102539  c0.0058594,2.5234375,2.7856445,2.6035156,4.6499023,2.4667969c2.9902344-0.0322266,5.9829102,0.0644531,8.9746094-0.0498047  c2.6235352-0.5761719,1.9086914-3.5566406,2.0029297-5.5273438V16.9858379  c5.8261719,0.0644531,11.6625977-0.1352539,17.4814453,0.1157227c6.090332,0.6411133,10.1000977,7.0722656,9.2563477,12.8994141  c-0.3481445,4.6044941-3.4907227,9.415041-8.3735352,9.961916c-4.3320313,0.5146484-8.7060547,0.2578125-13.0581055,0.3212891  c-2.4228516,0.9277344-1.359375,3.3125,0.0307617,4.5869141l23.1318359,29.9501953  c1.5854492,1.7958984,4.1333008,0.8662109,6.2304688,1.0966797c3.3969727,0,6.7963867-0.0029297,10.1899414,0.0039063  c2.1806641-0.1689453,2.203125-2.6455078,0.8813477-3.8408203L257.8554688,72.0771484z"
   id="path22"
   style="fill:#ffffff" />
<path
   fill="#171F50"
   d="M617.5742188,72.0771484c-5.7675781-7.0341797-11.5341797-14.0703125-17.3017578-21.1044922  c8.5693359-3.4521484,14.0087891-12.5488281,13.9433594-21.6625996c0.3691406-9.2470703-4.0234375-18.7885723-12.078125-23.6415997  c-5.7314453-3.7924805-12.7265625-4.534668-19.4296875-4.3061523c-8.2675781,0.0332031-16.5410156-0.0654297-24.8046875,0.0498047  c-2.625,0.5756836-1.9072266,3.559082-2.0029297,5.5297852v66.5083008c0.0058594,2.5253906,2.7871094,2.6035156,4.6523438,2.4667969  c2.9902344-0.0322266,5.9824219,0.0644531,8.9736328-0.0498047c2.625-0.5761719,1.9072266-3.5585938,2.0029297-5.5302734V16.7158184  c5.8261719,0.0644531,11.6621094-0.1352539,17.4814453,0.1157227c6.0898438,0.6411133,10.0996094,7.0722656,9.2558594,12.8994141  c-0.3476563,4.6044941-3.4902344,9.415041-8.3730469,9.961916c-4.4951172,0.5737305-9.0419922,0.1787109-13.5527344,0.371582  c-2.4384766,0.7998047-0.5800781,3.3505859,0.5263672,4.5371094c7.7099609,9.9824219,15.4199219,19.9658203,23.1308594,29.9511719  c1.5859375,1.7958984,4.1357422,0.8662109,6.2324219,1.0966797c3.6621094-0.0205078,7.3554688,0.0361328,10.9941406-0.0166016  c1.6650391-0.4863281,1.2382813-2.5566406,0.3535156-3.5458984L617.5742188,72.0771484z"
   id="path24"
   style="fill:#ffffff" />
<path
   fill="#ED1441"
   d="M704.3554688,0c-1.3886719,0-2.515625,1.1240234-2.515625,2.512207v72.3842773  c0,1.3886719,1.1269531,2.515625,2.515625,2.515625h171.2167969c1.3886719,0,2.515625-1.1269531,2.515625-2.515625V2.512207  c0-1.3881836-1.1269531-2.512207-2.515625-2.512207H704.3554688z"
   id="path26" />
<path
   fill="#FFFFFF"
   d="M858.0136719,12.5629883c-4.2558594,0-7.7050781,3.4492188-7.7050781,7.7045879  s3.4492188,7.7050781,7.7050781,7.7050781c4.2548828,0,7.7050781-3.449707,7.7050781-7.7050781  S862.2685547,12.5629883,858.0136719,12.5629883z M858.0136719,16.0556641  c2.3251953,0.0004883,4.2099609,1.8862286,4.2089844,4.2114239v0.0009766  c-0.0009766,2.3242188-1.8847656,4.2084961-4.2089844,4.2089844c-2.3251953,0.0009766-4.2109375-1.8833008-4.2119141-4.2084961  v-0.0004883c-0.0009766-2.3256836,1.8828125-4.2114239,4.2080078-4.2124004H858.0136719z"
   id="path28" />
<path
   fill="#FFFFFF"
   d="M731.1591797,39.2563477v-1.3999023c0-0.2890625-0.0019531-0.8486328,0.3193359-1.2851563  l9.0898438-12.1689472h-15.5361328c-0.8056641,0-1.4570313-0.6508789-1.4570313-1.4550781v-7.2680645  c0-0.8037109,0.6513672-1.4550781,1.4570313-1.4550781H756.3125c0.8027344,0,1.4550781,0.6513672,1.4550781,1.4550781V16.54492  c0,0.7578125-0.1386719,0.9838867-0.3554688,1.3398438l-10.5595703,14.8974628  c6.9541016,2.2724609,9.9960938,8.3505859,9.9960938,14.6748047c0,10.2148438-7.3535156,17.3476563-17.8857422,17.3476563  c-9.7695313,0-16.7138672-6.2304688-17.2763672-15.5019531c-0.0244141-0.4003906,0.1181641-0.7919922,0.3935547-1.0849609  c0.2724609-0.2910156,0.65625-0.4589844,1.0585938-0.4589844h7.3779297c0.75,0,1.3603516,0.5683594,1.4501953,1.3144531  c0.5234375,4.3046875,4.3642578,5.5742188,6.8603516,5.5742188c4.8076172,0,7.7597656-3.0722656,7.7597656-7.1210938  c0-2.4492188-0.9003906-4.3378906-2.5996094-5.7177734c-2.4707031-2.0029297-7.2783203-2.5458984-11.0185547-1.5292969  c-0.7109375,0.1933594-1.8105469,0.3320313-1.8105469-1.0229492"
   id="path30" />
<path
   fill="#FFFFFF"
   d="M789.3212891,47.2275391c0,5.0068359-4.0732422,7.3759766-8.09375,7.3759766  c-4.0214844,0-8.0927734-2.5683594-8.0927734-7.4794922c0-4.9130859,4.0712891-7.3325195,8.0927734-7.3325195  C785.2480469,39.7915039,789.3212891,42.2216797,789.3212891,47.2275391 M781.4697266,31.0698223l9.3789063-14.9003887  c0.4990234-0.859375,0.0185547-1.9472656-1.2050781-1.9472656h-8.5576172c-0.6357422,0-1.1357422,0.2958984-1.5146484,0.8974609  l-13.8984375,22.4335938c-1.8945313,3.0649414-2.7480469,6.3432617-2.7480469,9.6938477  c0,10.1132813,7.7001953,17.5537109,18.3046875,17.5537109c10.7363281,0,18.2353516-7.2412109,18.2353516-17.6035156v-0.0185547  v0.0390625v-0.0195313c0-10.3623047-8.2421875-16.9780293-17.9941406-16.126955"
   id="path32" />
<path
   fill="#FFFFFF"
   d="M833.0957031,48.3417969c0.2978516-1.2626953,0.3212891-2.3671875,0.3212891-3.7041016v-12.864748  c0-1.3349609-0.0996094-2.480957-0.3212891-3.5957031c-0.8339844-3.7832031-4.0205078-5.7558594-8.0263672-5.7558594  c-4.0068359,0-7.2773438,1.9951172-8.1123047,5.7783203c-0.2236328,1.1147461-0.2900391,2.2382813-0.2900391,3.5732422v12.864748  c0,1.3369141,0.0898438,2.453125,0.3125,3.5664063c0.8339844,3.7275391,4.0830078,5.7841797,8.0898438,5.7841797  c4.0048828,0,7.1464844-1.9296875,8.0253906-5.6464844 M843.6005859,29.8334942v17.0825214  c0,10.8037109-8.3007813,17.2441406-18.53125,17.2441406c-10.375,0-18.6728516-6.4404297-18.6728516-17.2441406V29.834959  c0-10.7314453,8.2988281-17.0996075,18.6728516-17.0996075c10.2304688,0,18.53125,6.3681622,18.53125,17.0996075"
   id="path34" />
<path
   fill="#171F50"
   d="M936.7558594,2.4545898c0-0.7016602-0.5683594-1.2114258-1.2705078-1.2114258h-5.4902344  c-0.7011719,0-1.2734375,0.5097656-1.2734375,1.2114258v13.4677734h-14.5263672V2.4418945  c0-0.7011719-0.5722656-1.1992188-1.2734375-1.1992188h-5.4873047c-0.7041016,0-1.2734375,0.4980469-1.2734375,1.1992188v36.7094727  c0,0.7041016,0.5693359,1.2578125,1.2734375,1.2578125h5.4873047c0.7021484,0,1.2734375-0.5537109,1.2734375-1.2578125V23.9560528  h14.5263672v15.1953144c0,0.7041016,0.5722656,1.2578125,1.2734375,1.2578125h5.4902344  c0.7021484,0,1.2705078-0.5537109,1.2705078-1.2578125V2.4545898z"
   id="path36"
   style="fill:#ffffff" />
<path
   fill="#171F50"
   d="M960.5673828,1.2421875c12.6289063,0,19.2392578,9.7548828,19.2392578,19.4716778  c0,5.2485352-1.7685547,10.1137695-4.9746094,13.6948261c-3.5253906,3.9375-8.4580078,6.0004883-14.2636719,6.0004883h-13.3330078  c-0.7041016,0-1.2734375-0.5776367-1.2734375-1.2817383V2.4619141c0-0.7011719,0.5693359-1.2202148,1.2734375-1.2202148  L960.5673828,1.2421875z M953.9423828,32.4169922h7.109375c7.4238281,0,10.8066406-6.0385761,10.8066406-11.6528339  c0-5.6083965-3.3652344-11.5175762-10.7568359-11.5175762h-7.1582031L953.9423828,32.4169922z"
   id="path38"
   style="fill:#ffffff" />
</svg>
