<?xml version="1.0" encoding="UTF-8"?>
<!DOCTYPE svg PUBLIC "-//W3C//DTD SVG 1.1//EN" "http://www.w3.org/Graphics/SVG/1.1/DTD/svg11.dtd">
<svg xmlns="http://www.w3.org/2000/svg" version="1.1" width="868px" height="120px" style="shape-rendering:geometricPrecision; text-rendering:geometricPrecision; image-rendering:optimizeQuality; fill-rule:evenodd; clip-rule:evenodd" xmlns:xlink="http://www.w3.org/1999/xlink">
<g><path style="opacity:0.871" fill="#ffffff" d="M 103.5,0.5 C 119.944,38.405 135.611,76.7384 150.5,115.5C 147.552,115.777 144.719,115.444 142,114.5C 136.999,102.994 132.499,91.3272 128.5,79.5C 112.497,79.3334 96.4965,79.5001 80.5,80C 75.4759,91.4016 70.6426,102.902 66,114.5C 63.2053,115.783 60.3719,115.783 57.5,114.5C 73.0353,76.5561 88.3687,38.5561 103.5,0.5 Z M 103.5,21.5 C 110.707,37.5975 117.707,53.9308 124.5,70.5C 110.846,71.6661 97.1788,71.8327 83.5,71C 90.4619,54.613 97.1286,38.113 103.5,21.5 Z"/></g>
<g><path style="opacity:0.949" fill="#ffffff" d="M 727.5,2.5 C 734.5,2.5 741.5,2.5 748.5,2.5C 748.5,27.5 748.5,52.5 748.5,77.5C 752.167,77.5 755.833,77.5 759.5,77.5C 759.5,83.8333 759.5,90.1667 759.5,96.5C 755.833,96.5 752.167,96.5 748.5,96.5C 748.5,102.833 748.5,109.167 748.5,115.5C 741.5,115.5 734.5,115.5 727.5,115.5C 727.5,109.167 727.5,102.833 727.5,96.5C 711.167,96.5 694.833,96.5 678.5,96.5C 677.733,90.3981 678.899,84.7314 682,79.5C 697.178,53.8057 712.345,28.1391 727.5,2.5 Z M 726.5,36.5 C 727.496,49.9898 727.829,63.6565 727.5,77.5C 720.159,77.6663 712.826,77.4997 705.5,77C 712.909,63.6821 719.909,50.1821 726.5,36.5 Z"/></g>
<g><path style="opacity:0.882" fill="#ffffff" d="M 186.5,3.5 C 197.678,1.64264 207.678,4.14264 216.5,11C 219.503,13.6088 221.003,16.7754 221,20.5C 219.414,21.376 217.914,22.376 216.5,23.5C 207.288,10.2582 195.622,7.42488 181.5,15C 173.656,22.9783 172.489,31.8116 178,41.5C 190.43,49.3004 203.263,56.4671 216.5,63C 228.47,73.6857 230.637,86.1857 223,100.5C 209.124,117.722 192.291,121.222 172.5,111C 166.582,106.326 162.249,100.492 159.5,93.5C 161.118,91.684 163.118,90.3507 165.5,89.5C 168.163,93.0066 170.663,96.6732 173,100.5C 185.651,112.119 198.651,112.452 212,101.5C 223.579,87.0644 221.412,75.231 205.5,66C 194.516,60.8426 183.85,55.176 173.5,49C 165.903,40.2499 164.069,30.4166 168,19.5C 171.6,11.0576 177.767,5.7243 186.5,3.5 Z"/></g>
<g><path style="opacity:0.885" fill="#ffffff" d="M 427.5,3.5 C 457.932,0.291863 479.766,12.2919 493,39.5C 501.651,68.6812 493.484,91.8478 468.5,109C 440.309,122.627 415.476,118.127 394,95.5C 377.725,72.3816 377.392,49.0483 393,25.5C 402.355,14.6159 413.855,7.28256 427.5,3.5 Z M 432.5,10.5 C 465.762,10.6004 484.429,27.1004 488.5,60C 485.361,89.8056 468.861,106.306 439,109.5C 409.157,106.324 392.657,89.8242 389.5,60C 391.953,33.0545 406.286,16.5545 432.5,10.5 Z"/></g>
<g><path style="opacity:0.892" fill="#ffffff" d="M 615.5,119.5 C 615.167,119.5 614.833,119.5 614.5,119.5C 584.539,87.0363 554.372,54.703 524,22.5C 523.5,53.4982 523.333,84.4982 523.5,115.5C 520.833,115.5 518.167,115.5 515.5,115.5C 515.167,78.1607 515.5,40.8274 516.5,3.5C 547.119,34.7417 577.286,66.4084 607,98.5C 607.5,67.1684 607.667,35.8351 607.5,4.5C 610.167,4.5 612.833,4.5 615.5,4.5C 615.5,42.8333 615.5,81.1667 615.5,119.5 Z"/></g>
<g><path style="opacity:0.917" fill="#ffffff" d="M 0.5,4.5 C 15.8333,4.5 31.1667,4.5 46.5,4.5C 46.5,6.83333 46.5,9.16667 46.5,11.5C 33.8333,11.5 21.1667,11.5 8.5,11.5C 8.5,24.8333 8.5,38.1667 8.5,51.5C 20.8333,51.5 33.1667,51.5 45.5,51.5C 45.5,53.8333 45.5,56.1667 45.5,58.5C 33.1667,58.5 20.8333,58.5 8.5,58.5C 8.5,77.5 8.5,96.5 8.5,115.5C 5.83333,115.5 3.16667,115.5 0.5,115.5C 0.5,78.5 0.5,41.5 0.5,4.5 Z"/></g>
<g><path style="opacity:0.918" fill="#ffffff" d="M 247.5,4.5 C 250.167,4.5 252.833,4.5 255.5,4.5C 255.5,20.1667 255.5,35.8333 255.5,51.5C 277.167,51.5 298.833,51.5 320.5,51.5C 320.5,35.8333 320.5,20.1667 320.5,4.5C 323.167,4.5 325.833,4.5 328.5,4.5C 328.5,41.5 328.5,78.5 328.5,115.5C 325.833,115.5 323.167,115.5 320.5,115.5C 320.5,96.5 320.5,77.5 320.5,58.5C 298.833,58.5 277.167,58.5 255.5,58.5C 255.5,77.5 255.5,96.5 255.5,115.5C 252.833,115.5 250.167,115.5 247.5,115.5C 247.5,78.5 247.5,41.5 247.5,4.5 Z"/></g>
<g><path style="opacity:0.9" fill="#ffffff" d="M 354.5,4.5 C 357.167,4.5 359.833,4.5 362.5,4.5C 362.5,41.5 362.5,78.5 362.5,115.5C 359.833,115.5 357.167,115.5 354.5,115.5C 354.5,78.5 354.5,41.5 354.5,4.5 Z"/></g>
<g><path style="opacity:0.945" fill="#ffffff" d="M 867.5,113.5 C 867.5,114.167 867.5,114.833 867.5,115.5C 857.828,115.666 848.161,115.5 838.5,115C 827.333,99.1667 816.167,83.3333 805,67.5C 804.5,83.4965 804.333,99.4965 804.5,115.5C 796.833,115.5 789.167,115.5 781.5,115.5C 781.5,78.5 781.5,41.5 781.5,4.5C 789.167,4.5 796.833,4.5 804.5,4.5C 804.333,19.1705 804.5,33.8371 805,48.5C 815.468,33.732 826.301,19.232 837.5,5C 846.833,4.33333 856.167,4.33333 865.5,5C 851.233,21.4246 837.567,38.2579 824.5,55.5C 838.085,75.4139 852.418,94.7473 867.5,113.5 Z"/></g>
</svg>
