<?xml version="1.0" encoding="UTF-8"?>
<!DOCTYPE svg PUBLIC "-//W3C//DTD SVG 1.1//EN" "http://www.w3.org/Graphics/SVG/1.1/DTD/svg11.dtd">
<svg xmlns="http://www.w3.org/2000/svg" version="1.1" width="636px" height="120px" style="shape-rendering:geometricPrecision; text-rendering:geometricPrecision; image-rendering:optimizeQuality; fill-rule:evenodd; clip-rule:evenodd" xmlns:xlink="http://www.w3.org/1999/xlink">
<g><path style="opacity:1" fill="#ffffff" d="M 79.5,119.5 C 78.8333,119.5 78.1667,119.5 77.5,119.5C 51.661,93.4944 25.9943,67.3277 0.5,41C 13.1247,27.3743 26.1247,14.041 39.5,1C 65.1667,0.333333 90.8333,0.333333 116.5,1C 130.014,14.3473 143.347,27.8473 156.5,41.5C 130.649,67.6821 104.982,93.6821 79.5,119.5 Z M 44.5,9.5 C 67.1691,9.33337 89.8358,9.50004 112.5,10C 122.833,20.3333 133.167,30.6667 143.5,41C 121.667,62.8333 99.8333,84.6667 78,106.5C 56.5111,84.5363 35.0111,62.703 13.5,41C 24.0355,30.6317 34.3688,20.1317 44.5,9.5 Z"/></g>
<g><path style="opacity:1" fill="#ffffff" d="M 86.5,14.5 C 90.7121,14.0775 94.7121,14.7442 98.5,16.5C 101.043,19.7439 101.043,22.9106 98.5,26C 92.6661,26.9964 90.3327,24.4964 91.5,18.5C 87.4029,18.469 84.9029,20.469 84,24.5C 82.661,31.4264 82.161,38.4264 82.5,45.5C 85.5,45.5 88.5,45.5 91.5,45.5C 91.5,46.8333 91.5,48.1667 91.5,49.5C 88.5,49.5 85.5,49.5 82.5,49.5C 82.5,61.1667 82.5,72.8333 82.5,84.5C 85.1873,84.3359 87.854,84.5026 90.5,85C 91.3366,86.0113 91.67,87.1779 91.5,88.5C 82.5,88.5 73.5,88.5 64.5,88.5C 64.5,87.1667 64.5,85.8333 64.5,84.5C 67.1667,84.5 69.8333,84.5 72.5,84.5C 72.5,72.8333 72.5,61.1667 72.5,49.5C 69.8333,49.5 67.1667,49.5 64.5,49.5C 64.5,48.1667 64.5,46.8333 64.5,45.5C 67.1667,45.5 69.8333,45.5 72.5,45.5C 72.2247,38.6951 73.058,32.0284 75,25.5C 77.4373,20.2262 81.2706,16.5595 86.5,14.5 Z"/></g>
<g><path style="opacity:1" fill="#ffffff" d="M 169.5,20.5 C 188.833,20.5 208.167,20.5 227.5,20.5C 227.5,24.8333 227.5,29.1667 227.5,33.5C 213.167,33.5 198.833,33.5 184.5,33.5C 184.5,39.8333 184.5,46.1667 184.5,52.5C 197.167,52.5 209.833,52.5 222.5,52.5C 222.5,57.1667 222.5,61.8333 222.5,66.5C 209.833,66.5 197.167,66.5 184.5,66.5C 184.5,76.8333 184.5,87.1667 184.5,97.5C 179.5,97.5 174.5,97.5 169.5,97.5C 169.5,71.8333 169.5,46.1667 169.5,20.5 Z"/></g>
<g><path style="opacity:1" fill="#ffffff" d="M 237.5,20.5 C 258.5,20.5 279.5,20.5 300.5,20.5C 300.5,24.8333 300.5,29.1667 300.5,33.5C 292.5,33.5 284.5,33.5 276.5,33.5C 276.5,54.8333 276.5,76.1667 276.5,97.5C 271.5,97.5 266.5,97.5 261.5,97.5C 261.5,76.1667 261.5,54.8333 261.5,33.5C 253.5,33.5 245.5,33.5 237.5,33.5C 237.5,29.1667 237.5,24.8333 237.5,20.5 Z"/></g>
<g><path style="opacity:1" fill="#ffffff" d="M 310.5,20.5 C 316.093,20.1934 321.593,20.5268 327,21.5C 333.895,39.621 341.062,57.621 348.5,75.5C 355.938,57.621 363.105,39.621 370,21.5C 375.407,20.5268 380.907,20.1934 386.5,20.5C 376.534,46.602 365.867,72.4353 354.5,98C 350.129,98.8275 345.795,98.6609 341.5,97.5C 330.57,72.0372 320.237,46.3705 310.5,20.5 Z"/></g>
<g><path style="opacity:1" fill="#ffffff" d="M 405.5,20.5 C 408.833,20.5 412.167,20.5 415.5,20.5C 411.169,37.8259 406.835,55.1592 402.5,72.5C 404.161,83.6583 410.661,89.325 422,89.5C 436.125,87.045 444.792,78.7116 448,64.5C 451.838,49.8143 455.671,35.1476 459.5,20.5C 462.833,20.5 466.167,20.5 469.5,20.5C 465.377,41.327 459.543,61.6604 452,81.5C 442.434,96.1441 428.934,101.644 411.5,98C 395.083,92.174 389.25,80.674 394,63.5C 397.686,49.0886 401.519,34.7553 405.5,20.5 Z"/></g>
<g><path style="opacity:1" fill="#ffffff" d="M 490.5,20.5 C 494.226,20.1774 497.893,20.5108 501.5,21.5C 498.345,31.7882 495.345,42.1215 492.5,52.5C 506.484,53.4992 520.484,53.8326 534.5,53.5C 537.169,42.4939 539.836,31.4939 542.5,20.5C 546.226,20.1774 549.893,20.5108 553.5,21.5C 546.205,46.6803 539.538,72.0137 533.5,97.5C 529.833,97.5 526.167,97.5 522.5,97.5C 525.113,86.2152 528.113,75.0485 531.5,64C 517.504,63.5001 503.504,63.3334 489.5,63.5C 486.982,74.5594 484.148,85.5594 481,96.5C 477.606,97.4558 474.106,97.7892 470.5,97.5C 477.324,71.8699 483.991,46.2033 490.5,20.5 Z"/></g>
<g><path style="opacity:1" fill="#ffffff" d="M 575.5,20.5 C 585.839,20.3335 596.172,20.5002 606.5,21C 623.832,24.6637 632.832,35.3304 633.5,53C 631.041,79.1273 616.707,93.794 590.5,97C 578.486,97.8326 566.486,97.6659 554.5,96.5C 561.506,71.1377 568.506,45.8043 575.5,20.5 Z M 583.5,29.5 C 595.004,27.9598 605.671,30.1264 615.5,36C 624.557,48.2601 624.724,60.7601 616,73.5C 602.461,86.7297 586.294,91.3964 567.5,87.5C 572.84,68.1377 578.173,48.8043 583.5,29.5 Z"/></g>
<g><path style="opacity:1" fill="#ffffff" d="M 102.5,42.5 C 108.992,42.6582 110.658,45.4916 107.5,51C 105.231,51.7581 103.064,51.5914 101,50.5C 100.133,47.4791 100.633,44.8124 102.5,42.5 Z"/></g>
</svg>
