<svg xmlns="http://www.w3.org/2000/svg" width="292" height="94" style="shape-rendering:geometricPrecision;text-rendering:geometricPrecision;image-rendering:optimizeQuality;fill-rule:evenodd;clip-rule:evenodd"><path style="opacity:.22" fill="#aaabab" d="M79.5 1.5c1.068-.934 2.401-1.268 4-1v5c-.934-1.068-1.268-2.401-1-4h-3z"/><path style="opacity:.455" fill="#959595" d="M121.5 2.5c.751-1.073 1.751-1.24 3-.5a4.932 4.932 0 0 1-3 .5z"/><path style="opacity:1" fill="#1e1e1f" d="M79.5 1.5h3c-.268 1.599.066 2.932 1 4v24c-2.567.221-4.9.888-7 2-1.419.951-3.085 1.285-5 1-1.808-.009-3.475.491-5 1.5l8 .5c3.09-.022 5.757-.688 8-2 .06-.543.393-.876 1-1a44.293 44.293 0 0 0 2 3 688.83 688.83 0 0 1 10 22.5c-2.151 3.49-4.318 6.99-6.5 10.5-.667 1.333-.667 2.667 0 4 .383-.556.883-.89 1.5-1a33.144 33.144 0 0 0-3 7c.252 1.573.918 2.906 2 4-1.291 1.042-1.291 2.208 0 3.5a95.929 95.929 0 0 1 8.5 3.5l7-10c1.411 2.15 2.245 4.484 2.5 7-.62 2.477-1.62 2.477-3 0-.607.124-.94.457-1 1-.95 2.615-2.617 4.615-5 6a55.832 55.832 0 0 1-9-4c-.06-.543-.393-.876-1-1-7.796 1.924-15.796 2.59-24 2 .302-2.56-.032-4.893-1-7-.983-3.798-1.317-7.798-1-12-2.065.017-4.065.35-6 1a936.527 936.527 0 0 0-2 17 487.86 487.86 0 0 0-21 5h-4a817.799 817.799 0 0 1-3-23v-5h-4c.342-.838 1.008-1.172 2-1 1-.333 1.667-1 2-2 .992.172 1.658-.162 2-1l5-4a21.445 21.445 0 0 0-1 7 30.943 30.943 0 0 1-2-2c-.432 9.096.568 18.096 3 27a287.68 287.68 0 0 1 19-4.5c.646-5.448 1.312-10.948 2-16.5 4.691-1.339 9.358-2.672 14-4a134.174 134.174 0 0 0-1-20c-5.325.996-10.658 1.996-16 3v-14a46.778 46.778 0 0 0 13-3c1.411-7.421 1.078-14.755-1-22a611.978 611.978 0 0 1-41 10 74.08 74.08 0 0 0 1.5 12c1.813 1.11 2.646.442 2.5-2 .7 2.088 1.7 4.088 3 6-4.65-2.378-9.65-3.378-15-3 1.765-.961 3.765-1.295 6-1 .268-1.599-.066-2.932-1-4a130.085 130.085 0 0 0-2-9 704.124 704.124 0 0 1 62-16zm-3 30c1.791-.134 3.458.2 5 1-3.333 1.333-6.667 1.333-10 0 1.915.285 3.581-.049 5-1zm-21 5h4v6h-5c-.175-2.12.159-4.12 1-6zm34 15c1.333 3 1.333 6 0 9-1.333-3-1.333-6 0-9z"/><path style="opacity:.999" fill="#303031" d="M287.5 31.5c-.768.763-1.268 1.763-1.5 3-.671-.752-1.504-1.086-2.5-1h-4c-2.099-1.112-4.433-1.779-7-2-.709-.904-1.709-1.237-3-1-.273-9.3.394-18.633 2-28 6.308.786 12.475 2.12 18.5 4a181.704 181.704 0 0 1-2.5 25z"/><path style="opacity:1" fill="#242424" d="m186.5 3.5 2 10c.688 5.634 1.188 11.3 1.5 17 9.943-3.338 19.277-2.005 28 4 .14-1.755-.36-3.422-1.5-5a556.69 556.69 0 0 1 25-9 4.94 4.94 0 0 1 2.5 1c.29 1.544.956 2.877 2 4 .899-1.827 2.233-3.16 4-4a509.984 509.984 0 0 0 19.5 9c0 .667.333 1 1 1 .304.65.637 1.316 1 2a16.868 16.868 0 0 0 8 1h2c2.448.973 5.115 1.306 8 1h2v7a4148.435 4148.435 0 0 0-6 44c-.934 1.068-1.268 2.401-1 4h-4c-5.774-1.446-11.774-2.112-18-2h-3v-3c-1.291-.237-2.291.096-3 1a197.873 197.873 0 0 1-15 5c-2.032-1.05-3.365-2.717-4-5a583.831 583.831 0 0 0-5 6l-13-8c-10.131 7.375-21.131 8.875-33 4.5-3.775-1.611-6.775-4.111-9-7.5-.06-.543-.393-.876-1-1-.694 2.255-1.694 4.255-3 6a120.199 120.199 0 0 1-19 4h-4c.268-1.599-.066-2.932-1-4a24.93 24.93 0 0 1-1-8v-8c-1.291.237-2.291-.096-3-1a36.865 36.865 0 0 0-2-5.5 12.993 12.993 0 0 0 1-5.5c1.22-1.784 1.22-3.45 0-5a342.959 342.959 0 0 1-6-39l48-11zm-10 37c-.961-1.765-1.295-3.765-1-6a45.309 45.309 0 0 1 7-.5 54.538 54.538 0 0 0-6 6.5zm85 18-2 7a31.274 31.274 0 0 1-1.5-10c3.212-6.133 4.378-5.133 3.5 3zm-65-4c6.284-.881 9.117 1.786 8.5 8-3.8 5.234-7.466 5.234-11 0-.977-3.317-.144-5.984 2.5-8z"/><path style="opacity:1" fill="#cecfd0" d="M77.5 4.5h3c.612 7.332.778 14.665.5 22a58.35 58.35 0 0 1-11.5 3v-23c2.928-.065 5.595-.732 8-2z"/><path style="opacity:1" fill="#d0d1d2" d="M274.5 7.5c3.41-.043 6.743.457 10 1.5 1.016.52 1.682 1.353 2 2.5a181.122 181.122 0 0 0-1.5 16 6.802 6.802 0 0 1-1.5 3 99.478 99.478 0 0 1-10.5-3 92.095 92.095 0 0 1 1.5-20z"/><path style="opacity:1" fill="#cd0d17" d="M79.5 23.5c-1.21.432-2.21 1.099-3 2h-2a5.728 5.728 0 0 1-3-1v-11c-.19-2.459.81-4.126 3-5 1.322.17 2.489-.163 3.5-1 .265 5.382.765 10.715 1.5 16z"/><path style="opacity:1" fill="#4c4949" d="M74.5 8.5c-2.19.874-3.19 2.541-3 5-1.773-3.176-.773-4.843 3-5z"/><path style="opacity:1" fill="#280e0f" d="M280.5 11.5c-1.459-.067-2.792.266-4 1 .12-1.086.787-1.753 2-2 .916.043 1.583.376 2 1z"/><path style="opacity:.631" fill="#7a7c7d" d="M186.5 3.5c.06-.543.393-.876 1-1a31.117 31.117 0 0 1 1 11l-2-10z"/><path style="opacity:1" fill="#c60d16" d="M280.5 11.5h3a75.818 75.818 0 0 0-1 15 51.648 51.648 0 0 1-7-1c.427-4.324.761-8.658 1-13 1.208-.734 2.541-1.067 4-1z"/><path style="opacity:1" fill="#da0d18" d="M60.5 29.5c-2.873.302-5.54.969-8 2h-4v20c4.62-.24 8.953-1.24 13-3h3c-.302 2.56.032 4.893 1 7v1c.59 3.175-.41 5.509-3 7l-12 2v8a32.437 32.437 0 0 1-.5 8c-.995.566-1.828 1.233-2.5 2a43.141 43.141 0 0 0-11 2 26.326 26.326 0 0 0-2-5v-2c.384-3.989-.283-7.655-2-11v-3a21.445 21.445 0 0 1 1-7c1.37-1.75 2.37-3.75 3-6 1.297-2.193 1.297-4.527 0-7-.775 1.802-1.775 2.469-3 2-1.933 1.142-3.433 2.808-4.5 5-.399-.228-.565-.562-.5-1 1.01-1.902 1.178-3.902.5-6-1.188 1.063-1.688 2.397-1.5 4-.667 0-1 .333-1 1-.617.11-1.117.444-1.5 1l-1-6c-.417-1.256-1.25-1.923-2.5-2 .073-1.527-.594-2.527-2-3 1.205-1.186 2.539-1.186 4 0 2.667 1.333 5.333 1.333 8 0 .543-.06.876-.393 1-1a493.061 493.061 0 0 1-3-4 24.555 24.555 0 0 1-3-6v-2c-.359-2.266.308-4.1 2-5.5a977.187 977.187 0 0 1 33-7.5 54.842 54.842 0 0 0 1 12c-.303 1.614-.97 2.948-2 4z"/><path style="opacity:1" fill="#3c3435" d="M79.5 23.5c-.321 1.548-1.321 2.215-3 2 .79-.901 1.79-1.568 3-2z"/><path style="opacity:1" fill="#373b3b" d="M71.5 24.5c.891.61 1.891.943 3 1-1.447 1.385-2.447 1.052-3-1z"/><path style="opacity:1" fill="#d6d6d6" d="M252.5 57.5c.172.992-.162 1.658-1 2-1.141-1.951-1.141-3.951 0-6 1.406-.473 2.073-1.473 2-3 1.406-.473 2.073-1.473 2-3 1.406-.473 2.073-1.473 2-3 1.406-.473 2.073-1.473 2-3 1.406-.473 2.073-1.473 2-3 1.184-1.188 1.184-2.355 0-3.5a66.74 66.74 0 0 0-10-4.5c-1.762.762-2.762 2.096-3 4-1.762.762-2.762 2.096-3 4-.617.11-1.117.444-1.5 1-.608-1.566-1.442-2.9-2.5-4a20.088 20.088 0 0 0-1.5-6c-1.616-1.3-3.116-1.3-4.5 0-1.714 1.238-3.714 1.905-6 2-3.535-.163-4.535 1.17-3 4-.482 3.33.518 5.997 3 8v1c.296 1.903.963 3.57 2 5l1 8-2 3c-.59-2.49-.757-5.157-.5-8L222.5 32c.405-.945 1.072-1.612 2-2a212.952 212.952 0 0 0 15.5-5.5c1.591 3.267 3.091 6.6 4.5 10a56.902 56.902 0 0 1 7.5-8 113.448 113.448 0 0 1 15.5 8 250.654 250.654 0 0 0-15 23z"/><path style="opacity:1" fill="#d2d1d1" d="M107.5 85.5c-.255-2.516-1.089-4.85-2.5-7l-7 10a95.929 95.929 0 0 0-8.5-3.5c-1.291-1.292-1.291-2.458 0-3.5a40.936 40.936 0 0 0 7.5 3 940.73 940.73 0 0 1 6.5-9c1-1.333 2-1.333 3 0 .296 1.903.963 3.57 2 5 .765 1.16 1.765 2.16 3 3 4.183-1.254 7.849-3.254 11-6a100.014 100.014 0 0 0-8-19.5 45.726 45.726 0 0 1 6-9.5c1.406-.473 2.073-1.473 2-3a60.03 60.03 0 0 1 5-9 25.872 25.872 0 0 0-7-4c-1.43-1.038-3.097-1.704-5-2a10.177 10.177 0 0 0-3 3c-1.406.473-2.073 1.473-2 3-.838.342-1.172 1.008-1 2-1 1.333-2 1.333-3 0-1.49-2.081-2.49-4.414-3-7-1.795-2.416-3.795-2.416-6 0l-9 2c-.237 1.291.096 2.291 1 3 .61.891.943 1.891 1 3 .16 1.653.826 2.986 2 4 1.037 1.43 1.704 3.097 2 5 .16 1.653.826 2.986 2 4 .838.342 1.172 1.008 1 2a19.242 19.242 0 0 1-1 6c-.838.342-1.172 1.008-1 2-1.406.473-2.073 1.473-2 3-.838.342-1.172 1.008-1 2-1.406.473-2.073 1.473-2 3-.617.11-1.117.444-1.5 1-.667-1.333-.667-2.667 0-4 2.182-3.51 4.349-7.01 6.5-10.5a688.83 688.83 0 0 0-10-22.5c-.086-.996.248-1.83 1-2.5a451.965 451.965 0 0 0 16-5.5c2.821 2.291 4.654 5.291 5.5 9a64.735 64.735 0 0 1 6-9 142.405 142.405 0 0 1 17.5 8.5 249.6 249.6 0 0 1-14 23 838.017 838.017 0 0 1 9 21.5c-5.098 3.298-10.598 5.965-16.5 8-1.011-.556-1.844-1.222-2.5-2z"/><path style="opacity:1" fill="#231e1f" d="M235.5 29.5c1.384-1.3 2.884-1.3 4.5 0a20.088 20.088 0 0 1 1.5 6c-1.293-1.342-2.126-3.009-2.5-5-1.011-.837-2.178-1.17-3.5-1z"/><path style="opacity:.529" fill="#9b9c9d" d="M83.5 12.5c.356 5.577 1.356 10.91 3 16-2.006.985-3.673 2.318-5 4-1.542-.8-3.209-1.134-5-1 2.1-1.112 4.433-1.779 7-2v-17z"/><path style="opacity:1" fill="#db0d18" d="M235.5 29.5c1.322-.17 2.489.163 3.5 1 .374 1.991 1.207 3.658 2.5 5 .004 2.342.837 4.342 2.5 6 1.039-.744 1.539-1.744 1.5-3 1.762-.762 2.762-2.096 3-4 1.762-.762 2.762-2.096 3-4a66.74 66.74 0 0 1 10 4.5c1.184 1.145 1.184 2.312 0 3.5-1.406.473-2.073 1.473-2 3-1.406.473-2.073 1.473-2 3-1.406.473-2.073 1.473-2 3-1.406.473-2.073 1.473-2 3-1.406.473-2.073 1.473-2 3-2.559 2.59-2.559 5.257 0 8a97.683 97.683 0 0 0 6 16.5 56.863 56.863 0 0 1-9 4.5h-2a5.728 5.728 0 0 1-3-1c.38-2.198-.287-3.865-2-5v-1c-.499-6.1-1.832-6.434-4-1-1.406.473-2.073 1.473-2 3-1.406.473-2.073 1.473-2 3l-3 2c-1.653-.16-2.986-.826-4-2a11.804 11.804 0 0 1-2-3.5c2.241-5.5 4.241-11 6-16.5l2-3c1.246-2.793.913-5.46-1-8 .38-2.198-.287-3.865-2-5v-1c-.629-2.897-1.629-5.564-3-8 .271-1.93 1.271-3.264 3-4 2.286-.095 4.286-.762 6-2z"/><path style="opacity:1" fill="#ebde19" d="M14.5 31.5c5.35-.378 10.35.622 15 3a493.061 493.061 0 0 0 3 4c-.124.607-.457.94-1 1a493.061 493.061 0 0 1-4-3c-1.142 1.326-2.476 2.326-4 3-1.461-1.186-2.795-1.186-4 0h-9c-.75-1.074-1.75-1.24-3-.5-3.07 4.861-3.736 10.028-2 15.5 1.186 1.461 1.186 2.795 0 4-6.355-12.166-3.355-21.166 9-27z"/><path style="opacity:1" fill="#db0e18" d="M103.5 31.5c.51 2.586 1.51 4.919 3 7 1 4 2 4 3 0-.172-.992.162-1.658 1-2 1.406-.473 2.073-1.473 2-3a10.177 10.177 0 0 1 3-3c1.135 1.713 2.802 2.38 5 2a25.872 25.872 0 0 1 7 4 60.03 60.03 0 0 0-5 9c-1.406.473-2.073 1.473-2 3a45.726 45.726 0 0 0-6 9.5 100.014 100.014 0 0 1 8 19.5c-3.151 2.746-6.817 4.746-11 6-1.235-.84-2.235-1.84-3-3 .38-2.198-.287-3.865-2-5-1-4-2-4-3 0a940.73 940.73 0 0 0-6.5 9 40.936 40.936 0 0 1-7.5-3c-1.082-1.094-1.748-2.427-2-4a33.144 33.144 0 0 1 3-7c1.406-.473 2.073-1.473 2-3-.172-.992.162-1.658 1-2 1.406-.473 2.073-1.473 2-3-.172-.992.162-1.658 1-2 1.194-.47 1.86-1.47 2-3-.02-1.226-.353-2.226-1-3 .172-.992-.162-1.658-1-2 .27-1.88-.396-3.213-2-4-.296-1.903-.963-3.57-2-5 .27-1.88-.396-3.213-2-4a5.728 5.728 0 0 0-1-3 34.403 34.403 0 0 1 8-5c2.112-.775 4.112-.775 6 0z"/><path style="opacity:.059" fill="#d1d1d1" d="M135.5 31.5c2.052.553 2.385 1.553 1 3a5.727 5.727 0 0 0-1-3z"/><path style="opacity:1" fill="#2a1e1e" d="M229.5 31.5c-1.729.736-2.729 2.07-3 4-1.535-2.83-.535-4.163 3-4z"/><path style="opacity:1" fill="#261a1b" d="M97.5 31.5a34.403 34.403 0 0 0-8 5c-.904-.709-1.237-1.709-1-3l9-2z"/><path style="opacity:1" fill="#541816" d="M251.5 30.5c-.238 1.904-1.238 3.238-3 4 .238-1.904 1.238-3.238 3-4z"/><path style="opacity:.443" fill="#757677" d="M71.5 32.5c3.333 1.333 6.667 1.333 10 0h1c-2.243 1.312-4.91 1.978-8 2l-8-.5c1.525-1.009 3.192-1.509 5-1.5z"/><path style="opacity:.999" fill="#2e2f2f" d="M135.5 31.5c.61.891.943 1.891 1 3a54.199 54.199 0 0 1-5 7.5c9.688.377 12.022 4.71 7 13 1.287 1.786 2.787 1.953 4.5.5 1.03-.336 1.53-1.003 1.5-2 1.22 1.55 1.22 3.216 0 5-1.808-.817-3.308-.15-4.5 2-3.156-2.243-3.823-4.91-2-8 .988-8.038-1.679-9.704-8-5-.607 2.702-.44 5.368.5 8-2.132 2.6-3.465 5.6-4 9 2.335 9.005 7.002 10.339 14 4 1.465 1.924 3.132 2.257 5 1 .709.904 1.709 1.237 3 1v8c-.814-2.131-1.314-4.464-1.5-7-2 1.333-4 1.333-6 0-4.145 3.479-8.478 3.812-13 1 .491 2.68 1.324 5.347 2.5 8-.282 1.278-.949 2.278-2 3a380.923 380.923 0 0 1-21 9 518.115 518.115 0 0 0-4-6c.06-.543.393-.876 1-1 1.38 2.477 2.38 2.477 3 0 .656.778 1.489 1.444 2.5 2 5.902-2.035 11.402-4.702 16.5-8a838.017 838.017 0 0 0-9-21.5 249.6 249.6 0 0 0 14-23 142.405 142.405 0 0 0-17.5-8.5 64.735 64.735 0 0 0-6 9c-.846-3.709-2.679-6.709-5.5-9a451.965 451.965 0 0 1-16 5.5c-.752.67-1.086 1.504-1 2.5a44.293 44.293 0 0 1-2-3c-.607.124-.94.457-1 1h-1c1.327-1.682 2.994-3.015 5-4a454.911 454.911 0 0 1 18.5-7 21.84 21.84 0 0 1 4 5c.481-1.978 1.647-3.311 3.5-4a345.214 345.214 0 0 1 23 9zm-9 18a61.172 61.172 0 0 1 2 5.5c-2.436 2.707-3.936 5.873-4.5 9.5a23.672 23.672 0 0 0-2.5-6 60.03 60.03 0 0 0 5-9z"/><path style="opacity:1" fill="#5f251e" d="M115.5 30.5c1.903.296 3.57.962 5 2-2.198.38-3.865-.287-5-2z"/><path style="opacity:1" fill="#342f30" d="M103.5 31.5c-1.888-.775-3.888-.775-6 0 2.205-2.416 4.205-2.416 6 0z"/><path style="opacity:.035" fill="#b6b6b7" d="M270.5 31.5h2c1.779 1.843 4.112 2.51 7 2v1a16.868 16.868 0 0 1-8-1 44.147 44.147 0 0 1-1-2z"/><path style="opacity:1" fill="#494846" d="M19.5 26.5c.934 1.068 1.268 2.401 1 4-2.235-.295-4.235.039-6 1-12.355 5.834-15.355 14.834-9 27 1.038 2.128 2.37 3.128 4 3 2.32 1.726 4.987 2.393 8 2-.418.722-1.084 1.222-2 1.5 2.31.497 4.643.663 7 .5v1c-12.463.876-20.13-4.791-23-17v-3c2.343-10.672 9.01-16.338 20-17v-3z"/><path style="opacity:.137" fill="#aaabab" d="M287.5 31.5c.027 1.7.694 3.033 2 4-2.885.306-5.552-.027-8-1 .992.172 1.658-.162 2-1 .996-.086 1.829.248 2.5 1 .232-1.237.732-2.237 1.5-3z"/><path style="opacity:1" fill="#452524" d="M112.5 33.5c.073 1.527-.594 2.527-2 3-.073-1.527.594-2.527 2-3z"/><path style="opacity:.06" fill="#dedede" d="M175.5 34.5c-.295 2.235.039 4.235 1 6-.06.543-.393.876-1 1-1.297-2.473-1.297-4.807 0-7z"/><path style="opacity:1" fill="#db0d18" d="M204.5 35.5a597.63 597.63 0 0 0 8 3c2.333 3 5 5.667 8 8 .492 2.319 1.492 4.319 3 6 .075 6.03-.259 12.03-1 18-.838.342-1.172 1.008-1 2-1.406.473-2.073 1.473-2 3-2 1.333-3.667 3-5 5-1.527-.073-2.527.594-3 2-1.653.16-2.986.826-4 2-5.703.125-11.37-.208-17-1h-1c-.473-1.406-1.473-2.073-3-2-.473-1.406-1.473-2.073-3-2-1-1.667-2.333-3-4-4 .073-1.527-.594-2.527-2-3-.913-1.586-.913-3.086 0-4.5a111.07 111.07 0 0 1 8-2.5c1.573.252 2.906.918 4 2 8.762 7.673 15.929 6.34 21.5-4a16.242 16.242 0 0 0 0-8c-.278-.916-.778-1.583-1.5-2 .073-1.527-.594-2.527-2-3a434.944 434.944 0 0 0-8-3c-2.299.1-4.299.766-6 2-1.175.219-2.175-.114-3-1-.4-3.62-1.4-6.953-3-10 1.527.073 2.527-.594 3-2a82.698 82.698 0 0 1 14-1z"/><path style="opacity:1" fill="#402423" d="M248.5 34.5c-.238 1.904-1.238 3.238-3 4 .238-1.904 1.238-3.238 3-4z"/><path style="opacity:1" fill="#dadbdb" d="M266.5 85.5c-.709-.904-1.709-1.237-3-1v-7a507.759 507.759 0 0 1 4-40 176.077 176.077 0 0 0 20 1l-5.5 46c-1.18 1.184-2.68 1.85-4.5 2a71.795 71.795 0 0 0-11-1z"/><path style="opacity:1" fill="#221a0d" d="M10.5 39.5h9c1.406.473 2.073 1.473 2 3a246.858 246.858 0 0 0-11-3z"/><path style="opacity:1" fill="#24130b" d="M31.5 39.5c-2.667 1.333-5.333 1.333-8 0 1.524-.674 2.858-1.674 4-3a493.061 493.061 0 0 0 4 3z"/><path style="opacity:1" fill="#4f302e" d="M106.5 38.5c1 1.333 2 1.333 3 0-1 4-2 4-3 0z"/><path style="opacity:.875" fill="#2a1717" d="M212.5 38.5c3.667 1.667 6.333 4.333 8 8-3-2.333-5.667-5-8-8z"/><path style="opacity:1" fill="#6f6e6f" d="M226.5 35.5c1.371 2.436 2.371 5.103 3 8-2.482-2.003-3.482-4.67-3-8z"/><path style="opacity:1" fill="#2d2526" d="M241.5 35.5c1.058 1.1 1.892 2.434 2.5 4 .383-.556.883-.89 1.5-1 .039 1.256-.461 2.256-1.5 3-1.663-1.658-2.496-3.658-2.5-6z"/><path style="opacity:1" fill="#4b4040" d="M261.5 38.5c.073 1.527-.594 2.527-2 3-.073-1.527.594-2.527 2-3z"/><path style="opacity:1" fill="#0a0c0d" d="M276.5 41.5h-6c.237 1.291-.096 2.291-1 3 .904-.709 1.237-1.709 1-3h6z"/><path style="opacity:1" fill="#d60c17" d="M82.5 49.5v34a72.444 72.444 0 0 1-12-.5 144.395 144.395 0 0 0-2-7.5v-8c1.746-.75 2.746-2.083 3-4a137.972 137.972 0 0 1-1.5-22c3.73-.96 7.563-1.294 11.5-1-.31 3.213.023 6.213 1 9z"/><path style="opacity:1" fill="#5f241f" d="M90.5 39.5c1.604.787 2.27 2.12 2 4-1.174-1.014-1.84-2.347-2-4z"/><path style="opacity:1" fill="#121010" d="M278.5 41.5h6c.284 1.915-.049 3.581-1 5v-4c-1.915.285-3.581-.049-5-1z"/><path style="opacity:1" fill="#d90c17" d="M276.5 41.5h2c1.419.951 3.085 1.285 5 1v4a457.94 457.94 0 0 0-3 30c-.809 1.792-1.309 3.792-1.5 6-1.356.88-2.856 1.213-4.5 1h-2c-1.452-.802-3.118-1.302-5-1.5-.616-1.4-.949-2.9-1-4.5a811.099 811.099 0 0 0 3-31v-2c.904-.709 1.237-1.709 1-3h6z"/><path style="opacity:1" fill="#e2e3e3" d="M68.5 67.5v17h15c.325-7.852-.008-15.518-1-23v-22c-6.224-.561-12.224.105-18 2-.929-1.189-1.262-2.522-1-4h21c.054 16.34.387 32.674 1 49h-19c.024-6.357-.31-12.69-1-19h3z"/><path style="opacity:1" fill="#d8d8d8" d="M181.5 7.5h4a194.614 194.614 0 0 0 1 22 241.105 241.105 0 0 0-15 3v13l16-3c.79 6.97 1.123 13.97 1 21a53.014 53.014 0 0 0-14 3 73.134 73.134 0 0 0-1 17 386.541 386.541 0 0 0-19 4 4.458 4.458 0 0 1-1.5-2l-10.5-65a7.93 7.93 0 0 1 1-3.5l38-9.5z"/><path style="opacity:1" fill="#5d2d26" d="M148.5 38.5c2.438 5.629 3.438 11.629 3 18-1.411-5.801-2.411-11.801-3-18z"/><path style="opacity:1" fill="#5b2e28" d="M146.5 25.5c1.75 3.683 2.417 7.683 2 12-1.117-3.795-1.783-7.795-2-12z"/><path style="opacity:1" fill="#2c2c2d" d="M179.5 11.5c.709-.904 1.709-1.237 3-1 .388 3.653.721 7.32 1 11-.039 2.452-.706 4.452-2 6 1.141-4.102 1.141-8.269 0-12.5-.108-1.681-.775-2.848-2-3.5z"/><path style="opacity:1" fill="#362725" d="M162.5 15.5a159.361 159.361 0 0 1-15 4.5c-.837 1.011-1.17 2.178-1 3.5-.951-1.419-1.284-3.085-1-5a453.154 453.154 0 0 1 17-3z"/><path style="opacity:1" fill="#571b14" d="M174.5 12.5c-3.263 2.068-6.93 3.068-11 3 3.437-1.445 7.103-2.445 11-3z"/><path style="opacity:1" fill="#dc0c18" d="M179.5 11.5c1.225.652 1.892 1.819 2 3.5 1.141 4.231 1.141 8.398 0 12.5l-12 3c-1.288 6.054-1.288 12.054 0 18a2.429 2.429 0 0 0 .5 2 64.924 64.924 0 0 1 14.5-3c-.268 1.599.066 2.932 1 4a21.128 21.128 0 0 1-1 9c-1.526.494-2.859 1.161-4 2-3.13.2-6.13.866-9 2a85.838 85.838 0 0 1-3 17 44.338 44.338 0 0 0-10 2 5.728 5.728 0 0 1-3-1v-1c.384-3.989-.283-7.655-2-11v-1c.417-4.317-.25-8.317-2-12v-1c.438-6.371-.562-12.371-3-18v-1c.417-4.317-.25-8.317-2-12v-2c-.17-1.322.163-2.489 1-3.5a159.361 159.361 0 0 0 15-4.5h1c4.07.068 7.737-.932 11-3 1.542-.8 3.208-1.134 5-1z"/><path style="opacity:1" fill="#443c3d" d="M259.5 41.5c.073 1.527-.594 2.527-2 3-.073-1.527.594-2.527 2-3z"/><path style="opacity:1" fill="#eaeaea" d="M144.5 58.5c.067 1.9-.267 3.734-1 5.5.82 1.8 1.486 3.634 2 5.5-1.868 1.257-3.535.924-5-1-6.998 6.339-11.665 5.005-14-4 .535-3.4 1.868-6.4 4-9-.94-2.632-1.107-5.298-.5-8 6.321-4.704 8.988-3.038 8 5-1.823 3.09-1.156 5.757 2 8 1.192-2.15 2.692-2.817 4.5-2zm-12 4c3.462 1.693 3.462 2.693 0 3v-3z"/><path style="opacity:1" fill="#e0e4e4" d="M28.5 50.5c-.838-.342-1.172-1.008-1-2-.188-1.603.312-2.937 1.5-4 .678 2.098.51 4.098-.5 6z"/><path style="opacity:1" fill="#5c2924" d="M229.5 44.5c1.713 1.135 2.38 2.802 2 5-1.037-1.43-1.704-3.097-2-5z"/><path style="opacity:1" fill="#3e3839" d="M257.5 44.5c.073 1.527-.594 2.527-2 3-.073-1.527.594-2.527 2-3z"/><path style="opacity:1" fill="#931113" d="M36.5 51.5c.237-1.291-.096-2.291-1-3-.438-1.006-1.104-1.006-2 0v-2c1.225.469 2.225-.198 3-2 1.297 2.473 1.297 4.807 0 7z"/><path style="opacity:1" fill="#2a2c2d" d="M52.5 31.5c-.709.904-1.709 1.237-3 1v17c4.02-.146 8.02-.48 12-1-4.047 1.76-8.38 2.76-13 3v-20h4z"/><path style="opacity:1" fill="#5d5151" d="M122.5 45.5c.073 1.527-.594 2.527-2 3-.073-1.527.594-2.527 2-3z"/><path style="opacity:1" fill="#1f1f20" d="M132.5 48.5h3c.278 1.846-.389 3.18-2 4-.929-1.189-1.262-2.522-1-4z"/><path style="opacity:1" fill="#141011" d="M185.5 51.5c-.934-1.068-1.268-2.401-1-4a64.924 64.924 0 0 0-14.5 3 2.429 2.429 0 0 1-.5-2 136.478 136.478 0 0 0 16-3v6z"/><path style="opacity:1" fill="#292324" d="M220.5 46.5c2.039 1.411 3.039 3.411 3 6-1.508-1.681-2.508-3.681-3-6z"/><path style="opacity:1" fill="#e4d318" d="M35.5 48.5c.27 1.88-.396 3.213-2 4v-4c.896-1.006 1.562-1.006 2 0z"/><path style="opacity:1" fill="#3a3435" d="M255.5 47.5c.073 1.527-.594 2.527-2 3-.073-1.527.594-2.527 2-3z"/><path style="opacity:1" fill="#5f2621" d="M94.5 48.5c1.604.787 2.27 2.12 2 4-1.174-1.014-1.84-2.347-2-4z"/><path style="opacity:1" fill="#dadada" d="M177.5 72.5c-.073 1.527.594 2.527 2 3 .333 2.333 1.667 3.667 4 4 .473 1.406 1.473 2.073 3 2 .473 1.406 1.473 2.073 3 2h1c.418.722 1.084 1.222 2 1.5 5.184.816 10.184.65 15-.5 1.014-1.174 2.347-1.84 4-2 1.527.073 2.527-.594 3-2 2.667-.667 4.333-2.333 5-5 1.406-.473 2.073-1.473 2-3-.172-.992.162-1.658 1-2 1.53-3.195 2.196-6.695 2-10.5-.003-2.69-.336-5.19-1-7.5.039-2.589-.961-4.589-3-6-1.667-3.667-4.333-6.333-8-8a597.63 597.63 0 0 1-8-3c-1.634-.661-3.467-.994-5.5-1-3.15-.14-5.983.527-8.5 2-1.527-.073-2.527.594-3 2-1.811 1.322-3.811 1.822-6 1.5 10.563-8.748 21.896-9.748 34-3 13.334 11.637 15.501 25.137 6.5 40.5-10.775 11.951-23.275 14.118-37.5 6.5-5.362-2.655-8.195-6.822-8.5-12.5.383.556.883.89 1.5 1z"/><path style="opacity:1" fill="#281112" d="M190.5 36.5c-.473 1.406-1.473 2.073-3 2 .473-1.406 1.473-2.073 3-2z"/><path style="opacity:.821" fill="#2e3232" d="M204.5 35.5c-4.703-.063-9.37.27-14 1 2.517-1.473 5.35-2.14 8.5-2 2.033.006 3.866.339 5.5 1z"/><path style="opacity:1" fill="#d2c7c7" d="M21.5 50.5c.098 2.053-.569 3.72-2 5v-3c0-1.333.667-2 2-2z"/><path style="opacity:1" fill="#181616" d="M61.5 48.5c1.068-.934 2.401-1.268 4-1v8c-.968-2.107-1.302-4.44-1-7h-3z"/><path style="opacity:1" fill="#d21218" d="M10.5 39.5c3.583.886 7.25 1.886 11 3l2 4c-.346 1.196-.846 1.196-1.5 0 .33 1.519.164 2.852-.5 4-1.333 0-2 .667-2 2l-2 3c-.064-2.04-.23-4.373-.5-7-1.981 1.86-2.981 4.192-3 7-1.65-2.606-3.15-2.606-4.5 0-.768.763-1.268 1.763-1.5 3-.122-1.937-.955-3.27-2.5-4-1.736-5.472-1.07-10.639 2-15.5 1.25-.74 2.25-.574 3 .5z"/><path style="opacity:1" fill="#1c0a09" d="M9.5 46.5c1.44 1.92 1.107 3.587-1 5-.7-1.692-.367-3.358 1-5z"/><path style="opacity:1" fill="#7c544f" d="M33.5 46.5v6a15.416 15.416 0 0 0-4.5 2c-.206-1.405-1.373-2.405-3.5-3 .838-.342 1.172-1.008 1-2 0-.667.333-1 1-1-.172.992.162 1.658 1 2-.065.438.101.772.5 1 1.067-2.192 2.567-3.858 4.5-5z"/><path style="opacity:.45" fill="#878889" d="M89.5 51.5c-1.333 3-1.333 6 0 9 .13.876-.203 1.543-1 2a33.227 33.227 0 0 1-.5-14c1.039.744 1.539 1.744 1.5 3z"/><path style="opacity:1" fill="#684543" d="M207.5 50.5c1.406.473 2.073 1.473 2 3-1.406-.473-2.073-1.473-2-3z"/><path style="opacity:1" fill="#353132" d="M253.5 50.5c.073 1.527-.594 2.527-2 3-.073-1.527.594-2.527 2-3z"/><path style="opacity:1" fill="#dddada" d="M17.5 55.5c-1.126 1.358-1.126 2.692 0 4 1.022-.355 1.689-1.022 2-2 1.846-.278 3.18.389 4 2-1.332 2.333-3.332 3.666-6 4-3.013.393-5.68-.274-8-2v-6c1.35-2.606 2.85-2.606 4.5 0 .019-2.808 1.019-5.14 3-7 .27 2.627.436 4.96.5 7z"/><path style="opacity:1" fill="#393119" d="M35.5 48.5c.904.709 1.237 1.709 1 3-.63 2.25-1.63 4.25-3 6v-5c1.604-.787 2.27-2.12 2-4z"/><path style="opacity:1" fill="#d2d2d2" d="M207.5 50.5c-.073 1.527.594 2.527 2 3 .722.417 1.222 1.084 1.5 2a16.242 16.242 0 0 1 0 8c-5.571 10.34-12.738 11.673-21.5 4-.131-.876.202-1.543 1-2 6.656 5.834 12.489 5.167 17.5-2 1.685-7.64-1.315-11.973-9-13-2.728.057-5.061 1.057-7 3-.484-1.693.016-3.027 1.5-4 1.701-1.234 3.701-1.9 6-2 2.648.963 5.314 1.963 8 3z"/><path style="opacity:1" fill="#3e3b3c" d="M19.5 52.5v5c-.311.978-.978 1.645-2 2-1.126-1.308-1.126-2.642 0-4l2-3z"/><path style="opacity:1" fill="#504f50" d="M231.5 49.5c1.913 2.54 2.246 5.207 1 8l-1-8z"/><path style="opacity:1" fill="#302b2c" d="M251.5 53.5c-1.141 2.049-1.141 4.049 0 6v2c-2.559-2.743-2.559-5.41 0-8z"/><path style="opacity:1" fill="#505657" d="M269.5 46.5a811.099 811.099 0 0 1-3 31c.051 1.6.384 3.1 1 4.5 1.882.198 3.548.698 5 1.5h-7c.357-12.581 1.69-24.914 4-37z"/><path style="opacity:1" fill="#45322d" d="M26.5 58.5h-1c-1-.333-1.667-1-2-2 1.703-3.588 2.703-2.922 3 2z"/><path style="opacity:1" fill="#cececc" d="M25.5 51.5c2.127.595 3.294 1.595 3.5 3a15.416 15.416 0 0 1 4.5-2v3a11.741 11.741 0 0 1-5 3h-2c-.297-4.922-1.297-5.588-3-2-1.67-2.663-1.003-4.33 2-5z"/><path style="opacity:1" fill="#323637" d="M185.5 51.5c1.306 3.187 1.306 6.52 0 10a9.107 9.107 0 0 1-5 1c1.141-.839 2.474-1.506 4-2a21.128 21.128 0 0 0 1-9z"/><path style="opacity:1" fill="#8c3222" d="M5.5 54.5c1.545.73 2.378 2.063 2.5 4 .232-1.237.732-2.237 1.5-3v6c-1.63.128-2.962-.872-4-3 1.186-1.205 1.186-2.539 0-4z"/><path style="opacity:1" fill="#d3c91e" d="M33.5 55.5v2l-5 4v-3a11.741 11.741 0 0 0 5-3z"/><path style="opacity:1" fill="#6f251f" d="M97.5 54.5c.647.774.98 1.774 1 3-.14 1.53-.806 2.53-2 3 .65-1.935.983-3.935 1-6z"/><path style="opacity:1" fill="#363637" d="M132.5 58.5c2.399 1.398 4.066 3.398 5 6-1.463 2.908-3.63 3.575-6.5 2-.718-2.907-.218-5.574 1.5-8zm0 4v3c3.462-.307 3.462-1.307 0-3z"/><path style="opacity:1" fill="#5c211b" d="M223.5 52.5c.664 2.31.997 4.81 1 7.5.196 3.805-.47 7.305-2 10.5.741-5.97 1.075-11.97 1-18z"/><path style="opacity:1" fill="#a6a6a6" d="M252.5 57.5a243.043 243.043 0 0 1 7 19c-.934 1.068-1.268 2.401-1 4a81.916 81.916 0 0 1-10 2c3.063-1.2 6.063-2.7 9-4.5a97.683 97.683 0 0 1-6-16.5v-2c.838-.342 1.172-1.008 1-2z"/><path style="opacity:1" fill="#3a3433" d="M13.5 58.5c2.64 1.294 2.64 2.627 0 4-1.126-1.308-1.126-2.642 0-4z"/><path style="opacity:1" fill="#a6201a" d="M21.5 42.5c1.25.077 2.083.744 2.5 2l1 6c.383-.556.883-.89 1.5-1 .172.992-.162 1.658-1 2-3.003.67-3.67 2.337-2 5 .333 1 1 1.667 2 2a19.242 19.242 0 0 0-1 6c-.992-.172-1.658.162-2 1a24.939 24.939 0 0 1-7-.5c.916-.278 1.582-.778 2-1.5 2.668-.334 4.668-1.667 6-4-.82-1.611-2.154-2.278-4-2v-2c1.431-1.28 2.098-2.947 2-5 .664-1.148.83-2.481.5-4 .654 1.196 1.154 1.196 1.5 0l-2-4z"/><path style="opacity:1" fill="#d5d5d6" d="M32.5 64.5v3c.146 3.888.813 7.554 2 11v2c-.16 1.7.007 3.366.5 5 .69 1.238 1.19 1.238 1.5 0a43.141 43.141 0 0 1 11-2c1.322.17 2.489-.163 3.5-1 .804-3.197.638-6.197-.5-9v-8l12-2h4c.302-2.56-.032-4.893-1-7v-9c-1.599-.268-2.932.066-4 1-3.98.52-7.98.854-12 1v-17c1.291.237 2.291-.096 3-1 2.46-1.031 5.127-1.698 8-2h3a408.406 408.406 0 0 1-1-18 1335.352 1335.352 0 0 0-35 8.5c-2.168 1.97-2.502 4.137-1 6.5v2c.146 2.442-.687 3.11-2.5 2a74.08 74.08 0 0 1-1.5-12 611.978 611.978 0 0 0 41-10c2.078 7.245 2.411 14.579 1 22a46.778 46.778 0 0 1-13 3v14c5.342-1.004 10.675-2.004 16-3a134.174 134.174 0 0 1 1 20 20998.27 20998.27 0 0 1-14 4 3171.613 3171.613 0 0 0-2 16.5 287.68 287.68 0 0 0-19 4.5c-2.432-8.904-3.432-17.904-3-27 .682.743 1.349 1.41 2 2z"/><path style="opacity:1" fill="#222021" d="M60.5 29.5c1.03-1.052 1.697-2.386 2-4a54.842 54.842 0 0 1-1-12 977.187 977.187 0 0 0-33 7.5c-1.692 1.4-2.359 3.234-2 5.5-1.502-2.363-1.168-4.53 1-6.5a1335.352 1335.352 0 0 1 35-8.5c.201 6.009.534 12.009 1 18h-3z"/><path style="opacity:1" fill="#7a3414" d="M26.5 58.5h2v3c-.342.838-1.008 1.172-2 1v-4z"/><path style="opacity:1" fill="#d2b509" d="M25.5 58.5h1v4c-.333 1-1 1.667-2 2 .017-2.065.35-4.065 1-6z"/><path style="opacity:1" fill="#555859" d="M65.5 56.5c.968 2.107 1.302 4.44 1 7h-4c2.59-1.491 3.59-3.825 3-7z"/><path style="opacity:1" fill="#5c2f29" d="M151.5 57.5c1.75 3.683 2.417 7.683 2 12-1.117-3.795-1.783-7.795-2-12z"/><path style="opacity:1" fill="#3c1b19" d="M95.5 62.5c.073 1.527-.594 2.527-2 3-.073-1.527.594-2.527 2-3z"/><path style="opacity:.361" fill="#b1b2b2" d="M261.5 58.5a21.128 21.128 0 0 1-1 9c-.798-.457-1.131-1.124-1-2l2-7z"/><path style="opacity:.31" fill="#b0b1b1" d="M22.5 66.5v-1h4v5c-.934-1.068-1.268-2.401-1-4h-3z"/><path style="opacity:1" fill="#391817" d="M92.5 67.5c.073 1.527-.594 2.527-2 3-.073-1.527.594-2.527 2-3z"/><path style="opacity:1" fill="#443b3a" d="M241.5 75.5c-.972-1.993-2.305-2.326-4-1 2.168-5.434 3.501-5.1 4 1z"/><path style="opacity:1" fill="#5a2c25" d="M32.5 67.5c1.717 3.345 2.384 7.011 2 11-1.187-3.446-1.854-7.112-2-11z"/><path style="opacity:1" fill="#372f30" d="M106.5 75.5c-1-1.333-2-1.333-3 0 1-4 2-4 3 0z"/><path style="opacity:1" fill="#3a1918" d="M177.5 72.5c1.406.473 2.073 1.473 2 3-1.406-.473-2.073-1.473-2-3z"/><path style="opacity:1" fill="#4c2a29" d="M221.5 72.5c.073 1.527-.594 2.527-2 3-.073-1.527.594-2.527 2-3z"/><path style="opacity:1" fill="#5a2c26" d="M153.5 70.5c1.717 3.345 2.384 7.011 2 11-1.187-3.446-1.854-7.112-2-11z"/><path style="opacity:1" fill="#483b3d" d="M179.5 75.5c1.667 1 3 2.333 4 4-2.333-.333-3.667-1.667-4-4z"/><path style="opacity:1" fill="#3c3839" d="M237.5 74.5c.073 1.527-.594 2.527-2 3-.073-1.527.594-2.527 2-3z"/><path style="opacity:1" fill="#4f5556" d="M50.5 73.5c1.138 2.803 1.304 5.803.5 9-1.011.837-2.178 1.17-3.5 1 .672-.767 1.505-1.434 2.5-2 .497-2.646.664-5.313.5-8z"/><path style="opacity:1" fill="#653029" d="M106.5 75.5c1.713 1.135 2.38 2.802 2 5-1.037-1.43-1.704-3.097-2-5z"/><path style="opacity:1" fill="#474d4e" d="M171.5 64.5v17h-3a85.838 85.838 0 0 0 3-17z"/><path style="opacity:1" fill="#524849" d="M219.5 75.5c-.667 2.667-2.333 4.333-5 5 1.333-2 3-3.667 5-5z"/><path style="opacity:1" fill="#e8e8e8" d="M241.5 75.5v1c.296 1.903.963 3.57 2 5 .553 2.052 1.553 2.385 3 1h2a81.916 81.916 0 0 0 10-2c-.268-1.599.066-2.932 1-4 .839 1.141 1.506 2.475 2 4a108.375 108.375 0 0 1-17.5 6c-2.408-2.53-4.075-5.53-5-9a98.874 98.874 0 0 1-7.5 9 36.094 36.094 0 0 1-8.5-5c-.688-.832-.521-1.498.5-2 .917.627 1.917.96 3 1 1.014 1.174 2.347 1.84 4 2 1.832 1.218 2.832.551 3-2 1.406-.473 2.073-1.473 2-3 1.406-.473 2.073-1.473 2-3 1.695-1.326 3.028-.993 4 1z"/><path style="opacity:1" fill="#602d27" d="M241.5 76.5c1.713 1.135 2.38 2.802 2 5-1.037-1.43-1.704-3.097-2-5z"/><path style="opacity:.482" fill="#858688" d="M56.5 71.5c.617 6.098-.05 11.765-2 17a936.527 936.527 0 0 1 2-17z"/><path style="opacity:1" fill="#3f3b3d" d="M235.5 77.5c.073 1.527-.594 2.527-2 3-.073-1.527.594-2.527 2-3z"/><path style="opacity:1" fill="#371716" d="M183.5 79.5c1.527-.073 2.527.594 3 2-1.527.073-2.527-.594-3-2z"/><path style="opacity:1" fill="#402c2b" d="M214.5 80.5c-.473 1.406-1.473 2.073-3 2 .473-1.406 1.473-2.073 3-2z"/><path style="opacity:.149" fill="#c0c1c2" d="M130.5 80.5c.904.709 1.237 1.709 1 3h-3c1.051-.722 1.718-1.722 2-3z"/><path style="opacity:.404" fill="#8e8f8f" d="M177.5 81.5c-.951 1.419-1.284 3.085-1 5h-3c1.306-1.745 2.306-3.745 3-6 .607.124.94.457 1 1z"/><path style="opacity:1" fill="#4c2c2a" d="M186.5 81.5c1.527-.073 2.527.594 3 2-1.527.073-2.527-.594-3-2z"/><path style="opacity:1" fill="#3c3537" d="M233.5 80.5c-.168 2.551-1.168 3.218-3 2l3-2z"/><path style="opacity:1" fill="#1d1b1c" d="M243.5 81.5c.891.61 1.891.943 3 1-1.447 1.385-2.447 1.052-3-1z"/><path style="opacity:1" fill="#4b5252" d="M82.5 61.5c.992 7.482 1.325 15.148 1 23h-15v-9c.71 2.393 1.377 4.893 2 7.5 3.986.499 7.986.665 12 .5v-22z"/><path style="opacity:1" fill="#424647" d="M155.5 82.5c.891.61 1.891.943 3 1-1.447 1.385-2.447 1.052-3-1z"/><path style="opacity:1" fill="#4a4646" d="M280.5 76.5a24.935 24.935 0 0 1-.5 7c-1.943 1.307-3.777 1.307-5.5 0 1.644.213 3.144-.12 4.5-1 .191-2.208.691-4.208 1.5-6z"/><path style="opacity:1" fill="#3a3a3b" d="M34.5 80.5a26.326 26.326 0 0 1 2 5c-.31 1.238-.81 1.238-1.5 0-.493-1.634-.66-3.3-.5-5z"/><path style="opacity:1" fill="#4b2c27" d="M190.5 83.5c5.63.792 11.297 1.125 17 1-4.816 1.15-9.816 1.316-15 .5-.916-.278-1.582-.778-2-1.5z"/><path style="opacity:1" fill="#707172" d="M263.5 77.5v7c1.291-.237 2.291.096 3 1h-4c-.306-2.885.027-5.552 1-8z"/><path style="opacity:.114" fill="#d8d8d8" d="M256.5 86.5c.709-.904 1.709-1.237 3-1v3c-.722-1.051-1.722-1.718-3-2z"/><path style="opacity:.859" fill="#6b6c6d" d="M262.5 88.5c6.226-.112 12.226.554 18 2-6.212-.023-12.212-.69-18-2z"/><path style="opacity:.519" fill="#6f7071" d="M63.5 82.5c.968 2.107 1.302 4.44 1 7 8.204.59 16.204-.076 24-2 .607.124.94.457 1 1-8.4 1.925-17.066 2.591-26 2v-8z"/><path style="opacity:.059" fill="#c3c4c4" d="M149.5 86.5c.934 1.068 1.268 2.401 1 4h4c-1.419.951-3.085 1.284-5 1v-5z"/><path style="opacity:.227" fill="#bfbfc0" d="M285.5 86.5v5c-1.915.284-3.581-.049-5-1h4c-.268-1.599.066-2.932 1-4z"/></svg>