<?xml version="1.0" encoding="UTF-8"?>
<!DOCTYPE svg PUBLIC "-//W3C//DTD SVG 1.1//EN" "http://www.w3.org/Graphics/SVG/1.1/DTD/svg11.dtd">
<svg xmlns="http://www.w3.org/2000/svg" version="1.1" width="247px" height="120px" style="shape-rendering:geometricPrecision; text-rendering:geometricPrecision; image-rendering:optimizeQuality; fill-rule:evenodd; clip-rule:evenodd" xmlns:xlink="http://www.w3.org/1999/xlink">
<g><path style="opacity:1" fill="#fffeff" d="M 7.5,3.5 C 27.4093,3.17361 47.2427,3.50695 67,4.5C 67.8306,10.8595 67.6639,17.1928 66.5,23.5C 53.5497,24.4811 40.5497,24.8145 27.5,24.5C 27.5,30.8333 27.5,37.1667 27.5,43.5C 33.8933,43.2071 40.2266,43.5404 46.5,44.5C 47.81,51.0562 47.81,57.5562 46.5,64C 40.1754,64.4995 33.8421,64.6662 27.5,64.5C 27.6666,80.5035 27.4999,96.5035 27,112.5C 26.5,113.667 25.6667,114.5 24.5,115C 22,115.167 19.5,115.333 17,115.5C 13.4309,115.714 10.0976,115.047 7,113.5C 6.17375,76.762 6.34041,40.0954 7.5,3.5 Z"/></g>
<g><path style="opacity:1" fill="#ffffff" d="M 138.5,3.5 C 145.09,3.189 151.59,3.52234 158,4.5C 158.667,40.8333 158.667,77.1667 158,113.5C 152.351,115.488 146.518,115.988 140.5,115C 139.584,114.626 138.75,114.126 138,113.5C 137.174,76.762 137.34,40.0954 138.5,3.5 Z"/></g>
<g><path style="opacity:1" fill="#ffffff" d="M 164.5,33.5 C 171.2,33.17 177.866,33.5033 184.5,34.5C 190.667,42.1667 196.833,49.8333 203,57.5C 209.619,49.7589 216.119,41.9256 222.5,34C 229.167,33.3333 235.833,33.3333 242.5,34C 245.006,36.549 244.84,39.049 242,41.5C 233.167,52.3333 224.333,63.1667 215.5,74C 225.36,85.5593 234.86,97.3926 244,109.5C 244.711,111.367 244.211,112.867 242.5,114C 236.277,115.581 229.944,115.915 223.5,115C 216.667,106.833 209.833,98.6667 203,90.5C 196.62,98.7578 190.12,106.924 183.5,115C 177.833,115.667 172.167,115.667 166.5,115C 162.81,114.31 161.643,112.143 163,108.5C 172.167,97 181.333,85.5 190.5,74C 181.213,62.5912 172.046,51.0912 163,39.5C 162.252,37.1599 162.752,35.1599 164.5,33.5 Z"/></g>
<g><path style="opacity:0.922" fill="#e38695" d="M 106.5,35.5 C 108.09,35.6282 109.423,36.2949 110.5,37.5C 109.725,39.3964 108.725,41.063 107.5,42.5C 107.421,41.0695 107.754,39.7362 108.5,38.5C 107.388,37.7348 106.721,36.7348 106.5,35.5 Z"/></g>
<g><path style="opacity:0.995" fill="#dd2a4f" d="M 106.5,35.5 C 106.721,36.7348 107.388,37.7348 108.5,38.5C 107.754,39.7362 107.421,41.0695 107.5,42.5C 104.066,46.5057 100.732,50.6724 97.5,55C 77.9791,55.2095 70.1457,65.0429 74,84.5C 71.1667,88 68.3333,91.5 65.5,95C 66.1667,95.6667 66.8333,95.6667 67.5,95C 70.3805,91.7829 73.5471,88.9495 77,86.5C 88.7354,96.5425 99.4021,95.5425 109,83.5C 112.732,75.7566 112.065,68.4233 107,61.5C 106.333,60.1667 106.333,58.8333 107,57.5C 111.418,53.2788 116.085,49.2788 121,45.5C 125.516,48.8356 128.849,53.169 131,58.5C 138.713,87.7312 128.213,106.565 99.5,115C 65.9338,115.435 50.1005,98.9349 52,65.5C 59.7045,40.7165 76.5379,30.2165 102.5,34C 103.901,34.4101 105.234,34.9101 106.5,35.5 Z"/></g>
</svg>
