<?xml version="1.0" encoding="UTF-8"?>
<!DOCTYPE svg PUBLIC "-//W3C//DTD SVG 1.1//EN" "http://www.w3.org/Graphics/SVG/1.1/DTD/svg11.dtd">
<svg xmlns="http://www.w3.org/2000/svg" version="1.1" width="1024px" height="319px" style="shape-rendering:geometricPrecision; text-rendering:geometricPrecision; image-rendering:optimizeQuality; fill-rule:evenodd; clip-rule:evenodd" xmlns:xlink="http://www.w3.org/1999/xlink">
<g><path style="opacity:1" fill="#bc1a13" d="M 140.5,-0.5 C 152.833,-0.5 165.167,-0.5 177.5,-0.5C 228.619,6.80457 268.119,32.1379 296,75.5C 321.099,120.17 325.433,166.837 309,215.5C 289.203,264.63 254.037,297.13 203.5,313C 194.763,315.179 186.097,317.012 177.5,318.5C 165.167,318.5 152.833,318.5 140.5,318.5C 73.7432,307.583 28.9098,270.249 6,206.5C 3.32406,196.81 1.15739,187.143 -0.5,177.5C -0.5,165.167 -0.5,152.833 -0.5,140.5C 7.52917,86.3136 35.1958,45.4803 82.5,18C 100.896,8.47751 120.229,2.31084 140.5,-0.5 Z"/></g>
<g><path style="opacity:1" fill="#ffffff" d="M 396.5,47.5 C 412.837,47.3334 429.17,47.5001 445.5,48C 447.766,51.5783 448.1,55.4117 446.5,59.5C 433.183,60.4992 419.85,60.8325 406.5,60.5C 406.5,71.8333 406.5,83.1667 406.5,94.5C 418.838,94.3335 431.171,94.5001 443.5,95C 446.167,99 446.167,103 443.5,107C 431.171,107.5 418.838,107.667 406.5,107.5C 406.5,122.5 406.5,137.5 406.5,152.5C 401.475,154.16 396.641,153.827 392,151.5C 391.333,118.167 391.333,84.8333 392,51.5C 392.907,49.3909 394.407,48.0576 396.5,47.5 Z"/></g>
<g><path style="opacity:1" fill="#ffffff" d="M 470.5,47.5 C 481.505,47.3335 492.505,47.5002 503.5,48C 528.834,52.1616 537.001,66.3283 528,90.5C 524.009,95.8113 518.843,99.6447 512.5,102C 519.498,106.347 524.331,112.513 527,120.5C 530.529,128.754 533.862,137.087 537,145.5C 538.722,151.465 536.555,154.132 530.5,153.5C 527.612,153.615 524.945,152.948 522.5,151.5C 517.885,138.937 512.718,126.603 507,114.5C 500.509,107.094 492.342,104.428 482.5,106.5C 482.667,121.504 482.5,136.504 482,151.5C 477.315,154.061 472.648,154.061 468,151.5C 467.333,117.833 467.333,84.1667 468,50.5C 468.698,49.3094 469.531,48.3094 470.5,47.5 Z M 482.5,60.5 C 491.347,59.8739 500.014,60.7072 508.5,63C 515.553,69.1375 517.386,76.6375 514,85.5C 510.687,90.2386 506.187,93.0719 500.5,94C 494.509,94.4995 488.509,94.6662 482.5,94.5C 482.5,83.1667 482.5,71.8333 482.5,60.5 Z"/></g>
<g><path style="opacity:1" fill="#ffffff" d="M 583.5,47.5 C 588.511,47.3341 593.511,47.5007 598.5,48C 599.333,48.8333 600.167,49.6667 601,50.5C 612.973,83.613 624.806,116.78 636.5,150C 636.241,151.261 635.574,152.261 634.5,153C 629.771,153.996 625.271,153.496 621,151.5C 617.735,143.206 614.568,134.872 611.5,126.5C 597.512,125.334 583.512,125.167 569.5,126C 566.142,134.406 562.975,142.906 560,151.5C 555.298,153.913 550.631,153.913 546,151.5C 546.689,146.417 548.022,141.417 550,136.5C 560.53,107.91 570.864,79.2429 581,50.5C 581.698,49.3094 582.531,48.3094 583.5,47.5 Z M 589.5,65.5 C 590.497,65.4701 591.164,65.9701 591.5,67C 596.943,82.4977 602.277,97.9977 607.5,113.5C 596.147,113.832 584.814,113.499 573.5,112.5C 579.24,96.9471 584.573,81.2804 589.5,65.5 Z"/></g>
<g><path style="opacity:1" fill="#ffffff" d="M 761.5,47.5 C 765.584,47.0431 769.417,47.7098 773,49.5C 773.333,64.5 773.667,79.5 774,94.5C 785.787,79.0445 797.954,63.8778 810.5,49C 815.47,46.8476 820.304,47.0143 825,49.5C 825.52,51.2889 825.187,52.9556 824,54.5C 812.136,68.4096 800.636,82.5763 789.5,97C 801.629,114.083 814.129,130.917 827,147.5C 827.138,149.432 826.638,151.266 825.5,153C 821.167,153.667 816.833,153.667 812.5,153C 799.301,136.101 786.468,118.935 774,101.5C 773.833,118.51 773.333,135.51 772.5,152.5C 768.167,153.833 763.833,153.833 759.5,152.5C 758.5,117.84 758.167,83.1731 758.5,48.5C 759.791,48.7373 760.791,48.404 761.5,47.5 Z"/></g>
<g><path style="opacity:1" fill="#ffffff" d="M 847.5,47.5 C 864.837,47.3334 882.17,47.5001 899.5,48C 901.523,51.1831 902.023,54.6831 901,58.5C 900.5,59 900,59.5 899.5,60C 885.837,60.4999 872.171,60.6666 858.5,60.5C 858.5,71.1667 858.5,81.8333 858.5,92.5C 870.505,92.3335 882.505,92.5001 894.5,93C 895.833,96.6667 895.833,100.333 894.5,104C 882.505,104.5 870.505,104.667 858.5,104.5C 858.5,116.5 858.5,128.5 858.5,140.5C 872.504,140.333 886.504,140.5 900.5,141C 902.731,144.659 903.064,148.493 901.5,152.5C 882.83,152.667 864.164,152.5 845.5,152C 845,151.5 844.5,151 844,150.5C 843.333,117.167 843.333,83.8333 844,50.5C 845.145,49.3636 846.312,48.3636 847.5,47.5 Z"/></g>
<g><path style="opacity:1" fill="#ffffff" d="M 654.5,48.5 C 659.844,48.334 665.177,48.5006 670.5,49C 672.286,49.7845 673.786,50.9512 675,52.5C 689.43,77.6907 703.097,103.357 716,129.5C 716.333,102.833 716.667,76.1667 717,49.5C 721.667,48.1667 726.333,48.1667 731,49.5C 731.667,82.8333 731.667,116.167 731,149.5C 730.626,150.416 730.126,151.25 729.5,152C 721.891,154.911 715.391,153.411 710,147.5C 694.888,120.944 680.555,93.9439 667,66.5C 666.833,95.1725 666.333,123.839 665.5,152.5C 661.302,153.809 657.136,153.809 653,152.5C 652.333,118.5 652.333,84.5 653,50.5C 653.717,49.9558 654.217,49.2891 654.5,48.5 Z"/></g>
<g><path style="opacity:1" fill="#ffffff" d="M 926.5,48.5 C 931.844,48.334 937.177,48.5006 942.5,49C 944.286,49.7845 945.786,50.9512 947,52.5C 961.176,78.1842 974.843,104.184 988,130.5C 988.333,103.5 988.667,76.5 989,49.5C 993.667,48.1667 998.333,48.1667 1003,49.5C 1003.67,82.8333 1003.67,116.167 1003,149.5C 1002.63,150.416 1002.13,151.25 1001.5,152C 994.853,154.399 988.686,153.565 983,149.5C 967.824,122.485 953.158,95.1515 939,67.5C 938.833,95.8392 938.333,124.173 937.5,152.5C 933.167,153.833 928.833,153.833 924.5,152.5C 923.333,119.172 923.167,85.8383 924,52.5C 924.662,51.0161 925.496,49.6828 926.5,48.5 Z"/></g>
<g><path style="opacity:1" fill="#fefcfc" d="M 75.5,77.5 C 136.501,77.3333 197.501,77.5 258.5,78C 261,79.1667 262.833,81 264,83.5C 264.667,95.1667 264.667,106.833 264,118.5C 263.167,122 261,124.167 257.5,125C 197.167,125.667 136.833,125.667 76.5,125C 74.3762,123.878 72.5429,122.378 71,120.5C 70.3333,107.833 70.3333,95.1667 71,82.5C 72.025,80.313 73.525,78.6464 75.5,77.5 Z"/></g>
<g><path style="opacity:1" fill="#fefefe" d="M 74.5,142.5 C 115.835,142.333 157.168,142.5 198.5,143C 199.667,144.167 200.833,145.333 202,146.5C 202.667,159.167 202.667,171.833 202,184.5C 201.167,186.667 199.667,188.167 197.5,189C 156.833,189.667 116.167,189.667 75.5,189C 73.3333,188.167 71.8333,186.667 71,184.5C 70.3333,171.833 70.3333,159.167 71,146.5C 72.3756,145.295 73.5423,143.962 74.5,142.5 Z"/></g>
<g><path style="opacity:1" fill="#ffffff" d="M 455.5,171.5 C 618.5,171.333 781.5,171.5 944.5,172C 964.508,172.445 984.508,173.111 1004.5,174C 978.883,175.747 953.216,176.747 927.5,177C 775.5,177.667 623.5,177.667 471.5,177C 446.118,176.732 420.784,175.732 395.5,174C 415.665,173.275 435.665,172.442 455.5,171.5 Z"/></g>
<g><path style="opacity:1" fill="#ffffff" d="M 684.5,192.5 C 693.589,191.417 702.089,193.084 710,197.5C 710.808,199.423 711.308,201.423 711.5,203.5C 711.695,205.725 710.861,207.391 709,208.5C 702.202,203.789 694.702,201.956 686.5,203C 678.654,206.224 676.487,211.724 680,219.5C 687.424,225.467 695.591,230.3 704.5,234C 711.902,237.972 715.236,244.139 714.5,252.5C 713.671,270.373 704.171,279.04 686,278.5C 677.772,278.756 670.438,276.423 664,271.5C 663.333,268.5 663.333,265.5 664,262.5C 664.561,261.978 665.228,261.645 666,261.5C 670.819,264.441 675.985,266.608 681.5,268C 692.991,270.763 700.324,266.596 703.5,255.5C 702.919,251.755 701.253,248.588 698.5,246C 690.005,241.587 681.672,236.92 673.5,232C 662.698,220.011 663.032,208.344 674.5,197C 677.815,195.17 681.149,193.67 684.5,192.5 Z"/></g>
<g><path style="opacity:1" fill="#ffffff" d="M 798.5,192.5 C 800.861,192.674 803.194,193.007 805.5,193.5C 805.5,205.167 805.5,216.833 805.5,228.5C 817.833,228.5 830.167,228.5 842.5,228.5C 842.333,217.162 842.5,205.828 843,194.5C 846.384,192.114 849.884,191.947 853.5,194C 854.162,207.76 854.496,221.594 854.5,235.5C 854.496,249.406 854.162,263.24 853.5,277C 849.846,279.14 846.346,278.973 843,276.5C 842.5,264.171 842.333,251.838 842.5,239.5C 830.167,239.5 817.833,239.5 805.5,239.5C 805.5,252.167 805.5,264.833 805.5,277.5C 801.817,278.675 798.15,278.675 794.5,277.5C 794.5,249.5 794.5,221.5 794.5,193.5C 796.099,193.768 797.432,193.434 798.5,192.5 Z"/></g>
<g><path style="opacity:1" fill="#ffffff" d="M 391.5,193.5 C 405.412,193.177 419.246,193.51 433,194.5C 433.777,197.429 433.61,200.263 432.5,203C 421.839,203.5 411.172,203.667 400.5,203.5C 400.5,212.833 400.5,222.167 400.5,231.5C 410.833,231.5 421.167,231.5 431.5,231.5C 431.784,234.777 431.451,237.943 430.5,241C 420.506,241.5 410.506,241.666 400.5,241.5C 400.5,253.5 400.5,265.5 400.5,277.5C 396.817,278.675 393.15,278.675 389.5,277.5C 389.333,250.165 389.5,222.831 390,195.5C 390.717,194.956 391.217,194.289 391.5,193.5 Z"/></g>
<g><path style="opacity:1" fill="#ffffff" d="M 451.5,193.5 C 465.837,193.333 480.171,193.5 494.5,194C 496.666,196.989 496.999,200.155 495.5,203.5C 484.167,203.5 472.833,203.5 461.5,203.5C 461.5,211.833 461.5,220.167 461.5,228.5C 471.172,228.334 480.839,228.5 490.5,229C 491.833,232 491.833,235 490.5,238C 480.839,238.5 471.172,238.666 461.5,238.5C 461.5,248.167 461.5,257.833 461.5,267.5C 473.167,267.5 484.833,267.5 496.5,267.5C 496.74,270.579 496.407,273.579 495.5,276.5C 480.845,277.666 466.178,277.833 451.5,277C 451,276.5 450.5,276 450,275.5C 449.333,248.833 449.333,222.167 450,195.5C 450.717,194.956 451.217,194.289 451.5,193.5 Z"/></g>
<g><path style="opacity:1" fill="#ffffff" d="M 587.5,193.5 C 591.514,193.334 595.514,193.501 599.5,194C 600.931,194.465 602.097,195.299 603,196.5C 614.509,216.849 625.509,237.516 636,258.5C 636.333,237.167 636.667,215.833 637,194.5C 640.667,193.167 644.333,193.167 648,194.5C 648.667,221.167 648.667,247.833 648,274.5C 647.167,275.333 646.333,276.167 645.5,277C 639.924,278.472 635.091,277.305 631,273.5C 619.157,252.484 607.824,231.15 597,209.5C 596.833,232.174 596.333,254.841 595.5,277.5C 591.81,278.996 588.31,278.663 585,276.5C 584.333,249.833 584.333,223.167 585,196.5C 586.045,195.627 586.878,194.627 587.5,193.5 Z"/></g>
<g><path style="opacity:1" fill="#ffffff" d="M 731.5,193.5 C 745.837,193.333 760.171,193.5 774.5,194C 776.594,196.634 776.927,199.467 775.5,202.5C 764.186,203.499 752.853,203.832 741.5,203.5C 741.5,211.833 741.5,220.167 741.5,228.5C 751.172,228.334 760.839,228.5 770.5,229C 771.795,231.801 771.795,234.634 770.5,237.5C 760.856,238.498 751.19,238.832 741.5,238.5C 741.5,248.167 741.5,257.833 741.5,267.5C 753.167,267.5 764.833,267.5 776.5,267.5C 776.784,270.777 776.451,273.943 775.5,277C 760.833,277.667 746.167,277.667 731.5,277C 731,276.5 730.5,276 730,275.5C 729.333,248.833 729.333,222.167 730,195.5C 730.717,194.956 731.217,194.289 731.5,193.5 Z"/></g>
<g><path style="opacity:1" fill="#ffffff" d="M 877.5,193.5 C 891.837,193.333 906.171,193.5 920.5,194C 922.666,196.989 922.999,200.155 921.5,203.5C 910.167,203.5 898.833,203.5 887.5,203.5C 887.5,211.833 887.5,220.167 887.5,228.5C 897.19,228.168 906.856,228.502 916.5,229.5C 917.833,232.167 917.833,234.833 916.5,237.5C 906.856,238.498 897.19,238.832 887.5,238.5C 887.5,248.167 887.5,257.833 887.5,267.5C 898.838,267.333 910.172,267.5 921.5,268C 922.795,270.801 922.795,273.634 921.5,276.5C 906.845,277.666 892.178,277.833 877.5,277C 877,276.5 876.5,276 876,275.5C 875.333,248.833 875.333,222.167 876,195.5C 876.717,194.956 877.217,194.289 877.5,193.5 Z"/></g>
<g><path style="opacity:1" fill="#ffffff" d="M 942.5,193.5 C 946.514,193.334 950.514,193.501 954.5,194C 955.416,194.374 956.25,194.874 957,195.5C 968.588,216.341 979.921,237.341 991,258.5C 991.333,237.167 991.667,215.833 992,194.5C 995.667,193.167 999.333,193.167 1003,194.5C 1003.67,220.833 1003.67,247.167 1003,273.5C 1002.53,274.931 1001.7,276.097 1000.5,277C 994.306,278.711 989.14,277.211 985,272.5C 974,251.833 963,231.167 952,210.5C 951.667,232.5 951.333,254.5 951,276.5C 947.69,278.663 944.19,278.996 940.5,277.5C 939.333,250.506 939.167,223.506 940,196.5C 940.698,195.309 941.531,194.309 942.5,193.5 Z"/></g>
<g><path style="opacity:1" fill="#ffffff" d="M 514.5,194.5 C 525.505,194.333 536.505,194.5 547.5,195C 562.305,200.108 567.472,210.275 563,225.5C 560.019,231.08 555.519,234.913 549.5,237C 553.481,240.109 556.648,243.942 559,248.5C 563.205,257.952 566.705,267.619 569.5,277.5C 565.149,279.143 560.982,278.81 557,276.5C 553.276,266.719 549.276,257.052 545,247.5C 539.667,242.124 533.167,239.791 525.5,240.5C 525.667,252.505 525.5,264.505 525,276.5C 521.558,278.733 517.892,279.067 514,277.5C 513.176,249.761 513.343,222.095 514.5,194.5 Z M 525.5,203.5 C 531.925,203.13 538.258,203.63 544.5,205C 549.404,207.467 552.071,211.467 552.5,217C 551.624,224.21 547.624,228.543 540.5,230C 535.511,230.499 530.511,230.666 525.5,230.5C 525.5,221.5 525.5,212.5 525.5,203.5 Z"/></g>
<g><path style="opacity:1" fill="#fefcfc" d="M 74.5,206.5 C 93.2599,206.026 111.927,206.526 130.5,208C 132.049,209.214 133.215,210.714 134,212.5C 134.959,224.929 134.626,237.263 133,249.5C 131.833,250.667 130.667,251.833 129.5,253C 111.167,253.667 92.8333,253.667 74.5,253C 72.6217,251.457 71.1217,249.624 70,247.5C 69.3333,235.833 69.3333,224.167 70,212.5C 71.332,210.34 72.832,208.34 74.5,206.5 Z"/></g>
</svg>
