<?xml version="1.0" encoding="UTF-8"?>
<!DOCTYPE svg PUBLIC "-//W3C//DTD SVG 1.1//EN" "http://www.w3.org/Graphics/SVG/1.1/DTD/svg11.dtd">
<svg xmlns="http://www.w3.org/2000/svg" version="1.1" width="850px" height="850px" style="shape-rendering:geometricPrecision; text-rendering:geometricPrecision; image-rendering:optimizeQuality; fill-rule:evenodd; clip-rule:evenodd" xmlns:xlink="http://www.w3.org/1999/xlink">
<g><path style="opacity:1" fill="#ffffff" d="M 201.5,-0.5 C 299.5,-0.5 397.5,-0.5 495.5,-0.5C 596.576,10.7252 658.743,66.0585 682,165.5C 684.757,177.711 686.757,190.044 688,202.5C 688.5,335.166 688.667,467.833 688.5,600.5C 739.168,600.333 789.834,600.5 840.5,601C 844.66,602.662 847.66,605.495 849.5,609.5C 849.5,632.833 849.5,656.167 849.5,679.5C 847.434,684.221 843.767,687.055 838.5,688C 788.501,688.5 738.501,688.667 688.5,688.5C 688.667,739.168 688.5,789.834 688,840.5C 686.338,844.66 683.505,847.66 679.5,849.5C 656.167,849.5 632.833,849.5 609.5,849.5C 604.779,847.434 601.945,843.767 601,838.5C 600.5,788.501 600.333,738.501 600.5,688.5C 465.166,688.667 329.833,688.5 194.5,688C 106.192,680.8 46.359,635.966 15,553.5C 7.43412,531.58 2.26745,509.247 -0.5,486.5C -0.5,388.5 -0.5,290.5 -0.5,192.5C 9.62415,96.8668 60.9575,35.7001 153.5,9C 169.424,4.71484 185.424,1.54817 201.5,-0.5 Z M 153.5,108.5 C 280.5,108.333 407.5,108.5 534.5,109C 541.541,109.707 545.707,113.541 547,120.5C 547.667,161.5 547.667,202.5 547,243.5C 545.082,250.22 540.582,253.72 533.5,254C 450.834,254.5 368.167,254.667 285.5,254.5C 285.5,276.167 285.5,297.833 285.5,319.5C 342.892,319.012 400.226,319.512 457.5,321C 461.867,323.555 464.367,327.388 465,332.5C 465.667,372.5 465.667,412.5 465,452.5C 464.043,458.127 460.876,461.96 455.5,464C 398.834,464.5 342.168,464.667 285.5,464.5C 285.667,499.168 285.5,533.835 285,568.5C 283.932,573.235 281.099,576.402 276.5,578C 234.167,578.667 191.833,578.667 149.5,578C 146.063,576.895 143.563,574.728 142,571.5C 140.338,420.556 140.005,269.556 141,118.5C 143.432,112.882 147.599,109.549 153.5,108.5 Z"/></g>
</svg>
