<svg xmlns="http://www.w3.org/2000/svg" width="439" height="439" style="shape-rendering:geometricPrecision;text-rendering:geometricPrecision;image-rendering:optimizeQuality;fill-rule:evenodd;clip-rule:evenodd"><path style="opacity:1" fill="#0f4194" d="M70.5-.5h368v368h-368V-.5z"/><path style="opacity:.004" fill="#fdfff8" d="M64.5 23.5c1.333.667 1.333.667 0 0zM64.5 54.5c1.333.667 1.333.667 0 0z"/><path style="opacity:.012" fill="#fcfff8" d="M64.5 64.5c1.025.397 1.192 1.063.5 2a2.428 2.428 0 0 1-.5-2z"/><path style="opacity:.42" fill="#7a8391" d="M69.5-.5h1v71h-71v-1h70v-70z"/><path style="opacity:1" fill="#1d1d1b" d="M-.5 70.5h71v273a118.437 118.437 0 0 1-16 1v33c9.688.043 19.355.543 29 1.5 5.557 1.504 7.39 5.004 5.5 10.5a25.154 25.154 0 0 1-4.5 4l-3 1.5c4.189.812 8.189.645 12-.5 2.179-.34 4.012-1.34 5.5-3 2.343-5.102 3.01-10.436 2-16-1.385-2.886-3.551-4.886-6.5-6 91.165-.999 182.498-1.333 274-1v15c-.302 2.559.032 4.893 1 7v48H-.5v-368z"/><path style="opacity:1" fill="#f9fafb" d="M251.5 117.5v8c-2.235-.295-4.235.039-6 1-.801 1.542-1.134 3.208-1 5h7v9h-7v27h-11v-27h-4v-9h4c.071-11.746 6.071-16.413 18-14z"/><path style="opacity:1" fill="#5d7db4" d="M251.5 117.5c.977 2.787 1.31 5.787 1 9h-7c1.765-.961 3.765-1.295 6-1v-8z"/><path style="opacity:1" fill="#f7f9fa" d="M286.5 130.5c6.561-.581 12.895.252 19 2.5l3.5 3.5c.5 10.328.666 20.661.5 31h-10a12.93 12.93 0 0 0-.5-5c-7.114 7.499-14.447 7.832-22 1-2.891-6.397-1.391-11.564 4.5-15.5a46.166 46.166 0 0 1 17-3.5c-.376-6.695-3.71-8.528-10-5.5-.837 1.011-1.17 2.178-1 3.5h-10c.107-6.23 3.107-10.23 9-12z"/><path style="opacity:1" fill="#fcfdfd" d="M332.5 130.5c6.09-1.363 10.59.637 13.5 6 .5 10.328.666 20.661.5 31h-10c.326-8.184-.008-16.184-1-24 .148-2.852-1.186-4.519-4-5-2.604.769-4.438 2.436-5.5 5-.5 7.993-.666 15.993-.5 24h-10v-36h9a12.93 12.93 0 0 0 .5 5c.717-.544 1.217-1.211 1.5-2 1.302-2.322 3.302-3.655 6-4z"/><path style="opacity:1" fill="#f8fafb" d="M350.5 156.5c-.523-6.218.144-12.218 2-18 5.083-7.53 12.083-10.03 21-7.5 6.803 1.967 10.469 6.467 11 13.5a25.879 25.879 0 0 1-10-1c-1.639-4.153-4.639-5.653-9-4.5a6.978 6.978 0 0 0-2.5 3.5c-.888 5.118-.555 10.118 1 15 3.199 2.629 6.199 2.296 9-1a4.934 4.934 0 0 0 .5-3h11c-2.428 12.058-9.761 16.891-22 14.5-5.85-2.019-9.85-5.852-12-11.5z"/><path style="opacity:1" fill="#f5f7f9" d="M397.5 130.5c16.189-2.136 24.189 4.864 24 21h-23c-.205 8.303 3.461 10.803 11 7.5a29.517 29.517 0 0 0 2.5-4.5c3.129.63 6.296 1.296 9.5 2-5.288 10.642-13.622 14.142-25 10.5-8.524-5.563-11.691-13.396-9.5-23.5 1.625-5.953 5.125-10.286 10.5-13z"/><path style="opacity:1" fill="#fcfdfd" d="M255.5 167.5v-36h9a12.93 12.93 0 0 0 .5 5c.717-.544 1.217-1.211 1.5-2 .011-1.517.677-2.684 2-3.5a18.453 18.453 0 0 1 6-.5v11c-4.592-.584-7.425 1.416-8.5 6-.5 6.658-.666 13.325-.5 20h-10z"/><path style="opacity:1" fill="#becbe2" d="M326.5 134.5c-.283.789-.783 1.456-1.5 2a12.93 12.93 0 0 1-.5-5h-9v36a342.787 342.787 0 0 1-1-37h11c-.268 1.599.066 2.932 1 4z"/><path style="opacity:1" fill="#2a519d" d="M352.5 138.5c-1.856 5.782-2.523 11.782-2 18-.666-4.849-1.333-9.849-2-15a9381.372 9381.372 0 0 1-2 26c.166-10.339 0-20.672-.5-31-2.91-5.363-7.41-7.363-13.5-6 3.408-.52 6.741-1.52 10-3a29.825 29.825 0 0 1 5 2c-1.109 1.465-.609 2.465 1.5 3 .421 2.52 1.588 4.52 3.5 6z"/><path style="opacity:1" fill="#bdcce2" d="M266.5 134.5c-.283.789-.783 1.456-1.5 2a12.93 12.93 0 0 1-.5-5h-9v36a342.787 342.787 0 0 1-1-37h11c-.268 1.599.066 2.932 1 4z"/><path style="opacity:1" fill="#144293" d="M401.5 137.5c5.688-.969 8.688 1.364 9 7h-12c.188-2.706 1.188-5.039 3-7z"/><path style="opacity:1" fill="#7995c3" d="M335.5 143.5c.992 7.816 1.326 15.816 1 24h10c-3.462.982-7.129 1.315-11 1v-25z"/><path style="opacity:1" fill="#fcfcfd" d="M118.5 148.5c-.167 16.337 0 32.67.5 49 .717-.544 1.217-1.211 1.5-2 7.282-11.258 17.615-15.425 31-12.5 16.208 3.876 26.041 14.043 29.5 30.5 4.043 18.309 3.043 36.309-3 54-9.805 18.817-25.305 26.317-46.5 22.5-8.611-3.108-15.278-8.608-20-16.5-3.395 4.454-5.395 9.454-6 15h-17v-141c10.18-.327 20.181.006 30 1z"/><path style="opacity:1" fill="#fafbfc" d="M189.5 147.5a237.256 237.256 0 0 1 30.5 1c.5 46.665.667 93.332.5 140h-31v-141z"/><path style="opacity:1" fill="#4d6faf" d="m118.5 148.5 2 47c-.283.789-.783 1.456-1.5 2-.5-16.33-.667-32.663-.5-49z"/><path style="opacity:1" fill="#194596" d="M294.5 150.5h4c.921 5.84-1.413 9.507-7 11-3.647-.986-4.814-3.319-3.5-7 1.792-2.128 3.958-3.461 6.5-4z"/><path style="opacity:1" fill="#fbfcfd" d="M266.5 182.5c40.426-1.241 60.426 18.426 60 59h-67c-1.304 22.555 8.696 30.722 30 24.5 4.839-3.173 7.506-7.673 8-13.5a495.158 495.158 0 0 0 28 2c-7.17 24.137-23.503 36.137-49 36-27.768-1.263-44.268-15.597-49.5-43-3.246-22.605 3.588-41.438 20.5-56.5 5.953-3.919 12.286-6.752 19-8.5z"/><path style="opacity:1" fill="#fcfdfd" d="M332.5 184.5h31c-.167 24.669 0 49.336.5 74 4.401 8.505 10.901 10.338 19.5 5.5 4.166-3.165 6.666-7.332 7.5-12.5.5-22.331.667-44.664.5-67h30v104h-28a128.507 128.507 0 0 0-.5-16c-4.082 9.084-10.915 14.917-20.5 17.5-22.312 4.446-35.479-4.388-39.5-26.5-.5-26.331-.667-52.665-.5-79z"/><path style="opacity:1" fill="#124294" d="M272.5 202.5c15.645-1.687 23.312 5.313 23 21h-36c.062-9.815 4.395-16.815 13-21z"/><path style="opacity:1" fill="#104194" d="M130.5 203.5c11.41-1.215 18.244 3.785 20.5 15 .92 12.724.586 25.39-1 38-4.548 12.626-12.715 15.793-24.5 9.5-2.963-2.875-4.796-6.375-5.5-10.5a361.07 361.07 0 0 1 0-38c1.359-6.43 4.859-11.097 10.5-14z"/><path style="opacity:1" fill="#8ca5cb" d="M265.5 300.5v49h10v-49a625.298 625.298 0 0 1 1 50h-12a625.298 625.298 0 0 1 1-50z"/><path style="opacity:1" fill="#fefefd" d="M265.5 300.5h10v49h-10v-49z"/><path style="opacity:1" fill="#f3f5f8" d="M239.5 312.5a53.069 53.069 0 0 1 14 1.5 17.842 17.842 0 0 1 5.5 4.5 183.938 183.938 0 0 1 1.5 32h-11a12.93 12.93 0 0 0-.5-5c-4.491 4.759-9.991 6.259-16.5 4.5-5.612-3.231-7.445-8.064-5.5-14.5 2.543-4.362 6.377-6.862 11.5-7.5a50.464 50.464 0 0 1 10-.5c.558-7.056-2.442-9.223-9-6.5a32.367 32.367 0 0 1-3 4.5 23.832 23.832 0 0 0-9-1 10.098 10.098 0 0 1 1.5-6c3.069-2.946 6.569-4.946 10.5-6z"/><path style="opacity:1" fill="#f5f7f9" d="M289.5 312.5a45.564 45.564 0 0 1 14 1.5c8.38 5.212 8.213 8.712-.5 10.5-1.889-2.885-4.556-4.552-8-5-2.37.1-4.203 1.1-5.5 3a7.248 7.248 0 0 0 2 2.5l14 3c6.13 4.073 7.63 9.573 4.5 16.5-2.1 2.967-4.934 4.8-8.5 5.5a49.226 49.226 0 0 1-14 0c-5.027-1.853-8.027-5.353-9-10.5a29.2 29.2 0 0 0 7.5-1c2.131 1.04 3.964 2.54 5.5 4.5 3.134.79 6.134.457 9-1 .88-1.356 1.214-2.856 1-4.5a74.478 74.478 0 0 1-15-2.5c-7.2-4.37-8.7-10.203-4.5-17.5 2.426-1.952 4.926-3.619 7.5-5z"/><path style="opacity:1" fill="#f7f9fa" d="M347.5 346.5v3h-10c.262-1.478-.071-2.811-1-4-1.049 1.716-2.382 3.049-4 4-5.617 1.747-10.951 1.247-16-1.5-5.524-10.295-2.524-16.962 9-20a60.931 60.931 0 0 1 11-.5c.32-6.497-2.68-8.664-9-6.5-3.279 3.101-7.279 4.268-12 3.5.564-6.074 3.897-9.908 10-11.5 6.69-1.15 13.024-.15 19 3a6.978 6.978 0 0 1 2.5 3.5c.5 8.994.666 17.994.5 27zM363.5 312.5c9.241-1.295 16.075 2.038 20.5 10a8.43 8.43 0 0 1 .5 4c-3.307.551-6.64.884-10 1-.367-5.656-3.367-7.489-9-5.5-3.422 5.484-3.922 11.318-1.5 17.5 5.423 3.52 8.923 2.187 10.5-4 3.36.116 6.693.449 10 1-.501 7.008-4.168 11.508-11 13.5-17.771 1.556-25.271-6.611-22.5-24.5 2.353-6.185 6.52-10.518 12.5-13zM399.5 312.5c15.03-.968 22.696 6.032 23 21h-24c-.457 7.38 2.876 10.213 10 8.5 1.532-.7 2.532-1.866 3-3.5a25.879 25.879 0 0 1 10-1c-.951 6.456-4.617 10.623-11 12.5-18.322 1.335-25.822-7.165-22.5-25.5 1.993-5.825 5.826-9.825 11.5-12z"/><path style="opacity:1" fill="#164395" d="M410.5 323.5v3c-4.149.58-7.816-.086-11-2 1.088-4.248 3.755-5.748 8-4.5a14.698 14.698 0 0 1 3 3.5z"/><path style="opacity:1" fill="#5678b2" d="M410.5 323.5c.934 1.068 1.268 2.401 1 4h-13c-.237-1.291.096-2.291 1-3 3.184 1.914 6.851 2.58 11 2v-3z"/><path style="opacity:1" fill="#174495" d="M241.5 333.5h7c1.105 7.37-1.895 10.537-9 9.5-1.304-.804-1.971-1.971-2-3.5a18.196 18.196 0 0 1 4-6z"/><path style="opacity:1" fill="#194595" d="M332.5 332.5h4c.1 3.167-.567 6.167-2 9-2.628 2.133-5.461 2.466-8.5 1-1.258-5.573.909-8.907 6.5-10z"/><path style="opacity:1" fill="#f9fafa" d="M70.5 343.5v24h20c1.171.845 2.505 1.511 4 2 2.949 1.114 5.115 3.114 6.5 6 1.01 5.564.343 10.898-2 16-1.488 1.66-3.321 2.66-5.5 3-3.213.31-6.213-.023-9-1a25.154 25.154 0 0 0 4.5-4c1.89-5.496.057-8.996-5.5-10.5a307.371 307.371 0 0 0-29-1.5v-33c5.362.028 10.695-.306 16-1z"/><path style="opacity:1" fill="#526cac" d="M347.5 346.5c.934 1.068 1.268 2.401 1 4a75.46 75.46 0 0 1-16-1c1.618-.951 2.951-2.284 4-4 .929 1.189 1.262 2.522 1 4h10v-3z"/><path style="opacity:1" fill="#1a2539" d="M90.5 367.5h278v1c-91.502-.333-182.835.001-274 1-1.495-.489-2.829-1.155-4-2z"/><path style="opacity:.443" fill="#8095bc" d="M368.5 367.5h70v5c-.934-1.068-1.268-2.401-1-4h-68v14c0 .667-.333 1-1 1v-16z"/><path style="opacity:.492" fill="#fdfefc" d="M387.5 368.5h2c-.667 9.333-1.333 9.333-2 0z"/><path style="opacity:.004" fill="#a4fdc5" d="M410.5 369.5c1.025.397 1.192 1.063.5 2a2.428 2.428 0 0 1-.5-2zM424.5 369.5c1.025.397 1.192 1.063.5 2a2.428 2.428 0 0 1-.5-2z"/><path style="opacity:1" fill="#f9f9f9" d="M30.5 374.5a31.117 31.117 0 0 1 11 1c-3.061 6.969-1.061 12.136 6 15.5 7.35 3.051 15.017 4.218 23 3.5.213 6.674.546 13.341 1 20-15.903-.704-29.403-6.704-40.5-18-4.436-7.274-4.603-14.608-.5-22z"/><path style="opacity:.004" fill="#fefff9" d="M438.5 374.5v1c-.67-.481-.67-.815 0-1z"/><path style="opacity:.852" fill="#f3f3f3" d="M369.5 382.5h3v8h-3c-.968-2.107-1.302-4.441-1-7 .667 0 1-.333 1-1z"/><path style="opacity:1" fill="#8c8c8a" d="M84.5 393.5c2.787.977 5.787 1.31 9 1-3.811 1.145-7.811 1.312-12 .5l3-1.5z"/></svg>