<svg xmlns="http://www.w3.org/2000/svg" viewBox="0 0 171.979 32.408" height="122.487" width="650"><path d="M86.867 136.016a1.82 1.82 0 1 1-3.639 0 1.82 1.82 0 0 1 3.639 0" style="fill:#00d282;fill-opacity:1;fill-rule:nonzero;stroke:none;stroke-width:.35277775" transform="matrix(3.23175 0 0 3.23175 -133.885 -418.37)"/><path d="M93.397 133.528c-.288-.229-.971-.764-2.235-.75-.409.004-.711.063-.894.112l.152-1.51h3.571v-1.65h-5.083l-.618 5.097 1.326.135a2.256 2.256 0 0 1 1.415-.525c.436-.003.86.122 1.167.387.347.299.59.716.59 1.267 0 1.03-.892 1.744-1.799 1.744-.727 0-1.387-.397-1.785-.96l-1.333 1.112c.852.961 1.992 1.497 3.187 1.497 1.992 0 3.585-1.36 3.585-3.393a3.217 3.217 0 0 0-1.246-2.563M60.532 139.347v-6.663h1.717v.536a2.939 2.939 0 0 1 1.882-.673c.92 0 1.758.412 2.308 1.071.44.522.687 1.196.687 2.336v3.393H65.34v-3.53c0-.66-.151-1.003-.398-1.25-.234-.234-.591-.372-1.003-.372-.756 0-1.374.481-1.621.825v4.327zM79.713 135.157c-.055-.59-.59-1.168-1.318-1.168-.742 0-1.347.564-1.43 1.168zm1.662 3.132c-.645.77-1.703 1.195-2.733 1.195-1.992 0-3.49-1.373-3.49-3.462 0-1.854 1.265-3.475 3.243-3.475 1.84 0 3.145 1.552 3.145 3.407 0 .178-.013.357-.04.508h-4.616c.096.934.851 1.58 1.8 1.58.755 0 1.36-.426 1.675-.77zM57.294 135.02a2.049 2.049 0 0 0-1.649-.824c-1.043 0-1.717.865-1.717 1.826 0 1.045.756 1.814 1.759 1.814.673 0 1.263-.33 1.607-.824zm1.786 4.327h-1.717v-.536a2.786 2.786 0 0 1-1.855.673c-.989 0-1.923-.44-2.514-1.126a3.575 3.575 0 0 1-.852-2.336c0-1.964 1.457-3.475 3.27-3.475.755 0 1.429.247 1.95.673v-.536h1.718zM74.744 137.987c-.783 1.044-1.772 1.497-3.022 1.497-2.06 0-3.572-1.538-3.572-3.461 0-1.937 1.552-3.476 3.585-3.476 1.154 0 2.185.536 2.803 1.332l-1.264 1.113c-.357-.467-.893-.797-1.539-.797-1.03 0-1.799.81-1.799 1.828 0 1.043.755 1.813 1.84 1.813.729 0 1.306-.44 1.594-.88zM51.868 134.264c-.124-.041-.385-.069-.646-.069-.783 0-1.4.564-1.62.962v4.19h-1.786v-6.663h1.717v.673c.398-.494 1.126-.81 1.937-.81.26 0 .412.027.604.055zM46.716 131.105a2.283 2.283 0 0 0-.535-.069c-.44 0-.783.124-1.003.385-.151.192-.247.44-.247 1.057v.206h2.06v1.511h-2.06v5.152h-1.786v-5.152h-1.717v-1.51h1.717v-.275c0-1.072.247-1.717.714-2.171.467-.453 1.168-.783 2.074-.783.358 0 .687.028 1.058.124z" style="fill:#fff;fill-opacity:1;fill-rule:nonzero;stroke:none;stroke-width:.35277775" transform="matrix(3.23175 0 0 3.23175 -133.885 -418.37)"/></svg>