<svg xmlns="http://www.w3.org/2000/svg" width="432" height="120" style="shape-rendering:geometricPrecision;text-rendering:geometricPrecision;image-rendering:optimizeQuality;fill-rule:evenodd;clip-rule:evenodd"><path style="opacity:1" fill="#0ba8e4" d="M-.5-.5h432v67c-46.866 26.077-97.199 38.244-151 36.5-9.526-.964-18.526-3.63-27-8-7.975-6.468-8.975-13.802-3-22-5.784 3.854-9.117 9.52-10 17 1.368 8.369 6.034 14.036 14 17 15.959 4.936 32.293 6.936 49 6 45.255-2.812 87.922-14.645 128-35.5v28a759.947 759.947 0 0 1-35 14h-173c-1.909-4.924-2.409-9.924-1.5-15-3.2 4.46-4.7 9.46-4.5 15H-.5V-.5z"/><path style="opacity:1" fill="#f9fcfe" d="M163.5 33.5c3.198-.536 5.865.131 8 2-.553 4.26-2.887 7.094-7 8.5-12.023 2.466-18.357-2.367-19-14.5-.328-6.512 2.338-11.345 8-14.5 6.016-1.48 11.35-.313 16 3.5 1.446 2.118 2.113 4.451 2 7-4.086.654-7.419-.512-10-3.5-1.667-.667-3.333-.667-5 0-3.719 4.71-3.886 9.543-.5 14.5 3.758 1.892 6.258.892 7.5-3z"/><path style="opacity:1" fill="#d6f0fa" d="M176.5 15.5c7.482-.992 15.148-1.325 23-1 .302 2.56-.032 4.893-1 7v-6h-22z"/><path style="opacity:1" fill="#fbfdfe" d="M50.5 27.5v6c-3.213-.31-6.213.023-9 1-.977 2.787-1.31 5.787-1 9h-8v-28c6.813-.991 13.813-1.325 21-1v7h-12v6h9z"/><path style="opacity:1" fill="#f8fcfe" d="M57.5 14.5c6.01-.166 12.01 0 18 .5 8.468 5.308 9.134 11.475 2 18.5l5 10c-3 1.333-6 1.333-9 0l-4-8c-1.189-.929-2.522-1.262-4-1v10h-8v-30z"/><path style="opacity:1" fill="#f7fcfe" d="M94.5 14.5c3.277-.284 6.443.05 9.5 1a1382.033 1382.033 0 0 0 9.5 28 21.12 21.12 0 0 1-9 1c.17-1.322-.163-2.489-1-3.5a50.442 50.442 0 0 0-10-.5v4a21.12 21.12 0 0 1-9-1 512.413 512.413 0 0 0 10-29z"/><path style="opacity:1" fill="#fcfefe" d="M131.5 28.5c.06.543.393.876 1 1a57.15 57.15 0 0 0 1-15c2.559-.302 4.893.032 7 1v28h-8a121.383 121.383 0 0 0-7-13c-.06-.543-.393-.876-1-1a57.15 57.15 0 0 0-1 15h-7v-30a32.438 32.438 0 0 1 8 .5 259.466 259.466 0 0 1 7 13.5z"/><path style="opacity:1" fill="#c1e9f8" d="M140.5 15.5c.994 9.486 1.327 19.152 1 29-3.213.31-6.213-.023-9-1h8v-28z"/><path style="opacity:1" fill="#fdfefe" d="M176.5 15.5h22v6h-13v5h11v6h-11v5h13v6h-22v-28z"/><path style="opacity:1" fill="#6dcbee" d="M133.5 14.5a57.15 57.15 0 0 1-1 15c-.607-.124-.94-.457-1-1l2-14z"/><path style="opacity:1" fill="#f6fcfe" d="M359.5 20.5a88.039 88.039 0 0 1 21 1.5c5.792.785 7.958 3.952 6.5 9.5a25.558 25.558 0 0 1-5.5 6.5c-23.537 14.555-48.871 19.555-76 15-3.626-2.251-4.793-5.418-3.5-9.5 3.078-3.584 6.578-6.584 10.5-9 .992-.172 1.658.162 2 1a34.842 34.842 0 0 0-6 8c.431 2.266 1.764 3.766 4 4.5 19.563 2.85 38.23-.15 56-9 4.079-2.075 7.579-4.908 10.5-8.5.825-2.2.325-4.034-1.5-5.5a27.626 27.626 0 0 0-10-2.5l-8-2z"/><path style="opacity:1" fill="#2dafe6" d="M65.5 21.5h8v6h-8v-6z"/><path style="opacity:1" fill="#0fa9e4" d="M367.5 22.5a27.626 27.626 0 0 1 10 2.5c1.825 1.466 2.325 3.3 1.5 5.5-2.921 3.592-6.421 6.425-10.5 8.5-17.77 8.85-36.437 11.85-56 9-2.236-.734-3.569-2.234-4-4.5a34.842 34.842 0 0 1 6-8c16.47-9.042 34.137-13.375 53-13z"/><path style="opacity:1" fill="#f9fcfe" d="M405.5 20.5c5.94-.18 11.44 1.82 16.5 6 3.373 5.447 3.039 10.78-1 16-12.159 11.67-26.326 20.17-42.5 25.5-31.081 12.183-63.081 15.85-96 11-12.019-3.2-15.519-10.368-10.5-21.5l8-8c-1.821 3.166-3.321 6.666-4.5 10.5 1.155 6.094 4.821 9.761 11 11 39.506 4.86 76.839-2.14 112-21 7.859-3.859 13.692-9.692 17.5-17.5.335-7.174-3.165-11.174-10.5-12z"/><path style="opacity:1" fill="#e0f3fb" d="m359.5 20.5 8 2c-18.863-.375-36.53 3.958-53 13-.342-.838-1.008-1.172-2-1 14.484-8.27 30.151-12.936 47-14z"/><path style="opacity:1" fill="#44b6e8" d="M98.5 24.5c1.743 2.995 2.743 6.328 3 10h-5c.04-3.488.707-6.82 2-10z"/><path style="opacity:1" fill="#90d8f3" d="m125.5 30.5-2 14a57.15 57.15 0 0 1 1-15c.607.124.94.457 1 1z"/><path style="opacity:.98" fill="#b6e5f6" d="M163.5 33.5c2.787-.977 5.787-1.31 9-1 .237 1.291-.096 2.291-1 3-2.135-1.869-4.802-2.536-8-2z"/><path style="opacity:.977" fill="#c5eaf8" d="M50.5 27.5c.968 2.107 1.302 4.44 1 7h-10c2.787-.977 5.787-1.31 9-1v-6z"/><path style="opacity:1" fill="#b3e3f6" d="M32.5 15.5v28h8c-.31-3.213.023-6.213 1-9v10h-10c-.327-9.848.006-19.514 1-29z"/><path style="opacity:1" fill="#cdedf9" d="M198.5 37.5c.968 2.107 1.302 4.44 1 7-7.852.325-15.518-.008-23-1h22v-6z"/><path style="opacity:1" fill="#fbfdfe" d="M53.5 91.5c-.543.06-.876.393-1 1 7.156 1.319 14.156 1.319 21 0 .825-4.147 1.325-8.48 1.5-13a390.574 390.574 0 0 0 21-26 62.787 62.787 0 0 1 15.5-1v30h7v13h-7v10h-15v-10h-22v10h-43c-.465-4.292.368-8.292 2.5-12 6.324-7.404 13.824-13.238 22.5-17.5 3.48-3.397 3.814-7.064 1-11-8.29-2.208-12.29.958-12 9.5h-13c-.366-14.304 6.634-21.97 21-23 17.362.846 23.528 9.513 18.5 26-4.86 6.356-11.027 11.023-18.5 14z"/><path style="opacity:1" fill="#fafdfe" d="M431.5 66.5v11c-40.078 20.855-82.745 32.688-128 35.5-16.707.936-33.041-1.064-49-6-7.966-2.964-12.632-8.631-14-17 .883-7.48 4.216-13.146 10-17-5.975 8.198-4.975 15.532 3 22 8.474 4.37 17.474 7.036 27 8 53.801 1.744 104.134-10.423 151-36.5z"/><path style="opacity:1" fill="#20ade5" d="M94.5 68.5c1.936 4.215 2.603 8.881 2 14a36.874 36.874 0 0 1-12-1c4.078-3.853 7.411-8.186 10-13z"/><path style="opacity:.973" fill="#9fddf4" d="M53.5 91.5c6.479.99 13.146 1.324 20 1-6.844 1.319-13.844 1.319-21 0 .124-.607.457-.94 1-1z"/><path style="opacity:1" fill="#fafdfe" d="M431.5 105.5v14h-35a759.947 759.947 0 0 0 35-14z"/><path style="opacity:1" fill="#f2f9fb" d="M223.5 119.5h-6c-.2-5.54 1.3-10.54 4.5-15-.909 5.076-.409 10.076 1.5 15z"/></svg>