<?xml version="1.0" encoding="UTF-8"?>
<!DOCTYPE svg PUBLIC "-//W3C//DTD SVG 1.1//EN" "http://www.w3.org/Graphics/SVG/1.1/DTD/svg11.dtd">
<svg xmlns="http://www.w3.org/2000/svg" version="1.1" width="205px" height="60px" style="shape-rendering:geometricPrecision; text-rendering:geometricPrecision; image-rendering:optimizeQuality; fill-rule:evenodd; clip-rule:evenodd" xmlns:xlink="http://www.w3.org/1999/xlink">
<g><path style="opacity:1" fill="#70be45" d="M 52.5,3.5 C 54.0418,2.69929 55.7085,2.36596 57.5,2.5C 57.8333,3.16667 58.1667,3.83333 58.5,4.5C 57.5041,4.58577 56.6708,4.25244 56,3.5C 55.8295,8.86421 55.3295,14.1975 54.5,19.5C 47.4587,5.65248 36.7921,1.81915 22.5,8C 13.17,15.6603 10.0034,25.4937 13,37.5C 17.5616,51.6906 27.0616,56.8573 41.5,53C 42.9308,52.5348 44.0975,51.7014 45,50.5C 45.6667,44.5 45.6667,38.5 45,32.5C 44.6258,31.5838 44.1258,30.7504 43.5,30C 41.5789,29.6397 39.9122,28.8064 38.5,27.5C 44.7985,26.5037 51.1318,26.1703 57.5,26.5C 58.5676,27.4345 59.901,27.7678 61.5,27.5C 61.8257,35.6841 61.4924,43.6841 60.5,51.5C 60.6664,43.8261 60.4997,36.1594 60,28.5C 58.4878,29.2567 57.1545,30.2567 56,31.5C 55.8313,38.8559 55.3313,46.1892 54.5,53.5C 37.2384,61.8085 21.405,59.8085 7,47.5C -2.58519,30.8112 0.248139,16.6445 15.5,5C 26.8978,-0.812308 38.3978,-0.978974 50,4.5C 50.9021,4.25675 51.7354,3.92342 52.5,3.5 Z"/></g>
<g><path style="opacity:1" fill="#70be45" d="M 99.5,52.5 C 99.6495,51.448 99.4828,50.448 99,49.5C 97.871,51.1412 96.371,52.1412 94.5,52.5C 96.334,50.4946 98.0007,48.3279 99.5,46C 94.064,34.4525 94.2307,22.9525 100,11.5C 110.101,0.214171 122.268,-2.61916 136.5,3C 146.522,8.86569 151.522,17.699 151.5,29.5C 148.626,52.8594 135.626,62.0261 112.5,57C 108.148,55.4772 104.481,52.9772 101.5,49.5C 100.824,50.6016 100.158,51.6016 99.5,52.5 Z M 119.5,4.5 C 129.749,3.91246 136.249,8.57913 139,18.5C 141.735,29.1045 140.402,39.1045 135,48.5C 125.899,56.8765 117.566,56.2099 110,46.5C 108.438,44.0427 107.438,41.376 107,38.5C 106.11,31.086 106.443,23.7527 108,16.5C 110.045,10.6244 113.878,6.62437 119.5,4.5 Z"/></g>
<g><path style="opacity:1" fill="#70be45" d="M 83.5,1.5 C 75.0161,2.49302 66.3494,2.82636 57.5,2.5C 55.7085,2.36596 54.0418,2.69929 52.5,3.5C 62.4459,1.52472 72.7792,0.85805 83.5,1.5 Z"/></g>
<g><path style="opacity:1" fill="#70be45" d="M 83.5,1.5 C 88.1667,1.5 92.8333,1.5 97.5,1.5C 97.8256,5.88387 97.4922,10.2172 96.5,14.5C 95.45,10.5435 93.1167,7.71013 89.5,6C 83.1754,5.50046 76.8421,5.33379 70.5,5.5C 70.5,12.5 70.5,19.5 70.5,26.5C 76.1764,26.6661 81.8431,26.4994 87.5,26C 89.4869,23.8602 90.8202,21.3602 91.5,18.5C 92.8333,24.8333 92.8333,31.1667 91.5,37.5C 91.1439,34.3121 89.4772,32.1455 86.5,31C 81.1771,30.5006 75.8437,30.334 70.5,30.5C 70.5,38.1667 70.5,45.8333 70.5,53.5C 78.555,53.7701 86.555,53.4368 94.5,52.5C 96.371,52.1412 97.871,51.1412 99,49.5C 99.4828,50.448 99.6495,51.448 99.5,52.5C 99.1667,54.5 98.8333,56.5 98.5,58.5C 83.4852,58.8327 68.4852,58.4993 53.5,57.5C 54.9122,56.1936 56.5789,55.3603 58.5,55C 59.305,53.8873 59.9717,52.7206 60.5,51.5C 61.4924,43.6841 61.8257,35.6841 61.5,27.5C 61.8229,21.31 61.4896,15.31 60.5,9.5C 59.8333,7.83333 59.1667,6.16667 58.5,4.5C 58.1667,3.83333 57.8333,3.16667 57.5,2.5C 66.3494,2.82636 75.0161,2.49302 83.5,1.5 Z"/></g>
<g><path style="opacity:1" fill="#70be45" d="M 158.5,1.5 C 159.833,1.5 161.167,1.5 162.5,1.5C 162.5,5.16667 162.5,8.83333 162.5,12.5C 166.5,12.5 170.5,12.5 174.5,12.5C 174.5,8.83333 174.5,5.16667 174.5,1.5C 175.833,1.5 177.167,1.5 178.5,1.5C 178.5,10.8333 178.5,20.1667 178.5,29.5C 177.167,29.5 175.833,29.5 174.5,29.5C 174.5,25.1667 174.5,20.8333 174.5,16.5C 170.5,16.5 166.5,16.5 162.5,16.5C 162.5,20.8333 162.5,25.1667 162.5,29.5C 161.167,29.5 159.833,29.5 158.5,29.5C 158.5,20.1667 158.5,10.8333 158.5,1.5 Z"/></g>
<g><path style="opacity:1" fill="#70be45" d="M 182.5,1.5 C 198.797,-1.3688 205.63,5.29787 203,21.5C 201.833,25.3333 199.333,27.8333 195.5,29C 191.179,29.499 186.846,29.6657 182.5,29.5C 182.5,20.1667 182.5,10.8333 182.5,1.5 Z M 187.5,5.5 C 195.119,4.13913 199.119,7.3058 199.5,15C 199.077,22.5895 195.077,26.0895 187.5,25.5C 187.5,18.8333 187.5,12.1667 187.5,5.5 Z"/></g>
<g><path style="opacity:1" fill="#70be45" d="M 60.5,9.5 C 61.4896,15.31 61.8229,21.31 61.5,27.5C 59.901,27.7678 58.5676,27.4345 57.5,26.5C 58.5,26.5 59.5,26.5 60.5,26.5C 60.5,20.8333 60.5,15.1667 60.5,9.5 Z"/></g>
</svg>
