<svg width="974.581" height="147.839" version="1.0" xmlns:xlink="http://www.w3.org/1999/xlink" xmlns="http://www.w3.org/2000/svg">
<defs>
<radialGradient xlink:href="#a" id="b" cx="2466.934" cy="-1233.4" fx="2466.934" fy="-1233.4" r="103.367" gradientTransform="matrix(-2.38143 -1.2992 .89619 -1.6427 9489.682 -103.962)" gradientUnits="userSpaceOnUse"/>
<linearGradient id="a">
<stop style="stop-color:#f7df25;stop-opacity:1" offset="0"/>
<stop style="stop-color:#dfa014;stop-opacity:1" offset="1"/>
</linearGradient>
</defs>
<g style="fill:#fff;fill-opacity:1">
<path style="fill:#fff;fill-opacity:1;fill-rule:evenodd;stroke:none;stroke-width:1px;stroke-linecap:butt;stroke-linejoin:miter;stroke-opacity:1" d="M1925.214-891.588v-23.565s-92.713-24.807-92.713 49.244c0 10.878 3.915 19.829 7.461 27.184 13.588 28.178 46.566 32.936 65.599 32.936h23.071v-71.429h-37.024v23.499h13.953v22.553s-45.674 2.712-45.675-34.743c0-44.127 65.328-25.68 65.328-25.68z" transform="translate(-1658.648 940.58)"/>
<path style="opacity:1;fill:#fff;fill-opacity:1;stroke:none;stroke-width:13.292;stroke-miterlimit:4;stroke-dasharray:none;stroke-dashoffset:0;stroke-opacity:1" d="M2035.871-919.088h26.062v113.299h-26.062z" transform="translate(-1658.648 940.58)"/><path style="opacity:1;fill:#fff;fill-opacity:1;stroke:none;stroke-width:1;stroke-miterlimit:4;stroke-dasharray:none;stroke-dashoffset:0;stroke-opacity:1" d="M1982.499-888.61c-22.899 0-41.47 18.601-41.47 41.5 0 22.898 18.571 41.468 41.47 41.468 22.898 0 41.5-18.57 41.5-41.469 0-22.898-18.602-41.5-41.5-41.5zm-.256 24.286c9.67 0 17.532 7.862 17.532 17.532 0 9.669-7.862 17.5-17.532 17.5-9.669 0-17.5-7.831-17.5-17.5 0-9.67 7.831-17.532 17.5-17.532z" transform="translate(-1658.648 940.58)"/>
<path style="fill:#fff;fill-opacity:1;fill-rule:evenodd;stroke:none;stroke-width:1px;stroke-linecap:butt;stroke-linejoin:miter;stroke-opacity:1" d="M2134.733-918.613v36.75c-26.45-15.12-59.058 7.657-58.906 31.229-.03 4.443-.12 8.528.537 12.268 5.41 30.761 33.044 38.18 58.37 29.159v3.469h25.374v-112.875zm-16.906 55.187c10.673 0 19.344 8.046 19.344 17.969 0 9.922-8.671 17.969-19.344 17.969-10.673 0-19.344-8.047-19.344-17.969 0-9.923 8.671-17.969 19.344-17.969zM2235.238-894.652v-22.18s-55.885-12.075-55.542 24.899c.048 5.25.19 12.1 2.432 16.398 8.693 16.668 30.939 22.84 31.069 36.471.117 12.705-33.501 4.532-33.501 4.532v24.47s13.31 5.513 26.963 4.164c16.569-1.637 34.047-14.978 34.03-30.447-.037-34.56-34.233-37.255-34.718-53.358-.335-11.142 29.267-4.95 29.267-4.95zM2280.099-905.338h-23.926v19.654h-6.409v21.362h6.409v42.298c0 3.327 1.195 7.928 3.12 10.641 1.667 2.35 5.03 5.594 12.077 5.594h18.128v-23.108s-4.754.156-6.386-.535c-3.013-1.277-3.013-3.77-3.013-3.77v-31.12h11.963v-21.362h-11.963zM2345.477-887.258c-20.037 0-31.72 7.531-31.72 7.531v20.875s16.294-7.248 23.72-7.125c6.118.102 17.944.543 19.343 6.5.308 1.31-1.873 3.477-3.187 3.188-26.2-5.77-45.362 6.326-46.188 23.406-1.327 27.117 23.311 33.918 48.219 23.375l1.594 3.719h21.469v-62.75c0-11.444-19.14-18.719-33.25-18.719zm-2.313 47.938c6.84 0 12.406 3.508 12.406 7.812s-5.567 7.781-12.406 7.781c-6.84 0-12.375-3.477-12.375-7.78 0-4.305 5.536-7.813 12.375-7.813zM2400.184-887.28v81.491h24.169v-36.53s0-7.19 7.098-11.963c3.955-2.659 15.56-3.204 15.56-3.204V-882.8c0-.536 0-4.48-6.948-4.48-7.076 0-15.71 10.12-15.71 10.12v-10.12zM2455.068-919.01v26.062h26.062v87.159h27.344v-87.159h42.724l20.098 87.159h37.16l24.773-113.22h-25.68s-12.27 58.671-15.558 72.816c-.207.887-2.558.855-2.87 0-6.529-17.847-16.616-72.817-16.616-72.817z" transform="translate(-1658.648 940.58)"/>
</g>
<path transform="matrix(.79001 0 0 .71714 -1859.49 963.817)" d="m2542.978-1180.058-62.967-26.368 4.677 68.598-31.287-60.673-40.511 55.556 15.033-66.59-66.744 16.518 54.32-41.347-61.747-30.248 68.188 3.242-27.857-62.863 50.15 46.315 19.068-66.062 8.648 67.716 57.07-38.35-36.902 57.432 68.369 7.306-65.185 20.275z" style="opacity:1;fill:url(#b);fill-opacity:1;stroke:none;stroke-width:12.992;stroke-miterlimit:4;stroke-dasharray:none;stroke-opacity:1"/>
</svg>