<?xml version="1.0" encoding="UTF-8" standalone="no"?>
<!-- Created with Inkscape (http://www.inkscape.org/) -->

<svg
   width="1012.3579"
   height="334.97388"
   id="svg2"
   sodipodi:version="0.32"
   inkscape:version="1.1.1 (3bf5ae0d25, 2021-09-20)"
   version="1.0"
   sodipodi:docname="gotv.svg"
   inkscape:output_extension="org.inkscape.output.svg.inkscape"
   xmlns:inkscape="http://www.inkscape.org/namespaces/inkscape"
   xmlns:sodipodi="http://sodipodi.sourceforge.net/DTD/sodipodi-0.dtd"
   xmlns="http://www.w3.org/2000/svg"
   xmlns:svg="http://www.w3.org/2000/svg"
   xmlns:rdf="http://www.w3.org/1999/02/22-rdf-syntax-ns#"
   xmlns:cc="http://creativecommons.org/ns#"
   xmlns:dc="http://purl.org/dc/elements/1.1/">
  <defs
     id="defs4" />
  <sodipodi:namedview
     id="base"
     pagecolor="#ffffff"
     bordercolor="#666666"
     borderopacity="1.0"
     inkscape:pageopacity="0.0"
     inkscape:pageshadow="2"
     inkscape:zoom="0.49497475"
     inkscape:cx="614.17274"
     inkscape:cy="264.65996"
     inkscape:document-units="px"
     inkscape:current-layer="g3918"
     showgrid="false"
     inkscape:window-width="1347"
     inkscape:window-height="1040"
     inkscape:window-x="182"
     inkscape:window-y="0"
     inkscape:pagecheckerboard="0"
     inkscape:window-maximized="0" />
  <metadata
     id="metadata7">
    <rdf:RDF>
      <cc:Work
         rdf:about="">
        <dc:format>image/svg+xml</dc:format>
        <dc:type
           rdf:resource="http://purl.org/dc/dcmitype/StillImage" />
      </cc:Work>
    </rdf:RDF>
  </metadata>
  <g
     inkscape:label="Ebene 1"
     inkscape:groupmode="layer"
     id="layer1"
     transform="translate(-5.0048711,-4.2453935)">
    <g
       id="g3918">
      <path
         d="m 707.07446,230.28102 h 271.004 V 42.390757 h -271.004 z"
         style="fill:#c3d4dd;fill-opacity:1;fill-rule:nonzero;stroke:none"
         id="path3024" />
      <path
         d="m 945.45284,139.00815 11.82802,-25.37548 -57.30017,-26.722562 -11.83898,25.375482 57.31113,26.72256"
         style="fill:#00a3e4;fill-opacity:1;fill-rule:nonzero;stroke:none"
         id="path3026" />
      <path
         d="M 945.45284,139.00815 957.28086,113.63267 899.98069,86.910108 888.14171,112.28559 Z"
         style="fill:none;stroke:#00a3e4;stroke-width:5.37737;stroke-linecap:round;stroke-linejoin:round;stroke-miterlimit:4;stroke-dasharray:none;stroke-opacity:1"
         id="path3028" />
      <path
         d="m 899.32357,206.38405 -11.83897,-25.37548 -57.31113,26.72256 11.83897,25.37548 57.31113,-26.72256"
         style="fill:#00a3e4;fill-opacity:1;fill-rule:nonzero;stroke:none"
         id="path3030" />
      <path
         d="m 899.32357,206.38405 -11.83897,-25.37548 -57.31113,26.72256 11.83897,25.37548 z"
         style="fill:none;stroke:#00a3e4;stroke-width:5.37737;stroke-linecap:round;stroke-linejoin:round;stroke-miterlimit:4;stroke-dasharray:none;stroke-opacity:1"
         id="path3032" />
      <path
         d="m 797.99687,112.28559 -11.82801,-25.375482 -57.31113,26.722562 11.82801,25.37548 57.31113,-26.72256"
         style="fill:#00a3e4;fill-opacity:1;fill-rule:nonzero;stroke:none"
         id="path3034" />
      <path
         d="m 797.99687,112.28559 -11.82801,-25.375482 -57.31113,26.722562 11.82801,25.37548 z"
         style="fill:none;stroke:#00a3e4;stroke-width:5.37737;stroke-linecap:round;stroke-linejoin:round;stroke-miterlimit:4;stroke-dasharray:none;stroke-opacity:1"
         id="path3036" />
      <path
         d="m 842.31909,232.20856 11.83897,-25.38643 -57.31113,-26.72257 -11.83897,25.37549 57.31113,26.73351"
         style="fill:#00a3e4;fill-opacity:1;fill-rule:nonzero;stroke:none"
         id="path3038" />
      <path
         d="m 842.31909,232.20856 11.83897,-25.38643 -57.31113,-26.72257 -11.83897,25.37549 z"
         style="fill:none;stroke:#00a3e4;stroke-width:5.37737;stroke-linecap:round;stroke-linejoin:round;stroke-miterlimit:4;stroke-dasharray:none;stroke-opacity:1"
         id="path3040" />
      <path
         d="m 107.6896,176.04738 c 0,5.85924 -1.94944,11.06138 -6.17686,15.2888 -3.898863,4.22742 -8.45484,6.50541 -13.656978,6.50541 H 42.657397 v -43.24893 c 0,-6.1878 1.949434,-11.38995 5.848298,-15.61736 3.909818,-4.22743 8.454844,-6.50542 13.985538,-6.50542 h 25.364529 c 5.202138,0 9.758115,2.27799 13.985538,6.50542 3.89886,4.22741 5.8483,9.42956 5.8483,15.61736 z m 36.74352,113.49421 c 0,-15.27785 -5.84831,-27.31396 -16.90968,-36.09736 -10.40428,-8.13724 -23.73271,-12.3537 -39.667678,-12.3537 H 62.491233 c -7.480127,0 -13.328425,-3.58127 -17.238242,-11.06139 h 42.602771 c 15.934968,0 29.263398,-5.20215 40.324788,-15.60642 10.73282,-10.07572 16.25257,-23.08654 16.25257,-38.37534 v -21.45472 c 0,-15.61736 -5.51975,-28.61723 -16.58113,-38.70391 C 117.11916,105.81303 103.79073,100.6109 87.855762,100.6109 H 62.491233 c -15.93497,0 -29.263395,5.20213 -40.324784,15.27785 C 11.433618,125.97543 5.9029244,138.9753 5.9029244,154.59266 v 64.70364 c 0,15.60641 5.5306936,28.61724 16.5920816,38.70391 10.732832,10.07572 24.061257,14.96025 39.667671,15.27786 l 25.693085,0.32855 c 13.328428,0.31761 19.833838,5.20215 19.833838,15.93497 0,11.05044 -6.50541,16.58114 -19.833838,16.58114 H 62.491233 c -5.848298,0 -10.732833,-1.62088 -14.631698,-5.20215 -3.58126,-3.58125 -5.530694,-8.12628 -5.530694,-13.98553 0,-5.8483 -3.252705,-8.7834 -9.42956,-8.7834 H 15.343435 c -6.1878059,0 -9.4405106,2.9351 -9.4405106,9.11196 0,15.61736 5.5306936,27.97108 16.2635246,37.38968 10.732832,9.11196 24.389814,13.66793 40.324784,13.66793 h 25.364529 c 15.934968,0 29.263398,-4.22741 39.667678,-12.36465 11.06137,-8.77246 16.90968,-20.80856 16.90968,-36.41498"
         style="fill:#00a3e4;fill-opacity:1;fill-rule:evenodd;stroke:none"
         id="path3042" />
      <path
         d="m 107.6896,176.04738 c 0,5.85924 -1.94944,11.06138 -6.17686,15.2888 -3.898863,4.22742 -8.45484,6.50541 -13.656978,6.50541 H 42.657397 v -43.24893 c 0,-6.1878 1.949434,-11.38995 5.848298,-15.61736 3.909818,-4.22743 8.454844,-6.50542 13.985538,-6.50542 h 25.364529 c 5.202138,0 9.758115,2.27799 13.985538,6.50542 3.89886,4.22741 5.8483,9.42956 5.8483,15.61736 z m 36.74352,113.49421 c 0,-15.27785 -5.84831,-27.31396 -16.90968,-36.09736 -10.40428,-8.13724 -23.73271,-12.3537 -39.667678,-12.3537 H 62.491233 c -7.480127,0 -13.328425,-3.58127 -17.238242,-11.06139 h 42.602771 c 15.934968,0 29.263398,-5.20215 40.324788,-15.60642 10.73282,-10.07572 16.25257,-23.08654 16.25257,-38.37534 v -21.45472 c 0,-15.61736 -5.51975,-28.61723 -16.58113,-38.70391 C 117.11916,105.81303 103.79073,100.6109 87.855762,100.6109 H 62.491233 c -15.93497,0 -29.263395,5.20213 -40.324784,15.27785 C 11.433618,125.97543 5.9029244,138.9753 5.9029244,154.59266 v 64.70364 c 0,15.60641 5.5306936,28.61724 16.5920816,38.70391 10.732832,10.07572 24.061257,14.96025 39.667671,15.27786 l 25.693085,0.32855 c 13.328428,0.31761 19.833838,5.20215 19.833838,15.93497 0,11.05044 -6.50541,16.58114 -19.833838,16.58114 H 62.491233 c -5.848298,0 -10.732833,-1.62088 -14.631698,-5.20215 -3.58126,-3.58125 -5.530694,-8.12628 -5.530694,-13.98553 0,-5.8483 -3.252705,-8.7834 -9.42956,-8.7834 H 15.343435 c -6.1878059,0 -9.4405106,2.9351 -9.4405106,9.11196 0,15.61736 5.5306936,27.97108 16.2635246,37.38968 10.732832,9.11196 24.389814,13.66793 40.324784,13.66793 h 25.364529 c 15.934968,0 29.263398,-4.22741 39.667678,-12.36465 11.06137,-8.77246 16.90968,-20.80856 16.90968,-36.41498 z"
         style="fill:#ffffff;stroke:#00a3e4;stroke-width:1.79611;stroke-linecap:butt;stroke-linejoin:miter;stroke-miterlimit:3.864;stroke-dasharray:none;stroke-opacity:1"
         id="path3044" />
      <path
         d="m 283.51091,217.34687 c 0,5.85925 -1.94944,11.06139 -6.17685,15.28881 -3.89887,4.22742 -8.45485,6.17686 -13.65699,6.17686 h -25.36453 c -5.53069,0 -10.07572,-2.27799 -14.30314,-6.50541 -3.90982,-4.22743 -5.85925,-9.10101 -5.85925,-14.96026 l 0.32856,-63.73988 c 0,-5.84829 1.94943,-11.05044 5.8483,-15.27785 3.90981,-4.22743 8.45484,-6.17686 13.98553,-6.17686 h 25.36453 c 5.20214,0 9.75812,2.27799 13.98554,6.49446 3.89886,4.23837 5.8483,9.11196 5.8483,14.96025 z m 36.75447,0 v -63.73988 c 0,-15.27785 -5.53069,-27.96012 -16.59208,-38.04679 -10.73284,-10.07572 -24.06125,-14.9493 -39.99623,-14.9493 h -25.36453 c -15.93496,0 -29.26339,5.20213 -40.32478,15.27785 -10.73283,10.08668 -16.25257,22.44039 -16.25257,37.71824 v 63.73988 c 0,15.28881 5.51974,27.96012 16.58112,38.04679 10.73284,10.08668 24.06127,14.96025 39.66768,14.96025 h 25.69308 c 15.93498,0 29.26339,-4.87357 40.32479,-14.96025 10.73283,-10.08667 16.26352,-22.75798 16.26352,-38.04679"
         style="fill:#00a3e4;fill-opacity:1;fill-rule:evenodd;stroke:none"
         id="path3046" />
      <path
         d="m 283.51091,217.34687 c 0,5.85925 -1.94944,11.06139 -6.17685,15.28881 -3.89887,4.22742 -8.45485,6.17686 -13.65699,6.17686 h -25.36453 c -5.53069,0 -10.07572,-2.27799 -14.30314,-6.50541 -3.90982,-4.22743 -5.85925,-9.10101 -5.85925,-14.96026 l 0.32856,-63.73988 c 0,-5.84829 1.94943,-11.05044 5.8483,-15.27785 3.90981,-4.22743 8.45484,-6.17686 13.98553,-6.17686 h 25.36453 c 5.20214,0 9.75812,2.27799 13.98554,6.49446 3.89886,4.23837 5.8483,9.11196 5.8483,14.96025 z m 36.75447,0 v -63.73988 c 0,-15.27785 -5.53069,-27.96012 -16.59208,-38.04679 -10.73284,-10.07572 -24.06125,-14.9493 -39.99623,-14.9493 h -25.36453 c -15.93496,0 -29.26339,5.20213 -40.32478,15.27785 -10.73283,10.08668 -16.25257,22.44039 -16.25257,37.71824 v 63.73988 c 0,15.28881 5.51974,27.96012 16.58112,38.04679 10.73284,10.08668 24.06127,14.96025 39.66768,14.96025 h 25.69308 c 15.93498,0 29.26339,-4.87357 40.32479,-14.96025 10.73283,-10.08667 16.26352,-22.75798 16.26352,-38.04679 z"
         style="fill:#ffffff;stroke:#00a3e4;stroke-width:1.79611;stroke-linecap:butt;stroke-linejoin:miter;stroke-miterlimit:3.864;stroke-dasharray:none;stroke-opacity:1"
         id="path3048" />
      <path
         d="m 446.34329,260.63962 v -13.98555 c 0,-5.53069 -2.92414,-8.45484 -8.77244,-8.45484 h -13.66793 c -5.51975,0 -10.07572,-2.27799 -13.97459,-6.50541 -3.90981,-4.22742 -5.84829,-9.11195 -5.84829,-15.2888 V 132.8313 h 33.49081 c 5.8483,0 8.77244,-2.92415 8.77244,-8.45484 v -14.94931 c 0,-5.53069 -2.92414,-8.45484 -8.77244,-8.45484 H 404.08004 V 63.243118 c 0,-2.277992 -0.98567,-4.54503 -2.93511,-6.505407 -1.62088,-1.620877 -3.89885,-2.267037 -6.82301,-1.949435 -5.20214,0.657115 -10.41523,1.303275 -15.60641,1.949435 -7.48013,1.631819 -11.38995,4.88453 -11.38995,9.42956 V 216.40502 c 0,15.61736 5.53069,28.61722 16.58113,39.35005 11.06139,10.73284 24.38982,15.28882 40.32479,14.31411 l 13.65697,-0.98568 c 5.5307,-0.3176 8.45484,-3.25271 8.45484,-8.44388"
         style="fill:#c3d4dd;fill-opacity:1;fill-rule:nonzero;stroke:none"
         id="path3050" />
      <path
         d="m 619.25142,109.74476 c 0.32855,-0.64616 0.32855,-1.29232 0.32855,-2.278 0,-4.87357 -2.60655,-7.480122 -8.12628,-7.480122 h -17.89536 c -4.87359,0 -8.1263,2.277992 -9.74716,6.833962 L 548.68851,216.40502 513.56587,106.8206 c -1.30327,-4.55597 -4.55597,-6.833962 -9.42956,-6.833962 h -18.21296 c -5.53069,0 -8.12628,2.606552 -8.12628,7.480122 0,0.98568 0,1.63184 0.3176,2.278 l 49.10819,153.49044 c 1.30327,4.55598 4.87357,6.83398 9.75812,6.83398 h 23.73269 c 4.88454,0 8.13724,-2.278 9.44051,-6.83398 l 49.09724,-153.49044"
         style="fill:#c3d4dd;fill-opacity:1;fill-rule:nonzero;stroke:none"
         id="path3052" />
      <path
         d="m 689.46385,4.2453935 h 307.12327 c 11.46658,0 20.77568,9.3090945 20.77568,20.7757025 V 249.03063 c 0,11.46661 -9.3091,20.77569 -20.77568,20.77569 H 689.46385 c -11.47756,0 -20.7757,-9.30908 -20.7757,-20.77569 V 25.021096 c 0,-11.466608 9.29814,-20.7757025 20.7757,-20.7757025 z M 710.2724,45.785843 V 228.27684 H 975.86618 V 45.785843 H 710.2724"
         style="fill:#00a3e4;fill-opacity:1;fill-rule:nonzero;stroke:none"
         id="path3054" />
    </g>
  </g>
</svg>
