<?xml version="1.0" encoding="UTF-8" standalone="no"?>
<svg
   width="797.00903"
   height="138.54587"
   viewBox="0 0 797.00903 138.54587"
   version="1.1"
   id="svg25"
   xmlns="http://www.w3.org/2000/svg"
   xmlns:svg="http://www.w3.org/2000/svg">
  <defs
     id="defs29" />
  <g
     id="g23"
     transform="translate(-85.013333,-188.66171)">
    <path
       d="m 515.42,253.22 v 37.56 c 0,1.71 0.44,3.26 2.42,3.35 5.39,0.22 5.72,3.9 5.67,7.94 -0.36,26.76 3.41,21.56 -21.46,22.07 -10,0.2 -20,-0.12 -30,0.07 -5.24,0.1 -7.26,-1.92 -6.69,-7.2 a 77.53,77.53 0 0 0 0.23,-12.66 c -0.27,-5 -1.48,-10 6.1,-10.6 2.39,-0.19 2.25,-3 2.25,-5 q 0,-31.71 0,-63.4 c 0,-2.55 -0.15,-5.19 -3.59,-5.29 -4.7,-0.14 -5.2,-3 -5,-6.8 0.29,-5.77 0.39,-11.56 0.33,-17.34 -0.06,-4.6 1.56,-7.1 6.55,-7.07 16.68,0.09 33.37,0.12 50.05,0 5.21,0 7.28,3.61 9.59,7.14 q 17.19,26.23 34.34,52.49 c 1.2,1.83 2.54,3.56 5,7.06 0,-12 0,-22.06 0,-32.14 0,-1.42 -0.65,-3 -2.11,-3 -7,-0.35 -5.72,-5.42 -5.76,-9.72 -0.05,-4.89 0,-9.79 0,-14.68 0,-3.3 1.56,-4.86 4.9,-4.85 15.79,0 31.59,0 47.38,0 3.66,0 5.34,1.63 5.36,5.18 0,5.11 0,10.23 0.09,15.35 0.06,4.41 0.13,8.31 -6.19,8.74 -4.11,0.28 -2.73,4.51 -2.74,7.12 -0.09,27.59 0,55.18 -0.08,82.76 0,15.26 1.74,13.87 -14,13.93 -9.34,0 -18.69,-0.24 -28,0.11 -5.1,0.19 -8.15,-1.78 -10.84,-6 -12.71,-19.86 -25.66,-39.57 -38.56,-59.3 -1.14,-1.85 -1.95,-4.04 -5.24,-5.82 z"
       id="path11"
       style="fill:#ffffff" />
    <path
       d="m 325.53,261.52 c 13.16,4.54 15.68,14.56 15.17,26.29 -0.1,2.36 -0.51,5.5 2.65,6.1 5.14,1 5.36,4.47 5.31,8.45 -0.05,4.9 -0.16,9.79 0,14.68 0.16,4.89 -1.58,7.28 -6.93,7.2 -14.23,-0.24 -28.47,-0.21 -42.7,0 -5,0.06 -6.66,-2.13 -6.63,-6.82 0.1,-12.23 0.14,-24.46 -0.13,-36.69 -0.16,-7.33 -3.62,-10.66 -10.44,-11.39 -4.38,-0.48 -6.89,0.8 -6.7,5.68 0.15,3.77 0.17,7.57 0,11.34 -0.25,4.83 0.55,8.41 6.66,8.12 3,-0.14 4.23,2 4.24,4.85 0,6.45 0,12.9 0,19.34 0,4 -2,5.52 -5.78,5.51 q -28.68,-0.07 -57.37,0 c -4.42,0 -5.81,-2.16 -5.69,-6.23 0.16,-5.11 0.1,-10.23 0,-15.35 -0.09,-4.19 -0.22,-8 5.56,-8.69 2.89,-0.33 2.59,-3.22 2.59,-5.41 0,-20.9 0,-41.81 0,-62.71 0,-3.21 -0.47,-5.77 -4.49,-5.92 -2.87,-0.11 -3.61,-2.15 -3.61,-4.62 0,-6.45 0,-12.9 0,-19.34 0,-3.39 1.63,-4.46 4.88,-4.83 24.29,-2.81 48.69,-2.76 73,-1.9 a 78.53,78.53 0 0 1 27.68,6.49 c 24.69,10.49 23.18,49.6 7.77,61.58 -1.44,1.18 -2.9,2.48 -5.04,4.27 z m -34.34,-28 c 0,-1.78 0.13,-3.56 0,-5.32 -0.55,-6 -3.78,-8.22 -10.53,-8.27 -6.56,0 -5.34,4.52 -5.43,8.33 -0.11,4.21 0,8.43 0,12.65 0,3.63 1.7,5 5.29,5.19 8.32,0.39 10.73,-2.29 10.67,-12.57 z"
       id="path13"
       style="fill:#ffffff" />
    <path
       d="m 139.12,257.82 c 0,9.33 -0.18,18.68 0.07,28 0.15,5.25 3.39,8 8.61,8.32 5.22,0.32 10.36,0.09 12.52,-6.17 1.08,-3.13 0.82,-5.35 -3,-5.6 -4.45,-0.29 -5.36,-3.09 -5.28,-6.88 0.12,-5.11 0.11,-10.23 0,-15.35 -0.06,-3.91 1.87,-5.75 5.66,-5.75 q 25.35,0 50.71,-0.05 c 3.87,0 5.68,1.8 5.59,5.73 -0.11,4.44 0,8.89 0,13.34 0,4.27 0.56,8.59 -5.61,9.43 -2.76,0.37 -2.59,3.27 -2.61,5.48 -0.07,7.12 -0.13,14.24 -0.05,21.35 0,4 -1.49,6.84 -5.37,8.25 -27.09,9.84 -54.64,13.54 -82,2.34 C 96.51,311.33 85.47,294 85.08,270.18 c -0.15,-8.67 0,-17.34 0,-26 0.06,-25 14.44,-44.33 38.34,-51.8 a 32.12,32.12 0 0 1 9.87,-1.28 c 13.56,0 27.14,0.24 40.7,-0.07 9.4,-0.22 17.92,2.69 26.46,6 3.5,1.34 5.36,3.6 5.32,7.52 q -0.13,15.34 0,30.69 c 0,4.54 -1.92,6.31 -6.46,6.23 -10,-0.19 -20,-0.35 -30,0.06 -6.17,0.25 -8.15,-2 -8.09,-8.07 0.09,-9.33 -3,-12.84 -10.42,-13.32 -7.15,-0.46 -11.53,3.17 -11.73,10.38 -0.25,9.11 -0.06,18.24 -0.06,27.36 z"
       id="path15"
       style="fill:#ffffff" />
    <path
       d="m 676.15,257.44 c 0,8.45 -0.26,16.92 0.06,25.36 0.42,11.46 7,12.81 16.62,10.68 3.27,-0.72 5,-3.47 5.33,-6.94 0.33,-3.47 -2.16,-3.92 -4.67,-4.4 -2.74,-0.53 -3.39,-2.53 -3.4,-5 0,-4 0,-8 0,-12 0,-10.84 0,-10.84 11.17,-10.85 q 20.37,0 40.73,0 c 9.69,0 9.93,0.29 10,10.25 0,3.33 -0.06,6.67 0,10 0.09,4.12 -0.45,7.54 -5.7,8 -3.35,0.29 -3.21,3.15 -3.22,5.63 0,7.34 -0.15,14.69 0,22 0.08,3.84 -1.29,6.35 -4.93,7.72 -23.7,8.86 -48,12 -72.71,5.69 C 640,317.18 625.8,300 622.13,274.27 619.46,255.5 619.62,236.74 628.45,219.43 637.79,201.1 653,191.22 674,191.1 c 12.91,-0.08 25.82,0.14 38.73,-0.07 8.93,-0.13 17,2.75 25.14,5.91 3.45,1.35 5.25,3.59 5.18,7.58 q -0.27,15.35 0,30.71 c 0.09,4.71 -2,6.24 -6.43,6.17 -9.34,-0.17 -18.69,0 -28,0 -9.31,0 -9.62,0 -10,-9.52 -0.21,-5.37 -1.53,-9.58 -7.33,-11.23 -8.14,-2.33 -14.55,1.66 -15,10.13 -0.44,8.88 -0.1,17.79 -0.1,26.7 z"
       id="path17"
       style="fill:#ffffff" />
    <path
       d="m 882,256.93 c 0,5.79 -0.12,11.57 0,17.35 0.59,22.55 -10.52,37.92 -30.5,46.35 -20.9,8.83 -42.58,8.59 -63.77,0.36 -15.23,-5.91 -25.33,-17.12 -29.8,-32.88 -6.29,-22.17 -6,-44.26 1.61,-66.17 5.35,-15.35 24.93,-32.58 45.51,-31 10.39,0.79 20.9,0.12 31.35,0.14 23.56,0 45.38,21.66 45.56,45.16 0.04,6.91 0.04,13.76 0.04,20.69 z m -43.21,-16 c -10.45,0 -15.67,-5.55 -15.33,-15.68 0.07,-2.17 -0.63,-3.68 -2.84,-3.55 -2.21,0.13 -2.93,1.9 -2.46,3.9 1.55,6.58 -2.64,11.23 -7,13.84 a 14.48,14.48 0 0 1 -16.32,-0.82 c -1.91,-1.42 -3.93,-3.12 -5.62,-0.53 -1.82,2.79 0.91,3.49 2.87,4.68 5.45,3.32 9.09,9.1 8.84,14.67 a 16.06,16.06 0 0 1 -8.72,13.28 c -2.21,1.07 -4.64,1.62 -3,4.45 1.49,2.55 3.65,1.4 5.67,0 a 15,15 0 0 1 16.37,-0.88 c 4.21,2.55 8.39,7.41 6.91,13.92 -0.48,2.11 0.36,3.8 2.56,3.73 2.65,-0.08 3.4,-1.94 2.28,-4.23 -1.12,-2.29 -0.07,-3.79 0.95,-5.56 6,-10.48 12.12,-12.18 23.48,-6.32 2.07,1.07 4,1.37 5.07,-0.94 0.93,-2 -0.38,-3.22 -2.38,-3.9 -6.57,-2.24 -9.51,-8.63 -9.52,-13.84 a 15.28,15.28 0 0 1 9.8,-14.44 c 2.41,-0.89 3.27,-2.43 1.94,-4.59 a 2.72,2.72 0 0 0 -4.59,-0.28 c -2.75,3.07 -6.15,3.22 -9.01,3.1 z"
       id="path19"
       style="fill:#ffffff" />
    <path
       d="m 424.79,188.87 c 9.12,0 18.24,0 27.35,0 8.26,0 8.86,0.62 8.93,8.58 0,4.89 0,9.78 0,14.67 0,3.87 0.31,7.56 -5.29,8.16 -3.67,0.4 -2.84,4 -2.85,6.53 -0.08,15.34 0.1,30.68 -0.12,46 a 96.29,96.29 0 0 1 -1.62,17.22 c -3.25,16.51 -13.3,27.52 -29.12,32.64 -21.39,6.92 -42.54,5 -63.25,-3.36 -5.52,-2.23 -8.55,-5.64 -7.9,-12.15 0.57,-5.73 0.22,-11.56 0.11,-17.33 -0.08,-4 1.33,-6.34 5.72,-6.29 q 12.35,0.12 24.68,0 c 3.43,0 5.4,1.43 6,4.87 0.87,5.15 4.52,6.09 9,5.66 4.61,-0.45 6.62,-3.29 6.63,-7.66 0.06,-20.45 0,-40.91 0.11,-61.36 0,-4.3 -2.29,-5 -5.94,-5.15 -9,-0.27 -9,-0.4 -9,-9.44 0,-4.23 0,-8.45 0,-12.67 0.06,-8.39 0.58,-8.92 9.25,-9 9.08,0.05 18.2,0.08 27.31,0.08 z"
       id="path21"
       style="fill:#ffffff" />
  </g>
</svg>
