<?xml version="1.0" encoding="utf-8"?>
<!-- Generator: Adobe Illustrator 23.0.1, SVG Export Plug-In . SVG Version: 6.00 Build 0)  -->
<svg version="1.1" id="Livello_1" xmlns="http://www.w3.org/2000/svg" xmlns:xlink="http://www.w3.org/1999/xlink" x="0px" y="0px"
	 viewBox="0 0 824.2 500" enable-background="new 0 0 824.2 500" xml:space="preserve">
<polygon fill="#5C808B" points="570.2,185 284.9,0 0,185 "/>
<polygon fill="#5C808B" points="0,199.8 72.5,199.8 72.5,276.1 140.4,276.1 140.4,199.8 212.4,199.8 212.4,416.1 140.4,416.1 
	140.4,338.3 72.5,338.3 72.5,416.1 0,416.1 "/>
<path fill="#5C808B" d="M222,308.5v-0.8c0-64.5,51.1-112.9,119.4-112.9c37,0,69,12.2,92.7,32.8l-40.4,48.8
	c-14.1-12.2-30.1-16.8-47.7-16.8c-28.2,0-46.5,19.5-46.5,48.8v0.8c0,30.5,22.5,49.6,49.6,49.6c12.2,0,19.1-3.1,24.8-6.1v-14.5h-37
	v-50.3h104.5v99.9c-23.6,19.1-58.4,32.4-97.6,32.4C275.7,420.3,222,375.3,222,308.5"/>
<polygon fill="#5C808B" points="744.1,199.8 702.1,321.1 660.2,199.8 440.9,199.8 440.9,260.5 498.5,260.5 498.5,416.1 570.6,416.1 
	570.6,260.5 604.1,260.5 667,416.1 736.1,416.1 823.8,199.8 "/>
<path fill="#5C808B" d="M0,431.7h14.9V458H42v-26.3h14.9v66.7H42v-26.7H14.9v26.7H0V431.7z"/>
<path fill="#5C808B" d="M102.6,499.6c-5.3,0-9.9-0.8-14.1-2.7c-4.2-1.9-8-4.2-11.1-7.2c-3.1-3.1-5.7-6.9-7.2-10.7
	c-1.9-4.2-2.7-8.8-2.7-13.3c0-4.6,0.8-9.2,2.7-13.3c1.9-4.2,4.2-7.6,7.2-11.1c3.1-3.1,6.9-5.7,11.4-7.6c4.2-1.9,9.2-2.7,14.1-2.7
	c5,0,9.9,0.8,14.1,2.7c4.2,1.9,8,4.2,11.1,7.2c3.1,3.1,5.7,6.9,7.2,10.7c1.5,3.8,2.7,8.8,2.7,13.3c0,4.6-0.8,9.2-2.7,13.3
	c-1.9,4.2-4.2,7.6-7.2,11.1c-3.1,3.1-6.9,5.7-11.4,7.6C112.5,498.9,107.6,499.6,102.6,499.6z M102.6,486.3c3.1,0,5.7-0.4,8-1.5
	c2.3-1.1,4.6-2.7,6.5-4.6c1.9-1.9,3.1-4.2,4.2-6.5c1.1-2.7,1.5-5.3,1.5-8c0-3.1-0.4-5.7-1.5-8c-1.1-2.7-2.3-4.6-4.2-6.9
	c-1.9-2.3-3.8-3.4-6.5-4.6c-2.3-1.1-5.3-1.5-8-1.5c-3.1,0-5.7,0.4-8,1.5c-2.3,1.1-4.6,2.7-6.1,4.6c-1.9,1.9-3.1,4.2-4.2,6.5
	c-1.1,2.3-1.5,5.3-1.5,8c0,3.1,0.4,5.7,1.5,8c1.1,2.7,2.3,4.6,4.2,6.9c1.9,2.3,3.8,3.4,6.5,4.6C96.9,485.9,99.5,486.3,102.6,486.3z"
	/>
<path fill="#5C808B" d="M148.7,431.7h15.6l17.5,28.2l17.5-28.2h15.6v66.7h-14.5V455l-18.7,28.6h-0.4l-18.7-28.2v43.1h-14.1V431.7z"
	/>
<path fill="#5C808B" d="M229.2,431.7h50.3v13h-35.9V458H275v13h-31.3v14.1h36.2v13h-50.7V431.7z"/>
<path fill="#5C808B" d="M361.9,492c-2.7,2.3-5.7,4.2-8.8,5.3c-3.1,1.5-6.9,1.9-10.7,1.9c-3.1,0-6.1-0.4-8.8-1.1
	c-2.7-0.8-5-2.3-7.2-3.8c-2.3-1.5-3.4-3.8-4.6-6.1s-1.5-5-1.5-8c0-4.2,1.1-8,3.4-11.1c2.3-3.1,5.3-5.3,9.5-7.2
	c-1.5-2.3-2.7-4.6-3.4-6.9s-1.1-4.2-1.1-6.9c0-2.3,0.4-4.6,1.5-6.5c1.1-1.9,2.3-3.8,3.8-5.7c1.9-1.5,3.8-3.1,6.5-3.8
	c2.7-1.1,5.3-1.5,8.8-1.5c3.1,0,5.3,0.4,7.6,1.1s4.2,1.9,5.7,3.4c1.5,1.5,3.1,3.4,3.8,5.3c0.8,1.9,1.5,4.2,1.5,6.5v0.4
	c0,2.3-0.4,4.2-1.1,6.1c-0.8,1.9-1.5,3.4-3.1,5c-1.1,1.5-2.7,2.7-4.6,3.8c-1.9,1.1-3.8,1.9-5.7,3.1l8.8,8.8c1.1-1.9,2.3-3.4,3.4-5.3
	c1.1-1.9,2.3-3.8,3.4-6.1l10.7,5.7c-1.1,2.3-2.7,4.6-4.2,7.2l-4.6,6.9l9.9,9.9l-10.7,7.6L361.9,492z M344,487.4c1.5,0,3.4-0.4,5-1.1
	c1.5-0.8,3.1-1.5,4.6-2.7l-13-13c-2.3,1.1-3.8,2.3-4.6,3.8c-0.8,1.5-1.5,3.1-1.5,4.6c0,2.3,0.8,4.2,2.7,5.7
	C339.1,487,341.3,487.4,344,487.4z M345.5,457.3c3.1-1.1,5-2.3,6.5-3.8c1.5-1.5,2.3-3.1,2.3-5.3c0-1.9-0.8-3.4-1.9-4.6
	c-1.1-1.1-2.7-1.5-4.6-1.5c-1.9,0-3.4,0.8-4.6,1.9c-1.1,1.1-1.9,3.1-1.9,5v0.4c0,1.5,0.4,2.7,0.8,4.2
	C343.2,454.6,344.4,455.8,345.5,457.3L345.5,457.3z"/>
<path fill="#5C808B" d="M450.8,499.6c-5.3,0-9.9-0.8-14.1-2.7c-4.2-1.9-8-4.2-11.1-7.2c-3.1-3.1-5.3-6.9-7.2-10.7
	c-1.9-4.2-2.7-8.8-2.7-13.7c0-4.6,0.8-9.2,2.7-13.3c1.9-4.2,4.2-7.6,7.2-11.1s6.9-5.7,11.1-7.6c4.2-1.9,8.8-2.7,14.1-2.7
	c3.1,0,5.7,0.4,8,0.8c2.3,0.4,4.6,1.1,6.9,1.9c2.3,0.8,4.2,1.9,5.7,3.1c1.5,1.1,3.8,2.3,5.3,3.8l-9.2,11.1c-1.1-1.1-2.7-1.9-3.8-3.1
	c-1.1-0.8-2.7-1.5-3.8-2.3c-1.5-0.4-2.7-1.1-4.6-1.1c-1.5-0.4-3.4-0.4-5.3-0.4c-2.7,0-5.3,0.4-7.6,1.5c-2.3,1.1-4.2,2.7-6.1,4.6
	c-1.9,1.9-3.1,4.2-4.2,6.5c-1.1,2.7-1.5,5.3-1.5,8c0,3.1,0.4,5.7,1.5,8.4c1.1,2.7,2.3,5,4.2,6.9c1.9,1.9,3.8,3.4,6.5,4.6
	c2.3,1.1,5.3,1.5,8,1.5c5.3,0,9.9-1.5,13.7-4.2v-9.5H450V460h29v29c-3.4,3.1-7.6,5.3-12.2,7.6S456.9,499.6,450.8,499.6L450.8,499.6z
	"/>
<path fill="#5C808B" d="M513.7,431.4h13.7l28.6,67.1h-15.3l-6.1-14.9h-28.2l-6.1,14.9h-14.9C485.5,498.5,513.7,431.4,513.7,431.4z
	 M529.4,470.6l-8.8-21.7l-8.8,21.7H529.4z"/>
<path fill="#5C808B" d="M564.1,431.7h30.5c8.4,0,14.9,2.3,19.5,6.9c3.8,3.8,5.7,8.8,5.7,15.3c0,5.3-1.1,9.9-3.8,13.3
	c-2.7,3.4-6.1,5.7-10.3,7.6l16.4,23.6h-17.2l-14.5-21.4h-11.4v21.4h-14.9V431.7L564.1,431.7z M593.4,464.1c3.8,0,6.5-0.8,8.4-2.7
	s3.1-3.8,3.1-6.9v-0.4c0-3.1-1.1-5.7-3.1-7.2c-1.9-1.5-5-2.3-8.4-2.3h-14.5v19.1h14.5V464.1z"/>
<path fill="#5C808B" d="M630.8,431.7h25.9c5.3,0,9.9,0.8,14.5,2.7c4.2,1.5,8,4.2,11.4,6.9c3.4,2.7,5.7,6.5,7.2,10.7
	c1.5,4.2,2.7,8.4,2.7,13c0,4.6-0.8,9.2-2.7,13.3c-1.9,4.2-4.2,7.6-7.2,10.7c-3.1,3.1-6.9,5.3-11.4,7.2c-4.6,1.9-9.2,2.7-14.5,2.7
	h-25.9C630.8,498.9,630.8,431.7,630.8,431.7z M656.8,485.5c3.1,0,5.7-0.4,8.4-1.5c2.3-0.8,4.6-2.3,6.5-4.2c1.9-1.9,3.1-3.8,4.2-6.5
	c1.1-2.3,1.5-5,1.5-8s-0.4-5.7-1.5-8c-1.1-2.7-2.3-4.6-4.2-6.5c-1.9-1.9-3.8-3.1-6.5-4.2c-2.7-1.1-5.3-1.5-8.4-1.5h-11.4v40.4H656.8
	z"/>
<path fill="#5C808B" d="M702.9,431.7h50.3v13h-35.9V458h31.3v13h-31.3v14.1h36.2v13h-50.7V431.7L702.9,431.7z"/>
<path fill="#5C808B" d="M764.7,431.7h13.7l31.3,41.2v-41.2h14.5v66.7h-12.6l-32.4-42.3v42.3h-14.5V431.7z"/>
</svg>
