<?xml version="1.0" encoding="UTF-8"?>
<!DOCTYPE svg PUBLIC "-//W3C//DTD SVG 1.1//EN" "http://www.w3.org/Graphics/SVG/1.1/DTD/svg11.dtd">
<svg xmlns="http://www.w3.org/2000/svg" version="1.1" width="650px" height="100px" style="shape-rendering:geometricPrecision; text-rendering:geometricPrecision; image-rendering:optimizeQuality; fill-rule:evenodd; clip-rule:evenodd" xmlns:xlink="http://www.w3.org/1999/xlink">
<g><path style="opacity:1" fill="#ffffff" d="M 293.5,3.5 C 303.959,2.65824 313.793,4.65824 323,9.5C 323.667,10.5 323.667,11.5 323,12.5C 320.623,16.088 318.123,19.588 315.5,23C 310.614,21.5823 305.614,20.0823 300.5,18.5C 294.523,19.5406 293.523,22.0406 297.5,26C 303.212,27.5114 308.879,29.178 314.5,31C 321.417,34.4932 324.75,40.1598 324.5,48C 323.791,58.7696 318.458,66.103 308.5,70C 295.765,72.7957 283.432,71.6291 271.5,66.5C 270.386,65.277 270.219,63.9437 271,62.5C 273.072,59.0288 274.572,55.3621 275.5,51.5C 281.892,53.4615 288.392,55.1282 295,56.5C 298.827,56.5039 301.66,54.8373 303.5,51.5C 302.636,49.8035 301.303,48.6368 299.5,48C 291.67,46.7259 284.504,43.8926 278,39.5C 269.224,21.3923 274.391,9.3923 293.5,3.5 Z"/></g>
<g><path style="opacity:1" fill="#ffffff" d="M -0.5,4.5 C 5.16667,4.5 10.8333,4.5 16.5,4.5C 16.3336,12.1739 16.5003,19.8406 17,27.5C 20.6667,28.8333 24.3333,28.8333 28,27.5C 28.4997,19.8406 28.6664,12.1739 28.5,4.5C 34.5,4.5 40.5,4.5 46.5,4.5C 46.5,26.5 46.5,48.5 46.5,70.5C 40.5,70.5 34.5,70.5 28.5,70.5C 28.6664,61.8269 28.4998,53.1603 28,44.5C 24.3333,43.1667 20.6667,43.1667 17,44.5C 16.5002,53.1603 16.3336,61.8269 16.5,70.5C 10.8333,70.5 5.16667,70.5 -0.5,70.5C -0.5,48.5 -0.5,26.5 -0.5,4.5 Z"/></g>
<g><path style="opacity:1" fill="#ffffff" d="M 71.5,4.5 C 77.8333,4.5 84.1667,4.5 90.5,4.5C 96.8333,26.5 103.167,48.5 109.5,70.5C 102.833,70.5 96.1667,70.5 89.5,70.5C 88.7081,66.789 87.7081,63.1223 86.5,59.5C 81.9497,58.1999 77.4497,58.1999 73,59.5C 71.8242,63.0274 70.6575,66.5274 69.5,70C 63.1754,70.4995 56.8421,70.6662 50.5,70.5C 57.1017,48.3621 64.1017,26.3621 71.5,4.5 Z M 79.5,32.5 C 80.9448,35.9365 81.9448,39.6032 82.5,43.5C 80.8333,43.5 79.1667,43.5 77.5,43.5C 78.3255,39.8641 78.9922,36.1974 79.5,32.5 Z"/></g>
<g><path style="opacity:1" fill="#ffffff" d="M 111.5,4.5 C 117.833,4.5 124.167,4.5 130.5,4.5C 130.333,20.5035 130.5,36.5035 131,52.5C 135.509,57.9943 139.509,57.661 143,51.5C 143.5,35.8369 143.667,20.1702 143.5,4.5C 149.5,4.5 155.5,4.5 161.5,4.5C 161.667,22.8364 161.5,41.1697 161,59.5C 158.768,64.7306 154.935,68.2306 149.5,70C 140.833,72 132.167,72 123.5,70C 118.606,68.314 115.106,65.1474 113,60.5C 111.552,41.8884 111.052,23.2218 111.5,4.5 Z"/></g>
<g><path style="opacity:1" fill="#ffffff" d="M 172.5,4.5 C 183.881,4.14449 195.215,4.64449 206.5,6C 218.934,10.568 223.434,19.4014 220,32.5C 217.732,40.4352 212.565,45.2685 204.5,47C 199.845,47.4992 195.179,47.6658 190.5,47.5C 190.5,55.1667 190.5,62.8333 190.5,70.5C 184.5,70.5 178.5,70.5 172.5,70.5C 172.5,48.5 172.5,26.5 172.5,4.5 Z M 190.5,20.5 C 200.436,19.2698 203.103,23.1031 198.5,32C 195.854,32.4974 193.187,32.6641 190.5,32.5C 190.5,28.5 190.5,24.5 190.5,20.5 Z"/></g>
<g><path style="opacity:1" fill="#ffffff" d="M 222.5,4.5 C 239.167,4.5 255.833,4.5 272.5,4.5C 272.113,9.87404 271.446,15.2074 270.5,20.5C 265.5,20.5 260.5,20.5 255.5,20.5C 255.5,37.1667 255.5,53.8333 255.5,70.5C 249.5,70.5 243.5,70.5 237.5,70.5C 237.5,53.8333 237.5,37.1667 237.5,20.5C 232.5,20.5 227.5,20.5 222.5,20.5C 222.5,15.1667 222.5,9.83333 222.5,4.5 Z"/></g>
<g><path style="opacity:1" fill="#ffffff" d="M 325.5,4.5 C 342.167,4.5 358.833,4.5 375.5,4.5C 374.833,9.83333 374.167,15.1667 373.5,20.5C 368.5,20.5 363.5,20.5 358.5,20.5C 358.5,37.1667 358.5,53.8333 358.5,70.5C 352.5,70.5 346.5,70.5 340.5,70.5C 340.5,53.8333 340.5,37.1667 340.5,20.5C 335.5,20.5 330.5,20.5 325.5,20.5C 325.5,15.1667 325.5,9.83333 325.5,4.5 Z"/></g>
<g><path style="opacity:1" fill="#fefefe" d="M 387.5,4.5 C 393.868,4.17033 400.202,4.50367 406.5,5.5C 413.616,26.9689 419.949,48.6356 425.5,70.5C 419.158,70.6662 412.825,70.4995 406.5,70C 404.799,66.3632 403.799,62.5298 403.5,58.5C 398.786,58.1734 394.12,58.5067 389.5,59.5C 388.292,63.1223 387.292,66.789 386.5,70.5C 380.167,70.5 373.833,70.5 367.5,70.5C 373.554,48.3351 380.221,26.3351 387.5,4.5 Z M 395.5,34.5 C 397.851,36.8413 398.851,39.8413 398.5,43.5C 396.801,43.6602 395.134,43.4935 393.5,43C 394.713,40.3135 395.38,37.4802 395.5,34.5 Z"/></g>
<g><path style="opacity:1" fill="#ffffff" d="M 430.5,4.5 C 471.595,-2.57542 487.428,14.0913 478,54.5C 475.367,62.8018 469.867,67.9685 461.5,70C 451.172,70.4998 440.839,70.6665 430.5,70.5C 430.5,48.5 430.5,26.5 430.5,4.5 Z M 448.5,20.5 C 455.689,19.1871 459.522,22.1871 460,29.5C 460.774,36.2236 460.441,42.8903 459,49.5C 457.245,54.4142 453.912,56.0809 449,54.5C 448.5,43.1716 448.333,31.8382 448.5,20.5 Z"/></g>
<g><path style="opacity:1" fill="#ffffff" d="M 482.5,4.5 C 499.167,4.5 515.833,4.5 532.5,4.5C 531.74,9.82016 531.073,15.1535 530.5,20.5C 525.5,20.5 520.5,20.5 515.5,20.5C 515.5,37.1667 515.5,53.8333 515.5,70.5C 509.167,70.5 502.833,70.5 496.5,70.5C 497.441,53.8614 497.775,37.1948 497.5,20.5C 492.5,20.5 487.5,20.5 482.5,20.5C 482.5,15.1667 482.5,9.83333 482.5,4.5 Z"/></g>
<g><path style="opacity:1" fill="#f21e2e" d="M 649.5,4.5 C 649.5,5.83333 649.5,7.16667 649.5,8.5C 642.197,28.735 634.863,49.0684 627.5,69.5C 622.208,70.4948 616.875,70.8282 611.5,70.5C 606.111,53.8316 600.611,37.1649 595,20.5C 590.599,19.5333 586.099,19.2 581.5,19.5C 580.503,35.9916 580.17,52.6583 580.5,69.5C 575.167,69.5 569.833,69.5 564.5,69.5C 564.83,52.6583 564.497,35.9916 563.5,19.5C 558.5,19.5 553.5,19.5 548.5,19.5C 548.5,14.8333 548.5,10.1667 548.5,5.5C 568.833,5.5 589.167,5.5 609.5,5.5C 612.69,17.238 616.19,28.9046 620,40.5C 622.979,28.8757 626.812,17.5423 631.5,6.5C 637.552,5.79397 643.552,5.1273 649.5,4.5 Z"/></g>
<g><path style="opacity:1" fill="#fcb3be" d="M 563.5,19.5 C 564.497,35.9916 564.83,52.6583 564.5,69.5C 569.833,69.5 575.167,69.5 580.5,69.5C 580.17,52.6583 580.503,35.9916 581.5,19.5C 581.5,36.5 581.5,53.5 581.5,70.5C 575.5,70.5 569.5,70.5 563.5,70.5C 563.5,53.5 563.5,36.5 563.5,19.5 Z"/></g>
<g><path style="opacity:1" fill="#fbf4f5" d="M 542.5,38.5 C 543.492,38.3284 544.158,38.6618 544.5,39.5C 546.007,40.9755 547.673,42.3088 549.5,43.5C 539.771,42.0247 533.771,46.0247 531.5,55.5C 534.02,65.2174 540.02,68.7174 549.5,66C 554.949,61.8313 556.949,56.3313 555.5,49.5C 555.833,49.5 556.167,49.5 556.5,49.5C 557.117,49.6107 557.617,49.944 558,50.5C 558.167,52.5 558.333,54.5 558.5,56.5C 558.657,59.8136 557.991,62.8136 556.5,65.5C 556.565,65.0618 556.399,64.7284 556,64.5C 550.282,72.4013 542.782,74.568 533.5,71C 525.315,64.7114 523.481,56.8781 528,47.5C 531.927,42.4533 537.094,39.9533 543.5,40C 542.944,39.6174 542.611,39.1174 542.5,38.5 Z"/></g>
<g><path style="opacity:1" fill="#dc8d8f" d="M 544.5,39.5 C 550.5,40.4917 554.5,43.8251 556.5,49.5C 556.167,49.5 555.833,49.5 555.5,49.5C 553.833,47.1667 551.833,45.1667 549.5,43.5C 547.673,42.3088 546.007,40.9755 544.5,39.5 Z"/></g>
<g><path style="opacity:1" fill="#fbfbfb" d="M 537.5,48.5 C 542.032,49.7632 546.365,51.5965 550.5,54C 551.337,55.0113 551.67,56.1779 551.5,57.5C 547.063,59.7145 542.396,61.3812 537.5,62.5C 537.5,57.8333 537.5,53.1667 537.5,48.5 Z"/></g>
<g><path style="opacity:1" fill="#f64141" d="M 542.5,38.5 C 542.611,39.1174 542.944,39.6174 543.5,40C 537.094,39.9533 531.927,42.4533 528,47.5C 523.481,56.8781 525.315,64.7114 533.5,71C 542.782,74.568 550.282,72.4013 556,64.5C 556.399,64.7284 556.565,65.0618 556.5,65.5C 550.396,75.8121 541.729,78.6454 530.5,74C 520.161,66.145 518.328,56.645 525,45.5C 529.675,40.3293 535.509,37.9959 542.5,38.5 Z"/></g>
<g><path style="opacity:1" fill="#f21d2e" d="M -0.5,79.5 C 207.5,79.5 415.5,79.5 623.5,79.5C 622.565,83.9693 621.232,88.3027 619.5,92.5C 412.147,93.0711 205.481,93.4044 -0.5,93.5C -0.5,88.8333 -0.5,84.1667 -0.5,79.5 Z"/></g>
<g><path style="opacity:1" fill="#f11033" d="M 619.5,92.5 C 413.169,94.4989 206.503,95.1656 -0.5,94.5C -0.5,94.1667 -0.5,93.8333 -0.5,93.5C 205.481,93.4044 412.147,93.0711 619.5,92.5 Z"/></g>
</svg>
