<?xml version="1.0" encoding="UTF-8"?>
<!DOCTYPE svg PUBLIC "-//W3C//DTD SVG 1.1//EN" "http://www.w3.org/Graphics/SVG/1.1/DTD/svg11.dtd">
<svg xmlns="http://www.w3.org/2000/svg" version="1.1" width="702px" height="180px" style="shape-rendering:geometricPrecision; text-rendering:geometricPrecision; image-rendering:optimizeQuality; fill-rule:evenodd; clip-rule:evenodd" xmlns:xlink="http://www.w3.org/1999/xlink">
<g><path style="opacity:1" fill="#93c023" d="M 468.5,-0.5 C 473.5,-0.5 478.5,-0.5 483.5,-0.5C 529.612,6.77845 556.779,33.4451 565,79.5C 567.144,128.071 545.31,160.238 499.5,176C 451.815,184.737 416.649,167.904 394,125.5C 391.652,119.291 389.818,112.958 388.5,106.5C 403.01,106.829 417.343,106.496 431.5,105.5C 432.87,101.571 434.37,97.5711 436,93.5C 437.732,97.3634 439.066,101.363 440,105.5C 442.333,106.167 444.667,106.833 447,107.5C 448.206,112.531 449.54,117.531 451,122.5C 453.235,123.98 455.068,123.647 456.5,121.5C 457.972,117.081 458.638,112.414 458.5,107.5C 460.175,91.7858 462.175,76.1192 464.5,60.5C 465.167,60.8333 465.833,61.1667 466.5,61.5C 468.669,90.1904 471.169,118.857 474,147.5C 475.938,148.86 477.604,148.527 479,146.5C 480.834,133.157 482.668,119.824 484.5,106.5C 487.518,106.665 490.518,106.498 493.5,106C 495.333,103.5 497.167,101 499,98.5C 501.333,95.8333 503.667,95.8333 506,98.5C 507.5,100.833 509,103.167 510.5,105.5C 514.796,106.328 519.129,106.828 523.5,107C 528.193,116.836 535.526,119.169 545.5,114C 551.895,104.906 550.561,97.2392 541.5,91C 533.052,88.7244 527.052,91.5578 523.5,99.5C 520.167,100.833 516.833,100.833 513.5,99.5C 506.076,87.6074 498.743,87.6074 491.5,99.5C 487.623,100.197 483.79,100.864 480,101.5C 478.678,106.428 477.678,111.428 477,116.5C 474.333,86.4964 471.666,56.4964 469,26.5C 467.333,25.1667 465.667,25.1667 464,26.5C 461.372,39.3942 459.539,52.3942 458.5,65.5C 457.028,69.9192 456.362,74.5859 456.5,79.5C 455.252,87.8041 453.919,96.1375 452.5,104.5C 451.738,103.372 451.071,102.205 450.5,101C 448.19,100.503 445.857,100.337 443.5,100.5C 442.321,93.4407 440.821,86.4407 439,79.5C 437,76.8333 435,76.8333 433,79.5C 431.016,86.5932 429.182,93.5932 427.5,100.5C 414.167,100.5 400.833,100.5 387.5,100.5C 384.368,62.2677 398.702,32.7677 430.5,12C 442.548,5.70577 455.215,1.5391 468.5,-0.5 Z"/></g>
<g><path style="opacity:1" fill="#ffffff" d="M 466.5,61.5 C 466.662,59.4727 466.495,57.4727 466,55.5C 464.731,56.9047 464.231,58.5714 464.5,60.5C 462.175,76.1192 460.175,91.7858 458.5,107.5C 457.028,111.919 456.362,116.586 456.5,121.5C 455.068,123.647 453.235,123.98 451,122.5C 449.54,117.531 448.206,112.531 447,107.5C 444.667,106.833 442.333,106.167 440,105.5C 439.066,101.363 437.732,97.3634 436,93.5C 434.37,97.5711 432.87,101.571 431.5,105.5C 417.484,105.833 403.484,105.499 389.5,104.5C 389.167,103.833 388.833,103.167 388.5,102.5C 401.66,101.833 414.66,101.167 427.5,100.5C 429.182,93.5932 431.016,86.5932 433,79.5C 435,76.8333 437,76.8333 439,79.5C 440.821,86.4407 442.321,93.4407 443.5,100.5C 445.857,100.337 448.19,100.503 450.5,101C 451.071,102.205 451.738,103.372 452.5,104.5C 453.919,96.1375 455.252,87.8041 456.5,79.5C 457.972,75.0808 458.638,70.4141 458.5,65.5C 459.539,52.3942 461.372,39.3942 464,26.5C 465.667,25.1667 467.333,25.1667 469,26.5C 471.666,56.4964 474.333,86.4964 477,116.5C 477.678,111.428 478.678,106.428 480,101.5C 483.79,100.864 487.623,100.197 491.5,99.5C 498.743,87.6074 506.076,87.6074 513.5,99.5C 516.833,100.833 520.167,100.833 523.5,99.5C 527.052,91.5578 533.052,88.7244 541.5,91C 550.561,97.2392 551.895,104.906 545.5,114C 535.526,119.169 528.193,116.836 523.5,107C 519.129,106.828 514.796,106.328 510.5,105.5C 509,103.167 507.5,100.833 506,98.5C 503.667,95.8333 501.333,95.8333 499,98.5C 497.167,101 495.333,103.5 493.5,106C 490.518,106.498 487.518,106.665 484.5,106.5C 482.668,119.824 480.834,133.157 479,146.5C 477.604,148.527 475.938,148.86 474,147.5C 471.169,118.857 468.669,90.1904 466.5,61.5 Z"/></g>
<g><path style="opacity:1" fill="#ffffff" d="M 20.5,38.5 C 22.1667,38.5 23.8333,38.5 25.5,38.5C 25.5,49.1667 25.5,59.8333 25.5,70.5C 36.5858,67.9761 46.9191,69.6427 56.5,75.5C 61.5922,81.4833 64.4255,88.4833 65,96.5C 65.4999,111.163 65.6666,125.83 65.5,140.5C 58.5,140.5 51.5,140.5 44.5,140.5C 44.6666,127.496 44.4999,114.496 44,101.5C 43.3345,89.4132 37.1679,85.0799 25.5,88.5C 25.5,105.833 25.5,123.167 25.5,140.5C 18.5,140.5 11.5,140.5 4.5,140.5C 4.5,107.5 4.5,74.5 4.5,41.5C 10.0947,41.2464 15.4281,40.2464 20.5,38.5 Z"/></g>
<g><path style="opacity:1" fill="#ffffff" d="M 234.5,38.5 C 236.167,38.5 237.833,38.5 239.5,38.5C 239.333,65.5021 239.5,92.5021 240,119.5C 242.248,122.875 245.415,124.541 249.5,124.5C 249.079,130.202 248.412,135.869 247.5,141.5C 234.208,144.103 224.708,139.437 219,127.5C 218.5,98.8353 218.333,70.1686 218.5,41.5C 224.095,41.2464 229.428,40.2464 234.5,38.5 Z"/></g>
<g><path style="opacity:1" fill="#ffffff" d="M 326.5,38.5 C 328.167,38.5 329.833,38.5 331.5,38.5C 331.5,49.1667 331.5,59.8333 331.5,70.5C 342.159,68.0895 352.159,69.5895 361.5,75C 366.574,79.313 369.407,84.813 370,91.5C 370.5,107.83 370.667,124.163 370.5,140.5C 363.833,140.5 357.167,140.5 350.5,140.5C 350.667,127.496 350.5,114.496 350,101.5C 349.404,89.441 343.237,85.1077 331.5,88.5C 331.5,105.833 331.5,123.167 331.5,140.5C 324.5,140.5 317.5,140.5 310.5,140.5C 310.5,107.5 310.5,74.5 310.5,41.5C 316.067,41.101 321.401,40.101 326.5,38.5 Z"/></g>
<g><path style="opacity:1" fill="#ffffff" d="M 271.5,50.5 C 272.833,50.5 274.167,50.5 275.5,50.5C 275.5,57.5 275.5,64.5 275.5,71.5C 283.5,71.5 291.5,71.5 299.5,71.5C 299.5,77.1667 299.5,82.8333 299.5,88.5C 291.5,88.5 283.5,88.5 275.5,88.5C 275.334,96.5069 275.5,104.507 276,112.5C 275.867,120.158 279.534,124.158 287,124.5C 291.137,123.59 295.304,122.923 299.5,122.5C 300.353,127.889 301.186,133.222 302,138.5C 288.89,144.226 276.057,143.726 263.5,137C 258.207,131.289 255.373,124.456 255,116.5C 254.5,95.5026 254.333,74.5026 254.5,53.5C 260.489,53.6329 266.156,52.6329 271.5,50.5 Z"/></g>
<g><path style="opacity:1" fill="#ffffff" d="M 598.5,50.5 C 599.833,50.5 601.167,50.5 602.5,50.5C 602.5,57.5 602.5,64.5 602.5,71.5C 610.5,71.5 618.5,71.5 626.5,71.5C 626.5,77.1667 626.5,82.8333 626.5,88.5C 618.5,88.5 610.5,88.5 602.5,88.5C 602.334,97.5062 602.5,106.506 603,115.5C 603.882,121.548 607.382,124.548 613.5,124.5C 617.803,123.572 622.136,122.906 626.5,122.5C 626.927,127.803 627.927,132.97 629.5,138C 616.32,144.319 603.32,143.986 590.5,137C 585.196,131.674 582.363,125.174 582,117.5C 581.5,96.1693 581.333,74.8359 581.5,53.5C 587.489,53.6329 593.156,52.6329 598.5,50.5 Z"/></g>
<g><path style="opacity:1" fill="#93c023" d="M 466.5,61.5 C 465.833,61.1667 465.167,60.8333 464.5,60.5C 464.231,58.5714 464.731,56.9047 466,55.5C 466.495,57.4727 466.662,59.4727 466.5,61.5 Z"/></g>
<g><path style="opacity:1" fill="#ffffff" d="M 103.5,68.5 C 127.9,68.4003 140.234,80.567 140.5,105C 140.202,107.848 139.869,110.681 139.5,113.5C 124.83,113.333 110.163,113.5 95.5,114C 100.751,122.539 108.418,125.872 118.5,124C 123.24,123.588 127.74,122.421 132,120.5C 134.303,126.246 135.303,132.246 135,138.5C 118.852,144.464 103.019,143.797 87.5,136.5C 80.7267,131.541 76.5601,124.874 75,116.5C 71.3512,99.1049 76.1845,84.9382 89.5,74C 94.1587,71.8421 98.8254,70.0088 103.5,68.5 Z M 104.5,86.5 C 113.174,85.9946 118.174,89.9946 119.5,98.5C 111.472,98.831 103.472,98.4977 95.5,97.5C 96.6667,95.1667 97.8333,92.8333 99,90.5C 101.015,89.3034 102.849,87.9701 104.5,86.5 Z"/></g>
<g><path style="opacity:1" fill="#ffffff" d="M 169.5,68.5 C 179.535,67.8429 188.869,70.0096 197.5,75C 201.714,78.5473 204.214,83.0473 205,88.5C 205.833,105.177 205.666,121.843 204.5,138.5C 189.285,141.823 173.951,142.323 158.5,140C 149.3,136.112 144.967,129.112 145.5,119C 145.39,109.444 149.723,102.777 158.5,99C 167.08,96.5053 175.747,96.0053 184.5,97.5C 185.259,91.7215 182.592,88.2215 176.5,87C 168.727,86.7392 161.06,87.5726 153.5,89.5C 152.953,83.7624 152.453,78.0958 152,72.5C 157.94,71.2146 163.773,69.8812 169.5,68.5 Z M 172.5,111.5 C 176.833,111.5 181.167,111.5 185.5,111.5C 185.5,116.167 185.5,120.833 185.5,125.5C 180.821,125.666 176.155,125.499 171.5,125C 166.668,122.871 165.335,119.371 167.5,114.5C 169.36,113.675 171.026,112.675 172.5,111.5 Z"/></g>
<g><path style="opacity:1" fill="#ffffff" d="M 630.5,71.5 C 638.167,71.5 645.833,71.5 653.5,71.5C 653.94,76.9885 655.107,82.3218 657,87.5C 659.606,95.9857 662.606,104.319 666,112.5C 671.281,99.1585 675.448,85.4919 678.5,71.5C 685.833,71.5 693.167,71.5 700.5,71.5C 694.37,95.237 685.703,117.904 674.5,139.5C 668.5,140.833 662.5,140.833 656.5,139.5C 645.403,117.794 636.737,95.1277 630.5,71.5 Z"/></g>
<g><path style="opacity:1" fill="#93c023" d="M 458.5,65.5 C 458.638,70.4141 457.972,75.0808 456.5,79.5C 456.362,74.5859 457.028,69.9192 458.5,65.5 Z"/></g>
<g><path style="opacity:1" fill="#f5cf37" d="M 532.5,96.5 C 540.661,95.1715 544.495,98.5048 544,106.5C 539,113.167 534,113.167 529,106.5C 528.333,104.5 528.333,102.5 529,100.5C 530.376,99.2949 531.542,97.9616 532.5,96.5 Z"/></g>
<g><path style="opacity:1" fill="#93c023" d="M 387.5,100.5 C 400.833,100.5 414.167,100.5 427.5,100.5C 414.66,101.167 401.66,101.833 388.5,102.5C 388.833,103.167 389.167,103.833 389.5,104.5C 403.484,105.499 417.484,105.833 431.5,105.5C 417.343,106.496 403.01,106.829 388.5,106.5C 387.85,104.565 387.517,102.565 387.5,100.5 Z"/></g>
<g><path style="opacity:1" fill="#93c023" d="M 458.5,107.5 C 458.638,112.414 457.972,117.081 456.5,121.5C 456.362,116.586 457.028,111.919 458.5,107.5 Z"/></g>
</svg>
