<?xml version="1.0" encoding="UTF-8" standalone="no"?>
<!-- Created with Inkscape (http://www.inkscape.org/) -->
<svg xmlns:dc="http://purl.org/dc/elements/1.1/" xmlns:cc="http://creativecommons.org/ns#" xmlns:rdf="http://www.w3.org/1999/02/22-rdf-syntax-ns#" xmlns:svg="http://www.w3.org/2000/svg" xmlns="http://www.w3.org/2000/svg" xmlns:sodipodi="http://sodipodi.sourceforge.net/DTD/sodipodi-0.dtd" xmlns:inkscape="http://www.inkscape.org/namespaces/inkscape" width="999.99994" height="680.578" id="svg3664" version="1.1" inkscape:version="0.48.5 r10040" sodipodi:docname="drawing-2.svg">
  <defs id="defs3666">
    <linearGradient x1="0" y1="0" x2="1" y2="0" gradientUnits="userSpaceOnUse" gradientTransform="matrix(38.149,0,0,-38.149,122.009,636.867)" spreadMethod="pad" id="linearGradient11843">
      <stop style="stop-opacity:1;stop-color:#b91318" offset="0" id="stop11845"/>
      <stop style="stop-opacity:1;stop-color:#ed5603" offset="1" id="stop11847"/>
    </linearGradient>
    <clipPath clipPathUnits="userSpaceOnUse" id="clipPath10693">
      <path inkscape:connector-curvature="0" d="m 572.223,690.208 -34.207,0 0,-15.534 34.207,0 0,15.534 z" id="path10695"/>
    </clipPath>
    <radialGradient fx="0" fy="0" cx="0" cy="0" r="1" gradientUnits="userSpaceOnUse" gradientTransform="matrix(42.023,13.863,13.863,-42.023,740.647,636.35)" spreadMethod="pad" id="radialGradient11725">
      <stop style="stop-opacity:1;stop-color:#ed560b" offset="0" id="stop11727"/>
      <stop style="stop-opacity:1;stop-color:#ffeb00" offset="1" id="stop11729"/>
    </radialGradient>
    <radialGradient fx="0" fy="0" cx="0" cy="0" r="1" gradientUnits="userSpaceOnUse" gradientTransform="matrix(54.391,15.122,15.122,-54.391,738.257,627.888)" spreadMethod="pad" id="radialGradient11707">
      <stop style="stop-opacity:1;stop-color:#4eae2d" offset="0" id="stop11709"/>
      <stop style="stop-opacity:1;stop-color:#009447" offset="1" id="stop11711"/>
    </radialGradient>
    <radialGradient fx="0" fy="0" cx="0" cy="0" r="1" gradientUnits="userSpaceOnUse" gradientTransform="matrix(54.391,15.122,15.122,-54.391,738.257,627.888)" spreadMethod="pad" id="radialGradient11689">
      <stop style="stop-opacity:1;stop-color:#4eae2d" offset="0" id="stop11691"/>
      <stop style="stop-opacity:1;stop-color:#009447" offset="1" id="stop11693"/>
    </radialGradient>
    <radialGradient fx="0" fy="0" cx="0" cy="0" r="1" gradientUnits="userSpaceOnUse" gradientTransform="matrix(54.391,15.122,15.122,-54.391,738.257,627.888)" spreadMethod="pad" id="radialGradient11671">
      <stop style="stop-opacity:1;stop-color:#4eae2d" offset="0" id="stop11673"/>
      <stop style="stop-opacity:1;stop-color:#009447" offset="1" id="stop11675"/>
    </radialGradient>
    <radialGradient fx="0" fy="0" cx="0" cy="0" r="1" gradientUnits="userSpaceOnUse" gradientTransform="matrix(54.391,15.122,15.122,-54.391,738.257,627.888)" spreadMethod="pad" id="radialGradient11653">
      <stop style="stop-opacity:1;stop-color:#4eae2d" offset="0" id="stop11655"/>
      <stop style="stop-opacity:1;stop-color:#009447" offset="1" id="stop11657"/>
    </radialGradient>
    <radialGradient fx="0" fy="0" cx="0" cy="0" r="1" gradientUnits="userSpaceOnUse" gradientTransform="matrix(54.391,15.122,15.122,-54.391,738.257,627.888)" spreadMethod="pad" id="radialGradient11635">
      <stop style="stop-opacity:1;stop-color:#4eae2d" offset="0" id="stop11637"/>
      <stop style="stop-opacity:1;stop-color:#009447" offset="1" id="stop11639"/>
    </radialGradient>
    <radialGradient fx="0" fy="0" cx="0" cy="0" r="1" gradientUnits="userSpaceOnUse" gradientTransform="matrix(54.391,15.122,15.122,-54.391,738.257,627.888)" spreadMethod="pad" id="radialGradient11617">
      <stop style="stop-opacity:1;stop-color:#4eae2d" offset="0" id="stop11619"/>
      <stop style="stop-opacity:1;stop-color:#009447" offset="1" id="stop11621"/>
    </radialGradient>
  </defs>
  <sodipodi:namedview id="base" pagecolor="#ffffff" bordercolor="#666666" borderopacity="1.0" inkscape:pageopacity="0.0" inkscape:pageshadow="2" inkscape:zoom="0.57490234" inkscape:cx="607.23412" inkscape:cy="186.7326" inkscape:document-units="px" inkscape:current-layer="layer1" showgrid="false" fit-margin-top="0" fit-margin-left="0" fit-margin-right="0" fit-margin-bottom="0" inkscape:window-width="1012" inkscape:window-height="1038" inkscape:window-x="901" inkscape:window-y="-21" inkscape:window-maximized="0"/>
  <metadata id="metadata3669">
    <rdf:RDF>
      <cc:Work rdf:about="">
        <dc:format>image/svg+xml</dc:format>
        <dc:type rdf:resource="http://purl.org/dc/dcmitype/StillImage"/>
        <dc:title/>
      </cc:Work>
    </rdf:RDF>
  </metadata>
  <g inkscape:label="Layer 1" inkscape:groupmode="layer" id="layer1" transform="translate(-2924.6225,2476.7091)">
    <g transform="matrix(33.307842,0,0,-33.307842,3305.495,-1873.4732)" id="g11579">
      <path inkscape:connector-curvature="0" id="path11581" style="fill:#33aa33;fill-opacity:1;fill-rule:nonzero;stroke:none" d="m 0,0 -0.759,0 -0.782,-0.89 0,0.89 -0.588,0 0,-2.322 0.588,0 0,1.005 0.811,-1.005 0.784,0 -1.057,1.25 L 0,0"/>
    </g>
    <g transform="matrix(33.307842,0,0,-33.307842,3359.5229,-1827.3405)" id="g11583">
      <path inkscape:connector-curvature="0" id="path11585" style="fill:#33aa33;fill-opacity:1;fill-rule:nonzero;stroke:none" d="M 0,0 -0.495,0 -0.245,0.676 0,0 z m -0.518,1.384 -0.974,-2.321 0.654,0 0.166,0.445 0.842,0 0.177,-0.445 0.666,0 -0.964,2.321 -0.567,0"/>
    </g>
    <g transform="matrix(33.307842,0,0,-33.307842,3451.4499,-1825.9096)" id="g11587">
      <path inkscape:connector-curvature="0" id="path11589" style="fill:#33aa33;fill-opacity:1;fill-rule:nonzero;stroke:none" d="m 0,0 -0.878,1.428 -0.666,0 0,-2.322 0.585,0 -0.012,1.432 0.881,-1.432 0.663,0 0,2.322 -0.585,0 L 0,0"/>
    </g>
    <g transform="matrix(33.307842,0,0,-33.307842,3526.9921,-1827.3405)" id="g11591">
      <path inkscape:connector-curvature="0" id="path11593" style="fill:#33aa33;fill-opacity:1;fill-rule:nonzero;stroke:none" d="M 0,0 -0.495,0 -0.245,0.676 0,0 z m -0.518,1.384 -0.974,-2.321 0.654,0 0.166,0.445 0.842,0 0.177,-0.445 0.666,0 -0.964,2.321 -0.567,0"/>
    </g>
    <g transform="matrix(33.307842,0,0,-33.307842,3587.647,-1813.7855)" id="g11595">
      <path inkscape:connector-curvature="0" id="path11597" style="fill:#33aa33;fill-opacity:1;fill-rule:nonzero;stroke:none" d="m 0,0 0,1.791 -0.604,0 0,-2.321 1.482,0 0,0.53 L 0,0"/>
    </g>
    <g transform="matrix(33.307842,0,0,-33.307842,3179.9271,-1834.1353)" id="g11599">
      <path inkscape:connector-curvature="0" id="path11601" style="fill:#afaeb2;fill-opacity:1;fill-rule:nonzero;stroke:none" d="m 0,0 -7.56,0 c -0.058,0 -0.105,0.047 -0.105,0.105 0,0.058 0.047,0.106 0.105,0.106 l 7.56,0 C 0.058,0.211 0.105,0.163 0.105,0.105 0.105,0.047 0.058,0 0,0"/>
    </g>
    <g transform="matrix(33.307842,0,0,-33.307842,3921.1251,-1833.3705)" id="g11603">
      <path inkscape:connector-curvature="0" id="path11605" style="fill:#afaeb2;fill-opacity:1;fill-rule:nonzero;stroke:none" d="m 0,0 -7.56,0 c -0.058,0 -0.105,0.047 -0.105,0.105 0,0.058 0.047,0.106 0.105,0.106 l 7.56,0 C 0.058,0.211 0.105,0.163 0.105,0.105 0.105,0.047 0.058,0 0,0"/>
    </g>
    <g transform="matrix(33.307842,0,0,-33.307842,-21831.232,19083.557)" id="g11607">
      <g id="g11609">
        <g id="g11615">
          <path inkscape:connector-curvature="0" id="path11623" style="fill:url(#radialGradient11617);stroke:none" d="m 748.717,630.656 -1.622,-0.336 c -0.112,0.616 -0.133,1.301 -0.119,1.979 -0.196,-0.035 -0.951,-0.063 -1.238,-0.049 l -0.279,0.594 c -0.063,-0.615 -0.119,-1.622 -0.056,-2.279 l -1.601,-0.245 c -0.266,1.839 0.217,3.384 0.328,5.181 l 1.594,0.342 c 0.021,-0.846 -0.049,-1.503 -0.139,-2.146 0.419,-0.021 1.083,-0.007 1.489,0.035 0.077,0.629 0.202,1.384 0.356,1.874 l 1.622,0.223 c -0.363,-1.719 -0.545,-3.831 -0.335,-5.173"/>
        </g>
      </g>
    </g>
    <g transform="matrix(33.307842,0,0,-33.307842,-21831.232,19083.557)" id="g11625">
      <g id="g11627">
        <g id="g11633">
          <path inkscape:connector-curvature="0" id="path11641" style="fill:url(#radialGradient11635);stroke:none" d="m 751.484,634.445 c -0.014,-0.224 -0.042,-0.447 -0.077,-0.671 0.384,0.035 1.104,0.084 1.72,0.105 l 0.125,-1.293 c -0.566,-0.014 -1.328,-0.084 -1.705,-0.119 l -0.287,0.279 c -0.014,-0.132 -0.021,-0.244 -0.021,-0.356 -0.007,-0.518 0.182,-0.72 0.741,-0.72 0.566,0 1.279,0.258 1.587,0.461 l 0.035,-1.44 c -0.433,-0.224 -1.293,-0.371 -2.146,-0.371 -1.098,0 -1.923,0.469 -1.909,1.671 0.007,0.685 0.21,1.322 0.294,2.084 l 0.426,0.251 c -0.112,-0.007 -0.601,-0.084 -0.783,-0.077 -0.042,0.378 -0.084,0.839 -0.056,1.231 1.35,0.105 2.622,0.517 3.999,0.349 l 0.287,-1.272 c -0.853,0.091 -1.531,-0.014 -2.23,-0.112"/>
        </g>
      </g>
    </g>
    <g transform="matrix(33.307842,0,0,-33.307842,-21831.232,19083.557)" id="g11643">
      <g id="g11645">
        <g id="g11651">
          <path inkscape:connector-curvature="0" id="path11659" style="fill:url(#radialGradient11653);stroke:none" d="m 755.875,630.593 -1.636,-0.287 c -0.266,1.832 0.224,3.405 0.335,5.195 l 1.608,0.342 c 0.091,-1.838 -0.517,-3.418 -0.307,-5.25"/>
        </g>
      </g>
    </g>
    <g transform="matrix(33.307842,0,0,-33.307842,-21831.232,19083.557)" id="g11661">
      <g id="g11663">
        <g id="g11669">
          <path inkscape:connector-curvature="0" id="path11677" style="fill:url(#radialGradient11671);stroke:none" d="m 761.426,630.313 c -0.321,0.658 -0.328,1.58 -0.314,2.273 l -0.056,0 c -0.42,-0.762 -0.769,-1.615 -0.783,-1.818 l -1.272,-0.336 c -0.336,0.678 -0.462,1.552 -0.658,2.265 l -0.056,0 c -0.174,-0.629 -0.335,-1.454 -0.335,-2.16 0,0 -0.923,-0.126 -1.503,-0.238 -0.091,1.93 0.79,3.37 1.076,5.202 l 1.336,0.314 c 0.503,-1.02 0.608,-2.125 0.916,-3.181 0.496,0.825 1.209,2.28 1.538,2.93 l 1.573,0.265 c -0.224,-1.677 -0.455,-3.943 0.097,-5.257 l -1.559,-0.259"/>
        </g>
      </g>
    </g>
    <g transform="matrix(33.307842,0,0,-33.307842,-21831.232,19083.557)" id="g11679">
      <g id="g11681">
        <g id="g11687">
          <path inkscape:connector-curvature="0" id="path11695" style="fill:url(#radialGradient11689);stroke:none" d="m 766.149,633.641 c -0.147,-0.258 -0.433,-0.79 -0.566,-1.048 0.209,0.014 0.636,0.055 0.839,0.062 -0.056,0.245 -0.203,0.72 -0.273,0.986 z m 0.965,-3.37 c -0.189,0.308 -0.301,0.651 -0.441,1.084 -0.328,0 -0.713,-0.028 -1.076,-0.077 l -0.329,0.483 c -0.224,-0.49 -0.273,-0.623 -0.489,-1.224 l -1.65,-0.224 c 0.615,2.07 1.699,3.943 2.677,5.44 l 1.378,0.174 c 0.566,-1.587 0.894,-3.992 1.643,-5.166 l -1.713,-0.49"/>
        </g>
      </g>
    </g>
    <g transform="matrix(33.307842,0,0,-33.307842,-21831.232,19083.557)" id="g11697">
      <g id="g11699">
        <g id="g11705">
          <path inkscape:connector-curvature="0" id="path11713" style="fill:url(#radialGradient11707);stroke:none" d="m 771.058,634.459 c 0.07,-0.056 0.441,-0.168 0.525,-0.266 -0.147,-0.964 -0.378,-2.733 -0.245,-3.628 l -1.671,-0.217 c -0.091,0.665 -0.063,1.496 0.028,2.28 0.084,0.713 0.196,1.391 0.252,1.796 -0.553,0.007 -0.769,-0.007 -1.462,-0.286 l -0.125,1.328 c 0.51,0.224 1.097,0.273 1.635,0.273 l 0.839,0 c 0.79,0 1.538,0.167 1.93,0.391 l 0.091,-1.3 c -0.371,-0.266 -0.818,-0.413 -1.797,-0.371"/>
        </g>
      </g>
    </g>
    <g transform="matrix(33.307842,0,0,-33.307842,-21831.232,19083.557)" id="g11715">
      <g id="g11717">
        <g id="g11723">
          <path inkscape:connector-curvature="0" id="path11731" style="fill:url(#radialGradient11725);stroke:none" d="m 747.652,637.768 c 0,0 3.565,4.632 4.205,4.632 0.64,0 2.21,-2.68 2.21,-2.68 0,0 2.281,4.854 3.045,4.854 0.764,0 1.617,-0.627 1.617,-0.627 0,0 1.915,3.356 2.717,3.356 0.801,0 7.48,-9.535 7.48,-9.535 0,0 -2.345,0.32 -4.601,2.166 -0.964,0.789 -2.373,2.379 -2.373,2.379 0,0 -1.05,-1.577 -1.689,-1.577 -0.638,0 -2.295,2.743 -2.677,2.743 -0.382,0 -3.309,-5.711 -4.3,-5.711 -0.991,0 -1.471,2.564 -1.471,2.564 l -4.163,-2.564"/>
        </g>
      </g>
    </g>
  </g>
</svg>