<?xml version="1.0" encoding="UTF-8"?>
<!DOCTYPE svg PUBLIC "-//W3C//DTD SVG 1.1//EN" "http://www.w3.org/Graphics/SVG/1.1/DTD/svg11.dtd">
<svg xmlns="http://www.w3.org/2000/svg" version="1.1" width="261px" height="120px" style="shape-rendering:geometricPrecision; text-rendering:geometricPrecision; image-rendering:optimizeQuality; fill-rule:evenodd; clip-rule:evenodd" xmlns:xlink="http://www.w3.org/1999/xlink">
<g><path style="opacity:0.821" fill="#fefffe" d="M 0.5,1.5 C 39.8333,1.5 79.1667,1.5 118.5,1.5C 118.5,40.5 118.5,79.5 118.5,118.5C 79.1667,118.5 39.8333,118.5 0.5,118.5C 0.5,79.5 0.5,40.5 0.5,1.5 Z M 7.5,7.5 C 42.5,7.5 77.5,7.5 112.5,7.5C 112.5,42.5 112.5,77.5 112.5,112.5C 77.5088,111.611 42.5088,111.278 7.5,111.5C 7.5,76.8333 7.5,42.1667 7.5,7.5 Z"/></g>
<g><path style="opacity:0.895" fill="#fefefe" d="M 11.5,14.5 C 26.8333,14.5 42.1667,14.5 57.5,14.5C 57.1192,16.9418 57.7859,17.6085 59.5,16.5C 59.8333,17 60.1667,17.5 60.5,18C 57.461,21.3755 54.1276,24.5422 50.5,27.5C 49.5046,33.1278 49.1712,38.7945 49.5,44.5C 57.8333,44.5 66.1667,44.5 74.5,44.5C 74.6662,38.1579 74.4995,31.8246 74,25.5C 69.3064,22.7857 65.8064,19.119 63.5,14.5C 78.5148,14.1673 93.5148,14.5007 108.5,15.5C 108.291,16.086 107.957,16.586 107.5,17C 108.624,17.2492 109.624,17.7492 110.5,18.5C 107.84,21.9925 104.673,24.9925 101,27.5C 100.167,50.5072 100.334,73.5072 101.5,96.5C 105.69,99.3408 108.69,103.007 110.5,107.5C 95.4852,107.833 80.4852,107.499 65.5,106.5C 66.6085,104.786 65.9418,104.119 63.5,104.5C 65.7942,100.309 69.1276,96.9757 73.5,94.5C 74.4982,85.5246 74.8315,76.5246 74.5,67.5C 66.1667,67.5 57.8333,67.5 49.5,67.5C 49.3335,77.1724 49.5002,86.8391 50,96.5C 54.3896,99.4357 58.2229,102.936 61.5,107C 45.8369,107.5 30.1702,107.667 14.5,107.5C 14.5,106.5 14.5,105.5 14.5,104.5C 12.6453,104.728 11.8119,104.061 12,102.5C 15.3132,100.021 18.4798,97.3546 21.5,94.5C 23.3882,71.868 23.8882,49.2013 23,26.5C 18.4699,23.0518 14.6365,19.0518 11.5,14.5 Z"/></g>
<g><path style="opacity:0.902" fill="#fefefe" d="M 170.5,43.5 C 190.457,44.3099 210.457,44.8099 230.5,45C 244.857,49.6907 253.024,59.524 255,74.5C 257.769,94.1268 250.603,108.627 233.5,118C 218.837,118.5 204.17,118.667 189.5,118.5C 189.333,103.163 189.5,87.8297 190,72.5C 196.41,71.5223 202.91,71.189 209.5,71.5C 209.5,81.5 209.5,91.5 209.5,101.5C 230.02,102.82 238.187,93.4862 234,73.5C 231.028,65.4885 225.195,61.6552 216.5,62C 204.833,61.3333 193.167,61.3333 181.5,62C 180.507,80.757 180.174,99.5903 180.5,118.5C 173.5,118.5 166.5,118.5 159.5,118.5C 159.5,109.5 159.5,100.5 159.5,91.5C 154.167,91.5 148.833,91.5 143.5,91.5C 143.5,100.5 143.5,109.5 143.5,118.5C 136.833,118.5 130.167,118.5 123.5,118.5C 123.333,94.1644 123.5,69.8311 124,45.5C 130.333,44.1667 136.667,44.1667 143,45.5C 143.5,54.1603 143.666,62.8269 143.5,71.5C 148.833,71.5 154.167,71.5 159.5,71.5C 159.334,62.8269 159.5,54.1603 160,45.5C 163.603,44.8648 167.103,44.1982 170.5,43.5 Z"/></g>
</svg>
