<?xml version="1.0" encoding="UTF-8"?>
<!DOCTYPE svg PUBLIC "-//W3C//DTD SVG 1.1//EN" "http://www.w3.org/Graphics/SVG/1.1/DTD/svg11.dtd">
<svg xmlns="http://www.w3.org/2000/svg" version="1.1" width="502px" height="120px" style="shape-rendering:geometricPrecision; text-rendering:geometricPrecision; image-rendering:optimizeQuality; fill-rule:evenodd; clip-rule:evenodd" xmlns:xlink="http://www.w3.org/1999/xlink">
<g><path style="opacity:1" fill="#ffffff" d="M 2.5,2.5 C 8.83333,2.5 15.1667,2.5 21.5,2.5C 21.5,12.1667 21.5,21.8333 21.5,31.5C 32.5,31.5 43.5,31.5 54.5,31.5C 54.5,21.8333 54.5,12.1667 54.5,2.5C 60.8333,2.5 67.1667,2.5 73.5,2.5C 73.5,29.5 73.5,56.5 73.5,83.5C 67.1667,83.5 60.8333,83.5 54.5,83.5C 54.5,72.1667 54.5,60.8333 54.5,49.5C 43.5,49.5 32.5,49.5 21.5,49.5C 21.5,60.8333 21.5,72.1667 21.5,83.5C 15.1667,83.5 8.83333,83.5 2.5,83.5C 2.5,56.5 2.5,29.5 2.5,2.5 Z"/></g>
<g><path style="opacity:1" fill="#ffffff" d="M 457.5,7.5 C 488.806,8.30688 502.973,24.3069 500,55.5C 498.999,62.8195 495.832,68.9862 490.5,74C 482.167,74.3333 473.833,74.6667 465.5,75C 463,75.3747 460.667,76.2081 458.5,77.5C 456.716,74.6018 456.382,71.6018 457.5,68.5C 470.469,70.375 478.969,65.0417 483,52.5C 484.484,32.6504 475.317,23.4838 455.5,25C 445.041,28.5788 439.707,35.9121 439.5,47C 439.791,52.1677 441.458,56.8344 444.5,61C 438.185,62.1541 433.185,65.3208 429.5,70.5C 419.49,55.5496 418.99,40.2163 428,24.5C 435.412,14.5467 445.245,8.88008 457.5,7.5 Z"/></g>
<g><path style="opacity:1" fill="#ffffff" d="M 87.5,9.5 C 93.1667,9.5 98.8333,9.5 104.5,9.5C 104.5,34.1667 104.5,58.8333 104.5,83.5C 98.8333,83.5 93.1667,83.5 87.5,83.5C 87.5,58.8333 87.5,34.1667 87.5,9.5 Z"/></g>
<g><path style="opacity:1" fill="#ffffff" d="M 111.5,9.5 C 130.833,9.5 150.167,9.5 169.5,9.5C 169.5,14.8333 169.5,20.1667 169.5,25.5C 162.5,25.5 155.5,25.5 148.5,25.5C 148.5,44.8333 148.5,64.1667 148.5,83.5C 142.833,83.5 137.167,83.5 131.5,83.5C 131.5,64.1667 131.5,44.8333 131.5,25.5C 124.825,25.6663 118.158,25.4996 111.5,25C 110.19,19.8338 110.19,14.6671 111.5,9.5 Z"/></g>
<g><path style="opacity:1" fill="#ffffff" d="M 176.5,9.5 C 190.212,9.11548 203.879,9.61548 217.5,11C 225,13.1667 229.833,18 232,25.5C 235.375,39.2593 230.542,48.4259 217.5,53C 222.792,61.0822 227.958,69.2489 233,77.5C 233.495,79.4727 233.662,81.4727 233.5,83.5C 227.132,83.8297 220.798,83.4963 214.5,82.5C 209.984,73.4689 205.484,64.4689 201,55.5C 198.619,54.565 196.119,54.2317 193.5,54.5C 193.5,64.1667 193.5,73.8333 193.5,83.5C 187.833,83.5 182.167,83.5 176.5,83.5C 176.5,58.8333 176.5,34.1667 176.5,9.5 Z M 193.5,24.5 C 199.245,24.2111 204.912,24.7111 210.5,26C 215.778,30.1581 215.778,34.4915 210.5,39C 204.912,40.2889 199.245,40.7889 193.5,40.5C 193.5,35.1667 193.5,29.8333 193.5,24.5 Z"/></g>
<g><path style="opacity:1" fill="#ffffff" d="M 266.5,9.5 C 271.214,9.17338 275.88,9.50671 280.5,10.5C 289.833,31.5 299.167,52.5 308.5,73.5C 302.478,74.2058 296.478,74.8725 290.5,75.5C 288.673,73.5128 287.673,71.1795 287.5,68.5C 278.161,68.3335 268.827,68.5002 259.5,69C 258.74,70.4411 258.074,71.9411 257.5,73.5C 251.167,74.8333 244.833,74.8333 238.5,73.5C 247.831,52.1711 257.164,30.8378 266.5,9.5 Z M 272.5,33.5 C 274.839,39.8592 277.505,46.1925 280.5,52.5C 275.533,53.6623 270.533,53.8289 265.5,53C 268.332,46.6716 270.665,40.1716 272.5,33.5 Z"/></g>
<g><path style="opacity:1" fill="#ffffff" d="M 317.5,9.5 C 328.172,9.3335 338.839,9.50016 349.5,10C 372.354,11.6879 384.687,23.8546 386.5,46.5C 386.374,51.2956 385.541,55.9622 384,60.5C 381,62.5 378,64.5 375,66.5C 373.562,69.9933 372.062,73.3266 370.5,76.5C 364.189,73.9113 357.855,73.9113 351.5,76.5C 349.803,76.1012 348.137,75.6012 346.5,75C 336.839,74.5002 327.172,74.3335 317.5,74.5C 317.5,52.8333 317.5,31.1667 317.5,9.5 Z M 335.5,26.5 C 344.685,25.3766 353.352,26.8766 361.5,31C 371.011,41.9482 370.678,52.6149 360.5,63C 352.671,67.0271 344.337,68.5271 335.5,67.5C 335.5,53.8333 335.5,40.1667 335.5,26.5 Z"/></g>
<g><path style="opacity:1" fill="#ffffff" d="M 395.5,9.5 C 401.167,9.5 406.833,9.5 412.5,9.5C 412.5,27.8333 412.5,46.1667 412.5,64.5C 406.833,64.5 401.167,64.5 395.5,64.5C 395.5,46.1667 395.5,27.8333 395.5,9.5 Z"/></g>
<g><path style="opacity:1" fill="#f2b426" d="M 383.5,68.5 C 392.622,69.2442 394.622,73.4109 389.5,81C 384.572,82.6433 381.072,81.1433 379,76.5C 378.675,72.8166 380.175,70.15 383.5,68.5 Z"/></g>
<g><path style="opacity:1" fill="#f2b426" d="M 441.5,68.5 C 447.656,68.4871 450.49,71.4871 450,77.5C 447.947,81.2916 444.781,82.4582 440.5,81C 437.009,79.1792 435.843,76.3458 437,72.5C 437.907,70.3909 439.407,69.0576 441.5,68.5 Z"/></g>
<g><path style="opacity:1" fill="#f2b426" d="M 407.5,72.5 C 407.334,76.5138 407.501,80.5138 408,84.5C 414.482,80.5934 420.982,80.76 427.5,85C 436.023,95.9537 435.356,106.287 425.5,116C 419.514,119.341 413.681,119.174 408,115.5C 406.951,117.107 405.451,117.773 403.5,117.5C 401.735,116.539 399.735,116.205 397.5,116.5C 397.5,101.833 397.5,87.1667 397.5,72.5C 400.833,72.5 404.167,72.5 407.5,72.5 Z M 411.5,92.5 C 419.542,91.706 422.876,95.206 421.5,103C 416.245,109.282 411.745,108.782 408,101.5C 407.688,97.9378 408.855,94.9378 411.5,92.5 Z"/></g>
<g><path style="opacity:1" fill="#f2b426" d="M 260.5,81.5 C 266.497,81.1091 270.997,83.4424 274,88.5C 275.42,98.0862 275.92,107.753 275.5,117.5C 271.833,117.5 268.167,117.5 264.5,117.5C 264.666,110.492 264.5,103.492 264,96.5C 260.667,91.1667 257.333,91.1667 254,96.5C 253.5,103.492 253.334,110.492 253.5,117.5C 249.5,117.5 245.5,117.5 241.5,117.5C 241.5,105.833 241.5,94.1667 241.5,82.5C 245.902,82.2281 250.235,82.5614 254.5,83.5C 256.657,82.9495 258.657,82.2829 260.5,81.5 Z"/></g>
<g><path style="opacity:1" fill="#f2b426" d="M 293.5,81.5 C 297.694,81.1767 301.527,82.1767 305,84.5C 308.494,82.623 312.327,81.9564 316.5,82.5C 316.5,94.1667 316.5,105.833 316.5,117.5C 312.327,118.044 308.494,117.377 305,115.5C 290.138,121.306 281.638,116.14 279.5,100C 279.759,90.2499 284.426,84.0832 293.5,81.5 Z M 294.5,92.5 C 300.755,91.2607 304.422,93.7607 305.5,100C 303.664,107.168 299.497,109.002 293,105.5C 290.06,100.88 290.56,96.5466 294.5,92.5 Z"/></g>
<g><path style="opacity:1" fill="#f2b426" d="M 339.5,81.5 C 343.875,81.3469 347.708,82.6803 351,85.5C 358.34,79.927 365.34,80.2603 372,86.5C 372.973,88.3921 373.64,90.3921 374,92.5C 374.5,100.827 374.666,109.16 374.5,117.5C 370.833,117.5 367.167,117.5 363.5,117.5C 363.666,110.159 363.5,102.826 363,95.5C 359.64,91.4952 356.64,91.8285 354,96.5C 353.5,103.492 353.334,110.492 353.5,117.5C 349.833,117.5 346.167,117.5 342.5,117.5C 342.666,109.826 342.5,102.159 342,94.5C 338.61,91.8471 335.943,92.5138 334,96.5C 333.5,103.492 333.334,110.492 333.5,117.5C 329.833,117.5 326.167,117.5 322.5,117.5C 322.5,105.833 322.5,94.1667 322.5,82.5C 326.571,82.2338 330.571,82.5672 334.5,83.5C 336.336,82.9724 338.003,82.3058 339.5,81.5 Z"/></g>
<g><path style="opacity:1" fill="#f2b426" d="M 381.5,82.5 C 384.833,82.5 388.167,82.5 391.5,82.5C 391.5,94.1667 391.5,105.833 391.5,117.5C 388.167,117.5 384.833,117.5 381.5,117.5C 380.167,105.833 380.167,94.1667 381.5,82.5 Z"/></g>
<g><path style="opacity:1" fill="#f2b426" d="M 437.5,82.5 C 441.5,82.5 445.5,82.5 449.5,82.5C 449.5,94.1667 449.5,105.833 449.5,117.5C 445.5,117.5 441.5,117.5 437.5,117.5C 437.5,105.833 437.5,94.1667 437.5,82.5 Z"/></g>
<g><path style="opacity:1" fill="#f2b426" d="M 489.5,82.5 C 489.811,94.2473 489.478,105.914 488.5,117.5C 484.76,117.759 481.094,117.426 477.5,116.5C 462.545,120.687 454.545,115.02 453.5,99.5C 453.634,88.3641 459.301,82.3641 470.5,81.5C 472.95,81.7611 475.283,82.4277 477.5,83.5C 481.429,82.5672 485.429,82.2338 489.5,82.5 Z M 468.5,91.5 C 470.391,92.5361 472.224,92.5361 474,91.5C 480.955,96.5327 481.121,101.699 474.5,107C 468.142,108.486 464.475,105.986 463.5,99.5C 464.193,96.0896 465.86,93.4229 468.5,91.5 Z"/></g>
</svg>
