<?xml version="1.0" encoding="UTF-8"?>
<!DOCTYPE svg PUBLIC "-//W3C//DTD SVG 1.1//EN" "http://www.w3.org/Graphics/SVG/1.1/DTD/svg11.dtd">
<svg xmlns="http://www.w3.org/2000/svg" version="1.1" width="356px" height="120px" style="shape-rendering:geometricPrecision; text-rendering:geometricPrecision; image-rendering:optimizeQuality; fill-rule:evenodd; clip-rule:evenodd" xmlns:xlink="http://www.w3.org/1999/xlink">
<g><path style="opacity:1" fill="#ffffff" d="M 78.5,-0.5 C 80.1667,-0.5 81.8333,-0.5 83.5,-0.5C 109.482,17.1411 135.482,34.8077 161.5,52.5C 107.504,53.4999 53.5041,53.8333 -0.5,53.5C -0.5,53.1667 -0.5,52.8333 -0.5,52.5C 26.0057,35.0812 52.3391,17.4145 78.5,-0.5 Z"/></g>
<g><path style="opacity:1" fill="#ffffff" d="M 108.5,119.5 C 100.833,119.5 93.1667,119.5 85.5,119.5C 67.4638,112.776 59.6304,99.7757 62,80.5C 66.996,63.3509 78.496,54.6843 96.5,54.5C 105.735,54.079 114.068,56.579 121.5,62C 122.554,63.3876 122.72,64.8876 122,66.5C 118.5,70.6667 115,74.8333 111.5,79C 107.202,76.288 102.368,74.4546 97,73.5C 88.7492,74.7532 84.2492,79.5865 83.5,88C 85.899,98.8676 92.5657,103.201 103.5,101C 104.38,99.6439 104.714,98.1439 104.5,96.5C 100.894,96.7892 97.3936,96.4558 94,95.5C 93.5007,90.5111 93.3341,85.5111 93.5,80.5C 104.167,80.5 114.833,80.5 125.5,80.5C 125.666,90.8387 125.5,101.172 125,111.5C 119.872,115.149 114.372,117.815 108.5,119.5 Z"/></g>
<g><path style="opacity:1" fill="#ffffff" d="M -0.5,55.5 C 6.83333,55.5 14.1667,55.5 21.5,55.5C 21.5,62.8333 21.5,70.1667 21.5,77.5C 26.8333,77.5 32.1667,77.5 37.5,77.5C 37.1868,70.2454 37.5201,63.0787 38.5,56C 45.8258,55.5003 53.1591,55.3337 60.5,55.5C 60.5,76.8333 60.5,98.1667 60.5,119.5C 53.1667,119.5 45.8333,119.5 38.5,119.5C 37.536,112.254 37.2027,104.92 37.5,97.5C 32.1667,97.5 26.8333,97.5 21.5,97.5C 21.7973,104.92 21.464,112.254 20.5,119.5C 13.5,119.5 6.5,119.5 -0.5,119.5C -0.5,98.1667 -0.5,76.8333 -0.5,55.5 Z"/></g>
<g><path style="opacity:1" fill="#ffffff" d="M 210.5,119.5 C 203.167,119.5 195.833,119.5 188.5,119.5C 182.515,104.859 176.515,90.1924 170.5,75.5C 167.572,74.5159 164.572,74.1826 161.5,74.5C 161.5,89.5 161.5,104.5 161.5,119.5C 154.5,119.5 147.5,119.5 140.5,119.5C 140.5,104.5 140.5,89.5 140.5,74.5C 134.833,74.5 129.167,74.5 123.5,74.5C 123.5,68.1667 123.5,61.8333 123.5,55.5C 145.177,55.167 166.844,55.5003 188.5,56.5C 191.901,66.5376 195.401,76.5376 199,86.5C 203.225,76.4944 207.058,66.3277 210.5,56C 218.493,55.5003 226.493,55.3336 234.5,55.5C 234.66,57.1992 234.494,58.8659 234,60.5C 225.667,80.0036 217.834,99.6703 210.5,119.5 Z"/></g>
<g><path style="opacity:1" fill="#ffffff" d="M 290.5,119.5 C 287.833,119.5 285.167,119.5 282.5,119.5C 282.5,110.167 282.5,100.833 282.5,91.5C 272.167,91.5 261.833,91.5 251.5,91.5C 251.5,100.833 251.5,110.167 251.5,119.5C 248.833,119.5 246.167,119.5 243.5,119.5C 243.5,98.1667 243.5,76.8333 243.5,55.5C 246.167,55.5 248.833,55.5 251.5,55.5C 251.5,64.8333 251.5,74.1667 251.5,83.5C 261.833,83.5 272.167,83.5 282.5,83.5C 282.5,74.1667 282.5,64.8333 282.5,55.5C 285.167,55.5 287.833,55.5 290.5,55.5C 290.5,76.8333 290.5,98.1667 290.5,119.5 Z"/></g>
<g><path style="opacity:1" fill="#ffffff" d="M 355.5,78.5 C 355.5,84.8333 355.5,91.1667 355.5,97.5C 351.407,108.593 343.741,115.927 332.5,119.5C 322.167,119.5 311.833,119.5 301.5,119.5C 301.5,98.1667 301.5,76.8333 301.5,55.5C 310.173,55.3336 318.84,55.5002 327.5,56C 341.513,57.8612 350.846,65.3612 355.5,78.5 Z M 309.5,63.5 C 315.842,63.3338 322.175,63.5005 328.5,64C 346.526,70.3874 352.026,82.5541 345,100.5C 341.408,107.094 335.908,110.928 328.5,112C 322.175,112.5 315.842,112.666 309.5,112.5C 309.5,96.1667 309.5,79.8333 309.5,63.5 Z"/></g>
</svg>
