<?xml version="1.0" encoding="UTF-8" standalone="no"?><!DOCTYPE svg PUBLIC "-//W3C//DTD SVG 1.1//EN" "http://www.w3.org/Graphics/SVG/1.1/DTD/svg11.dtd"><svg width="100%" height="100%" viewBox="0 0 3286 1996" version="1.1" xmlns="http://www.w3.org/2000/svg" xmlns:xlink="http://www.w3.org/1999/xlink" xml:space="preserve" xmlns:serif="http://www.serif.com/" style="fill-rule:evenodd;clip-rule:evenodd;stroke-linejoin:round;stroke-miterlimit:2;"><g><path d="M2270.21,736.846l-1135.1,-736.846l-1135.11,736.846l2270.21,-0Z" style="fill:#0fadc4;fill-rule:nonzero;"/><path d="M0.354,795.562l287.783,0l0,303.742l270.288,0l0,-303.742l287.833,0l0,861.351l-287.833,-0l0,-309.23l-270.288,0l0,309.23l-287.783,-0l0,-861.351Z" style="fill:#0fadc4;fill-rule:nonzero;"/><path d="M883.392,1228.43l-0,-2.466c-0,-257 202.883,-448.884 474.7,-448.884c147.545,0 275.025,49.208 368.479,130.329l-161.113,194.35c-56.558,-47.925 -119.254,-66.846 -190.583,-66.846c-111.9,0 -184.921,77.917 -184.921,194.713l0,2.467c0,121.825 90.029,197.279 197.209,197.279c49.17,-0 76.229,-11.546 98.37,-23.788l0,-57.812l-147.575,-0l0,-200.558l416.934,-0l-0,398.475c-93.479,76.279 -232.004,129.137 -388.196,129.137c-268.125,0 -483.304,-179.525 -483.304,-446.396Z" style="fill:#0fadc4;fill-rule:nonzero;"/><path d="M2963.67,795.562l-167.229,483.9l-167.196,-483.9l-872.85,0l-0,241.451l228.733,-0l-0,619.8l287.662,-0l0,-619.8l132.43,-0l251.108,619.8l275.325,-0l349.154,-861.251l-317.137,0Z" style="fill:#0fadc4;fill-rule:nonzero;"/><path d="M1.042,1718.49l59.679,-0l-0,107.341l110.054,0l0,-107.341l59.675,-0l-0,271.258l-59.675,0l0,-108.892l-110.054,0l-0,108.892l-59.679,0l-0,-271.258Z" style="fill:#0fadc4;fill-rule:nonzero;"/><path d="M493.95,1854.89l-0,-0.771c-0,-46.5 -34.1,-85.254 -82.154,-85.254c-48.05,-0 -81.379,37.975 -81.379,84.475l-0,0.779c-0,46.5 34.104,85.254 82.154,85.254c48.054,0 81.379,-37.979 81.379,-84.483Zm-225.921,-0l0,-0.771c0,-77.117 60.838,-140.279 144.542,-140.279c83.704,-0 143.766,62.387 143.766,139.5l0,0.779c0,77.117 -60.837,140.279 -144.541,140.279c-83.704,0 -143.767,-62.392 -143.767,-139.508Z" style="fill:#0fadc4;fill-rule:nonzero;"/><path d="M593.917,1718.49l64.325,-0l71.3,114.7l71.304,-114.7l64.325,-0l-0,271.258l-59.288,0l0,-177.092l-76.341,115.863l-1.546,-0l-75.567,-114.7l0,175.929l-58.512,0l-0,-271.258Z" style="fill:#0fadc4;fill-rule:nonzero;"/><path d="M914.762,1718.49l204.609,-0l-0,53.087l-145.317,0l0,55.025l127.879,0l0,53.088l-127.879,-0l0,56.966l147.254,0l0,53.092l-206.546,0l0,-271.258Z" style="fill:#0fadc4;fill-rule:nonzero;"/><path d="M1403.79,1786.3l0,-0.775c0,-15.5 -10.466,-25.187 -25.575,-25.187c-15.887,-0 -26.354,11.237 -26.354,27.512l0,0.775c0,12.017 4.65,20.925 15.888,33.717c23.642,-8.917 36.041,-18.992 36.041,-36.042Zm-3.099,142.992l-51.93,-52.7c-17.821,9.3 -25.187,22.475 -25.187,35.65l-0,0.775c-0,18.987 15.887,31.775 37.975,31.775c13.562,-0 26.737,-5.813 39.142,-15.5Zm33.324,34.1c-22.087,18.212 -48.054,30.225 -79.441,30.225c-51.921,-0 -91.067,-30.225 -91.067,-78.275l0,-0.771c0,-34.492 18.604,-58.904 52.704,-74.404c-13.175,-18.604 -18.987,-35.654 -18.987,-54.25l-0,-0.779c-0,-37.2 29.833,-71.3 82.154,-71.3c46.108,-0 76.333,30.225 76.333,68.2l0,0.775c0,36.429 -23.25,57.741 -56.958,70.916l36.037,36.038c8.909,-13.95 17.821,-29.842 26.351,-46.504l43.791,24.029c-10.467,18.987 -22.087,39.137 -35.654,57.354l39.917,39.913l-43.792,30.608l-31.388,-31.775Z" style="fill:#0fadc4;fill-rule:nonzero;"/><path d="M1656.81,1854.89l-0,-0.771c-0,-77.117 60.066,-140.279 142.212,-140.279c48.829,-0 78.279,13.175 106.567,37.2l-37.588,45.337c-20.925,-17.433 -39.529,-27.512 -70.917,-27.512c-43.399,-0 -77.887,38.366 -77.887,84.475l0,0.779c0,49.6 34.104,86.025 82.154,86.025c21.704,-0 41.079,-5.425 56.192,-16.275l-0,-38.75l-60.067,-0l0,-51.538l117.804,0l0,117.805c-27.904,23.633 -66.266,43.012 -115.866,43.012c-84.475,0 -142.604,-59.292 -142.604,-139.508Z" style="fill:#0fadc4;fill-rule:nonzero;"/><path d="M2112.9,1876.21l-36.033,-87.966l-36.046,87.966l72.079,0Zm-62.775,-159.654l55.029,0l116.25,273.196l-62.387,0l-24.805,-60.842l-114.704,0l-24.796,60.842l-60.841,0l116.254,-273.196Z" style="fill:#0fadc4;fill-rule:nonzero;"/><path d="M2367.88,1850.25c29.067,-0 45.725,-15.504 45.725,-38.367l-0,-0.771c-0,-25.579 -17.821,-38.75 -46.883,-38.75l-59.292,0l-0,77.888l60.45,-0Zm-120.129,-131.754l124.008,-0c34.492,-0 61.225,9.687 79.046,27.516c15.121,15.109 23.258,36.425 23.258,61.996l0,0.779c0,43.788 -23.641,71.3 -58.129,84.088l66.258,96.879l-69.75,0l-58.12,-86.804l-46.892,-0l-0,86.804l-59.679,0l-0,-271.258Z" style="fill:#0fadc4;fill-rule:nonzero;"/><path d="M2572.09,1772.36l-0,163.525l46.112,0c48.825,0 81.763,-32.937 81.763,-80.991l-0,-0.771c-0,-48.05 -32.938,-81.763 -81.763,-81.763l-46.112,0Zm-59.675,-53.866l105.787,-0c85.254,-0 144.154,58.512 144.154,134.85l0,0.779c0,76.337 -58.9,135.629 -144.154,135.629l-105.787,0l-0,-271.258Z" style="fill:#0fadc4;fill-rule:nonzero;"/><path d="M2799.93,1718.49l204.604,-0l0,53.087l-145.312,0l-0,55.025l127.875,0l-0,53.088l-127.875,-0l-0,56.966l147.25,0l-0,53.092l-206.542,0l0,-271.258Z" style="fill:#0fadc4;fill-rule:nonzero;"/><path d="M3044.05,1718.49l55.029,-0l127.1,167.016l0,-167.016l58.9,-0l0,271.258l-50.762,0l-131.367,-172.442l0,172.442l-58.9,0l0,-271.258Z" style="fill:#0fadc4;fill-rule:nonzero;"/></g></svg>