<svg width="169.817" height="74.757" xmlns="http://www.w3.org/2000/svg">
<path d="m174.396 145.731-8.485.517v55.578h8.761V171.44s3.414-.96 8.245-.96c6.78-.065 6.577 3.724 6.577 6.744v24.603h8.977V177.74c0-1.67.03-2.506-.048-3.984-.302-5.976-4.574-10.605-13.081-10.67-5.121-.064-10.946 1.153-10.946 1.153V145.73zm54.091 17.343c-1.623.009-8.19.28-12.277 1.236-5.449 1.22-8.945 4.553-9.434 9.565-.096.964-.144 1.544-.144 3.792v24.16h8.977V177.09c0-2.184.165-3.527 1.585-4.812 1.612-1.414 5.268-1.608 7.357-1.8 1.477-.129 4.308-.264 4.308-.264v-7.13a2.364 2.364 0 0 0-.372-.011zm-62.648 44.093v5.005c12.883 5.59 32.806 8.614 49.254 8.293 17.619-.321 33.81-3.145 48.138-8.221v-4.885c-12.786 5.012-31.217 8.032-48.99 8.353-16.449.257-34.864-2.762-48.402-8.545z"/>
<path style="font-size:54.71186447px;font-style:normal;font-variant:normal;font-weight:400;font-stretch:normal;line-height:100%;letter-spacing:0;word-spacing:0;fill:#b3b3b3;fill-opacity:1;stroke:none;font-family:Alte DIN 1451 Mittelschrift;-inkscape-font-specification:Sans" transform="translate(-165.84 -145.731)" d="M274 162.906v38.906h5.906v-16.968h15.438v16.969h5.906v-38.907h-5.906v16.656h-15.438v-16.656H274zm34.094 0v38.906h13.25c2.885 0 5.331-.614 7.344-1.843 2.03-1.247 3.623-2.777 4.78-4.594a11.938 11.938 0 0 0 1.72-4.219c.302-1.478.468-4.4.468-8.781 0-4.078-.099-6.839-.312-8.281-.214-1.443-.82-3-1.781-4.656-2.583-4.364-6.52-6.532-11.844-6.532h-13.625zM314 168.5h7.063c3.01 0 5.316 1.077 6.937 3.25a7.675 7.675 0 0 1 1.438 3.594c.195 1.336.312 3.76.312 7.25 0 3.615-.103 5.985-.281 7.125a7.672 7.672 0 0 1-1.188 3.156c-1.567 2.262-3.977 3.406-7.219 3.406H314V168.5z"/>
<path style="fill:#fff;stroke-width:.150414" d="M.075 28.278C.075 13.056.126.6.188.598.25.597 1.79.497 3.61.377S7.274.157 7.709.155l.79-.005v9.176c0 8.4.02 9.175.246 9.175.135 0 1.032-.132 1.993-.293 3.217-.54 4.885-.68 8.064-.683 3.503-.002 4.753.179 6.863.992 3.774 1.456 6.227 4.58 6.749 8.597.079.609.143 7.206.146 14.964l.005 13.876H23.69v-13.43c0-14.612.006-14.51-.841-15.796-.447-.678-1.498-1.38-2.543-1.698-1.938-.59-6.98-.373-11.018.475l-.489.103v30.346H.075zm40.764 14.627c0-13.441.055-14.92.614-16.808 1.051-3.554 4.095-6.2 8.378-7.285 2.57-.65 6.57-1.141 10.696-1.311l2.421-.1v6.948l-.64.071c-.35.04-2.026.18-3.722.311-5.24.406-6.958.971-8.073 2.656-.793 1.198-.796 1.271-.799 15.443l-.002 13.124h-8.875l.002-13.049zm3.458 31.744c-14.995-.274-31.014-3.106-42.229-7.466L.075 66.41v-4.843l1.768.708c13.32 5.335 32.445 8.325 49.198 7.69 11.739-.444 21.717-1.668 31.585-3.873 4.109-.918 7.26-1.798 11.264-3.146 1.838-.619 3.378-1.125 3.422-1.125.045 0 .08 1.042.08 2.315v2.314l-3.045.99c-13.238 4.306-28.303 6.82-42.53 7.098-2.11.04-4.275.09-4.813.109-.537.019-1.756.02-2.707.003z"/>
<path style="fill:#b3b3b3;stroke-width:.150414" d="M108.223 36.626V17.298h5.715v16.545h15.643V17.298h5.716v38.656h-5.716V39.108h-15.643v16.846h-5.715zm34.143 0V17.283l8.16.05c7.912.048 8.197.06 9.364.386 4.247 1.189 7.509 4.391 9.045 8.88.433 1.267.52 1.781.672 4.01.23 3.371.09 12.064-.229 14.094-.574 3.662-2.706 6.875-6.01 9.055-1.409.93-2.269 1.328-3.852 1.784-1.085.312-1.455.328-9.14.376l-8.01.05zm15.542 13.701c3.13-.863 5.199-3.093 5.738-6.185.51-2.92.41-13.027-.151-15.399-.501-2.115-2.123-4.188-3.995-5.108-1.62-.795-2.579-.917-7.244-.92l-4.174-.003V50.73l4.475-.08c3.45-.062 4.676-.135 5.351-.322z"/>
</svg>
