<?xml version="1.0" encoding="UTF-8" standalone="no"?>
<svg
   xmlns:dc="http://purl.org/dc/elements/1.1/"
   xmlns:cc="http://creativecommons.org/ns#"
   xmlns:rdf="http://www.w3.org/1999/02/22-rdf-syntax-ns#"
   xmlns:svg="http://www.w3.org/2000/svg"
   xmlns="http://www.w3.org/2000/svg"
   viewBox="0 0 143.62666 68.026665"
   height="68.026665"
   width="143.62666"
   xml:space="preserve"
   id="svg2"
   version="1.1"><metadata
     id="metadata8"><rdf:RDF><cc:Work
         rdf:about=""><dc:format>image/svg+xml</dc:format><dc:type
           rdf:resource="http://purl.org/dc/dcmitype/StillImage" /></cc:Work></rdf:RDF></metadata><defs
     id="defs6" /><g
     transform="matrix(1.3333333,0,0,-1.3333333,0,68.026667)"
     id="g10"><g
       transform="scale(0.1)"
       id="g12"><path
         id="path14"
         style="fill:#ffffff;fill-opacity:1;fill-rule:nonzero;stroke:none"
         d="M 669.512,364.797 V 173.355 H 635.203 L 541.73,300.918 V 173.355 h -37.472 v 191.442 h 34.304 l 93.477,-126.856 v 126.856 h 37.473" /><path
         id="path16"
         style="fill:#ffffff;fill-opacity:1;fill-rule:nonzero;stroke:none"
         d="M 857.574,364.797 V 334.426 H 753.711 v -51.949 h 88.445 v -30.379 h -88.445 v -78.743 h -39.984 v 191.442 h 143.847" /><path
         id="path18"
         style="fill:#ffffff;fill-opacity:1;fill-rule:nonzero;stroke:none"
         d="m 989.527,327.297 c -0.007,0 -0.007,0.012 -0.007,0.012 l 0.015,-0.028 c -0.008,0.016 -0.008,0.016 -0.008,0.016" /><path
         id="path20"
         style="fill:#ffffff;fill-opacity:1;fill-rule:nonzero;stroke:none"
         d="m 1020.27,348.977 c -16.83,14.703 -36.598,20.769 -61.227,20.769 -24.852,0 -44.598,-6.449 -61.43,-21.152 C 875.312,329.066 875.34,300.695 875.34,271.43 v -5.528 c 0,-30.695 1.23,-57.574 22.66,-78.054 16.176,-15.453 36.191,-20.137 61.043,-20.137 24.629,0 43.647,5.254 61.227,21.422 22.11,20.34 21.58,44.922 21.58,79.035 v 2.805 c 0,34.093 1.03,58.215 -21.58,78.004 z M 989.535,210.043 c -7.328,-7.371 -18.156,-11.039 -30.492,-11.039 -12.367,0 -23.598,3.766 -30.789,11.008 -9.641,9.371 -11.711,19.785 -11.711,58.652 0,38.887 2.07,49.289 11.68,58.633 7.242,7.277 18.468,11.449 30.82,11.449 12.316,0 23.137,-4.066 30.477,-11.437 l -0.012,0.007 c 0.008,-0.007 0.012,-0.007 0.019,-0.019 9.164,-8.926 12.013,-18.195 12.013,-58.633 0,-40.461 -2.849,-49.726 -12.005,-58.621" /><path
         id="path22"
         style="fill:#ffffff;fill-opacity:1;fill-rule:nonzero;stroke:none"
         d="m 419.648,342.66 h 39.9961 v 22.1367 H 419.648 Z" /><path
         id="path24"
         style="fill:#ffffff;fill-opacity:1;fill-rule:nonzero;stroke:none"
         d="m 459.645,311.449 c 0,-3.625 0,-138.094 0,-138.094 h -39.997 c 0,0 0,134.469 0,138.094 3.293,0 36.692,0 39.997,0" /><path
         id="path26"
         style="fill:#ffffff;fill-opacity:1;fill-rule:nonzero;stroke:none"
         d="M 249.934,92.3047 C 178.277,91.0547 91.4375,104.133 35.3125,128.355 v 21.829 c 58.9883,-25.032 139.2225,-38.286 210.8755,-37.051 77.304,1.34 157.792,14.344 213.515,36.219 L 459.699,128.18 C 397.363,106.012 326.773,93.6133 249.934,92.3047" /><path
         id="path28"
         style="fill:#ffffff;fill-opacity:1;fill-rule:nonzero;stroke:none"
         d="m 72.6211,418.016 -0.0156,-80.801 c 0,0 25.3828,5.281 47.6875,5.058 37.086,-0.375 55.664,-20.308 56.977,-46.335 0.335,-6.618 0.265,-10.266 0.265,-17.379 V 173.355 h -39.109 v 107.45 c 0,13.144 0.836,29.484 -28.711,29.343 -21.047,-0.101 -35.9025,-4.144 -35.9025,-4.144 V 173.355 h -38.168 v 242.223 l 36.9766,2.438" /><path
         id="path30"
         style="fill:#ffffff;fill-opacity:1;fill-rule:nonzero;stroke:none"
         d="m 311.691,342.469 c -0.476,0.09 -34.921,-0.789 -55.269,-5.465 -23.731,-5.422 -38.945,-19.758 -41.07,-41.668 -0.411,-4.211 -0.606,-6.891 -0.606,-16.512 V 173.355 h 39.082 l -0.004,107.84 c 0,9.461 0.735,15.469 6.918,21.02 7.008,6.277 22.988,7.191 32.129,7.937 6.27,0.512 18.82,1.094 18.82,1.094 v 31.223" /></g></g></svg>