<?xml version="1.0" encoding="UTF-8" standalone="no"?>
<svg
   xmlns:dc="http://purl.org/dc/elements/1.1/"
   xmlns:cc="http://creativecommons.org/ns#"
   xmlns:rdf="http://www.w3.org/1999/02/22-rdf-syntax-ns#"
   xmlns:svg="http://www.w3.org/2000/svg"
   xmlns="http://www.w3.org/2000/svg"
   viewBox="0 0 151.18668 113.38667"
   height="113.38667"
   width="151.18668"
   xml:space="preserve"
   id="svg2"
   version="1.1"><metadata
     id="metadata8"><rdf:RDF><cc:Work
         rdf:about=""><dc:format>image/svg+xml</dc:format><dc:type
           rdf:resource="http://purl.org/dc/dcmitype/StillImage" /></cc:Work></rdf:RDF></metadata><defs
     id="defs6"><clipPath
       id="clipPath20"
       clipPathUnits="userSpaceOnUse"><path
         id="path18"
         d="M 0,0 H 1133.86 V 850 H 0 Z" /></clipPath></defs><g
     transform="matrix(1.3333333,0,0,-1.3333333,0,113.38667)"
     id="g10"><g
       transform="scale(0.1)"
       id="g12"><g
         id="g14"><g
           clip-path="url(#clipPath20)"
           id="g16"><path
             id="path22"
             style="fill:#d9a308;fill-opacity:1;fill-rule:nonzero;stroke:none"
             d="M 969.785,218.895 V 701.293 L 846.145,642.5 v 114.496 l 134.804,69.953 H 1100.21 V 218.895 H 969.785" /><path
             id="path24"
             style="fill:#d9a308;fill-opacity:1;fill-rule:nonzero;stroke:none"
             d="M 122.184,839.789 122.148,634.73 c 0,0 64.411,13.411 121.024,12.84 94.113,-0.945 141.266,-51.535 144.598,-117.59 0.847,-16.789 0.675,-26.05 0.675,-44.097 V 218.895 h -99.261 v 272.683 c 0,33.363 2.121,74.824 -72.86,74.465 -53.41,-0.254 -91.113,-10.516 -91.113,-10.516 V 218.895 H 28.3477 v 614.71 l 93.8363,6.184" /><path
             id="path26"
             style="fill:#d9a308;fill-opacity:1;fill-rule:nonzero;stroke:none"
             d="m 724.688,648.066 c -1.208,0.231 -88.622,-2 -140.262,-13.867 -60.231,-13.761 -98.84,-50.148 -104.235,-105.746 -1.039,-10.683 -1.527,-17.488 -1.527,-41.898 v -267.66 h 99.176 l -0.008,273.675 c 0,24.012 1.867,39.258 17.559,53.336 17.781,15.942 58.339,18.254 81.535,20.149 15.91,1.3 47.754,2.777 47.754,2.777 l 0.008,79.234" /><path
             id="path28"
             style="fill:#d9a308;fill-opacity:1;fill-rule:nonzero;stroke:none"
             d="M 571.898,10.8125 C 389.609,7.63672 172.566,40.9062 29.7812,102.523 v 55.524 C 179.836,94.3906 380.09,60.668 562.371,63.8086 759.023,67.2109 963.77,100.289 1105.51,155.938 V 102.082 C 946.934,45.6836 767.363,14.1484 571.898,10.8125 v 0" /></g></g></g></g></svg>