<?xml version="1.0" encoding="UTF-8" standalone="no"?>
<svg
   xmlns:dc="http://purl.org/dc/elements/1.1/"
   xmlns:cc="http://creativecommons.org/ns#"
   xmlns:rdf="http://www.w3.org/1999/02/22-rdf-syntax-ns#"
   xmlns:svg="http://www.w3.org/2000/svg"
   xmlns="http://www.w3.org/2000/svg"
   viewBox="0 0 105.82667 113.38667"
   height="113.38667"
   width="105.82667"
   xml:space="preserve"
   id="svg2"
   version="1.1"><metadata
     id="metadata8"><rdf:RDF><cc:Work
         rdf:about=""><dc:format>image/svg+xml</dc:format><dc:type
           rdf:resource="http://purl.org/dc/dcmitype/StillImage" /></cc:Work></rdf:RDF></metadata><defs
     id="defs6"><clipPath
       id="clipPath20"
       clipPathUnits="userSpaceOnUse"><path
         id="path18"
         d="M 0,0 H 793.699 V 850 H 0 Z" /></clipPath></defs><g
     transform="matrix(1.3333333,0,0,-1.3333333,0,113.38667)"
     id="g10"><g
       transform="scale(0.1)"
       id="g12"><g
         id="g14"><g
           clip-path="url(#clipPath20)"
           id="g16"><path
             id="path22"
             style="fill:#f25c19;fill-opacity:1;fill-rule:nonzero;stroke:none"
             d="M 65.1953,230.465 V 38.5195 h 24.0313 v 42.7539 c 0,8.1133 3.0273,13.0391 11.1444,15.5391 7.133,2.1953 13.293,-0.2461 17.242,-5.6328 7.543,-10.3047 33.723,-52.6602 33.723,-52.6602 h 29.516 c 0,0 -33.157,51.3321 -36.954,57.7227 -7.902,13.3168 -17.472,17.8518 -25.093,19.1168 6.09,6.262 55.793,57.387 55.793,57.387 H 143.82 c 0,0 -47.0661,-47.914 -54.5934,-55.574 0,11.258 0,113.293 0,113.293 H 65.1953" /><path
             id="path24"
             style="fill:#f25c19;fill-opacity:1;fill-rule:nonzero;stroke:none"
             d="M 280.543,172.746 V 90.6758 c 0,-20.207 -10.828,-31.793 -29.703,-31.793 -18.637,0 -28.902,11.293 -28.902,31.793 V 172.746 H 197.902 V 87.793 c 0,-16.2969 4.676,-29.0977 13.895,-38.0586 8.379,-8.3555 20.527,-12.7852 35.113,-12.7852 12.988,0 26.809,5.8281 33.902,14.6992 0,-4.0429 0,-13.1289 0,-13.1289 h 23.766 V 172.746 h -24.035" /><path
             id="path26"
             style="fill:#f25c19;fill-opacity:1;fill-rule:nonzero;stroke:none"
             d="M 349.816,230.465 V 75.4688 c 0,-23.1368 13.219,-36.9493 35.364,-36.9493 h 16.218 V 59.9219 H 388.59 c -10.879,0 -14.735,4.2695 -14.735,16.3203 V 230.465 h -24.039" /><path
             id="path28"
             style="fill:#f25c19;fill-opacity:1;fill-rule:nonzero;stroke:none"
             d="m 431.402,212.367 c 0,0 0,-35.906 0,-40.418 -3.644,0 -16.254,0 -16.254,0 v -19.558 c 0,0 12.61,0 16.254,0 0,-4.817 0,-76.6683 0,-76.6683 0,-22.6016 13.989,-37.2032 35.633,-37.2032 h 15.957 v 21.4024 h -12.543 c -10.094,0 -15.004,5.3359 -15.004,16.3203 0,0 0,71.3318 0,76.1488 4.231,0 27.547,0 27.547,0 v 19.558 c 0,0 -23.316,0 -27.547,0 0,4.512 0,40.418 0,40.418 h -24.043" /><path
             id="path30"
             style="fill:#f25c19;fill-opacity:1;fill-rule:nonzero;stroke:none"
             d="M 596.047,172.746 V 90.6758 c 0,-20.207 -10.828,-31.793 -29.695,-31.793 -18.649,0 -28.918,11.293 -28.918,31.793 V 172.746 H 513.402 V 87.793 c 0,-16.2852 4.676,-29.086 13.899,-38.0586 8.367,-8.3555 20.515,-12.7852 35.109,-12.7852 12.985,0 26.086,5.2031 33.895,14.6992 0,-4.0429 0,-13.1289 0,-13.1289 h 23.773 V 172.746 h -24.031" /><path
             id="path32"
             style="fill:#f25c19;fill-opacity:1;fill-rule:nonzero;stroke:none"
             d="M 397.656,296.363 C 286.66,294.414 152.148,314.664 65.1953,352.195 v 33.821 c 91.3787,-38.758 215.6677,-59.313 326.6567,-57.395 119.757,2.07 244.441,22.227 330.761,56.113 V 351.941 C 626.043,317.59 516.691,298.395 397.656,296.363" /><path
             id="path34"
             style="fill:#f25c19;fill-opacity:1;fill-rule:nonzero;stroke:none"
             d="m 122.988,800.918 -0.023,-125.176 c 0,0 39.312,8.192 73.883,7.852 57.437,-0.582 86.214,-31.461 88.257,-71.782 0.524,-10.25 0.415,-15.886 0.415,-26.902 V 421.934 h -60.594 v 166.437 c 0,20.359 1.293,45.676 -44.465,45.461 -32.613,-0.172 -55.629,-6.43 -55.629,-6.43 V 421.934 H 65.7109 v 375.222 l 57.2771,3.762" /><path
             id="path36"
             style="fill:#f25c19;fill-opacity:1;fill-rule:nonzero;stroke:none"
             d="m 490.758,683.906 c -0.738,0.129 -54.098,-1.222 -85.629,-8.476 -36.754,-8.391 -60.32,-30.594 -63.613,-64.543 -0.641,-6.532 -0.93,-10.692 -0.93,-25.582 V 421.934 h 60.539 l -0.02,167.046 c 0,14.653 1.157,23.954 10.723,32.555 10.848,9.731 35.61,11.149 49.774,12.297 9.703,0.793 29.144,1.688 29.144,1.688 l 0.012,48.386" /><path
             id="path38"
             style="fill:#f25c19;fill-opacity:1;fill-rule:nonzero;stroke:none"
             d="m 667.965,597.398 c 26.285,31.715 57.347,67.266 57.347,110.84 0,66.086 -52.789,105.207 -115.906,105.207 -61.222,0 -109.789,-38.515 -115.129,-96.668 h 60.2 c 4.183,30.696 33.191,42.172 53.613,42.172 29.484,0 53.062,-21.496 53.062,-47.808 0,-23.321 -11.656,-40.84 -25.269,-57.36 L 497.531,487.016 v -65.082 h 225.086 v 54.539 H 566.863 l 101.102,120.925" /><path
             id="path40"
             style="fill:#f25c19;fill-opacity:1;fill-rule:nonzero;stroke:none"
             d="m 691.223,159.145 c 0,4.316 0,13.601 0,13.601 H 667.188 V 38.5195 h 24.035 v 81.8045 c 0,18.879 11.672,32.067 28.382,32.067 7.258,0 11.793,-1.485 16.731,-5.469 l 3.414,-2.754 4.512,26.555 -2.004,0.738 c -5.203,1.922 -10.899,2.855 -17.406,2.855 -13.278,0 -26.625,-5.765 -33.629,-15.171" /></g></g></g></g></svg>