<?xml version="1.0" encoding="UTF-8" standalone="no"?>
<svg
   xmlns:dc="http://purl.org/dc/elements/1.1/"
   xmlns:cc="http://creativecommons.org/ns#"
   xmlns:rdf="http://www.w3.org/1999/02/22-rdf-syntax-ns#"
   xmlns:svg="http://www.w3.org/2000/svg"
   xmlns="http://www.w3.org/2000/svg"
   viewBox="0 0 188.97333 188.97333"
   height="188.97333"
   width="188.97333"
   xml:space="preserve"
   id="svg2"
   version="1.1"><metadata
     id="metadata8"><rdf:RDF><cc:Work
         rdf:about=""><dc:format>image/svg+xml</dc:format><dc:type
           rdf:resource="http://purl.org/dc/dcmitype/StillImage" /></cc:Work></rdf:RDF></metadata><defs
     id="defs6" /><g
     transform="matrix(1.3333333,0,0,-1.3333333,0,188.97333)"
     id="g10"><g
       transform="scale(0.1)"
       id="g12"><path
         id="path14"
         style="fill:#ed1c24;fill-opacity:1;fill-rule:nonzero;stroke:none"
         d="m 1217.41,1347.44 c 0,0 174.54,0 174.54,-174.54 V 244.422 c 0,0 0,-174.5353 -174.54,-174.5353 H 199.906 c 0,0 -174.5349,0 -174.5349,174.5353 V 1172.9 c 0,0 0,174.54 174.5349,174.54 H 1217.41" /><path
         id="path16"
         style="fill:#ffffff;fill-opacity:1;fill-rule:nonzero;stroke:none"
         d="M 695.375,275.57 C 516.047,272.371 298.719,305.777 158.25,367.578 v 55.742 c 147.629,-63.906 348.438,-97.738 527.762,-94.582 193.457,3.418 394.888,36.629 534.348,92.481 v -54.071 c -156,-56.582 -332.676,-88.246 -524.985,-91.578" /><path
         id="path18"
         style="fill:#ffffff;fill-opacity:1;fill-rule:nonzero;stroke:none"
         d="m 251.625,1106.99 -0.051,-206.263 c 0,0 63.52,13.511 119.352,12.91 92.828,-0.946 139.32,-51.813 142.605,-118.278 0.832,-16.863 0.664,-26.183 0.664,-44.316 V 482.484 h -97.894 v 274.254 c 0,33.574 2.097,75.27 -71.86,74.926 -52.664,-0.258 -89.824,-10.59 -89.824,-10.59 v -338.59 h -95.535 v 618.276 l 92.543,6.23" /><path
         id="path20"
         style="fill:#ffffff;fill-opacity:1;fill-rule:nonzero;stroke:none"
         d="m 1049.73,468.324 c -112.816,0 -218.839,56.754 -220.804,195.395 h 126.469 c 1.941,-59.543 44.725,-86.524 94.335,-86.524 54.47,0 93.38,32.586 93.38,92.114 0,54.882 -35,91.187 -97.27,91.187 h -18.5 v 105.152 h 18.5 c 61.27,0 87.54,36.282 87.54,82.809 0,55.813 -38.91,84.633 -84.62,84.633 -47.64,0 -82.686,-29.75 -85.584,-79.992 H 836.715 c 2.906,118.192 95.324,188.862 212.045,188.862 122.58,0 211.1,-78.12 211.1,-189.784 0,-71.641 -34.08,-112.606 -79.79,-135.852 49.61,-25.113 89.47,-70.738 89.47,-150.754 0,-132.113 -101.13,-197.246 -219.81,-197.246" /><path
         id="path22"
         style="fill:#ffffff;fill-opacity:1;fill-rule:nonzero;stroke:none"
         d="M 835.504,912.176 C 816.855,911.703 751.68,910.566 707.441,900.211 648.07,886.355 609.98,849.773 604.664,793.836 c -1.023,-10.742 -1.496,-17.57 -1.496,-42.148 V 482.461 h 97.809 l -0.02,275.305 c 0,24.148 1.852,39.484 17.309,53.64 17.515,16.024 57.543,18.348 80.379,20.258 12.019,0.988 27.55,0.172 36.859,0.645 v 79.867" /></g></g></svg>