<?xml version="1.0" encoding="UTF-8"?>
<!DOCTYPE svg PUBLIC "-//W3C//DTD SVG 1.1//EN" "http://www.w3.org/Graphics/SVG/1.1/DTD/svg11.dtd">
<svg xmlns="http://www.w3.org/2000/svg" version="1.1" width="256px" height="256px" style="shape-rendering:geometricPrecision; text-rendering:geometricPrecision; image-rendering:optimizeQuality; fill-rule:evenodd; clip-rule:evenodd" xmlns:xlink="http://www.w3.org/1999/xlink">
<g><path style="opacity:1" fill="#c10371" d="M 38.5,-0.5 C 110.833,-0.5 183.167,-0.5 255.5,-0.5C 255.5,72.1667 255.5,144.833 255.5,217.5C 250.436,238.23 237.436,250.897 216.5,255.5C 144.167,255.5 71.8333,255.5 -0.5,255.5C -0.5,182.833 -0.5,110.167 -0.5,37.5C 4.56445,16.7697 17.5645,4.10305 38.5,-0.5 Z"/></g>
<g><path style="opacity:1" fill="#fefdfe" d="M 191.5,140.5 C 181.013,139.506 170.346,139.172 159.5,139.5C 159.5,135.167 159.5,130.833 159.5,126.5C 168.154,105.188 176.821,83.8546 185.5,62.5C 190.5,61.1667 195.5,61.1667 200.5,62.5C 191.963,83.7386 183.296,104.905 174.5,126C 177.478,127.125 180.645,127.625 184,127.5C 187.086,127.478 190.086,127.145 193,126.5C 193.5,119.174 193.666,111.841 193.5,104.5C 197.833,104.5 202.167,104.5 206.5,104.5C 206.334,111.841 206.5,119.174 207,126.5C 210.73,127.46 214.563,127.793 218.5,127.5C 218.5,131.833 218.5,136.167 218.5,140.5C 214.833,140.5 211.167,140.5 207.5,140.5C 207.5,147.833 207.5,155.167 207.5,162.5C 202.833,162.5 198.167,162.5 193.5,162.5C 194.13,154.757 193.463,147.424 191.5,140.5 Z"/></g>
<g><path style="opacity:1" fill="#fefcfd" d="M 52.5,64.5 C 54.5,64.5 56.5,64.5 58.5,64.5C 58.1724,75.0135 58.5058,85.3468 59.5,95.5C 59.7352,96.0967 60.2352,96.4301 61,96.5C 72.7624,92.7843 83.929,93.951 94.5,100C 97.1642,102.669 98.9976,105.836 100,109.5C 100.5,127.164 100.667,144.83 100.5,162.5C 95.5,162.5 90.5,162.5 85.5,162.5C 85.6666,145.83 85.4999,129.163 85,112.5C 82.2361,108.233 78.2361,106.233 73,106.5C 68.7657,106.843 64.599,107.509 60.5,108.5C 59.5005,126.488 59.1671,144.488 59.5,162.5C 54.8333,162.5 50.1667,162.5 45.5,162.5C 45.5,129.833 45.5,97.1667 45.5,64.5C 47.8333,64.5 50.1667,64.5 52.5,64.5 Z"/></g>
<g><path style="opacity:1" fill="#e496c3" d="M 52.5,64.5 C 54.6074,63.5318 56.9407,63.1984 59.5,63.5C 59.5,74.1667 59.5,84.8333 59.5,95.5C 58.5058,85.3468 58.1724,75.0135 58.5,64.5C 56.5,64.5 54.5,64.5 52.5,64.5 Z"/></g>
<g><path style="opacity:1" fill="#fefdfe" d="M 144.5,94.5 C 147.167,94.5 149.833,94.5 152.5,94.5C 152.5,98.5 152.5,102.5 152.5,106.5C 145.543,106.231 138.877,107.397 132.5,110C 131.299,110.903 130.465,112.069 130,113.5C 129.5,129.83 129.333,146.163 129.5,162.5C 124.833,162.5 120.167,162.5 115.5,162.5C 115.052,143.778 115.552,125.112 117,106.5C 119.292,102.212 122.792,99.3782 127.5,98C 133.301,96.8161 138.968,95.6494 144.5,94.5 Z"/></g>
<g><path style="opacity:1" fill="#e79ec8" d="M 159.5,126.5 C 159.5,130.833 159.5,135.167 159.5,139.5C 170.346,139.172 181.013,139.506 191.5,140.5C 180.5,140.5 169.5,140.5 158.5,140.5C 158.181,135.637 158.514,130.97 159.5,126.5 Z"/></g>
<g><path style="opacity:1" fill="#fefcfd" d="M 209.5,175.5 C 210.468,177.607 210.802,179.941 210.5,182.5C 162.126,198.54 113.126,200.706 63.5,189C 57.4955,187.222 51.6622,185.055 46,182.5C 45.3333,179.833 45.3333,177.167 46,174.5C 75.3668,186.2 105.867,191.033 137.5,189C 162.128,187.697 186.128,183.197 209.5,175.5 Z"/></g>
<g><path style="opacity:1" fill="#e9a7cd" d="M 209.5,175.5 C 209.56,174.957 209.893,174.624 210.5,174.5C 211.8,177.309 211.8,179.976 210.5,182.5C 210.802,179.941 210.468,177.607 209.5,175.5 Z"/></g>
</svg>
