<svg xmlns="http://www.w3.org/2000/svg" width="646.208" height="134.459">
<path d="M682.25 89.156c-31.776-2.278-63.86 16.311-76.781 45.438-.05-12.73-.032-25.459 0-38.188h-54.094c-1.158 55.742 2.23 111.682-2.531 167.281-4.72 17.001-28.28 21.954-41.032 11.125-9.403-7.333-6.364-20.45-7.67-30.811-1.424-46.765-1.183-93.565-2.151-140.343 2.526-8.527-6.49-5.735-11.986-6.383-18.267-.553-36.342-1.45-54.13-.869h-35c-.395 29.167-.75 58.333-1.094 87.5-17.823.264-35.646.546-53.469.844-.27-29.638-.801-59.272-1.343-88.906-17.595.078-35.189.275-52.781.531v226.906h54.187v-86.344h54.281v86.344h52.156v-44.437c8.981 29.912 37.846 52.822 69.438 52.781 30.14 2.685 62.455-11.59 76.594-38.969 2.302-4.06 4.017-8.38 5.5-12.812 19.92 41.815 75.02 63.485 117.562 44 28.592-12.224 48.119-43.67 43.75-75-2.747-25.648-21.572-47.773-45.406-56.594-19.276-8.187-42.953-9.944-57.875-25.969-6.713-12.015 6.043-26.934 18.844-25.812 15.899-.44 29.853 9.783 39.937 21.219 12.315-4.122 18.812-16.328 28.032-24.47 2.164-3.399.948 3.493.78 5-1.944 5.201 1.81 11.388 7.657 10.75 16.196-.914 32.506-.16 48.75-.405v172.75h54.156v-172.75h50.282V325.5c102.746-.758 314.391-1.1 314.391-1.1s-.413-6.4.022-12.241c.417-18.69.851-37.378 1.336-56.065 17.674 22.76 35.346 45.523 53.063 68.25 17.883-.18 63.745-.544 63.745-.544s-8.795-15.045-13.151-19.55c-17.388-24.945-36.806-48.37-53.72-73.625 22.554-8.063 41.789-27.254 45.654-51.514 4.475-23.024-.469-50.006-19.528-65.142-20.28-17.26-48.44-18.521-74-19.123-19.638.01-39.532-.083-59 1.06-7.45 1.67-15.386-.403-23 .5h-105.25V272.25c-25.469-.38-50.937-.735-76.406-1.063V96.407H746.125c-.095 6.957.18 14.71-.125 21.218-17.196-16.125-39.367-29.548-63.75-28.469zm482.219 61.406c.505 11.285-.173 22.951 0 34.375-24.688-.356-49.375-.7-74.063-1.03l-.781-33.345h74.844zm67.75 0c10.76-.032 25.179-.285 31.094 10.47 4.494 9.722-5.984 19.552-15.282 20.5-8.46 2.035-17.282 1.103-25.937 1.093v-32.063h10.125zm-626.375 35.094c12.195 25.611 39.249 38.907 64.966 47.605 10.822 4.568 22.921 7.422 31.815 15.395 6.927 7.151 4.514 19.089-3.469 24.375-11.523 9.14-28.668 6.778-39.312-2.719-9.79-7.391-17.75-16.817-26.719-25.093-10.26 10.045-21.774 18.834-31.312 29.437 5.132-20.384 2.275-41.646 3.47-62.437.126-9.114.179-18.229.217-27.344l.344.781zm558.375 61.188c.01 8.458.039 16.917.125 25.375-24.927-.358-49.348-.706-74.275-1.031.28-11.792.056-23.584.337-35.375 24.604-.363 49.208-.706 73.813-1.032v12.063z" style="fill:#b7b7b7;fill-opacity:1;stroke:none" transform="matrix(.50032 0 0 .50032 -144.187 -31.62)"/>
<path d="M499.71 320.547c-20.453-6.666-35.83-21.995-42.526-42.392-4.13-12.579-4.32-16.7-4.32-93.531V104.25l18.579.577 18.578.578 1.005 80.34c.898 71.9 1.378 81.023 4.56 86.848 9.045 16.551 35.429 21.234 50.097 8.89 13.305-11.195 13.538-12.899 13.587-99.253l.045-77.83h38.16v76.05c0 41.826-.867 80.623-1.927 86.216-4.414 23.271-17.752 40.937-37.945 50.253-9.24 4.263-14.883 6.205-30.424 6.664-12.129.358-22.137-1.3-27.468-3.037zm163.042-.05c-19.645-4.867-39.711-18.96-49.462-34.738l-4.298-6.954 10.743-10.88c10.723-8.897 13.304-11.555 13.304-11.555s22.462 23.15 32.266 26.819c12.819 4.796 20.227 5.012 30.122.877 15.256-6.374 22.077-18.307 18.296-32.002-2.661-9.639-11.932-16.081-35.007-24.329-33.118-11.165-69.015-29.61-70.685-68.1.012-14.614 3.353-19.615 6.829-26.11 6.41-11.978 18.124-23.01 30.686-28.901 10.022-4.7 13.574-7.409 34.278-7.409 20.814 0 24.225 2.694 34.496 7.509 6.27 2.939 15.579 9.196 20.687 13.905l9.288 8.561-12.507 12.62-12.507 12.619-7.369-6.658c-16.358-14.778-42.2-17.7-54.27-6.135-3.315 3.175-7.039 9.153-8.277 13.284-5.305 17.708 9.284 30.485 46.527 40.746 40.636 11.196 60.27 34.677 57.798 69.12-2.986 41.594-45.949 68.86-90.938 57.711zm147.624-89.56V144.57h-56.238v-40.17h148.629v40.17h-54.229v172.731h-38.162v-86.365zm104.442-20.055v-106.48h38.162v174.654l39.667.544 39.668.545V316.298l-58.748.532-58.749.533V210.882zm130.552 0v-106.48h116.493v38.16h-79.957l.622 49.209 38.663.545 38.664.546V226.833l-38.664.545-38.663.546.394 51.131 38.21.545 39.727.545V316.298l-57.744.533-57.745.533V210.883zm127.105 105.628s-.375-51.228-.088-108.671l.523-104.442 30.114-.558c53.504-.993 77.574 4.114 93.243 19.783 10.949 10.949 15.172 22.388 15.148 41.03-.025 19.968-5.465 33.426-18.284 45.243-8.437 7.776-25.392 16.143-33.549 18.04 0 0 30.693 41.993 32.833 44.868 17.675 23.556 32.136 43.46 32.136 44.23 0 .77-10.133 1.145-22.518.833l-22.518-.568-32.214-41.384-32.213-41.383-1.004 41.383-1.005 41.384-19.617.575c-14.567-.206-20.987-.363-20.987-.363zm85.866-130.262c14.07-7.1 18.338-21.547 9.635-32.61-6.574-8.359-15.343-11.075-35.751-11.075h-18.14v48.204h17.65c14.312 0 19.345-.855 26.606-4.52zM296.2 209.772V104.251l18.326-.182 18.579-.182.794 45.25.542 43.733 34.607-.55 34.607-.549.541-43.685.542-43.685h36.074v210.892H404.66V228.928h-70.297V315.293h-38.161v-105.52z" style="fill:#000;stroke:none" transform="matrix(.50032 0 0 .50032 -144.187 -31.62)"/>
<path style="fill:#b7b7b7;fill-opacity:1;stroke:#b7b7b7;stroke-opacity:1" d="M1411.156-360.25c-50.876.643-101.955-1.188-152.656 3.531-6.205 1.45-12.334 1.238-15.313 6.926-1.01.77-4.62-1.645-9.704-.352-10.646 2.709-26.049 9.687-25.594 12.084.797 4.2 35.77 9.58 40.236 10.373 2.091.553 8.577-1.892 7.642 1.165 2.514 3.693 14.742 6.801 24.645 7.41 24.962 1.535 47.533.612 72.142 4.386-20.935 42.992-43.707 89.094-50.679 136.852-.895 8.666-1.415 17.508 1.047 25.963 2.473 6.424 7.668 10.318 15.012 14.121 3.915 9.004 14.477 10.252 17.033 1.207 3.084-6.38 6.105-12.778 6.47-20.135 6.919-38.032 17.696-75.732 35.688-110.094 6.229-11.273 12.844-22.85 21.906-31.875-8.495 41.346-18.291 82.905-18.781 125.282.459 11.499 1.809 24.915 11.344 32.594 7.125 5.584 18.459 4.143 23.277-3.79 19.279-23.294 35.316-49.28 56.317-71.335 29.368-33.366 62.108-63.604 96.843-91.5 1.986-1.646 17.216-10.361 18.057-12.818 1.049-3.061-7.001-2.472-9.236-5.25.518-3.84 2.437-6.065 3.948-9.995 3.153-8.202-8.187.868-8.38-.232-.69-3.918-.868-6.953-4.69-5.966-6.37.532-19.186 4.692-24.892 6.096-6.775-.972-14.675 10.451-20.87 12.56-3.181 1.248-1.784-7.74-5.043-5.348-5.77 4.237-16.2 20.464-21.581 23.296-23.358 23.673-44.53 49.39-65.625 75.156 5.556-24.494 10.927-49.466 23.187-71.593 1.896-4.024 1.79-9.166-.437-12.813 9.387-.907 19.657-9.635 20.29-18.471.01-1.422 5.933-3.58 6.137-5.024.46-3.258-6.59-6.531-8.365-9.63-4.603-11.034-17.97-13.193-28.624-12.614-10.248-.264-20.5-.266-30.75-.167z" transform="matrix(.50032 0 0 .50032 -147.646 180.522)"/>
<path style="fill:#cf0712;fill-opacity:1" d="M1324.27-149.203c-.359-8.292-.489-8.482-2.34-3.414-.952 2.606-2.29 4.271-3.65 4.921-1.249.598-2.335 7.049-3.33 5.871-.486-.575-1.086-8.08-1.41-9.099-1.012-3.19-1.374-6.26-1.349-12.441 0-.287-1.381 8.382-1.452 7.533-.516-6.19.628-11.297.647-11.578.685-10.334 2.395-22.913 4.892-32.52 6.58-25.321 22.472-66.33 37.127-95.808l13.196-26.544-21.69-1.25c-11.928-.687-35.736-1.28-52.906-1.318-28.62-.063-38.764-2.106-21.362-4.055 2.603-.291 8.864-.304 12.57-.6 25.272-2.011 24.088-5.027-2.036-5.187-12.287-.076-24.096-.892-26.242-1.814-2.146-.922-6.226-1.739-4.918-1.814 1.307-.075 5.326-1.298 4.781-2.716-.281-.734-2.648-4.383-1.457-4.471 2.152-.16 4.2-2.238 6.266-2.863 4.781-1.447 22.455-3.454 100.112-3.923 93.158-.563 95.106 2.034 98.972 5.9 4.581 4.582 3.614 8.903-2.443 10.918l-4.255 1.415 6.69.464c2.414.475 2.71 2.528 2.09 3.741-2.3 4.503-10.018 7.006-35.028 7.006-15.99 0-28.738.25-30.544 1.389-.845.533 6.967-.263 7.249.817.657 2.511-2.55 7.358-8.554 12.632-22.211 19.509-45.664 71.301-58.765 129.777-2.794 12.47-5.08 24.542-5.08 26.827s-.813 4.155-1.808 4.155c-.994 0-3.728 12.27-4.219 14.148-.49 1.878-1.57-8.992.246-16.099zM1318.345-162c0-9.454-3.04-8.392-3.61 1.26-.304 5.153.252 7.529 1.57 6.714 1.122-.693 2.04-4.282 2.04-7.974zm-44.875-180.36c0-1.072-2.143-1.95-4.763-1.95-2.619 0-5.305.878-5.968 1.95-.703 1.139 1.28 1.952 4.763 1.952 3.282 0 5.968-.878 5.968-1.951zm125.315 193.802c-5.224-2.102-8.25-12.15-8.245-27.375.01-21.303 2.803-41.8 12.45-91.31 7.982-40.96 8.604-43.04 13.584-45.479 5.763-2.822 20.448-1.515 25.582 2.276 2.7 1.994 2.62 2.955-.752 9.06-6.645 12.026-8.144 16.119-15.004 40.972-7.042 25.507-13.685 61.852-11.674 63.864.645.644 1.43.806 1.745.359 17.838-25.328 84.523-103.245 88.362-103.245.867 0 4.153-2.414 7.302-5.365l5.725-5.366-2.336 4.878c-1.847 3.856-.873 3.345 4.65-2.439 6.643-6.955 10.518-9.584 7.911-5.365-.663 1.073-.328 1.95.745 1.95 1.074 0 5.27-3.638 5.904-4.665.634-1.026-1.4 2.812.123 3.396 1.522.585 6.665-2.46 10.205-5.056 6.089-4.464 15.216-6.73 15.216-3.778 0 .749-1.756 2.458-3.902 3.798-2.146 1.34-3.902 3.357-3.902 4.482 0 1.129 1.943.684 4.336-.992 2.385-1.67 5.064-3.037 5.953-3.037.89 0-7.36 7.151-18.331 15.892-40.561 32.314-91.986 86.839-120.26 127.512-11.082 15.94-19.844 26.46-21.808 26.185-.604-.085-2.215-.603-3.579-1.152zm151.737-169.118c0-1.073-2.194.111-4.877 2.632-2.683 2.52-4.878 5.46-4.878 6.533 0 1.073 2.195-.11 4.878-2.631 2.683-2.52 4.878-5.46 4.878-6.534z" transform="matrix(.50032 0 0 .50032 -147.646 180.522)"/>
<g style="font-size:28.89984703px;font-style:normal;font-variant:normal;font-weight:400;font-stretch:normal;text-align:start;line-height:100%;writing-mode:lr-tb;text-anchor:start;fill:#828588;fill-opacity:1;stroke:#000;stroke-width:1.07043815;stroke-opacity:1;font-family:Arial Narrow;-inkscape-font-specification:Arial Narrow"><path d="M577.393 108.07v-9.128h-2.796V97.72h6.728v1.222h-2.81v9.129zM582.44 108.07V97.72h1.688l2.012 7.329.403 1.532c.099-.381.25-.934.452-1.66l2.033-7.2h1.51v10.35h-1.08v-8.663l-2.47 8.663h-1.01l-2.457-8.812v8.812z"/>
</g></svg>