<?xml version="1.0" encoding="UTF-8"?>
<!DOCTYPE svg PUBLIC "-//W3C//DTD SVG 1.1//EN" "http://www.w3.org/Graphics/SVG/1.1/DTD/svg11.dtd">
<svg xmlns="http://www.w3.org/2000/svg" version="1.1" width="495px" height="135px" style="shape-rendering:geometricPrecision; text-rendering:geometricPrecision; image-rendering:optimizeQuality; fill-rule:evenodd; clip-rule:evenodd" xmlns:xlink="http://www.w3.org/1999/xlink">
<g><path style="opacity:1" fill="#ffffff" d="M 63.5,134.5 C 60.8333,134.5 58.1667,134.5 55.5,134.5C 37.5632,123.86 19.5632,113.193 1.5,102.5C 0.344194,79.8763 0.177527,57.2096 1,34.5C 1.37424,33.5838 1.87424,32.7504 2.5,32C 21.2636,20.9542 40.2636,10.4542 59.5,0.5C 79.4815,10.576 98.9815,21.576 118,33.5C 118.667,56.5 118.667,79.5 118,102.5C 99.688,113.067 81.5214,123.734 63.5,134.5 Z M 57.5,16.5 C 60.4245,16.4598 63.0912,17.2932 65.5,19C 78.6667,26.8333 91.8333,34.6667 105,42.5C 105.819,59.5441 105.652,76.5441 104.5,93.5C 90.0459,102.781 75.2126,111.448 60,119.5C 44.6891,111.345 29.6891,102.679 15,93.5C 14.167,76.1571 14.3337,58.8237 15.5,41.5C 29.5633,33.1406 43.5633,24.8072 57.5,16.5 Z"/></g>
<g><path style="opacity:1" fill="#ffffff" d="M 59.5,29.5 C 70.9678,34.8191 82.1345,40.8191 93,47.5C 93.6667,60.8333 93.6667,74.1667 93,87.5C 89.5311,90.9847 85.3644,92.9847 80.5,93.5C 80.6665,81.4954 80.4999,69.4954 80,57.5C 78.2467,56.373 76.4134,55.373 74.5,54.5C 73.6672,69.4889 73.1672,84.4889 73,99.5C 69.5838,101.792 66.0838,103.959 62.5,106C 61.2161,106.684 60.0495,106.517 59,105.5C 58.177,80.0944 58.3436,54.7611 59.5,29.5 Z"/></g>
<g><path style="opacity:1" fill="#bfc0bf" d="M 405.5,33.5 C 417.838,33.3335 430.171,33.5001 442.5,34C 443,34.5 443.5,35 444,35.5C 444.667,39.8333 444.667,44.1667 444,48.5C 440.27,49.4601 436.437,49.7935 432.5,49.5C 432.667,67.1698 432.5,84.8365 432,102.5C 426.667,103.833 421.333,103.833 416,102.5C 415.5,84.8365 415.333,67.1698 415.5,49.5C 411.563,49.7935 407.73,49.4601 404,48.5C 402.955,43.2145 403.455,38.2145 405.5,33.5 Z"/></g>
<g><path style="opacity:1" fill="#ffffff" d="M 141.5,34.5 C 146.5,34.5 151.5,34.5 156.5,34.5C 156.5,56.8333 156.5,79.1667 156.5,101.5C 151.5,101.5 146.5,101.5 141.5,101.5C 141.5,79.1667 141.5,56.8333 141.5,34.5 Z"/></g>
<g><path style="opacity:1" fill="#ffffff" d="M 163.5,34.5 C 168.511,34.3341 173.511,34.5007 178.5,35C 181.59,41.9355 184.09,49.1021 186,56.5C 186.5,49.1742 186.666,41.8409 186.5,34.5C 191.43,34.1975 196.263,34.5308 201,35.5C 201.5,57.4975 201.667,79.4975 201.5,101.5C 196.57,101.803 191.737,101.469 187,100.5C 184.333,92.5 181.667,84.5 179,76.5C 178.5,84.8267 178.334,93.16 178.5,101.5C 173.5,101.5 168.5,101.5 163.5,101.5C 163.5,79.1667 163.5,56.8333 163.5,34.5 Z"/></g>
<g><path style="opacity:1" fill="#ffffff" d="M 213.5,34.5 C 221.84,34.3336 230.173,34.5003 238.5,35C 240.939,35.7739 242.773,37.2739 244,39.5C 245.517,45.0802 245.851,50.7469 245,56.5C 240.263,57.4692 235.43,57.8025 230.5,57.5C 230.664,54.8127 230.497,52.146 230,49.5C 227.619,48.565 225.119,48.2317 222.5,48.5C 222.34,50.1992 222.506,51.8659 223,53.5C 228.698,59.5325 234.698,65.1991 241,70.5C 245.682,78.6745 246.682,87.3411 244,96.5C 242.52,99.6626 240.02,101.496 236.5,102C 228.421,102.901 220.421,102.568 212.5,101C 210.185,99.8906 208.685,98.0573 208,95.5C 207.501,90.1771 207.334,84.8437 207.5,79.5C 212.5,79.5 217.5,79.5 222.5,79.5C 222.5,82.1667 222.5,84.8333 222.5,87.5C 225.167,87.5 227.833,87.5 230.5,87.5C 230.66,85.8008 230.494,84.1341 230,82.5C 223.667,76.1667 217.333,69.8333 211,63.5C 209.561,61.7254 208.561,59.7254 208,57.5C 207.333,51.8333 207.333,46.1667 208,40.5C 209.36,37.9774 211.193,35.9774 213.5,34.5 Z"/></g>
<g><path style="opacity:1" fill="#ffffff" d="M 252.5,34.5 C 257.43,34.1975 262.263,34.5308 267,35.5C 267.5,57.4975 267.667,79.4975 267.5,101.5C 262.5,101.5 257.5,101.5 252.5,101.5C 252.5,79.1667 252.5,56.8333 252.5,34.5 Z"/></g>
<g><path style="opacity:1" fill="#ffffff" d="M 280.5,34.5 C 288.84,34.3336 297.173,34.5003 305.5,35C 307.624,36.1217 309.457,37.6217 311,39.5C 312.456,45.0966 312.789,50.7633 312,56.5C 307.263,57.4692 302.43,57.8025 297.5,57.5C 297.664,54.8127 297.497,52.146 297,49.5C 294.619,48.565 292.119,48.2317 289.5,48.5C 289.5,61.5 289.5,74.5 289.5,87.5C 292.167,87.5 294.833,87.5 297.5,87.5C 297.5,84.1667 297.5,80.8333 297.5,77.5C 295.208,77.7564 293.041,77.4231 291,76.5C 290.204,72.2452 290.371,68.0785 291.5,64C 298.414,63.1888 305.248,63.3555 312,64.5C 312.667,74.1667 312.667,83.8333 312,93.5C 311.167,98.3333 308.333,101.167 303.5,102C 296.5,102.667 289.5,102.667 282.5,102C 278.473,101.573 275.973,99.4064 275,95.5C 274.333,77.1667 274.333,58.8333 275,40.5C 276.36,37.9774 278.193,35.9774 280.5,34.5 Z"/></g>
<g><path style="opacity:1" fill="#ffffff" d="M 319.5,34.5 C 324.43,34.1975 329.263,34.5308 334,35.5C 334.5,43.8267 334.666,52.16 334.5,60.5C 337.119,60.7683 339.619,60.435 342,59.5C 342.5,51.1733 342.666,42.84 342.5,34.5C 347.167,34.5 351.833,34.5 356.5,34.5C 356.5,56.8333 356.5,79.1667 356.5,101.5C 351.833,101.5 347.167,101.5 342.5,101.5C 342.5,92.5 342.5,83.5 342.5,74.5C 339.833,74.5 337.167,74.5 334.5,74.5C 334.5,83.5 334.5,92.5 334.5,101.5C 329.5,101.5 324.5,101.5 319.5,101.5C 319.5,79.1667 319.5,56.8333 319.5,34.5 Z"/></g>
<g><path style="opacity:1" fill="#ffffff" d="M 362.5,34.5 C 374.838,34.3335 387.171,34.5001 399.5,35C 400.629,39.0785 400.796,43.2452 400,47.5C 396.27,48.4601 392.437,48.7935 388.5,48.5C 388.5,66.1667 388.5,83.8333 388.5,101.5C 383.5,101.5 378.5,101.5 373.5,101.5C 373.5,83.8333 373.5,66.1667 373.5,48.5C 369.833,48.5 366.167,48.5 362.5,48.5C 362.5,43.8333 362.5,39.1667 362.5,34.5 Z"/></g>
<g><path style="opacity:1" fill="#bfc0bf" d="M 447.5,34.5 C 452.833,34.5 458.167,34.5 463.5,34.5C 465.472,45.8601 467.639,57.1934 470,68.5C 472.276,57.1737 474.443,45.8404 476.5,34.5C 481.833,34.5 487.167,34.5 492.5,34.5C 488.58,56.5986 484.08,78.5986 479,100.5C 476.276,101.776 473.276,102.442 470,102.5C 466.914,102.478 463.914,102.145 461,101.5C 455.791,79.2857 451.291,56.9524 447.5,34.5 Z"/></g>
<g><path style="opacity:1" fill="#ffffff" d="M 35.5,41.5 C 37.1667,41.5 38.8333,41.5 40.5,41.5C 40.5,59.1667 40.5,76.8333 40.5,94.5C 34.9672,93.6505 30.1339,91.3172 26,87.5C 25.3333,74.5 25.3333,61.5 26,48.5C 29.1454,46.0235 32.312,43.6902 35.5,41.5 Z"/></g>
</svg>
