<?xml version="1.0" encoding="UTF-8"?>
<!DOCTYPE svg PUBLIC "-//W3C//DTD SVG 1.1//EN" "http://www.w3.org/Graphics/SVG/1.1/DTD/svg11.dtd">
<svg xmlns="http://www.w3.org/2000/svg" version="1.1" width="293px" height="120px" style="shape-rendering:geometricPrecision; text-rendering:geometricPrecision; image-rendering:optimizeQuality; fill-rule:evenodd; clip-rule:evenodd" xmlns:xlink="http://www.w3.org/1999/xlink">
<g><path style="opacity:0.956" fill="#17b2ad" d="M 161.5,-0.5 C 167.167,-0.5 172.833,-0.5 178.5,-0.5C 192.491,5.46376 198.824,16.1304 197.5,31.5C 213.663,27.3315 228.496,29.9981 242,39.5C 247.155,36.0057 252.655,33.1724 258.5,31C 268.125,28.4073 277.458,29.074 286.5,33C 289.121,35.1141 291.121,37.6141 292.5,40.5C 292.5,49.1667 292.5,57.8333 292.5,66.5C 289.768,72.5433 285.101,76.21 278.5,77.5C 278.666,87.5056 278.5,97.5056 278,107.5C 276.007,112.983 272.507,116.983 267.5,119.5C 258.5,119.5 249.5,119.5 240.5,119.5C 238.465,118.06 236.298,116.727 234,115.5C 230.429,116.963 226.929,118.296 223.5,119.5C 216.167,119.5 208.833,119.5 201.5,119.5C 198.159,118.382 194.825,117.048 191.5,115.5C 188.175,117.048 184.841,118.382 181.5,119.5C 174.167,119.5 166.833,119.5 159.5,119.5C 156.662,118.365 153.662,117.365 150.5,116.5C 147.718,117.516 145.051,118.516 142.5,119.5C 135.167,119.5 127.833,119.5 120.5,119.5C 114.712,117.939 109.379,115.273 104.5,111.5C 99.1249,115.024 93.4582,117.69 87.5,119.5C 80.1667,119.5 72.8333,119.5 65.5,119.5C 59.1281,117.73 53.2947,114.73 48,110.5C 43.2116,114.974 37.7116,117.974 31.5,119.5C 24.5,119.5 17.5,119.5 10.5,119.5C 5.281,117.404 1.61433,113.737 -0.5,108.5C -0.5,100.167 -0.5,91.8333 -0.5,83.5C 1.84723,76.9813 6.51389,73.3147 13.5,72.5C 13.3335,62.1613 13.5002,51.828 14,41.5C 15.4329,36.4018 18.5995,32.9018 23.5,31C 31.7697,29.4635 40.103,29.1301 48.5,30C 51.4576,30.2293 53.9576,31.396 56,33.5C 73.4056,24.9305 90.4056,25.5972 107,35.5C 118.289,30.054 130.122,28.3873 142.5,30.5C 141.485,15.51 147.818,5.17665 161.5,-0.5 Z"/></g>
<g><path style="opacity:1" fill="#dadd1b" d="M 164.5,14.5 C 176.691,12.4722 182.524,17.4722 182,29.5C 179.034,37.055 173.534,39.8883 165.5,38C 155.169,30.5276 154.836,22.6943 164.5,14.5 Z"/></g>
<g><path style="opacity:1" fill="#f9fdfb" d="M 126.5,43.5 C 142.445,42.2154 152.612,49.2154 157,64.5C 157.667,77.1667 157.667,89.8333 157,102.5C 156.5,103 156,103.5 155.5,104C 149.916,104.806 144.416,104.639 139,103.5C 138.667,90.8333 138.333,78.1667 138,65.5C 133.585,60.274 129.251,60.274 125,65.5C 124.667,77.8333 124.333,90.1667 124,102.5C 123.5,103 123,103.5 122.5,104C 116.916,104.806 111.416,104.639 106,103.5C 105.089,89.1197 105.422,74.7864 107,60.5C 110.972,51.6798 117.472,46.0132 126.5,43.5 Z"/></g>
<g><path style="opacity:1" fill="#dbdd1a" d="M 241.5,62.5 C 243.022,68.0452 243.688,73.7119 243.5,79.5C 238.286,99.4633 225.286,107.963 204.5,105C 183.123,95.0553 177.29,79.222 187,57.5C 202.496,39.9432 219.163,38.9432 237,54.5C 239.157,56.8171 240.657,59.4838 241.5,62.5 Z"/></g>
<g><path style="opacity:1" fill="#fcfefc" d="M 29.5,44.5 C 35.0934,44.1934 40.5934,44.5268 46,45.5C 46.9133,60.2133 46.5799,74.88 45,89.5C 38.1685,102.423 27.8351,107.09 14,103.5C 13.3333,98.5 13.3333,93.5 14,88.5C 17.0757,87.7117 20.2423,87.2117 23.5,87C 25.6667,86.1667 27.1667,84.6667 28,82.5C 28.1859,69.7582 28.6859,57.0915 29.5,44.5 Z"/></g>
<g><path style="opacity:1" fill="#fafdfb" d="M 52.5,44.5 C 57.5111,44.3341 62.5111,44.5007 67.5,45C 68,45.5 68.5,46 69,46.5C 69.3333,59.1667 69.6667,71.8333 70,84.5C 75.9655,89.1747 80.6322,88.1747 84,81.5C 84.3333,69.5 84.6667,57.5 85,45.5C 90.082,44.363 95.2487,44.1963 100.5,45C 101,45.5 101.5,46 102,46.5C 102.888,60.5414 102.554,74.5414 101,88.5C 92.6275,105.293 79.7942,109.793 62.5,102C 55.7051,97.2431 51.8718,90.7431 51,82.5C 50.3333,70.5 50.3333,58.5 51,46.5C 51.7172,45.9558 52.2172,45.2891 52.5,44.5 Z"/></g>
<g><path style="opacity:1" fill="#f9fdfb" d="M 162.5,44.5 C 167.511,44.3341 172.511,44.5007 177.5,45C 178,45.5 178.5,46 179,46.5C 179.667,65.5 179.667,84.5 179,103.5C 178.25,104.126 177.416,104.626 176.5,105C 171.778,105.777 167.111,105.61 162.5,104.5C 161.18,84.4352 161.18,64.4352 162.5,44.5 Z"/></g>
<g><path style="opacity:1" fill="#fbfefb" d="M 265.5,44.5 C 270.099,44.2 274.599,44.5333 279,45.5C 279.667,50.8333 279.667,56.1667 279,61.5C 275.589,62.2931 272.089,62.7931 268.5,63C 266.951,64.214 265.785,65.714 265,67.5C 264.667,79.8333 264.333,92.1667 264,104.5C 258.584,105.639 253.084,105.806 247.5,105C 246.344,91.2417 246.177,77.4083 247,63.5C 250.017,53.9839 256.184,47.6505 265.5,44.5 Z"/></g>
<g><path style="opacity:1" fill="#1cb2a8" d="M 208.5,62.5 C 223.285,62.105 228.118,68.7717 223,82.5C 217.948,88.1743 212.114,89.0076 205.5,85C 198.06,76.2524 199.06,68.7524 208.5,62.5 Z"/></g>
<g><path style="opacity:1" fill="#9ed049" d="M 241.5,62.5 C 244.448,67.9345 245.114,73.6012 243.5,79.5C 243.688,73.7119 243.022,68.0452 241.5,62.5 Z"/></g>
</svg>
