<?xml version="1.0" encoding="UTF-8"?>
<!DOCTYPE svg PUBLIC "-//W3C//DTD SVG 1.1//EN" "http://www.w3.org/Graphics/SVG/1.1/DTD/svg11.dtd">
<svg xmlns="http://www.w3.org/2000/svg" version="1.1" width="710px" height="142px" style="shape-rendering:geometricPrecision; text-rendering:geometricPrecision; image-rendering:optimizeQuality; fill-rule:evenodd; clip-rule:evenodd" xmlns:xlink="http://www.w3.org/1999/xlink">
<g><path style="opacity:1" fill="#d20635" d="M -0.5,-0.5 C 196.167,-0.5 392.833,-0.5 589.5,-0.5C 589.5,46.8333 589.5,94.1667 589.5,141.5C 392.833,141.5 196.167,141.5 -0.5,141.5C -0.5,122.167 -0.5,102.833 -0.5,83.5C 24.873,126.697 62.2063,142.864 111.5,132C 152.949,116.481 174.616,86.4812 176.5,42C 176.635,29.3369 173.968,17.3369 168.5,6C 154.196,7.88273 139.863,9.88273 125.5,12C 122.038,24.595 114.372,33.595 102.5,39C 98.1043,40.9097 93.6043,42.4097 89,43.5C 87.3172,53.1498 85.8172,62.8164 84.5,72.5C 93.6723,71.3115 102.672,69.8115 111.5,68C 98.2078,96.4837 75.8745,108.484 44.5,104C 31.3295,100.834 20.4962,94.0002 12,83.5C 6.7119,75.5906 2.54524,67.2573 -0.5,58.5C -0.5,38.8333 -0.5,19.1667 -0.5,-0.5 Z"/></g>
<g><path style="opacity:0.014" fill="#d331fe" d="M 590.5,-0.5 C 591.5,-0.5 592.5,-0.5 593.5,-0.5C 593.5,10.1667 593.5,20.8333 593.5,31.5C 593.5,32.8333 593.5,34.1667 593.5,35.5C 593.5,38.8333 593.5,42.1667 593.5,45.5C 593.167,45.5 592.833,45.5 592.5,45.5C 592.632,38.9243 591.966,32.4243 590.5,26C 590.878,17.2146 590.878,8.38129 590.5,-0.5 Z"/></g>
<g><path style="opacity:0.008" fill="#1aff8b" d="M 593.5,-0.5 C 594.167,-0.5 594.833,-0.5 595.5,-0.5C 595.666,9.83871 595.5,20.172 595,30.5C 594.617,31.056 594.117,31.3893 593.5,31.5C 593.5,20.8333 593.5,10.1667 593.5,-0.5 Z"/></g>
<g><path style="opacity:0.012" fill="#f03174" d="M 595.5,-0.5 C 595.833,-0.5 596.167,-0.5 596.5,-0.5C 596.5,12.8333 596.5,26.1667 596.5,39.5C 595.978,37.7809 594.978,36.4475 593.5,35.5C 593.5,34.1667 593.5,32.8333 593.5,31.5C 594.117,31.3893 594.617,31.056 595,30.5C 595.5,20.172 595.666,9.83871 595.5,-0.5 Z"/></g>
<g><path style="opacity:1" fill="#d20635" d="M 609.5,-0.5 C 613.833,-0.5 618.167,-0.5 622.5,-0.5C 622.5,5.5 622.5,11.5 622.5,17.5C 627.833,17.5 633.167,17.5 638.5,17.5C 638.5,11.5 638.5,5.5 638.5,-0.5C 642.833,-0.5 647.167,-0.5 651.5,-0.5C 651.5,15.1667 651.5,30.8333 651.5,46.5C 647.167,46.5 642.833,46.5 638.5,46.5C 638.5,40.1667 638.5,33.8333 638.5,27.5C 633.167,27.5 627.833,27.5 622.5,27.5C 622.5,33.8333 622.5,40.1667 622.5,46.5C 618.167,46.5 613.833,46.5 609.5,46.5C 609.5,30.8333 609.5,15.1667 609.5,-0.5 Z"/></g>
<g><path style="opacity:1" fill="#d30e38" d="M 666.5,-0.5 C 676.167,-0.5 685.833,-0.5 695.5,-0.5C 702.536,2.19644 707.203,7.19644 709.5,14.5C 709.5,20.1667 709.5,25.8333 709.5,31.5C 708.26,34.024 707.093,36.6907 706,39.5C 703.937,41.7341 701.771,43.7341 699.5,45.5C 688.538,46.432 677.538,46.7653 666.5,46.5C 666.5,30.8333 666.5,15.1667 666.5,-0.5 Z M 679.5,10.5 C 692.999,10.1579 698.165,16.4913 695,29.5C 693.52,32.6626 691.02,34.496 687.5,35C 684.854,35.4974 682.187,35.6641 679.5,35.5C 679.5,27.1667 679.5,18.8333 679.5,10.5 Z"/></g>
<g><path style="opacity:1" fill="#ffffff" d="M -0.5,83.5 C -0.5,75.1667 -0.5,66.8333 -0.5,58.5C 2.54524,67.2573 6.7119,75.5906 12,83.5C 20.4962,94.0002 31.3295,100.834 44.5,104C 75.8745,108.484 98.2078,96.4837 111.5,68C 102.672,69.8115 93.6723,71.3115 84.5,72.5C 85.8172,62.8164 87.3172,53.1498 89,43.5C 93.6043,42.4097 98.1043,40.9097 102.5,39C 114.372,33.595 122.038,24.595 125.5,12C 139.863,9.88273 154.196,7.88273 168.5,6C 173.968,17.3369 176.635,29.3369 176.5,42C 174.616,86.4812 152.949,116.481 111.5,132C 62.2063,142.864 24.873,126.697 -0.5,83.5 Z"/></g>
<g><path style="opacity:1" fill="#ffffff" d="M 209.5,16.5 C 330.5,16.5 451.5,16.5 572.5,16.5C 572.5,52.5 572.5,88.5 572.5,124.5C 451.5,124.5 330.5,124.5 209.5,124.5C 209.5,88.5 209.5,52.5 209.5,16.5 Z"/></g>
<g><path style="opacity:1" fill="#d20635" d="M 351.5,35.5 C 380.408,35.5704 393.242,49.9037 390,78.5C 387.044,93.7893 377.878,102.623 362.5,105C 340.949,107.305 328.116,97.8054 324,76.5C 321.238,54.6613 330.405,40.9946 351.5,35.5 Z"/></g>
<g><path style="opacity:1" fill="#d20635" d="M 252.5,37.5 C 265.504,37.3334 278.504,37.5001 291.5,38C 304.18,40.3447 312.013,47.8447 315,60.5C 317.142,72.343 315.142,83.343 309,93.5C 304.014,98.91 297.847,102.077 290.5,103C 277.838,103.5 265.171,103.667 252.5,103.5C 252.5,81.5 252.5,59.5 252.5,37.5 Z"/></g>
<g><path style="opacity:1" fill="#d20635" d="M 421.5,57.5 C 421.435,57.9382 421.601,58.2716 422,58.5C 427.739,52.0175 433.239,45.3509 438.5,38.5C 446.833,37.1667 455.167,37.1667 463.5,38.5C 457.217,46.285 450.384,53.6183 443,60.5C 442.362,61.6086 441.862,62.7753 441.5,64C 450.347,76.6863 459.014,89.5196 467.5,102.5C 459.167,103.833 450.833,103.833 442.5,102.5C 437.803,95.6343 433.303,88.6343 429,81.5C 428.261,80.4258 427.261,79.7591 426,79.5C 424.674,80.7989 423.34,82.1322 422,83.5C 421.5,90.1583 421.334,96.825 421.5,103.5C 414.833,103.5 408.167,103.5 401.5,103.5C 401.5,81.5 401.5,59.5 401.5,37.5C 407.833,37.5 414.167,37.5 420.5,37.5C 420.176,44.3543 420.509,51.021 421.5,57.5 Z"/></g>
<g><path style="opacity:1" fill="#d20635" d="M 472.5,37.5 C 479.167,37.5 485.833,37.5 492.5,37.5C 492.333,52.5037 492.5,67.5037 493,82.5C 496.126,88.6553 500.96,90.4886 507.5,88C 510.181,85.806 511.681,82.9727 512,79.5C 512.5,65.504 512.667,51.504 512.5,37.5C 519.167,37.5 525.833,37.5 532.5,37.5C 532.667,52.5037 532.5,67.5037 532,82.5C 531.17,94.3256 525.004,101.492 513.5,104C 501.984,106.681 490.984,105.348 480.5,100C 477.469,97.441 475.302,94.2743 474,90.5C 472.541,72.9025 472.041,55.2358 472.5,37.5 Z"/></g>
<g><path style="opacity:1" fill="#d20635" d="M 421.5,57.5 C 420.509,51.021 420.176,44.3543 420.5,37.5C 414.167,37.5 407.833,37.5 401.5,37.5C 401.5,59.5 401.5,81.5 401.5,103.5C 400.503,81.3396 400.169,59.0062 400.5,36.5C 407.5,36.5 414.5,36.5 421.5,36.5C 421.5,43.5 421.5,50.5 421.5,57.5 Z"/></g>
<g><path style="opacity:1" fill="#ffffff" d="M 353.5,52.5 C 362.466,51.733 367.966,55.733 370,64.5C 372.61,74.4238 369.776,82.2571 361.5,88C 351.557,89.7373 345.724,85.5706 344,75.5C 341.908,65.4302 345.074,57.7635 353.5,52.5 Z"/></g>
<g><path style="opacity:1" fill="#ffffff" d="M 272.5,54.5 C 289.434,52.2679 296.934,59.6013 295,76.5C 292.496,84.5107 286.996,88.1774 278.5,87.5C 276.571,87.4604 274.738,87.1271 273,86.5C 272.5,75.8385 272.333,65.1719 272.5,54.5 Z"/></g>
</svg>
