<?xml version="1.0" encoding="utf-8"?>
<!-- Generator: Adobe Illustrator 24.2.1, SVG Export Plug-In . SVG Version: 6.00 Build 0)  -->
<svg version="1.1" id="Слой_1" xmlns="http://www.w3.org/2000/svg" xmlns:xlink="http://www.w3.org/1999/xlink" x="0px" y="0px"
	 viewBox="0 0 512 123.5" style="enable-background:new 0 0 512 123.5;" xml:space="preserve">
<style type="text/css">
	.st0{fill:#C8193C;}
	.st1{fill:#FFFFFF;}
</style>
<g transform="translate(-156.43 -349.41)">
	<path class="st0" d="M657.2,461.7H340.6V360.6h316.6V461.7z M156.4,349.4v41.8c0,19.9,12,38.4,30.6,46.1c18,7.5,37.1,4.1,51-6.9
		c8-5.7,14.3-16.6,16.4-23.3c0,0-10.5,4.5-24.5,5.6c1.9-8.3,3.6-21.4,4-25.2c13.2-2.5,27.8-10.3,31.9-27.8
		c11.8-0.9,24.3-2.7,37.4-5.5c3.8,6.7,7.2,21.2,7.2,31.8c0,45.2-35,81.8-80.5,81.8c-31.1,0-59.7-17.7-73.5-47.3v52.3h512V349.4
		L156.4,349.4"/>
	<path class="st0" d="M396.5,425.1h6.9c10.9,0,12.5-8.9,12.5-14.2c0-3.6-1.1-13.6-13.8-13.6h-5.6V425.1z M379,382.7h28.8
		c19,0,25.7,14.1,25.7,28.4c0,17.5-9.3,28.6-29.1,28.6H379L379,382.7"/>
	<path class="st0" d="M478.9,419c-0.8,2-1.7,3.6-2.8,4.7c-1.1,1.1-2.3,1.9-3.7,2.4c-1.3,0.4-2.5,0.7-3.7,0.7c-1.1,0-2.3-0.2-3.7-0.7
		c-1.3-0.5-2.6-1.3-3.7-2.4c-1.1-1.1-2.1-2.7-2.8-4.7c-0.8-2-1.2-4.6-1.2-7.8c0-3.2,0.4-5.8,1.2-7.8c0.8-2,1.7-3.6,2.8-4.7
		c1.1-1.1,2.3-1.9,3.7-2.4c1.3-0.5,2.6-0.7,3.7-0.7c1.1,0,2.3,0.2,3.7,0.7c1.3,0.5,2.6,1.2,3.7,2.4c1.1,1.1,2.1,2.7,2.8,4.7
		c0.8,2,1.2,4.6,1.2,7.8C480,414.4,479.7,417,478.9,419 M489.7,389.7c-2.5-2.6-5.6-4.7-9.1-6.2c-3.6-1.5-7.5-2.2-11.8-2.2
		c-4.3,0-8.2,0.7-11.8,2.2c-3.6,1.5-6.6,3.6-9.1,6.2c-2.5,2.6-4.5,5.8-5.9,9.4c-1.4,3.6-2.1,7.7-2.1,12c0,4.4,0.7,8.4,2.1,12
		c1.4,3.6,3.3,6.8,5.9,9.4c2.5,2.6,5.6,4.7,9.1,6.2c3.6,1.5,7.5,2.2,11.8,2.2c4.3,0,8.2-0.7,11.8-2.2c3.6-1.5,6.6-3.6,9.1-6.2
		c2.5-2.6,4.5-5.8,5.9-9.4c1.4-3.6,2.1-7.7,2.1-12c0-4.4-0.7-8.4-2.1-12C494.1,395.5,492.2,392.4,489.7,389.7"/>
	<path class="st0" d="M560.9,382.7h-21.6l-15.6,19.6h-0.2v-19.6h-17.6v57h17.6v-16.8l4.9-5.3l14,22.2h21.9l-24-34.7L560.9,382.7"/>
	<path class="st0" d="M601.3,382.7v31c0,1.4,0,2.9-0.1,4.5c-0.1,1.5-0.4,3-0.9,4.2c-0.5,1.3-1.4,2.3-2.5,3.1
		c-1.1,0.8-2.7,1.2-4.8,1.2c-2.1,0-3.8-0.4-4.9-1.2c-1.2-0.8-2-1.9-2.6-3.1c-0.5-1.3-0.8-2.7-0.9-4.2c-0.1-1.5-0.1-3-0.1-4.5v-31
		h-17.6v35c0,7.9,2.1,13.8,6.4,17.6c4.3,3.8,10.8,5.7,19.6,5.7c8.8,0,15.3-1.9,19.6-5.7c4.3-3.8,6.4-9.7,6.4-17.6v-35H601.3"/>
</g>
<path class="st1" d="M73.5,118.5c45.5,0,80.5-36.6,80.5-81.8c0-10.5-3.4-25-7.2-31.8c-13.1,2.7-25.6,4.6-37.4,5.5
	c-4.1,17.5-18.7,25.2-31.9,27.7c-0.4,3.9-2,17-4,25.2c14-1.1,24.5-5.6,24.5-5.6c-2.1,6.7-8.4,17.6-16.4,23.3
	c-13.9,11-33,14.4-51,6.9C12,80.2,0,61.8,0,41.8v29.4C13.8,100.8,42.4,118.5,73.5,118.5"/>
</svg>
