<?xml version="1.0" encoding="UTF-8"?>
<!DOCTYPE svg PUBLIC "-//W3C//DTD SVG 1.1//EN" "http://www.w3.org/Graphics/SVG/1.1/DTD/svg11.dtd">
<svg xmlns="http://www.w3.org/2000/svg" version="1.1" width="399px" height="60px" style="shape-rendering:geometricPrecision; text-rendering:geometricPrecision; image-rendering:optimizeQuality; fill-rule:evenodd; clip-rule:evenodd" xmlns:xlink="http://www.w3.org/1999/xlink">
<g><path style="opacity:1" fill="#ffffff" d="M 110.5,1.5 C 126.698,0.829679 132.698,8.49635 128.5,24.5C 125.167,24.5 121.833,24.5 118.5,24.5C 118.766,20.4295 118.433,16.4295 117.5,12.5C 115.681,10.0886 113.681,9.92196 111.5,12C 110.167,24 110.167,36 111.5,48C 113.785,49.9536 115.952,49.787 118,47.5C 118.499,43.1794 118.666,38.8461 118.5,34.5C 121.833,34.5 125.167,34.5 128.5,34.5C 133.047,51.6774 126.714,59.5108 109.5,58C 106.452,57.3936 103.952,55.8936 102,53.5C 100.367,38.5931 100.033,23.5931 101,8.5C 103.121,4.64416 106.288,2.31083 110.5,1.5 Z"/></g>
<g><path style="opacity:1" fill="#ffffff" d="M 214.5,1.5 C 229.55,0.55788 235.55,7.55788 232.5,22.5C 229.167,22.5 225.833,22.5 222.5,22.5C 222.751,19.091 222.417,15.7577 221.5,12.5C 219.5,9.83333 217.5,9.83333 215.5,12.5C 214.438,15.1029 214.272,17.7695 215,20.5C 218.293,23.7869 222.127,26.2869 226.5,28C 228.709,29.8734 230.542,32.04 232,34.5C 236.144,55.0281 228.31,62.1948 208.5,56C 206.513,54.6811 205.346,52.8477 205,50.5C 204.501,45.8452 204.334,41.1785 204.5,36.5C 207.833,36.5 211.167,36.5 214.5,36.5C 214.335,40.1817 214.501,43.8484 215,47.5C 217.333,50.1667 219.667,50.1667 222,47.5C 222.667,44.5 222.667,41.5 222,38.5C 217,35.1667 212,31.8333 207,28.5C 203.667,20.8333 203.667,13.1667 207,5.5C 209.514,3.99577 212.014,2.66243 214.5,1.5 Z"/></g>
<g><path style="opacity:1" fill="#ffffff" d="M 250.5,1.5 C 265.55,0.55788 271.55,7.55788 268.5,22.5C 265.167,22.5 261.833,22.5 258.5,22.5C 258.665,19.1501 258.498,15.8168 258,12.5C 255.778,9.9557 253.611,9.9557 251.5,12.5C 250.438,15.1029 250.272,17.7695 251,20.5C 255.07,24.1202 259.57,27.1202 264.5,29.5C 265.861,31.0284 267.028,32.6951 268,34.5C 272.144,55.0281 264.31,62.1948 244.5,56C 242.513,54.6811 241.346,52.8477 241,50.5C 240.501,45.8452 240.334,41.1785 240.5,36.5C 243.833,36.5 247.167,36.5 250.5,36.5C 250.335,39.8499 250.502,43.1832 251,46.5C 252.903,49.9547 255.237,50.288 258,47.5C 258.667,44.5 258.667,41.5 258,38.5C 253,35.1667 248,31.8333 243,28.5C 239.667,20.8333 239.667,13.1667 243,5.5C 245.514,3.99577 248.014,2.66243 250.5,1.5 Z"/></g>
<g><path style="opacity:1" fill="#ffffff" d="M 308.5,1.5 C 324.414,0.922918 330.747,8.58958 327.5,24.5C 323.833,24.5 320.167,24.5 316.5,24.5C 316.666,20.4862 316.499,16.4862 316,12.5C 313.911,10.0408 311.745,10.0408 309.5,12.5C 308.355,23.7869 308.189,35.1202 309,46.5C 311.135,49.4557 313.468,49.789 316,47.5C 316.499,43.1794 316.666,38.8461 316.5,34.5C 320.167,34.5 323.833,34.5 327.5,34.5C 330.551,55.2791 322.218,62.4458 302.5,56C 301.667,55.1667 300.833,54.3333 300,53.5C 298.384,38.9018 298.051,24.2351 299,9.5C 300.911,5.30085 304.077,2.63418 308.5,1.5 Z"/></g>
<g><path style="opacity:1" fill="#ffffff" d="M 345.5,1.5 C 360.561,0.588677 366.561,7.58868 363.5,22.5C 360.167,22.5 356.833,22.5 353.5,22.5C 353.665,19.1501 353.498,15.8168 353,12.5C 350.778,9.9557 348.611,9.9557 346.5,12.5C 345.438,15.1029 345.272,17.7695 346,20.5C 350.563,24.0599 355.396,27.2266 360.5,30C 361.211,31.2547 362.044,32.4214 363,33.5C 367.621,54.5517 359.788,62.0517 339.5,56C 337.513,54.6811 336.346,52.8477 336,50.5C 335.501,45.8452 335.334,41.1785 335.5,36.5C 338.833,36.5 342.167,36.5 345.5,36.5C 345.335,39.8499 345.502,43.1832 346,46.5C 347.903,49.9547 350.237,50.288 353,47.5C 353.667,44.5 353.667,41.5 353,38.5C 348.08,35.2901 343.246,31.9567 338.5,28.5C 336.03,25.1152 335.03,21.2819 335.5,17C 334.491,8.81917 337.824,3.65251 345.5,1.5 Z"/></g>
<g><path style="opacity:1" fill="#ffffff" d="M 1.5,2.5 C 28.8333,2.5 56.1667,2.5 83.5,2.5C 83.5,20.8333 83.5,39.1667 83.5,57.5C 56.1667,57.5 28.8333,57.5 1.5,57.5C 1.16917,49.8045 1.50251,42.1378 2.5,34.5C 16.5052,55.6673 34.5052,59.8339 56.5,47C 69.2855,35.2361 72.2855,21.4028 65.5,5.5C 60.5633,6.82274 55.5633,7.82274 50.5,8.5C 48.6666,15.6586 44,19.6586 36.5,20.5C 36.5,23.1667 36.5,25.8333 36.5,28.5C 39.9271,28.0244 43.2605,28.0244 46.5,28.5C 42.3543,40.2467 34.021,45.4134 21.5,44C 11.5453,42.7104 5.37861,37.2104 3,27.5C 1.66957,19.2267 1.16957,10.8933 1.5,2.5 Z"/></g>
<g><path style="opacity:1" fill="#ffffff" d="M 138.5,2.5 C 141.833,2.5 145.167,2.5 148.5,2.5C 148.5,17.8333 148.5,33.1667 148.5,48.5C 153.167,48.5 157.833,48.5 162.5,48.5C 162.5,51.5 162.5,54.5 162.5,57.5C 154.5,57.5 146.5,57.5 138.5,57.5C 138.5,39.1667 138.5,20.8333 138.5,2.5 Z"/></g>
<g><path style="opacity:1" fill="#ffffff" d="M 176.5,2.5 C 180.833,2.5 185.167,2.5 189.5,2.5C 192.726,20.8541 196.059,39.1874 199.5,57.5C 195.833,57.5 192.167,57.5 188.5,57.5C 187.979,53.5191 187.646,49.5191 187.5,45.5C 184.5,45.5 181.5,45.5 178.5,45.5C 177.705,49.4764 177.038,53.4764 176.5,57.5C 173.167,57.5 169.833,57.5 166.5,57.5C 169.726,39.1433 173.059,20.81 176.5,2.5 Z M 182.5,20.5 C 183.731,25.6623 184.731,30.9957 185.5,36.5C 183.473,36.6621 181.473,36.4955 179.5,36C 180.558,30.8748 181.558,25.7081 182.5,20.5 Z"/></g>
<g><path style="opacity:1" fill="#ffffff" d="M 278.5,2.5 C 281.833,2.5 285.167,2.5 288.5,2.5C 288.5,20.8333 288.5,39.1667 288.5,57.5C 285.167,57.5 281.833,57.5 278.5,57.5C 278.5,39.1667 278.5,20.8333 278.5,2.5 Z"/></g>
<g><path style="opacity:1" fill="#ffffff" d="M 371.5,2.5 C 372.833,2.5 374.167,2.5 375.5,2.5C 375.5,5.16667 375.5,7.83333 375.5,10.5C 376.833,10.5 378.167,10.5 379.5,10.5C 379.5,7.83333 379.5,5.16667 379.5,2.5C 380.833,2.5 382.167,2.5 383.5,2.5C 383.5,9.16667 383.5,15.8333 383.5,22.5C 382.167,22.5 380.833,22.5 379.5,22.5C 379.5,19.8333 379.5,17.1667 379.5,14.5C 378.167,14.5 376.833,14.5 375.5,14.5C 375.5,17.1667 375.5,19.8333 375.5,22.5C 374.167,22.5 372.833,22.5 371.5,22.5C 371.5,15.8333 371.5,9.16667 371.5,2.5 Z"/></g>
<g><path style="opacity:1" fill="#ffffff" d="M 386.5,2.5 C 395.124,0.484833 398.457,3.81817 396.5,12.5C 398.829,21.5046 395.495,24.838 386.5,22.5C 386.5,15.8333 386.5,9.16667 386.5,2.5 Z M 389.5,6.5 C 390.5,6.5 391.5,6.5 392.5,6.5C 392.5,10.8333 392.5,15.1667 392.5,19.5C 391.5,19.5 390.5,19.5 389.5,19.5C 389.5,15.1667 389.5,10.8333 389.5,6.5 Z"/></g>
</svg>
