<svg width="507.99" height="340" xmlns="http://www.w3.org/2000/svg"><path fill="#fff" style="stroke-width:.577211" d="M0 0h507.99v340H0z"/><path d="M0 0v96.22c.7 15.11 1.77 30.34 4.72 45.21 4.72 24.56 13.81 48.88 30 68.24 14.88 18.3 35.66 31.28 58.09 38.6a150.81 150.81 0 0 0 76.27 5.79 129.91 129.91 0 0 0 57.14-26.21c22-17.59 37.42-42.74 44.27-69.89l-60.8 11.92c.71-20.19 1.3-41 1.54-61.15 22.78-5.08 45.09-14.64 62.45-30.58 13.1-11.92 22.78-28.09 25.14-45.8 6.5-1.07 13-1.77 19.37-2.84 28.09-4.72 56.07-10.15 83.46-18.18a356 356 0 0 1 14.17 40.85 224.3 224.3 0 0 1 7.55 42.38c2.72 53.72-14.52 108.26-47.93 150.29a218.79 218.79 0 0 1-57.14 50.64c-32.46 19.95-70.12 31.17-108 33.29a177.08 177.08 0 0 1-49.93-3.18c-22.32-4.61-43.69-13.11-63.87-23.5-7.09-3.77-14.29-7.43-20.78-12-19.83-13.69-38.49-29.87-52.65-49.46-8.74-11.93-15.59-24.91-21.49-38.49-.35-.83-.71-1.65-1.06-2.36V340h507.47V0z" fill="#ff3801"/></svg>