<?xml version="1.0" encoding="UTF-8" standalone="no"?>
<svg
   xmlns:dc="http://purl.org/dc/elements/1.1/"
   xmlns:cc="http://creativecommons.org/ns#"
   xmlns:rdf="http://www.w3.org/1999/02/22-rdf-syntax-ns#"
   xmlns:svg="http://www.w3.org/2000/svg"
   xmlns="http://www.w3.org/2000/svg"
   xmlns:sodipodi="http://sodipodi.sourceforge.net/DTD/sodipodi-0.dtd"
   xmlns:inkscape="http://www.inkscape.org/namespaces/inkscape"
   width="980.00031"
   height="150.0002"
   viewBox="0 0 980.00031 150.0002"
   version="1.1"
   id="svg6"
   sodipodi:docname="logo.svg"
   inkscape:version="1.0.2-2 (e86c870879, 2021-01-15)">
  <metadata
     id="metadata12">
    <rdf:RDF>
      <cc:Work
         rdf:about="">
        <dc:format>image/svg+xml</dc:format>
        <dc:type
           rdf:resource="http://purl.org/dc/dcmitype/StillImage" />
        <dc:title>k1c-logo-white</dc:title>
      </cc:Work>
    </rdf:RDF>
  </metadata>
  <defs
     id="defs10" />
  <sodipodi:namedview
     pagecolor="#ffffff"
     bordercolor="#666666"
     borderopacity="1"
     objecttolerance="10"
     gridtolerance="10"
     guidetolerance="10"
     inkscape:pageopacity="0"
     inkscape:pageshadow="2"
     inkscape:window-width="1920"
     inkscape:window-height="1001"
     id="namedview8"
     showgrid="false"
     inkscape:zoom="0.60939292"
     inkscape:cx="345.3371"
     inkscape:cy="336.86291"
     inkscape:window-x="-9"
     inkscape:window-y="-9"
     inkscape:window-maximized="1"
     inkscape:current-layer="k1c-logo-white" />
  <title
     id="title2">k1c-logo-white</title>
  <g
     id="k1c-logo-white"
     stroke="none"
     stroke-width="1"
     fill="none"
     fill-rule="evenodd">
    <path
       d="m 219.2977,1.0728 c 0.479,0 0.54801,0.115 0.54801,0.564 -0.012,48.708 -0.012,97.416 0,146.125 0,0.453 -0.074,0.562 -0.55001,0.562 -72.905,-0.014 -145.811,-0.014 -218.717,0 -0.498,0 -0.579,-0.12 -0.579,-0.59 0.014,-19.995 0.012,-39.99 0.012,-59.984 0.21,0.103 0.232,0.33 0.315,0.508 0.556,1.191 1.089,2.391 1.643,3.582 3.344,7.184 7.527,13.83 12.927,19.648 8.316,8.963 17.884,16.26 28.935,21.581 7.778,3.746 15.762,6.881 24.203,8.79 5.285,1.195 10.63,1.838 16.045,1.863 5.522,0.025 11.013,-0.414 16.474,-1.231 7.544,-1.13 14.875,-3.069 21.975,-5.859 11.483,-4.512 21.738,-10.976 30.717,-19.449 8.209,-7.747 14.847,-16.668 19.86,-26.779 5.993,-12.085 9.354,-24.871 10.133,-38.346 0.419,-7.244 -0.12,-14.398 -1.592,-21.498 -1.723,-8.308 -4.416,-16.306 -7.593,-24.155 -0.13,-0.323 -0.24,-0.418 -0.612,-0.312 -2.105,0.6 -4.213,1.189 -6.334,1.73 -6.96,1.776 -13.985,3.257 -21.052,4.538 -2.998,0.544 -6.002,1.068 -9.009,1.557 -2.351,0.382 -4.714,0.69 -7.069,1.049 -0.295,0.045 -0.648,-0.031 -0.726,0.508 -0.701,4.8 -2.552,9.152 -5.303,13.122 -3.884,5.603 -9.053,9.749 -14.958,13.036 -5.364,2.986 -11.095,5 -17.062,6.369 -0.458,0.105 -0.551,0.288 -0.553,0.717 -0.034,5.209 -0.156,10.416 -0.316,15.623 -0.1,3.261 -0.179,6.522 -0.288,9.783 -0.014,0.426 0.093,0.53 0.504,0.43 l 0.576333,-0.125296 v 0 L 93.0127,74.2138 v 0 c 7.832,-1.54 15.664,-3.077 23.493,-4.628 0.516,-0.102 0.557,0.01 0.432,0.491 -1.291,4.928 -3.195,9.604 -5.723,14.024 -4.716,8.243 -11.076,14.896 -19.215,19.823 -5.81,3.516 -12.071,5.871 -18.725,7.175 -6.993,1.37 -14.028,1.45 -21.066,0.427 -6.884,-1 -13.488,-2.978 -19.747,-6.036 -7.597,-3.711 -14.032,-8.846 -19.085,-15.666 -4.41,-5.952 -7.396,-12.587 -9.468,-19.66 -2.23,-7.616 -3.243,-15.427 -3.684,-23.327 -0.046,-0.826 0,-1.664 -0.213,-2.476 0,-14.252 0.002,-28.504 -0.012,-42.755 0,-0.421 0.086,-0.531 0.524,-0.531 72.925,0.012 145.849,0.012 218.774,-0.002 z"
       id="path840"
       style="fill:#ff5b32;fill-opacity:1" />
    <path
       d="m 304.5914,1e-4 c 22.207,0 36.872,9.218 36.872,31.006 v 26.815 h -24.302 v -23.045 c 0,-10.265 -5.028,-13.407 -12.779,-13.407 -7.752,0 -12.78,3.142 -12.78,13.407 v 80.447 c 0,10.266 5.028,13.408 12.78,13.408 7.751,0 12.779,-3.142 12.779,-13.408 v -26.605 h 24.302 v 30.376 c 0,22.626 -14.665,31.006 -36.872,31.006 h -0.419 c -22.207,0 -36.871,-8.171 -36.871,-31.006 v -87.988 c 0,-21.788 14.664,-31.006 36.871,-31.006 z"
       id="path841"
       style="fill:#ff5b32;fill-opacity:1" />
    <path
       d="m 395.5093,1.6767 v 124.859 h 37.5 v 21.788 h -61.801 V 1.6767 Z"
       id="path842"
       style="fill:#ff5b32;fill-opacity:1" />
    <path
       id="path843"
       style="fill:#ff5b32;fill-opacity:1"
       d="M 474.90625,1.6777344 447.67383,148.32422 h 23.46289 l 5.23633,-32.68164 h 26.8164 l 5.23828,32.68164 h 24.72071 L 505.49414,1.6777344 Z m 14.875,28.6992186 10.26563,65.154297 h -20.5293 z" />
    <path
       d="m 586.99,3e-4 c 20.112,0 36.034,8.38 36.034,30.168 v 23.882 h -23.883 v -20.531 c 0,-9.218 -5.238,-12.57 -12.36,-12.57 -7.123,0 -12.361,3.352 -12.361,12.57 v 10.056 c 0,7.542 2.514,10.894 9.428,14.874 l 17.179,9.637 c 14.035,7.962 22.416,14.455 22.416,30.168 v 21.159 c 0,22.625 -14.037,30.587 -36.243,30.587 h -0.419 c -22.207,0 -36.244,-7.752 -36.244,-30.587 v -25.559 h 23.883 v 22.207 c 0,9.009 5.238,12.989 12.57,12.989 7.333,0 12.57,-3.98 12.57,-12.989 v -11.522 c 0,-7.542 -2.304,-11.313 -9.637,-15.294 l -16.969,-9.636 c -14.246,-8.171 -22.417,-14.874 -22.417,-30.168 v -19.273 c 0,-21.788 15.922,-30.168 36.034,-30.168 z"
       id="path844"
       style="fill:#ff5b32;fill-opacity:1" />
    <path
       d="m 685.0341,3e-4 c 20.112,0 36.034,8.38 36.034,30.168 v 23.882 h -23.883 v -20.531 c 0,-9.218 -5.238,-12.57 -12.36,-12.57 -7.123,0 -12.361,3.352 -12.361,12.57 v 10.056 c 0,7.542 2.514,10.894 9.428,14.874 l 17.179,9.637 c 14.035,7.962 22.416,14.455 22.416,30.168 v 21.159 c 0,22.625 -14.037,30.587 -36.243,30.587 h -0.419 c -22.207,0 -36.244,-7.752 -36.244,-30.587 v -25.559 h 23.883 v 22.207 c 0,9.009 5.238,12.989 12.57,12.989 7.333,0 12.57,-3.98 12.57,-12.989 v -11.522 c 0,-7.542 -2.304,-11.313 -9.637,-15.294 l -16.969,-9.636 c -14.246,-8.171 -22.417,-14.874 -22.417,-30.168 v -19.273 c 0,-21.788 15.923,-30.168 36.034,-30.168 z"
       id="path845"
       style="fill:#ff5b32;fill-opacity:1" />
    <path
       d="M 774.698,1.676 V 148.323 H 750.396 V 1.676 Z"
       id="path846"
       style="fill:#ff5b32;fill-opacity:1" />
    <path
       d="m 843.411,1e-4 c 22.207,0 36.872,9.218 36.872,31.006 v 26.815 h -24.302 v -23.045 c 0,-10.265 -5.028,-13.407 -12.779,-13.407 -7.751,0 -12.779,3.142 -12.779,13.407 v 80.447 c 0,10.266 5.028,13.408 12.779,13.408 7.751,0 12.779,-3.142 12.779,-13.408 v -26.605 h 24.302 v 30.376 c 0,22.626 -14.665,31.006 -36.872,31.006 h -0.418 c -22.208,0 -36.872,-8.171 -36.872,-31.006 v -87.988 c 0,-21.788 14.664,-31.006 36.872,-31.006 z"
       id="path847"
       style="fill:#ff5b32;fill-opacity:1" />
    <path
       d="m 943.548,3e-4 c 20.111,0 36.033,8.38 36.033,30.168 v 23.882 h -23.882 v -20.531 c 0,-9.218 -5.238,-12.57 -12.36,-12.57 -7.124,0 -12.361,3.352 -12.361,12.57 v 10.056 c 0,7.542 2.514,10.894 9.428,14.874 l 17.178,9.637 C 971.62,76.0483 980,82.5413 980,98.2543 v 21.159 c 0,22.625 -14.036,30.587 -36.243,30.587 h -0.418 c -22.207,0 -36.244,-7.752 -36.244,-30.587 v -25.559 h 23.883 v 22.207 c 0,9.009 5.237,12.989 12.57,12.989 7.332,0 12.569,-3.98 12.569,-12.989 v -11.522 c 0,-7.542 -2.304,-11.313 -9.636,-15.294 l -16.969,-9.636 c -14.247,-8.171 -22.417,-14.874 -22.417,-30.168 v -19.273 c 0,-21.788 15.922,-30.168 36.034,-30.168 z"
       id="path848"
       style="fill:#ff5b32;fill-opacity:1" />
  </g>
</svg>
