<?xml version="1.0" encoding="UTF-8"?>
<!DOCTYPE svg PUBLIC "-//W3C//DTD SVG 1.1//EN" "http://www.w3.org/Graphics/SVG/1.1/DTD/svg11.dtd">
<svg xmlns="http://www.w3.org/2000/svg" version="1.1" width="266px" height="64px" style="shape-rendering:geometricPrecision; text-rendering:geometricPrecision; image-rendering:optimizeQuality; fill-rule:evenodd; clip-rule:evenodd" xmlns:xlink="http://www.w3.org/1999/xlink">
<g><path style="opacity:1" fill="#ffffff" d="M 2.5,2.5 C 5.44753,2.22288 8.28086,2.55621 11,3.5C 11.6563,8.99527 11.9897,14.3286 12,19.5C 13.8932,14.7133 16.0598,10.0466 18.5,5.5C 22.0698,5.0914 25.7365,5.0914 29.5,5.5C 29.4506,8.0991 28.4506,10.2658 26.5,12C 26.8333,12.3333 27.1667,12.6667 27.5,13C 24.1788,17.7731 21.5121,22.9398 19.5,28.5C 22.9637,38.0907 26.9637,47.4241 31.5,56.5C 31.2907,57.086 30.9574,57.586 30.5,58C 27.443,58.2565 24.443,58.7565 21.5,59.5C 18.3771,53.6283 15.5437,47.6283 13,41.5C 11.2349,47.3022 11.0682,53.1356 12.5,59C 9.4437,61.6428 6.11037,62.4762 2.5,61.5C 2.5,41.8333 2.5,22.1667 2.5,2.5 Z"/></g>
<g><path style="opacity:1" fill="#ffffff" d="M 214.5,2.5 C 217.167,2.5 219.833,2.5 222.5,2.5C 222.5,6.5 222.5,10.5 222.5,14.5C 219.801,14.4661 217.301,15.1328 215,16.5C 214.5,31.1629 214.333,45.8295 214.5,60.5C 211.14,60.3841 207.807,60.0508 204.5,59.5C 204.667,45.1628 204.5,30.8295 204,16.5C 201.602,17.0997 198.935,17.0997 196,16.5C 195.333,13.5 195.333,10.5 196,7.5C 196.839,6.37586 198.006,5.70919 199.5,5.5C 204.698,4.80482 209.698,3.80482 214.5,2.5 Z"/></g>
<g><path style="opacity:1" fill="#ffffff" d="M 228.5,2.5 C 230.716,2.27459 232.383,3.10793 233.5,5C 232.556,7.71914 232.223,10.5525 232.5,13.5C 234.833,13.5 237.167,13.5 239.5,13.5C 239.073,9.99566 239.073,6.329 239.5,2.5C 240.833,2.5 242.167,2.5 243.5,2.5C 243.5,11.1667 243.5,19.8333 243.5,28.5C 242.167,28.5 240.833,28.5 239.5,28.5C 238.895,24.9817 238.895,21.315 239.5,17.5C 237.167,17.5 234.833,17.5 232.5,17.5C 232.5,21.1667 232.5,24.8333 232.5,28.5C 230.284,28.7254 228.617,27.8921 227.5,26C 227.784,18.3047 228.117,10.4714 228.5,2.5 Z"/></g>
<g><path style="opacity:1" fill="#ffffff" d="M 247.5,2.5 C 258.89,-0.595245 263.89,3.57142 262.5,15C 263.872,26.3387 258.872,30.8387 247.5,28.5C 247.5,19.8333 247.5,11.1667 247.5,2.5 Z M 252.5,6.5 C 254.467,6.26057 256.301,6.59391 258,7.5C 258.667,12.5 258.667,17.5 258,22.5C 256.556,24.1554 254.722,24.822 252.5,24.5C 252.5,18.5 252.5,12.5 252.5,6.5 Z"/></g>
<g><path style="opacity:1" fill="#ffffff" d="M 32.5,6.5 C 35.8599,6.61587 39.1933,6.9492 42.5,7.5C 42.5,23.8333 42.5,40.1667 42.5,56.5C 39.2139,57.2071 35.8806,57.5405 32.5,57.5C 32.5,40.5 32.5,23.5 32.5,6.5 Z"/></g>
<g><path style="opacity:1" fill="#ffffff" d="M 186.5,6.5 C 187.5,6.5 188.5,6.5 189.5,6.5C 190.796,20.187 190.796,33.3537 189.5,46C 193.848,46.4645 198.181,46.9645 202.5,47.5C 202.5,51.1667 202.5,54.8333 202.5,58.5C 194.798,58.2091 187.131,57.5425 179.5,56.5C 179.5,40.1667 179.5,23.8333 179.5,7.5C 182.059,7.80155 184.393,7.46822 186.5,6.5 Z"/></g>
<g><path style="opacity:1" fill="#ffffff" d="M 46.5,7.5 C 49.5224,7.98082 52.5224,8.64748 55.5,9.5C 58.8223,16.2998 61.6556,23.2998 64,30.5C 64.4996,23.5079 64.6663,16.5079 64.5,9.5C 67.8806,9.45954 71.2139,9.79287 74.5,10.5C 74.6666,24.8372 74.4999,39.1705 74,53.5C 70.6667,54.8333 67.3333,54.8333 64,53.5C 61.2401,47.595 58.5734,41.2617 56,34.5C 55.5602,40.9073 55.7269,47.074 56.5,53C 56.0426,53.414 55.7093,53.914 55.5,54.5C 52.4035,55.4674 49.5701,56.1341 47,56.5C 45.8462,48.4917 45.3462,40.3251 45.5,32C 45.5146,23.7578 45.8479,15.5911 46.5,7.5 Z"/></g>
<g><path style="opacity:1" fill="#ffffff" d="M 106.5,24.5 C 105.821,20.1429 105.321,15.8096 105,11.5C 105.333,11.1667 105.667,10.8333 106,10.5C 108.8,11.1253 111.634,11.792 114.5,12.5C 116.319,21.0974 117.819,29.764 119,38.5C 120.31,29.4519 121.81,20.4519 123.5,11.5C 127.106,11.2108 130.606,11.5442 134,12.5C 135.394,19.8644 136.894,27.1977 138.5,34.5C 139.938,26.5903 141.604,18.757 143.5,11C 154.809,9.77482 166.143,8.94148 177.5,8.5C 177.5,11.8333 177.5,15.1667 177.5,18.5C 172.768,18.3776 168.102,18.8776 163.5,20C 164.833,22 164.833,24 163.5,26C 167.5,26.3333 171.5,26.6667 175.5,27C 176.833,30 176.833,33 175.5,36C 171.3,36.584 167.3,36.9173 163.5,37C 164.833,39.3333 164.833,41.6667 163.5,44C 168.066,45.3092 172.733,45.8092 177.5,45.5C 177.998,48.6741 177.998,52.0075 177.5,55.5C 169.544,55.7062 161.711,55.0395 154,53.5C 153.667,39.8333 153.333,26.1667 153,12.5C 149.605,26.0517 146.605,39.385 144,52.5C 140.545,53.7914 137.045,53.7914 133.5,52.5C 131.527,45.608 130.027,38.608 129,31.5C 127.653,38.5525 126.153,45.5525 124.5,52.5C 120.833,52.5 117.167,52.5 113.5,52.5C 111.768,42.9065 109.435,33.5732 106.5,24.5 Z"/></g>
<g><path style="opacity:1" fill="#ffffff" d="M 106.5,24.5 C 105.402,29.3828 105.402,34.2161 106.5,39C 104.037,50.4625 97.0366,55.1291 85.5,53C 80.9014,51.4019 78.0681,48.2353 77,43.5C 76.3333,35.8333 76.3333,28.1667 77,20.5C 80.5375,11.6488 87.0375,8.48214 96.5,11C 102.014,13.9968 105.347,18.4968 106.5,24.5 Z M 88.5,19.5 C 93.2667,18.5974 95.6001,20.5974 95.5,25.5C 95.3229,30.0573 95.3229,34.5573 95.5,39C 94.9919,43.5795 92.6586,45.0795 88.5,43.5C 87.2298,35.4725 87.2298,27.4725 88.5,19.5 Z"/></g>
</svg>
