<svg width="4930.078" height="1337.58" xml:space="preserve" style="clip-rule:evenodd;fill-rule:evenodd;stroke-linejoin:round;stroke-miterlimit:2" xmlns="http://www.w3.org/2000/svg">
<path d="M4930.078 257.968c-74.083 7.825-111.166 11.591-185.291 18.824v1030.15c-79.042-12.55-118.542-18.55-197.667-30.012v-981.7c-74.208 6.612-111.333 9.766-185.583 15.783V86.351A22502.923 22502.923 0 0 0 4930.078.009v257.963zm-461.75 777.516v230.238a13223.203 13223.203 0 0 0-474.566-58.23c-.01-359.133-.01-718.266 0-1077.39 77.079-8.175 115.612-12.525 192.65-21.738v904.717c112.829 8.279 169.208 12.762 281.916 22.408zm-551.712-40.662v204.695a13151.678 13151.678 0 0 0-503.871-41.92V180.001a13164.82 13164.82 0 0 0 490.292-40.554V343.63c-118.896 7.287-178.371 10.55-297.359 16.337v208.292c108.121-1.708 162.171-2.667 270.221-4.783v195.621c-108.05-1.813-162.1-2.63-270.221-4.1v222.658c124.417 6.042 186.617 9.475 310.942 17.167zm-549.421-811.909c-70.179 320.3-141.462 640.338-214.762 959.946-81.567-3.887-122.363-5.537-203.95-8.275-27.196-125.467-40.796-187.846-67.992-312.104-23.121-100.896-39.442-227.704-44.871-302.975-2.179.013-3.271.021-5.446.037-5.441 75.346-21.758 202.155-44.875 302.138-27.196 123.15-40.796 184.508-67.991 307.025-81.605-1.429-122.409-1.858-204.017-2.129-71.684-305.467-143.421-610.925-214.888-916.446 79.975.921 119.954 1.108 199.934.921 29.921 173.1 44.875 259.608 74.8 432.891 10.883 66.746 29.92 179.384 39.445 255.405 2.176.008 3.267.016 5.442.025 9.517-75.925 28.546-188.588 39.429-255.475 29.925-168.409 44.884-252.759 74.809-422.125 80.512-1.45 120.758-2.446 201.262-4.984 29.913 169.771 44.867 255.017 74.783 426.617 10.88 68.167 29.913 183.483 39.438 261.471 2.171.042 3.262.062 5.438.112 9.52-77.637 28.545-193.054 39.424-261.77 29.913-178.367 44.867-268.134 74.78-449.201 79.933-3.891 119.895-6.108 199.808-11.104zm-1272.17 648.409V506.288c0-87.208-36.721-133.966-108.788-135.487-72.066-1.534-108.77 44.387-108.77 132.958v330.1c0 88.567 36.704 134.488 108.77 132.954 72.067-1.525 108.792-48.283 108.788-135.491zm-417.392 5.887V500.413c-8.166-182.296 128.363-320.245 308.609-313.225 174.779 6.805 315.104 138.717 308.695 320.417v322.413c6.409 181.691-133.929 313.57-308.695 320.383-180.238 7.021-316.775-130.9-308.609-313.192zm-87.995-652.654c-.01 322.829-.01 645.654 0 968.475-76.105 4.625-114.146 7.183-190.225 12.804-64.134-149.192-96.188-225.308-160.292-381.958-34.225-98.963-51.329-149.121-85.55-251.038-1.629 1.734-2.45 2.6-4.079 4.342 14.933 130.5 24.441 323.087 24.445 437.954v209.121c-76.041 6.804-114.049 10.463-190.054 18.271-.004-355.817-.004-711.638 0-1067.45 76.005 7.816 114.013 11.466 190.054 18.279 58.421 150.558 118.692 300.546 180.634 449.692 23.096 63.141 44.837 128.466 67.921 190.312 1.629-1.725 2.45-2.583 4.083-4.312-16.308-124.18-27.167-294.905-27.167-387.205V171.767c76.079 5.621 114.12 8.179 190.225 12.792zM885.95 124.672c-.004 362.75-.004 725.504 0 1088.25-77.063 8.454-115.592 12.929-192.608 22.412V102.254c77.016 9.488 115.545 13.963 192.608 22.413zM242.142 821.613c-21.117 46.1-31.671 69.434-52.78 116.755v367.92C113.583 1318.305 75.712 1324.563 0 1337.58V0c75.712 13.017 113.583 19.275 189.362 31.296V519.45c19.484-56.113 29.238-83.821 48.725-138.583 53.051-133.013 79.584-197.271 132.663-321.975 87.758 12.791 131.658 18.85 219.492 30.3-82.963 166.591-162.996 333.621-241.15 502.533 90.262 218.829 182.583 436.475 281.812 651.421-86.758 11.062-130.116 16.917-216.804 29.292-59.625-149.3-116.975-299.763-171.958-450.83z" style="fill:#fff;fill-rule:nonzero"/>
</svg>