<?xml version="1.0" encoding="UTF-8"?>
<!DOCTYPE svg PUBLIC "-//W3C//DTD SVG 1.1//EN" "http://www.w3.org/Graphics/SVG/1.1/DTD/svg11.dtd">
<svg xmlns="http://www.w3.org/2000/svg" version="1.1" width="532px" height="120px" style="shape-rendering:geometricPrecision; text-rendering:geometricPrecision; image-rendering:optimizeQuality; fill-rule:evenodd; clip-rule:evenodd" xmlns:xlink="http://www.w3.org/1999/xlink">
<g><path style="opacity:1" fill="#fe1b25" d="M 213.5,55.5 C 212.563,59.9103 213.063,64.2436 215,68.5C 217.822,77.4544 220.489,86.4544 223,95.5C 224.626,96.9555 225.792,98.6221 226.5,100.5C 217.859,101.832 208.859,102.498 199.5,102.5C 190.141,102.498 181.141,101.832 172.5,100.5C 173.458,100.047 174.292,99.3805 175,98.5C 178.667,86.1667 182.333,73.8333 186,61.5C 186.49,59.4546 186.323,57.4546 185.5,55.5C 189.996,41.211 194.662,26.8777 199.5,12.5C 204.197,26.9212 208.863,41.2545 213.5,55.5 Z"/></g>
<g><path style="opacity:1" fill="#ffffff" d="M 16.5,16.5 C 22.8333,16.5 29.1667,16.5 35.5,16.5C 35.5,30.5 35.5,44.5 35.5,58.5C 41.1764,58.6661 46.8431,58.4994 52.5,58C 53.3333,57.1667 54.1667,56.3333 55,55.5C 57.0578,42.5824 58.2245,29.5824 58.5,16.5C 65.1667,16.5 71.8333,16.5 78.5,16.5C 77.3088,28.8156 76.1421,41.1489 75,53.5C 74.2971,58.7382 72.1304,63.2382 68.5,67C 73.2052,71.0941 76.0385,76.2607 77,82.5C 78.0897,89.1417 78.9231,95.8084 79.5,102.5C 73.1318,102.83 66.7985,102.496 60.5,101.5C 59.6022,95.5302 58.7689,89.5302 58,83.5C 57.7265,81.6711 56.8932,80.1711 55.5,79C 48.9504,77.5796 42.2837,77.0796 35.5,77.5C 35.5,85.8333 35.5,94.1667 35.5,102.5C 29.1667,102.5 22.8333,102.5 16.5,102.5C 16.5,73.8333 16.5,45.1667 16.5,16.5 Z"/></g>
<g><path style="opacity:1" fill="#ffffff" d="M 87.5,16.5 C 100.837,16.3334 114.171,16.5001 127.5,17C 138.019,18.1479 144.852,23.6479 148,33.5C 148.667,40.1667 148.667,46.8333 148,53.5C 146.65,58.1849 143.817,61.6849 139.5,64C 142.106,65.9384 143.939,68.4384 145,71.5C 147.564,81.6795 149.064,92.0128 149.5,102.5C 143.158,102.666 136.825,102.5 130.5,102C 129.279,92.0724 127.445,82.2391 125,72.5C 119.006,70.7247 112.839,70.058 106.5,70.5C 106.5,81.1667 106.5,91.8333 106.5,102.5C 100.167,102.5 93.8333,102.5 87.5,102.5C 87.5,73.8333 87.5,45.1667 87.5,16.5 Z M 106.5,35.5 C 113.23,35.2264 119.897,35.7264 126.5,37C 129.36,40.6814 130.193,44.8481 129,49.5C 128.5,51.3333 127.333,52.5 125.5,53C 119.222,54.1881 112.888,54.6881 106.5,54.5C 106.5,48.1667 106.5,41.8333 106.5,35.5 Z"/></g>
<g><path style="opacity:1" fill="#ffffff" d="M 271.5,16.5 C 280.32,15.9706 288.987,16.8039 297.5,19C 304.256,22.0885 308.423,27.2552 310,34.5C 312,51.1667 312,67.8333 310,84.5C 305.098,98.2151 295.264,104.215 280.5,102.5C 262.164,103.936 251.997,95.6031 250,77.5C 249.333,65.5 249.333,53.5 250,41.5C 250.674,27.3407 257.84,19.0073 271.5,16.5 Z M 277.5,35.5 C 281.702,35.3839 285.702,36.2173 289.5,38C 290.863,39.9449 291.697,42.1116 292,44.5C 292.667,54.5 292.667,64.5 292,74.5C 291.883,77.9115 290.383,80.4115 287.5,82C 282.833,82.6667 278.167,82.6667 273.5,82C 271.667,81.5 270.5,80.3333 270,78.5C 269.333,65.8333 269.333,53.1667 270,40.5C 270.374,39.5838 270.874,38.7504 271.5,38C 273.611,37.1553 275.611,36.322 277.5,35.5 Z"/></g>
<g><path style="opacity:1" fill="#ffffff" d="M 320.5,16.5 C 326.758,16.1903 332.924,16.5236 339,17.5C 346.413,31.3284 354.08,44.9951 362,58.5C 362.5,44.504 362.667,30.504 362.5,16.5C 368.833,16.5 375.167,16.5 381.5,16.5C 381.5,45.1667 381.5,73.8333 381.5,102.5C 375.463,102.829 369.463,102.496 363.5,101.5C 355.92,87.3384 348.087,73.3384 340,59.5C 339.5,73.8295 339.333,88.1628 339.5,102.5C 333.167,102.5 326.833,102.5 320.5,102.5C 320.5,73.8333 320.5,45.1667 320.5,16.5 Z"/></g>
<g><path style="opacity:1" fill="#ffffff" d="M 391.5,16.5 C 412.167,16.5 432.833,16.5 453.5,16.5C 453.5,22.8333 453.5,29.1667 453.5,35.5C 439.167,35.5 424.833,35.5 410.5,35.5C 410.5,41.1667 410.5,46.8333 410.5,52.5C 422.833,52.5 435.167,52.5 447.5,52.5C 447.5,59.1667 447.5,65.8333 447.5,72.5C 435.167,72.5 422.833,72.5 410.5,72.5C 410.5,75.8333 410.5,79.1667 410.5,82.5C 424.504,82.3334 438.504,82.5001 452.5,83C 453.478,89.4102 453.811,95.9102 453.5,102.5C 432.833,102.5 412.167,102.5 391.5,102.5C 391.5,73.8333 391.5,45.1667 391.5,16.5 Z"/></g>
<g><path style="opacity:1" fill="#ffffff" d="M 465.5,16.5 C 475.855,16.1681 486.188,16.5014 496.5,17.5C 498.034,22.9831 499.867,28.3165 502,33.5C 503.66,27.8576 505.16,22.1909 506.5,16.5C 509.833,16.5 513.167,16.5 516.5,16.5C 513.481,28.575 510.148,40.575 506.5,52.5C 503.167,53.8333 499.833,53.8333 496.5,52.5C 493.852,43.9072 491.519,35.2405 489.5,26.5C 487.833,26.5 486.167,26.5 484.5,26.5C 484.5,35.5 484.5,44.5 484.5,53.5C 481.5,53.5 478.5,53.5 475.5,53.5C 475.5,44.5 475.5,35.5 475.5,26.5C 472.167,26.5 468.833,26.5 465.5,26.5C 465.5,23.1667 465.5,19.8333 465.5,16.5 Z"/></g>
<g><path style="opacity:1" fill="#c70d1f" d="M 185.5,55.5 C 186.323,57.4546 186.49,59.4546 186,61.5C 182.333,73.8333 178.667,86.1667 175,98.5C 174.292,99.3805 173.458,100.047 172.5,100.5C 167.244,73.2176 162.244,45.8842 157.5,18.5C 158.002,17.479 158.668,17.3123 159.5,18C 168.806,30.1305 177.472,42.6305 185.5,55.5 Z"/></g>
<g><path style="opacity:1" fill="#c70d1f" d="M 226.5,100.5 C 225.792,98.6221 224.626,96.9555 223,95.5C 220.489,86.4544 217.822,77.4544 215,68.5C 213.063,64.2436 212.563,59.9103 213.5,55.5C 221.323,43.862 229.157,32.1953 237,20.5C 238.113,18.6707 239.613,17.8374 241.5,18C 236.774,45.5207 231.774,73.0207 226.5,100.5 Z"/></g>
</svg>
