<?xml version="1.0" encoding="UTF-8"?>
<!DOCTYPE svg PUBLIC "-//W3C//DTD SVG 1.1//EN" "http://www.w3.org/Graphics/SVG/1.1/DTD/svg11.dtd">
<svg xmlns="http://www.w3.org/2000/svg" version="1.1" width="300px" height="101px" style="shape-rendering:geometricPrecision; text-rendering:geometricPrecision; image-rendering:optimizeQuality; fill-rule:evenodd; clip-rule:evenodd" xmlns:xlink="http://www.w3.org/1999/xlink">
<g><path style="opacity:0.765" fill="#0a9aa3" d="M -0.5,-0.5 C 99.5,-0.5 199.5,-0.5 299.5,-0.5C 299.5,6.5 299.5,13.5 299.5,20.5C 298.833,20.5 298.167,20.5 297.5,20.5C 297.5,14.1667 297.5,7.83333 297.5,1.5C 255.167,1.5 212.833,1.5 170.5,1.5C 170.5,7.83333 170.5,14.1667 170.5,20.5C 170.167,20.5 169.833,20.5 169.5,20.5C 169.5,17.5 169.5,14.5 169.5,11.5C 169.5,8.5 169.5,5.5 169.5,2.5C 112.833,2.5 56.1667,2.5 -0.5,2.5C -0.5,1.5 -0.5,0.5 -0.5,-0.5 Z"/></g>
<g><path style="opacity:1" fill="#fdfefe" d="M 297.5,20.5 C 297.5,29.8333 297.5,39.1667 297.5,48.5C 297.5,65.1667 297.5,81.8333 297.5,98.5C 255.167,98.5 212.833,98.5 170.5,98.5C 170.5,79.8333 170.5,61.1667 170.5,42.5C 170.5,35.1667 170.5,27.8333 170.5,20.5C 170.5,14.1667 170.5,7.83333 170.5,1.5C 212.833,1.5 255.167,1.5 297.5,1.5C 297.5,7.83333 297.5,14.1667 297.5,20.5 Z"/></g>
<g><path style="opacity:0.998" fill="#008e9a" d="M -0.5,2.5 C 56.1667,2.5 112.833,2.5 169.5,2.5C 169.5,5.5 169.5,8.5 169.5,11.5C 112.833,11.5 56.1667,11.5 -0.5,11.5C -0.5,8.5 -0.5,5.5 -0.5,2.5 Z"/></g>
<g><path style="opacity:0.998" fill="#1f8697" d="M -0.5,11.5 C 56.1667,11.5 112.833,11.5 169.5,11.5C 169.5,14.5 169.5,17.5 169.5,20.5C 169.5,22.8333 169.5,25.1667 169.5,27.5C 164.167,27.5 158.833,27.5 153.5,27.5C 153.5,26.1667 153.5,24.8333 153.5,23.5C 151.833,23.5 150.167,23.5 148.5,23.5C 149.636,17.065 147.636,15.3983 142.5,18.5C 141.548,20.0453 141.215,21.712 141.5,23.5C 140.5,23.5 139.5,23.5 138.5,23.5C 137.596,24.209 137.263,25.209 137.5,26.5C 136.5,26.5 135.5,26.5 134.5,26.5C 134.5,25.5 134.5,24.5 134.5,23.5C 131.833,23.5 129.167,23.5 126.5,23.5C 126.5,24.8333 126.5,26.1667 126.5,27.5C 124.219,27.0773 122.552,27.744 121.5,29.5C 118.181,23.2738 113.348,21.9405 107,25.5C 106.501,21.1794 106.334,16.8461 106.5,12.5C 104.167,12.5 101.833,12.5 99.5,12.5C 99.5,23.8333 99.5,35.1667 99.5,46.5C 98.5489,45.0813 98.2155,43.4147 98.5,41.5C 98.5,36.8333 98.5,32.1667 98.5,27.5C 97.5,27.5 96.5,27.5 95.5,27.5C 95.7678,25.901 95.4345,24.5676 94.5,23.5C 92.8333,23.5 91.1667,23.5 89.5,23.5C 89.5,21.5 89.5,19.5 89.5,17.5C 84.0687,16.0936 81.7353,18.0936 82.5,23.5C 81.5,23.5 80.5,23.5 79.5,23.5C 79.5,24.8333 79.5,26.1667 79.5,27.5C 78.5,27.5 77.5,27.5 76.5,27.5C 76.5,32.5 76.5,37.5 76.5,42.5C 76.7678,44.099 76.4345,45.4324 75.5,46.5C 75.5,35.1667 75.5,23.8333 75.5,12.5C 73.1667,12.5 70.8333,12.5 68.5,12.5C 68.5,15.8333 68.5,19.1667 68.5,22.5C 53.1667,22.5 37.8333,22.5 22.5,22.5C 22.5,19.1667 22.5,15.8333 22.5,12.5C 20.1667,12.5 17.8333,12.5 15.5,12.5C 15.5,23.8333 15.5,35.1667 15.5,46.5C 14.5489,45.0813 14.2155,43.4147 14.5,41.5C 14.5,39.1667 14.5,36.8333 14.5,34.5C 14.5,30.8333 14.5,27.1667 14.5,23.5C 9.5,23.5 4.5,23.5 -0.5,23.5C -0.5,19.5 -0.5,15.5 -0.5,11.5 Z"/></g>
<g><path style="opacity:1" fill="#f7f9fa" d="M 22.5,22.5 C 22.3354,25.5184 22.502,28.5184 23,31.5C 24.8333,29 26.6667,26.5 28.5,24C 31.2272,23.1816 33.8938,23.3483 36.5,24.5C 34.517,26.9837 32.3504,29.3171 30,31.5C 29.2274,33.3524 29.7274,34.6857 31.5,35.5C 33.2549,38.6803 35.2549,41.6803 37.5,44.5C 37.6107,45.1174 37.944,45.6174 38.5,46C 35.5,46.6667 32.5,46.6667 29.5,46C 27.5421,43.2518 25.7088,40.4185 24,37.5C 22.6081,40.2784 22.1081,43.2784 22.5,46.5C 20.1667,46.5 17.8333,46.5 15.5,46.5C 15.5,35.1667 15.5,23.8333 15.5,12.5C 17.8333,12.5 20.1667,12.5 22.5,12.5C 22.5,15.8333 22.5,19.1667 22.5,22.5 Z"/></g>
<g><path style="opacity:1" fill="#fbfcfc" d="M 75.5,46.5 C 73.1667,46.5 70.8333,46.5 68.5,46.5C 68.5,44.8333 68.5,43.1667 68.5,41.5C 68.5,35.1667 68.5,28.8333 68.5,22.5C 68.5,19.1667 68.5,15.8333 68.5,12.5C 70.8333,12.5 73.1667,12.5 75.5,12.5C 75.5,23.8333 75.5,35.1667 75.5,46.5 Z"/></g>
<g><path style="opacity:1" fill="#f7f9fa" d="M 121.5,29.5 C 121.5,33.5 121.5,37.5 121.5,41.5C 121.5,43.1667 121.5,44.8333 121.5,46.5C 119.167,46.5 116.833,46.5 114.5,46.5C 114.666,41.4889 114.499,36.4889 114,31.5C 111.925,29.3517 109.592,29.0183 107,30.5C 106.501,34.1516 106.335,37.8183 106.5,41.5C 106.5,43.1667 106.5,44.8333 106.5,46.5C 104.167,46.5 101.833,46.5 99.5,46.5C 99.5,35.1667 99.5,23.8333 99.5,12.5C 101.833,12.5 104.167,12.5 106.5,12.5C 106.334,16.8461 106.501,21.1794 107,25.5C 113.348,21.9405 118.181,23.2738 121.5,29.5 Z"/></g>
<g><path style="opacity:1" fill="#ecf5f6" d="M 127.5,13.5 C 134.19,12.3306 135.857,14.4973 132.5,20C 127.279,20.6099 125.612,18.4432 127.5,13.5 Z"/></g>
<g><path style="opacity:1" fill="#f4f7f9" d="M 94.5,23.5 C 94.5,25.1667 94.5,26.8333 94.5,28.5C 92.8333,28.5 91.1667,28.5 89.5,28.5C 89.185,32.3714 89.5184,36.0381 90.5,39.5C 91.287,41.1042 92.6203,41.7709 94.5,41.5C 94.5,43.1667 94.5,44.8333 94.5,46.5C 90.0028,48.3654 86.3362,47.3654 83.5,43.5C 82.6167,38.8969 82.2834,34.2303 82.5,29.5C 80.8212,29.7148 79.8212,29.0481 79.5,27.5C 79.5,26.1667 79.5,24.8333 79.5,23.5C 80.5,23.5 81.5,23.5 82.5,23.5C 81.7353,18.0936 84.0687,16.0936 89.5,17.5C 89.5,19.5 89.5,21.5 89.5,23.5C 91.1667,23.5 92.8333,23.5 94.5,23.5 Z"/></g>
<g><path style="opacity:1" fill="#f1f5f7" d="M 153.5,27.5 C 152.448,29.256 150.781,29.9227 148.5,29.5C 148.5,31.1667 148.5,32.8333 148.5,34.5C 148.5,36.5 148.5,38.5 148.5,40.5C 150.415,40.2155 152.081,40.5489 153.5,41.5C 153.562,46.984 150.895,48.8174 145.5,47C 143.616,45.9513 142.282,44.4513 141.5,42.5C 141.5,41.8333 141.5,41.1667 141.5,40.5C 141.5,36.5 141.5,32.5 141.5,28.5C 140.5,28.5 139.5,28.5 138.5,28.5C 138.5,26.8333 138.5,25.1667 138.5,23.5C 139.5,23.5 140.5,23.5 141.5,23.5C 141.215,21.712 141.548,20.0453 142.5,18.5C 147.636,15.3983 149.636,17.065 148.5,23.5C 150.167,23.5 151.833,23.5 153.5,23.5C 153.5,24.8333 153.5,26.1667 153.5,27.5 Z"/></g>
<g><path style="opacity:1" fill="#3f7690" d="M 22.5,22.5 C 37.8333,22.5 53.1667,22.5 68.5,22.5C 68.5,28.8333 68.5,35.1667 68.5,41.5C 66.8333,41.5 65.1667,41.5 63.5,41.5C 63.7845,43.4147 63.4511,45.0813 62.5,46.5C 62.5,38.8333 62.5,31.1667 62.5,23.5C 60.1667,23.5 57.8333,23.5 55.5,23.5C 55.666,28.8437 55.4994,34.1771 55,39.5C 53,42.1667 51,42.1667 49,39.5C 48.5006,34.1771 48.334,28.8437 48.5,23.5C 45.8333,23.5 43.1667,23.5 40.5,23.5C 40.5,27.1667 40.5,30.8333 40.5,34.5C 37.2869,34.19 34.2869,34.5233 31.5,35.5C 29.7274,34.6857 29.2274,33.3524 30,31.5C 32.3504,29.3171 34.517,26.9837 36.5,24.5C 33.8938,23.3483 31.2272,23.1816 28.5,24C 26.6667,26.5 24.8333,29 23,31.5C 22.502,28.5184 22.3354,25.5184 22.5,22.5 Z"/></g>
<g><path style="opacity:1" fill="#f5f7f9" d="M 62.5,46.5 C 60.5,46.5 58.5,46.5 56.5,46.5C 56.6495,45.448 56.4828,44.448 56,43.5C 51.7931,48.3784 47.2931,48.7117 42.5,44.5C 41.2132,41.302 40.5465,37.9686 40.5,34.5C 40.5,30.8333 40.5,27.1667 40.5,23.5C 43.1667,23.5 45.8333,23.5 48.5,23.5C 48.334,28.8437 48.5006,34.1771 49,39.5C 51,42.1667 53,42.1667 55,39.5C 55.4994,34.1771 55.666,28.8437 55.5,23.5C 57.8333,23.5 60.1667,23.5 62.5,23.5C 62.5,31.1667 62.5,38.8333 62.5,46.5 Z"/></g>
<g><path style="opacity:1" fill="#edf1f4" d="M 134.5,26.5 C 134.5,31.5 134.5,36.5 134.5,41.5C 134.5,43.1667 134.5,44.8333 134.5,46.5C 131.833,46.5 129.167,46.5 126.5,46.5C 126.5,44.8333 126.5,43.1667 126.5,41.5C 126.5,36.8333 126.5,32.1667 126.5,27.5C 126.5,26.1667 126.5,24.8333 126.5,23.5C 129.167,23.5 131.833,23.5 134.5,23.5C 134.5,24.5 134.5,25.5 134.5,26.5 Z"/></g>
<g><path style="opacity:0.983" fill="#3c738e" d="M -0.5,23.5 C 4.5,23.5 9.5,23.5 14.5,23.5C 14.5,27.1667 14.5,30.8333 14.5,34.5C 9.5,34.5 4.5,34.5 -0.5,34.5C -0.5,30.8333 -0.5,27.1667 -0.5,23.5 Z"/></g>
<g><path style="opacity:1" fill="#9cb2c3" d="M 138.5,23.5 C 138.5,25.1667 138.5,26.8333 138.5,28.5C 139.5,28.5 140.5,28.5 141.5,28.5C 141.5,32.5 141.5,36.5 141.5,40.5C 140.518,37.0381 140.185,33.3714 140.5,29.5C 139.5,29.5 138.5,29.5 137.5,29.5C 137.5,28.5 137.5,27.5 137.5,26.5C 137.263,25.209 137.596,24.209 138.5,23.5 Z"/></g>
<g><path style="opacity:1" fill="#44738f" d="M 169.5,20.5 C 169.833,20.5 170.167,20.5 170.5,20.5C 170.5,27.8333 170.5,35.1667 170.5,42.5C 169.833,42.5 169.5,42.1667 169.5,41.5C 169.5,39.1667 169.5,36.8333 169.5,34.5C 162.5,34.5 155.5,34.5 148.5,34.5C 148.5,32.8333 148.5,31.1667 148.5,29.5C 150.781,29.9227 152.448,29.256 153.5,27.5C 158.833,27.5 164.167,27.5 169.5,27.5C 169.5,25.1667 169.5,22.8333 169.5,20.5 Z"/></g>
<g><path style="opacity:0.983" fill="#42648b" d="M -0.5,34.5 C 4.5,34.5 9.5,34.5 14.5,34.5C 14.5,36.8333 14.5,39.1667 14.5,41.5C 9.5,41.5 4.5,41.5 -0.5,41.5C -0.5,39.1667 -0.5,36.8333 -0.5,34.5 Z"/></g>
<g><path style="opacity:1" fill="#466b8e" d="M 95.5,27.5 C 96.5,27.5 97.5,27.5 98.5,27.5C 98.5,32.1667 98.5,36.8333 98.5,41.5C 97.5,41.5 96.5,41.5 95.5,41.5C 95.7845,43.4147 95.4511,45.0813 94.5,46.5C 94.5,44.8333 94.5,43.1667 94.5,41.5C 92.6203,41.7709 91.287,41.1042 90.5,39.5C 90.5,36.1667 90.5,32.8333 90.5,29.5C 92.7812,29.9227 94.4479,29.256 95.5,27.5 Z"/></g>
<g><path style="opacity:1" fill="#4f7193" d="M 114.5,46.5 C 113.549,45.0813 113.216,43.4147 113.5,41.5C 111.167,41.5 108.833,41.5 106.5,41.5C 106.335,37.8183 106.501,34.1516 107,30.5C 109.592,29.0183 111.925,29.3517 114,31.5C 114.499,36.4889 114.666,41.4889 114.5,46.5 Z"/></g>
<g><path style="opacity:1" fill="#507998" d="M 297.5,20.5 C 298.167,20.5 298.833,20.5 299.5,20.5C 299.5,28.1667 299.5,35.8333 299.5,43.5C 298.833,45.1667 298.167,46.8333 297.5,48.5C 297.5,39.1667 297.5,29.8333 297.5,20.5 Z"/></g>
<g><path style="opacity:1" fill="#97afc0" d="M 94.5,23.5 C 95.4345,24.5676 95.7678,25.901 95.5,27.5C 94.4479,29.256 92.7812,29.9227 90.5,29.5C 90.5,32.8333 90.5,36.1667 90.5,39.5C 89.5184,36.0381 89.185,32.3714 89.5,28.5C 91.1667,28.5 92.8333,28.5 94.5,28.5C 94.5,26.8333 94.5,25.1667 94.5,23.5 Z"/></g>
<g><path style="opacity:1" fill="#47658e" d="M 40.5,34.5 C 40.5465,37.9686 41.2132,41.302 42.5,44.5C 40.7163,43.2801 39.0496,43.2801 37.5,44.5C 35.2549,41.6803 33.2549,38.6803 31.5,35.5C 34.2869,34.5233 37.2869,34.19 40.5,34.5 Z"/></g>
<g><path style="opacity:1" fill="#41658b" d="M 79.5,27.5 C 79.8212,29.0481 80.8212,29.7148 82.5,29.5C 82.2834,34.2303 82.6167,38.8969 83.5,43.5C 81.283,42.6314 78.9496,42.298 76.5,42.5C 76.5,37.5 76.5,32.5 76.5,27.5C 77.5,27.5 78.5,27.5 79.5,27.5 Z"/></g>
<g><path style="opacity:1" fill="#41668b" d="M 126.5,27.5 C 126.5,32.1667 126.5,36.8333 126.5,41.5C 124.833,41.5 123.167,41.5 121.5,41.5C 121.5,37.5 121.5,33.5 121.5,29.5C 122.552,27.744 124.219,27.0773 126.5,27.5 Z"/></g>
<g><path style="opacity:1" fill="#42678c" d="M 134.5,26.5 C 135.5,26.5 136.5,26.5 137.5,26.5C 137.5,27.5 137.5,28.5 137.5,29.5C 138.5,29.5 139.5,29.5 140.5,29.5C 140.185,33.3714 140.518,37.0381 141.5,40.5C 141.5,41.1667 141.5,41.8333 141.5,42.5C 139.283,41.6314 136.95,41.298 134.5,41.5C 134.5,36.5 134.5,31.5 134.5,26.5 Z"/></g>
<g><path style="opacity:1" fill="#42638b" d="M 148.5,34.5 C 155.5,34.5 162.5,34.5 169.5,34.5C 169.5,36.8333 169.5,39.1667 169.5,41.5C 164.167,41.5 158.833,41.5 153.5,41.5C 152.081,40.5489 150.415,40.2155 148.5,40.5C 148.5,38.5 148.5,36.5 148.5,34.5 Z"/></g>
<g><path style="opacity:0.998" fill="#40578e" d="M 37.5,44.5 C 39.0496,43.2801 40.7163,43.2801 42.5,44.5C 47.2931,48.7117 51.7931,48.3784 56,43.5C 56.4828,44.448 56.6495,45.448 56.5,46.5C 58.5,46.5 60.5,46.5 62.5,46.5C 63.4511,45.0813 63.7845,43.4147 63.5,41.5C 65.1667,41.5 66.8333,41.5 68.5,41.5C 68.5,43.1667 68.5,44.8333 68.5,46.5C 70.8333,46.5 73.1667,46.5 75.5,46.5C 76.4345,45.4324 76.7678,44.099 76.5,42.5C 78.9496,42.298 81.283,42.6314 83.5,43.5C 86.3362,47.3654 90.0028,48.3654 94.5,46.5C 95.4511,45.0813 95.7845,43.4147 95.5,41.5C 96.5,41.5 97.5,41.5 98.5,41.5C 98.2155,43.4147 98.5489,45.0813 99.5,46.5C 101.833,46.5 104.167,46.5 106.5,46.5C 106.5,44.8333 106.5,43.1667 106.5,41.5C 108.833,41.5 111.167,41.5 113.5,41.5C 113.216,43.4147 113.549,45.0813 114.5,46.5C 116.833,46.5 119.167,46.5 121.5,46.5C 121.5,44.8333 121.5,43.1667 121.5,41.5C 123.167,41.5 124.833,41.5 126.5,41.5C 126.5,43.1667 126.5,44.8333 126.5,46.5C 129.167,46.5 131.833,46.5 134.5,46.5C 134.5,44.8333 134.5,43.1667 134.5,41.5C 136.95,41.298 139.283,41.6314 141.5,42.5C 142.282,44.4513 143.616,45.9513 145.5,47C 150.895,48.8174 153.562,46.984 153.5,41.5C 158.833,41.5 164.167,41.5 169.5,41.5C 169.5,42.1667 169.833,42.5 170.5,42.5C 170.5,61.1667 170.5,79.8333 170.5,98.5C 169.504,83.676 169.171,68.676 169.5,53.5C 169.5,51.8333 169.5,50.1667 169.5,48.5C 112.833,48.5 56.1667,48.5 -0.5,48.5C -0.5,46.1667 -0.5,43.8333 -0.5,41.5C 4.5,41.5 9.5,41.5 14.5,41.5C 14.2155,43.4147 14.5489,45.0813 15.5,46.5C 17.8333,46.5 20.1667,46.5 22.5,46.5C 22.1081,43.2784 22.6081,40.2784 24,37.5C 25.7088,40.4185 27.5421,43.2518 29.5,46C 32.5,46.6667 35.5,46.6667 38.5,46C 37.944,45.6174 37.6107,45.1174 37.5,44.5 Z"/></g>
<g><path style="opacity:1" fill="#2c4489" d="M -0.5,48.5 C 56.1667,48.5 112.833,48.5 169.5,48.5C 169.5,50.1667 169.5,51.8333 169.5,53.5C 112.833,53.5 56.1667,53.5 -0.5,53.5C -0.5,51.8333 -0.5,50.1667 -0.5,48.5 Z"/></g>
<g><path style="opacity:0.997" fill="#253c90" d="M -0.5,53.5 C 56.1667,53.5 112.833,53.5 169.5,53.5C 169.171,68.676 169.504,83.676 170.5,98.5C 212.833,98.5 255.167,98.5 297.5,98.5C 298.167,83.5 298.833,68.5 299.5,53.5C 299.5,69.1667 299.5,84.8333 299.5,100.5C 199.5,100.5 99.5,100.5 -0.5,100.5C -0.5,84.8333 -0.5,69.1667 -0.5,53.5 Z"/></g>
<g><path style="opacity:1" fill="#f5f6f9" d="M 15.5,54.5 C 20.5111,54.3341 25.5111,54.5007 30.5,55C 39.9711,59.3259 40.9711,65.1592 33.5,72.5C 36.6994,76.6004 38.6994,81.2671 39.5,86.5C 36.9135,87.48 34.2469,87.8134 31.5,87.5C 31.2946,84.0119 30.4613,80.6786 29,77.5C 27.2111,75.771 25.0444,75.1043 22.5,75.5C 22.5,79.5 22.5,83.5 22.5,87.5C 20.1667,87.5 17.8333,87.5 15.5,87.5C 15.5,76.5 15.5,65.5 15.5,54.5 Z"/></g>
<g><path style="opacity:1" fill="#f3f4f8" d="M 51.5,55.5 C 55.1667,55.5 58.8333,55.5 62.5,55.5C 65.5,66.1667 68.5,76.8333 71.5,87.5C 68.8333,87.5 66.1667,87.5 63.5,87.5C 63.2437,85.0628 62.5771,82.7294 61.5,80.5C 58.2317,79.513 54.8984,79.1796 51.5,79.5C 51.4249,82.2062 51.0916,84.8728 50.5,87.5C 47.8333,87.5 45.1667,87.5 42.5,87.5C 45.5065,76.8164 48.5065,66.1498 51.5,55.5 Z"/></g>
<g><path style="opacity:1" fill="#f3f4f9" d="M 77.5,54.5 C 84.6921,53.9448 91.6921,54.7781 98.5,57C 105.144,61.8259 107.311,68.3259 105,76.5C 102.611,83.2927 97.7773,87.1261 90.5,88C 86.1794,88.499 81.8461,88.6657 77.5,88.5C 77.5,77.1667 77.5,65.8333 77.5,54.5 Z"/></g>
<g><path style="opacity:1" fill="#f8f8fb" d="M 118.5,55.5 C 118.5,66.1667 118.5,76.8333 118.5,87.5C 116.167,87.5 113.833,87.5 111.5,87.5C 111.5,76.8333 111.5,66.1667 111.5,55.5C 113.833,55.5 116.167,55.5 118.5,55.5 Z"/></g>
<g><path style="opacity:1" fill="#f5f6f9" d="M 135.5,54.5 C 152.146,55.1021 157.98,63.4355 153,79.5C 148.35,87.7344 141.516,90.2344 132.5,87C 128.51,85.0096 126.01,81.8429 125,77.5C 122.085,66.6747 125.585,59.008 135.5,54.5 Z"/></g>
<g><path style="opacity:1" fill="#3f549a" d="M 299.5,43.5 C 299.5,46.8333 299.5,50.1667 299.5,53.5C 298.833,68.5 298.167,83.5 297.5,98.5C 297.5,81.8333 297.5,65.1667 297.5,48.5C 298.167,46.8333 298.833,45.1667 299.5,43.5 Z"/></g>
<g><path style="opacity:1" fill="#808ebe" d="M 118.5,55.5 C 116.167,55.5 113.833,55.5 111.5,55.5C 111.5,66.1667 111.5,76.8333 111.5,87.5C 110.505,76.6794 110.172,65.6794 110.5,54.5C 113.385,54.1936 116.052,54.5269 118.5,55.5 Z"/></g>
<g><path style="opacity:1" fill="#273e91" d="M 22.5,60.5 C 30.0376,59.6772 32.0376,62.5105 28.5,69C 26.5273,69.4955 24.5273,69.6621 22.5,69.5C 22.5,66.5 22.5,63.5 22.5,60.5 Z"/></g>
<g><path style="opacity:1" fill="#253c90" d="M 84.5,60.5 C 95.0325,60.199 99.1992,65.199 97,75.5C 94.6269,80.7756 90.4602,83.1089 84.5,82.5C 84.5,75.1667 84.5,67.8333 84.5,60.5 Z"/></g>
<g><path style="opacity:1" fill="#2c4093" d="M 136.5,60.5 C 143.539,60.3711 147.206,63.8711 147.5,71C 147.636,76.9255 144.969,80.7588 139.5,82.5C 134.031,80.7588 131.364,76.9255 131.5,71C 131.97,66.8952 133.636,63.3952 136.5,60.5 Z"/></g>
<g><path style="opacity:1" fill="#223c90" d="M 181.5,62.5 C 188.481,64.8223 195.148,67.9889 201.5,72C 202.747,73.4936 202.747,74.9936 201.5,76.5C 195.578,80.7944 189.245,83.9611 182.5,86C 181.518,78.253 181.185,70.4197 181.5,62.5 Z"/></g>
<g><path style="opacity:1" fill="#1da0a8" d="M 211.5,62.5 C 214.482,62.1044 217.149,62.7711 219.5,64.5C 223.963,61.6075 228.13,61.9409 232,65.5C 233.425,72.3846 233.925,79.3846 233.5,86.5C 231.167,86.5 228.833,86.5 226.5,86.5C 226.666,81.1563 226.499,75.8229 226,70.5C 224.477,68.3799 222.644,68.0465 220.5,69.5C 219.505,75.1278 219.171,80.7945 219.5,86.5C 216.833,86.5 214.167,86.5 211.5,86.5C 211.5,78.5 211.5,70.5 211.5,62.5 Z"/></g>
<g><path style="opacity:1" fill="#149ea6" d="M 239.5,62.5 C 241.5,62.5 243.5,62.5 245.5,62.5C 245.367,67.2717 246.7,67.4384 249.5,63C 250.793,62.51 252.127,62.3433 253.5,62.5C 253.5,64.8333 253.5,67.1667 253.5,69.5C 250.632,69.085 248.465,70.085 247,72.5C 246.501,77.1548 246.334,81.8215 246.5,86.5C 244.167,86.5 241.833,86.5 239.5,86.5C 239.5,78.5 239.5,70.5 239.5,62.5 Z"/></g>
<g><path style="opacity:1" fill="#23a2aa" d="M 256.5,62.5 C 259.119,62.2317 261.619,62.565 264,63.5C 265.107,68.4768 266.107,73.4768 267,78.5C 268.118,73.192 269.618,68.0253 271.5,63C 273.441,62.2571 275.274,62.4238 277,63.5C 278.333,68.1667 279.667,72.8333 281,77.5C 281.872,72.8053 282.872,68.1386 284,63.5C 286.466,62.2234 288.966,62.2234 291.5,63.5C 288.699,71.0418 286.365,78.7084 284.5,86.5C 282.076,86.8076 279.743,86.4742 277.5,85.5C 276.335,81.5057 275.168,77.5057 274,73.5C 271.91,77.5994 270.744,81.9328 270.5,86.5C 267.833,86.5 265.167,86.5 262.5,86.5C 260.814,78.4219 258.814,70.4219 256.5,62.5 Z"/></g>
<g><path style="opacity:1" fill="#374897" d="M 56.5,62.5 C 58.4835,65.7994 59.4835,69.4661 59.5,73.5C 57.5,73.5 55.5,73.5 53.5,73.5C 54.0364,69.6861 55.0364,66.0194 56.5,62.5 Z"/></g>
</svg>
