<?xml version="1.0" encoding="UTF-8"?>
<!DOCTYPE svg PUBLIC "-//W3C//DTD SVG 1.1//EN" "http://www.w3.org/Graphics/SVG/1.1/DTD/svg11.dtd">
<svg xmlns="http://www.w3.org/2000/svg" version="1.1" width="447px" height="150px" style="shape-rendering:geometricPrecision; text-rendering:geometricPrecision; image-rendering:optimizeQuality; fill-rule:evenodd; clip-rule:evenodd" xmlns:xlink="http://www.w3.org/1999/xlink">
<g><path style="opacity:0.995" fill="#08a3ab" d="M -0.5,-0.5 C 148.5,-0.5 297.5,-0.5 446.5,-0.5C 446.5,49.5 446.5,99.5 446.5,149.5C 297.5,149.5 148.5,149.5 -0.5,149.5C -0.5,99.5 -0.5,49.5 -0.5,-0.5 Z M 252.5,3.5 C 315.833,3.5 379.167,3.5 442.5,3.5C 442.5,51.1667 442.5,98.8333 442.5,146.5C 379.499,146.667 316.499,146.5 253.5,146C 252.503,98.572 252.17,51.072 252.5,3.5 Z"/></g>
<g><path style="opacity:1" fill="#62c5ca" d="M 25.5,19.5 C 22.5,19.5 19.5,19.5 16.5,19.5C 16.5,35.8333 16.5,52.1667 16.5,68.5C 19.5,68.5 22.5,68.5 25.5,68.5C 22.3752,69.4794 19.0419,69.8128 15.5,69.5C 15.5,52.5 15.5,35.5 15.5,18.5C 19.0419,18.1872 22.3752,18.5206 25.5,19.5 Z"/></g>
<g><path style="opacity:1" fill="#fcfdfe" d="M 25.5,19.5 C 25.3335,29.1724 25.5002,38.8391 26,48.5C 26.6667,49.8333 27.3333,49.8333 28,48.5C 30.7097,44.2467 33.543,40.0801 36.5,36C 39.8333,35.3333 43.1667,35.3333 46.5,36C 42.8333,40.3333 39.1667,44.6667 35.5,49C 39.7103,55.2542 44.0436,61.4209 48.5,67.5C 44.8333,68.8333 41.1667,68.8333 37.5,67.5C 35.1642,62.8249 32.3309,58.4916 29,54.5C 28,55.5 27,56.5 26,57.5C 25.5014,61.1516 25.3347,64.8183 25.5,68.5C 22.5,68.5 19.5,68.5 16.5,68.5C 16.5,52.1667 16.5,35.8333 16.5,19.5C 19.5,19.5 22.5,19.5 25.5,19.5 Z"/></g>
<g><path style="opacity:1" fill="#5fc3c9" d="M 97.5,19.5 C 97.5,35.8333 97.5,52.1667 97.5,68.5C 100.5,68.5 103.5,68.5 106.5,68.5C 103.375,69.4794 100.042,69.8128 96.5,69.5C 96.1702,52.6583 96.5035,35.9916 97.5,19.5 Z"/></g>
<g><path style="opacity:1" fill="#fefffe" d="M 97.5,19.5 C 100.5,19.5 103.5,19.5 106.5,19.5C 106.5,35.8333 106.5,52.1667 106.5,68.5C 103.5,68.5 100.5,68.5 97.5,68.5C 97.5,52.1667 97.5,35.8333 97.5,19.5 Z"/></g>
<g><path style="opacity:1" fill="#fdfefe" d="M 174.5,43.5 C 174.5,51.8333 174.5,60.1667 174.5,68.5C 171.833,68.5 169.167,68.5 166.5,68.5C 166.825,61.3134 166.491,54.3134 165.5,47.5C 164.707,42.2241 161.707,40.3908 156.5,42C 155.29,43.0391 154.29,44.2058 153.5,45.5C 152.508,52.9818 152.175,60.6484 152.5,68.5C 149.5,68.5 146.5,68.5 143.5,68.5C 143.5,52.1667 143.5,35.8333 143.5,19.5C 146.5,19.5 149.5,19.5 152.5,19.5C 152.334,25.8421 152.5,32.1754 153,38.5C 154.364,39.2583 155.531,38.7583 156.5,37C 164.912,32.7633 170.912,34.93 174.5,43.5 Z"/></g>
<g><path style="opacity:1" fill="#f9fcfd" d="M 187.5,20.5 C 194.158,19.3445 196.158,21.8445 193.5,28C 186.019,29.4974 184.019,26.9974 187.5,20.5 Z"/></g>
<g><path style="opacity:1" fill="#fdfefe" d="M 126.5,25.5 C 127.319,28.3054 127.819,31.3054 128,34.5C 130.381,35.435 132.881,35.7683 135.5,35.5C 135.5,37.5 135.5,39.5 135.5,41.5C 128.054,40.2757 125.388,43.4424 127.5,51C 127.667,53.8333 127.833,56.6667 128,59.5C 129.509,61.9193 131.675,62.9193 134.5,62.5C 134.5,64.5 134.5,66.5 134.5,68.5C 129.73,69.8518 125.23,69.1852 121,66.5C 119.956,64.2852 119.29,61.9519 119,59.5C 118.667,53.8333 118.333,48.1667 118,42.5C 116.989,41.6634 115.822,41.33 114.5,41.5C 114.5,39.5 114.5,37.5 114.5,35.5C 115.822,35.67 116.989,35.3366 118,34.5C 118.497,32.1902 118.663,29.8568 118.5,27.5C 121.428,27.4349 124.095,26.7682 126.5,25.5 Z"/></g>
<g><path style="opacity:1" fill="#fdfefe" d="M 214.5,25.5 C 215.319,28.3054 215.819,31.3054 216,34.5C 218.381,35.435 220.881,35.7683 223.5,35.5C 223.5,37.5 223.5,39.5 223.5,41.5C 216.106,40.0699 213.439,43.0699 215.5,50.5C 215.421,53.9546 215.921,57.2879 217,60.5C 218.789,62.229 220.956,62.8957 223.5,62.5C 223.5,64.5 223.5,66.5 223.5,68.5C 218.047,70.2601 213.214,69.2601 209,65.5C 207.733,57.9376 207.066,50.2709 207,42.5C 205.644,41.6198 204.144,41.2865 202.5,41.5C 202.5,39.5 202.5,37.5 202.5,35.5C 204.144,35.7135 205.644,35.3802 207,34.5C 207.497,32.1902 207.663,29.8568 207.5,27.5C 210.067,27.2785 212.401,26.6118 214.5,25.5 Z"/></g>
<g><path style="opacity:1" fill="#61c5ca" d="M 64.5,54.5 C 63.5098,48.3554 63.1765,42.0221 63.5,35.5C 60.8333,35.5 58.1667,35.5 55.5,35.5C 55.5,43.5 55.5,51.5 55.5,59.5C 54.5073,51.3501 54.1739,43.0168 54.5,34.5C 57.8333,34.5 61.1667,34.5 64.5,34.5C 64.5,41.1667 64.5,47.8333 64.5,54.5 Z"/></g>
<g><path style="opacity:1" fill="#fdfefe" d="M 64.5,54.5 C 64.3677,60.873 67.3677,63.373 73.5,62C 74.6667,60.8333 75.8333,59.6667 77,58.5C 77.4997,50.8406 77.6664,43.1739 77.5,35.5C 80.5,35.5 83.5,35.5 86.5,35.5C 86.5,46.5 86.5,57.5 86.5,68.5C 84.1667,68.5 81.8333,68.5 79.5,68.5C 79.7373,67.209 79.404,66.209 78.5,65.5C 78.44,64.9569 78.1067,64.6236 77.5,64.5C 71.1655,70.5388 64.6655,70.8721 58,65.5C 57.0617,63.5115 56.2283,61.5115 55.5,59.5C 55.5,51.5 55.5,43.5 55.5,35.5C 58.1667,35.5 60.8333,35.5 63.5,35.5C 63.1765,42.0221 63.5098,48.3554 64.5,54.5 Z"/></g>
<g><path style="opacity:1" fill="#62c5ca" d="M 185.5,34.5 C 188.833,34.5 192.167,34.5 195.5,34.5C 195.5,46.1667 195.5,57.8333 195.5,69.5C 192.167,69.5 188.833,69.5 185.5,69.5C 185.5,57.8333 185.5,46.1667 185.5,34.5 Z"/></g>
<g><path style="opacity:1" fill="#fefffe" d="M 186.5,35.5 C 189.167,35.5 191.833,35.5 194.5,35.5C 194.5,46.5 194.5,57.5 194.5,68.5C 191.833,68.5 189.167,68.5 186.5,68.5C 186.5,57.5 186.5,46.5 186.5,35.5 Z"/></g>
<g><path style="opacity:1" fill="#62c5ca" d="M 174.5,43.5 C 175.493,51.9839 175.826,60.6506 175.5,69.5C 172.167,69.5 168.833,69.5 165.5,69.5C 165.5,62.1667 165.5,54.8333 165.5,47.5C 166.491,54.3134 166.825,61.3134 166.5,68.5C 169.167,68.5 171.833,68.5 174.5,68.5C 174.5,60.1667 174.5,51.8333 174.5,43.5 Z"/></g>
<g><path style="opacity:1" fill="#60c4c9" d="M 153.5,45.5 C 153.5,53.5 153.5,61.5 153.5,69.5C 149.958,69.8128 146.625,69.4794 143.5,68.5C 146.5,68.5 149.5,68.5 152.5,68.5C 152.175,60.6484 152.508,52.9818 153.5,45.5 Z"/></g>
<g><path style="opacity:1" fill="#59c0c6" d="M 86.5,35.5 C 87.4948,46.6544 87.8281,57.9877 87.5,69.5C 84.5,69.5 81.5,69.5 78.5,69.5C 78.5,68.1667 78.5,66.8333 78.5,65.5C 79.404,66.209 79.7373,67.209 79.5,68.5C 81.8333,68.5 84.1667,68.5 86.5,68.5C 86.5,57.5 86.5,46.5 86.5,35.5 Z"/></g>
<g><path style="opacity:1" fill="#fcfefe" d="M 26.5,111.5 C 25.5104,117.31 25.1771,123.31 25.5,129.5C 22.5,129.5 19.5,129.5 16.5,129.5C 16.5,114.5 16.5,99.5 16.5,84.5C 23.6549,83.3448 30.9882,83.1782 38.5,84C 48.1907,86.2265 51.3574,92.0598 48,101.5C 46.1726,104.16 44.0059,106.494 41.5,108.5C 43.3415,109.842 44.8415,111.509 46,113.5C 47.346,118.552 48.846,123.552 50.5,128.5C 47.5,129.833 44.5,129.833 41.5,128.5C 40.3083,123.733 38.8083,119.066 37,114.5C 34.0962,110.78 30.5962,109.78 26.5,111.5 Z"/></g>
<g><path style="opacity:1" fill="#fcfdfe" d="M 72.5,83.5 C 76.8839,83.1744 81.2172,83.5078 85.5,84.5C 90.1667,99.1667 94.8333,113.833 99.5,128.5C 96.5541,129.655 93.5541,129.821 90.5,129C 89.1067,125.601 87.94,122.101 87,118.5C 81.918,117.363 76.7513,117.196 71.5,118C 69.9417,121.388 68.6084,124.888 67.5,128.5C 64.5541,129.655 61.5541,129.821 58.5,129C 63.4666,113.933 68.1333,98.7662 72.5,83.5 Z"/></g>
<g><path style="opacity:1" fill="#fdfefe" d="M 131.5,83.5 C 147.192,86.8522 153.359,96.5189 150,112.5C 147.512,122.154 141.345,127.821 131.5,129.5C 124.5,129.5 117.5,129.5 110.5,129.5C 110.5,114.167 110.5,98.8333 110.5,83.5C 117.5,83.5 124.5,83.5 131.5,83.5 Z"/></g>
<g><path style="opacity:1" fill="#fefffe" d="M 170.5,83.5 C 170.5,98.8333 170.5,114.167 170.5,129.5C 167.5,129.5 164.5,129.5 161.5,129.5C 161.5,114.167 161.5,98.8333 161.5,83.5C 164.5,83.5 167.5,83.5 170.5,83.5 Z"/></g>
<g><path style="opacity:1" fill="#fbfdfd" d="M 196.5,83.5 C 220.749,82.2701 229.915,93.6035 224,117.5C 217.485,129.274 207.652,133.108 194.5,129C 185.825,124.328 181.492,116.994 181.5,107C 181.641,95.8495 186.641,88.0161 196.5,83.5 Z"/></g>
<g><path style="opacity:1" fill="#44b6bc" d="M 16.5,84.5 C 16.5,99.5 16.5,114.5 16.5,129.5C 19.5,129.5 22.5,129.5 25.5,129.5C 25.1771,123.31 25.5104,117.31 26.5,111.5C 26.5,117.833 26.5,124.167 26.5,130.5C 22.8333,130.5 19.1667,130.5 15.5,130.5C 15.1705,114.991 15.5038,99.6576 16.5,84.5 Z"/></g>
<g><path style="opacity:1" fill="#6ec9ce" d="M 131.5,83.5 C 124.5,83.5 117.5,83.5 110.5,83.5C 110.5,98.8333 110.5,114.167 110.5,129.5C 117.5,129.5 124.5,129.5 131.5,129.5C 124.352,130.492 117.019,130.825 109.5,130.5C 109.5,114.5 109.5,98.5 109.5,82.5C 117.019,82.175 124.352,82.5084 131.5,83.5 Z"/></g>
<g><path style="opacity:1" fill="#5dc2c8" d="M 170.5,83.5 C 171.496,98.9911 171.83,114.658 171.5,130.5C 167.958,130.813 164.625,130.479 161.5,129.5C 164.5,129.5 167.5,129.5 170.5,129.5C 170.5,114.167 170.5,98.8333 170.5,83.5 Z"/></g>
<g><path style="opacity:1" fill="#29a9b1" d="M 26.5,89.5 C 29.5184,89.3354 32.5184,89.502 35.5,90C 41.2087,93.5454 41.8754,97.8787 37.5,103C 33.5723,105.475 29.7389,105.642 26,103.5C 25.2266,98.7481 25.3932,94.0815 26.5,89.5 Z"/></g>
<g><path style="opacity:1" fill="#17a4ad" d="M 120.5,89.5 C 137.639,89.4766 144.139,97.81 140,114.5C 135.333,122.247 128.5,125.247 119.5,123.5C 119.189,112.086 119.523,100.752 120.5,89.5 Z"/></g>
<g><path style="opacity:1" fill="#1ba5ae" d="M 200.5,89.5 C 208.95,89.1042 214.117,93.1042 216,101.5C 217.511,109.293 215.678,116.127 210.5,122C 201.789,126.103 195.622,123.603 192,114.5C 190.082,108.405 190.415,102.405 193,96.5C 194.742,93.2543 197.242,90.921 200.5,89.5 Z"/></g>
<g><path style="opacity:0.923" fill="#fefefe" d="M 267.5,91.5 C 269.527,91.3379 271.527,91.5045 273.5,92C 282.415,97.0405 291.249,102.207 300,107.5C 300.978,110.669 300.478,113.503 298.5,116C 289.192,121.57 279.692,126.736 270,131.5C 268.108,131.223 266.775,130.223 266,128.5C 265.333,116.833 265.333,105.167 266,93.5C 266.717,92.9558 267.217,92.2891 267.5,91.5 Z"/></g>
<g><path style="opacity:0.939" fill="#00a1aa" d="M 328.5,91.5 C 337.755,89.5048 343.922,92.8382 347,101.5C 347.5,110.827 347.666,120.161 347.5,129.5C 343.167,129.5 338.833,129.5 334.5,129.5C 334.666,122.492 334.5,115.492 334,108.5C 332.765,102.527 330.099,101.527 326,105.5C 325.5,113.493 325.334,121.493 325.5,129.5C 320.833,129.5 316.167,129.5 311.5,129.5C 311.5,117.167 311.5,104.833 311.5,92.5C 315.997,91.9445 320.164,92.6112 324,94.5C 325.652,93.6006 327.152,92.6006 328.5,91.5 Z"/></g>
<g><path style="opacity:0.924" fill="#00a1aa" d="M 370.5,91.5 C 377.857,91.8573 385.191,92.5239 392.5,93.5C 393.706,98.8638 395.039,104.197 396.5,109.5C 398.309,104.267 399.809,98.9337 401,93.5C 404.744,92.374 408.577,92.2073 412.5,93C 414.384,98.7032 415.884,104.537 417,110.5C 418.49,104.874 419.823,99.2078 421,93.5C 425.401,92.5333 429.901,92.2 434.5,92.5C 431.322,104.877 427.989,117.21 424.5,129.5C 419.833,129.5 415.167,129.5 410.5,129.5C 409.495,124.478 408.328,119.478 407,114.5C 404.805,119.255 403.305,124.255 402.5,129.5C 397.833,129.5 393.167,129.5 388.5,129.5C 385.65,118.103 382.483,106.77 379,95.5C 378.667,98.1667 378.333,100.833 378,103.5C 375.595,104.274 373.095,104.774 370.5,105C 369.299,105.903 368.465,107.069 368,108.5C 367.5,115.492 367.334,122.492 367.5,129.5C 362.833,129.5 358.167,129.5 353.5,129.5C 353.5,117.167 353.5,104.833 353.5,92.5C 357.997,91.9445 362.164,92.6112 366,94.5C 367.652,93.6006 369.152,92.6006 370.5,91.5 Z"/></g>
<g><path style="opacity:1" fill="#33abb3" d="M 78.5,91.5 C 79.1174,91.6107 79.6174,91.944 80,92.5C 81.3333,97.1667 82.6667,101.833 84,106.5C 84.7203,108.112 84.5536,109.612 83.5,111C 80.1667,111.667 76.8333,111.667 73.5,111C 73.0426,110.586 72.7093,110.086 72.5,109.5C 74.2061,103.317 76.2061,97.3165 78.5,91.5 Z"/></g>
</svg>
