<svg height="196.747751" viewBox="0 0 62 24" width="508.265023" xmlns="http://www.w3.org/2000/svg" xmlns:xlink="http://www.w3.org/1999/xlink"><linearGradient id="a" x1="0%" x2="99.928%" y1="50%" y2="50%"><stop offset="0" stop-color="#111e9b"/><stop offset=".239" stop-color="#002dc0"/><stop offset=".644" stop-color="#7e0839"/><stop offset=".99928" stop-color="#c00509"/></linearGradient><radialGradient id="b" cx="45.028%" cy="0%" gradientTransform="matrix(0 1 -.48684 0 .45 -.45)" r="88.623%"><stop offset="0" stop-color="#fff"/><stop offset=".99203" stop-color="#fff" stop-opacity="0"/></radialGradient><g fill="none" fill-rule="evenodd"><path d="m62 0h-30.971-.058-30.971v24h30.971.058 30.971z" fill="url(#a)" fill-rule="nonzero"/><path d="m0 0v17.7965311s24.7375328-11.0221513 62-14.14288496v-3.65364614z" fill="url(#b)" fill-opacity=".7" opacity=".6"/><g fill="#fff" fill-rule="nonzero"><path d="m46.637 3.544h5.719v16.784h-5.719z"/><path d="m20.106 20.328v-5.081h-4.571v-11.703h-5.719v16.784z"/><path d="m37.9515493 9.60969231c-.9000834-.92530286-2.1210563-1.43768212-3.3891012-1.42223077-1.9768271 0-3.631498 1.44092308-3.631498 3.74215386 0 2.4126923 1.7480205 3.8259231 3.8320102 3.8259231 1.1120765.0275142 2.1880491-.40972 2.9854033-1.2131539l2.6209168 4.0645385c-1.6219206 1.5392307-3.5071805 2.1692307-6.1174033 2.1692307-5.0328553 0-8.8875903-3.5383846-8.8875903-8.8400769 0-5.30169228 3.7858925-8.8400769 8.818525-8.8400769 2.3303969 0 4.5449424.606 6.1174033 2.09769231z"/></g></g></svg>