<?xml version="1.0" encoding="UTF-8"?>
<!DOCTYPE svg PUBLIC "-//W3C//DTD SVG 1.1//EN" "http://www.w3.org/Graphics/SVG/1.1/DTD/svg11.dtd">
<svg xmlns="http://www.w3.org/2000/svg" version="1.1" width="368px" height="125px" style="shape-rendering:geometricPrecision; text-rendering:geometricPrecision; image-rendering:optimizeQuality; fill-rule:evenodd; clip-rule:evenodd" xmlns:xlink="http://www.w3.org/1999/xlink">
<g><path style="opacity:1" fill="#ffffff" d="M 17.5,9.5 C 19.1667,9.5 20.8333,9.5 22.5,9.5C 22.5,37.8333 22.5,66.1667 22.5,94.5C 20.8333,94.5 19.1667,94.5 17.5,94.5C 17.5,66.1667 17.5,37.8333 17.5,9.5 Z"/></g>
<g><path style="opacity:1" fill="#ffffff" d="M 74.5,27.5 C 100.104,28.6026 112.27,41.9359 111,67.5C 107.575,82.5906 98.4086,92.0906 83.5,96C 63.3838,97.6953 50.5505,88.862 45,69.5C 43.1899,51.5879 49.3565,38.9213 63.5,31.5C 67.1392,29.7347 70.8059,28.4014 74.5,27.5 Z M 71.5,32.5 C 92.3534,30.8623 104.02,40.3623 106.5,61C 106.569,72.531 101.902,81.531 92.5,88C 93.6734,91.1103 93.1734,91.277 91,88.5C 73.0036,95.9456 59.6703,90.9456 51,73.5C 46.2081,53.7494 53.0415,40.0827 71.5,32.5 Z"/></g>
<g><path style="opacity:1" fill="#ffffff" d="M 237.5,28.5 C 257.647,28.8154 269.814,38.8154 274,58.5C 275.361,78.2968 266.528,90.7968 247.5,96C 233.23,98.1384 222.064,93.3051 214,81.5C 213.5,92.8284 213.333,104.162 213.5,115.5C 211.833,115.5 210.167,115.5 208.5,115.5C 208.5,87.1667 208.5,58.8333 208.5,30.5C 210.167,30.5 211.833,30.5 213.5,30.5C 213.334,34.8461 213.501,39.1794 214,43.5C 219.686,34.9538 227.519,29.9538 237.5,28.5 Z M 238.5,32.5 C 257.356,33.6897 267.69,43.6897 269.5,62.5C 266.782,84.7364 254.449,94.2364 232.5,91C 215.962,82.7455 210.129,69.5788 215,51.5C 219.803,41.176 227.637,34.8427 238.5,32.5 Z"/></g>
<g><path style="opacity:1" fill="#ffffff" d="M 323.5,28.5 C 345.427,30.4286 356.761,42.4286 357.5,64.5C 337.167,64.5 316.833,64.5 296.5,64.5C 297.954,81.4542 307.12,90.4542 324,91.5C 336.446,91.6105 345.113,85.9439 350,74.5C 351.814,73.2404 353.647,73.2404 355.5,74.5C 348.875,90.619 336.875,97.7856 319.5,96C 304.36,92.8603 295.194,83.6937 292,68.5C 290.109,51.1073 296.943,38.6073 312.5,31C 316.312,30.2045 319.979,29.3712 323.5,28.5 Z M 320.5,32.5 C 339.123,32.1263 349.79,41.1263 352.5,59.5C 333.833,59.5 315.167,59.5 296.5,59.5C 298.301,44.849 306.301,35.849 320.5,32.5 Z"/></g>
<g><path style="opacity:1" fill="#ffffff" d="M 131.5,30.5 C 133.167,30.5 134.833,30.5 136.5,30.5C 136.333,45.1705 136.5,59.8371 137,74.5C 140.949,89.3955 150.449,94.8955 165.5,91C 171.667,88.8333 175.833,84.6667 178,78.5C 179.422,62.5489 179.922,46.5489 179.5,30.5C 181.167,30.5 182.833,30.5 184.5,30.5C 184.5,51.8333 184.5,73.1667 184.5,94.5C 182.833,94.5 181.167,94.5 179.5,94.5C 179.665,91.4816 179.498,88.4816 179,85.5C 173.85,92.9922 166.683,96.6588 157.5,96.5C 143.45,96.2866 134.95,89.2866 132,75.5C 131.5,60.5037 131.333,45.5037 131.5,30.5 Z"/></g>
</svg>
