<?xml version="1.0" encoding="UTF-8" standalone="no"?>
<svg
   id="svg8"
   version="1.1"
   viewBox="0 0 364 164"
   sodipodi:docname="Love Nature 4K.svg"
   inkscape:version="1.1.1 (3bf5ae0d25, 2021-09-20)"
   xmlns:inkscape="http://www.inkscape.org/namespaces/inkscape"
   xmlns:sodipodi="http://sodipodi.sourceforge.net/DTD/sodipodi-0.dtd"
   xmlns="http://www.w3.org/2000/svg"
   xmlns:svg="http://www.w3.org/2000/svg">
  <sodipodi:namedview
     id="namedview29"
     pagecolor="#ffffff"
     bordercolor="#666666"
     borderopacity="1.0"
     inkscape:pageshadow="2"
     inkscape:pageopacity="0.0"
     inkscape:pagecheckerboard="0"
     showgrid="false"
     inkscape:zoom="3.5631868"
     inkscape:cx="182"
     inkscape:cy="82.089437"
     inkscape:window-width="1920"
     inkscape:window-height="1017"
     inkscape:window-x="-8"
     inkscape:window-y="-8"
     inkscape:window-maximized="1"
     inkscape:current-layer="g895" />
  <defs
     id="defs9" />
  <g
     id="layer1"
     transform="translate(83 -61)">
    <g
       id="g895"
       transform="matrix(.26458 0 0 .26458 -85 60)">
      <path
         id="path817"
         fill="#3c3c3c"
         fill-opacity="1"
         d="M776 405v127c1 13 1 22-7 32-9 13-22 14-29 14-5 0-21 0-31-15-6-10-6-22-6-39l-1-30c0-19-15-25-29-25h-40v71c0 16 2 46 30 67 17 12 42 20 76 20 48 0 82-13 97-42 9-19 9-43 9-52V405zm-766 0v219h62V503l102 121h44V405h-63v116L62 405z"
         class="st0"
         style="fill:#ffffff" />
      <path
         id="path819"
         fill="#3c3c3c"
         fill-opacity="1"
         d="M656 405H452v53h60v164h70V458h74c15 0 38-3 46 12v-25c0-27-4-40-46-40zm426 218h-76s-44-75-49-81c-10-16-23-9-23-9v90h-68V405h102c14 0 24 1 34 3 40 8 50 41 50 59 0 9-2 17-6 25-8 18-21 26-27 29zm-148-95s11-21 21-28l19-10c8-3 12-10 12-18 0-7-3-12-8-15-5-4-16-4-23-4h-21v74zM269 164c-72 0-119 44-119 111 0 68 47 112 120 112 80 0 116-59 116-113 0-76-61-110-117-110zm-1 171c-29 0-47-23-47-60s19-61 48-61c33 0 45 32 45 62 0 29-14 59-46 59zm-104 49v-19c0-19-16-33-40-33H77V167H9v217zm358 1l89-218h-71l-46 134-46-134h-76l88 218zm171-56c-19-12-24-39-24-43v-1h150l1-9c0-22-4-53-25-78-20-22-48-34-86-34-68 0-113 44-113 111 0 34 10 112 122 112 15 0 69-2 99-62l-31-13c-15-6-23 4-28 10a53 53 0 01-65 7zm-26-81c7-42 36-45 45-45 12 0 22 4 30 12 9 11 9 29-10 32-43 6-47 14-65 30v-29z"
         class="st0"
         style="fill:#ffffff" />
      <path
         id="path821"
         fill="#3c3c3c"
         fill-opacity="1"
         d="M1158 567c-19-11-25-39-25-43v-1h151v-9c0-22-3-52-25-77-19-23-47-35-85-35-68 0-113 44-113 112 0 33 10 112 122 112 14 0 69-3 98-63l-30-12c-15-6-23 4-28 9a53 53 0 01-65 7zm-26-81c6-41 36-44 45-44 11 0 22 4 30 12 9 11 9 29-11 31-42 7-46 14-64 30v-29zM442 621c-2-12-2-30-2-52v-91c0-13 0-38-26-59-19-16-46-17-67-17-26 0-54 4-96 18 14 35 16 42 44 36 8-2 17-4 28-4 39-1 45 17 46 35l-31-2c-23 0-43 3-59 9-21 10-45 28-45 66 0 12 12 62 68 64h5c18 0 32-4 42-13l21-19v6a311 311 0 002 25h68l2-1v-1zm-114-90l7-1c9-1 23-3 34-10v55c-5 2-17 7-31 7-21 0-33-9-33-25 0-6 2-20 23-26z"
         class="st0"
         style="fill:#ffffff" />
      <path
         id="path823"
         fill="#02914c"
         d="M1063 435c9-13 21-24 35-32l89-397h-88l-86 386c26 8 42 25 50 43z"
         class="st1" />
      <path
         id="path825"
         fill="#01af60"
         d="M1082 6h102L946 238H844z"
         class="st2" />
      <path
         id="path827"
         fill="#02914c"
         d="M1240 305l66 91h67l-91-131z"
         class="st1" />
      <path
         id="path829"
         fill="#09d36e"
         d="M1302 167l-58 55-22 101 18-18 43-40 102-98z"
         class="st3" />
      <path
         id="path831"
         fill="#01af60"
         d="M1214 78l-34 157c9 6 17 15 23 26 7 12 10 26 10 41v29h-54l-10 45h61l12-53 22-101 31-144h-61z"
         class="st2" />
      <path
         id="path833"
         fill="#fff"
         d="M1201 319H869l-25-81h293c36 0 64 29 64 64z" />
      <path
         id="path835"
         fill="#09d36e"
         d="M1201 319H869l-25-81h293c36 0 64 29 64 64z"
         class="st3" />
      <path
         id="path842"
         fill="url(#SVGID_1_)"
         d="M1184 7l1 8s-30 71-65 90l-49 28 5-22z" />
      <path
         id="path849"
         fill="url(#SVGID_2_)"
         d="M945 238H844s22-20 41-20c20 0 34-1 43 4 10 5 31 6 17 16z" />
      <path
         id="path856"
         fill="url(#SVGID_3_)"
         d="M1222 323l22-101s21-26 8 16c-6 19-8 37-11 51-1 11 5 11-19 34z" />
      <path
         id="path863"
         fill="url(#SVGID_4_)"
         d="M1240 305l42-40c1 0 9 10 3 25-2 6-13 6-21 14-7 7-18 9-24 1z" />
      <path
         id="path870"
         fill="url(#SVGID_5_)"
         d="M1030 319h87s-6 16-32 17c-25 1-48 5-55-17z" />
    </g>
  </g>
</svg>
