<?xml version="1.0" encoding="UTF-8" standalone="no"?>
<svg
   width="100%"
   height="100%"
   viewBox="0 0 4466 1119"
   version="1.1"
   xml:space="preserve"
   style="fill-rule:evenodd;clip-rule:evenodd;stroke-linejoin:round;stroke-miterlimit:2;"
   id="svg10"
   sodipodi:docname="MDR.svg"
   inkscape:version="1.1.1 (3bf5ae0d25, 2021-09-20)"
   xmlns:inkscape="http://www.inkscape.org/namespaces/inkscape"
   xmlns:sodipodi="http://sodipodi.sourceforge.net/DTD/sodipodi-0.dtd"
   xmlns="http://www.w3.org/2000/svg"
   xmlns:svg="http://www.w3.org/2000/svg"><defs
     id="defs14" /><sodipodi:namedview
     id="namedview12"
     pagecolor="#ffffff"
     bordercolor="#666666"
     borderopacity="1.0"
     inkscape:pageshadow="2"
     inkscape:pageopacity="0.0"
     inkscape:pagecheckerboard="0"
     showgrid="false"
     inkscape:zoom="0.25279893"
     inkscape:cx="2234.9779"
     inkscape:cy="559.73339"
     inkscape:window-width="1920"
     inkscape:window-height="1017"
     inkscape:window-x="-8"
     inkscape:window-y="-8"
     inkscape:window-maximized="1"
     inkscape:current-layer="g8" /><g
     id="g8"><path
       d="M3084.9,624.208l-0,-78.433c-0,-48.612 -28.271,-75.846 -76.288,-75.846l-286.216,0l-0,136.058l121.045,0c42.85,0 60.242,24.192 60.242,60.134l0,342.958c0,7.975 1.771,12.058 6.979,13.754c5.475,1.692 10.296,-0.387 14.771,-5.05c40.492,-42.487 135.396,-144.029 197.063,-203.933c139.754,-135.792 250.7,-193.029 347.612,-193.029l0,-165.896c-122.937,-0 -164.821,18.125 -237.437,56.642c-53.329,28.358 -114.459,79.166 -147.771,112.641Zm-974.284,-169.283c-298.795,-0 -438.07,257.65 -438.07,421.292c-0,119.304 31.233,188.604 63.921,241.92l202.495,0c-36.362,-53.666 -84.725,-132.02 -84.725,-241.92c0,-133.209 106.592,-255.396 255.609,-255.396c113.954,-0 195.4,75.383 242.291,112.362c68.3,53.813 177.05,142.917 227.88,188.529c4.779,4.35 9.216,6.78 14.691,5.009c5.246,-1.621 7.017,-5.742 7.017,-13.642l-0,-837.229c-0,-48.592 -28.263,-75.85 -76.275,-75.85l-286.225,0l-0,136.058l116.85,0c42.804,0 60.196,24.196 60.196,60.117l-0,386.237c-103.08,-104.183 -216.884,-127.487 -305.655,-127.487Zm-1181.47,148.979c34.087,-39.462 145.058,-148.979 332.462,-148.979c103.754,-0 189.717,51.017 236.438,134.033c24.312,43.263 37.983,92.842 37.983,162.679l-0,175.392l-181.233,0l-0,-165.067c-0,-36.479 -3.546,-56.666 -10.317,-74.654c-17.467,-46.421 -56.396,-66.487 -111.329,-66.487c-83.071,-0 -153.371,58.475 -211.854,113.133c-58.83,54.971 -143.017,142.379 -184.609,189.417c-4.237,4.808 -9.254,6.7 -14.708,5.004c-5.25,-1.692 -7.042,-5.742 -7.042,-13.754l0,-161.138c0,-90.287 -47.95,-132.662 -125.558,-132.662c-92.617,-0 -168.608,72.879 -259.325,161.637c-70.846,69.296 -135.787,138.717 -227.012,234.171c-4.417,4.663 -9.217,6.663 -14.73,4.971c-5.208,-1.658 -7.021,-5.7 -7.021,-13.713l0,-341.766c0,-35.942 -17.37,-60.134 -60.216,-60.134l-121.071,0l-0,-136.058l286.242,0c48.012,0 76.3,27.234 76.3,75.846l-0,78.433c-0,0 160.291,-169.283 336.933,-169.283c149.996,-0 209.75,90.546 229.667,148.979Z"
       style="fill-rule:nonzero;fill:#ffffff"
       id="path2" /><path
       d="M3939.88,454.879l0,-202.454l-203.804,0l0,202.454l-73.404,0l-0,-453.162l73.404,-0l0,189.554l203.804,-0l0,-189.554l73.371,-0l-0,453.162l-73.371,0Z"
       style="fill-rule:nonzero;fill:#ffffff"
       id="path4" /><path
       d="M4388.29,228.642c0,-25.713 -3.541,-49.067 -10.541,-70.046c-7.083,-20.979 -17.375,-39.013 -31,-54.129c-13.629,-15.117 -30.583,-26.725 -50.792,-34.85c-20.249,-8.125 -43.5,-12.184 -69.875,-12.184l-57.916,0l-0,341.734l37.5,-0c58.583,-0 103.708,-13.413 135.245,-40.255c31.588,-26.845 47.379,-70.279 47.379,-130.27Zm77.459,-0c0,39.408 -6.125,73.371 -18.333,101.904c-12.251,28.546 -29.458,51.983 -51.667,70.325c-22.167,18.341 -48.792,31.933 -79.796,40.762c-31.037,8.825 -65.121,13.246 -102.287,13.246l-118.888,0l0,-453.162l139.304,-0c73.375,-0 130.288,19.141 170.875,57.4c40.542,38.291 60.792,94.779 60.792,169.525Z"
       style="fill-rule:nonzero;fill:#ffffff"
       id="path6" /></g></svg>
