<?xml version="1.0" encoding="UTF-8"?>
<!DOCTYPE svg PUBLIC "-//W3C//DTD SVG 1.1//EN" "http://www.w3.org/Graphics/SVG/1.1/DTD/svg11.dtd">
<svg xmlns="http://www.w3.org/2000/svg" version="1.1" width="1078px" height="130px" style="shape-rendering:geometricPrecision; text-rendering:geometricPrecision; image-rendering:optimizeQuality; fill-rule:evenodd; clip-rule:evenodd" xmlns:xlink="http://www.w3.org/1999/xlink">
<g><path style="opacity:1" fill="#ffffff" d="M 55.5,0.5 C 80.7383,-1.59705 100.905,7.40295 116,27.5C 117.885,29.9141 118.552,32.5808 118,35.5C 109.264,44.7795 100.431,53.9461 91.5,63C 90.552,63.4828 89.552,63.6495 88.5,63.5C 88.8319,53.1452 88.4986,42.8119 87.5,32.5C 78.041,41.4583 68.7076,50.625 59.5,60C 58.552,60.4828 57.552,60.6495 56.5,60.5C 56.8316,51.1429 56.4983,41.8096 55.5,32.5C 40.3867,46.6109 26.0534,61.2775 12.5,76.5C 18.1375,77.6632 23.8041,77.8299 29.5,77C 33.5,73.6667 37.1667,70 40.5,66C 41.448,65.5172 42.448,65.3505 43.5,65.5C 43.5,69.5 43.5,73.5 43.5,77.5C 49.5092,77.6662 55.5092,77.4995 61.5,77C 64.8333,73.6667 68.1667,70.3333 71.5,67C 72.448,66.5172 73.448,66.3505 74.5,66.5C 74.3335,77.1719 74.5002,87.8385 75,98.5C 91.3376,83.1657 107.504,67.3324 123.5,51C 130.349,77.0513 122.683,98.718 100.5,116C 74.9183,131.778 49.9183,131.112 25.5,114C 0.241981,89.8182 -4.59135,61.9849 11,30.5C 21.4499,13.8651 36.2833,3.8651 55.5,0.5 Z"/></g>
<g><path style="opacity:1" fill="#ffffff" d="M 280.5,28.5 C 303.378,26.4153 316.712,36.582 320.5,59C 316.232,88.5973 299.232,101.597 269.5,98C 255.493,93.1706 247.827,83.3373 246.5,68.5C 248.936,47.4106 260.27,34.0773 280.5,28.5 Z M 281.5,46.5 C 297.506,46.3642 303.006,54.0309 298,69.5C 292.997,79.4193 285.164,82.9193 274.5,80C 267.915,75.5316 265.748,69.365 268,61.5C 270.29,54.3827 274.79,49.3827 281.5,46.5 Z"/></g>
<g><path style="opacity:1" fill="#ffffff" d="M 417.5,28.5 C 444.05,26.887 456.884,39.2204 456,65.5C 449.109,90.709 432.609,101.542 406.5,98C 389.519,92.2098 382.019,80.3764 384,62.5C 388.014,43.9868 399.181,32.6534 417.5,28.5 Z M 418.5,46.5 C 433.884,46.2374 439.384,53.5708 435,68.5C 429.792,80.1914 421.292,83.6914 409.5,79C 403.566,73.5771 402.066,67.0771 405,59.5C 407.442,52.8884 411.942,48.555 418.5,46.5 Z"/></g>
<g><path style="opacity:1" fill="#ffffff" d="M 672.5,28.5 C 685.451,27.0968 696.784,30.5968 706.5,39C 702.686,43.6487 698.686,48.1487 694.5,52.5C 687.87,46.399 680.203,44.399 671.5,46.5C 670.24,48.3529 670.24,50.1862 671.5,52C 680.143,54.7368 687.976,58.9035 695,64.5C 701.778,81.4471 696.278,92.6137 678.5,98C 662.641,101.043 648.974,97.0426 637.5,86C 641.682,81.6513 646.015,77.4846 650.5,73.5C 656.172,78.6687 662.839,81.6687 670.5,82.5C 672.839,82.3308 675.006,81.6642 677,80.5C 677.798,78.7412 677.631,77.0745 676.5,75.5C 669.911,72.244 663.244,69.0774 656.5,66C 648.101,57.6163 647.268,48.4497 654,38.5C 659.186,33.16 665.353,29.8266 672.5,28.5 Z"/></g>
<g><path style="opacity:1" fill="#ffffff" d="M 778.5,28.5 C 806.047,27.2123 818.88,40.2123 817,67.5C 808.984,91.2647 792.484,101.431 767.5,98C 751.173,92.3262 743.673,80.8262 745,63.5C 748.575,44.4275 759.742,32.7608 778.5,28.5 Z M 779.5,46.5 C 794.896,46.2679 800.396,53.6012 796,68.5C 790.823,80.1743 782.323,83.6743 770.5,79C 763.075,71.3413 762.575,63.1746 769,54.5C 771.831,50.8209 775.331,48.1543 779.5,46.5 Z"/></g>
<g><path style="opacity:1" fill="#ffffff" d="M 173.5,29.5 C 179.842,29.3338 186.175,29.5005 192.5,30C 195.671,38.1835 198.838,46.3501 202,54.5C 209.52,46.6145 216.687,38.4478 223.5,30C 230.826,29.5003 238.159,29.3337 245.5,29.5C 239.886,52.1227 233.886,74.6227 227.5,97C 220.808,97.8309 214.142,97.6642 207.5,96.5C 211.29,85.3399 214.123,74.0066 216,62.5C 208.989,70.3435 201.822,78.0102 194.5,85.5C 190.904,77.9718 187.571,70.3051 184.5,62.5C 181.022,73.7435 177.856,85.0769 175,96.5C 168.59,97.4777 162.09,97.811 155.5,97.5C 161.188,74.7489 167.188,52.0822 173.5,29.5 Z"/></g>
<g><path style="opacity:1" fill="#ffffff" d="M 328.5,29.5 C 348.511,29.167 368.511,29.5004 388.5,30.5C 386.751,35.9998 385.085,41.4998 383.5,47C 376.809,47.1691 370.142,47.6691 363.5,48.5C 358.956,64.7944 354.623,81.1277 350.5,97.5C 343.833,97.5 337.167,97.5 330.5,97.5C 334.833,80.8333 339.167,64.1667 343.5,47.5C 337.167,47.5 330.833,47.5 324.5,47.5C 325.214,41.3581 326.548,35.3581 328.5,29.5 Z"/></g>
<g><path style="opacity:1" fill="#ffffff" d="M 476.5,29.5 C 489.213,29.1264 501.88,29.6264 514.5,31C 527.178,34.8469 532.345,43.3469 530,56.5C 527.093,66.4065 520.593,72.5731 510.5,75C 513.962,82.0912 517.295,89.2579 520.5,96.5C 513.524,97.6644 506.524,97.8311 499.5,97C 496.09,91.1042 493.256,84.9375 491,78.5C 488.281,77.5562 485.448,77.2229 482.5,77.5C 481.537,84.1861 479.87,90.6861 477.5,97C 471.175,97.4995 464.842,97.6662 458.5,97.5C 463.879,74.651 469.879,51.9843 476.5,29.5 Z M 491.5,47.5 C 496.844,47.334 502.177,47.5006 507.5,48C 512.037,53.9608 510.703,58.2941 503.5,61C 498.136,61.8295 492.802,61.6628 487.5,60.5C 488.684,56.091 490.017,51.7576 491.5,47.5 Z"/></g>
<g><path style="opacity:1" fill="#ffffff" d="M 538.5,29.5 C 545.5,29.5 552.5,29.5 559.5,29.5C 560.534,43.1712 561.7,56.8379 563,70.5C 571.375,56.9157 579.875,43.4157 588.5,30C 595.856,29.1687 603.189,29.3354 610.5,30.5C 595.748,53.0058 580.748,75.3391 565.5,97.5C 559.202,98.4963 552.868,98.8297 546.5,98.5C 543.646,75.5192 540.979,52.5192 538.5,29.5 Z"/></g>
<g><path style="opacity:1" fill="#ffffff" d="M 619.5,29.5 C 626.167,29.5 632.833,29.5 639.5,29.5C 633.979,51.5665 628.146,73.5665 622,95.5C 618.767,96.7864 615.267,97.453 611.5,97.5C 608.167,97.3333 604.833,97.1667 601.5,97C 607.888,74.6163 613.888,52.1163 619.5,29.5 Z"/></g>
<g><path style="opacity:1" fill="#ffffff" d="M 723.5,29.5 C 729.833,29.5 736.167,29.5 742.5,29.5C 737.365,52.0021 731.532,74.3354 725,96.5C 718.59,97.4777 712.09,97.811 705.5,97.5C 711.191,74.7361 717.191,52.0695 723.5,29.5 Z"/></g>
<g><path style="opacity:1" fill="#ffffff" d="M 837.5,29.5 C 843.758,29.1903 849.924,29.5236 856,30.5C 861.527,42.0823 866.86,53.749 872,65.5C 875.205,53.8177 878.538,42.151 882,30.5C 888.41,29.5223 894.91,29.189 901.5,29.5C 895.91,51.9388 889.91,74.2722 883.5,96.5C 877.5,97.8333 871.5,97.8333 865.5,96.5C 859.726,84.6194 854.226,72.6194 849,60.5C 845.313,72.7231 842.146,85.0564 839.5,97.5C 832.833,97.5 826.167,97.5 819.5,97.5C 825.192,74.7327 831.192,52.066 837.5,29.5 Z"/></g>
<g><path style="opacity:1" fill="#ffffff" d="M 939.5,29.5 C 963.836,29.3334 988.169,29.5 1012.5,30C 1013.83,43.1383 1015.33,56.305 1017,69.5C 1024.79,56.0818 1032.96,42.9151 1041.5,30C 1048.86,29.1687 1056.19,29.3354 1063.5,30.5C 1048.67,52.8333 1033.83,75.1667 1019,97.5C 1012.92,98.4764 1006.76,98.8097 1000.5,98.5C 998.003,81.1924 995.67,63.859 993.5,46.5C 987.167,46.5 980.833,46.5 974.5,46.5C 970.009,63.4637 965.676,80.4637 961.5,97.5C 954.833,97.5 948.167,97.5 941.5,97.5C 945.677,80.4574 950.011,63.4574 954.5,46.5C 947.825,46.6663 941.158,46.4996 934.5,46C 936.356,40.5458 938.023,35.0458 939.5,29.5 Z"/></g>
<g><path style="opacity:1" fill="#ffffff" d="M 905.5,80.5 C 911.176,80.3339 916.843,80.5006 922.5,81C 920.959,86.3671 919.293,91.7005 917.5,97C 912.177,97.4994 906.844,97.666 901.5,97.5C 902.677,91.7922 904.01,86.1255 905.5,80.5 Z"/></g>
</svg>
