<?xml version="1.0" encoding="UTF-8" standalone="no"?>
<!-- Generator: Adobe Illustrator 19.0.0, SVG Export Plug-In . SVG Version: 6.00 Build 0)  -->

<svg
   version="1.1"
   id="Ebene_1"
   x="0px"
   y="0px"
   viewBox="-97.5 355.8 197 130.1"
   style="enable-background:new -97.5 355.8 197 130.1;"
   xml:space="preserve"
   sodipodi:docname="MTV HD.svg"
   inkscape:version="1.1.1 (3bf5ae0d25, 2021-09-20)"
   xmlns:inkscape="http://www.inkscape.org/namespaces/inkscape"
   xmlns:sodipodi="http://sodipodi.sourceforge.net/DTD/sodipodi-0.dtd"
   xmlns="http://www.w3.org/2000/svg"
   xmlns:svg="http://www.w3.org/2000/svg"><defs
   id="defs23" /><sodipodi:namedview
   id="namedview21"
   pagecolor="#ffffff"
   bordercolor="#666666"
   borderopacity="1.0"
   inkscape:pageshadow="2"
   inkscape:pageopacity="0.0"
   inkscape:pagecheckerboard="0"
   showgrid="false"
   inkscape:zoom="5.7309645"
   inkscape:cx="98.5"
   inkscape:cy="64.997786"
   inkscape:window-width="1920"
   inkscape:window-height="1017"
   inkscape:window-x="-8"
   inkscape:window-y="-8"
   inkscape:window-maximized="1"
   inkscape:current-layer="Ebene_1" />
<g
   id="g18">
	<g
   id="g16">
		<g
   id="g14">
			<path
   d="M-86.6,365.4c0.6,0,1,0,1.4,0c19.4,0,38.9,0,58.3,0c0.9,0,1.5,0.2,2.1,0.9c6.4,6.8,12.9,13.6,19.3,20.3     c0.3,0.3,0.5,0.7,0.5,0.4c2-1.8,4.1-3.4,6-5.4c4.7-4.9,9.4-9.8,14-14.8c1-1.1,2-1.5,3.5-1.5c19.2,0,38.4,0,57.6,0     c0.5,0,1,0,1.7,0c0,0.5,0,1,0,1.4c0,15,0,29.9,0,44.9c0,0.6-0.1,1.2-0.4,1.7c-4.8,8-9,16.3-12.3,25.1c-0.3,0.9-0.7,1.9-1.3,2.7     c-0.4,0.5-1.2,0.8-1.8,0.8c-0.5-0.1-1.3-0.7-1.4-1.2c-0.4-1.7-0.5-3.4-0.8-5.1c-0.6-4.4-1.2-8.9-1.9-13.3c-0.3-2-1.1-3.9-2.6-5.4     c-2.8-2.7-10.5-1.6-11.8,4.4c-0.7,3.2-0.1,6.2,0.9,9.2c2.5,7.3,5.2,14.6,7.8,21.8c1.2,3.3,2.5,6.5,3.7,9.7     c0.2,0.4,0.3,0.8,0.5,1.2c1.6,3.8,4.4,4.9,8.6,4.5c2.4-0.2,4.1-1.6,4.9-3.9c1.4-3.9,2.5-7.8,3.8-11.7c1.2-3.5,2.4-6.9,3.6-10.4     c0.1-0.3,0.2-0.5,0.4-1c0,11.9,0,23.5,0,35.2c-12.7,0-25.4,0-38.3,0c-0.2-2.7-0.5-5.5-0.5-8.2c0-6.6,0.3-13.3,0.2-19.9     c-0.1-4.5-0.6-9-0.8-13.5c-0.2-4.9-0.2-9.7-0.4-14.6c0-1.1-0.2-2.2-0.1-3.3c0-0.4,0.5-1,0.8-1.2c3.6-2.2,7.3-4.2,10.9-6.4     c2.1-1.3,4.3-2.7,6.2-4.3c0.8-0.7,1.5-1.9,1.7-3c0.4-1.8-1.3-3.9-3.5-4.8c-2.7-1.1-5.3-0.9-7.3,1.3c-3.5,3.7-8,6-12.3,8.6     c-0.6,0.4-1.1,0.4-1.7,0.1c-2.2-0.9-4.4-1.1-6.6-0.4c-2.3,0.8-3.4,2.2-3.4,4.6c0,0.6,0.1,1.3,0,1.9c-0.3,0.8-0.6,1.9-1.2,2.3     c-6,3.6-12,7-18,10.4c-1.3,0.8-2.9,1.1-4.4,1.6c-0.3,0.1-0.5,0.2-0.8,0.3c-3.4,1.2-5,3.7-4.1,6.5c1.1,3.6,4.5,5.6,7.8,4.4     c2.1-0.7,4-2,5.8-3.2c3.8-2.7,7.6-5.5,11.4-8.2c0.8-0.6,1.7-1,2.7-1.3c1.6-0.6,2.9,0,3.4,1.6c0.3,1.1,0.6,2.3,0.6,3.4     c-0.2,7.8-0.5,15.6-0.7,23.5c-0.2,6.9-0.2,13.8-0.3,20.7c0,0.4,0,0.7,0,1.2c-3.3,0-6.5,0-9.9,0c0-10.2,0-20.5,0-31.1     c-6.7,5.6-13,11-19.5,16.4c-6.4-5.4-12.8-10.7-19.3-16.2c0,10.4,0,20.6,0,30.9c-21,0-41.8,0-62.8,0     C-86.6,439.1-86.6,402.3-86.6,365.4z"
   id="path2" />
			<path
   d="M82.1,475.9c0-0.5,0-0.9,0-1.3c0-14.1,0-28.2,0-42.4c0-0.6,0.2-1.3,0.5-1.9c2.7-5.4,5.9-10.4,9.5-15.5     c0,20.5,0,40.8,0,61.1C88.9,475.9,85.6,475.9,82.1,475.9z"
   id="path4" />
			<path
   d="M82.2,406.2c0-13.7,0-27.1,0-40.8c2.9,1.7,5.5,3.5,8.3,5c1.4,0.8,1.8,1.7,1.8,3.2c-0.1,6.4,0,12.8-0.1,19.2     c0,0.6-0.3,1.4-0.7,1.9c-2.9,3.7-5.9,7.4-8.9,11.1C82.6,405.9,82.5,406,82.2,406.2z"
   id="path6" />
			<path
   d="M-19.5,476c0-7.3,0-14.4,0-21.7c2.4,2,4.5,3.9,6.8,5.7c1.1,0.9,1.5,1.8,1.4,3.1c-0.1,3.9-0.1,7.8,0,11.8     c0,0.9-0.2,1.2-1.1,1.2C-14.8,475.9-17.1,476-19.5,476z"
   id="path8" />
			<path
   d="M-19.1,365.7c3.7,1.6,7.5,3.3,11.2,4.9c1.9,0.8,3.8,1.6,5.7,2.5c1.1,0.5,2.1,1.3,3.4,2.1c-2,2.2-3.8,4-5.8,6.1     c-4.9-5.2-9.8-10.3-14.6-15.4C-19.1,365.8-19.1,365.8-19.1,365.7z"
   id="path10" />
			<path
   d="M2.1,461.3c2.7-2.3,5.4-4.6,8.4-7.1c0,2,0.2,3.8-0.1,5.5c-0.1,0.7-1.3,1.6-2.1,1.7c-2,0.2-4.1,0.1-6.2,0.1     C2.1,461.5,2.1,461.4,2.1,461.3z"
   id="path12" />
		</g>
	</g>
</g>
<path
   style="fill:#ffffff;stroke-width:0.174491"
   d="M 10.905669,64.820409 V 9.5912151 l 30.230513,0.046509 c 26.496216,0.040764 30.286529,0.078841 30.683981,0.3082454 0.249406,0.1439555 2.051687,1.9499335 4.005069,4.0132865 1.953381,2.063353 6.492195,6.836692 10.086252,10.607421 l 6.534647,6.85587 0.453196,-0.413698 c 0.24926,-0.227536 1.380251,-1.220744 2.513318,-2.207128 1.841184,-1.602835 7.517685,-7.422692 15.327835,-15.714919 2.12725,-2.258558 2.87737,-2.942865 3.4803,-3.1749658 0.71158,-0.2739225 3.00476,-0.2965731 30.91492,-0.3053587 l 30.14633,-0.00949 -0.0467,23.5998675 -0.0467,23.599867 -1.32902,2.268379 c -4.48303,7.651653 -8.16759,15.234788 -11.06418,22.771036 -1.01602,2.643438 -1.53022,3.472027 -2.4272,3.911228 -0.67238,0.329229 -0.69168,0.329229 -1.30585,0 -0.43071,-0.230886 -0.68756,-0.530101 -0.83104,-0.968095 -0.11421,-0.348659 -0.7982,-4.785085 -1.51997,-9.858724 -1.52989,-10.754274 -1.75229,-11.604164 -3.53529,-13.510341 -1.25799,-1.344887 -2.04142,-1.635733 -4.42279,-1.641924 -2.33316,-0.0061 -3.26113,0.246309 -4.8796,1.327077 -1.87875,1.254581 -2.81897,2.960276 -3.15495,5.723527 -0.2189,1.800362 -0.0423,3.798575 0.52838,5.977203 1.04316,3.982694 11.58901,32.807752 12.97892,35.475392 1.00953,1.93759 2.58838,3.15171 4.68254,3.60083 1.42769,0.30618 4.41454,0.11411 5.46163,-0.35123 1.01016,-0.44893 2.03516,-1.37994 2.6171,-2.37715 0.22403,-0.38388 1.12569,-2.9358 2.0037,-5.67095 1.72056,-5.359813 5.94776,-17.798047 6.04876,-17.798047 0.0339,0 0.0616,7.734647 0.0616,17.188107 v 17.18811 l -19.06311,-0.0444 -19.06311,-0.0444 -0.21218,-2.61736 c -0.14679,-1.81077 -0.20071,-6.70413 -0.17499,-15.87866 0.032,-11.406107 -0.006,-13.7495 -0.26851,-16.751106 -0.16813,-1.919398 -0.38525,-6.00248 -0.48249,-9.073517 -0.0972,-3.071036 -0.2508,-7.694022 -0.34126,-10.273302 -0.13975,-3.984715 -0.12644,-4.763137 0.0885,-5.178845 0.26625,-0.514874 1.25549,-1.143925 7.40235,-4.707109 4.29977,-2.492474 6.80964,-4.07769 8.83504,-5.580146 2.20858,-1.638344 2.98607,-2.732509 3.16354,-4.45206 0.35812,-3.469795 -5.23211,-6.450532 -8.9846,-4.79063 -0.42549,0.188216 -1.37395,0.917224 -2.10768,1.620015 -2.69829,2.584527 -4.58801,3.94603 -9.61524,6.927567 -3.32838,1.973992 -3.0629,1.912385 -5.32531,1.235781 -2.47227,-0.739369 -5.62945,-0.345475 -7.27188,0.907251 -1.18518,0.903966 -1.58014,1.874089 -1.64726,4.046081 -0.0467,1.512222 -0.13176,1.986656 -0.49259,2.748264 -0.43028,0.90821 -0.48279,0.948018 -3.92773,2.977684 -1.92039,1.131443 -6.1782,3.591193 -9.4618,5.466111 -5.62566,3.212227 -6.13055,3.462867 -8.749222,4.343388 -3.811046,1.281449 -5.26658,2.323111 -5.891351,4.216187 -0.340972,1.033158 -0.138531,2.787362 0.469787,4.070823 1.42445,3.005373 4.492643,4.351759 7.56659,3.320374 2.202246,-0.738908 3.501246,-1.568266 11.816816,-7.544571 5.67936,-4.081683 6.82363,-4.78918 8.43845,-5.217457 0.70378,-0.186652 0.88085,-0.172081 1.47831,0.121666 0.7889,0.387866 1.16867,0.975014 1.57072,2.428439 0.36474,1.318557 0.35753,2.752626 -0.0898,17.882831 -0.18873,6.382894 -0.39739,15.707981 -0.46368,20.722401 l -0.12055,9.11714 h -4.85802 -4.85802 l -0.0446,-15.52897 -0.0446,-15.528968 -5.32197,4.48272 c -11.152349,9.393688 -13.983283,11.743508 -14.147911,11.743508 -0.09346,0 -4.466782,-3.60881 -9.718492,-8.019578 l -9.548562,-8.019577 -0.04457,15.435435 -0.04457,15.43543 H 42.225807 10.905669 Z"
   id="path160"
   transform="translate(-97.5,355.8)" /><path
   style="fill:#ffffff;stroke-width:0.174491"
   d="m 80.920062,120.09354 -2.835474,-0.0526 v -10.6517 -10.651696 l 1.265058,1.056935 c 4.716189,3.940301 6.156538,5.230551 6.44086,5.769651 0.295212,0.55976 0.320654,1.14371 0.320654,7.35977 0,7.7211 0.07876,7.32723 -1.452012,7.26119 -0.496987,-0.0215 -2.179575,-0.0626 -3.739086,-0.0916 z"
   id="path199"
   transform="translate(-97.5,355.8)" /><path
   style="fill:#ffffff;stroke-width:0.174491"
   d="m 85.78208,17.844206 c -3.875835,-4.095407 -6.974608,-7.470316 -6.886162,-7.499798 0.137197,-0.04573 5.391024,2.203338 14.435722,6.179678 1.236123,0.543439 2.905866,1.414552 3.710543,1.935807 l 1.463045,0.947736 -0.64348,0.722005 c -0.841822,0.944547 -4.921412,5.173092 -4.984162,5.166142 -0.02669,-0.003 -3.219671,-3.356163 -7.095506,-7.45157 z"
   id="path238"
   transform="translate(-97.5,355.8)" /><path
   style="fill:#ffffff;stroke-width:0.174491"
   d="m 100.37527,104.98845 c 1.62617,-1.43641 7.35408,-6.226714 7.44546,-6.226714 0.056,0 0.10165,1.079661 0.1015,2.399244 -3.2e-4,2.85438 -0.18031,3.37675 -1.37948,4.00378 -0.71682,0.37481 -0.97452,0.40211 -3.79568,0.40211 h -3.02664 z"
   id="path277"
   transform="translate(-97.5,355.8)" /><path
   style="fill:#ffffff;stroke-width:0.174491"
   d="m 179.6792,97.758415 0.0462,-22.291187 1.33778,-2.55724 c 0.73578,-1.406482 1.944,-3.565804 2.68494,-4.798494 1.33639,-2.223323 5.64699,-8.784656 5.77126,-8.784656 0.0356,0 0.0648,13.662622 0.0648,30.361382 v 30.36138 h -4.97559 -4.97558 z"
   id="path316"
   transform="translate(-97.5,355.8)" /><path
   style="fill:#ffffff;stroke-width:0.174491"
   d="M 179.81267,29.958888 V 9.7691478 l 1.87577,1.1668502 c 1.03168,0.641768 2.9716,1.818422 4.31094,2.614787 2.74149,1.630079 3.1579,1.982194 3.49227,2.95311 0.32611,0.946931 0.1671,20.81701 -0.17303,21.622323 -0.17121,0.40537 -8.60325,11.106429 -9.34259,11.856643 -0.10151,0.102998 -0.16336,-7.479162 -0.16336,-20.023973 z"
   id="path355"
   transform="translate(-97.5,355.8)" /></svg>
