<?xml version="1.0" encoding="UTF-8"?>
<!DOCTYPE svg PUBLIC "-//W3C//DTD SVG 1.1//EN" "http://www.w3.org/Graphics/SVG/1.1/DTD/svg11.dtd">
<svg xmlns="http://www.w3.org/2000/svg" version="1.1" width="333px" height="120px" style="shape-rendering:geometricPrecision; text-rendering:geometricPrecision; image-rendering:optimizeQuality; fill-rule:evenodd; clip-rule:evenodd" xmlns:xlink="http://www.w3.org/1999/xlink">
<g><path style="opacity:1" fill="#ffa0fc" d="M -0.5,-0.5 C 18.1667,-0.5 36.8333,-0.5 55.5,-0.5C 55.369,0.238911 55.5357,0.905578 56,1.5C 57.3876,0.446361 58.8876,0.279695 60.5,1C 66.3438,3.50726 71.8438,6.67393 77,10.5C 80.7039,6.96427 84.2039,3.2976 87.5,-0.5C 107.833,-0.5 128.167,-0.5 148.5,-0.5C 150.508,1.26762 152.674,2.93429 155,4.5C 155.333,10.1667 155.667,15.8333 156,21.5C 159.825,13.8347 165.659,11.668 173.5,15C 177.283,20.417 177.283,25.917 173.5,31.5C 165.529,34.9709 159.696,40.6375 156,48.5C 155.833,70.1744 155.333,91.841 154.5,113.5C 152.228,114.441 150.228,115.774 148.5,117.5C 128.511,118.5 108.511,118.833 88.5,118.5C 88.6666,104.829 88.4999,91.1626 88,77.5C 82.2785,81.9139 75.7785,83.4139 68.5,82C 67.3333,80.8333 66.1667,79.6667 65,78.5C 64.6667,90.1667 64.3333,101.833 64,113.5C 61.4944,115.863 58.6611,117.53 55.5,118.5C 55.1752,102.256 55.5086,86.0891 56.5,70C 56,69.5 55.5,69 55,68.5C 54.5001,85.1633 54.3334,101.83 54.5,118.5C 36.1667,118.5 17.8333,118.5 -0.5,118.5C -0.5,78.8333 -0.5,39.1667 -0.5,-0.5 Z"/></g>
<g><path style="opacity:1" fill="#fffcfe" d="M 164.5,15.5 C 174.518,15.8615 177.018,20.5282 172,29.5C 164.409,33.4232 158.409,39.0898 154,46.5C 149,55.1667 144,63.8333 139,72.5C 137.262,78.0731 135.929,83.7398 135,89.5C 129.283,94.2079 125.283,92.8746 123,85.5C 120.308,75.3969 117.308,65.3969 114,55.5C 113.333,52.5 113.333,49.5 114,46.5C 117.048,42.9905 120.381,42.6572 124,45.5C 124.799,51.4853 125.465,57.4853 126,63.5C 127.133,65.2112 128.633,65.7112 130.5,65C 138.546,46.1416 149.879,29.6416 164.5,15.5 Z"/></g>
<g><path style="opacity:1" fill="#fffcfe" d="M 119.5,22.5 C 125.243,22.7163 127.076,25.383 125,30.5C 119.573,34.2641 113.907,37.5974 108,40.5C 107.903,57.4994 108.236,74.4994 109,91.5C 111,95.5 111,99.5 109,103.5C 106.503,105.478 103.669,105.978 100.5,105C 99.3333,104.5 98.5,103.667 98,102.5C 97.7242,96.9027 96.8909,91.4027 95.5,86C 96.8236,73.4847 96.8236,60.9847 95.5,48.5C 90.6421,49.5956 86.3088,51.7623 82.5,55C 78.9738,57.0261 76.3071,59.8595 74.5,63.5C 67.5253,65.3559 65.0253,62.6892 67,55.5C 75.5066,50.8257 84.0066,45.9924 92.5,41C 91.903,32.9218 95.403,30.0885 103,32.5C 106.09,31.1366 109.256,29.97 112.5,29C 114.703,26.6278 117.037,24.4611 119.5,22.5 Z"/></g>
<g><path style="opacity:1" fill="#ffa6fc" d="M 198.5,48.5 C 236.501,48.3333 274.501,48.5 312.5,49C 327.829,54.3845 333.996,65.2178 331,81.5C 328.201,89.6321 322.701,95.1321 314.5,98C 275.5,98.6667 236.5,98.6667 197.5,98C 186.275,93.7329 180.275,85.5663 179.5,73.5C 180.328,60.7938 186.661,52.4604 198.5,48.5 Z"/></g>
<g><path style="opacity:1" fill="#ffd3fd" d="M 324.5,84.5 C 329.859,70.0627 325.526,59.896 311.5,54C 273.144,53.191 234.811,53.3576 196.5,54.5C 198.148,53.0735 200.148,52.2401 202.5,52C 237.833,51.3333 273.167,51.3333 308.5,52C 324.658,56.1469 330.658,66.3135 326.5,82.5C 326.253,83.7133 325.586,84.38 324.5,84.5 Z"/></g>
<g><path style="opacity:1" fill="#ffa1fc" d="M 324.5,84.5 C 322.037,86.4611 319.703,88.6278 317.5,91C 314.688,92.5489 311.688,93.3822 308.5,93.5C 272.833,93.5 237.167,93.5 201.5,93.5C 196.948,92.5576 192.948,90.5576 189.5,87.5C 182.295,74.3744 184.628,63.3744 196.5,54.5C 234.811,53.3576 273.144,53.191 311.5,54C 325.526,59.896 329.859,70.0627 324.5,84.5 Z"/></g>
<g><path style="opacity:1" fill="#ffd8fd" d="M 196.5,54.5 C 184.628,63.3744 182.295,74.3744 189.5,87.5C 184.593,82.5637 182.76,76.5637 184,69.5C 185.475,62.1968 189.642,57.1968 196.5,54.5 Z"/></g>
<g><path style="opacity:1" fill="#fffbfe" d="M 211.5,62.5 C 221.273,62.0525 230.939,62.5525 240.5,64C 241.643,70.4184 241.81,76.9184 241,83.5C 240.097,84.7014 238.931,85.5348 237.5,86C 229.167,86.6667 220.833,86.6667 212.5,86C 208.992,82.8574 207.659,78.8574 208.5,74C 207.957,69.612 208.957,65.7787 211.5,62.5 Z"/></g>
<g><path style="opacity:1" fill="#fffafe" d="M 247.5,62.5 C 257.273,62.0525 266.939,62.5525 276.5,64C 277.643,70.4184 277.81,76.9184 277,83.5C 276.097,84.7014 274.931,85.5348 273.5,86C 265.167,86.6667 256.833,86.6667 248.5,86C 244.992,82.8574 243.659,78.8574 244.5,74C 243.957,69.612 244.957,65.7787 247.5,62.5 Z"/></g>
<g><path style="opacity:1" fill="#ffa0fc" d="M 251.5,68.5 C 258.167,68.5 264.833,68.5 271.5,68.5C 271.5,72.1667 271.5,75.8333 271.5,79.5C 264.833,79.5 258.167,79.5 251.5,79.5C 251.5,75.8333 251.5,72.1667 251.5,68.5 Z"/></g>
<g><path style="opacity:1" fill="#fffcfe" d="M 302.5,69.5 C 302.5,70.8333 302.5,72.1667 302.5,73.5C 296.31,73.1771 290.31,73.5104 284.5,74.5C 289.985,75.3272 295.652,75.8272 301.5,76C 304.373,79.5786 304.04,82.7452 300.5,85.5C 294.167,85.5 287.833,85.5 281.5,85.5C 281.5,84.1667 281.5,82.8333 281.5,81.5C 287.167,81.5 292.833,81.5 298.5,81.5C 299.043,81.44 299.376,81.1067 299.5,80.5C 294.208,79.5052 288.875,79.1718 283.5,79.5C 279.96,76.7452 279.627,73.5786 282.5,70C 289.158,69.5004 295.825,69.3337 302.5,69.5 Z"/></g>
<g><path style="opacity:1" fill="#ffe3fd" d="M 302.5,69.5 C 303.451,70.9187 303.784,72.5853 303.5,74.5C 297.167,74.5 290.833,74.5 284.5,74.5C 290.31,73.5104 296.31,73.1771 302.5,73.5C 302.5,72.1667 302.5,70.8333 302.5,69.5 Z"/></g>
<g><path style="opacity:1" fill="#ffcefd" d="M 235.5,68.5 C 236.483,72.2984 236.817,76.2984 236.5,80.5C 229.167,80.5 221.833,80.5 214.5,80.5C 214.5,76.1667 214.5,71.8333 214.5,67.5C 221.687,67.1755 228.687,67.5088 235.5,68.5 Z"/></g>
<g><path style="opacity:1" fill="#ffa0fc" d="M 235.5,68.5 C 235.5,72.1667 235.5,75.8333 235.5,79.5C 228.833,79.5 222.167,79.5 215.5,79.5C 215.5,75.8333 215.5,72.1667 215.5,68.5C 222.167,68.5 228.833,68.5 235.5,68.5 Z"/></g>
<g><path style="opacity:1" fill="#ffc0fd" d="M 251.5,68.5 C 251.5,72.1667 251.5,75.8333 251.5,79.5C 258.167,79.5 264.833,79.5 271.5,79.5C 264.687,80.4912 257.687,80.8245 250.5,80.5C 250.183,76.2984 250.517,72.2984 251.5,68.5 Z"/></g>
<g><path style="opacity:1" fill="#ffddfd" d="M 283.5,79.5 C 288.875,79.1718 294.208,79.5052 299.5,80.5C 299.376,81.1067 299.043,81.44 298.5,81.5C 293.5,80.8333 288.5,80.1667 283.5,79.5 Z"/></g>
<g><path style="opacity:1" fill="#ffdafd" d="M 281.5,81.5 C 281.5,82.8333 281.5,84.1667 281.5,85.5C 287.833,85.5 294.167,85.5 300.5,85.5C 294.021,86.4907 287.354,86.824 280.5,86.5C 280.216,84.5853 280.549,82.9187 281.5,81.5 Z"/></g>
<g><path style="opacity:1" fill="#ffdbfd" d="M 189.5,87.5 C 192.948,90.5576 196.948,92.5576 201.5,93.5C 201.5,94.1667 201.167,94.5 200.5,94.5C 195.578,93.8867 191.911,91.5534 189.5,87.5 Z"/></g>
<g><path style="opacity:1" fill="#ffbcfd" d="M 201.5,93.5 C 237.167,93.5 272.833,93.5 308.5,93.5C 273.167,94.1667 237.833,94.8333 202.5,95.5C 201.508,95.6716 200.842,95.3382 200.5,94.5C 201.167,94.5 201.5,94.1667 201.5,93.5 Z"/></g>
<g><path style="opacity:1" fill="#ffdefd" d="M 324.5,84.5 C 321.741,90.412 317.074,93.912 310.5,95C 274.502,95.5 238.502,95.6667 202.5,95.5C 237.833,94.8333 273.167,94.1667 308.5,93.5C 311.688,93.3822 314.688,92.5489 317.5,91C 319.703,88.6278 322.037,86.4611 324.5,84.5 Z"/></g>
</svg>
