<?xml version="1.0" encoding="UTF-8"?>
<!DOCTYPE svg PUBLIC "-//W3C//DTD SVG 1.1//EN" "http://www.w3.org/Graphics/SVG/1.1/DTD/svg11.dtd">
<svg xmlns="http://www.w3.org/2000/svg" version="1.1" width="337px" height="120px" style="shape-rendering:geometricPrecision; text-rendering:geometricPrecision; image-rendering:optimizeQuality; fill-rule:evenodd; clip-rule:evenodd" xmlns:xlink="http://www.w3.org/1999/xlink">
<g><path style="opacity:1" fill="#81a4dd" d="M 4.5,3.5 C 21.9952,2.33807 39.6619,2.17141 57.5,3C 58.0442,3.71719 58.7109,4.21719 59.5,4.5C 59.3505,5.55198 59.5172,6.55198 60,7.5C 63.342,12.0079 67.1754,16.0079 71.5,19.5C 73.1897,17.4807 74.8564,15.4807 76.5,13.5C 80.1724,10.1603 83.8391,6.82698 87.5,3.5C 105.662,2.17264 123.662,2.17264 141.5,3.5C 140.527,13.0838 140.194,22.7504 140.5,32.5C 140.068,33.7095 139.401,34.7095 138.5,35.5C 138.5,25.5 138.5,15.5 138.5,5.5C 121.487,5.16718 104.487,5.50051 87.5,6.5C 86.4756,7.85181 85.4756,9.18514 84.5,10.5C 80.478,14.521 76.1446,18.1877 71.5,21.5C 70.8333,21.3333 70.1667,21.1667 69.5,21C 65.33,15.6638 60.6633,10.8304 55.5,6.5C 39.6754,5.50364 23.6754,5.1703 7.5,5.5C 23.6615,4.66852 39.9949,4.16852 56.5,4C 39.1699,3.50006 21.8365,3.33339 4.5,3.5 Z"/></g>
<g><path style="opacity:1" fill="#af85d7" d="M 138.5,35.5 C 138.167,35.5 137.833,35.5 137.5,35.5C 137.5,25.8333 137.5,16.1667 137.5,6.5C 121.153,6.16722 104.82,6.50055 88.5,7.5C 87.7174,9.28818 86.3841,10.2882 84.5,10.5C 85.4756,9.18514 86.4756,7.85181 87.5,6.5C 104.487,5.50051 121.487,5.16718 138.5,5.5C 138.5,15.5 138.5,25.5 138.5,35.5 Z"/></g>
<g><path style="opacity:1" fill="#ca74d4" d="M 55.5,6.5 C 60.6633,10.8304 65.33,15.6638 69.5,21C 70.1667,21.1667 70.8333,21.3333 71.5,21.5C 76.1446,18.1877 80.478,14.521 84.5,10.5C 86.3841,10.2882 87.7174,9.28818 88.5,7.5C 104.82,6.50055 121.153,6.16722 137.5,6.5C 137.5,16.1667 137.5,25.8333 137.5,35.5C 132.959,44.2417 128.125,52.9084 123,61.5C 122,56.1667 121,50.8333 120,45.5C 119.292,44.6195 118.458,43.9528 117.5,43.5C 116.192,42.7677 114.858,41.9344 113.5,41C 114.381,40.2917 115.047,39.4584 115.5,38.5C 122.142,35.732 123.809,31.232 120.5,25C 118.305,23.627 115.971,23.2937 113.5,24C 107.066,30.0465 99.3998,33.0465 90.5,33C 88.9981,35.5741 87.9981,38.4074 87.5,41.5C 80.6158,45.4416 73.6158,49.1082 66.5,52.5C 63.1553,56.0847 62.6553,60.0847 65,64.5C 67.4973,66.4782 70.3307,66.9782 73.5,66C 77.7086,59.4341 83.3752,55.1008 90.5,53C 91.7675,62.1238 91.7675,71.2905 90.5,80.5C 89.8335,75.6511 89.1668,70.6511 88.5,65.5C 83.1083,71.0616 77.275,76.0616 71,80.5C 66.6783,76.0122 62.1783,71.6789 57.5,67.5C 56.5006,82.8189 56.1673,98.1522 56.5,113.5C 40.1667,113.5 23.8333,113.5 7.5,113.5C 7.5,77.8333 7.5,42.1667 7.5,6.5C 23.5,6.5 39.5,6.5 55.5,6.5 Z"/></g>
<g><path style="opacity:1" fill="#c8a0d6" d="M 141.5,3.5 C 145.032,4.85391 148.198,6.85391 151,9.5C 151.262,13.0696 151.429,16.4029 151.5,19.5C 147.586,23.6878 143.919,28.0212 140.5,32.5C 140.194,22.7504 140.527,13.0838 141.5,3.5 Z"/></g>
<g><path style="opacity:1" fill="#b089dd" d="M 7.5,5.5 C 23.6754,5.1703 39.6754,5.50364 55.5,6.5C 39.5,6.5 23.5,6.5 7.5,6.5C 7.5,42.1667 7.5,77.8333 7.5,113.5C 6.16667,77.5 6.16667,41.5 7.5,5.5 Z"/></g>
<g><path style="opacity:1" fill="#7da8d3" d="M 4.5,3.5 C 21.8365,3.33339 39.1699,3.50006 56.5,4C 39.9949,4.16852 23.6615,4.66852 7.5,5.5C 6.16667,41.5 6.16667,77.5 7.5,113.5C 21.9943,114.331 36.6609,114.831 51.5,115C 53.0581,115.21 54.3915,115.71 55.5,116.5C 38.458,116.529 21.6247,116.529 5,116.5C 4.59826,115.128 4.09826,113.795 3.5,112.5C 4.49342,76.2098 4.82676,39.8765 4.5,3.5 Z"/></g>
<g><path style="opacity:1" fill="#c7a0d5" d="M 59.5,4.5 C 64.4741,6.6519 69.4741,8.81856 74.5,11C 75.3805,11.7083 76.0472,12.5416 76.5,13.5C 74.8564,15.4807 73.1897,17.4807 71.5,19.5C 67.1754,16.0079 63.342,12.0079 60,7.5C 59.5172,6.55198 59.3505,5.55198 59.5,4.5 Z"/></g>
<g><path style="opacity:1" fill="#f3e3f5" d="M 155.5,17.5 C 157.199,17.3398 158.866,17.5065 160.5,18C 158.942,18.21 157.609,18.71 156.5,19.5C 154.265,20.2279 152.432,21.5612 151,23.5C 146.616,29.0445 142.449,34.7111 138.5,40.5C 137.542,40.9528 136.708,41.6195 136,42.5C 132.358,50.45 128.192,58.1167 123.5,65.5C 122.504,65.5858 121.671,65.2524 121,64.5C 120,58.5 119,52.5 118,46.5C 117.617,45.944 117.117,45.6107 116.5,45.5C 108.964,44.9195 106.464,48.2528 109,55.5C 109.383,56.056 109.883,56.3893 110.5,56.5C 110.263,57.791 110.596,58.791 111.5,59.5C 113.045,68.5991 115.711,77.2658 119.5,85.5C 119.733,87.0618 120.4,88.3951 121.5,89.5C 122.659,90.5135 124.659,90.8468 127.5,90.5C 122.189,92.5337 118.356,90.867 116,85.5C 113.923,77.1929 111.423,69.1929 108.5,61.5C 106.794,56.6472 106.294,51.6472 107,46.5C 109.984,43.8999 113.484,42.8999 117.5,43.5C 118.458,43.9528 119.292,44.6195 120,45.5C 121,50.8333 122,56.1667 123,61.5C 128.125,52.9084 132.959,44.2417 137.5,35.5C 137.833,35.5 138.167,35.5 138.5,35.5C 139.401,34.7095 140.068,33.7095 140.5,32.5C 143.919,28.0212 147.586,23.6878 151.5,19.5C 152.605,18.3995 153.938,17.7329 155.5,17.5 Z"/></g>
<g><path style="opacity:1" fill="#b691d4" d="M 116.5,45.5 C 115.365,47.2132 113.698,47.8799 111.5,47.5C 111.037,50.4824 110.704,53.4824 110.5,56.5C 109.883,56.3893 109.383,56.056 109,55.5C 106.464,48.2528 108.964,44.9195 116.5,45.5 Z"/></g>
<g><path style="opacity:0.98" fill="#7ea9d8" d="M 325.5,46.5 C 327.135,47.8146 328.801,47.8146 330.5,46.5C 331.833,47.1667 332.833,48.1667 333.5,49.5C 332.23,70.966 332.23,92.2993 333.5,113.5C 330.973,114.214 328.473,114.88 326,115.5C 278.799,114.523 231.632,114.19 184.5,114.5C 184.5,92.1667 184.5,69.8333 184.5,47.5C 231.67,47.8321 278.67,47.4988 325.5,46.5 Z"/></g>
<g><path style="opacity:1" fill="#f6f7fc" d="M 329.5,50.5 C 329.5,70.8333 329.5,91.1667 329.5,111.5C 282.5,111.5 235.5,111.5 188.5,111.5C 187.503,91.3402 187.17,71.0069 187.5,50.5C 234.833,50.5 282.167,50.5 329.5,50.5 Z"/></g>
<g><path style="opacity:1" fill="#ba89d0" d="M 138.5,40.5 C 137.327,44.355 135.994,48.1883 134.5,52C 131.187,56.1269 128.521,60.6269 126.5,65.5C 125.386,66.7759 124.386,66.7759 123.5,65.5C 128.192,58.1167 132.358,50.45 136,42.5C 136.708,41.6195 137.542,40.9528 138.5,40.5 Z"/></g>
<g><path style="opacity:1" fill="#c59ed7" d="M 151.5,45.5 C 150.768,66.6011 150.602,87.9345 151,109.5C 147.701,112.226 144.201,114.559 140.5,116.5C 140.5,98.8333 140.5,81.1667 140.5,63.5C 142.664,56.4899 146.331,50.4899 151.5,45.5 Z"/></g>
<g><path style="opacity:1" fill="#80acdb" d="M 156.5,19.5 C 164.949,20.5668 166.782,24.9001 162,32.5C 154.719,36.1143 149.052,41.4476 145,48.5C 140.934,56.2968 136.601,63.9635 132,71.5C 130.343,76.7746 129.01,82.1079 128,87.5C 126.211,89.229 124.044,89.8957 121.5,89.5C 120.4,88.3951 119.733,87.0618 119.5,85.5C 118.601,76.1454 115.934,67.4787 111.5,59.5C 110.596,58.791 110.263,57.791 110.5,56.5C 110.704,53.4824 111.037,50.4824 111.5,47.5C 113.698,47.8799 115.365,47.2132 116.5,45.5C 117.117,45.6107 117.617,45.944 118,46.5C 119,52.5 120,58.5 121,64.5C 121.671,65.2524 122.504,65.5858 123.5,65.5C 124.386,66.7759 125.386,66.7759 126.5,65.5C 128.521,60.6269 131.187,56.1269 134.5,52C 135.994,48.1883 137.327,44.355 138.5,40.5C 142.449,34.7111 146.616,29.0445 151,23.5C 152.432,21.5612 154.265,20.2279 156.5,19.5 Z"/></g>
<g><path style="opacity:1" fill="#ab93d2" d="M 111.5,59.5 C 115.934,67.4787 118.601,76.1454 119.5,85.5C 115.711,77.2658 113.045,68.5991 111.5,59.5 Z"/></g>
<g><path style="opacity:1" fill="#e2e7f1" d="M 155.5,17.5 C 166.189,16.782 169.689,21.782 166,32.5C 163.592,34.9561 160.759,36.7894 157.5,38C 154.906,40.0865 152.906,42.5865 151.5,45.5C 146.331,50.4899 142.664,56.4899 140.5,63.5C 139.026,64.4363 138.026,65.7697 137.5,67.5C 136.662,67.8417 136.328,68.5084 136.5,69.5C 134.766,71.0904 133.6,73.0904 133,75.5C 132.667,78.8333 132.333,82.1667 132,85.5C 130.951,87.6175 129.451,89.2842 127.5,90.5C 124.659,90.8468 122.659,90.5135 121.5,89.5C 124.044,89.8957 126.211,89.229 128,87.5C 129.01,82.1079 130.343,76.7746 132,71.5C 136.601,63.9635 140.934,56.2968 145,48.5C 149.052,41.4476 154.719,36.1143 162,32.5C 166.782,24.9001 164.949,20.5668 156.5,19.5C 157.609,18.71 158.942,18.21 160.5,18C 158.866,17.5065 157.199,17.3398 155.5,17.5 Z"/></g>
<g><path style="opacity:1" fill="#f2e8f7" d="M 115.5,38.5 C 112.559,39.8198 109.559,41.1531 106.5,42.5C 106.167,45.5 105.833,48.5 105.5,51.5C 105.956,64.0031 106.622,76.3365 107.5,88.5C 110.385,99.2772 106.385,104.111 95.5,103C 94.6667,102.167 93.8333,101.333 93,100.5C 91.9589,96.0942 91.1256,91.7609 90.5,87.5C 90.5,85.1667 90.5,82.8333 90.5,80.5C 91.7675,71.2905 91.7675,62.1238 90.5,53C 83.3752,55.1008 77.7086,59.4341 73.5,66C 70.3307,66.9782 67.4973,66.4782 65,64.5C 62.6553,60.0847 63.1553,56.0847 66.5,52.5C 73.6158,49.1082 80.6158,45.4416 87.5,41.5C 87.9981,38.4074 88.9981,35.5741 90.5,33C 99.3998,33.0465 107.066,30.0465 113.5,24C 115.971,23.2937 118.305,23.627 120.5,25C 123.809,31.232 122.142,35.732 115.5,38.5 Z"/></g>
<g><path style="opacity:1" fill="#7eacdc" d="M 119.5,27.5 C 121.074,30.4304 120.408,32.9304 117.5,35C 113.076,37.2949 108.576,39.4616 104,41.5C 103.333,56.1667 103.333,70.8333 104,85.5C 107.347,90.8437 107.181,96.0104 103.5,101C 100.462,101.885 97.7954,101.385 95.5,99.5C 96.1471,98.7261 96.4805,97.7261 96.5,96.5C 95.8333,92.8333 95.1667,89.1667 94.5,85.5C 95.5969,74.8538 95.7636,64.1871 95,53.5C 94.7645,51.8807 93.9311,50.8807 92.5,50.5C 92.2648,49.9033 91.7648,49.5699 91,49.5C 83.3334,52.5641 77.1667,57.3975 72.5,64C 69.7058,64.9724 67.7058,64.1391 66.5,61.5C 67.3037,59.8113 68.3037,58.1446 69.5,56.5C 76.2482,52.1275 83.2482,48.2941 90.5,45C 91.8333,42 93.1667,39 94.5,36C 99.2101,35.6249 103.877,34.9582 108.5,34C 110.585,32.9586 112.252,31.4586 113.5,29.5C 115.631,28.8313 117.631,28.1646 119.5,27.5 Z"/></g>
<g><path style="opacity:1" fill="#b48dd1" d="M 119.5,27.5 C 117.631,28.1646 115.631,28.8313 113.5,29.5C 112.252,31.4586 110.585,32.9586 108.5,34C 103.877,34.9582 99.2101,35.6249 94.5,36C 93.1667,39 91.8333,42 90.5,45C 83.2482,48.2941 76.2482,52.1275 69.5,56.5C 68.3037,58.1446 67.3037,59.8113 66.5,61.5C 65.3871,60.0536 65.2204,58.3869 66,56.5C 73.6751,51.7386 81.5084,47.0719 89.5,42.5C 89.7241,35.5877 93.0574,32.921 99.5,34.5C 104.929,33.2875 109.596,30.7875 113.5,27C 115.712,26.2109 117.712,26.3775 119.5,27.5 Z"/></g>
<g><path style="opacity:1" fill="#c988cd" d="M 115.5,38.5 C 115.047,39.4584 114.381,40.2917 113.5,41C 114.858,41.9344 116.192,42.7677 117.5,43.5C 113.484,42.8999 109.984,43.8999 107,46.5C 106.294,51.6472 106.794,56.6472 108.5,61.5C 107.507,70.3178 107.173,79.3178 107.5,88.5C 106.622,76.3365 105.956,64.0031 105.5,51.5C 105.833,48.5 106.167,45.5 106.5,42.5C 109.559,41.1531 112.559,39.8198 115.5,38.5 Z"/></g>
<g><path style="opacity:1" fill="#ca7ad3" d="M 264.5,69.5 C 268.594,68.7046 271.761,70.038 274,73.5C 278.322,85.2089 274.489,93.0423 262.5,97C 252.785,97.6009 249.285,93.1009 252,83.5C 252.901,80.9293 254.234,78.596 256,76.5C 259.023,74.3024 261.856,71.969 264.5,69.5 Z"/></g>
<g><path style="opacity:1" fill="#c978d2" d="M 234.5,68.5 C 245.155,66.8286 249.822,71.1619 248.5,81.5C 245.42,82.7885 242.586,84.4552 240,86.5C 240.215,89.811 240.215,93.1443 240,96.5C 235.05,100.843 230.716,100.177 227,94.5C 225.802,90.1912 226.802,86.5245 230,83.5C 229.549,77.7841 231.049,72.7841 234.5,68.5 Z"/></g>
<g><path style="opacity:1" fill="#f7f3f9" d="M 237.5,75.5 C 238.5,75.5 239.5,75.5 240.5,75.5C 240.778,77.3464 240.111,78.6798 238.5,79.5C 237.571,78.3112 237.238,76.9778 237.5,75.5 Z"/></g>
<g><path style="opacity:1" fill="#c97ad1" d="M 293.5,92.5 C 289.998,94.0751 286.331,95.4085 282.5,96.5C 281,96.5472 280,95.8805 279.5,94.5C 281.332,93.9432 282.665,92.9432 283.5,91.5C 284.801,89.544 284.301,87.8774 282,86.5C 281.333,84.5 281.333,82.5 282,80.5C 286.075,77.0195 290.575,76.1861 295.5,78C 296.833,79.3333 296.833,80.6667 295.5,82C 287.577,81.9901 286.743,84.1568 293,88.5C 293.49,89.7932 293.657,91.1266 293.5,92.5 Z"/></g>
<g><path style="opacity:1" fill="#949ed9" d="M 90.5,80.5 C 90.5,82.8333 90.5,85.1667 90.5,87.5C 89.507,95.9839 89.1736,104.651 89.5,113.5C 88.8333,101.5 88.1667,89.5 87.5,77.5C 86.4647,75.795 86.4647,74.1284 87.5,72.5C 87,72.1667 86.5,71.8333 86,71.5C 83.318,74.5148 80.318,77.1814 77,79.5C 77.1433,80.8649 77.6433,82.1982 78.5,83.5C 76.2655,83.3801 74.0989,83.7135 72,84.5C 70.6974,84.0217 69.5307,83.355 68.5,82.5C 65.5375,79.0359 62.3709,75.7025 59,72.5C 58.5001,87.1629 58.3334,101.83 58.5,116.5C 57.3478,117.625 56.3478,117.625 55.5,116.5C 54.3915,115.71 53.0581,115.21 51.5,115C 36.6609,114.831 21.9943,114.331 7.5,113.5C 23.8333,113.5 40.1667,113.5 56.5,113.5C 56.1673,98.1522 56.5006,82.8189 57.5,67.5C 62.1783,71.6789 66.6783,76.0122 71,80.5C 77.275,76.0616 83.1083,71.0616 88.5,65.5C 89.1668,70.6511 89.8335,75.6511 90.5,80.5 Z"/></g>
<g><path style="opacity:1" fill="#c49cd7" d="M 87.5,77.5 C 87.4431,78.609 87.1098,79.609 86.5,80.5C 83.977,81.8008 81.3103,82.8008 78.5,83.5C 77.6433,82.1982 77.1433,80.8649 77,79.5C 80.318,77.1814 83.318,74.5148 86,71.5C 86.5,71.8333 87,72.1667 87.5,72.5C 86.4647,74.1284 86.4647,75.795 87.5,77.5 Z"/></g>
<g><path style="opacity:1" fill="#c59ed7" d="M 68.5,82.5 C 68.6665,91.8393 68.4998,101.173 68,110.5C 65,112.833 62,115.167 59,117.5C 58.6012,117.272 58.4346,116.938 58.5,116.5C 58.3334,101.83 58.5001,87.1629 59,72.5C 62.3709,75.7025 65.5375,79.0359 68.5,82.5 Z"/></g>
<g><path style="opacity:1" fill="#c975d2" d="M 108.5,61.5 C 111.423,69.1929 113.923,77.1929 116,85.5C 118.356,90.867 122.189,92.5337 127.5,90.5C 129.451,89.2842 130.951,87.6175 132,85.5C 132.333,82.1667 132.667,78.8333 133,75.5C 133.6,73.0904 134.766,71.0904 136.5,69.5C 137.496,83.9905 137.829,98.6572 137.5,113.5C 121.5,113.5 105.5,113.5 89.5,113.5C 89.1736,104.651 89.507,95.9839 90.5,87.5C 91.1256,91.7609 91.9589,96.0942 93,100.5C 93.8333,101.333 94.6667,102.167 95.5,103C 106.385,104.111 110.385,99.2772 107.5,88.5C 107.173,79.3178 107.507,70.3178 108.5,61.5 Z"/></g>
<g><path style="opacity:1" fill="#f5eff9" d="M 264.5,78.5 C 265.5,78.5 266.5,78.5 267.5,78.5C 267.962,85.7096 264.628,90.0429 257.5,91.5C 257.372,89.3453 257.872,87.3453 259,85.5C 260.842,83.1364 262.675,80.8031 264.5,78.5 Z"/></g>
<g><path style="opacity:1" fill="#b388d3" d="M 92.5,50.5 C 93.9311,50.8807 94.7645,51.8807 95,53.5C 95.7636,64.1871 95.5969,74.8538 94.5,85.5C 95.1667,89.1667 95.8333,92.8333 96.5,96.5C 96.4805,97.7261 96.1471,98.7261 95.5,99.5C 94.6855,94.4312 93.6855,89.2645 92.5,84C 93.7798,72.7755 93.7798,61.6088 92.5,50.5 Z"/></g>
<g><path style="opacity:1" fill="#fefffe" d="M 233.5,91.5 C 235.337,91.6395 235.67,92.3061 234.5,93.5C 233.702,93.0431 233.369,92.3764 233.5,91.5 Z"/></g>
<g><path style="opacity:0.999" fill="#c485cb" d="M 283.5,91.5 C 282.665,92.9432 281.332,93.9432 279.5,94.5C 280,95.8805 281,96.5472 282.5,96.5C 286.331,95.4085 289.998,94.0751 293.5,92.5C 289.024,97.5409 283.858,98.5409 278,95.5C 277.51,94.2068 277.343,92.8734 277.5,91.5C 279.5,91.5 281.5,91.5 283.5,91.5 Z"/></g>
<g><path style="opacity:1" fill="#d2e3f6" d="M 329.5,50.5 C 330.497,70.9933 330.831,91.6599 330.5,112.5C 282.997,112.832 235.664,112.499 188.5,111.5C 235.5,111.5 282.5,111.5 329.5,111.5C 329.5,91.1667 329.5,70.8333 329.5,50.5 Z"/></g>
<g><path style="opacity:1" fill="#a58cd8" d="M 137.5,67.5 C 138.496,82.9911 138.83,98.6578 138.5,114.5C 121.991,114.83 105.658,114.496 89.5,113.5C 105.5,113.5 121.5,113.5 137.5,113.5C 137.829,98.6572 137.496,83.9905 136.5,69.5C 136.328,68.5084 136.662,67.8417 137.5,67.5 Z"/></g>
<g><path style="opacity:1" fill="#84a7d6" d="M 140.5,63.5 C 140.5,81.1667 140.5,98.8333 140.5,116.5C 122.5,116.5 104.5,116.5 86.5,116.5C 86.5,104.5 86.5,92.5 86.5,80.5C 87.1098,79.609 87.4431,78.609 87.5,77.5C 88.1667,89.5 88.8333,101.5 89.5,113.5C 105.658,114.496 121.991,114.83 138.5,114.5C 138.83,98.6578 138.496,82.9911 137.5,67.5C 138.026,65.7697 139.026,64.4363 140.5,63.5 Z"/></g>
</svg>
