<?xml version="1.0" encoding="UTF-8" standalone="no"?>
<!-- Created with Inkscape (http://www.inkscape.org/) -->

<svg
   xmlns:dc="http://purl.org/dc/elements/1.1/"
   xmlns:cc="http://creativecommons.org/ns#"
   xmlns:rdf="http://www.w3.org/1999/02/22-rdf-syntax-ns#"
   xmlns:svg="http://www.w3.org/2000/svg"
   xmlns="http://www.w3.org/2000/svg"
   xmlns:sodipodi="http://sodipodi.sourceforge.net/DTD/sodipodi-0.dtd"
   xmlns:inkscape="http://www.inkscape.org/namespaces/inkscape"
   width="430"
   height="65"
   id="svg2898"
   version="1.1"
   inkscape:version="0.47 r22583"
   sodipodi:docname="münchen tv Logo.svg">
  <defs
     id="defs2900">
    <inkscape:perspective
       sodipodi:type="inkscape:persp3d"
       inkscape:vp_x="0 : 526.18109 : 1"
       inkscape:vp_y="0 : 1000 : 0"
       inkscape:vp_z="744.09448 : 526.18109 : 1"
       inkscape:persp3d-origin="372.04724 : 350.78739 : 1"
       id="perspective2906" />
    <inkscape:perspective
       id="perspective2893"
       inkscape:persp3d-origin="0.5 : 0.33333333 : 1"
       inkscape:vp_z="1 : 0.5 : 1"
       inkscape:vp_y="0 : 1000 : 0"
       inkscape:vp_x="0 : 0.5 : 1"
       sodipodi:type="inkscape:persp3d" />
  </defs>
  <sodipodi:namedview
     id="base"
     pagecolor="#ffffff"
     bordercolor="#ffffff"
     borderopacity="1.0"
     inkscape:pageopacity="0.0"
     inkscape:pageshadow="2"
     inkscape:zoom="1.9404326"
     inkscape:cx="215"
     inkscape:cy="32.5"
     inkscape:document-units="px"
     inkscape:current-layer="layer1"
     showgrid="false"
     inkscape:window-width="1280"
     inkscape:window-height="1005"
     inkscape:window-x="-4"
     inkscape:window-y="-4"
     inkscape:window-maximized="1" />
  <metadata
     id="metadata2903">
    <rdf:RDF>
      <cc:Work
         rdf:about="">
        <dc:format>image/svg+xml</dc:format>
        <dc:type
           rdf:resource="http://purl.org/dc/dcmitype/StillImage" />
        <dc:title />
      </cc:Work>
    </rdf:RDF>
  </metadata>
  <g
     inkscape:label="Ebene 1"
     inkscape:groupmode="layer"
     id="layer1"
     transform="translate(-16.224753,-385.89183)">
    <g
       style="font-size:108.75531769px;font-style:normal;font-variant:normal;font-weight:normal;font-stretch:normal;text-align:center;line-height:100%;writing-mode:lr-tb;text-anchor:middle;fill:#ffffff;fill-opacity:1;stroke:none;font-family:Officina Serif ITC TT;-inkscape-font-specification:Officina Serif ITC TT"
       id="text2822"
       transform="matrix(0.75861461,0,0,0.75861461,7.7808247,106.42345)">
      <path
         d="m 100.29041,447.30073 c -9e-5,1.0156 -0.616305,1.5234 -1.848654,1.5234 l -16.966467,0 c -1.232505,0 -1.848722,-0.61622 -1.848655,-1.84866 l 0,-34.47724 c -6.7e-5,-2.97152 -0.362385,-5.05527 -1.086956,-6.25124 -0.724702,-1.19588 -2.029601,-1.79385 -3.9147,-1.79389 -2.827804,4e-5 -5.908892,1.52233 -9.243272,4.56687 l 0,29.69132 5.655488,0 c 1.013326,10e-6 1.520019,0.61623 1.520079,1.84865 l 0,6.74079 c -6e-5,1.0156 -0.506753,1.5234 -1.520079,1.5234 l -17.401249,0 c -1.232476,0 -1.848694,-0.61622 -1.848654,-1.84866 l 0,-33.38862 c -4e-5,-2.97153 -0.181475,-5.00162 -0.544308,-6.09027 -0.652765,-2.02895 -2.103144,-3.04344 -4.351142,-3.04348 -2.537921,4e-5 -5.582501,1.52233 -9.133747,4.56687 l 0,29.69132 5.545963,0 c 1.015567,10e-6 1.523365,0.5067 1.523398,1.52008 l 0,7.06936 c -3.3e-5,1.0156 -0.507831,1.5234 -1.523398,1.5234 l -24.795867,0 c -1.015603,0 -1.523402,-0.5078 -1.523397,-1.5234 l 0,-7.06936 c -5e-6,-1.01338 0.507794,-1.52007 1.523397,-1.52008 l 5.545964,0 0,-24.25488 c -1.2e-5,-3.55124 -0.362883,-6.63232 -1.088615,-9.24327 l -5.220707,0 c -1.01339,4e-5 -1.520083,-0.50776 -1.520079,-1.5234 l 0,-7.06936 c -4e-6,-1.01333 0.506689,-1.52002 1.520079,-1.52008 l 15.117812,0 c 1.015577,6e-5 1.722512,0.32586 2.120809,0.97743 0.39825,0.65167 0.887242,2.24643 1.466975,4.78427 5.365605,-5.07352 10.659323,-7.6103 15.88117,-7.61035 5.582427,5e-5 9.533078,2.53683 11.851967,7.61035 5.438594,-5.07352 11.022166,-7.6103 16.750735,-7.61035 5.292543,5e-5 8.88143,2.06554 10.76667,6.19647 1.013306,2.3211 1.519998,6.23635 1.520079,11.74576 l 0,27.51741 5.549283,0 c 1.013298,10e-6 1.519988,0.5067 1.520078,1.52008 z"
         id="path2821" />
      <path
         d="m 152.06269,379.54771 c -4e-5,2.02905 -0.72523,3.78698 -2.17557,5.27381 -1.45042,1.48695 -3.22661,2.23039 -5.32857,2.23033 -2.03124,6e-5 -3.78972,-0.74338 -5.27547,-2.23033 -1.48582,-1.48683 -2.22871,-3.24476 -2.22867,-5.27381 -4e-5,-2.10193 0.74285,-3.87812 2.22867,-5.32858 1.48575,-1.4503 3.28074,-2.17549 5.385,-2.17557 2.02894,8e-5 3.76862,0.74297 5.21904,2.22868 1.45034,1.48585 2.17553,3.24434 2.17557,5.27547 z m -19.2499,0 c -3e-5,2.02905 -0.72522,3.78698 -2.17557,5.27381 -1.45041,1.48695 -3.2266,2.23039 -5.32857,2.23033 -2.03122,6e-5 -3.78971,-0.74338 -5.27547,-2.23033 -1.4858,-1.48683 -2.22869,-3.24476 -2.22868,-5.27381 -1e-5,-2.10193 0.74288,-3.87812 2.22868,-5.32858 1.48576,-1.4503 3.28076,-2.17549 5.38499,-2.17557 2.02896,8e-5 3.76864,0.74297 5.21905,2.22868 1.45035,1.48585 2.17554,3.24434 2.17557,5.27547 z m 29.79752,67.75302 c -6e-5,1.0156 -0.50675,1.5234 -1.52007,1.5234 l -14.57351,0 c -0.94262,0 -1.59535,-0.2539 -1.95818,-0.7617 -0.36291,-0.5078 -0.79769,-1.84921 -1.30435,-4.02423 -2.68396,2.53789 -5.11343,4.27813 -7.28841,5.22071 -2.17505,0.94258 -4.82135,1.41387 -7.93892,1.41387 -7.46766,0 -12.25247,-2.86425 -14.35446,-8.59276 -0.79877,-2.17501 -1.19815,-6.38011 -1.19814,-12.61532 l 0,-24.25156 -5.54596,0 c -1.0156,4e-5 -1.5234,-0.50776 -1.5234,-1.5234 l 0,-7.06936 c 0,-1.01333 0.5078,-1.52002 1.5234,-1.52008 l 17.6203,0 c 1.15939,6e-5 1.7391,0.57976 1.73913,1.73913 l 0,31.97475 c -3e-5,4.0602 0.32634,6.70651 0.97909,7.93893 1.01557,1.95598 2.79121,2.93396 5.32691,2.93395 2.90073,1e-5 5.80149,-1.34084 8.70228,-4.02257 l 0,-30.45135 -5.65548,0 c -0.94262,4e-5 -1.41391,-0.50776 -1.41388,-1.5234 l 0,-7.06936 c -3e-5,-1.01333 0.47126,-1.52002 1.41388,-1.52008 l 17.7265,0 c 1.15937,6e-5 1.73908,0.57976 1.73913,1.73913 l 0,32.73479 c -5e-5,3.55351 0.36282,6.59919 1.08862,9.13707 l 4.89545,0 c 1.01332,10e-6 1.52001,0.5067 1.52007,1.52008 z"
         id="path2823" />
      <path
         d="m 227.12736,447.30073 c -6e-5,1.0156 -0.50786,1.5234 -1.5234,1.5234 l -17.61698,0 c -1.23248,0 -1.84869,-0.61622 -1.84865,-1.84866 l 0,-33.49815 c -4e-5,-6.01611 -1.99362,-9.02418 -5.98075,-9.02422 -2.97381,4e-5 -6.09251,1.48582 -9.35612,4.45735 l 0,29.80084 5.54929,0 c 1.01335,10e-6 1.52004,0.5067 1.52008,1.52008 l 0,7.06936 c -4e-5,1.0156 -0.50673,1.5234 -1.52008,1.5234 l -24.9054,0 c -1.0156,0 -1.5234,-0.5078 -1.52339,-1.5234 l 0,-7.06936 c -1e-5,-1.01338 0.50779,-1.52007 1.52339,-1.52008 l 5.54597,0 0,-24.25488 c -1e-5,-3.55124 -0.36289,-6.63232 -1.08862,-9.24327 l -5.2207,0 c -1.01339,4e-5 -1.52009,-0.50776 -1.52008,-1.5234 l 0,-7.06936 c -1e-5,-1.01333 0.50669,-1.52002 1.52008,-1.52008 l 15.11781,0 c 0.94256,6e-5 1.61354,0.32586 2.01294,0.97743 0.39936,0.65167 0.8889,2.21103 1.46864,4.67806 5.50942,-5.00271 11.05538,-7.50409 16.63789,-7.50414 9.35274,5e-5 14.02914,5.72745 14.02919,17.1822 l 0,28.27744 5.65549,0 c 1.01554,10e-6 1.52334,0.5067 1.5234,1.52008 z"
         id="path2825" />
      <path
         d="m 272.56045,446.21543 c -4e-5,1.08641 -1.6313,2.1009 -4.89379,3.04348 -3.26256,0.94258 -6.70707,1.41387 -10.33354,1.41387 -7.6845,0 -13.61103,-2.39241 -17.77961,-7.17723 -4.16861,-4.7848 -6.25291,-11.60026 -6.2529,-20.44638 -1e-5,-9.35276 2.24747,-16.65721 6.74244,-21.91336 4.49495,-5.25606 10.72959,-7.88411 18.70394,-7.88416 1.81211,5e-5 4.09665,0.2534 6.85363,0.76004 3.26138,0.65278 5.36338,1.41392 6.306,2.28343 0.28981,0.28991 0.43474,0.83422 0.43478,1.63293 l 0,14.67971 c -4e-5,1.01563 -0.50673,1.52343 -1.52008,1.52339 l -8.04845,0 c -1.01563,4e-5 -1.52343,-0.50776 -1.52339,-1.52339 l 0,-8.15466 c -0.72578,-0.14599 -1.59534,-0.21901 -2.6087,-0.21905 -7.32383,4e-5 -10.98574,6.09031 -10.98572,18.27081 -2e-5,6.01838 0.88835,10.38667 2.66512,13.10487 1.77672,2.71823 4.65867,4.07734 8.64586,4.07733 2.82771,1e-5 5.69085,-0.65161 8.58944,-1.95486 0.50887,-0.21904 0.87174,-0.32856 1.08861,-0.32858 0.36284,2e-5 0.61729,0.18145 0.76336,0.54431 l 2.82775,7.17889 c 0.21679,0.57971 0.32521,0.94258 0.32525,1.08861 z"
         id="path2827" />
      <path
         d="m 333.81497,447.30073 c -6e-5,1.0156 -0.50676,1.5234 -1.52008,1.5234 l -17.51078,0 c -1.23247,0 -1.84869,-0.61622 -1.84865,-1.84866 l 0,-33.49815 c -4e-5,-3.3344 -0.45308,-5.6903 -1.35911,-7.0677 -0.90611,-1.37732 -2.44666,-2.066 -4.62164,-2.06605 -2.97381,5e-5 -6.0914,1.48583 -9.3528,4.45735 l 0,29.91037 5.54597,0 c 1.01557,10e-6 1.52336,0.5067 1.52339,1.52008 l 0,7.06936 c -3e-5,1.0156 -0.50782,1.5234 -1.52339,1.5234 l -24.9054,0 c -1.0156,0 -1.5234,-0.5078 -1.52339,-1.5234 l 0,-7.06936 c -10e-6,-1.01338 0.50779,-1.52007 1.52339,-1.52008 l 5.54597,0 0,-57.74971 -5.98075,0 c -1.0156,7e-5 -1.5234,-0.50773 -1.5234,-1.5234 l 0,-7.06936 c 0,-1.01552 0.5078,-1.52332 1.5234,-1.5234 l 18.27082,0 c 1.01557,8e-5 1.52337,0.50788 1.52339,1.5234 l 0,27.18883 c 4.27699,-4.20395 9.24324,-6.30595 14.89877,-6.306 5.72846,5e-5 9.75213,1.95712 12.07101,5.87122 1.44922,2.46492 2.17386,6.19873 2.17391,11.20145 l 0,28.38697 5.54929,0 c 1.01332,10e-6 1.52002,0.5067 1.52008,1.52008 z"
         id="path2829" />
      <path
         d="m 385.39143,423.04917 c -5e-5,1.73915 -0.7977,2.60872 -2.39296,2.60869 l -29.25654,0 c 0.21682,9.13598 4.24049,13.70395 12.07102,13.70394 4.06015,10e-6 8.19334,-1.124 12.39959,-3.37205 0.50665,-0.28984 0.97794,-0.43477 1.41388,-0.43478 0.50664,10e-6 0.90492,0.32638 1.19482,0.97909 l 2.72153,6.52505 c 0.2168,0.50891 0.32521,0.90829 0.32526,1.19814 -5e-5,0.94259 -1.48693,2.0666 -4.46067,3.37206 -4.71294,2.02898 -9.7157,3.04347 -15.00828,3.04347 -6.88795,0 -12.28898,-1.77674 -16.20311,-5.33023 -5.43866,-5.00275 -8.15798,-12.65182 -8.15798,-22.94721 0,-8.77306 2.17557,-15.8236 6.52672,-21.15166 4.35112,-5.32797 10.11558,-7.99198 17.29338,-7.99203 14.35552,5e-5 21.53329,9.93255 21.53334,29.79752 z m -14.4673,-7.50414 c -0.0708,-4.49604 -0.72246,-7.68665 -1.95486,-9.57185 -1.23247,-1.88512 -3.22715,-2.8277 -5.98406,-2.82775 -3.18843,5e-5 -5.50837,1.34201 -6.95984,4.02589 -0.9426,1.81218 -1.63073,4.60342 -2.06439,8.37371 z"
         id="path2831" />
      <path
         d="m 450.79795,447.30073 c -6e-5,1.0156 -0.50786,1.5234 -1.52339,1.5234 l -17.61698,0 c -1.23248,0 -1.8487,-0.61622 -1.84866,-1.84866 l 0,-33.49815 c -4e-5,-6.01611 -1.99362,-9.02418 -5.98075,-9.02422 -2.97381,4e-5 -6.09251,1.48582 -9.35611,4.45735 l 0,29.80084 5.54928,0 c 1.01335,10e-6 1.52005,0.5067 1.52008,1.52008 l 0,7.06936 c -3e-5,1.0156 -0.50673,1.5234 -1.52008,1.5234 l -24.90539,0 c -1.01561,0 -1.5234,-0.5078 -1.5234,-1.5234 l 0,-7.06936 c 0,-1.01338 0.50779,-1.52007 1.5234,-1.52008 l 5.54596,0 0,-24.25488 c -10e-6,-3.55124 -0.36288,-6.63232 -1.08861,-9.24327 l -5.22071,0 c -1.01339,4e-5 -1.52008,-0.50776 -1.52008,-1.5234 l 0,-7.06936 c 0,-1.01333 0.50669,-1.52002 1.52008,-1.52008 l 15.11781,0 c 0.94256,6e-5 1.61354,0.32586 2.01294,0.97743 0.39936,0.65167 0.88891,2.21103 1.46864,4.67806 5.50942,-5.00271 11.05538,-7.50409 16.63789,-7.50414 9.35275,5e-5 14.02914,5.72745 14.0292,17.1822 l 0,28.27744 5.65549,0 c 1.01553,10e-6 1.52333,0.5067 1.52339,1.52008 z"
         id="path2833" />
      <path
         d="m 479.91843,440.23137 c -3e-5,2.90077 -0.99737,5.34793 -2.99203,7.34151 -1.99471,1.99358 -4.44133,2.99037 -7.33986,2.99038 -2.90077,-1e-5 -5.34794,-1.01505 -7.34152,-3.04514 -1.99358,-2.03009 -2.99037,-4.4944 -2.99037,-7.39296 0,-2.82773 1.03274,-5.23894 3.09824,-7.23365 2.06548,-1.99467 4.54861,-2.99201 7.44938,-2.99203 2.75471,2e-5 5.12942,1.01506 7.12413,3.04514 1.99466,2.0301 2.992,4.45902 2.99203,7.28675 z"
         id="path2835" />
      <path
         d="m 523.29707,446.43117 c -4e-5,0.86956 -1.12406,1.66721 -3.37205,2.39296 -3.84338,1.23243 -7.46877,1.84865 -10.8762,1.84865 -6.37904,0 -10.76558,-2.28343 -13.15963,-6.85031 -1.08641,-2.10421 -1.62961,-5.51276 -1.62961,-10.22568 l 0,-28.38365 -7.50414,0 c -1.23244,4e-5 -1.84865,-0.61618 -1.84865,-1.84866 l 0,-6.41552 c 0,-1.23239 0.61621,-1.8486 1.84865,-1.84866 l 7.50414,0 0,-13.70394 c 0,-1.15935 0.5797,-1.81208 1.73913,-1.95818 l 10.00663,-1.41387 0.97909,0 c 0.72351,7e-5 1.08528,0.57978 1.0853,1.73913 l 0,15.33686 12.39959,0 c 1.2324,6e-5 1.84862,0.36182 1.84866,1.0853 -4e-5,0.43594 -0.0366,0.7623 -0.10953,0.97909 l -1.41387,6.41884 c -0.21687,1.08645 -0.8696,1.62965 -1.95818,1.62961 l -10.76667,0 0,26.42879 c -2e-5,2.82776 0.21792,4.60339 0.65383,5.32691 0.65271,1.08863 1.77672,1.63293 3.37205,1.63292 1.6683,10e-6 4.06126,-0.6162 7.17889,-1.84865 0.36063,-0.14602 0.68588,-0.21904 0.97577,-0.21905 0.50887,10e-6 0.87174,0.36288 1.08862,1.08861 l 1.73913,7.61367 c 0.14599,0.65273 0.21901,1.05101 0.21905,1.19483 z"
         id="path2837" />
      <path
         d="m 574.09027,403.68974 c -6e-5,1.01564 -0.50785,1.52344 -1.5234,1.5234 l -3.69731,0 -15.33686,44.26482 c -0.36069,0.94258 -1.04882,1.41387 -2.06439,1.41387 l -9.02754,0 c -1.08642,0 -1.77455,-0.47129 -2.06439,-1.41387 l -15.22733,-44.26482 -3.58779,0 c -1.0156,4e-5 -1.52339,-0.50776 -1.5234,-1.5234 l 0,-7.06936 c 10e-6,-1.01333 0.5078,-1.52002 1.5234,-1.52008 l 13.48489,0 c 1.08639,6e-5 1.77562,0.50675 2.06771,1.52008 l 6.85031,24.14535 c 1.01557,3.69734 2.17499,8.95344 3.47826,15.76833 1.52447,-7.32158 2.79342,-12.57769 3.80683,-15.76833 l 7.39794,-24.14535 c 0.28981,-1.01333 0.97794,-1.52002 2.06438,-1.52008 l 11.85529,0 c 1.01555,6e-5 1.52334,0.50675 1.5234,1.52008 z"
         id="path2839" />
    </g>
  </g>
</svg>
