<?xml version="1.0" encoding="UTF-8"?>
<!DOCTYPE svg PUBLIC "-//W3C//DTD SVG 1.1//EN" "http://www.w3.org/Graphics/SVG/1.1/DTD/svg11.dtd">
<svg xmlns="http://www.w3.org/2000/svg" version="1.1" width="671px" height="78px" style="shape-rendering:geometricPrecision; text-rendering:geometricPrecision; image-rendering:optimizeQuality; fill-rule:evenodd; clip-rule:evenodd" xmlns:xlink="http://www.w3.org/1999/xlink">
<g><path style="opacity:1" fill="#ffffff" d="M 659.5,-0.5 C 661.5,-0.5 663.5,-0.5 665.5,-0.5C 667.5,0.833333 669.167,2.5 670.5,4.5C 670.5,6.16667 670.5,7.83333 670.5,9.5C 667.216,13.6694 663.216,17.1694 658.5,20C 627.403,39.2047 596.403,58.3714 565.5,77.5C 563.5,77.5 561.5,77.5 559.5,77.5C 556.561,76.6909 554.727,74.6909 554,71.5C 553.082,50.1336 553.416,28.8002 555,7.5C 560.068,2.09944 564.735,2.43278 569,8.5C 569.167,23.8442 569.667,39.1775 570.5,54.5C 600.464,36.3663 630.13,18.033 659.5,-0.5 Z"/></g>
<g><path style="opacity:1" fill="#ffffff" d="M -0.5,72.5 C -0.5,50.5 -0.5,28.5 -0.5,6.5C 1.77678,4.123 4.61011,2.78967 8,2.5C 37.1859,2.3756 66.3526,2.54227 95.5,3C 97.8477,3.34588 99.6811,4.51255 101,6.5C 101.667,28.5 101.667,50.5 101,72.5C 97.2103,76.8541 92.877,77.5207 88,74.5C 87.088,72.3415 86.2546,70.1748 85.5,68C 86.4922,51.7361 86.6588,35.5694 86,19.5C 77.5592,18.1847 69.0592,18.1847 60.5,19.5C 60.6297,35.9909 60.4631,52.6576 60,69.5C 56.9273,76.9508 52.0939,78.2842 45.5,73.5C 44.9017,72.2054 44.4017,70.8721 44,69.5C 43.1758,53.2592 43.3425,37.0925 44.5,21C 44.0426,20.586 43.7093,20.086 43.5,19.5C 34.1667,18.1667 24.8333,18.1667 15.5,19.5C 15.9732,37.0438 15.4732,54.7104 14,72.5C 12.7411,75.2168 10.5744,76.5501 7.5,76.5C 4.26911,76.2179 1.60244,74.8846 -0.5,72.5 Z"/></g>
<g><path style="opacity:1" fill="#ffffff" d="M 109.5,3.5 C 112.518,3.33537 115.518,3.50204 118.5,4C 120.049,5.21398 121.215,6.71398 122,8.5C 122.5,25.8301 122.667,43.1635 122.5,60.5C 146.5,60.5 170.5,60.5 194.5,60.5C 194.333,42.8302 194.5,25.1635 195,7.5C 195.956,6.42138 196.789,5.25471 197.5,4C 200.5,3.33333 203.5,3.33333 206.5,4C 208.049,5.21398 209.215,6.71398 210,8.5C 210.667,29.5 210.667,50.5 210,71.5C 209.535,72.9308 208.701,74.0975 207.5,75C 191.089,76.1531 174.589,76.6531 158,76.5C 141.411,76.6531 124.911,76.1531 108.5,75C 107.874,74.2496 107.374,73.4162 107,72.5C 106.333,50.8333 106.333,29.1667 107,7.5C 107.662,6.01608 108.496,4.68275 109.5,3.5 Z"/></g>
<g><path style="opacity:1" fill="#ffffff" d="M 503.5,77.5 C 501.5,77.5 499.5,77.5 497.5,77.5C 495.559,76.3259 494.059,74.6592 493,72.5C 492.5,54.8365 492.333,37.1698 492.5,19.5C 478.829,19.6666 465.163,19.4999 451.5,19C 446.121,16.3514 444.621,12.1847 447,6.5C 447.903,5.29857 449.069,4.46524 450.5,4C 483.167,3.33333 515.833,3.33333 548.5,4C 552.277,6.91087 553.444,10.7442 552,15.5C 550.786,17.0488 549.286,18.2155 547.5,19C 534.504,19.4999 521.504,19.6666 508.5,19.5C 508.667,37.1698 508.5,54.8365 508,72.5C 506.975,74.687 505.475,76.3536 503.5,77.5 Z"/></g>
<g><path style="opacity:1" fill="#df2221" d="M 217.5,4.5 C 220.607,4.35123 223.607,4.85123 226.5,6C 239.5,14.1667 252.5,22.3333 265.5,30.5C 279,22.5843 292.334,14.4176 305.5,6C 316.688,2.52162 320.522,6.35496 317,17.5C 305.414,25.0426 293.914,32.7093 282.5,40.5C 292.7,47.1977 303.033,53.6977 313.5,60C 318.533,63.9 319.7,68.7333 317,74.5C 313.281,76.9082 309.448,77.0749 305.5,75C 292.334,66.5824 279,58.4157 265.5,50.5C 252.5,58.6667 239.5,66.8333 226.5,75C 214.564,78.0677 210.731,73.901 215,62.5C 226.585,55.2915 238.085,47.9582 249.5,40.5C 238.085,33.0418 226.585,25.7085 215,18.5C 211.395,12.9396 212.228,8.27288 217.5,4.5 Z"/></g>
<g><path style="opacity:1" fill="#df2221" d="M 330.5,4.5 C 331.492,4.32842 332.158,4.66175 332.5,5.5C 336.726,9.55465 342.059,12.888 348.5,15.5C 349.492,15.3284 350.158,15.6618 350.5,16.5C 356.722,21.8895 364.055,26.5561 372.5,30.5C 372.56,31.0431 372.893,31.3764 373.5,31.5C 385.052,24.7798 395.719,17.7798 405.5,10.5C 408.494,8.00025 411.827,6.00025 415.5,4.5C 417.292,5.30912 419.292,5.80912 421.5,6C 423.35,6.68972 424.684,7.85639 425.5,9.5C 426.918,14.0763 425.585,17.9096 421.5,21C 411.033,27.3023 400.7,33.8023 390.5,40.5C 392.21,41.8872 393.877,43.2206 395.5,44.5C 402.935,50.2963 411.268,55.7963 420.5,61C 422.402,62.7297 424.069,64.563 425.5,66.5C 427.566,73.047 425.066,76.3804 418,76.5C 416.615,76.4857 415.449,76.1524 414.5,75.5C 401.401,66.7748 388.067,58.2748 374.5,50C 373.563,49.3083 372.897,49.475 372.5,50.5C 360.068,58.8918 347.401,67.0584 334.5,75C 332.846,75.6077 331.179,76.1077 329.5,76.5C 327.208,75.6605 324.875,74.6605 322.5,73.5C 322,72.5 321.5,71.5 321,70.5C 320.601,70.7284 320.435,71.0618 320.5,71.5C 319.283,67.0386 320.616,63.2053 324.5,60C 334.967,53.6977 345.3,47.1977 355.5,40.5C 345.504,33.4998 335.17,26.9998 324.5,21C 320.616,17.7947 319.283,13.9614 320.5,9.5C 320.435,9.93822 320.601,10.2716 321,10.5C 321.583,8.99842 322.416,7.66508 323.5,6.5C 325.982,5.93294 328.316,5.26627 330.5,4.5 Z"/></g>
<g><path style="opacity:1" fill="#df2221" d="M 415.5,4.5 C 418.93,4.10653 422.096,4.77319 425,6.5C 425.483,7.44802 425.649,8.44802 425.5,9.5C 424.684,7.85639 423.35,6.68972 421.5,6C 419.292,5.80912 417.292,5.30912 415.5,4.5 Z"/></g>
<g><path style="opacity:1" fill="#df2221" d="M 330.5,4.5 C 328.316,5.26627 325.982,5.93294 323.5,6.5C 322.416,7.66508 321.583,8.99842 321,10.5C 320.601,10.2716 320.435,9.93822 320.5,9.5C 320.628,7.91021 321.295,6.57688 322.5,5.5C 325.084,4.60724 327.751,4.27391 330.5,4.5 Z"/></g>
<g><path style="opacity:1" fill="#df2221" d="M 332.5,5.5 C 338.178,8.3359 343.511,11.6692 348.5,15.5C 342.059,12.888 336.726,9.55465 332.5,5.5 Z"/></g>
<g><path style="opacity:1" fill="#df2221" d="M 405.5,10.5 C 395.719,17.7798 385.052,24.7798 373.5,31.5C 372.893,31.3764 372.56,31.0431 372.5,30.5C 383.361,23.5709 394.361,16.9042 405.5,10.5 Z"/></g>
<g><path style="opacity:1" fill="#df2221" d="M 350.5,16.5 C 358.18,20.6703 365.513,25.337 372.5,30.5C 364.055,26.5561 356.722,21.8895 350.5,16.5 Z"/></g>
<g><path style="opacity:1" fill="#df2221" d="M 395.5,44.5 C 404.263,49.4131 412.93,54.5798 421.5,60C 423.923,61.5707 425.256,63.7374 425.5,66.5C 424.069,64.563 422.402,62.7297 420.5,61C 411.268,55.7963 402.935,50.2963 395.5,44.5 Z"/></g>
<g><path style="opacity:1" fill="#ffffff" d="M 432.5,60.5 C 437.959,60.1033 443.292,60.6033 448.5,62C 453.241,71.6885 450.241,76.5218 439.5,76.5C 429.444,77.2873 425.944,72.954 429,63.5C 430.145,62.3636 431.312,61.3636 432.5,60.5 Z"/></g>
<g><path style="opacity:1" fill="#df2221" d="M 372.5,50.5 C 372.897,49.475 373.563,49.3083 374.5,50C 388.067,58.2748 401.401,66.7748 414.5,75.5C 400.241,67.6998 386.241,59.3664 372.5,50.5 Z"/></g>
<g><path style="opacity:1" fill="#df2221" d="M 329.5,76.5 C 324.958,77.2355 321.958,75.5688 320.5,71.5C 320.435,71.0618 320.601,70.7284 321,70.5C 321.5,71.5 322,72.5 322.5,73.5C 324.875,74.6605 327.208,75.6605 329.5,76.5 Z"/></g>
</svg>
