<?xml version="1.0" encoding="UTF-8"?>
<!DOCTYPE svg PUBLIC "-//W3C//DTD SVG 1.1//EN" "http://www.w3.org/Graphics/SVG/1.1/DTD/svg11.dtd">
<svg xmlns="http://www.w3.org/2000/svg" version="1.1" width="396px" height="88px" style="shape-rendering:geometricPrecision; text-rendering:geometricPrecision; image-rendering:optimizeQuality; fill-rule:evenodd; clip-rule:evenodd" xmlns:xlink="http://www.w3.org/1999/xlink">
<g><path style="opacity:0.976" fill="#1f0585" d="M 264.5,27.5 C 260.6,28.4299 256.6,28.7633 252.5,28.5C 254.759,23.6428 256.759,18.6428 258.5,13.5C 251.159,13.3337 243.826,13.5003 236.5,14C 231.478,25.2113 226.312,36.3779 221,47.5C 220.907,36.1716 221.073,24.8382 221.5,13.5C 198.831,13.3334 176.164,13.5 153.5,14C 151.771,15.7889 151.104,17.9556 151.5,20.5C 144.067,21.1355 136.734,21.8022 129.5,22.5C 124.916,29.3305 121.083,36.6638 118,44.5C 117.223,37.1767 116.556,29.8434 116,22.5C 109.667,21.1667 103.333,21.1667 97,22.5C 98.5047,33.0529 99.5047,43.7195 100,54.5C 100.479,57.6237 101.646,60.4571 103.5,63C 100.242,63.2117 97.0757,63.7117 94,64.5C 93.2886,67.734 92.4553,70.9006 91.5,74C 91.8333,74.3333 92.1667,74.6667 92.5,75C 99.1667,75.6667 105.833,75.6667 112.5,75C 119.149,73.0235 123.982,68.8568 127,62.5C 133.722,50.7326 140.722,39.0659 148,27.5C 148.483,28.448 148.649,29.448 148.5,30.5C 152.833,30.5 157.167,30.5 161.5,30.5C 159.143,41.9257 156.477,53.259 153.5,64.5C 160.833,64.5 168.167,64.5 175.5,64.5C 177.608,53.3375 180.441,42.3375 184,31.5C 188.401,30.5333 192.901,30.2 197.5,30.5C 198.167,27.1667 198.833,23.8333 199.5,20.5C 200.495,31.988 200.828,43.6547 200.5,55.5C 200.5,58.5 200.5,61.5 200.5,64.5C 211.172,64.6665 221.839,64.4998 232.5,64C 237.385,55.0582 242.385,46.2249 247.5,37.5C 248.404,38.209 248.737,39.209 248.5,40.5C 246.298,50.5723 243.798,60.5723 241,70.5C 240.066,71.8584 239.232,73.1917 238.5,74.5C 222.833,74.5 207.167,74.5 191.5,74.5C 191.666,64.8276 191.5,55.1609 191,45.5C 188.689,54.891 186.189,64.2243 183.5,73.5C 169.5,74.8333 155.5,74.8333 141.5,73.5C 143.981,65.5829 145.814,57.5829 147,49.5C 142,57.8333 137,66.1667 132,74.5C 128.611,79.2194 124.111,82.3861 118.5,84C 105.487,84.8327 92.4872,84.666 79.5,83.5C 80.5805,80.6682 81.5805,77.8349 82.5,75C 54.8353,74.5 27.1687,74.3334 -0.5,74.5C -0.5,72.8333 -0.5,71.1667 -0.5,69.5C 5.86405,48.0555 11.8641,26.3888 17.5,4.5C 48.0647,4.20268 78.7314,4.03601 109.5,4C 109.833,4.33333 110.167,4.66667 110.5,5C 109.76,6.78493 109.093,8.61826 108.5,10.5C 120.482,11.499 132.482,11.8323 144.5,11.5C 144.756,9.06276 145.423,6.72942 146.5,4.5C 189.496,3.33339 232.496,3.16673 275.5,4C 275.833,4.33333 276.167,4.66667 276.5,5C 272.615,12.6063 268.615,20.1063 264.5,27.5 Z"/></g>
<g><path style="opacity:1" fill="#ffffff" d="M 52.5,28.5 C 52.3347,32.1817 52.5014,35.8484 53,39.5C 53.7172,38.9558 54.2172,38.2891 54.5,37.5C 58.5423,29.2919 63.209,21.4585 68.5,14C 77.5,13.3333 86.5,13.3333 95.5,14C 95.9574,14.414 96.2907,14.914 96.5,15.5C 92.0252,31.7288 87.6919,48.0621 83.5,64.5C 76.8333,64.5 70.1667,64.5 63.5,64.5C 64.8366,56.3257 66.3366,48.3257 68,40.5C 63.206,48.5904 58.0394,56.4237 52.5,64C 48.5138,64.4988 44.5138,64.6655 40.5,64.5C 39.9976,56.1364 39.1643,47.803 38,39.5C 35.758,47.9015 33.5913,56.2348 31.5,64.5C 24.8333,64.5 18.1667,64.5 11.5,64.5C 12.2234,59.8269 13.0568,55.1603 14,50.5C 17.2786,38.2109 20.7786,26.0442 24.5,14C 33.5,13.3333 42.5,13.3333 51.5,14C 52.4692,18.7367 52.8025,23.57 52.5,28.5 Z"/></g>
<g><path style="opacity:1" fill="#ffffff" d="M 252.5,28.5 C 251.833,28.5 251.5,28.8333 251.5,29.5C 249.659,31.8485 248.326,34.5152 247.5,37.5C 242.385,46.2249 237.385,55.0582 232.5,64C 221.839,64.4998 211.172,64.6665 200.5,64.5C 200.5,61.5 200.5,58.5 200.5,55.5C 201.66,42.6732 201.827,29.6732 201,16.5C 199.812,17.5634 199.312,18.8967 199.5,20.5C 198.833,23.8333 198.167,27.1667 197.5,30.5C 192.901,30.2 188.401,30.5333 184,31.5C 180.441,42.3375 177.608,53.3375 175.5,64.5C 168.167,64.5 160.833,64.5 153.5,64.5C 156.477,53.259 159.143,41.9257 161.5,30.5C 157.167,30.5 152.833,30.5 148.5,30.5C 148.649,29.448 148.483,28.448 148,27.5C 140.722,39.0659 133.722,50.7326 127,62.5C 123.982,68.8568 119.149,73.0235 112.5,75C 105.833,75.6667 99.1667,75.6667 92.5,75C 92.1667,74.6667 91.8333,74.3333 91.5,74C 92.4553,70.9006 93.2886,67.734 94,64.5C 97.0757,63.7117 100.242,63.2117 103.5,63C 101.646,60.4571 100.479,57.6237 100,54.5C 99.5047,43.7195 98.5047,33.0529 97,22.5C 103.333,21.1667 109.667,21.1667 116,22.5C 116.556,29.8434 117.223,37.1767 118,44.5C 121.083,36.6638 124.916,29.3305 129.5,22.5C 137.243,23.1299 144.576,22.4633 151.5,20.5C 151.104,17.9556 151.771,15.7889 153.5,14C 176.164,13.5 198.831,13.3334 221.5,13.5C 221.073,24.8382 220.907,36.1716 221,47.5C 226.312,36.3779 231.478,25.2113 236.5,14C 243.826,13.5003 251.159,13.3337 258.5,13.5C 256.759,18.6428 254.759,23.6428 252.5,28.5 Z"/></g>
<g><path style="opacity:1" fill="#fa0b83" d="M 390.5,37.5 C 389.596,38.209 389.263,39.209 389.5,40.5C 386.93,48.727 384.763,57.0603 383,65.5C 380.718,68.5683 377.884,71.0683 374.5,73C 362.737,75.7534 350.904,75.92 339,73.5C 329.597,75.998 320.264,75.998 311,73.5C 297.895,74.3012 284.728,74.9679 271.5,75.5C 271.643,77.2624 271.309,78.9291 270.5,80.5C 259.52,81.4988 248.52,81.8321 237.5,81.5C 237.993,79.1944 238.326,76.861 238.5,74.5C 239.232,73.1917 240.066,71.8584 241,70.5C 243.798,60.5723 246.298,50.5723 248.5,40.5C 249.733,36.9936 250.733,33.3269 251.5,29.5C 251.5,28.8333 251.833,28.5 252.5,28.5C 256.6,28.7633 260.6,28.4299 264.5,27.5C 272.403,26.6431 280.237,26.6431 288,27.5C 288.642,25.2381 289.475,23.0715 290.5,21C 301.848,20.1675 313.181,20.3342 324.5,21.5C 323.907,23.3817 323.24,25.2151 322.5,27C 336.674,27.6412 350.841,27.4745 365,26.5C 373.549,26.8203 382.049,27.6536 390.5,29C 391.523,31.7742 391.523,34.6075 390.5,37.5 Z"/></g>
<g><path style="opacity:1" fill="#aea5d4" d="M 151.5,20.5 C 144.576,22.4633 137.243,23.1299 129.5,22.5C 136.734,21.8022 144.067,21.1355 151.5,20.5 Z"/></g>
<g><path style="opacity:1" fill="#c8c1e8" d="M 200.5,55.5 C 200.828,43.6547 200.495,31.988 199.5,20.5C 199.312,18.8967 199.812,17.5634 201,16.5C 201.827,29.6732 201.66,42.6732 200.5,55.5 Z"/></g>
<g><path style="opacity:1" fill="#ffffff" d="M 297.5,31.5 C 301.5,31.5 305.5,31.5 309.5,31.5C 307.219,42.2316 304.552,52.8983 301.5,63.5C 297.555,64.4909 293.555,64.8242 289.5,64.5C 291.355,53.2766 294.021,42.2766 297.5,31.5 Z"/></g>
<g><path style="opacity:1" fill="#62227a" d="M 251.5,29.5 C 250.733,33.3269 249.733,36.9936 248.5,40.5C 248.737,39.209 248.404,38.209 247.5,37.5C 248.326,34.5152 249.659,31.8485 251.5,29.5 Z"/></g>
<g><path style="opacity:1" fill="#8379ad" d="M 52.5,28.5 C 53.1667,31.5 53.8333,34.5 54.5,37.5C 54.2172,38.2891 53.7172,38.9558 53,39.5C 52.5014,35.8484 52.3347,32.1817 52.5,28.5 Z"/></g>
<g><path style="opacity:1" fill="#ffffff" d="M 276.5,36.5 C 283.531,35.3423 287.865,38.1756 289.5,45C 289.174,52.6494 286.174,58.9827 280.5,64C 274.713,66.5821 269.546,65.7488 265,61.5C 264.211,64.8338 263.044,68.0005 261.5,71C 257.514,71.4988 253.514,71.6655 249.5,71.5C 252.013,60.4393 254.847,49.4393 258,38.5C 261.744,37.374 265.577,37.2073 269.5,38C 270.126,38.7504 270.626,39.5838 271,40.5C 272.812,39.0229 274.645,37.6896 276.5,36.5 Z"/></g>
<g><path style="opacity:1" fill="#ffffff" d="M 360.5,36.5 C 365.833,36.9332 371.166,37.4332 376.5,38C 377.308,38.3076 377.975,38.8076 378.5,39.5C 377.907,41.3817 377.24,43.2151 376.5,45C 371.511,45.4993 366.511,45.6659 361.5,45.5C 361.5,46.5 361.5,47.5 361.5,48.5C 366.096,46.6931 370.263,47.3598 374,50.5C 375.92,58.1642 373.087,62.9975 365.5,65C 358.139,65.6833 350.805,65.5167 343.5,64.5C 343.318,62.4086 343.652,60.4086 344.5,58.5C 349.978,57.9546 355.311,57.1213 360.5,56C 346.767,57.2904 343.1,51.957 349.5,40C 353.102,38.2428 356.768,37.0761 360.5,36.5 Z"/></g>
<g><path style="opacity:1" fill="#ffffff" d="M 313.5,37.5 C 318.032,37.0692 322.365,37.5692 326.5,39C 323.961,44.5261 322.627,50.3594 322.5,56.5C 324.144,56.7135 325.644,56.3802 327,55.5C 328.761,49.6146 330.595,43.7813 332.5,38C 336.486,37.5012 340.486,37.3345 344.5,37.5C 343.392,44.996 341.558,52.3293 339,59.5C 334.597,64.358 329.097,66.358 322.5,65.5C 312.269,67.423 307.769,63.423 309,53.5C 310.692,48.1958 312.192,42.8624 313.5,37.5 Z"/></g>
<g><path style="opacity:0.382" fill="#fcb9c5" d="M 390.5,37.5 C 391.885,38.9473 391.552,39.9473 389.5,40.5C 389.263,39.209 389.596,38.209 390.5,37.5 Z"/></g>
<g><path style="opacity:1" fill="#f71084" d="M 269.5,47.5 C 276.129,48.2171 277.129,51.0504 272.5,56C 270.559,56.7429 268.726,56.5762 267,55.5C 266.723,52.4985 267.556,49.8318 269.5,47.5 Z"/></g>
</svg>
