<?xml version="1.0" encoding="UTF-8"?>
<!DOCTYPE svg PUBLIC "-//W3C//DTD SVG 1.1//EN" "http://www.w3.org/Graphics/SVG/1.1/DTD/svg11.dtd">
<svg xmlns="http://www.w3.org/2000/svg" version="1.1" width="640px" height="97px" style="shape-rendering:geometricPrecision; text-rendering:geometricPrecision; image-rendering:optimizeQuality; fill-rule:evenodd; clip-rule:evenodd" xmlns:xlink="http://www.w3.org/1999/xlink">
<g><path style="opacity:1" fill="#ffffff" d="M 299.5,1.5 C 307.42,1.18496 315.253,1.51829 323,2.5C 323.168,12.5166 323.668,22.5166 324.5,32.5C 331.128,27.8424 338.461,26.3424 346.5,28C 352.487,30.462 355.654,34.962 356,41.5C 356.5,53.8288 356.667,66.1622 356.5,78.5C 359.119,78.2317 361.619,78.565 364,79.5C 364.499,83.1516 364.665,86.8183 364.5,90.5C 356.248,90.8158 348.081,90.4825 340,89.5C 339.667,74.5 339.333,59.5 339,44.5C 336.404,40.3098 332.904,39.4764 328.5,42C 326.714,42.7845 325.214,43.9512 324,45.5C 323.5,56.495 323.333,67.495 323.5,78.5C 326.119,78.2317 328.619,78.565 331,79.5C 331.499,83.1516 331.665,86.8183 331.5,90.5C 320.5,90.5 309.5,90.5 298.5,90.5C 298.335,86.8183 298.501,83.1516 299,79.5C 301.381,78.565 303.881,78.2317 306.5,78.5C 306.5,57.1667 306.5,35.8333 306.5,14.5C 303.881,14.7683 301.381,14.435 299,13.5C 298.238,9.41258 298.404,5.41258 299.5,1.5 Z"/></g>
<g><path style="opacity:1" fill="#ffffff" d="M 124.5,3.5 C 135.189,2.54594 139.022,7.21261 136,17.5C 131,22.8333 126,22.8333 121,17.5C 118.267,11.7222 119.434,7.05552 124.5,3.5 Z"/></g>
<g><path style="opacity:1" fill="#ffffff" d="M 146.5,3.5 C 158.218,3.3718 161.551,8.53847 156.5,19C 150.931,22.5913 146.098,21.758 142,16.5C 140.243,10.8252 141.743,6.49184 146.5,3.5 Z"/></g>
<g><path style="opacity:1" fill="#ffffff" d="M 557.5,9.5 C 559.124,9.36007 560.29,10.0267 561,11.5C 561.499,17.4908 561.666,23.4908 561.5,29.5C 572.187,29.168 582.854,29.5013 593.5,30.5C 598.046,44.6387 601.879,58.9721 605,73.5C 608.662,59.0139 612.829,44.6806 617.5,30.5C 623.463,29.5041 629.463,29.1707 635.5,29.5C 635.5,33.5 635.5,37.5 635.5,41.5C 632.921,41.0833 630.754,41.75 629,43.5C 623.333,59.8333 617.667,76.1667 612,92.5C 607,93.8333 602,93.8333 597,92.5C 591.265,75.7957 585.432,59.129 579.5,42.5C 573.537,41.5041 567.537,41.1707 561.5,41.5C 561.333,53.1714 561.5,64.8381 562,76.5C 562.956,77.8941 564.289,78.5607 566,78.5C 569.113,77.3425 572.28,76.8425 575.5,77C 576.727,80.4044 577.727,83.9044 578.5,87.5C 577.811,89.3527 576.478,90.5193 574.5,91C 566.805,94.1507 559.138,94.1507 551.5,91C 549.291,89.1266 547.458,86.96 546,84.5C 544.57,70.2257 544.07,55.8923 544.5,41.5C 534.472,43.7499 531.139,40.0832 534.5,30.5C 537.768,29.513 541.102,29.1796 544.5,29.5C 544.334,23.8236 544.501,18.1569 545,12.5C 549.235,11.3568 553.401,10.3568 557.5,9.5 Z"/></g>
<g><path style="opacity:1" fill="#ffffff" d="M 40.5,27.5 C 48.5371,25.8035 55.0371,28.1368 60,34.5C 67.7811,27.686 76.6145,25.8527 86.5,29C 89.7544,31.3419 91.5877,34.5085 92,38.5C 92.4999,51.8292 92.6666,65.1625 92.5,78.5C 95.1667,78.5 97.8333,78.5 100.5,78.5C 100.5,82.5 100.5,86.5 100.5,90.5C 92.5,90.5 84.5,90.5 76.5,90.5C 76.6666,75.4963 76.4999,60.4963 76,45.5C 75.6807,42.514 74.014,40.8473 71,40.5C 67.5203,41.3153 64.5203,42.9819 62,45.5C 61.5002,56.495 61.3335,67.495 61.5,78.5C 64.1194,78.2317 66.6194,78.565 69,79.5C 69.4986,83.1516 69.6653,86.8183 69.5,90.5C 61.2476,90.8158 53.081,90.4825 45,89.5C 44.6667,74.1667 44.3333,58.8333 44,43.5C 42.9384,42.1007 41.605,41.1007 40,40.5C 36.5203,41.3153 33.5203,42.9819 31,45.5C 30.5002,56.495 30.3335,67.495 30.5,78.5C 32.924,78.1924 35.2573,78.5258 37.5,79.5C 38.8031,83.0316 38.8031,86.5316 37.5,90C 26.8385,90.4998 16.1719,90.6665 5.5,90.5C 5.3347,86.8183 5.50137,83.1516 6,79.5C 8.3806,78.565 10.8806,78.2317 13.5,78.5C 13.7734,66.1294 13.44,53.7961 12.5,41.5C 9.8806,41.7683 7.3806,41.435 5,40.5C 4.21143,36.9085 4.37809,33.4085 5.5,30C 12.5,29.3333 19.5,29.3333 26.5,30C 27.1466,31.6095 27.98,33.1095 29,34.5C 32.5136,31.4999 36.3469,29.1666 40.5,27.5 Z"/></g>
<g><path style="opacity:1" fill="#ffffff" d="M 213.5,27.5 C 222.366,25.4348 229.199,28.1014 234,35.5C 235.43,49.7743 235.93,64.1077 235.5,78.5C 238.167,78.5 240.833,78.5 243.5,78.5C 243.5,82.5 243.5,86.5 243.5,90.5C 235.5,90.5 227.5,90.5 219.5,90.5C 219.667,76.1628 219.5,61.8295 219,47.5C 218.619,43.7166 216.619,41.3833 213,40.5C 209.248,41.3759 205.915,43.0426 203,45.5C 202.5,56.495 202.333,67.495 202.5,78.5C 205.167,78.5 207.833,78.5 210.5,78.5C 210.5,82.5 210.5,86.5 210.5,90.5C 199.833,90.5 189.167,90.5 178.5,90.5C 178.5,86.5 178.5,82.5 178.5,78.5C 181.167,78.5 183.833,78.5 186.5,78.5C 186.728,66.1408 186.395,53.8074 185.5,41.5C 182.833,41.5 180.167,41.5 177.5,41.5C 177.5,37.5 177.5,33.5 177.5,29.5C 184.863,29.1694 192.197,29.5027 199.5,30.5C 199.977,31.931 200.643,33.2643 201.5,34.5C 205.267,31.6215 209.267,29.2882 213.5,27.5 Z"/></g>
<g><path style="opacity:1" fill="#ffffff" d="M 271.5,27.5 C 276.511,27.3341 281.511,27.5007 286.5,28C 289.234,28.2104 291.734,29.0437 294,30.5C 294.5,37.4921 294.666,44.4921 294.5,51.5C 290.167,51.5 285.833,51.5 281.5,51.5C 281.5,47.8333 281.5,44.1667 281.5,40.5C 276.753,40.1357 272.919,41.8023 270,45.5C 267.081,54.7207 266.747,64.0541 269,73.5C 270.26,76.4281 272.427,78.2614 275.5,79C 280.939,79.4671 286.272,79.1338 291.5,78C 293.43,81.3339 294.597,84.8339 295,88.5C 281.697,95.8866 269.03,94.8866 257,85.5C 247.003,69.1791 247.003,52.8458 257,36.5C 261.053,32.066 265.886,29.066 271.5,27.5 Z"/></g>
<g><path style="opacity:1" fill="#ffffff" d="M 390.5,27.5 C 404.641,24.4854 414.474,29.4854 420,42.5C 422.357,49.608 422.857,56.7747 421.5,64C 409.833,64.3333 398.167,64.6667 386.5,65C 387.035,73.5941 391.535,78.4274 400,79.5C 405.173,78.775 410.173,77.4417 415,75.5C 415.833,75.8333 416.667,76.1667 417.5,76.5C 422.805,83.8954 421.138,88.7287 412.5,91C 403.482,94.228 394.482,94.228 385.5,91C 374.433,84.1991 369.433,74.1991 370.5,61C 369.704,45.0525 376.371,33.8859 390.5,27.5 Z M 393.5,39.5 C 402.237,39.2475 406.237,43.5808 405.5,52.5C 399.5,52.5 393.5,52.5 387.5,52.5C 387.218,46.974 389.218,42.6407 393.5,39.5 Z"/></g>
<g><path style="opacity:1" fill="#ffffff" d="M 465.5,27.5 C 471.434,26.8887 477.1,27.722 482.5,30C 485.667,33.155 487.501,36.9883 488,41.5C 488.5,53.8288 488.667,66.1622 488.5,78.5C 491.119,78.2317 493.619,78.565 496,79.5C 496.499,83.1516 496.665,86.8183 496.5,90.5C 488.167,90.5 479.833,90.5 471.5,90.5C 471.667,75.4963 471.5,60.4963 471,45.5C 469.915,42.7495 467.915,41.0828 465,40.5C 461.52,41.3153 458.52,42.9819 456,45.5C 455.5,56.495 455.333,67.495 455.5,78.5C 458.119,78.2317 460.619,78.565 463,79.5C 463.499,83.1516 463.665,86.8183 463.5,90.5C 452.5,90.5 441.5,90.5 430.5,90.5C 430.335,86.8183 430.501,83.1516 431,79.5C 433.381,78.565 435.881,78.2317 438.5,78.5C 438.667,66.8286 438.5,55.1619 438,43.5C 435.799,42.0041 433.299,41.0041 430.5,40.5C 429.415,37.227 429.248,33.8936 430,30.5C 437.086,29.3544 444.253,29.1877 451.5,30C 452.147,31.6095 452.98,33.1095 454,34.5C 457.514,31.4999 461.347,29.1666 465.5,27.5 Z"/></g>
<g><path style="opacity:1" fill="#ffffff" d="M 105.5,29.5 C 113.528,29.169 121.528,29.5023 129.5,30.5C 130.318,45.7889 130.818,61.1222 131,76.5C 135.358,80.2639 139.858,80.2639 144.5,76.5C 145.499,64.8523 145.832,53.1857 145.5,41.5C 137.668,41.7549 135.335,38.0882 138.5,30.5C 146.472,29.5023 154.472,29.169 162.5,29.5C 162.227,45.8616 162.56,62.1949 163.5,78.5C 165.924,78.1924 168.257,78.5258 170.5,79.5C 171.803,83.0316 171.803,86.5316 170.5,90C 163.476,90.8311 156.476,90.6644 149.5,89.5C 149,88.5 148.5,87.5 148,86.5C 137.871,95.3346 127.538,95.668 117,87.5C 115.438,85.0427 114.438,82.376 114,79.5C 113.5,66.8377 113.333,54.1711 113.5,41.5C 110.833,41.5 108.167,41.5 105.5,41.5C 105.5,37.5 105.5,33.5 105.5,29.5 Z"/></g>
<g><path style="opacity:1" fill="#ffffff" d="M 514.5,68.5 C 526.451,68.9479 530.951,74.9479 528,86.5C 526.833,89 525,90.8333 522.5,92C 508.869,94.3693 503.369,88.8693 506,75.5C 507.851,71.8432 510.684,69.5099 514.5,68.5 Z"/></g>
</svg>
