<?xml version="1.0" encoding="UTF-8" standalone="no"?>
<!-- Generator: Adobe Illustrator 24.3.0, SVG Export Plug-In . SVG Version: 6.00 Build 0)  -->

<svg
   version="1.1"
   id="Layer_1"
   x="0px"
   y="0px"
   viewBox="0 0 512 109"
   style="enable-background:new 0 0 512 109;"
   xml:space="preserve"
   sodipodi:docname="N24 Doku.svg"
   inkscape:version="1.1.1 (3bf5ae0d25, 2021-09-20)"
   xmlns:inkscape="http://www.inkscape.org/namespaces/inkscape"
   xmlns:sodipodi="http://sodipodi.sourceforge.net/DTD/sodipodi-0.dtd"
   xmlns="http://www.w3.org/2000/svg"
   xmlns:svg="http://www.w3.org/2000/svg"><defs
   id="defs29" /><sodipodi:namedview
   id="namedview27"
   pagecolor="#ffffff"
   bordercolor="#ffffff"
   borderopacity="1.0"
   inkscape:pageshadow="2"
   inkscape:pageopacity="0.0"
   inkscape:pagecheckerboard="0"
   showgrid="false"
   inkscape:zoom="2.2050781"
   inkscape:cx="256"
   inkscape:cy="54.646591"
   inkscape:window-width="1920"
   inkscape:window-height="1017"
   inkscape:window-x="-8"
   inkscape:window-y="-8"
   inkscape:window-maximized="1"
   inkscape:current-layer="Layer_1" />
<style
   type="text/css"
   id="style2">
	.st0{fill:#ffffff;}
	.st1{fill:#F28725;}
</style>
<g
   transform="translate(75.595 -198.8)"
   id="g24">
	<g
   id="g10">
		<polygon
   class="st0"
   points="-0.8,256.9 -0.8,231.3 10.4,231.3 10.4,275.4 -0.3,275.4 -20.4,249.8 -20.4,275.4 -31.4,275.4     -31.4,231.3 -20.8,231.3   "
   id="polygon4" />
		<path
   class="st0"
   d="M13.8,238.2c5.2-6,10.5-7.8,16.2-7.8c8.9,0,15.2,5.3,15.2,14.4c0,4.9-1.7,8.1-5.6,12l-8.5,8.6h13.5v10H16.1    v-8.2l15.7-15.4c1.4-1.4,2.7-3.6,2.7-6.2c0-3.1-2.3-5.2-5.5-5.2c-3.7,0-6.5,2.1-9.1,4.7L13.8,238.2z"
   id="path6" />
		<polygon
   class="st0"
   points="68.2,268.3 48.8,268.3 48.8,260.7 63.2,231.3 74.5,231.3 61.1,258.4 68.2,258.4 68.2,253.7     71.7,246.8 78.4,246.8 78.4,258.4 83.9,258.4 83.9,268.3 78.4,268.3 78.4,275.4 68.2,275.4   "
   id="polygon8" />
	</g>
	<rect
   x="-75.6"
   y="231.3"
   class="st1"
   width="44.2"
   height="44.1"
   id="rect12" />
	<g
   id="g22">
		<path
   class="st0"
   d="M63.1,200.8H108c35.3,0,56.1,21.2,56.1,52.5c0,35.3-25.5,52.6-53.4,52.6H63.2v-26.2h46.1    c15.3,0,25.1-9.8,25.1-26.3c0-12.8-6.2-26.3-26.6-26.3H63.2L63.1,200.8L63.1,200.8z"
   id="path14" />
		<path
   class="st0"
   d="M163.9,227.1c9.3-17.7,27.8-28.3,49.4-28.3c32,0,55.6,22.6,55.6,54.5c0,32-23.3,54.6-55.6,54.6    c-22.2,0-40.1-10.4-49.5-28.1C171,265.1,171.7,243.4,163.9,227.1L163.9,227.1z M187.5,253.5c0,15,9.8,27,25.7,27    c14.7,0,26-10.4,26-27.3c0-15.6-10.4-26.9-26-26.9C198.4,226.3,187.5,237.1,187.5,253.5L187.5,253.5z"
   id="path16" />
		<path
   class="st0"
   d="M272,240.4h6.6l26.6-39.7h34.8l-38.1,51.4l41.4,53.8h-35.2l-29.6-40.2h-6.3C273.7,258.6,273.7,248,272,240.4    L272,240.4z"
   id="path18" />
		<path
   class="st0"
   d="M343.3,200.7h28.6v59.5c0,12.6,7.4,18.3,17.4,18.3c11.3,0,18.5-5.1,18.5-19.5v-58.3h28.6v60.8    c0,24.9-13.1,44.5-46.7,44.5c-35.5,0-46.4-22.2-46.4-44L343.3,200.7L343.3,200.7z"
   id="path20" />
	</g>
</g>
<path
   style="fill:#ffffff;stroke-width:0"
   d="M 44.21612,54.419841 V 32.651904 h 5.179162 5.17916 l 9.826898,12.584588 c 5.404794,6.921524 10.012701,12.652613 10.239794,12.735755 0.241982,0.08859 0.412896,-5.120647 0.412896,-12.584588 V 32.651904 h 5.441984 5.441984 v 21.767937 21.767936 l -5.328609,-0.0081 -5.32861,-0.0081 -9.97697,-12.743291 -9.976971,-12.74329 -0.120437,12.75143 -0.120438,12.75143 H 49.651042 44.21612 Z"
   id="path86" /><path
   style="fill:#ffffff;stroke-width:0"
   d="m 91.833481,72.416359 v -3.771418 l 8.415369,-8.318408 c 4.62845,-4.575124 8.71336,-8.894664 9.07758,-9.598977 0.36421,-0.704313 0.77881,-2.151403 0.92132,-3.215755 0.2088,-1.55945 0.0518,-2.240237 -0.80844,-3.506325 -2.34984,-3.458319 -7.31403,-3.448461 -11.706065,0.02325 l -2.262036,1.788036 -1.533973,-1.707317 c -0.843685,-0.939024 -2.099704,-2.383915 -2.791152,-3.21087 l -1.257178,-1.503554 1.99266,-2.035396 c 3.994399,-4.080067 10.709834,-6.220563 16.503814,-5.26047 8.18243,1.355872 12.41865,6.695616 11.92083,15.026173 -0.2885,4.827938 -1.30914,6.509857 -8.21046,13.530122 l -5.90704,6.008858 h 6.88084 6.88085 v 4.761736 4.761736 H 105.89194 91.833481 Z"
   id="path125" /><path
   style="fill:#ffffff;stroke-width:0"
   d="m 143.98583,72.786537 v -3.40124 h -9.75022 -9.75022 v -3.555565 -3.555564 l 7.26184,-14.811132 7.26185,-14.811132 h 5.20937 c 2.86515,0 5.20936,0.113408 5.20936,0.252018 0,0.13861 -2.85704,6.088721 -6.34898,13.22247 -3.49194,7.133747 -6.34898,13.142571 -6.34898,13.352941 0,0.210371 1.63259,0.382492 3.62799,0.382492 h 3.62799 v -2.27756 c 0,-1.754568 0.4177,-3.108338 1.81905,-5.895483 l 1.81906,-3.617923 h 3.16943 3.16943 v 5.895483 5.895483 h 2.72099 2.72099 v 4.761736 4.761736 h -2.72099 -2.72099 v 3.40124 3.40124 h -4.98849 -4.98848 z"
   id="path164" /><path
   style="fill:#ffffff;stroke-width:0"
   d="M 138.99734,94.100974 V 81.176262 h 24.22229 c 19.36124,0 24.91725,-0.13297 27.68523,-0.66257 12.72937,-2.435533 19.95775,-12.972298 19.14521,-27.907846 -0.65414,-12.024025 -5.77238,-19.379583 -16.00189,-22.996738 L 190.46944,28.343667 164.73339,28.20621 138.99734,28.068754 V 15.139454 2.2101539 l 27.3233,0.18352 c 25.49676,0.1712518 27.61237,0.2460255 31.64763,1.1185471 11.85854,2.5641012 20.4954,7.013887 27.66157,14.25148 9.10699,9.19776 13.61708,21.305998 13.65374,36.65614 0.0392,16.403396 -4.70907,28.42292 -15.15478,38.362305 -6.39352,6.083612 -13.37425,9.830394 -22.7368,12.203574 -6.84572,1.73522 -12.55397,2.03997 -38.21124,2.03997 h -24.18342 z"
   id="path203" /><path
   style="fill:#ffffff;stroke-width:0"
   d="m 280.3233,108.32513 c -14.68103,-1.88534 -27.93944,-9.404853 -36.22636,-20.5458 -1.47304,-1.980361 -3.0507,-4.330708 -3.50591,-5.222994 -0.81836,-1.604125 -0.81511,-1.65279 0.28984,-4.33557 3.20335,-7.777616 4.44697,-15.742912 4.09652,-26.237782 -0.28956,-8.67162 -1.07344,-12.940682 -3.62202,-19.725746 l -1.56287,-4.160833 2.71819,-4.126022 c 7.90379,-11.997402 20.816,-20.174869 36.08672,-22.8541823 5.2644,-0.92366022 15.17811,-0.90983078 20.79446,0.029008 22.0611,3.6877713 38.44902,18.9317903 43.44991,40.4170493 1.86627,8.01804 1.78854,18.454509 -0.19905,26.724456 -5.2713,21.932792 -22.19196,36.814856 -45.55202,40.063946 -4.06672,0.56563 -12.26126,0.55315 -16.76741,-0.0255 z m 17.3205,-27.886434 c 10.69747,-3.520741 17.2755,-13.290127 17.30315,-25.697851 0.0292,-13.085688 -6.85544,-23.005149 -18.35882,-26.451722 -3.72805,-1.116978 -11.67837,-1.119152 -15.41895,-0.0042 -8.58075,2.557616 -14.62875,8.855661 -17.25845,17.971957 -0.63779,2.211015 -0.84404,4.364522 -0.82523,8.616475 0.0215,4.865261 0.19539,6.187999 1.22667,9.332282 2.58694,7.887321 8.29085,13.883594 15.48421,16.277877 5.44714,1.81306 12.25437,1.795972 17.84742,-0.04481 z"
   id="path242" /><path
   style="fill:#ffffff;stroke-width:0"
   d="m 369.13014,86.844996 -14.8493,-20.180691 h -3.10163 -3.10163 l 0.33145,-2.154119 c 0.44279,-2.877735 0.42318,-16.403215 -0.0289,-19.933666 l -0.36035,-2.814091 3.27778,-0.13365 3.27778,-0.133651 13.16733,-19.613817 13.16734,-19.6138176 h 16.95942 16.95942 l -0.6939,1.0590265 c -0.56654,0.8646499 -35.41668,47.9819661 -36.61923,49.5091231 -0.2082,0.264394 7.94258,11.239221 19.36624,26.076173 10.84916,14.090794 20.13222,26.180834 20.62903,26.866754 l 0.9033,1.24712 h -17.21743 -17.21741 z"
   id="path281" /><path
   style="fill:#ffffff;stroke-width:0"
   d="M 456.97869,106.52214 C 437.67741,104.28046 425.52844,94.291621 420.70151,76.695187 l -1.19659,-4.362149 -0.14109,-35.032772 -0.1411,-35.0327726 h 14.06253 14.06253 l 0.1277,32.5385296 0.1277,32.53853 1.03549,2.560948 c 1.46383,3.620279 4.09011,6.411559 7.70869,8.192979 2.96051,1.457454 3.15877,1.490183 8.93273,1.474537 5.01679,-0.0136 6.28561,-0.167622 8.43525,-1.024 5.16065,-2.055922 8.49306,-6.55647 9.47155,-12.79171 0.28011,-1.784948 0.46393,-14.888751 0.46601,-33.218777 l 0.003,-30.2710366 h 14.05846 14.05846 V 34.364421 c 0,19.141135 -0.18704,33.588641 -0.46339,35.792522 -0.73432,5.856341 -2.08816,10.434641 -4.56324,15.431635 -4.83375,9.75896 -13.44853,16.444222 -24.95009,19.361832 -7.64042,1.93816 -16.71474,2.51284 -24.81784,1.57173 z"
   id="path320" /><path
   style="fill:#f28725;fill-opacity:1;stroke-width:0"
   d="M 0.22674934,54.419841 V 32.651905 H 21.994686 43.762622 V 54.419841 76.187778 H 21.994686 0.22674934 Z"
   id="path2362" /></svg>
