<?xml version="1.0" encoding="UTF-8"?>
<!DOCTYPE svg PUBLIC "-//W3C//DTD SVG 1.1//EN" "http://www.w3.org/Graphics/SVG/1.1/DTD/svg11.dtd">
<svg xmlns="http://www.w3.org/2000/svg" version="1.1" width="320px" height="116px" style="shape-rendering:geometricPrecision; text-rendering:geometricPrecision; image-rendering:optimizeQuality; fill-rule:evenodd; clip-rule:evenodd" xmlns:xlink="http://www.w3.org/1999/xlink">
<g><path fill="#ffd600" d="M -0.5,-0.5 C 26.5,-0.5 53.5,-0.5 80.5,-0.5C 80.5,38.1667 80.5,76.8333 80.5,115.5C 53.5,115.5 26.5,115.5 -0.5,115.5C -0.5,76.8333 -0.5,38.1667 -0.5,-0.5 Z M 11.5,12.5 C 30.1667,12.5 48.8333,12.5 67.5,12.5C 67.5,42.8333 67.5,73.1667 67.5,103.5C 48.8333,103.5 30.1667,103.5 11.5,103.5C 11.5,73.1667 11.5,42.8333 11.5,12.5 Z"/></g>
<g><path fill="#ffffff" d="M 102.5,-0.5 C 104.5,-0.5 106.5,-0.5 108.5,-0.5C 113.323,7.13855 118.156,14.8052 123,22.5C 123.5,14.8406 123.666,7.1739 123.5,-0.5C 125.167,-0.5 126.833,-0.5 128.5,-0.5C 128.5,11.5 128.5,23.5 128.5,35.5C 126.712,35.7852 125.045,35.4519 123.5,34.5C 118.47,27.3021 113.637,19.9688 109,12.5C 108.5,20.1594 108.334,27.8261 108.5,35.5C 106.5,35.5 104.5,35.5 102.5,35.5C 102.5,23.5 102.5,11.5 102.5,-0.5 Z"/></g>
<g><path fill="#ffffff" d="M 141.5,-0.5 C 143.833,-0.5 146.167,-0.5 148.5,-0.5C 151.833,11.1667 155.167,22.8333 158.5,34.5C 156.143,34.6633 153.81,34.4966 151.5,34C 150.286,31.6494 149.452,29.1494 149,26.5C 145.875,25.2126 142.709,25.2126 139.5,26.5C 138.593,29.0567 137.593,31.5567 136.5,34C 134.5,34.6667 132.5,34.6667 130.5,34C 134.466,22.6011 138.133,11.1011 141.5,-0.5 Z M 143.5,10.5 C 145.416,12.6687 146.75,15.3353 147.5,18.5C 145.827,20.0863 143.827,20.7529 141.5,20.5C 142.374,17.2107 143.041,13.8774 143.5,10.5 Z"/></g>
<g><path fill="#ffffff" d="M 155.5,-0.5 C 163.5,-0.5 171.5,-0.5 179.5,-0.5C 179.5,1.16667 179.5,2.83333 179.5,4.5C 176.5,4.5 173.5,4.5 170.5,4.5C 170.5,14.5 170.5,24.5 170.5,34.5C 168.167,34.5 165.833,34.5 163.5,34.5C 163.5,24.5 163.5,14.5 163.5,4.5C 160.833,4.5 158.167,4.5 155.5,4.5C 155.5,2.83333 155.5,1.16667 155.5,-0.5 Z"/></g>
<g><path fill="#ffffff" d="M 201.5,0.5 C 204.85,0.334989 208.183,0.501655 211.5,1C 216.408,2.71363 216.575,4.88029 212,7.5C 201.548,5.32709 196.881,9.66043 198,20.5C 198.784,27.4551 202.618,30.4551 209.5,29.5C 209.5,25.8333 209.5,22.1667 209.5,18.5C 211.792,18.2436 213.959,18.5769 216,19.5C 216.802,24.419 216.635,29.2523 215.5,34C 200.515,38.5105 192.182,33.0105 190.5,17.5C 190.942,9.58681 194.609,3.92014 201.5,0.5 Z"/></g>
<g><path fill="#ffffff" d="M 251.5,0.5 C 259.584,0.120415 264.751,3.78708 267,11.5C 268.356,18.576 267.356,25.2426 264,31.5C 258.28,36.254 252.114,36.754 245.5,33C 243.623,30.7487 242.123,28.2487 241,25.5C 240.149,19.7469 240.483,14.0802 242,8.5C 244.161,4.49524 247.328,1.82857 251.5,0.5 Z M 252.5,6.5 C 258.679,7.63727 261.679,11.4706 261.5,18C 261.025,21.7373 259.858,25.2373 258,28.5C 255.267,30.8907 252.6,30.8907 250,28.5C 245.065,20.3184 245.898,12.9851 252.5,6.5 Z"/></g>
<g><path fill="#ffffff" d="M 221.5,1.5 C 226.5,1.5 231.5,1.5 236.5,1.5C 236.5,3.16667 236.5,4.83333 236.5,6.5C 233.813,6.33591 231.146,6.50258 228.5,7C 227.565,9.3806 227.232,11.8806 227.5,14.5C 230.5,14.5 233.5,14.5 236.5,14.5C 236.5,16.5 236.5,18.5 236.5,20.5C 233.813,20.3359 231.146,20.5026 228.5,21C 227.556,23.7191 227.223,26.5525 227.5,29.5C 231.167,29.5 234.833,29.5 238.5,29.5C 238.5,31.5 238.5,33.5 238.5,35.5C 232.833,35.5 227.167,35.5 221.5,35.5C 221.5,24.1667 221.5,12.8333 221.5,1.5 Z"/></g>
<g><path fill="#ffffff" d="M 174.5,115.5 C 167.833,115.5 161.167,115.5 154.5,115.5C 150.519,101.912 146.685,88.2458 143,74.5C 139.339,88.143 135.839,101.81 132.5,115.5C 125.5,115.5 118.5,115.5 111.5,115.5C 106.5,91.5 101.5,67.5 96.5,43.5C 102.833,42.8333 109.167,42.1667 115.5,41.5C 118.008,57.8883 120.841,74.2216 124,90.5C 128.152,74.5576 131.986,58.5576 135.5,42.5C 141.167,42.5 146.833,42.5 152.5,42.5C 156.355,58.2333 160.521,73.9 165,89.5C 167.548,73.8286 170.048,58.162 172.5,42.5C 173,42.1667 173.5,41.8333 174,41.5C 178.776,42.5871 183.609,43.2537 188.5,43.5C 184.213,67.603 179.546,91.603 174.5,115.5 Z"/></g>
<g><path fill="#ffffff" d="M 258.5,115.5 C 244.833,115.5 231.167,115.5 217.5,115.5C 217.5,91.1667 217.5,66.8333 217.5,42.5C 223.833,42.5 230.167,42.5 236.5,42.5C 236.5,61.8333 236.5,81.1667 236.5,100.5C 243.833,100.5 251.167,100.5 258.5,100.5C 258.5,105.5 258.5,110.5 258.5,115.5 Z"/></g>
<g><path fill="#ffffff" d="M 319.5,68.5 C 319.5,74.1667 319.5,79.8333 319.5,85.5C 316.008,100.991 306.674,110.991 291.5,115.5C 281.833,115.5 272.167,115.5 262.5,115.5C 262.5,91.1667 262.5,66.8333 262.5,42.5C 271.839,42.3335 281.173,42.5002 290.5,43C 305.984,44.9887 315.65,53.4887 319.5,68.5 Z M 281.5,56.5 C 290.886,56.0533 296.72,60.3867 299,69.5C 301.427,79.0377 300.093,88.0377 295,96.5C 291.177,99.9636 286.677,101.297 281.5,100.5C 281.5,85.8333 281.5,71.1667 281.5,56.5 Z"/></g>
<g><path fill="#ffffff" d="M 210.5,115.5 C 204.167,115.5 197.833,115.5 191.5,115.5C 191.333,91.4977 191.5,67.4977 192,43.5C 198.076,42.5236 204.242,42.1903 210.5,42.5C 210.5,66.8333 210.5,91.1667 210.5,115.5 Z"/></g>
</svg>
