<?xml version="1.0" encoding="UTF-8" standalone="no"?>
<svg
   xmlns:dc="http://purl.org/dc/elements/1.1/"
   xmlns:cc="http://creativecommons.org/ns#"
   xmlns:rdf="http://www.w3.org/1999/02/22-rdf-syntax-ns#"
   xmlns:svg="http://www.w3.org/2000/svg"
   xmlns="http://www.w3.org/2000/svg"
   viewBox="0 0 985.97333 237.39999"
   height="237.39999"
   width="985.97333"
   xml:space="preserve"
   id="svg2"
   version="1.1"><metadata
     id="metadata8"><rdf:RDF><cc:Work
         rdf:about=""><dc:format>image/svg+xml</dc:format><dc:type
           rdf:resource="http://purl.org/dc/dcmitype/StillImage" /></cc:Work></rdf:RDF></metadata><defs
     id="defs6" /><g
     transform="matrix(1.3333333,0,0,-1.3333333,0,237.4)"
     id="g10"><g
       transform="scale(0.1)"
       id="g12"><path
         id="path14"
         style="fill:#fdd518;fill-opacity:1;fill-rule:nonzero;stroke:none"
         d="M 179.086,179.289 H 1062.9 V 1601.24 H 179.086 Z M 0,1780.5 H 1242.66 V 0 H 0 v 1780.5" /><path
         id="path16"
         style="fill:#1b191b;fill-opacity:1;fill-rule:nonzero;stroke:none"
         d="m 2068.16,981.785 h -77.04 c -100.92,142.525 -201,284.185 -301.03,444.425 h -0.87 V 981.785 h -84.99 v 619.705 h 77.01 c 100.95,-141.61 200.99,-282.39 300.14,-441.71 h 1.77 v 441.71 h 85.01 V 981.785" /><path
         id="path18"
         style="fill:#1b191b;fill-opacity:1;fill-rule:nonzero;stroke:none"
         d="M 2310.73,1601.49 2096.46,981.785 h 92.1 l 53.99,169.105 h 186.81 l 48.68,-169.105 h 118.67 l -197.44,619.705 z m -40.72,-374.48 c 24.77,81.45 49.55,156.72 71.7,252.4 h 1.78 c 24.77,-95.68 46.92,-170.95 69.94,-252.4 h -143.42" /><path
         id="path20"
         style="fill:#1b191b;fill-opacity:1;fill-rule:nonzero;stroke:none"
         d="m 2696.73,981.785 v 536.575 h -162.91 v 83.13 h 432.07 v -83.13 H 2802.95 V 981.785 h -106.22" /><path
         id="path22"
         style="fill:#1b191b;fill-opacity:1;fill-rule:nonzero;stroke:none"
         d="m 3000.42,1601.49 h 105.33 V 981.785 h -105.33 v 619.705" /><path
         id="path24"
         style="fill:#1b191b;fill-opacity:1;fill-rule:nonzero;stroke:none"
         d="m 3433.37,971.191 c 162.02,0 262.96,144.259 262.96,329.289 0,173.6 -111.59,311.68 -262.96,311.68 -151.42,0 -262.96,-138.08 -262.96,-311.68 0,-185.03 100.89,-329.289 262.96,-329.289 z m 0,88.469 c -110.69,0 -149.64,122.23 -149.64,240.82 0,114.21 44.29,223.17 149.64,223.17 105.35,0 149.59,-108.96 149.59,-223.17 0,-118.59 -38.93,-240.82 -149.59,-240.82" /><path
         id="path26"
         style="fill:#1b191b;fill-opacity:1;fill-rule:nonzero;stroke:none"
         d="m 4224.85,981.785 h -77.03 c -100.89,142.525 -201,284.185 -301,444.425 h -0.95 V 981.785 h -84.95 v 619.705 h 77.07 c 100.91,-141.61 200.96,-282.39 300.12,-441.71 h 1.78 v 441.71 h 84.96 V 981.785" /><path
         id="path28"
         style="fill:#1b191b;fill-opacity:1;fill-rule:nonzero;stroke:none"
         d="M 4467.42,1601.49 4253.13,981.785 h 92.13 l 54.03,169.105 h 186.78 l 48.7,-169.105 h 118.64 l -197.44,619.705 z m -40.73,-374.48 c 24.82,81.45 49.62,156.72 71.77,252.4 h 1.73 c 24.82,-95.68 46.95,-170.95 69.94,-252.4 h -143.44" /><path
         id="path30"
         style="fill:#1b191b;fill-opacity:1;fill-rule:nonzero;stroke:none"
         d="m 4784.41,1601.49 h 105.34 V 1065 h 209.83 v -83.215 h -315.17 v 619.705" /><path
         id="path32"
         style="fill:#1b191b;fill-opacity:1;fill-rule:nonzero;stroke:none"
         d="M 2002.77,463.309 V 207.461 c -56.67,-22.16 -115.96,-38.063 -176.19,-38.063 -182.38,0 -297.49,141.571 -297.49,324.043 0,169.059 115.11,316.914 301.04,316.914 57.53,0 115.07,-21.265 150.5,-47.804 l -34.53,-73.5 c -28.36,17.711 -72.61,32.75 -113.31,32.75 -113.34,0 -190.39,-89.43 -190.39,-230.141 0,-147 88.57,-233.789 179.75,-233.789 28.35,0 52.25,3.578 74.38,15.008 v 190.43 h 106.24" /><path
         id="path34"
         style="fill:#1b191b;fill-opacity:1;fill-rule:nonzero;stroke:none"
         d="M 2382.57,716.461 H 2205.5 V 546.512 h 173.54 V 463.309 H 2205.5 V 263.23 h 208.98 v -83.289 h -315.21 v 619.817 h 283.3 v -83.297" /><path
         id="path36"
         style="fill:#1b191b;fill-opacity:1;fill-rule:nonzero;stroke:none"
         d="m 2710.16,169.398 c 162.04,0 262.94,144.293 262.94,329.313 0,173.527 -111.54,311.644 -262.94,311.644 -151.4,0 -262.95,-138.117 -262.95,-311.644 0,-185.02 100.93,-329.313 262.95,-329.313 z m 0,88.473 c -110.68,0 -149.62,122.141 -149.62,240.84 0,114.16 44.27,223.09 149.62,223.09 105.37,0 149.63,-108.93 149.63,-223.09 0,-118.699 -38.96,-240.84 -149.63,-240.84" /><path
         id="path38"
         style="fill:#1b191b;fill-opacity:1;fill-rule:nonzero;stroke:none"
         d="M 3483.07,463.309 V 207.461 c -56.65,-22.16 -115.95,-38.063 -176.19,-38.063 -182.36,0 -297.47,141.571 -297.47,324.043 0,169.059 115.11,316.914 301.05,316.914 57.52,0 115.06,-21.265 150.47,-47.804 l -34.51,-73.5 c -28.33,17.711 -72.62,32.75 -113.34,32.75 -113.33,0 -190.34,-89.43 -190.34,-230.141 0,-147 88.55,-233.789 179.74,-233.789 28.32,0 52.25,3.578 74.39,15.008 v 190.43 h 106.2" /><path
         id="path40"
         style="fill:#1b191b;fill-opacity:1;fill-rule:nonzero;stroke:none"
         d="M 3955.81,179.941 3831.04,436.73 c 68.19,36.282 107.13,109.782 107.13,184.11 0,120.469 -73.5,178.918 -192.14,178.918 H 3580.46 V 179.941 h 106.24 v 233.758 h 47.81 l 100.05,-233.758 z m -269.11,536.52 h 46.95 c 62.86,0 98.23,-36.281 98.23,-100.012 0,-83.199 -50.41,-120.39 -100.94,-123.008 -10.61,-0.941 -35.36,-1.781 -44.24,-2.722 v 225.742" /><path
         id="path42"
         style="fill:#1b191b;fill-opacity:1;fill-rule:nonzero;stroke:none"
         d="M 4171.87,799.758 3957.64,179.941 h 92.07 l 54,169.118 h 186.83 l 48.7,-169.118 h 118.64 l -197.45,619.817 z m -40.72,-374.539 c 24.78,81.453 49.59,156.703 71.72,252.281 h 1.75 c 24.81,-95.578 46.95,-170.828 69.98,-252.281 h -143.45" /><path
         id="path44"
         style="fill:#1b191b;fill-opacity:1;fill-rule:nonzero;stroke:none"
         d="m 4642.03,493.441 c -10.91,-0.851 -36.87,-1.691 -44.29,-2.562 v 225.582 h 47.82 c 61.99,0 97.37,-36.281 97.37,-100.012 0,-83.199 -50.48,-120.39 -100.9,-123.008 z m 15.01,306.317 H 4491.51 V 179.941 h 106.23 v 233.758 h 47.82 c 126.63,0 203.65,102.742 203.65,207.141 0,120.469 -73.55,178.918 -192.17,178.918" /><path
         id="path46"
         style="fill:#1b191b;fill-opacity:1;fill-rule:nonzero;stroke:none"
         d="M 5341.47,179.941 H 5235.18 V 478.352 H 5014.71 V 179.941 h -105.35 v 619.817 h 105.35 V 561.539 h 220.47 v 236.438 h 106.29 V 179.941" /><path
         id="path48"
         style="fill:#1b191b;fill-opacity:1;fill-rule:nonzero;stroke:none"
         d="m 5443.26,799.758 h 105.36 V 179.941 h -105.36 v 619.817" /><path
         id="path50"
         style="fill:#1b191b;fill-opacity:1;fill-rule:nonzero;stroke:none"
         d="m 6026.69,687.301 c -25.69,15.961 -68.15,34.5 -108.91,34.5 -107.98,0 -186.79,-89.43 -186.79,-230.141 0,-147 86.79,-233.789 189.46,-233.789 40.77,0 78.81,13.32 106.24,31.02 l 29.28,-77.071 c -31.9,-22.109 -88.56,-42.422 -139.92,-42.422 -182.43,0 -297.49,141.571 -297.49,324.043 0,169.059 114.22,316.914 299.22,316.914 54.87,0 106.29,-23.046 142.59,-47.804 l -33.68,-75.25" /><path
         id="path52"
         style="fill:#1b191b;fill-opacity:1;fill-rule:nonzero;stroke:none"
         d="m 7022.97,278.352 h -141.09 v 441.597 h 111.43 c 167.97,0 227.42,-95.211 227.42,-220.867 0,-124.344 -65.62,-220.73 -197.76,-220.73 z m -240.13,0 h -99.38 V 466.77 H 6555.29 V 278.352 h -99.32 v 441.597 h 99.32 V 552.641 h 128.17 v 167.308 h 99.38 z M 6281.92,810.387 V 185.66 H 7394.78 V 810.387 H 6281.92" /><path
         id="path54"
         style="fill:#1b191b;fill-opacity:1;fill-rule:nonzero;stroke:none"
         d="m 7007.14,634.141 h -26.08 V 364.219 h 35.22 c 64.49,0 103.09,41.242 103.09,144.793 0,85.41 -36.42,125.129 -112.23,125.129" /></g></g></svg>