<?xml version="1.0" encoding="UTF-8"?>
<!DOCTYPE svg PUBLIC "-//W3C//DTD SVG 1.1//EN" "http://www.w3.org/Graphics/SVG/1.1/DTD/svg11.dtd">
<svg xmlns="http://www.w3.org/2000/svg" version="1.1" width="513px" height="120px" style="shape-rendering:geometricPrecision; text-rendering:geometricPrecision; image-rendering:optimizeQuality; fill-rule:evenodd; clip-rule:evenodd" xmlns:xlink="http://www.w3.org/1999/xlink">
<g><path style="opacity:1" fill="#F8DB08" d="M -0.5,-0.5 C 27.5,-0.5 55.5,-0.5 83.5,-0.5C 83.5,39.5 83.5,79.5 83.5,119.5C 55.5,119.5 27.5,119.5 -0.5,119.5C -0.5,79.5 -0.5,39.5 -0.5,-0.5 Z M 11.5,11.5 C 31.5,11.5 51.5,11.5 71.5,11.5C 71.5,43.5 71.5,75.5 71.5,107.5C 51.5,107.5 31.5,107.5 11.5,107.5C 11.5,75.5 11.5,43.5 11.5,11.5 Z"/></g>
<g><path style="opacity:1" fill="#ffffff" d="M 178.5,14.5 C 186.074,30.689 193.574,47.0223 201,63.5C 207.333,48.1667 213.667,32.8333 220,17.5C 226.41,16.5223 232.91,16.189 239.5,16.5C 227.828,46.1788 215.328,75.5122 202,104.5C 194.15,87.4694 186.317,70.4694 178.5,53.5C 170.683,70.4694 162.85,87.4694 155,104.5C 141.818,75.4511 129.318,46.1178 117.5,16.5C 124.422,16.1878 131.256,16.5212 138,17.5C 144.333,32.8333 150.667,48.1667 157,63.5C 164.658,47.3496 171.825,31.0163 178.5,14.5 Z"/></g>
<g><path style="opacity:1" fill="#ffffff" d="M 366.5,16.5 C 378.171,16.3335 389.838,16.5001 401.5,17C 424.684,21.5158 437.35,35.5158 439.5,59C 437.32,82.5126 424.653,96.5126 401.5,101C 389.838,101.5 378.171,101.667 366.5,101.5C 366.5,73.1667 366.5,44.8333 366.5,16.5 Z M 385.5,32.5 C 405.987,29.8313 417.653,38.6646 420.5,59C 417.653,79.3354 405.987,88.1687 385.5,85.5C 385.5,67.8333 385.5,50.1667 385.5,32.5 Z"/></g>
<g><path style="opacity:1" fill="#ffffff" d="M 253.5,17.5 C 259.833,17.5 266.167,17.5 272.5,17.5C 272.5,45.8333 272.5,74.1667 272.5,102.5C 266.242,102.81 260.076,102.476 254,101.5C 253.5,73.502 253.333,45.502 253.5,17.5 Z"/></g>
<g><path style="opacity:1" fill="#fefffe" d="M 297.5,17.5 C 303.833,17.5 310.167,17.5 316.5,17.5C 316.5,40.5 316.5,63.5 316.5,86.5C 328.5,86.5 340.5,86.5 352.5,86.5C 351.192,91.9228 349.192,97.0895 346.5,102C 330.259,102.824 314.093,102.658 298,101.5C 297.5,73.502 297.333,45.502 297.5,17.5 Z"/></g>
<g><path style="opacity:1" fill="#080a0a" d="M 512.5,59.5 C 512.5,73.5 512.5,87.5 512.5,101.5C 492.167,101.5 471.833,101.5 451.5,101.5C 451.5,87.5 451.5,73.5 451.5,59.5C 471.833,59.5 492.167,59.5 512.5,59.5 Z"/></g>
<g><path style="opacity:1" fill="#ffffff" d="M 458.5,92.5 C 458.5,84.5 458.5,76.5 458.5,68.5C 459.833,68.5 461.167,68.5 462.5,68.5C 462.19,71.7131 462.523,74.7131 463.5,77.5C 466.833,77.5 470.167,77.5 473.5,77.5C 473.5,74.1667 473.5,70.8333 473.5,67.5C 475.167,67.5 476.833,67.5 478.5,67.5C 478.5,75.8333 478.5,84.1667 478.5,92.5C 476.833,92.5 475.167,92.5 473.5,92.5C 473.5,89.1667 473.5,85.8333 473.5,82.5C 470.167,82.5 466.833,82.5 463.5,82.5C 463.5,85.8333 463.5,89.1667 463.5,92.5C 461.833,92.5 460.167,92.5 458.5,92.5 Z"/></g>
<g><path style="opacity:1" fill="#ffffff" d="M 463.5,77.5 C 462.523,74.7131 462.19,71.7131 462.5,68.5C 461.167,68.5 459.833,68.5 458.5,68.5C 458.5,76.5 458.5,84.5 458.5,92.5C 457.507,84.3501 457.174,76.0168 457.5,67.5C 459.5,67.5 461.5,67.5 463.5,67.5C 463.5,70.8333 463.5,74.1667 463.5,77.5 Z"/></g>
<g><path style="opacity:1" fill="#ffffff" d="M 485.5,67.5 C 493.546,65.8026 500.046,68.1359 505,74.5C 507.973,81.214 506.473,86.714 500.5,91C 495.628,92.3885 490.628,92.8885 485.5,92.5C 485.5,84.1667 485.5,75.8333 485.5,67.5 Z"/></g>
<g><path style="opacity:1" fill="#393b3b" d="M 496.5,73.5 C 494.833,73.5 493.167,73.5 491.5,73.5C 491.5,78.1667 491.5,82.8333 491.5,87.5C 492.833,87.5 494.167,87.5 495.5,87.5C 494.081,88.4511 492.415,88.7845 490.5,88.5C 490.5,83.1667 490.5,77.8333 490.5,72.5C 492.735,72.2053 494.735,72.5386 496.5,73.5 Z"/></g>
<g><path style="opacity:1" fill="#0a0d0d" d="M 496.5,73.5 C 499.586,74.6544 500.919,76.9877 500.5,80.5C 500.75,84.2442 499.083,86.5776 495.5,87.5C 494.167,87.5 492.833,87.5 491.5,87.5C 491.5,82.8333 491.5,78.1667 491.5,73.5C 493.167,73.5 494.833,73.5 496.5,73.5 Z"/></g>
</svg>
