<svg width="354" height="210" xmlns="http://www.w3.org/2000/svg">
<defs>
<clipPath id="a"><path d="M0 0h595.276v841.89H0V0z"/></clipPath>
<clipPath id="b"><path d="M0 0h595.276v841.89H0V0z"/></clipPath>
<clipPath id="c"><path d="M21.968 49.299h53.61v13.063h-53.61V49.299z"/></clipPath>
</defs>
<path style="fill:#ffffff;fill-opacity:1;fill-rule:nonzero;stroke:none" d="M237.969 84.674v86.757h10.448v-40.947h39.378v40.947h24.537c24.826 0 36.85-11.909 36.868-44.304.01-18.764-3.69-42.453-38.876-42.453h-22.529v36.617h-39.378V84.674H237.97zm60.651 8.817h8.88c21.923 0 30.627 9.126 30.592 35.016-.035 25.89-8.884 34.327-30.592 34.327h-8.88V93.49z"/>
<path style="fill:#ffffff;fill-opacity:1;fill-rule:evenodd;stroke:none" d="M72.813 3.125v81.563h10.28V3.124h-10.28zm10.28 81.563v86.75h30.688c21.077 0 32.531-8.457 32.531-30.438v-26.156c0-21.194-12.24-30.156-32.53-30.156H83.093zm0 86.75h-10.28V208.5h10.28v-37.063zm-10.28 0v-86.75H54.468v53.968l-29.25-53.969H5.969v86.75h18.343v-50.593l28.063 50.594h20.438zm82.343-86.75v86.75h19.25v-33.313h10.406l15.47 33.313h20.687l-18.344-36.813c10.149-3.905 14.313-12.368 14.313-22.906 0-20.812-12.504-27.031-31.5-27.031h-30.282zM174 100.03h12.219c7.67 0 12.25 2.207 12.25 10.656 0 7.546-4.97 11.72-12.25 11.72H174V100.03zm-71.125 1.031h9.219c10.67 0 15.469 5.212 15.469 15.75v22.376c0 10.538-4.798 15.843-15.47 15.843h-9.218v-53.969z"/>
<path style="fill:#ffffff;fill-opacity:1;fill-rule:evenodd;stroke:none" d="M73.465 43.894V3.696h9.241v80.396h-9.24zM73.465 189.901v-18.02h9.241v36.04h-9.24zM83.63 127.896v-43.06l20.1.423c11.5.242 21.552.884 23.497 1.501 6.58 2.088 12.073 6.65 15.062 12.51l2.793 5.475.28 21.616c.321 24.961-.405 29.235-6.029 35.46-6.873 7.608-13.183 9.136-37.728 9.136H83.63zm36.898 25.733c1.743-.889 4.03-2.79 5.083-4.225 1.787-2.437 1.914-3.85 1.914-21.417 0-17.568-.127-18.98-1.914-21.418-3.17-4.32-7.3-5.84-15.875-5.841l-7.624-.001v54.521l7.624-.001c5.432-.001 8.535-.466 10.792-1.617zM155.71 127.898v-43.06l20.56.402c23.65.462 27.176 1.26 33.491 7.575 4.529 4.528 6.48 10.263 6.468 19-.015 9.896-4.132 17.451-11.65 21.378l-2.42 1.262 8.657 17.924c4.76 9.857 8.656 18.07 8.656 18.25 0 .18-4.262.322-9.472.315l-9.472-.014-7.531-16.39-7.532-16.388-5.637-.275-5.637-.275V170.957H155.71zm36.459-6.303c5.56-2.323 8.222-9.201 6.077-15.702-1.628-4.93-4.617-6.091-15.692-6.091h-9.287v23.102h7.885c4.711 0 9.145-.527 11.017-1.309zM6.007 127.987v-42.97l9.472.02 9.471.02 14.324 26.747c7.878 14.711 14.635 26.762 15.016 26.779.382.017.693-12.029.693-26.768V85.016h17.558v85.941l-9.934-.012-9.934-.013-13.21-23.894c-7.265-13.142-13.802-24.676-14.525-25.631-1.147-1.516-1.319 1.527-1.344 23.907l-.03 25.643H6.007z"/>
</svg>