<?xml version="1.0" encoding="UTF-8"?>
<!DOCTYPE svg PUBLIC "-//W3C//DTD SVG 1.1//EN" "http://www.w3.org/Graphics/SVG/1.1/DTD/svg11.dtd">
<svg xmlns="http://www.w3.org/2000/svg" version="1.1" width="799px" height="173px" style="shape-rendering:geometricPrecision; text-rendering:geometricPrecision; image-rendering:optimizeQuality; fill-rule:evenodd; clip-rule:evenodd" xmlns:xlink="http://www.w3.org/1999/xlink">
<g><path style="opacity:1" fill="#ffffff" d="M 15.5,-0.5 C 61.8333,-0.5 108.167,-0.5 154.5,-0.5C 163.483,2.318 169.317,8.318 172,17.5C 173.618,62.1435 173.952,106.81 173,151.5C 169.646,163.696 161.812,170.696 149.5,172.5C 104.833,172.5 60.1667,172.5 15.5,172.5C 8.58233,168.337 3.24899,162.67 -0.5,155.5C -0.5,108.833 -0.5,62.1667 -0.5,15.5C 3.14148,8.52517 8.47481,3.19184 15.5,-0.5 Z M 79.5,15.5 C 121.818,14.4054 147.985,34.4054 158,75.5C 161.523,111.635 147.023,137.469 114.5,153C 77.9414,164.481 48.7748,154.648 27,123.5C 15.8962,102.123 14.5628,80.1228 23,57.5C 34.8248,33.8594 53.6581,19.8594 79.5,15.5 Z"/></g>
<g><path style="opacity:1" fill="#ffffff" d="M 188.5,31.5 C 198.506,31.3335 208.506,31.5002 218.5,32C 227.952,50.4061 237.785,68.5727 248,86.5C 247.554,68.2103 247.387,49.877 247.5,31.5C 257.833,31.5 268.167,31.5 278.5,31.5C 278.5,68.1667 278.5,104.833 278.5,141.5C 268.478,141.832 258.478,141.499 248.5,140.5C 238.667,122.167 228.833,103.833 219,85.5C 218.5,104.164 218.333,122.83 218.5,141.5C 208.5,141.5 198.5,141.5 188.5,141.5C 188.5,104.833 188.5,68.1667 188.5,31.5 Z"/></g>
<g><path style="opacity:1" fill="#ffffff" d="M 506.5,31.5 C 516.167,31.5 525.833,31.5 535.5,31.5C 535.333,48.8365 535.5,66.1699 536,83.5C 541.117,76.0484 546.617,68.8817 552.5,62C 563.515,61.1676 574.515,61.3342 585.5,62.5C 576.314,72.5181 567.314,82.6848 558.5,93C 568.5,109 578.5,125 588.5,141C 577.167,141.667 565.833,141.667 554.5,141C 549.525,132.215 544.692,123.382 540,114.5C 538.667,115.833 537.333,117.167 536,118.5C 535.5,126.159 535.334,133.826 535.5,141.5C 525.833,141.5 516.167,141.5 506.5,141.5C 506.5,104.833 506.5,68.1667 506.5,31.5 Z"/></g>
<g><path style="opacity:1" fill="#ffffff" d="M 592.5,31.5 C 601.839,31.3335 611.173,31.5002 620.5,32C 621.48,39.0787 621.813,46.2454 621.5,53.5C 611.833,53.5 602.167,53.5 592.5,53.5C 592.5,46.1667 592.5,38.8333 592.5,31.5 Z"/></g>
<g><path style="opacity:1" fill="#ffffff" d="M 376.5,37.5 C 385.839,37.3335 395.173,37.5002 404.5,38C 405.482,45.747 405.815,53.5803 405.5,61.5C 409.514,61.3345 413.514,61.5012 417.5,62C 418.833,68.3333 418.833,74.6667 417.5,81C 413.514,81.4988 409.514,81.6655 405.5,81.5C 405.333,93.1714 405.5,104.838 406,116.5C 409.489,120.516 413.656,121.516 418.5,119.5C 418.5,126.5 418.5,133.5 418.5,140.5C 407.117,143.9 396.117,143.067 385.5,138C 380.793,133.894 377.959,128.727 377,122.5C 376.5,108.837 376.333,95.1707 376.5,81.5C 372.833,81.5 369.167,81.5 365.5,81.5C 365.334,75.1579 365.5,68.8246 366,62.5C 369.394,61.5442 372.894,61.2108 376.5,61.5C 376.5,53.5 376.5,45.5 376.5,37.5 Z"/></g>
<g><path style="opacity:1" fill="#ffffff" d="M 83.5,44.5 C 90.1667,44.5 96.8333,44.5 103.5,44.5C 103.5,72.5 103.5,100.5 103.5,128.5C 95.1667,128.5 86.8333,128.5 78.5,128.5C 78.5,112.5 78.5,96.5 78.5,80.5C 72.1579,80.6662 65.8246,80.4995 59.5,80C 58.5251,74.2588 58.1918,68.4254 58.5,62.5C 68.4971,63.2494 76.3304,59.5827 82,51.5C 82.662,49.1873 83.162,46.854 83.5,44.5 Z"/></g>
<g><path style="opacity:1" fill="#ffffff" d="M 319.5,59.5 C 352.179,59.8524 367.846,76.519 366.5,109.5C 348.833,109.5 331.167,109.5 313.5,109.5C 315.7,119.868 322.033,123.701 332.5,121C 334.455,120.047 336.122,118.713 337.5,117C 346.851,116.168 356.184,116.335 365.5,117.5C 360.422,131.07 350.756,139.57 336.5,143C 314.413,146.99 298.246,139.156 288,119.5C 281.277,100.443 284.777,83.6098 298.5,69C 304.848,64.1713 311.848,61.0047 319.5,59.5 Z M 321.5,80.5 C 330.984,79.2211 336.317,83.2211 337.5,92.5C 329.5,92.5 321.5,92.5 313.5,92.5C 313.705,86.7325 316.371,82.7325 321.5,80.5 Z"/></g>
<g><path style="opacity:1" fill="#ffffff" d="M 673.5,59.5 C 694.091,58.9246 704.925,68.9246 706,89.5C 706.5,106.83 706.667,124.163 706.5,141.5C 696.833,141.5 687.167,141.5 677.5,141.5C 677.667,126.163 677.5,110.83 677,95.5C 675.875,87.3828 671.375,84.5494 663.5,87C 661.106,88.9522 659.606,91.4522 659,94.5C 658.5,110.163 658.333,125.83 658.5,141.5C 648.667,141.972 639,141.472 629.5,140C 630.833,114.333 630.833,88.6667 629.5,63C 638.338,61.3653 647.338,61.032 656.5,62C 657.274,64.405 657.774,66.905 658,69.5C 662.239,64.4793 667.406,61.146 673.5,59.5 Z"/></g>
<g><path style="opacity:1" fill="#ffffff" d="M 747.5,59.5 C 780.419,59.9201 795.919,76.5867 794,109.5C 787.237,134.915 770.737,146.082 744.5,143C 720.542,135.283 710.042,118.783 713,93.5C 717.14,74.525 728.64,63.1917 747.5,59.5 Z M 748.5,82.5 C 758.055,80.8844 763.555,84.8844 765,94.5C 766.291,102.509 765.291,110.176 762,117.5C 752.256,124.14 745.589,121.807 742,110.5C 740.912,102.64 741.579,94.9737 744,87.5C 745.059,85.3408 746.559,83.6741 748.5,82.5 Z"/></g>
<g><path style="opacity:1" fill="#ffffff" d="M 429.5,61.5 C 451.833,61.5 474.167,61.5 496.5,61.5C 496.666,69.5069 496.5,77.5069 496,85.5C 485.5,96 475,106.5 464.5,117C 475.495,117.5 486.495,117.667 497.5,117.5C 497.5,125.5 497.5,133.5 497.5,141.5C 473.833,141.5 450.167,141.5 426.5,141.5C 426.334,133.493 426.5,125.493 427,117.5C 437.5,107 448,96.5 458.5,86C 448.839,85.5002 439.172,85.3335 429.5,85.5C 429.5,77.5 429.5,69.5 429.5,61.5 Z"/></g>
<g><path style="opacity:1" fill="#ffffff" d="M 592.5,61.5 C 602.083,61.1816 611.583,61.5149 621,62.5C 621.5,88.8312 621.667,115.165 621.5,141.5C 611.833,141.5 602.167,141.5 592.5,141.5C 592.5,114.833 592.5,88.1667 592.5,61.5 Z"/></g>
</svg>
