<?xml version="1.0" encoding="UTF-8"?>
<!DOCTYPE svg PUBLIC "-//W3C//DTD SVG 1.1//EN" "http://www.w3.org/Graphics/SVG/1.1/DTD/svg11.dtd">
<svg xmlns="http://www.w3.org/2000/svg" version="1.1" width="309px" height="120px" style="shape-rendering:geometricPrecision; text-rendering:geometricPrecision; image-rendering:optimizeQuality; fill-rule:evenodd; clip-rule:evenodd" xmlns:xlink="http://www.w3.org/1999/xlink">
<g><path style="opacity:0.959" fill="#f58220" d="M 95.5,-0.5 C 99.8333,-0.5 104.167,-0.5 108.5,-0.5C 119.179,5.85297 122.013,14.853 117,26.5C 112.417,30.4123 108.583,34.9123 105.5,40C 109,44.1667 112.5,48.3333 116,52.5C 117.044,54.7148 117.71,57.0481 118,59.5C 118.5,78.4971 118.667,97.4971 118.5,116.5C 107.5,116.5 96.5,116.5 85.5,116.5C 85.3334,96.1639 85.5,75.8306 86,55.5C 89.8477,50.3226 93.681,45.1559 97.5,40C 94.0612,34.8899 90.2278,30.0566 86,25.5C 81.5755,13.9317 84.7422,5.26504 95.5,-0.5 Z"/></g>
<g><path style="opacity:0.946" fill="#f58220" d="M 172.5,119.5 C 165.5,119.5 158.5,119.5 151.5,119.5C 124.281,108.379 115.448,88.7125 125,60.5C 138.334,39.2012 156.834,33.0345 180.5,42C 194.199,49.4383 201.533,60.7716 202.5,76C 192.167,76.6667 181.833,76.6667 171.5,76C 170.717,71.9271 169.217,68.0937 167,64.5C 163.667,60.5 160.333,60.5 157,64.5C 150.776,75.0282 151.276,85.1948 158.5,95C 162.457,97.3854 165.624,96.5521 168,92.5C 169.727,89.3821 170.561,86.0487 170.5,82.5C 181.52,82.1679 192.52,82.5012 203.5,83.5C 200.243,101.747 189.91,113.747 172.5,119.5 Z"/></g>
<g><path style="opacity:0.964" fill="#f48220" d="M 219.5,37.5 C 227.449,37.1993 233.282,40.5326 237,47.5C 238.023,53.793 238.689,60.1263 239,66.5C 243,59.1667 247,51.8333 251,44.5C 258.333,36.5188 266.499,35.5188 275.5,41.5C 280.173,46.6358 281.673,52.6358 280,59.5C 275.848,67.135 271.681,74.8017 267.5,82.5C 272.171,90.512 277.338,98.1787 283,105.5C 285.364,109.474 284.864,112.974 281.5,116C 271.816,116.832 262.149,116.665 252.5,115.5C 247.752,109.006 243.252,102.339 239,95.5C 238.5,102.492 238.334,109.492 238.5,116.5C 227.833,116.5 217.167,116.5 206.5,116.5C 206.333,93.8309 206.5,71.1642 207,48.5C 209.505,42.8218 213.671,39.1552 219.5,37.5 Z"/></g>
<g><path style="opacity:0.967" fill="#f4821f" d="M -0.5,117.5 C -0.5,101.5 -0.5,85.5 -0.5,69.5C 7.07012,46.5266 23.0701,36.36 47.5,39C 66.4368,42.937 77.6035,54.437 81,73.5C 81.4999,88.1629 81.6666,102.83 81.5,117.5C 70.8333,117.5 60.1667,117.5 49.5,117.5C 49.6666,104.163 49.4999,90.8292 49,77.5C 48.2897,71.4755 45.2897,67.1421 40,64.5C 34.725,67.1312 31.725,71.4645 31,77.5C 30.5001,90.8292 30.3334,104.163 30.5,117.5C 20.1667,117.5 9.83333,117.5 -0.5,117.5 Z"/></g>
</svg>
