<?xml version="1.0" encoding="UTF-8"?>
<!DOCTYPE svg PUBLIC "-//W3C//DTD SVG 1.1//EN" "http://www.w3.org/Graphics/SVG/1.1/DTD/svg11.dtd">
<svg xmlns="http://www.w3.org/2000/svg" version="1.1" width="718px" height="126px" style="shape-rendering:geometricPrecision; text-rendering:geometricPrecision; image-rendering:optimizeQuality; fill-rule:evenodd; clip-rule:evenodd" xmlns:xlink="http://www.w3.org/1999/xlink">
<g><path style="opacity:1" fill="#e95e0d" d="M 94.5,-0.5 C 97.1667,-0.5 99.8333,-0.5 102.5,-0.5C 115.065,5.0225 118.232,14.0225 112,26.5C 107.721,30.1041 104.221,34.2708 101.5,39C 103.963,42.4646 106.796,45.6312 110,48.5C 111.439,50.2746 112.439,52.2746 113,54.5C 113.5,73.8305 113.667,93.1638 113.5,112.5C 103.5,112.5 93.5,112.5 83.5,112.5C 83.3334,93.1638 83.5,73.8305 84,54.5C 87.8477,49.3226 91.681,44.1559 95.5,39C 92.4419,33.6022 88.6086,28.7689 84,24.5C 79.8028,12.8979 83.3028,4.56455 94.5,-0.5 Z"/></g>
<g><path style="opacity:1" fill="#ffffff" d="M 499.5,9.5 C 508.246,8.37203 514.58,11.7054 518.5,19.5C 515.956,21.0186 513.289,22.352 510.5,23.5C 507.025,17.9179 502.859,17.2513 498,21.5C 496,29.8333 496,38.1667 498,46.5C 502.797,50.8023 506.797,50.1356 510,44.5C 513.039,45.6031 515.873,47.1031 518.5,49C 511.043,59.724 502.043,61.224 491.5,53.5C 486.899,45.0952 485.399,36.0952 487,26.5C 487.609,18.077 491.776,12.4104 499.5,9.5 Z"/></g>
<g><path style="opacity:1" fill="#ffffff" d="M 535.5,9.5 C 546.081,8.69096 552.581,13.3576 555,23.5C 555.87,31.897 555.537,40.2303 554,48.5C 551.018,54.8265 546.018,58.1598 539,58.5C 529.94,58.1075 524.607,53.4409 523,44.5C 521.864,35.327 522.531,26.327 525,17.5C 527.806,13.8526 531.306,11.1859 535.5,9.5 Z M 537.5,18.5 C 539.827,18.2471 541.827,18.9137 543.5,20.5C 547.702,30.0506 547.368,39.3839 542.5,48.5C 537.94,50.5509 534.774,49.2176 533,44.5C 532.333,37.5 532.333,30.5 533,23.5C 534.025,21.313 535.525,19.6464 537.5,18.5 Z"/></g>
<g><path style="opacity:1" fill="#ffffff" d="M 566.5,10.5 C 569.5,10.5 572.5,10.5 575.5,10.5C 577.839,20.1905 580.339,29.8572 583,39.5C 585.974,29.9365 588.474,20.2699 590.5,10.5C 593.833,10.5 597.167,10.5 600.5,10.5C 602.24,26.1574 603.906,41.824 605.5,57.5C 602.5,57.5 599.5,57.5 596.5,57.5C 595.865,49.4861 595.032,41.4861 594,33.5C 591.207,41.3392 589.04,49.3392 587.5,57.5C 584.552,57.7771 581.719,57.4438 579,56.5C 577,49.1667 575,41.8333 573,34.5C 571.293,42.0015 570.126,49.6682 569.5,57.5C 566.5,57.5 563.5,57.5 560.5,57.5C 562.212,41.7559 564.212,26.0893 566.5,10.5 Z"/></g>
<g><path style="opacity:1" fill="#ffffff" d="M 612.5,10.5 C 621.167,10.5 629.833,10.5 638.5,10.5C 638.5,13.5 638.5,16.5 638.5,19.5C 633.167,19.5 627.833,19.5 622.5,19.5C 622.5,22.8333 622.5,26.1667 622.5,29.5C 627.167,29.5 631.833,29.5 636.5,29.5C 636.777,32.4475 636.444,35.2809 635.5,38C 631.179,38.499 626.846,38.6657 622.5,38.5C 622.5,41.8333 622.5,45.1667 622.5,48.5C 627.511,48.3341 632.511,48.5007 637.5,49C 638.444,51.7191 638.777,54.5525 638.5,57.5C 629.833,57.5 621.167,57.5 612.5,57.5C 612.5,41.8333 612.5,26.1667 612.5,10.5 Z"/></g>
<g><path style="opacity:1" fill="#ffffff" d="M 645.5,10.5 C 652.175,10.3337 658.842,10.5004 665.5,11C 670.573,12.4056 674.073,15.5723 676,20.5C 677.968,29.4864 677.968,38.4864 676,47.5C 674.167,52 671,55.1667 666.5,57C 659.508,57.4996 652.508,57.6663 645.5,57.5C 645.5,41.8333 645.5,26.1667 645.5,10.5 Z M 655.5,19.5 C 665.953,18.3436 669.953,23.0103 667.5,33.5C 667.333,36.8333 667.167,40.1667 667,43.5C 666.426,45.492 665.259,46.992 663.5,48C 660.854,48.4974 658.187,48.6641 655.5,48.5C 655.5,38.8333 655.5,29.1667 655.5,19.5 Z"/></g>
<g><path style="opacity:1" fill="#ffffff" d="M 677.5,11.5 C 681.019,10.1923 684.685,10.1923 688.5,11.5C 690.579,15.9926 692.912,20.326 695.5,24.5C 698.088,20.326 700.421,15.9926 702.5,11.5C 706.122,10.3414 709.789,10.1747 713.5,11C 709.207,18.4194 705.04,25.9194 701,33.5C 700.5,41.4931 700.334,49.4931 700.5,57.5C 697.167,57.5 693.833,57.5 690.5,57.5C 690.666,49.4931 690.5,41.4931 690,33.5C 686.059,25.9416 681.892,18.6083 677.5,11.5 Z"/></g>
<g><path style="opacity:1" fill="#ffffff" d="M 314.5,35.5 C 318.767,35.203 322.934,35.5363 327,36.5C 327.5,44.8267 327.666,53.16 327.5,61.5C 335.495,61.9997 343.495,62.4997 351.5,63C 352.626,66.7436 352.793,70.577 352,74.5C 351.5,75 351,75.5 350.5,76C 342.841,76.4997 335.174,76.6664 327.5,76.5C 327.666,84.84 327.5,93.1733 327,101.5C 322.921,102.629 318.755,102.796 314.5,102C 314,101.5 313.5,101 313,100.5C 312.5,92.5069 312.334,84.5069 312.5,76.5C 305.159,76.6663 297.826,76.4997 290.5,76C 288.941,74.0042 288.274,71.6709 288.5,69C 288.667,67.1667 288.833,65.3333 289,63.5C 289.75,62.8742 290.584,62.3742 291.5,62C 298.492,61.5004 305.492,61.3337 312.5,61.5C 312.334,53.4931 312.5,45.4931 313,37.5C 313.717,36.9558 314.217,36.2891 314.5,35.5 Z"/></g>
<g><path style="opacity:1" fill="#e95e0d" d="M 255.5,36.5 C 267.626,37.7456 272.793,44.4123 271,56.5C 267.342,64.4864 263.175,72.1531 258.5,79.5C 263.085,87.0047 267.918,94.338 273,101.5C 276.353,105.304 276.187,108.804 272.5,112C 263.5,112.667 254.5,112.667 245.5,112C 240.79,104.747 235.957,97.5803 231,90.5C 230.5,97.8258 230.334,105.159 230.5,112.5C 220.5,112.5 210.5,112.5 200.5,112.5C 200.333,91.1641 200.5,69.8307 201,48.5C 203.084,41.2536 207.917,37.5869 215.5,37.5C 222.84,37.9148 227.674,41.5815 230,48.5C 230.333,54.8333 230.667,61.1667 231,67.5C 235.62,57.7532 241.12,48.5865 247.5,40C 250.158,38.522 252.825,37.3554 255.5,36.5 Z"/></g>
<g><path style="opacity:1" fill="#e95e0d" d="M -0.5,112.5 C -0.5,98.5 -0.5,84.5 -0.5,70.5C 5.75139,47.1127 21.0847,36.2793 45.5,38C 61.3745,41.5404 71.8745,51.0404 77,66.5C 78.4177,81.7838 78.9177,97.1171 78.5,112.5C 68.5,112.5 58.5,112.5 48.5,112.5C 48.6666,99.4957 48.4999,86.4957 48,73.5C 47.5875,67.2871 44.4208,63.6204 38.5,62.5C 33.6058,63.8892 30.7725,67.2226 30,72.5C 29.5001,85.8292 29.3334,99.1625 29.5,112.5C 19.5,112.5 9.5,112.5 -0.5,112.5 Z"/></g>
<g><path style="opacity:1" fill="#e95e0d" d="M 150.5,37.5 C 170.865,35.9247 185.365,44.258 194,62.5C 195.31,66.0704 196.143,69.737 196.5,73.5C 186.5,73.5 176.5,73.5 166.5,73.5C 166.382,67.7609 164.048,63.2609 159.5,60C 154.94,59.1939 151.774,61.0273 150,65.5C 146.334,74.5036 147.001,83.1703 152,91.5C 156.061,95.7365 159.728,95.4032 163,90.5C 164.623,87.6731 165.79,84.6731 166.5,81.5C 176.478,80.5015 186.478,80.1681 196.5,80.5C 192.441,102.389 179.274,114.389 157,116.5C 133.164,113.998 119.998,100.831 117.5,77C 119.337,56.0091 130.337,42.8424 150.5,37.5 Z"/></g>
<g><path style="opacity:1" fill="#fcc700" d="M 406.5,31.5 C 420.679,29.7598 431.679,34.7598 439.5,46.5C 435.966,49.5237 432.133,52.1904 428,54.5C 421.318,46.1332 413.151,44.2999 403.5,49C 394.656,57.3776 394.323,66.0442 402.5,75C 412.165,80.7239 420.498,79.2239 427.5,70.5C 431.167,72.5 434.833,74.5 438.5,76.5C 438.674,80.3123 437.007,83.479 433.5,86C 417.706,96.9037 402.872,95.7371 389,82.5C 378.213,66.396 379.713,51.5627 393.5,38C 397.657,35.2548 401.99,33.0881 406.5,31.5 Z"/></g>
<g><path style="opacity:1" fill="#ffffff" d="M 498.5,66.5 C 507.644,64.8098 514.31,67.9765 518.5,76C 514.333,80.4016 510.333,80.4016 506.5,76C 501.377,74.4563 498.211,76.2897 497,81.5C 496.333,87.8333 496.333,94.1667 497,100.5C 498.867,105.294 502.367,106.794 507.5,105C 508.618,103.926 509.618,102.76 510.5,101.5C 513.446,102.306 516.112,103.639 518.5,105.5C 513.851,113.816 506.851,116.65 497.5,114C 492.572,112.073 489.406,108.573 488,103.5C 485.274,92.425 486.274,81.7583 491,71.5C 493.426,69.5476 495.926,67.881 498.5,66.5 Z"/></g>
<g><path style="opacity:1" fill="#ffffff" d="M 523.5,66.5 C 531.174,66.3336 538.841,66.5003 546.5,67C 547.444,69.7191 547.777,72.5525 547.5,75.5C 542.833,75.5 538.167,75.5 533.5,75.5C 533.5,78.8333 533.5,82.1667 533.5,85.5C 537.5,85.5 541.5,85.5 545.5,85.5C 545.5,88.5 545.5,91.5 545.5,94.5C 541.5,94.5 537.5,94.5 533.5,94.5C 533.5,98.1667 533.5,101.833 533.5,105.5C 538.167,105.5 542.833,105.5 547.5,105.5C 547.5,108.5 547.5,111.5 547.5,114.5C 539.5,114.5 531.5,114.5 523.5,114.5C 523.5,98.5 523.5,82.5 523.5,66.5 Z"/></g>
<g><path style="opacity:1" fill="#ffffff" d="M 554.5,66.5 C 557.448,66.2229 560.281,66.5562 563,67.5C 567,76.1667 571,84.8333 575,93.5C 575.5,84.5062 575.666,75.5062 575.5,66.5C 578.448,66.2229 581.281,66.5562 584,67.5C 584.667,82.8333 584.667,98.1667 584,113.5C 581,114.833 578,114.833 575,113.5C 571.333,105.5 567.667,97.5 564,89.5C 563.667,97.5 563.333,105.5 563,113.5C 560.281,114.444 557.448,114.777 554.5,114.5C 554.5,98.5 554.5,82.5 554.5,66.5 Z"/></g>
<g><path style="opacity:1" fill="#ffffff" d="M 589.5,66.5 C 598.167,66.5 606.833,66.5 615.5,66.5C 615.5,69.5 615.5,72.5 615.5,75.5C 612.833,75.5 610.167,75.5 607.5,75.5C 607.667,88.1711 607.5,100.838 607,113.5C 603.943,114.451 600.777,114.784 597.5,114.5C 597.5,101.5 597.5,88.5 597.5,75.5C 594.5,75.5 591.5,75.5 588.5,75.5C 588.264,72.3915 588.597,69.3915 589.5,66.5 Z"/></g>
<g><path style="opacity:1" fill="#ffffff" d="M 621.5,66.5 C 628.241,66.1712 634.908,66.6712 641.5,68C 651.219,75.0501 653.053,83.8835 647,94.5C 645.926,95.6184 644.76,96.6184 643.5,97.5C 645.905,103.051 647.905,108.717 649.5,114.5C 646.482,114.665 643.482,114.498 640.5,114C 638.476,109.597 636.642,105.097 635,100.5C 633.644,99.6198 632.144,99.2865 630.5,99.5C 630.5,104.5 630.5,109.5 630.5,114.5C 627.167,114.5 623.833,114.5 620.5,114.5C 620.183,98.4225 620.516,82.4225 621.5,66.5 Z M 631.5,76.5 C 639.368,76.6541 641.702,80.4875 638.5,88C 637.234,88.3095 636.067,88.8095 635,89.5C 634,89.1667 633,88.8333 632,88.5C 632.797,84.8063 632.63,80.8063 631.5,76.5 Z"/></g>
<g><path style="opacity:1" fill="#ffffff" d="M 691.5,66.5 C 694.448,66.2229 697.281,66.5562 700,67.5C 700.5,80.1623 700.667,92.8289 700.5,105.5C 704.833,105.5 709.167,105.5 713.5,105.5C 713.704,108.545 713.704,111.379 713.5,114C 705.841,114.5 698.174,114.666 690.5,114.5C 690.183,98.4225 690.516,82.4225 691.5,66.5 Z"/></g>
<g><path style="opacity:1" fill="#ffffff" d="M 665.5,67.5 C 668.5,67.5 671.5,67.5 674.5,67.5C 678.423,82.9368 682.756,98.2701 687.5,113.5C 684.232,114.487 680.898,114.82 677.5,114.5C 677.167,112.5 676.833,110.5 676.5,108.5C 672.167,108.5 667.833,108.5 663.5,108.5C 663.167,110.5 662.833,112.5 662.5,114.5C 659.102,114.82 655.768,114.487 652.5,113.5C 657.244,98.2701 661.577,82.9368 665.5,67.5 Z M 669.5,82.5 C 671.752,88.1867 673.086,94.1867 673.5,100.5C 670.603,100.875 667.937,100.375 665.5,99C 667.379,93.6486 668.713,88.1486 669.5,82.5 Z"/></g>
<g><path style="opacity:1" fill="#fcc700" d="M 404.5,1.5 C 433.928,-0.376248 455.428,11.6238 469,37.5C 480.087,68.9021 472.253,94.4021 445.5,114C 415.848,129.474 389.348,125.308 366,101.5C 363.787,98.9054 361.953,96.0721 360.5,93C 360.645,92.228 360.978,91.5613 361.5,91C 365.095,89.2866 368.595,87.4533 372,85.5C 391.222,110.176 414.389,114.676 441.5,99C 461.568,79.7583 464.402,58.2583 450,34.5C 431.073,14.1874 409.573,11.0208 385.5,25C 380.611,29.3862 376.278,34.2196 372.5,39.5C 367.84,37.5053 363.506,35.0053 359.5,32C 370.205,15.3271 385.205,5.16044 404.5,1.5 Z"/></g>
</svg>
