<svg version="1.1" id="svg2" x="0" y="0" viewBox="0 0 504.5 87" style="enable-background:new 0 0 504.5 87" xml:space="preserve" xmlns="http://www.w3.org/2000/svg">
<g><path style="fill:#f9f9f9;stroke-width:1" d="M4 3.2v80.7h18.5V32l31.2 51.8h17.5V3.2H52.7V55L21.5 3.2H4zm78 0v80.7h20.5V3.2H82zm28.3 0v17.4h16.1v63.2h20.5V20.6H163V3.2h-52.7zm59.4 0v80.7l20.5.1V21.1h20.6c6.2 0 11.2 5.1 11.2 11.5S217 44 210.8 44h-18.7l28.3 39.8h23.4l-21.2-26.7c11.6-3 20.2-13.7 20.2-26.5 0-15.2-12-27.4-26.8-27.4h-46.3zm117 0c-22.6 0-40.9 18.1-40.9 40.3s18.3 40.3 40.9 40.3 40.9-18.1 40.9-40.3-18.3-40.3-40.9-40.3zm0 17.8c11.8 0 21.4 10.1 21.4 22.5s-9.6 22.4-21.4 22.4-21.4-10-21.4-22.4S274.9 21 286.7 21z"/></g>
<g><path style="fill:#bae637" d="M326.5 65.4H344v17.5h-17.5z"/></g>
<g><path style="fill:#f9f9f9;stroke-width:1" id="polygon8" d="M363.8 2.9v81.2h11.5V49.2h34.5v34.9h11.5V2.9h-11.5v34.9h-34.5V2.9z"/></g>
<g><path style="fill:#f9f9f9;stroke-width:1" d="M461.1 2.9h-30.8v81.2h30.8c20.7 0 37.4-18.1 37.4-40.6S481.8 2.9 461.1 2.9zM460 73.2h-18.2V13.8H460c15.2 0 27.4 13.3 27.4 29.8S475.1 73.2 460 73.2z" id="path10"/></g>
<g><path style="fill:#f9f9f9;stroke-width:1" d="M4.763 43.297V3.464H21.082l14.772 24.493c8.125 13.47 15.352 25.258 16.06 26.195 1.148 1.518 1.29-1.127 1.314-24.493l.028-26.195H70.575V83.13l-8.443-.034-8.443-.033-15.103-25.13C30.28 44.113 23.17 32.61 22.783 32.371c-.386-.238-.701 11.085-.701 25.164V83.13H4.762z" id="path70"/><path style="fill:#f9f9f9;stroke-width:.86595" d="M82.698 43.297V3.464H101.75V83.13H82.698z" id="path109"/></g>
<g><path style="fill:#f9f9f9;stroke-width:1" d="M126.862 51.524V19.917H110.409V3.464h51.957V19.917h-15.588V83.13h-19.916z" id="path148"/></g>
<g><path style="fill:#f9f9f9;stroke-width:1" d="m177.303 83.353-7.144-.292V3.35l26.195.273c25.54.267 26.298.325 30.324 2.325 13.459 6.686 19.19 22.745 12.879 36.086-2.873 6.072-9.074 12.02-14.102 13.527-1.836.55-3.339 1.184-3.339 1.41 0 .226 4.481 6 9.958 12.83 5.478 6.83 9.959 12.624 9.959 12.875 0 .25-4.831.455-10.736.455h-10.735L206.69 63.713l-13.872-19.418 11.604-.282 11.604-.283 2.731-2.733c5.244-5.249 4.175-14.694-2.095-18.517-2.394-1.46-4.398-1.691-14.68-1.694l-11.906-.003v63.214l-2.814-.176c-1.548-.097-6.03-.308-9.959-.468z" id="path187"/></g>
<g><path style="fill:#f9f9f9;stroke-width:1" d="M274.764 81.46c-20.709-6.622-32.421-27.46-27.066-48.155 4.983-19.256 25.757-32.55 45.382-29.043 12.096 2.162 24.359 10.8 29.424 20.728 5.454 10.691 5.871 24.036 1.071 34.293-3.679 7.862-7.933 12.933-14.308 17.053-10.217 6.604-23.64 8.597-34.503 5.123zm21.613-17.601c9.858-4.564 14.657-18.183 10.345-29.357-1.936-5.017-8.667-11.499-13.267-12.776-10.845-3.011-21.595 1.813-26.324 11.812-2.2 4.651-2.642 13.507-.9 17.986 4.9 12.592 18.006 17.955 30.146 12.335z" id="path226"/><path style="fill:#f9f9f9;stroke-width:.86595" d="M364.132 43.73V3.464h10.391v34.638h35.504V3.464h11.257v80.533h-11.257v-35.54l-17.535.235-17.536.234-.234 17.536-.235 17.535h-10.355z" id="path265"/></g>
<g><path style="fill:#f9f9f9;stroke-width:1" d="M430.81 43.73V3.464h17.595c13.523 0 18.683.318 22.298 1.375 17.778 5.199 29.706 24.89 26.877 44.371-1.9 13.077-10.37 25.472-20.905 30.592-6.865 3.336-13.1 4.195-30.437 4.195H430.81zm40.885 27.013c10.177-4.998 15.71-14.655 15.722-27.446.009-9.413-2.792-16.21-9.12-22.129-6.932-6.484-10.285-7.53-24.496-7.647l-12.167-.099-.228 30.172-.227 30.171 12.784-.296c11.944-.277 13.109-.456 17.732-2.726z" id="path304"/></g>
</svg>
