<?xml version="1.0" encoding="UTF-8"?>
<!DOCTYPE svg PUBLIC "-//W3C//DTD SVG 1.1//EN" "http://www.w3.org/Graphics/SVG/1.1/DTD/svg11.dtd">
<svg xmlns="http://www.w3.org/2000/svg" version="1.1" width="381px" height="120px" style="shape-rendering:geometricPrecision; text-rendering:geometricPrecision; image-rendering:optimizeQuality; fill-rule:evenodd; clip-rule:evenodd" xmlns:xlink="http://www.w3.org/1999/xlink">
<title>NOXX</title>
<g><path style="opacity:1" fill="#64fe01" d="M 139.5,-0.5 C 147.5,-0.5 155.5,-0.5 163.5,-0.5C 164.209,0.403972 165.209,0.737305 166.5,0.5C 202.1,14.6911 215.933,40.6911 208,78.5C 200.422,98.9137 186.255,112.247 165.5,118.5C 164.508,118.328 163.842,118.662 163.5,119.5C 155.5,119.5 147.5,119.5 139.5,119.5C 138.791,118.596 137.791,118.263 136.5,118.5C 102.254,105.701 87.7539,81.0339 93,44.5C 96.6088,31.2406 103.776,20.4073 114.5,12C 121.273,7.61611 128.273,3.78278 135.5,0.5C 137.099,0.767809 138.432,0.434475 139.5,-0.5 Z"/></g>
<g><path style="opacity:1" fill="#64fe01" d="M 380.5,0.5 C 380.5,1.5 380.5,2.5 380.5,3.5C 366.685,21.7875 353.351,40.4542 340.5,59.5C 353.351,78.5458 366.685,97.2125 380.5,115.5C 380.5,116.5 380.5,117.5 380.5,118.5C 363.163,118.667 345.83,118.5 328.5,118C 323.212,111.256 318.045,104.423 313,97.5C 308.055,104.416 302.889,111.083 297.5,117.5C 287.628,105.633 278.961,92.9667 271.5,79.5C 276.65,73.21 281.317,66.5433 285.5,59.5C 281.317,52.4567 276.65,45.79 271.5,39.5C 271.491,37.6916 271.991,36.0249 273,34.5C 281.188,23.4322 289.354,12.4322 297.5,1.5C 302.889,7.91703 308.055,14.5837 313,21.5C 318.045,14.577 323.212,7.74365 328.5,1C 345.83,0.500062 363.163,0.333395 380.5,0.5 Z"/></g>
<g><path style="opacity:1" fill="#ffffff" d="M -0.5,0.5 C 14.837,0.333412 30.1703,0.500079 45.5,1C 54.4585,15.0827 63.2919,29.2493 72,43.5C 72.4999,29.1705 72.6666,14.8372 72.5,0.5C 93.5,0.5 114.5,0.5 135.5,0.5C 128.273,3.78278 121.273,7.61611 114.5,12C 103.776,20.4073 96.6088,31.2406 93,44.5C 87.7539,81.0339 102.254,105.701 136.5,118.5C 113.831,118.667 91.1642,118.5 68.5,118C 59.875,104.584 51.375,91.0843 43,77.5C 42.5001,91.1626 42.3334,104.829 42.5,118.5C 28.1667,118.5 13.8333,118.5 -0.5,118.5C -0.5,79.1667 -0.5,39.8333 -0.5,0.5 Z"/></g>
<g><path style="opacity:1" fill="#ffffff" d="M 166.5,0.5 C 182.503,0.333406 198.503,0.500072 214.5,1C 219.693,7.69302 224.693,14.5264 229.5,21.5C 234.61,14.7934 239.61,7.96007 244.5,1C 262.338,0.171407 280.005,0.338074 297.5,1.5C 289.354,12.4322 281.188,23.4322 273,34.5C 271.991,36.0249 271.491,37.6916 271.5,39.5C 266.521,46.0986 261.521,52.7653 256.5,59.5C 261.521,66.2347 266.521,72.9014 271.5,79.5C 278.961,92.9667 287.628,105.633 297.5,117.5C 280.005,118.662 262.338,118.829 244.5,118C 239.698,110.898 234.531,104.064 229,97.5C 224.781,104.772 219.948,111.605 214.5,118C 198.17,118.5 181.837,118.667 165.5,118.5C 186.255,112.247 200.422,98.9137 208,78.5C 215.933,40.6911 202.1,14.6911 166.5,0.5 Z"/></g>
<g><path style="opacity:1" fill="#ffffff" d="M 146.5,43.5 C 162.085,42.9138 168.585,50.2471 166,65.5C 159.745,76.0928 151.245,78.2595 140.5,72C 133.889,63.6373 133.889,55.304 140.5,47C 142.432,45.5415 144.432,44.3748 146.5,43.5 Z"/></g>
</svg>
