<svg xmlns="http://www.w3.org/2000/svg" viewBox="0 0 1040.27 296.7">
<path fill="#ffffff"  d="M67.49,99.9a10.83,10.83,0,0,0-11,10.66V167.1L21.74,105.73A11.42,11.42,0,0,0,11.58,99.9,11.73,11.73,0,0,0,0,111.48v92.84A10.83,10.83,0,0,0,11,215a10.68,10.68,0,0,0,10.66-10.66V147.73l35,61.33a11.6,11.6,0,0,0,10,5.92,11.73,11.73,0,0,0,11.58-11.58V110.56A10.68,10.68,0,0,0,67.49,99.9Z"/>
<path fill="#ffffff"  d="M172.72,199l-19.33-32.4a30.91,30.91,0,0,0,11-6.75c6.21-6,9.5-14.45,9.5-24.32s-3.33-18.45-9.62-24.75c-6.1-6.1-14.5-9.32-24.29-9.32H111.7a12.58,12.58,0,0,0-12.64,12.49v90.41A10.75,10.75,0,0,0,109.87,215a10.88,10.88,0,0,0,10.82-10.66V168.79H130l24.53,41a10.4,10.4,0,0,0,9.09,5.21,10.87,10.87,0,0,0,10.66-10.51A10.73,10.73,0,0,0,172.72,199Zm-20.48-63.47c0,8.37-4,12.43-12.28,12.43H120.69V122.29H140C147.65,122.29,152.24,127.22,152.24,135.48Z"/>
<path fill="#ffffff"  d="M361.11,82.56a12.7,12.7,0,1,1,12.7-12.71A12.72,12.72,0,0,1,361.11,82.56ZM349.72,111a11.45,11.45,0,0,1,11.39-11.39A11.13,11.13,0,0,1,372.28,111v92.65a11.13,11.13,0,0,1-11.17,11.39,11.45,11.45,0,0,1-11.39-11.39Z"/>
<path fill="#ffffff"  d="M413.81,162.72c-11.83-4.38-21-13.58-21-30,0-19.28,16-33.07,37.89-33.07,14.89,0,22.56,2.19,29.79,5.47a11.08,11.08,0,0,1,7.23,10.29,10.51,10.51,0,0,1-10.52,10.51,15,15,0,0,1-5.25-1.09c-5.48-2.63-14.46-4.38-21.68-4.38-9,0-14.9,4.38-14.9,11.83,0,5.69,4.39,9.2,9,10.73l21.46,7c14.46,4.82,23.22,14.67,23.22,30.66,0,19.27-15.55,34.38-39,34.38-12.92,0-23.44-2.41-31.54-6.13a10.92,10.92,0,0,1,4.16-21,14.38,14.38,0,0,1,5,1.31c5.91,3.07,13.14,5,22.78,5,10.51,0,16-3.94,16-11.39,0-8.1-6.57-10.73-14.68-13.58Z"/>
<path fill="#ffffff"  d="M500.51,82.56a12.7,12.7,0,1,1,12.7-12.71A12.72,12.72,0,0,1,500.51,82.56ZM489.12,111a11.45,11.45,0,0,1,11.39-11.39A11.13,11.13,0,0,1,511.68,111v92.65a11.13,11.13,0,0,1-11.17,11.39,11.45,11.45,0,0,1-11.39-11.39Z"/>
<path fill="#ffffff"  d="M625.09,169.07c0,13.36-4.38,25-12.7,33.29s-19.93,12.7-33.29,12.7-25-4.38-33.29-12.7-12.7-19.93-12.7-33.29V145.64c0-13.36,4.38-25,12.7-33.29s19.93-12.7,33.29-12.7,25,4.38,33.29,12.7,12.7,19.93,12.7,33.29Zm-22.56-25.19c0-13.8-9-23.44-23.44-23.44-14.9,0-23.44,8.54-23.44,23.44V171c0,14.67,8.54,23.22,23.44,23.22s23.44-8.54,23.44-23.22Z"/>
<path fill="#ffffff"  d="M711.77,141.69c0-13.36-7.88-21.25-21.46-21.25a85.63,85.63,0,0,0-21.25,2.85v80.38a11.28,11.28,0,1,1-22.56,0v-85a13.86,13.86,0,0,1,9.64-13.36,104.48,104.48,0,0,1,34.16-5.69c12.93,0,23.87,4.16,31.76,12.26,7.88,7.89,12.26,18.84,12.26,31.54v60.23a11.31,11.31,0,0,1-11.39,11.39,11.13,11.13,0,0,1-11.17-11.39Z"/>
<path fill="#ffffff"  d="M320.35,99.64c-4.82,0-9.64,3.07-10.95,7.88l-19.49,66.58-18.4-65.49c-1.1-3.94-6.36-9-12-9a12.78,12.78,0,0,0-10.77,6.09l28.94,100.13a12.63,12.63,0,0,0,24.31,0l29.13-91.55a8.49,8.49,0,0,0,.44-3.28A11.26,11.26,0,0,0,320.35,99.64Z"/>
<path fill="#ffffff"  d="M228.8,174.11,209.3,107.53c-1.31-4.82-6.13-7.88-10.95-7.88A11.26,11.26,0,0,0,187.19,111a8.49,8.49,0,0,0,.44,3.28l29.13,91.77a12.78,12.78,0,0,0,24.53-.44L253.07,165l-11-38Z"/>
<g>
<path fill="#f37a6a" d="M968.35,21.23a145.77,145.77,0,0,0-50.94-19A149.12,149.12,0,0,0,891.94,0H841l2.15,0a149.72,149.72,0,0,1,23.32,2.2,148.32,148.32,0,0,1,50.94,273.25,145.77,145.77,0,0,1-50.94,19,149.74,149.74,0,0,1-23.23,2.2l-2.24,0h50.94a149.12,149.12,0,0,0,25.47-2.22A148.32,148.32,0,0,0,968.35,21.23Z"/>
<path fill="#fae804" d="M917.41,21.23a145.77,145.77,0,0,0-50.94-19A149.72,149.72,0,0,0,843.14.07L841,0H790.28l2.09,0a149.74,149.74,0,0,1,23.22,2.2,148.32,148.32,0,0,1,50.94,273.25,145.77,145.77,0,0,1-50.94,19,149.69,149.69,0,0,1-23.43,2.2l-1.75,0H841l2.24,0a149.74,149.74,0,0,0,23.23-2.2A148.32,148.32,0,0,0,917.41,21.23Z"/>
<path fill="#bed630" d="M866.53,21.23a145.77,145.77,0,0,0-50.94-19A149.74,149.74,0,0,0,792.36.07l-2.09,0h-51.1c.93,0,1.86,0,2.79,0l.73,0,2.25.08a150.76,150.76,0,0,1,19.65,2.1,148.32,148.32,0,0,1,50.94,273.25,145.77,145.77,0,0,1-50.94,19,150.36,150.36,0,0,1-21,2.15l-.71,0-1,0-2.68,0h51.23l1.75,0a149.69,149.69,0,0,0,23.43-2.2A148.32,148.32,0,0,0,866.53,21.23Z"/>
<path fill="#27b682" d="M815.54,21.19a145.77,145.77,0,0,0-50.94-19A150.77,150.77,0,0,0,744.95.12L742.7,0,742,0c-.94,0-1.89,0-2.84,0H688.18a147.76,147.76,0,0,0-98.66,37.58q1.05-.79,2.12-1.56c25.53-20.3,61.56-29.1,96.54-29.1a141.41,141.41,0,0,1,0,282.82c-35,0-71-8.8-96.54-29.11q-1.07-.77-2.12-1.56a147.76,147.76,0,0,0,98.66,37.58h50.94c.91,0,1.82,0,2.72,0l1,0,.71,0a150.36,150.36,0,0,0,21-2.15A148.32,148.32,0,0,0,815.54,21.19Z"/></g>
</svg>