<?xml version="1.0" encoding="UTF-8"?>
<!DOCTYPE svg PUBLIC "-//W3C//DTD SVG 1.1//EN" "http://www.w3.org/Graphics/SVG/1.1/DTD/svg11.dtd">
<svg xmlns="http://www.w3.org/2000/svg" version="1.1" width="640px" height="142px" style="shape-rendering:geometricPrecision; text-rendering:geometricPrecision; image-rendering:optimizeQuality; fill-rule:evenodd; clip-rule:evenodd" xmlns:xlink="http://www.w3.org/1999/xlink">
<g><path style="opacity:1" fill="#ffffff" d="M 63.5,-0.5 C 66.8333,-0.5 70.1667,-0.5 73.5,-0.5C 96.9689,0.647543 115.136,10.9809 128,30.5C 144.817,7.10428 167.65,-2.72905 196.5,1C 209.682,3.42344 221.016,9.25678 230.5,18.5C 227.833,22.1667 225.167,25.8333 222.5,29.5C 228.947,34.8972 235.614,40.0639 242.5,45C 243.701,45.9025 244.535,47.0692 245,48.5C 247.177,59.7232 248.01,71.0565 247.5,82.5C 217.833,82.5 188.167,82.5 158.5,82.5C 161.392,104.889 174.058,114.722 196.5,112C 209.149,109.924 220.316,104.757 230,96.5C 228.048,102.357 226.048,108.357 224,114.5C 223.145,121.83 222.311,129.163 221.5,136.5C 215.464,138.506 209.464,140.172 203.5,141.5C 192.833,141.5 182.167,141.5 171.5,141.5C 152.463,138.235 137.63,128.568 127,112.5C 115.85,129.158 100.35,138.824 80.5,141.5C 72.1667,141.5 63.8333,141.5 55.5,141.5C 23.8273,135.827 5.16068,117.161 -0.5,85.5C -0.5,75.8333 -0.5,66.1667 -0.5,56.5C 6.35135,21.3186 27.6847,2.31863 63.5,-0.5 Z M 66.5,30.5 C 81.6997,31.5303 90.8664,39.5303 94,54.5C 96,65.8333 96,77.1667 94,88.5C 88.437,109.196 75.6036,116.03 55.5,109C 47.8291,103.506 43.3291,96.0056 42,86.5C 38.9506,71.2675 40.6173,56.6009 47,42.5C 51.9133,35.7991 58.4133,31.7991 66.5,30.5 Z M 179.5,30.5 C 192.121,28.7257 201.287,33.3923 207,44.5C 208.541,48.6022 209.707,52.7688 210.5,57C 193.503,57.4999 176.503,57.6666 159.5,57.5C 160.63,44.1841 167.296,35.1841 179.5,30.5 Z"/></g>
<g><path style="opacity:1" fill="#fee63e" d="M 273.5,-0.5 C 283.833,-0.5 294.167,-0.5 304.5,-0.5C 331.192,6.4943 342.025,23.8276 337,51.5C 334.861,59.2781 331.027,66.1114 325.5,72C 313.18,81.1609 300.514,89.8276 287.5,98C 284.296,101.036 281.296,104.203 278.5,107.5C 293.422,108.499 309.088,108.832 325.5,108.5C 325.825,100.981 325.492,93.6476 324.5,86.5C 344.871,57.6144 365.871,29.1144 387.5,1C 401.163,0.500099 414.829,0.333432 428.5,0.5C 428.5,28.5 428.5,56.5 428.5,84.5C 436.167,84.5 443.833,84.5 451.5,84.5C 451.827,94.3478 451.494,104.014 450.5,113.5C 443.018,112.508 435.352,112.175 427.5,112.5C 427.5,120.167 427.5,127.833 427.5,135.5C 415.833,135.5 404.167,135.5 392.5,135.5C 392.833,127.41 392.499,120.077 391.5,113.5C 373.833,113.5 356.167,113.5 338.5,113.5C 338.5,121.5 338.5,129.5 338.5,137.5C 303.167,137.5 267.833,137.5 232.5,137.5C 230.851,112.97 239.851,93.47 259.5,79C 269.663,72.0841 279.997,65.4174 290.5,59C 293.704,56.1312 296.537,52.9646 299,49.5C 301.281,33.132 294.448,27.632 278.5,33C 270.902,36.8705 264.402,42.0371 259,48.5C 250.398,42.9021 242.065,36.9021 234,30.5C 233.365,28.3646 233.699,26.3646 235,24.5C 245.037,11.7394 257.87,3.40603 273.5,-0.5 Z M 390.5,49.5 C 391.495,60.988 391.828,72.6547 391.5,84.5C 383.14,84.8312 374.807,84.4979 366.5,83.5C 374.914,72.4259 382.914,61.0926 390.5,49.5 Z"/></g>
<g><path style="opacity:1" fill="#ffffff" d="M 435.5,0.5 C 464.833,0.5 494.167,0.5 523.5,0.5C 525.961,10.5506 528.628,20.5506 531.5,30.5C 521.167,30.5 510.833,30.5 500.5,30.5C 500.5,65.5 500.5,100.5 500.5,135.5C 489.167,135.5 477.833,135.5 466.5,135.5C 466.5,100.5 466.5,65.5 466.5,30.5C 456.167,30.5 445.833,30.5 435.5,30.5C 435.5,20.5 435.5,10.5 435.5,0.5 Z"/></g>
<g><path style="opacity:1" fill="#ffffff" d="M 639.5,0.5 C 639.5,2.16667 639.5,3.83333 639.5,5.5C 627.048,48.627 614.881,91.9603 603,135.5C 591.91,136.653 580.743,136.82 569.5,136C 556.74,91.2174 544.074,46.3841 531.5,1.5C 543.167,0.166667 554.833,0.166667 566.5,1.5C 573.399,30.832 580.233,60.1653 587,89.5C 593.679,59.7834 600.513,30.1167 607.5,0.5C 618.167,0.5 628.833,0.5 639.5,0.5 Z"/></g>
<g><path style="opacity:0.571" fill="#fee63e" d="M 324.5,86.5 C 325.492,93.6476 325.825,100.981 325.5,108.5C 309.088,108.832 293.422,108.499 278.5,107.5C 293.833,107.5 309.167,107.5 324.5,107.5C 324.5,100.5 324.5,93.5 324.5,86.5 Z"/></g>
<g><path style="opacity:0.458" fill="#fee63e" d="M 450.5,113.5 C 443.167,113.5 435.833,113.5 428.5,113.5C 428.5,121.167 428.5,128.833 428.5,136.5C 416.167,136.5 403.833,136.5 391.5,136.5C 391.5,128.833 391.5,121.167 391.5,113.5C 392.499,120.077 392.833,127.41 392.5,135.5C 404.167,135.5 415.833,135.5 427.5,135.5C 427.5,127.833 427.5,120.167 427.5,112.5C 435.352,112.175 443.018,112.508 450.5,113.5 Z"/></g>
</svg>
