<?xml version="1.0" encoding="UTF-8" standalone="no"?>
<!-- Generator: Adobe Illustrator 20.1.0, SVG Export Plug-In . SVG Version: 6.00 Build 0)  -->

<svg
   version="1.1"
   id="Ebene_1"
   x="0px"
   y="0px"
   viewBox="0 0 201.7 86"
   xml:space="preserve"
   sodipodi:docname="OK54.svg"
   width="201.7"
   height="86"
   inkscape:version="1.1.1 (3bf5ae0d25, 2021-09-20)"
   xmlns:inkscape="http://www.inkscape.org/namespaces/inkscape"
   xmlns:sodipodi="http://sodipodi.sourceforge.net/DTD/sodipodi-0.dtd"
   xmlns="http://www.w3.org/2000/svg"
   xmlns:svg="http://www.w3.org/2000/svg"><defs
   id="defs45" /><sodipodi:namedview
   id="namedview43"
   pagecolor="#ffffff"
   bordercolor="#666666"
   borderopacity="1.0"
   inkscape:pageshadow="2"
   inkscape:pageopacity="0.0"
   inkscape:pagecheckerboard="0"
   showgrid="false"
   inkscape:zoom="3.3205882"
   inkscape:cx="101.03632"
   inkscape:cy="43.215235"
   inkscape:window-width="1920"
   inkscape:window-height="1017"
   inkscape:window-x="-8"
   inkscape:window-y="-8"
   inkscape:window-maximized="1"
   inkscape:current-layer="g40" />
<g
   id="g40"
   transform="translate(-69,-57)">
	<path style="fill:#ffffff" d="m 117.9,81 c 0,3.3 -0.6,6.4 -1.8,9.3 -1.2,2.9 -2.9,5.5 -5.2,7.7 -2.3,2.2 -4.9,3.9 -7.9,5.1 -3,1.2 -6.1,1.8 -9.5,1.8 -3.4,0 -6.6,-0.6 -9.6,-1.8 -3,-1.2 -5.6,-2.9 -7.9,-5.2 -2.3,-2.2 -3.9,-4.7 -5.2,-7.6 -1.2,-2.8 -1.8,-6 -1.8,-9.4 0,-3.4 0.6,-6.5 1.8,-9.4 1.1,-2.9 2.9,-5.4 5.1,-7.6 2.3,-2.2 4.9,-3.9 7.9,-5.1 3,-1.2 6.2,-1.8 9.6,-1.8 3.4,0 6.6,0.6 9.6,1.8 3,1.2 5.6,2.9 7.9,5.1 2.2,2.2 3.9,4.8 5.1,7.6 1.3,3 1.9,6.1 1.9,9.5 z m -24.4,8.6 c 2.3,0 4.2,-0.8 5.6,-2.4 1.4,-1.5 2.1,-3.6 2.1,-6.2 0,-2.6 -0.7,-4.7 -2.1,-6.3 -1.4,-1.6 -3.3,-2.4 -5.6,-2.4 -2.3,0 -4.2,0.8 -5.6,2.4 -1.4,1.6 -2.1,3.7 -2.1,6.3 0,2.6 0.7,4.7 2.1,6.2 1.5,1.6 3.3,2.4 5.6,2.4 z"
   id="path4" />
	<path style="fill:#ffffff" d="m 124.8,103.7 c 0,-15.2 0,-30.4 0,-45.5 5.4,0 10.7,0 16.1,0 0,6.5 0,12.9 0,19.4 3.5,-6.5 6.9,-12.9 10.4,-19.4 6.2,0 12.4,0 18.5,0 -4.6,7.5 -9.2,14.9 -13.7,22.5 5.2,7.7 10.4,15.4 15.7,23.1 -6.6,0 -13.2,0 -19.8,0 -3.7,-6.4 -7.3,-12.7 -11,-19.1 0,6.4 0,12.7 0,19.1 -5.5,-0.1 -10.9,-0.1 -16.2,-0.1 z"
   id="path6" />
	<path style="fill:#FF9501" d="m 174.4,135.5 c 0,0 0,0 5.9,-12.1 6.1,4.7 11.2,7 15.5,7 9.6,0 14.3,-5.9 14.3,-17.6 0,-5.7 -1.1,-9.8 -3.3,-12.4 -2.2,-2.6 -5.8,-3.9 -10.9,-3.9 -4.6,0 -9.1,2.7 -13.4,7.2 0,0 0,0 -5.9,-8.7 0,0 0,0 0,-36.8 0,0 0,0 44.9,0 0,0 0,0 0,12.6 0,0 0,0 -30.7,0 0,0 0,0 0,14.9 2.5,-1.2 5.5,-1.7 9,-1.7 8.2,0 14.5,2.4 18.9,7.1 4.4,4.7 6.6,11.5 6.6,20.1 0,21.2 -9.9,31.8 -29.7,31.8 -8,0 -15.1,-2.5 -21.2,-7.5 z"
   id="path8" />
	<path style="fill:#FF9501" d="m 248.2,83.3 c -7.1,8.3 -14.3,16.7 -21.4,25 7.1,0 14.3,0 21.4,0 0,-8.3 0,-16.7 0,-25 z m 14.2,36.7 c 0,7.3 0,14.5 0,21.8 -4.7,0 -9.5,0 -14.3,0 0,-7.3 0,-14.5 0,-21.8 -12.7,0 -25.3,0 -38,0 0,-2.8 0,-5.6 0,-8.5 15.2,-17.8 30.5,-35.6 45.7,-53.4 2.1,0 4.3,0 6.5,0 0,16.7 0,33.4 0,50.2 2.8,0 5.6,0 8.4,0 0,3.9 0,7.8 0,11.7 -2.6,0 -5.4,0 -8.3,0 z"
   id="path10" />
	<path style="fill:#B3B3B3" d="m 70.8,119.8 c 0,0 0,0 -0.6,0.9 0,0 0,0 -0.9,0 0,0 0,0 0,-14.5 0,0 0,0 1.8,0 0,0 0,0 0,4.9 0.2,-0.2 0.5,-0.5 0.9,-0.6 0.5,-0.2 0.9,-0.3 1.4,-0.3 1.4,0 2.5,0.5 3.4,1.5 0.9,0.9 1.3,2.2 1.3,3.6 0,1.7 -0.4,3 -1.3,4 -0.9,0.9 -2,1.5 -3.5,1.5 -0.5,0 -0.9,-0.1 -1.4,-0.3 -0.5,-0.2 -0.8,-0.5 -1.1,-0.7 z m 0.3,-7.3 c 0,0 0,0 0,5.8 0,0.1 0.2,0.3 0.7,0.5 0.5,0.2 0.8,0.3 1,0.3 1.2,0 2.1,-0.3 2.7,-0.9 0.5,-0.6 0.8,-1.6 0.8,-3 0,-1.2 -0.3,-2.1 -0.9,-2.7 -0.6,-0.6 -1.5,-1 -2.5,-1 -0.2,0 -0.5,0.1 -0.9,0.3 -0.5,0.4 -0.8,0.6 -0.9,0.7 z"
   id="path12" />
	<path style="fill:#B3B3B3" d="m 80.6,110.4 c 0,0 0,0 0,6.5 0,1.5 0.7,2.4 2,2.4 0.6,0 1.2,-0.2 1.6,-0.5 0.5,-0.3 0.8,-0.7 1,-1.2 0,0 0,0 0,-7.1 0,0 0,0 1.8,0 0,0 0,0 0,10.2 0,0 0,0 -1.8,0 0,0 0,0 0,-1.4 -0.2,0.4 -0.6,0.8 -1.2,1.1 -0.6,0.3 -1.2,0.5 -1.8,0.5 -1.1,0 -2,-0.3 -2.6,-0.9 -0.6,-0.6 -0.9,-1.5 -0.9,-2.7 0,0 0,0 0,-6.7 0.1,-0.2 0.1,-0.2 1.9,-0.2 z m -0.2,-4.2 c 0.3,0 0.6,0.1 0.8,0.3 0.2,0.2 0.3,0.5 0.3,0.8 0,0.3 -0.1,0.6 -0.3,0.8 -0.2,0.2 -0.5,0.3 -0.8,0.3 -0.3,0 -0.6,-0.1 -0.8,-0.3 -0.2,-0.2 -0.3,-0.5 -0.3,-0.8 0,-0.3 0.1,-0.6 0.3,-0.8 0.3,-0.2 0.5,-0.3 0.8,-0.3 z m 4.5,0 c 0.3,0 0.6,0.1 0.8,0.3 0.2,0.2 0.3,0.5 0.3,0.8 0,0.3 -0.1,0.6 -0.3,0.8 -0.2,0.2 -0.5,0.3 -0.8,0.3 -0.3,0 -0.6,-0.1 -0.8,-0.3 -0.2,-0.2 -0.3,-0.5 -0.3,-0.8 0,-0.3 0.1,-0.6 0.3,-0.8 0.3,-0.2 0.5,-0.3 0.8,-0.3 z"
   id="path14" />
	<path style="fill:#B3B3B3" d="m 93.9,112.1 c -0.4,-0.3 -0.8,-0.4 -1.2,-0.4 -0.6,0 -1.2,0.3 -1.7,0.9 -0.5,0.6 -0.7,1.3 -0.7,2.1 0,0 0,0 0,5.8 0,0 0,0 -1.8,0 0,0 0,0 0,-10.2 0,0 0,0 1.8,0 0,0 0,0 0,1.6 0.6,-1.2 1.6,-1.8 2.9,-1.8 0.3,0 0.8,0 1.4,0.2 0.1,0.1 0.1,0.1 -0.7,1.8 z"
   id="path16" />
	<path style="fill:#B3B3B3" d="m 94.4,123.3 c 0,0 0,0 1,-1.5 1,0.7 2,1.1 2.9,1.1 0.8,0 1.5,-0.1 1.9,-0.4 0.5,-0.3 0.7,-0.6 0.7,-1.1 0,-0.8 -0.6,-1.2 -1.8,-1.2 -0.2,0 -0.6,0 -1.1,0.2 -0.5,0.1 -0.9,0.2 -1.2,0.2 -1.5,0 -2.1,-0.6 -2.1,-1.6 0,-0.3 0.2,-0.6 0.5,-0.9 0.3,-0.3 0.8,-0.5 1.2,-0.6 -1.4,-0.7 -2.1,-1.8 -2.1,-3.5 0,-1.1 0.4,-1.9 1.1,-2.7 0.7,-0.7 1.6,-1.1 2.7,-1.1 1,0 1.8,0.2 2.4,0.6 0,0 0,0 0.9,-1.1 0,0 0,0 1.2,1.1 0,0 0,0 -1.1,0.8 0.5,0.6 0.7,1.4 0.7,2.4 0,1 -0.3,1.9 -0.9,2.6 -0.6,0.7 -1.5,1.1 -2.5,1.2 0,0 0,0 -1.5,0.2 -0.2,0 -0.4,0.1 -0.7,0.2 -0.3,0.1 -0.4,0.3 -0.4,0.5 0,0.3 0.3,0.4 0.9,0.4 0.3,0 0.7,0 1.3,-0.2 0.6,-0.1 1,-0.2 1.3,-0.2 1,0 1.8,0.3 2.3,0.7 0.6,0.5 0.9,1.2 0.9,2 0,0.9 -0.4,1.7 -1.2,2.3 -0.9,0.6 -1.9,0.9 -3.2,0.9 -0.6,0 -1.4,-0.1 -2.1,-0.3 -0.9,-0.3 -1.5,-0.6 -2,-1 z m 3.8,-11.7 c -0.6,0 -1.1,0.2 -1.5,0.6 -0.4,0.4 -0.6,1 -0.6,1.6 0,0.7 0.2,1.3 0.6,1.8 0.4,0.5 0.9,0.7 1.5,0.7 0.6,0 1.1,-0.2 1.5,-0.7 0.3,-0.5 0.6,-1 0.6,-1.8 0,-0.6 -0.2,-1.2 -0.6,-1.6 -0.4,-0.3 -0.9,-0.6 -1.5,-0.6 z"
   id="path18" />
	<path style="fill:#B3B3B3" d="m 111.9,115.6 c 0,0 0,0 -7.3,0 0,1.2 0.3,2.1 1,2.7 0.6,0.6 1.3,0.8 2.2,0.8 1,0 1.9,-0.3 2.6,-0.9 0,0 0,0 0.8,1.3 -0.3,0.3 -0.7,0.5 -1.3,0.7 -0.7,0.3 -1.5,0.4 -2.4,0.4 -1.3,0 -2.4,-0.4 -3.3,-1.3 -1,-0.9 -1.5,-2.2 -1.5,-3.9 0,-1.7 0.5,-3 1.5,-4 0.9,-0.9 2,-1.4 3.2,-1.4 1.5,0 2.6,0.4 3.4,1.2 0.8,0.8 1.2,1.8 1.2,3.1 0.1,0.6 0,1 -0.1,1.3 z m -4.3,-3.9 c -0.8,0 -1.5,0.3 -2,0.8 -0.5,0.5 -0.8,1.1 -0.9,1.8 0,0 0,0 5.6,0 0,-0.7 -0.2,-1.3 -0.7,-1.8 -0.5,-0.5 -1.2,-0.8 -2,-0.8 z"
   id="path20" />
	<path style="fill:#B3B3B3" d="m 118.3,112.1 c -0.4,-0.3 -0.8,-0.4 -1.2,-0.4 -0.6,0 -1.2,0.3 -1.7,0.9 -0.5,0.6 -0.7,1.3 -0.7,2.1 0,0 0,0 0,5.8 0,0 0,0 -1.8,0 0,0 0,0 0,-10.2 0,0 0,0 1.8,0 0,0 0,0 0,1.6 0.6,-1.2 1.6,-1.8 2.9,-1.8 0.3,0 0.8,0 1.4,0.2 0.1,0.1 0.1,0.1 -0.7,1.8 z"
   id="path22" />
	<path style="fill:#B3B3B3" d="m 124.7,112.1 c -0.4,-0.3 -0.8,-0.4 -1.2,-0.4 -0.6,0 -1.2,0.3 -1.7,0.9 -0.5,0.6 -0.7,1.3 -0.7,2.1 0,0 0,0 0,5.8 0,0 0,0 -1.8,0 0,0 0,0 0,-10.2 0,0 0,0 1.8,0 0,0 0,0 0,1.6 0.6,-1.2 1.6,-1.8 2.9,-1.8 0.3,0 0.8,0 1.4,0.2 0.1,0.1 0.1,0.1 -0.7,1.8 z"
   id="path24" />
	<path style="fill:#B3B3B3" d="m 127.3,110.4 c 0,0 0,0 0,6.5 0,1.5 0.7,2.4 2,2.4 0.6,0 1.2,-0.2 1.6,-0.5 0.5,-0.3 0.8,-0.7 1,-1.2 0,0 0,0 0,-7.1 0,0 0,0 1.8,0 0,0 0,0 0,10.2 0,0 0,0 -1.8,0 0,0 0,0 0,-1.4 -0.2,0.4 -0.6,0.8 -1.2,1.1 -0.6,0.3 -1.2,0.5 -1.8,0.5 -1.1,0 -2,-0.3 -2.6,-0.9 -0.6,-0.6 -0.9,-1.5 -0.9,-2.7 0,0 0,0 0,-6.7 0.1,-0.2 0.1,-0.2 1.9,-0.2 z"
   id="path26" />
	<path style="fill:#B3B3B3" d="m 141.3,120.6 c 0,0 0,0 0,-5.9 0,-1.1 -0.2,-1.8 -0.5,-2.3 -0.3,-0.4 -0.9,-0.6 -1.6,-0.6 -0.4,0 -0.9,0.1 -1.3,0.4 -0.5,0.3 -0.8,0.6 -1,0.9 0,0 0,0 0,7.6 0,0 0,0 -1.8,0 0,0 0,0 0,-10.2 0,0 0,0 1.2,0 0,0 0,0 0.6,1.3 0.6,-1 1.5,-1.5 2.9,-1.5 2.2,0 3.3,1.4 3.3,4.1 0,0 0,0 0,6.3 0,-0.1 0,-0.1 -1.8,-0.1 z"
   id="path28" />
	<path style="fill:#B3B3B3" d="m 150.9,120.5 c 0,0 0,0 0,-0.7 -0.6,0.6 -1.5,0.9 -2.7,0.9 -1.3,0 -2.3,-0.5 -3.1,-1.4 -0.8,-0.9 -1.2,-2.1 -1.2,-3.6 0,-1.5 0.5,-2.8 1.4,-3.9 0.9,-1.1 2,-1.6 3.3,-1.6 1,0 1.8,0.3 2.4,0.7 0,0 0,0 0,-4.7 0,0 0,0 1.8,0 0,0 0,0 0,14.3 0,0 0,0 -1.9,0 z m 0,-7.8 c -0.5,-0.7 -1.1,-1 -1.9,-1 -0.9,0 -1.8,0.3 -2.4,1.1 -0.6,0.8 -0.9,1.6 -0.9,2.7 0,2.4 1.1,3.6 3.3,3.6 0.3,0 0.6,-0.1 1,-0.3 0.4,-0.2 0.6,-0.3 0.7,-0.6 0.2,0.2 0.2,0.2 0.2,-5.5 z"
   id="path30" />
	<path style="fill:#B3B3B3" d="m 159.6,107.8 c -0.3,-0.1 -0.7,-0.2 -1,-0.2 -0.6,0 -1,0.2 -1.4,0.6 -0.3,0.4 -0.6,0.9 -0.6,1.6 0,0.2 0,0.3 0,0.5 0,0 0,0 2.1,0 0,0 0,0 0,1.5 0,0 0,0 -2.1,0 0,0 0,0 0,8.6 0,0 0,0 -1.8,0 0,0 0,0 0,-8.6 0,0 0,0 -1.5,0 0,0 0,0 0,-1.5 0,0 0,0 1.5,0 0,-1.3 0.3,-2.3 0.9,-3 0.6,-0.7 1.5,-1.1 2.5,-1.1 0.5,0 1.1,0.1 1.7,0.3 0.2,0 0.2,0 -0.3,1.3 z"
   id="path32" />
	<path style="fill:#B3B3B3" d="m 161.9,110.4 c 0,0 0,0 0,6.5 0,1.5 0.7,2.4 2,2.4 0.6,0 1.2,-0.2 1.6,-0.5 0.5,-0.3 0.8,-0.7 1,-1.2 0,0 0,0 0,-7.1 0,0 0,0 1.8,0 0,0 0,0 0,10.2 0,0 0,0 -1.8,0 0,0 0,0 0,-1.4 -0.2,0.4 -0.6,0.8 -1.2,1.1 -0.6,0.3 -1.2,0.5 -1.8,0.5 -1.1,0 -2,-0.3 -2.6,-0.9 -0.6,-0.6 -0.9,-1.5 -0.9,-2.7 0,0 0,0 0,-6.7 0.1,-0.2 0.1,-0.2 1.9,-0.2 z"
   id="path34" />
	<path style="fill:#B3B3B3" d="m 175.9,120.6 c 0,0 0,0 0,-5.9 0,-1.1 -0.2,-1.8 -0.5,-2.3 -0.3,-0.4 -0.9,-0.6 -1.6,-0.6 -0.4,0 -0.9,0.1 -1.3,0.4 -0.5,0.3 -0.8,0.6 -1,0.9 0,0 0,0 0,7.6 0,0 0,0 -1.8,0 0,0 0,0 0,-10.2 0,0 0,0 1.2,0 0,0 0,0 0.6,1.3 0.6,-1 1.5,-1.5 2.9,-1.5 2.2,0 3.3,1.4 3.3,4.1 0,0 0,0 0,6.3 0,-0.1 0,-0.1 -1.8,-0.1 z"
   id="path36" />
	<polygon style="fill:#B3B3B3" points="180.9,117.1 180.9,120.6 179.1,120.6 179.1,106.2 180.9,106.2 180.9,115.1 184.8,110.4 186.9,110.4 183.6,114.3 187.6,120.6 185.6,120.6 182.5,115.5 "
   id="polygon38" />
</g>
</svg>
