<?xml version="1.0" encoding="UTF-8"?>
<!DOCTYPE svg PUBLIC "-//W3C//DTD SVG 1.1//EN" "http://www.w3.org/Graphics/SVG/1.1/DTD/svg11.dtd">
<svg xmlns="http://www.w3.org/2000/svg" version="1.1" width="555px" height="120px" style="shape-rendering:geometricPrecision; text-rendering:geometricPrecision; image-rendering:optimizeQuality; fill-rule:evenodd; clip-rule:evenodd" xmlns:xlink="http://www.w3.org/1999/xlink">
<g><path style="opacity:1" fill="#e2001a" d="M -0.5,-0.5 C 93.1667,-0.5 186.833,-0.5 280.5,-0.5C 280.5,39.5 280.5,79.5 280.5,119.5C 186.833,119.5 93.1667,119.5 -0.5,119.5C -0.5,79.5 -0.5,39.5 -0.5,-0.5 Z"/></g>
<g><path style="opacity:1" fill="#ffffff" d="M 321.5,-0.5 C 322.833,-0.5 324.167,-0.5 325.5,-0.5C 325.5,39.5 325.5,79.5 325.5,119.5C 324.167,119.5 322.833,119.5 321.5,119.5C 314.461,116.088 307.294,112.755 300,109.5C 299.167,76.1617 299.333,42.8283 300.5,9.5C 307.712,6.39176 314.712,3.05843 321.5,-0.5 Z"/></g>
<g><path style="opacity:1" fill="#ffffff" d="M 364.5,-0.5 C 365.833,-0.5 367.167,-0.5 368.5,-0.5C 368.5,39.5 368.5,79.5 368.5,119.5C 367.167,119.5 365.833,119.5 364.5,119.5C 357.603,116.188 350.603,112.854 343.5,109.5C 342.167,76.1667 342.167,42.8333 343.5,9.5C 350.712,6.39176 357.712,3.05843 364.5,-0.5 Z"/></g>
<g><path style="opacity:1" fill="#ffffff" d="M 402.5,-0.5 C 403.833,-0.5 405.167,-0.5 406.5,-0.5C 406.5,39.5 406.5,79.5 406.5,119.5C 405.167,119.5 403.833,119.5 402.5,119.5C 395.712,115.942 388.712,112.608 381.5,109.5C 380.167,76.1667 380.167,42.8333 381.5,9.5C 388.712,6.39176 395.712,3.05843 402.5,-0.5 Z"/></g>
<g><path style="opacity:1" fill="#e2001a" d="M 424.5,0.5 C 463.5,0.5 502.5,0.5 541.5,0.5C 541.832,9.52461 541.498,18.5246 540.5,27.5C 538.711,26.1228 536.711,25.1228 534.5,24.5C 533.505,19.2079 533.172,13.8746 533.5,8.5C 499.833,8.5 466.167,8.5 432.5,8.5C 432.5,12.8333 432.5,17.1667 432.5,21.5C 429.833,21.5 427.167,21.5 424.5,21.5C 424.5,14.5 424.5,7.5 424.5,0.5 Z"/></g>
<g><path style="opacity:1" fill="#ffffff" d="M 52.5,24.5 C 73.3956,24.0168 86.8956,33.6835 93,53.5C 92.8711,81.5134 78.7044,95.0134 50.5,94C 30.1011,88.2551 20.6011,74.7551 22,53.5C 26.5347,37.7962 36.7014,28.1295 52.5,24.5 Z"/></g>
<g><path style="opacity:1" fill="#f49aa1" d="M 153.5,26.5 C 141.5,26.5 129.5,26.5 117.5,26.5C 117.5,48.5 117.5,70.5 117.5,92.5C 122.5,92.5 127.5,92.5 132.5,92.5C 132.177,85.9779 132.51,79.6446 133.5,73.5C 133.5,80.1667 133.5,86.8333 133.5,93.5C 127.833,93.5 122.167,93.5 116.5,93.5C 116.5,70.8333 116.5,48.1667 116.5,25.5C 129.011,25.1714 141.345,25.5048 153.5,26.5 Z"/></g>
<g><path style="opacity:1" fill="#ffffff" d="M 153.5,26.5 C 171.321,29.4981 178.154,39.8315 174,57.5C 171.894,63.2716 168.061,67.4383 162.5,70C 167.72,77.0466 172.72,84.2132 177.5,91.5C 171.355,92.4902 165.022,92.8235 158.5,92.5C 154.066,86.4875 149.732,80.3208 145.5,74C 141.514,73.5012 137.514,73.3345 133.5,73.5C 132.51,79.6446 132.177,85.9779 132.5,92.5C 127.5,92.5 122.5,92.5 117.5,92.5C 117.5,70.5 117.5,48.5 117.5,26.5C 129.5,26.5 141.5,26.5 153.5,26.5 Z"/></g>
<g><path style="opacity:1" fill="#ec5b6a" d="M 203.5,26.5 C 203.5,48.5 203.5,70.5 203.5,92.5C 208.833,92.5 214.167,92.5 219.5,92.5C 214.025,93.4889 208.358,93.8222 202.5,93.5C 202.169,70.9938 202.503,48.6604 203.5,26.5 Z"/></g>
<g><path style="opacity:1" fill="#ffffff" d="M 203.5,26.5 C 221.5,26.5 239.5,26.5 257.5,26.5C 257.5,31.5 257.5,36.5 257.5,41.5C 244.833,41.5 232.167,41.5 219.5,41.5C 219.5,45.8333 219.5,50.1667 219.5,54.5C 229.319,55.494 239.319,55.8274 249.5,55.5C 249.5,60.1667 249.5,64.8333 249.5,69.5C 239.319,69.1726 229.319,69.506 219.5,70.5C 219.5,77.8333 219.5,85.1667 219.5,92.5C 214.167,92.5 208.833,92.5 203.5,92.5C 203.5,70.5 203.5,48.5 203.5,26.5 Z"/></g>
<g><path style="opacity:1" fill="#e2001a" d="M 415.5,26.5 C 421.167,26.5 426.833,26.5 432.5,26.5C 432.5,34.5 432.5,42.5 432.5,50.5C 440.833,50.5 449.167,50.5 457.5,50.5C 457.5,42.5 457.5,34.5 457.5,26.5C 463.167,26.5 468.833,26.5 474.5,26.5C 474.5,48.5 474.5,70.5 474.5,92.5C 468.833,92.5 463.167,92.5 457.5,92.5C 457.5,84.1667 457.5,75.8333 457.5,67.5C 449.167,67.5 440.833,67.5 432.5,67.5C 432.5,75.8333 432.5,84.1667 432.5,92.5C 426.833,92.5 421.167,92.5 415.5,92.5C 415.5,70.5 415.5,48.5 415.5,26.5 Z"/></g>
<g><path style="opacity:1" fill="#e2001a" d="M 554.5,56.5 C 554.5,58.5 554.5,60.5 554.5,62.5C 551.925,78.5793 542.591,88.4126 526.5,92C 513.838,92.4999 501.171,92.6666 488.5,92.5C 488.5,70.5 488.5,48.5 488.5,26.5C 501.171,26.3334 513.838,26.5001 526.5,27C 542.591,30.5874 551.925,40.4207 554.5,56.5 Z M 505.5,42.5 C 513.83,41.7515 521.83,42.9182 529.5,46C 538.03,53.9822 538.697,62.6488 531.5,72C 523.316,75.9842 514.649,77.4842 505.5,76.5C 505.5,65.1667 505.5,53.8333 505.5,42.5 Z"/></g>
<g><path style="opacity:1" fill="#e2001a" d="M 52.5,40.5 C 71.5333,40.9406 78.7,50.274 74,68.5C 66.7906,78.9024 57.6239,81.0691 46.5,75C 38.0423,67.3382 36.5423,58.5048 42,48.5C 44.94,44.9632 48.44,42.2965 52.5,40.5 Z"/></g>
<g><path style="opacity:1" fill="#e31320" d="M 133.5,41.5 C 139.842,41.3338 146.175,41.5005 152.5,42C 159.354,43.9654 161.188,48.1321 158,54.5C 157.097,55.7014 155.931,56.5348 154.5,57C 147.508,57.4996 140.508,57.6663 133.5,57.5C 133.5,52.1667 133.5,46.8333 133.5,41.5 Z"/></g>
<g><path style="opacity:1" fill="#fadadd" d="M 219.5,54.5 C 229.833,54.5 240.167,54.5 250.5,54.5C 250.5,59.8333 250.5,65.1667 250.5,70.5C 240.167,70.5 229.833,70.5 219.5,70.5C 229.319,69.506 239.319,69.1726 249.5,69.5C 249.5,64.8333 249.5,60.1667 249.5,55.5C 239.319,55.8274 229.319,55.494 219.5,54.5 Z"/></g>
<g><path style="opacity:1" fill="#f18692" d="M 177.5,91.5 C 178.043,91.56 178.376,91.8933 178.5,92.5C 171.678,93.8181 165.011,93.8181 158.5,92.5C 165.022,92.8235 171.355,92.4902 177.5,91.5 Z"/></g>
<g><path style="opacity:1" fill="#e2001a" d="M 540.5,91.5 C 541.493,100.318 541.827,109.318 541.5,118.5C 502.5,118.5 463.5,118.5 424.5,118.5C 424.5,111.833 424.5,105.167 424.5,98.5C 427.167,98.5 429.833,98.5 432.5,98.5C 432.5,102.5 432.5,106.5 432.5,110.5C 466.167,110.5 499.833,110.5 533.5,110.5C 533.334,105.489 533.501,100.489 534,95.5C 536.314,94.2668 538.481,92.9334 540.5,91.5 Z"/></g>
</svg>
