<?xml version="1.0" encoding="UTF-8" standalone="no"?>
<!-- Generator: Adobe Illustrator 23.0.1, SVG Export Plug-In . SVG Version: 6.00 Build 0)  -->

<svg
   version="1.1"
   id="svg2"
   inkscape:version="1.1.1 (3bf5ae0d25, 2021-09-20)"
   sodipodi:docname="ORF SPORT+ HD.svg"
   x="0px"
   y="0px"
   viewBox="0 0 1053.9 165.4"
   style="enable-background:new 0 0 1053.9 165.4;"
   xml:space="preserve"
   xmlns:inkscape="http://www.inkscape.org/namespaces/inkscape"
   xmlns:sodipodi="http://sodipodi.sourceforge.net/DTD/sodipodi-0.dtd"
   xmlns="http://www.w3.org/2000/svg"
   xmlns:svg="http://www.w3.org/2000/svg"><defs
   id="defs27" /><sodipodi:namedview
   id="namedview25"
   pagecolor="#ffffff"
   bordercolor="#666666"
   borderopacity="1.0"
   inkscape:pageshadow="2"
   inkscape:pageopacity="0.0"
   inkscape:pagecheckerboard="0"
   showgrid="false"
   inkscape:zoom="1.0712591"
   inkscape:cx="526.95001"
   inkscape:cy="82.613067"
   inkscape:window-width="1920"
   inkscape:window-height="1017"
   inkscape:window-x="-8"
   inkscape:window-y="-8"
   inkscape:window-maximized="1"
   inkscape:current-layer="layer1" />
<style
   type="text/css"
   id="style2">
	.st0{fill:url(#rect3872_1_);stroke:#000000;stroke-width:0.7858;stroke-opacity:0;}
	.st1{stroke:#000000;stroke-width:1.3836;stroke-opacity:0;}
	.st2{fill:#EC1B24;}
	.st3{fill-rule:evenodd;clip-rule:evenodd;fill:#FFFFFF;}
	.st4{fill:#FFFFFF;} fill=&quot;#FFFFFF&quot; 
</style>
<g
   id="layer1"
   transform="translate(0,-884.36126)">
	
		<linearGradient
   id="rect3872_1_"
   gradientUnits="userSpaceOnUse"
   x1="-1653.3011"
   y1="948.2816"
   x2="-1539.1541"
   y2="1061.4187"
   gradientTransform="matrix(-1 0 0 -1 -624.4222 1972.1575)">
		<stop
   offset="0"
   style="stop-color:#FBA10D"
   id="stop4" />
		<stop
   offset="1"
   style="stop-color:#FFCE08"
   id="stop6" />
	</linearGradient>
	<rect
   id="rect3872"
   x="889.6"
   y="885.1"
   fill="#000000"
   width="163.9"
   height="164"
   style="fill:#ffcc00" />
	<rect
   id="rect3067"
   x="381.5"
   y="885.1"
   fill="#000000"
   width="508.2"
   height="164" />
	<g
   id="g15458"
   transform="matrix(0.80408415,0,0,0.80408415,-38.025613,576.5467)">
		<path
   id="path1264"
   fill="#EC1B24"
   d="M47.3,587.8H524V383.6H47.3L47.3,587.8L47.3,587.8z" />
		<path
   id="path1266"
   fill="#FFFFFF"
   d="M206.5,485.7c0-33.2-26.9-58.9-60.7-58.9c-33.6,0-60.7,25.7-60.7,58.9c0,33.4,27.1,59,60.7,59    C179.6,544.7,206.5,519,206.5,485.7 M177.8,485.7c0,18-15.4,32.4-32,32.4S114,503.7,114,485.7c0-17.9,15.2-32.2,31.8-32.2    S177.8,467.8,177.8,485.7" />
		<path
   id="path1268"
   fill="#FFFFFF"
   d="M246.7,542.6h28.1v-33.2h20.8l21.9,33.2h34.7l-28.1-39.9c13.3-5.7,22.5-18.3,22.5-33.6    c0-22.6-16.6-40.2-42-40.2h-57.9L246.7,542.6L246.7,542.6z M303,482.6h-28.2v-26.9H303c12.1,0,15.8,6,15.8,13.4    C318.7,476.7,315.1,482.6,303,482.6" />
		<path
   id="path1270"
   fill="#FFFFFF"
   d="M393.5,542.5h27.9v-38.2h52.8v-26.8h-52.8v-21.8h64.8v-26.8h-92.7V542.5z" />
	</g>
	<g
   id="text3912"
   transform="matrix(1.0415058,-0.01018791,0.00868866,0.96006329,0,0)">
		<path
   id="path3141"
   fill="#FFFFFF"
   d="M460.8,984.5c-4.9-3.6-9.8-5.3-14.8-5.3c-10.1,0-15.1,3.8-15.1,11.4c0,3.2,2.7,7.1,8,11.5    l9.5,8c2.9,2.5,5,4.3,6.1,5.5c1.1,1.2,2.3,2.7,3.6,4.8c1.3,2,2.2,4.1,2.8,6.2c0.6,2.1,0.9,4.2,0.9,6.4c0,8.4-3.1,15-9.4,19.7    c-6.3,4.7-14.5,7.1-24.5,7.1c-8.2,0-16-1.8-23.3-5.3l5.3-16.1c5.6,4.2,12.1,6.3,19.5,6.3c4.5,0,8.2-1,11.1-2.9    c2.9-1.9,4.4-4.6,4.4-8.1c0-3.5-2.7-7.3-8-11.5l-9.8-7.8c-3-2.4-5-4.2-6.1-5.3c-1.1-1.1-2.2-2.6-3.4-4.5c-1.2-1.9-2-3.9-2.6-6    c-0.6-2-0.9-4.2-0.9-6.3c0-8.4,2.8-15.1,8.4-20.1c5.6-4.9,12.9-7.4,22-7.4c3,0,6.9,0.3,11.5,1c4.7,0.7,8,1.5,9.8,2.4L460.8,984.5z    " />
		<path
   id="path3143"
   fill="#FFFFFF"
   d="M492.3,1024.5l-6.2,33.7h-16.7l17.3-91.8c8.7-0.9,15.4-1.4,20-1.4c24.3,0,36.4,9.1,36.4,27.4    c0,10.3-3.7,18.4-11.1,24.2c-7.4,5.9-16.9,8.8-28.7,8.8C499.6,1025.6,495.9,1025.2,492.3,1024.5L492.3,1024.5z M500.3,980.3    l-5.5,30.3c2.1,0.6,4.9,0.9,8.2,0.9c7.1,0,12.8-1.5,16.9-4.6c4.2-3.1,6.3-7.4,6.3-13.2c0-9.7-5.5-14.5-16.4-14.5    C506.8,979.2,503.7,979.6,500.3,980.3L500.3,980.3z" />
		<path
   id="path3145"
   fill="#FFFFFF"
   d="M547.5,1024.1c0-16.4,4.5-30.3,13.4-41.9c8.9-11.6,20.5-17.4,34.8-17.4c11,0,19.5,2.9,25.4,8.8    c5.9,5.8,8.9,14.3,8.9,25.3c0,18.1-4.6,32.8-13.7,44.1c-9.1,11.3-21.6,16.9-37.4,16.9c-9.7,0-17.4-3.3-23-9.8    S547.5,1034.8,547.5,1024.1L547.5,1024.1z M564.5,1022.4c0,7.1,1.4,12.7,4.2,16.9c2.8,4.2,6.9,6.3,12.3,6.3    c10,0,17.8-4.5,23.6-13.4c5.8-8.9,8.7-19.6,8.7-32.1c0-14.1-6.2-21.1-18.6-21.1c-8.7,0-15.9,4.6-21.6,13.8    C567.3,1002,564.5,1011.8,564.5,1022.4L564.5,1022.4z" />
		<path
   id="path3147"
   fill="#FFFFFF"
   d="M684.7,1017.6l20.5,40.7h-18.4l-17.6-38c-2.8,0-6.3-0.2-10.5-0.5l-7.1,38.5h-16.8l16.8-91.9    c12.2-0.6,20.2-0.9,24-0.9c9.9,0,17.7,1.9,23.5,5.7c5.8,3.8,8.6,9.4,8.6,16.6c0,7.4-2.1,13.7-6.3,19.2    C697.3,1012.3,691.7,1015.9,684.7,1017.6L684.7,1017.6z M665.9,980.5l-4.7,25.7c2.5,0.3,4.7,0.4,6.6,0.4c15.8,0,23.7-5,23.7-15.1    c0-4.2-1.5-7.2-4.5-9c-3-1.8-8.1-2.7-15.1-2.7C671.3,979.9,669.3,980.1,665.9,980.5L665.9,980.5z" />
		<path
   id="path3149"
   fill="#FFFFFF"
   d="M798.9,980.7h-29l-14.2,77.6h-16.5l14.2-77.6h-29.2l2.6-14.3h74.8L798.9,980.7z" />
	</g>
	<path
   id="path3152"
   fill="#FFFFFF"
   d="M979.1,975.5l0.3,36l-20.5,0.2l-0.3-36l-35.5,0.4l-0.2-20.4l35.5-0.4l-0.3-34.8l20.5-0.2   l0.3,34.8l35.6-0.4l0.2,20.4L979.1,975.5z" />
</g>
</svg>
