<?xml version="1.0" encoding="UTF-8" standalone="no"?>
<!-- Generator: Adobe Illustrator 22.1.0, SVG Export Plug-In . SVG Version: 6.00 Build 0)  -->

<svg
   version="1.0"
   x="0px"
   y="0px"
   viewBox="0 0 1240 293.79999"
   enable-background="new 0 0 1260 720"
   xml:space="preserve"
   id="svg23"
   sodipodi:docname="ORF1 HD.svg"
   width="1240"
   height="293.79999"
   inkscape:version="1.1.1 (3bf5ae0d25, 2021-09-20)"
   xmlns:inkscape="http://www.inkscape.org/namespaces/inkscape"
   xmlns:sodipodi="http://sodipodi.sourceforge.net/DTD/sodipodi-0.dtd"
   xmlns="http://www.w3.org/2000/svg"
   xmlns:svg="http://www.w3.org/2000/svg"><defs
   id="defs27" /><sodipodi:namedview
   id="namedview25"
   pagecolor="#ffffff"
   bordercolor="#666666"
   borderopacity="1.0"
   inkscape:pageshadow="2"
   inkscape:pageopacity="0.0"
   inkscape:pagecheckerboard="0"
   showgrid="false"
   inkscape:zoom="0.89603175"
   inkscape:cx="619.95571"
   inkscape:cy="146.75819"
   inkscape:window-width="1920"
   inkscape:window-height="1017"
   inkscape:window-x="-8"
   inkscape:window-y="-8"
   inkscape:window-maximized="1"
   inkscape:current-layer="svg23" />
<g
   id="On_Black"
   transform="translate(-10,-213.1)">
	<path
   id="path3591_3_"
   fill="#ec1b24"
   d="M 361.3,214.2 H 1045 V 506.9 H 361.3 Z" />
	<path
   id="path3593_3_"
   fill="#ffffff"
   d="m 589.8,360.6 c 0,-47.8 -38.7,-84.7 -87.1,-84.7 -48.4,0 -87.1,36.9 -87.1,84.7 0,47.8 38.7,84.7 87.1,84.7 48.4,0 87.1,-36.9 87.1,-84.7 m -41.3,0 c 0,25.7 -22.1,46.2 -45.7,46.2 -23.9,0 -45.8,-20.5 -45.8,-46.2 0,-25.7 21.8,-46.2 45.8,-46.2 23.6,0 45.7,20.5 45.7,46.2" />
	<path
   id="path3595_3_"
   fill="#ffffff"
   d="m 647.4,442.1 h 40 v -47.5 h 29.9 l 31.5,47.5 h 49.9 L 758.4,385 c 19,-8.3 32.2,-26.2 32.2,-48.3 0,-32.5 -23.9,-57.7 -60.3,-57.7 H 647.4 Z M 728,356.2 H 687.5 V 317.5 H 728 c 17.4,0 22.6,8.6 22.6,19.2 0,10.9 -5.2,19.5 -22.6,19.5" />
	<path
   id="path3597_3_"
   fill="#ffffff"
   d="m 858,442 h 40 v -54.9 h 75.6 V 348.7 H 898 v -31.3 h 92.7 V 279 H 858 Z" />
	<path
   id="path3603_3_"
   fill="#e2001a"
   d="M 361.3,214.2 H 1045 V 506.9 H 361.3 Z" />
	<path
   id="path3605_3_"
   fill="#ffffff"
   d="m 589.8,360.6 c 0,-47.8 -38.7,-84.7 -87.1,-84.7 -48.4,0 -87.1,36.9 -87.1,84.7 0,47.8 38.7,84.7 87.1,84.7 48.4,0 87.1,-36.9 87.1,-84.7 m -41.3,0 c 0,25.7 -22.1,46.2 -45.7,46.2 -23.9,0 -45.8,-20.5 -45.8,-46.2 0,-25.7 21.8,-46.2 45.8,-46.2 23.6,0 45.7,20.5 45.7,46.2" />
	<path
   id="path3607_3_"
   fill="#ffffff"
   d="m 647.4,442.1 h 40 v -47.5 h 29.9 l 31.5,47.5 h 49.9 L 758.4,385 c 19,-8.3 32.2,-26.2 32.2,-48.3 0,-32.5 -23.9,-57.7 -60.3,-57.7 H 647.4 Z M 728,356.2 H 687.5 V 317.5 H 728 c 17.4,0 22.6,8.6 22.6,19.2 0,10.9 -5.2,19.5 -22.6,19.5" />
	<path
   id="path3609_3_"
   fill="#ffffff"
   d="m 858,442 h 40 v -54.9 h 75.6 V 348.7 H 898 v -31.3 h 92.7 V 279 H 858 Z" />
	<path
   id="path62_3_"
   fill="#f2f2f2"
   d="M 1054.7,214.2 H 1250 v 292.7 h -97.3 V 311.6 h -97.9 v -97.4 z" />
	<path
   fill="#f2f2f2"
   d="m 193,440.9 c 0,-54.5 0,-163.3 0,-163.3 0,0 72.2,-5.4 107.2,5.9 36.4,11.7 57.2,47.7 52.3,86.5 -5,38.7 -35.6,68.2 -76.1,70.7 z m 39.6,-37.1 c 0,0 81.2,12.4 81.2,-43.3 0,-57.6 -81.2,-45.9 -81.2,-45.9 z"
   id="path11" />
	<polygon
   fill="#f2f2f2"
   points="10,278.6 48,278.6 47.9,337.3 114.3,337.3 114.3,278.6 153.1,278.6 153.1,440 114.5,440 114.7,376.3 47.9,376.3 48,440.6 10,440.6 "
   id="polygon13" />
	<path
   fill="#f2f2f2"
   d="m 50.6,230.7 v 28.6 h -18 c 0,0 0,-28.8 0,-45 l 290.3,-1.2 v 64.5 l -17.2,-7.5 0.1,-39.4 z"
   id="path15" />
	<path
   fill="#f2f2f2"
   d="m 50.6,485.8 v -28.6 h -18 c 0,0 0,28.8 0,45 l 290.3,1.2 v -59.8 l -17.2,7.5 0.1,34.7 z"
   id="path17" />
</g>
<g
   id="On_White"
   transform="translate(-10,-213.1)">
</g>
<g
   id="Hilfslinien"
   transform="translate(-10,-213.1)">
</g>
<g
   id="Description"
   transform="translate(-10,-213.1)">
</g>
</svg>
