<?xml version="1.0" encoding="UTF-8" standalone="no"?>
<!-- Generator: Adobe Illustrator 14.0.0, SVG Export Plug-In . SVG Version: 6.00 Build 43363)  -->

<svg
   xmlns:dc="http://purl.org/dc/elements/1.1/"
   xmlns:cc="http://creativecommons.org/ns#"
   xmlns:rdf="http://www.w3.org/1999/02/22-rdf-syntax-ns#"
   xmlns:svg="http://www.w3.org/2000/svg"
   xmlns="http://www.w3.org/2000/svg"
   xmlns:sodipodi="http://sodipodi.sourceforge.net/DTD/sodipodi-0.dtd"
   xmlns:inkscape="http://www.inkscape.org/namespaces/inkscape"
   version="1.1"
   id="svg11358"
   x="0px"
   y="0px"
   width="1066.342px"
   height="273.013px"
   viewBox="0 -34.996 1066.342 273.013"
   enable-background="new 0 -34.996 1066.342 273.013"
   xml:space="preserve"
   inkscape:version="0.47 "
   sodipodi:docname="ORF-1-HD.svg"><metadata
   id="metadata26"><rdf:RDF><cc:Work
       rdf:about=""><dc:format>image/svg+xml</dc:format><dc:type
         rdf:resource="http://purl.org/dc/dcmitype/StillImage" /></cc:Work></rdf:RDF></metadata><defs
   id="defs24"><inkscape:perspective
     sodipodi:type="inkscape:persp3d"
     inkscape:vp_x="0 : 136.5065 : 1"
     inkscape:vp_y="0 : 1000 : 0"
     inkscape:vp_z="1066.342 : 136.5065 : 1"
     inkscape:persp3d-origin="533.17102 : 91.004333 : 1"
     id="perspective28" /><inkscape:perspective
     id="perspective2859"
     inkscape:persp3d-origin="0.5 : 0.33333333 : 1"
     inkscape:vp_z="1 : 0.5 : 1"
     inkscape:vp_y="0 : 1000 : 0"
     inkscape:vp_x="0 : 0.5 : 1"
     sodipodi:type="inkscape:persp3d" /></defs><sodipodi:namedview
   pagecolor="#ffffff"
   bordercolor="#666666"
   borderopacity="1"
   objecttolerance="10"
   gridtolerance="10"
   guidetolerance="10"
   inkscape:pageopacity="0"
   inkscape:pageshadow="2"
   inkscape:window-width="1024"
   inkscape:window-height="712"
   id="namedview22"
   showgrid="false"
   inkscape:zoom="0.50640412"
   inkscape:cx="533.17102"
   inkscape:cy="136.5065"
   inkscape:window-x="-4"
   inkscape:window-y="-4"
   inkscape:window-maximized="1"
   inkscape:current-layer="svg11358" />
<g
   id="layer1"
   transform="translate(-84.896595,82.000916)">
	<g
   id="g13505">
		<path
   id="path3591"
   fill="#EC1B24"
   d="M84.896-82.001h476.682v204.084H84.896V-82.001z" />
		<path
   id="path3593"
   fill="#FFFFFF"
   d="M244.185,20.046c0-33.324-27.008-59.042-60.709-59.042    c-33.715,0-60.721,25.718-60.721,59.042c0,33.313,27.006,59.022,60.721,59.022C217.18,79.068,244.185,53.359,244.185,20.046     M215.37,20.046c0,17.922-15.402,32.226-31.894,32.226c-16.683,0-31.903-14.304-31.903-32.226    c0-17.932,15.223-32.234,31.903-32.234C199.968-12.189,215.37,2.114,215.37,20.046" />
		<path
   id="path3595"
   fill="#FFFFFF"
   d="M284.377,76.898h27.915V43.764h20.84l21.931,33.135h34.792l-28.086-39.832    c13.224-5.797,22.469-18.291,22.469-33.684c0-22.639-16.672-40.201-42.048-40.201h-57.813V76.898L284.377,76.898z M340.557,16.968    H312.29V-10.02h28.268c12.144,0,15.771,5.977,15.771,13.403C356.329,10.99,352.701,16.968,340.557,16.968" />
		<path
   id="path3597"
   fill="#FFFFFF"
   d="M431.171,76.833h27.89V38.546h52.704v-26.78H459.06V-10.04h64.658v-26.778h-92.548V76.833z" />
		<path
   id="path3599"
   fill="#FFFFFF"
   d="M733.503-3.266c0-20.574-16.858-38.184-43.571-38.184c-20.178,0-35.808,7.777-48.216,27.991    L666.533-1.6c5.399-9.634,12.979-14.455,22.26-14.455c9.283,0,16.198,6.119,16.198,12.419c0,4.262-1.895,8.345-7.673,12.787    l-52.951,41.906v26.135h88.757V50.68h-47.077l27.659-20.943C725.546,20.842,733.503,9.9,733.503-3.266" />

		<path
   id="path3603"
   fill="#E2001A"
   d="M84.896-82.001h476.682v204.084H84.896V-82.001z" />
		<path
   id="path3605"
   fill="#FFFFFF"
   d="M244.185,20.046c0-33.324-27.008-59.042-60.709-59.042    c-33.715,0-60.721,25.718-60.721,59.042c0,33.313,27.006,59.022,60.721,59.022C217.18,79.068,244.185,53.359,244.185,20.046     M215.37,20.046c0,17.922-15.402,32.226-31.894,32.226c-16.683,0-31.903-14.304-31.903-32.226    c0-17.932,15.223-32.234,31.903-32.234C199.968-12.189,215.37,2.114,215.37,20.046" />
		<path
   id="path3607"
   fill="#FFFFFF"
   d="M284.377,76.898h27.915V43.764h20.84l21.931,33.135h34.792l-28.086-39.832    c13.224-5.797,22.469-18.291,22.469-33.684c0-22.639-16.672-40.201-42.048-40.201h-57.813V76.898L284.377,76.898z M340.557,16.968    H312.29V-10.02h28.268c12.144,0,15.771,5.977,15.771,13.403C356.329,10.99,352.701,16.968,340.557,16.968" />
		<path
   id="path3609"
   fill="#FFFFFF"
   d="M431.171,76.833h27.89V38.546h52.704v-26.78H459.06V-10.04h64.658v-26.778h-92.548V76.833z" />
		<path
   id="path3611"
   fill="#FFFFFF"
   d="M733.503-3.266c0-20.574-16.858-38.184-43.571-38.184c-20.178,0-35.808,7.777-48.216,27.991    L666.533-1.6c5.399-9.634,12.979-14.455,22.26-14.455c9.283,0,16.198,6.119,16.198,12.419c0,4.262-1.895,8.345-7.673,12.787    l-52.951,41.906v26.135h88.757V50.68h-47.077l27.659-20.943C725.546,20.842,733.503,9.9,733.503-3.266" />
	</g>
</g>
<path
   id="path4247"
   fill="#E2001A"
   d="M878.06,179.14V24.944h-37.815v57.212H777.39V24.944h-37.813V179.14h37.813v-60.646h62.854  v60.646H878.06z M1066.342,102.042c0-40.761-31.433-77.098-82.255-77.098h-70.473V179.14h70.473  C1033.93,179.14,1066.342,142.802,1066.342,102.042 M1028.529,102.042c0,22.341-16.698,40.76-44.441,40.76h-32.903V61.281h32.903  C1011.83,61.281,1028.529,79.7,1028.529,102.042" />
<path
   fill="#E2001A"
   d="M1021.052-19.34v36.746c5.601,2.08,10.771,4.665,15.655,7.589v-59.991H761.447V9.957h15.656V-19.34"
   id="path16" />
<g
   id="g8207"
   transform="matrix(1.8174055,0,0,1.8173696,-759.15287,-368.90831)">
	<path
   id="path4249"
   fill="#E2001A"
   d="M836.687,333.958h151.459v-32.941c-2.694,1.63-5.542,3.082-8.615,4.247v20.08H845.303v-15.81   h-8.615" />

</g>
<path
   id="path1262"
   fill="#72C82B"
   d="M504.633,204.127h204.029V-0.043H504.633V204.127z"
   style="fill:#e2001a;fill-opacity:1" />

<path
   d="m 645.54317,81.83878 c 0,-19.39219 -15.89232,-35.98985 -41.06996,-35.98985 -19.0172,0 -33.74887,7.33012 -45.44489,26.38303 l 23.39205,11.17818 c 5.08912,-9.08003 12.23175,-13.62456 20.98143,-13.62456 8.74969,0 15.26733,5.76764 15.26733,11.70497 0,4.01773 -1.78569,7.86578 -7.23194,12.05312 l -49.90895,39.49872 0,24.63304 83.65782,0 0,-24.99015 -44.37348,0 26.07058,-19.74044 c 11.16027,-8.38364 18.66001,-18.69582 18.66001,-31.10606"
   id="path3611-1"
   style="font-size:10px;letter-spacing:0;word-spacing:0;fill:#ffffff;fill-opacity:1;fill-rule:nonzero;stroke:none" /></svg>