<?xml version="1.0" encoding="UTF-8" standalone="no"?>
<!-- Created with Inkscape (http://www.inkscape.org/) -->

<svg
   version="1.0"
   width="680.70001"
   height="204.08"
   id="svg11358"
   inkscape:version="1.1.1 (3bf5ae0d25, 2021-09-20)"
   sodipodi:docname="ORF2E.svg"
   xmlns:inkscape="http://www.inkscape.org/namespaces/inkscape"
   xmlns:sodipodi="http://sodipodi.sourceforge.net/DTD/sodipodi-0.dtd"
   xmlns="http://www.w3.org/2000/svg"
   xmlns:svg="http://www.w3.org/2000/svg"
   xmlns:rdf="http://www.w3.org/1999/02/22-rdf-syntax-ns#"
   xmlns:cc="http://creativecommons.org/ns#"
   xmlns:dc="http://purl.org/dc/elements/1.1/">
  <metadata
     id="metadata20">
    <rdf:RDF>
      <cc:Work
         rdf:about="">
        <dc:format>image/svg+xml</dc:format>
        <dc:type
           rdf:resource="http://purl.org/dc/dcmitype/StillImage" />
      </cc:Work>
    </rdf:RDF>
  </metadata>
  <sodipodi:namedview
     pagecolor="#ffffff"
     bordercolor="#666666"
     borderopacity="1"
     objecttolerance="10"
     gridtolerance="10"
     guidetolerance="10"
     inkscape:pageopacity="0"
     inkscape:pageshadow="2"
     inkscape:window-width="1920"
     inkscape:window-height="1017"
     id="namedview18"
     showgrid="false"
     inkscape:zoom="0.88006507"
     inkscape:cx="694.83499"
     inkscape:cy="147.14821"
     inkscape:window-x="-8"
     inkscape:window-y="-8"
     inkscape:window-maximized="1"
     inkscape:current-layer="layer1"
     inkscape:pagecheckerboard="0" />
  <defs
     id="defs11360" />
  <g
     transform="translate(-84.896595,81.997283)"
     id="layer1">
    <g
       id="g13505">
      <path
         d="m 84.896595,-82.000916 476.681435,0 0,204.083626 -476.681435,0 0,-204.083626 z"
         id="path3591"
         style="font-size:10px;letter-spacing:0;word-spacing:0;fill:#808080;fill-rule:nonzero;stroke:none"
         inkscape:connector-curvature="0" />
      <path
         d="m 244.18509,20.045619 c 0,-33.324009 -27.00591,-59.041662 -60.70885,-59.041662 -33.7124,0 -60.71832,25.717653 -60.71832,59.041662 0,33.314598 27.00592,59.02276 60.71832,59.02276 33.70294,0 60.70885,-25.708162 60.70885,-59.02276 m -28.81517,0 c 0,17.921861 -15.40217,32.225276 -31.89368,32.225276 -16.68095,0 -31.90317,-14.303415 -31.90317,-32.225276 0,-17.9312717 15.22222,-32.234686 31.90317,-32.234686 16.49151,0 31.89368,14.3034143 31.89368,32.234686"
         id="path3593"
         style="font-size:10px;letter-spacing:0;word-spacing:0;fill:#ffffff;fill-rule:nonzero;stroke:none"
         inkscape:connector-curvature="0" />
      <path
         d="m 284.37661,76.899225 27.91528,0 0,-33.134572 20.83935,0 21.92875,33.134572 34.79221,0 -28.08574,-39.831631 c 13.22351,-5.797091 22.46859,-18.291242 22.46859,-33.6839793 0,-22.6391227 -16.67149,-40.2010127 -42.04816,-40.2010127 l -57.81028,0 0,113.716623 z m 56.18104,-59.932137 -28.26576,0 0,-26.986921 28.26576,0 c 12.14367,0 15.77161,5.9770368 15.77161,13.4034477 0,7.6063553 -3.62794,13.5834733 -15.77161,13.5834733"
         id="path3595"
         style="font-size:10px;letter-spacing:0;word-spacing:0;fill:#ffffff;fill-rule:nonzero;stroke:none"
         inkscape:connector-curvature="0" />
      <path
         d="m 431.17101,76.832943 27.88681,0 0,-38.28766 52.70465,0 0,-26.778581 -52.70465,0 0,-21.805519 64.65889,0 0,-26.778581 -92.5457,0 0,113.650341 z"
         id="path3597"
         style="font-size:10px;letter-spacing:0;word-spacing:0;fill:#ffffff;fill-rule:nonzero;stroke:none"
         inkscape:connector-curvature="0" />
      <path
         d="m 733.50272,-3.2659835 c 0,-20.5741385 -16.86094,-38.1834085 -43.57315,-38.1834085 -20.17628,0 -35.80584,7.776889 -48.21472,27.991057 l 24.81777,11.8594768 c 5.39931,-9.6334518 12.97727,-14.4549638 22.26024,-14.4549638 9.28298,0 16.19787,6.1191749 16.19787,12.4183758 0,4.26261289 -1.89453,8.3451999 -7.67272,12.7877575 l -52.95088,41.9061067 0,26.134414 88.75671,0 0,-26.513288 -47.07801,0 27.65956,-20.943602 c 11.84049,-8.894607 19.79733,-19.8352943 19.79733,-33.0019255"
         id="path3599"
         style="font-size:10px;letter-spacing:0;word-spacing:0;fill:#ffffff;fill-rule:nonzero;stroke:none"
         inkscape:connector-curvature="0" />
      <path
         d="m 561.47433,-82.000916 204.08368,0 0,204.083626 -204.08368,0 0,-204.083626 z"
         id="path3601"
         style="font-size:10px;letter-spacing:0;word-spacing:0;fill:#e6e6e6;fill-opacity:1;fill-rule:nonzero;stroke:none"
         inkscape:connector-curvature="0" />
      <path
         d="m 244.18509,20.045619 c 0,-33.324009 -27.00591,-59.041662 -60.70885,-59.041662 -33.7124,0 -60.71832,25.717653 -60.71832,59.041662 0,33.314598 27.00592,59.02276 60.71832,59.02276 33.70294,0 60.70885,-25.708162 60.70885,-59.02276 m -28.81517,0 c 0,17.921861 -15.40217,32.225276 -31.89368,32.225276 -16.68095,0 -31.90317,-14.303415 -31.90317,-32.225276 0,-17.9312717 15.22222,-32.234686 31.90317,-32.234686 16.49151,0 31.89368,14.3034143 31.89368,32.234686"
         id="path3605"
         style="font-size:10px;letter-spacing:0;word-spacing:0;fill:#ffffff;fill-rule:nonzero;stroke:none"
         inkscape:connector-curvature="0" />
      <path
         d="m 284.37661,76.899225 27.91528,0 0,-33.134572 20.83935,0 21.92875,33.134572 34.79221,0 -28.08574,-39.831631 c 13.22351,-5.797091 22.46859,-18.291242 22.46859,-33.6839793 0,-22.6391227 -16.67149,-40.2010127 -42.04816,-40.2010127 l -57.81028,0 0,113.716623 z m 56.18104,-59.932137 -28.26576,0 0,-26.986921 28.26576,0 c 12.14367,0 15.77161,5.9770368 15.77161,13.4034477 0,7.6063553 -3.62794,13.5834733 -15.77161,13.5834733"
         id="path3607"
         style="font-size:10px;letter-spacing:0;word-spacing:0;fill:#ffffff;fill-rule:nonzero;stroke:none"
         inkscape:connector-curvature="0" />
      <path
         d="m 431.17101,76.832943 27.88681,0 0,-38.28766 52.70465,0 0,-26.778581 -52.70465,0 0,-21.805519 64.65889,0 0,-26.778581 -92.5457,0 0,113.650341 z"
         id="path3609"
         style="font-size:10px;letter-spacing:0;word-spacing:0;fill:#ffffff;fill-rule:nonzero;stroke:none"
         inkscape:connector-curvature="0" />
      <path
         d="m 705.50272,-3.2659835 c 0,-20.5741385 -16.86094,-38.1834085 -43.57315,-38.1834085 -20.17628,0 -35.80584,7.776889 -48.21472,27.991057 l 24.81777,11.8594768 c 5.39931,-9.6334518 12.97727,-14.4549638 22.26024,-14.4549638 9.28298,0 16.19787,6.1191749 16.19787,12.4183758 0,4.26261289 -1.89453,8.3451999 -7.67272,12.7877575 l -52.95088,41.9061067 0,26.134414 88.75671,0 0,-26.513288 -47.07801,0 27.65956,-20.943602 c 11.84049,-8.894607 19.79733,-19.8352943 19.79733,-33.0019255"
         id="path3611"
         style="font-size:10px;letter-spacing:0;word-spacing:0;fill:#808080;fill-rule:nonzero;stroke:none"
         inkscape:connector-curvature="0" />
    </g>
    <path
       style="fill:#ff0000;stroke-width:1.13628"
       d="M 91.246902,132.53409 C 76.067529,128.32483 66.646796,114.91669 67.899928,99.305307 68.888572,86.98889 77.596809,76.007036 89.513223,72.049038 c 22.739717,-7.55292 46.090967,15.674639 38.862307,38.656442 -4.98874,15.86051 -22.1873,25.97186 -37.128628,21.82861 z"
       id="path168"
       transform="translate(84.896595,-81.997283)" />
    <path
       style="fill:#ff0000;stroke-width:1.13628"
       d="M 0.56813981,101.69703 V 0 H 238.05058 475.53302 V 101.69703 203.39405 H 238.05058 0.56813981 Z M 113.9237,159.64096 c 21.9114,-5.16613 40.0276,-23.35594 44.46791,-44.64858 C 166.29215,77.106786 138.57901,43.137776 99.519787,42.831025 82.92093,42.700666 68.837592,47.680694 57.325099,57.751542 44.378542,69.076875 37.59491,84.49902 37.745198,102.26517 c 0.199669,23.60353 12.031283,42.71926 32.704138,52.83837 12.550829,6.14348 29.264056,7.88784 43.474364,4.53742 z m 113.90036,-17.03787 v -16.47605 l 9.94245,0.0235 9.94245,0.0235 10.79465,16.42903 10.79466,16.42904 17.8964,0.0235 c 9.84303,0.013 17.89641,-0.26081 17.89641,-0.60831 0,-0.34749 -6.08776,-9.24079 -13.52834,-19.76286 l -13.52834,-19.13106 5.50069,-3.56432 c 11.33164,-7.3426 16.45447,-18.331947 15.65411,-33.580719 -0.62049,-11.821884 -4.3118,-19.920156 -12.39078,-27.183857 -10.6959,-9.616535 -13.59459,-10.200158 -53.00889,-10.672866 l -34.37246,-0.41224 v 57.469882 57.46989 h 14.2035 14.20349 z m 146.58007,-2.27256 v -18.74861 h 26.70257 26.70258 V 107.37842 93.174929 H 401.1067 374.40413 V 82.948412 72.721895 h 32.38397 32.38397 V 58.5184 44.314905 h -46.58746 -46.58747 v 57.382125 57.38212 h 14.2035 14.20349 z"
       id="path207"
       transform="translate(84.896595,-81.997283)" />
    <path
       style="fill:#ff0000;stroke-width:1.13628"
       d="M 227.82406,85.912958 V 72.721895 h 16.87616 c 15.65953,0 17.15186,0.185796 20.70048,2.577209 4.84549,3.265376 6.44493,8.309026 4.59403,14.486773 -2.13846,7.137539 -5.53245,8.321215 -25.41054,8.862099 l -16.76013,0.456044 z"
       id="path246"
       transform="translate(84.896595,-81.997283)" />
    <path
       style="fill:#ff0000;stroke-width:1.13628"
       d="m 119.02529,203.67818 c 65.46391,-0.16203 172.58667,-0.16203 238.05058,0 65.46391,0.16203 11.90253,0.29459 -119.02529,0.29459 -130.92782,0 -184.4892,-0.13256 -119.02529,-0.29459 z"
       id="path285"
       transform="translate(84.896595,-81.997283)" />
  </g>
</svg>
