<?xml version="1.0" encoding="UTF-8"?>
<!DOCTYPE svg PUBLIC "-//W3C//DTD SVG 1.1//EN" "http://www.w3.org/Graphics/SVG/1.1/DTD/svg11.dtd">
<svg xmlns="http://www.w3.org/2000/svg" version="1.1" width="438px" height="284px" style="shape-rendering:geometricPrecision; text-rendering:geometricPrecision; image-rendering:optimizeQuality; fill-rule:evenodd; clip-rule:evenodd" xmlns:xlink="http://www.w3.org/1999/xlink">
<g><path style="opacity:1" fill="#ffffff" d="M 122.5,1.5 C 163.542,-2.86966 199.876,7.96368 231.5,34C 236.42,38.4135 240.753,43.2469 244.5,48.5C 234.195,69.7771 223.362,90.7771 212,111.5C 190.345,70.6029 157.178,56.7696 112.5,70C 82.9937,83.6916 67.6603,106.858 66.5,139.5C 68.9533,180.459 90.2866,205.293 130.5,214C 139.936,214.94 149.27,214.44 158.5,212.5C 159.308,212.808 159.975,213.308 160.5,214C 150.128,234.578 139.628,255.078 129,275.5C 128.196,276.804 127.029,277.471 125.5,277.5C 58.6721,265.839 18.1721,226.839 4,160.5C -2.37269,99.8665 19.794,53.0332 70.5,20C 86.927,10.9158 104.26,4.7491 122.5,1.5 Z"/></g>
<g><path style="opacity:1" fill="#ffffff" d="M 300.5,44.5 C 305.167,44.5 309.833,44.5 314.5,44.5C 314.5,54.1667 314.5,63.8333 314.5,73.5C 325.167,73.5 335.833,73.5 346.5,73.5C 346.5,63.8333 346.5,54.1667 346.5,44.5C 351.167,44.5 355.833,44.5 360.5,44.5C 360.5,68.1667 360.5,91.8333 360.5,115.5C 355.833,115.5 351.167,115.5 346.5,115.5C 346.5,105.5 346.5,95.5 346.5,85.5C 335.833,85.5 325.167,85.5 314.5,85.5C 314.5,95.5 314.5,105.5 314.5,115.5C 309.833,115.5 305.167,115.5 300.5,115.5C 300.5,91.8333 300.5,68.1667 300.5,44.5 Z"/></g>
<g><path style="opacity:1" fill="#ffffff" d="M 369.5,44.5 C 381.505,44.3335 393.505,44.5001 405.5,45C 422.994,49.1589 432.661,60.1589 434.5,78C 435.061,91.2052 429.394,102.205 417.5,111C 414.326,112.725 410.993,114.058 407.5,115C 394.838,115.5 382.171,115.667 369.5,115.5C 369.5,91.8333 369.5,68.1667 369.5,44.5 Z M 382.5,56.5 C 388.842,56.3338 395.175,56.5005 401.5,57C 417.033,62.5398 422.533,73.3732 418,89.5C 414.686,96.1487 409.519,100.649 402.5,103C 395.842,103.5 389.175,103.666 382.5,103.5C 382.5,87.8333 382.5,72.1667 382.5,56.5 Z"/></g>
<g><path style="opacity:1" fill="#ffffff" d="M 259.5,59.5 C 297.081,131.996 333.581,204.996 369,278.5C 349.24,279.659 329.407,279.826 309.5,279C 298.685,278.291 289.518,274.124 282,266.5C 274.219,253.271 267.219,239.605 261,225.5C 259.333,222.833 257.667,222.833 256,225.5C 246.213,243.577 236.046,261.411 225.5,279C 198.827,279.833 172.16,279.667 145.5,278.5C 156.411,256.344 167.578,234.344 179,212.5C 184.086,204.87 191.253,200.703 200.5,200C 215.408,199.825 230.241,199.325 245,198.5C 236.505,178.339 227.005,158.506 216.5,139C 230.464,112.234 244.798,85.7336 259.5,59.5 Z"/></g>
<g><path style="opacity:1" fill="#ffffff" d="M 84.5,111.5 C 105.169,111.333 125.836,111.5 146.5,112C 147.333,112.833 148.167,113.667 149,114.5C 153.686,128.063 158.852,141.397 164.5,154.5C 171.833,140.5 179.167,126.5 186.5,112.5C 192.167,111.167 197.833,111.167 203.5,112.5C 191.882,135.57 179.882,158.403 167.5,181C 162.746,183.221 158.913,182.055 156,177.5C 149.667,160.5 143.333,143.5 137,126.5C 131.259,125.525 125.425,125.192 119.5,125.5C 119.5,144.5 119.5,163.5 119.5,182.5C 115.167,182.5 110.833,182.5 106.5,182.5C 106.5,163.5 106.5,144.5 106.5,125.5C 99.1667,125.5 91.8333,125.5 84.5,125.5C 84.5,120.833 84.5,116.167 84.5,111.5 Z"/></g>
</svg>
