<?xml version="1.0" encoding="UTF-8" standalone="no"?>
<svg
   id="logo"
   viewBox="0 0 117 30.099999"
   width="117"
   height="30.1"
   version="1.1"
   sodipodi:docname="phoenix HD.svg"
   inkscape:version="1.1.1 (3bf5ae0d25, 2021-09-20)"
   xmlns:inkscape="http://www.inkscape.org/namespaces/inkscape"
   xmlns:sodipodi="http://sodipodi.sourceforge.net/DTD/sodipodi-0.dtd"
   xmlns="http://www.w3.org/2000/svg"
   xmlns:svg="http://www.w3.org/2000/svg"
   xmlns:rdf="http://www.w3.org/1999/02/22-rdf-syntax-ns#"
   xmlns:cc="http://creativecommons.org/ns#"
   xmlns:dc="http://purl.org/dc/elements/1.1/">
  <metadata
     id="metadata9">
    <rdf:RDF>
      <cc:Work
         rdf:about="">
        <dc:format>image/svg+xml</dc:format>
        <dc:type
           rdf:resource="http://purl.org/dc/dcmitype/StillImage" />
        <dc:title />
      </cc:Work>
    </rdf:RDF>
  </metadata>
  <defs
     id="defs7" />
  <sodipodi:namedview
     pagecolor="#ffffff"
     bordercolor="#ffffff"
     borderopacity="1"
     objecttolerance="10"
     gridtolerance="10"
     guidetolerance="10"
     inkscape:pageopacity="0"
     inkscape:pageshadow="2"
     inkscape:window-width="1920"
     inkscape:window-height="1017"
     id="namedview5"
     showgrid="false"
     fit-margin-top="0"
     fit-margin-left="0"
     fit-margin-right="0"
     fit-margin-bottom="0"
     inkscape:zoom="15.042735"
     inkscape:cx="58.466762"
     inkscape:cy="10.536648"
     inkscape:window-x="-8"
     inkscape:window-y="-8"
     inkscape:window-maximized="1"
     inkscape:current-layer="logo"
     inkscape:pagecheckerboard="0" />
  <path
     d="M 4.3,6.6 V 8.5 C 5,7.8 5.9,7.2 6.8,6.8 7.7,6.4 8.7,6.2 9.7,6.2 c 2.2,0 4.3,0.9 5.7,2.5 1.6,1.8 2.4,4.1 2.3,6.5 0.1,2.4 -0.8,4.7 -2.4,6.4 -1.5,1.6 -3.6,2.6 -5.8,2.6 C 8.6,24.2 7.6,24 6.7,23.7 5.8,23.3 4.9,22.7 4.2,22 v 8.1 H 0 V 6.6 Z m 4.5,3.6 c -1.3,0 -2.5,0.5 -3.3,1.4 -0.9,1 -1.4,2.3 -1.3,3.6 -0.1,1.4 0.4,2.7 1.3,3.7 0.9,0.9 2.1,1.5 3.3,1.4 1.3,0 2.5,-0.5 3.3,-1.4 0.9,-1 1.4,-2.3 1.3,-3.7 0.1,-1.3 -0.4,-2.6 -1.3,-3.6 -0.8,-0.9 -2,-1.5 -3.3,-1.4 m 11,13.6 H 24 v -6.9 c 0,-1.2 0,-2.4 0.2,-3.5 0.2,-0.9 0.6,-1.7 1.3,-2.3 0.6,-0.6 1.4,-0.9 2.2,-0.9 0.6,0 1.2,0.2 1.7,0.5 0.5,0.4 0.8,0.9 1,1.6 0.2,1.3 0.3,2.7 0.3,4 v 7.5 H 35 V 12.5 C 35.1,10.9 34.6,9.2 33.5,8 32.4,6.8 30.8,6.2 29.2,6.2 c -0.9,0 -1.8,0.2 -2.6,0.5 -0.9,0.4 -1.8,1 -2.5,1.6 V 0 H 19.8 Z M 45.6,6.2 c 1.6,0 3.2,0.4 4.6,1.2 1.4,0.8 2.5,1.9 3.3,3.3 0.8,1.4 1.2,2.9 1.2,4.5 0,1.6 -0.4,3.2 -1.2,4.6 -0.8,1.4 -1.9,2.5 -3.3,3.3 -1.4,0.8 -3,1.2 -4.6,1.2 -2.4,0 -4.7,-0.9 -6.3,-2.6 -1.7,-1.7 -2.7,-4 -2.6,-6.4 -0.1,-2.6 1,-5 3,-6.7 1.5,-1.6 3.7,-2.4 5.9,-2.4 m 0.1,4 c -1.3,0 -2.5,0.5 -3.3,1.4 -0.9,1 -1.4,2.3 -1.3,3.6 -0.1,1.3 0.4,2.6 1.3,3.6 0.9,0.9 2.1,1.4 3.3,1.4 1.3,0 2.5,-0.5 3.4,-1.4 0.9,-1 1.4,-2.3 1.3,-3.6 0.1,-1.3 -0.4,-2.6 -1.3,-3.6 -0.9,-0.9 -2.2,-1.4 -3.4,-1.4 m 28.4,6.3 H 60.3 c 0.1,1.1 0.7,2.2 1.6,2.9 0.9,0.8 2.1,1.1 3.3,1.1 1.6,0 3.1,-0.6 4.2,-1.7 l 3.6,1.7 c -0.8,1.2 -1.9,2.2 -3.3,2.8 -1.4,0.6 -2.9,1 -4.5,0.9 -2.5,0.1 -4.8,-0.8 -6.6,-2.5 -1.7,-1.7 -2.6,-4 -2.5,-6.4 -0.1,-2.4 0.8,-4.8 2.5,-6.5 1.7,-1.7 4,-2.7 6.4,-2.6 2.5,-0.1 4.9,0.8 6.6,2.6 1.7,1.8 2.7,4.3 2.5,6.9 z m -4.3,-3.4 c -0.3,-1 -0.9,-1.8 -1.7,-2.3 -0.9,-0.6 -1.9,-0.9 -2.9,-0.9 -1.1,0 -2.3,0.3 -3.2,1 -0.7,0.6 -1.2,1.4 -1.6,2.2 z M 76,23.8 h 4.3 v -6.9 c 0,-1.2 0,-2.3 0.2,-3.5 0.2,-0.9 0.6,-1.8 1.3,-2.4 0.6,-0.6 1.4,-0.9 2.2,-0.8 0.6,0 1.2,0.2 1.7,0.5 0.5,0.4 0.8,1 1,1.6 0.2,1.3 0.3,2.7 0.3,4.1 v 7.5 h 4.3 V 12.5 C 91.4,10.9 90.9,9.3 89.8,8 88.7,6.8 87.1,6.2 85.5,6.2 c -0.8,0 -1.7,0.2 -2.4,0.5 -1,0.4 -1.9,1 -2.7,1.7 V 6.6 H 76 Z m 17.5,0 h 4.3 V 6.6 h -4.3 z m 11.9,-9 -6.5,9 h 4.9 l 4.1,-5.6 4.1,5.6 h 5 l -6.6,-9.1 5.8,-8.1 h -4.9 l -3.4,4.7 -3.4,-4.7 h -5 z"
     style="fill:#ffffff"
     id="path2"
     inkscape:connector-curvature="0"
     sodipodi:nodetypes="ccsscccscccccccccccccccccsccsccscccssccccccssssssccccccccscccccccsccscccscsccccscccccscccccsccccsccccccccccccccccccccccc" />
  <path
     style="fill:#ffffff;fill-opacity:1;stroke-width:0.0664773"
     d="M 0.03323864,18.347727 V 6.6477273 H 2.1586861 4.2841336 l 0.018445,0.9419766 0.018445,0.9419766 0.3988637,-0.3509882 c 1.759345,-1.5481726 3.9854558,-2.2013672 6.2503687,-1.8340091 1.619515,0.2626779 2.941531,0.9385757 4.089589,2.0908553 1.323444,1.3283111 2.174962,3.0057885 2.491221,4.9076665 0.161716,0.972508 0.110508,3.329228 -0.08934,4.111464 -0.430105,1.68353 -1.131111,2.979937 -2.237735,4.138362 C 12.982989,23.940937 9.8872918,24.72595 6.8803977,23.710817 6.3217979,23.522233 5.4803614,23.018101 4.780495,22.452699 4.4750051,22.205902 4.2092572,22.003977 4.1899442,22.003977 c -0.019313,0 -0.035115,1.809844 -0.035115,4.021875 v 4.021875 H 2.0940341 0.03323864 Z M 10.038068,20.178815 c 1.556054,-0.408369 2.790224,-1.704924 3.265331,-3.430388 0.166739,-0.605549 0.171307,-2.375658 0.0077,-2.987632 -0.163103,-0.610131 -0.653053,-1.56351 -1.02601,-1.996482 -0.945494,-1.09764 -1.972796,-1.590132 -3.3214395,-1.592308 -1.8892641,-0.003 -3.3004183,0.793784 -4.1776169,2.358961 -0.4323557,0.771448 -0.5791702,1.350934 -0.615701,2.430208 -0.04739,1.40011 0.1639059,2.302436 0.7605863,3.248033 0.6258056,0.991754 1.8021718,1.827359 2.9133893,2.069458 0.3840532,0.08367 1.7274392,0.02253 2.1937498,-0.09985 z"
     id="path3242" />
  <path
     style="fill:#ffffff;fill-opacity:1;stroke-width:0.0664773"
     d="M 19.843466,11.899432 V 0 h 2.126773 2.126773 l 0.01712,4.1607819 0.01712,4.160782 0.265909,-0.2146272 c 0.444343,-0.3586489 1.415566,-0.9799089 1.918277,-1.2270601 0.261198,-0.1284142 0.774053,-0.3137947 1.139678,-0.4119564 0.59587,-0.1599771 0.778461,-0.1783406 1.761647,-0.1771713 0.998395,0.00119 1.149378,0.017326 1.681649,0.1797478 2.090306,0.6378563 3.38849,2.0504152 3.950745,4.2988213 0.09502,0.379993 0.110995,1.191699 0.13243,6.730824 l 0.02437,6.298722 h -2.130111 -2.13011 l -0.001,-4.071733 c -0.0017,-6.54671 -0.145255,-7.794352 -1.004398,-8.726412 -0.639659,-0.693948 -1.796178,-0.993082 -2.814254,-0.727907 -0.632839,0.164834 -1.120925,0.467671 -1.655418,1.027119 -0.794244,0.831328 -1.109061,1.655498 -1.237756,3.240372 -0.0373,0.45939 -0.06782,2.730498 -0.06782,5.046908 v 4.211653 h -2.060796 -2.060795 z"
     id="path3281" />
  <path
     style="fill:#ffffff;fill-opacity:1;stroke-width:0.0664773"
     d="m 44.218561,24.159996 c -1.477067,-0.229771 -2.840263,-0.800701 -3.966572,-1.661272 -0.906836,-0.692878 -2.113091,-2.142471 -2.624415,-3.153838 -0.254957,-0.504288 -0.61351,-1.532381 -0.741897,-2.127272 -0.154703,-0.716823 -0.17448,-2.965552 -0.03245,-3.689489 0.22057,-1.124246 0.653452,-2.173202 1.303106,-3.15767 0.408335,-0.6187813 1.952721,-2.1780748 2.627472,-2.6528346 0.884382,-0.6222576 1.903007,-1.0587894 3.057954,-1.3104867 0.779228,-0.1698169 2.707731,-0.1729656 3.537244,-0.00578 3.689969,0.7437233 6.399001,3.4749688 7.143048,7.2016193 0.172824,0.865616 0.156974,2.493013 -0.03301,3.388883 -0.564048,2.659826 -2.019283,4.710593 -4.302923,6.063828 -1.653921,0.980078 -3.98871,1.412134 -5.967563,1.104307 z m 2.576078,-4.050659 c 0.25299,-0.05359 0.741628,-0.234459 1.085863,-0.401919 1.079145,-0.524973 1.891609,-1.478974 2.318566,-2.722475 0.161392,-0.470053 0.185806,-0.653279 0.210211,-1.577638 0.03273,-1.239725 -0.05728,-1.755344 -0.44577,-2.553671 -0.353903,-0.727247 -0.797441,-1.299838 -1.285447,-1.659464 -0.850291,-0.626605 -1.713284,-0.946173 -2.709028,-1.003158 -2.391918,-0.136887 -4.331202,1.405613 -4.823836,3.836861 -0.166007,0.819277 -0.106232,2.163169 0.128571,2.890593 0.186772,0.578624 0.557862,1.258573 0.944176,1.730019 0.507737,0.619627 1.545731,1.248767 2.402916,1.456437 0.509478,0.12343 1.601508,0.125648 2.173778,0.0044 z"
     id="path3320" />
  <path
     style="fill:#ffffff;fill-opacity:1;stroke-width:0.0664773"
     d="m 63.9769,24.135273 c -2.933818,-0.30776 -5.551439,-2.031894 -6.863807,-4.520942 -0.395718,-0.750523 -0.743499,-1.802452 -0.879221,-2.65937 -0.137078,-0.86547 -0.09958,-3.0334 0.06502,-3.759222 0.373064,-1.64507 1.089303,-3.03078 2.148508,-4.1567214 1.200009,-1.2756162 2.611561,-2.1201548 4.280483,-2.5610331 0.615132,-0.1624995 0.839475,-0.1859656 2.032859,-0.2126359 1.033459,-0.023096 1.498153,-0.00515 2.024114,0.078149 0.761825,0.1206612 1.82494,0.4544815 2.462627,0.7732697 2.461124,1.2303492 4.289841,3.7862707 4.735578,6.6187227 0.06363,0.404305 0.105863,1.087285 0.105863,1.711789 v 1.039085 h -6.913637 c -5.487115,0 -6.913433,0.01715 -6.912654,0.0831 0.0033,0.279691 0.240739,1.009025 0.479053,1.471539 0.324614,0.630002 0.980435,1.33323 1.642025,1.760721 0.782019,0.505309 2.089436,0.797212 3.196383,0.713648 1.388925,-0.10485 2.508761,-0.559647 3.641087,-1.478749 l 0.217768,-0.176761 1.749919,0.82419 1.749919,0.824191 -0.181333,0.265909 c -0.318915,0.467662 -1.056288,1.215829 -1.608067,1.631607 -0.920169,0.693369 -2.504053,1.352163 -3.907622,1.625319 -0.647473,0.126009 -2.494894,0.18497 -3.264862,0.104199 z m 5.857475,-11.046074 c 0,-0.180091 -0.538935,-1.191078 -0.813236,-1.525547 -0.338955,-0.413306 -1.115285,-0.979538 -1.694995,-1.236279 -0.688712,-0.305017 -1.31103,-0.4293086 -2.153909,-0.4301864 -1.744671,-0.00182 -3.034963,0.5894864 -3.988462,1.8277964 -0.236922,0.307691 -0.789171,1.251288 -0.789171,1.348412 0,0.07365 0.818546,0.0891 4.719887,0.0891 3.395196,0 4.719886,-0.02057 4.719886,-0.0733 z"
     id="path3359" />
  <path
     style="fill:#ffffff;fill-opacity:1;stroke-width:0.0664773"
     d="m 87.050713,19.959801 c -0.0018,-5.591488 -0.117683,-7.309649 -0.554989,-8.230491 -0.295688,-0.622634 -0.644381,-1.001918 -1.134585,-1.234122 -0.542896,-0.257164 -1.020902,-0.343554 -1.728907,-0.312466 -0.834256,0.03663 -1.344203,0.276426 -1.993091,0.93722 -0.786242,0.800667 -1.158623,1.748548 -1.298636,3.305626 -0.03873,0.430682 -0.06884,2.643966 -0.06897,5.068892 l -2.27e-4,4.304404 H 78.144034 76.016762 V 15.223295 6.6477273 h 2.160511 2.160511 v 0.8974432 c 0,0.4935937 0.01538,0.8974432 0.03418,0.8974432 0.0188,0 0.205765,-0.1399207 0.415483,-0.3109349 0.894928,-0.729768 2.210614,-1.4257089 3.206589,-1.6961464 0.810112,-0.2199699 2.31518,-0.2193173 3.091194,0.00134 0.734461,0.2088426 1.518067,0.6002723 2.07666,1.0373419 1.074544,0.8407721 1.914402,2.4327294 2.057006,3.8990677 0.02992,0.307664 0.04586,3.244239 0.03541,6.525724 l -0.01899,5.966335 H 89.14365 87.051984 l -0.0013,-3.90554 z"
     id="path3398" />
  <path
     style="fill:#ffffff;fill-opacity:1;stroke-width:0.0664773"
     d="M 93.500284,15.223295 V 6.6477273 h 2.127273 2.127273 v 8.5755677 8.575569 h -2.127273 -2.127273 z"
     id="path3437" />
  <path
     style="fill:#ffffff;fill-opacity:1;stroke-width:0.0664773"
     d="m 99.803379,22.618892 c 0.468801,-0.648984 1.908601,-2.642129 3.199551,-4.42921 1.29095,-1.787082 2.35875,-3.297778 2.37289,-3.357103 0.0151,-0.06334 -1.16841,-1.765865 -2.86696,-4.124254 -1.59097,-2.2090151 -2.892667,-4.0263375 -2.892667,-4.0384944 0,-0.012157 1.099367,-0.020736 2.443037,-0.019065 l 2.44304,0.00304 1.19659,1.6649635 c 1.78298,2.4808729 2.15498,2.9825499 2.21014,2.9805799 0.0275,-9.83e-4 0.79623,-1.036187 1.70818,-2.3004532 0.91195,-1.2642664 1.68989,-2.3108696 1.72875,-2.325785 0.0389,-0.014915 1.12277,-0.019249 2.40865,-0.00963 l 2.33798,0.017488 -2.85352,3.9863722 c -1.56944,2.192505 -2.85353,4.007723 -2.85353,4.033819 0,0.02609 1.46583,2.068165 3.25739,4.537932 1.79156,2.469767 3.25738,4.506445 3.25738,4.525949 0,0.0195 -1.0971,0.02762 -2.438,0.01802 l -2.43801,-0.01744 -2.01947,-2.758807 c -1.1107,-1.517344 -2.04175,-2.78117 -2.06899,-2.808502 -0.0272,-0.02733 -0.97545,1.220039 -2.10715,2.771935 l -2.05764,2.82163 -2.41,0.0035 -2.410005,0.0035 z"
     id="path3476" />
</svg>
