<?xml version="1.0" encoding="UTF-8"?>
<!DOCTYPE svg PUBLIC "-//W3C//DTD SVG 1.1//EN" "http://www.w3.org/Graphics/SVG/1.1/DTD/svg11.dtd">
<svg xmlns="http://www.w3.org/2000/svg" version="1.1" width="560px" height="160px" style="shape-rendering:geometricPrecision; text-rendering:geometricPrecision; image-rendering:optimizeQuality; fill-rule:evenodd; clip-rule:evenodd" xmlns:xlink="http://www.w3.org/1999/xlink">
<g><path style="opacity:1" fill="#ffffff" d="M -0.5,145.5 C -0.5,144.833 -0.5,144.167 -0.5,143.5C 11.2985,132.202 22.9651,120.702 34.5,109C 64.4981,108.5 94.4981,108.333 124.5,108.5C 124.5,105.167 124.5,101.833 124.5,98.5C 102.497,98.6666 80.4975,98.5 58.5,98C 51,90.5 43.5,83 36,75.5C 35.3333,63.5 35.3333,51.5 36,39.5C 43.8333,31.6667 51.6667,23.8333 59.5,16C 97.5,15.3333 135.5,15.3333 173.5,16C 161.47,27.6957 149.804,39.6957 138.5,52C 116.503,52.5 94.5025,52.6666 72.5,52.5C 72.5,55.5 72.5,58.5 72.5,61.5C 94.1692,61.3334 115.836,61.5 137.5,62C 145.333,69.8333 153.167,77.6667 161,85.5C 161.667,97.5 161.667,109.5 161,121.5C 153.167,129.333 145.333,137.167 137.5,145C 91.5012,145.5 45.5012,145.667 -0.5,145.5 Z"/></g>
<g><path style="opacity:1" fill="#ffffff" d="M 199.5,15.5 C 234.167,15.5 268.833,15.5 303.5,15.5C 303.5,27.8333 303.5,40.1667 303.5,52.5C 273.167,52.5 242.833,52.5 212.5,52.5C 212.5,60.8333 212.5,69.1667 212.5,77.5C 200.5,77.5 188.5,77.5 176.5,77.5C 176.333,64.4957 176.5,51.4957 177,38.5C 184.702,30.9649 192.202,23.2983 199.5,15.5 Z"/></g>
<g><path style="opacity:1" fill="#ffffff" d="M 318.5,15.5 C 330.5,15.5 342.5,15.5 354.5,15.5C 354.333,43.8353 354.5,72.1686 355,100.5C 356.333,101.833 357.667,103.167 359,104.5C 359.5,118.163 359.667,131.829 359.5,145.5C 345.833,145.5 332.167,145.5 318.5,145.5C 318.5,102.167 318.5,58.8333 318.5,15.5 Z"/></g>
<g><path style="opacity:1" fill="#ffffff" d="M 397.5,15.5 C 435.506,15.1668 473.506,15.5001 511.5,16.5C 500.014,28.486 488.348,40.3193 476.5,52C 454.503,52.5 432.503,52.6666 410.5,52.5C 410.5,55.5 410.5,58.5 410.5,61.5C 428.167,61.5 445.833,61.5 463.5,61.5C 463.5,73.8333 463.5,86.1667 463.5,98.5C 445.833,98.5 428.167,98.5 410.5,98.5C 410.5,114.167 410.5,129.833 410.5,145.5C 398.5,145.5 386.5,145.5 374.5,145.5C 374.333,109.832 374.5,74.1651 375,38.5C 382.702,30.9649 390.202,23.2983 397.5,15.5 Z"/></g>
<g><path style="opacity:1" fill="#ffffff" d="M 559.5,15.5 C 559.5,58.8333 559.5,102.167 559.5,145.5C 545.833,145.5 532.167,145.5 518.5,145.5C 518.333,131.496 518.5,117.496 519,103.5C 520,102.5 521,101.5 522,100.5C 522.5,72.1686 522.667,43.8353 522.5,15.5C 534.833,15.5 547.167,15.5 559.5,15.5 Z"/></g>
<g><path style="opacity:1" fill="#ffffff" d="M 176.5,83.5 C 188.5,83.5 200.5,83.5 212.5,83.5C 212.5,91.8333 212.5,100.167 212.5,108.5C 242.833,108.5 273.167,108.5 303.5,108.5C 303.5,120.833 303.5,133.167 303.5,145.5C 268.832,145.667 234.165,145.5 199.5,145C 191.635,137.47 184.135,129.636 177,121.5C 176.5,108.838 176.333,96.1711 176.5,83.5 Z"/></g>
</svg>
