<?xml version="1.0" encoding="UTF-8"?>
<!DOCTYPE svg PUBLIC "-//W3C//DTD SVG 1.1//EN" "http://www.w3.org/Graphics/SVG/1.1/DTD/svg11.dtd">
<svg xmlns="http://www.w3.org/2000/svg" version="1.1" width="226px" height="60px" style="shape-rendering:geometricPrecision; text-rendering:geometricPrecision; image-rendering:optimizeQuality; fill-rule:evenodd; clip-rule:evenodd" xmlns:xlink="http://www.w3.org/1999/xlink">
<g><path style="opacity:0.004" fill="#ffffff" d="M 82.5,-0.5 C 82.8333,-0.5 83.1667,-0.5 83.5,-0.5C 83.3147,0.170143 82.9813,0.170143 82.5,-0.5 Z"/></g>
<g><path style="opacity:1" fill="#ffffff" d="M 114.5,-0.5 C 114.833,-0.5 115.167,-0.5 115.5,-0.5C 115.586,0.495904 115.252,1.32924 114.5,2C 121.368,12.2409 126.201,23.4076 129,35.5C 130.032,43.4861 130.865,51.4861 131.5,59.5C 130.833,59.5 130.167,59.5 129.5,59.5C 127.595,51.6703 123.262,45.6703 116.5,41.5C 107.602,45.0663 100.936,51.0663 96.5,59.5C 95.8333,59.5 95.1667,59.5 94.5,59.5C 95.3629,41.9735 99.5296,25.3069 107,9.5C 109.01,5.6757 111.51,2.34237 114.5,-0.5 Z M 112.5,8.5 C 113.077,7.22671 113.743,7.22671 114.5,8.5C 117.597,15.0308 120.431,21.6975 123,28.5C 124.711,33.0473 125.378,37.714 125,42.5C 121.173,37.4419 116.34,36.2752 110.5,39C 109.211,40.8022 107.544,41.9688 105.5,42.5C 99.269,50.4761 97.769,49.1427 101,38.5C 102.692,33.0344 104.525,28.0344 106.5,23.5C 106.291,22.914 105.957,22.414 105.5,22C 107.189,18.1213 109.022,14.288 111,10.5C 111.212,13.3315 111.379,15.9982 111.5,18.5C 110.423,20.7294 109.756,23.0628 109.5,25.5C 108.5,25.5 107.5,25.5 106.5,25.5C 106.119,27.9418 106.786,28.6085 108.5,27.5C 109.308,29.4233 109.808,31.4233 110,33.5C 111.577,30.3246 113.41,29.9912 115.5,32.5C 116.65,30.3912 117.984,28.3912 119.5,26.5C 118.372,25.7379 117.205,25.0712 116,24.5C 115.042,19.8768 114.375,15.2101 114,10.5C 113.722,9.5842 113.222,8.91753 112.5,8.5 Z"/></g>
<g><path style="opacity:1" fill="#ffffff" d="M 156.5,7.5 C 163.214,9.04365 170.047,10.0437 177,10.5C 177.105,16.4328 176.272,22.2662 174.5,28C 173.214,29.6486 171.547,30.8153 169.5,31.5C 169.167,32.3333 168.833,33.1667 168.5,34C 169.888,39.8355 171.222,45.6689 172.5,51.5C 170.076,51.8076 167.743,51.4742 165.5,50.5C 164.307,45.4205 162.807,40.4205 161,35.5C 159.742,40.3047 159.075,44.9714 159,49.5C 156.445,51.6496 153.612,51.9829 150.5,50.5C 152.961,38.862 155.294,27.1953 157.5,15.5C 154.833,15.5 152.167,15.5 149.5,15.5C 147.656,26.8787 145.49,38.2121 143,49.5C 141.246,51.25 139.079,51.9167 136.5,51.5C 137.859,39.397 139.859,27.397 142.5,15.5C 140.076,15.8076 137.743,15.4742 135.5,14.5C 136.348,12.5914 136.682,10.5914 136.5,8.5C 143.354,8.82404 150.021,8.49071 156.5,7.5 Z M 164.5,16.5 C 166.167,16.5 167.833,16.5 169.5,16.5C 170.171,21.3935 168.337,24.7269 164,26.5C 163.5,26.1667 163,25.8333 162.5,25.5C 163.642,22.6008 164.308,19.6008 164.5,16.5 Z"/></g>
<g><path style="opacity:1" fill="#ffffff" d="M 11.5,8.5 C 16.5111,8.33407 21.5111,8.50074 26.5,9C 27.5,12.3333 28.5,12.3333 29.5,9C 36.1583,8.50042 42.825,8.33375 49.5,8.5C 50.8246,15.1697 48.1579,17.8363 41.5,16.5C 39.5664,27.8644 37.3997,39.1977 35,50.5C 32.5341,51.7766 30.0341,51.7766 27.5,50.5C 30.4749,38.9589 32.8082,27.2922 34.5,15.5C 32.5992,15.4332 30.7659,15.7665 29,16.5C 28.0546,16.0946 27.3879,15.428 27,14.5C 26.0968,18.4463 23.5968,20.7796 19.5,21.5C 18.3192,19.8647 18.3192,18.198 19.5,16.5C 17.6471,15.2404 15.8138,15.2404 14,16.5C 13.0033,19.8006 12.6699,23.134 13,26.5C 17.0114,23.7189 21.1781,22.0523 25.5,21.5C 23.4534,30.4437 21.62,39.4437 20,48.5C 19.5,49 19,49.5 18.5,50C 13.6178,51.5547 8.61781,51.888 3.5,51C -0.334841,44.3719 1.49849,39.8719 9,37.5C 9.68688,39.5675 9.52022,41.5675 8.5,43.5C 10.0745,44.6309 11.7412,44.7975 13.5,44C 14.7393,40.6358 15.4059,37.1358 15.5,33.5C 11.5906,34.888 7.75726,36.5547 4,38.5C 4.15828,29.3653 5.49161,20.3653 8,11.5C 9.14508,10.3636 10.3117,9.36362 11.5,8.5 Z"/></g>
<g><path style="opacity:1" fill="#ffffff" d="M 57.5,8.5 C 61.5839,8.04308 65.4172,8.70975 69,10.5C 69.7811,11.7287 70.2811,13.062 70.5,14.5C 67.6261,26.7451 65.2928,39.0785 63.5,51.5C 60.7531,51.8134 58.0865,51.48 55.5,50.5C 57.3841,44.5813 58.5507,38.5813 59,32.5C 57.0448,33.4533 55.3782,34.7866 54,36.5C 53,41.1667 52,45.8333 51,50.5C 48.6194,51.435 46.1194,51.7683 43.5,51.5C 46.1903,38.8815 48.6903,26.2148 51,13.5C 52.2716,10.5081 54.4382,8.8414 57.5,8.5 Z M 57.5,16.5 C 59.1667,16.5 60.8333,16.5 62.5,16.5C 62.8152,21.3229 60.8152,24.6562 56.5,26.5C 56.1667,26 55.8333,25.5 55.5,25C 56.4062,22.2094 57.0728,19.3761 57.5,16.5 Z"/></g>
<g><path style="opacity:1" fill="#ffffff" d="M 74.5,8.5 C 79.5111,8.33407 84.5111,8.50074 89.5,9C 90.4162,9.37424 91.2496,9.87424 92,10.5C 92.124,15.894 91.4573,21.2274 90,26.5C 88.2352,29.473 85.7352,31.6396 82.5,33C 85.0227,38.9234 86.6894,45.09 87.5,51.5C 85.1667,51.5 82.8333,51.5 80.5,51.5C 79.6948,46.2545 78.1948,41.2545 76,36.5C 74.8723,41.1386 73.8723,45.8053 73,50.5C 70.6194,51.435 68.1194,51.7683 65.5,51.5C 68.5949,37.1549 71.5949,22.8216 74.5,8.5 Z M 79.5,16.5 C 81.1667,16.5 82.8333,16.5 84.5,16.5C 85.0283,21.4559 83.0283,24.7892 78.5,26.5C 78.1667,26.1667 77.8333,25.8333 77.5,25.5C 78.6416,22.6008 79.3083,19.6008 79.5,16.5 Z"/></g>
<g><path style="opacity:1" fill="#ffffff" d="M 182.5,8.5 C 188.206,8.17124 193.872,8.50457 199.5,9.5C 198.652,11.4086 198.318,13.4086 198.5,15.5C 195.15,15.335 191.817,15.5017 188.5,16C 187.568,19.0854 186.901,22.2521 186.5,25.5C 189.852,24.9916 192.852,23.6582 195.5,21.5C 196.807,24.6626 196.474,27.6626 194.5,30.5C 191.056,31.6989 187.889,33.3655 185,35.5C 183.698,38.3751 182.865,41.3751 182.5,44.5C 185.833,44.5 189.167,44.5 192.5,44.5C 192.286,46.1439 192.62,47.6439 193.5,49C 187.457,51.3103 181.124,52.1437 174.5,51.5C 176.911,37.1099 179.578,22.7766 182.5,8.5 Z"/></g>
<g><path style="opacity:1" fill="#ffffff" d="M 203.5,8.5 C 205.5,8.5 207.5,8.5 209.5,8.5C 209.405,12.2246 209.238,15.8913 209,19.5C 211.555,16.2186 213.722,12.7186 215.5,9C 218.227,8.1816 220.894,8.34827 223.5,9.5C 220.319,15.1986 217.153,20.8652 214,26.5C 213.926,34.9125 214.76,43.2459 216.5,51.5C 214.167,51.5 211.833,51.5 209.5,51.5C 208.697,33.1817 206.197,32.8484 202,50.5C 199.534,51.7766 197.034,51.7766 194.5,50.5C 197.19,36.4085 200.19,22.4085 203.5,8.5 Z"/></g>
<g><path style="opacity:0.026" fill="#ffffff" d="M 97.5,20.5 C 98.7733,21.0768 98.7733,21.7435 97.5,22.5C 96.537,22.0302 96.537,21.3635 97.5,20.5 Z"/></g>
<g><path style="opacity:0.106" fill="#ffffff" d="M 45.5,29.5 C 46.525,29.8966 46.6917,30.5632 46,31.5C 45.5357,30.9056 45.369,30.2389 45.5,29.5 Z"/></g>
<g><path style="opacity:0.01" fill="#ffffff" d="M 41.5,37.5 C 41.8966,36.475 42.5632,36.3083 43.5,37C 42.9056,37.4643 42.2389,37.631 41.5,37.5 Z"/></g>
<g><path style="opacity:0.014" fill="#ffffff" d="M 105.5,37.5 C 108.001,37.5109 108.168,38.1776 106,39.5C 105.536,38.9056 105.369,38.2389 105.5,37.5 Z"/></g>
<g><path style="opacity:0.02" fill="#ffffff" d="M 135.5,41.5 C 136.833,42.1667 136.833,42.1667 135.5,41.5 Z"/></g>
<g><path style="opacity:0.075" fill="#ffffff" d="M 109.5,46.5 C 110.833,47.1667 110.833,47.1667 109.5,46.5 Z"/></g>
<g><path style="opacity:0.212" fill="#ffffff" d="M 52.5,49.5 C 53.8333,50.1667 53.8333,50.1667 52.5,49.5 Z"/></g>
<g><path style="opacity:0.004" fill="#ffffff" d="M 119.5,50.5 C 120.833,51.1667 120.833,51.1667 119.5,50.5 Z"/></g>
<g><path style="opacity:0.004" fill="#ffffff" d="M 163.5,50.5 C 164.833,51.1667 164.833,51.1667 163.5,50.5 Z"/></g>
<g><path style="opacity:0.029" fill="#ffffff" d="M 61.5,53.5 C 61.8966,52.475 62.5632,52.3083 63.5,53C 62.9056,53.4643 62.2389,53.631 61.5,53.5 Z"/></g>
<g><path style="opacity:0.004" fill="#ffffff" d="M 109.5,54.5 C 109.897,53.475 110.563,53.3083 111.5,54C 110.906,54.4643 110.239,54.631 109.5,54.5 Z"/></g>
<g><path style="opacity:0.067" fill="#ffffff" d="M 169.5,59.5 C 168.833,58.1667 168.833,58.1667 169.5,59.5 Z"/></g>
<g><path style="opacity:0.106" fill="#ffffff" d="M 218.5,59.5 C 219.167,58.1667 219.833,58.1667 220.5,59.5C 219.833,59.5 219.167,59.5 218.5,59.5 Z"/></g>
</svg>
