<?xml version="1.0" encoding="UTF-8" standalone="no"?>
<!-- Created with Inkscape (http://www.inkscape.org/) -->

<svg
   version="1.1"
   width="787.03003"
   height="122"
   id="svg2"
   sodipodi:docname="Pro7 MAXX HD.svg"
   inkscape:version="1.1.1 (3bf5ae0d25, 2021-09-20)"
   xmlns:inkscape="http://www.inkscape.org/namespaces/inkscape"
   xmlns:sodipodi="http://sodipodi.sourceforge.net/DTD/sodipodi-0.dtd"
   xmlns="http://www.w3.org/2000/svg"
   xmlns:svg="http://www.w3.org/2000/svg"
   xmlns:rdf="http://www.w3.org/1999/02/22-rdf-syntax-ns#"
   xmlns:cc="http://creativecommons.org/ns#"
   xmlns:dc="http://purl.org/dc/elements/1.1/">
  <sodipodi:namedview
     id="namedview9"
     pagecolor="#ffffff"
     bordercolor="#ffffff"
     borderopacity="1.0"
     inkscape:pageshadow="2"
     inkscape:pageopacity="0.0"
     inkscape:pagecheckerboard="0"
     showgrid="false"
     inkscape:zoom="1.4345069"
     inkscape:cx="393.51501"
     inkscape:cy="60.99657"
     inkscape:window-width="1920"
     inkscape:window-height="1017"
     inkscape:window-x="-8"
     inkscape:window-y="-8"
     inkscape:window-maximized="1"
     inkscape:current-layer="svg2" />
  <metadata
     id="metadata8">
    <rdf:RDF>
      <cc:Work
         rdf:about="">
        <dc:format>image/svg+xml</dc:format>
        <dc:type
           rdf:resource="http://purl.org/dc/dcmitype/StillImage" />
        <dc:title />
      </cc:Work>
    </rdf:RDF>
  </metadata>
  <defs
     id="defs6" />
  <path
     d="m 0,0 0,34.280994 123.00787,0 L 123.00787,0 0,0 z m 134.09884,0 0,15.313017 L 207.07174,122 276.8623,122 193.52323,0 134.09884,0 z M 234.92489,0 216.02001,27.664256 280.64328,122 l 6.71123,0 0,-122 -52.42962,0 z m 63.5206,0 83.9377,122 69.63306,0 L 368.48812,0 298.44549,0 z m 94.46149,0 83.52813,122 70.2317,0 L 462.94962,0 392.90698,0 z m 92.60244,0 -9.92504,15.218485 31.72874,45.844527 L 548.77794,0 485.50942,0 z M 564.15392,0 529.11681,50.602268 577.98595,122 647.8081,122 564.15392,0 z m 23.94612,0 -10.33459,15.060947 31.6657,45.876038 L 651.4,0 588.10004,0 z m -289.65455,5.3248961 0,116.6751039 41.81123,0 19.03104,-27.664257 -60.84227,-89.0108469 z m -164.34665,15.3445209 0,101.330583 69.16035,0 -69.16035,-101.330583 z m -14.21029,20.417364 c -1.73366,0.0157 -3.81554,0.06089 -5.19876,0.15754 C 86.637812,43.243181 57.622864,54.285862 35.383681,71.838849 19.449283,84.415572 6.5584593,102.49448 0.88222895,122 l 122.12564105,0 0,-80.913219 c 0,0 -1.38556,-0.0157 -3.11932,0 z M 437.99515,70.9251 429.26738,83.559919 455.26162,122 472.68557,122 437.99515,70.9251 z M 539.38838,71.019637 527.4784,89.042366 549.91217,122 l 24.89144,0 -35.41523,-50.980368 z"
     id="path3801"
     style="fill:#ffffff" />
  <g
     transform="translate(-0.00155,0)"
     id="g3806">
    <path
       d="m 731,0 0,14.0625 25.90625,0 c 7.60447,0 16.0625,5.167446 16.0625,18 0,12.858514 -8.33917,18 -16.0625,18 l -11.84375,0 0,-25.03125 -14.0625,0 0,39.09375 25.90625,0 c 14.97891,0 30.125,-12.421808 30.125,-32.0625 C 787.03125,12.395848 771.82422,0 756.90625,0 z"
       id="path3798"
       style="font-size:medium;font-style:normal;font-variant:normal;font-weight:normal;font-stretch:normal;text-indent:0;text-align:start;text-decoration:none;line-height:normal;letter-spacing:normal;word-spacing:normal;text-transform:none;direction:ltr;block-progression:tb;writing-mode:lr-tb;text-anchor:start;baseline-shift:baseline;color:#ffffff;fill:#ffffff;fill-opacity:1;stroke:none;stroke-width:14.07699966;marker:none;visibility:visible;display:inline;overflow:visible;enable-background:accumulate;font-family:Sans;-inkscape-font-specification:Sans" />
    <path
       d="m 663.13055,0 0,64.128204 14.0769,0 0,-25.025644 25.80755,0 0,25.025644 14.0769,0 0,-64.128204 -14.0769,0 0,25.025999 -25.80755,0 0,-25.025999 z"
       id="rect3051"
       style="fill:#ffffff;fill-opacity:1;stroke:none" />
  </g>
  <path
     style="fill:#ffffff;stroke-width:0"
     d="m 1.7427591,120.90802 c 0,-3.08207 6.6494564,-16.86847 12.0851469,-25.056267 C 33.700838,65.917101 74.189027,44.504041 116.59059,41.503473 l 5.7511,-0.40698 V 81.544816 121.99314 H 62.042226 c -54.10936,0 -60.2994669,-0.1114 -60.2994669,-1.08512 z"
     id="path102" />
  <path
     style="fill:#ffffff;stroke-width:0"
     d="M 0.34855183,17.07904 V 0 H 61.345122 122.34169 V 17.07904 34.158079 H 61.345122 0.34855183 Z"
     id="path141" />
  <path
     style="fill:#ffffff;stroke-width:0"
     d="m 134.19245,72.010808 c 0,-29.657928 0.25521,-49.713041 0.62762,-49.320084 0.57006,0.601517 66.00963,96.391906 67.24354,98.431036 0.419,0.69243 -6.49608,0.87138 -33.67194,0.87138 h -34.19922 z"
     id="path180" />
  <path
     style="fill:#ffffff;stroke-width:0"
     d="M 170.88713,68.332183 134.19245,14.671227 V 7.3356134 0 l 29.45263,0.0175942 29.45263,0.0175942 36.9465,54.1448446 c 20.32057,29.779668 39.05886,57.220207 41.64065,60.978977 l 4.69415,6.83413 h -34.3986 -34.3986 z"
     id="path219" />
  <path
     style="fill:#ffffff;stroke-width:0"
     d="M 248.9366,75.074662 C 231.3387,49.311583 216.9487,27.971288 216.95882,27.651786 c 0.0101,-0.319501 4.16705,-6.671858 9.23761,-14.116349 L 235.41563,0 h 25.72126 25.72127 v 60.99657 60.99657 l -2.9627,-0.0383 -2.96269,-0.0383 -31.99617,-46.841966 z"
     id="path258" />
  <path
     style="fill:#ffffff;stroke-width:0"
     d="m 298.70892,64.365904 c 0,-31.694979 0.13995,-57.4872873 0.31099,-57.3162396 0.17105,0.1710476 13.66485,19.8514816 29.98623,43.7342976 17.35008,25.388095 29.47263,43.764807 29.18741,44.245543 -0.26831,0.452239 -4.53033,6.704065 -9.47117,13.892945 l -8.98335,13.07069 h -20.51505 -20.51506 z"
     id="path297" />
  <path
     style="fill:#ffffff;stroke-width:0"
     d="M 341.23224,61.562592 C 318.41952,28.361796 299.65001,0.92806909 299.5222,0.59875425 299.3944,0.26943942 314.76554,0.00789073 333.68028,0.01753502 l 34.39045,0.01753501 33.46098,48.92512197 c 18.40353,26.90882 37.16127,54.349388 41.68385,60.979038 l 8.22287,12.05391 -34.36426,-0.0327 -34.36426,-0.0327 z"
     id="path336" />
  <path
     style="fill:#ffffff;stroke-width:0"
     d="m 442.7829,102.77101 -13.01624,-19.222131 4.11726,-5.900989 4.11725,-5.90099 7.96558,11.703874 c 20.75659,30.497756 25.62387,37.739796 25.62387,38.125766 0,0.22913 -3.55308,0.4166 -7.89573,0.4166 h -7.89574 z"
     id="path375" />
  <path
     style="fill:#ffffff;stroke-width:0"
     d="M 442.66082,71.985719 C 423.87388,44.505505 405.11369,17.066814 400.97151,11.010848 L 393.44028,0 h 34.49097 34.49096 l 39.55148,57.685328 c 21.7533,31.72693 40.62568,59.175382 41.93862,60.996572 l 2.38715,3.31124 -34.74028,-0.0217 -34.74028,-0.0217 -34.15808,-49.964019 z"
     id="path414" />
  <path
     style="fill:#ffffff;stroke-width:0"
     d="m 505.58019,57.744295 c -3.69743,-4.986511 -28.46943,-41.047517 -28.81361,-41.944451 -0.20064,-0.52285 1.76808,-4.285699 4.37494,-8.3618874 L 485.88125,0.02670555 517.11951,0.01335281 548.35778,0 l -5.1583,7.4938643 c -2.83706,4.1216257 -11.84455,17.3753087 -20.01663,29.4526297 -8.17208,12.077321 -15.08799,22.220573 -15.36868,22.54056 -0.28069,0.319987 -1.28598,-0.464254 -2.23398,-1.742759 z"
     id="path453" />
  <path
     style="fill:#ffffff;stroke-width:0"
     d="M 558.56818,92.86877 C 547.5993,76.850366 536.60157,60.773415 534.1288,57.142208 L 529.63284,50.540015 546.88427,25.640761 564.13571,0.74150714 602.71344,57.010426 c 21.21775,30.947904 39.94514,58.229524 41.61642,60.625814 l 3.03868,4.3569 h -34.42847 -34.42846 z"
     id="path492" />
  <path
     style="fill:#ffffff;stroke-width:0"
     d="m 539.21982,105.51863 -11.23645,-16.474513 5.71615,-8.629289 c 5.03058,-7.594343 5.81756,-8.482009 6.56174,-7.401288 0.46508,0.6754 8.03893,11.579989 16.83079,24.23242 8.79185,12.65243 16.22592,23.39654 16.52014,23.8758 0.41986,0.68391 -2.01356,0.87138 -11.31048,0.87138 h -11.84544 z"
     id="path531" />
  <path
     style="fill:#ffffff;stroke-width:0"
     d="m 593.79338,37.524488 -15.44121,-22.390722 4.86815,-7.2558526 c 2.67748,-3.990719 5.24192,-7.39922396 5.69876,-7.57445525 0.45684,-0.17523137 14.52985,-0.23677077 31.27336,-0.13675438 l 30.44274,0.18184806 -20.1174,29.20043517 c -11.06457,16.060238 -20.3797,29.462737 -20.70029,29.783328 -0.3206,0.320592 -7.53144,-9.492931 -16.02411,-21.807827 z"
     id="path570" />
  <path
     style="fill:#ffffff;stroke-width:0"
     d="M 663.29413,32.066768 V 0 h 6.62248 6.62249 v 12.547866 12.547866 h 13.24497 13.24497 V 12.547866 0 h 6.97104 6.97103 v 32.066768 32.066768 h -6.97103 -6.97104 V 51.585671 39.037805 H 689.78407 676.5391 v 12.547866 12.547865 h -6.62249 -6.62248 z"
     id="path609" />
  <path
     style="fill:#ffffff;stroke-width:0"
     d="M 731.61029,44.614634 V 25.095732 h 6.62248 6.62249 v 12.547866 12.547865 l 8.19097,-0.01531 c 6.48072,-0.01211 8.77317,-0.284866 10.97938,-1.306305 5.3132,-2.459932 8.29761,-7.091676 9.12936,-14.168598 0.97306,-8.279206 -2.47115,-15.841463 -8.71618,-19.137596 -2.93813,-1.550754 -3.72219,-1.621583 -17.95042,-1.621583 H 731.61029 V 6.9710366 0 l 12.02504,0.01401652 c 14.65491,0.01708204 19.48599,0.66250264 25.29048,3.37875128 13.33739,6.2413191 20.50844,21.9950862 16.68827,36.6617252 -2.46793,9.47501 -8.38918,16.802664 -16.73279,20.707107 -5.66114,2.649168 -10.78933,3.320209 -25.59452,3.349128 l -11.67648,0.02281 z"
     id="path648" />
</svg>
