<?xml version="1.0" encoding="UTF-8"?>
<!DOCTYPE svg PUBLIC "-//W3C//DTD SVG 1.1//EN" "http://www.w3.org/Graphics/SVG/1.1/DTD/svg11.dtd">
<svg xmlns="http://www.w3.org/2000/svg" version="1.1" width="170px" height="80px" style="shape-rendering:geometricPrecision; text-rendering:geometricPrecision; image-rendering:optimizeQuality; fill-rule:evenodd; clip-rule:evenodd" xmlns:xlink="http://www.w3.org/1999/xlink">
<g><path fill="#ffffff" d="M 1.5,0.5 C 5.83936,-0.153863 9.67269,0.846137 13,3.5C 13.8771,9.12764 11.3771,11.7943 5.5,11.5C 5.5,12.5 5.5,13.5 5.5,14.5C 4.16667,14.5 2.83333,14.5 1.5,14.5C 1.5,9.83333 1.5,5.16667 1.5,0.5 Z M 5.5,4.5 C 10.8333,5.5 10.8333,6.5 5.5,7.5C 5.5,6.5 5.5,5.5 5.5,4.5 Z"/></g>
<g><path fill="#ffffff" d="M 14.5,0.5 C 18.5839,0.0430842 22.4172,0.709751 26,2.5C 26.9439,5.34707 26.4439,7.84707 24.5,10C 29.1447,14.0032 28.4781,15.3366 22.5,14C 21.3816,12.9264 20.3816,11.7598 19.5,10.5C 18.5713,11.6888 18.238,13.0222 18.5,14.5C 17.1667,14.5 15.8333,14.5 14.5,14.5C 14.5,9.83333 14.5,5.16667 14.5,0.5 Z M 18.5,4.5 C 19.9778,4.23798 21.3112,4.57131 22.5,5.5C 21.6798,7.11118 20.3464,7.77784 18.5,7.5C 18.5,6.5 18.5,5.5 18.5,4.5 Z"/></g>
<g><path fill="#ffffff" d="M 32.5,0.5 C 41.8152,0.120524 44.8152,4.12052 41.5,12.5C 36.9555,16.6535 32.7888,16.3202 29,11.5C 27.518,6.77404 28.6847,3.10738 32.5,0.5 Z M 33.5,4.5 C 36.5497,3.92319 38.5497,5.08986 39.5,8C 36.8333,12.6667 34.1667,12.6667 31.5,8C 32.305,6.88732 32.9717,5.72065 33.5,4.5 Z"/></g>
<g><path fill="#ffffff" d="M 46.5,0.5 C 49.9828,-0.0841177 52.9828,0.749216 55.5,3C 53.7979,4.71835 51.9645,4.88502 50,3.5C 49.5,4 49,4.5 48.5,5C 55.0028,5.15193 57.0028,8.15193 54.5,14C 50.2753,16.3601 46.6086,15.6934 43.5,12C 45.2573,9.28773 47.424,9.12106 50,11.5C 50.5,11.1667 51,10.8333 51.5,10.5C 44.4789,9.60526 42.8123,6.27192 46.5,0.5 Z"/></g>
<g><path fill="#ffffff" d="M 57.5,0.5 C 58.8333,0.5 60.1667,0.5 61.5,0.5C 61.5,5.16667 61.5,9.83333 61.5,14.5C 60.1667,14.5 58.8333,14.5 57.5,14.5C 57.5,9.83333 57.5,5.16667 57.5,0.5 Z"/></g>
<g><path fill="#ffffff" d="M 63.5,0.5 C 67.1667,0.5 70.8333,0.5 74.5,0.5C 74.5,1.83333 74.5,3.16667 74.5,4.5C 65.1667,4.83333 65.1667,5.16667 74.5,5.5C 74.5,6.83333 74.5,8.16667 74.5,9.5C 65.1667,10.1667 65.1667,10.8333 74.5,11.5C 74.5,12.5 74.5,13.5 74.5,14.5C 70.8333,14.5 67.1667,14.5 63.5,14.5C 63.5,9.83333 63.5,5.16667 63.5,0.5 Z"/></g>
<g><path fill="#ffffff" d="M 76.5,0.5 C 88.0639,-1.43601 91.7306,3.06399 87.5,14C 83.8484,14.4986 80.1817,14.6653 76.5,14.5C 76.5,9.83333 76.5,5.16667 76.5,0.5 Z M 80.5,9.5 C 81.9778,9.23798 83.3112,9.57131 84.5,10.5C 83.8333,10.8333 83.1667,11.1667 82.5,11.5C 81.2867,11.2528 80.62,10.5862 80.5,9.5 Z"/></g>
<g><path fill="#ffffff" d="M 90.5,0.5 C 94.1667,0.5 97.8333,0.5 101.5,0.5C 101.5,1.83333 101.5,3.16667 101.5,4.5C 99.1432,4.33669 96.8098,4.50335 94.5,5C 96.4727,5.49546 98.4727,5.66212 100.5,5.5C 100.5,6.83333 100.5,8.16667 100.5,9.5C 98.396,9.2011 96.396,9.53443 94.5,10.5C 96.7427,11.4742 99.076,11.8076 101.5,11.5C 101.5,12.5 101.5,13.5 101.5,14.5C 97.8333,14.5 94.1667,14.5 90.5,14.5C 90.5,9.83333 90.5,5.16667 90.5,0.5 Z"/></g>
<g><path fill="#ffffff" d="M 103.5,0.5 C 107.295,1.44396 110.129,3.7773 112,7.5C 112.497,5.19018 112.663,2.85684 112.5,0.5C 113.833,0.5 115.167,0.5 116.5,0.5C 116.5,5.16667 116.5,9.83333 116.5,14.5C 112.474,14.3234 109.641,12.3234 108,8.5C 107.505,10.4727 107.338,12.4727 107.5,14.5C 106.167,14.5 104.833,14.5 103.5,14.5C 103.5,9.83333 103.5,5.16667 103.5,0.5 Z"/></g>
<g><path fill="#ffffff" d="M 129.5,13.5 C 125.273,16.3245 121.273,15.9912 117.5,12.5C 119.022,9.09185 121.188,8.75852 124,11.5C 124.5,11.1667 125,10.8333 125.5,10.5C 123.219,9.72335 121.052,8.72335 119,7.5C 118.124,0.99082 120.957,-1.17585 127.5,1C 130.184,2.84532 129.851,4.01198 126.5,4.5C 124.879,3.29483 123.546,3.46149 122.5,5C 128.336,4.99957 130.669,7.8329 129.5,13.5 Z"/></g>
<g><path fill="#ffffff" d="M 129.5,13.5 C 131.454,9.59188 133.454,5.59188 135.5,1.5C 136.723,0.386147 138.056,0.219481 139.5,1C 141.901,4.96857 143.901,9.13524 145.5,13.5C 140.118,12.1985 134.785,12.1985 129.5,13.5 Z M 137.5,6.5 C 138.773,7.07683 138.773,7.7435 137.5,8.5C 136.537,8.03017 136.537,7.3635 137.5,6.5 Z"/></g>
<g><path fill="#ffffff" d="M 143.5,0.5 C 147.5,0.5 151.5,0.5 155.5,0.5C 155.5,1.83333 155.5,3.16667 155.5,4.5C 154.167,4.5 152.833,4.5 151.5,4.5C 151.5,7.83333 151.5,11.1667 151.5,14.5C 150.167,14.5 148.833,14.5 147.5,14.5C 147.5,11.1667 147.5,7.83333 147.5,4.5C 146.167,4.5 144.833,4.5 143.5,4.5C 143.5,3.16667 143.5,1.83333 143.5,0.5 Z"/></g>
<g><path fill="#ffffff" d="M 161.5,0.5 C 163.162,4.86677 164.496,9.53343 165.5,14.5C 162.833,14.5 160.167,14.5 157.5,14.5C 158.129,12.5351 158.796,10.5351 159.5,8.5C 159.471,6.35662 158.804,5.02329 157.5,4.5C 158.437,2.71198 159.77,1.37865 161.5,0.5 Z"/></g>
<g><path style="opacity:0.51" fill="#ffffff" d="M 153.5,10.5 C 154.5,10.5 155.5,10.5 156.5,10.5C 156.5,11.8333 156.5,13.1667 156.5,14.5C 155.167,14.5 153.833,14.5 152.5,14.5C 152.433,13.0413 152.766,11.7079 153.5,10.5 Z"/></g>
<g><path fill="#ffffff" d="M 1.5,23.5 C 5.83333,23.5 10.1667,23.5 14.5,23.5C 14.1091,35.5534 14.6091,47.5534 16,59.5C 20.4606,66.3199 26.2939,67.8199 33.5,64C 35.7261,62.7727 37.2261,60.9393 38,58.5C 38.4999,46.8381 38.6665,35.1714 38.5,23.5C 42.5,23.5 46.5,23.5 50.5,23.5C 50.9472,37.5729 50.4472,51.5729 49,65.5C 44.0126,74.0786 36.5126,78.0786 26.5,77.5C 15.4403,78.0601 7.60698,73.3934 3,63.5C 1.5755,50.2269 1.0755,36.8935 1.5,23.5 Z"/></g>
<g><path fill="#ffffff" d="M 56.5,23.5 C 60.8333,23.5 65.1667,23.5 69.5,23.5C 69.5,30.1667 69.5,36.8333 69.5,43.5C 76.8333,43.5 84.1667,43.5 91.5,43.5C 91.5,36.8333 91.5,30.1667 91.5,23.5C 95.8333,23.5 100.167,23.5 104.5,23.5C 104.5,41.5 104.5,59.5 104.5,77.5C 100.167,77.5 95.8333,77.5 91.5,77.5C 91.5,70.1667 91.5,62.8333 91.5,55.5C 84.1667,55.5 76.8333,55.5 69.5,55.5C 69.5,62.8333 69.5,70.1667 69.5,77.5C 65.1667,77.5 60.8333,77.5 56.5,77.5C 56.5,59.5 56.5,41.5 56.5,23.5 Z"/></g>
<g><path fill="#ffffff" d="M 112.5,23.5 C 123.505,23.3335 134.505,23.5002 145.5,24C 158.15,27.9291 164.816,36.5958 165.5,50C 164.913,65.5872 156.913,74.5872 141.5,77C 131.839,77.4998 122.172,77.6665 112.5,77.5C 112.5,59.5 112.5,41.5 112.5,23.5 Z M 125.5,34.5 C 131.925,34.1304 138.258,34.6304 144.5,36C 154.293,44.2437 154.96,53.2437 146.5,63C 139.838,65.9747 132.838,67.1414 125.5,66.5C 125.5,55.8333 125.5,45.1667 125.5,34.5 Z"/></g>
</svg>
