<?xml version="1.0" encoding="UTF-8"?>
<!DOCTYPE svg PUBLIC "-//W3C//DTD SVG 1.1//EN" "http://www.w3.org/Graphics/SVG/1.1/DTD/svg11.dtd">
<svg xmlns="http://www.w3.org/2000/svg" version="1.1" width="895px" height="240px" style="shape-rendering:geometricPrecision; text-rendering:geometricPrecision; image-rendering:optimizeQuality; fill-rule:evenodd; clip-rule:evenodd" xmlns:xlink="http://www.w3.org/1999/xlink">
<g><path style="opacity:1" fill="#e80046" d="M 670.5,-0.5 C 679.167,-0.5 687.833,-0.5 696.5,-0.5C 711.044,3.01767 723.044,10.6843 732.5,22.5C 721.644,33.5232 710.31,44.0232 698.5,54C 697.365,54.7494 696.365,54.5827 695.5,53.5C 687.952,41.9566 678.619,40.1233 667.5,48C 665.108,50.728 663.108,53.728 661.5,57C 646.17,57.4999 630.837,57.6666 615.5,57.5C 621.673,26.3928 640.006,7.05943 670.5,-0.5 Z"/></g>
<g><path style="opacity:1" fill="#e80046" d="M 735.5,31.5 C 736.675,31.281 737.675,31.6143 738.5,32.5C 746.852,56.9046 742.685,78.9046 726,98.5C 689.117,132.684 651.951,166.517 614.5,200C 605.173,200.5 595.839,200.666 586.5,200.5C 588.759,186.704 591.593,173.037 595,159.5C 642.328,117.337 689.162,74.6699 735.5,31.5 Z"/></g>
<g><path style="opacity:1" fill="#ffffff" d="M -0.5,200.5 C -0.5,198.167 -0.5,195.833 -0.5,193.5C 9.93837,143.311 20.2717,92.9779 30.5,42.5C 43.5,42.1667 56.5,41.8333 69.5,41.5C 84.8667,41.3933 100.2,41.8933 115.5,43C 136.364,47.864 149.197,60.6973 154,81.5C 156.784,112.771 143.951,134.938 115.5,148C 111.277,149.472 106.943,150.472 102.5,151C 88.4881,151.833 74.4881,151.666 60.5,150.5C 63.2951,137.857 65.9618,125.191 68.5,112.5C 78.8387,112.666 89.172,112.5 99.5,112C 108.77,107.293 112.604,99.7932 111,89.5C 109.167,86.3333 106.667,83.8333 103.5,82C 90.877,80.2467 78.2103,80.0801 65.5,81.5C 57.2435,121.116 49.2435,160.782 41.5,200.5C 27.5,200.5 13.5,200.5 -0.5,200.5 Z"/></g>
<g><path style="opacity:1" fill="#ffffff" d="M 174.5,41.5 C 188.5,41.5 202.5,41.5 216.5,41.5C 210.234,74.6643 203.901,107.831 197.5,141C 200.137,158.93 210.47,165.93 228.5,162C 238.136,158.361 244.303,151.528 247,141.5C 253.643,108.451 260.476,75.4506 267.5,42.5C 274.5,42.1667 281.5,41.8333 288.5,41.5C 295.994,41.3479 303.327,41.8479 310.5,43C 303.751,74.7452 297.251,106.579 291,138.5C 279.485,190.864 247.319,211.364 194.5,200C 163.439,187.736 150.606,164.902 156,131.5C 161.854,101.394 168.021,71.394 174.5,41.5 Z"/></g>
<g><path style="opacity:1" fill="#ffffff" d="M 319.5,41.5 C 333.833,41.5 348.167,41.5 362.5,41.5C 354.705,81.1438 347.038,120.811 339.5,160.5C 361.177,160.167 382.844,160.5 404.5,161.5C 390.676,174.489 376.676,187.323 362.5,200C 337.836,200.5 313.169,200.667 288.5,200.5C 298.704,147.48 309.037,94.4797 319.5,41.5 Z"/></g>
<g><path style="opacity:1" fill="#ffffff" d="M 474.5,41.5 C 495.167,41.5 515.833,41.5 536.5,41.5C 534.346,54.6037 531.679,67.6037 528.5,80.5C 510.843,81.333 493.176,81.833 475.5,82C 471.281,82.1729 467.281,83.1729 463.5,85C 459.469,89.6216 460.135,93.6216 465.5,97C 478.045,101.071 490.378,105.738 502.5,111C 525.083,125.479 531.583,145.312 522,170.5C 513.946,186.131 501.113,195.297 483.5,198C 478.547,198.995 473.547,199.662 468.5,200C 438.161,200.833 407.828,200.667 377.5,199.5C 391.125,186.676 404.792,173.842 418.5,161C 436.833,160.667 455.167,160.333 473.5,160C 481.061,159.723 483.894,155.89 482,148.5C 480.833,147.333 479.667,146.167 478.5,145C 466.002,140.791 453.668,136.124 441.5,131C 414.896,114.171 409.396,92.0042 425,64.5C 431.957,55.7613 440.79,49.5946 451.5,46C 459.197,43.8933 466.863,42.3933 474.5,41.5 Z"/></g>
<g><path style="opacity:1" fill="#e80046" d="M 894.5,41.5 C 894.5,42.5 894.5,43.5 894.5,44.5C 851.704,82.7929 809.037,121.293 766.5,160C 801.498,160.5 836.498,160.667 871.5,160.5C 866.167,186.833 860.833,213.167 855.5,239.5C 839.5,239.5 823.5,239.5 807.5,239.5C 810.422,226.558 813.088,213.558 815.5,200.5C 783.826,200.833 752.16,200.5 720.5,199.5C 715.592,184.955 711.426,170.289 708,155.5C 749.201,117.298 790.701,79.4643 832.5,42C 853.164,41.5 873.831,41.3334 894.5,41.5 Z"/></g>
<g><path style="opacity:1" fill="#e80046" d="M 889.5,59.5 C 890.649,59.7911 891.316,60.6244 891.5,62C 885.69,91.5517 879.69,121.052 873.5,150.5C 857.848,151.499 842.181,151.833 826.5,151.5C 828.546,137.769 831.046,124.103 834,110.5C 852.996,94.0023 871.496,77.0023 889.5,59.5 Z"/></g>
<g><path style="opacity:1" fill="#e80046" d="M 670.5,160.5 C 680.19,160.168 689.856,160.502 699.5,161.5C 703.638,174.386 707.304,187.386 710.5,200.5C 683.5,200.5 656.5,200.5 629.5,200.5C 629.33,199.178 629.663,198.011 630.5,197C 644.029,184.967 657.362,172.801 670.5,160.5 Z"/></g>
</svg>
