<svg version="1.1" id="svg2" viewBox="0 0 552.6 171.2" height="182.613" width="589.44" xmlns="http://www.w3.org/2000/svg">
<g transform="translate(-35.129 -361.048)" id="layer1">
<g transform="translate(3.429 26.348)" id="g3339">
<g id="g3341">
<path style="fill:#e30171" d="M584.3 505.9H413.4V334.7h170.9v171.2zM437 430.3c2.9 9.7 5.7 19.2 8.6 28.9h63.1c-1.8 8.9-3.5 17.6-5.3 26.5h30.7c3.5-17.4 7-34.8 10.6-52.4h-70.6c29-26.4 57.5-52.3 86.5-78.7H522.3c-1.7 0-2.9.5-4.1 1.6-22 20.1-44 40.2-66.1 60.2-4.9 4.6-10 9.3-15.1 13.9zm121.3-63.8c-.5.3-.8.4-1 .6-11.9 10.9-23.8 21.7-35.7 32.6-.7.6-1.1 1.6-1.3 2.6-1 4.5-1.8 9-2.7 13.5-.7 3.5-1.3 7-2 10.5h30.7c3.9-20 7.9-39.8 12-59.8z" id="path3343"/>
<path style="fill:#ffffff" d="M210.7 367.1h27.8c-2 9.8-3.9 19.5-5.9 29.2-2.7 13.2-5.4 26.5-8.3 39.7-1.5 6.9-4.3 13.4-8.2 19.3-5.1 7.6-11.9 13-20.6 15.6-11.5 3.4-23.2 4.3-34.7.3-20.3-7-26.8-24.3-24.5-41.2 2.2-15.8 5.9-31.3 9-47 1-5.2 2.1-10.5 3.2-15.8h27.9c-1.5 7.4-3 14.8-4.4 22.1-2.6 13-5.3 26-7.7 39.1-.4 2.4-.4 4.9-.2 7.3.8 7.2 5.7 11.5 13.3 12.1 10.4.7 17.3-4.3 20-15.2 2.3-9.6 4.1-19.3 6.1-28.9 2.4-11.7 4.7-23.3 7-35-.2-.6 0-1 .2-1.6z" id="path3345"/>
<path style="fill:#ffffff" class="st2" d="M59.4 471.8H31.7c7-34.9 14.1-69.7 21.1-104.6.7 0 1.3-.1 1.9-.1H101c11 0 20.4 3.7 27.3 12.5 8 10.2 8.4 21.7 4.1 33.4-5.9 16.2-20.7 26.3-37.9 26.4-7.1.1-14.2 0-21.5 0 1.7-8.5 3.4-16.8 5.1-25.2h16.6c7 0 12.6-5.8 12.4-12.8-.2-4.9-3.6-8.9-8.6-9.1-7.6-.3-15.3-.1-23-.1-5.4 26.6-10.8 53-16.1 79.6z" id="path3347"/>
<path style="fill:#ffffff" class="st2" d="M303.8 471.8c1.7-8.6 3.4-17.1 5.2-25.8h34.7c1.9 0 3.8-.2 5.7-.4 2.3-.3 4.1-1.2 4.7-3.7.6-2.5 0-4.8-2.1-6.1-2.9-1.7-6-3.1-9.1-4-6.7-1.8-13.3-4-19.1-8-7.1-4.8-12.4-11.1-13.5-19.8-1.5-12.2 3.2-22 13.1-29.1 6.4-4.6 13.7-6.9 21.4-7.2 14.7-.6 29.5-.6 44.5-.8-1.8 8.9-3.5 17.4-5.2 26.1h-2.5c-11 .1-22 .1-33 .2-2 0-4.1.4-6 1.1-4.1 1.4-5.1 5.9-1.6 8.4 2.7 2 6.1 3 9.2 4.3 5.2 2 10.7 3.3 15.6 5.9 11.6 6.2 18 15.7 16.5 29.3-1.4 13.2-8.8 21.7-21.1 26.3-7.1 2.6-14.6 3.4-22.1 3.5-11.2.1-22.3 0-33.5 0-.6-.1-1.1-.2-1.8-.2z" id="path3349"/>
<path style="fill:#ffffff" d="M224.7 471.1c1.6-7.9 3.1-15.9 4.7-23.8 5.3-26.5 10.7-52.9 16-79.4 0-.2.1-.4.2-.8h27.8c-5.3 26.2-10.5 52.4-15.9 78.8H302c-1.8 8.6-3.5 16.9-5.3 25.2-23.9.1-48 0-72 0z" id="path3351"/>
<path style="fill:#ffffff" d="M224.7 471.1h72c-.7.3-1.5.7-2.2.7h-67.9c-.6.1-1.2-.4-1.9-.7z" id="path3353"/>
</g>
</g></g>
<style type="text/css" id="style3337">.st2{fill:#031523}</style>
<path style="fill:#fff;fill-opacity:1;stroke-width:.52209" d="M.508 145.794c-.008-.216 4.984-25.236 11.094-55.601l11.109-55.21 28.5-.001c32.056-.002 32.618.053 40.665 4 6.794 3.333 13.584 11.15 16.233 18.687 1.946 5.537 2.36 10.434 1.385 16.375-1.648 10.04-5.51 17.737-12.382 24.678-5.183 5.235-9.764 8.09-16.788 10.463-4.55 1.537-5.557 1.675-14.802 2.015-5.456.201-12.441.251-15.523.112-5.374-.243-5.594-.3-5.352-1.355.658-2.878 4.952-24.061 4.952-24.433 0-.233 4.303-.423 9.563-.423 10.779 0 13.476-.513 16.69-3.17 5.512-4.56 6.292-14.089 1.507-18.416-2.31-2.09-4.499-2.384-17.928-2.408l-12.878-.022-.598 2.74c-.329 1.508-4.106 20.127-8.394 41.376-4.288 21.25-7.92 39.163-8.07 39.81l-.274 1.174H14.87c-7.892 0-14.354-.176-14.362-.391z" id="path7421" transform="scale(.9375)"/><path style="fill:#fff;fill-opacity:1;stroke-width:.52209" d="M147.91 147.72c-10.897-1.419-22.321-7.31-28.096-14.487-2.949-3.666-6.119-10.129-7.346-14.98-1.409-5.564-1.23-13.874.518-24.016 1.266-7.347 8.812-45.16 11.07-55.472l.828-3.785h14.602c13.66 0 14.584.059 14.33.914-.148.502-3.009 14.657-6.357 31.456-6.712 33.679-7.382 38.826-5.705 43.874 1.227 3.696 4.3 6.971 7.752 8.263 8.011 2.997 16.992 1.29 22.042-4.189 2.718-2.948 4.134-5.953 5.682-12.056 1.129-4.45 7.901-37.272 12.334-59.778l1.671-8.484h28.967l-5.104 25.19c-10.213 50.405-11.038 53.8-15.008 61.738-6.605 13.208-15.477 20.577-28.849 23.961-8.66 2.192-16.148 2.786-23.332 1.851z" id="path7460" transform="scale(.9375)"/>
<path style="fill:#fff;fill-opacity:1;stroke-width:.52209" d="M206.226 144.919c0-.122 4.933-24.72 10.964-54.66 6.03-29.94 10.963-54.626 10.963-54.858 0-.231 6.579-.42 14.619-.42s14.619.091 14.619.204c0 .112-3.76 18.815-8.354 41.562-4.594 22.747-8.353 41.568-8.353 41.824 0 .266 10.082.466 23.494.466 19.215 0 23.494.126 23.494.695 0 .582-4.083 20.522-4.963 24.234l-.278 1.175h-38.103c-20.956 0-38.102-.1-38.102-.222z" id="path7499" transform="scale(.9375)"/>
<path style="fill:#fff;fill-opacity:1;stroke-width:.52209" d="M290.804 145.545c0-.646 4.246-22.323 4.962-25.334l.28-1.174 19.698-.003c20.19-.003 25.119-.351 26.822-1.892 1.527-1.382 2.143-4.424 1.366-6.747-.908-2.717-4.467-4.586-15.835-8.316-11.042-3.623-16.425-6.602-22.194-12.28-7.53-7.41-10.238-16.458-8.048-26.887 2.734-13.022 14.805-23.756 30.018-26.695 2.782-.537 11.006-.9 28.414-1.253 13.475-.274 24.572-.425 24.66-.337.089.09-1.064 6.313-2.562 13.832l-2.722 13.67H355.97c-22.128 0-24.253.228-26.914 2.888-1.902 1.903-2.16 3.594-.915 6.002.966 1.868 6.627 4.71 15.394 7.729 12.794 4.405 17.208 6.86 22.598 12.575 6.891 7.305 9.228 16.634 6.85 27.35-3.056 13.77-12.904 22.247-30.492 26.245-5.449 1.239-51.687 1.8-51.687.627z" id="path7538" transform="scale(.9375)"/><path style="fill:#fff;stroke-width:.52209" d="M505.976 148.143c1.393-6.963 2.67-13.307 2.839-14.096l.306-1.436h-67.352l-.541-1.697c-1.17-3.666-8.415-28.284-8.415-28.592 0-.425 10.319-9.931 46.466-42.807 16.224-14.755 32.113-29.233 35.309-32.172 4.21-3.873 6.295-5.431 7.57-5.66.968-.175 10.61-.25 21.427-.167l19.667.15-45.64 41.507C492.509 86 471.97 104.855 471.97 105.07c0 .215 16.798.391 37.33.391 28.28 0 37.329.15 37.329.615 0 .528-9.956 50.305-10.711 53.552l-.273 1.175h-32.201z" id="path890" transform="scale(.9375)"/><path style="fill:#fff;stroke-width:.52209" d="M516.607 96.456c.154-.646 1.314-6.506 2.578-13.023 1.264-6.516 2.511-12.228 2.771-12.692.457-.817 38.91-36.224 39.148-36.048.065.048-2.466 12.996-5.623 28.772a875862.55 875862.55 0 0 0-6.29 31.425l-.548 2.74h-32.316z" id="path929" transform="scale(.9375)"/>
</svg>