<?xml version="1.0" encoding="UTF-8"?>
<!DOCTYPE svg PUBLIC "-//W3C//DTD SVG 1.1//EN" "http://www.w3.org/Graphics/SVG/1.1/DTD/svg11.dtd">
<svg xmlns="http://www.w3.org/2000/svg" version="1.1" width="450px" height="245px" style="shape-rendering:geometricPrecision; text-rendering:geometricPrecision; image-rendering:optimizeQuality; fill-rule:evenodd; clip-rule:evenodd" xmlns:xlink="http://www.w3.org/1999/xlink">
<g><path style="opacity:1" fill="#e0111c" d="M 319.5,1.5 C 343.539,2.36557 354.705,14.6989 353,38.5C 345.414,56.8743 331.914,63.3743 312.5,58C 293.505,48.1389 289.005,33.6389 299,14.5C 304.467,7.8391 311.3,3.50576 319.5,1.5 Z M 319.5,19.5 C 323.869,18.9232 327.869,19.7565 331.5,22C 335.195,27.7425 335.361,33.5758 332,39.5C 321.655,45.9405 315.155,43.1072 312.5,31C 313.644,26.2929 315.977,22.4596 319.5,19.5 Z"/></g>
<g><path style="opacity:1" fill="#e0101c" d="M 144.5,56.5 C 138.355,57.4902 132.022,57.8235 125.5,57.5C 121.818,50.7984 118.151,44.1317 114.5,37.5C 113.509,43.979 113.176,50.6457 113.5,57.5C 107.833,57.5 102.167,57.5 96.5,57.5C 95.3381,40.0048 95.1714,22.3381 96,4.5C 107.424,3.34629 118.924,3.17962 130.5,4C 144.297,10.5941 146.963,20.2607 138.5,33C 136.475,34.6772 134.141,35.6772 131.5,36C 135.719,42.946 140.052,49.7794 144.5,56.5 Z M 114.5,16.5 C 120.263,14.9736 123.93,16.9736 125.5,22.5C 124.253,24.323 123.586,26.323 123.5,28.5C 120.5,28.5 117.5,28.5 114.5,28.5C 114.5,24.5 114.5,20.5 114.5,16.5 Z"/></g>
<g><path style="opacity:1" fill="#e53941" d="M 188.5,4.5 C 181.08,4.20267 173.746,4.53601 166.5,5.5C 169.768,4.17782 173.435,3.51115 177.5,3.5C 181.349,3.50131 185.016,3.83465 188.5,4.5 Z"/></g>
<g><path style="opacity:1" fill="#e0111c" d="M 213.5,3.5 C 223.506,3.33352 233.506,3.50019 243.5,4C 262.063,10.2017 268.896,22.7017 264,41.5C 258.966,51.6037 250.799,57.1037 239.5,58C 230.588,58.8163 221.755,58.6497 213,57.5C 212.181,39.4264 212.348,21.4264 213.5,3.5 Z M 232.5,18.5 C 244.876,19.255 249.376,25.5883 246,37.5C 242.076,41.53 237.243,43.1966 231.5,42.5C 231.199,34.4144 231.533,26.4144 232.5,18.5 Z"/></g>
<g><path style="opacity:1" fill="#e0111c" d="M 188.5,4.5 C 194.696,21.7535 200.696,39.0869 206.5,56.5C 200.355,57.4902 194.022,57.8235 187.5,57.5C 186.694,56.0028 186.028,54.3361 185.5,52.5C 180.167,51.1667 174.833,51.1667 169.5,52.5C 168.37,53.6223 167.703,54.9557 167.5,56.5C 161.068,57.8073 154.734,57.8073 148.5,56.5C 153.304,39.0889 159.304,22.0889 166.5,5.5C 173.746,4.53601 181.08,4.20267 188.5,4.5 Z M 177.5,22.5 C 178.117,22.6107 178.617,22.944 179,23.5C 179.876,28.911 181.043,34.2443 182.5,39.5C 179.167,39.5 175.833,39.5 172.5,39.5C 173.362,33.4848 175.028,27.8182 177.5,22.5 Z"/></g>
<g><path style="opacity:1" fill="#de0813" d="M 271.5,5.5 C 271.5,5.16667 271.5,4.83333 271.5,4.5C 277.5,4.5 283.5,4.5 289.5,4.5C 289.5,22.5 289.5,40.5 289.5,58.5C 289.167,58.5 288.833,58.5 288.5,58.5C 283.36,57.5119 278.026,57.1786 272.5,57.5C 272.83,39.992 272.497,22.6586 271.5,5.5 Z"/></g>
<g><path style="opacity:1" fill="#df0c1a" d="M 273.5,5.5 C 278.5,5.5 283.5,5.5 288.5,5.5C 288.5,22.5 288.5,39.5 288.5,56.5C 283.5,56.5 278.5,56.5 273.5,56.5C 273.5,39.5 273.5,22.5 273.5,5.5 Z"/></g>
<g><path style="opacity:1" fill="#e5383c" d="M 271.5,5.5 C 272.497,22.6586 272.83,39.992 272.5,57.5C 278.026,57.1786 283.36,57.5119 288.5,58.5C 282.833,58.5 277.167,58.5 271.5,58.5C 271.5,40.8333 271.5,23.1667 271.5,5.5 Z"/></g>
<g><path style="opacity:1" fill="#e8474b" d="M 271.5,4.5 C 277.645,3.50984 283.978,3.1765 290.5,3.5C 290.83,22.0076 290.497,40.3409 289.5,58.5C 289.5,40.5 289.5,22.5 289.5,4.5C 283.5,4.5 277.5,4.5 271.5,4.5 Z"/></g>
<g><path style="opacity:1" fill="#e53b41" d="M 114.5,37.5 C 114.5,44.5 114.5,51.5 114.5,58.5C 108.31,58.8229 102.31,58.4896 96.5,57.5C 102.167,57.5 107.833,57.5 113.5,57.5C 113.176,50.6457 113.509,43.979 114.5,37.5 Z"/></g>
<g><path style="opacity:1" fill="#e53539" d="M 144.5,56.5 C 145.043,56.56 145.376,56.8933 145.5,57.5C 138.678,58.8181 132.011,58.8181 125.5,57.5C 132.022,57.8235 138.355,57.4902 144.5,56.5 Z"/></g>
<g><path style="opacity:1" fill="#e5373b" d="M 148.5,56.5 C 154.734,57.8073 161.068,57.8073 167.5,56.5C 164.572,57.8197 161.239,58.4864 157.5,58.5C 154.167,58.1667 150.833,57.8333 147.5,57.5C 147.624,56.8933 147.957,56.56 148.5,56.5 Z"/></g>
<g><path style="opacity:1" fill="#e5363a" d="M 206.5,56.5 C 207.043,56.56 207.376,56.8933 207.5,57.5C 200.678,58.8181 194.011,58.8181 187.5,57.5C 194.022,57.8235 200.355,57.4902 206.5,56.5 Z"/></g>
<g><path style="opacity:1" fill="#ffffff" d="M 346.5,82.5 C 354.668,81.95 362.668,82.7833 370.5,85C 371.428,85.3879 372.095,86.0546 372.5,87C 371.358,90.7599 370.025,94.4265 368.5,98C 364.608,97.1027 360.608,96.2694 356.5,95.5C 350.51,95.6788 349.177,98.1788 352.5,103C 372.4,105.979 378.234,116.479 370,134.5C 361.941,142.073 352.441,144.573 341.5,142C 336.482,140.773 331.815,138.773 327.5,136C 329.262,131.55 330.928,127.05 332.5,122.5C 338.558,128.359 345.558,130.192 353.5,128C 355.815,125.524 355.482,123.191 352.5,121C 344.971,120.338 338.471,117.505 333,112.5C 328.163,103.004 329.663,94.5044 337.5,87C 340.592,85.4541 343.592,83.9541 346.5,82.5 Z"/></g>
<g><path style="opacity:1" fill="#ffffff" d="M 403.5,82.5 C 433.474,80.3031 446.308,93.9698 442,123.5C 436.267,136.79 426.1,143.124 411.5,142.5C 391.476,142.476 380.809,132.476 379.5,112.5C 380.525,96.8186 388.525,86.8186 403.5,82.5 Z M 408.5,99.5 C 421.425,100.283 425.925,106.949 422,119.5C 417.832,125.486 412.332,126.986 405.5,124C 399.187,118.434 398.02,111.934 402,104.5C 403.805,102.174 405.972,100.508 408.5,99.5 Z"/></g>
<g><path style="opacity:1" fill="#ffffff" d="M 6.5,83.5 C 19.5461,83.1225 32.5461,83.6225 45.5,85C 54.7537,89.6732 58.587,97.1732 57,107.5C 55.8201,116.68 50.6534,121.847 41.5,123C 36.1771,123.499 30.8437,123.666 25.5,123.5C 25.8082,129.425 25.4749,135.259 24.5,141C 18.2511,141.809 12.0844,141.642 6,140.5C 5.18047,121.427 5.34713,102.427 6.5,83.5 Z M 25.5,96.5 C 28.5682,96.5467 31.5682,97.0467 34.5,98C 38.0575,101.182 38.3908,104.682 35.5,108.5C 32.3876,110.184 29.0543,110.85 25.5,110.5C 25.5,105.833 25.5,101.167 25.5,96.5 Z"/></g>
<g><path style="opacity:1" fill="#ffffff" d="M 73.5,83.5 C 80.8635,83.1694 88.1968,83.5027 95.5,84.5C 101.908,103.391 107.908,122.391 113.5,141.5C 107.158,141.666 100.825,141.5 94.5,141C 93.1328,138.699 92.4661,136.199 92.5,133.5C 86.7945,133.171 81.1278,133.505 75.5,134.5C 74.8333,136.5 74.1667,138.5 73.5,140.5C 66.8665,141.497 60.1998,141.83 53.5,141.5C 59.5724,121.949 66.2391,102.616 73.5,83.5 Z M 83.5,98.5 C 85.5288,105.967 87.1954,113.634 88.5,121.5C 85.1501,121.665 81.8168,121.498 78.5,121C 81.0318,113.705 82.6985,106.205 83.5,98.5 Z"/></g>
<g><path style="opacity:1" fill="#ffffff" d="M 119.5,83.5 C 130.505,83.3335 141.505,83.5002 152.5,84C 165.17,85.6692 170.67,92.8359 169,105.5C 167.817,111.997 163.984,115.664 157.5,116.5C 161.62,124.729 166.287,132.729 171.5,140.5C 164.524,141.664 157.524,141.831 150.5,141C 145.699,133.903 141.533,126.403 138,118.5C 137.5,126.159 137.334,133.826 137.5,141.5C 131.242,141.81 125.076,141.476 119,140.5C 118.18,121.427 118.347,102.427 119.5,83.5 Z M 137.5,97.5 C 146.316,95.4939 150.15,98.8273 149,107.5C 148.167,108.333 147.333,109.167 146.5,110C 143.518,110.498 140.518,110.665 137.5,110.5C 137.5,106.167 137.5,101.833 137.5,97.5 Z"/></g>
<g><path style="opacity:1" fill="#ffffff" d="M 193.5,83.5 C 200.841,83.3337 208.174,83.5003 215.5,84C 222.031,102.592 228.364,121.259 234.5,140C 228.012,141.458 221.345,141.958 214.5,141.5C 215.058,134.131 211.725,131.464 204.5,133.5C 201.833,133.667 199.167,133.833 196.5,134C 195.5,136.333 194.5,138.667 193.5,141C 187.175,141.5 180.842,141.666 174.5,141.5C 180.428,122.049 186.761,102.716 193.5,83.5 Z M 204.5,98.5 C 206.046,106.075 207.713,113.742 209.5,121.5C 206.167,121.5 202.833,121.5 199.5,121.5C 201.549,113.923 203.216,106.256 204.5,98.5 Z"/></g>
<g><path style="opacity:1" fill="#ffffff" d="M 239.5,83.5 C 249.506,83.3335 259.506,83.5002 269.5,84C 285.596,85.9359 293.93,95.1026 294.5,111.5C 293.441,131.059 283.107,140.892 263.5,141C 255.507,141.5 247.507,141.666 239.5,141.5C 239.5,122.167 239.5,102.833 239.5,83.5 Z M 259.5,98.5 C 273.048,99.5844 277.548,106.584 273,119.5C 269.202,123.934 264.369,125.934 258.5,125.5C 258.196,116.416 258.529,107.416 259.5,98.5 Z"/></g>
<g><path style="opacity:1" fill="#ffffff" d="M 302.5,83.5 C 308.758,83.1903 314.924,83.5236 321,84.5C 321.825,103.407 321.659,122.24 320.5,141C 314.251,141.809 308.084,141.642 302,140.5C 301.18,121.427 301.347,102.427 302.5,83.5 Z"/></g>
<g><path style="opacity:1" fill="#ffffff" d="M 4.5,155.5 C 151.167,155.333 297.834,155.5 444.5,156C 445.38,157.356 445.714,158.856 445.5,160.5C 298.5,160.5 151.5,160.5 4.5,160.5C 4.5,158.833 4.5,157.167 4.5,155.5 Z"/></g>
<g><path style="opacity:1" fill="#e0111d" d="M 217.5,184.5 C 232.342,188.851 237.842,198.517 234,213.5C 232.186,217.302 229.686,220.469 226.5,223C 230.372,228.571 234.372,234.071 238.5,239.5C 232.528,240.664 226.528,240.83 220.5,240C 216.833,235.667 213.167,231.333 209.5,227C 208.552,226.517 207.552,226.351 206.5,226.5C 206.167,226.5 205.833,226.5 205.5,226.5C 204.517,230.298 204.183,234.298 204.5,238.5C 200.5,238.5 196.5,238.5 192.5,238.5C 192.5,221.167 192.5,203.833 192.5,186.5C 201.017,186.826 209.35,186.493 217.5,185.5C 217.5,185.167 217.5,184.833 217.5,184.5 Z M 206.5,199.5 C 216.176,196.851 219.843,200.184 217.5,209.5C 214.185,210.947 210.852,211.281 207.5,210.5C 206.511,206.893 206.177,203.226 206.5,199.5 Z"/></g>
<g><path style="opacity:1" fill="#e5353f" d="M 255.5,185.5 C 249.741,185.214 244.075,185.548 238.5,186.5C 240.915,185.186 243.748,184.519 247,184.5C 250.021,184.502 252.854,184.836 255.5,185.5 Z"/></g>
<g><path style="opacity:1" fill="#e0111d" d="M 165.5,210.5 C 165.833,210.5 166.167,210.5 166.5,210.5C 167.492,202.684 167.826,194.684 167.5,186.5C 171.5,186.5 175.5,186.5 179.5,186.5C 179.5,203.833 179.5,221.167 179.5,238.5C 175.167,238.5 170.833,238.5 166.5,238.5C 160.53,231.018 154.697,223.351 149,215.5C 148.667,223.5 148.333,231.5 148,239.5C 142.667,240.833 137.333,240.833 132,239.5C 131.175,221.26 131.341,203.093 132.5,185C 137.167,184.333 141.833,184.333 146.5,185C 152.976,193.479 159.309,201.979 165.5,210.5 Z"/></g>
<g><path style="opacity:1" fill="#e7414a" d="M 180.5,184.5 C 180.5,184.833 180.5,185.167 180.5,185.5C 175.833,185.5 171.167,185.5 166.5,185.5C 166.5,193.833 166.5,202.167 166.5,210.5C 166.167,210.5 165.833,210.5 165.5,210.5C 165.5,201.833 165.5,193.167 165.5,184.5C 170.5,184.5 175.5,184.5 180.5,184.5 Z"/></g>
<g><path style="opacity:1" fill="#de0712" d="M 180.5,185.5 C 180.5,203.5 180.5,221.5 180.5,239.5C 175.833,239.5 171.167,239.5 166.5,239.5C 166.5,239.167 166.5,238.833 166.5,238.5C 170.833,238.5 175.167,238.5 179.5,238.5C 179.5,221.167 179.5,203.833 179.5,186.5C 175.5,186.5 171.5,186.5 167.5,186.5C 167.826,194.684 167.492,202.684 166.5,210.5C 166.5,202.167 166.5,193.833 166.5,185.5C 171.167,185.5 175.833,185.5 180.5,185.5 Z"/></g>
<g><path style="opacity:1" fill="#e6454f" d="M 180.5,184.5 C 181.497,202.993 181.83,221.659 181.5,240.5C 176.305,240.821 171.305,240.487 166.5,239.5C 171.167,239.5 175.833,239.5 180.5,239.5C 180.5,221.5 180.5,203.5 180.5,185.5C 180.5,185.167 180.5,184.833 180.5,184.5 Z"/></g>
<g><path style="opacity:1" fill="#de0813" d="M 217.5,185.5 C 209.35,186.493 201.017,186.826 192.5,186.5C 192.5,203.833 192.5,221.167 192.5,238.5C 196.5,238.5 200.5,238.5 204.5,238.5C 204.183,234.298 204.517,230.298 205.5,226.5C 205.5,230.833 205.5,235.167 205.5,239.5C 200.833,239.5 196.167,239.5 191.5,239.5C 191.5,221.5 191.5,203.5 191.5,185.5C 200.167,185.5 208.833,185.5 217.5,185.5 Z"/></g>
<g><path style="opacity:1" fill="#e0121e" d="M 238.5,186.5 C 244.075,185.548 249.741,185.214 255.5,185.5C 257.51,194.891 259.843,204.224 262.5,213.5C 265.485,203.922 268.152,194.255 270.5,184.5C 275.5,184.5 280.5,184.5 285.5,184.5C 288.781,195.293 291.281,206.293 293,217.5C 295.27,206.771 297.77,196.104 300.5,185.5C 306.128,184.505 311.794,184.171 317.5,184.5C 314.304,199.688 310.471,214.688 306,229.5C 305.281,233.145 304.781,236.812 304.5,240.5C 297.825,240.666 291.158,240.5 284.5,240C 282.565,232.76 280.398,225.593 278,218.5C 276.3,225.633 274.133,232.633 271.5,239.5C 265.202,240.496 258.868,240.83 252.5,240.5C 247.518,222.574 242.852,204.574 238.5,186.5 Z"/></g>
<g><path style="opacity:1" fill="#e7444e" d="M 217.5,184.5 C 217.5,184.833 217.5,185.167 217.5,185.5C 208.833,185.5 200.167,185.5 191.5,185.5C 191.5,203.5 191.5,221.5 191.5,239.5C 196.167,239.5 200.833,239.5 205.5,239.5C 205.5,235.167 205.5,230.833 205.5,226.5C 205.833,226.5 206.167,226.5 206.5,226.5C 206.5,231.167 206.5,235.833 206.5,240.5C 201.167,240.5 195.833,240.5 190.5,240.5C 190.5,221.833 190.5,203.167 190.5,184.5C 199.5,184.5 208.5,184.5 217.5,184.5 Z"/></g>
</svg>
