<?xml version="1.0" encoding="UTF-8"?>
<!DOCTYPE svg PUBLIC "-//W3C//DTD SVG 1.1//EN" "http://www.w3.org/Graphics/SVG/1.1/DTD/svg11.dtd">
<svg xmlns="http://www.w3.org/2000/svg" version="1.1" width="929px" height="120px" style="shape-rendering:geometricPrecision; text-rendering:geometricPrecision; image-rendering:optimizeQuality; fill-rule:evenodd; clip-rule:evenodd" xmlns:xlink="http://www.w3.org/1999/xlink">
<g><path style="opacity:1" fill="#ffffff" d="M -0.5,-0.5 C 4.16667,-0.5 8.83333,-0.5 13.5,-0.5C 13.5,7.83333 13.5,16.1667 13.5,24.5C 21.8333,24.5 30.1667,24.5 38.5,24.5C 38.7729,16.1122 38.4396,7.77885 37.5,-0.5C 42.5,-0.5 47.5,-0.5 52.5,-0.5C 52.5,21.5 52.5,43.5 52.5,65.5C 47.456,65.8275 42.456,65.4941 37.5,64.5C 38.4722,55.5542 38.8056,46.5542 38.5,37.5C 30.1667,37.5 21.8333,37.5 13.5,37.5C 13.5,46.8333 13.5,56.1667 13.5,65.5C 8.83333,65.5 4.16667,65.5 -0.5,65.5C -0.5,43.5 -0.5,21.5 -0.5,-0.5 Z"/></g>
<g><path style="opacity:1" fill="#ffffff" d="M 64.5,-0.5 C 76.1667,-0.5 87.8333,-0.5 99.5,-0.5C 109.809,2.31038 116.309,8.97705 119,19.5C 121.705,31.1882 120.705,42.5215 116,53.5C 112.528,59.6408 107.362,63.4741 100.5,65C 88.5046,65.4999 76.5046,65.6665 64.5,65.5C 64.5,43.5 64.5,21.5 64.5,-0.5 Z M 79.5,11.5 C 96.6435,8.32738 105.31,15.3274 105.5,32.5C 105.766,38.9419 104.1,44.7753 100.5,50C 93.838,52.9747 86.838,54.1414 79.5,53.5C 79.5,39.5 79.5,25.5 79.5,11.5 Z"/></g>
<g><path style="opacity:1" fill="#ef8600" d="M 215.5,119.5 C 207.167,119.5 198.833,119.5 190.5,119.5C 157.296,110.116 141.462,88.1164 143,53.5C 149.577,20.5876 169.577,2.92094 203,0.5C 234.997,3.15936 254.663,20.1594 262,51.5C 264.886,81.2369 253.053,102.737 226.5,116C 222.667,117.034 219.001,118.2 215.5,119.5 Z M 195.5,19.5 C 217.481,18.2343 232.981,27.5676 242,47.5C 247.671,74.1541 237.671,92.1541 212,101.5C 211.5,87.504 211.333,73.504 211.5,59.5C 205.5,59.5 199.5,59.5 193.5,59.5C 193.5,73.1667 193.5,86.8333 193.5,100.5C 173.322,95.144 162.322,81.9773 160.5,61C 163.056,39.2915 174.723,25.4581 195.5,19.5 Z"/></g>
<g><path style="opacity:1" fill="#ffffff" d="M 414.5,12.5 C 417.167,12.5 419.833,12.5 422.5,12.5C 422.234,45.1797 422.568,77.8464 423.5,110.5C 420.5,110.5 417.5,110.5 414.5,110.5C 414.663,108.143 414.497,105.81 414,103.5C 408.833,110.179 402,112.679 393.5,111C 388.25,109.789 384.083,106.956 381,102.5C 373.752,85.4698 373.752,68.4698 381,51.5C 387.855,42.6102 396.689,40.1102 407.5,44C 409.609,45.1411 411.442,46.6411 413,48.5C 413.187,36.4245 413.687,24.4245 414.5,12.5 Z M 395.5,51.5 C 404.853,50.4229 410.686,54.4229 413,63.5C 415.869,75.6902 414.536,87.3569 409,98.5C 396.389,105.698 388.723,102.031 386,87.5C 385.13,79.103 385.463,70.7697 387,62.5C 388.428,57.5963 391.261,53.9296 395.5,51.5 Z"/></g>
<g><path style="opacity:1" fill="#ffffff" d="M 528.5,12.5 C 534.167,12.5 539.833,12.5 545.5,12.5C 545.333,24.8378 545.5,37.1712 546,49.5C 548.876,44.977 553.043,42.477 558.5,42C 569.871,40.4331 577.704,44.9331 582,55.5C 586.252,68.718 586.586,82.0513 583,95.5C 577.329,109.584 567.162,114.418 552.5,110C 549.705,108.207 547.205,106.04 545,103.5C 544.023,105.74 543.523,108.073 543.5,110.5C 538.167,110.5 532.833,110.5 527.5,110.5C 528.471,77.8579 528.805,45.1913 528.5,12.5 Z M 553.5,55.5 C 561.39,54.8821 565.89,58.5487 567,66.5C 567.87,74.897 567.537,83.2303 566,91.5C 561.204,99.9522 555.537,100.619 549,93.5C 545.224,84.0874 544.557,74.4208 547,64.5C 548.211,60.7209 550.377,57.7209 553.5,55.5 Z"/></g>
<g><path style="opacity:1" fill="#ffffff" d="M 439.5,17.5 C 443.167,17.5 446.833,17.5 450.5,17.5C 450.5,21.8333 450.5,26.1667 450.5,30.5C 446.833,30.5 443.167,30.5 439.5,30.5C 439.5,26.1667 439.5,21.8333 439.5,17.5 Z"/></g>
<g><path style="opacity:1" fill="#ffffff" d="M 627.5,41.5 C 629.792,41.2436 631.959,41.5769 634,42.5C 634.499,47.8229 634.666,53.1563 634.5,58.5C 626.076,56.6279 620.243,59.6279 617,67.5C 615.433,81.5412 615.099,95.5412 616,109.5C 610.259,110.475 604.425,110.808 598.5,110.5C 598.791,87.8071 598.458,65.1404 597.5,42.5C 602.875,42.1718 608.208,42.5052 613.5,43.5C 614.213,45.7759 614.713,48.1093 615,50.5C 617.917,45.6369 622.083,42.6369 627.5,41.5 Z"/></g>
<g><path style="opacity:1" fill="#ffffff" d="M 662.5,41.5 C 680.314,40.4794 690.481,48.8127 693,66.5C 693.499,71.4889 693.666,76.4889 693.5,81.5C 680.816,81.1676 668.149,81.5009 655.5,82.5C 655.664,89.2335 658.664,94.0668 664.5,97C 666.953,97.7382 669.453,98.2382 672,98.5C 678.155,97.8319 683.989,96.1652 689.5,93.5C 690.569,98.1776 690.569,102.844 689.5,107.5C 676.167,113.305 663.167,112.805 650.5,106C 642.138,98.4344 638.138,88.9344 638.5,77.5C 638.499,65.6537 642.499,55.4871 650.5,47C 654.284,44.4713 658.284,42.638 662.5,41.5 Z M 663.5,54.5 C 667.909,53.6185 671.409,54.9518 674,58.5C 675.783,62.2982 676.616,66.2982 676.5,70.5C 669.468,70.8303 662.468,70.497 655.5,69.5C 655.927,63.1562 658.593,58.1562 663.5,54.5 Z"/></g>
<g><path style="opacity:1" fill="#ffffff" d="M 736.5,41.5 C 745.315,40.4438 752.315,43.4438 757.5,50.5C 766.83,40.3343 777.33,39.001 789,46.5C 791.434,49.7954 793.101,53.462 794,57.5C 794.5,75.1635 794.667,92.8302 794.5,110.5C 788.833,110.5 783.167,110.5 777.5,110.5C 777.667,95.163 777.5,79.8297 777,64.5C 773.659,55.2482 768.659,54.2482 762,61.5C 761.138,63.087 760.471,64.7536 760,66.5C 759.5,81.1629 759.333,95.8295 759.5,110.5C 753.824,110.666 748.157,110.499 742.5,110C 742.043,109.586 741.709,109.086 741.5,108.5C 742.648,95.2121 742.815,81.8787 742,68.5C 742.235,58.0312 737.735,54.8645 728.5,59C 726.898,60.9347 725.731,63.1013 725,65.5C 724.5,80.4963 724.333,95.4963 724.5,110.5C 718.5,110.5 712.5,110.5 706.5,110.5C 706.5,87.8333 706.5,65.1667 706.5,42.5C 712.167,42.5 717.833,42.5 723.5,42.5C 723.838,44.854 724.338,47.1873 725,49.5C 727.954,45.3497 731.787,42.683 736.5,41.5 Z"/></g>
<g><path style="opacity:1" fill="#ffffff" d="M 830.5,41.5 C 847.861,40.3612 858.028,48.3612 861,65.5C 861.499,70.8229 861.666,76.1563 861.5,81.5C 848.833,81.5 836.167,81.5 823.5,81.5C 823.411,92.5775 828.911,98.2441 840,98.5C 846.155,97.8319 851.989,96.1652 857.5,93.5C 858.569,98.1776 858.569,102.844 857.5,107.5C 846.339,112.064 835.006,112.564 823.5,109C 814.169,104.332 808.669,96.832 807,86.5C 804.745,73.8629 807.078,62.1963 814,51.5C 818.457,46.1623 823.957,42.8289 830.5,41.5 Z M 831.5,54.5 C 836.814,53.7397 840.647,55.7397 843,60.5C 844.043,63.7568 844.543,67.0901 844.5,70.5C 837.5,70.5 830.5,70.5 823.5,70.5C 823.551,63.7313 826.217,58.3979 831.5,54.5 Z"/></g>
<g><path style="opacity:1" fill="#ffffff" d="M 928.5,56.5 C 928.5,74.5 928.5,92.5 928.5,110.5C 922.833,110.5 917.167,110.5 911.5,110.5C 911.667,95.4963 911.5,80.4963 911,65.5C 909.395,57.191 904.895,55.0244 897.5,59C 895.959,60.5793 894.792,62.4127 894,64.5C 893.667,79.5 893.333,94.5 893,109.5C 887,110.833 881,110.833 875,109.5C 875.71,87.2358 875.543,64.9024 874.5,42.5C 880.167,42.5 885.833,42.5 891.5,42.5C 891.337,44.8568 891.503,47.1902 892,49.5C 898.993,41.6439 907.493,39.4773 917.5,43C 923.618,45.6077 927.285,50.1077 928.5,56.5 Z"/></g>
<g><path style="opacity:1" fill="#ffffff" d="M 306.5,42.5 C 308.833,42.5 311.167,42.5 313.5,42.5C 313.817,45.5719 313.484,48.5719 312.5,51.5C 304.515,51.9964 299.349,55.9964 297,63.5C 296.5,79.1631 296.333,94.8298 296.5,110.5C 293.5,110.5 290.5,110.5 287.5,110.5C 287.793,89.6486 287.46,68.8152 286.5,48C 286.559,46.5643 286.892,45.231 287.5,44C 290.146,43.5026 292.813,43.3359 295.5,43.5C 295.336,46.1873 295.503,48.854 296,51.5C 298.489,47.1675 301.989,44.1675 306.5,42.5 Z"/></g>
<g><path style="opacity:1" fill="#ffffff" d="M 334.5,42.5 C 343.314,41.0967 351.147,43.0967 358,48.5C 359,50.5 360,52.5 361,54.5C 362.388,73.1329 362.888,91.7995 362.5,110.5C 359.833,110.5 357.167,110.5 354.5,110.5C 354.664,107.813 354.497,105.146 354,102.5C 348.441,110.111 340.941,112.944 331.5,111C 322.162,107.673 317.496,101.007 317.5,91C 317.882,77.6035 324.882,70.6035 338.5,70C 343.489,69.5007 348.489,69.3341 353.5,69.5C 354.592,56.7604 348.925,50.9271 336.5,52C 332.104,53.8696 327.771,55.7029 323.5,57.5C 322.447,54.1485 322.447,50.8151 323.5,47.5C 327.148,45.5042 330.815,43.8375 334.5,42.5 Z M 341.5,77.5 C 345.5,77.5 349.5,77.5 353.5,77.5C 355.086,86.3498 352.752,93.8498 346.5,100C 336.235,104.914 329.568,101.914 326.5,91C 326.936,87.566 328.27,84.566 330.5,82C 333.979,79.7911 337.646,78.2911 341.5,77.5 Z"/></g>
<g><path style="opacity:1" fill="#ffffff" d="M 482.5,42.5 C 499.17,40.24 509.337,47.24 513,63.5C 515.344,75.0116 514.677,86.345 511,97.5C 502.438,111.603 490.605,115.103 475.5,108C 466.606,99.6635 462.606,89.3302 463.5,77C 463.506,69.9694 464.673,63.1361 467,56.5C 469.877,49.1145 475.044,44.4478 482.5,42.5 Z M 484.5,51.5 C 496.108,50.5592 502.608,55.8925 504,67.5C 505.08,76.3259 504.413,84.9926 502,93.5C 494.486,104.622 486.152,105.288 477,95.5C 473.187,85.0627 472.521,74.396 475,63.5C 476.526,58.0719 479.693,54.0719 484.5,51.5 Z"/></g>
<g><path style="opacity:1" fill="#ffffff" d="M 440.5,43.5 C 443.5,43.5 446.5,43.5 449.5,43.5C 449.5,65.8333 449.5,88.1667 449.5,110.5C 446.5,110.5 443.5,110.5 440.5,110.5C 440.5,88.1667 440.5,65.8333 440.5,43.5 Z"/></g>
</svg>
