<?xml version="1.0" encoding="UTF-8"?>
<!DOCTYPE svg PUBLIC "-//W3C//DTD SVG 1.1//EN" "http://www.w3.org/Graphics/SVG/1.1/DTD/svg11.dtd">
<svg xmlns="http://www.w3.org/2000/svg" version="1.1" width="454px" height="135px" style="shape-rendering:geometricPrecision; text-rendering:geometricPrecision; image-rendering:optimizeQuality; fill-rule:evenodd; clip-rule:evenodd" xmlns:xlink="http://www.w3.org/1999/xlink">
<g><path style="opacity:1" fill="#fbfafc" d="M 3.5,-0.5 C 45.1667,-0.5 86.8333,-0.5 128.5,-0.5C 130.475,0.646381 131.975,2.31305 133,4.5C 133.667,46.5 133.667,88.5 133,130.5C 131.624,131.705 130.458,133.038 129.5,134.5C 87.1667,134.5 44.8333,134.5 2.5,134.5C 1.83333,133.167 0.833333,132.167 -0.5,131.5C -0.5,88.5 -0.5,45.5 -0.5,2.5C 0.871651,1.48837 2.20498,0.488369 3.5,-0.5 Z"/></g>
<g><path style="opacity:1" fill="#f7b8da" d="M 5.5,3.5 C 31.6697,2.17079 58.0031,2.17079 84.5,3.5C 84.3764,4.10667 84.0431,4.44001 83.5,4.5C 57.672,3.5022 31.672,3.16887 5.5,3.5 Z"/></g>
<g><path style="opacity:1" fill="#fefffe" d="M 414.5,2.5 C 427.269,0.973392 437.436,5.30672 445,15.5C 446.562,17.9573 447.562,20.624 448,23.5C 450.493,38.3453 449.826,53.0119 446,67.5C 435.137,82.107 421.303,85.607 404.5,78C 398.852,74.2127 395.018,69.046 393,62.5C 390.738,47.7579 391.072,33.0912 394,18.5C 398.423,9.89412 405.257,4.56079 414.5,2.5 Z M 416.5,16.5 C 425.37,15.3388 430.87,19.0054 433,27.5C 433.906,38.5591 433.573,49.5591 432,60.5C 426.609,68.5561 419.776,70.0561 411.5,65C 409.898,63.0653 408.731,60.8987 408,58.5C 407.333,47.8333 407.333,37.1667 408,26.5C 409.289,21.7209 412.123,18.3875 416.5,16.5 Z"/></g>
<g><path style="opacity:1" fill="#e5047e" d="M 5.5,3.5 C 31.672,3.16887 57.672,3.5022 83.5,4.5C 56.8031,37.5245 30.1365,70.5245 3.5,103.5C 2.50176,71.3376 2.16842,39.0043 2.5,6.5C 2.5,4.5 3.5,3.5 5.5,3.5 Z"/></g>
<g><path style="opacity:1" fill="#fefffe" d="M 148.5,3.5 C 160.838,3.33346 173.171,3.50012 185.5,4C 196.985,7.25478 203.319,14.9215 204.5,27C 203.707,36.7662 199.041,43.9329 190.5,48.5C 196.138,59.4415 201.472,70.4415 206.5,81.5C 200.824,81.6661 195.157,81.4994 189.5,81C 184.267,71.3666 179.433,61.5333 175,51.5C 171.27,50.5399 167.437,50.2065 163.5,50.5C 163.5,60.8333 163.5,71.1667 163.5,81.5C 158.5,81.5 153.5,81.5 148.5,81.5C 148.5,55.5 148.5,29.5 148.5,3.5 Z M 164.5,16.5 C 170.565,16.2614 176.565,16.7614 182.5,18C 190.092,23.5084 190.425,29.5084 183.5,36C 176.924,37.3774 170.257,37.8774 163.5,37.5C 163.205,30.4122 163.538,23.4122 164.5,16.5 Z"/></g>
<g><path style="opacity:1" fill="#fefffe" d="M 238.5,3.5 C 243.099,3.20001 247.599,3.53335 252,4.5C 261.068,29.8715 270.235,55.2048 279.5,80.5C 274.167,81.8333 268.833,81.8333 263.5,80.5C 261.758,76.2746 260.424,71.9413 259.5,67.5C 250.143,67.1684 240.81,67.5017 231.5,68.5C 230.122,72.8031 228.456,76.9698 226.5,81C 221.511,81.4993 216.511,81.6659 211.5,81.5C 220.5,55.5 229.5,29.5 238.5,3.5 Z M 245.5,27.5 C 249.072,36.2161 252.072,45.2161 254.5,54.5C 248.5,54.5 242.5,54.5 236.5,54.5C 239.3,45.4331 242.3,36.4331 245.5,27.5 Z"/></g>
<g><path style="opacity:1" fill="#fefffe" d="M 289.5,3.5 C 334.78,-5.05353 353.28,13.2798 345,58.5C 342.874,71.293 335.374,78.793 322.5,81C 311.009,81.975 299.676,81.6416 288.5,80C 289.495,54.5745 289.828,29.0745 289.5,3.5 Z M 304.5,16.5 C 311.838,15.8586 318.838,17.0253 325.5,20C 327.041,21.5793 328.208,23.4127 329,25.5C 331,36.8333 331,48.1667 329,59.5C 327.108,63.0579 324.275,65.5579 320.5,67C 315.177,67.4994 309.844,67.666 304.5,67.5C 304.5,50.5 304.5,33.5 304.5,16.5 Z"/></g>
<g><path style="opacity:1" fill="#fefffe" d="M 360.5,3.5 C 365.833,3.5 371.167,3.5 376.5,3.5C 376.5,29.5 376.5,55.5 376.5,81.5C 371.238,81.8047 366.072,81.4714 361,80.5C 360.5,54.8355 360.333,29.1688 360.5,3.5 Z"/></g>
<g><path style="opacity:1" fill="#004370" d="M 129.5,71.5 C 123.828,71.7599 118.161,72.0932 112.5,72.5C 112.5,49.5 112.5,26.5 112.5,3.5C 117.897,3.21544 123.23,3.54878 128.5,4.5C 129.5,26.8234 129.833,49.1567 129.5,71.5 Z"/></g>
<g><path style="opacity:1" fill="#f184bf" d="M 2.5,6.5 C 2.16842,39.0043 2.50176,71.3376 3.5,103.5C 3.44001,104.043 3.10667,104.376 2.5,104.5C 1.17001,71.6692 1.17001,39.0025 2.5,6.5 Z"/></g>
<g><path style="opacity:1" fill="#0a4572" d="M 84.5,74.5 C 77.0486,75.9721 69.382,76.6388 61.5,76.5C 68.4282,66.8985 75.7616,57.5651 83.5,48.5C 84.498,57.1411 84.8314,65.8078 84.5,74.5 Z"/></g>
<g><path style="opacity:1" fill="#e4097e" d="M 129.5,71.5 C 129.5,79.1667 129.5,86.8333 129.5,94.5C 123.627,94.596 117.96,95.2627 112.5,96.5C 103.115,96.6156 93.7815,97.2822 84.5,98.5C 84.1667,98.5 83.8333,98.5 83.5,98.5C 69.5136,99.6769 55.5136,100.677 41.5,101.5C 47.4372,92.565 54.1038,84.2317 61.5,76.5C 69.382,76.6388 77.0486,75.9721 84.5,74.5C 93.8571,74.1342 103.19,73.4675 112.5,72.5C 118.161,72.0932 123.828,71.7599 129.5,71.5 Z"/></g>
<g><path style="opacity:1" fill="#fefffe" d="M 399.5,92.5 C 407.78,92.2854 413.113,96.1187 415.5,104C 412.985,105.713 410.318,105.88 407.5,104.5C 404.35,99.0475 400.517,98.3808 396,102.5C 394.494,107.746 394.161,113.079 395,118.5C 395.79,124.124 398.957,125.957 404.5,124C 406.926,119.712 410.593,118.378 415.5,120C 411.766,130.863 404.432,134.197 393.5,130C 390.865,128.039 389.031,125.539 388,122.5C 387.333,115.5 387.333,108.5 388,101.5C 390.291,96.4477 394.124,93.4477 399.5,92.5 Z"/></g>
<g><path style="opacity:1" fill="#fefffe" d="M 152.5,93.5 C 154.924,93.1924 157.257,93.5258 159.5,94.5C 164.436,106.642 168.769,118.976 172.5,131.5C 170.143,131.663 167.81,131.497 165.5,131C 164.308,129.088 163.308,127.088 162.5,125C 158.129,124.172 153.795,124.339 149.5,125.5C 148.247,131 144.914,132.667 139.5,130.5C 144.133,118.242 148.466,105.909 152.5,93.5 Z M 155.5,105.5 C 157.939,109.403 159.605,113.737 160.5,118.5C 157.833,118.5 155.167,118.5 152.5,118.5C 153.293,114.12 154.293,109.786 155.5,105.5 Z"/></g>
<g><path style="opacity:1" fill="#fefffe" d="M 177.5,93.5 C 180.685,93.0196 183.519,93.6863 186,95.5C 189.94,102.436 194.273,109.103 199,115.5C 198.573,108.252 198.406,100.918 198.5,93.5C 201.167,93.5 203.833,93.5 206.5,93.5C 206.5,106.167 206.5,118.833 206.5,131.5C 203.881,131.768 201.381,131.435 199,130.5C 194.697,123.366 190.197,116.366 185.5,109.5C 185.599,116.229 185.433,123.229 185,130.5C 182.619,131.435 180.119,131.768 177.5,131.5C 177.5,118.833 177.5,106.167 177.5,93.5 Z"/></g>
<g><path style="opacity:1" fill="#fefffe" d="M 215.5,93.5 C 238.905,89.5885 247.739,99.2551 242,122.5C 240.427,127.071 237.26,129.904 232.5,131C 226.843,131.499 221.176,131.666 215.5,131.5C 215.5,118.833 215.5,106.167 215.5,93.5 Z M 222.5,100.5 C 232.58,98.2462 236.913,102.246 235.5,112.5C 236.278,122.055 231.945,126.055 222.5,124.5C 222.5,116.5 222.5,108.5 222.5,100.5 Z"/></g>
<g><path style="opacity:1" fill="#fefffe" d="M 250.5,93.5 C 258.833,93.5 267.167,93.5 275.5,93.5C 275.756,95.7925 275.423,97.9592 274.5,100C 268.843,100.499 263.176,100.666 257.5,100.5C 257.5,103.167 257.5,105.833 257.5,108.5C 262.5,108.5 267.5,108.5 272.5,108.5C 272.5,110.833 272.5,113.167 272.5,115.5C 267.5,115.5 262.5,115.5 257.5,115.5C 257.223,118.448 257.556,121.281 258.5,124C 264.157,124.499 269.824,124.666 275.5,124.5C 275.5,126.833 275.5,129.167 275.5,131.5C 267.167,131.5 258.833,131.5 250.5,131.5C 250.5,118.833 250.5,106.167 250.5,93.5 Z"/></g>
<g><path style="opacity:1" fill="#fefffe" d="M 282.5,93.5 C 289.175,93.3337 295.842,93.5004 302.5,94C 308.908,97.3228 311.075,102.489 309,109.5C 307.663,112.002 305.829,114.002 303.5,115.5C 306.039,120.745 308.706,125.912 311.5,131C 308.5,131.667 305.5,131.667 302.5,131C 300.039,126.579 297.706,122.079 295.5,117.5C 293.955,116.548 292.288,116.215 290.5,116.5C 290.666,121.179 290.499,125.845 290,130.5C 287.619,131.435 285.119,131.768 282.5,131.5C 282.5,118.833 282.5,106.167 282.5,93.5 Z M 290.5,100.5 C 293.85,100.335 297.183,100.502 300.5,101C 303.353,104.096 303.02,106.763 299.5,109C 296.518,109.498 293.518,109.665 290.5,109.5C 290.5,106.5 290.5,103.5 290.5,100.5 Z"/></g>
<g><path style="opacity:1" fill="#fefffe" d="M 317.5,93.5 C 320.119,93.2317 322.619,93.565 325,94.5C 328.94,101.436 333.273,108.103 338,114.5C 338.5,107.508 338.666,100.508 338.5,93.5C 341.167,93.5 343.833,93.5 346.5,93.5C 346.5,106.167 346.5,118.833 346.5,131.5C 343.881,131.768 341.381,131.435 339,130.5C 334.581,123.328 329.915,116.328 325,109.5C 324.5,116.826 324.334,124.159 324.5,131.5C 322.167,131.5 319.833,131.5 317.5,131.5C 317.5,118.833 317.5,106.167 317.5,93.5 Z"/></g>
<g><path style="opacity:1" fill="#fefffe" d="M 364.5,93.5 C 366.792,93.2436 368.959,93.5769 371,94.5C 375.402,106.539 379.902,118.539 384.5,130.5C 379.086,132.667 375.753,131 374.5,125.5C 370.205,124.339 365.871,124.172 361.5,125C 360.308,126.912 359.308,128.912 358.5,131C 356.19,131.497 353.857,131.663 351.5,131.5C 355.431,118.708 359.764,106.042 364.5,93.5 Z M 367.5,105.5 C 369.61,109.502 370.943,113.835 371.5,118.5C 368.833,118.5 366.167,118.5 363.5,118.5C 364.829,114.178 366.163,109.845 367.5,105.5 Z"/></g>
<g><path style="opacity:1" fill="#fefffe" d="M 421.5,93.5 C 423.833,93.5 426.167,93.5 428.5,93.5C 428.5,98.5 428.5,103.5 428.5,108.5C 432.833,108.5 437.167,108.5 441.5,108.5C 441.5,103.5 441.5,98.5 441.5,93.5C 444.167,93.5 446.833,93.5 449.5,93.5C 449.667,105.838 449.5,118.171 449,130.5C 446.619,131.435 444.119,131.768 441.5,131.5C 441.5,126.167 441.5,120.833 441.5,115.5C 437.233,115.203 433.066,115.536 429,116.5C 428.501,121.489 428.334,126.489 428.5,131.5C 426.167,131.5 423.833,131.5 421.5,131.5C 421.5,118.833 421.5,106.167 421.5,93.5 Z"/></g>
<g><path style="opacity:1" fill="#054471" d="M 129.5,94.5 C 129.667,106.171 129.5,117.838 129,129.5C 128.5,130 128,130.5 127.5,131C 122.511,131.499 117.511,131.666 112.5,131.5C 112.5,119.833 112.5,108.167 112.5,96.5C 117.96,95.2627 123.627,94.596 129.5,94.5 Z"/></g>
<g><path style="opacity:1" fill="#044370" d="M 83.5,98.5 C 83.5,109.167 83.5,119.833 83.5,130.5C 61.9935,130.831 40.6601,130.497 19.5,129.5C 26.4827,119.855 33.816,110.522 41.5,101.5C 55.5136,100.677 69.5136,99.6769 83.5,98.5 Z"/></g>
<g><path style="opacity:1" fill="#3e6f92" d="M 83.5,98.5 C 83.8333,98.5 84.1667,98.5 84.5,98.5C 84.5,109.5 84.5,120.5 84.5,131.5C 62.1642,131.667 39.8308,131.5 17.5,131C 18.0442,130.283 18.7109,129.783 19.5,129.5C 40.6601,130.497 61.9935,130.831 83.5,130.5C 83.5,119.833 83.5,109.167 83.5,98.5 Z"/></g>
</svg>
