<svg
   xmlns:dc="http://purl.org/dc/elements/1.1/"
   xmlns:cc="http://creativecommons.org/ns#"
   xmlns:rdf="http://www.w3.org/1999/02/22-rdf-syntax-ns#"
   xmlns:svg="http://www.w3.org/2000/svg"
   xmlns="http://www.w3.org/2000/svg"
   version="1.1"
   width="533.90625"
   height="369.9375"
   id="svg11262">
  <defs
     id="defs11264" />
  <g
     transform="translate(-107.33259,-298.822)"
     id="layer1">
    <path
       d="m 616.63034,666.45744 c 12.3639,0 22.36492,-10.01475 22.36492,-22.36491 l 0,-320.67829 c 0,-12.3639 -10.00102,-22.37865 -22.36492,-22.37865 l -484.73347,0 c -12.3639,0 -22.37866,10.01475 -22.37866,22.37865 l 0,320.67829 c 0,12.35016 10.01476,22.36491 22.37866,22.36491 l 484.73347,0"
       id="path3165-3"
       style="fill:#fff200;fill-opacity:1;fill-rule:nonzero;stroke:none" />
    <path
       d="m 131.95759,299.822 c -13.07235,0 -23.625,10.55265 -23.625,23.625 l 0,320.6875 c 0,13.0594 10.55265,23.625 23.625,23.625 l 484.6875,0 c 13.07235,0 23.59375,-10.56657 23.59375,-23.625 l 0,-320.6875 c 0,-13.07137 -10.5214,-23.625 -23.59375,-23.625 l -484.6875,0 z m 0,2.59375 484.6875,0 c 11.65545,0 21.03125,9.37483 21.03125,21.03125 l 0,320.6875 c 0,11.64189 -9.3758,21.03125 -21.03125,21.03125 l -484.6875,0 c -11.65545,0 -21.03125,-9.39033 -21.03125,-21.03125 l 0,-320.6875 c 0,-11.65545 9.3758,-21.03125 21.03125,-21.03125 z m 3.65625,9.8125 c -8.24255,0 -14.90625,6.67742 -14.90625,14.90625 l 0,313.21875 c 0,8.24261 6.6637,14.90625 14.90625,14.90625 l 477.3125,0 c 8.22888,0 14.90625,-6.66364 14.90625,-14.90625 l 0,-313.21875 c 0,-8.22883 -6.67737,-14.90625 -14.90625,-14.90625 l -477.3125,0 z m -3.71875,11.1875 484.75,0 0,320.65625 -484.75,0 0,-320.65625 z m 282.375,19.59375 0,48.28125 c -5.00051,-5.92093 -13.14447,-8.8125 -20.90625,-8.8125 -20.00204,0 -33.8125,16.56362 -33.8125,35.90625 0,19.31516 14.0742,36.03125 34.0625,36.03125 7.88542,0 16.17127,-3.04602 20.375,-9.75 l 0.28125,0 0,7.5 23.9375,0 0,-109.15625 -23.9375,0 z m 46.9375,2.375 c -7.36339,0 -13.40625,6.04286 -13.40625,13.40625 0,7.36339 6.04286,13.4375 13.40625,13.4375 7.37713,0 13.4375,-6.07411 13.4375,-13.4375 0,-7.36339 -6.06037,-13.40625 -13.4375,-13.40625 z m -268.4375,7.625 0,99.15625 25.78125,0 0,-38.125 0.28125,0 24.3125,38.125 32.125,0 -31.1875,-40.625 c 14.06737,-2.50025 21.6875,-14.34854 21.6875,-28.03125 0,-21.18348 -14.8651,-30.5 -34.46875,-30.5 l -38.53125,0 z m 25.78125,19.75 2.5,0 c 8.43493,0 17.90625,1.55968 17.90625,12.34375 0,10.7978 -9.47132,12.34375 -17.90625,12.34375 l -2.5,0 0,-24.6875 z m 88.125,9.71875 c -20.00204,0 -33.8125,16.56362 -33.8125,35.90625 0,19.31516 14.09171,36.03125 34.09375,36.03125 7.88542,0 16.17127,-3.04602 20.375,-9.75 l 0.25,0 0,7.5 23.9375,0 0,-67.46875 -23.9375,0 0,6.59375 c -5.00051,-5.92093 -13.15821,-8.8125 -20.90625,-8.8125 z m 213.96875,0 c -21.69177,0 -40.65625,13.02066 -40.65625,36.03125 0,23.02432 19.08812,35.90625 40.65625,35.90625 21.70551,0 40.625,-13.0193 40.625,-35.90625 0,-23.01059 -18.91949,-36.03125 -40.625,-36.03125 z m -71.40625,2.21875 0,67.46875 23.9375,0 0,-67.46875 -23.9375,0 z m -136.25,18.5625 c 9.74,0 15.375,6.96619 15.375,15.25 0,8.54483 -5.635,15.125 -15.375,15.125 -9.72627,0 -15.375,-6.58017 -15.375,-15.125 0,-8.28381 5.64873,-15.25 15.375,-15.25 z m 86.6875,0 c 9.72626,0 15.375,6.96619 15.375,15.25 0,8.54483 -5.64874,15.125 -15.375,15.125 -9.72627,0 -15.40625,-6.58017 -15.40625,-15.125 0,-8.28381 5.67998,-15.25 15.40625,-15.25 z m 120.96875,0 c 9.72627,0 15.375,6.96619 15.375,15.25 0,8.54483 -5.64873,15.125 -15.375,15.125 -9.72627,0 -15.40625,-6.58017 -15.40625,-15.125 0,-8.28381 5.67998,-15.25 15.40625,-15.25 z m -36.71875,62.34375 -30.125,72.84375 11.28125,0 30.15625,-72.84375 -11.3125,0 z m -227.71875,6 0,59.5 23.84375,0 c 10.89397,0 21.5625,-4.0887 21.5625,-16.5625 0,-8.28381 -3.65641,-14.05724 -12.1875,-15.15625 l 0,-0.15625 c 4.82192,-2.4453 6.5625,-6.78482 6.5625,-12.15625 0,-11.36105 -7.09199,-15.46875 -17.65625,-15.46875 l -22.125,0 z m 15.46875,11.84375 1.125,0 c 4.18999,0 9,0.30989 9,5.75 0,5.04172 -4.28118,5.75 -8.375,5.75 l -1.75,0 0,-11.5 z m 56.65625,5.84375 c -13.03704,0 -24.375,7.81865 -24.375,21.625 0,13.80635 11.42038,21.53125 24.375,21.53125 13.00957,0 24.40625,-7.79359 24.40625,-21.53125 0,-13.80635 -11.39668,-21.625 -24.40625,-21.625 z m 55.96875,0 c -5.60497,0 -9.65797,1.64064 -12.96875,6.53125 l -0.15625,0 0,-5.1875 -14.375,0 0,40.46875 14.375,0 0,-20.96875 c 0,-5.05546 1.64776,-9.40625 7.5,-9.40625 7.10237,0 6.5,6.78223 6.5,10.65625 l 0,19.71875 14.34375,0 0,-25.03125 c 0,-9.93233 -4.32478,-16.78125 -15.21875,-16.78125 z m 49.78125,0 c -5.60497,0 -9.62672,1.64064 -12.9375,6.53125 l -0.1875,0 0,-5.1875 -14.34375,0 0,40.46875 14.34375,0 0,-20.96875 c 0,-5.05546 1.66149,-9.40625 7.5,-9.40625 7.10237,0 6.5,6.78223 6.5,10.65625 l 0,19.71875 14.34375,0 0,-25.03125 c 0,-9.93233 -4.32478,-16.78125 -15.21875,-16.78125 z m -105.75,12.4375 c 5.83851,0 9.25,4.21447 9.25,9.1875 0,5.12415 -3.41149,9.0625 -9.25,9.0625 -5.83851,0 -9.21875,-3.93835 -9.21875,-9.0625 0,-4.97303 3.38024,-9.1875 9.21875,-9.1875 z m -53.0625,4.71875 c 4.85356,-0.0388 10.71875,0.2133 10.71875,6.5 0,6.55287 -7.75537,6.3125 -12.34375,6.3125 l -1.96875,0 0,-12.78125 1.59375,0 c 0.63193,0 1.30663,-0.0257 2,-0.0312 z m -51.75,38.09375 0,65.5 14.375,0 0,-20.75 c 0,-4.73949 1.82634,-9.65625 7.5,-9.65625 5.76982,0 6.46875,4.91676 6.46875,9.65625 l 0,20.75 14.34375,0 0,-24.78125 c 0,-10.26204 -4.95671,-17.0625 -15.21875,-17.0625 -5.6187,0 -9.61299,2.04522 -12.9375,6.46875 l -0.15625,0 0,-30.125 -14.375,0 z m 102.75,1.40625 c -4.40979,0 -8.0625,3.63897 -8.0625,8.0625 0,4.40979 3.65271,8.03125 8.0625,8.03125 4.42353,0 8.0625,-3.62146 8.0625,-8.03125 0,-4.42353 -3.63897,-8.0625 -8.0625,-8.0625 z m 146.03125,0 c -4.42353,0 -8.03125,3.63897 -8.03125,8.0625 0,4.40979 3.60772,8.03125 8.03125,8.03125 4.42353,0 8.0625,-3.62146 8.0625,-8.03125 0,-4.42353 -3.63897,-8.0625 -8.0625,-8.0625 z m -32.90625,3 c -11.91055,0 -20.5,7.89334 -20.5,19.96875 0,11.51216 6.38122,14.05123 16.09375,16.8125 3.31078,0.93416 9.40625,2.45389 9.40625,6.78125 0,4.18999 -3.87326,6 -7.5,6 -5.289,0 -9.88972,-2.74931 -13.75,-6.15625 l -6.625,12.46875 c 6.08579,4.24494 13.40549,6.78125 20.90625,6.78125 5.98962,0 12.24918,-1.6373 16.90625,-5.59375 4.73949,-4.02514 6.15625,-10.0928 6.15625,-16 0,-9.64384 -6.40369,-13.83595 -14.6875,-16.28125 l -3.96875,-1.1875 c -2.67884,-0.86547 -6.84375,-2.21187 -6.84375,-5.6875 0,-3.32451 3.7813,-4.96875 6.625,-4.96875 3.7916,0 7.4063,1.57462 10.25,3.9375 l 6.1875,-11.96875 C 452.7486,550.8447 445.39845,548.947 439.39509,548.947 z m -266.84375,1.59375 0,59.5 15.46875,0 0,-22.90625 0.15625,0 14.59375,22.90625 19.25,0 -18.6875,-24.40625 c 8.44866,-1.49741 13,-8.59738 13,-16.8125 0,-12.70734 -8.89681,-18.28125 -20.65625,-18.28125 l -23.125,0 z m 15.46875,11.8125 1.5,0 c 5.05546,0 10.71875,0.96706 10.71875,7.4375 0,6.47044 -5.66329,7.40625 -10.71875,7.40625 l -1.5,0 0,-14.84375 z m 104.71875,5.84375 c -13.18816,0 -22.40625,8.12088 -22.40625,21.625 0,13.9712 10.0158,21.5625 23.4375,21.5625 9.23171,0 18.29956,-4.35857 20.59375,-13.90625 l -13.8125,0 c -1.57983,2.67884 -3.79776,3.71875 -6.875,3.71875 -5.92093,0 -9,-3.16149 -9,-9 l 30.25,0 0,-1.5 c 0,-13.80635 -8.14761,-22.5 -22.1875,-22.5 z m 75.25,0 c -5.60497,0 -9.62672,1.65815 -12.9375,6.5625 l -0.15625,0 0,-5.21875 -14.34375,0 0,40.5 14.34375,0 0,-21 c 0,-5.05546 1.66149,-9.40625 7.5,-9.40625 7.10237,0 6.46875,6.78223 6.46875,10.65625 l 0,19.75 14.375,0 0,-25.03125 c 0,-9.93233 -4.35603,-16.8125 -15.25,-16.8125 z m 138,0 c -13.18816,0 -22.40625,8.12088 -22.40625,21.625 0,13.9712 10.0158,21.5625 23.4375,21.5625 9.23171,0 18.29956,-4.35857 20.59375,-13.90625 l -13.78125,0 c -1.57983,2.67884 -3.79776,3.71875 -6.875,3.71875 -5.92093,0 -9,-3.16149 -9,-9 l 30.21875,0 0,-1.5 c 0,-13.80635 -8.14761,-22.5 -22.1875,-22.5 z m 44.34375,0 c -12.39137,0 -20.75,10.09563 -20.75,21.9375 0,11.67701 8.12688,20.6875 19.96875,20.6875 5.35769,0 9.16583,-1.83582 12.875,-5.53125 l 0,1.90625 c 0,6.55287 -1.5157,11.59375 -9.25,11.59375 -1.34629,0 -2.82988,-0.30557 -4.09375,-0.9375 -1.25013,-0.64567 -2.30285,-1.67877 -2.6875,-3.09375 l -16.09375,0 c 1.26387,10.66043 13.71711,15.46875 23.03125,15.46875 14.9191,0 23.4375,-6.95669 23.4375,-24.15625 l 0,-36.53125 -14.34375,0 0,4.28125 -0.15625,0 c -2.85743,-4.03887 -7.19801,-5.625 -11.9375,-5.625 z m -231.25,1.34375 0,40.5 14.375,0 0,-40.5 -14.375,0 z m 146.03125,0 0,40.5 14.375,0 0,-40.5 -14.375,0 z m -171.65625,7.96875 c 3.87402,0 7.41064,2.53223 8.125,6.40625 l -16.65625,0 c 0.86547,-4.18999 4.355,-6.40625 8.53125,-6.40625 z m 213.25,0 c 3.87402,0 7.41064,2.53223 8.125,6.40625 l -16.65625,0 c 0.86547,-4.18999 4.355,-6.40625 8.53125,-6.40625 z m -116.9375,1.25 0,11.84375 22.5625,0 0,-11.84375 -22.5625,0 z m 163.875,1.59375 c 5.85224,0 9.25,4.18322 9.25,9.15625 0,5.12415 -3.39776,9.0625 -9.25,9.0625 -5.82477,0 -9.21875,-3.93835 -9.21875,-9.0625 0,-4.97303 3.39398,-9.15625 9.21875,-9.15625 z"
       id="path3177-3"
       style="font-size:medium;font-style:normal;font-variant:normal;font-weight:normal;font-stretch:normal;text-indent:0;text-align:start;text-decoration:none;line-height:normal;letter-spacing:normal;word-spacing:normal;text-transform:none;direction:ltr;block-progression:tb;writing-mode:lr-tb;text-anchor:start;baseline-shift:baseline;color:#000000;fill:#231f20;fill-opacity:1;stroke:none;stroke-width:0.191;marker:none;visibility:visible;display:inline;overflow:visible;enable-background:accumulate;font-family:Sans;-inkscape-font-specification:Sans" />
  </g>
</svg>
