<?xml version="1.0" encoding="UTF-8"?>
<!DOCTYPE svg PUBLIC "-//W3C//DTD SVG 1.1//EN" "http://www.w3.org/Graphics/SVG/1.1/DTD/svg11.dtd">
<svg xmlns="http://www.w3.org/2000/svg" version="1.1" width="290px" height="120px" style="shape-rendering:geometricPrecision; text-rendering:geometricPrecision; image-rendering:optimizeQuality; fill-rule:evenodd; clip-rule:evenodd" xmlns:xlink="http://www.w3.org/1999/xlink">
<g><path style="opacity:0.973" fill="#fd230a" d="M 262.5,-0.5 C 265.5,-0.5 268.5,-0.5 271.5,-0.5C 270.227,1.71283 269.227,4.04616 268.5,6.5C 266.549,7.71583 265.049,9.3825 264,11.5C 255.635,28.4069 246.135,44.5736 235.5,60C 229.051,62.4313 222.385,63.0979 215.5,62C 214.592,54.8815 211.426,53.7149 206,58.5C 205.912,64.6098 205.245,70.6098 204,76.5C 201.656,78.7744 198.822,79.9411 195.5,80C 190.5,80.6667 185.5,80.6667 180.5,80C 176.307,76.469 172.807,72.3023 170,67.5C 169.329,66.7476 168.496,66.4142 167.5,66.5C 167.167,65.8333 166.833,65.1667 166.5,64.5C 157.16,49.1525 143.493,40.3192 125.5,38C 118.844,37.2888 112.178,36.7888 105.5,36.5C 103.833,36.5 102.167,36.5 100.5,36.5C 100.5,34.1667 100.5,31.8333 100.5,29.5C 102.167,29.5 103.833,29.5 105.5,29.5C 125.258,29.1084 144.591,31.9418 163.5,38C 169.014,40.5892 174.347,43.4225 179.5,46.5C 182.297,48.795 184.964,51.295 187.5,54C 188.167,54.6667 188.833,54.6667 189.5,54C 194.635,46.235 199.135,38.0684 203,29.5C 209.995,27.0008 217.162,26.3341 224.5,27.5C 225.972,30.7174 227.138,34.0507 228,37.5C 240.216,25.3369 251.716,12.6703 262.5,-0.5 Z"/></g>
<g><path style="opacity:0.913" fill="#42a94a" d="M 55.5,30.5 C 42.503,30.9284 29.503,31.2617 16.5,31.5C 16.3336,23.4931 16.5003,15.4931 17,7.5C 25.0876,6.35175 33.2543,6.18508 41.5,7C 46.304,14.7784 50.9706,22.6117 55.5,30.5 Z"/></g>
<g><path style="opacity:0.966" fill="#42a94a" d="M 100.5,29.5 C 100.5,31.8333 100.5,34.1667 100.5,36.5C 100.5,63.5 100.5,90.5 100.5,117.5C 91.1429,117.832 81.8096,117.498 72.5,116.5C 65.4713,106.637 58.6379,96.6371 52,86.5C 51.5002,96.828 51.3335,107.161 51.5,117.5C 39.8333,117.5 28.1667,117.5 16.5,117.5C 16.5,90.1667 16.5,62.8333 16.5,35.5C 30.8333,35.5 45.1667,35.5 59.5,35.5C 63.3898,42.9411 67.5564,50.2745 72,57.5C 72.4996,50.5079 72.6663,43.5079 72.5,36.5C 73.7563,34.059 73.7563,31.7257 72.5,29.5C 72.1858,21.9129 72.5192,14.4129 73.5,7C 82.4938,6.50023 91.4938,6.33356 100.5,6.5C 100.5,14.1667 100.5,21.8333 100.5,29.5 Z M 59.5,35.5 C 63.8982,35.2941 68.2315,35.6274 72.5,36.5C 72.6663,43.5079 72.4996,50.5079 72,57.5C 67.5564,50.2745 63.3898,42.9411 59.5,35.5 Z"/></g>
<g><path style="opacity:0.956" fill="#43a94a" d="M 179.5,46.5 C 174.347,43.4225 169.014,40.5892 163.5,38C 144.591,31.9418 125.258,29.1084 105.5,29.5C 105.186,21.9129 105.519,14.4129 106.5,7C 123.579,5.97356 140.579,6.64022 157.5,9C 176.26,14.6755 183.593,27.1755 179.5,46.5 Z"/></g>
<g><path style="opacity:0.952" fill="#43a94a" d="M 268.5,6.5 C 275.5,6.5 282.5,6.5 289.5,6.5C 289.5,7.83333 289.5,9.16667 289.5,10.5C 268.026,46.1031 246.526,81.7698 225,117.5C 220.082,110 215.416,102.333 211,94.5C 206.584,102.333 201.918,110 197,117.5C 185.973,100.726 176.14,83.7259 167.5,66.5C 168.496,66.4142 169.329,66.7476 170,67.5C 172.807,72.3023 176.307,76.469 180.5,80C 185.5,80.6667 190.5,80.6667 195.5,80C 198.822,79.9411 201.656,78.7744 204,76.5C 205.245,70.6098 205.912,64.6098 206,58.5C 211.426,53.7149 214.592,54.8815 215.5,62C 222.385,63.0979 229.051,62.4313 235.5,60C 246.135,44.5736 255.635,28.4069 264,11.5C 265.049,9.3825 266.549,7.71583 268.5,6.5 Z"/></g>
<g><path style="opacity:0.88" fill="#f03410" d="M 72.5,29.5 C 73.7563,31.7257 73.7563,34.059 72.5,36.5C 68.2315,35.6274 63.8982,35.2941 59.5,35.5C 45.1667,35.5 30.8333,35.5 16.5,35.5C 10.8333,35.5 5.16667,35.5 -0.5,35.5C -0.5,34.5 -0.5,33.5 -0.5,32.5C 5.16133,32.0932 10.828,31.7599 16.5,31.5C 29.503,31.2617 42.503,30.9284 55.5,30.5C 61.1302,29.7081 66.7969,29.3748 72.5,29.5 Z"/></g>
<g><path style="opacity:0.966" fill="#42a94b" d="M 105.5,36.5 C 112.178,36.7888 118.844,37.2888 125.5,38C 143.493,40.3192 157.16,49.1525 166.5,64.5C 164.277,65.1145 162.611,66.4478 161.5,68.5C 171.167,84.5 180.833,100.5 190.5,116.5C 179.849,117.666 169.182,117.832 158.5,117C 151.667,106.167 144.833,95.3333 138,84.5C 137.5,95.495 137.333,106.495 137.5,117.5C 126.918,117.82 116.418,117.487 106,116.5C 105.5,89.8354 105.333,63.1687 105.5,36.5 Z"/></g>
</svg>
