<svg version="1.1" id="logo" xmlns="http://www.w3.org/2000/svg" xmlns:xlink="http://www.w3.org/1999/xlink" x="0px" y="0px" viewBox="0 0 1781.2 685.5" style="enable-background:new 0 0 1781.2 685.5;" xml:space="preserve">
<style type="text/css">
	.st0{fill:#FFFFFF;}
</style>
<path class="st0" d="M665.7,375.6c-74,0-95.7,74.5-98.8,87c-0.2,0.9,0.5,1.8,1.4,1.8h143.4c0.7,0,1.2-0.5,1.4-1.1
	C725.2,415.5,711,375.6,665.7,375.6z"></path>
<path class="st0" d="M1210.1,383.6c-36.4-18.7-80.9-7.6-111.8,24.1c3.3,25.8-2.6,53.1-7.4,70.3c-5.3,19-10.8,40-20.3,60.5
	c8,19,21.6,34.7,40,44.2c46.7,24,106.8-1.1,134.3-56C1272.4,471.7,1256.8,407.7,1210.1,383.6z"></path>
<path class="st0" d="M1005.8,377.2c-15-0.2-45.1,5.5-67.6,31c-23.7,26.8-32.1,67.4-38.8,94c-6.7,26.7-9.4,51.1,6.7,72.7
	c15.3,20.5,67.9,25.9,101.5-5.9c34-32.3,45.6-97.9,50.3-128.3C1062.6,410.4,1049.2,377.7,1005.8,377.2z"></path>
<polygon class="st0" points="383.2,224.6 368.7,266 397.2,266 "></polygon>
<path class="st0" d="M296.9,225.9c0-8.8-6.5-15-16.3-15h-21.1v30h21.1C290.4,240.9,296.9,234.7,296.9,225.9z"></path>
<path class="st0" d="M499.1,278c4.2-5.1,4.8-13.3,4.8-30.5c0-17.3-0.6-24.4-4.8-29.6c-3.9-4.6-9-7-16.8-7h-16.9V285h16.9
	C490.1,285,495.3,282.6,499.1,278z"></path>
<path class="st0" d="M618.7,286c6.1,0,11.1-2.4,14.4-6.1c4.4-4.8,5.6-10.1,5.6-32c0-21.9-1.3-27.2-5.6-32c-3.2-3.7-8.2-6.1-14.4-6.1
	c-6.1,0-11.3,2.4-14.5,6.1c-4.4,4.8-5.5,10.1-5.5,32c0,21.9,1.1,27.2,5.5,32C607.4,283.6,612.5,286,618.7,286z"></path>
<path class="st0" d="M1565.8,375.6c-74,0-95.7,74.5-98.8,87c-0.2,0.9,0.5,1.8,1.4,1.8h143.4c0.7,0,1.2-0.5,1.4-1.1
	C1625.3,415.5,1611.1,375.6,1565.8,375.6z"></path>
<path class="st0" d="M1751.4,127.8h-223c-2.2,0-4.2-1.1-5.3-2.9c-4.6-7.3-10.2-15.3-16.8-23.8c-14-18.2-26.7-37.5-34.7-52.7
	c-3.5-6.6-4.7-11.8-5.9-16.9c-1.5-6.1-3-12.5-8.2-18.3C1446.3,0.6,1434.2,0,1431.9,0h-40.4c-24.2,0-36.1,17.2-39,31.8
	c0,0.1-0.1,0.3-0.1,0.5l-24.9,95.5H283c-75.6,0-148.1,33.7-204.1,94.9C30.2,275.9,0,345.1,0,403.2v252.5c0,16.4,13.4,29.8,29.8,29.8
	h1471.8c129.3,0,279.7-123.3,279.7-282.3V157.6C1781.2,141.1,1767.8,127.8,1751.4,127.8z M587.5,202.6c8.1-8,18.1-12.5,31.1-12.5
	c13.1,0,22.9,4.5,31,12.5c11.6,11.5,11.5,25.7,11.5,45.4c0,19.7,0.2,33.9-11.5,45.4c-8.1,8-17.9,12.5-31,12.5
	c-13.1,0-23.1-4.5-31.1-12.5c-11.6-11.5-11.3-25.7-11.3-45.4C576.2,228.3,575.9,214.1,587.5,202.6z M538.9,192.4h22.4v113.7h-22.4
	V192.4z M443,191.1h41.4c11.9,0,22.7,3.4,30.3,10.9c12.9,12.8,11.6,28.4,11.6,45.5c0,17.1,1.3,33.7-11.6,46.5
	c-7.6,7.5-18.4,10.9-30.3,10.9H443V191.1z M373.9,191.1h17.6l41.9,113.7H410l-6.8-20.1h-40.8l-6.9,20.1h-23.4L373.9,191.1z
	 M237,191.1h45c23.4,0,37.3,15.8,37.3,34.8c0,16-9.8,25.9-21,29.9l25.6,49h-26l-22.4-45.4h-16.1v45.4H237V191.1z M506.2,432.6
	c-6.7,27.7-46.2,192.7-49.8,192.7h-39.2c-0.9,0-1.6-0.9-1.4-1.8c5.1-18.9,48.4-180.6,49.3-190.9c1-10.9,2.3-56-51.5-56
	c-53.8,0-77.8,40.7-83.8,56c-5.8,14.7-47.4,176.9-51.2,191.6c-0.2,0.6-0.7,1.1-1.4,1.1h-38.1c-1,0-1.6-0.9-1.4-1.8
	c5.2-19,49.7-181.3,49.7-190.9c0-10.2,3.1-56-52.2-56c-57.8,0-81.7,53.4-82.8,55.9c0,0.1,0,0.1-0.1,0.2l-52.2,191.5
	c-0.2,0.6-0.7,1.1-1.4,1.1H61.1c-0.9,0-1.6-0.9-1.4-1.8l74-278.6c0.2-0.6,0.7-1.1,1.4-1.1h37.7c1,0,1.6,0.9,1.4,1.8l-6.6,24.1
	c-0.4,1.4,1.2,2.4,2.3,1.5c10.1-8.7,40.6-31.5,83.9-31.5c54.4,0,69.2,34.7,72.3,44.8c0.3,1.1,1.7,1.4,2.5,0.5
	c7.8-9.3,41.9-45.3,106-45.3C508.3,339.7,512.9,404.9,506.2,432.6z M744.5,495.1H560.1c-0.6,0-1.2,0.4-1.4,1
	c-3.2,10.3-27.8,96.7,55.2,96.7c43.4,0,74.1-25.7,80.1-31.1c0.6-0.5,1.5-0.5,2,0.1l20,22.5c0.5,0.6,0.5,1.5-0.1,2
	c-6.7,6.5-48,43.8-109.8,43.8c-73.3,0-110-44.8-88.9-135c20.9-89.2,78.2-155.4,155.9-155.4c75.8,0,86.5,58.8,84.2,92.9
	c-2,28.4-9.8,55.9-11.5,61.5C745.7,494.7,745.1,495.1,744.5,495.1z M848.1,591.3l-8.4,32.9c-0.2,0.6-0.7,1.1-1.4,1.1h-18.8
	c-9.6,0-39.9,3.7-54.5-18.1c-14.6-21.8-7.4-46.5-7.4-46.5l97.1-385c0.2-0.6,0.7-1.1,1.4-1.1h38.1c0.9,0,1.6,0.9,1.4,1.8
	c-7,27.3-91.9,359-97.5,384.3c-5.8,26.3,16.9,28.8,23.7,28.8h24.9C847.6,589.5,848.3,590.4,848.1,591.3z M1271.8,625.3H1238
	c-2.3,0-3.9-2.2-3.4-4.4l10.1-38c-39.6,42.3-97.5,58.2-146.3,35.1c-20.8-9.9-37.4-25.6-49-45c-7.8,9.8-17.2,19.1-28.7,27.6
	c-38.5,28.6-94.3,37.4-129.7,17.2c-35.3-20.2-46.7-56.5-33.2-112.6c13.5-56,28.2-97.3,62-127.6c23.2-20.9,59.8-38.6,95.4-37.2
	c38.2,1.5,59.9,15.2,71.7,33.8c38.7-33.6,90.4-44.6,134.5-23.7c32.5,15.4,54.5,45.1,63.7,80.3l103-387.8c0.4-1.5,1.8-2.6,3.4-2.6
	h34.8c1.5,0,2.9,1,3.3,2.5c2.1,7.2,9,28.6,23.5,50.8c17.5,26.6,39.6,48.3,53.5,80.7c13,30.2,13.4,43.3,1.4,79.4
	c-2.5,7.6-5.9,14.7-9.2,20.7c-1.9,3.5-7.3,1.5-6.4-2.4c5.2-23.9,8.4-63.1-14.6-93.1c-25.2-33-56.1-49.4-66.7-54.4
	c-2-0.9-4.3,0.2-4.8,2.3l-131.3,495.6C1274.7,624.2,1273.3,625.3,1271.8,625.3z M1463.4,219.4l-12.2,43.8c-0.2,0.6-0.7,1.1-1.4,1.1
	h-42.7c-0.9,0-1.6-0.9-1.4-1.8l11.6-43.8c0.2-0.6,0.7-1.1,1.4-1.1h43.3C1463,217.6,1463.6,218.5,1463.4,219.4z M1351.8,625.3h-38
	c-0.9,0-1.6-0.9-1.4-1.8l73.8-278.6c0.2-0.6,0.7-1.1,1.4-1.1h38c0.9,0,1.6,0.9,1.4,1.8l-73.8,278.6
	C1353.1,624.8,1352.5,625.3,1351.8,625.3z M1657.4,432.6c-2,28.4-9.8,55.9-11.5,61.5c-0.2,0.6-0.7,1-1.4,1h-184.4
	c-0.6,0-1.2,0.4-1.4,1c-3.2,10.3-27.8,96.7,55.2,96.7c43.4,0,74.1-25.7,80.1-31.1c0.6-0.5,1.5-0.5,2,0.1l20,22.5
	c0.5,0.6,0.5,1.5-0.1,2c-6.7,6.5-48,43.8-109.8,43.8c-73.3,0-110-44.8-88.9-135c20.9-89.2,78.2-155.4,155.9-155.4
	C1649,339.7,1659.8,398.4,1657.4,432.6z"></path>
</svg>
