<?xml version="1.0" encoding="UTF-8"?>
<!DOCTYPE svg PUBLIC "-//W3C//DTD SVG 1.1//EN" "http://www.w3.org/Graphics/SVG/1.1/DTD/svg11.dtd">
<svg xmlns="http://www.w3.org/2000/svg" version="1.1" width="512px" height="154px" style="shape-rendering:geometricPrecision; text-rendering:geometricPrecision; image-rendering:optimizeQuality; fill-rule:evenodd; clip-rule:evenodd" xmlns:xlink="http://www.w3.org/1999/xlink">
<g><path fill="#120a9b" d="M -0.5,-0.5 C 51.1667,-0.5 102.833,-0.5 154.5,-0.5C 154.5,50.8333 154.5,102.167 154.5,153.5C 102.833,153.5 51.1667,153.5 -0.5,153.5C -0.5,102.167 -0.5,50.8333 -0.5,-0.5 Z"/></g>
<g><path fill="#ffffff" d="M 230.5,40.5 C 233.833,40.5 237.167,40.5 240.5,40.5C 240.5,44.1667 240.5,47.8333 240.5,51.5C 237.167,51.5 233.833,51.5 230.5,51.5C 230.5,47.8333 230.5,44.1667 230.5,40.5 Z"/></g>
<g><path fill="#ffffff" d="M 245.5,40.5 C 248.833,40.5 252.167,40.5 255.5,40.5C 255.5,44.1667 255.5,47.8333 255.5,51.5C 252.167,51.5 248.833,51.5 245.5,51.5C 245.5,47.8333 245.5,44.1667 245.5,40.5 Z"/></g>
<g><path fill="#ffffff" d="M 124.5,42.5 C 133.158,41.327 136.992,44.9937 136,53.5C 132.243,59.2095 127.743,59.8762 122.5,55.5C 119.547,50.5999 120.214,46.2666 124.5,42.5 Z"/></g>
<g><path fill="#ffffff" d="M 184.5,43.5 C 189.364,43.0011 193.864,44.0011 198,46.5C 202.066,45.5363 206.233,45.203 210.5,45.5C 210.5,51.8333 210.5,58.1667 210.5,64.5C 205.833,64.5 201.167,64.5 196.5,64.5C 195.891,57.701 192.725,56.0343 187,59.5C 186.333,61.1667 186.333,62.8333 187,64.5C 192.608,67.708 198.441,70.5413 204.5,73C 212.876,80.3957 214.71,89.229 210,99.5C 203.327,109.112 194.493,111.779 183.5,107.5C 178.9,108.443 174.233,108.777 169.5,108.5C 169.5,101.167 169.5,93.8333 169.5,86.5C 174.5,86.5 179.5,86.5 184.5,86.5C 184.769,94.9992 188.269,96.9992 195,92.5C 195.667,90.8333 195.667,89.1667 195,87.5C 189.064,83.9601 182.897,80.7935 176.5,78C 169.863,72.2894 167.696,65.1228 170,56.5C 172.946,49.9616 177.779,45.6282 184.5,43.5 Z"/></g>
<g><path fill="#ffffff" d="M 338.5,44.5 C 343.5,44.5 348.5,44.5 353.5,44.5C 353.5,49.5 353.5,54.5 353.5,59.5C 355.5,59.5 357.5,59.5 359.5,59.5C 359.5,63.8333 359.5,68.1667 359.5,72.5C 357.5,72.5 355.5,72.5 353.5,72.5C 353.5,79.8333 353.5,87.1667 353.5,94.5C 355.167,94.5 356.833,94.5 358.5,94.5C 358.5,99.1667 358.5,103.833 358.5,108.5C 351.833,108.5 345.167,108.5 338.5,108.5C 338.5,96.5 338.5,84.5 338.5,72.5C 336.5,72.5 334.5,72.5 332.5,72.5C 332.5,68.1667 332.5,63.8333 332.5,59.5C 334.5,59.5 336.5,59.5 338.5,59.5C 338.5,54.5 338.5,49.5 338.5,44.5 Z"/></g>
<g><path fill="#ffffff" d="M 370.5,44.5 C 375.5,44.5 380.5,44.5 385.5,44.5C 385.5,48.8333 385.5,53.1667 385.5,57.5C 380.5,57.5 375.5,57.5 370.5,57.5C 370.5,53.1667 370.5,48.8333 370.5,44.5 Z"/></g>
<g><path fill="#ffffff" d="M 511.5,94.5 C 511.5,99.1667 511.5,103.833 511.5,108.5C 502.833,108.5 494.167,108.5 485.5,108.5C 485.5,103.833 485.5,99.1667 485.5,94.5C 487.5,94.5 489.5,94.5 491.5,94.5C 491.5,82.5 491.5,70.5 491.5,58.5C 489.5,58.5 487.5,58.5 485.5,58.5C 485.5,53.8333 485.5,49.1667 485.5,44.5C 492.167,44.5 498.833,44.5 505.5,44.5C 505.5,61.1667 505.5,77.8333 505.5,94.5C 507.5,94.5 509.5,94.5 511.5,94.5 Z"/></g>
<g><path fill="#ffffff" d="M 305.5,45.5 C 312.167,45.5 318.833,45.5 325.5,45.5C 325.5,61.8333 325.5,78.1667 325.5,94.5C 327.167,94.5 328.833,94.5 330.5,94.5C 330.5,99.1667 330.5,103.833 330.5,108.5C 323.833,108.5 317.167,108.5 310.5,108.5C 310.657,107.127 310.49,105.793 310,104.5C 301.071,110.783 291.905,110.949 282.5,105C 271.988,94.7595 269.822,82.9261 276,69.5C 285.895,57.3127 297.561,55.3127 311,63.5C 311.494,61.8659 311.66,60.1992 311.5,58.5C 309.5,58.5 307.5,58.5 305.5,58.5C 305.5,54.1667 305.5,49.8333 305.5,45.5 Z M 295.5,72.5 C 307.658,72.1535 312.158,77.8202 309,89.5C 304.568,95.6432 299.068,96.8098 292.5,93C 286.432,85.03 287.432,78.1967 295.5,72.5 Z"/></g>
<g><path fill="#ffffff" d="M 17.5,46.5 C 27.5056,46.3335 37.5056,46.5002 47.5,47C 62.0484,52.6814 65.5484,62.5148 58,76.5C 55.3741,79.2308 52.2074,81.0642 48.5,82C 54.5925,90.1819 60.9259,98.1819 67.5,106C 60.8333,106.667 54.1667,106.667 47.5,106C 43,98.8333 38.5,91.6667 34,84.5C 33.5003,91.8258 33.3337,99.1591 33.5,106.5C 28.1667,106.5 22.8333,106.5 17.5,106.5C 17.5,86.5 17.5,66.5 17.5,46.5 Z"/></g>
<g><path fill="#ffffff" d="M 453.5,57.5 C 468.163,57.0187 477.663,63.6854 482,77.5C 483.521,99.9793 473.021,110.479 450.5,109C 434.694,103.905 428.194,93.0717 431,76.5C 432.922,70.4748 436.422,65.6415 441.5,62C 445.432,59.9716 449.432,58.4716 453.5,57.5 Z M 452.5,72.5 C 461.172,71.1733 466.172,74.84 467.5,83.5C 466.613,90.0531 462.947,94.0531 456.5,95.5C 446.595,92.277 443.762,85.9437 448,76.5C 449.397,74.9297 450.897,73.5964 452.5,72.5 Z"/></g>
<g><path fill="#120a9b" d="M 33.5,58.5 C 43.6336,57.767 46.9669,61.9337 43.5,71C 40.3924,72.7585 37.059,73.5919 33.5,73.5C 33.5,68.5 33.5,63.5 33.5,58.5 Z"/></g>
<g><path fill="#ffffff" d="M 423.5,58.5 C 425.167,58.5 426.833,58.5 428.5,58.5C 428.827,63.2137 428.493,67.8804 427.5,72.5C 423.237,72.8754 420.071,74.8754 418,78.5C 416.661,83.7364 416.161,89.0698 416.5,94.5C 418.5,94.5 420.5,94.5 422.5,94.5C 422.5,99.1667 422.5,103.833 422.5,108.5C 413.5,108.5 404.5,108.5 395.5,108.5C 395.5,103.833 395.5,99.1667 395.5,94.5C 397.5,94.5 399.5,94.5 401.5,94.5C 401.5,87.1667 401.5,79.8333 401.5,72.5C 399.833,72.5 398.167,72.5 396.5,72.5C 396.5,68.1667 396.5,63.8333 396.5,59.5C 402.833,59.5 409.167,59.5 415.5,59.5C 415.34,61.1992 415.506,62.8659 416,64.5C 418.134,61.8474 420.634,59.8474 423.5,58.5 Z"/></g>
<g><path fill="#ffffff" d="M 214.5,59.5 C 221.5,59.5 228.5,59.5 235.5,59.5C 235.334,69.8387 235.5,80.172 236,90.5C 238.797,95.8609 242.797,96.8609 248,93.5C 248.667,92.1667 249.333,90.8333 250,89.5C 250.499,83.8431 250.666,78.1764 250.5,72.5C 248.5,72.5 246.5,72.5 244.5,72.5C 244.5,68.1667 244.5,63.8333 244.5,59.5C 251.5,59.5 258.5,59.5 265.5,59.5C 265.5,71.1667 265.5,82.8333 265.5,94.5C 267.5,94.5 269.5,94.5 271.5,94.5C 271.5,99.1667 271.5,103.833 271.5,108.5C 264.833,108.5 258.167,108.5 251.5,108.5C 251.66,106.801 251.494,105.134 251,103.5C 242,111.5 233,111.5 224,103.5C 222.725,101.283 221.725,98.9494 221,96.5C 220.5,88.5069 220.334,80.5069 220.5,72.5C 218.5,72.5 216.5,72.5 214.5,72.5C 214.5,68.1667 214.5,63.8333 214.5,59.5 Z"/></g>
<g><path fill="#ffffff" d="M 364.5,59.5 C 371.5,59.5 378.5,59.5 385.5,59.5C 385.5,71.1667 385.5,82.8333 385.5,94.5C 387.5,94.5 389.5,94.5 391.5,94.5C 391.5,99.1667 391.5,103.833 391.5,108.5C 382.5,108.5 373.5,108.5 364.5,108.5C 364.5,103.833 364.5,99.1667 364.5,94.5C 366.5,94.5 368.5,94.5 370.5,94.5C 370.5,87.1667 370.5,79.8333 370.5,72.5C 368.5,72.5 366.5,72.5 364.5,72.5C 364.5,68.1667 364.5,63.8333 364.5,59.5 Z"/></g>
<g><path fill="#ffffff" d="M 79.5,64.5 C 84.248,64.2748 88.9147,64.7748 93.5,66C 95.286,66.7845 96.786,67.9512 98,69.5C 98.49,68.2068 98.6567,66.8734 98.5,65.5C 103.167,65.5 107.833,65.5 112.5,65.5C 112.5,79.1667 112.5,92.8333 112.5,106.5C 107.833,106.5 103.167,106.5 98.5,106.5C 98.6567,105.127 98.49,103.793 98,102.5C 89.9547,109.816 81.4547,110.316 72.5,104C 61.5348,91.6392 61.8682,79.6392 73.5,68C 75.4319,66.5415 77.4319,65.3748 79.5,64.5 Z"/></g>
<g><path fill="#ffffff" d="M 121.5,65.5 C 126.167,65.5 130.833,65.5 135.5,65.5C 135.5,79.1667 135.5,92.8333 135.5,106.5C 130.833,106.5 126.167,106.5 121.5,106.5C 121.5,92.8333 121.5,79.1667 121.5,65.5 Z"/></g>
<g><path fill="#120a9b" d="M 84.5,77.5 C 97.6663,76.5202 101.333,81.8535 95.5,93.5C 85.2395,97.7951 80.0728,94.4618 80,83.5C 81.332,81.34 82.832,79.34 84.5,77.5 Z"/></g>
</svg>
