<svg version="1.1" xmlns:dc="http://purl.org/dc/elements/1.1/" xmlns:cc="http://creativecommons.org/ns#" xmlns:rdf="http://www.w3.org/1999/02/22-rdf-syntax-ns#" xmlns:svg="http://www.w3.org/2000/svg"
	 xmlns="http://www.w3.org/2000/svg" xmlns:xlink="http://www.w3.org/1999/xlink" x="0px" y="0px" width="1061px" height="281px"
	 viewBox="0 0 1061 281" enable-background="new 0 0 1061 281" xml:space="preserve">
<path fill="#FFFFFF" d="M693.975,105.691v104.931h45.918V79.469L693.975,105.691 M816.712,110.027
	c-16.722,0-17.448,9.942-17.448,37.351c0,27.155,0.727,37.104,17.448,37.104s17.684-9.948,17.684-37.104
	C834.396,119.97,833.434,110.027,816.712,110.027z M816.712,214.064c-56.438,0-63.724-29.107-63.724-66.687
	c0-37.836,7.285-66.935,63.724-66.935c56.437,0,63.941,29.099,63.941,66.935C880.654,184.957,873.149,214.064,816.712,214.064
	 M414.112,113.207c0,0-3.003,0.213-5.11,0.213c-13.319,0-25.42,1.705-25.42,1.705v92.146c0,0.819,0,3.641,0,3.641h-45.796
	c0,0,0-2.562,0-3.641V99.109c0-8.735,8.469-11.158,23.739-14.069c11.872-2.422,27.854-4.118,43.124-4.118h4.354
	c1.822,0,4.977,0.068,4.977,0.068s0.11,3.451,0.11,5.503v21.101C414.089,109.32,414.112,113.207,414.112,113.207 M616.036,184.481
	c-16.701,0-17.435-9.948-17.435-37.104c0-27.408,0.733-37.351,17.435-37.351c16.71,0,17.687,9.942,17.687,37.351
	C633.723,174.533,632.746,184.481,616.036,184.481z M679.99,147.378c0-37.836-7.496-66.935-63.954-66.935
	c-56.436,0-63.705,29.099-63.705,66.935c0,37.579,7.27,66.687,63.705,66.687c6.866,0,12.985-0.444,18.468-1.252
	c-0.073,8.354-3.459,14.094-11.607,16.968c-5.094,1.94-12.365,2.912-21.813,2.912c-14.536,0-28.335-4.609-32.219-5.566l-3.563-1.002
	l-6.145,25.389c0,0,2.205,1.305,3.886,1.799c6.792,2.897,23.504,8.485,46.282,8.485c41.533,0,64.326-12.021,69.227-49.047
	c0,0.006,0.809-35.938,1.262-56.571C679.942,153.305,679.99,150.358,679.99,147.378 M539.96,170.679
	c-0.739,0.407-1.239,0.691-1.239,0.691s-29.571,14.3-44.11,14.3c-9.452,0-16.28-1.534-21.373-3.476
	c-8.229-2.919-11.596-8.861-11.596-17.358c0,0,0-37.106,0.732-41.962c1.211-8.491,5.325-13.332,18.398-13.332
	c8.735,0,14.302,3.634,16.245,14.79c0.266,1.876,0.521,2.817,0.711,4.807l-11.321,6.419c-8.941,5.33-10.095,6.589-10.12,16.78
	l-0.006,0.05l-0.055,19.657l65.707-35.323c-0.24-10.78-1.292-15.912-3.657-23.689l0.023-0.015c-0.112-0.422-0.258-0.818-0.391-1.212
	c-0.083-0.238-0.151-0.474-0.227-0.711c-2.218-6.479-5.354-11.933-9.667-16.347c-9.448-9.708-24.951-14.304-48.192-14.304
	c-46.525,0-63.238,17.451-63.238,67.905c0,50.204,23.008,65.717,70.24,65.717c20.227,0,43.736-10.539,53.241-15.268L539.96,170.679
	 M705.375,35.279c-6.205,0.08-11.229,5.04-11.4,11.232v42.733l45.53-25.998v-28L705.375,35.279 M1061,39.089
	c0-1.886-1.507-3.412-3.374-3.451v-0.003h-0.04l-0.04-0.002l-0.027,0.002c-1.227,0.003-2.653,0.008-4.027,0.018l-22.925,0.17
	c-2.828,0.023-5.655,2.302-6.269,5.065l-17.631,78.561l-18.218-77.705c-0.813-3.446-4.375-6.256-7.909-6.241l-26.205,0.111h-80.489
	c-2.829,0-5.146,2.316-5.146,5.149v13.746c0,2.833,2.316,5.152,5.146,5.152h23.122c2.829,0,5.144,2.316,5.144,5.149v72.991
	c0,2.831,2.316,5.149,5.148,5.149h24.51c2.827,0,5.147-2.318,5.147-5.149V64.813c0-2.833,2.307-5.149,5.147-5.149h15.444
	l23.259,77.117c1.014,3.39,4.748,6.165,8.281,6.168l10.203,0.001v0.003c0,0,1.333,0,2.974,0c0.294,0,0.667,0,1.067-0.003
	l2.654,0.003v-0.004c1.453-0.006,3.026-0.011,4.4-0.016l16.111-0.063c2.84-0.011,5.787-2.248,6.561-4.973l26.66-93.73
	c0.4-1.416,0.827-2.904,1.187-4.152V40.01C1060.947,39.713,1061,39.41,1061,39.089"/>
<g>
	<polygon fill="#F47116" points="122.613,70.25 183.917,105.375 245.222,70.25 183.917,35.125 	"/>
	<polygon fill="#2F3192" points="122.613,140.5 183.917,175.625 245.222,140.5 183.917,105.375 	"/>
	<polygon fill="#F89A0F" points="122.613,210.749 183.917,245.874 245.222,210.749 183.917,175.625 	"/>
	<polygon fill="#F89A0F" points="122.613,70.25 61.307,35.125 0,70.25 61.307,105.375 	"/>
	<polygon fill="#F9AF0E" points="183.917,35.125 122.613,0 61.307,35.125 122.613,70.25 	"/>
	<polygon fill="#2D3494" points="122.613,140.5 61.307,105.375 0,140.5 61.307,175.625 	"/>
	<polygon fill="#333B9A" points="122.613,140.5 122.613,70.25 61.307,105.375 	"/>
	<polygon fill="#F9AF0E" points="245.222,210.749 245.222,140.5 183.917,175.625 	"/>
	<polygon fill="#5162B7" points="245.222,140.5 245.222,70.25 183.917,105.375 	"/>
	<polygon fill="#F89A0F" points="183.917,35.125 245.222,70.25 245.222,0 	"/>
	<polygon fill="#5D86CD" points="0,140.5 0,210.749 61.307,175.625 	"/>
	<polygon fill="#3F51AB" points="0,70.25 0,140.5 61.307,105.375 	"/>
	<polygon fill="#FDDA04" points="0,0 0,70.25 61.307,35.125 	"/>
	<polygon fill="#2B3693" points="183.917,105.375 122.613,70.25 122.613,140.5 	"/>
	<polygon fill="#242872" points="122.613,210.749 122.613,140.5 61.307,175.625 	"/>
	<polygon fill="#18182E" points="183.917,175.625 122.613,140.5 122.613,210.749 	"/>
	<polygon fill="#F47116" points="61.307,175.625 0,210.749 61.307,245.874 122.613,210.749 	"/>
	<polygon fill="#F9AF0E" points="61.307,245.874 122.613,281 183.917,245.874 122.613,210.749 	"/>
</g>
</svg>
