<svg version="1.0" viewBox="0 0 847 137.2" style="enable-background:new 0 0 847 137.2" xml:space="preserve" xmlns="http://www.w3.org/2000/svg"><path style="opacity:1;fill:#fff" fill="#fff" d="M14.9 23.9c-.5.2 26.9-28.4 74-23.2 50 5.5 73.8 50.5 73.8 50.5l-24.1 36.4s-26.4-29.5-61.3-49.8C58 26.5 30.3 17.3 14.9 23.9z"/><path style="opacity:1;fill:#fff" fill="#fff" d="M9 49.7c-6.2-32.8 28.4-22.8 33.6-21C16.8 37 9.1 50.5 9 49.7zM147.8 112.7c.5-.2-26.9 28.4-74 23.2C23.8 130.5 0 85.4 0 85.4L24.1 49s26.4 29.5 61.3 49.8c19.3 11.2 47 20.5 62.4 13.9z"/><path style="opacity:1;fill:#fff" fill="#fff" d="M153.7 87.2c6.2 32.8-28.4 22.8-33.6 21 25.8-8.2 33.5-21.7 33.6-21zM225.573 51.46l-.7 14.6c-10.6-2.2-16 4.7-16 20.7v23.5h-14.8v-57.5h14c0 1.5-.1 3.3-.3 5.4-.2 2.1-.4 4.1-.8 6.2h.2c1.4-3.8 3.5-6.9 6.5-9.5 3-2.5 6.9-3.7 11.9-3.4zM288.673 110.56h-14.7v-36.8c0-3-.4-5.4-1.5-7.1-1-1.7-2.9-2.5-5.6-2.6-3.8.2-7 2-9.5 5.5s-3.8 7.9-3.9 13.1v27.9h-14.8v-84.5h14.8v24.7c0 1.8-.1 3.8-.2 5.9-.2 2.1-.4 4.1-.8 5.8l.2.1c1.7-3.3 4.1-5.9 7.4-7.8 3.2-1.9 7-2.9 11.5-3 6.4.1 10.9 1.9 13.4 5.4 2.6 3.5 3.8 7.8 3.7 13v40.4zM351.873 77.46c0 2-.1 4.2-.5 6.7h-35.7c-.1 10.7 5.2 16 15.9 16 2.9 0 5.8-.3 8.7-.9 2.9-.6 5.6-1.5 8.1-2.7l1.4 11.5c-3.1 1.2-6.4 2.1-9.9 2.8-3.5.6-7.1.9-10.7.9-9.2 0-16.2-2.3-21.1-7.1-4.9-4.8-7.3-12.2-7.4-22.3 0-5.9 1.1-11.2 3.2-15.7 2.1-4.6 5.1-8.2 9.2-10.8 4-2.6 8.9-4 14.7-4 5.6.1 10.2 1.2 13.7 3.5 3.6 2.3 6.2 5.4 7.9 9.2 1.7 3.8 2.6 8.1 2.5 12.9zm-14.7-3.3c.1-3.6-.8-6.4-2.5-8.4-1.8-2-4.2-3-7.4-3-3.1 0-5.6 1.1-7.6 3.1s-3.2 4.8-3.6 8.3h21.1zM382.073 36.56c-.1 2.5-1 4.7-2.7 6.4-1.7 1.7-3.9 2.6-6.5 2.6-2.6-.1-4.8-.9-6.5-2.6-1.7-1.7-2.6-3.8-2.7-6.4.1-2.5.9-4.6 2.7-6.3 1.7-1.7 3.9-2.6 6.5-2.6 2.6.1 4.8.9 6.5 2.6 1.7 1.7 2.7 3.8 2.7 6.3zm-1.8 74h-14.8v-57.5h14.8v57.5zM446.073 110.56h-14.7v-36.8c0-3-.5-5.4-1.5-7.1-1-1.7-2.9-2.5-5.6-2.6-3.9.2-7 2-9.5 5.5s-3.8 7.9-3.9 13.1v27.9h-14.8v-57.5h14c0 1.4-.1 3.1-.2 5s-.3 3.7-.6 5.2l.1.1c1.8-3.5 4.3-6.3 7.6-8.4 3.3-2.1 7.3-3.2 12-3.2 6.4.1 10.9 1.9 13.4 5.4 2.6 3.5 3.8 7.8 3.7 13v40.4zM546.373 110.56h-14.8v-36.5c.1-3.1-.4-5.5-1.4-7.3-1-1.8-2.8-2.6-5.5-2.7-3.4.1-6.4 1.8-9 5.2-2.6 3.4-4 7.9-4.2 13.7v27.6h-14.6v-36.5c.1-2.9-.4-5.3-1.3-7.1-.9-1.8-2.8-2.8-5.5-2.9-3.5.1-6.6 1.9-9.2 5.4-2.6 3.5-3.9 8-4 13.5v27.6h-14.8v-57.5h14c0 1.4-.1 3-.2 4.9-.1 1.9-.3 3.7-.6 5.4h.2c1.8-3.6 4.3-6.4 7.6-8.4 3.3-2.1 7.1-3.1 11.4-3.1 5 .1 8.8 1.4 11.2 3.7 2.5 2.3 4 5 4.6 7.9 1.3-3 3.6-5.6 6.7-7.9 3.1-2.3 7.2-3.5 12-3.7 5.6 0 9.8 1.6 12.8 4.7 2.9 3.2 4.4 8 4.5 14.5v39.5zM607.273 110.56h-14c0-3.4.2-6.7.6-9.7l-.1-.1c-1.4 3.3-3.8 5.9-7 7.9s-7 3-11.4 3.1c-5.2-.1-9.3-1.4-12.1-4.1-2.8-2.7-4.3-6.4-4.3-11.1 0-4.6 1.5-8.5 4.3-11.6 2.8-3.1 6.7-5.5 11.7-7.1 5-1.6 10.7-2.4 17.3-2.4v-3.1c.1-3-.8-5.3-2.5-6.8s-4.6-2.3-8.7-2.3c-2.7 0-5.6.4-8.6 1.2-3.1.8-5.9 1.9-8.4 3.3l-1.3-12.4c2.9-1.1 6.2-1.9 9.7-2.6 3.5-.7 7.2-1 10.9-1 6.1 0 10.9.8 14.4 2.4 3.5 1.6 5.9 3.9 7.3 6.9 1.4 3 2.1 6.6 2 10.8v24c0 2.4 0 4.8.1 7.4-.1 2.4 0 4.9.1 7.3zm-15.2-24.1v-1.4c-5.2 0-9.1.5-11.9 1.3-2.8.9-4.7 2-5.7 3.4s-1.5 2.9-1.5 4.4c0 1.9.6 3.4 1.8 4.5 1.2 1.1 2.9 1.7 5 1.7 3.7-.1 6.7-1.6 8.9-4.3 2.2-2.8 3.4-5.9 3.4-9.6zM639.773 36.56c-.1 2.5-1 4.7-2.7 6.4-1.7 1.7-3.9 2.6-6.5 2.6-2.6-.1-4.8-.9-6.5-2.6-1.7-1.7-2.6-3.8-2.7-6.4.1-2.5 1-4.6 2.7-6.3 1.7-1.7 3.9-2.6 6.5-2.6 2.6.1 4.8.9 6.5 2.6 1.7 1.7 2.6 3.8 2.7 6.3zm-1.9 74h-14.8v-57.5h14.8v57.5zM703.773 110.56h-14.7v-36.8c0-3-.4-5.4-1.5-7.1-1-1.7-2.9-2.5-5.6-2.6-3.8.2-7 2-9.5 5.5s-3.8 7.9-3.9 13.1v27.9h-14.8v-57.5h14c0 1.4-.1 3.1-.2 5s-.3 3.7-.6 5.2l.1.1c1.7-3.5 4.3-6.3 7.6-8.4 3.3-2.1 7.3-3.2 12-3.2 6.4.1 10.9 1.9 13.4 5.4 2.6 3.5 3.8 7.8 3.7 13v40.4zM771.173 52.96l-2.1 8.6h-20.7l-8.5 34.1c-.6 2.3-.6 3.9 0 4.7.6.8 1.9 1.2 3.8 1.1h8.7c3 0 5.7-.1 7.9-.4 2.2-.3 3.7-.6 4.4-1l-4.6 10.4h-31.4c-4.3 0-7.4-1.3-9.2-3.9-1.8-2.6-2-6.8-.7-12.4l8.2-32.7h-11.1l2.1-8.6h11.1l2.9-11.8 22-2.8-3.6 14.6h20.8z"/><path style="opacity:1;fill:#fff" fill="#fff" d="M801.173 110.56h-21.3l-4.2-18.4c-.9-3.8-1.8-7.9-2.8-12.2-1-4.3-2-8.5-3-12.4-1-3.9-1.9-7.2-2.7-9.9-.8-2.7-1.5-4.2-2-4.7h26.2c-.1.3-.3.9-.5 1.7-.2.8-.3 1.9-.1 3.3.2 1.4.6 3.6 1.2 6.6.7 3 1.6 7.2 2.9 12.7 1.3 5.5 2.9 12.8 5 21.7 9.1-12.8 16.5-23 22.1-30.5 5.6-7.6 8.5-12.1 8.9-13.6.2-.7.2-1.4.2-2h13.1c-1.1.8-2.3 2.1-3.7 3.7-1.4 1.6-3.4 4.2-5.9 7.8l-33.4 46.2z"/></svg>