<?xml version="1.0" encoding="utf-8"?>
<!-- Generator: Adobe Illustrator 20.1.0, SVG Export Plug-In . SVG Version: 6.00 Build 0)  -->
<svg version="1.1" id="Ebene_1" xmlns="http://www.w3.org/2000/svg" xmlns:xlink="http://www.w3.org/1999/xlink" x="0px" y="0px"
	 viewBox="0 0 340 200" style="enable-background:new 0 0 340 200;" xml:space="preserve">
<style type="text/css">
	.st0{fill:#ffffff;}
	.st1{fill:#ffffff;}
	.st2{fill:#ffffff;}
</style>
<g>
	<path class="st0" d="M147.5,113c0,10.4-7.3,20.8-22.9,20.8c-14,0-22.3-9-22.3-20.6c0-11.9,8.7-20.9,22.6-20.9
		C140.9,92.4,147.5,103.4,147.5,113z M119.2,112.7c0,8.2,1.7,12.6,5.8,12.6c3.5,0,4.5-3,4.9-4c0.8-2.2,1-5.4,1-8.1
		c0-1.3,0-6.6-1.6-9.6c-0.5-0.9-1.5-2.7-4.2-2.7C119.4,100.9,119.2,109.9,119.2,112.7z"/>
	<path class="st1" d="M193.2,78.3c-1.8,2.5-6.7,9.3-17.7,9.3c-12.7,0-20.3-8-20.3-19.2c0-11.3,7.8-19.4,19.6-19.4
		c4.9,0,8.6,1.4,11.2,3c8.6,5.4,8.6,15,8.6,19.6h-24.4c0.3,2.1,0.8,4.4,3.4,6.2c1.9,1.4,3.9,1.8,6.1,1.8c4.9,0,7.8-2.9,9.6-4.7
		L193.2,78.3z M180.2,64.2c-0.1-2.2-0.4-7.2-5.2-7.2c-4.4,0-5,4.7-5.4,7.2H180.2z"/>
	<path class="st1" d="M198.4,40.9c0-2.3,2.4-6.1,8.1-6.1c5.7,0,8.1,3.9,8.1,6.1c0,2.3-2.4,6.1-8.1,6.1c-2,0-4.1-0.5-5.8-1.8
		C199.4,44.2,198.4,42.6,198.4,40.9z M199,50.7h15v35.8h-15V50.7z"/>
	<path class="st1" d="M80.7,93.8v38.5h16V90.7C92,91.7,86.6,92.8,80.7,93.8z"/>
	<path class="st0" d="M183.6,109.2l10.3-12.5c-0.3,0-0.5,0-0.7,0.1c-4.8,0.3-9.4,0.3-13.9,0.2l-10,12.8V96.5c-5.7-0.5-11-1.2-16-2
		v37.8h16v-17c2.5,4.7,4.7,8.6,6.7,11.9c1.7,2.7,2.4,3.5,4,5.2h17.2c-1.7-2.1-2.1-2.7-3.5-5.1L183.6,109.2z"/>
	<path class="st1" d="M230.8,95.1c-0.9-0.6-2.9-1.9-6.7-2.6c-6.1,1.1-12.5,2.2-19.4,3.1c-2.6,1.6-4.4,3.6-6,5.3l4.7,4
		c2-2,4.9-4.9,9.8-4.9c1.1,0,3.2,0.1,5.2,1.7c2.7,2.2,2.8,5.4,2.8,7.6c-2.1-0.7-5.1-1.7-9.3-1.7c-8.4,0-15.1,4.7-15.1,13.2
		c0,6.8,4.5,12.6,12.6,12.6c7,0,9.8-3.6,11.8-6.2v5.1h16v-23.2C237.2,104.9,237.1,99.2,230.8,95.1z M221.1,121.6
		c-1.3,1.4-2.7,2.7-5,2.7c-2.6,0-4-2-4-4.1c0-1.9,1.3-4.7,5.5-4.7c1.3,0,2.2,0.2,3.5,0.5V121.6z"/>
	<path class="st1" d="M243.5,89.3v43h16v-44C253.9,88.3,248.6,88.7,243.5,89.3z"/>
	<path class="st1" d="M95.4,83.9V62.1c1.1-0.9,2.6-2,5.8-2c3,0,4.8,1.1,6.9,2.4V49.8c-0.8-0.1-1.4-0.2-2.4-0.2
		c-5,0-8.2,2.5-10.3,6.9v-5.8H80.5v35.8h1.3C86.8,85.7,91.3,84.8,95.4,83.9z"/>
	<path class="st1" d="M146.6,51.9c-1.8-1.5-4.5-2.6-7.8-2.6c-6.8,0-10,4-12,6.4V40.4h-15v40.5c4.5-0.3,9.4,0.2,15,1.3V61.9
		c0.9-1.1,2-2.6,4.5-2.6c4,0,4.1,3.8,4.1,5.9v18.6c0.8,0.2,1.5,0.3,2.3,0.5c3.4,0.7,7,1.5,10.8,2.2h1.8V62.7
		C150.2,59.1,150.2,54.9,146.6,51.9z"/>
	<path class="st1" d="M223.6,85.7c4-0.7,8-1.5,12.1-2.1V61.9c0.9-1,2.2-2.5,4.4-2.5c2.9,0,4,2.3,4,5.3v17.7c4.8-0.5,9.8-0.9,15-0.9
		V61.7c0-2.8,0-5.9-2.5-8.7c-1-1.1-3.7-3.7-9-3.7c-6.9,0-10,3.9-11.9,6.3v-4.9h-14.8v35.4C221.7,86,222.6,85.8,223.6,85.7z"/>
	<g>
		<path class="st2" d="M105.8,164.9l-5.1-21.2h4.4l3.2,14.6l3.9-14.6h5.1l3.7,14.8l3.3-14.8h4.3l-5.1,21.2H119l-4.2-15.8l-4.2,15.8
			H105.8z"/>
		<path class="st2" d="M129.2,157c0-1.3,0.3-2.7,1-3.9c0.7-1.3,1.6-2.2,2.8-2.9s2.6-1,4.1-1c2.3,0,4.2,0.8,5.7,2.3s2.2,3.4,2.2,5.7
			s-0.7,4.2-2.2,5.8c-1.5,1.5-3.4,2.3-5.7,2.3c-1.4,0-2.7-0.3-4-1c-1.3-0.6-2.2-1.6-2.9-2.8C129.6,160.2,129.2,158.7,129.2,157z
			 M133.4,157.2c0,1.5,0.4,2.7,1.1,3.5c0.7,0.8,1.6,1.2,2.7,1.2c1.1,0,1.9-0.4,2.7-1.2c0.7-0.8,1.1-2,1.1-3.5s-0.4-2.7-1.1-3.5
			c-0.7-0.8-1.6-1.2-2.7-1.2c-1.1,0-2,0.4-2.7,1.2S133.4,155.7,133.4,157.2z"/>
		<path class="st2" d="M152.1,164.9H148v-15.3h3.8v2.2c0.6-1,1.2-1.7,1.7-2s1.1-0.5,1.8-0.5c0.9,0,1.8,0.3,2.7,0.8l-1.3,3.5
			c-0.7-0.4-1.3-0.7-1.9-0.7c-0.6,0-1.1,0.2-1.4,0.5c-0.4,0.3-0.7,0.9-0.9,1.7s-0.3,2.5-0.3,5.1v4.7H152.1z"/>
		<path class="st2" d="M159.5,149.5h3.7v2.1c1.3-1.6,2.9-2.4,4.8-2.4c1,0,1.8,0.2,2.6,0.6c0.7,0.4,1.3,1,1.8,1.8
			c0.7-0.8,1.4-1.4,2.2-1.8c0.8-0.4,1.6-0.6,2.5-0.6c1.1,0,2.1,0.2,2.9,0.7c0.8,0.5,1.4,1.1,1.7,2c0.3,0.7,0.4,1.7,0.4,3.2v9.8H178
			v-8.8c0-1.5-0.1-2.5-0.4-2.9c-0.4-0.6-1-0.9-1.7-0.9c-0.6,0-1.1,0.2-1.6,0.5s-0.9,0.9-1.1,1.5c-0.2,0.7-0.3,1.7-0.3,3.2v7.4h-4.1
			v-8.4c0-1.5-0.1-2.5-0.2-2.9s-0.4-0.8-0.7-1s-0.7-0.3-1.2-0.3c-0.6,0-1.2,0.2-1.7,0.5s-0.9,0.8-1.1,1.5c-0.2,0.6-0.3,1.7-0.3,3.2
			v7.5h-4.1L159.5,149.5L159.5,149.5z"/>
		<path class="st2" d="M184.7,160.5l4.1-0.6c0.2,0.8,0.5,1.4,1.1,1.8s1.3,0.6,2.2,0.6c1,0,1.8-0.2,2.4-0.6c0.4-0.3,0.5-0.6,0.5-1.1
			c0-0.3-0.1-0.6-0.3-0.8s-0.7-0.4-1.4-0.5c-3.3-0.7-5.4-1.4-6.2-2c-1.2-0.8-1.8-2-1.8-3.5c0-1.3,0.5-2.4,1.6-3.4
			c1.1-0.9,2.7-1.4,4.9-1.4c2.1,0,3.7,0.3,4.7,1s1.7,1.7,2.1,3l-3.8,0.7c-0.2-0.6-0.5-1.1-0.9-1.4c-0.5-0.3-1.1-0.5-2-0.5
			c-1.1,0-1.8,0.1-2.3,0.4c-0.3,0.2-0.5,0.5-0.5,0.8s0.1,0.5,0.4,0.7c0.4,0.3,1.6,0.7,3.8,1.1c2.2,0.5,3.7,1.1,4.5,1.8
			s1.3,1.7,1.3,3c0,1.4-0.6,2.6-1.8,3.6s-2.9,1.5-5.2,1.5c-2.1,0-3.7-0.4-5-1.3C185.8,163.1,185,161.9,184.7,160.5z"/>
	</g>
</g>
</svg>
