<?xml version="1.0" encoding="iso-8859-1"?>
<svg version="1.1" id="Ebene_1" xmlns="http://www.w3.org/2000/svg" xmlns:xlink="http://www.w3.org/1999/xlink" x="0px" y="0px"
	 viewBox="0 0 698.89 198.276" enable-background="new 0 0 698.89 198.276" xml:space="preserve">
<path style="opacity:1" fill="#FFFFFF" d="M308.078,70.18v22.383h50.123c3.838,0,6.95,3.111,6.95,6.95c0,3.838-3.111,6.95-6.95,6.95h-50.123v28.202
	c0,3.838-3.111,6.95-6.95,6.95s-6.95-3.111-6.95-6.95V68.803c0-6.905,5.617-12.522,12.522-12.522h53.421
	c3.838,0,6.95,3.111,6.95,6.95s-3.111,6.95-6.95,6.95H308.078z M445.075,56.216h-35.478c-5.462,0-9.905,4.444-9.905,9.905v65.69
	c0,5.461,4.443,9.905,9.905,9.905h35.478c23.572,0,42.749-19.178,42.749-42.75S468.648,56.216,445.075,56.216z M445.075,134.146
	h-35.478c-1.288,0-2.336-1.048-2.336-2.336v-65.69c0-1.288,1.048-2.336,2.336-2.336h35.478c19.399,0,35.18,15.782,35.18,35.18
	S464.474,134.146,445.075,134.146z M514.186,63.785h60.002c2.09,0,3.784-1.695,3.784-3.785s-1.695-3.785-3.784-3.785h-60.002
	c-5.416,0-9.823,4.406-9.823,9.823v65.854c0,5.417,4.406,9.823,9.823,9.823h60.002c2.09,0,3.784-1.695,3.784-3.785
	s-1.695-3.785-3.784-3.785h-60.002c-1.242,0-2.254-1.011-2.254-2.253v-28.616l62.256,0c2.09,0,3.784-1.695,3.784-3.785
	c0-2.09-1.695-3.785-3.784-3.785l-62.256,0V66.039C511.932,64.796,512.943,63.785,514.186,63.785z M144.912,80.873
	c0-13.56-11.032-24.592-24.593-24.592H70.643c-6.905,0-12.523,5.617-12.523,12.522v65.861c0,3.838,3.111,6.95,6.95,6.95
	c3.838,0,6.95-3.111,6.95-6.95V70.18h48.301c5.897,0,10.694,4.797,10.694,10.693s-4.797,10.693-10.694,10.693H99.632
	c-4.628,0-8.715,2.951-10.172,7.344c-1.448,4.369,0.044,9.15,3.711,11.921l37.994,29.333c1.264,0.976,2.758,1.449,4.242,1.449
	c2.08,0,4.137-0.93,5.506-2.703c2.345-3.038,1.784-7.402-1.255-9.748l-30.693-23.697h11.355
	C133.88,105.466,144.912,94.433,144.912,80.873z M263.274,56.281c-3.838,0-6.95,3.111-6.95,6.95v59.821l-75.85-64.642
	c-2.94-2.466-6.928-2.99-10.404-1.368c-3.479,1.622-5.639,5.013-5.639,8.851v68.772c0,3.838,3.111,6.95,6.95,6.95
	c3.838,0,6.95-3.111,6.95-6.95v-59.82l75.851,64.642c1.808,1.516,4.012,2.298,6.25,2.298c1.401,0,2.815-0.307,4.154-0.931
	c3.478-1.622,5.638-5.014,5.638-8.851V63.23C270.223,59.392,267.112,56.281,263.274,56.281z M641.719,75.586l-36.096-23.504
	c-1.311-0.854-2.983-0.921-4.355-0.175c-1.374,0.745-2.23,2.182-2.23,3.746v47.008c0,1.563,0.856,3.001,2.23,3.746
	c0.635,0.344,1.333,0.515,2.031,0.515c0.811,0,1.62-0.231,2.325-0.69l36.096-23.504c1.208-0.786,1.936-2.129,1.936-3.57
	S642.927,76.372,641.719,75.586z M375.562,126.41c-4.17,0-7.551,3.381-7.551,7.551c0,4.17,3.381,7.551,7.551,7.551
	s7.551-3.381,7.551-7.551C383.113,129.791,379.733,126.41,375.562,126.41z"/>
</svg>
