<?xml version="1.0" encoding="utf-8"?>
<svg version="1.1" xmlns="http://www.w3.org/2000/svg" xmlns:xlink="http://www.w3.org/1999/xlink" x="0px" y="0px"
	 viewBox="0 0 550.7 221.3" style="enable-background:new 0 0 550.7 221.3;" xml:space="preserve">
<g id="Ebene_2">
	<g>
		<rect x="3.6" y="3.5" fill="#FFE500" width="542.6" height="213.9"/>
		<path fill="#FFE500" d="M542.8,7v206.9H7.1V7H542.8 M549.8,0h-7H7.1h-7v7v206.9v7h7h535.6h7v-7V7V0L549.8,0z"/>
	</g>
</g>
<g id="Ebene_3">
	<rect x="278.2" y="6.5" width="264.6" height="207.4"/>
	<rect x="6.4" y="6.5" width="264.6" height="207.4"/>
	<rect x="283.7" y="11.5" fill="#FFE500" width="253.4" height="197.2"/>
	<g>
		<path d="M372,34v6.3c0.6-0.6,1.2-1.1,1.8-1.4c0.7-0.3,1.4-0.5,2.2-0.5c0.9,0,1.7,0.1,2.4,0.4c0.7,0.3,1.2,0.7,1.5,1.2
			c0.4,0.5,0.6,1,0.6,1.5c0.1,0.5,0.1,1.6,0.1,3.2v9.9c0,1.6-0.1,2.8-0.3,3.6c-0.2,0.8-0.7,1.5-1.5,2c-0.8,0.6-1.7,0.9-2.8,0.9
			c-0.8,0-1.5-0.2-2.2-0.5c-0.7-0.3-1.3-0.9-1.9-1.5l-0.4,1.7h-6.2V34H372z M374,45.1c0-1.1-0.1-1.9-0.2-2.2
			c-0.1-0.3-0.4-0.5-0.9-0.5c-0.4,0-0.7,0.2-0.8,0.5c-0.1,0.3-0.2,1.1-0.2,2.3v9.4c0,1.2,0.1,1.9,0.2,2.3c0.1,0.3,0.4,0.5,0.8,0.5
			c0.4,0,0.7-0.2,0.8-0.5c0.1-0.3,0.2-1.2,0.2-2.5V45.1z"/>
		<path d="M398,50.2h-8.6v4.7c0,1,0.1,1.6,0.2,1.9c0.1,0.3,0.4,0.4,0.8,0.4c0.5,0,0.8-0.2,1-0.6c0.2-0.4,0.3-1.1,0.3-2.2v-2.9h6.3
			v1.6c0,1.4-0.1,2.4-0.3,3.1c-0.2,0.7-0.6,1.5-1.2,2.3c-0.6,0.8-1.4,1.4-2.4,1.9c-1,0.4-2.2,0.6-3.6,0.6c-1.4,0-2.7-0.2-3.7-0.6
			c-1.1-0.4-1.9-1-2.5-1.7c-0.6-0.7-1-1.5-1.2-2.3c-0.2-0.9-0.3-2.1-0.3-3.7v-6.4c0-1.9,0.3-3.4,0.8-4.5c0.5-1.1,1.4-2,2.5-2.5
			c1.2-0.6,2.5-0.9,4.1-0.9c1.9,0,3.4,0.4,4.6,1.1c1.2,0.7,2.1,1.7,2.6,2.8c0.5,1.2,0.7,2.8,0.7,5V50.2z M391.3,46.6V45
			c0-1.1-0.1-1.9-0.2-2.2c-0.1-0.3-0.4-0.5-0.7-0.5c-0.5,0-0.7,0.1-0.9,0.4c-0.1,0.3-0.2,1-0.2,2.3v1.6H391.3z"/>
		<path d="M413.8,45.8h-5.9v-1.2c0-1-0.1-1.7-0.2-1.9c-0.1-0.3-0.4-0.4-0.9-0.4c-0.4,0-0.7,0.1-0.8,0.4c-0.2,0.2-0.3,0.6-0.3,1.1
			c0,0.7,0,1.2,0.1,1.5c0.1,0.3,0.4,0.7,0.8,1c0.5,0.4,1.4,0.9,2.9,1.6c1.9,0.9,3.2,1.8,3.8,2.7c0.6,0.8,0.9,2.1,0.9,3.7
			c0,1.8-0.2,3.1-0.7,4c-0.5,0.9-1.2,1.6-2.3,2.1c-1.1,0.5-2.4,0.7-3.9,0.7c-1.7,0-3.1-0.3-4.4-0.8c-1.2-0.5-2-1.2-2.5-2.1
			c-0.5-0.9-0.7-2.3-0.7-4.1v-1.1h5.9v1.4c0,1.2,0.1,1.9,0.2,2.3c0.1,0.4,0.4,0.5,0.9,0.5c0.5,0,0.8-0.1,1-0.4
			c0.2-0.2,0.3-0.7,0.3-1.5c0-1-0.1-1.7-0.4-2c-0.3-0.3-1.5-1-3.9-2.3c-2-1.1-3.2-2.1-3.6-3c-0.4-0.9-0.6-2-0.6-3.2
			c0-1.8,0.2-3,0.7-3.9c0.5-0.8,1.2-1.5,2.4-1.9c1.1-0.5,2.4-0.7,3.9-0.7c1.5,0,2.7,0.2,3.7,0.6c1,0.4,1.8,0.9,2.3,1.5
			c0.5,0.6,0.9,1.2,1,1.7c0.1,0.5,0.2,1.3,0.2,2.4V45.8z"/>
		<path d="M423.1,35.9v3.5h1.8v3.5h-1.8v11.7c0,1.4,0.1,2.2,0.2,2.4c0.1,0.2,0.8,0.2,1.9,0.2v3.5h-2.7c-1.5,0-2.6-0.1-3.3-0.2
			c-0.7-0.1-1.2-0.4-1.7-0.9c-0.5-0.5-0.8-1-0.9-1.6c-0.1-0.6-0.2-2-0.2-4.2V42.8H415v-3.5h1.4v-3.5H423.1z"/>
		<path d="M441.5,50.2h-8.6v4.7c0,1,0.1,1.6,0.2,1.9c0.1,0.3,0.4,0.4,0.8,0.4c0.5,0,0.8-0.2,1-0.6c0.2-0.4,0.3-1.1,0.3-2.2v-2.9h6.3
			v1.6c0,1.4-0.1,2.4-0.3,3.1c-0.2,0.7-0.6,1.5-1.2,2.3c-0.6,0.8-1.4,1.4-2.4,1.9c-1,0.4-2.2,0.6-3.6,0.6c-1.4,0-2.7-0.2-3.7-0.6
			c-1.1-0.4-1.9-1-2.5-1.7c-0.6-0.7-1-1.5-1.2-2.3c-0.2-0.9-0.3-2.1-0.3-3.7v-6.4c0-1.9,0.3-3.4,0.8-4.5c0.5-1.1,1.4-2,2.5-2.5
			c1.2-0.6,2.5-0.9,4.1-0.9c1.9,0,3.4,0.4,4.6,1.1s2.1,1.7,2.6,2.8c0.5,1.2,0.7,2.8,0.7,5V50.2z M434.8,46.6V45
			c0-1.1-0.1-1.9-0.2-2.2c-0.1-0.3-0.4-0.5-0.7-0.5c-0.5,0-0.7,0.1-0.9,0.4c-0.1,0.3-0.2,1-0.2,2.3v1.6H434.8z"/>
		<path d="M450.3,38.8l-0.3,2.9c1-2.1,2.4-3.2,4.2-3.3v7.7c-1.2,0-2.1,0.2-2.7,0.5c-0.6,0.3-0.9,0.8-1.1,1.4
			c-0.1,0.6-0.2,1.9-0.2,4.1v8.7h-6.7V38.8H450.3z"/>
	</g>
	<g>
		<path d="M335,148.3v-4.4c0-2.3,0.3-4.2,0.8-5.7c0.6-1.5,1.5-2.7,2.8-3.7c1.3-1,2.8-1.7,4.5-2.1v3.5c-1.2,0.7-1.8,1.6-2,2.7h2v9.6
			H335z"/>
		<path d="M375.2,132.5v48.9h-11.1l-6.6-22.2v22.2h-10.6v-48.9h10.6l7.1,22v-22H375.2z"/>
	</g>
	<g>
		<path d="M344.1,73.2h9c6,0,10.1,0.2,12.2,0.7c2.1,0.5,3.9,1.6,5.2,3.5c1.3,1.9,2,4.9,2,9.1c0,3.8-0.5,6.4-1.4,7.7
			c-0.9,1.3-2.8,2.1-5.6,2.4c2.5,0.6,4.2,1.5,5.1,2.5c0.9,1,1.4,2,1.6,2.9c0.2,0.9,0.3,3.3,0.3,7.2v12.9h-11.8v-16.3
			c0-2.6-0.2-4.2-0.6-4.9c-0.4-0.6-1.5-0.9-3.3-0.9v22.1h-12.7V73.2z M356.8,81.5v10.9c1.4,0,2.5-0.2,3-0.6s0.9-1.7,0.9-3.8v-2.7
			c0-1.6-0.3-2.6-0.8-3.1S358.3,81.5,356.8,81.5z"/>
		<path d="M406.5,101.8c0,4.9-0.1,8.4-0.3,10.4c-0.2,2-1,3.9-2.2,5.6c-1.2,1.7-2.9,3-4.9,3.9c-2.1,0.9-4.5,1.4-7.3,1.4
			c-2.6,0-5-0.4-7.1-1.3c-2.1-0.9-3.8-2.1-5-3.9c-1.3-1.7-2-3.6-2.3-5.6c-0.2-2-0.4-5.5-0.4-10.6v-8.4c0-4.9,0.1-8.4,0.3-10.4
			c0.2-2,1-3.9,2.2-5.6c1.2-1.7,2.9-3,4.9-3.9c2.1-0.9,4.5-1.4,7.3-1.4c2.6,0,5,0.4,7.1,1.3c2.1,0.9,3.8,2.1,5,3.9
			c1.3,1.7,2,3.6,2.3,5.6c0.2,2,0.4,5.5,0.4,10.6V101.8z M393.8,85.7c0-2.3-0.1-3.7-0.4-4.4c-0.3-0.6-0.8-1-1.6-1
			c-0.7,0-1.2,0.3-1.5,0.8c-0.4,0.5-0.5,2-0.5,4.6v22.9c0,2.8,0.1,4.6,0.4,5.3c0.2,0.7,0.8,1,1.6,1c0.9,0,1.4-0.4,1.7-1.1
			c0.2-0.8,0.4-2.6,0.4-5.5V85.7z"/>
		<path d="M440.9,94.4h-12.7v-8.5c0-2.5-0.1-4-0.4-4.6c-0.3-0.6-0.9-0.9-1.8-0.9c-1.1,0-1.7,0.4-2,1.1c-0.3,0.7-0.4,2.4-0.4,4.8
			v22.7c0,2.4,0.1,3.9,0.4,4.7c0.3,0.7,0.9,1.1,1.9,1.1c1,0,1.6-0.4,1.9-1.1c0.3-0.7,0.4-2.4,0.4-5.1v-6.2h12.7v1.9
			c0,5.1-0.4,8.7-1.1,10.8c-0.7,2.1-2.3,4-4.7,5.6c-2.4,1.6-5.5,2.4-9.1,2.4c-3.7,0-6.8-0.7-9.2-2c-2.4-1.4-4-3.2-4.8-5.6
			c-0.8-2.4-1.2-6-1.2-10.8V90.4c0-3.5,0.1-6.2,0.4-7.9c0.2-1.8,1-3.5,2.2-5.1c1.2-1.6,2.9-2.9,5-3.9c2.1-0.9,4.6-1.4,7.3-1.4
			c3.7,0,6.8,0.7,9.3,2.2c2.4,1.4,4,3.3,4.8,5.4c0.8,2.2,1.1,5.5,1.1,10.1V94.4z"/>
		<path d="M475.7,73.2l-7.3,22.1l8,26.8h-13.1l-5.2-21v21h-12.7V73.2h12.7v19l5.7-19H475.7z"/>
	</g>
	<g>
		<path d="M389.8,132.3h12.8c3.5,0,6.1,0.3,8,0.8c1.9,0.5,3.3,1.3,4.2,2.4c0.9,1,1.6,2.3,1.9,3.7c0.3,1.5,0.5,3.7,0.5,6.8v4.3
			c0,3.1-0.3,5.4-1,6.8c-0.6,1.4-1.8,2.5-3.5,3.3c-1.7,0.8-4,1.1-6.7,1.1h-3.4v19.7h-12.7V132.3z M402.4,140.7v12.4
			c0.4,0,0.7,0,0.9,0c1.2,0,2-0.3,2.4-0.9c0.4-0.6,0.7-1.8,0.7-3.6v-4c0-1.7-0.3-2.8-0.8-3.3C405.2,140.9,404.1,140.7,402.4,140.7z"
			/>
		<path d="M449.9,160.9c0,4.9-0.1,8.4-0.3,10.4c-0.2,2-1,3.9-2.2,5.6c-1.2,1.7-2.9,3-4.9,3.9c-2.1,0.9-4.5,1.4-7.3,1.4
			c-2.6,0-5-0.4-7.1-1.3c-2.1-0.9-3.8-2.1-5-3.9c-1.3-1.7-2-3.6-2.3-5.6c-0.2-2-0.4-5.5-0.4-10.6v-8.4c0-4.9,0.1-8.4,0.3-10.4
			c0.2-2,1-3.9,2.2-5.6c1.2-1.7,2.9-3,4.9-3.9c2.1-0.9,4.5-1.4,7.3-1.4c2.6,0,5,0.4,7.1,1.3c2.1,0.9,3.8,2.1,5,3.9
			c1.3,1.7,2,3.6,2.3,5.6c0.2,2,0.4,5.5,0.4,10.6V160.9z M437.2,144.9c0-2.3-0.1-3.7-0.4-4.4c-0.3-0.6-0.8-1-1.6-1
			c-0.7,0-1.2,0.3-1.5,0.8c-0.4,0.5-0.5,2-0.5,4.6v22.9c0,2.8,0.1,4.6,0.4,5.3c0.2,0.7,0.8,1,1.6,1c0.9,0,1.4-0.4,1.7-1.1
			c0.2-0.8,0.4-2.6,0.4-5.5V144.9z"/>
		<path d="M454.6,132.3h12.8c3.5,0,6.1,0.3,8,0.8c1.9,0.5,3.3,1.3,4.2,2.4c0.9,1,1.6,2.3,1.9,3.7c0.3,1.5,0.5,3.7,0.5,6.8v4.3
			c0,3.1-0.3,5.4-1,6.8c-0.6,1.4-1.8,2.5-3.5,3.3c-1.7,0.8-4,1.1-6.7,1.1h-3.4v19.7h-12.7V132.3z M467.3,140.7v12.4
			c0.4,0,0.7,0,0.9,0c1.2,0,2-0.3,2.4-0.9c0.4-0.6,0.7-1.8,0.7-3.6v-4c0-1.7-0.3-2.8-0.8-3.3C470,140.9,468.9,140.7,467.3,140.7z"/>
	</g>
	<rect x="66.6" y="62.1" fill="#FFE500" width="143.7" height="97.3"/>
	<path d="M134.9,71.1v79.4H116v-36.7c0,0-11.8-1.6-11.8,6.1v31H74.6v-29.1c0,0-0.9-12.4,18.3-13c0,0-16.3-0.7-16.7-10.2V84.5
		c0,0-1.3-11.7,19.2-13L134.9,71.1z"/>
	<path d="M142.4,71.1v79.4h18.9v-36.7c0,0,11.8-1.6,11.8,6.1v31h29.5v-29.1c0,0,0.9-12.4-18.3-13c0,0,16.3-0.7,16.7-10.2V84.5
		c0,0,1.3-11.7-19.2-13L142.4,71.1z"/>
	<path fill="#FFE500" d="M116.6,83.9v17.3c0,0-11.2,1.5-11.4-4.6v-7.9C105.2,88.7,104.5,82.7,116.6,83.9z"/>
	<path fill="#FFE500" d="M161.4,84.1v17.3c0,0,11.2,1.5,11.4-4.6v-7.9C172.8,88.9,173.4,82.9,161.4,84.1z"/>
	<path fill="#FFE500" d="M67.4,164.7h8.6c5.8,0,9.7,0.2,11.7,0.5c2,0.3,3.7,1.1,5,2.5c1.3,1.3,1.9,3.4,1.9,6.3c0,2.7-0.5,4.4-1.4,5.3
		c-0.9,0.9-2.7,1.5-5.4,1.6c2.4,0.4,4,1,4.9,1.7c0.8,0.7,1.3,1.4,1.6,2c0.2,0.6,0.3,2.3,0.3,5v9H83.3v-11.3c0-1.8-0.2-3-0.6-3.4
		c-0.4-0.4-1.4-0.7-3.1-0.7v15.4H67.4V164.7z M79.6,170.5v7.6c1.4,0,2.3-0.1,2.9-0.4c0.6-0.3,0.8-1.2,0.8-2.7v-1.9
		c0-1.1-0.3-1.8-0.8-2.1C82,170.7,81,170.5,79.6,170.5z"/>
	<path fill="#FFE500" d="M121.6,164.7l7,34.1h-12.5l-0.7-6.1h-4.4l-0.7,6.1H97.8l6.2-34.1H121.6z M115.1,186.6
		c-0.6-3.9-1.2-8.6-1.8-14.3c-1.2,6.5-2,11.3-2.3,14.3H115.1z"/>
	<path fill="#FFE500" d="M131.9,164.7h9.1c5.9,0,9.9,0.2,12,0.6c2.1,0.4,3.7,1,4.7,1.9c1.1,0.9,1.8,1.9,2,3c0.3,1.1,0.4,3.3,0.4,6.5
		v11.9c0,3.1-0.2,5.1-0.6,6.1c-0.4,1-1.1,1.8-2.1,2.4c-1,0.6-2.2,1-3.7,1.2c-1.4,0.2-3.6,0.3-6.6,0.3h-15.4V164.7z M144.1,170.5V193
		c1.8,0,2.9-0.3,3.3-0.8c0.4-0.5,0.6-1.9,0.6-4.2v-13.2c0-1.5-0.1-2.5-0.2-3c-0.1-0.4-0.4-0.8-0.9-1
		C146.3,170.6,145.4,170.5,144.1,170.5z"/>
	<path fill="#FFE500" d="M176.9,164.7v34.1h-12.2v-34.1H176.9z"/>
	<path fill="#FFE500" d="M209.7,184.7c0,3.4-0.1,5.9-0.3,7.3c-0.2,1.4-0.9,2.7-2.1,3.9c-1.2,1.2-2.8,2.1-4.7,2.7c-2,0.6-4.3,0.9-7,0.9
		c-2.5,0-4.8-0.3-6.8-0.9c-2-0.6-3.6-1.5-4.8-2.7c-1.2-1.2-1.9-2.5-2.2-3.9c-0.2-1.4-0.3-3.9-0.3-7.4v-5.8c0-3.4,0.1-5.9,0.3-7.3
		c0.2-1.4,0.9-2.7,2.1-3.9c1.2-1.2,2.8-2.1,4.7-2.7c2-0.6,4.3-0.9,7-0.9c2.5,0,4.8,0.3,6.8,0.9c2,0.6,3.6,1.5,4.8,2.7
		c1.2,1.2,1.9,2.5,2.2,3.9c0.2,1.4,0.3,3.9,0.3,7.4V184.7z M197.5,173.4c0-1.6-0.1-2.6-0.4-3c-0.2-0.4-0.8-0.7-1.5-0.7
		c-0.6,0-1.1,0.2-1.5,0.5c-0.3,0.4-0.5,1.4-0.5,3.2v15.9c0,2,0.1,3.2,0.3,3.7c0.2,0.5,0.8,0.7,1.6,0.7c0.8,0,1.4-0.3,1.6-0.8
		c0.2-0.5,0.4-1.8,0.4-3.8V173.4z"/>
	<g>
		<path fill="#FFE500" d="M67.1,23.7h5.1c3.4,0,5.7,0.2,6.9,0.5c1.2,0.3,2.2,1.1,2.9,2.4c0.8,1.3,1.1,3.4,1.1,6.3
			c0,2.6-0.3,4.4-0.8,5.3c-0.5,0.9-1.6,1.4-3.2,1.6c1.4,0.4,2.4,1,2.9,1.7c0.5,0.7,0.8,1.4,0.9,2c0.1,0.6,0.2,2.3,0.2,5v8.9h-6.7
			V46.1c0-1.8-0.1-2.9-0.3-3.3c-0.2-0.4-0.8-0.6-1.8-0.6v15.1h-7.2V23.7z M74.3,29.5v7.5c0.8,0,1.4-0.1,1.7-0.4
			c0.3-0.3,0.5-1.1,0.5-2.6v-1.8c0-1.1-0.2-1.8-0.5-2.1C75.7,29.6,75.1,29.5,74.3,29.5z"/>
		<path fill="#FFE500" d="M102.3,43.4c0,3.4-0.1,5.8-0.2,7.2c-0.1,1.4-0.5,2.7-1.2,3.9c-0.7,1.2-1.6,2.1-2.8,2.7C97,57.7,95.6,58,94,58
			c-1.5,0-2.8-0.3-4-0.9c-1.2-0.6-2.1-1.5-2.8-2.6c-0.7-1.2-1.1-2.5-1.3-3.8c-0.1-1.4-0.2-3.8-0.2-7.3v-5.7c0-3.4,0.1-5.8,0.2-7.2
			c0.1-1.4,0.5-2.7,1.2-3.8c0.7-1.2,1.6-2.1,2.8-2.7c1.2-0.6,2.5-0.9,4.1-0.9c1.5,0,2.8,0.3,4,0.9c1.2,0.6,2.1,1.5,2.8,2.6
			c0.7,1.2,1.1,2.5,1.3,3.8c0.1,1.4,0.2,3.8,0.2,7.3V43.4z M95.1,32.3c0-1.6-0.1-2.6-0.2-3c-0.1-0.4-0.4-0.7-0.9-0.7
			c-0.4,0-0.7,0.2-0.9,0.5c-0.2,0.4-0.3,1.4-0.3,3.1V48c0,2,0.1,3.2,0.2,3.6c0.1,0.5,0.4,0.7,0.9,0.7c0.5,0,0.8-0.3,0.9-0.8
			c0.1-0.5,0.2-1.8,0.2-3.8V32.3z"/>
		<path fill="#FFE500" d="M121.8,38.4h-7.2v-5.9c0-1.7-0.1-2.8-0.2-3.2c-0.2-0.4-0.5-0.6-1-0.6c-0.6,0-1,0.3-1.1,0.8
			c-0.2,0.5-0.2,1.6-0.2,3.3v15.6c0,1.6,0.1,2.7,0.2,3.2c0.2,0.5,0.5,0.7,1.1,0.7c0.5,0,0.9-0.2,1-0.7c0.2-0.5,0.2-1.7,0.2-3.5v-4.2
			h7.2v1.3c0,3.5-0.2,5.9-0.6,7.4c-0.4,1.5-1.3,2.7-2.7,3.8c-1.4,1.1-3.1,1.6-5.1,1.6c-2.1,0-3.8-0.5-5.2-1.4
			c-1.4-0.9-2.3-2.2-2.7-3.9c-0.4-1.6-0.7-4.1-0.7-7.4v-9.8c0-2.4,0.1-4.2,0.2-5.4c0.1-1.2,0.5-2.4,1.2-3.5c0.7-1.1,1.6-2,2.8-2.6
			c1.2-0.6,2.6-1,4.1-1c2.1,0,3.9,0.5,5.2,1.5c1.4,1,2.3,2.2,2.7,3.7c0.4,1.5,0.6,3.8,0.6,6.9V38.4z"/>
		<path fill="#FFE500" d="M141.4,23.7l-4.1,15.2l4.5,18.4h-7.4l-2.9-14.4v14.4h-7.2V23.7h7.2v13.1l3.2-13.1H141.4z"/>
		<path fill="#FFE500" d="M150.3,23.7v26.9h4.3v6.7h-11.5V23.7H150.3z"/>
		<path fill="#FFE500" d="M169.6,23.7l4.1,33.6h-7.4l-0.4-6h-2.6l-0.4,6h-7.4l3.7-33.6H169.6z M165.8,45.3c-0.4-3.8-0.7-8.5-1.1-14.1
			c-0.7,6.4-1.2,11.1-1.4,14.1H165.8z"/>
		<path fill="#FFE500" d="M191,23.7v33.6h-6.3L181,42v15.3h-6V23.7h6l4,15.1V23.7H191z"/>
		<path fill="#FFE500" d="M193.9,23.7h5.4c3.5,0,5.8,0.2,7,0.6c1.2,0.4,2.2,1,2.8,1.9c0.6,0.9,1,1.9,1.2,3c0.2,1.1,0.2,3.2,0.2,6.4
			v11.8c0,3-0.1,5-0.3,6c-0.2,1-0.6,1.8-1.2,2.4c-0.6,0.6-1.3,1-2.1,1.2c-0.9,0.2-2.1,0.3-3.9,0.3h-9.1V23.7z M201.1,29.5v22.1
			c1,0,1.7-0.3,1.9-0.8c0.2-0.5,0.4-1.9,0.4-4.1v-13c0-1.5,0-2.5-0.1-2.9c-0.1-0.4-0.3-0.7-0.5-0.9
			C202.4,29.6,201.8,29.5,201.1,29.5z"/>
	</g>
	<rect x="73.2" y="144.6" fill="#FFE500" width="132.1" height="3.3"/>
	<rect x="74.4" y="138.2" fill="#FFE500" width="128.6" height="3.3"/>
	<rect x="72.6" y="131.7" fill="#FFE500" width="131.3" height="3.3"/>
</g>
</svg>
