<?xml version="1.0" encoding="UTF-8"?>
<!DOCTYPE svg PUBLIC "-//W3C//DTD SVG 1.1//EN" "http://www.w3.org/Graphics/SVG/1.1/DTD/svg11.dtd">
<svg xmlns="http://www.w3.org/2000/svg" version="1.1" width="320px" height="176px" style="shape-rendering:geometricPrecision; text-rendering:geometricPrecision; image-rendering:optimizeQuality; fill-rule:evenodd; clip-rule:evenodd" xmlns:xlink="http://www.w3.org/1999/xlink">
<g><path style="opacity:0.904" fill="#fcfafb" d="M 117.5,-0.5 C 144.5,-0.5 171.5,-0.5 198.5,-0.5C 238.896,1.90735 279.23,6.24068 319.5,12.5C 319.5,62.5 319.5,112.5 319.5,162.5C 279.89,168.679 240.224,173.012 200.5,175.5C 173.833,175.5 147.167,175.5 120.5,175.5C 80.1128,173.013 39.7795,168.68 -0.5,162.5C -0.5,112.5 -0.5,62.5 -0.5,12.5C 38.7548,6.17593 78.0881,1.84259 117.5,-0.5 Z"/></g>
<g><path style="opacity:1" fill="#e6051f" d="M 315.5,90.5 C 211.5,90.5 107.5,90.5 3.5,90.5C 3.5,65.5 3.5,40.5 3.5,15.5C 107.572,-0.743008 211.572,-0.409674 315.5,16.5C 315.5,41.1667 315.5,65.8333 315.5,90.5 Z"/></g>
<g><path style="opacity:1" fill="#0e4a98" d="M 137.5,22.5 C 138.5,27.8333 139.5,33.1667 140.5,38.5C 146.712,38.4766 152.712,37.8099 158.5,36.5C 159.492,36.3284 160.158,36.6618 160.5,37.5C 156.248,43.5991 151.748,49.5991 147,55.5C 147.338,61.2005 148.171,66.8671 149.5,72.5C 144.251,70.8043 139.084,68.8043 134,66.5C 129.182,69.4832 124.682,72.8165 120.5,76.5C 116.208,79.6198 112.041,82.9531 108,86.5C 109.116,81.3257 110.95,76.3257 113.5,71.5C 116.255,66.398 118.089,61.0647 119,55.5C 114.533,52.0349 110.367,48.2016 106.5,44C 112.791,42.8372 119.125,42.0039 125.5,41.5C 127.826,34.8438 130.16,28.1772 132.5,21.5C 135.509,11.8646 137.175,12.1979 137.5,22.5 Z"/></g>
<g><path style="opacity:1" fill="#f9f8fa" d="M 137.5,22.5 C 147.013,23.4217 154.013,28.0883 158.5,36.5C 152.712,37.8099 146.712,38.4766 140.5,38.5C 139.5,33.1667 138.5,27.8333 137.5,22.5 Z"/></g>
<g><path style="opacity:1" fill="#fef9fa" d="M 187.5,24.5 C 193.577,24.1959 199.577,24.6959 205.5,26C 208.943,27.6179 211.943,29.7846 214.5,32.5C 211.209,35.2894 208.042,38.2894 205,41.5C 196.219,35.1401 188.886,36.4735 183,45.5C 180.921,58.7441 186.421,64.9108 199.5,64C 201.587,63.2078 203.421,62.0412 205,60.5C 207.703,63.538 210.703,66.2046 214,68.5C 214.617,69.4491 214.451,70.2825 213.5,71C 199.347,80.6295 186.181,79.4629 174,67.5C 163.724,48.4952 168.224,34.1618 187.5,24.5 Z"/></g>
<g><path style="opacity:1" fill="#ed5266" d="M 252.5,25.5 C 258.346,24.1834 264.346,24.1834 270.5,25.5C 270.376,26.1067 270.043,26.44 269.5,26.5C 264.025,25.5111 258.358,25.1778 252.5,25.5 Z"/></g>
<g><path style="opacity:1" fill="#fefafa" d="M 51.5,25.5 C 63.1714,25.3335 74.8381,25.5001 86.5,26C 98.5022,31.3396 101.336,39.8396 95,51.5C 93.6487,53.019 92.1487,54.3523 90.5,55.5C 93.4379,62.3137 95.7712,69.3137 97.5,76.5C 92.8333,76.5 88.1667,76.5 83.5,76.5C 81.9766,70.428 80.1432,64.428 78,58.5C 73.9341,57.5363 69.7675,57.203 65.5,57.5C 65.5,63.8333 65.5,70.1667 65.5,76.5C 60.8333,76.5 56.1667,76.5 51.5,76.5C 51.5,59.5 51.5,42.5 51.5,25.5 Z"/></g>
<g><path style="opacity:1" fill="#fefcfd" d="M 234.5,25.5 C 234.17,32.1998 234.503,38.8665 235.5,45.5C 236.107,45.3764 236.44,45.0431 236.5,44.5C 241.833,38.1667 247.167,31.8333 252.5,25.5C 258.358,25.1778 264.025,25.5111 269.5,26.5C 262.033,34.1361 254.7,41.9694 247.5,50C 254.646,58.6475 261.98,67.1475 269.5,75.5C 263.863,76.6632 258.196,76.8299 252.5,76C 247.332,69.3355 241.999,62.8355 236.5,56.5C 236.44,55.9569 236.107,55.6236 235.5,55.5C 234.503,62.4684 234.17,69.4684 234.5,76.5C 230.167,76.5 225.833,76.5 221.5,76.5C 221.5,59.5 221.5,42.5 221.5,25.5C 225.833,25.5 230.167,25.5 234.5,25.5 Z"/></g>
<g><path style="opacity:1" fill="#ef5d6f" d="M 234.5,25.5 C 235.167,31.8333 235.833,38.1667 236.5,44.5C 236.44,45.0431 236.107,45.3764 235.5,45.5C 234.503,38.8665 234.17,32.1998 234.5,25.5 Z"/></g>
<g><path style="opacity:1" fill="#e71426" d="M 65.5,37.5 C 71.8421,37.3338 78.1754,37.5005 84.5,38C 85.9817,40.5918 85.6483,42.9251 83.5,45C 77.5092,45.4995 71.5092,45.6662 65.5,45.5C 65.5,42.8333 65.5,40.1667 65.5,37.5 Z"/></g>
<g><path style="opacity:1" fill="#fbf6f8" d="M 132.5,21.5 C 130.16,28.1772 127.826,34.8438 125.5,41.5C 119.125,42.0039 112.791,42.8372 106.5,44C 110.367,48.2016 114.533,52.0349 119,55.5C 118.089,61.0647 116.255,66.398 113.5,71.5C 100.954,56.5134 101.621,42.0134 115.5,28C 120.531,24.1505 126.197,21.9839 132.5,21.5 Z"/></g>
<g><path style="opacity:1" fill="#ef5c6f" d="M 236.5,56.5 C 235.833,63.1667 235.167,69.8333 234.5,76.5C 234.17,69.4684 234.503,62.4684 235.5,55.5C 236.107,55.6236 236.44,55.9569 236.5,56.5 Z"/></g>
<g><path style="opacity:1" fill="#faf7f9" d="M 160.5,37.5 C 165.529,51.6979 162.529,63.8645 151.5,74C 141.545,80.2671 131.212,81.1004 120.5,76.5C 124.682,72.8165 129.182,69.4832 134,66.5C 139.084,68.8043 144.251,70.8043 149.5,72.5C 148.171,66.8671 147.338,61.2005 147,55.5C 151.748,49.5991 156.248,43.5991 160.5,37.5 Z"/></g>
<g><path style="opacity:1" fill="#124897" d="M 3.5,90.5 C 107.5,90.5 211.5,90.5 315.5,90.5C 315.5,113.167 315.5,135.833 315.5,158.5C 212.214,175.594 108.881,175.76 5.5,159C 3.51659,136.397 2.84993,113.564 3.5,90.5 Z"/></g>
<g><path style="opacity:1" fill="#f9fafc" d="M 31.5,106.5 C 35.8333,106.5 40.1667,106.5 44.5,106.5C 48.4287,118.617 52.762,130.617 57.5,142.5C 54.1667,143.833 50.8333,143.833 47.5,142.5C 46.9264,140.941 46.2598,139.441 45.5,138C 40.1357,137.171 34.8023,137.337 29.5,138.5C 28.6906,140.071 28.3573,141.738 28.5,143.5C 24.8183,143.665 21.1516,143.499 17.5,143C 22.2682,130.861 26.9348,118.694 31.5,106.5 Z"/></g>
<g><path style="opacity:1" fill="#fcfcfd" d="M 73.5,123.5 C 73.44,122.957 73.1067,122.624 72.5,122.5C 71.503,129.468 71.1697,136.468 71.5,143.5C 68.5,143.5 65.5,143.5 62.5,143.5C 62.5,131.167 62.5,118.833 62.5,106.5C 65.5719,106.183 68.5719,106.516 71.5,107.5C 76.4755,114.31 81.6422,120.976 87,127.5C 87.4996,120.508 87.6663,113.508 87.5,106.5C 90.8333,106.5 94.1667,106.5 97.5,106.5C 97.5,118.833 97.5,131.167 97.5,143.5C 94.4816,143.665 91.4816,143.498 88.5,143C 83.2845,136.624 78.2845,130.124 73.5,123.5 Z"/></g>
<g><path style="opacity:1" fill="#fefffe" d="M 137.5,114.5 C 133.167,114.5 128.833,114.5 124.5,114.5C 124.5,124.167 124.5,133.833 124.5,143.5C 121.5,143.5 118.5,143.5 115.5,143.5C 115.5,133.833 115.5,124.167 115.5,114.5C 111.167,114.5 106.833,114.5 102.5,114.5C 102.5,111.833 102.5,109.167 102.5,106.5C 114.167,106.5 125.833,106.5 137.5,106.5C 137.5,109.167 137.5,111.833 137.5,114.5 Z"/></g>
<g><path style="opacity:1" fill="#f7f9fc" d="M 173.5,106.5 C 173.5,109.167 173.5,111.833 173.5,114.5C 166.313,114.175 159.313,114.509 152.5,115.5C 152.5,117.167 152.5,118.833 152.5,120.5C 156.5,120.5 160.5,120.5 164.5,120.5C 164.5,123.5 164.5,126.5 164.5,129.5C 160.5,129.5 156.5,129.5 152.5,129.5C 152.5,131.167 152.5,132.833 152.5,134.5C 159.833,134.5 167.167,134.5 174.5,134.5C 174.5,137.5 174.5,140.5 174.5,143.5C 163.833,143.5 153.167,143.5 142.5,143.5C 142.5,131.167 142.5,118.833 142.5,106.5C 152.833,106.5 163.167,106.5 173.5,106.5 Z"/></g>
<g><path style="opacity:1" fill="#f6f8fb" d="M 180.5,106.5 C 183.518,106.335 186.518,106.502 189.5,107C 195,113.833 200.5,120.667 206,127.5C 206.5,120.508 206.666,113.508 206.5,106.5C 209.833,106.5 213.167,106.5 216.5,106.5C 216.5,118.833 216.5,131.167 216.5,143.5C 213.482,143.665 210.482,143.498 207.5,143C 202,136.167 196.5,129.333 191,122.5C 190.5,129.492 190.334,136.492 190.5,143.5C 187.167,143.5 183.833,143.5 180.5,143.5C 180.5,131.167 180.5,118.833 180.5,106.5 Z"/></g>
<g><path style="opacity:1" fill="#f6f8fb" d="M 223.5,106.5 C 226.518,106.335 229.518,106.502 232.5,107C 238,113.833 243.5,120.667 249,127.5C 249.5,120.508 249.666,113.508 249.5,106.5C 252.833,106.5 256.167,106.5 259.5,106.5C 259.5,118.833 259.5,131.167 259.5,143.5C 256.482,143.665 253.482,143.498 250.5,143C 245,136.167 239.5,129.333 234,122.5C 233.5,129.492 233.334,136.492 233.5,143.5C 230.167,143.5 226.833,143.5 223.5,143.5C 223.5,131.167 223.5,118.833 223.5,106.5 Z"/></g>
<g><path style="opacity:1" fill="#fafbfd" d="M 266.5,106.5 C 276.833,106.5 287.167,106.5 297.5,106.5C 297.5,109.5 297.5,112.5 297.5,115.5C 290.5,115.5 283.5,115.5 276.5,115.5C 276.5,117.167 276.5,118.833 276.5,120.5C 280.5,120.5 284.5,120.5 288.5,120.5C 288.5,123.5 288.5,126.5 288.5,129.5C 284.5,129.5 280.5,129.5 276.5,129.5C 276.5,131.167 276.5,132.833 276.5,134.5C 283.5,134.5 290.5,134.5 297.5,134.5C 297.5,137.5 297.5,140.5 297.5,143.5C 287.167,143.5 276.833,143.5 266.5,143.5C 266.5,131.167 266.5,118.833 266.5,106.5 Z"/></g>
<g><path style="opacity:1" fill="#acc4dd" d="M 173.5,106.5 C 174.477,109.287 174.81,112.287 174.5,115.5C 167.167,115.5 159.833,115.5 152.5,115.5C 159.313,114.509 166.313,114.175 173.5,114.5C 173.5,111.833 173.5,109.167 173.5,106.5 Z"/></g>
<g><path style="opacity:1" fill="#779dc8" d="M 102.5,114.5 C 106.833,114.5 111.167,114.5 115.5,114.5C 115.5,124.167 115.5,133.833 115.5,143.5C 114.506,134.348 114.173,125.015 114.5,115.5C 110.298,115.817 106.298,115.483 102.5,114.5 Z"/></g>
<g><path style="opacity:1" fill="#759bc7" d="M 137.5,114.5 C 133.702,115.483 129.702,115.817 125.5,115.5C 125.827,125.015 125.494,134.348 124.5,143.5C 124.5,133.833 124.5,124.167 124.5,114.5C 128.833,114.5 133.167,114.5 137.5,114.5 Z"/></g>
<g><path style="opacity:1" fill="#1b519d" d="M 37.5,115.5 C 39.6098,119.502 40.9431,123.835 41.5,128.5C 38.8333,128.5 36.1667,128.5 33.5,128.5C 34.4345,124.031 35.7679,119.697 37.5,115.5 Z"/></g>
<g><path style="opacity:1" fill="#89aacf" d="M 73.5,123.5 C 72.8333,130.167 72.1667,136.833 71.5,143.5C 71.1697,136.468 71.503,129.468 72.5,122.5C 73.1067,122.624 73.44,122.957 73.5,123.5 Z"/></g>
</svg>
