<?xml version="1.0" encoding="UTF-8"?>
<!DOCTYPE svg PUBLIC "-//W3C//DTD SVG 1.1//EN" "http://www.w3.org/Graphics/SVG/1.1/DTD/svg11.dtd">
<svg xmlns="http://www.w3.org/2000/svg" version="1.1" width="702px" height="68px" style="shape-rendering:geometricPrecision; text-rendering:geometricPrecision; image-rendering:optimizeQuality; fill-rule:evenodd; clip-rule:evenodd" xmlns:xlink="http://www.w3.org/1999/xlink">
<g><path style="opacity:1" fill="#ffffff" d="M 38.5,33.5 C 39.4916,33.6716 40.1583,33.3382 40.5,32.5C 45.1797,30.1495 48.513,26.4828 50.5,21.5C 49.0011,17.3584 46.0011,15.3584 41.5,15.5C 36.6983,16.1335 32.0316,17.3001 27.5,19C 28.5762,20.7261 28.7429,22.5594 28,24.5C 25.3204,32.708 22.1537,40.708 18.5,48.5C 6.17626,39.8523 1.67626,28.1857 5,13.5C 6.83333,10.3333 9.33333,7.83333 12.5,6C 17.5,5.33333 22.5,5.33333 27.5,6C 30.1732,7.00136 32.5065,8.50136 34.5,10.5C 41.0184,5.68222 48.3518,4.18222 56.5,6C 61.4005,7.90183 64.5671,11.4018 66,16.5C 67.3285,30.0149 62.4952,40.8483 51.5,49C 50.5,49.6667 49.5,49.6667 48.5,49C 43.943,44.9461 39.943,40.4461 36.5,35.5C 37.2427,34.8182 37.9094,34.1515 38.5,33.5 Z M 19.5,23.5 C 18.2434,25.4222 17.0768,27.4222 16,29.5C 14.8785,26.1284 16.0451,24.1284 19.5,23.5 Z"/></g>
<g><path style="opacity:1" fill="#ffffff" d="M 626.5,6.5 C 648.836,6.33337 671.169,6.50004 693.5,7C 694.579,7.95604 695.745,8.78937 697,9.5C 697.816,23.8783 697.649,38.2117 696.5,52.5C 672.167,53.8333 647.833,53.8333 623.5,52.5C 622.351,38.2117 622.184,23.8783 623,9.5C 624.145,8.36362 625.312,7.36362 626.5,6.5 Z M 631.5,15.5 C 632.117,15.6107 632.617,15.944 633,16.5C 633.499,20.4862 633.666,24.4862 633.5,28.5C 639.167,28.5 644.833,28.5 650.5,28.5C 650.335,24.8183 650.501,21.1516 651,17.5C 651.667,16.8333 652.333,16.1667 653,15.5C 654.144,20.3291 654.644,25.3291 654.5,30.5C 654.644,35.6709 654.144,40.6709 653,45.5C 652.333,44.8333 651.667,44.1667 651,43.5C 650.501,39.5138 650.334,35.5138 650.5,31.5C 645.156,31.334 639.823,31.5006 634.5,32C 633.968,36.5969 633.135,41.0969 632,45.5C 631.692,44.6919 631.192,44.0253 630.5,43.5C 628.953,33.9963 629.286,24.663 631.5,15.5 Z M 663.5,15.5 C 672.586,14.0712 680.42,16.4045 687,22.5C 690.615,30.4226 689.115,37.256 682.5,43C 678.096,44.3174 673.596,45.1508 669,45.5C 666.648,45.6951 664.648,45.0284 663,43.5C 662.22,34.1193 662.387,24.786 663.5,15.5 Z"/></g>
<g><path style="opacity:1" fill="#ffffff" d="M 155.5,7.5 C 171.575,6.41614 181.075,13.7495 184,29.5C 185.754,39.9103 182.588,48.4103 174.5,55C 159.777,62.637 147.11,60.137 136.5,47.5C 131.446,34.653 133.446,23.153 142.5,13C 146.474,10.0047 150.807,8.17133 155.5,7.5 Z M 154.5,15.5 C 173.363,16.355 179.696,25.855 173.5,44C 167.379,51.5097 159.712,53.5097 150.5,50C 140.87,42.4482 139.036,33.2815 145,22.5C 147.529,19.1151 150.696,16.7818 154.5,15.5 Z"/></g>
<g><path style="opacity:1" fill="#ffffff" d="M 280.5,7.5 C 282.583,8.02889 284.417,9.02889 286,10.5C 292.327,24.137 298.66,37.8036 305,51.5C 305.667,53.5 305.667,55.5 305,57.5C 303.084,60.033 301.084,60.033 299,57.5C 296.688,54.5427 295.188,51.2093 294.5,47.5C 286.187,46.3349 277.853,46.1683 269.5,47C 267.264,50.0353 265.598,53.3686 264.5,57C 262.546,59.7469 260.546,59.9136 258.5,57.5C 257.359,55.5787 257.192,53.5787 258,51.5C 265.035,37.4288 271.535,23.0954 277.5,8.5C 278.791,8.73731 279.791,8.40397 280.5,7.5 Z M 280.5,20.5 C 281.376,20.3691 282.043,20.7025 282.5,21.5C 284.775,27.2159 287.442,32.7159 290.5,38C 284.843,38.4994 279.176,38.6661 273.5,38.5C 275.788,32.5236 278.121,26.5236 280.5,20.5 Z"/></g>
<g><path style="opacity:1" fill="#ffffff" d="M 394.5,7.5 C 403.067,6.63986 410.567,8.97319 417,14.5C 417.667,16.5 417.667,18.5 417,20.5C 416.107,21.0814 415.107,21.4148 414,21.5C 411.277,20.4585 408.777,18.9585 406.5,17C 391.174,12.5387 382.84,18.2054 381.5,34C 383.518,47.3555 391.185,53.0221 404.5,51C 407.161,49.3423 409.827,47.6756 412.5,46C 417.591,45.6817 419.091,47.8484 417,52.5C 403.59,62.2724 390.757,61.6058 378.5,50.5C 370.475,36.2467 372.142,23.4134 383.5,12C 386.994,9.78724 390.661,8.28724 394.5,7.5 Z"/></g>
<g><path style="opacity:1" fill="#ffffff" d="M 84.5,8.5 C 93.5062,8.33356 102.506,8.50023 111.5,9C 121.761,12.6907 125.261,19.8574 122,30.5C 119.642,34.3582 116.475,37.3582 112.5,39.5C 115.316,43.812 118.483,47.812 122,51.5C 123.102,59.2623 120.602,60.9289 114.5,56.5C 110.885,50.8838 106.885,45.5505 102.5,40.5C 98.9062,39.5741 95.2396,39.2408 91.5,39.5C 91.8288,45.2055 91.4954,50.8722 90.5,56.5C 89.3689,57.7515 88.0356,58.7515 86.5,59.5C 85.3527,59.1822 84.5194,58.5156 84,57.5C 83.1828,41.0926 83.3494,24.7593 84.5,8.5 Z M 91.5,16.5 C 97.5092,16.3338 103.509,16.5005 109.5,17C 113.102,17.8498 114.769,20.1832 114.5,24C 114.6,27.804 112.934,30.4707 109.5,32C 103.565,33.2386 97.5652,33.7386 91.5,33.5C 91.5,27.8333 91.5,22.1667 91.5,16.5 Z"/></g>
<g><path style="opacity:1" fill="#ffffff" d="M 199.5,8.5 C 201.604,8.2011 203.604,8.53443 205.5,9.5C 211.245,17.3977 216.745,25.3977 222,33.5C 227.249,26.004 232.249,18.3374 237,10.5C 239.418,8.31985 242.084,7.98652 245,9.5C 245.667,25.5 245.667,41.5 245,57.5C 242.916,60.033 240.916,60.033 239,57.5C 238.667,46.5 238.333,35.5 238,24.5C 233.275,29.9901 229.275,35.9901 226,42.5C 222.729,45.1972 219.729,44.8639 217,41.5C 213.769,36.0809 210.269,30.7475 206.5,25.5C 205.668,36.1511 205.168,46.8178 205,57.5C 202.84,60.0806 200.674,60.0806 198.5,57.5C 197.334,41.844 197.167,26.1773 198,10.5C 198.717,9.9558 199.217,9.28913 199.5,8.5 Z"/></g>
<g><path style="opacity:1" fill="#ffffff" d="M 318.5,8.5 C 320.924,8.19244 323.257,8.52577 325.5,9.5C 334.494,20.666 343.327,31.9994 352,43.5C 352.5,31.8381 352.667,20.1714 352.5,8.5C 355.365,8.05484 357.865,8.7215 360,10.5C 360.667,25.8333 360.667,41.1667 360,56.5C 358.671,57.4939 357.338,58.4939 356,59.5C 353.367,57.8687 351.034,55.8687 349,53.5C 341.745,43.237 334.078,33.237 326,23.5C 325.667,34.5 325.333,45.5 325,56.5C 322.966,59.859 320.632,60.1924 318,57.5C 317.183,41.0926 317.349,24.7593 318.5,8.5 Z"/></g>
<g><path style="opacity:1" fill="#ffffff" d="M 431.5,8.5 C 443.167,8.5 454.833,8.5 466.5,8.5C 466.768,11.1194 466.435,13.6194 465.5,16C 456.506,16.4998 447.506,16.6664 438.5,16.5C 438.5,20.8333 438.5,25.1667 438.5,29.5C 446.507,29.3336 454.507,29.5003 462.5,30C 465.054,32.2691 465.054,34.6025 462.5,37C 454.507,37.4997 446.507,37.6664 438.5,37.5C 438.5,42.1667 438.5,46.8333 438.5,51.5C 447.839,51.3335 457.173,51.5002 466.5,52C 467.574,52.7387 468.241,53.7387 468.5,55C 467.201,56.3264 465.868,57.6598 464.5,59C 453.026,60.0271 441.693,59.5271 430.5,57.5C 430.182,41.0893 430.516,24.756 431.5,8.5 Z"/></g>
<g><path style="opacity:1" fill="#ffffff" d="M 503.5,8.5 C 516.5,8.5 529.5,8.5 542.5,8.5C 544.008,11.1401 543.674,13.4734 541.5,15.5C 536.565,16.4476 531.565,16.781 526.5,16.5C 526.667,30.1707 526.5,43.8374 526,57.5C 523.916,60.033 521.916,60.033 520,57.5C 519.5,43.8374 519.333,30.1707 519.5,16.5C 514.489,16.6659 509.489,16.4993 504.5,16C 502.344,13.7124 502.01,11.2124 503.5,8.5 Z"/></g>
<g><path style="opacity:1" fill="#ffffff" d="M 553.5,8.5 C 555.792,8.24358 557.959,8.57692 560,9.5C 565.647,21.6018 570.814,33.9351 575.5,46.5C 581.6,34.5459 586.933,22.2125 591.5,9.5C 593.743,8.52577 596.076,8.19244 598.5,8.5C 598.813,11.2469 598.48,13.9135 597.5,16.5C 592.265,29.6046 586.765,42.6046 581,55.5C 575.972,61.2271 572.139,60.3938 569.5,53C 563.87,40.2377 558.37,27.4044 553,14.5C 552.322,12.4024 552.489,10.4024 553.5,8.5 Z"/></g>
<g><path style="opacity:1" fill="#ffffff" d="M 40.5,32.5 C 39.5084,32.3284 38.8417,32.6618 38.5,33.5C 35.9026,33.6432 33.5692,34.4766 31.5,36C 36.1989,42.0261 41.1989,47.6927 46.5,53C 43.4858,56.3472 40.1525,59.3472 36.5,62C 34.7111,62.5205 33.0444,62.1871 31.5,61C 27.9334,58.0553 24.6001,54.8886 21.5,51.5C 24.976,40.2386 29.1427,29.2386 34,18.5C 36.7372,17.3895 39.5706,17.2228 42.5,18C 44.9261,19.945 45.7595,22.445 45,25.5C 44.0958,28.2334 42.5958,30.5667 40.5,32.5 Z"/></g>
<g><path style="opacity:1" fill="#ffffff" d="M 666.5,18.5 C 673.043,17.4304 678.876,18.7638 684,22.5C 685.457,26.7411 685.791,31.0745 685,35.5C 684.226,37.9393 682.726,39.7727 680.5,41C 676.101,42.9698 671.435,43.8032 666.5,43.5C 666.5,35.1667 666.5,26.8333 666.5,18.5 Z"/></g>
</svg>
