<?xml version="1.0" encoding="UTF-8"?>
<!DOCTYPE svg PUBLIC "-//W3C//DTD SVG 1.1//EN" "http://www.w3.org/Graphics/SVG/1.1/DTD/svg11.dtd">
<svg xmlns="http://www.w3.org/2000/svg" version="1.1" width="796px" height="120px" style="shape-rendering:geometricPrecision; text-rendering:geometricPrecision; image-rendering:optimizeQuality; fill-rule:evenodd; clip-rule:evenodd" xmlns:xlink="http://www.w3.org/1999/xlink">
<g><path style="opacity:1" fill="#ffffff" d="M 35.5,-0.5 C 37.5,-0.5 39.5,-0.5 41.5,-0.5C 50.4844,1.57923 58.3177,5.91256 65,12.5C 70.7082,6.23819 77.5415,1.90486 85.5,-0.5C 92.5,-0.5 99.5,-0.5 106.5,-0.5C 125.089,6.65365 133.256,20.3203 131,40.5C 128.995,52.1518 124.662,62.8185 118,72.5C 112.532,78.9689 106.699,85.1356 100.5,91C 98.212,91.4175 96.212,90.7509 94.5,89C 85.8025,80.6368 77.4692,71.9701 69.5,63C 78.0968,59.4495 85.5968,54.2829 92,47.5C 96.9077,42.0184 98.5744,35.685 97,28.5C 94.445,24.1333 90.6116,21.6333 85.5,21C 63.1653,20.6668 43.332,27.5002 26,41.5C 23.5469,55.1349 25.2136,55.8016 31,43.5C 36.2968,37.3713 42.7968,33.0379 50.5,30.5C 50.8333,31.5 51.1667,32.5 51.5,33.5C 45.3601,52.5863 39.0268,71.5863 32.5,90.5C 31.448,90.6495 30.448,90.4828 29.5,90C 14.505,77.459 4.50502,61.959 -0.5,43.5C -0.5,38.5 -0.5,33.5 -0.5,28.5C 4.32873,10.0105 16.3287,0.343844 35.5,-0.5 Z"/></g>
<g><path style="opacity:1" fill="#ffffff" d="M 68.5,119.5 C 67.1667,119.5 65.8333,119.5 64.5,119.5C 57.4229,113.114 50.0895,106.947 42.5,101C 41.0203,99.7009 40.3536,98.0342 40.5,96C 46.4593,75.9987 52.9593,56.1654 60,36.5C 62.9049,26.6252 69.4049,23.1252 79.5,26C 84.9783,28.053 87.3116,32.053 86.5,38C 86.2683,45.4598 82.935,51.1264 76.5,55C 70.7127,57.8941 64.7127,60.2275 58.5,62C 57.9781,62.5613 57.6448,63.228 57.5,64C 67.6533,76.6521 78.6533,88.4855 90.5,99.5C 83.1347,106.174 75.8014,112.841 68.5,119.5 Z"/></g>
<g><path style="opacity:1" fill="#ffffff" d="M 236.5,27.5 C 250.781,24.8663 262.281,29.1996 271,40.5C 278.665,56.2559 276.498,70.4225 264.5,83C 246.45,93.7762 230.95,90.9429 218,74.5C 211.605,59.5325 213.772,46.0325 224.5,34C 228.434,31.5361 232.434,29.3694 236.5,27.5 Z M 239.5,34.5 C 253.749,32.8676 262.916,38.8676 267,52.5C 268.511,73.9914 258.678,83.4914 237.5,81C 222.45,72.5109 218.616,60.3443 226,44.5C 229.531,39.795 234.031,36.4617 239.5,34.5 Z"/></g>
<g><path style="opacity:1" fill="#ffffff" d="M 296.5,27.5 C 298.827,27.2471 300.827,27.9137 302.5,29.5C 309.333,39.8333 316.167,50.1667 323,60.5C 330.163,50.844 336.83,40.844 343,30.5C 345.496,26.9981 348.329,26.6647 351.5,29.5C 352.654,48.4564 352.82,67.4564 352,86.5C 349.925,88.6483 347.592,88.9817 345,87.5C 344.667,72.8333 344.333,58.1667 344,43.5C 338.086,51.6601 332.419,59.9935 327,68.5C 324.925,70.6483 322.592,70.9817 320,69.5C 313.752,60.672 307.752,51.672 302,42.5C 301.667,57.5 301.333,72.5 301,87.5C 299,88.8333 297,88.8333 295,87.5C 294.333,68.1667 294.333,48.8333 295,29.5C 295.717,28.9558 296.217,28.2891 296.5,27.5 Z"/></g>
<g><path style="opacity:1" fill="#ffffff" d="M 394.5,27.5 C 397.365,27.0548 399.865,27.7215 402,29.5C 410.645,47.9555 419.145,66.4555 427.5,85C 425.906,88.4547 423.406,89.288 420,87.5C 418.107,82.7133 415.94,78.0466 413.5,73.5C 402.833,72.1667 392.167,72.1667 381.5,73.5C 379.607,78.2867 377.44,82.9534 375,87.5C 369.667,89.8333 367.667,88.1667 369,82.5C 377.514,64.1405 386.014,45.8071 394.5,27.5 Z M 396.5,38.5 C 397.376,38.3691 398.043,38.7025 398.5,39.5C 402.372,48.0758 406.372,56.5758 410.5,65C 402.147,65.8317 393.813,65.6651 385.5,64.5C 389.179,55.8119 392.846,47.1453 396.5,38.5 Z"/></g>
<g><path style="opacity:1" fill="#ffffff" d="M 445.5,27.5 C 447.936,27.317 450.103,27.9837 452,29.5C 463.667,44.5 475.333,59.5 487,74.5C 487.333,59.1667 487.667,43.8333 488,28.5C 490.267,27.0652 492.267,27.3985 494,29.5C 494.826,49.0733 494.659,68.5733 493.5,88C 489.328,88.8684 486.162,87.3684 484,83.5C 473,69.1667 462,54.8333 451,40.5C 450.667,56.1667 450.333,71.8333 450,87.5C 448,88.8333 446,88.8333 444,87.5C 443.333,68.1667 443.333,48.8333 444,29.5C 444.717,28.9558 445.217,28.2891 445.5,27.5 Z"/></g>
<g><path style="opacity:1" fill="#ffffff" d="M 535.5,27.5 C 542.574,27.161 549.574,27.661 556.5,29C 559.941,30.776 563.108,32.9426 566,35.5C 567.293,38.8621 566.293,40.8621 563,41.5C 558.757,38.9631 554.257,36.7965 549.5,35C 535.237,32.879 526.07,38.7124 522,52.5C 520.489,73.9914 530.322,83.4914 551.5,81C 555.165,79.503 558.498,77.503 561.5,75C 568.569,75.5594 569.236,78.2261 563.5,83C 547.79,92.8124 533.29,91.3124 520,78.5C 509.588,61.1178 511.754,45.6178 526.5,32C 529.592,30.4541 532.592,28.9541 535.5,27.5 Z"/></g>
<g><path style="opacity:1" fill="#ffffff" d="M 739.5,27.5 C 741.665,27.1159 743.332,27.7826 744.5,29.5C 751.431,45.7927 758.264,62.1261 765,78.5C 771.805,61.752 778.805,45.0853 786,28.5C 787.667,27.1667 789.333,27.1667 791,28.5C 791.667,31.1667 791.667,33.8333 791,36.5C 783.496,53.6838 775.996,70.8505 768.5,88C 763.726,90.1988 760.559,88.6988 759,83.5C 751.545,66.2605 744.378,48.9271 737.5,31.5C 737.803,29.8857 738.47,28.5523 739.5,27.5 Z"/></g>
<g><path style="opacity:1" fill="#ffffff" d="M 152.5,28.5 C 163.505,28.3335 174.505,28.5002 185.5,29C 198.733,34.2477 202.233,43.4143 196,56.5C 192.846,60.6614 188.679,63.1614 183.5,64C 189.332,70.4838 194.332,77.4838 198.5,85C 197.862,88.2928 195.862,89.2928 192.5,88C 186.591,80.8473 180.925,73.5139 175.5,66C 169.843,65.5006 164.176,65.3339 158.5,65.5C 158.666,72.8409 158.5,80.1742 158,87.5C 156,88.8333 154,88.8333 152,87.5C 151.18,67.7601 151.347,48.0935 152.5,28.5 Z M 158.5,35.5 C 167.582,35.0863 176.582,35.5863 185.5,37C 193.873,44.5542 193.206,51.2209 183.5,57C 175.236,58.3699 166.903,58.8699 158.5,58.5C 158.5,50.8333 158.5,43.1667 158.5,35.5 Z"/></g>
<g><path style="opacity:1" fill="#ffffff" d="M 585.5,28.5 C 599.504,28.3334 613.504,28.5001 627.5,29C 629.14,31.7758 628.473,33.7758 625.5,35C 614.505,35.4998 603.505,35.6665 592.5,35.5C 592.5,41.8333 592.5,48.1667 592.5,54.5C 602.839,54.3335 613.172,54.5002 623.5,55C 624.833,57 624.833,59 623.5,61C 613.172,61.4998 602.839,61.6665 592.5,61.5C 592.5,68.1667 592.5,74.8333 592.5,81.5C 604.171,81.3335 615.838,81.5001 627.5,82C 629.922,83.888 629.922,85.888 627.5,88C 613.833,88.6667 600.167,88.6667 586.5,88C 586,87.5 585.5,87 585,86.5C 584.18,67.0934 584.347,47.7601 585.5,28.5 Z"/></g>
<g><path style="opacity:1" fill="#ffffff" d="M 675.5,28.5 C 691.181,28.1673 706.848,28.5006 722.5,29.5C 723.722,31.9086 723.055,33.742 720.5,35C 714.509,35.4995 708.509,35.6662 702.5,35.5C 702.667,52.8365 702.5,70.1699 702,87.5C 700,88.8333 698,88.8333 696,87.5C 695.5,70.1699 695.333,52.8365 695.5,35.5C 689.491,35.6662 683.491,35.4995 677.5,35C 674.441,33.6035 673.775,31.4368 675.5,28.5 Z"/></g>
</svg>
