<?xml version="1.0" encoding="UTF-8"?>
<!DOCTYPE svg PUBLIC "-//W3C//DTD SVG 1.1//EN" "http://www.w3.org/Graphics/SVG/1.1/DTD/svg11.dtd">
<svg xmlns="http://www.w3.org/2000/svg" version="1.1" width="299px" height="118px" style="shape-rendering:geometricPrecision; text-rendering:geometricPrecision; image-rendering:optimizeQuality; fill-rule:evenodd; clip-rule:evenodd" xmlns:xlink="http://www.w3.org/1999/xlink">
<g><path style="opacity:0.952" fill="#fefffe" d="M 25.5,12.5 C 28.1667,12.5 30.8333,12.5 33.5,12.5C 33.5,17.1667 33.5,21.8333 33.5,26.5C 26.6508,27.0011 21.8174,30.3344 19,36.5C 17.5645,48.0903 17.0645,59.757 17.5,71.5C 12.8333,71.5 8.16667,71.5 3.5,71.5C 3.05416,57.76 3.55416,44.0934 5,30.5C 9.26403,21.3924 16.0974,15.3924 25.5,12.5 Z"/></g>
<g><path style="opacity:0.93" fill="#fefffe" d="M 54.5,12.5 C 66.3636,10.4568 76.697,13.4568 85.5,21.5C 86.9814,20.5197 88.3147,19.353 89.5,18C 91.0444,16.8129 92.7111,16.4795 94.5,17C 97.0153,20.3623 99.0153,24.029 100.5,28C 90.7784,36.0323 90.1117,44.699 98.5,54C 111.565,59.9679 119.899,55.9679 123.5,42C 122.63,36.2546 119.963,31.588 115.5,28C 116.334,24.4997 117.834,21.333 120,18.5C 124.486,16.0531 127.819,17.3864 130,22.5C 139.646,12.6179 151.146,9.78456 164.5,14C 169.178,15.676 173.011,18.5094 176,22.5C 185.184,12.5755 196.351,9.74213 209.5,14C 215.074,16.1939 219.574,19.6939 223,24.5C 223.667,25.5 223.667,26.5 223,27.5C 213.5,37 204,46.5 194.5,56C 201.199,58.1102 206.699,56.2769 211,50.5C 212.908,47.7935 213.741,44.7935 213.5,41.5C 218.5,41.5 223.5,41.5 228.5,41.5C 228.022,54.9678 221.689,64.4678 209.5,70C 196.38,74.0959 185.213,71.2626 176,61.5C 174.322,62.4658 173.655,63.7991 174,65.5C 187.362,81.9988 186.195,97.4988 170.5,112C 158.295,118.237 146.295,117.903 134.5,111C 126.682,104.716 123.015,96.5492 123.5,86.5C 128.214,86.1734 132.88,86.5067 137.5,87.5C 140.982,100.407 148.982,104.574 161.5,100C 170.366,91.9629 170.699,83.6295 162.5,75C 156.084,72.3961 149.418,70.7294 142.5,70C 137.773,68.2598 133.94,65.4265 131,61.5C 120.517,71.8077 108.35,74.3077 94.5,69C 90.7587,67.2621 87.592,64.7621 85,61.5C 75.7866,71.2626 64.62,74.0959 51.5,70C 32.8992,59.7903 28.0659,44.957 37,25.5C 41.5813,19.4103 47.4146,15.077 54.5,12.5 Z M 59.5,26.5 C 75.0325,27.9099 80.1992,35.9099 75,50.5C 66.6667,59.8333 58.3333,59.8333 50,50.5C 45.1144,39.2756 48.281,31.2756 59.5,26.5 Z M 150.5,26.5 C 166.753,28.3469 171.586,36.6802 165,51.5C 157.932,58.8114 150.432,59.3114 142.5,53C 134.864,41.0433 137.53,32.21 150.5,26.5 Z M 195.5,26.5 C 197.604,26.2011 199.604,26.5344 201.5,27.5C 195.848,33.6521 190.015,39.6521 184,45.5C 182.734,36.0256 186.567,29.6923 195.5,26.5 Z"/></g>
<g><path style="opacity:1" fill="#d92a30" d="M 259.5,12.5 C 277.762,9.54106 290.262,16.5411 297,33.5C 300.519,52.3105 293.352,64.8105 275.5,71C 253.298,73.7955 240.631,64.1288 237.5,42C 238.615,27.4018 245.949,17.5684 259.5,12.5 Z"/></g>
<g><path style="opacity:1" fill="#fef7f6" d="M 251.5,32.5 C 258.5,32.5 265.5,32.5 272.5,32.5C 274.167,47.1667 275.833,47.1667 277.5,32.5C 279.924,32.1924 282.257,32.5258 284.5,33.5C 282.291,39.4612 280.291,45.4612 278.5,51.5C 275.881,51.7683 273.381,51.435 271,50.5C 269.333,45.5 267.667,40.5 266,35.5C 265.536,36.0944 265.369,36.7611 265.5,37.5C 264.167,37.5 262.833,37.5 261.5,37.5C 261.5,41.8333 261.5,46.1667 261.5,50.5C 259.5,50.5 257.5,50.5 255.5,50.5C 255.5,46.5 255.5,42.5 255.5,38.5C 254.432,37.5655 253.099,37.2322 251.5,37.5C 251.5,35.8333 251.5,34.1667 251.5,32.5 Z"/></g>
<g><path style="opacity:1" fill="#ed8f90" d="M 251.5,32.5 C 251.5,34.1667 251.5,35.8333 251.5,37.5C 253.099,37.2322 254.432,37.5655 255.5,38.5C 253.833,38.5 252.167,38.5 250.5,38.5C 250.205,36.2646 250.539,34.2646 251.5,32.5 Z"/></g>
<g><path style="opacity:1" fill="#ec8384" d="M 265.5,37.5 C 264.791,38.404 263.791,38.7373 262.5,38.5C 262.5,42.8333 262.5,47.1667 262.5,51.5C 259.941,51.8016 257.607,51.4682 255.5,50.5C 257.5,50.5 259.5,50.5 261.5,50.5C 261.5,46.1667 261.5,41.8333 261.5,37.5C 262.833,37.5 264.167,37.5 265.5,37.5 Z"/></g>
</svg>
