<svg xmlns="http://www.w3.org/2000/svg" version="1.0" width="995.992" height="282.264" viewBox="0 0 1833 546"><path d="M81.23 14.305c-12.244.617-24.563 5.188-33.377 13.874-10.256 9.915-15.468 24.903-13.301 39.03 1.202 6.918 5.005 13.318 10.386 17.81 9.346 7.795 22.332 9.45 31.51 17.46.34 4.072-1.164 8.026-1.82 12.006C51.623 232.874 28.595 351.261 5.585 469.65c-2.198 11.34-3.118 23.408.672 34.523 3.37 10.468 11.546 19.25 21.72 23.413 7.81 3.406 16.45 3.947 24.858 4.11 43.93-.02 87.859-.013 131.789-.025 10.576-54.603 21.374-109.156 31.758-163.795 16.498 37.788 32.294 75.895 48.52 113.805 6.976 16.537 14.107 33.018 20.998 49.592 53.173.605 106.361-.143 159.536.373 14.626-.306 29.189-7.256 37.985-19.054 6.483-8.518 9.466-19.415 9.141-30.04-.434-8.964-5.255-17.389-12.429-22.69-8.537-6.63-19.5-8.728-28.545-14.447-4.33-2.547-5.5-7.71-7.472-11.956-14.887-33.845-30.142-67.52-45.283-101.252 31.725-20.14 56.579-50.354 71.76-84.612 11.419-25.49 17.946-52.99 20.524-80.752 1.742-21.354 2.739-43.257-2.74-64.188-4.052-15.862-11.238-31.063-21.77-43.664-11.328-13.748-26.192-24.385-42.517-31.41-21.953-9.387-45.967-12.963-69.718-13.275H81.23zm488.87 0c-13.156 1.189-26.337 6.714-34.896 17.037-8.057 9.763-12.253 22.905-10.387 35.519 1.334 7.714 5.768 14.829 12.105 19.428 8.828 6.378 20.017 8.52 28.67 15.17 1.951 1.14.999 3.626.946 5.43-7.57 42.463-14.208 85.104-20.973 127.703-12.805 80.936-25.008 161.965-37.636 242.928-1.135 10.061-.983 20.665 3.214 30.064 3.792 8.86 11.12 16.092 20 19.827 8.418 3.721 17.8 4.234 26.876 4.284 45.885-.038 91.757.009 137.642-.025 7.224-47.267 14.41-94.536 21.646-141.801 2.384-14.702 4.133-29.513 7.098-44.113 14.28-.078 28.563-.147 42.842-.348 34.966.41 70.117-6.416 102.123-20.6 29.098-12.9 55.33-32.753 74.425-58.334 18.643-24.74 30.195-54.354 35.345-84.787 2.82-16.753 4.06-33.778 3.637-50.763-.817-19.712-5.598-39.455-15.319-56.715-8.997-16.007-22.36-29.406-38.034-38.907-25.399-15.309-55.54-20.613-84.837-20.997H570.1zm447.324 0c-12.953 1.08-25.903 6.431-34.523 16.39-8.117 9.32-12.454 22.091-11.159 34.422.793 8.417 5.512 16.235 12.305 21.197 8.902 6.396 20.162 8.535 28.868 15.244 1.618.82.965 2.724.897 4.16-23.5 120.924-47.027 241.856-70.515 362.785-2.392 11.73-3.5 24.193.474 35.719 3.573 11.125 12.574 20.274 23.588 24.135 11.514 4.207 24.008 3.176 36.041 3.313 39.582-.005 79.154.02 118.737 0 10.483-54.653 21.433-109.23 31.708-163.92 23.446 54.385 46.385 109.011 69.543 163.522 53.187.597 106.398-.143 159.586.373 17.567-.311 34.97-10.536 42.518-26.626 3.089-6.724 4.66-14.153 4.633-21.546-.292-8.969-4.785-17.641-11.88-23.115-8.043-6.48-18.337-8.834-27.25-13.749-2.749-1.464-5.31-3.521-6.501-6.476-15.793-36.095-32.058-71.998-48.172-107.951 29.205-18.556 52.661-45.629 67.949-76.593 16.153-32.45 23.947-68.622 25.356-104.713 1.547-22.268-.86-45.222-9.764-65.857-11.464-27.836-35.676-49.296-63.715-59.605-20.456-7.779-42.418-10.805-64.213-11.11h-274.511zm629.576 0c-11.53.957-22.915 4.843-32.256 11.732-11.908 8.541-20.663 20.431-30.438 31.16-11.337 12.99-24.498 24.503-39.205 33.526-17.701 9.212-36.917 14.995-55.969 20.674-16.224 5.307-31.201 17.526-35.917 34.422-2.851 12.745-5.002 25.64-7.622 38.434-1.164 7.098-3.465 14.081-3.263 21.346.221 11.673 5.225 23.51 14.572 30.761 8.54 7.01 19.796 9.702 30.661 9.79 12.226.045 24.458-.008 36.69.024-17.6 76.74-35.196 153.488-52.805 230.225-2.665 16.24 1.96 34.566 14.945 45.383 7.732 6.537 17.97 9.62 28.021 9.415 41.743-.018 83.493-.27 125.238-.15 32.964-144.342 65.705-288.74 98.586-433.1 1.702-8.3 4.462-16.416 5.106-24.909 1.572-13.077-.3-27.008-7.447-38.284-8.148-12.98-23.364-20.322-38.483-20.45H1647zM280.046 143.279c11.098-.05 22.204.047 33.252 1.12 3.812.362 7.582 1.282 11.059 2.915 1.784 7.592 1.04 15.516-.324 23.115-1.516 7.596-5.134 15.298-11.906 19.528-8.04 5.026-17.775 6.422-27.1 6.45-11.73.03-23.465-.015-35.195 0 3.473-17.671 7.03-35.334 10.237-53.053 6.651.036 13.318-.045 19.977-.075zm944.488 0c8.975.036 17.943.295 26.876 1.22 3.48.601 7.33.832 10.262 3.04 1.708 4.493 1.177 9.441 1.021 14.147-.752 9.313-2.875 19.512-10.137 26.029-7.146 6.152-16.9 8.055-26.054 8.593-13.059.224-26.123.064-39.18.075 3.492-17.676 6.972-35.344 10.287-53.054 8.964.1 17.95-.086 26.925-.05zm-473.328.025c13.965-.028 27.932-.032 41.896.224 6.006.568 12.132.64 17.983 2.291 1.493.579 3.675.898 3.886 2.865 1.38 5.87.732 12.023.1 17.959-1.163 8.67-4.414 17.803-11.956 22.915-9.942 6.55-22.343 7.084-33.875 6.85-8.883-.012-17.773.02-26.652 0 2.895-17.695 5.8-35.398 8.618-53.104zm1020.932 244.821c-.86-.003-1.732.018-2.59.05-6.16.182-12.37-.093-18.557-.025-6.187.068-12.327.491-18.357 2.092-26.587 6.555-49.811 28.244-55.197 55.52-1.847 10.577-5.487 20.956-5.155 31.808.076 15.818 7.771 31.466 20.3 41.148 9.14 7.167 20.482 11.408 32.056 12.23 9.297.479 18.634.187 27.947.2 32.658-.248 64.473-24.182 71.411-56.517 1.76-9.452 4.585-18.73 5.33-28.346v-8.319c-1.406-14.834-8.975-29.07-20.997-37.985-10.297-7.876-23.285-11.818-36.191-11.856z" style="fill:#000;fill-opacity:1;fill-rule:nonzero;stroke:none"/><path d="M82.724 32.587c-8.658.23-17.652 3.391-23.439 10.063-4.676 5.26-7.266 12.397-7.024 19.429.126 4.557 3.06 8.657 7.05 10.71 7.417 4.005 15.556 6.554 22.69 11.109 4.94 3.155 9.921 6.903 12.58 12.28 1.97 4.064.529 8.573-.2 12.753C70.63 230.768 46.993 352.635 23.293 474.48c-1.647 9.299-2.688 19.659 2.292 28.171 4.525 7.644 13.891 10.598 22.342 10.487 40.573.002 81.129.066 121.701-.025 10.03-51.646 20.06-103.292 30.139-154.928 1.825-8.55 2.68-17.467 6.302-25.506 1.38-3.426 4.751-5.332 8.369-5.356 5.383 3.622 8.358 9.567 11.084 15.244 5.564 12.232 10.592 24.7 15.916 37.038 18.837 44.47 37.825 88.863 56.541 133.383 48.823.381 97.66.062 146.485.2 6.986.37 13.81-2.306 19.353-6.427 7.905-6.104 11.927-16.89 9.764-26.651-2.907-6.748-10.515-9.13-16.713-11.857-9.903-4.118-21.01-8.909-25.855-19.204-13.234-30.144-26.747-60.156-40.226-90.192-4.986-11.572-10.755-22.815-15.219-34.597 19.78-9.575 37.018-23.94 51.211-40.625 15.428-18.274 26.924-39.702 34.498-62.345 9.19-27.447 13.128-56.536 12.802-85.435.186-17.972-3.884-36.153-12.553-51.958-9.278-17.116-24.67-30.452-42.32-38.433-22.299-10.142-47.16-13.224-71.46-12.853-88.339-.014-176.685.032-265.022-.025zm174.082 92.534c11.727-.024 23.443.03 35.17 0 10.305.103 20.714.252 30.837 2.391 6.538 1.443 13.443 4.336 16.962 10.387 4.556 7.812 3.906 17.189 3.587 25.88-.948 13.687-5.39 28.003-15.941 37.361-10.892 9.928-26.11 13.105-40.426 13.575-19.788.032-39.568.007-59.356 0 5.918-29.824 11.654-59.668 17.436-89.52 3.908-.03 7.822-.066 11.731-.074zm318.5-92.608c-6.136-.018-12.301 1.1-17.76 3.985-9.065 4.571-14.862 14.539-14.945 24.61-.154 4.79 2.701 9.404 6.925 11.606 7.192 3.886 15.074 6.379 22.043 10.71 5.378 3.34 10.927 7.305 13.6 13.252 2.109 4.604-.228 9.513-.797 14.197-5.73 32.928-11.315 65.903-16.215 98.96l-.374.573c-6.45 42.314-13.292 84.582-19.702 126.907-7.495 47.72-14.56 95.52-22.168 143.22-.73 7.823-.777 16.432 3.886 23.165 4.802 7.155 14.026 9.575 22.218 9.465 42.657.01 85.32.007 127.977-.024 7.862-51.354 15.672-102.7 23.513-154.057 1.265-8.083 2.309-16.305 5.107-24.036 1.191-3.41 3.626-7.51 7.746-7.398 15.637-.252 31.26-.173 46.902-.348 34.13.44 68.66-5.527 99.831-19.728 28.098-12.675 53.248-32.485 70.44-58.235 20.776-30.622 30.096-67.914 30.812-104.613.983-6.968-.165-13.928-.424-20.898-1.833-18.688-8.26-37.212-20.05-51.983-11.95-15.146-29.015-25.6-47.251-31.434-19.509-6.35-40.202-8.21-60.627-7.797-86.024-.017-172.048.038-258.072-.025a51.4 51.4 0 0 0-2.615-.074zm207.857 92.608c10.356.129 20.812.287 30.961 2.59 5.715 1.439 11.7 3.89 15.17 8.917 3.884 5.525 4.79 12.531 4.433 19.13.737 16.544-3.578 34.73-16.564 45.955-11.72 10.185-27.873 12.982-42.942 13.027-17.743-.206-35.498.357-53.228-.299 5.249-29.71 9.625-59.558 14.72-89.295 15.814-.008 31.635-.021 47.45-.025zm506.257-92.534a244.55 244.55 0 0 0-4.085.025c-88.684.007-177.361-.015-266.043 0-10.8.369-21.84 6.068-26.602 16.09-2.455 5.514-4.251 12.11-1.843 17.935 2.134 4.979 7.546 7.027 12.105 9.166 9.045 3.931 18.457 7.922 25.431 15.144 3.132 3.165 5.454 7.586 4.509 12.155-10.924 57.536-22.524 114.956-33.327 172.513l-.35.598c-11.325 59.54-23.18 118.984-34.547 178.516-1.649 8.284-3.533 16.531-4.657 24.908-1.081 8.008-.998 16.875 3.586 23.862 4.754 7.091 13.7 9.737 21.87 9.64 40.553.008 81.12.066 121.675 0 10.43-54.119 21.03-108.217 31.51-162.326 1.5-6.746 2.232-13.939 5.952-19.927 1.86-3.077 6.624-4.67 9.44-1.943 5.295 4.79 7.96 11.646 10.96 17.96 23.524 55.36 47.049 110.724 70.515 166.111 48.825.343 97.656.043 146.484.174 10.671.327 21.588-5.575 26.527-15.169 2.782-5.345 3.733-11.614 2.665-17.535-1.76-5.011-6.719-7.752-11.258-9.839-9.149-4.092-19.148-7.25-26.428-14.471-4.766-4.496-6.576-10.953-9.265-16.713-16.928-38.466-34.368-76.724-51.436-115.125 29.153-14.17 52.945-38.15 69.22-65.982 21.307-36.617 29.772-79.541 29.54-121.576.294-22.272-5.662-45.124-19.153-63.092-10.727-14.444-26.135-24.932-42.867-31.235-19.146-7.223-39.736-9.848-60.128-9.864zm-106.831 92.534c15.986.008 31.958 0 47.948 0 9.983.121 20.059.323 29.865 2.416 5.624 1.286 11.436 3.5 15.219 8.07 3.04 3.673 4.498 8.416 5.13 13.077 1.022 12.866-.047 26.227-5.43 38.11-4.063 9.139-11.423 16.748-20.399 21.146-10 5.02-21.31 6.596-32.38 6.8-19.133-.024-38.284.005-57.413-.025 5.864-29.853 11.632-59.734 17.46-89.594zm436.946-79.426c8.13-7.816 19.025-13.069 30.437-13.081 15.638-.007 31.278-.007 46.921 0 8.65-.02 17.642 3.616 22.775 10.797 5.074 7.105 6.304 16.188 5.745 24.713-.345 8.687-3.171 16.976-4.928 25.425-31.762 139.78-63.677 279.524-95.345 419.323-37.213.049-74.424-.013-111.635.033-7.57.194-15.411-3.294-19.547-9.778-5.366-8.338-6.234-19.062-3.377-28.44 17.448-75.71 34.719-151.46 52.157-227.17.93-5.081 2.062-10.946-.94-15.55-2.675-3.433-7.396-4.045-11.456-4.082-14.584-.033-29.166.002-43.745-.005-8.257-.147-17.277-2.868-22.174-9.96-4.49-6.475-4.128-14.879-2.467-22.23 2.907-14.433 5.644-28.902 8.476-43.35 1.796-8.412 8.043-15.225 15.326-19.455 6.128-3.727 13.178-5.359 19.986-7.379 12.913-3.967 25.698-8.422 38.082-13.84 15.349-6.487 28.463-17.152 40.646-28.323 12.72-11.57 22.633-25.798 35.063-37.648zm123.859 361.047c8.674-.81 17.413-.204 26.122-.405 8.961-.29 18.144 1.775 25.704 6.723 9.013 5.772 15.076 15.93 15.782 26.62.781 9.896-2.83 19.343-4.414 28.98-4.615 26.147-30.909 45.201-56.957 44.245-8.96-.284-17.979.56-26.884-.548-11.422-1.675-22.328-8.337-27.892-18.618-4.533-8.204-5.457-18.088-3.12-27.112 2.428-9.805 3.224-20.174 7.774-29.33 8.481-16.533 25.546-28.085 43.885-30.555z" style="fill:#fff;fill-rule:nonzero;stroke:none"/><path d="M82.824 45.739c-5.447.279-11.295 2.278-14.572 6.875-1.839 2.459-2.326 5.555-3.014 8.468 12.035 5.634 25.083 10.283 34.573 20.001 6.495 6.273 10.724 15.71 8.593 24.784C84.37 229.454 60.354 353.06 36.32 476.648c-.997 5.624-1.742 11.556-.324 17.162 1.596 5.452 8.106 6.168 12.903 6.252 36.613.022 73.23.028 109.844 0 10.057-51.991 20.192-103.966 30.289-155.95 1.662-7.88 3.328-16.247 8.643-22.591 5.892-7.265 17.54-9.568 25.406-4.234 6.765 4.808 11 12.253 14.447 19.627 5.653 12.64 10.9 25.462 16.364 38.184 17.674 41.65 35.371 83.282 53.03 124.939 45.827.088 91.664.002 137.492.05 8.513.352 16.96-6.476 16.713-15.369-10.31-5.197-21.768-8.43-30.811-15.89-6.431-4.85-10.779-11.886-13.6-19.33-19.452-44.263-39.402-88.313-59.281-132.386 18.266-5.635 34.187-17.004 47.998-29.964 18.314-17.726 32.135-39.84 41.048-63.665 8.004-21.342 12.327-43.97 13.824-66.68 1.37-18.332 1.473-37.327-5.031-54.797-6.005-17.335-18.706-32.084-34.697-40.998-14.017-8.028-29.952-11.863-45.831-14.024-6.316-.375-12.597-1.199-18.93-1.195-91.001-.036-181.994.027-272.992-.05zm151.64 65.981c17.517.048 35.038.015 52.556 0 16.38.754 33.53-.388 48.944 6.252 8.554 3.66 15.447 11.007 18.283 19.902 3.657 11.203 2.877 23.262 1.395 34.771-2.32 15.772-9.65 31.388-22.617 41.124-13.044 10.067-29.834 13.69-46.005 14.172-25.114.024-50.209 0-75.322 0a69246.956 69246.956 0 0 1 20.026-103.044c.804-4.416 1.597-8.834 2.74-13.177zm340.518-66.03c-3.87.084-7.696.581-11.159 2.49-4.813 2.277-7.55 7.406-8.17 12.529 5.426 3.603 11.835 5.325 17.51 8.493 11.489 5.786 23.041 14.544 26.03 27.773.29 5.025-.486 10.003-1.57 14.895-6.754 37.545-12.622 75.239-18.63 112.908-13.652 85.861-26.594 171.823-39.978 257.724-.375 4.481-.795 9.467 1.594 13.5 2.824 3.777 8.088 3.865 12.38 4.085 38.571-.03 77.149.035 115.722-.05 6.466-43.188 13.15-86.346 19.702-129.522 1.974-11.938 3.166-24.045 6.377-35.743 1.464-5.104 3.502-10.222 7.223-14.123 3.278-3.54 7.92-5.76 12.728-6.127 14.162-.413 28.37.329 42.518-.573 10.332-.151 20.679.245 30.986-.698 32.022-2.842 63.9-12.108 91.113-29.516 24.205-15.394 43.944-37.767 55.67-63.988 10.012-21.91 14.701-45.935 16.016-69.892.415-9.673.715-19.419-.797-29.018-2.296-16.503-8.876-32.716-20.375-44.96-11.866-12.902-28.188-20.914-45.009-25.157-15.605-3.976-31.788-5.18-47.848-4.931-85.031-.004-170.053-.015-255.084-.025-2.282-.034-4.627-.126-6.95-.075zm149.697 66.03c18.84.047 37.676.027 56.517.025 13.013.793 26.326.114 38.956 3.96 8.197 2.343 16.11 6.99 20.699 14.373 5.704 8.721 6.618 19.535 6.326 29.69-.531 17.558-5.265 36.12-18.058 48.845-13.049 13.66-32.507 18.659-50.838 19.303-24.196.068-48.386.012-72.582.025 3.343-22.152 7.161-44.225 10.661-66.355 2.84-16.606 5.129-33.325 8.32-49.866zm295.759-65.981c-5.265.283-10.88 2.05-14.273 6.302-2.14 2.54-2.7 5.906-3.512 9.016 12.222 5.724 25.48 10.466 35.046 20.425 6.223 6.265 10.222 15.495 8.17 24.36-23.938 123.309-47.948 246.605-71.91 369.91-1.086 5.844-1.918 11.974-.548 17.834 1.277 5.328 7.5 6.312 12.13 6.45 36.884.093 73.781.027 110.667.05 10.007-51.64 20.062-103.266 30.089-154.902 1.611-7.814 3.17-16.063 8.02-22.617 3.936-5.527 10.797-8.596 17.535-8.145 5.634.02 10.521 3.571 14.049 7.697 6.873 7.923 10.415 17.964 14.596 27.423 21.318 50.172 42.623 100.371 63.939 150.545 43.86.016 87.703-.023 131.564 0 5.304.115 11.088.393 15.667-2.79 4.495-2.518 6.7-7.577 6.975-12.554-9.276-4.745-19.506-7.677-28.047-13.799-6.3-4.244-11.49-10.17-14.521-17.161-19.928-45.75-40.847-91.075-61-136.72 12.312-3.773 23.568-10.338 33.825-18.034 14.374-10.775 26.66-24.208 36.59-39.156 23.412-35.252 32.508-78.146 33.003-119.982.404-18.195-3.167-36.936-12.803-52.58-8.508-13.925-21.826-24.521-36.764-30.862-20.915-8.927-44.028-11.047-66.554-10.66-87.312-.026-174.624.045-261.933-.05zm191.667 65.956c12.818.026 25.635.24 38.433.997 10.996 1.188 22.725 3.2 31.41 10.61 7.256 5.99 11.016 15.263 11.905 24.46 1.072 10.643.286 21.495-2.142 31.908-3.1 13.234-10.236 25.79-21.197 34.049-10.313 7.975-23.132 12.035-35.967 13.45-8.269 1.172-16.644.668-24.958.772-20.15-.011-40.303.016-60.451-.025 7.34-37.687 14.68-75.365 21.993-113.057.264-1.346.48-3.586 2.516-3.089 12.814.048 25.64-.1 38.458-.075zM1707.674 455c2.415-17.645 17.845-31.458 34.914-34.716 6.237-1.247 12.626-.677 18.95-.789 7.625.029 15.66-.654 22.782 2.677 7.099 2.994 12.535 9.766 13.453 17.481.757 5.78-1.069 11.417-2.162 17.026-1.67 7.072-2.352 14.59-6.149 20.953-5.747 10.07-15.808 17.33-26.855 20.542-7.777 2.324-15.958 1.378-23.938 1.558-5.734.112-11.48.11-17.129-.932-7.147-2.251-13.877-7.08-16.412-14.382-3.719-9.73 1.178-19.723 2.546-29.418z" style="fill:#e2003b;fill-opacity:1;fill-rule:nonzero;stroke:none"/><path d="M1631.097 53.19c5.514-4.664 12.6-7.495 19.87-7.42 14.947.004 29.898.009 44.85-.004 4.997-.025 10.626 1.421 13.442 5.932 3.93 6.326 3.401 14.25 2.381 21.323-32.434 142.221-64.704 284.496-97.145 426.722-33.335-.008-66.67-.033-100.003.015-3.454.05-7.36-.74-9.393-3.805-2.912-4.496-3.589-10.243-2.308-15.395 16.506-71.79 32.95-143.594 49.417-215.393 1.951-9.78 5.595-19.51 4.492-29.632-.688-7.302-4.922-14.415-11.625-17.67-6.944-3.665-15.025-3.167-22.616-3.17-11.626-.014-23.249.048-34.868-.013-4.433-.185-9.718-.642-12.472-4.623-2.001-3.308-1.132-7.373-.404-10.934 2.987-14.418 5.607-28.912 8.513-43.346 1.617-7.899 9.385-12.345 16.452-14.7 9.135-2.693 18.278-5.387 27.246-8.62 15.012-5.458 30.316-11.003 43.33-20.506 15.731-10.87 29.577-24.256 41.987-38.756 6.041-6.882 11.837-14.066 18.854-20.005z" style="fill:#009ee0;fill-opacity:1;fill-rule:nonzero;stroke:none"/></svg>