<?xml version="1.0" encoding="UTF-8"?>
<!DOCTYPE svg PUBLIC "-//W3C//DTD SVG 1.1//EN" "http://www.w3.org/Graphics/SVG/1.1/DTD/svg11.dtd">
<svg xmlns="http://www.w3.org/2000/svg" version="1.1" width="186px" height="120px" style="shape-rendering:geometricPrecision; text-rendering:geometricPrecision; image-rendering:optimizeQuality; fill-rule:evenodd; clip-rule:evenodd" xmlns:xlink="http://www.w3.org/1999/xlink">
<g><path style="opacity:0.994" fill="#63b747" d="M -0.5,-0.5 C 35.1667,-0.5 70.8333,-0.5 106.5,-0.5C 106.203,6.92038 106.536,14.2537 107.5,21.5C 106.559,26.0704 106.226,30.737 106.5,35.5C 90.4643,34.8489 74.7977,35.5156 59.5,37.5C 57.6916,37.5086 56.0249,37.0086 54.5,36C 41.1708,35.5001 27.8375,35.3334 14.5,35.5C 14.5,46.1667 14.5,56.8333 14.5,67.5C 20.5,67.5 26.5,67.5 32.5,67.5C 32.3343,63.1539 32.501,58.8206 33,54.5C 33.5613,53.9781 34.228,53.6448 35,53.5C 36.9439,54.4394 38.6106,55.7727 40,57.5C 41.796,60.927 43.9627,64.0937 46.5,67C 52.8333,67.6667 59.1667,67.6667 65.5,67C 62.1667,63 58.8333,59 55.5,55C 60.5908,51.8413 62.2575,47.508 60.5,42C 62.5221,39.9816 65.0221,39.1483 68,39.5C 70.0937,39.5356 72.0937,39.8689 74,40.5C 74.4998,49.4938 74.6664,58.4938 74.5,67.5C 80.5,67.5 86.5,67.5 92.5,67.5C 92.3336,58.4938 92.5002,49.4938 93,40.5C 97.3333,39.1667 101.667,39.1667 106,40.5C 106.667,61.1667 106.667,81.8333 106,102.5C 105.002,104.921 103.168,106.255 100.5,106.5C 95.8894,105.986 91.2228,105.986 86.5,106.5C 57.456,106.817 28.456,106.484 -0.5,105.5C -0.5,70.1667 -0.5,34.8333 -0.5,-0.5 Z"/></g>
<g><path style="opacity:0.994" fill="#000134" d="M 107.5,21.5 C 133.574,21.1763 159.574,21.5096 185.5,22.5C 185.5,34.8333 185.5,47.1667 185.5,59.5C 175.833,59.5 166.167,59.5 156.5,59.5C 156.799,61.604 156.466,63.604 155.5,65.5C 153.393,62.9391 150.726,61.1058 147.5,60C 138.173,59.5002 128.839,59.3335 119.5,59.5C 119.5,67.1667 119.5,74.8333 119.5,82.5C 129.506,82.6665 139.506,82.4998 149.5,82C 151.641,80.6924 153.641,79.1924 155.5,77.5C 156.452,79.0453 156.785,80.712 156.5,82.5C 166.167,82.5 175.833,82.5 185.5,82.5C 185.5,94.8333 185.5,107.167 185.5,119.5C 152.833,119.5 120.167,119.5 87.5,119.5C 86.6274,115.232 86.2941,110.898 86.5,106.5C 91.2228,105.986 95.8894,105.986 100.5,106.5C 103.168,106.255 105.002,104.921 106,102.5C 106.667,81.8333 106.667,61.1667 106,40.5C 101.667,39.1667 97.3333,39.1667 93,40.5C 92.5002,49.4938 92.3336,58.4938 92.5,67.5C 86.5,67.5 80.5,67.5 74.5,67.5C 74.6664,58.4938 74.4998,49.4938 74,40.5C 72.0937,39.8689 70.0937,39.5356 68,39.5C 65.0221,39.1483 62.5221,39.9816 60.5,42C 62.2575,47.508 60.5908,51.8413 55.5,55C 58.8333,59 62.1667,63 65.5,67C 59.1667,67.6667 52.8333,67.6667 46.5,67C 43.9627,64.0937 41.796,60.927 40,57.5C 38.6106,55.7727 36.9439,54.4394 35,53.5C 34.228,53.6448 33.5613,53.9781 33,54.5C 32.501,58.8206 32.3343,63.1539 32.5,67.5C 26.5,67.5 20.5,67.5 14.5,67.5C 14.5,56.8333 14.5,46.1667 14.5,35.5C 27.8375,35.3334 41.1708,35.5001 54.5,36C 56.0249,37.0086 57.6916,37.5086 59.5,37.5C 75.2647,36.8477 90.9314,36.1811 106.5,35.5C 106.226,30.737 106.559,26.0704 107.5,21.5 Z"/></g>
<g><path style="opacity:1" fill="#112037" d="M 106.5,35.5 C 90.9314,36.1811 75.2647,36.8477 59.5,37.5C 74.7977,35.5156 90.4643,34.8489 106.5,35.5 Z"/></g>
<g><path style="opacity:1" fill="#5eae47" d="M 32.5,39.5 C 35.1873,39.3359 37.854,39.5026 40.5,40C 44.5,43.3333 44.5,46.6667 40.5,50C 37.854,50.4974 35.1873,50.6641 32.5,50.5C 32.5,46.8333 32.5,43.1667 32.5,39.5 Z"/></g>
<g><path style="opacity:1" fill="#f6f6f7" d="M 185.5,59.5 C 185.5,60.8333 185.5,62.1667 185.5,63.5C 179.5,63.5 173.5,63.5 167.5,63.5C 166.532,65.6074 166.198,67.9407 166.5,70.5C 172.167,70.5 177.833,70.5 183.5,70.5C 183.5,71.5 183.5,72.5 183.5,73.5C 177.833,73.5 172.167,73.5 166.5,73.5C 166.5,75.5 166.5,77.5 166.5,79.5C 172.833,79.5 179.167,79.5 185.5,79.5C 185.5,80.5 185.5,81.5 185.5,82.5C 175.833,82.5 166.167,82.5 156.5,82.5C 156.785,80.712 156.452,79.0453 155.5,77.5C 153.641,79.1924 151.641,80.6924 149.5,82C 139.506,82.4998 129.506,82.6665 119.5,82.5C 119.5,74.8333 119.5,67.1667 119.5,59.5C 128.839,59.3335 138.173,59.5002 147.5,60C 150.726,61.1058 153.393,62.9391 155.5,65.5C 156.466,63.604 156.799,61.604 156.5,59.5C 166.167,59.5 175.833,59.5 185.5,59.5 Z"/></g>
<g><path style="opacity:1" fill="#030736" d="M 130.5,63.5 C 134.182,63.3347 137.848,63.5014 141.5,64C 146.821,67.2645 147.821,71.5978 144.5,77C 140.116,79.2078 135.449,80.0411 130.5,79.5C 130.5,74.1667 130.5,68.8333 130.5,63.5 Z"/></g>
<g><path style="opacity:1" fill="#010333" d="M 167.5,63.5 C 173.5,63.5 179.5,63.5 185.5,63.5C 185.5,68.8333 185.5,74.1667 185.5,79.5C 179.167,79.5 172.833,79.5 166.5,79.5C 166.5,77.5 166.5,75.5 166.5,73.5C 172.167,73.5 177.833,73.5 183.5,73.5C 183.5,72.5 183.5,71.5 183.5,70.5C 178.36,69.5119 173.026,69.1786 167.5,69.5C 167.5,67.5 167.5,65.5 167.5,63.5 Z"/></g>
<g><path style="opacity:1" fill="#4c4b66" d="M 167.5,63.5 C 167.5,65.5 167.5,67.5 167.5,69.5C 173.026,69.1786 178.36,69.5119 183.5,70.5C 177.833,70.5 172.167,70.5 166.5,70.5C 166.198,67.9407 166.532,65.6074 167.5,63.5 Z"/></g>
</svg>
