<svg xmlns="http://www.w3.org/2000/svg" xmlns:xlink="http://www.w3.org/1999/xlink" width="502.387" height="167.983" overflow="visible" xmlns:v="https://vecta.io/nano"><path fill="#ecbf0a" d="M0 0h156.777v88.277H0z"/><path fill="#ff8900" d="M172.833 0H329.61v88.277H172.833z"/><path fill="#9527ba" d="M345.61 0h156.777v88.277H345.61z"/><path d="M88.339 20.36c9.763 0 18.41 5.19 18.41 15.221 0 8.662-5.472 14.154-14.414 15L113.16 68.11H96.848L77.729 51.432H55.887V68.11H44.826V20.36h43.513zm-32.452 9.171v12.754H86.59c5.5 0 8.823-2.126 8.823-6.458 0-3.587-2.824-6.296-8.823-6.296H55.887zM218.23 20.36v9.452h27.639V68.11h10.881V29.812h27.654V20.36zm176.236 0v47.75h59.519v-9.501h-48.636V20.36z" fill="#fff"/><path d="M100.722 119.737h20.854c14.607 0 17.399 9.206 17.399 15.412 0 6.138-2.792 15.272-17.399 15.272h-11.902v16.439h-8.951v-47.123zm8.951 23.571h11.401c4.01 0 8.95-1.952 8.95-8.229 0-6.556-4.081-8.229-8.808-8.229h-11.544v16.458zm46.996-23.571h9.041l18.694 47.124h-9.109l-3.935-10.434h-20.864l-3.685 10.434h-8.77l18.628-47.124zm-3.488 29.753h15.809l-7.766-21.635h-.068-.136l-7.839 21.635z"/><use xlink:href="#B"/><use xlink:href="#B" x="46.906"/><path d="M284.141 119.737h8.498v47.124h-8.498v-47.124zm66.17 23.561c0 13.465-9.117 24.685-24.36 24.685s-24.36-11.22-24.36-24.685 9.117-24.684 24.36-24.684 24.36 11.221 24.36 24.684zm-39.818 0c0 9.043 4.56 17.953 15.458 17.953s15.457-8.91 15.457-17.953-4.559-17.951-15.457-17.951-15.458 8.91-15.458 17.951zm48.95-23.561h9.496l23.452 34.716h.145v-34.716h8.561v47.124H391.6l-23.38-34.65h-.216v34.65h-8.562v-47.124z"/><defs ><path id="B" d="M196.6 151.153c0 7.261 5.506 10.099 12.304 10.099 7.478 0 10.266-3.564 10.266-7.129 0-3.63-2.04-5.082-4.012-5.808-3.398-1.254-7.817-2.112-14.479-3.894-8.293-2.179-10.74-7.063-10.74-11.947 0-9.438 8.973-13.859 17.742-13.859 10.129 0 18.627 5.214 18.627 15.049h-8.498c-.407-6.072-4.622-8.316-10.469-8.316-3.942 0-8.905 1.386-8.905 6.138 0 3.3 2.312 5.147 5.778 6.071l14.004 3.631c6.39 1.848 9.449 7.128 9.449 12.012 0 10.561-9.653 14.784-19.307 14.784-11.08 0-20.054-5.147-20.258-16.83h8.498z"/></defs></svg>