<?xml version="1.0" encoding="UTF-8"?>
<!DOCTYPE svg PUBLIC "-//W3C//DTD SVG 1.1//EN" "http://www.w3.org/Graphics/SVG/1.1/DTD/svg11.dtd">
<svg xmlns="http://www.w3.org/2000/svg" version="1.1" width="2576px" height="333px" style="shape-rendering:geometricPrecision; text-rendering:geometricPrecision; image-rendering:optimizeQuality; fill-rule:evenodd; clip-rule:evenodd" xmlns:xlink="http://www.w3.org/1999/xlink">
<g><path style="opacity:0.995" fill="#6e0ced" d="M -0.5,-0.5 C 196.833,-0.5 394.167,-0.5 591.5,-0.5C 591.5,110.5 591.5,221.5 591.5,332.5C 394.167,332.5 196.833,332.5 -0.5,332.5C -0.5,221.5 -0.5,110.5 -0.5,-0.5 Z"/></g>
<g><path style="opacity:0.998" fill="#009699" d="M 649.5,-0.5 C 846.5,-0.5 1043.5,-0.5 1240.5,-0.5C 1240.5,110.5 1240.5,221.5 1240.5,332.5C 1043.5,332.5 846.5,332.5 649.5,332.5C 649.5,221.5 649.5,110.5 649.5,-0.5 Z"/></g>
<g><path style="opacity:0.995" fill="#00af2c" d="M 1298.5,-0.5 C 1495.83,-0.5 1693.17,-0.5 1890.5,-0.5C 1890.5,110.5 1890.5,221.5 1890.5,332.5C 1693.17,332.5 1495.83,332.5 1298.5,332.5C 1298.5,221.5 1298.5,110.5 1298.5,-0.5 Z"/></g>
<g><path style="opacity:0.967" fill="#fefffe" d="M 2007.5,75.5 C 2018.83,75.5 2030.17,75.5 2041.5,75.5C 2041.03,117.206 2041.53,158.873 2043,200.5C 2046.67,212.84 2054.51,221.34 2066.5,226C 2082.71,230.389 2098.38,229.055 2113.5,222C 2122.96,215.243 2128.46,206.076 2130,194.5C 2130.5,154.835 2130.67,115.168 2130.5,75.5C 2141.83,75.5 2153.17,75.5 2164.5,75.5C 2164.67,114.835 2164.5,154.168 2164,193.5C 2161.17,228.336 2142.67,249.502 2108.5,257C 2093.5,259 2078.5,259 2063.5,257C 2030.73,249.894 2012.23,229.728 2008,196.5C 2007.5,156.168 2007.33,115.835 2007.5,75.5 Z"/></g>
<g><path style="opacity:0.984" fill="#fefffe" d="M 2208.5,75.5 C 2219.5,75.5 2230.5,75.5 2241.5,75.5C 2241.5,99.8333 2241.5,124.167 2241.5,148.5C 2271.5,148.5 2301.5,148.5 2331.5,148.5C 2331.5,124.167 2331.5,99.8333 2331.5,75.5C 2342.5,75.5 2353.5,75.5 2364.5,75.5C 2364.5,135.833 2364.5,196.167 2364.5,256.5C 2353.5,256.5 2342.5,256.5 2331.5,256.5C 2331.5,230.5 2331.5,204.5 2331.5,178.5C 2301.5,178.5 2271.5,178.5 2241.5,178.5C 2241.5,204.5 2241.5,230.5 2241.5,256.5C 2230.5,256.5 2219.5,256.5 2208.5,256.5C 2208.5,196.167 2208.5,135.833 2208.5,75.5 Z"/></g>
<g><path style="opacity:0.978" fill="#fefffe" d="M 2575.5,164.5 C 2575.5,165.5 2575.5,166.5 2575.5,167.5C 2575.21,190.2 2568.04,210.534 2554,228.5C 2540.59,242.958 2524.09,251.791 2504.5,255C 2473.52,256.419 2442.52,256.919 2411.5,256.5C 2411.5,196.167 2411.5,135.833 2411.5,75.5C 2442.19,75.0908 2472.86,75.5908 2503.5,77C 2538.07,82.5702 2560.57,102.07 2571,135.5C 2573.53,145.156 2575.03,154.823 2575.5,164.5 Z M 2444.5,105.5 C 2460.5,105.333 2476.5,105.5 2492.5,106C 2519.87,109.698 2535.7,125.198 2540,152.5C 2543.23,172.34 2539.57,190.673 2529,207.5C 2519.61,218.28 2507.77,224.447 2493.5,226C 2477.17,226.5 2460.84,226.667 2444.5,226.5C 2444.5,186.167 2444.5,145.833 2444.5,105.5 Z"/></g>
<g><path style="opacity:1" fill="#fefefe" d="M 167.5,76.5 C 225.501,76.3333 283.501,76.5 341.5,77C 388.638,83.7854 406.805,110.285 396,156.5C 390.929,167.232 383.429,175.732 373.5,182C 364.905,186.198 355.905,189.198 346.5,191C 371.833,212.333 397.167,233.667 422.5,255C 402.5,255.667 382.5,255.667 362.5,255C 338.537,234.706 314.871,214.039 291.5,193C 263.928,192.172 236.428,192.339 209,193.5C 208.5,214.164 208.333,234.831 208.5,255.5C 194.833,255.5 181.167,255.5 167.5,255.5C 167.5,195.833 167.5,136.167 167.5,76.5 Z"/></g>
<g><path style="opacity:1" fill="#fefffe" d="M 924.5,255.5 C 924.5,207.5 924.5,159.5 924.5,111.5C 889.833,111.5 855.167,111.5 820.5,111.5C 820.5,99.8333 820.5,88.1667 820.5,76.5C 903.5,76.5 986.5,76.5 1069.5,76.5C 1069.5,88.1667 1069.5,99.8333 1069.5,111.5C 1034.83,111.5 1000.17,111.5 965.5,111.5C 965.5,159.5 965.5,207.5 965.5,255.5C 951.833,255.5 938.167,255.5 924.5,255.5 Z"/></g>
<g><path style="opacity:1" fill="#fefefe" d="M 1523.5,76.5 C 1523.5,124.5 1523.5,172.5 1523.5,220.5C 1584.5,220.5 1645.5,220.5 1706.5,220.5C 1706.5,232.167 1706.5,243.833 1706.5,255.5C 1631.83,255.5 1557.17,255.5 1482.5,255.5C 1482.5,195.833 1482.5,136.167 1482.5,76.5C 1496.17,76.5 1509.83,76.5 1523.5,76.5 Z"/></g>
<g><path style="opacity:1" fill="#6f11ed" d="M 329.5,158.5 C 289.5,158.5 249.5,158.5 209.5,158.5C 209.5,142.5 209.5,126.5 209.5,110.5C 248.665,109.335 287.998,109.169 327.5,110C 334.827,110.914 341.827,112.914 348.5,116C 357.299,123.403 359.799,132.569 356,143.5C 350.131,153.523 341.298,158.523 329.5,158.5 Z"/></g>
<g><path style="opacity:1" fill="#40b0b3" d="M 820.5,111.5 C 855.167,111.5 889.833,111.5 924.5,111.5C 924.5,159.5 924.5,207.5 924.5,255.5C 923.501,208.003 923.168,160.336 923.5,112.5C 888.996,112.832 854.663,112.498 820.5,111.5 Z"/></g>
<g><path style="opacity:1" fill="#9c59f3" d="M 209.5,110.5 C 209.5,126.5 209.5,142.5 209.5,158.5C 249.5,158.5 289.5,158.5 329.5,158.5C 289.337,159.499 249.003,159.832 208.5,159.5C 208.17,142.991 208.504,126.658 209.5,110.5 Z"/></g>
<g><path style="opacity:1" fill="#56c971" d="M 1523.5,76.5 C 1524.5,123.997 1524.83,171.664 1524.5,219.5C 1585.34,219.168 1646,219.501 1706.5,220.5C 1645.5,220.5 1584.5,220.5 1523.5,220.5C 1523.5,172.5 1523.5,124.5 1523.5,76.5 Z"/></g>
</svg>
