<?xml version="1.0" encoding="windows-1252"?>
<!-- Generator: Adobe Illustrator 25.3.1, SVG Export Plug-In . SVG Version: 6.00 Build 0)  -->
<svg version="1.1" id="&#1064;&#1072;&#1088;_1" xmlns="http://www.w3.org/2000/svg" xmlns:xlink="http://www.w3.org/1999/xlink" x="0px" y="0px" viewBox="0 0 1743.607 200.592" style="enable-background:new 0 0 1743.607 200.592;" xml:space="preserve">
<g>
	<g>
		<g>
			<rect style="fill-rule:evenodd;clip-rule:evenodd;fill:#FF5C00;" width="356.643" height="200.592"/>
			<path style="fill-rule:evenodd;clip-rule:evenodd;fill:#FFFFFF;" d="M193.766,96.247c15.314,0,22.764-4.932,22.764-15.003     s-7.45-14.873-22.764-14.873h-67.098v29.876H193.766z M101.854,46.099h95.157c28.967,0,45.087,13.004,45.087,34.834     c0,18.741-12.096,31.278-32.705,34.237l46.644,39.324h-35.794l-43.867-37.948h-49.707v37.948h-24.814     C101.853,154.493,101.853,46.099,101.854,46.099z"/>
		</g>
		<g>
			<rect x="784.615" style="fill-rule:evenodd;clip-rule:evenodd;fill:#6F05EE;" width="356.643" height="200.592"/>
			<polygon style="fill-rule:evenodd;clip-rule:evenodd;fill:#FFFFFF;" points="895.812,46.099 920.575,46.099 920.575,133.131      1030.683,133.131 1030.683,154.493 895.812,154.493    "/>
		</g>
		<g>
			<rect x="392.463" style="fill-rule:evenodd;clip-rule:evenodd;fill:#D50006;" width="356.331" height="200.592"/>
			<polygon style="fill-rule:evenodd;clip-rule:evenodd;fill:#FFFFFF;" points="558.247,67.461 495.562,67.461 495.562,46.099      645.695,46.099 645.695,67.461 583.01,67.461 583.01,154.493 558.247,154.493    "/>
		</g>
	</g>
	<path style="fill-rule:evenodd;clip-rule:evenodd;" d="M1258.915,148.87c-8.209-4.378-14.911-11.126-19.234-19.365   c-4.475-8.386-6.704-18.184-6.704-29.394c0-11.31,2.237-21.162,6.704-29.549c4.335-8.249,11.031-15.019,19.234-19.442   c8.363-4.575,18.215-6.866,29.572-6.866c9.567,0,18.076,1.674,25.537,5.015c7.468,3.341,13.386,8.047,17.745,14.119   c4.367,6.072,6.913,13.062,7.653,20.985h-20.345c-0.849-6.89-3.973-12.367-9.382-16.433c-5.416-4.066-12.491-6.095-21.216-6.095   c-11.141,0-19.758,3.395-25.853,10.184s-9.15,16.148-9.15,28.083s3.047,21.24,9.15,27.929c6.095,6.689,14.713,10.03,25.861,10.03   c8.51,0,15.399-1.875,20.653-5.632c5.254-3.757,8.618-9.027,10.091-15.816h20.19c-0.829,7.419-3.635,14.48-8.124,20.445   c-4.475,5.917-10.354,10.493-17.667,13.733c-7.306,3.24-15.685,4.861-25.151,4.861   C1277.139,155.66,1267.279,153.399,1258.915,148.87 M1378.978,63.233v33.483h31.863c5.57,0,9.906-1.52,13.008-4.552   c3.094-3.032,4.652-7.229,4.652-12.576c0-5.146-1.582-9.15-4.737-12.035c-3.163-2.878-7.468-4.32-12.93-4.32L1378.978,63.233   L1378.978,63.233z M1454.045,152.419v1.543h-22.705l-27.288-39.964h-25.074v39.964h-20.183V45.951h53.311   c7.46,0,13.949,1.443,19.465,4.32c5.311,2.688,9.743,6.837,12.776,11.958c2.986,5.092,4.49,10.878,4.49,17.359   c0,8.024-2.099,14.867-6.311,20.522c-4.197,5.655-9.983,9.621-17.344,11.881L1454.045,152.419L1454.045,152.419z M1470.239,153.962   h20.183V45.951h-20.183V153.962z M1536.357,153.962h-20.19V45.951h23.654l36.276,57.4h0.617l37.063-57.4h22.559v108.011h-20.028   V76.194h-0.64l-38.63,59.406h-1.582l-38.475-59.869h-0.617v78.231 M1743.607,153.962h-81.533V45.951h81.533v17.282h-61.35v26.54   h56.459V106.9h-56.459v29.78h61.35V153.962"/>
</g>
</svg>