<?xml version="1.0" encoding="UTF-8"?>
<!DOCTYPE svg PUBLIC "-//W3C//DTD SVG 1.1//EN" "http://www.w3.org/Graphics/SVG/1.1/DTD/svg11.dtd">
<svg xmlns="http://www.w3.org/2000/svg" version="1.1" width="382px" height="46px" style="shape-rendering:geometricPrecision; text-rendering:geometricPrecision; image-rendering:optimizeQuality; fill-rule:evenodd; clip-rule:evenodd" xmlns:xlink="http://www.w3.org/1999/xlink">
<g><path style="opacity:1" fill="#7a3089" d="M 3.5,4.5 C 25.5,4.5 47.5,4.5 69.5,4.5C 69.5,16.5 69.5,28.5 69.5,40.5C 47.5,40.5 25.5,40.5 3.5,40.5C 3.5,28.5 3.5,16.5 3.5,4.5 Z"/></g>
<g><path style="opacity:1" fill="#aa4894" d="M 76.5,4.5 C 98.5,4.5 120.5,4.5 142.5,4.5C 142.5,16.5 142.5,28.5 142.5,40.5C 120.5,40.5 98.5,40.5 76.5,40.5C 76.5,28.5 76.5,16.5 76.5,4.5 Z"/></g>
<g><path style="opacity:1" fill="#572582" d="M 149.5,4.5 C 171.5,4.5 193.5,4.5 215.5,4.5C 215.5,16.5 215.5,28.5 215.5,40.5C 193.5,40.5 171.5,40.5 149.5,40.5C 149.5,28.5 149.5,16.5 149.5,4.5 Z"/></g>
<g><path style="opacity:1" fill="#ffffff" d="M 228.5,12.5 C 229.833,12.5 231.167,12.5 232.5,12.5C 232.5,18.1667 232.5,23.8333 232.5,29.5C 236.167,29.5 239.833,29.5 243.5,29.5C 243.5,30.5 243.5,31.5 243.5,32.5C 238.5,32.5 233.5,32.5 228.5,32.5C 228.5,25.8333 228.5,19.1667 228.5,12.5 Z"/></g>
<g><path style="opacity:1" fill="#ffffff" d="M 246.5,12.5 C 247.833,12.5 249.167,12.5 250.5,12.5C 250.5,19.1667 250.5,25.8333 250.5,32.5C 249.167,32.5 247.833,32.5 246.5,32.5C 246.5,25.8333 246.5,19.1667 246.5,12.5 Z"/></g>
<g><path style="opacity:1" fill="#ffffff" d="M 252.5,13.5 C 253.919,12.5489 255.585,12.2155 257.5,12.5C 258.841,17.69 260.674,22.69 263,27.5C 264.667,22.8333 266.333,18.1667 268,13.5C 269.494,12.2528 270.994,12.2528 272.5,13.5C 269.868,19.7561 267.535,26.0895 265.5,32.5C 263.533,32.7394 261.699,32.4061 260,31.5C 257.724,25.2961 255.224,19.2961 252.5,13.5 Z"/></g>
<g><path style="opacity:1" fill="#ffffff" d="M 275.5,12.5 C 276.833,12.5 278.167,12.5 279.5,12.5C 279.5,19.1667 279.5,25.8333 279.5,32.5C 278.167,32.5 276.833,32.5 275.5,32.5C 275.5,25.8333 275.5,19.1667 275.5,12.5 Z"/></g>
<g><path style="opacity:1" fill="#ffffff" d="M 285.5,12.5 C 287.722,12.178 289.556,12.8446 291,14.5C 293.667,18.5 296.333,22.5 299,26.5C 299.499,21.8452 299.666,17.1785 299.5,12.5C 300.833,12.5 302.167,12.5 303.5,12.5C 303.5,19.1667 303.5,25.8333 303.5,32.5C 301.801,32.6602 300.134,32.4935 298.5,32C 295.623,27.7451 292.623,23.5784 289.5,19.5C 288.508,23.7828 288.174,28.1161 288.5,32.5C 287.5,32.5 286.5,32.5 285.5,32.5C 285.5,25.8333 285.5,19.1667 285.5,12.5 Z"/></g>
<g><path style="opacity:1" fill="#ffffff" d="M 312.5,12.5 C 317.849,11.4614 322.349,12.7947 326,16.5C 326.483,17.448 326.649,18.448 326.5,19.5C 323.618,19.3924 321.285,18.2257 319.5,16C 314.319,15.0109 311.652,17.1776 311.5,22.5C 311.585,28.5514 314.585,30.718 320.5,29C 321.357,28.3109 322.023,27.4776 322.5,26.5C 321.009,25.7564 319.509,25.0897 318,24.5C 317.383,23.5509 317.549,22.7175 318.5,22C 321.146,21.5026 323.813,21.3359 326.5,21.5C 325.969,32.4857 320.636,35.6523 310.5,31C 309.299,30.0975 308.465,28.9308 308,27.5C 307.333,24.1667 307.333,20.8333 308,17.5C 309.025,15.313 310.525,13.6464 312.5,12.5 Z"/></g>
<g><path style="opacity:1" fill="#ffffff" d="M 336.5,12.5 C 337.833,12.5 339.167,12.5 340.5,12.5C 340.5,15.1667 340.5,17.8333 340.5,20.5C 343.833,20.5 347.167,20.5 350.5,20.5C 350.5,17.8333 350.5,15.1667 350.5,12.5C 351.833,12.5 353.167,12.5 354.5,12.5C 354.5,19.1667 354.5,25.8333 354.5,32.5C 353.167,32.5 351.833,32.5 350.5,32.5C 350.5,29.5 350.5,26.5 350.5,23.5C 347.482,23.3354 344.482,23.502 341.5,24C 340.556,26.7191 340.223,29.5525 340.5,32.5C 339.167,32.5 337.833,32.5 336.5,32.5C 336.5,25.8333 336.5,19.1667 336.5,12.5 Z"/></g>
<g><path style="opacity:1" fill="#ffffff" d="M 359.5,12.5 C 364.628,12.1115 369.628,12.6115 374.5,14C 379.833,19.6667 379.833,25.3333 374.5,31C 369.628,32.3885 364.628,32.8885 359.5,32.5C 359.5,25.8333 359.5,19.1667 359.5,12.5 Z M 363.5,15.5 C 373.038,15.185 376.038,19.3516 372.5,28C 369.649,29.2886 366.649,29.7886 363.5,29.5C 363.5,24.8333 363.5,20.1667 363.5,15.5 Z"/></g>
<g><path style="opacity:1" fill="#ffffff" d="M 21.5,12.5 C 28.5079,12.3337 35.5079,12.5004 42.5,13C 47.218,14.4486 48.718,17.6153 47,22.5C 45.5905,23.7875 44.0905,24.9542 42.5,26C 45.1277,27.6255 47.461,29.6255 49.5,32C 44.1593,32.5008 39.826,30.5008 36.5,26C 33.1832,25.5017 29.8499,25.335 26.5,25.5C 26.5,27.8333 26.5,30.1667 26.5,32.5C 24.8333,32.5 23.1667,32.5 21.5,32.5C 21.5,25.8333 21.5,19.1667 21.5,12.5 Z"/></g>
<g><path style="opacity:1" fill="#ffffff" d="M 95.5,12.5 C 104.833,12.5 114.167,12.5 123.5,12.5C 123.5,13.8333 123.5,15.1667 123.5,16.5C 119.5,16.5 115.5,16.5 111.5,16.5C 111.5,21.8333 111.5,27.1667 111.5,32.5C 109.833,32.5 108.167,32.5 106.5,32.5C 106.5,27.1667 106.5,21.8333 106.5,16.5C 102.833,16.5 99.1667,16.5 95.5,16.5C 95.5,15.1667 95.5,13.8333 95.5,12.5 Z"/></g>
<g><path style="opacity:1" fill="#ffffff" d="M 169.5,12.5 C 171.167,12.5 172.833,12.5 174.5,12.5C 174.5,17.8333 174.5,23.1667 174.5,28.5C 181.167,28.5 187.833,28.5 194.5,28.5C 194.5,29.8333 194.5,31.1667 194.5,32.5C 186.167,32.5 177.833,32.5 169.5,32.5C 169.5,25.8333 169.5,19.1667 169.5,12.5 Z"/></g>
<g><path style="opacity:1" fill="#7c348b" d="M 26.5,16.5 C 31.8437,16.334 37.1771,16.5006 42.5,17C 43.8333,18.3333 43.8333,19.6667 42.5,21C 37.1771,21.4994 31.8437,21.666 26.5,21.5C 26.5,19.8333 26.5,18.1667 26.5,16.5 Z"/></g>
</svg>
