<?xml version="1.0" encoding="UTF-8"?>
<!DOCTYPE svg PUBLIC "-//W3C//DTD SVG 1.1//EN" "http://www.w3.org/Graphics/SVG/1.1/DTD/svg11.dtd">
<svg xmlns="http://www.w3.org/2000/svg" version="1.1" width="1081px" height="120px" style="shape-rendering:geometricPrecision; text-rendering:geometricPrecision; image-rendering:optimizeQuality; fill-rule:evenodd; clip-rule:evenodd" xmlns:xlink="http://www.w3.org/1999/xlink">
<g><path style="opacity:1" fill="#ff5c01" d="M -0.5,5.5 C 63.5,5.5 127.5,5.5 191.5,5.5C 191.5,41.8333 191.5,78.1667 191.5,114.5C 127.5,114.5 63.5,114.5 -0.5,114.5C -0.5,78.1667 -0.5,41.8333 -0.5,5.5 Z"/></g>
<g><path style="opacity:1" fill="#8e653e" d="M -0.5,5.5 C -0.5,5.16667 -0.5,4.83333 -0.5,4.5C 63.8333,4.5 128.167,4.5 192.5,4.5C 192.832,41.3371 192.498,78.0038 191.5,114.5C 191.5,78.1667 191.5,41.8333 191.5,5.5C 127.5,5.5 63.5,5.5 -0.5,5.5 Z"/></g>
<g><path style="opacity:1" fill="#691553" d="M 404.5,5.5 C 340.167,5.5 275.833,5.5 211.5,5.5C 211.5,41.8333 211.5,78.1667 211.5,114.5C 210.83,78.0977 210.164,41.5977 209.5,5C 274.668,4.16795 339.668,4.33462 404.5,5.5 Z"/></g>
<g><path style="opacity:1" fill="#d40006" d="M 404.5,5.5 C 404.5,41.8333 404.5,78.1667 404.5,114.5C 340.167,114.5 275.833,114.5 211.5,114.5C 211.5,78.1667 211.5,41.8333 211.5,5.5C 275.833,5.5 340.167,5.5 404.5,5.5 Z"/></g>
<g><path style="opacity:1" fill="#6e05ec" d="M 421.5,5.5 C 486.167,5.5 550.833,5.5 615.5,5.5C 615.5,41.8333 615.5,78.1667 615.5,114.5C 550.833,114.5 486.167,114.5 421.5,114.5C 421.5,78.1667 421.5,41.8333 421.5,5.5 Z"/></g>
<g><path style="opacity:1" fill="#82475c" d="M 421.5,5.5 C 486.331,4.50086 551.331,4.16753 616.5,4.5C 616.832,41.3371 616.498,78.0038 615.5,114.5C 615.5,78.1667 615.5,41.8333 615.5,5.5C 550.833,5.5 486.167,5.5 421.5,5.5 Z"/></g>
<g><path style="opacity:1" fill="#ffffff" d="M 673.5,28.5 C 687.986,25.488 699.486,29.8213 708,41.5C 708.837,44.365 709.67,47.1983 710.5,50C 706.365,51.4308 702.032,51.9308 697.5,51.5C 697.381,46.544 695.048,43.044 690.5,41C 679.829,36.6387 671.662,39.472 666,49.5C 662.968,58.899 664.468,67.399 670.5,75C 678.183,79.5872 685.85,79.5872 693.5,75C 695.209,73.0843 696.543,70.9176 697.5,68.5C 701.795,67.3391 706.129,67.1725 710.5,68C 707.007,82.5971 697.674,89.7638 682.5,89.5C 661.012,88.5051 650.845,77.1718 652,55.5C 653.156,41.5294 660.322,32.5294 673.5,28.5 Z"/></g>
<g><path style="opacity:1" fill="#ffffff" d="M 878.5,28.5 C 893.5,28.5 908.5,28.5 923.5,28.5C 923.5,32.1667 923.5,35.8333 923.5,39.5C 912.833,39.5 902.167,39.5 891.5,39.5C 891.5,43.8333 891.5,48.1667 891.5,52.5C 901.5,52.5 911.5,52.5 921.5,52.5C 921.5,56.1667 921.5,59.8333 921.5,63.5C 911.5,63.5 901.5,63.5 891.5,63.5C 891.5,68.1667 891.5,72.8333 891.5,77.5C 902.167,77.5 912.833,77.5 923.5,77.5C 923.5,81.1667 923.5,84.8333 923.5,88.5C 908.5,88.5 893.5,88.5 878.5,88.5C 878.5,68.5 878.5,48.5 878.5,28.5 Z"/></g>
<g><path style="opacity:1" fill="#e04446" d="M 347.5,30.5 C 320.833,30.5 294.167,30.5 267.5,30.5C 267.5,34.1667 267.5,37.8333 267.5,41.5C 278.679,41.1721 289.679,41.5054 300.5,42.5C 289.167,42.5 277.833,42.5 266.5,42.5C 266.5,38.1667 266.5,33.8333 266.5,29.5C 293.672,29.1688 320.672,29.5021 347.5,30.5 Z"/></g>
<g><path style="opacity:1" fill="#ffffff" d="M 718.5,28.5 C 728.839,28.3335 739.172,28.5002 749.5,29C 763.74,30.9373 769.573,39.1039 767,53.5C 765.384,59.4212 761.884,63.7545 756.5,66.5C 761.705,73.596 766.371,80.9294 770.5,88.5C 765.821,88.6658 761.155,88.4992 756.5,88C 752.043,81.586 747.709,75.086 743.5,68.5C 739.217,67.5078 734.884,67.1744 730.5,67.5C 730.5,74.5 730.5,81.5 730.5,88.5C 726.5,88.5 722.5,88.5 718.5,88.5C 718.5,68.5 718.5,48.5 718.5,28.5 Z M 730.5,39.5 C 736.842,39.3338 743.175,39.5005 749.5,40C 755.57,42.8397 757.07,47.3397 754,53.5C 752.581,54.4601 751.081,55.2935 749.5,56C 743.175,56.4995 736.842,56.6662 730.5,56.5C 730.5,50.8333 730.5,45.1667 730.5,39.5 Z"/></g>
<g><path style="opacity:1" fill="#ffffff" d="M 777.5,28.5 C 781.5,28.5 785.5,28.5 789.5,28.5C 789.5,48.5 789.5,68.5 789.5,88.5C 785.5,88.5 781.5,88.5 777.5,88.5C 777.5,68.5 777.5,48.5 777.5,28.5 Z"/></g>
<g><path style="opacity:1" fill="#ffffff" d="M 802.5,28.5 C 806.846,28.3343 811.179,28.501 815.5,29C 822.22,38.8168 828.386,48.9834 834,59.5C 840.375,49.2486 846.875,39.0819 853.5,29C 857.821,28.501 862.154,28.3343 866.5,28.5C 866.5,48.5 866.5,68.5 866.5,88.5C 862.5,88.5 858.5,88.5 854.5,88.5C 854.667,75.4957 854.5,62.4957 854,49.5C 847.969,59.5857 841.469,69.2523 834.5,78.5C 833.558,78.3918 832.725,78.0585 832,77.5C 826.251,67.6656 820.251,57.9989 814,48.5C 813.5,61.8292 813.333,75.1625 813.5,88.5C 809.5,88.5 805.5,88.5 801.5,88.5C 801.179,68.4241 801.513,48.4241 802.5,28.5 Z"/></g>
<g><path style="opacity:1" fill="#ffffff" d="M 960.5,28.5 C 964.5,28.5 968.5,28.5 972.5,28.5C 972.5,36.5 972.5,44.5 972.5,52.5C 982.167,52.5 991.833,52.5 1001.5,52.5C 1001.81,44.9129 1001.48,37.4129 1000.5,30C 1004.3,28.5761 1008.3,28.0761 1012.5,28.5C 1012.5,48.5 1012.5,68.5 1012.5,88.5C 1008.49,88.6655 1004.49,88.4988 1000.5,88C 1001.48,79.919 1001.82,71.7524 1001.5,63.5C 991.833,63.5 982.167,63.5 972.5,63.5C 972.5,71.8333 972.5,80.1667 972.5,88.5C 968.5,88.5 964.5,88.5 960.5,88.5C 960.5,68.5 960.5,48.5 960.5,28.5 Z"/></g>
<g><path style="opacity:1" fill="#ffffff" d="M 1080.5,48.5 C 1080.5,55.1667 1080.5,61.8333 1080.5,68.5C 1077.9,76.9392 1072.57,83.1059 1064.5,87C 1051.89,88.42 1039.23,88.92 1026.5,88.5C 1026.17,68.5907 1026.51,48.7573 1027.5,29C 1039.95,27.9529 1052.29,28.6195 1064.5,31C 1072.51,34.5029 1077.84,40.3362 1080.5,48.5 Z M 1038.5,39.5 C 1046.86,38.6238 1054.86,39.7905 1062.5,43C 1069.4,50.8535 1070.9,59.6869 1067,69.5C 1065.39,72.2366 1063.22,74.4033 1060.5,76C 1053.25,77.3905 1045.92,77.8905 1038.5,77.5C 1038.5,64.8333 1038.5,52.1667 1038.5,39.5 Z"/></g>
<g><path style="opacity:1" fill="#ffffff" d="M 54.5,30.5 C 73.8362,30.3334 93.1695,30.5 112.5,31C 128.481,34.1317 133.647,43.2983 128,58.5C 124.283,63.2814 119.449,66.4481 113.5,68C 120.98,74.9027 128.646,81.5693 136.5,88C 130.167,88.6667 123.833,88.6667 117.5,88C 109.872,82.0404 102.538,75.7071 95.5,69C 86.1726,68.5002 76.8393,68.3335 67.5,68.5C 67.5,75.1667 67.5,81.8333 67.5,88.5C 63.1667,88.5 58.8333,88.5 54.5,88.5C 54.5,69.1667 54.5,49.8333 54.5,30.5 Z"/></g>
<g><path style="opacity:1" fill="#ffffff" d="M 347.5,30.5 C 347.5,34.1667 347.5,37.8333 347.5,41.5C 336.167,41.5 324.833,41.5 313.5,41.5C 313.5,57.1667 313.5,72.8333 313.5,88.5C 309.167,88.5 304.833,88.5 300.5,88.5C 300.5,73.1667 300.5,57.8333 300.5,42.5C 289.679,41.5054 278.679,41.1721 267.5,41.5C 267.5,37.8333 267.5,34.1667 267.5,30.5C 294.167,30.5 320.833,30.5 347.5,30.5 Z"/></g>
<g><path style="opacity:1" fill="#ffffff" d="M 483.5,30.5 C 487.833,30.5 492.167,30.5 496.5,30.5C 496.5,46.1667 496.5,61.8333 496.5,77.5C 516.167,77.5 535.833,77.5 555.5,77.5C 555.5,81.1667 555.5,84.8333 555.5,88.5C 531.5,88.5 507.5,88.5 483.5,88.5C 483.5,69.1667 483.5,49.8333 483.5,30.5 Z"/></g>
<g><path style="opacity:1" fill="#ff5d02" d="M 68.5,41.5 C 83.2387,41.0502 97.9054,41.5502 112.5,43C 117.398,46.5216 117.731,50.5216 113.5,55C 112.255,55.7914 110.922,56.2914 109.5,56.5C 95.8333,56.5 82.1667,56.5 68.5,56.5C 68.5,51.5 68.5,46.5 68.5,41.5 Z"/></g>
<g><path style="opacity:1" fill="#eb7f80" d="M 347.5,41.5 C 336.679,42.4946 325.679,42.8279 314.5,42.5C 314.5,58.1667 314.5,73.8333 314.5,89.5C 309.637,89.8195 304.97,89.4861 300.5,88.5C 304.833,88.5 309.167,88.5 313.5,88.5C 313.5,72.8333 313.5,57.1667 313.5,41.5C 324.833,41.5 336.167,41.5 347.5,41.5 Z"/></g>
<g><path style="opacity:1" fill="#ff8440" d="M 68.5,41.5 C 68.5,46.5 68.5,51.5 68.5,56.5C 82.1667,56.5 95.8333,56.5 109.5,56.5C 95.6766,57.4958 81.6766,57.8291 67.5,57.5C 67.1786,51.9738 67.5119,46.6405 68.5,41.5 Z"/></g>
<g><path style="opacity:1" fill="#b176f6" d="M 483.5,30.5 C 483.5,49.8333 483.5,69.1667 483.5,88.5C 507.5,88.5 531.5,88.5 555.5,88.5C 531.339,89.4976 507.006,89.831 482.5,89.5C 482.17,69.6596 482.503,49.9929 483.5,30.5 Z"/></g>
</svg>
