<?xml version="1.0" encoding="UTF-8" standalone="no"?>
<svg
   xmlns:dc="http://purl.org/dc/elements/1.1/"
   xmlns:cc="http://creativecommons.org/ns#"
   xmlns:rdf="http://www.w3.org/1999/02/22-rdf-syntax-ns#"
   xmlns:svg="http://www.w3.org/2000/svg"
   xmlns="http://www.w3.org/2000/svg"
   viewBox="0 0 307.02667 114.6704"
   height="114.6704"
   width="307.02667"
   xml:space="preserve"
   id="svg2"
   version="1.1"><metadata
     id="metadata8"><rdf:RDF><cc:Work
         rdf:about=""><dc:format>image/svg+xml</dc:format><dc:type
           rdf:resource="http://purl.org/dc/dcmitype/StillImage" /></cc:Work></rdf:RDF></metadata><defs
     id="defs6"><clipPath
       id="clipPath18"
       clipPathUnits="userSpaceOnUse"><path
         id="path16"
         d="M 0,86.003 H 230.27 V 0 H 0 Z" /></clipPath></defs><g
     transform="matrix(1.3333333,0,0,-1.3333333,0,114.6704)"
     id="g10"><g
       id="g12"><g
         clip-path="url(#clipPath18)"
         id="g14"><g
           transform="translate(223.4245,86.0026)"
           id="g20"><path
             id="path22"
             style="fill:#e00f22;fill-opacity:1;fill-rule:nonzero;stroke:none"
             d="m 0,0 h -216.58 c -3.774,0 -6.844,-3.07 -6.844,-6.845 v -72.313 c 0,-3.774 3.07,-6.844 6.844,-6.844 H 0 c 3.774,0 6.846,3.07 6.846,6.844 V -6.845 C 6.846,-3.07 3.774,0 0,0" /></g><g
           transform="translate(47.1085,20.8527)"
           id="g24"><path
             id="path26"
             style="fill:#ffffff;fill-opacity:1;fill-rule:nonzero;stroke:none"
             d="m 0,0 h -10.236 c -0.769,0.667 -1.526,2.274 -1.571,3.165 -0.155,3.916 0.045,9.477 -0.214,12.207 -0.252,2.725 -0.842,4.495 -2.957,4.681 h -1.709 V 0 h -10.346 v 44.418 h 14.131 c 7.41,0 11.377,-2.598 11.377,-10.75 0,-6.417 -2.129,-7.614 -5.937,-9.619 v 0.004 c 2.531,-0.651 5.604,-2.797 5.751,-5.874 0.259,-3.542 -0.2,-11.782 0.324,-14.617 0,0 0.786,-2.813 1.387,-3.562 m -16.695,26.811 h 1.774 c 2.58,0 3.183,2.735 3.183,5.408 0,5.183 -1.872,5.427 -4.957,5.308 z" /></g><g
           transform="translate(43.8302,65.2712)"
           id="g28"><path
             id="path30"
             style="fill:#ffffff;fill-opacity:1;fill-rule:nonzero;stroke:none"
             d="M 0,0 H 24.12 V -7.367 H 17.073 V -44.418 H 6.855 v 37.051 l -6.855,0 z" /></g><g
           transform="translate(69.1891,20.8527)"
           id="g32"><path
             id="path34"
             style="fill:#ffffff;fill-opacity:1;fill-rule:nonzero;stroke:none"
             d="M 0,0 V 44.418 H 10.207 V 7.118 H 21.029 V 0 Z" /></g><path
           id="path36"
           style="fill:#ffffff;fill-opacity:1;fill-rule:nonzero;stroke:none"
           d="m 107.108,15.254 h -1.944 V 70.87 h 1.944 z" /><g
           transform="translate(137.1032,56.2775)"
           id="g38"><path
             id="path40"
             style="fill:#ffffff;fill-opacity:1;fill-rule:nonzero;stroke:none"
             d="M 0,0 C 0.545,0 0.778,-0.195 0.778,-0.739 V -2.41 C 0.778,-2.683 0.7,-2.916 0.623,-3.071 L -10.533,-23.205 H 0.662 c 0.505,0 0.738,-0.155 0.738,-0.698 v -1.789 c 0,-0.544 -0.233,-0.739 -0.738,-0.739 h -15.003 c -0.544,0 -0.74,0.195 -0.74,0.739 v 1.789 c 0,0.27 0.078,0.425 0.196,0.659 l 11.037,20.017 h -9.833 c -0.505,0 -0.738,0.193 -0.738,0.739 v 1.749 c 0,0.544 0.233,0.739 0.738,0.739 z" /></g><g
           transform="translate(161.8688,39.3683)"
           id="g42"><path
             id="path44"
             style="fill:#ffffff;fill-opacity:1;fill-rule:nonzero;stroke:none"
             d="M 0,0 C 0.388,-1.593 0.582,-3.187 0.621,-3.382 0.66,-3.187 0.972,-1.127 1.282,0 l 4.12,16.17 c 0.117,0.466 0.35,0.739 0.856,0.739 h 2.097 c 0.506,0 0.662,-0.233 0.545,-0.739 L 2.604,-8.783 C 2.487,-9.289 2.176,-9.521 1.671,-9.521 h -2.332 c -0.467,0 -0.738,0.272 -0.855,0.738 l -4.16,16.479 c -0.31,1.127 -0.466,2.76 -0.505,3.033 -0.038,-0.273 -0.31,-2.099 -0.544,-3.071 l -4.197,-16.441 c -0.117,-0.506 -0.389,-0.738 -0.894,-0.738 h -2.333 c -0.466,0 -0.738,0.272 -0.854,0.738 l -6.335,24.953 c -0.117,0.506 0.038,0.739 0.582,0.739 h 2.41 c 0.505,0 0.778,-0.273 0.894,-0.739 L -13.41,0 c 0.272,-1.127 0.621,-3.031 0.621,-3.031 0,0 0.196,1.245 0.662,3.031 l 4.119,16.17 c 0.117,0.466 0.351,0.739 0.856,0.739 h 2.215 c 0.544,0 0.777,-0.273 0.895,-0.739 z" /></g><g
           transform="translate(175.4411,29.8469)"
           id="g46"><path
             id="path48"
             style="fill:#ffffff;fill-opacity:1;fill-rule:nonzero;stroke:none"
             d="m 0,0 c -0.505,0 -0.699,0.232 -0.699,0.776 v 24.876 c 0,0.545 0.194,0.779 0.699,0.779 h 13.293 c 0.505,0 0.738,-0.196 0.738,-0.74 v -1.748 c 0,-0.546 -0.233,-0.739 -0.738,-0.739 H 3.071 v -7.851 h 9.522 c 0.545,0 0.778,-0.195 0.778,-0.739 v -1.671 c 0,-0.505 -0.233,-0.739 -0.778,-0.739 H 3.071 V 3.226 H 13.72 c 0.506,0 0.739,-0.156 0.739,-0.699 V 0.738 C 14.459,0.194 14.226,0 13.72,0 Z" /></g><g
           transform="translate(195.6178,29.8469)"
           id="g50"><path
             id="path52"
             style="fill:#ffffff;fill-opacity:1;fill-rule:nonzero;stroke:none"
             d="m 0,0 c -0.504,0 -0.698,0.232 -0.698,0.776 v 24.876 c 0,0.545 0.194,0.779 0.698,0.779 h 13.294 c 0.505,0 0.737,-0.196 0.737,-0.74 v -1.748 c 0,-0.546 -0.232,-0.739 -0.737,-0.739 H 3.071 v -7.851 h 9.523 c 0.545,0 0.777,-0.195 0.777,-0.739 v -1.671 c 0,-0.505 -0.232,-0.739 -0.777,-0.739 H 3.071 V 3.226 h 10.65 c 0.506,0 0.739,-0.156 0.739,-0.699 V 0.738 C 14.46,0.194 14.227,0 13.721,0 Z" /></g></g></g></g></svg>