<?xml version="1.0" encoding="UTF-8"?>
<!DOCTYPE svg PUBLIC "-//W3C//DTD SVG 1.1//EN" "http://www.w3.org/Graphics/SVG/1.1/DTD/svg11.dtd">
<svg xmlns="http://www.w3.org/2000/svg" version="1.1" width="749px" height="86px" style="shape-rendering:geometricPrecision; text-rendering:geometricPrecision; image-rendering:optimizeQuality; fill-rule:evenodd; clip-rule:evenodd" xmlns:xlink="http://www.w3.org/1999/xlink">
<g><path style="opacity:1" fill="#edc00f" d="M 7.5,0.5 C 57.5,0.5 107.5,0.5 157.5,0.5C 157.5,28.5 157.5,56.5 157.5,84.5C 107.5,84.5 57.5,84.5 7.5,84.5C 7.5,56.5 7.5,28.5 7.5,0.5 Z"/></g>
<g><path style="opacity:1" fill="#ec33ec" d="M 172.5,0.5 C 222.167,0.5 271.833,0.5 321.5,0.5C 321.5,28.5 321.5,56.5 321.5,84.5C 271.833,84.5 222.167,84.5 172.5,84.5C 172.5,56.5 172.5,28.5 172.5,0.5 Z"/></g>
<g><path style="opacity:1" fill="#ff5c01" d="M 336.5,0.5 C 386.5,0.5 436.5,0.5 486.5,0.5C 486.5,28.5 486.5,56.5 486.5,84.5C 436.5,84.5 386.5,84.5 336.5,84.5C 336.5,56.5 336.5,28.5 336.5,0.5 Z"/></g>
<g><path style="opacity:1" fill="#ffffff" d="M 516.5,18.5 C 519.5,18.5 522.5,18.5 525.5,18.5C 525.5,31.5 525.5,44.5 525.5,57.5C 533.174,57.3336 540.841,57.5003 548.5,58C 549.444,60.7191 549.777,63.5525 549.5,66.5C 538.5,66.5 527.5,66.5 516.5,66.5C 516.5,50.5 516.5,34.5 516.5,18.5 Z"/></g>
<g><path style="opacity:1" fill="#ffffff" d="M 556.5,18.5 C 559.448,18.2229 562.281,18.5562 565,19.5C 565.824,35.0744 565.657,50.5744 564.5,66C 561.571,66.7772 558.737,66.6105 556,65.5C 555.183,49.7591 555.35,34.0924 556.5,18.5 Z"/></g>
<g><path style="opacity:1" fill="#ffffff" d="M 571.5,18.5 C 574.777,18.2161 577.943,18.5495 581,19.5C 585.055,31.2759 589.389,42.9425 594,54.5C 598.167,42.8333 602.333,31.1667 606.5,19.5C 609.768,18.513 613.102,18.1796 616.5,18.5C 611.193,34.5871 605.193,50.4204 598.5,66C 595.5,66.6667 592.5,66.6667 589.5,66C 582.409,50.5587 576.409,34.7254 571.5,18.5 Z"/></g>
<g><path style="opacity:1" fill="#ffffff" d="M 623.5,18.5 C 626.167,18.5 628.833,18.5 631.5,18.5C 631.5,34.5 631.5,50.5 631.5,66.5C 628.552,66.7771 625.719,66.4438 623,65.5C 622.183,49.7591 622.35,34.0924 623.5,18.5 Z"/></g>
<g><path style="opacity:1" fill="#ffffff" d="M 644.5,18.5 C 647.85,18.335 651.183,18.5017 654.5,19C 661.791,29.7476 668.958,40.5809 676,51.5C 676.5,40.505 676.667,29.505 676.5,18.5C 679.5,18.5 682.5,18.5 685.5,18.5C 685.5,34.5 685.5,50.5 685.5,66.5C 681.894,66.7892 678.394,66.4558 675,65.5C 668,54.8333 661,44.1667 654,33.5C 653.5,44.495 653.333,55.495 653.5,66.5C 650.5,66.5 647.5,66.5 644.5,66.5C 644.5,50.5 644.5,34.5 644.5,18.5 Z"/></g>
<g><path style="opacity:1" fill="#ffffff" d="M 711.5,18.5 C 720.301,17.0976 728.135,19.0976 735,24.5C 737.312,27.4573 738.812,30.7907 739.5,34.5C 736.554,35.6548 733.554,35.8214 730.5,35C 726.195,26.5966 719.529,24.2632 710.5,28C 701.167,37.6667 701.167,47.3333 710.5,57C 717.528,59.8186 723.694,58.6519 729,53.5C 730.009,51.9751 730.509,50.3084 730.5,48.5C 726.833,48.5 723.167,48.5 719.5,48.5C 719.5,45.8333 719.5,43.1667 719.5,40.5C 726.167,40.5 732.833,40.5 739.5,40.5C 739.519,62.294 728.853,70.4607 707.5,65C 696.701,58.5567 692.534,49.0567 695,36.5C 696.942,27.0646 702.442,21.0646 711.5,18.5 Z"/></g>
<g><path style="opacity:1" fill="#f173f1" d="M 277.5,28.5 C 277.5,25.8333 277.5,23.1667 277.5,20.5C 257.167,20.5 236.833,20.5 216.5,20.5C 216.5,23.1667 216.5,25.8333 216.5,28.5C 215.523,25.7131 215.19,22.7131 215.5,19.5C 236.5,19.5 257.5,19.5 278.5,19.5C 278.81,22.7131 278.477,25.7131 277.5,28.5 Z"/></g>
<g><path style="opacity:1" fill="#fefdfa" d="M 50.5,20.5 C 65.5037,20.3334 80.5037,20.5001 95.5,21C 107.385,24.0148 110.885,31.1814 106,42.5C 102.886,45.3061 99.3862,47.4728 95.5,49C 101.167,54 106.833,59 112.5,64C 107.833,64.6667 103.167,64.6667 98.5,64C 92.8333,59 87.1667,54 81.5,49C 74.2529,48.1877 67.0862,48.3544 60,49.5C 59.5007,54.4889 59.3341,59.4889 59.5,64.5C 56.5,64.5 53.5,64.5 50.5,64.5C 50.5,49.8333 50.5,35.1667 50.5,20.5 Z"/></g>
<g><path style="opacity:1" fill="#fefefe" d="M 277.5,28.5 C 268.833,28.5 260.167,28.5 251.5,28.5C 251.5,40.5 251.5,52.5 251.5,64.5C 248.5,64.5 245.5,64.5 242.5,64.5C 242.828,52.3217 242.495,40.3217 241.5,28.5C 233.167,28.5 224.833,28.5 216.5,28.5C 216.5,25.8333 216.5,23.1667 216.5,20.5C 236.833,20.5 257.167,20.5 277.5,20.5C 277.5,23.1667 277.5,25.8333 277.5,28.5 Z"/></g>
<g><path style="opacity:1" fill="#fffbf9" d="M 393.5,19.5 C 393.5,31.8333 393.5,44.1667 393.5,56.5C 408.833,56.5 424.167,56.5 439.5,56.5C 439.5,59.5 439.5,62.5 439.5,65.5C 420.833,65.5 402.167,65.5 383.5,65.5C 383.5,50.1667 383.5,34.8333 383.5,19.5C 386.833,19.5 390.167,19.5 393.5,19.5 Z"/></g>
<g><path style="opacity:1" fill="#edc013" d="M 60.5,28.5 C 71.8382,28.3335 83.1716,28.5001 94.5,29C 99.8333,32.6667 99.8333,36.3333 94.5,40C 83.1716,40.4999 71.8382,40.6665 60.5,40.5C 60.5,36.5 60.5,32.5 60.5,28.5 Z"/></g>
<g><path style="opacity:1" fill="#f06af0" d="M 241.5,28.5 C 242.495,40.3217 242.828,52.3217 242.5,64.5C 245.5,64.5 248.5,64.5 251.5,64.5C 248.375,65.4794 245.042,65.8128 241.5,65.5C 241.5,53.1667 241.5,40.8333 241.5,28.5 Z"/></g>
<g><path style="opacity:1" fill="#ff7f38" d="M 393.5,19.5 C 394.495,31.3217 394.828,43.3217 394.5,55.5C 409.676,55.1706 424.676,55.5039 439.5,56.5C 424.167,56.5 408.833,56.5 393.5,56.5C 393.5,44.1667 393.5,31.8333 393.5,19.5 Z"/></g>
</svg>
