<?xml version="1.0" encoding="UTF-8"?>
<!DOCTYPE svg PUBLIC "-//W3C//DTD SVG 1.1//EN" "http://www.w3.org/Graphics/SVG/1.1/DTD/svg11.dtd">
<svg xmlns="http://www.w3.org/2000/svg" version="1.1" width="2375px" height="333px" style="shape-rendering:geometricPrecision; text-rendering:geometricPrecision; image-rendering:optimizeQuality; fill-rule:evenodd; clip-rule:evenodd" xmlns:xlink="http://www.w3.org/1999/xlink">
<g><path style="opacity:0.995" fill="#0c75ed" d="M -0.5,-0.5 C 196.833,-0.5 394.167,-0.5 591.5,-0.5C 591.5,110.5 591.5,221.5 591.5,332.5C 394.167,332.5 196.833,332.5 -0.5,332.5C -0.5,221.5 -0.5,110.5 -0.5,-0.5 Z"/></g>
<g><path style="opacity:0.998" fill="#d4000d" d="M 649.5,-0.5 C 846.5,-0.5 1043.5,-0.5 1240.5,-0.5C 1240.5,110.5 1240.5,221.5 1240.5,332.5C 1043.5,332.5 846.5,332.5 649.5,332.5C 649.5,221.5 649.5,110.5 649.5,-0.5 Z"/></g>
<g><path style="opacity:0.995" fill="#ff8a00" d="M 1298.5,-0.5 C 1495.83,-0.5 1693.17,-0.5 1890.5,-0.5C 1890.5,110.5 1890.5,221.5 1890.5,332.5C 1693.17,332.5 1495.83,332.5 1298.5,332.5C 1298.5,221.5 1298.5,110.5 1298.5,-0.5 Z"/></g>
<g><path style="opacity:0.963" fill="#f9faf6" d="M 2007.5,75.5 C 2018.83,75.5 2030.17,75.5 2041.5,75.5C 2041.5,99.8333 2041.5,124.167 2041.5,148.5C 2071.17,148.5 2100.83,148.5 2130.5,148.5C 2130.5,124.167 2130.5,99.8333 2130.5,75.5C 2141.83,75.5 2153.17,75.5 2164.5,75.5C 2164.5,135.833 2164.5,196.167 2164.5,256.5C 2153.17,256.5 2141.83,256.5 2130.5,256.5C 2130.5,230.5 2130.5,204.5 2130.5,178.5C 2100.83,178.5 2071.17,178.5 2041.5,178.5C 2041.5,204.5 2041.5,230.5 2041.5,256.5C 2030.17,256.5 2018.83,256.5 2007.5,256.5C 2007.5,196.167 2007.5,135.833 2007.5,75.5 Z"/></g>
<g><path style="opacity:0.97" fill="#f9faf6" d="M 2374.5,156.5 C 2374.5,162.833 2374.5,169.167 2374.5,175.5C 2371.5,210.336 2354.16,235.169 2322.5,250C 2313.13,253.408 2303.46,255.408 2293.5,256C 2265.84,256.5 2238.17,256.667 2210.5,256.5C 2210.5,196.167 2210.5,135.833 2210.5,75.5C 2237.84,75.3334 2265.17,75.5 2292.5,76C 2341.83,80.4945 2369.16,107.328 2374.5,156.5 Z M 2244.5,105.5 C 2260.5,105.333 2276.5,105.5 2292.5,106C 2318.86,109.439 2334.36,124.273 2339,150.5C 2343.21,172.466 2338.88,192.466 2326,210.5C 2317.08,219.544 2306.24,224.71 2293.5,226C 2277.17,226.5 2260.84,226.667 2244.5,226.5C 2244.5,186.167 2244.5,145.833 2244.5,105.5 Z"/></g>
<g><path style="opacity:1" fill="#fdfdfe" d="M 421.5,254.5 C 402.341,255.497 383.007,255.83 363.5,255.5C 339.491,235.48 315.824,214.98 292.5,194C 264.835,193.5 237.169,193.333 209.5,193.5C 208.503,213.993 208.169,234.66 208.5,255.5C 194.833,255.5 181.167,255.5 167.5,255.5C 167.5,195.833 167.5,136.167 167.5,76.5C 225.501,76.3333 283.501,76.5 341.5,77C 388.648,83.7934 406.815,110.293 396,156.5C 390.5,170 381,179.5 367.5,185C 360.63,187.467 353.63,189.467 346.5,191C 371.691,212.031 396.691,233.198 421.5,254.5 Z"/></g>
<g><path style="opacity:1" fill="#fefffe" d="M 924.5,255.5 C 924.5,207.5 924.5,159.5 924.5,111.5C 889.833,111.5 855.167,111.5 820.5,111.5C 820.5,99.8333 820.5,88.1667 820.5,76.5C 903.5,76.5 986.5,76.5 1069.5,76.5C 1069.5,88.1667 1069.5,99.8333 1069.5,111.5C 1034.83,111.5 1000.17,111.5 965.5,111.5C 965.5,159.5 965.5,207.5 965.5,255.5C 951.833,255.5 938.167,255.5 924.5,255.5 Z"/></g>
<g><path style="opacity:1" fill="#fffefe" d="M 1523.5,76.5 C 1523.5,124.5 1523.5,172.5 1523.5,220.5C 1584.5,220.5 1645.5,220.5 1706.5,220.5C 1706.5,232.167 1706.5,243.833 1706.5,255.5C 1631.83,255.5 1557.17,255.5 1482.5,255.5C 1482.5,195.833 1482.5,136.167 1482.5,76.5C 1496.17,76.5 1509.83,76.5 1523.5,76.5 Z"/></g>
<g><path style="opacity:1" fill="#0c75ed" d="M 209.5,110.5 C 250.501,110.333 291.501,110.5 332.5,111C 353.733,113.645 361.233,125.145 355,145.5C 352.448,149.719 348.948,152.886 344.5,155C 339.362,157.118 334.029,158.285 328.5,158.5C 288.833,158.5 249.167,158.5 209.5,158.5C 209.5,142.5 209.5,126.5 209.5,110.5 Z"/></g>
<g><path style="opacity:1" fill="#df404a" d="M 820.5,111.5 C 855.167,111.5 889.833,111.5 924.5,111.5C 924.5,159.5 924.5,207.5 924.5,255.5C 923.501,208.003 923.168,160.336 923.5,112.5C 888.996,112.832 854.663,112.498 820.5,111.5 Z"/></g>
<g><path style="opacity:1" fill="#5ba0f3" d="M 209.5,110.5 C 209.5,126.5 209.5,142.5 209.5,158.5C 249.167,158.5 288.833,158.5 328.5,158.5C 288.67,159.499 248.67,159.832 208.5,159.5C 208.17,142.991 208.504,126.658 209.5,110.5 Z"/></g>
<g><path style="opacity:1" fill="#85b9f5" d="M 209.5,193.5 C 209.5,214.5 209.5,235.5 209.5,256.5C 195.323,256.829 181.323,256.496 167.5,255.5C 181.167,255.5 194.833,255.5 208.5,255.5C 208.169,234.66 208.503,213.993 209.5,193.5 Z"/></g>
<g><path style="opacity:1" fill="#ffb054" d="M 1523.5,76.5 C 1524.5,123.997 1524.83,171.664 1524.5,219.5C 1585.34,219.168 1646,219.501 1706.5,220.5C 1645.5,220.5 1584.5,220.5 1523.5,220.5C 1523.5,172.5 1523.5,124.5 1523.5,76.5 Z"/></g>
<g><path style="opacity:1" fill="#86b9f5" d="M 421.5,254.5 C 422.289,254.783 422.956,255.283 423.5,256C 403.329,256.829 383.329,256.662 363.5,255.5C 383.007,255.83 402.341,255.497 421.5,254.5 Z"/></g>
</svg>
