<svg xmlns="http://www.w3.org/2000/svg" width="381" height="40" style="shape-rendering:geometricPrecision;text-rendering:geometricPrecision;image-rendering:optimizeQuality;fill-rule:evenodd;clip-rule:evenodd"><path style="opacity:.008" fill="#b8b8b8" d="M204.5-.5h9c-3 1.333-6 1.333-9 0z"/><path style="opacity:.008" fill="#fefffe" d="M214.5-.5h2c-.667 1.333-1.333 1.333-2 0zM217.5-.5h3c-1 1.333-2 1.333-3 0zM221.5-.5h17c-3.141.821-6.475 1.321-10 1.5 3.382.176 6.715.676 10 1.5l-.5 1c-6.102-1.124-12.602-1.124-19.5 0l-1-1a52.197 52.197 0 0 1 10-1.5c-2.208-.19-4.208-.69-6-1.5zM239.5-.5h2c-.667 1.333-1.333 1.333-2 0zM242.5-.5h13c-.418.722-1.084 1.222-2 1.5 38 .667 76 .667 114 0-2.865-.183-5.531-.683-8-1.5h17c-2.469.817-5.135 1.317-8 1.5 3.986.499 7.986.666 12 .5v1c-47.286.417-93.119.75-137.5 1l-.5-1a52.197 52.197 0 0 1 10-1.5c-3.525-.179-6.859-.679-10-1.5z"/><path style="opacity:.008" fill="#fefffe" d="M256.5-.5h2c-.667 1.333-1.333 1.333-2 0zM259.5-.5h23a66.625 66.625 0 0 1-23 0zM283.5-.5h38a181 181 0 0 1-38 0zM322.5-.5h2c-.667 1.333-1.333 1.333-2 0zM325.5-.5h2c-.667 1.333-1.333 1.333-2 0zM328.5-.5h2c-.667 1.333-1.333 1.333-2 0zM331.5-.5h2c-.667 1.333-1.333 1.333-2 0zM334.5-.5h4c-1.333 1.333-2.667 1.333-4 0zM339.5-.5h2c-.667 1.333-1.333 1.333-2 0zM342.5-.5h2c-.667 1.333-1.333 1.333-2 0zM345.5-.5h1c-.185.67-.519.67-1 0zM347.5-.5h5c-1.667 1.333-3.333 1.333-5 0zM353.5-.5h2c-.667 1.333-1.333 1.333-2 0zM356.5-.5h2c-.667 1.333-1.333 1.333-2 0zM377.5-.5h3v1c-1.291.237-2.291-.096-3-1z"/><path style="opacity:.008" d="M207.5 1.5v1c-.997 1.213-1.997 1.046-3-.5a4.932 4.932 0 0 1 3-.5z"/><path style="opacity:.008" fill="#fefffe" d="M207.5 2.5v-1a9.865 9.865 0 0 1 6 1c-1.846.96-3.846.96-6 0zM214.5 1.5c2.501.01 2.668.678.5 2a2.429 2.429 0 0 1-.5-2zM239.5 1.5c2.501.01 2.668.678.5 2a2.429 2.429 0 0 1-.5-2z"/><path style="opacity:1" fill="#aa4994" d="M2.5 3.5h61v33h-61v-33z"/><path style="opacity:1" fill="#29a736" d="M138.5 3.5h60v33h-60v-33z"/><path style="opacity:.008" d="M204.5 5.5c.751-1.073 1.751-1.24 3-.5a4.932 4.932 0 0 1-3 .5z"/><path style="opacity:.008" fill="#fefffe" d="M208.5 5.5c1.446-1.113 3.113-1.28 5-.5-1.634.494-3.301.66-5 .5zM214.5 5.5c.397-1.025 1.063-1.192 2-.5a2.427 2.427 0 0 1-2 .5zM217.5 5.5c.397-1.025 1.063-1.192 2-.5a2.427 2.427 0 0 1-2 .5zM220.5 5.5c.397-1.025 1.063-1.192 2-.5a2.427 2.427 0 0 1-2 .5zM223.5 5.5c.751-1.073 1.751-1.24 3-.5a4.932 4.932 0 0 1-3 .5zM227.5 4.5c1.333.667 1.333.667 0 0zM229.5 5.5c.751-1.073 1.751-1.24 3-.5a4.932 4.932 0 0 1-3 .5zM233.5 5.5c1.446-1.113 3.113-1.28 5-.5-1.634.494-3.301.66-5 .5zM239.5 5.5c.397-1.025 1.063-1.192 2-.5a2.427 2.427 0 0 1-2 .5zM242.5 5.5c.397-1.025 1.063-1.192 2-.5a2.427 2.427 0 0 1-2 .5zM245.5 5.5c.397-1.025 1.063-1.192 2-.5a2.427 2.427 0 0 1-2 .5zM248.5 5.5c.397-1.025 1.063-1.192 2-.5a2.427 2.427 0 0 1-2 .5zM252.5 4.5c1.333.667 1.333.667 0 0z"/><path style="opacity:.415" fill="#fefefe" d="M380.5 4.5v6c-2.16-.51-4.16-.51-6 0 1.789 1.533 3.789 2.533 6 3v4c-1.333.333-1.333.667 0 1v1c-1.333.333-1.333.667 0 1v1c-1.333.667-1.333 1.333 0 2v1c-2.667.333-2.667.667 0 1v1c-4 .333-4 .667 0 1v2c-24.957.05-49.79-.283-74.5-1a11.357 11.357 0 0 1-3.5 1.5l22 1-30 1a244.18 244.18 0 0 1 22 1.5l-1 1c-7.376-.581-14.543-.581-21.5 0-1.487-.753-1.654-1.586-.5-2.5a12.935 12.935 0 0 0-5-.5 4.934 4.934 0 0 1-.5 3l-13-1a6.802 6.802 0 0 1-1.5 3c.204-1.03-.296-2.03-1.5-3-1.145.12-2.312.452-3.5 1a32.054 32.054 0 0 0-4-1 266.659 266.659 0 0 1 23-1.5 474.586 474.586 0 0 1-31-1.5l-3 1.5c3.382.176 6.715.676 10 1.5l-1 1c-5.599-.772-11.599-.939-18-.5-2.378-.974-2.044-1.641 1-2l-3-1a40.939 40.939 0 0 1 9-.5 631.308 631.308 0 0 0-12.5-2c-6.895 1.174-14.062 1.174-21.5 0 1.141-.925 1.141-1.759 0-2.5a42.717 42.717 0 0 0 9-1.5c.797-3.64-.203-3.974-3-1a29.96 29.96 0 0 1-6.5 0l-1.5 1.5c.88 1.356 1.214 2.856 1 4.5-3.154-.595-6.154-.595-9 0v-2a8.435 8.435 0 0 0 4-.5l-7-1c2.227-.121 4.06-.954 5.5-2.5l1 2c.667-1.333.667-2.667 0-4-1.145 1.184-2.312 1.184-3.5 0v-1c2.667-.333 2.667-.667 0-1v-1a8.435 8.435 0 0 0 4-.5c-1.558-.21-2.891-.71-4-1.5v-1c2.667-.333 2.667-.667 0-1v-1a8.435 8.435 0 0 0 4-.5l-7-1c2.871-.118 5.538-.784 8-2-1.68.771-3.347.604-5-.5v-1a2.427 2.427 0 0 0 2-.5l-5-1c3-.667 6-.667 9 0l-3 1a8.189 8.189 0 0 1 4 2.5l1-2 2 2c1.196-.346 1.196-.846 0-1.5 6.667-.667 6.667-1.333 0-2 7-.667 14-.667 21 0l-2 1c1.397 1.31 2.397 2.81 3 4.5 1.702 2.3 2.368 4.967 2 8 7.031-.019 7.364-.519 1-1.5 5.294-.818 5.294-1.318 0-1.5v-4c5.294-.182 5.294-.682 0-1.5a20.211 20.211 0 0 0 6-1.5 38.186 38.186 0 0 0-4.5 0L242.5 9c6.667-.667 6.667-1.333 0-2 4.482.063 8.648-.77 12.5-2.5 1.77 1.918 3.937 2.418 6.5 1.5l-2-1a30.5 30.5 0 0 1 11 0l-8 1a72.5 72.5 0 0 0 17 0c-1.196-.654-1.196-1.154 0-1.5l10 4c1.196-.346 1.196-.846 0-1.5 2.402-.678 4.568-.178 6.5 1.5 1.762-.444 1.595-.944-.5-1.5l21.5-.5c7.569.019 14.903.685 22 2 7.23-1.782 14.73-2.615 22.5-2.5l-2-1c4-.667 8-.667 12 0-11.473.778-11.639 1.278-.5 1.5l8.5-.5c-1.212-1.107-.879-1.607 1-1.5zm-148 6c-1.519.878-2.353 1.878-2.5 3-1.722-.11-1.888-.61-.5-1.5l-5-1a4.451 4.451 0 0 1 2-1.5c1.943-.035 3.943.298 6 1zm34 0c-2.524 1.3-5.191 1.3-8 0 2.331-.336 4.998-.336 8 0zm11-1c1.188 1.184 2.355 1.184 3.5 0 1.119 1.052 1.619 2.219 1.5 3.5-1.415-.634-3.415-1.3-6-2 .556-.383.889-.883 1-1.5zm17 1c-1.452.802-3.118 1.302-5 1.5l2 1c-1.167.5-2 1.333-2.5 2.5a9.457 9.457 0 0 0-1.5-2.5c-.119-1.281.381-2.448 1.5-3.5 1.829.065 3.662.398 5.5 1zm11-1c2.027.625 3.86.625 5.5 0 1.779 1.517 1.279 2.35-1.5 2.5l3 1c-1.667.667-3.333.667-5 0l1-1c-1.619-.236-2.619-1.069-3-2.5zm14 0c1.742.152 3.576.152 5.5 0a8.43 8.43 0 0 1 .5 4c-7.031-.019-7.364-.519-1-1.5l-6-1c.556-.383.889-.883 1-1.5zm11 0c2.884 1.098 5.717 1.098 8.5 0 1.119 1.052 1.619 2.219 1.5 3.5a9.457 9.457 0 0 0-1.5 2.5c-2.48-1.666-5.313-2.5-8.5-2.5l3-1c-1.619-.236-2.619-1.069-3-2.5zm14 0c2.759 1.238 5.593 1.238 8.5 0 .667 2 .667 4 0 6-2.456-1.821-5.289-2.488-8.5-2v-4zm14 0c.897 1.098 1.73 1.098 2.5 0 .456 1.244-.044 2.077-1.5 2.5l2 1c-1.333.667-2.667.667-4 0 .119-1.145.452-2.312 1-3.5zm-97 4c.886-1.276 1.886-1.276 3 0-.733.587-1.733.587-3 0zm-45 1c.904.709 1.237 1.709 1 3 1.699-.16 3.366.006 5 .5a20.438 20.438 0 0 0-5.5 1.5l-1.5-1.5c.837-1.011 1.17-2.178 1-3.5zm39 3c.06-.543.393-.876 1-1 2.609.73 5.276 1.23 8 1.5-3.092.736-6.092.57-9-.5zm40-1c2.541 1.149 5.041 1.149 7.5 0a9.465 9.465 0 0 0 2.5 1.5 30.499 30.499 0 0 1-11 0c.556-.383.889-.883 1-1.5zm29 0c.543.06.876.393 1 1-.865 1.083-1.865 1.25-3 .5.916-.278 1.582-.778 2-1.5zm6 0c3.338.336 6.671.67 10 1l-5 1c-2.14-.056-3.806-.723-5-2zm28 0c3.873 1.654 3.54 2.154-1 1.5.556-.383.889-.883 1-1.5zm10 0c2.102.07 4.102.57 6 1.5-3 .667-6 .667-9 0 1.237-.232 2.237-.732 3-1.5zm-2 4c1.788-1.122 3.788-1.29 6-.5-1.456.423-1.956 1.256-1.5 2.5 1.183-1.231 2.349-1.231 3.5 0-2.474 2.635-5.474 3.468-9 2.5l1-3c1.238.077 2.238-.09 3-.5-.825-.886-1.825-1.219-3-1zm-123 1c1.086.12 1.753.787 2 2l-1 2c.124-1.11-.209-2.444-1-4zm6 1c3.145-1.043 5.812-.21 8 2.5a12.5 12.5 0 0 1-7 0l5-1c-2.208-.19-4.208-.69-6-1.5zm17 0c2.535-.915 5.535-.915 9 0v3c-3.435.188-6.435-.812-9-3zm14-1c.876-.13 1.543.203 2 1-.603 1.135-.936 2.135-1 3-.929-1.189-1.262-2.522-1-4zm8 0a19.588 19.588 0 0 1 2 3.5c-1 .667-2 .667-3 0 .119-1.145.452-2.311 1-3.5zm16 1c-1.947 2.934-4.614 3.601-8 2a44.147 44.147 0 0 1-1-2c3.264-.965 6.264-.965 9 0zm6-1c.876-.13 1.543.203 2 1-.603 1.135-.936 2.135-1 3-1.676-1.228-2.009-2.56-1-4zm7 0c2.657.76 3.657 2.26 3 4.5l3 1c-1.667.667-3.333.667-5 0 1.134-1.016.801-1.683-1-2l2-1c-1.256-.417-1.923-1.25-2-2.5zm13 0c2.884 1.098 5.717 1.098 8.5 0l1.5 1.5c-1.333.667-1.333 1.333 0 2-2.249.863-4.082.363-5.5-1.5-1.049 1.607-2.549 2.273-4.5 2v-4zm14 0c2.837.065 5.67.065 8.5 0a8.43 8.43 0 0 1 .5 4 32.438 32.438 0 0 0-8 .5c3.726 1.043 3.393 1.543-1 1.5v-6zm13 0h4v4a8.435 8.435 0 0 1-4-.5c.671-.986.671-2.153 0-3.5zm-101 9a36.28 36.28 0 0 1 4.5-2c2.588.31 5.421.81 8.5 1.5a84.94 84.94 0 0 1-13 .5zm21-2c4.835 1.286 9.668 1.286 14.5 0a20.438 20.438 0 0 0 5.5 1.5c-7.667.667-15.333.667-23 0 1.237-.232 2.237-.732 3-1.5zm-26 2c.543.06.876.393 1 1-1.921 1.141-3.921 1.308-6 .5 1.882-.198 3.548-.698 5-1.5z"/><path style="opacity:.008" fill="#fefffe" d="M256.5 5.5c.397-1.025 1.063-1.192 2-.5a2.427 2.427 0 0 1-2 .5zM272.5 5.5c.397-1.025 1.063-1.192 2-.5a2.427 2.427 0 0 1-2 .5zM275.5 5.5c.397-1.025 1.063-1.192 2-.5a2.427 2.427 0 0 1-2 .5zM281.5 5.5c.397-1.025 1.063-1.192 2-.5a2.427 2.427 0 0 1-2 .5zM284.5 4.5c1.333.667 1.333.667 0 0zM286.5 5.5c.397-1.025 1.063-1.192 2-.5a2.427 2.427 0 0 1-2 .5zM289.5 5.5c.397-1.025 1.063-1.192 2-.5a2.427 2.427 0 0 1-2 .5zM292.5 5.5c.397-1.025 1.063-1.192 2-.5a2.427 2.427 0 0 1-2 .5zM295.5 4.5c1.333.667 1.333.667 0 0zM297.5 5.5c.397-1.025 1.063-1.192 2-.5a2.427 2.427 0 0 1-2 .5zM300.5 5.5c.397-1.025 1.063-1.192 2-.5a2.427 2.427 0 0 1-2 .5zM303.5 5.5c.397-1.025 1.063-1.192 2-.5a2.427 2.427 0 0 1-2 .5zM306.5 5.5c.397-1.025 1.063-1.192 2-.5a2.427 2.427 0 0 1-2 .5zM309.5 5.5c1.446-1.113 3.113-1.28 5-.5-1.634.494-3.301.66-5 .5zM315.5 5.5c1.788-1.122 3.788-1.29 6-.5a18.438 18.438 0 0 1-6 .5zM322.5 5.5c.397-1.025 1.063-1.192 2-.5a2.427 2.427 0 0 1-2 .5zM325.5 4.5c1.333.667 1.333.667 0 0zM328.5 5.5c.397-1.025 1.063-1.192 2-.5a2.427 2.427 0 0 1-2 .5zM331.5 5.5c.397-1.025 1.063-1.192 2-.5a2.427 2.427 0 0 1-2 .5zM334.5 4.5c1.333.667 1.333.667 0 0zM336.5 5.5c.397-1.025 1.063-1.192 2-.5a2.427 2.427 0 0 1-2 .5zM339.5 5.5c.397-1.025 1.063-1.192 2-.5a2.427 2.427 0 0 1-2 .5zM342.5 5.5c.397-1.025 1.063-1.192 2-.5a2.427 2.427 0 0 1-2 .5zM345.5 4.5c1.333.667 1.333.667 0 0zM347.5 5.5c.397-1.025 1.063-1.192 2-.5a2.427 2.427 0 0 1-2 .5zM350.5 5.5c.397-1.025 1.063-1.192 2-.5a2.427 2.427 0 0 1-2 .5zM353.5 5.5c.397-1.025 1.063-1.192 2-.5a2.427 2.427 0 0 1-2 .5zM357.5 4.5c1.333.667 1.333.667 0 0zM372.5 5.5c.397-1.025 1.063-1.192 2-.5a2.427 2.427 0 0 1-2 .5zM375.5 4.5c1.333.667 1.333.667 0 0zM214.5 7.5c.397-1.025 1.063-1.192 2-.5a2.427 2.427 0 0 1-2 .5zM239.5 7.5c.397-1.025 1.063-1.192 2-.5a2.427 2.427 0 0 1-2 .5z"/><path style="opacity:.008" d="M207.5 8.5v1c.065.438-.101.772-.5 1-3.41-1.374-3.243-2.04.5-2z"/><path style="opacity:.008" fill="#fefffe" d="M239.5 9.5c.577-1.273 1.243-1.273 2 0-.47.963-1.137.963-2 0z"/><path style="opacity:1" fill="#f9f4f8" d="M32.5 23.5c-2.787-.977-5.787-1.31-9-1v7h-4v-19c7.42-.39 14.754.11 22 1.5 3.252 4.815 2.252 8.482-3 11a29.946 29.946 0 0 1 7 6c-2 .667-4 .667-6 0-1.922-2.43-4.255-4.263-7-5.5z"/><path style="opacity:.008" fill="#fefffe" d="M239.5 12.5c.397-1.025 1.063-1.192 2-.5a2.427 2.427 0 0 1-2 .5zM380.5 11.5v1c-2.667-.333-2.667-.667 0-1z"/><path style="opacity:.008" d="M207.5 13.5v3c-1.075 1.062-2.075 1.062-3 0 1.141-.925 1.141-1.759 0-2.5a4.932 4.932 0 0 1 3-.5z"/><path style="opacity:1" fill="#af5299" d="M23.5 14.5c5.011-.166 10.011 0 15 .5 1.333 1.333 1.333 2.667 0 4-4.989.5-9.989.666-15 .5v-5z"/><path style="opacity:.008" d="M207.5 18.5v3c-.979.042-1.979.042-3 0 2.491-1.04 2.491-1.874 0-2.5a4.932 4.932 0 0 1 3-.5z"/><path style="opacity:1" fill="#582583" d="M70.5 3.5h61v33h-61v-33z"/><path style="opacity:1" fill="#fbfafc" d="M113.5 11.5v3h-11v15h-4v-15h-10v-3h25z"/><path style="opacity:1" fill="#c6b9d7" d="M113.5 11.5h-25v3c-.934-1.068-1.268-2.401-1-4 8.85-.326 17.516.007 26 1z"/><path style="opacity:1" fill="#c789ba" d="M32.5 23.5h-8c.295 2.235-.039 4.235-1 6v-7c3.213-.31 6.213.023 9 1z"/><path style="opacity:.008" fill="#303030" d="M204.5 24.5c1.101-1.098 2.434-1.265 4-.5a8.435 8.435 0 0 1-4 .5z"/><path style="opacity:.008" fill="#fefffe" d="M223.5 23.5a2.427 2.427 0 0 1 2 .5c-.937.692-1.603.525-2-.5z"/><path style="opacity:.008" d="M207.5 27.5v2c-3.789-1.096-3.789-1.763 0-2z"/><path style="opacity:1" fill="#c9e8ce" d="M161.5 25.5h19v4h-24v-19h5v15z"/><path style="opacity:1" fill="#fefefe" d="M161.5 25.5c5.846.667 11.846 1.333 18 2a121.871 121.871 0 0 1-22 1v-17h3c-.319 4.863.014 9.53 1 14z"/><path style="opacity:.008" d="M207.5 30.5v1c-1.333.333-1.333.667 0 1v2c-1.256.039-2.256-.461-3-1.5 1.333-.667 1.333-1.333 0-2a4.932 4.932 0 0 1 3-.5z"/><path style="opacity:.008" fill="#fefffe" d="M207.5 31.5v-1a18.437 18.437 0 0 1 6 .5c-1.333.667-1.333 1.333 0 2-5.121 1.423-5.121 2.423 0 3-2.374.743-4.374.243-6-1.5v-2c4-.333 4-.667 0-1zM224.5 34.5c-.667-1.333-1.333-1.333-2 0l-8-1c-.219-1.175.114-2.175 1-3 1.196.346 1.196.846 0 1.5 4 .667 8 .667 12 0l-10-1c7-.667 14-.667 21 0-13.333.667-13.333 1.333 0 2a28.854 28.854 0 0 0-4 1.5c-3.213-.904-6.546-.904-10 0zM239.5 31.5c.397-1.025 1.063-1.192 2-.5a2.427 2.427 0 0 1-2 .5zM325.5 31.5c.397-1.025 1.063-1.192 2-.5a2.427 2.427 0 0 1-2 .5zM328.5 31.5c.397-1.025 1.063-1.192 2-.5a2.427 2.427 0 0 1-2 .5z"/><path style="opacity:.008" fill="#fefffe" d="M380.5 30.5v1c-4 .333-4 .667 0 1v1a91.366 91.366 0 0 0-11.5 1l-1.5-1.5 9-1a420.479 420.479 0 0 0-41 0c1.124.25 2.124.75 3 1.5l-.5 1a376.142 376.142 0 0 0-20.5-1 146.7 146.7 0 0 1 17-1.5l-3-1c16.33-.5 32.663-.667 49-.5zM239.5 32.5c1.837.14 2.17.806 1 2-.798-.457-1.131-1.124-1-2zM289.5 32.5c1.837.14 2.17.806 1 2-.798-.457-1.131-1.124-1-2z"/><path style="opacity:.008" fill="#fefffe" d="M339.5 32.5c1.837.14 2.17.806 1 2-.798-.457-1.131-1.124-1-2zM343.5 34.5c-.111-.617-.444-1.117-1-1.5 3.382-.824 6.716-.657 10 .5-3.144.66-6.144.993-9 1zM353.5 32.5a25.87 25.87 0 0 1 10 1c-2.954-.167-6.12.166-9.5 1a2.429 2.429 0 0 1-.5-2zM364.5 32.5c1.837.14 2.17.806 1 2-.798-.457-1.131-1.124-1-2zM222.5 35.5v-1h2c.418.722 1.084 1.222 2 1.5-1.428.58-2.762.412-4-.5zM268.5 34.5c.763.768 1.763 1.268 3 1.5-3 .667-6 .667-9 0a31.94 31.94 0 0 0 6-1.5zM343.5 34.5c1.452.802 3.118 1.302 5 1.5-3 .667-6 .667-9 0 1.401-.41 2.734-.91 4-1.5z"/><path style="opacity:.008" d="M204.5 36.5c.751-1.074 1.751-1.24 3-.5a4.932 4.932 0 0 1-3 .5z"/><path style="opacity:.008" fill="#fefffe" d="M214.5 36.5c.397-1.025 1.063-1.192 2-.5a2.427 2.427 0 0 1-2 .5zM217.5 36.5c.397-1.025 1.063-1.192 2-.5a2.427 2.427 0 0 1-2 .5zM222.5 35.5c-.397 1.025-1.063 1.192-2 .5a2.427 2.427 0 0 1 2-.5zM235.5 39.5h-1c-2-1.333-4-1.333-6 0h-1c-.333-1.333-.667-1.333-1 0h-1c-2.469-.817-5.135-1.317-8-1.5 3.832.038 7.332-.795 10.5-2.5 3.168 1.705 6.668 2.538 10.5 2.5-1.237.232-2.237.732-3 1.5z"/><path style="opacity:.008" fill="#fefffe" d="M229.5 36.5c2.804-1.138 5.804-1.304 9-.5a40.939 40.939 0 0 1-9 .5zM239.5 36.5c.397-1.025 1.063-1.192 2-.5a2.427 2.427 0 0 1-2 .5zM242.5 36.5c1.446-1.113 3.113-1.28 5-.5-1.634.493-3.301.66-5 .5zM248.5 36.5c.397-1.025 1.063-1.192 2-.5a2.427 2.427 0 0 1-2 .5z"/><path style="opacity:.008" fill="#fefffe" d="M253.5 39.5h-1c-.333-1.333-.667-1.333-1 0h-1c-.667-1.333-1.333-1.333-2 0h-1c-.333-1.333-.667-1.333-1 0h-1c-.333-1.333-.667-1.333-1 0h-1c-.111-.617-.444-1.117-1-1.5 3.832.038 7.332-.795 10.5-2.5 8.908 1.792 18.074 2.626 27.5 2.5-9.176.17-18.176.67-27 1.5z"/><path style="opacity:.008" fill="#fefffe" d="M254.5 35.5c1.333.667 1.333.667 0 0zM256.5 36.5c.397-1.025 1.063-1.192 2-.5a2.427 2.427 0 0 1-2 .5zM259.5 36.5c.397-1.025 1.063-1.192 2-.5a2.427 2.427 0 0 1-2 .5zM275.5 36.5c1.446-1.113 3.113-1.28 5-.5-1.634.493-3.301.66-5 .5zM281.5 36.5c5.819-1.153 11.819-1.32 18-.5-5.991.5-11.991.666-18 .5zM300.5 36.5c1.446-1.113 3.113-1.28 5-.5-1.634.493-3.301.66-5 .5zM306.5 36.5c4.816-1.15 9.816-1.316 15-.5-4.989.5-9.989.666-15 .5zM322.5 35.5c1.333.667 1.333.667 0 0zM325.5 36.5c1.446-1.113 3.113-1.28 5-.5-1.634.493-3.301.66-5 .5zM331.5 36.5c2.128-1.13 4.461-1.296 7-.5-2.31.497-4.643.663-7 .5zM350.5 36.5c.397-1.025 1.063-1.192 2-.5a2.427 2.427 0 0 1-2 .5zM353.5 36.5c.397-1.025 1.063-1.192 2-.5a2.427 2.427 0 0 1-2 .5zM356.5 36.5c.397-1.025 1.063-1.192 2-.5a2.427 2.427 0 0 1-2 .5zM359.5 36.5c2.466-1.134 5.133-1.3 8-.5a32.438 32.438 0 0 1-8 .5zM368.5 36.5c1.446-1.113 3.113-1.28 5-.5-1.634.493-3.301.66-5 .5zM380.5 35.5v1c-6.667-.333-6.667-.667 0-1z"/><path style="opacity:.008" fill="#b8b8b8" d="M204.5 38.5c2.804-1.138 5.804-1.304 9-.5a40.939 40.939 0 0 1-9 .5z"/><path style="opacity:.008" fill="#fefffe" d="M216.5 39.5h-2c.667-2.667 1.333-2.667 2 0zM239.5 38.5c.397-1.025 1.063-1.192 2-.5a2.427 2.427 0 0 1-2 .5zM298.5 39.5h-1c-.333-1.333-.667-1.333-1 0h-1c-3.333-1.333-6.667-1.333-10 0h-1c-.333-1.333-.667-1.333-1 0h-1c-.111-.617-.444-1.117-1-1.5 6-.667 12-.667 18 0-.556.383-.889.883-1 1.5zM300.5 38.5c9.825-1.158 19.825-1.325 30-.5-9.994.5-19.994.666-30 .5zM357.5 38.5c-3.213-.31-6.213.023-9 1h-1c-.333-1.333-.667-1.333-1 0h-1c-3.333-1.333-6.667-1.333-10 0h-1c-.333-1.333-.667-1.333-1 0h-1c-.111-.617-.444-1.117-1-1.5 8.843-.824 17.51-.657 26 .5zM358.5 38.5c7.148-.992 14.481-1.325 22-1v1h-22zM357.5 38.5h1v1l-1-1z"/></svg>