<?xml version="1.0" encoding="UTF-8" standalone="no"?>
<svg
   width="400"
   height="70.990463"
   viewBox="0 0 400 70.990463"
   fill="none"
   version="1.1"
   id="svg14"
   sodipodi:docname="Mediengruppe RTL Logo 2021-09-15.svg"
   inkscape:version="1.1 (c68e22c387, 2021-05-23)"
   xmlns:inkscape="http://www.inkscape.org/namespaces/inkscape"
   xmlns:sodipodi="http://sodipodi.sourceforge.net/DTD/sodipodi-0.dtd"
   xmlns="http://www.w3.org/2000/svg"
   xmlns:svg="http://www.w3.org/2000/svg">
  <defs
     id="defs18" />
  <sodipodi:namedview
     id="namedview16"
     pagecolor="#ffffff"
     bordercolor="#111111"
     borderopacity="1"
     inkscape:pageshadow="0"
     inkscape:pageopacity="0"
     inkscape:pagecheckerboard="1"
     showgrid="false"
     fit-margin-top="0"
     fit-margin-left="0"
     fit-margin-right="0"
     fit-margin-bottom="0"
     inkscape:zoom="1.9448529"
     inkscape:cx="308.24953"
     inkscape:cy="90.238185"
     inkscape:window-width="1600"
     inkscape:window-height="837"
     inkscape:window-x="-8"
     inkscape:window-y="-8"
     inkscape:window-maximized="1"
     inkscape:current-layer="svg14" />
  <path
     d="M 125.00954,3.8364268e-4 H 0 V 70.990461 h 125.00954 z"
     fill="#ff5c01"
     id="path2"
     style="stroke-width:2.95792" />
  <path
     d="M 262.50773,0 H 137.49789 v 70.989869 h 125.00984 z"
     fill="#d4000d"
     id="path4"
     style="stroke-width:2.95792" />
  <path
     d="M 400,0 H 274.98928 V 70.989869 H 400 Z"
     fill="#6e0ced"
     id="path6"
     style="stroke-width:2.95792" />
  <path
     d="m 35.708053,16.324662 h 33.316276 c 10.145678,0 15.790283,4.601138 15.790283,12.321911 0,6.631102 -4.23338,11.061184 -11.451305,12.108289 L 89.696961,54.665089 H 77.166309 L 61.813503,41.246173 H 44.386305 V 54.665089 H 35.708053 Z M 67.881387,34.0738 c 5.369223,0 7.972492,-1.751978 7.972492,-5.313259 0,-3.561251 -2.603269,-5.256407 -7.972492,-5.256407 H 44.386305 V 34.0738 Z"
     fill="#ffffff"
     id="path8"
     style="stroke-width:2.95792" />
  <path
     d="m 313.94217,16.324662 h 8.68447 v 30.783524 h 38.63048 v 7.556903 h -47.31495 z"
     fill="#ffffff"
     id="path10"
     style="stroke-width:2.95792" />
  <path
     d="m 195.60719,23.881624 h -21.97797 v -7.556962 h 52.63418 v 7.556962 h -21.97796 v 30.783465 h -8.67825 z"
     fill="#ffffff"
     id="path12"
     style="stroke-width:2.95792" />
</svg>
