<?xml version="1.0" encoding="UTF-8" standalone="no"?>
<svg
   width="502.387"
   height="167.983"
   overflow="visible"
   version="1.1"
   id="svg12"
   sodipodi:docname="RTLup.svg"
   inkscape:version="1.1.1 (3bf5ae0d25, 2021-09-20)"
   xmlns:inkscape="http://www.inkscape.org/namespaces/inkscape"
   xmlns:sodipodi="http://sodipodi.sourceforge.net/DTD/sodipodi-0.dtd"
   xmlns="http://www.w3.org/2000/svg"
   xmlns:svg="http://www.w3.org/2000/svg">
  <defs
     id="defs16" />
  <sodipodi:namedview
     id="namedview14"
     pagecolor="#ffffff"
     bordercolor="#666666"
     borderopacity="1.0"
     inkscape:pageshadow="2"
     inkscape:pageopacity="0.0"
     inkscape:pagecheckerboard="0"
     showgrid="false"
     inkscape:zoom="2.2472716"
     inkscape:cx="251.1935"
     inkscape:cy="83.879494"
     inkscape:window-width="1920"
     inkscape:window-height="1017"
     inkscape:window-x="-8"
     inkscape:window-y="-8"
     inkscape:window-maximized="1"
     inkscape:current-layer="svg12" />
  <path
     fill="#9527ba"
     d="M0 0h156.777v88.276H0z"
     id="path2" />
  <path
     fill="#ec32eb"
     d="M172.833 0H329.61v88.276H172.833z"
     id="path4" />
  <path
     fill="#6f0ced"
     d="M345.61 0h156.777v88.276H345.61z"
     id="path6" />
  <path
     d="M88.339 20.36c9.763 0 18.41 5.19 18.41 15.221 0 8.662-5.472 14.154-14.414 15L113.16 68.11H96.848L77.729 51.432H55.887V68.11H44.826V20.36h43.513zm-32.452 9.171v12.754H86.59c5.5 0 8.823-2.126 8.823-6.458 0-3.587-2.824-6.296-8.823-6.296H55.887zM218.23 20.36v9.452h27.639V68.11h10.881V29.812h27.654V20.36zm176.236 0v47.75h59.519v-9.501h-48.636V20.36z"
     fill="#fff"
     id="path8" />
  <path
     d="M205.241 119.737h8.95v27.456c0 6.336.43 13.662 12.03 13.662s12.029-7.326 12.029-13.662v-27.456h8.95v30.162c0 12.078-8.377 18.084-20.979 18.084s-20.98-6.006-20.98-18.084v-30.162zm53.119 0h20.854c14.607 0 17.399 9.205 17.399 15.412 0 6.137-2.792 15.273-17.399 15.273h-11.902v16.438h-8.951v-47.123zm8.951 23.572h11.401c4.01 0 8.95-1.953 8.95-8.229 0-6.556-4.081-8.229-8.808-8.229H267.31v16.458z"
     id="path10" />
  <path
     style="fill:#ffffff;stroke-width:0.444984"
     d="m 219.76069,167.09424 c -6.19075,-1.34632 -11.06671,-5.16129 -13.09887,-10.2486 -1.04381,-2.61308 -1.06456,-2.95052 -1.21044,-19.67931 l -0.14841,-17.02064 h 4.2182 4.2182 l 0.17883,16.35317 c 0.19012,17.38488 0.26234,17.99835 2.46848,20.96713 1.85343,2.49413 4.44498,3.38134 9.89959,3.38909 4.15979,0.006 4.93197,-0.12085 6.89725,-1.13219 2.38068,-1.2251 3.93964,-3.13675 4.65332,-5.70606 0.26149,-0.94139 0.44819,-8.30745 0.44964,-17.74046 l 0.002,-16.13068 h 4.44984 4.44984 l -0.003,14.12825 c -0.004,16.20139 -0.3536,20.39893 -1.98728,23.85225 -2.07106,4.37786 -6.82372,7.76004 -12.63549,8.99191 -3.64798,0.77323 -9.18404,0.76291 -12.8018,-0.0239 z"
     id="path128" />
  <path
     style="fill:#ffffff;stroke-width:0.444984"
     d="m 258.75823,143.50736 v -23.36167 h 12.41268 c 11.34109,0 12.67311,0.0804 15.42932,0.93175 3.96565,1.22487 7.63553,4.7055 8.87496,8.41731 1.83983,5.50985 0.56996,12.38821 -2.9583,16.02384 -3.50651,3.61322 -8.63664,4.87486 -19.85291,4.88237 l -5.45106,0.004 v 8.2322 8.23221 h -4.22735 -4.22734 z m 24.90315,-1.14195 c 3.02812,-1.6908 3.77114,-3.01497 3.93291,-7.00905 0.17364,-4.28697 -0.65805,-6.0836 -3.48794,-7.53469 -1.79611,-0.921 -2.55105,-1.00122 -9.42299,-1.00122 h -7.47044 v 8.51249 8.51249 l 7.25446,-0.19852 c 6.65521,-0.18213 7.41468,-0.28798 9.194,-1.2815 z"
     id="path167" />
</svg>
