<?xml version="1.0" encoding="UTF-8"?>
<!DOCTYPE svg PUBLIC "-//W3C//DTD SVG 1.1//EN" "http://www.w3.org/Graphics/SVG/1.1/DTD/svg11.dtd">
<svg xmlns="http://www.w3.org/2000/svg" version="1.1" width="1019px" height="120px" style="shape-rendering:geometricPrecision; text-rendering:geometricPrecision; image-rendering:optimizeQuality; fill-rule:evenodd; clip-rule:evenodd" xmlns:xlink="http://www.w3.org/1999/xlink">
<g><path style="opacity:0.99" fill="#0e75ed" d="M -0.5,-0.5 C 70.8333,-0.5 142.167,-0.5 213.5,-0.5C 213.5,39.5 213.5,79.5 213.5,119.5C 142.167,119.5 70.8333,119.5 -0.5,119.5C -0.5,79.5 -0.5,39.5 -0.5,-0.5 Z"/></g>
<g><path style="opacity:0.992" fill="#d4020e" d="M 233.5,-0.5 C 304.833,-0.5 376.167,-0.5 447.5,-0.5C 447.5,39.5 447.5,79.5 447.5,119.5C 376.167,119.5 304.833,119.5 233.5,119.5C 233.5,79.5 233.5,39.5 233.5,-0.5 Z"/></g>
<g><path style="opacity:0.986" fill="#ff8a01" d="M 466.5,-0.5 C 538.167,-0.5 609.833,-0.5 681.5,-0.5C 681.5,39.5 681.5,79.5 681.5,119.5C 609.833,119.5 538.167,119.5 466.5,119.5C 466.5,79.5 466.5,39.5 466.5,-0.5 Z"/></g>
<g><path style="opacity:0.897" fill="#fefffe" d="M 722.5,26.5 C 726.833,26.5 731.167,26.5 735.5,26.5C 735.333,41.5037 735.5,56.5037 736,71.5C 738.244,78.7986 743.244,82.1319 751,81.5C 758.425,81.7333 763.425,78.3999 766,71.5C 766.5,56.5037 766.667,41.5037 766.5,26.5C 770.833,26.5 775.167,26.5 779.5,26.5C 779.957,43.5697 779.457,60.5697 778,77.5C 772.753,88.9637 763.753,94.297 751,93.5C 739.727,94.1971 731.061,89.8638 725,80.5C 724.333,78.5 723.667,76.5 723,74.5C 722.5,58.5035 722.333,42.5035 722.5,26.5 Z"/></g>
<g><path style="opacity:0.891" fill="#fefffe" d="M 794.5,26.5 C 807.894,26.0755 821.227,26.5755 834.5,28C 845.943,33.6029 850.11,42.7696 847,55.5C 843.765,64.0675 837.599,68.9009 828.5,70C 821.508,70.4996 814.508,70.6663 807.5,70.5C 807.5,77.8333 807.5,85.1667 807.5,92.5C 803.167,92.5 798.833,92.5 794.5,92.5C 794.5,70.5 794.5,48.5 794.5,26.5 Z M 807.5,38.5 C 814.508,38.3337 821.508,38.5004 828.5,39C 834.889,43.2695 836.055,48.7695 832,55.5C 830.581,56.4601 829.081,57.2935 827.5,58C 820.842,58.4996 814.175,58.6663 807.5,58.5C 807.5,51.8333 807.5,45.1667 807.5,38.5 Z"/></g>
<g><path style="opacity:0.92" fill="#fefffe" d="M 885.5,26.5 C 889.833,26.5 894.167,26.5 898.5,26.5C 898.5,35.1667 898.5,43.8333 898.5,52.5C 909.167,52.5 919.833,52.5 930.5,52.5C 930.5,43.8333 930.5,35.1667 930.5,26.5C 934.5,26.5 938.5,26.5 942.5,26.5C 942.5,48.5 942.5,70.5 942.5,92.5C 938.5,92.5 934.5,92.5 930.5,92.5C 930.5,83.1667 930.5,73.8333 930.5,64.5C 919.833,64.5 909.167,64.5 898.5,64.5C 898.5,73.8333 898.5,83.1667 898.5,92.5C 894.167,92.5 889.833,92.5 885.5,92.5C 885.5,70.5 885.5,48.5 885.5,26.5 Z"/></g>
<g><path style="opacity:0.875" fill="#fefffe" d="M 1018.5,50.5 C 1018.5,56.5 1018.5,62.5 1018.5,68.5C 1015.62,79.2237 1008.95,86.7237 998.5,91C 985.218,92.4034 971.885,92.9034 958.5,92.5C 958.5,70.5 958.5,48.5 958.5,26.5C 971.885,26.0966 985.218,26.5966 998.5,28C 1008.98,32.301 1015.65,39.801 1018.5,50.5 Z M 972.5,38.5 C 999.349,34.5064 1009.52,45.5064 1003,71.5C 1001.17,74.6667 998.667,77.1667 995.5,79C 987.92,80.3961 980.253,80.8961 972.5,80.5C 972.5,66.5 972.5,52.5 972.5,38.5 Z"/></g>
<g><path style="opacity:1" fill="#fcfdfe" d="M 150.5,90.5 C 144.021,91.4907 137.354,91.824 130.5,91.5C 121.833,84.1667 113.167,76.8333 104.5,69.5C 94.6806,68.506 84.6806,68.1726 74.5,68.5C 74.5,76.1667 74.5,83.8333 74.5,91.5C 69.8333,91.5 65.1667,91.5 60.5,91.5C 60.5,70.1667 60.5,48.8333 60.5,27.5C 81.8359,27.3334 103.169,27.5 124.5,28C 139.65,30.4474 145.817,39.2807 143,54.5C 139.974,62.6052 134.141,67.2718 125.5,68.5C 133.637,76.0665 141.97,83.3998 150.5,90.5 Z"/></g>
<g><path style="opacity:1" fill="#fefdfd" d="M 295.5,27.5 C 325.167,27.5 354.833,27.5 384.5,27.5C 384.5,31.5 384.5,35.5 384.5,39.5C 372.167,39.5 359.833,39.5 347.5,39.5C 347.5,56.8333 347.5,74.1667 347.5,91.5C 342.5,91.5 337.5,91.5 332.5,91.5C 332.5,74.1667 332.5,56.8333 332.5,39.5C 320.167,39.5 307.833,39.5 295.5,39.5C 295.5,35.5 295.5,31.5 295.5,27.5 Z"/></g>
<g><path style="opacity:1" fill="#fffdfc" d="M 533.5,27.5 C 538.5,27.5 543.5,27.5 548.5,27.5C 548.5,44.8333 548.5,62.1667 548.5,79.5C 570.5,79.5 592.5,79.5 614.5,79.5C 614.5,83.5 614.5,87.5 614.5,91.5C 587.5,91.5 560.5,91.5 533.5,91.5C 533.5,70.1667 533.5,48.8333 533.5,27.5 Z"/></g>
<g><path style="opacity:1" fill="#0e75ed" d="M 75.5,39.5 C 91.9037,39.0446 108.237,39.5446 124.5,41C 129.743,45.5884 129.743,50.2551 124.5,55C 122.975,56.0086 121.308,56.5086 119.5,56.5C 104.833,56.5 90.1667,56.5 75.5,56.5C 75.5,50.8333 75.5,45.1667 75.5,39.5 Z"/></g>
<g><path style="opacity:1" fill="#79b3f5" d="M 75.5,39.5 C 75.5,45.1667 75.5,50.8333 75.5,56.5C 90.1667,56.5 104.833,56.5 119.5,56.5C 104.676,57.4961 89.676,57.8294 74.5,57.5C 74.1771,51.31 74.5104,45.31 75.5,39.5 Z"/></g>
<g><path style="opacity:1" fill="#accff8" d="M 104.5,69.5 C 94.8333,69.5 85.1667,69.5 75.5,69.5C 75.825,77.0191 75.4916,84.3524 74.5,91.5C 74.5,83.8333 74.5,76.1667 74.5,68.5C 84.6806,68.1726 94.6806,68.506 104.5,69.5 Z"/></g>
<g><path style="opacity:1" fill="#76b1f5" d="M 150.5,90.5 C 151.043,90.56 151.376,90.8933 151.5,91.5C 144.344,92.8188 137.344,92.8188 130.5,91.5C 137.354,91.824 144.021,91.4907 150.5,90.5 Z"/></g>
</svg>
