<?xml version="1.0" encoding="UTF-8"?>
<!DOCTYPE svg PUBLIC "-//W3C//DTD SVG 1.1//EN" "http://www.w3.org/Graphics/SVG/1.1/DTD/svg11.dtd">
<svg xmlns="http://www.w3.org/2000/svg" version="1.1" width="780px" height="120px" style="shape-rendering:geometricPrecision; text-rendering:geometricPrecision; image-rendering:optimizeQuality; fill-rule:evenodd; clip-rule:evenodd" xmlns:xlink="http://www.w3.org/1999/xlink">
<g><path style="opacity:1" fill="#ffffff" d="M -0.5,-0.5 C 21.5,-0.5 43.5,-0.5 65.5,-0.5C 65.5,5.83333 65.5,12.1667 65.5,18.5C 50.5,18.5 35.5,18.5 20.5,18.5C 20.5,45.5 20.5,72.5 20.5,99.5C 26.4254,99.1918 32.2588,99.5251 38,100.5C 38.4995,106.491 38.6662,112.491 38.5,118.5C 43.8333,118.5 49.1667,118.5 54.5,118.5C 54.5,112.167 54.5,105.833 54.5,99.5C 69.8333,99.5 85.1667,99.5 100.5,99.5C 100.5,72.5 100.5,45.5 100.5,18.5C 94.5,18.5 88.5,18.5 82.5,18.5C 82.5,12.1667 82.5,5.83333 82.5,-0.5C 95.1667,-0.5 107.833,-0.5 120.5,-0.5C 120.827,39.5725 120.494,79.5725 119.5,119.5C 79.5,119.5 39.5,119.5 -0.5,119.5C -0.5,79.5 -0.5,39.5 -0.5,-0.5 Z"/></g>
<g><path style="opacity:1" fill="#ffffff" d="M 161.5,16.5 C 176.837,16.3334 192.17,16.5001 207.5,17C 221.981,22.4451 227.814,32.9451 225,48.5C 223.884,55.941 220.05,61.441 213.5,65C 217.722,66.8904 220.555,70.0571 222,74.5C 222.761,84.9192 224.094,95.2525 226,105.5C 226.635,106.966 227.469,108.3 228.5,109.5C 223.544,110.494 218.544,110.827 213.5,110.5C 212.853,100.454 211.687,90.4541 210,80.5C 209.332,76.5013 207.165,73.668 203.5,72C 193.506,71.5002 183.506,71.3335 173.5,71.5C 173.5,84.5 173.5,97.5 173.5,110.5C 169.167,110.5 164.833,110.5 160.5,110.5C 160.175,79.0932 160.508,47.7599 161.5,16.5 Z M 173.5,29.5 C 184.172,29.3335 194.839,29.5002 205.5,30C 210.196,33.2417 212.529,37.7417 212.5,43.5C 212.926,49.4833 210.592,53.9833 205.5,57C 194.912,58.4288 184.245,58.9288 173.5,58.5C 173.5,48.8333 173.5,39.1667 173.5,29.5 Z"/></g>
<g><path style="opacity:1" fill="#ffffff" d="M 225.5,16.5 C 247.5,16.5 269.5,16.5 291.5,16.5C 291.5,20.8333 291.5,25.1667 291.5,29.5C 282.5,29.5 273.5,29.5 264.5,29.5C 264.5,56.5 264.5,83.5 264.5,110.5C 260.5,110.5 256.5,110.5 252.5,110.5C 252.5,83.5 252.5,56.5 252.5,29.5C 243.5,29.5 234.5,29.5 225.5,29.5C 225.5,25.1667 225.5,20.8333 225.5,16.5 Z"/></g>
<g><path style="opacity:1" fill="#ffffff" d="M 295.5,16.5 C 299.5,16.5 303.5,16.5 307.5,16.5C 307.5,43.8333 307.5,71.1667 307.5,98.5C 321.833,98.5 336.167,98.5 350.5,98.5C 350.5,102.5 350.5,106.5 350.5,110.5C 332.167,110.5 313.833,110.5 295.5,110.5C 295.5,79.1667 295.5,47.8333 295.5,16.5 Z"/></g>
<g><path style="opacity:1" fill="#ffffff" d="M 359.5,16.5 C 382.5,16.5 405.5,16.5 428.5,16.5C 428.666,24.5069 428.5,32.5069 428,40.5C 416.515,55.3149 404.682,69.8149 392.5,84C 405.162,84.4999 417.829,84.6666 430.5,84.5C 430.5,93.1667 430.5,101.833 430.5,110.5C 405.833,110.5 381.167,110.5 356.5,110.5C 356.334,102.493 356.5,94.4931 357,86.5C 368.942,72.1313 380.776,57.6313 392.5,43C 381.505,42.5002 370.505,42.3335 359.5,42.5C 359.5,33.8333 359.5,25.1667 359.5,16.5 Z"/></g>
<g><path style="opacity:1" fill="#ffffff" d="M 433.5,16.5 C 442.167,16.5 450.833,16.5 459.5,16.5C 462.006,33.2105 464.839,49.8771 468,66.5C 471.813,50.2897 474.979,33.9563 477.5,17.5C 485.472,16.5023 493.472,16.169 501.5,16.5C 503.337,31.5328 505.504,46.5328 508,61.5C 508.471,63.2464 509.138,64.913 510,66.5C 513.548,49.9312 516.381,33.2645 518.5,16.5C 527.5,16.5 536.5,16.5 545.5,16.5C 537.827,47.9012 530.16,79.2345 522.5,110.5C 513.915,110.817 505.415,110.483 497,109.5C 493.963,93.5746 491.296,77.5746 489,61.5C 486.119,77.4547 483.452,93.4547 481,109.5C 472.333,110.833 463.667,110.833 455,109.5C 447.351,78.5747 440.185,47.5747 433.5,16.5 Z"/></g>
<g><path style="opacity:1" fill="#ffffff" d="M 550.5,16.5 C 573.167,16.5 595.833,16.5 618.5,16.5C 618.5,25.1667 618.5,33.8333 618.5,42.5C 604.5,42.5 590.5,42.5 576.5,42.5C 576.5,45.5 576.5,48.5 576.5,51.5C 589.167,51.5 601.833,51.5 614.5,51.5C 614.5,59.5 614.5,67.5 614.5,75.5C 601.833,75.5 589.167,75.5 576.5,75.5C 576.5,78.5 576.5,81.5 576.5,84.5C 590.833,84.5 605.167,84.5 619.5,84.5C 619.5,93.1667 619.5,101.833 619.5,110.5C 596.5,110.5 573.5,110.5 550.5,110.5C 550.5,79.1667 550.5,47.8333 550.5,16.5 Z"/></g>
<g><path style="opacity:1" fill="#ffffff" d="M 628.5,16.5 C 637.167,16.5 645.833,16.5 654.5,16.5C 654.5,47.8333 654.5,79.1667 654.5,110.5C 645.582,110.817 636.749,110.484 628,109.5C 627.175,78.4283 627.342,47.4283 628.5,16.5 Z"/></g>
<g><path style="opacity:1" fill="#ffffff" d="M 76.5,31.5 C 79.1667,31.5 81.8333,31.5 84.5,31.5C 84.8327,47.1808 84.4994,62.8475 83.5,78.5C 77.0316,80.7832 70.365,81.7832 63.5,81.5C 63.5,65.8333 63.5,50.1667 63.5,34.5C 68.1697,34.4889 72.5031,33.4889 76.5,31.5 Z"/></g>
<g><path style="opacity:1" fill="#ffffff" d="M 53.5,36.5 C 54.5,36.5 55.5,36.5 56.5,36.5C 56.5,52.5 56.5,68.5 56.5,84.5C 49.8333,85.5 43.1667,86.5 36.5,87.5C 36.3334,71.8298 36.5001,56.1631 37,40.5C 42.4741,38.6104 47.9741,37.2771 53.5,36.5 Z"/></g>
<g><path style="opacity:1" fill="#ffffff" d="M 685.5,54.5 C 689.167,54.5 692.833,54.5 696.5,54.5C 696.5,61.8333 696.5,69.1667 696.5,76.5C 702.167,76.5 707.833,76.5 713.5,76.5C 713.334,69.4921 713.5,62.4921 714,55.5C 717.73,54.5399 721.563,54.2065 725.5,54.5C 725.5,73.1667 725.5,91.8333 725.5,110.5C 721.5,110.5 717.5,110.5 713.5,110.5C 713.5,102.833 713.5,95.1667 713.5,87.5C 707.833,87.5 702.167,87.5 696.5,87.5C 696.5,95.1667 696.5,102.833 696.5,110.5C 692.833,110.5 689.167,110.5 685.5,110.5C 685.5,91.8333 685.5,73.1667 685.5,54.5 Z"/></g>
<g><path style="opacity:1" fill="#ffffff" d="M 728.5,54.5 C 762.592,51.7568 774.759,66.7568 765,99.5C 761.538,104.317 757.038,107.817 751.5,110C 743.841,110.5 736.174,110.666 728.5,110.5C 728.5,91.8333 728.5,73.1667 728.5,54.5 Z M 739.5,66.5 C 751.377,65.5448 756.711,71.0448 755.5,83C 756.102,94.2315 750.769,99.7315 739.5,99.5C 739.5,88.5 739.5,77.5 739.5,66.5 Z"/></g>
</svg>
