<?xml version="1.0" encoding="UTF-8"?>
<!DOCTYPE svg PUBLIC "-//W3C//DTD SVG 1.1//EN" "http://www.w3.org/Graphics/SVG/1.1/DTD/svg11.dtd">
<svg xmlns="http://www.w3.org/2000/svg" version="1.1" width="1078px" height="196px" style="shape-rendering:geometricPrecision; text-rendering:geometricPrecision; image-rendering:optimizeQuality; fill-rule:evenodd; clip-rule:evenodd" xmlns:xlink="http://www.w3.org/1999/xlink">
<g><path style="opacity:1" fill="#ffffff" d="M -0.5,-0.5 C 34.8333,-0.5 70.1667,-0.5 105.5,-0.5C 105.5,9.5 105.5,19.5 105.5,29.5C 80.5,29.5 55.5,29.5 30.5,29.5C 30.5,74.5 30.5,119.5 30.5,164.5C 40.5,164.5 50.5,164.5 60.5,164.5C 60.5,174.833 60.5,185.167 60.5,195.5C 40.1667,195.5 19.8333,195.5 -0.5,195.5C -0.5,130.167 -0.5,64.8333 -0.5,-0.5 Z"/></g>
<g><path style="opacity:1" fill="#ffffff" d="M 134.5,-0.5 C 155.167,-0.5 175.833,-0.5 196.5,-0.5C 196.5,64.8333 196.5,130.167 196.5,195.5C 160.833,195.5 125.167,195.5 89.5,195.5C 89.5,185.167 89.5,174.833 89.5,164.5C 114.5,164.5 139.5,164.5 164.5,164.5C 164.5,119.5 164.5,74.5 164.5,29.5C 154.5,29.5 144.5,29.5 134.5,29.5C 134.5,19.5 134.5,9.5 134.5,-0.5 Z"/></g>
<g><path style="opacity:1" fill="#ffffff" d="M 261.5,36.5 C 287.876,36.0455 314.21,36.5455 340.5,38C 356.606,43.2834 364.939,54.45 365.5,71.5C 365.762,87.8444 358.428,99.0111 343.5,105C 355.851,108.825 362.018,117.325 362,130.5C 362.214,140.253 363.214,149.919 365,159.5C 365.973,162.779 367.473,165.779 369.5,168.5C 362.276,169.812 355.109,169.812 348,168.5C 346.441,154.448 344.441,140.448 342,126.5C 339.94,118.441 334.774,113.941 326.5,113C 311.17,112.5 295.837,112.333 280.5,112.5C 280.5,131.5 280.5,150.5 280.5,169.5C 274.167,169.5 267.833,169.5 261.5,169.5C 261.5,125.167 261.5,80.8333 261.5,36.5 Z M 280.5,51.5 C 295.504,51.3334 310.504,51.5001 325.5,52C 339.015,53.1807 346.015,60.514 346.5,74C 347.138,83.122 343.471,89.7886 335.5,94C 331.012,95.8114 326.346,96.8114 321.5,97C 307.837,97.4999 294.171,97.6666 280.5,97.5C 280.5,82.1667 280.5,66.8333 280.5,51.5 Z"/></g>
<g><path style="opacity:1" fill="#ffffff" d="M 367.5,36.5 C 403.167,36.5 438.833,36.5 474.5,36.5C 474.5,41.5 474.5,46.5 474.5,51.5C 459.833,51.5 445.167,51.5 430.5,51.5C 430.5,90.8333 430.5,130.167 430.5,169.5C 424.167,169.5 417.833,169.5 411.5,169.5C 411.5,130.167 411.5,90.8333 411.5,51.5C 396.833,51.5 382.167,51.5 367.5,51.5C 367.5,46.5 367.5,41.5 367.5,36.5 Z"/></g>
<g><path style="opacity:1" fill="#ffffff" d="M 482.5,36.5 C 488.833,36.5 495.167,36.5 501.5,36.5C 501.5,75.5 501.5,114.5 501.5,153.5C 524.833,153.5 548.167,153.5 571.5,153.5C 571.5,158.833 571.5,164.167 571.5,169.5C 541.833,169.5 512.167,169.5 482.5,169.5C 482.5,125.167 482.5,80.8333 482.5,36.5 Z"/></g>
<g><path style="opacity:1" fill="#ffffff" d="M 587.5,36.5 C 624.833,36.5 662.167,36.5 699.5,36.5C 699.666,46.8387 699.5,57.172 699,67.5C 678.815,89.384 658.982,111.551 639.5,134C 660.497,134.5 681.497,134.667 702.5,134.5C 702.5,146.167 702.5,157.833 702.5,169.5C 662.833,169.5 623.167,169.5 583.5,169.5C 583.333,158.495 583.5,147.495 584,136.5C 604.201,115.3 624.035,93.8004 643.5,72C 624.836,71.5001 606.17,71.3334 587.5,71.5C 587.5,59.8333 587.5,48.1667 587.5,36.5 Z"/></g>
<g><path style="opacity:1" fill="#ffffff" d="M 709.5,36.5 C 723.167,36.5 736.833,36.5 750.5,36.5C 755.217,62.9168 760.383,89.2501 766,115.5C 771.105,89.1415 776.272,62.8082 781.5,36.5C 793.851,36.1676 806.185,36.501 818.5,37.5C 823.665,63.8213 828.832,90.1547 834,116.5C 839.491,89.8806 844.657,63.214 849.5,36.5C 863.504,36.3334 877.504,36.5001 891.5,37C 878.624,81.0022 866.291,125.169 854.5,169.5C 840.833,169.5 827.167,169.5 813.5,169.5C 809.218,144.091 804.552,118.758 799.5,93.5C 794.681,118.432 790.181,143.432 786,168.5C 772.246,169.49 758.412,169.823 744.5,169.5C 732.989,125.123 721.323,80.7901 709.5,36.5 Z"/></g>
<g><path style="opacity:1" fill="#ffffff" d="M 900.5,36.5 C 937.5,36.5 974.5,36.5 1011.5,36.5C 1011.5,48.1667 1011.5,59.8333 1011.5,71.5C 988.5,71.5 965.5,71.5 942.5,71.5C 942.5,76.5 942.5,81.5 942.5,86.5C 963.167,86.5 983.833,86.5 1004.5,86.5C 1004.82,97.415 1004.49,108.248 1003.5,119C 983.169,119.5 962.836,119.667 942.5,119.5C 942.5,124.5 942.5,129.5 942.5,134.5C 966.167,134.5 989.833,134.5 1013.5,134.5C 1013.5,146.167 1013.5,157.833 1013.5,169.5C 975.833,169.5 938.167,169.5 900.5,169.5C 900.5,125.167 900.5,80.8333 900.5,36.5 Z"/></g>
<g><path style="opacity:1" fill="#ffffff" d="M 1029.5,36.5 C 1043.17,36.5 1056.83,36.5 1070.5,36.5C 1070.5,80.8333 1070.5,125.167 1070.5,169.5C 1056.83,169.5 1043.17,169.5 1029.5,169.5C 1029.5,125.167 1029.5,80.8333 1029.5,36.5 Z"/></g>
<g><path style="opacity:1" fill="#ffffff" d="M 132.5,51.5 C 133.833,51.5 135.167,51.5 136.5,51.5C 136.5,77.1667 136.5,102.833 136.5,128.5C 125.813,130.408 115.147,132.408 104.5,134.5C 104.167,108.825 104.5,83.158 105.5,57.5C 114.668,55.7355 123.668,53.7355 132.5,51.5 Z"/></g>
<g><path style="opacity:1" fill="#ffffff" d="M 87.5,60.5 C 88.5,60.5 89.5,60.5 90.5,60.5C 90.5,86.1667 90.5,111.833 90.5,137.5C 80.2572,139.271 70.0906,141.271 60,143.5C 59.6667,143.167 59.3333,142.833 59,142.5C 58.1668,117.16 58.3335,91.8268 59.5,66.5C 68.9292,64.3492 78.2626,62.3492 87.5,60.5 Z"/></g>
</svg>
