<?xml version="1.0" encoding="UTF-8" standalone="no"?>
<svg
   width="566.62982"
   height="340.48001"
   viewBox="0 0 566.62982 340.48001"
   version="1.1"
   id="svg33"
   sodipodi:docname="SAT.1 HD NRW.2.svg"
   inkscape:version="1.1.1 (3bf5ae0d25, 2021-09-20)"
   xmlns:inkscape="http://www.inkscape.org/namespaces/inkscape"
   xmlns:sodipodi="http://sodipodi.sourceforge.net/DTD/sodipodi-0.dtd"
   xmlns="http://www.w3.org/2000/svg"
   xmlns:svg="http://www.w3.org/2000/svg">
  <defs
     id="defs37" />
  <sodipodi:namedview
     id="namedview35"
     pagecolor="#ffffff"
     bordercolor="#666666"
     borderopacity="1.0"
     inkscape:pageshadow="2"
     inkscape:pageopacity="0.0"
     inkscape:pagecheckerboard="0"
     showgrid="false"
     inkscape:zoom="1.253125"
     inkscape:cx="282.89277"
     inkscape:cy="179.95012"
     inkscape:window-width="1920"
     inkscape:window-height="1017"
     inkscape:window-x="-8"
     inkscape:window-y="-8"
     inkscape:window-maximized="1"
     inkscape:current-layer="svg33" />
  <path
     d="m 101.96,234.67 c 0,0 -39,-162.42 35.05,-231.32 A 169.94,169.94 0 0 0 46.79,53.11 c -25.7,85.89 55.17,181.56 55.17,181.56 z"
     fill="#008ccf"
     fill-rule="evenodd"
     id="path11" />
  <path
     d="m 104.58,234.8 c 0,0 112.18,-189.74 151,-212 A 170,170 0 0 0 172.98,0 c -73.63,47.84 -68.4,234.8 -68.4,234.8 z"
     fill="#5b6bad"
     fill-rule="evenodd"
     id="path13" />
  <path
     d="m 106.79,236.68 c 0,0 199.32,-61.78 224.29,-123.59 a 168.68,168.68 0 0 0 -46,-68.89 C 256.79,69 106.79,236.68 106.79,236.68 Z"
     fill="#a53377"
     fill-rule="evenodd"
     id="path15" />
  <path
     d="m 339.46,147.75 c -38.19,69.68 -232,91.38 -232,91.38 0,0 134.64,59.61 219,0.37 a 169.44,169.44 0 0 0 13,-91.75 z"
     fill="#cc3963"
     fill-rule="evenodd"
     id="path17" />
  <path
     d="m 304.14,276.33 c -95.83,38.89 -197.76,-34.85 -197.76,-34.85 0,0 57.9,82.13 116.73,91.25 a 169.88,169.88 0 0 0 81.03,-56.4 z"
     fill="#ee6b34"
     fill-rule="evenodd"
     id="path19" />
  <path
     d="m 101.52,241.14 c 0,0 -46.73,37.24 -59.17,42.6 13.29,14.39 29.4,28.08 47.59,37.61 -8.91,-21.74 11.58,-80.21 11.58,-80.21 z"
     fill="#f4c128"
     fill-rule="evenodd"
     id="path21" />
  <path
     d="m 100.08,238.81 c 0,0 -73,-3.15 -97.06,-36.43 a 169.46,169.46 0 0 0 24.45,60.92 c 18.44,2.81 72.61,-24.49 72.61,-24.49 z"
     fill="#a2bb42"
     fill-rule="evenodd"
     id="path23" />
  <path
     d="m 0.12,172.21 c 20.52,43.16 100,64.14 100,64.14 0,0 -83.69,-71.13 -78.62,-148.74 A 169.6,169.6 0 0 0 0,166.16 c 0.04,2 0.07,4 0.12,6.05 z"
     fill="#009957"
     fill-rule="evenodd"
     id="path25" />
  <path
     d="m 104.05,242.08 c 0,0 -9.26,65.4 9.65,89.21 a 169.34,169.34 0 0 0 43.72,9.19 h 26.07 c -49.15,-19.21 -79.44,-98.4 -79.44,-98.4 z"
     fill="#f29833"
     fill-rule="evenodd"
     id="path27" />
  <path
     d="m 468.79,128.7 v 86.68 h -27.21 v -32.2 h -27.24 v 32.2 H 387.1 V 128.7 h 27.24 v 29.72 h 27.24 V 128.7 Z"
     fill="#ffffff"
     id="path29" />
  <path
     d="m 544.41,134.4 a 42.61,42.61 0 0 1 16.28,15.6 43.86,43.86 0 0 1 0,44.08 42.61,42.61 0 0 1 -16.28,15.6 46.77,46.77 0 0 1 -23,5.7 h -39 V 128.7 h 39 a 46.77,46.77 0 0 1 23,5.7 z m -10,51.07 q 5,-5.13 5,-13.43 0,-8.3 -5,-13.43 -4.95,-5.15 -13,-5.14 h -11.73 v 37.14 h 11.76 q 8.06,0 13,-5.13 z"
     fill="#ffffff"
     id="path31" />
</svg>
