<?xml version="1.0" encoding="UTF-8" standalone="no"?>
<svg
   width="1164.2238"
   height="222"
   viewBox="0 0 1164.2237 222"
   version="1.1"
   id="svg51"
   sodipodi:docname="SAT.1 emotions HD.svg"
   inkscape:version="1.1.1 (3bf5ae0d25, 2021-09-20)"
   xmlns:inkscape="http://www.inkscape.org/namespaces/inkscape"
   xmlns:sodipodi="http://sodipodi.sourceforge.net/DTD/sodipodi-0.dtd"
   xmlns="http://www.w3.org/2000/svg"
   xmlns:svg="http://www.w3.org/2000/svg"
   xmlns:rdf="http://www.w3.org/1999/02/22-rdf-syntax-ns#"
   xmlns:cc="http://creativecommons.org/ns#"
   xmlns:dc="http://purl.org/dc/elements/1.1/">
  <sodipodi:namedview
     id="namedview53"
     pagecolor="#ffffff"
     bordercolor="#666666"
     borderopacity="1.0"
     inkscape:pageshadow="2"
     inkscape:pageopacity="0.0"
     inkscape:pagecheckerboard="0"
     showgrid="false"
     inkscape:zoom="0.60856318"
     inkscape:cx="617.84875"
     inkscape:cy="141.31647"
     inkscape:window-width="1347"
     inkscape:window-height="1040"
     inkscape:window-x="577"
     inkscape:window-y="1"
     inkscape:window-maximized="1"
     inkscape:current-layer="svg51" />
  <title
     id="title9">unblock-SAT1</title>
  <defs
     id="defs18">
    <linearGradient
       x1="1"
       y1="0.5"
       x2="0"
       y2="0.5"
       id="linearGradient-1"
       gradientUnits="userSpaceOnUse">
      <stop
         stop-color="#35538A"
         stop-opacity="0"
         offset="0%"
         id="stop11" />
      <stop
         stop-color="#B6D1D0"
         offset="100%"
         id="stop13" />
      <stop
         stop-color="#B6D1D0"
         offset="100%"
         id="stop15" />
    </linearGradient>
  </defs>
  <g
     id="unblock-SAT1"
     stroke="none"
     stroke-width="1"
     fill="none"
     fill-rule="evenodd"
     transform="translate(-1.7218789,-0.83559951)"
     style="fill:#ffffff">
    <g
       id="Group"
       transform="translate(-1)"
       fill="url(#linearGradient-1)"
       fill-opacity="0.3"
       style="fill:#ffffff" />
    <g
       id="sat-1-seeklogo"
       transform="matrix(1.0018027,0,0,1,1.7218789,0.83559951)"
       fill="#FFFFFF"
       fill-rule="nonzero"
       style="fill:#ffffff">
      <g
         id="_x23_632d92ff"
         transform="translate(68.340485)"
         style="fill:#ffffff">
        <path
           d="m 43.964623,0 h 6.163044 C 56.157279,0.91495426 62.239779,1.5098089 68.172112,2.9571065 78.498619,5.4345838 88.445203,9.4036628 97.759824,14.491963 87.086513,23.008243 78.659016,33.832933 70.400758,44.604215 44.782385,78.960908 22.466276,115.60824 0,152.06127 0.16854649,141.23632 -0.34636997,130.38501 0.69282664,119.58694 1.6514781,105.01469 3.3477806,90.478338 6.0296119,76.119027 9.2884374,59.424775 13.692928,42.792687 21.400809,27.55475 26.69329,16.827858 34.090348,6.9175154 43.964623,0 Z"
           id="Path"
           style="fill:#ffffff" />
      </g>
      <g
         id="_x23_1896bdff"
         transform="translate(27.289083,2.131194)"
         style="fill:#ffffff">
        <path
           d="M 3.2046527,32.847317 C 18.345312,15.779818 39.532923,4.6711827 61.732854,0 58.562897,3.6231426 55.019606,6.9440459 52.337861,10.966879 40.349905,27.892276 35.270622,48.662683 33.254913,69.024295 c -0.630748,10.602649 -1.76731,21.250036 -0.586184,31.861185 0.337353,11.49974 1.669338,22.94581 3.383328,34.31291 0.781175,4.87536 2.033482,9.67876 2.388695,14.60692 C 32.091561,142.30248 26.896705,133.89258 21.790631,125.51901 15.485831,114.4363 9.7936585,102.92824 5.9666822,90.7361 0.80728696,75.630814 -1.2261952,59.416191 0.73627895,43.547592 1.4910967,39.969013 1.8016592,36.239315 3.2046527,32.847317 Z"
           id="path25"
           style="fill:#ffffff" />
      </g>
      <g
         id="_x23_ba0e7eff"
         transform="translate(70.063231,29.010891)"
         style="fill:#ffffff">
        <path
           d="M 100.12234,15.007227 C 105.05926,9.8570217 109.79234,4.395734 115.43154,0 c 9.98057,8.3472128 17.70631,19.163146 23.93109,30.52937 2.30841,4.582314 4.55526,9.252977 6.01132,14.181574 -2.26342,5.9143 -6.64181,10.789056 -11.08176,15.20265 C 122.16204,71.102515 107.78565,79.476085 93.284585,87.174948 77.922318,95.078513 62.062475,101.97773 46.015965,108.36299 30.813749,114.18799 15.601908,120.08469 0,124.72848 6.2694265,116.78078 13.551172,109.69489 20.086684,101.96924 46.583943,72.816071 72.931643,43.521061 100.12234,15.007227 Z"
           id="path28"
           style="fill:#ffffff" />
      </g>
      <g
         id="_x23_319035ff"
         transform="translate(0,57.506692)"
         style="fill:#ffffff">
        <path
           d="M 0,47.748075 C 1.2253434,31.133328 5.3900196,14.45685 13.843788,0 13.9591,5.1593086 13.772693,10.363355 14.749552,15.460152 17.920029,34.694306 27.474638,52.250105 38.992155,67.736874 46.717376,77.99298 55.393271,87.521578 64.877306,96.17103 55.277872,93.639712 45.980852,89.972352 37.038524,85.692017 22.501736,78.694563 7.7699584,69.531062 0,54.842721 Z"
           id="path31"
           style="fill:#ffffff" />
      </g>
      <g
         id="_x23_f20029ff"
         transform="translate(70.063145,96.605575)"
         style="fill:#ffffff">
        <path
           d="M 136.45052,15.797592 C 142.06206,11.339867 147.00852,6.0473855 150.86229,0 c 0.47104,3.1699571 0.91504,6.3491046 1.07456,9.5460257 V 20.130988 c -0.93229,12.73367 -3.62314,25.387748 -8.63115,37.163373 -0.88799,2.245899 -3.01,3.569301 -4.97334,4.794645 C 123.94756,70.818223 107.2351,75.134105 90.522555,76.09319 67.825742,77.486647 45.101098,73.597332 23.336839,67.363973 15.495786,64.788524 7.5215604,62.514794 0,59.096265 32.64305,54.718652 65.152234,48.111699 96.170597,36.860787 110.40549,31.57689 124.40014,25.157124 136.45052,15.797592 Z"
           id="path34"
           style="fill:#ffffff" />
      </g>
      <g
         id="_x23_a3d414ff"
         transform="translate(1.918257,132.2946)"
         style="fill:#ffffff">
        <path
           d="m 0,0 c 5.3808293,5.8335812 11.86354,10.610972 19.23372,13.621833 13.870665,5.869129 28.869135,8.39091 43.77865,9.732346 -9.137578,4.271058 -18.328303,8.480299 -27.838955,11.854523 -6.189575,2.050823 -12.54735,4.378394 -19.171643,3.85368 C 7.9919993,27.350309 3.0987757,13.772693 0,0 Z"
           id="path37"
           style="fill:#ffffff" />
      </g>
      <g
         id="_x23_ffe300ff"
         transform="translate(27.670235,157.22977)"
         style="fill:#ffffff">
        <path
           d="M 0,27.704915 C 13.399706,19.455415 25.752152,9.6700946 38.139365,0 34.605004,11.597021 31.097694,23.273547 29.730161,35.369012 28.584669,40.794146 29.188627,46.361555 30.582691,51.689497 19.003096,45.7139 8.8353387,37.215394 0,27.704915 Z"
           id="path40"
           style="fill:#ffffff" />
      </g>
      <g
         id="_x23_ffb300ff"
         transform="translate(66.229585,157.98424)"
         style="fill:#ffffff">
        <path
           d="m 1.524716,0 c 4.7686345,11.242328 10.44312,22.120166 17.236133,32.278473 8.826755,13.000708 19.882416,25.174377 34.445647,31.737286 H 39.078243 C 29.105909,63.110515 19.089532,61.662177 9.6146873,58.287953 6.9771602,57.595213 5.8229116,54.886938 4.7036901,52.676413 1.9330771,46.184685 0.78749856,39.10764 0.37913747,32.092066 -0.44651489,21.400375 0.13966968,10.620336 1.524716,0 Z"
           id="path43"
           style="fill:#ffffff" />
      </g>
      <g
         id="_x23_ff5e00ff"
         transform="translate(69.956763,158.05525)"
         style="fill:#ffffff">
        <path
           d="m 0,0 c 8.4179607,4.7149666 16.507845,10.11409 25.449826,13.861215 20.94823,9.733299 43.929596,15.851172 67.133002,15.451395 7.521042,-0.541014 15.077632,-1.2165 22.377752,-3.205071 4.23543,-0.9955 8.25817,-2.673422 12.44929,-3.836427 -1.78465,3.205158 -4.67924,5.541486 -7.02415,8.302562 C 108.24673,42.890312 93.301665,52.55165 76.856331,57.986321 74.041501,59.078145 71.128698,57.648881 68.376119,57.018479 52.622745,52.02789 39.151858,41.86967 27.154798,30.778461 17.297864,21.28515 7.9209913,11.1884 0,0 Z"
           id="path46"
           style="fill:#ffffff" />
      </g>
    </g>
    <g
       id="g467"
       style="clip-rule:evenodd;fill:#ffffff;fill-rule:evenodd;image-rendering:optimizeQuality;shape-rendering:geometricPrecision;text-rendering:geometricPrecision"
       transform="translate(63.797384,21.911868)">
      <path
         style="opacity:1;fill:#ffffff"
         fill="#fefffe"
         d="m 637.5,7.5 c 14.825,-1.33756 21.991,5.3291 21.5,20 -3.778,10.6186 -11.278,14.4519 -22.5,11.5 -9.535,-4.3054 -12.701,-11.4721 -9.5,-21.5 2.106,-4.9427 5.606,-8.27601 10.5,-10 z"
         id="path465" />
    </g>
    <g
       id="g499"
       style="clip-rule:evenodd;fill:#ffffff;fill-rule:evenodd;image-rendering:optimizeQuality;shape-rendering:geometricPrecision;text-rendering:geometricPrecision"
       transform="translate(63.797384,21.911868)">
      <path
         style="opacity:1;fill:#ffffff"
         fill="#fefffe"
         d="m 563.5,23.5 c 9.667,0 19.333,0 29,0 0,8.6667 0,17.3333 0,26 8.667,0 17.333,0 26,0 0,7.6667 0,15.3333 0,23 -8.667,0 -17.333,0 -26,0 -0.441,12.7414 0.059,25.408 1.5,38 2.536,3.266 5.869,4.6 10,4 4.395,-0.257 8.561,-1.09 12.5,-2.5 2.427,7.114 4.76,14.28 7,21.5 -7.405,5.271 -15.738,7.604 -25,7 -18.832,0.853 -30.332,-7.814 -34.5,-26 -0.5,-13.996 -0.667,-27.996 -0.5,-42 -5.333,0 -10.667,0 -16,0 0,-7.6667 0,-15.3333 0,-23 5.333,0 10.667,0 16,0 0,-8.6667 0,-17.3333 0,-26 z"
         id="path497" />
    </g>
    <g
       id="g535"
       style="clip-rule:evenodd;fill:#ffffff;fill-rule:evenodd;image-rendering:optimizeQuality;shape-rendering:geometricPrecision;text-rendering:geometricPrecision"
       transform="translate(63.797384,21.911868)">
      <path
         style="opacity:1;fill:#ffffff"
         fill="#fefffe"
         d="m 236.5,46.5 c 36.265,0.2672 53.932,18.6005 53,55 -21.333,0 -42.667,0 -64,0 3.764,13.386 12.431,18.219 26,14.5 4.148,-2.492 7.981,-5.325 11.5,-8.5 8.274,1.454 16.441,3.288 24.5,5.5 -6.178,14.84 -17.178,23.84 -33,27 -20.679,3.889 -37.512,-2.278 -50.5,-18.5 -8.389,-15.368 -9.722,-31.3683 -4,-48 7.816,-14.9949 19.982,-23.9949 36.5,-27 z m 3,24 c 10.134,-0.9385 17.134,3.2281 21,12.5 -11.667,0.6667 -23.333,0.6667 -35,0 2.998,-6.1712 7.664,-10.3379 14,-12.5 z"
         id="path533" />
    </g>
    <g
       id="g539"
       style="clip-rule:evenodd;fill:#ffffff;fill-rule:evenodd;image-rendering:optimizeQuality;shape-rendering:geometricPrecision;text-rendering:geometricPrecision"
       transform="translate(63.797384,21.911868)">
      <path
         style="opacity:1;fill:#ffffff"
         fill="#fefffe"
         d="m 345.5,46.5 c 14.143,-1.6783 25.643,2.9884 34.5,14 11.337,-12.2216 25.17,-16.3882 41.5,-12.5 11.663,4.3303 19.163,12.497 22.5,24.5 1.394,21.9704 1.894,43.97 1.5,66 -9.667,0 -19.333,0 -29,0 0.167,-17.337 0,-34.67 -0.5,-52 -3.547,-13.175 -11.38,-16.675 -23.5,-10.5 -2.606,1.9384 -4.439,4.4384 -5.5,7.5 -1.447,18.278 -1.947,36.611 -1.5,55 -9.667,0 -19.333,0 -29,0 0.167,-17.67 0,-35.336 -0.5,-53 -4.123,-12.3231 -11.956,-15.4898 -23.5,-9.5 -2.469,2.4411 -4.302,5.2744 -5.5,8.5 -1.431,17.953 -1.931,35.953 -1.5,54 -9.667,0 -19.333,0 -29,0 0,-29.667 0,-59.3333 0,-89 9.667,0 19.333,0 29,0 -0.162,2.0273 0.005,4.0273 0.5,6 5.779,-4.8096 12.279,-7.8096 19.5,-9 z"
         id="path537" />
    </g>
    <g
       id="g543"
       style="clip-rule:evenodd;fill:#ffffff;fill-rule:evenodd;image-rendering:optimizeQuality;shape-rendering:geometricPrecision;text-rendering:geometricPrecision"
       transform="translate(63.797384,21.911868)">
      <path
         style="opacity:1;fill:#ffffff"
         fill="#fefffe"
         d="m 819.5,46.5 c 21.812,-1.1946 34.979,8.8054 39.5,30 0.5,20.664 0.667,41.331 0.5,62 -9.667,0 -19.333,0 -29,0 0.167,-18.003 0,-36.003 -0.5,-54 -4.21,-10.9288 -11.71,-14.0954 -22.5,-9.5 -3.661,2.6625 -6.161,6.1625 -7.5,10.5 -1.445,17.611 -1.945,35.277 -1.5,53 -9.667,0 -19.333,0 -29,0 0,-29.667 0,-59.3333 0,-89 9.667,0 19.333,0 29,0 -1.081,6.644 0.253,7.8107 4,3.5 5.382,-3.2882 11.049,-5.4549 17,-6.5 z"
         id="path541" />
    </g>
    <g
       id="g547"
       style="clip-rule:evenodd;fill:#ffffff;fill-rule:evenodd;image-rendering:optimizeQuality;shape-rendering:geometricPrecision;text-rendering:geometricPrecision"
       transform="translate(63.797384,21.911868)">
      <path
         style="opacity:1;fill:#ffffff"
         fill="#fefffe"
         d="m 899.5,46.5 c 16.751,-1.9481 30.918,3.0519 42.5,15 2.354,3.703 3.854,7.703 4.5,12 -8.052,0.9433 -16.052,2.2766 -24,4 -1,-0.3333 -2,-0.6667 -3,-1 -4.507,-8.1151 -11.174,-10.6151 -20,-7.5 -4.229,3.8432 -3.895,7.1765 1,10 11.164,2.0323 22.164,4.699 33,8 11.982,7.1448 16.482,17.645 13.5,31.5 -4.64,12.76 -13.807,19.926 -27.5,21.5 -13.013,1.599 -25.679,0.266 -38,-4 -8.521,-4.354 -13.855,-11.187 -16,-20.5 9.39,-3.214 19.057,-5.547 29,-7 0.241,4.63 2.575,7.797 7,9.5 5.829,1.844 11.496,1.178 17,-2 1.876,-4.821 0.209,-7.821 -5,-9 -12.026,-1.737 -23.693,-4.737 -35,-9 -9.865,-7.9321 -13.032,-18.0987 -9.5,-30.5 6.141,-12.8224 16.308,-19.8224 30.5,-21 z"
         id="path545" />
    </g>
    <g
       id="g551"
       style="clip-rule:evenodd;fill:#ffffff;fill-rule:evenodd;image-rendering:optimizeQuality;shape-rendering:geometricPrecision;text-rendering:geometricPrecision"
       transform="translate(63.797384,21.911868)">
      <path
         style="opacity:1;fill:#ffffff"
         fill="#fefffe"
         d="m 489.5,47.5 c 19.352,-3.0455 35.852,2.2879 49.5,16 10.89,15.0176 13.223,31.3509 7,49 -11.739,22.274 -30.239,31.441 -55.5,27.5 -28.391,-7.072 -41.224,-25.239 -38.5,-54.5 4.641,-20.4743 17.141,-33.1409 37.5,-38 z m 7,24 c 14.681,0.1673 23.014,7.5006 25,22 -2.544,18.088 -12.544,24.921 -30,20.5 -13.261,-9.743 -15.428,-21.5761 -6.5,-35.5 3.514,-3.0001 7.347,-5.3334 11.5,-7 z"
         id="path549" />
    </g>
    <g
       id="g555"
       style="clip-rule:evenodd;fill:#ffffff;fill-rule:evenodd;image-rendering:optimizeQuality;shape-rendering:geometricPrecision;text-rendering:geometricPrecision"
       transform="translate(63.797384,21.911868)">
      <path
         style="opacity:1;fill:#ffffff"
         fill="#fefffe"
         d="m 702.5,47.5 c 21.471,-3.239 38.971,3.4277 52.5,20 10.23,18.236 9.897,36.236 -1,54 -16.94,18.694 -37.44,23.86 -61.5,15.5 -21.911,-10.649 -31.077,-28.149 -27.5,-52.5 5.09,-19.9233 17.59,-32.2567 37.5,-37 z m 7,24 c 14.784,0.2821 23.117,7.7821 25,22.5 -1.319,12.818 -8.319,20.318 -21,22.5 -15.496,-2.995 -22.329,-12.328 -20.5,-28 2.349,-8.8478 7.849,-14.5145 16.5,-17 z"
         id="path553" />
    </g>
    <g
       id="g563"
       style="clip-rule:evenodd;fill:#ffffff;fill-rule:evenodd;image-rendering:optimizeQuality;shape-rendering:geometricPrecision;text-rendering:geometricPrecision"
       transform="translate(63.797384,21.911868)">
      <path
         style="opacity:1;fill:#ffffff"
         fill="#fefffe"
         d="m 628.5,49.5 c 9.667,0 19.333,0 29,0 0,29.6667 0,59.333 0,89 -9.667,0 -19.333,0 -29,0 0,-29.667 0,-59.3333 0,-89 z"
         id="path561" />
    </g>
    <g
       id="g163"
       style="clip-rule:evenodd;fill-rule:evenodd;image-rendering:optimizeQuality;shape-rendering:geometricPrecision;text-rendering:geometricPrecision;fill:#ffffff"
       transform="translate(74.448109,-2.2338501)">
      <path
         style="opacity:1;fill:#ffffff"
         fill="#fefffe"
         d="m 967.5,19.5 c 5,0 10,0 15,0 0,6 0,12 0,18 9,0 18,0 27,0 0,-6 0,-12 0,-18 5,0 10,0 15,0 0,17.6667 0,35.3333 0,53 -5,0 -10,0 -15,0 0,-7 0,-14 0,-21 -9,0 -18,0 -27,0 0,7 0,14 0,21 -5,0 -10,0 -15,0 0,-17.6667 0,-35.3333 0,-53 z"
         id="path161" />
    </g>
    <g
       id="g167"
       style="clip-rule:evenodd;fill:#ffffff;fill-rule:evenodd;image-rendering:optimizeQuality;shape-rendering:geometricPrecision;text-rendering:geometricPrecision"
       transform="translate(74.448109,-2.2338501)">
      <path
         style="opacity:1;fill:#ffffff"
         fill="#fefffe"
         d="m 1033.5,19.5 c 13,-0.1666 26,10e-5 39,0.5 7.02,0.092 12.52,2.9254 16.5,8.5 3.33,11.6667 3.33,23.3333 0,35 -1.89,3.5579 -4.73,6.0579 -8.5,7.5 -15.62,1.4196 -31.28,1.9196 -47,1.5 0,-11.6667 0,-23.3333 0,-35 5,0 10,0 15,0 0,8 0,16 0,24 8.07,0.3633 16.07,-0.1367 24,-1.5 3.37,-4.1626 4.71,-8.996 4,-14.5 0.04,-3.7556 -0.46,-7.4222 -1.5,-11 -1.32,-1.9875 -3.15,-3.1541 -5.5,-3.5 -12,-0.4999 -24,-0.6665 -36,-0.5 0,-3.6667 0,-7.3333 0,-11 z"
         id="path165" />
    </g>
  </g>
  <metadata
     id="metadata5619">
    <rdf:RDF>
      <cc:Work
         rdf:about="">
        <dc:title>unblock-SAT1</dc:title>
      </cc:Work>
    </rdf:RDF>
  </metadata>
</svg>
