<svg width="1024" height="485" version="1.0" xmlns="http://www.w3.org/2000/svg"><defs><clipPath id="b" clipPathUnits="userSpaceOnUse"><path d="M166.333 284.447h26.548v12.201h-26.548v-12.201z"/></clipPath><clipPath id="a" clipPathUnits="userSpaceOnUse"><path d="M0 0h72v72H0V0z"/></clipPath></defs><g clip-path="url(#b)" transform="matrix(44.42186 0 0 -44.42186 -7460.963 13152.491)" style="fill:#d4003a;fill-opacity:1"><g style="fill:#fff;fill-opacity:1"><path style="fill:#fff;fill-opacity:1;fill-rule:nonzero;stroke:none" d="M0 0c.493.301.417.338.879.056.22-.135.718-.468 1.095-.892a5.073 5.073 0 0 0 .867-1.347c.22-.535.187-.432-.285-.913-3.013-3.065-7.93-4.126-7.93-4.126C-5.124-6.695-2.942-1.956 0 0" transform="translate(175.48 295.074)"/></g><g style="fill:#fff;fill-opacity:1"><path style="fill:#fff;fill-opacity:1;fill-rule:nonzero;stroke:none" d="M0 0s.158 1.611 1.914 3.036c.021.016.044-.021.022-.043-.778-.795-1.814-3.142-.051-6.887C1.405-3.484-.305-1.756 0 0" transform="translate(168.22 291.746)"/></g><g style="fill:#fff;fill-opacity:1"><path style="fill:#fff;fill-opacity:1;fill-rule:nonzero;stroke:none" d="M0 0c.05.035.071-.02.048-.044-1.325-1.327-3.207-1.459-3.821-1.336-1.796.513-2.779 1.994-3.098 2.531C-3.614-1.19-.874-.597 0 0" transform="translate(176.976 286.701)"/></g><g style="fill:#fff;fill-opacity:1"><path style="fill:#fff;fill-opacity:1;fill-rule:nonzero;stroke:none" d="M0 0c.01-.046-.012-.052-.036-.03-.419.376-.605.57-.937 1.132-.016.027.011.033.04.019.228-.103.745-.178 1.213.021A1.746 1.746 0 0 1 0 0" transform="translate(169.825 286.71)"/></g><g style="fill:#fff;fill-opacity:1"><path style="fill:#fff;fill-opacity:1;fill-rule:nonzero;stroke:none" d="M0 0c-.363.747-.41 1.381-.445 1.852-.003.037.042.028.049 0C-.156.973.233.335 1.551-.553 1.254-.555.335-.434 0 0" transform="translate(168.554 288.405)"/></g><g style="fill:#fff;fill-opacity:1"><path style="fill:#fff;fill-opacity:1;fill-rule:nonzero;stroke:none" d="M0 0c1.048.113 2.111-.13 2.176-.172.025-.016.035-.04.013-.05-.253-.114-1.187-.608-2.4-2.179C-1.464-4.097-2.258-6.617-2.65-8.06-2.881-7.401-4.487-.483 0 0" transform="translate(172.755 295.913)"/></g><g style="fill:#fff;fill-opacity:1"><path style="fill:#fff;fill-opacity:1;fill-rule:nonzero;stroke:none" d="M0 0c1.485.133 4.143.487 6.027 1.426 1.755.92 2.41 1.765 2.567 1.995.001.009.024.021.035-.006-.005.003-.003.002 0 0 .047-.128.087-1.19-.209-2.204C7.156-3.135.606-.345 0 0" transform="translate(170.105 287.853)"/></g><g style="fill:#fff;fill-opacity:1"><path style="fill:#fff;fill-opacity:1;fill-rule:nonzero;stroke:none" d="M0 0c.416-.869.746-1.728 2.152-2.415.034-.017.003-.055-.031-.048-.861.185-1.344.492-1.814.811C-.091-1.381-.047-.362 0 0" transform="translate(170.104 287.852)"/></g><path d="M184.282 292.262v-3.367h-1.301v1.25h-1.303v-1.25h-1.302v3.367h1.302v-1.154h1.303v1.154z" fill="#5d6061" style="fill:#fff;stroke-width:.0431031"/><path d="M187.713 292.086a1.695 1.655 0 0 0 .648-.606 1.745 1.704 0 0 0 0-1.712 1.695 1.655 0 0 0-.648-.606 1.86 1.817 0 0 0-.915-.222h-1.551v3.368h1.551a1.86 1.817 0 0 0 .915-.222zm-.397-1.984q.199.2.199.522t-.2.522q-.196.2-.517.2h-.466v-1.444h.468q.32 0 .517.2z" fill="#5d6061" style="fill:#fff;stroke-width:.0393153"/></g></svg>