<?xml version="1.0" encoding="UTF-8"?>
<!DOCTYPE svg PUBLIC "-//W3C//DTD SVG 1.1//EN" "http://www.w3.org/Graphics/SVG/1.1/DTD/svg11.dtd">
<svg xmlns="http://www.w3.org/2000/svg" version="1.1" width="495px" height="120px" style="shape-rendering:geometricPrecision; text-rendering:geometricPrecision; image-rendering:optimizeQuality; fill-rule:evenodd; clip-rule:evenodd" xmlns:xlink="http://www.w3.org/1999/xlink">
<g><path style="opacity:1" fill="#ffffff" d="M 142.5,-0.5 C 150.5,-0.5 158.5,-0.5 166.5,-0.5C 185.248,3.70167 198.914,14.3683 207.5,31.5C 202.456,31.8275 197.456,31.4941 192.5,30.5C 177.355,12.8789 158.688,7.7122 136.5,15C 128.079,18.4151 121.079,23.7484 115.5,31C 110.845,31.4992 106.179,31.6658 101.5,31.5C 101.841,28.4842 103.007,25.8175 105,23.5C 114.882,11.3146 127.382,3.31462 142.5,-0.5 Z"/></g>
<g><path style="opacity:1" fill="#ffffff" d="M -0.5,71.5 C -0.5,63.5 -0.5,55.5 -0.5,47.5C 6.44577,21.0573 23.4458,5.55727 50.5,1C 63.8292,0.500104 77.1625,0.333437 90.5,0.5C 90.5,4.83333 90.5,9.16667 90.5,13.5C 77.1625,13.3334 63.8292,13.5001 50.5,14C 23.7414,20.6611 10.908,37.8278 12,65.5C 16.0782,87.2444 28.9115,100.411 50.5,105C 61.1615,105.5 71.8281,105.667 82.5,105.5C 82.5,92.1667 82.5,78.8333 82.5,65.5C 80.1667,65.5 77.8333,65.5 75.5,65.5C 75.5,61.5 75.5,57.5 75.5,53.5C 82.1667,53.5 88.8333,53.5 95.5,53.5C 95.5,75.1667 95.5,96.8333 95.5,118.5C 80.4963,118.667 65.4963,118.5 50.5,118C 23.4458,113.443 6.44577,97.9427 -0.5,71.5 Z"/></g>
<g><path style="opacity:1" fill="#ffffff" d="M 214.5,0.5 C 218.5,0.5 222.5,0.5 226.5,0.5C 226.5,35.5 226.5,70.5 226.5,105.5C 246.5,105.5 266.5,105.5 286.5,105.5C 286.5,109.833 286.5,114.167 286.5,118.5C 262.5,118.5 238.5,118.5 214.5,118.5C 214.5,79.1667 214.5,39.8333 214.5,0.5 Z"/></g>
<g><path style="opacity:1" fill="#ffffff" d="M 298.5,0.5 C 311.837,0.333437 325.171,0.500104 338.5,1C 370.465,7.39885 387.799,26.8988 390.5,59.5C 387.799,92.1012 370.465,111.601 338.5,118C 323.504,118.5 308.504,118.667 293.5,118.5C 293.5,98.5 293.5,78.5 293.5,58.5C 297.833,58.5 302.167,58.5 306.5,58.5C 306.5,74.1667 306.5,89.8333 306.5,105.5C 317.172,105.667 327.839,105.5 338.5,105C 365.388,98.4339 378.221,81.2672 377,53.5C 373.284,31.451 360.451,18.2844 338.5,14C 325.171,13.5001 311.837,13.3334 298.5,13.5C 298.5,9.16667 298.5,4.83333 298.5,0.5 Z"/></g>
<g><path style="opacity:1" fill="#ffffff" d="M 412.5,29.5 C 415.5,29.5 418.5,29.5 421.5,29.5C 421.5,38.1667 421.5,46.8333 421.5,55.5C 427.833,55.5 434.167,55.5 440.5,55.5C 440.5,46.8333 440.5,38.1667 440.5,29.5C 443.5,29.5 446.5,29.5 449.5,29.5C 449.5,49.5 449.5,69.5 449.5,89.5C 446.5,89.5 443.5,89.5 440.5,89.5C 440.5,81.1667 440.5,72.8333 440.5,64.5C 434.167,64.5 427.833,64.5 421.5,64.5C 421.5,72.8333 421.5,81.1667 421.5,89.5C 418.5,89.5 415.5,89.5 412.5,89.5C 412.5,69.5 412.5,49.5 412.5,29.5 Z"/></g>
<g><path style="opacity:1" fill="#ffffff" d="M 494.5,38.5 C 494.5,52.5 494.5,66.5 494.5,80.5C 492.588,84.9053 489.255,87.7387 484.5,89C 475.506,89.4998 466.506,89.6664 457.5,89.5C 457.5,74.5 457.5,59.5 457.5,44.5C 460.5,44.5 463.5,44.5 466.5,44.5C 466.5,56.5 466.5,68.5 466.5,80.5C 471.844,80.666 477.177,80.4994 482.5,80C 483.333,79.1667 484.167,78.3333 485,77.5C 485.667,65.5 485.667,53.5 485,41.5C 484.167,40.6667 483.333,39.8333 482.5,39C 474.173,38.5003 465.84,38.3336 457.5,38.5C 457.5,35.5 457.5,32.5 457.5,29.5C 466.506,29.3336 475.506,29.5002 484.5,30C 489.255,31.2613 492.588,34.0947 494.5,38.5 Z"/></g>
<g><path style="opacity:1" fill="#ffffff" d="M 119.5,44.5 C 123.584,44.0431 127.417,44.7098 131,46.5C 131.402,47.8721 131.902,49.2054 132.5,50.5C 131.667,50.8333 130.833,51.1667 130,51.5C 127.352,48.6032 124.185,47.9365 120.5,49.5C 119.24,51.3529 119.24,53.1862 120.5,55C 125.151,55.7416 128.984,57.9083 132,61.5C 134.714,69.3976 131.881,73.7309 123.5,74.5C 117.924,74.585 114.924,71.9183 114.5,66.5C 116.167,66.5 117.833,66.5 119.5,66.5C 120.875,70.6866 123.541,71.5199 127.5,69C 128.833,67 128.833,65 127.5,63C 124.167,61.6667 120.833,60.3333 117.5,59C 113.128,53.4079 113.794,48.5746 119.5,44.5 Z"/></g>
<g><path style="opacity:1" fill="#ffffff" d="M 141.5,44.5 C 145.182,44.3347 148.848,44.5014 152.5,45C 153.931,45.4652 155.097,46.2986 156,47.5C 156.5,56.4938 156.666,65.4938 156.5,74.5C 154.856,74.7135 153.356,74.3802 152,73.5C 151.502,70.1832 151.335,66.8499 151.5,63.5C 148.5,63.5 145.5,63.5 142.5,63.5C 142.5,67.1667 142.5,70.8333 142.5,74.5C 140.833,74.5 139.167,74.5 137.5,74.5C 137.334,65.8269 137.5,57.1603 138,48.5C 138.69,46.6498 139.856,45.3164 141.5,44.5 Z M 144.5,48.5 C 146.591,48.3184 148.591,48.6518 150.5,49.5C 151.487,52.7683 151.82,56.1016 151.5,59.5C 148.5,59.5 145.5,59.5 142.5,59.5C 142.036,55.4975 142.702,51.8309 144.5,48.5 Z"/></g>
<g><path style="opacity:1" fill="#ffffff" d="M 159.5,44.5 C 166.167,44.5 172.833,44.5 179.5,44.5C 179.5,45.8333 179.5,47.1667 179.5,48.5C 176.833,48.5 174.167,48.5 171.5,48.5C 171.5,57.1667 171.5,65.8333 171.5,74.5C 170.167,74.5 168.833,74.5 167.5,74.5C 167.5,65.8333 167.5,57.1667 167.5,48.5C 164.833,48.5 162.167,48.5 159.5,48.5C 159.5,47.1667 159.5,45.8333 159.5,44.5 Z"/></g>
<g><path style="opacity:1" fill="#ffffff" d="M 185.5,44.5 C 188.167,44.5 190.833,44.5 193.5,44.5C 193.5,54.5 193.5,64.5 193.5,74.5C 192.167,74.5 190.833,74.5 189.5,74.5C 189.5,66.1667 189.5,57.8333 189.5,49.5C 188.167,49.5 186.833,49.5 185.5,49.5C 185.5,47.8333 185.5,46.1667 185.5,44.5 Z"/></g>
<g><path style="opacity:1" fill="#ffffff" d="M 178.5,69.5 C 179.833,69.5 181.167,69.5 182.5,69.5C 182.5,70.8333 182.5,72.1667 182.5,73.5C 181.167,73.5 179.833,73.5 178.5,73.5C 178.5,72.1667 178.5,70.8333 178.5,69.5 Z"/></g>
<g><path style="opacity:1" fill="#ffffff" d="M 166.5,119.5 C 158.5,119.5 150.5,119.5 142.5,119.5C 127.382,115.685 114.882,107.685 105,95.5C 103.007,93.1825 101.841,90.5158 101.5,87.5C 106.179,87.3342 110.845,87.5008 115.5,88C 136.015,110.253 159.015,113.253 184.5,97C 187.5,94 190.5,91 193.5,88C 198.155,87.5008 202.821,87.3342 207.5,87.5C 198.927,104.628 185.26,115.295 166.5,119.5 Z"/></g>
</svg>
