<?xml version="1.0" encoding="UTF-8"?>
<!DOCTYPE svg PUBLIC "-//W3C//DTD SVG 1.1//EN" "http://www.w3.org/Graphics/SVG/1.1/DTD/svg11.dtd">
<svg xmlns="http://www.w3.org/2000/svg" version="1.1" width="208px" height="240px" style="shape-rendering:geometricPrecision; text-rendering:geometricPrecision; image-rendering:optimizeQuality; fill-rule:evenodd; clip-rule:evenodd" xmlns:xlink="http://www.w3.org/1999/xlink">
<g><path style="opacity:0.997" fill="#fb9e10" d="M 98.5,-0.5 C 101.833,-0.5 105.167,-0.5 108.5,-0.5C 141.237,18.8916 174.237,37.8916 207.5,56.5C 207.5,98.5 207.5,140.5 207.5,182.5C 174.297,201.264 141.297,220.264 108.5,239.5C 104.833,239.5 101.167,239.5 97.5,239.5C 65.1965,220.01 32.5298,201.01 -0.5,182.5C -0.5,140.5 -0.5,98.5 -0.5,56.5C 32.6712,37.7493 65.6712,18.7493 98.5,-0.5 Z"/></g>
<g><path style="opacity:1" fill="#fff7f0" d="M 17.5,78.5 C 21.5463,78.1499 25.3797,78.8166 29,80.5C 29.2649,82.1626 28.7649,83.6626 27.5,85C 24.4818,84.501 21.4818,84.6677 18.5,85.5C 22.3357,87.3359 26.1691,89.3359 30,91.5C 32.6011,96.5018 31.4344,100.335 26.5,103C 22.5,103.667 18.5,103.667 14.5,103C 11.1964,101.715 10.5297,99.548 12.5,96.5C 16.1185,97.2436 19.7852,97.577 23.5,97.5C 23.5,96.5 23.5,95.5 23.5,94.5C 14.994,94.8296 11.1607,90.8296 12,82.5C 13.4998,80.5313 15.3331,79.198 17.5,78.5 Z"/></g>
<g><path style="opacity:1" fill="#fff8f2" d="M 41.5,78.5 C 47.1045,77.8106 51.7711,79.4773 55.5,83.5C 53.8333,84.8333 52.1667,86.1667 50.5,87.5C 46.5971,83.3487 43.0971,83.682 40,88.5C 39.4467,97.2676 43.1134,99.601 51,95.5C 56.854,98.0623 56.6873,100.562 50.5,103C 36.1248,104.75 30.6248,98.5831 34,84.5C 36.1337,81.8474 38.6337,79.8474 41.5,78.5 Z"/></g>
<g><path style="opacity:1" fill="#fffaf5" d="M 78.5,79.5 C 78.5,87.1667 78.5,94.8333 78.5,102.5C 76.5,102.5 74.5,102.5 72.5,102.5C 72.5,100.167 72.5,97.8333 72.5,95.5C 69.8333,95.5 67.1667,95.5 64.5,95.5C 64.5,98.1667 64.5,100.833 64.5,103.5C 62.1667,103.5 59.8333,103.5 57.5,103.5C 57.5,95.5 57.5,87.5 57.5,79.5C 59.8333,79.5 62.1667,79.5 64.5,79.5C 64.5,82.8333 64.5,86.1667 64.5,89.5C 67.1667,89.5 69.8333,89.5 72.5,89.5C 72.5,86.1667 72.5,82.8333 72.5,79.5C 74.5,79.5 76.5,79.5 78.5,79.5 Z"/></g>
<g><path style="opacity:1" fill="#fffefe" d="M 88.5,79.5 C 88.5,85.5 88.5,91.5 88.5,97.5C 92.1667,97.5 95.8333,97.5 99.5,97.5C 99.5,99.1667 99.5,100.833 99.5,102.5C 93.8333,102.5 88.1667,102.5 82.5,102.5C 82.5,94.8333 82.5,87.1667 82.5,79.5C 84.5,79.5 86.5,79.5 88.5,79.5 Z"/></g>
<g><path style="opacity:1" fill="#fff9f4" d="M 127.5,101.5 C 125.393,102.468 123.059,102.802 120.5,102.5C 120.586,101.504 120.252,100.671 119.5,100C 116.5,99.3333 113.5,99.3333 110.5,100C 109.663,101.011 109.33,102.178 109.5,103.5C 107.167,103.5 104.833,103.5 102.5,103.5C 105.046,95.5395 108.38,87.8728 112.5,80.5C 114.167,79.1667 115.833,79.1667 117.5,80.5C 121.118,87.4004 124.451,94.4004 127.5,101.5 Z"/></g>
<g><path style="opacity:1" fill="#fff8f2" d="M 135.5,78.5 C 138.187,78.3359 140.854,78.5026 143.5,79C 149.351,80.5196 149.851,83.0196 145,86.5C 137.011,83.1708 133.678,85.8375 135,94.5C 137.96,97.9711 141.126,98.3044 144.5,95.5C 142.955,94.5481 141.288,94.2148 139.5,94.5C 139.5,92.8333 139.5,91.1667 139.5,89.5C 143.167,89.5 146.833,89.5 150.5,89.5C 153.41,99.2109 149.91,103.878 140,103.5C 129.14,102.386 125.14,96.3864 128,85.5C 129.742,82.2543 132.242,79.921 135.5,78.5 Z"/></g>
<g><path style="opacity:1" fill="#fffbf6" d="M 153.5,79.5 C 159.5,79.5 165.5,79.5 171.5,79.5C 171.5,81.1667 171.5,82.8333 171.5,84.5C 167.5,84.5 163.5,84.5 159.5,84.5C 159.5,85.8333 159.5,87.1667 159.5,88.5C 162.833,88.5 166.167,88.5 169.5,88.5C 169.5,90.5 169.5,92.5 169.5,94.5C 166.167,94.5 162.833,94.5 159.5,94.5C 159.5,95.5 159.5,96.5 159.5,97.5C 163.5,97.5 167.5,97.5 171.5,97.5C 171.5,99.1667 171.5,100.833 171.5,102.5C 165.5,102.5 159.5,102.5 153.5,102.5C 153.5,94.8333 153.5,87.1667 153.5,79.5 Z"/></g>
<g><path style="opacity:1" fill="#fcd9a8" d="M 175.5,79.5 C 175.5,87.1667 175.5,94.8333 175.5,102.5C 177.5,102.5 179.5,102.5 181.5,102.5C 179.393,103.468 177.059,103.802 174.5,103.5C 174.174,95.3159 174.508,87.3159 175.5,79.5 Z"/></g>
<g><path style="opacity:1" fill="#fffaf6" d="M 175.5,79.5 C 180.179,79.3342 184.845,79.5008 189.5,80C 196.748,84.5766 197.414,90.0766 191.5,96.5C 193.226,98.2279 194.559,100.228 195.5,102.5C 193.235,103.647 190.902,103.814 188.5,103C 187.149,99.805 184.815,97.9717 181.5,97.5C 181.5,99.1667 181.5,100.833 181.5,102.5C 179.5,102.5 177.5,102.5 175.5,102.5C 175.5,94.8333 175.5,87.1667 175.5,79.5 Z"/></g>
<g><path style="opacity:1" fill="#fcd6a2" d="M 78.5,79.5 C 79.4924,87.3159 79.8257,95.3159 79.5,103.5C 76.9407,103.802 74.6074,103.468 72.5,102.5C 74.5,102.5 76.5,102.5 78.5,102.5C 78.5,94.8333 78.5,87.1667 78.5,79.5 Z"/></g>
<g><path style="opacity:1" fill="#fba52a" d="M 181.5,84.5 C 184.982,84.0679 187.315,85.4012 188.5,88.5C 186.974,91.0918 184.641,92.0918 181.5,91.5C 181.5,89.1667 181.5,86.8333 181.5,84.5 Z"/></g>
<g><path style="opacity:1" fill="#fba837" d="M 114.5,88.5 C 115.725,89.937 116.725,91.6036 117.5,93.5C 115.833,94.8333 114.167,94.8333 112.5,93.5C 113.456,91.9246 114.123,90.258 114.5,88.5 Z"/></g>
<g><path style="opacity:1" fill="#fcc99b" d="M 88.5,79.5 C 89.4889,84.9753 89.8222,90.642 89.5,96.5C 93.1667,96.5 96.8333,96.5 100.5,96.5C 100.5,98.8333 100.5,101.167 100.5,103.5C 94.31,103.823 88.31,103.49 82.5,102.5C 88.1667,102.5 93.8333,102.5 99.5,102.5C 99.5,100.833 99.5,99.1667 99.5,97.5C 95.8333,97.5 92.1667,97.5 88.5,97.5C 88.5,91.5 88.5,85.5 88.5,79.5 Z"/></g>
<g><path style="opacity:1" fill="#fcc38d" d="M 127.5,101.5 C 128.043,101.56 128.376,101.893 128.5,102.5C 125.691,103.8 123.024,103.8 120.5,102.5C 123.059,102.802 125.393,102.468 127.5,101.5 Z"/></g>
<g><path style="opacity:1" fill="#fcc792" d="M 153.5,79.5 C 153.5,87.1667 153.5,94.8333 153.5,102.5C 159.5,102.5 165.5,102.5 171.5,102.5C 171.5,100.833 171.5,99.1667 171.5,97.5C 172.461,99.2646 172.795,101.265 172.5,103.5C 165.833,103.5 159.167,103.5 152.5,103.5C 152.174,95.3159 152.508,87.3159 153.5,79.5 Z"/></g>
<g><path style="opacity:1" fill="#fffbfa" d="M 11.5,109.5 C 17.8421,109.334 24.1754,109.5 30.5,110C 37.877,112.747 41.5437,118.08 41.5,126C 41.1405,135.188 36.4738,140.355 27.5,141.5C 22.1667,141.5 16.8333,141.5 11.5,141.5C 11.5,130.833 11.5,120.167 11.5,109.5 Z"/></g>
<g><path style="opacity:1" fill="#fff8f6" d="M 45.5,109.5 C 53.8333,109.5 62.1667,109.5 70.5,109.5C 70.5,112.167 70.5,114.833 70.5,117.5C 65.1667,117.5 59.8333,117.5 54.5,117.5C 54.5,119.167 54.5,120.833 54.5,122.5C 58.8333,122.5 63.1667,122.5 67.5,122.5C 67.5,125.167 67.5,127.833 67.5,130.5C 63.1667,130.5 58.8333,130.5 54.5,130.5C 54.5,131.833 54.5,133.167 54.5,134.5C 60.1667,134.5 65.8333,134.5 71.5,134.5C 71.5,137.167 71.5,139.833 71.5,142.5C 62.8333,142.5 54.1667,142.5 45.5,142.5C 45.5,131.5 45.5,120.5 45.5,109.5 Z"/></g>
<g><path style="opacity:1" fill="#fefdfd" d="M 84.5,133.5 C 89.3054,134.487 94.3054,134.821 99.5,134.5C 99.5,136.833 99.5,139.167 99.5,141.5C 91.5,141.5 83.5,141.5 75.5,141.5C 75.5,130.833 75.5,120.167 75.5,109.5C 78.5,109.5 81.5,109.5 84.5,109.5C 84.5,117.5 84.5,125.5 84.5,133.5 Z"/></g>
<g><path style="opacity:1" fill="#fff6f2" d="M 102.5,109.5 C 105.833,109.5 109.167,109.5 112.5,109.5C 112.334,116.841 112.5,124.174 113,131.5C 115.952,135.482 118.952,135.482 122,131.5C 122.5,124.174 122.666,116.841 122.5,109.5C 125.833,109.5 129.167,109.5 132.5,109.5C 132.666,117.507 132.5,125.507 132,133.5C 129.481,140.568 124.481,143.568 117,142.5C 111.422,143.211 107.088,141.211 104,136.5C 102.586,127.582 102.086,118.582 102.5,109.5 Z"/></g>
<g><path style="opacity:1" fill="#fff8f5" d="M 135.5,110.5 C 139.019,109.192 142.685,109.192 146.5,110.5C 148.167,113.167 149.833,115.833 151.5,118.5C 153.167,115.833 154.833,113.167 156.5,110.5C 159.833,109.167 163.167,109.167 166.5,110.5C 163.752,115.666 160.752,120.666 157.5,125.5C 160.833,130.833 164.167,136.167 167.5,141.5C 164.216,142.657 160.882,142.824 157.5,142C 155.375,138.918 153.375,135.751 151.5,132.5C 149.302,135.533 147.302,138.7 145.5,142C 142.118,142.824 138.784,142.657 135.5,141.5C 138.538,136.143 141.538,130.81 144.5,125.5C 141.873,120.222 138.873,115.222 135.5,110.5 Z"/></g>
<g><path style="opacity:1" fill="#fffbfa" d="M 171.5,109.5 C 179.5,109.5 187.5,109.5 195.5,109.5C 195.5,112.167 195.5,114.833 195.5,117.5C 190.167,117.5 184.833,117.5 179.5,117.5C 179.5,119.167 179.5,120.833 179.5,122.5C 183.833,122.5 188.167,122.5 192.5,122.5C 192.5,124.833 192.5,127.167 192.5,129.5C 188.167,129.5 183.833,129.5 179.5,129.5C 179.216,131.415 179.549,133.081 180.5,134.5C 186.167,134.5 191.833,134.5 197.5,134.5C 197.802,137.059 197.468,139.393 196.5,141.5C 188.167,141.5 179.833,141.5 171.5,141.5C 171.5,130.833 171.5,120.167 171.5,109.5 Z"/></g>
<g><path style="opacity:1" fill="#fdcc8e" d="M 27.5,118.5 C 25.1667,118.5 22.8333,118.5 20.5,118.5C 20.5,123.5 20.5,128.5 20.5,133.5C 19.5119,128.36 19.1786,123.026 19.5,117.5C 22.3854,117.194 25.0521,117.527 27.5,118.5 Z"/></g>
<g><path style="opacity:1" fill="#fa9e14" d="M 27.5,118.5 C 31.8811,121.941 32.7144,126.274 30,131.5C 27.0964,133.227 23.9297,133.893 20.5,133.5C 20.5,128.5 20.5,123.5 20.5,118.5C 22.8333,118.5 25.1667,118.5 27.5,118.5 Z"/></g>
<g><path style="opacity:1" fill="#fcd1b3" d="M 171.5,109.5 C 171.5,120.167 171.5,130.833 171.5,141.5C 179.833,141.5 188.167,141.5 196.5,141.5C 188.016,142.493 179.349,142.826 170.5,142.5C 170.172,131.321 170.505,120.321 171.5,109.5 Z"/></g>
<g><path style="opacity:1" fill="#fbbd8c" d="M 192.5,122.5 C 193.473,124.948 193.806,127.615 193.5,130.5C 189.167,130.5 184.833,130.5 180.5,130.5C 180.5,131.833 180.5,133.167 180.5,134.5C 179.549,133.081 179.216,131.415 179.5,129.5C 183.833,129.5 188.167,129.5 192.5,129.5C 192.5,127.167 192.5,124.833 192.5,122.5 Z"/></g>
<g><path style="opacity:1" fill="#fabc9f" d="M 11.5,109.5 C 11.5,120.167 11.5,130.833 11.5,141.5C 16.8333,141.5 22.1667,141.5 27.5,141.5C 22.0247,142.489 16.358,142.822 10.5,142.5C 10.1721,131.321 10.5054,120.321 11.5,109.5 Z"/></g>
<g><path style="opacity:1" fill="#fabdae" d="M 84.5,133.5 C 89.8333,133.5 95.1667,133.5 100.5,133.5C 100.5,136.5 100.5,139.5 100.5,142.5C 91.9832,142.826 83.6499,142.493 75.5,141.5C 83.5,141.5 91.5,141.5 99.5,141.5C 99.5,139.167 99.5,136.833 99.5,134.5C 94.3054,134.821 89.3054,134.487 84.5,133.5 Z"/></g>
</svg>
