<svg viewBox="0 0 192 102" xmlns="http://www.w3.org/2000/svg" xml:space="preserve" style="fill-rule:evenodd;clip-rule:evenodd;stroke-linecap:round;stroke-linejoin:round;stroke-miterlimit:10"><path d="M18.2 31.1c-4.9 2.7-8.2 8-8.2 14.1v32.9c0 8.8 7.1 16 15.8 16h31.7c5.9 0 11-3.3 13.8-8.1-1.2 8.4-8.4 14.9-17.1 14.9H19.6c-9.5 0-17.3-7.8-17.3-17.5V48.5c.1-9.1 7-16.6 15.9-17.4z" style="fill:#fff"/><path d="m53.2 49.6-.7-48.4C87.7-1 95.8 21.1 93.2 51.8c-1.6-24.9-14.4-34.6-32.4-33l.7 37.6c0 .3.1.6.1 1v15.5c0 4.3-3.4 7.7-7.6 7.7H28.6c-4.2 0-7.6-3.5-7.6-7.7V57.3c0-4.3 3.4-7.7 7.6-7.7h24.6z" style="fill:#fff;stroke:#f3f1f1;stroke-width:.02px"/><path d="M99 30.4V51c0 .2.1.3.3.3h3.7c.2 0 .3-.1.3-.3v-7.3c0-.2.1-.3.3-.3h3.6c.8.1 1.4.7 1.7 1.8l1.8 5.2c0 .1.1.3.3.5.1.2.3.3.4.3h4c.1 0 .2 0 .2-.1 0 0-.1-.1-.2-.3-.1-.1-.2-.3-.2-.4l-1.6-5c-.2-.5-.3-.9-.5-1.4-.2-.4-.5-1-1-1.6v-.2l.1-.1c.5-.3.9-.6 1.2-.9.3-.3.6-.7.9-1.1.4-.8.6-2.1.6-3.8v-.7c-.1-1.9-.5-3.3-1.4-4.2-.5-.5-1-.9-1.6-1.1-.5-.2-1.1-.3-1.6-.3h-11c-.2.1-.3.2-.3.4zm10.3 3.5c.4.1.8.4 1.1 1.1.1.2.2.4.2.6v.8c0 .6-.1 1.1-.2 1.5-.1.5-.4.8-.6 1-.3.3-.6.4-.9.4h-5.3c-.2 0-.3-.1-.3-.3v-4.8c0-.2.1-.3.3-.3h5.7zM118.2 51.2c0 .1.1.2.2.2h3.8c.2 0 .3-.1.4-.3l1.6-5.1c.1-.2.2-.3.4-.3h6.9c.2 0 .3.1.4.3l1.6 5.1c.1.2.2.3.4.3h3.8c.1 0 .2-.1.2-.2L132 31.8c-.2-.8-.7-1.3-1.3-1.5-.6-.2-1.5-.3-2.6-.3s-1.9.1-2.6.3c-.6.2-1.1.7-1.3 1.5l-6 19.4zm12.2-10c0 .1 0 .1 0 0v.1c0 .1-.1.2-.2.2h-4.4c-.2 0-.2-.1-.2-.2v-.2l2.1-6.8c.1-.4.2-.5.3-.5.1 0 .2 0 .2.1s.1.2.1.4l2.1 6.9zM141.1 51.3h10c1.1 0 2.1-.2 2.9-.6.8-.4 1.5-.9 2-1.6.5-.7.9-1.4 1.2-2.2.2-.8.4-1.6.4-2.4v-7.1c0-.9-.1-1.8-.4-2.7-.2-.9-.6-1.7-1.2-2.4-.5-.7-1.2-1.3-2-1.7-.8-.4-1.8-.7-2.9-.7h-10c-.2 0-.3.1-.3.3V51c0 .2.1.3.3.3zm4-17.1c0-.2.1-.3.3-.3h5c.4 0 .7.1 1 .3.3.2.6.4.9.7.3.3.5.6.7.9.2.3.3.7.3 1.1v7.9c0 .3-.1.7-.2 1l-.6.9c-.3.3-.5.5-.9.7-.3.2-.6.3-1 .3h-5.2c-.2 0-.3-.1-.3-.3V34.2zM161.6 30.4V51c0 .2.1.3.3.3h3.7c.2 0 .3-.1.3-.3V30.4c0-.2-.1-.3-.3-.3h-3.7c-.2 0-.3.1-.3.3zM170 40.9v3c0 .9.1 1.5.2 2.1.2.8.3 1.5.5 2.1.2.6.4 1.1.7 1.5.4.5.9 1 1.5 1.4.6.4 1.2.7 1.9.8.5.1 1.1.2 1.8.2h5.4c.8 0 1.4-.1 1.8-.2.7-.2 1.3-.4 1.9-.8.6-.4 1.1-.8 1.5-1.4.3-.4.5-.9.7-1.5.2-.6.3-1.3.5-2.1.1-.5.2-1.2.2-2.1v-6.2c0-.9-.1-1.5-.2-2.1-.2-.8-.3-1.5-.5-2.1-.2-.6-.4-1.1-.7-1.5-.4-.5-.9-1-1.5-1.4-.6-.4-1.2-.7-1.9-.8-.5-.1-1.1-.2-1.8-.2h-5.4c-.8 0-1.4.1-1.8.2-.7.2-1.3.4-1.9.8-.6.4-1.1.8-1.5 1.4-.3.4-.5.9-.7 1.5-.2.6-.3 1.3-.5 2.1-.1.5-.2 1.2-.2 2.1v3.2zm9.4-7.2h1.7c.5 0 1 .1 1.4.2.7.2 1.2.5 1.5 1.1.3.5.4 1.3.4 2.4v6.8c0 1-.1 1.8-.4 2.4-.3.5-.8.9-1.5 1.1-.4.1-.9.2-1.4.2h-3.4c-.5 0-1-.1-1.4-.2-.7-.2-1.2-.5-1.5-1.1-.3-.5-.4-1.3-.4-2.4v-6.8c0-1 .1-1.8.4-2.4.3-.5.8-.9 1.5-1.1.4-.1.9-.2 1.4-.2h1.7z" style="fill:#fff;fill-rule:nonzero;stroke:#fff;stroke-width:.02px;stroke-linecap:butt"/><path d="M83 68.6c.4 0 .7 0 1 .1.3.1.5.2.7.4.2.2.3.5.3.7v1.3c0 .2-.1.3-.1.5-.1.2-.2.4-.4.6-.2.2-.4.3-.6.3h-7.4c-.2 0-.2.1-.2.2v2.5c0 .2.1.2.2.2h8.3c.3 0 .7-.1 1.1-.3.4-.2.7-.4.9-.6.9-.8 1.3-1.8 1.5-3.2v-.9c0-.4 0-.7-.1-1.1 0-.4-.1-.8-.2-1.1-.1-.4-.3-.7-.4-1-.2-.3-.4-.6-.7-.8-.4-.4-.9-.6-1.4-.8-.5-.1-1-.2-1.5-.2h-3.6c-.3 0-.5-.1-.7-.3-.2-.2-.3-.4-.3-.7v-1.3c0-.2.1-.3.1-.5.1-.2.2-.4.4-.5.2-.2.4-.3.6-.3h6.6c.2 0 .2-.1.2-.2v-2.5c0-.2-.1-.2-.2-.2h-7.6c-.4 0-.7.1-1.1.3-.4.2-.7.4-1 .6-.9.7-1.4 1.8-1.5 3.1v.8c0 .4 0 .7.1 1.1.1.4.1.7.3 1.1.1.3.3.7.4 1 .2.3.4.6.7.8.4.4.9.6 1.5.7.5.1 1 .2 1.5.2H83zM90.4 70.5c0 .4 0 .8.1 1.1.1.3.2.5.2.7.3.7.7 1.3 1.1 1.7.5.5 1 .8 1.6 1.1l.9.3c.4.1.8.1 1.2.1h5.9c.2 0 .2-.1.2-.2v-2.5c0-.2-.1-.2-.2-.2h-5.9c-.5 0-.9-.2-1.2-.5-.3-.3-.5-.7-.5-1.3v-5.9c0-.8.1-1.5.4-2 .3-.5.7-.8 1.3-.9h5.9c.2 0 .2-.1.2-.2v-2.5c0-.2-.1-.2-.2-.2h-6.1c-.7 0-1.4.2-2.1.5-.7.3-1.2.7-1.7 1.3-.2.2-.3.4-.5.7-.2.2-.3.5-.4.9-.2.6-.3 1.2-.3 1.9v6.1h.1zM104 75.2c0 .2.1.2.2.2h2.9c.2 0 .2-.1.2-.2v-6.4c0-.2.1-.2.2-.2h5.4c.2 0 .2.1.2.2v6.4c0 .2.1.2.2.2h2.9c.2 0 .2-.1.2-.2V59.1c0-.2-.1-.2-.2-.2h-2.9c-.2 0-.2.1-.2.2v6.3c0 .2-.1.2-.2.2h-5.4c-.2 0-.2-.1-.2-.2v-6.3c0-.2-.1-.2-.2-.2h-2.9c-.2 0-.2.1-.2.2v16.1zM129.2 72.5H123c-.6 0-.9-.3-.9-.8V59.1c0-.2-.1-.2-.2-.2H119c-.2 0-.2.1-.2.2v12.3c0 1.3.3 2.3.8 2.9.5.6 1.4 1 2.7 1.1h6.9c.2 0 .2-.1.2-.2v-2.5c.1-.2 0-.2-.2-.2zM130.6 75.3c0 .1.1.1.2.1h3c.2 0 .3-.1.3-.2l1.2-4c0-.2.1-.3.3-.3h5.4c.2 0 .3.1.3.2l1.2 4c0 .1.1.2.3.2h3c.1 0 .2 0 .2-.1l-4.6-15.1c-.2-.6-.5-1-1-1.1-.5-.2-1.2-.2-2-.2s-1.5.1-2 .2c-.5.2-.8.5-1 1.1l-4.8 15.2zm9.5-7.7v.1c0 .1-.1.2-.2.2h-3.4c-.1 0-.2-.1-.2-.2v-.1l1.6-5.3c.1-.3.2-.4.3-.4.1 0 .1 0 .2.1 0 .1.1.2.1.3l1.6 5.3zM155.7 58.9H151c-.6 0-1.1.1-1.6.4-.5.3-.9.7-1.3 1.1-.4.5-.7 1-.9 1.5-.2.6-.3 1.1-.3 1.6v6.6c0 .6.1 1.2.3 1.8.2.6.5 1.2.9 1.7s.9.9 1.4 1.3c.6.3 1.2.5 1.9.5h4c.9 0 1.7-.2 2.3-.5.6-.3 1.1-.7 1.5-1.2.4-.5.6-1 .8-1.5.2-.5.2-1 .2-1.3v-5.2c0-.2-.1-.2-.2-.2h-7.1c-.2 0-.2.1-.2.2v2.5c0 .2.1.2.2.2h3.7c.2 0 .2.1.2.2v2.2c0 .1 0 .3-.1.5s-.2.3-.3.5c-.1.2-.3.3-.5.4-.2.1-.5.2-.8.2h-2.8c-.6 0-1.1-.3-1.5-.8-.4-.5-.6-1.2-.6-2.1v-6c0-.1.1-.3.2-.5s.3-.4.4-.6c.2-.2.3-.3.5-.4.2-.1.3-.2.5-.2h7c.2 0 .2-.1.2-.2v-2.5c0-.2-.1-.2-.2-.2h-3.1zM162.2 73c0 .3.1.6.2.9.1.3.3.5.5.8.2.2.5.4.7.6.3.1.5.2.8.2h8.9c.2 0 .2-.1.2-.2v-2.5c0-.2-.1-.2-.2-.2h-7.6c-.2 0-.2-.1-.2-.2V69c0-.2.1-.2.2-.2h7c.2 0 .2-.1.2-.2v-2.7c0-.2-.1-.2-.2-.2h-7c-.2 0-.2-.1-.2-.2v-3.1c0-.2.1-.3.2-.3h7.6c.2 0 .2-.1.2-.2v-2.5c0-.2-.1-.2-.3-.2h-7.8c-1.1 0-1.9.3-2.4 1-.6.7-.8 1.5-.8 2.6V73zM175.8 59.1v16.1c0 .2.1.2.2.2h2.9c.2 0 .2-.1.2-.2v-5.7c0-.2.1-.2.2-.2h2.8c.7.1 1.1.6 1.3 1.4l1.4 4.1c0 .1.1.2.2.4s.2.2.3.2h3.2c.1 0 .1 0 .1-.1 0 0 0-.1-.1-.2s-.1-.2-.2-.3l-1.3-3.9c-.1-.4-.3-.7-.4-1.1-.1-.3-.4-.8-.7-1.2v-.2s0-.1.1-.1c.4-.2.7-.5.9-.7.2-.3.4-.5.7-.8.3-.6.5-1.6.5-3v-.5c0-1.5-.4-2.6-1.1-3.3-.4-.4-.8-.7-1.2-.9-.4-.2-.8-.3-1.3-.3H176c-.1.1-.2.1-.2.3zm8.1 2.8c.3 0 .6.3.9.8.1.2.1.3.1.5v.6c0 .4-.1.8-.2 1.2-.1.4-.3.6-.5.8-.3.2-.5.3-.7.3h-4.1c-.2 0-.3-.1-.3-.2v-3.8c0-.2.1-.2.2-.2h4.6zM76.3 83.3v15.9c0 .2.1.2.2.2h2.9c.2 0 .2-.1.2-.2v-5.3c0-.2.1-.2.2-.2h4c.9 0 1.6-.1 2.2-.4.6-.3 1.1-.6 1.4-1.1.4-.5.6-1 .8-1.7.2-.7.3-1.4.3-2.2 0-.8-.1-1.5-.3-2.2-.2-.7-.4-1.2-.8-1.7s-.8-.9-1.4-1.1c-.6-.3-1.3-.4-2.2-.4h-7.3c-.2 0-.2.1-.2.2v.2zm7.9 2.6c.3 0 .5.1.7.3.2.2.3.4.4.7.1.3.1.5.1.8v1.2c0 .3-.1.5-.1.8-.1.3-.2.5-.4.7-.2.2-.4.3-.7.3h-4.4c-.2 0-.2-.1-.2-.2v-4.4c0-.2.1-.2.2-.2h4.4zM88.7 99.3c0 .1.1.1.2.1h3c.2 0 .3-.1.3-.2l1.2-4c0-.2.1-.3.3-.3h5.4c.2 0 .3.1.3.2l1.2 4c0 .1.1.2.3.2h3c.1 0 .2 0 .2-.1l-4.6-15.1c-.2-.6-.5-1-1-1.1-.5-.2-1.2-.2-2-.2s-1.5.1-2 .2c-.5.2-.8.5-1 1.1l-4.8 15.2zm9.6-7.7v.1c0 .1-.1.2-.2.2h-3.4c-.1 0-.2-.1-.2-.2v-.1l1.6-5.3c.1-.3.2-.4.3-.4.1 0 .1 0 .2.1 0 .1.1.2.1.3l1.6 5.3zM106.6 83.1v16.1c0 .2.1.2.2.2h2.9c.2 0 .2-.1.2-.2v-5.7c0-.2.1-.2.2-.2h2.8c.7.1 1.1.6 1.3 1.4l1.4 4.1c0 .1.1.2.2.4s.2.2.3.2h3.2c.1 0 .1 0 .1-.1 0 0 0-.1-.1-.2s-.1-.2-.2-.3l-1.3-3.9c-.1-.4-.3-.7-.4-1.1-.1-.3-.4-.8-.7-1.2v-.2s0-.1.1-.1c.4-.2.7-.5.9-.7.2-.3.4-.5.7-.8.3-.6.5-1.6.5-3v-.5c0-1.5-.4-2.6-1.1-3.3-.4-.4-.8-.7-1.2-.9-.4-.2-.8-.3-1.3-.3h-8.5c-.1.1-.2.1-.2.3zm8 2.8c.3 0 .6.3.9.8.1.2.1.3.1.5v.6c0 .4-.1.8-.2 1.2-.1.4-.3.6-.5.8-.3.2-.5.3-.7.3h-4.1c-.2 0-.3-.1-.3-.2v-3.8c0-.2.1-.2.2-.2h4.6zM121.8 99.3c0 .1.1.1.2.1h3c.2 0 .3-.1.3-.2l1.2-4c0-.2.1-.3.3-.3h5.4c.2 0 .3.1.3.2l1.2 4c0 .1.1.2.3.2h3c.1 0 .2 0 .2-.1l-4.6-15.1c-.2-.6-.5-1-1-1.1-.5-.2-1.2-.2-2-.2s-1.5.1-2 .2c-.5.2-.8.5-1 1.1l-4.8 15.2zm9.6-7.7v.1c0 .1-.1.2-.2.2h-3.4c-.1 0-.2-.1-.2-.2v-.1l1.6-5.3c.1-.3.2-.4.3-.4.1 0 .1 0 .2.1 0 .1.1.2.1.3l1.6 5.3zM139.9 99.5h7.8c.9 0 1.6-.2 2.2-.5.6-.3 1.1-.7 1.6-1.2.4-.5.7-1.1.9-1.7.2-.6.3-1.2.3-1.8v-5.6c0-.7-.1-1.4-.3-2.1-.2-.7-.5-1.3-.9-1.9-.4-.5-.9-1-1.6-1.3-.6-.3-1.4-.5-2.3-.5h-7.8c-.2 0-.2.1-.2.2v16.1c.1.2.2.3.3.3zm3.1-13.4c0-.2.1-.2.2-.2h3.9c.3 0 .5.1.8.2.3.1.5.3.7.5.2.2.4.4.5.7.1.3.2.5.2.8v6.2c0 .3-.1.5-.2.8-.1.3-.3.5-.5.7-.2.2-.4.4-.7.5-.3.1-.5.2-.7.2h-4.1c-.2 0-.2-.1-.2-.2V86.1h.1zM155.6 83.1v16.1c0 .2.1.2.2.2h2.9c.2 0 .2-.1.2-.2V83.1c0-.2-.1-.2-.2-.2h-2.9c-.1 0-.2 0-.2.2zM162 97c0 .3.1.6.2.9.1.3.3.5.5.8.2.2.5.4.7.6.3.1.5.2.8.2h8.9c.2 0 .2-.1.2-.2v-2.5c0-.2-.1-.2-.2-.2h-7.6c-.2 0-.2-.1-.2-.2V93c0-.2.1-.2.2-.2h7c.2 0 .2-.1.2-.2v-2.7c0-.2-.1-.2-.2-.2h-7c-.2 0-.2-.1-.2-.2v-3.1c0-.2.1-.3.2-.3h7.6c.2 0 .2-.1.2-.2v-2.5c0-.2-.1-.2-.3-.2h-7.8c-1.1 0-1.9.3-2.4 1-.6.7-.8 1.5-.8 2.6V97zM183.2 92.6c.4 0 .7 0 1 .1.3.1.5.2.7.4.2.2.3.5.3.7v1.3c0 .2-.1.3-.1.5-.1.2-.2.4-.4.6-.2.2-.4.3-.6.3h-7.4c-.2 0-.2.1-.2.2v2.5c0 .2.1.2.2.2h8.3c.3 0 .7-.1 1.1-.3.4-.2.7-.4.9-.6.9-.8 1.3-1.8 1.5-3.2v-.9c0-.4 0-.7-.1-1.1 0-.4-.1-.8-.2-1.1-.1-.4-.3-.7-.4-1-.2-.3-.4-.6-.7-.8-.4-.4-.9-.6-1.4-.8-.5-.1-1-.2-1.5-.2h-3.6c-.3 0-.5-.1-.7-.3-.2-.2-.3-.4-.3-.7v-1.3c0-.2.1-.3.1-.5.1-.2.2-.4.4-.5.2-.2.4-.3.6-.3h6.6c.2 0 .2-.1.2-.2v-2.5c0-.2-.1-.2-.2-.2h-7.6c-.4 0-.7.1-1.1.3-.4.2-.7.4-1 .6-.9.7-1.4 1.8-1.5 3.1v.8c0 .4 0 .7.1 1.1.1.4.1.7.3 1.1.1.3.3.7.4 1 .2.3.4.6.7.8.4.4.9.6 1.5.7.5.1 1 .2 1.5.2h2.6z" style="fill:#fff;fill-rule:nonzero;stroke:#fff;stroke-width:.36px;stroke-linecap:butt"/></svg>