<svg version="1.0" width="645.98" height="309.13" xmlns="http://www.w3.org/2000/svg"><path d="M-5.512 478.044c14.45-4.68 22.896-8.779 32.322-17.953 4.861-4.724 11.224-11.125 13.356-18.401 3.61-12.331-8.885-26.712-15.167-33.352-7.968-8.408-19.582-15.426-30.429-23.083-14.43-10.207-28.453-20.871-27.165-45.245.284-5.433 4.546-13.971 6.973-17.752 7.56-11.74 18.406-17.525 32.611-23.957 5.766-2.597 12.262-4.345 19.135-5.66 6.308-1.208 15.388-2.327 21.921-2.263 5.923.05 11.986 1.332 16.312 2.54 8.766 4.916 10.84 4.49 9.614 17.09-3.37 9.478-8.992 15.678-18.368 20.665-5.69 3.03-9.374 4.672-15.688 6.533-3.037.898-6.206 2.553-9.955 3.264-5.602 1.062-7.068.629-15.752.396-1.164-.774-.535-2.774-.535-2.774l-6.105-3.772 1.911-3.893c5.012.302 8.923.535 18.966-2.458 8.948-2.667 14.495-5.378 22.184-11.067 4.528-3.359 6.471-1.617 5.685-6.453-.968-5.929-6.446-5.948-13.224-6.17-10.596-.35-16.996 1.618-23.12 4.202-6.126 2.585-12.755 4.314-16.81 7.854-1.86.289-3.754 2.44-6.075 2.296-1.71 2.124-2.987 4.345-6.067 5.174-1.007 4.125-4.07 7.572-6.062 10.357-2.1 2.912.074 7.723 1.144 14.82 1.07 7.095 7.087 12.245 11.91 17.71 8.3 5.289 14.432 11.085 22.437 17.016 2.445 1.81 5.212 3.268 7.652 5.074 4.552 3.364 8.05 8.752 11.854 13.054 2.647 2.981 6.042 6.131 8.035 11.338.554 1.44 1.97 3.773 2.333 4.866 1.849 5.485 3.157 14.356 3.037 21.023-.445 25.58-27.304 43.991-41.086 50.186-6.748 3.042-25.707 9.062-32.774 10.268-7.063 1.215-24.461 4.68-40.78 2.585-15.707-2.02-44.42-9.376-53.639-22.053-4.137-5.684-10.525-13.816-12.859-23.21-.25-6.866-2.76-17.69-.61-23.801 3.961-22.135 20.072-37.673 37.83-47.609 3.108-2.992 6.755-4.368 11.999-5.5 6.57-1.41 12.694-5.699 22.46-4.767-.377 1.974-.484 4.187-.39 6.603-8.577 1.778-15.6 5.023-21.291 9.538-5.207 3.012-14.105 11.771-17.198 15.746-3.094 3.96-7.413 11.356-9.012 14.168-2.961 5.313-3.37 9.154-4.873 19.455-.038 1.42 1.358 10.672 3.591 14.456 8.426 18.79 21.625 29.65 44.13 33.384 3.648.555 6.397.279 8.18.284 24.67-2.17 33.002-6.075 47.452-10.752z" style="fill:#efeeec" transform="translate(208.132 -288.367)"/><path d="m401.084 518.673 17.155 7.207-6.212.673 6.212 4.476s-45.119-11.879-48.42-12.513c-2.784-.535-10.714-2.389-7.495-2.868-4.29.308-13.419-3.03-18.996-1.439-8.615-1.397-19.846-4.434-28.02-3.51-15.815-1.95-50.69-3.935-52.274-3.507-1.366.37-16.747-.83-25.852 1.716-1.057.29-2.616 1.426-3.798 1.54-2.251.207-4.314-1.094-6.54-.955-1.654.107-3.301 1.308-4.886 1.465-4.08.415-7.508-1.823-11.627-1.798-1.553.012-2.998 1.288-4.515 1.49-1.836.244-3.652-.503-5.483-.416-1.955.1-4.025 1.177-5.986 1.384-11.293 1.194-23.55-1.364-34.113-.754-2.101.125-4.328 1.358-6.353 1.358-1.722 0-3.194-1.157-5.042-1.308-3.289-.252-7.118 1.925-10.804 1.937-1.105.005-2.597-.813-3.622-.736-1.137.1-2.282 1.162-3.389 1.125-2-.075-16.846-.56-20.568-.19-5.835.593-12.1.404-17.343.983-2.49.276-4.804 1.59-7.118 1.761-13.992.993-22.594 1.52-37.787 4.01-5.2.851-10.212 2.617-15.33 3.428-12.407 1.98-23.656 2.655-35.674 5.093-8.5 1.736-16.958 3.196-24.598 4.567-2.95.52-5.88 2.181-8.615 2.1-1.328-.038-2.736-.874-3.987-.762-1.886.17-3.49 1.868-5.326 2.346-1.585.42-3.162-.194-5.145.075-8.525 1.157-18.618 4.296-28.767 6.082-4.54.791-9.269 2.207-13.866 3.533-4.943 1.427-10.01 3.616-13.871 3.54-3.774-.075-6.811.415-10.446 1.962-2.201.46.259-1.76-1.35-1.478-15.797 3-29.75 8.307-44.044 13.633-13.991 5.226-44.816 14.269-45.3 10.804-.485-3.458 7.84-5.214 11.595-7.383 4.119-2.39 7.697-4.824 11.89-6.446 8.842-3.413 18.18-5.722 27.412-7.565 18.135-3.615 36.583-9.18 54.813-15.122 17.903-5.83 36.742-10.048 55.514-14.6 18.662-4.535 37.603-9.202 56.467-12.71 38.887-7.212 67.63-10.779 108.096-16.418 19.863-2.774 50.644-4.868 70.766-6.27 42.18-2.942 84.804-.591 128.5 6.088 22.789.363 51.683 7.734 72.315 15.128 10.884 3.9 44.589 17.482 44.589 17.482l-32.762-8.238zM292.53 472.219c-2.106 0-6.106 1.026-6.565.818l-2.805-.013-1.095-.597c.51-1.552 4.856-4.256 11.729-6.666 1.012-.351 2.704-1.15 3.943-1.735l.893-.422c6.797-3.157 17.588-9.727 25.19-16.713l.125-.114.057-.151c.567-1.49 1.415-2.697 2.234-3.861.627-.893 1.137-1.622 1.577-2.438l.05-.095.025-.114c1.76-10.96-6.105-17.381-11.921-24.53-3.44-4.232-6.993-8.596-8.986-13.942l-.624-1.666-.779 1.61c-1.93 3.955-3.798 8.099-5.445 11.758-5.515 12.212-10.886 23.6-19.406 33.7-.692.804-1.605 1.351-2.245 2.113-1.156 1.365-2.554.66-3.101 2.25l-.445.51-.165.125c-4.181 3.309-6.57 5.761-10.475 6.453-2.767.483-9.59 1.05-9.59 1.05-1.339-.68-1.144-1.289-3.898-2.107-.717-.207-2.207-1.05-2.207-1.05-4.415 3.515-8.886 4.503-16.13 4.503-4.71 0-8.734-1.195-11.652-3.466-9.565-7.438-10.967-24.543-8.224-37.282 1.948-9.08 7.281-20.035 11.167-28.026l.485-1.007c.281-.585.515-1.15.747-1.697.346-.875.666-1.63 1.089-2.378.358-.617.836-1.157 1.281-1.68.466-.521.938-1.062 1.24-1.653l.056-.1.013-.107.012-.592.309-1.59c1.691-2.779 6.25-7.917 7.942-8.677a6.83 6.83 0 0 1 2.83-.617c1.169 0 2.168.289 2.98.523l.176.05.214.062.139.151c.734.78.873 2.006.993 3.075.07.61.126 1.132.258 1.572l.113.403-.321.282c-4.326 3.78-7.439 10.206-7.754 15.985l-.013.326-.294.202c-1.994 1.353-3.515 4.206-3.798 4.766l-.214.41.326.346c.465.508 1.013 1.326.29 2.635-1.504 2.684-4.081 9.62-5.37 15.267-3.963 17.293-1.975 27.945 6.075 32.56l.59.34.415-.51c5.189-6.464 8.704-11.614 11.615-20.034 1.176-3.401 4.577-12.638 5.345-14.016.453-.806.32-5.037.466-5.786.684-3.57 3.729-9.45 5.376-13.18 1.112-2.515 1.54-1.741 2.276-3.968.741-2.206 1.164-3.64 1.552-5.997.637-3.869 3.416-6.277 5.786-9.911l.152-.227.27-.081c1.446-.434.723.905 1.307-.623.792-2.114 3.17-4.201 5.453-5.465l.804-.37.189-.076.207.026c2.691.388 2.835 2.458 2.768 4.728-.027.804-1.485 2.59-1.328 3.207.477 1.956-.78 3.911-.804 6.05l-.007.251c-.013 1.055-.025 2.15-.125 3.257-.492 6.294-2.007 9.502-3.477 16.267-.423 1.982-.85 3.943-1.24 5.873-.584 2.843-2.087 7.137-2.93 9.791-.818 2.56-2.42 8.175-2.552 8.797-.19.813-2.85 6.333-3.013 6.925-.661 2.408-1.748 4.66-2.805 6.834a99.298 99.298 0 0 0-1.282 2.724l-1.863 2.206 2.555-.383 1.508-.157.27-.044c.767-.127 2.157-.485 3.44-1.301.9-.58 2.12-1.39 2.944-1.787l.144-.082.1-.114c12.256-14.751 18.286-28.026 26.456-45.626 5.502-11.859 7.659-17.563 14.851-29.12l.19-.296.365-.045c.704-.094 1.395-.201 2.067-.301 1.592-.251 3.095-.49 4.617-.49 1.602 0 3 .276 4.264.848l.477.22-.05.484c-.541 4.975-.541 5.78-1.994 9.232-.893 2.112.214.465-.522 2.955l-.068.246.112.232c1.177 2.415.383 4.804-.383 7.117-.523 1.58-1.007 3.045-.874 4.44.125 1.157 2.849 5.811 6.3 10.32 1.278 1.66 2.584 3.131 3.855 4.559 2.868 3.244 7.924 5.93 9.841 10.538l.05.132.102.101c.585.573 1.137 1.07 1.98 1.271l.321.08.15.284c1.422 2.592 1.918 4.716 2.547 7.4.226.939.472 1.983.78 3.158 1.71 6.458.974 13.771-1.874 18.64-3.678 6.261-8.872 10.43-16.695 13.625l-.712.29c-2.224.918-4.62 3.2-8.11 3.816-4.37.767-8.433 3.428-10.35 3.428-.662 0-1.51.42-2.334.874l-.144.082c-3.138 1.074-1.17 1.156-6.043 1.156l-4.314-1.233z" style="fill:#fff" transform="translate(208.132 -288.367)"/><path d="m418.176 406.465-8.232 26.518c-1.082 3.245-1.358 6.414-2.075 9.645h-.183c-.817-3.162-1.27-6.326-2.446-9.495l-8.137-26.668h-44.49v10.312h10.584v45.232h13.475v-45.232h9.622l16.053 45.232h11.03l18.902-55.544h-14.103z" style="fill:#fff;fill-rule:nonzero" transform="translate(208.132 -288.367)"/><path d="m168.602 464.175-.196-.063c-6.187-1.905-7.376-8.992-8.13-16.72-2.567-26.309-.699-50.412 5.118-66.12l.119-.334.36-.1c.628-.189 1.2-.283 1.754-.283 1.239 0 2.15.465 3.037.912l.842.414.56.246-.15.56-.145.502c-.868 3.07-2.49 8.784 1.075 9.729l.547.144v.528c.005 1.207.107 2.346.207 3.458.144 1.642.303 3.346.152 5.314l.05.007 1.176.497.226.786c.409 2.722.277 5.332.157 7.854-.126 2.52-.246 4.898.195 7.15l.654 1.596c.34.66.691 1.346.798 2.138.371 2.629.082 5.263-.194 7.816-.32 2.955-.647 5.987.018 9.082 1.825-3.655 3.447-8.301 4.12-11.899l.019-.087.042-.082c2.277-4.527 4.384-9.244 6.623-14.236 7.86-17.538 15.985-35.673 31.687-46.818l.201-.144h4.237l-.37.938c-.667 1.723-.038 2.552.835 3.697l.542.723.19.276-.102.316c-1.334 3.96-3.578 7.125-5.747 10.174-2.075 2.924-4.226 5.949-5.503 9.645a220.292 220.292 0 0 1-3.057 5.874c-1.778 3.346-3.61 6.798-5.187 10.388.284 1 .095 3-.584 4.112-.485.794-1.114 1.032-1.597 1.075.037 3.711-2.132 7.351-4.075 10.59l-.786 1.333c-1.56 3.767-2.874 7.873-4.138 11.847-2.691 8.445-5.477 17.174-11.174 23.53l-1.49.572-.654-.087-.164.252c-.497.735-1.006 1.497-1.811 2.062l-.157.107-.201.032c-2.327.27-4.075.301-5.61.338-1.56.025-2.786.052-4.12.316l-.199.043z" style="fill:#fff" transform="translate(208.132 -288.367)"/><path d="M113.035 379.845c-9.853-.082-18.545 10.117-24.645 22.97 10.446-5.3 19.608-13.23 24.645-22.97zm15.287 88.933-1.09-.723c-1.716-1.157-3.967-1.936-6.142-2.692l-1.661-.585-.346-.125-.1-.32c-2.547-7.565-2.276-17.86-.88-25.23-2.132 2.127-5.747 9.087-7.941 11.627-7.975 9.232-17.018 19.695-31.889 19.695-1.679 0-3.42-.137-5.174-.4-4.49-.687-7.075-3.379-9.54-6.309-2.125-2.533-3.364-7.01-3.786-10.085-1.52-11.289 1.748-26.752 4.308-32.397-1.699-.189-3.389-.624-4.389-1.843-.855-1.02-1.076-2.42-.691-4.27l.08-.397.423-.132c1.383-.427 2.729-.942 4.037-1.433 1.722-.661 3.502-1.333 5.445-1.848 6.382-13.433 13.148-26.486 24.121-35.391 2.968-2.409 10.829-5.76 18.866-5.76 2.622 0 5.262.428 7.859 1.277 2.408 1.258 4.075 3.452 4.691 6.067.667 2.824.007 5.779-1.791 8.1-8.642 16.645-21.306 23.72-41.315 31.51l-.754 1.585c-4.835 10.143-13.117 31.353-2.144 40.213 8.048-.453 13.003-3.201 19.148-10.672 1.848-2.244 4.49-5.212 6.363-7.94.515-.75 1.038-1.503 1.56-2.247 7.042-10.092 15.625-25.931 21.423-36.382a339.299 339.299 0 0 0 6.874-13.074l.037-.075.05-.057c7.4-8.854 18.6-22.223 36.409-24.116a38.257 38.257 0 0 1 4.03-.206c3.567 0 6.856.445 9.603.88l.303.05.174.227c.888 1.1 2.321 1.955 3.704 2.779 2.44 1.447 5.202 3.087 5.152 6.375l-.02.826-.873-.147c-1.736-.288-3.132-.948-4.478-1.59-1.547-.736-3.005-1.427-4.798-1.427l-.339.007c-1.189.055-2.276.533-3.435 1.037-.816.358-1.665.73-2.577.956l-1.655.395c-3.42.824-6.652 1.597-9.771 3.232-1.12.592-2.157 1.315-3.15 2.025-1.534 1.077-2.987 2.094-4.729 2.661-1.283 1.66-2.78 3.276-4.238 4.834-2.484 2.674-5.056 5.433-6.797 8.66-3.674 6.778-5.478 15.324-7.214 23.58-.565 2.692-1.15 5.478-1.798 8.162l-.177.768-.804-.258-.975-.54c-1.445 6.075-2.087 13.105-2.704 19.926-.485 5.314-.975 10.798-1.855 15.672l-.013.075-.03.075c-.316.729-.786 1.27-1.239 1.793-.622.71-1.151 1.333-1.246 2.363l-.112 1.24z" style="fill:#fff" transform="translate(208.132 -288.367)"/><path d="M-20.522 499.54c-7.06 1.208-24.46 4.679-40.785 2.584-15.714-2.024-44.427-9.38-53.644-22.058-4.139-5.684-10.527-13.809-12.86-23.217-.257-6.866-2.76-17.687-.616-23.8 3.968-22.141 20.078-37.68 37.843-47.615 3.105-2.993 6.746-4.37 11.997-5.503 6.57-1.413 12.696-5.702 22.462-4.766-.378 1.975-.485 4.189-.39 6.604-8.578 1.779-15.601 5.023-21.293 9.538-5.206 3.013-14.11 11.772-17.204 15.747-3.087 3.967-7.413 11.361-9.01 14.172-2.963 5.314-3.371 9.157-4.874 19.45-.037 1.429 1.359 10.683 3.59 14.464 8.433 18.79 21.625 29.648 44.138 33.39 3.533-.535 4.677 1.188 8.125.728-4.246-2.664-8.226-3.69-11.824-6.89-8.154-7.264-15.946-22.752-16.43-35.66-1.083-28.36 16.298-49.363 37.17-55.764.201 1.281 1.05 7.627 1.654 8.525-1.717.818-1.277 4.642-3.114 5.346.574 4.515-7.023 5.413-6.2 10.162-5.319 6.948-7.759 9.846-11.097 18.663.112.962-1.102 3.91-1.844 4.056.61 5.81-.88 12.029 1.227 16.832 5.062 20.777 26.963 31.732 57.97 23.531 12.288-3.25 22.903-8.777 32.334-17.951 4.855-4.73 11.212-11.132 13.35-18.406 3.616-12.331-8.885-26.72-15.166-33.36-7.968-8.408-19.583-15.425-30.43-23.085-14.437-10.204-28.46-20.876-27.177-45.248.289-5.433 4.553-13.973 6.98-17.752 7.558-11.741 18.405-17.532 32.617-23.965 5.76-2.603 12.261-4.344 19.134-5.66 5.915-1.132 14.27-2.185 20.676-2.262h1.392c5.878.07 11.88 1.34 16.165 2.54 8.772 4.911 10.848 4.489 9.622 17.09-3.37 9.484-8.993 15.683-18.369 20.67-5.696 3.03-9.38 4.672-15.694 6.533-3.038.893-6.207 2.548-9.956 3.259-5.597 1.068-7.067.627-15.751.395-1.17-.768-.535-2.766-.535-2.766l-6.105-3.78 1.91-3.886c5.013.295 8.924.534 18.966-2.458 8.955-2.667 14.5-5.384 22.185-11.075 4.528-3.351 6.478-1.61 5.692-6.444-.975-5.937-6.446-5.955-13.232-6.176-10.595-.351-16.996 1.617-23.12 4.201-6.127 2.59-12.76 4.314-16.816 7.854-1.861.296-3.754 2.44-6.068 2.301-1.716 2.12-2.993 4.346-6.068 5.176-1.012 4.118-4.069 7.57-6.07 10.35-2.099 2.918.078 7.729 1.145 14.828 1.07 7.1 7.095 12.242 11.911 17.707 8.301 5.289 14.431 11.093 22.436 17.016 2.453 1.811 5.22 3.276 7.652 5.082 4.56 3.363 8.055 8.752 11.866 13.053 2.642 2.98 6.045 6.137 8.03 11.338.56 1.446 1.968 3.78 2.334 4.874 1.848 5.483 3.157 14.356 3.037 21.02-.445 25.588-27.304 44-41.086 50.193-6.754 3.043-25.714 9.06-32.782 10.275z" style="fill:#bd141d;fill-opacity:1" transform="translate(208.132 -288.367)"/><path d="M-49.776 382.7c-2.724-1.572-6.774-1.007-6.774-1.007-8.577 1.773-15.6 5.018-21.291 9.54-5.207 3.005-14.105 11.764-17.198 15.74-3.094 3.967-7.42 11.363-9.012 14.174-2.968 5.312-3.376 9.155-4.879 19.454-.037 1.427 1.358 10.678 3.597 14.463 8.426 18.789 21.618 29.65 44.137 33.391 3.527-.535 4.679 1.182 8.124.73-4.251-2.667-8.232-3.692-11.821-6.899-8.162-7.262-15.948-22.75-16.438-35.66-1.082-28.36 16.299-49.363 37.17-55.764 0 0-2.886-6.597-5.615-8.162z" style="fill:#eceded" transform="translate(208.132 -288.367)"/><path style="fill:#000;fill-opacity:1;stroke:none" d="M519.22 244.042h126.285v65.061H519.22z"/><g style="font-size:70.56472015px;font-style:normal;font-weight:400;line-height:125%;letter-spacing:0;word-spacing:0;fill:#fff;fill-opacity:1;stroke:none;font-family:Sans"><path d="M606.944 304.74h-12.231v-19.57h-17.641v19.57H564.84v-47.03h12.232v18.157h17.64V257.71h12.232zM658.042 281.208c0 4.892-1.476 9.423-4.428 13.592-2.951 4.17-6.724 7.058-11.318 8.666a22.434 22.434 0 0 1-7.443 1.275H616.8v-47.032h18.054c4.41 0 8.5 1.23 12.266 3.687 3.699 2.389 6.535 5.582 8.51 9.578 1.609 3.308 2.413 6.72 2.413 10.234zm-12.714 0c0-3.24-.908-6.064-2.722-8.476-2.412-3.193-6.007-4.79-10.785-4.79h-2.79v26.565h2.79c4.801 0 8.396-1.596 10.785-4.789 1.814-2.435 2.722-5.271 2.722-8.51z" style="font-variant:normal;font-weight:700;font-stretch:normal;fill:#fff;font-family:Aharoni;-inkscape-font-specification:Aharoni Bold" transform="matrix(1.01638 0 -.127 .98389 0 0)"/></g><path style="fill:#fff;stroke-width:0" d="M279.588 180.504c-4.372-1.628-6.64-3.687-9.08-8.24-1.679-3.133-1.934-5.067-1.908-14.468.028-10.175.318-12.052 3.667-23.737.472-1.645.223-2.035-1.299-2.035-1.762 0-3.754-2.343-3.754-4.415 0-.505 2.247-1.626 4.994-2.492 4.982-1.57 5.005-1.595 9.35-9.847 11.883-22.573 21.449-31.35 35.611-32.672 3.46-.323 7.089-.126 8.94.485 3.384 1.117 6.22 4.952 6.202 8.388-.025 4.87-8.963 17.236-16.719 23.133-5.146 3.913-22.241 12.858-24.626 12.886-.613.007-2.083 1.946-3.265 4.308-6.747 13.478-8.598 28.906-4.298 35.823 2.1 3.38 2.301 3.478 6.106 2.956 12.748-1.747 23.584-15.208 45.978-57.116 6.487-12.141 8.074-14.38 15.372-21.693 5.913-5.925 9.746-8.931 14.017-10.993 11.7-5.648 23.174-6.097 30.311-1.186 7.368 5.07 7.702 7.487.687 4.964-4.35-1.564-4.369-1.562-13.382 1.229-10.322 3.196-16.411 6.94-22.534 13.858-6.088 6.877-8.31 11.807-11.75 26.058-1.673 6.93-3.693 13.252-4.49 14.05-.797.796-1.458 1.928-1.47 2.514-.01.586-.79 8.05-1.735 16.585-1.158 10.473-2.2 16.259-3.206 17.794-1.49 2.274-1.49 2.274-5.518.781-3.504-1.298-4.156-1.966-5.007-5.129-.539-2-.826-7.775-.639-12.835.188-5.06.015-8.999-.384-8.752-.4.246-2.52 3.173-4.715 6.504-5.416 8.221-16.27 18.588-22.4 21.394-6.176 2.828-14.374 3.645-19.056 1.9zM302.5 111.61c5.965-3.895 12.749-10.317 16.336-15.466 3.206-4.603 3.221-4.811.337-4.811-5.671 0-14.024 7.034-19.803 16.676-4.827 8.053-4.415 8.527 3.13 3.601z"/><path style="fill:#fff;stroke-width:0" d="M373.684 173.14c-3.188-3.187-4.043-6.558-5.286-20.829-1.61-18.494.257-42.636 4.241-54.818 1.478-4.519 2.628-5.48 5.057-4.233 1.245.639 1.426 1.67 1.006 5.736-.42 4.066-.245 5.06.97 5.525 1.118.43 1.48 1.762 1.48 5.445 0 2.683.38 4.877.843 4.877.862 0 1.784 10.942 2.209 26.224.131 4.725.325 8.998.43 9.495.297 1.409 1.883-1.776 4.185-8.405 2.964-8.532 14.319-32.756 19.267-41.102 5.084-8.574 11.098-15.974 16.373-20.147 4.697-3.715 6.429-3.966 6.429-.933 0 1.214.405 2.458.9 2.764 1.035.64-.655 4.281-4.79 10.323-4.285 6.263-14.196 26.276-14.196 28.666 0 1.187-.407 2.158-.904 2.158-.497 0-.906.712-.907 1.582-.002.87-1.404 4.363-3.115 7.762-1.712 3.398-4.767 11.13-6.788 17.181-3.933 11.77-8.213 20.228-10.71 21.165-.847.317-1.946 1.089-2.443 1.715-.498.626-3.35 1.405-6.34 1.731-5.097.555-5.591.438-7.91-1.882zM491.474 183.433c0-.708 10.961-6.195 12.375-6.195 1.333 0 16.454-8.906 21.696-12.778 2.675-1.977 6.292-5.505 8.037-7.842 2.818-3.772 3.137-4.754 2.849-8.769-.442-6.151-2.213-9.473-10.123-18.99-3.72-4.476-7.97-10.376-9.445-13.112l-2.681-4.973-2.672 5.878c-14.92 32.819-19.892 40.186-34.071 50.495-1.502 1.093-5.198 2.384-8.213 2.87-4.688.754-5.982.638-8.946-.804-3.41-1.658-3.516-1.656-6.57.146-2.059 1.215-5.32 1.974-9.675 2.254-11.27.723-16.524-2.226-20.92-11.744-2.45-5.309-2.623-6.417-2.577-16.541.042-9.281.39-11.833 2.41-17.634 2.898-8.33 11.868-27.559 13.255-28.416.558-.345 1.015-1.418 1.015-2.385 0-2.322 8.223-10.8 10.459-10.781 4.058.032 5.834 4.316 2.878 6.942-2.163 1.923-6.082 9.913-6.094 12.427-.005.963-.892 2.69-1.971 3.84-1.08 1.148-2.07 3.412-2.2 5.031-.132 1.619-1.553 6.606-3.16 11.082-2.482 6.92-2.977 9.696-3.302 18.537-.355 9.66-.227 10.689 1.8 14.469 1.2 2.238 3.256 4.674 4.569 5.413 2.733 1.54 2.754 1.522 8.42-7.03 3.722-5.617 12.112-27.2 12.112-31.156 0-1.505 1.793-6.522 3.985-11.149 2.191-4.627 4.275-9.76 4.63-11.408.355-1.648 1.188-4.06 1.852-5.36 1.762-3.45 10.765-12.557 12.414-12.557 1.84 0 2.79 3.08 1.623 5.26-.504.941-1.174 4.517-1.49 7.947-1.506 16.364-12.98 54.855-18.19 61.015-.664.785-1.207 1.675-1.207 1.978 0 1.041 6.786-.477 9.555-2.137 3.121-1.872 11.045-12.549 16.375-22.067 2.988-5.334 14.499-29.053 17.774-36.623.538-1.243 2.955-5.821 5.37-10.173 4.25-7.653 4.503-7.916 7.727-8.017 4-.124 6.8.136 7.367.685.228.221-.31 3.223-1.199 6.67-.888 3.447-1.352 6.69-1.032 7.208.32.518.086 3.155-.52 5.861-1.083 4.843-1.052 5 1.973 10.05 1.691 2.822 6.267 8.436 10.17 12.474 3.903 4.04 7.838 8.158 8.745 9.152 2.41 2.643 4.809 11.822 4.768 18.243-.083 13.32-9.34 21.73-33.354 30.3-6.912 2.467-9.367 2.89-17.322 2.982-5.098.06-9.269-.196-9.269-.568zM571.955 151.014v-22.607h-10.852v-9.979l21.91.242 21.909.242 4.871 16.277c6.323 21.126 6.107 20.586 6.893 17.182.344-1.492 2.723-9.733 5.286-18.312l4.661-15.599h13.094l-9.298 27.355-9.297 27.354-5.038.268-5.037.268-3.783-10.667c-2.081-5.867-5.69-16.057-8.022-22.645l-4.238-11.977-5.2-.004-5.2-.004v45.214h-12.66zM.452 285.808c0-.58 2.747-2.332 6.104-3.892s8.004-3.995 10.326-5.41c5.936-3.62 17.71-7.415 34.621-11.158 16.533-3.66 30.432-7.467 52.489-14.38 24.476-7.67 84.307-22.295 114.39-27.96 37.063-6.98 105.536-16.714 136.999-19.475 41.966-3.683 50.288-4.117 78.22-4.076 29.804.045 44.23.925 72.794 4.444 9.45 1.164 20.64 2.393 24.867 2.732 17.392 1.392 41.155 6.557 60.587 13.167 13.261 4.511 37.952 14.3 36.17 14.34-.745.018-5.208-.958-9.916-2.166-4.708-1.209-8.738-2.02-8.956-1.802-.218.218 1.396 1.178 3.587 2.134 11.776 5.136 11.367 4.9 9.13 5.292-1.792.314-1.92.57-.905 1.805 1.491 1.814 2.289 1.984-26.85-5.707-29.67-7.831-32.532-8.462-38.578-8.5-2.816-.017-8.31-.647-12.207-1.4-3.899-.753-12.989-1.77-20.2-2.261-7.212-.49-18.402-1.328-24.868-1.861-15.309-1.262-46.833-1.123-51.543.228-1.99.57-5.757.982-8.371.914-2.615-.068-5.794.272-7.064.755-1.537.584-3.618.55-6.21-.103-2.893-.728-6.438-.682-13.734.178-10.047 1.185-12.217 1.25-34.25 1.028-6.964-.07-15.713.01-19.443.178-3.73.168-14.92.585-24.867.927-17.871.615-26.191 1.226-42.953 3.158-4.725.545-14.085 1.622-20.799 2.393-6.714.772-15.59 2.207-19.726 3.188-4.135.982-14.715 2.759-23.51 3.949-8.797 1.19-23.522 3.67-32.723 5.512-9.201 1.842-18.999 3.44-21.773 3.551-2.774.112-5.901.662-6.949 1.222-1.047.561-3.164 1.02-4.703 1.02-4.093 0-31.075 5.933-45.593 10.025-6.905 1.946-14.101 3.539-15.992 3.539s-4.455.386-5.698.859c-1.49.566-2.364.543-2.568-.068-.583-1.749-20.566 4.052-45.477 13.202C24.708 282.53.452 288.324.452 285.808z"/></svg>