<?xml version="1.0" encoding="UTF-8"?>
<!DOCTYPE svg PUBLIC "-//W3C//DTD SVG 1.1//EN" "http://www.w3.org/Graphics/SVG/1.1/DTD/svg11.dtd">
<svg xmlns="http://www.w3.org/2000/svg" version="1.1" width="864px" height="240px" style="shape-rendering:geometricPrecision; text-rendering:geometricPrecision; image-rendering:optimizeQuality; fill-rule:evenodd; clip-rule:evenodd" xmlns:xlink="http://www.w3.org/1999/xlink">
<g><path style="opacity:0.986" fill="#ffffff" d="M 117.5,-0.5 C 117.833,-0.5 118.167,-0.5 118.5,-0.5C 118.5,39.5 118.5,79.5 118.5,119.5C 118.167,119.5 117.833,119.5 117.5,119.5C 100.658,119.17 83.9916,119.503 67.5,120.5C 44.8333,120.5 22.1667,120.5 -0.5,120.5C -0.5,120.167 -0.5,119.833 -0.5,119.5C 39.1681,79.8319 78.5014,39.8319 117.5,-0.5 Z"/></g>
<g><path style="opacity:0.974" fill="#ffffff" d="M 285.5,90.5 C 291.758,90.1903 297.924,90.5236 304,91.5C 304.333,103.167 304.667,114.833 305,126.5C 314.919,117.58 326.419,114.746 339.5,118C 348.311,121.438 352.811,127.938 353,137.5C 353.5,155.164 353.667,172.83 353.5,190.5C 346.833,190.5 340.167,190.5 333.5,190.5C 333.667,174.497 333.5,158.497 333,142.5C 331.502,135.84 327.336,132.84 320.5,133.5C 314.276,133.529 309.11,135.862 305,140.5C 304.5,156.83 304.333,173.163 304.5,189.5C 298.167,189.5 291.833,189.5 285.5,189.5C 285.5,156.5 285.5,123.5 285.5,90.5 Z"/></g>
<g><path style="opacity:0.978" fill="#ffffff" d="M 548.5,98.5 C 554.833,98.5 561.167,98.5 567.5,98.5C 567.5,105.167 567.5,111.833 567.5,118.5C 572.5,118.5 577.5,118.5 582.5,118.5C 582.5,124.167 582.5,129.833 582.5,135.5C 577.5,135.5 572.5,135.5 567.5,135.5C 567.082,147.895 567.582,160.228 569,172.5C 572.359,176.089 576.026,176.422 580,173.5C 581.953,177.628 583.453,181.962 584.5,186.5C 584.41,188.425 583.41,189.592 581.5,190C 572.674,193.574 564.007,193.241 555.5,189C 552.894,187.062 551.061,184.562 550,181.5C 548.582,166.216 548.082,150.883 548.5,135.5C 544.833,135.5 541.167,135.5 537.5,135.5C 537.5,129.833 537.5,124.167 537.5,118.5C 541.167,118.5 544.833,118.5 548.5,118.5C 548.5,111.833 548.5,105.167 548.5,98.5 Z"/></g>
<g><path style="opacity:0.977" fill="#ffffff" d="M 863.5,185.5 C 863.5,186.5 863.5,187.5 863.5,188.5C 851.944,194.641 841.111,193.641 831,185.5C 829.438,183.043 828.438,180.376 828,177.5C 827.5,163.504 827.333,149.504 827.5,135.5C 823.563,135.793 819.73,135.46 816,134.5C 815.501,129.177 815.334,123.844 815.5,118.5C 819.5,118.5 823.5,118.5 827.5,118.5C 827.5,111.833 827.5,105.167 827.5,98.5C 833.833,98.5 840.167,98.5 846.5,98.5C 846.5,105.167 846.5,111.833 846.5,118.5C 851.5,118.5 856.5,118.5 861.5,118.5C 861.5,124.167 861.5,129.833 861.5,135.5C 856.5,135.5 851.5,135.5 846.5,135.5C 846.061,147.909 846.561,160.242 848,172.5C 851.28,176.129 854.946,176.462 859,173.5C 860.617,177.527 862.117,181.527 863.5,185.5 Z"/></g>
<g><path style="opacity:0.975" fill="#ffffff" d="M 232.5,116.5 C 246,114.924 258,118.257 268.5,126.5C 266.505,131.16 264.005,135.494 261,139.5C 251.993,131.243 241.826,129.41 230.5,134C 227.868,138.426 229.201,141.426 234.5,143C 244.715,144.303 254.382,147.303 263.5,152C 274.382,163.627 274.049,174.96 262.5,186C 247.013,192.957 231.346,193.29 215.5,187C 212.244,185.541 209.577,183.374 207.5,180.5C 209.836,175.825 212.669,171.492 216,167.5C 225.175,175.418 235.675,178.251 247.5,176C 252.67,173.787 253.67,170.454 250.5,166C 241.949,163.289 233.282,160.956 224.5,159C 209.216,151.239 206.049,140.073 215,125.5C 220.091,120.872 225.924,117.872 232.5,116.5 Z"/></g>
<g><path style="opacity:0.961" fill="#ffffff" d="M 401.5,116.5 C 433.612,118.11 447.112,134.777 442,166.5C 435.762,183.378 423.596,192.045 405.5,192.5C 381.593,190.76 368.926,177.926 367.5,154C 368.94,132.398 380.273,119.898 401.5,116.5 Z M 401.5,134.5 C 412.949,133.467 420.116,138.467 423,149.5C 424.387,169.463 415.554,176.963 396.5,172C 388.927,165.548 386.427,157.381 389,147.5C 391.379,141.29 395.546,136.957 401.5,134.5 Z"/></g>
<g><path style="opacity:0.976" fill="#ffffff" d="M 625.5,116.5 C 638.489,115.4 649.156,119.734 657.5,129.5C 653.833,133.833 649.833,137.833 645.5,141.5C 637.975,133.977 629.308,132.477 619.5,137C 611.931,143.496 609.431,151.662 612,161.5C 614.719,170.212 620.719,174.879 630,175.5C 636.209,174.898 641.209,172.232 645,167.5C 649.648,170.981 653.815,174.981 657.5,179.5C 652.38,186.73 645.38,190.897 636.5,192C 619.966,194.274 606.799,188.774 597,175.5C 589.151,160.094 589.817,145.094 599,130.5C 606.077,122.322 614.91,117.655 625.5,116.5 Z"/></g>
<g><path style="opacity:0.965" fill="#ffffff" d="M 693.5,116.5 C 705.021,114.888 715.687,117.054 725.5,123C 729.709,126.917 732.209,131.75 733,137.5C 733.5,155.164 733.667,172.83 733.5,190.5C 727.167,190.5 720.833,190.5 714.5,190.5C 714.663,188.143 714.497,185.81 714,183.5C 705.452,190.762 695.619,193.262 684.5,191C 667.029,184 662.196,171.833 670,154.5C 683.906,141.881 698.406,141.214 713.5,152.5C 716.642,139.465 711.475,132.465 698,131.5C 690.52,132.244 683.853,134.91 678,139.5C 675.386,135.781 672.886,131.948 670.5,128C 677.17,121.998 684.836,118.165 693.5,116.5 Z M 693.5,158.5 C 700.771,157.409 707.271,159.076 713,163.5C 713.667,166.833 713.667,170.167 713,173.5C 706.028,178.924 698.528,179.757 690.5,176C 686.87,172.95 685.703,169.117 687,164.5C 688.494,161.686 690.66,159.686 693.5,158.5 Z"/></g>
<g><path style="opacity:0.974" fill="#ffffff" d="M 771.5,116.5 C 785,114.924 797,118.257 807.5,126.5C 805,130.833 802.5,135.167 800,139.5C 791.483,131.633 781.649,129.466 770.5,133C 765.991,137.815 766.991,141.148 773.5,143C 783.715,144.303 793.382,147.303 802.5,152C 813.382,163.627 813.049,174.96 801.5,186C 786.013,192.957 770.346,193.29 754.5,187C 751.244,185.541 748.577,183.374 746.5,180.5C 748.836,175.825 751.669,171.492 755,167.5C 764.175,175.418 774.675,178.251 786.5,176C 791.67,173.787 792.67,170.454 789.5,166C 780.932,163.358 772.265,161.024 763.5,159C 748.119,151.309 744.952,140.142 754,125.5C 759.029,120.737 764.862,117.737 771.5,116.5 Z"/></g>
<g><path style="opacity:0.983" fill="#ffffff" d="M 458.5,118.5 C 464.833,118.5 471.167,118.5 477.5,118.5C 477.333,134.837 477.5,151.17 478,167.5C 480.402,172.788 484.568,175.122 490.5,174.5C 496.702,174.483 501.869,172.149 506,167.5C 506.5,151.17 506.667,134.837 506.5,118.5C 512.833,118.5 519.167,118.5 525.5,118.5C 525.5,142.5 525.5,166.5 525.5,190.5C 519.167,190.5 512.833,190.5 506.5,190.5C 506.664,187.813 506.497,185.146 506,182.5C 495.986,191.171 484.486,194.005 471.5,191C 464.903,188.737 460.736,184.237 459,177.5C 458.5,157.836 458.333,138.169 458.5,118.5 Z"/></g>
<g><path style="opacity:1" fill="#c1c1c2" d="M 67.5,120.5 C 83.9916,119.503 100.658,119.17 117.5,119.5C 117.167,120.5 116.5,121.167 115.5,121.5C 99.6754,120.504 83.6754,120.17 67.5,120.5 Z"/></g>
<g><path style="opacity:0.995" fill="#e1e2e1" d="M 117.5,119.5 C 117.833,119.5 118.167,119.5 118.5,119.5C 141.169,119.333 163.836,119.5 186.5,120C 146.603,159.396 107.27,199.229 68.5,239.5C 68.1667,239.5 67.8333,239.5 67.5,239.5C 67.5,208.167 67.5,176.833 67.5,145.5C 83.2166,136.975 99.2166,128.975 115.5,121.5C 116.5,121.167 117.167,120.5 117.5,119.5 Z"/></g>
<g><path style="opacity:1" fill="#929293" d="M 67.5,120.5 C 83.6754,120.17 99.6754,120.504 115.5,121.5C 99.2166,128.975 83.2166,136.975 67.5,145.5C 67.5,137.167 67.5,128.833 67.5,120.5 Z"/></g>
</svg>
