<?xml version="1.0" encoding="UTF-8"?>
<!DOCTYPE svg PUBLIC "-//W3C//DTD SVG 1.1//EN" "http://www.w3.org/Graphics/SVG/1.1/DTD/svg11.dtd">
<svg xmlns="http://www.w3.org/2000/svg" version="1.1" width="503px" height="100px" style="shape-rendering:geometricPrecision; text-rendering:geometricPrecision; image-rendering:optimizeQuality; fill-rule:evenodd; clip-rule:evenodd" xmlns:xlink="http://www.w3.org/1999/xlink">
<g><path style="opacity:1" fill="#ffffff" d="M 88.5,2.5 C 112.772,1.12121 136.772,2.95454 160.5,8C 165.387,9.34964 170.054,11.183 174.5,13.5C 173.333,13.8333 172.167,14.1667 171,14.5C 159.345,13.3799 147.679,12.3799 136,11.5C 123.484,12.4863 110.984,13.653 98.5,15C 91.1812,16.4988 84.1812,18.8321 77.5,22C 73.5664,25.7925 73.5664,29.6258 77.5,33.5C 68.9415,34.4888 60.9415,32.6555 53.5,28C 47.4174,23.2294 47.0841,18.2294 52.5,13C 63.9898,7.33208 75.9898,3.83208 88.5,2.5 Z"/></g>
<g><path style="opacity:1" fill="#ffffff" d="M 155.5,35.5 C 157.857,35.3367 160.19,35.5034 162.5,36C 163.658,37.0086 164.325,38.3419 164.5,40C 163.311,51.2036 161.311,62.2036 158.5,73C 155.183,73.4983 151.85,73.665 148.5,73.5C 149.057,63.7659 150.224,54.0993 152,44.5C 152.119,40.9848 153.286,37.9848 155.5,35.5 Z"/></g>
<g><path style="opacity:1" fill="#ffffff" d="M 169.5,35.5 C 172.187,35.3359 174.854,35.5026 177.5,36C 178.516,36.5194 179.182,37.3527 179.5,38.5C 177.838,47.1306 176.505,55.7973 175.5,64.5C 184.839,64.3335 194.173,64.5002 203.5,65C 204.334,67.712 204,70.3787 202.5,73C 189.5,73.6667 176.5,73.6667 163.5,73C 162.941,72.2753 162.608,71.4419 162.5,70.5C 164.322,60.5535 165.822,50.5535 167,40.5C 167.366,38.5483 168.199,36.8816 169.5,35.5 Z"/></g>
<g><path style="opacity:1" fill="#ffffff" d="M 247.5,40.5 C 248.167,40.5 248.5,40.1667 248.5,39.5C 251.459,37.4571 254.792,36.2905 258.5,36C 268.88,35.191 279.214,35.3577 289.5,36.5C 290.777,39.0341 290.777,41.5341 289.5,44C 279.167,44.3333 268.833,44.6667 258.5,45C 257.62,46.3561 257.286,47.8561 257.5,49.5C 266.839,49.3335 276.173,49.5002 285.5,50C 285.957,50.414 286.291,50.914 286.5,51.5C 286.167,54.345 285.167,56.845 283.5,59C 274.173,59.4998 264.839,59.6665 255.5,59.5C 255.714,61.1439 255.38,62.6439 254.5,64C 265.161,64.4998 275.828,64.6665 286.5,64.5C 286.658,67.5455 285.991,70.3788 284.5,73C 271.738,73.9602 259.071,73.6269 246.5,72C 244.026,69.9589 243.026,67.2923 243.5,64C 243.897,55.9801 245.23,48.1468 247.5,40.5 Z"/></g>
<g><path style="opacity:1" fill="#ffffff" d="M 315.5,35.5 C 322.563,35.2122 329.563,35.7122 336.5,37C 338.286,37.7845 339.786,38.9512 341,40.5C 343.237,49.0512 341.07,56.0512 334.5,61.5C 336.861,64.957 338.361,68.6236 339,72.5C 335.256,73.626 331.423,73.7927 327.5,73C 325.706,69.9123 324.039,66.7456 322.5,63.5C 315.532,62.503 308.532,62.1697 301.5,62.5C 301.637,66.1791 300.971,69.6791 299.5,73C 295.909,73.7886 292.409,73.6219 289,72.5C 290.166,60.8133 291.833,49.1467 294,37.5C 301.266,36.8489 308.432,36.1822 315.5,35.5 Z M 321.5,44.5 C 324.167,44.5 326.833,44.5 329.5,44.5C 329.708,46.9201 329.374,49.2534 328.5,51.5C 320.193,52.4979 311.86,52.8312 303.5,52.5C 303.674,50.139 304.007,47.8056 304.5,45.5C 310.358,45.8222 316.025,45.4889 321.5,44.5 Z"/></g>
<g><path style="opacity:1" fill="#ffffff" d="M 348.5,35.5 C 351.187,35.3359 353.854,35.5026 356.5,36C 357.516,36.5194 358.182,37.3527 358.5,38.5C 356.777,47.1145 355.443,55.7811 354.5,64.5C 363.839,64.3335 373.173,64.5002 382.5,65C 382.957,65.414 383.291,65.914 383.5,66.5C 382.894,68.7094 382.227,70.876 381.5,73C 368.5,73.6667 355.5,73.6667 342.5,73C 341.919,72.1074 341.585,71.1074 341.5,70C 343.116,62.5754 344.282,55.0754 345,47.5C 345.642,43.2462 346.809,39.2462 348.5,35.5 Z"/></g>
<g><path style="opacity:1" fill="#ffffff" d="M 392.5,35.5 C 394.857,35.3367 397.19,35.5034 399.5,36C 400.658,37.0086 401.325,38.3419 401.5,40C 400.123,51.1606 398.123,62.1606 395.5,73C 392.183,73.4983 388.85,73.665 385.5,73.5C 386.499,63.5033 387.666,53.5033 389,43.5C 389.316,40.3588 390.483,37.6922 392.5,35.5 Z"/></g>
<g><path style="opacity:1" fill="#ffffff" d="M 468.5,35.5 C 478.506,35.3335 488.506,35.5002 498.5,36C 499.578,36.6739 500.245,37.6739 500.5,39C 500.057,40.825 499.723,42.6583 499.5,44.5C 488.833,44.5 478.167,44.5 467.5,44.5C 467.714,46.1439 467.38,47.6439 466.5,49C 476.161,49.4998 485.828,49.6665 495.5,49.5C 496.006,53.0071 495.34,56.1737 493.5,59C 484.149,59.1679 474.816,59.6679 465.5,60.5C 464.754,61.7362 464.421,63.0695 464.5,64.5C 475.33,64.025 485.997,64.525 496.5,66C 495.833,68.3333 495.167,70.6667 494.5,73C 482.5,73.6667 470.5,73.6667 458.5,73C 454.962,71.7704 452.962,69.2704 452.5,65.5C 453.582,57.4309 455.082,49.4309 457,41.5C 460.176,38.0649 464.01,36.0649 468.5,35.5 Z"/></g>
<g><path style="opacity:1" fill="#ffffff" d="M 248.5,39.5 C 247.833,39.5 247.5,39.8333 247.5,40.5C 239.077,51.4343 230.411,62.2676 221.5,73C 217.789,73.8253 214.122,73.6586 210.5,72.5C 204.375,60.9232 199.375,48.9232 195.5,36.5C 199.437,36.2065 203.27,36.5399 207,37.5C 210.923,45.0142 214.59,52.6809 218,60.5C 224.356,52.9779 230.523,45.3112 236.5,37.5C 240.122,36.3414 243.789,36.1747 247.5,37C 248.252,37.6708 248.586,38.5041 248.5,39.5 Z"/></g>
<g><path style="opacity:1" fill="#ffffff" d="M 405.5,36.5 C 419.504,36.3334 433.504,36.5001 447.5,37C 451.666,37.985 453.666,40.6516 453.5,45C 451.999,54.1717 450.499,63.3384 449,72.5C 445.591,73.6219 442.091,73.7886 438.5,73C 437.919,72.1074 437.585,71.1074 437.5,70C 438.957,61.8391 440.29,53.6725 441.5,45.5C 432.827,45.3336 424.16,45.5002 415.5,46C 413.752,54.7448 412.252,63.5781 411,72.5C 407.591,73.6219 404.091,73.7886 400.5,73C 399.978,72.4387 399.645,71.772 399.5,71C 401.462,59.4583 403.462,47.9583 405.5,36.5 Z"/></g>
<g><path style="opacity:1" fill="#ffffff" d="M 112.5,37.5 C 122.826,39.0817 132.326,42.7483 141,48.5C 143,51.8333 143,55.1667 141,58.5C 131.51,66.1581 120.677,70.9915 108.5,73C 76.8974,78.0338 46.2308,74.7004 16.5,63C 10.8318,60.8209 5.83181,57.6542 1.5,53.5C 2.33333,53.1667 3.16667,52.8333 4,52.5C 30.2508,61.368 57.0842,63.868 84.5,60C 93.5913,58.4173 101.925,55.0839 109.5,50C 110.211,48.7453 111.044,47.5786 112,46.5C 112.242,43.3034 112.408,40.3034 112.5,37.5 Z"/></g>
<g><path style="opacity:1" fill="#ffffff" d="M 272.5,78.5 C 281.219,78.7243 284.386,83.0576 282,91.5C 277.601,96.9207 272.267,97.9207 266,94.5C 262.415,86.8429 264.582,81.5096 272.5,78.5 Z M 272.5,82.5 C 275.83,82.1635 277.496,83.6635 277.5,87C 277.23,92.1896 274.73,93.6896 270,91.5C 268.93,87.8579 269.764,84.8579 272.5,82.5 Z"/></g>
<g><path style="opacity:1" fill="#ffffff" d="M 358.5,78.5 C 363.349,78.1041 366.682,80.1041 368.5,84.5C 365.596,85.6808 363.096,85.0142 361,82.5C 356.301,83.8978 354.801,86.8978 356.5,91.5C 357.333,91.8333 358.167,92.1667 359,92.5C 361.42,90.6021 364.254,89.6021 367.5,89.5C 365.681,96.1469 361.348,98.3136 354.5,96C 348.721,88.5087 350.054,82.6754 358.5,78.5 Z"/></g>
<g><path style="opacity:1" fill="#ffffff" d="M 240.5,79.5 C 242.833,79.5 245.167,79.5 247.5,79.5C 247.998,82.4869 248.498,85.4869 249,88.5C 250.318,85.5234 251.818,82.6901 253.5,80C 255.473,79.5045 257.473,79.3379 259.5,79.5C 258.833,85.1667 258.167,90.8333 257.5,96.5C 255.712,96.7852 254.045,96.4519 252.5,95.5C 253.52,93.5675 253.687,91.5675 253,89.5C 252.443,91.6147 251.609,93.6147 250.5,95.5C 248.833,96.8333 247.167,96.8333 245.5,95.5C 244.77,92.8908 244.27,90.2241 244,87.5C 243.502,90.4816 243.335,93.4816 243.5,96.5C 241.833,96.5 240.167,96.5 238.5,96.5C 239.167,90.8333 239.833,85.1667 240.5,79.5 Z"/></g>
<g><path style="opacity:1" fill="#ffffff" d="M 287.5,79.5 C 289.288,79.2148 290.955,79.5481 292.5,80.5C 293.625,83.4603 294.625,86.4603 295.5,89.5C 297.601,86.7348 299.267,83.7348 300.5,80.5C 302.421,79.359 304.421,79.1923 306.5,80C 303.634,84.2263 301.134,88.7263 299,93.5C 295.81,97.6281 293.144,97.2948 291,92.5C 289.725,88.1775 288.558,83.8442 287.5,79.5 Z"/></g>
<g><path style="opacity:1" fill="#ffffff" d="M 309.5,79.5 C 311.167,79.5 312.833,79.5 314.5,79.5C 314.207,85.2171 313.54,90.8838 312.5,96.5C 310.833,96.5 309.167,96.5 307.5,96.5C 308.686,90.8998 309.353,85.2331 309.5,79.5 Z"/></g>
<g><path style="opacity:1" fill="#ffffff" d="M 321.5,79.5 C 326.167,79.5 330.833,79.5 335.5,79.5C 335.67,80.8221 335.337,81.9887 334.5,83C 331.571,83.7772 328.737,83.6105 326,82.5C 325.626,83.4162 325.126,84.2496 324.5,85C 327.817,85.4983 331.15,85.665 334.5,85.5C 334.5,86.8333 334.5,88.1667 334.5,89.5C 330.365,88.8898 326.699,89.7232 323.5,92C 327.152,92.4986 330.818,92.6653 334.5,92.5C 334.67,93.8221 334.337,94.9887 333.5,96C 328.511,96.4993 323.511,96.6659 318.5,96.5C 318.932,90.6963 319.932,85.0296 321.5,79.5 Z"/></g>
<g><path style="opacity:1" fill="#ffffff" d="M 373.5,79.5 C 375.527,79.3379 377.527,79.5045 379.5,80C 375.982,85.2918 377.315,86.7918 383.5,84.5C 384.309,82.9291 384.643,81.2624 384.5,79.5C 386.167,79.5 387.833,79.5 389.5,79.5C 388.994,85.188 388.328,90.8547 387.5,96.5C 385.833,96.5 384.167,96.5 382.5,96.5C 382.318,94.4086 382.652,92.4086 383.5,90.5C 381.604,89.5344 379.604,89.2011 377.5,89.5C 377.326,91.861 376.993,94.1944 376.5,96.5C 374.833,96.5 373.167,96.5 371.5,96.5C 372.167,90.8333 372.833,85.1667 373.5,79.5 Z"/></g>
<g><path style="opacity:1" fill="#ffffff" d="M 400.5,79.5 C 402.5,79.5 404.5,79.5 406.5,79.5C 407.327,85.1431 408.661,90.6431 410.5,96C 408.866,96.4935 407.199,96.6602 405.5,96.5C 405.688,94.8967 405.188,93.5634 404,92.5C 401.092,92.9081 398.592,94.0747 396.5,96C 394.833,96.6667 393.167,96.6667 391.5,96C 394.385,90.3929 397.385,84.8929 400.5,79.5 Z M 401.5,85.5 C 406.137,89.0492 405.47,90.2159 399.5,89C 400.823,88.1841 401.489,87.0174 401.5,85.5 Z"/></g>
<g><path style="opacity:1" fill="#ffffff" d="M 417.5,79.5 C 419.288,79.2148 420.955,79.5481 422.5,80.5C 426.167,90.1662 427.833,89.8329 427.5,79.5C 429.527,79.3379 431.527,79.5045 433.5,80C 431.891,85.3565 430.891,90.8565 430.5,96.5C 428.801,96.6602 427.134,96.4935 425.5,96C 424.034,93.1865 422.534,90.3531 421,87.5C 419.851,90.3926 419.351,93.3926 419.5,96.5C 417.833,96.5 416.167,96.5 414.5,96.5C 415.039,90.7181 416.039,85.0514 417.5,79.5 Z"/></g>
<g><path style="opacity:1" fill="#ffffff" d="M 438.5,79.5 C 440.199,79.3398 441.866,79.5065 443.5,80C 445.127,82.7542 446.627,85.5875 448,88.5C 448.696,85.5219 449.196,82.5219 449.5,79.5C 451.288,79.2148 452.955,79.5481 454.5,80.5C 453.744,85.5442 452.744,90.5442 451.5,95.5C 449.955,96.4519 448.288,96.7852 446.5,96.5C 445.309,93.1112 443.809,89.7779 442,86.5C 441.744,89.557 441.244,92.557 440.5,95.5C 439.311,96.4287 437.978,96.762 436.5,96.5C 436.758,90.769 437.425,85.1023 438.5,79.5 Z"/></g>
<g><path style="opacity:1" fill="#ffffff" d="M 459.5,79.5 C 464.5,79.5 469.5,79.5 474.5,79.5C 474.67,80.8221 474.337,81.9887 473.5,83C 470.571,83.7772 467.737,83.6105 465,82.5C 464.626,83.4162 464.126,84.2496 463.5,85C 466.817,85.4983 470.15,85.665 473.5,85.5C 473.5,86.8333 473.5,88.1667 473.5,89.5C 469.365,88.8898 465.699,89.7232 462.5,92C 466.152,92.4986 469.818,92.6653 473.5,92.5C 473.67,93.8221 473.337,94.9887 472.5,96C 467.511,96.4993 462.511,96.6659 457.5,96.5C 458.412,90.8687 459.079,85.202 459.5,79.5 Z"/></g>
<g><path style="opacity:1" fill="#ffffff" d="M 480.5,79.5 C 482.288,79.2148 483.955,79.5481 485.5,80.5C 484.555,84.448 483.888,88.448 483.5,92.5C 486.5,92.5 489.5,92.5 492.5,92.5C 492.5,93.8333 492.5,95.1667 492.5,96.5C 487.456,96.8275 482.456,96.4941 477.5,95.5C 478.337,90.1384 479.337,84.805 480.5,79.5 Z"/></g>
</svg>
