<?xml version="1.0" encoding="utf-8"?>
<!-- Generator: Adobe Illustrator 23.1.0, SVG Export Plug-In . SVG Version: 6.00 Build 0)  -->
<!DOCTYPE svg PUBLIC "-//W3C//DTD SVG 1.1//EN" "http://www.w3.org/Graphics/SVG/1.1/DTD/svg11.dtd" [
	<!ENTITY ns_extend "http://ns.adobe.com/Extensibility/1.0/">
	<!ENTITY ns_ai "http://ns.adobe.com/AdobeIllustrator/10.0/">
	<!ENTITY ns_graphs "http://ns.adobe.com/Graphs/1.0/">
	<!ENTITY ns_vars "http://ns.adobe.com/Variables/1.0/">
	<!ENTITY ns_imrep "http://ns.adobe.com/ImageReplacement/1.0/">
	<!ENTITY ns_sfw "http://ns.adobe.com/SaveForWeb/1.0/">
	<!ENTITY ns_custom "http://ns.adobe.com/GenericCustomNamespace/1.0/">
	<!ENTITY ns_adobe_xpath "http://ns.adobe.com/XPath/1.0/">
]>
<svg version="1.1"
	 id="Слой_1" xmlns:x="&ns_extend;" xmlns:i="&ns_ai;" xmlns:graph="&ns_graphs;" xmlns:cc="http://creativecommons.org/ns#" xmlns:dc="http://purl.org/dc/elements/1.1/" xmlns:rdf="http://www.w3.org/1999/02/22-rdf-syntax-ns#"
	 xmlns="http://www.w3.org/2000/svg" xmlns:xlink="http://www.w3.org/1999/xlink" x="0px" y="0px" viewBox="0 0 600 135.6"
	 style="enable-background:new 0 0 600 135.6;" xml:space="preserve">
<style type="text/css">
	.st0{fill:#A4E510;}
</style>
<metadata>
	<sfw  xmlns="&ns_sfw;">
		<slices></slices>
		<sliceSourceBounds  bottomLeftOrigin="true" height="135.6" width="600" x="0" y="0"></sliceSourceBounds>
	</sfw>
</metadata>
<g>
	<path class="st0" d="M585,0.1c-3.2,0.2-6.1,1.5-8.5,3.6l-53.1,45.7L470.2,3.6c-2.6-2.3-6-3.6-9.4-3.6h-0.9
		c-7.8,0.5-13.6,7.2-13.1,14.7c0.2,3.8,2,7.3,4.9,9.7l50.3,43.3L451.7,111c-6,5-6.7,13.7-1.6,19.6c5,5.8,13.9,6.5,19.9,1.5l0.2-0.2
		l53.2-45.8l53.1,45.8c5.8,5.1,14.7,4.7,20-1c5.2-5.7,4.7-14.4-1.1-19.6L595,111l-50.3-43.3L595,24.5c5.9-5,6.7-13.7,1.6-19.6
		c-2.7-3-6.6-4.8-10.7-4.8L585,0.1"/>
	<path class="st0" d="M407.9,0.1c-3.2,0.2-6.2,1.5-8.5,3.6l-53.2,45.7L293,3.6c-2.6-2.3-6-3.6-9.4-3.6h-0.9
		c-7.8,0.5-13.6,7.2-13.1,14.7c0.2,3.8,2,7.3,4.9,9.7l50.3,43.3L274.4,111c-5.9,5-6.7,13.7-1.6,19.6c5,5.8,13.9,6.5,19.9,1.5
		c0.1-0.1,0.2-0.1,0.3-0.2l53.2-45.8l53.2,45.8c5.7,5.1,14.7,4.7,19.9-1c5.2-5.7,4.8-14.4-1-19.6c-0.1-0.1-0.2-0.2-0.3-0.3
		l-50.4-43.3l50.4-43.3c5.9-5,6.6-13.7,1.6-19.6c-2.7-3-6.6-4.8-10.7-4.8L407.9,0.1"/>
	<path class="st0" d="M225.4,0c-7.6,0.2-13.8,6.4-13.6,14.1v107.4c-0.1,7.6,6,14,13.6,14.1c7.7,0.1,13.9-6,14.1-13.7V14.1
		c0.1-7.6-6-13.9-13.6-14.1L225.4,0z"/>
	<path class="st0" d="M173.5,0.2h-31c-25.1,0-43.8,22.2-43.8,47.3v39c0,7.2-2.2,11.7-6,15.1c-3.7,3.5-9.7,6-18.5,6H14.1
		c-3.7-0.1-7.3,1.4-9.9,3.9c-2.6,2.6-4.1,6.2-4.1,9.8c0,3.7,1.5,7.3,4.1,9.9c2.6,2.6,6.3,4.1,9.9,4h60.2c14.3,0,27.5-4.4,37.2-13.1
		c9.7-8.8,15-21.7,15-35.6v-39c0-9.6,10.4-19.6,16.1-19.6h31c3.6,0.1,7.3-1.4,9.9-4c2.6-2.6,4.1-6.2,4.1-9.8c0-3.7-1.5-7.3-4.1-9.8
		c-2.5-2.6-6.1-4-9.7-4L173.5,0.2z"/>
</g>
</svg>
