<?xml version="1.0" encoding="UTF-8" standalone="no"?>
<svg
   width="799"
   height="108.32975"
   viewBox="0 0 799 108.32975"
   version="1.1"
   id="svg6"
   sodipodi:docname="SIXX HD.svg"
   inkscape:version="1.1.1 (3bf5ae0d25, 2021-09-20)"
   xmlns:inkscape="http://www.inkscape.org/namespaces/inkscape"
   xmlns:sodipodi="http://sodipodi.sourceforge.net/DTD/sodipodi-0.dtd"
   xmlns="http://www.w3.org/2000/svg"
   xmlns:svg="http://www.w3.org/2000/svg">
  <defs
     id="defs10" />
  <sodipodi:namedview
     id="namedview8"
     pagecolor="#ffffff"
     bordercolor="#666666"
     borderopacity="1.0"
     inkscape:pageshadow="2"
     inkscape:pageopacity="0.0"
     inkscape:pagecheckerboard="0"
     showgrid="false"
     inkscape:zoom="0.3"
     inkscape:cx="395"
     inkscape:cy="65"
     inkscape:window-width="192"
     inkscape:window-height="102"
     inkscape:window-x="-8"
     inkscape:window-y="-8"
     inkscape:window-maximized="1"
     inkscape:current-layer="svg6" />
  <path
     d="M 178.54,0.05854886 A 11.39,11.39 0 0 0 167.75,11.208549 v 85.38 a 11,11 0 1 0 21.95,0 v -85.38 A 11.42,11.42 0 0 0 178.54,0.05854886 Z m 45.39,0 a 11.27,11.27 0 0 0 -9.67,7.63000004 11.39,11.39 0 0 0 3.16,11.9100001 l 39.43,34.4 -39.43,34.4 a 10.7,10.7 0 0 0 -3.73,7.43 11.3,11.3 0 0 0 2.61,8.190001 11.18,11.18 0 0 0 7.63,3.72 11,11 0 0 0 8,-2.79 l 41.67,-36.460001 41.48,36.460001 a 11.47,11.47 0 0 0 8.19,2.79 11,11 0 0 0 7.63,-3.72 11.34,11.34 0 0 0 2.6,-8.190001 10.65,10.65 0 0 0 -3.72,-7.43 l -39.43,-34.4 39.43,-34.4 a 11.15,11.15 0 0 0 -8,-19.52000014 11,11 0 0 0 -6.7,2.79000004 L 273.6,39.308549 231.93,2.8585489 a 10.8,10.8 0 0 0 -8,-2.80000004 z m 141,0 A 11.11,11.11 0 0 0 358.41,19.598549 l 39.43,34.4 -39.43,34.4 a 10.9,10.9 0 0 0 -3.9,7.43 11.44,11.44 0 0 0 2.78,8.190001 11.2,11.2 0 0 0 7.64,3.72 11,11 0 0 0 8,-2.79 l 41.66,-36.460001 41.49,36.460001 a 11,11 0 0 0 15.63,-0.93 11.45,11.45 0 0 0 2.79,-8.190001 10.87,10.87 0 0 0 -3.91,-7.43 l -39.25,-34.4 39.25,-34.4 a 11.55,11.55 0 0 0 3.16,-12.6400001 11.41,11.41 0 0 0 -11,-6.88000004 11,11 0 0 0 -6.69,2.79000004 L 414.56,39.308549 372.9,2.8685489 a 10.8,10.8 0 0 0 -8,-2.81000004 z m 175.4,0 c 0.11,35.90000014 -0.11,71.88000014 0,107.68000114 9.65,0.11 19.43,-0.11 29.19,0 V 61.248549 c 20.11,0 40.14,-0.11 60.25,0 v 46.490001 c 9.89,-0.11 19.69,-0.11 29.58,0 V 0.05854886 H 629.74 V 40.418549 H 569.49 V 0.05854886 Z m 138.93,0 V 20.698549 c 21.46,0.11 42.88,0.07 64.34,0.18 6.13,0.35 12.77,0.5 18.22,3.91 4.55,3.06 6.06,8.64 6.51,13.76 a 199,199 0 0 1 0,30.88 c -0.45,5.23 -1.48,11.25 -6.14,14.33 -4.66,2.84 -10.22,3 -15.43,3.34 -12.74,0.11 -25.21,0 -38,0 v -47.79 h -29.55 v 68.440001 c 25.23,-0.11 50.29,0.11 75.52,0 11.7,-0.57 24.62,-1.89 33.48,-10.420001 8.64,-8.51 9.87,-21.63 10.79,-33.1 v -20.28 c -0.79,-10 -1.8,-20.61 -7.82,-29 C 786.98,8.9485489 780.01,4.9485489 772.96,3.0385489 764.1,0.54854886 754.84,0.03854886 745.63,0.03854886 c -22.17,0.02 -44.26,-0.11 -66.4,0.02 z m -566.52,0.18 c -19.93,0 -34.79,17.58000014 -34.79,37.58000014 v 31.06 c 0,5.74 -1.85,9.38 -4.84,12.09 -2.99,2.71 -7.67,4.64 -14.7,4.64 H 11.16 a 11.42,11.42 0 0 0 -11.16,11 c 0,5.810001 5.34,11.240001 11.16,11.150001 H 58.4 c 11.39,0 21.91,-3.45 29.58,-10.420001 7.67,-6.97 11.9,-17.41 11.9,-28.46 v -31.08 c 0,-7.67 8.24,-15.63 12.83,-15.63 H 136 a 11,11 0 1 0 0,-22.00000014 h -23.29 z"
     fill="#9acb3d"
     id="path4" />
</svg>
