<?xml version="1.0" encoding="UTF-8" standalone="no"?>
<!-- Generator: Adobe Illustrator 23.0.1, SVG Export Plug-In . SVG Version: 6.00 Build 0)  -->

<svg
   version="1.1"
   id="svg1628510"
   sodipodi:docname="Sky Sport News HD.svg"
   x="0px"
   y="0px"
   viewBox="0 0 3213.1 500"
   enable-background="new 0 0 3213.1 500"
   xml:space="preserve"
   inkscape:version="1.1.1 (3bf5ae0d25, 2021-09-20)"
   xmlns:inkscape="http://www.inkscape.org/namespaces/inkscape"
   xmlns:sodipodi="http://sodipodi.sourceforge.net/DTD/sodipodi-0.dtd"
   xmlns="http://www.w3.org/2000/svg"
   xmlns:svg="http://www.w3.org/2000/svg"><defs
   id="defs88" /><sodipodi:namedview
   id="namedview86"
   pagecolor="#ffffff"
   bordercolor="#666666"
   borderopacity="1.0"
   inkscape:pageshadow="2"
   inkscape:pageopacity="0.0"
   inkscape:pagecheckerboard="0"
   showgrid="false"
   inkscape:zoom="0.40366002"
   inkscape:cx="2093.3458"
   inkscape:cy="247.73323"
   inkscape:window-width="1347"
   inkscape:window-height="1040"
   inkscape:window-x="110"
   inkscape:window-y="0"
   inkscape:window-maximized="0"
   inkscape:current-layer="g81" />
<g
   id="g83">
	<g
   id="g21"
   style="fill:#ffffff">
		<path
   fill="#002A91"
   d="M3179.7,0H2077.6c-18.3,0-33.2,14.9-33.2,33.3v433.4c0,18.4,14.9,33.3,33.2,33.3h1102.1    c18.4,0,33.3-14.9,33.3-33.3V33.3C3213.1,14.9,3198.2,0,3179.7,0 M3179.7,10c12.9,0,23.3,10.5,23.3,23.3v433.4    c0,12.9-10.4,23.3-23.3,23.3H2077.6c-12.8,0-23.3-10.4-23.3-23.3V33.3c0-12.8,10.5-23.3,23.3-23.3H3179.7"
   id="path9"
   style="fill:#ffffff" />
		
		<path
   fill="#002A91"
   d="M2393,233.9v105.4c0,7.7-4.5,12.6-17.9,12.6c-5.7,0-12.2-0.8-15.5-1.6V238.4c0-39.1-19.1-57.8-48-57.8    c-22.4,0-46.8,15.5-56.6,33.8v124.9c0,7.7-4.5,12.6-17.9,12.6c-5.7,0-12.2-0.8-15.5-1.6V154.6c3.3-0.8,9.8-1.6,15.5-1.6    c13.4,0,17.9,4.9,17.9,12.6v16.7c14.2-17.5,35.8-31.3,64.7-31.3C2359.6,151,2393,176.2,2393,233.9"
   id="path13"
   style="fill:#f2f2f2" />
		<path
   fill="#002A91"
   d="M2618.4,264.5h-151.4c4.5,37.8,30.5,59,69.2,59c16.7,0,29.7-3.3,41.9-7.4c8.6-2.8,12.2-4.1,15.5-4.1    c9.3,0,15.4,7.7,13.8,25.6c-17.5,7.8-44.3,16.3-72.4,16.3c-61,0-102.1-41.1-102.1-102.1c0-58.6,43.5-100.9,96.8-100.9    c60.2,0,89.9,46.8,89.9,94C2619.6,250.6,2619.2,257.6,2618.4,264.5 M2467.1,238.4h120c-1.2-33.4-22.8-59.4-57.4-59.4    C2499.6,179,2472.3,199.7,2467.1,238.4"
   id="path15"
   style="fill:#e6e6e6" />
		<path
   fill="#002A91"
   d="M2926.5,157.9l-51.7,179.8c-3.3,11.4-11.8,14.2-24,14.2c-6.9,0-13.8-1.2-19.5-2.8l-49.3-158.3l-46.4,146.9    c-3.7,11.4-12.6,14.2-23.6,14.2c-6.9,0-14.6-1.2-20.3-2.8l-55.3-191.2c4.9-2.4,13.8-4.9,21.2-4.9c9.3,0,14.2,2.9,16.7,11.8    l39.1,150.1h0.4l48.4-157.1c5.7-3.3,13-4.9,20.8-4.9c12.6,0,19.5,2.9,23.2,14.6l44.8,147.3h0.4l37.8-150.1    c2.5-9,7.3-11.8,16.7-11.8C2913.1,153,2921.6,155.4,2926.5,157.9"
   id="path17"
   style="fill:#e6e6e6" />
		<path
   fill="#002A91"
   d="M2948.4,340.5c-2.4-17.1,2.9-26.1,12.6-26.1c9.3,0,32.1,10.2,63.9,10.2c33.3,0,45.9-11.8,45.9-27.2    c0-11-4.8-20.8-35-28.9l-34.6-9.3c-38.3-10.2-53.3-29.3-53.3-52.9c0-29.3,23.2-55.3,75.7-55.3c23.6,0,52.9,5.3,70.8,12.2    c3.2,16.7-2.1,25.6-12.2,25.6c-9,0-29.3-8.6-58.2-8.6c-30.9,0-42.3,10.6-42.3,24.4c0,9.8,4.5,18.7,32.1,26.5l35.4,9.7    c39.5,11,55.3,29.3,55.3,55.3c0,30.5-23.6,57.8-80.6,57.8C2998.8,354,2967.5,347.9,2948.4,340.5"
   id="path19"
   style="fill:#f2f2f2" />
	</g>
	<g
   id="g81">
		
			<linearGradient
   id="Plinth_2_"
   gradientUnits="userSpaceOnUse"
   x1="1456.6582"
   y1="198"
   x2="1456.6582"
   y2="698"
   gradientTransform="matrix(1 0 0 1 0 -198)">
			<stop
   offset="0.4"
   style="stop-color:#FF0000"
   id="stop23" />
			<stop
   offset="1"
   style="stop-color:#D42321"
   id="stop25" />
		</linearGradient>
		<path
   id="Plinth_1_"
   fill="url(#Plinth_2_)"
   d="M832.1,0h1249.2c18.4,0,33.3,14.9,33.3,33.3v433.4c0,18.4-14.9,33.3-33.3,33.3    H832.1c-18.4,0-33.3-14.9-33.3-33.3V33.3C798.8,14.9,813.7,0,832.1,0z" />
		
			<linearGradient
   id="p40_2_"
   gradientUnits="userSpaceOnUse"
   x1="1459.4656"
   y1="431.7283"
   x2="1450.7686"
   y2="182.6746"
   gradientTransform="matrix(1 0 0 1 0 -198)">
			<stop
   offset="0"
   style="stop-color:#FFFFFF"
   id="stop29" />
			<stop
   offset="0.1203"
   style="stop-color:#FFFFFF;stop-opacity:0.8347"
   id="stop31" />
			<stop
   offset="0.2693"
   style="stop-color:#FFFFFF;stop-opacity:0.6576"
   id="stop33" />
			<stop
   offset="0.4195"
   style="stop-color:#FFFFFF;stop-opacity:0.5107"
   id="stop35" />
			<stop
   offset="0.5684"
   style="stop-color:#FFFFFF;stop-opacity:0.3965"
   id="stop37" />
			<stop
   offset="0.7156"
   style="stop-color:#FFFFFF;stop-opacity:0.3152"
   id="stop39" />
			<stop
   offset="0.8603"
   style="stop-color:#FFFFFF;stop-opacity:0.2664"
   id="stop41" />
			<stop
   offset="1"
   style="stop-color:#FFFFFF;stop-opacity:0.25"
   id="stop43" />
		</linearGradient>
		
		
			<linearGradient
   id="Sky_Logo_2_"
   gradientUnits="userSpaceOnUse"
   x1="361.9225"
   y1="226.8058"
   x2="361.9225"
   y2="669.2197"
   gradientTransform="matrix(1 0 0 1 0 -198)">
			<stop
   offset="0"
   style="stop-color:#002A91"
   id="stop47" />
			<stop
   offset="0.8"
   style="stop-color:#002672"
   id="stop49" />
		</linearGradient>
		<path
   id="Sky_Logo_1_"
   fill="url(#Sky_Logo_2_)"
   d="M499.6,464.1c10.5,4.6,21.8,7.1,33.2,7.1c26.1,0.6,40.4-9.4,50.9-32.8    l140.1-311.9c-9.1-4.1-19-6.4-29-6.7c-18.1-0.4-42.3,3.3-57.6,40.1l-45.3,106.8l-89-144.6c-9.8-2.6-19.9-4-30-4.2    c-31.5,0-49,11.5-67.2,31.3l-86.5,94.4L388.7,353c12.9,19.9,29.8,30.1,57.3,30.1c13.7,0.2,27.3-2.3,40-7.5l-83.8-126l59.4-62.9    L559,339.4L499.6,464.1z M315.9,346.2c0,23-9,36.2-54,36.2c-5.4,0-10.8-0.4-16.1-1.1V76.2c0-23.2,7.9-47.4,53.2-47.4    c5.7,0,11.4,0.6,16.9,1.7V346.2z M223.1,300.1c0,43-28.1,74.2-85.1,80.4c-41.3,4.4-101.1-0.8-129.5-4c-1-4.9-1.6-9.9-1.7-15    c0-37.4,20.2-46,39.2-46c19.8,0,50.9,3.5,74,3.5c25.5,0,33.2-8.6,33.2-16.9c0-10.7-10.2-15.2-30-19L69,272.7    c-45-8.6-69-39.7-69-72.7c0-40.1,28.4-73.6,84.3-79.8c42.3-4.6,93.8,0.6,122,4c1,4.7,1.5,9.5,1.5,14.4c0,37.4-19.8,45.5-38.8,45.5    c-14.6,0-37.3-2.7-63.2-2.7c-26.3,0-37.3,7.3-37.3,16.1c0,9.4,10.4,13.2,26.9,16.1l51.7,9.6C200.2,232.9,223.1,263.1,223.1,300.1z    "
   style="fill:#ffffff" />
		
			<linearGradient
   id="s25_2_"
   gradientUnits="userSpaceOnUse"
   x1="365.4495"
   y1="461.2478"
   x2="359.6001"
   y2="293.7514"
   gradientTransform="matrix(1 0 0 1 0 -198)">
			<stop
   offset="0"
   style="stop-color:#FFFFFF"
   id="stop53" />
			<stop
   offset="0.1203"
   style="stop-color:#FFFFFF;stop-opacity:0.8347"
   id="stop55" />
			<stop
   offset="0.2693"
   style="stop-color:#FFFFFF;stop-opacity:0.6576"
   id="stop57" />
			<stop
   offset="0.4195"
   style="stop-color:#FFFFFF;stop-opacity:0.5107"
   id="stop59" />
			<stop
   offset="0.5684"
   style="stop-color:#FFFFFF;stop-opacity:0.3965"
   id="stop61" />
			<stop
   offset="0.7156"
   style="stop-color:#FFFFFF;stop-opacity:0.3152"
   id="stop63" />
			<stop
   offset="0.8603"
   style="stop-color:#FFFFFF;stop-opacity:0.2664"
   id="stop65" />
			<stop
   offset="1"
   style="stop-color:#FFFFFF;stop-opacity:0.25"
   id="stop67" />
		</linearGradient>
		
		<path
   fill="#FFFFFF"
   d="M894.4,359.3c-3-20.6,3.4-31.4,15.2-31.4c11.2,0,38.7,12.3,77,12.3c40.3,0,55.5-14.3,55.5-32.9    c0-13.2-5.9-25-42.2-34.9l-41.7-11.2c-46.1-12.3-64.3-35.4-64.3-63.9c0-35.3,28-66.8,91.3-66.8c28.5,0,63.9,6.4,85.4,14.8    c3.9,20.1-2.5,30.9-14.7,30.9c-10.8,0-35.3-10.3-70.2-10.3c-37.3,0-51.1,12.7-51.1,29.4c0,11.7,5.4,22.6,38.8,31.9l42.7,11.8    c47.7,13.2,66.8,35.3,66.8,66.7c0,36.9-28.5,69.7-97.2,69.7C955.3,375.5,917.4,368.1,894.4,359.3"
   id="path71" />
		<path
   fill="#FFFFFF"
   d="M1365.6,252.8c0,77-54,122.7-113.4,122.7c-35.3,0-64.3-16.7-81.5-40.2v99.2c0,9.3-5.4,15.2-21.1,15.2    c-7.9,0-15.2-1-19.1-1.9V135c3.9-1,11.2-2,19.1-2c15.7,0,21.1,5.9,21.1,15.2v22.5c17.2-23.5,46.2-40.2,81.5-40.2    C1311.6,130.5,1365.6,176.2,1365.6,252.8 M1324.9,252.8c0-51.5-34.3-86.9-80.5-86.9c-31.4,0-60.4,18.2-73.6,44.7v84.9    c13.2,26.5,42.2,44.7,73.6,44.7C1290.5,340.1,1324.9,304.8,1324.9,252.8"
   id="path73" />
		<path
   fill="#FFFFFF"
   d="M1403.3,252.8c0-70.2,51.5-122.2,120.7-122.2c69.7,0,121.2,52,121.2,122.2c0,69.7-51.5,122.7-121.2,122.7    C1454.8,375.4,1403.3,322.4,1403.3,252.8 M1604.5,252.8c0-54-36.4-86.9-80.5-86.9c-43.6,0-80,32.9-80,86.9    c0,53.5,36.4,87.3,80,87.3C1568.1,340.1,1604.5,306.3,1604.5,252.8"
   id="path75" />
		<path
   fill="#FFFFFF"
   d="M1839.8,152.6c0,16.2-6.8,19.6-23.6,19.6c-33.8,0-62.3,15.7-80,52.5v133.1c0,9.8-5.4,15.2-21.6,15.2    c-6.9,0-14.8-1-18.7-1.9V134.9c3.9-1,11.7-1.9,18.7-1.9c16.1,0,21.6,5.9,21.6,15.2v32.9c23-34.9,57.9-52.5,101.6-46.6    C1838.3,137.9,1839.8,145.3,1839.8,152.6"
   id="path77" />
		<path
   fill="#FFFFFF"
   d="M2016.3,359.3c-20.6,9.8-44.2,16.2-67.7,16.2c-46.6,0-74.6-27.5-74.6-73.1V99.7c0-10.3,5.9-17.2,21.6-17.2    c6.8,0,14.7,1.4,18.7,2.5v51h91.7c0.5,3.4,1.5,10.3,1.5,16.2c0,14.2-5.9,19.1-14.7,19.1h-78.5v128.2c0,27.4,12.7,40.7,38.7,40.7    c23.6,0,36.8-10.3,48.1-10.3C2012.9,329.8,2018.8,339.6,2016.3,359.3"
   id="path79" />
	</g>
</g>
</svg>
