<?xml version="1.0" encoding="UTF-8" standalone="no"?>
<!-- Generator: Adobe Illustrator 23.0.1, SVG Export Plug-In . SVG Version: 6.00 Build 0)  -->

<svg
   version="1.1"
   id="Livello_1"
   x="0px"
   y="0px"
   viewBox="0 0 3489.5 500"
   enable-background="new 0 0 3489.5 500"
   xml:space="preserve"
   sodipodi:docname="Sky Sport Austria 1 HD.svg"
   inkscape:version="1.1.1 (3bf5ae0d25, 2021-09-20)"
   xmlns:inkscape="http://www.inkscape.org/namespaces/inkscape"
   xmlns:sodipodi="http://sodipodi.sourceforge.net/DTD/sodipodi-0.dtd"
   xmlns="http://www.w3.org/2000/svg"
   xmlns:svg="http://www.w3.org/2000/svg"><defs
   id="defs94" /><sodipodi:namedview
   id="namedview92"
   pagecolor="#ffffff"
   bordercolor="#666666"
   borderopacity="1.0"
   inkscape:pageshadow="2"
   inkscape:pageopacity="0.0"
   inkscape:pagecheckerboard="0"
   showgrid="false"
   inkscape:zoom="0.37168649"
   inkscape:cx="1744.75"
   inkscape:cy="248.86565"
   inkscape:window-width="1920"
   inkscape:window-height="1017"
   inkscape:window-x="-8"
   inkscape:window-y="-8"
   inkscape:window-maximized="1"
   inkscape:current-layer="g87" />
<g
   id="g89">
	<g
   id="g27">
		<path
   fill="#002A91"
   d="M3456.2,0H2077.8c-18.4,0-33.3,14.9-33.3,33.3v433.4c0,18.4,14.9,33.3,33.3,33.3h1378.4    c18.4,0,33.3-14.9,33.3-33.3V33.3C3489.5,14.9,3474.6,0,3456.2,0 M3456.2,10c12.9,0,23.3,10.5,23.3,23.3v433.4    c0,12.9-10.5,23.3-23.3,23.3H2077.8c-12.8,0-23.3-10.4-23.3-23.3V33.3c0-12.8,10.5-23.3,23.3-23.3H3456.2"
   id="path9" />
		<path
   fill="#FFFFFF"
   d="M3456.2,10c12.9,0,23.3,10.5,23.3,23.3v433.4c0,12.9-10.5,23.3-23.3,23.3H2077.8    c-12.8,0-23.3-10.4-23.3-23.3V33.3c0-12.8,10.5-23.3,23.3-23.3H3456.2"
   id="path11" />
		<path
   fill="#002A91"
   d="M2377.3,225v125.3c-3.3,0.8-9.4,1.6-15.1,1.6c-12.2,0-17.9-4.5-17.9-12.6v-17.1    c-17.5,19.9-40.3,31.7-69.1,31.7c-43.6,0-67.6-28.5-67.6-59.4c0-47.2,50.4-67.9,136.3-62.3v-6.9c0-32.1-9.7-45.6-46.8-45.6    c-15.5,0-36.2,4.5-47.2,7.3c-6.5,1.6-11.4,3.2-15.4,3.2c-9.3,0-15.5-8.1-12.2-25.2c19.9-7.3,48.8-14.2,76.5-14.2    C2356.1,150.9,2377.3,176.6,2377.3,225 M2343.9,293.3v-37c-56.1-4.1-103,3.3-103,37c0,17.1,14.2,32.5,39.9,32.5    C2306.9,325.9,2329.7,312.9,2343.9,293.3"
   id="path13" />
		<path
   fill="#002A91"
   d="M2597.5,154.6v195.7c-3.3,0.8-9.7,1.6-15.5,1.6c-13.4,0-17.9-4.8-17.9-12.6v-16.7    c-14.2,17.5-35.8,31.3-64.7,31.3c-39.9,0-73.2-25.2-73.2-83V165.6c0-7.7,4.5-12.6,17.9-12.6c5.7,0,12.2,0.8,15.5,1.6v111.9    c0,39.1,19.1,57.8,48,57.8c22.4,0,46.8-15.5,56.5-33.8V165.6c0-7.7,4.5-12.6,17.9-12.6C2587.7,153,2594.2,153.8,2597.5,154.6"
   id="path15" />
		<path
   fill="#002A91"
   d="M2640.7,340.5c-2.4-17.1,2.9-26.1,12.6-26.1c9.3,0,32.1,10.2,63.9,10.2c33.3,0,45.9-11.8,45.9-27.2    c0-11-4.8-20.8-35-28.9l-34.6-9.3c-38.3-10.2-53.3-29.3-53.3-52.9c0-29.3,23.2-55.3,75.7-55.3c23.6,0,52.9,5.3,70.8,12.2    c3.2,16.7-2.1,25.6-12.2,25.6c-9,0-29.3-8.6-58.2-8.6c-30.9,0-42.3,10.6-42.3,24.4c0,9.8,4.5,18.7,32.1,26.5l35.4,9.7    c39.5,11,55.3,29.3,55.3,55.3c0,30.5-23.6,57.8-80.6,57.8C2691.2,354,2659.8,347.9,2640.7,340.5"
   id="path17" />
		<path
   fill="#002A91"
   d="M2953,340.5c-17.1,8.2-36.6,13.5-56.1,13.5c-38.7,0-61.9-22.8-61.9-60.6v-168c0-8.6,4.9-14.2,17.9-14.2    c5.7,0,12.2,1.2,15.5,2v42.3h76.1c0.4,2.8,1.2,8.5,1.2,13.4c0,11.8-4.9,15.9-12.2,15.9h-65.1v106.2c0,22.8,10.6,33.8,32.1,33.8    c19.5,0,30.5-8.6,39.9-8.6C2950.1,316.1,2955,324.3,2953,340.5"
   id="path19" />
		<path
   fill="#002A91"
   d="M3102.6,169.2c0,13.5-5.7,16.3-19.5,16.3c-28.1,0-51.7,13-66.3,43.5v110.3c0,8.2-4.5,12.6-17.9,12.6    c-5.7,0-12.2-0.8-15.5-1.6V154.6c3.3-0.8,9.8-1.6,15.5-1.6c13.4,0,17.9,4.9,17.9,12.6v27.2c19.1-28.9,48-43.5,84.2-38.6    C3101.3,157,3102.6,163.2,3102.6,169.2"
   id="path21" />
		<path
   fill="#002A91"
   d="M3127,110.3c0-12.2,9.8-21.2,21.2-21.2c12.2,0,21.6,9,21.6,21.2c0,11-9.3,21.2-21.6,21.2    C3136.8,131.4,3127,121.2,3127,110.3 M3131.5,350.3V165.6c0-7.8,4.5-12.6,17.9-12.6c5.7,0,11.8,0.8,15,1.6v184.7    c0,8.1-4.1,12.6-17.5,12.6C3141.2,351.9,3134.7,351.1,3131.5,350.3"
   id="path23" />
		<path
   fill="#002A91"
   d="M3372.1,225v125.3c-3.3,0.8-9.4,1.6-15.1,1.6c-12.2,0-17.9-4.5-17.9-12.6v-17.1    c-17.5,19.9-40.3,31.7-69.1,31.7c-43.6,0-67.6-28.5-67.6-59.4c0-47.2,50.4-67.9,136.3-62.3v-6.9c0-32.1-9.7-45.6-46.8-45.6    c-15.5,0-36.2,4.5-47.2,7.3c-6.5,1.6-11.4,3.2-15.4,3.2c-9.3,0-15.5-8.1-12.2-25.2c19.9-7.3,48.8-14.2,76.5-14.2    C3350.9,150.9,3372.1,176.6,3372.1,225 M3338.7,293.3v-37c-56.1-4.1-103,3.3-103,37c0,17.1,14.2,32.5,39.9,32.5    C3301.7,325.9,3324.5,312.9,3338.7,293.3"
   id="path25" />
	</g>
	<g
   id="g87">
		
			<linearGradient
   id="Plinth_1_"
   gradientUnits="userSpaceOnUse"
   x1="1456.6582"
   y1="198"
   x2="1456.6582"
   y2="698"
   gradientTransform="matrix(1 0 0 1 0 -198)">
			<stop
   offset="0.4"
   style="stop-color:#FF0000"
   id="stop29" />
			<stop
   offset="1"
   style="stop-color:#D42321"
   id="stop31" />
		</linearGradient>
		<path
   id="Plinth"
   fill="url(#Plinth_1_)"
   d="M832.1,0h1249.2c18.4,0,33.3,14.9,33.3,33.3v433.4c0,18.4-14.9,33.3-33.3,33.3H832.1    c-18.4,0-33.3-14.9-33.3-33.3V33.3C798.8,14.9,813.7,0,832.1,0z" />
		
			<linearGradient
   id="p40_1_"
   gradientUnits="userSpaceOnUse"
   x1="1459.4656"
   y1="431.7283"
   x2="1450.7686"
   y2="182.6746"
   gradientTransform="matrix(1 0 0 1 0 -198)">
			<stop
   offset="0"
   style="stop-color:#FFFFFF"
   id="stop35" />
			<stop
   offset="0.1203"
   style="stop-color:#FFFFFF;stop-opacity:0.8347"
   id="stop37" />
			<stop
   offset="0.2693"
   style="stop-color:#FFFFFF;stop-opacity:0.6576"
   id="stop39" />
			<stop
   offset="0.4195"
   style="stop-color:#FFFFFF;stop-opacity:0.5107"
   id="stop41" />
			<stop
   offset="0.5684"
   style="stop-color:#FFFFFF;stop-opacity:0.3965"
   id="stop43" />
			<stop
   offset="0.7156"
   style="stop-color:#FFFFFF;stop-opacity:0.3152"
   id="stop45" />
			<stop
   offset="0.8603"
   style="stop-color:#FFFFFF;stop-opacity:0.2664"
   id="stop47" />
			<stop
   offset="1"
   style="stop-color:#FFFFFF;stop-opacity:0.25"
   id="stop49" />
		</linearGradient>
		
		
			<linearGradient
   id="Sky_Logo_1_"
   gradientUnits="userSpaceOnUse"
   x1="361.9225"
   y1="226.8058"
   x2="361.9225"
   y2="669.2197"
   gradientTransform="matrix(1 0 0 1 0 -198)">
			<stop
   offset="0"
   style="stop-color:#002A91"
   id="stop53" />
			<stop
   offset="0.8"
   style="stop-color:#002672"
   id="stop55" />
		</linearGradient>
		<path
   id="Sky_Logo_2_"
   fill="url(#Sky_Logo_1_)"
   d="M499.6,464.1c10.5,4.6,21.8,7.1,33.2,7.1c26.1,0.6,40.4-9.4,50.9-32.8    l140.1-311.9c-9.1-4.1-19-6.4-29-6.7c-18.1-0.4-42.3,3.3-57.6,40.1l-45.3,106.8l-89-144.6c-9.8-2.6-19.9-4-30-4.2    c-31.5,0-49,11.5-67.2,31.3l-86.5,94.4L388.7,353c12.9,19.9,29.8,30.1,57.3,30.1c13.7,0.2,27.3-2.3,40-7.5l-83.8-126l59.4-62.9    L559,339.4L499.6,464.1z M315.9,346.2c0,23-9,36.2-54,36.2c-5.4,0-10.8-0.4-16.1-1.1V76.2c0-23.2,7.9-47.4,53.2-47.4    c5.7,0,11.4,0.6,16.9,1.7V346.2z M223.1,300.1c0,43-28.1,74.2-85.1,80.4c-41.3,4.4-101.1-0.8-129.5-4c-1-4.9-1.6-9.9-1.7-15    c0-37.4,20.2-46,39.2-46c19.8,0,50.9,3.5,74,3.5c25.5,0,33.2-8.6,33.2-16.9c0-10.7-10.2-15.2-30-19L69,272.7    c-45-8.6-69-39.7-69-72.7c0-40.1,28.4-73.6,84.3-79.8c42.3-4.6,93.8,0.6,122,4c1,4.7,1.5,9.5,1.5,14.4c0,37.4-19.8,45.5-38.8,45.5    c-14.6,0-37.3-2.7-63.2-2.7c-26.3,0-37.3,7.3-37.3,16.1c0,9.4,10.4,13.2,26.9,16.1l51.7,9.6C200.2,232.9,223.1,263.1,223.1,300.1z    "
   style="fill:#ffffff" />
		
			<linearGradient
   id="s25_1_"
   gradientUnits="userSpaceOnUse"
   x1="365.4495"
   y1="461.2478"
   x2="359.6001"
   y2="293.7514"
   gradientTransform="matrix(1 0 0 1 0 -198)">
			<stop
   offset="0"
   style="stop-color:#FFFFFF"
   id="stop59" />
			<stop
   offset="0.1203"
   style="stop-color:#FFFFFF;stop-opacity:0.8347"
   id="stop61" />
			<stop
   offset="0.2693"
   style="stop-color:#FFFFFF;stop-opacity:0.6576"
   id="stop63" />
			<stop
   offset="0.4195"
   style="stop-color:#FFFFFF;stop-opacity:0.5107"
   id="stop65" />
			<stop
   offset="0.5684"
   style="stop-color:#FFFFFF;stop-opacity:0.3965"
   id="stop67" />
			<stop
   offset="0.7156"
   style="stop-color:#FFFFFF;stop-opacity:0.3152"
   id="stop69" />
			<stop
   offset="0.8603"
   style="stop-color:#FFFFFF;stop-opacity:0.2664"
   id="stop71" />
			<stop
   offset="1"
   style="stop-color:#FFFFFF;stop-opacity:0.25"
   id="stop73" />
		</linearGradient>
		
		<path
   fill="#FFFFFF"
   d="M894.4,359.3c-3-20.6,3.4-31.4,15.2-31.4c11.2,0,38.7,12.3,77,12.3c40.3,0,55.5-14.3,55.5-32.9    c0-13.2-5.9-25-42.2-34.9l-41.7-11.2c-46.1-12.3-64.3-35.4-64.3-63.9c0-35.3,28-66.8,91.3-66.8c28.5,0,63.9,6.4,85.4,14.8    c3.9,20.1-2.5,30.9-14.7,30.9c-10.8,0-35.3-10.3-70.2-10.3c-37.3,0-51.1,12.7-51.1,29.4c0,11.7,5.4,22.6,38.8,31.9l42.7,11.8    c47.7,13.2,66.8,35.3,66.8,66.7c0,36.9-28.5,69.7-97.2,69.7C955.3,375.5,917.4,368.1,894.4,359.3"
   id="path77" />
		<path
   fill="#FFFFFF"
   d="M1365.6,252.8c0,77-54,122.7-113.4,122.7c-35.3,0-64.3-16.7-81.5-40.2v99.2c0,9.3-5.4,15.2-21.1,15.2    c-7.9,0-15.2-1-19.1-1.9V135c3.9-1,11.2-2,19.1-2c15.7,0,21.1,5.9,21.1,15.2v22.5c17.2-23.5,46.2-40.2,81.5-40.2    C1311.6,130.5,1365.6,176.2,1365.6,252.8 M1324.9,252.8c0-51.5-34.3-86.9-80.5-86.9c-31.4,0-60.4,18.2-73.6,44.7v84.9    c13.2,26.5,42.2,44.7,73.6,44.7C1290.5,340.1,1324.9,304.8,1324.9,252.8"
   id="path79" />
		<path
   fill="#FFFFFF"
   d="M1403.3,252.8c0-70.2,51.5-122.2,120.7-122.2c69.7,0,121.2,52,121.2,122.2c0,69.7-51.5,122.7-121.2,122.7    C1454.8,375.4,1403.3,322.4,1403.3,252.8 M1604.5,252.8c0-54-36.4-86.9-80.5-86.9c-43.6,0-80,32.9-80,86.9    c0,53.5,36.4,87.3,80,87.3C1568.1,340.1,1604.5,306.3,1604.5,252.8"
   id="path81" />
		<path
   fill="#FFFFFF"
   d="M1839.8,152.6c0,16.2-6.8,19.6-23.6,19.6c-33.8,0-62.3,15.7-80,52.5v133.1c0,9.8-5.4,15.2-21.6,15.2    c-6.9,0-14.8-1-18.7-1.9V134.9c3.9-1,11.7-1.9,18.7-1.9c16.1,0,21.6,5.9,21.6,15.2v32.9c23-34.9,57.9-52.5,101.6-46.6    C1838.3,137.9,1839.8,145.3,1839.8,152.6"
   id="path83" />
		<path
   fill="#FFFFFF"
   d="M2016.3,359.3c-20.6,9.8-44.2,16.2-67.7,16.2c-46.6,0-74.6-27.5-74.6-73.1V99.7c0-10.3,5.9-17.2,21.6-17.2    c6.8,0,14.7,1.4,18.7,2.5v51h91.7c0.5,3.4,1.5,10.3,1.5,16.2c0,14.2-5.9,19.1-14.7,19.1h-78.5v128.2c0,27.4,12.7,40.7,38.7,40.7    c23.6,0,36.8-10.3,48.1-10.3C2012.9,329.8,2018.8,339.6,2016.3,359.3"
   id="path85" />
	</g>
</g>
</svg>
