<svg xmlns="http://www.w3.org/2000/svg" height="160" width="1404.013" xml:space="preserve"><defs><clipPath id="e" clipPathUnits="userSpaceOnUse"><path d="M0 120h1053.009V0H0z"/></clipPath><clipPath id="h" clipPathUnits="userSpaceOnUse"><path d="M0 120h1053.009V0H0z"/></clipPath><clipPath id="i" clipPathUnits="userSpaceOnUse"><path d="M191.659 120h398.548V54.245H191.659z"/></clipPath><clipPath id="j" clipPathUnits="userSpaceOnUse"><path d="M197.417 60.462c.006 0 .262.022.757.04 23.661.841 386.056 13.48 386.056 13.48 3.01.107 5.973 2.338 5.974 6.078l.003 31.94a8 8 0 0 1-8 8H199.659a8 8 0 0 1-8-8V54.245c-.006.633.188 5.686 5.758 6.217"/></clipPath><clipPath id="a" clipPathUnits="userSpaceOnUse"><path d="M-32768 32767h65535v-65535h-65535z"/></clipPath><clipPath id="f" clipPathUnits="userSpaceOnUse"><path d="M199.66 120a8 8 0 0 1-8-8V8a8 8 0 0 1 8-8h382.547a8 8 0 0 1 8 8v104a8 8 0 0 1-8 8z"/></clipPath><clipPath id="m" clipPathUnits="userSpaceOnUse"><path d="M0 113.075h173.7V45.869H0z"/></clipPath><clipPath id="n" clipPathUnits="userSpaceOnUse"><path d="m35.32 66.446-12.404 2.302c-3.965.691-6.455 1.612-6.455 3.867 0 2.116 2.628 3.866 8.945 3.866 6.225 0 11.666-.645 15.17-.645 4.565 0 9.314 1.935 9.314 10.91 0 1.196-.138 2.302-.368 3.452-6.779.828-19.136 2.071-29.28.966C6.824 89.691 0 81.636 0 72.016c0-4.941 2.246-9.702 6.557-13.087 3.277-2.148 6.601-2.98 9.957-3.558 2.755-.474 9.136-.901 13.876-.728 1.47.054 12.419.437 14.798.517 5.549.187 8.556-4.547 8.247-9.29l.016.19.005.055c.051.614.077 1.239.077 1.874 0 8.883-5.487 16.111-18.213 18.457m36.409 46.629c-10.881 0-12.771-5.801-12.771-11.371V51.546c0 2.016 1.553 4.149 4.145 4.239l8.424.295c1.66.058 4.226 1.186 4.262 4.279v52.301a19.544 19.544 0 0 1-4.06.415m69.738-56.171-20.792 33.8c-1.384.416-4.751 1.012-7.194 1.012-7.562 0-11.757-2.761-16.138-7.501L76.594 61.566l1.657-2.604c.707-.968 2.129-2.573 4.908-2.476.986.035 11.01.384 11.828.414 2.594.092 4.237-1.022 5.24-2.346l-.003.004-3.711 5.583 14.248 15.096 9.571-15.001h.001c1.738-2.261 4.339-2.3 4.894-2.281l13.6.475c.871.03 1.879-.449 2.64-1.526M173.7 89.645l-12.305-27.398c-.358-.741-1.727-3.089-5.128-3.208l-11.242-.393c-2.048-.071-2.718-2.006-2.742-2.04l.004.014 10.618 25.016c3.689 8.837 9.499 9.712 13.832 9.621 2.491-.047 5.58-.875 6.963-1.612"/></clipPath><clipPath id="c" clipPathUnits="userSpaceOnUse"><path d="M-32768 32767h65535v-65535h-65535z"/></clipPath><linearGradient id="l" spreadMethod="pad" gradientTransform="scale(-59.79735 59.79735) rotate(88 -3.84 -2.844)" gradientUnits="userSpaceOnUse" y2="0" x2="1" y1="0" x1="0"><stop offset="0" style="stop-opacity:1;stop-color:#fff"/><stop offset=".515" style="stop-opacity:1;stop-color:#fff"/><stop offset="1" style="stop-opacity:1;stop-color:#fff"/></linearGradient><linearGradient id="g" spreadMethod="pad" gradientTransform="matrix(398.54807 0 0 -398.54807 191.66 60)" gradientUnits="userSpaceOnUse" y2="0" x2="1" y1="0" x1="0"><stop offset="0" style="stop-opacity:1;stop-color:#ff0031"/><stop offset="1" style="stop-opacity:1;stop-color:#9b001f"/></linearGradient><linearGradient id="b" spreadMethod="pad" gradientTransform="scale(-59.79735 59.79735) rotate(88 -3.84 -2.844)" gradientUnits="userSpaceOnUse" y2="0" x2="1" y1="0" x1="0"><stop offset="0" style="stop-opacity:1;stop-color:#fff"/><stop offset=".515" style="stop-opacity:.25000381;stop-color:#fff"/><stop offset="1" style="stop-opacity:.25000381;stop-color:#fff"/></linearGradient><linearGradient id="p" spreadMethod="pad" gradientTransform="scale(-40.21564 40.21564) rotate(88 -1.822 -.422)" gradientUnits="userSpaceOnUse" y2="0" x2="1" y1="0" x1="0"><stop offset="0" style="stop-opacity:1;stop-color:#fff"/><stop offset=".515" style="stop-opacity:1;stop-color:#fff"/><stop offset="1" style="stop-opacity:1;stop-color:#fff"/></linearGradient><linearGradient id="d" spreadMethod="pad" gradientTransform="scale(-40.21564 40.21564) rotate(88 -1.822 -.422)" gradientUnits="userSpaceOnUse" y2="0" x2="1" y1="0" x1="0"><stop offset="0" style="stop-opacity:1;stop-color:#fff"/><stop offset=".515" style="stop-opacity:.25000381;stop-color:#fff"/><stop offset="1" style="stop-opacity:.25000381;stop-color:#fff"/></linearGradient><mask id="o" height="1" width="1" y="0" x="0" maskUnits="userSpaceOnUse"><g clip-path="url(#c)"><path style="fill:url(#d);stroke:none" d="M-32768 32767h65535v-65535h-65535z"/></g></mask><mask id="k" height="1" width="1" y="0" x="0" maskUnits="userSpaceOnUse"><g clip-path="url(#a)"><path style="fill:url(#b);stroke:none" d="M-32768 32767h65535v-65535h-65535z"/></g></mask></defs><g clip-path="url(#e)" transform="matrix(1.33333 0 0 -1.33333 0 160)"><path style="fill:#fff;fill-opacity:1;fill-rule:nonzero;stroke:none" d="M0 0h-465.656a7.993 7.993 0 0 0-7.993 7.994v104.011a7.993 7.993 0 0 0 7.993 7.994H0a7.994 7.994 0 0 0 7.994-7.994V7.994A7.994 7.994 0 0 0 0 0" transform="translate(1045.015 .001)"/><path style="fill:#b2002b;fill-opacity:1;fill-rule:nonzero;stroke:none" d="M0 0v-44.336c0-1.953-.977-3.027-4.004-3.027-1.367 0-2.637.195-3.613.39v20.411H-32.91v-17.774c0-1.953-.977-3.027-4.004-3.027-1.465 0-2.93.195-3.613.39v44.336c0 1.856.976 3.028 4.101 3.028 1.367 0 2.735-.196 3.516-.391v-19.727h25.195v17.09c0 1.856 1.074 3.028 4.199 3.028C-2.148.391-.781.195 0 0" transform="translate(976.246 83.096)"/><path style="fill:#b2002b;fill-opacity:1;fill-rule:nonzero;stroke:none" d="M0 0c0 9.961-6.25 16.406-16.113 16.406h-9.961v-32.91h9.961C-6.25-16.504 0-10.059 0 0m7.715 0c0-13.281-9.277-23.34-23.828-23.34h-13.574c-2.93 0-4.004 1.172-4.004 3.028v40.527c0 1.855 1.074 3.027 4.004 3.027h13.574C-1.562 23.242 7.715 13.281 7.715 0" transform="translate(1020.415 59.658)"/><path style="fill:#b2002b;fill-opacity:1;fill-rule:nonzero;stroke:none" d="M0 0a1.6 1.6 0 0 0-1.601 1.6v86.386a1.6 1.6 0 0 0 3.202 0V1.6A1.6 1.6 0 0 0 0 0" transform="translate(908.398 15.207)"/><path style="fill:#b2002b;fill-opacity:1;fill-rule:nonzero;stroke:none" d="M0 0c-4.102-1.953-8.789-3.223-13.477-3.223-9.277 0-14.843 5.469-14.843 14.551V51.66c0 2.051 1.172 3.418 4.297 3.418 1.367 0 2.929-.293 3.711-.488V44.434h18.261c.098-.684.293-2.051.293-3.223 0-2.832-1.172-3.809-2.929-3.809h-15.625V11.914c0-5.469 2.539-8.105 7.714-8.105 4.688 0 7.325 2.05 9.571 2.05C-.684 5.859.488 3.906 0 0" transform="translate(644.256 38.269)"/><path style="fill:#b2002b;fill-opacity:1;fill-rule:nonzero;stroke:none" d="M0 0v-25.293c0-1.855-1.074-3.027-4.297-3.027-1.367 0-2.93.195-3.711.39v26.856c0 9.375-4.59 13.867-11.523 13.867-5.371 0-11.231-3.711-13.574-8.106v-29.98c0-1.953-1.075-3.027-4.297-3.027-1.368 0-2.93.195-3.711.39v60.743c0 1.855 1.074 3.027 4.297 3.027 1.367 0 2.929-.195 3.711-.391V12.5c3.418 4.102 8.496 7.422 15.625 7.422C-7.91 19.922 0 13.867 0 0" transform="translate(692.652 63.855)"/><path style="fill:#b2002b;fill-opacity:1;fill-rule:nonzero;stroke:none" d="M0 0c0-3.223-1.367-3.906-4.687-3.906-6.739 0-12.403-3.125-15.918-10.449V-40.82c0-1.953-1.075-3.028-4.297-3.028-1.368 0-2.93.196-3.711.391V3.516c.781.195 2.343.39 3.711.39 3.222 0 4.297-1.172 4.297-3.027v-6.543C-16.016 1.27-9.082 4.785-.391 3.613-.293 2.93 0 1.465 0 0" transform="translate(733.577 79.382)"/><path style="fill:#b2002b;fill-opacity:1;fill-rule:nonzero;stroke:none" d="M0 0v44.336c0 1.855 1.074 3.027 4.297 3.027 1.367 0 2.832-.195 3.613-.39V2.637c0-1.953-.976-3.028-4.199-3.028C2.344-.391.781-.195 0 0m-1.074 57.617c0 2.93 2.344 5.078 5.078 5.078 2.93 0 5.176-2.148 5.176-5.078 0-2.637-2.246-5.078-5.176-5.078-2.734 0-5.078 2.441-5.078 5.078" transform="translate(740.51 35.925)"/><path style="fill:#b2002b;fill-opacity:1;fill-rule:nonzero;stroke:none" d="M0 0v60.742c0 1.856 1.074 3.028 4.297 3.028 1.367 0 2.93-.196 3.711-.391V2.637c0-1.953-1.074-3.028-4.297-3.028C2.344-.391.781-.195 0 0" transform="translate(761.026 35.925)"/><path style="fill:#b2002b;fill-opacity:1;fill-rule:nonzero;stroke:none" d="M0 0v60.742c0 1.856 1.074 3.028 4.297 3.028 1.367 0 2.93-.196 3.711-.391V2.637c0-1.953-1.074-3.028-4.297-3.028C2.344-.391.781-.195 0 0" transform="translate(781.59 35.925)"/><path style="fill:#b2002b;fill-opacity:1;fill-rule:nonzero;stroke:none" d="M0 0h28.809c-.293 8.008-5.469 14.258-13.77 14.258C7.812 14.258 1.27 9.277 0 0m36.328-6.25H0c1.074-9.082 7.324-14.16 16.602-14.16 4.003 0 7.128.781 10.058 1.758 2.051.683 2.93.976 3.711.976 2.246 0 3.711-1.855 3.32-6.152-4.199-1.856-10.644-3.906-17.382-3.906-14.649 0-24.512 9.863-24.512 24.511 0 14.063 10.449 24.219 23.242 24.219 14.453 0 21.582-11.23 21.582-22.558 0-1.368-.098-3.028-.293-4.688" transform="translate(807.84 62.78)"/><path style="fill:#b2002b;fill-opacity:1;fill-rule:nonzero;stroke:none" d="M0 0c0-3.223-1.367-3.906-4.687-3.906-6.739 0-12.403-3.125-15.918-10.449V-40.82c0-1.953-1.075-3.028-4.297-3.028-1.368 0-2.93.196-3.711.391V3.516c.781.195 2.343.39 3.711.39 3.222 0 4.297-1.172 4.297-3.027v-6.543C-16.016 1.27-9.082 4.785-.391 3.613-.293 2.93 0 1.465 0 0" transform="translate(883.092 79.382)"/></g><g clip-path="url(#f)" transform="matrix(1.33333 0 0 -1.33333 0 160)"><path style="fill:url(#g);stroke:none" d="M199.66 120a8 8 0 0 1-8-8V8a8 8 0 0 1 8-8h382.547a8 8 0 0 1 8 8v104a8 8 0 0 1-8 8z"/></g><g clip-path="url(#h)" transform="matrix(1.33333 0 0 -1.33333 0 160)"><g clip-path="url(#i)"><g clip-path="url(#j)" style="opacity:.30000299"><g mask="url(#k)"><path style="fill:url(#l);stroke:none" d="M197.417 60.462c.006 0 .262.022.757.04 23.661.841 386.056 13.48 386.056 13.48 3.01.107 5.973 2.338 5.974 6.078l.003 31.94a8 8 0 0 1-8 8H199.659a8 8 0 0 1-8-8V54.245c-.006.633.188 5.686 5.758 6.217"/></g></g></g><path style="fill:#ff0031;fill-opacity:1;fill-rule:nonzero;stroke:none" d="M0 0c0-10.31-6.733-17.813-20.427-19.288-9.913-1.058-24.254.185-31.078.969-.23 1.103-.414 2.484-.414 3.589 0 8.976 4.841 11.047 9.405 11.047 4.75 0 12.22-.828 17.753-.828 6.132 0 7.977 2.071 7.977 4.049 0 2.579-2.445 3.637-7.193 4.559L-36.98 6.583c-10.791 2.07-16.554 9.527-16.554 17.443 0 9.62 6.825 17.676 20.242 19.148 10.144 1.106 22.501-.137 29.28-.966.23-1.149.368-2.255.368-3.452 0-8.975-4.749-10.909-9.314-10.909-3.504 0-8.944.645-15.169.645-6.317 0-8.946-1.75-8.946-3.866 0-2.255 2.49-3.176 6.455-3.867l12.404-2.302C-5.488 16.11 0 8.883 0 0m22.255-11.047c0-5.523-2.169-8.7-12.958-8.7a25.38 25.38 0 0 0-3.872.275v73.187c0 5.57 1.889 11.371 12.771 11.371 1.383 0 2.766-.138 4.059-.416zm44.101-28.309c1.43-.735 4.334-1.61 7.977-1.703 6.271-.137 9.684 2.255 12.22 7.872l33.614 74.842c-1.384.738-4.473 1.566-6.963 1.613-4.334.09-10.144-.784-13.833-9.622L88.49 8.009 67.141 42.715c-1.383.415-4.75 1.012-7.194 1.012-7.561 0-11.757-2.761-16.138-7.501L23.061 13.577l16.69-26.236c3.09-4.786 7.147-7.225 13.743-7.225 4.334 0 7.929 1.011 9.589 1.793L42.979 12.152l14.248 15.096L80.604-9.391z" transform="translate(53.534 47.99)"/><g clip-path="url(#m)"><g clip-path="url(#n)" style="opacity:.30000299"><g mask="url(#o)"><path style="fill:url(#p);stroke:none" d="m35.32 66.446-12.404 2.302c-3.965.691-6.455 1.612-6.455 3.867 0 2.116 2.628 3.866 8.945 3.866 6.225 0 11.666-.645 15.17-.645 4.565 0 9.314 1.935 9.314 10.91 0 1.196-.138 2.302-.368 3.452-6.779.828-19.136 2.071-29.28.966C6.824 89.691 0 81.636 0 72.016c0-4.941 2.246-9.702 6.557-13.087 3.277-2.148 6.601-2.98 9.957-3.558 2.755-.474 9.136-.901 13.876-.728 1.47.054 12.419.437 14.798.517 5.549.187 8.556-4.547 8.247-9.29l.016.19.005.055c.051.614.077 1.239.077 1.874 0 8.883-5.487 16.111-18.213 18.457m36.409 46.629c-10.881 0-12.771-5.801-12.771-11.371V51.546c0 2.016 1.553 4.149 4.145 4.239l8.424.295c1.66.058 4.226 1.186 4.262 4.279v52.301a19.544 19.544 0 0 1-4.06.415m69.738-56.171-20.792 33.8c-1.384.416-4.751 1.012-7.194 1.012-7.562 0-11.757-2.761-16.138-7.501L76.594 61.566l1.657-2.604c.707-.968 2.129-2.573 4.908-2.476.986.035 11.01.384 11.828.414 2.594.092 4.237-1.022 5.24-2.346l-.003.004-3.711 5.583 14.248 15.096 9.571-15.001h.001c1.738-2.261 4.339-2.3 4.894-2.281l13.6.475c.871.03 1.879-.449 2.64-1.526M173.7 89.645l-12.305-27.398c-.358-.741-1.727-3.089-5.128-3.208l-11.242-.393c-2.048-.071-2.718-2.006-2.742-2.04l.004.014 10.618 25.016c3.689 8.837 9.499 9.712 13.832 9.621 2.491-.047 5.58-.875 6.963-1.612"/></g></g></g><path style="fill:#fff;fill-opacity:1;fill-rule:nonzero;stroke:none" d="M0 0c0 16.846 12.369 29.332 28.743 29.332 7.657 0 14.725-2.12 19.672-4.477.825-5.3-.824-7.42-3.181-7.42-4.123 0-7.656 3.416-16.137 3.416-10.603 0-19.32-7.893-19.32-20.851 0-12.84 8.717-20.85 19.32-20.85 8.481 0 12.014 3.534 15.784 3.534 2.474 0 4.241-2.238 3.534-7.539-4.947-2.474-12.015-4.594-19.672-4.594C12.369-29.449 0-16.727 0 0" transform="translate(214.205 59.342)"/><path style="fill:#fff;fill-opacity:1;fill-rule:nonzero;stroke:none" d="M0 0v53.48c0 2.238 1.296 3.652 5.184 3.652 1.648 0 3.416-.236 4.358-.472V3.181c0-2.357-1.178-3.653-5.065-3.653C2.827-.472.942-.236 0 0m-1.296 69.5c0 3.534 2.827 6.126 6.126 6.126 3.534 0 6.243-2.592 6.243-6.126 0-3.18-2.709-6.125-6.243-6.125-3.299 0-6.126 2.945-6.126 6.125" transform="translate(273.634 30.953)"/><path style="fill:#fff;fill-opacity:1;fill-rule:nonzero;stroke:none" d="M0 0v-30.509c0-2.238-1.295-3.652-5.183-3.652-1.649 0-3.534.235-4.476.472v32.394c0 11.309-5.536 16.727-13.901 16.727-6.478 0-13.545-4.476-16.374-9.778v-36.163c0-2.238-1.295-3.652-5.182-3.652-1.65 0-3.534.235-4.477.472v56.66c.943.236 2.827.471 4.477.471 3.887 0 5.182-1.414 5.182-3.651v-4.83c4.123 5.065 10.368 9.07 18.731 9.07C-9.659 24.031 0 16.728 0 0" transform="translate(347.976 64.643)"/><path style="fill:#fff;fill-opacity:1;fill-rule:nonzero;stroke:none" d="M0 0h34.75c-.354 9.659-6.597 17.198-16.609 17.198C9.424 17.198 1.531 11.19 0 0m43.82-7.539H0C1.295-18.494 8.834-24.62 20.025-24.62c4.829 0 8.599.942 12.133 2.12 2.474.825 3.534 1.178 4.477 1.178 2.709 0 4.476-2.238 4.005-7.421-5.066-2.238-12.84-4.712-20.968-4.712-17.67 0-29.568 11.897-29.568 29.567 0 16.963 12.605 29.214 28.037 29.214 17.433 0 26.033-13.547 26.033-27.211 0-1.649-.118-3.652-.354-5.654" transform="translate(369.416 63.348)"/><g><path style="fill:#fff;fill-opacity:1;fill-rule:nonzero;stroke:none" d="M0 0v-34.043c0-2.356-1.296-3.652-5.184-3.652-1.649 0-3.534.235-4.475.471v36.046c0 8.246-3.888 13.075-11.309 13.075-6.244 0-11.427-4.358-13.547-8.834v-37.106c0-2.356-1.296-3.652-5.183-3.652-1.65 0-3.534.235-4.477.471v36.046c0 8.246-3.887 13.075-11.308 13.075-6.244 0-11.426-4.358-13.547-8.834v-37.106c0-2.356-1.295-3.652-5.183-3.652-1.649 0-3.534.235-4.476.471v56.661c.942.236 2.827.471 4.594.471 3.652 0 4.948-1.414 4.948-3.887v-3.887c3.651 4.829 9.305 8.363 16.138 8.363 7.539 0 13.429-3.769 16.373-10.248 3.888 5.89 9.778 10.248 18.142 10.248C-6.361 20.497 0 11.427 0 0" transform="translate(504.366 68.177)"/></g><g><path style="fill:#fff;fill-opacity:1;fill-rule:nonzero;stroke:none" d="M0 0v10.72C-16.257 11.897-29.803 9.777-29.803 0c0-4.947 4.122-9.424 11.544-9.424C-10.72-9.424-4.123-5.654 0 0m9.659 19.79v-36.281c-.942-.237-2.709-.472-4.358-.472-3.534 0-5.184 1.296-5.184 3.652v4.948c-5.065-5.773-11.661-9.189-20.025-9.189-12.605 0-19.555 8.246-19.555 17.198 0 13.666 14.608 19.673 39.463 18.024v2.003c0 9.306-2.827 13.193-13.547 13.193-4.476 0-10.484-1.296-13.665-2.121-1.885-.471-3.298-.942-4.475-.942-2.71 0-4.477 2.356-3.535 7.303 5.772 2.121 14.136 4.123 22.146 4.123 16.61 0 22.735-7.42 22.735-21.439" transform="translate(554.83 47.444)"/></g></g></svg>