<?xml version="1.0" encoding="UTF-8"?>
<!DOCTYPE svg PUBLIC "-//W3C//DTD SVG 1.1//EN" "http://www.w3.org/Graphics/SVG/1.1/DTD/svg11.dtd">
<svg xmlns="http://www.w3.org/2000/svg" version="1.1" width="782px" height="120px" style="shape-rendering:geometricPrecision; text-rendering:geometricPrecision; image-rendering:optimizeQuality; fill-rule:evenodd; clip-rule:evenodd" xmlns:xlink="http://www.w3.org/1999/xlink">
<g><path style="opacity:1" fill="#454b7c" d="M 630.5,-0.5 C 679.5,-0.5 728.5,-0.5 777.5,-0.5C 778.167,0.833333 779.167,1.83333 780.5,2.5C 780.5,3.16667 780.5,3.83333 780.5,4.5C 779.604,3.49367 778.938,3.49367 778.5,4.5C 777.711,4.21719 777.044,3.71719 776.5,3C 729.168,2.50001 681.835,2.33334 634.5,2.5C 633.128,1.48837 631.795,0.488369 630.5,-0.5 Z"/></g>
<g><path style="opacity:1" fill="#e39215" d="M 195.5,-0.5 C 340.5,-0.5 485.5,-0.5 630.5,-0.5C 631.795,0.488369 633.128,1.48837 634.5,2.5C 635.427,9.44304 635.76,16.443 635.5,23.5C 633.862,19.1243 633.029,14.4576 633,9.5C 632.583,8.24402 631.75,7.57735 630.5,7.5C 629.657,5.82665 628.324,4.65999 626.5,4C 484.833,3.33333 343.167,3.33333 201.5,4C 200.016,4.66218 198.683,5.49551 197.5,6.5C 196.883,6.61071 196.383,6.94404 196,7.5C 194.486,22.6413 192.986,37.6413 191.5,52.5C 191.333,36.4965 191.5,20.4965 192,4.5C 192.997,2.67694 194.164,1.01027 195.5,-0.5 Z"/></g>
<g><path style="opacity:1" fill="#fdfdfd" d="M 634.5,2.5 C 681.835,2.33334 729.168,2.50001 776.5,3C 777.044,3.71719 777.711,4.21719 778.5,4.5C 778.667,41.1682 778.5,77.8348 778,114.5C 777.167,115.333 776.333,116.167 775.5,117C 728.168,117.5 680.835,117.667 633.5,117.5C 633.987,116.527 634.487,115.527 635,114.5C 635.5,104.839 635.666,95.1724 635.5,85.5C 635.5,76.5 635.5,67.5 635.5,58.5C 635.5,52.5 635.5,46.5 635.5,40.5C 635.5,34.8333 635.5,29.1667 635.5,23.5C 635.76,16.443 635.427,9.44304 634.5,2.5 Z"/></g>
<g><path style="opacity:1" fill="#fad513" d="M 630.5,7.5 C 631.479,19.4197 631.812,31.4197 631.5,43.5C 631.5,65.5 631.5,87.5 631.5,109.5C 630.559,111.772 629.226,113.772 627.5,115.5C 484.763,115.832 342.097,115.498 199.5,114.5C 198.488,113.128 197.488,111.795 196.5,110.5C 196.18,75.7901 196.514,41.1234 197.5,6.5C 198.683,5.49551 200.016,4.66218 201.5,4C 343.167,3.33333 484.833,3.33333 626.5,4C 628.324,4.65999 629.657,5.82665 630.5,7.5 Z"/></g>
<g><path style="opacity:0.949" fill="#ec6f18" d="M 66.5,5.5 C 70.1064,5.21083 73.6064,5.54416 77,6.5C 77.3333,22.5 77.6667,38.5 78,54.5C 85.1667,46.6667 92.3333,38.8333 99.5,31C 101.888,29.1395 104.554,27.8061 107.5,27C 111.67,26.6753 115.67,26.5086 119.5,26.5C 121.472,27.3052 122.972,28.6385 124,30.5C 130,40.5 136,50.5 142,60.5C 146.192,49.953 151.025,39.7864 156.5,30C 158.94,28.6966 161.44,27.53 164,26.5C 165.667,27.8333 167.333,27.8333 169,26.5C 171.6,26.9177 173.767,28.0844 175.5,30C 163.736,57.0269 151.569,83.8603 139,110.5C 138.097,111.701 136.931,112.535 135.5,113C 130.249,113.804 125.082,113.637 120,112.5C 119.333,111.167 119.333,109.833 120,108.5C 124.169,99.4949 128.336,90.4949 132.5,81.5C 125.666,69.8284 118.332,58.495 110.5,47.5C 106.71,51.7918 102.71,55.9585 98.5,60C 104.333,68.5 110.167,77 116,85.5C 117.128,87.3453 117.628,89.3453 117.5,91.5C 110.288,93.2706 103.288,92.7706 96.5,90C 89.9416,81.1062 83.7749,71.9395 78,62.5C 77.9421,71.2684 77.2755,79.935 76,88.5C 74.6811,90.4875 72.8477,91.6541 70.5,92C 66.2452,92.7961 62.0785,92.6295 58,91.5C 57.3333,66.1667 57.3333,40.8333 58,15.5C 58.565,10.1103 61.3984,6.77693 66.5,5.5 Z"/></g>
<g><path style="opacity:1" fill="#eb6e18" d="M 201.5,7.5 C 343.167,7.33333 484.834,7.5 626.5,8C 627.829,42.4334 627.829,76.9334 626.5,111.5C 485.207,112.665 343.873,112.832 202.5,112C 201.174,94.8855 200.507,77.5522 200.5,60C 200.507,42.4279 200.84,24.9279 201.5,7.5 Z"/></g>
<g><path style="opacity:1" fill="#1e255f" d="M 537.5,47.5 C 537.5,36.1667 537.5,24.8333 537.5,13.5C 540.342,10.0985 543.508,9.76513 547,12.5C 547.056,38.164 546.889,63.8306 546.5,89.5C 543.315,89.9804 540.481,89.3137 538,87.5C 537.5,74.1708 537.333,60.8375 537.5,47.5 Z"/></g>
<g><path style="opacity:1" fill="#774841" d="M 537.5,13.5 C 537.5,24.8333 537.5,36.1667 537.5,47.5C 536.833,45.1667 536.167,42.8333 535.5,40.5C 535.5,39.5 535.5,38.5 535.5,37.5C 536.167,29.5 536.833,21.5 537.5,13.5 Z"/></g>
<g><path style="opacity:0.962" fill="#e86f1e" d="M -0.5,-0.5 C -0.166667,-0.5 0.166667,-0.5 0.5,-0.5C 0.333449,12.1711 0.500115,24.8377 1,37.5C 5.06355,31.8771 10.5636,28.3771 17.5,27C 26.1667,26.3333 34.8333,26.3333 43.5,27C 50.5215,26.6825 53.0215,29.8492 51,36.5C 49.9736,42.9439 46.1403,45.9439 39.5,45.5C 33.5182,44.5249 27.5182,44.3583 21.5,45C 19.9559,45.2896 18.6226,45.9563 17.5,47C 20.277,48.2396 23.1104,49.4062 26,50.5C 35.8592,50.2384 44.5259,53.5717 52,60.5C 58.9763,77.5841 53.4763,88.0841 35.5,92C 23.8807,92.9444 12.3807,92.4444 1,90.5C 0.500198,100.161 0.333531,109.828 0.5,119.5C 0.166667,119.5 -0.166667,119.5 -0.5,119.5C -0.5,79.5 -0.5,39.5 -0.5,-0.5 Z M 0.5,56.5 C 3.0985,60.5851 6.76516,63.4185 11.5,65C 18.7995,66.7934 26.1329,68.46 33.5,70C 35.3937,71.0793 35.727,72.4126 34.5,74C 31.9253,74.958 29.2586,75.458 26.5,75.5C 19.8476,74.5563 13.181,74.3896 6.5,75C 3.57192,76.2598 1.73859,78.4265 1,81.5C 0.500266,73.1733 0.3336,64.84 0.5,56.5 Z"/></g>
<g><path style="opacity:1" fill="#24265d" d="M 292.5,30.5 C 309.667,28.6611 321.5,35.6611 328,51.5C 330.097,78.736 317.597,91.236 290.5,89C 287.833,87.6667 285.167,86.3333 282.5,85C 278.241,81.1653 278.574,77.9986 283.5,75.5C 291.961,82.1827 300.961,83.016 310.5,78C 319.188,69.3043 320.688,59.4709 315,48.5C 304.976,38.197 294.643,37.8637 284,47.5C 279.356,54.3697 278.523,61.703 281.5,69.5C 280.783,73.5246 278.45,75.0246 274.5,74C 272.789,72.5648 271.622,70.7314 271,68.5C 267.459,49.5859 274.626,36.9193 292.5,30.5 Z"/></g>
<g><path style="opacity:1" fill="#2a275c" d="M 348.5,35.5 C 348.5,38.1667 348.5,40.8333 348.5,43.5C 348.667,58.1705 348.5,72.8371 348,87.5C 345.096,89.2268 341.93,89.8935 338.5,89.5C 338.247,70.4934 338.081,51.4934 338,32.5C 342.87,29.1677 346.37,30.1677 348.5,35.5 Z"/></g>
<g><path style="opacity:1" fill="#23265e" d="M 350.5,41.5 C 349.167,39.8333 349.167,38.1667 350.5,36.5C 355.609,30.9081 361.943,29.0747 369.5,31C 378.358,34.1983 383.025,40.5316 383.5,50C 382.736,62.4834 382.236,74.9834 382,87.5C 379.519,89.3137 376.685,89.9804 373.5,89.5C 373.667,77.4954 373.5,65.4954 373,53.5C 371.278,41.2999 364.612,37.6333 353,42.5C 351.93,42.472 351.097,42.1386 350.5,41.5 Z"/></g>
<g><path style="opacity:1" fill="#27275d" d="M 392.5,30.5 C 407.468,28.9834 416.135,35.65 418.5,50.5C 417.705,62.8071 417.205,75.1404 417,87.5C 414.174,89.3398 411.007,90.0065 407.5,89.5C 407.667,77.1622 407.5,64.8288 407,52.5C 406.393,42.5628 401.226,38.7295 391.5,41C 388.725,43.9158 385.892,44.0824 383,41.5C 382.333,40.1667 382.333,38.8333 383,37.5C 385.79,34.535 388.957,32.2016 392.5,30.5 Z"/></g>
<g><path style="opacity:1" fill="#24265d" d="M 449.5,30.5 C 472.304,29.6384 482.971,40.6384 481.5,63.5C 467.817,63.8325 454.15,63.4992 440.5,62.5C 439.047,60.3561 439.38,58.5227 441.5,57C 451.494,56.5002 461.494,56.3335 471.5,56.5C 471.823,48.9807 468.49,43.814 461.5,41C 453.106,38.6482 446.272,40.8149 441,47.5C 436.411,56.4095 436.411,65.4095 441,74.5C 445.358,79.4266 450.858,81.7599 457.5,81.5C 463.047,80.405 468.547,79.0717 474,77.5C 477.465,79.22 478.298,81.8867 476.5,85.5C 465.35,90.175 454.017,90.675 442.5,87C 434.891,82.6371 430.058,76.1371 428,67.5C 424.922,48.9656 432.089,36.6322 449.5,30.5 Z"/></g>
<g><path style="opacity:1" fill="#24265d" d="M 535.5,37.5 C 535.5,38.5 535.5,39.5 535.5,40.5C 534.809,42.0222 533.642,43.0222 532,43.5C 518.749,37.2503 508.749,40.5837 502,53.5C 499.847,63.7411 502.68,72.2411 510.5,79C 517.732,82.3947 524.898,82.2281 532,78.5C 534.723,79.2084 535.723,80.8751 535,83.5C 532.592,85.9561 529.759,87.7894 526.5,89C 504.346,91.6824 492.679,81.8491 491.5,59.5C 491.761,45.0675 498.761,35.5675 512.5,31C 521.588,28.7598 529.255,30.9265 535.5,37.5 Z"/></g>
<g><path style="opacity:1" fill="#24265d" d="M 559.5,30.5 C 562.475,30.3069 564.975,31.3069 567,33.5C 571.77,45.7111 577.104,57.7111 583,69.5C 584.523,75.9784 582.189,78.3118 576,76.5C 569.861,62.8878 563.194,49.5545 556,36.5C 554.924,33.0943 556.09,31.0943 559.5,30.5 Z"/></g>
<g><path style="opacity:1" fill="#24265d" d="M 607.5,30.5 C 609.854,30.838 612.187,31.338 614.5,32C 615.517,33.0495 615.684,34.2161 615,35.5C 603.426,58.9833 592.093,82.65 581,106.5C 578.263,107.61 575.429,107.777 572.5,107C 571.724,105.23 571.89,103.397 573,101.5C 583.834,80.3228 593.501,58.6561 602,36.5C 603.36,33.9774 605.193,31.9774 607.5,30.5 Z"/></g>
<g><path style="opacity:1" fill="#f0a22d" d="M 630.5,7.5 C 631.75,7.57735 632.583,8.24402 633,9.5C 633.029,14.4576 633.862,19.1243 635.5,23.5C 635.5,29.1667 635.5,34.8333 635.5,40.5C 634.167,41.5 632.833,42.5 631.5,43.5C 631.812,31.4197 631.479,19.4197 630.5,7.5 Z"/></g>
<g><path style="opacity:1" fill="#78473f" d="M 348.5,35.5 C 349.167,35.8333 349.833,36.1667 350.5,36.5C 349.167,38.1667 349.167,39.8333 350.5,41.5C 349.833,42.1667 349.167,42.8333 348.5,43.5C 348.5,40.8333 348.5,38.1667 348.5,35.5 Z"/></g>
<g><path style="opacity:1" fill="#1a2561" d="M 669.5,37.5 C 669.5,44.1667 669.5,50.8333 669.5,57.5C 678.167,57.5 686.833,57.5 695.5,57.5C 695.5,51.1667 695.5,44.8333 695.5,38.5C 695.611,37.8826 695.944,37.3826 696.5,37C 698.473,36.5045 700.473,36.3379 702.5,36.5C 702.667,52.1702 702.5,67.8369 702,83.5C 699.959,84.4231 697.792,84.7564 695.5,84.5C 695.5,77.5 695.5,70.5 695.5,63.5C 686.833,63.5 678.167,63.5 669.5,63.5C 669.5,69.8333 669.5,76.1667 669.5,82.5C 669.389,83.1174 669.056,83.6174 668.5,84C 666.527,84.4955 664.527,84.6621 662.5,84.5C 662.333,68.8298 662.5,53.1631 663,37.5C 665.274,36.1888 667.44,36.1888 669.5,37.5 Z"/></g>
<g><path style="opacity:1" fill="#212a64" d="M 714.5,37.5 C 722.507,37.3336 730.507,37.5003 738.5,38C 755.077,45.6576 759.243,57.8242 751,74.5C 746.513,80.1097 740.68,83.2764 733.5,84C 727.5,84.6667 721.5,84.6667 715.5,84C 715,83.5 714.5,83 714,82.5C 713.184,67.4255 713.351,52.4255 714.5,37.5 Z"/></g>
<g><path style="opacity:1" fill="#4a4d67" d="M 780.5,-0.5 C 780.833,-0.5 781.167,-0.5 781.5,-0.5C 781.5,39.5 781.5,79.5 781.5,119.5C 781.167,119.5 780.833,119.5 780.5,119.5C 780.214,117.067 779.548,117.067 778.5,119.5C 777.5,119.5 776.5,119.5 775.5,119.5C 776.765,118.521 778.099,117.521 779.5,116.5C 780.5,79.1726 780.833,41.8393 780.5,4.5C 780.5,3.83333 780.5,3.16667 780.5,2.5C 780.5,1.5 780.5,0.5 780.5,-0.5 Z"/></g>
<g><path style="opacity:1" fill="#71789c" d="M 721.5,44.5 C 721.5,55.1667 721.5,65.8333 721.5,76.5C 725.5,76.5 729.5,76.5 733.5,76.5C 729.366,77.4849 725.032,77.8182 720.5,77.5C 720.172,66.3206 720.505,55.3206 721.5,44.5 Z"/></g>
<g><path style="opacity:1" fill="#fdfdfd" d="M 721.5,44.5 C 741.708,41.5356 749.541,49.8689 745,69.5C 742.524,73.9909 738.691,76.3243 733.5,76.5C 729.5,76.5 725.5,76.5 721.5,76.5C 721.5,65.8333 721.5,55.1667 721.5,44.5 Z"/></g>
<g><path style="opacity:1" fill="#70769c" d="M 669.5,37.5 C 670.49,43.6446 670.823,49.9779 670.5,56.5C 678.5,56.5 686.5,56.5 694.5,56.5C 694.177,50.31 694.51,44.31 695.5,38.5C 695.5,44.8333 695.5,51.1667 695.5,57.5C 686.833,57.5 678.167,57.5 669.5,57.5C 669.5,50.8333 669.5,44.1667 669.5,37.5 Z"/></g>
<g><path style="opacity:1" fill="#26265d" d="M 236.5,30.5 C 246.099,29.3971 255.099,31.0638 263.5,35.5C 265.252,39.9276 263.752,42.5942 259,43.5C 237.054,35.1154 225.721,42.4488 225,65.5C 227.99,77.2432 235.49,82.4098 247.5,81C 252.085,79.3594 256.751,78.3594 261.5,78C 264.708,81.959 264.041,84.959 259.5,87C 251.663,89.3831 243.663,90.0497 235.5,89C 224.048,85.214 217.215,77.3807 215,65.5C 213.048,48.0459 220.215,36.3792 236.5,30.5 Z"/></g>
<g><path style="opacity:1" fill="#ee9e22" d="M 197.5,6.5 C 196.514,41.1234 196.18,75.7901 196.5,110.5C 195.668,94.005 195.168,77.3384 195,60.5C 193.961,61.7101 192.794,62.7101 191.5,63.5C 191.5,59.8333 191.5,56.1667 191.5,52.5C 192.986,37.6413 194.486,22.6413 196,7.5C 196.383,6.94404 196.883,6.61071 197.5,6.5 Z"/></g>
<g><path style="opacity:1" fill="#a2a6bf" d="M 695.5,84.5 C 694.509,78.021 694.176,71.3543 694.5,64.5C 686.5,64.5 678.5,64.5 670.5,64.5C 670.823,70.69 670.49,76.69 669.5,82.5C 669.5,76.1667 669.5,69.8333 669.5,63.5C 678.167,63.5 686.833,63.5 695.5,63.5C 695.5,70.5 695.5,77.5 695.5,84.5 Z"/></g>
<g><path style="opacity:1" fill="#e7710d" d="M 635.5,58.5 C 635.5,67.5 635.5,76.5 635.5,85.5C 634.691,83.7078 634.191,81.7078 634,79.5C 633.667,89.8333 633.333,100.167 633,110.5C 632.536,113.652 630.703,115.318 627.5,115.5C 629.226,113.772 630.559,111.772 631.5,109.5C 632.331,94.0054 632.831,78.3387 633,62.5C 633.333,60.5 633.667,58.5 634,56.5C 634.278,57.4158 634.778,58.0825 635.5,58.5 Z"/></g>
<g><path style="opacity:1" fill="#ea8e0f" d="M 635.5,40.5 C 635.5,46.5 635.5,52.5 635.5,58.5C 634.778,58.0825 634.278,57.4158 634,56.5C 633.667,58.5 633.333,60.5 633,62.5C 632.831,78.3387 632.331,94.0054 631.5,109.5C 631.5,87.5 631.5,65.5 631.5,43.5C 632.833,42.5 634.167,41.5 635.5,40.5 Z"/></g>
<g><path style="opacity:1" fill="#e6740e" d="M 196.5,110.5 C 197.488,111.795 198.488,113.128 199.5,114.5C 197.09,114.079 195.257,112.746 194,110.5C 194.378,103.856 194.378,97.1891 194,90.5C 193.8,88.6803 192.966,87.347 191.5,86.5C 191.5,78.8333 191.5,71.1667 191.5,63.5C 192.794,62.7101 193.961,61.7101 195,60.5C 195.168,77.3384 195.668,94.005 196.5,110.5 Z"/></g>
<g><path style="opacity:1" fill="#e77715" d="M 191.5,86.5 C 192.966,87.347 193.8,88.6803 194,90.5C 194.378,97.1891 194.378,103.856 194,110.5C 195.257,112.746 197.09,114.079 199.5,114.5C 342.097,115.498 484.763,115.832 627.5,115.5C 627.082,116.222 626.416,116.722 625.5,117C 485.995,117.18 346.495,117.68 207,118.5C 203.378,118.331 199.878,117.664 196.5,116.5C 194.279,116.439 193.946,117.105 195.5,118.5C 193.589,118.426 192.422,117.426 192,115.5C 191.5,105.839 191.334,96.1724 191.5,86.5 Z"/></g>
<g><path style="opacity:1" fill="#2b326b" d="M 780.5,4.5 C 780.833,41.8393 780.5,79.1726 779.5,116.5C 778.099,117.521 776.765,118.521 775.5,119.5C 727.5,119.5 679.5,119.5 631.5,119.5C 631.833,118.5 632.5,117.833 633.5,117.5C 680.835,117.667 728.168,117.5 775.5,117C 776.333,116.167 777.167,115.333 778,114.5C 778.5,77.8348 778.667,41.1682 778.5,4.5C 778.938,3.49367 779.604,3.49367 780.5,4.5 Z"/></g>
<g><path style="opacity:1" fill="#e24e11" d="M 635.5,85.5 C 635.666,95.1724 635.5,104.839 635,114.5C 634.487,115.527 633.987,116.527 633.5,117.5C 632.5,117.833 631.833,118.5 631.5,119.5C 486.167,119.5 340.833,119.5 195.5,119.5C 195.5,119.167 195.5,118.833 195.5,118.5C 193.946,117.105 194.279,116.439 196.5,116.5C 199.878,117.664 203.378,118.331 207,118.5C 346.495,117.68 485.995,117.18 625.5,117C 626.416,116.722 627.082,116.222 627.5,115.5C 630.703,115.318 632.536,113.652 633,110.5C 633.333,100.167 633.667,89.8333 634,79.5C 634.191,81.7078 634.691,83.7078 635.5,85.5 Z"/></g>
</svg>
