<?xml version="1.0" encoding="utf-8"?>
<!-- Generator: Adobe Illustrator 23.0.1, SVG Export Plug-In . SVG Version: 6.00 Build 0)  -->
<!DOCTYPE svg PUBLIC "-//W3C//DTD SVG 1.1//EN" "http://www.w3.org/Graphics/SVG/1.1/DTD/svg11.dtd" [
	<!ENTITY ns_extend "http://ns.adobe.com/Extensibility/1.0/">
	<!ENTITY ns_ai "http://ns.adobe.com/AdobeIllustrator/10.0/">
	<!ENTITY ns_graphs "http://ns.adobe.com/Graphs/1.0/">
	<!ENTITY ns_vars "http://ns.adobe.com/Variables/1.0/">
	<!ENTITY ns_imrep "http://ns.adobe.com/ImageReplacement/1.0/">
	<!ENTITY ns_sfw "http://ns.adobe.com/SaveForWeb/1.0/">
	<!ENTITY ns_custom "http://ns.adobe.com/GenericCustomNamespace/1.0/">
	<!ENTITY ns_adobe_xpath "http://ns.adobe.com/XPath/1.0/">
]>
<svg version="1.1"
	 id="svg4708" xmlns:x="&ns_extend;" xmlns:i="&ns_ai;" xmlns:graph="&ns_graphs;" xmlns:cc="http://creativecommons.org/ns#" xmlns:dc="http://purl.org/dc/elements/1.1/" xmlns:inkscape="http://www.inkscape.org/namespaces/inkscape" xmlns:rdf="http://www.w3.org/1999/02/22-rdf-syntax-ns#" xmlns:sodipodi="http://sodipodi.sourceforge.net/DTD/sodipodi-0.dtd" xmlns:svg="http://www.w3.org/2000/svg"
	 xmlns="http://www.w3.org/2000/svg" xmlns:xlink="http://www.w3.org/1999/xlink" x="0px" y="0px" viewBox="0 0 3516.4 1000"
	 enable-background="new 0 0 3516.4 1000" xml:space="preserve">
<metadata>
	<sfw  xmlns="&ns_sfw;">
		<slices></slices>
		<sliceSourceBounds  bottomLeftOrigin="true" height="1000" width="3516.4" x="-1497.7" y="1025.8"></sliceSourceBounds>
	</sfw>
</metadata>
<g id="layer1" transform="translate(-15.060659,-164.8585)" inkscape:groupmode="layer" inkscape:label="Layer 1">
	<linearGradient id="path15585_1_" gradientUnits="userSpaceOnUse" x1="738.8605" y1="222.0586" x2="738.8605" y2="1106.5092">
		<stop  offset="0.4" style="stop-color:#19A5F5"/>
		<stop  offset="1" style="stop-color:#0282DC"/>
	</linearGradient>
	<path id="path15585" fill="url(#path15585_1_)" d="M461.5,764.5c0,86-56,148.4-170.4,160.8c-82.4,8.8-202-1.6-258.8-8
		c-2-9.2-3.6-20.8-3.6-30c0-74.8,40.4-92,78.4-92c39.6,0,102,6.8,148,6.8c51.2,0,66.4-17.2,66.4-33.6c0-21.6-20.4-30.4-60-38
		l-108.4-20.8c-90-17.2-138-79.2-138-145.2c0-80,56.8-147.2,168.8-159.6c84.4-9.2,187.6,1.2,244,8c2,9.6,3.2,18.8,3.2,28.8
		c0,74.8-39.6,90.8-77.6,90.8c-29.2,0-74.4-5.2-126.4-5.2c-52.8,0-74.4,14.4-74.4,32c0,18.8,20.8,26.4,53.6,32.4l103.2,19.2
		C415.9,630.1,461.5,690.5,461.5,764.5 M646.7,856.5c0,46-18,72.4-108,72.4c-12,0-22.4-0.8-32.4-2.4V316.9
		c0-46.4,15.6-94.8,106.4-94.8c11.6,0,23.2,1.2,34,3.6V856.5z M1014.3,1092.5c12,6,36,13.6,66.4,14c52.4,1.2,80.8-18.8,102-65.6
		l280-623.2c-11.6-6-37.2-13.2-58-13.6c-36-0.8-84.4,6.4-115.2,80l-91.2,213.2l-178-289.2c-11.6-3.6-39.6-8.4-60-8.4
		c-63.2,0-98,23.2-134.4,62.4L653.1,650.9l139.2,218.8c25.6,40,59.6,60.4,114.4,60.4c36,0,66-8.4,80-14.8l-167.6-252l118.8-126
		l194.8,305.2L1014.3,1092.5z"/>
	
		<linearGradient id="path15335_1_" gradientUnits="userSpaceOnUse" x1="-82.4727" y1="2491.7087" x2="173.4704" y2="2491.7087" gradientTransform="matrix(7.5001 0 0 -7.5001 2230.4141 19352.9219)">
		<stop  offset="0" style="stop-color:#0186E0"/>
		<stop  offset="1" style="stop-color:#54DCF7"/>
	</linearGradient>
	<path id="path15335" fill="url(#path15335_1_)" d="M3465.1,164.9H1678.7c-36.8,0-66.8,30-66.8,66.8v866.4c0,36.8,30,66.8,66.8,66.8
		h1786c36.8,0,66.8-30,66.8-66.8V231.3C3531.5,194.5,3501.9,164.9,3465.1,164.9"/>
	
		<linearGradient id="path15297-4_1_" gradientUnits="userSpaceOnUse" x1="-194.8372" y1="2843.5859" x2="-185.952" y2="2843.5859" gradientTransform="matrix(-1.3157 -37.6778 -37.6778 1.3157 107629.3125 -10391.9141)">
		<stop  offset="0" style="stop-color:#FFFFFF"/>
		<stop  offset="0.5146" style="stop-color:#FFFFFF;stop-opacity:0.25"/>
		<stop  offset="1" style="stop-color:#FFFFFF;stop-opacity:0.25"/>
	</linearGradient>
	<path id="path15297-4" opacity="0.3" fill="url(#path15297-4_1_)" enable-background="new    " d="M506.7,316.9v418
		c0-16.8,12.8-34.4,34.4-35.2l0,0c15.2-0.4,57.6-2,70.4-2.4l0,0c14-0.4,35.2-10,35.6-35.6l0,0v-436c-10.8-2.4-22.4-3.6-34-3.6l0,0
		C522.3,222.5,506.7,270.5,506.7,316.9 M826.7,462.5L653.9,651.3l14,21.6c6,8,17.6,21.6,40.8,20.8l0,0c8.4-0.4,91.6-3.2,98.4-3.6
		l0,0c21.6-0.8,35.2,8.4,43.6,19.6l0,0l0,0l-30.8-46.4l118.8-126l79.6,125.2l0,0c14.4,18.8,36,19.2,40.8,19.2l0,0
		c4,0,108.8-3.6,113.2-4l0,0c7.2-0.4,15.6,3.6,22,12.8l0,0l-173.2-281.6c-11.6-3.6-39.6-8.4-60-8.4l0,0
		C897.9,400.1,863.1,422.9,826.7,462.5 M183.9,404.5c-112,12.4-168.8,79.2-168.8,159.6l0,0c0,41.2,18.8,80.8,54.8,109.2l0,0
		c27.2,18,55.2,24.8,82.8,29.6l0,0c22.8,4,76,7.6,115.6,6l0,0c12.4-0.4,103.6-3.6,123.2-4.4l0,0c46.4-1.6,71.2,38,68.8,77.6l0,0
		c0-0.4,0-1.2,0-1.6l0,0v-0.4l0,0c0.4-5.2,0.8-10.4,0.8-15.6l0,0c0-74-45.6-134.4-151.6-154l0,0l-103.2-19.2
		c-33.2-5.6-53.6-13.6-53.6-32.4l0,0c0-17.6,22-32.4,74.4-32.4l0,0c52,0,97.2,5.2,126.4,5.2l0,0c38,0,77.6-16,77.6-90.8l0,0
		c0-10-1.2-19.2-3.2-28.8l0,0c-40.4-4.8-105.2-11.6-169.6-11.6l0,0C233.1,400.9,207.9,402.1,183.9,404.5 M1289.1,484.1l-88.4,208.4
		l0,0c0-0.4,5.6-16.4,22.8-17.2l0,0c0,0,87.2-3.2,93.6-3.2l0,0c28.4-1.2,39.6-20.4,42.8-26.8l0,0l102.4-228.4
		c-11.6-6-37.2-13.2-58-13.6l0,0c-1.6,0-2.8,0-4.4,0l0,0C1364.3,403.7,1318.7,413.3,1289.1,484.1"/>
	
		<linearGradient id="path15555_1_" gradientUnits="userSpaceOnUse" x1="-193.1772" y1="2823.3423" x2="-184.2914" y2="2823.3423" gradientTransform="matrix(-1.9565 -56.0258 -56.0258 1.9565 160379.75 -15702.2666)">
		<stop  offset="0" style="stop-color:#FFFFFF"/>
		<stop  offset="0.5146" style="stop-color:#FFFFFF;stop-opacity:0.25"/>
		<stop  offset="1" style="stop-color:#FFFFFF;stop-opacity:0.25"/>
	</linearGradient>
	<path id="path15555" opacity="0.3" fill="url(#path15555_1_)" enable-background="new    " d="M1678.7,164.9
		c-36.8,0-66.8,30-66.8,66.8l0,0v480.8v0.4v-0.4c0-7.2,2.8-46.8,48-51.2l0,0c0,0,2.4-0.4,6.4-0.4l0,0c197.2-6.8,1815.6-63,1815.6-63
		l0,0c25.2-0.8,49.6-19.6,49.6-50.8l0,0V231.7c0-36.8-30-66.8-66.8-66.8l0,0L1678.7,164.9z"/>
	<g>
		<path fill="#FFFFFF" d="M3341.6,701h-366.7c11.8,91.6,75.9,143.9,170.5,143.9c40.4,0,72-8.9,101.6-18.7
			c19.7-6.9,30.6-10.8,38.4-10.8c19.8,0,34.5,18.7,29.6,61.1c-41.5,18.7-105.5,38.5-172.6,38.5c-146.9,0-247.5-99.6-247.5-246.5
			c0-140.9,105.5-243.5,234.7-243.5c144.9,0,215.9,115.3,215.9,227.7C3345.6,667.5,3344.5,683.3,3341.6,701 M2974.9,636.9h294.8
			c-3-80.8-55.2-144.9-140-144.9C3054.7,492,2987.7,542.3,2974.9,636.9"/>
		<path fill="#FFFFFF" d="M2797.1,626.1v253.4c0,18.7-9.8,29.5-40.4,29.5c-12.8,0-27.6-1.9-35.5-3.9V635.9
			c0-96.6-48.3-142.9-118.3-142.9c-56.2,0-116.3,39.5-140.9,84.8v301.7c0,18.7-9.8,29.5-40.4,29.5c-13.8,0-28.6-1.9-35.5-3.9V435.8
			c7-2,21.7-5,35.5-5c30.6,0,40.4,11.8,40.4,29.6v40.4c34.5-41.5,86.8-76,157.7-76C2716.3,425,2797.1,487.1,2797.1,626.1"/>
		<path fill="#FFFFFF" d="M1799.7,669.5c0-140,103.5-244.5,242.5-244.5s242.5,104.5,242.5,244.5c0,140.9-103.5,245.5-242.5,245.5
			S1799.7,810.4,1799.7,669.5 M2206.8,669.5c0-108.4-74-176.5-164.6-176.5c-90.8,0-164.6,68-164.6,176.5
			c0,109.4,73.9,178.5,164.6,178.5C2132.8,847.9,2206.8,778.9,2206.8,669.5"/>
	</g>
</g>
</svg>
