<?xml version="1.0" encoding="UTF-8" standalone="no"?>
<svg
   width="2529.53"
   height="499.96"
   version="1.1"
   data-name="Livello 1"
   id="svg34"
   sodipodi:docname="Sky Atlantic.svg"
   inkscape:version="1.1.1 (3bf5ae0d25, 2021-09-20)"
   xmlns:inkscape="http://www.inkscape.org/namespaces/inkscape"
   xmlns:sodipodi="http://sodipodi.sourceforge.net/DTD/sodipodi-0.dtd"
   xmlns="http://www.w3.org/2000/svg"
   xmlns:svg="http://www.w3.org/2000/svg">
  <sodipodi:namedview
     id="namedview36"
     pagecolor="#ffffff"
     bordercolor="#666666"
     borderopacity="1.0"
     inkscape:pageshadow="2"
     inkscape:pageopacity="0.0"
     inkscape:pagecheckerboard="0"
     showgrid="false"
     inkscape:zoom="0.44632797"
     inkscape:cx="1263.6448"
     inkscape:cy="249.8163"
     inkscape:window-width="1920"
     inkscape:window-height="1017"
     inkscape:window-x="-8"
     inkscape:window-y="-8"
     inkscape:window-maximized="1"
     inkscape:current-layer="svg34" />
  <defs
     id="defs31">
    <linearGradient
       y2="0.50211"
       x2="1.00256"
       y1="0.50211"
       x1="0.00229"
       id="Sfumatura_senza_nome_9">
      <stop
         id="stop2"
         stop-color="#00396e"
         offset="0" />
      <stop
         id="stop4"
         stop-color="#033d72"
         offset="0.27" />
      <stop
         id="stop6"
         stop-color="#0d4a7e"
         offset="0.56" />
      <stop
         id="stop8"
         stop-color="#1d6091"
         offset="0.85" />
      <stop
         id="stop10"
         stop-color="#276d9d"
         offset="1" />
    </linearGradient>
    <linearGradient
       y2="-0.08234"
       x2="0.49644"
       y1="0.82661"
       x1="0.50146"
       id="Sfumatura_senza_nome_4">
      <stop
         id="stop13"
         stop-color="#fff"
         offset="0" />
      <stop
         id="stop15"
         stop-opacity="0.83"
         stop-color="#fff"
         offset="0.12" />
      <stop
         id="stop17"
         stop-opacity="0.66"
         stop-color="#fff"
         offset="0.27" />
      <stop
         id="stop19"
         stop-opacity="0.51"
         stop-color="#fff"
         offset="0.42" />
      <stop
         id="stop21"
         stop-opacity="0.4"
         stop-color="#fff"
         offset="0.57" />
      <stop
         id="stop23"
         stop-opacity="0.32"
         stop-color="#fff"
         offset="0.72" />
      <stop
         id="stop25"
         stop-opacity="0.27"
         stop-color="#fff"
         offset="0.86" />
      <stop
         id="stop27"
         stop-opacity="0.25"
         stop-color="#fff"
         offset="1" />
    </linearGradient>
  </defs>
  <title
     id="title33">Sky Atlantic</title>
  <g
     id="g32">
    <title
       id="title19">Layer 1</title>
    <path
       id="path35"
       fill="url(#Sfumatura_senza_nome_9)"
       d="m2529.53,466.79l0,-433.47a33.41,33.41 0 0 0 -33.4,-33.32l-1664.13,0a33.37,33.37 0 0 0 -33.34,33.41l0,433.29a33.28,33.28 0 0 0 33.34,33.3l1664.13,0a33.33,33.33 0 0 0 33.4,-33.21z" />
    <path
       id="path37"
       fill="#fff"
       d="m1093.34,219.89l0,151.11a84.4,84.4 0 0 1 -18.22,2c-14.68,0 -21.55,-5.35 -21.55,-15.19l0,-20.63c-21.11,24.08 -48.59,38.26 -83.44,38.26c-52.5,0 -81.5,-34.35 -81.5,-71.66c0,-56.91 60.89,-81.93 164.44,-75.06l0,-8.39c0,-38.76 -11.79,-55 -56.48,-55c-18.58,0 -43.67,5.42 -56.91,8.82c-7.88,2 -13.74,4 -18.65,4c-11.29,0 -18.66,-9.83 -14.76,-30.44c24.08,-8.83 58.94,-17.21 92.35,-17.21c69.2,0 94.72,30.95 94.72,89.37m-40.27,82.44l0,-44.67c-67.76,-4.92 -124.16,4 -124.16,44.69c0,20.61 17.14,39.27 48.09,39.27c31.38,0 58.86,-15.7 76.07,-39.27" />
    <path
       id="path39"
       fill="#fff"
       d="m1296.08,359.26c-20.61,9.83 -44.18,16.2 -67.76,16.2c-46.64,0 -74.55,-27.48 -74.55,-73.11l0,-202.76c0,-10.27 5.86,-17.14 21.55,-17.14a84.08,84.08 0 0 1 18.68,2.46l0,51.09l91.77,0a118.79,118.79 0 0 1 1.52,16.2c0,14.17 -5.93,19.09 -14.76,19.09l-78.53,0l0,128.1c0,27.47 12.8,40.71 38.76,40.71c23.58,0 36.81,-10.27 48.16,-10.27c11.72,0 17.65,9.76 15.19,29.43" />
    <path
       id="path41"
       fill="#fff"
       d="m1332.69,371l0,-305.26c0,-9.33 5.42,-15.19 21.62,-15.19a88.31,88.31 0 0 1 18.66,2l0,305.3c0,9.83 -5.43,15.18 -21.62,15.18a88.44,88.44 0 0 1 -18.66,-1.95" />
    <path
       id="path43"
       fill="#fff"
       d="m1624.32,219.89l0,151.11a84.58,84.58 0 0 1 -18.23,2c-14.68,0 -21.54,-5.35 -21.54,-15.19l0,-20.63c-21.12,24.08 -48.6,38.26 -83.45,38.26c-52.5,0 -81.5,-34.35 -81.5,-71.66c0,-56.91 60.89,-81.93 164.44,-75.06l0,-8.39c0,-38.76 -11.79,-55 -56.48,-55c-18.58,0 -43.67,5.42 -56.91,8.82c-7.88,2 -13.74,4 -18.65,4c-11.28,0 -18.66,-9.83 -14.76,-30.44c24.09,-8.83 58.94,-17.21 92.35,-17.21c69.2,0 94.73,30.95 94.73,89.37m-40.32,82.46l0,-44.69c-67.76,-4.92 -124.16,4 -124.16,44.69c0,20.61 17.14,39.27 48.09,39.27c31.38,0 58.86,-15.7 76.07,-39.27" />
    <path
       id="path45"
       fill="#fff"
       d="m1893.27,230.67l0,127.12c0,9.33 -5.43,15.19 -21.63,15.19a89,89 0 0 1 -18.65,-2l0,-134.89c0,-47.15 -23.07,-69.71 -57.92,-69.71c-27,0 -56.41,18.66 -68.19,40.72l0,150.69c0,9.33 -5.43,15.19 -21.62,15.19a89.07,89.07 0 0 1 -18.66,-2l0,-236.05a94.05,94.05 0 0 1 18.66,-2c16.19,0 21.62,5.92 21.62,15.25l0,20.11c17.21,-21.12 43.17,-37.82 78,-37.82c48.09,0 88.37,30.44 88.37,100.15" />
    <path
       id="path47"
       fill="#fff"
       d="m2095.28,359.26c-20.61,9.83 -44.18,16.2 -67.75,16.2c-46.65,0 -74.56,-27.48 -74.56,-73.11l0,-202.76c0,-10.27 5.86,-17.14 21.55,-17.14a84.27,84.27 0 0 1 18.66,2.46l0,51.09l91.76,0a117.2,117.2 0 0 1 1.52,16.2c0,14.17 -5.93,19.09 -14.75,19.09l-78.53,0l0,128.1c0,27.47 12.8,40.71 38.76,40.71c23.57,0 36.8,-10.27 48.16,-10.27c11.71,0 17.64,9.76 15.18,29.43" />
    <path
       id="path49"
       fill="#fff"
       d="m2126.53,81.43a25.37,25.37 0 0 1 25.52,-25.52c14.76,0 26,10.84 26,25.52c0,13.31 -11.27,25.53 -26,25.53c-13.74,0 -25.52,-12.22 -25.52,-25.53m5.47,289.57l0,-222.82c0,-9.33 5.42,-15.19 21.62,-15.19a87.75,87.75 0 0 1 18.15,1.95l0,222.87c0,9.83 -4.91,15.18 -21.11,15.18a88.52,88.52 0 0 1 -18.66,-1.99" />
    <path
       id="path51"
       fill="#fff"
       d="m2220.44,252.76c0,-70.22 51.56,-122.21 119.75,-122.21a196,196 0 0 1 82,18.66c3.4,22 -3.47,30.88 -13.31,30.88c-17.13,0 -31.89,-14.18 -67.18,-14.18c-44.18,0 -80.55,32.83 -80.55,86.85c0,53.51 36.37,86.85 80.55,86.85c35.29,0 50.05,-14.68 65.74,-14.68c10.34,0 17.64,9.33 14.75,31.38a188.36,188.36 0 0 1 -82,19.16c-68.19,0 -119.75,-53 -119.75,-122.71" />
    <path
       fill="url(#Sfumatura_senza_nome_4)"
       opacity="0.3"
       d="m822.63,248.05s1.1,-0.1 3.2,-0.2c98.62,-3.5 1678.76,-58.54 1678.76,-58.54a25.12,25.12 0 0 0 24.9,-25.3l-0.06,-130.7a33.29,33.29 0 0 0 -33.3,-33.31l-1664.2,0a33.3,33.3 0 0 0 -33.31,33.31l0,240.69a25.27,25.27 0 0 1 24.01,-25.95z"
       id="p30" />
    <path
       id="path54"
       fill="#00396e"
       d="m499.62,464.06c5.93,3 18,6.73 33.19,7.09c26.18,0.58 40.35,-9.4 50.91,-32.83l140.07,-311.81c-5.79,-3.11 -18.66,-6.51 -29,-6.72c-18.08,-0.37 -42.3,3.25 -57.63,40.06l-45.34,106.87l-88.94,-144.62a129.85,129.85 0 0 0 -30,-4.27c-31.46,0 -49,11.5 -67.25,31.31l-86.43,94.37l69.5,109.26c12.94,20 29.79,30.16 57.27,30.16c18.07,0 33,-4.27 40,-7.52l-83.73,-126l59.29,-62.91l97.47,152.68l-59.38,124.88zm-183.81,-117.94c0,23 -9,36.23 -53.95,36.23a108.69,108.69 0 0 1 -16.12,-1.16l0,-304.94c0,-23.21 7.81,-47.36 53.14,-47.36a81.49,81.49 0 0 1 16.93,1.73l0,315.5zm-92.71,-46.06c0,42.95 -28,74.19 -85.11,80.34c-41.29,4.41 -101.09,-0.73 -129.51,-4a81.94,81.94 0 0 1 -1.73,-15c0,-37.38 20.17,-46.06 39.19,-46.06c19.81,0 50.91,3.47 74,3.47c25.6,0 33.27,-8.61 33.27,-16.85c0,-10.77 -10.2,-15.18 -30,-19l-54.21,-10.31c-45,-8.65 -69,-39.65 -69,-72.65c0,-40.13 28.49,-73.69 84.39,-79.83c42.23,-4.56 93.71,0.58 122,4a73,73 0 0 1 1.52,14.39c0.01,37.44 -19.81,45.44 -38.82,45.44c-14.61,0 -37.25,-2.68 -63.2,-2.68c-26.33,0 -37.25,7.31 -37.25,16.13c0,9.4 10.35,13.23 26.9,16.12l51.71,9.55c53,9.83 75.85,39.91 75.85,76.94" />
  </g>
  <path
     style="fill:#ffffff;stroke-width:2.2405"
     d="M 49.791356,380.63597 C 6.5647773,377.73445 6.7215147,377.80908 6.7215147,360.13123 c 0,-17.34055 6.5325463,-31.70151 17.9240393,-39.40369 7.838646,-5.29998 7.861056,-5.30149 56.291287,-3.77682 51.990279,1.63674 64.943199,0.14984 69.279569,-7.95272 1.33061,-2.48627 2.10393,-6.63584 1.71848,-9.22127 C 150.5878,290.74092 141.16101,286.92589 100.7088,279.04552 48.227191,268.82173 38.187912,264.86818 20.935764,247.63028 10.16977,236.87317 6.3600146,231.21064 3.571851,221.82188 -10.604957,174.08339 21.225293,129.93439 76.177167,121.1173 c 30.687373,-4.92382 126.236323,-1.17 130.626083,5.1319 0.98838,1.41891 1.3809,9.30378 0.87225,17.52194 -1.07128,17.3087 -6.05828,27.4437 -17.19766,34.95053 -7.38246,4.97504 -8.764,5.0831 -57.38417,4.48862 -47.596088,-0.58195 -50.102965,-0.39926 -56.168681,4.09345 -3.512662,2.60173 -6.66028,7.29894 -7.045669,10.5143 -0.954278,7.96167 6.411982,11.41984 36.77723,17.26549 13.42714,2.58487 31.97469,6.16712 41.21677,7.96054 22.92159,4.44793 46.73065,16.45426 57.98587,29.24086 11.96865,13.59711 17.06016,28.89511 16.8493,50.62553 -0.36574,37.68935 -24.55854,64.85856 -66.3855,74.55275 -18.82499,4.36305 -67.293602,5.80656 -106.531634,3.17276 z"
     id="path908" />
  <path
     style="fill:#ffffff;stroke-width:2.2405"
     d="m 249.25617,381.79602 c -2.2024,-1.00942 -2.80063,-35.47813 -2.80063,-161.36496 0,-175.019511 -0.42472,-169.209468 13.20795,-180.680609 9.20321,-7.743991 19.95493,-10.59597 40.00404,-10.611392 l 16.24366,-0.0125 V 192.90494 c 0,184.75367 0.89901,174.93011 -16.79249,183.49442 -9.5618,4.62879 -43.5191,8.304 -49.86253,5.39666 z"
     id="path947" />
  <path
     style="fill:#ffffff;stroke-width:2.2405"
     d="m 508.59461,467.46967 c -4.8466,-1.7203 -7.56891,-4.02533 -7.1274,-6.03493 0.3929,-1.78833 13.2478,-29.71667 28.56644,-62.06299 15.31864,-32.34633 27.85207,-59.37764 27.85207,-60.06955 0,-1.09104 -93.17917,-148.20164 -95.67061,-151.04407 -1.0845,-1.23728 -58.64473,58.48019 -58.81212,61.01628 -0.0616,0.93424 18.51334,29.62575 41.27777,63.75891 27.24526,40.85174 40.50587,62.60664 38.8031,63.659 -5.70638,3.52674 -32.12377,6.94942 -45.40774,5.88312 -17.0023,-1.36478 -34.46332,-10.07821 -43.56483,-21.7398 -8.94812,-11.46504 -74.11909,-114.32775 -74.11909,-116.98599 0,-3.2047 91.92972,-102.75023 101.94107,-110.38626 13.99313,-10.67308 28.72929,-15.0367 50.77965,-15.0367 11.76954,0 22.03579,1.18649 25.61747,2.96066 4.23817,2.09936 18.4378,23.30793 48.80982,72.90234 23.55806,38.46792 43.33694,69.96016 43.95308,69.98276 0.61614,0.0226 8.61772,-17.84008 17.78128,-39.69485 33.77684,-80.55657 39.53375,-90.61227 56.99734,-99.55834 6.73241,-3.44881 13.49696,-4.75641 24.92385,-4.81782 13.38408,-0.0719 32.48732,3.72398 32.48732,6.45538 0,4.02038 -144.66788,321.5733 -149.21592,327.53609 -8.70808,11.4169 -21.00541,16.23042 -41.22699,16.13746 -9.24209,-0.0426 -20.33259,-1.3298 -24.64556,-2.8607 z"
     id="path986" />
</svg>
