<?xml version="1.0" encoding="UTF-8" standalone="no"?>
<!-- Created with Inkscape (http://www.inkscape.org/) -->

<svg
   xmlns:dc="http://purl.org/dc/elements/1.1/"
   xmlns:cc="http://creativecommons.org/ns#"
   xmlns:rdf="http://www.w3.org/1999/02/22-rdf-syntax-ns#"
   xmlns:svg="http://www.w3.org/2000/svg"
   xmlns="http://www.w3.org/2000/svg"
   xmlns:xlink="http://www.w3.org/1999/xlink"
   xmlns:sodipodi="http://sodipodi.sourceforge.net/DTD/sodipodi-0.dtd"
   xmlns:inkscape="http://www.inkscape.org/namespaces/inkscape"
   width="415.68549mm"
   height="91.515869mm"
   viewBox="0 0 415.68549 91.515869"
   version="1.1"
   id="svg957"
   inkscape:version="0.92.5 (2060ec1f9f, 2020-04-08)"
   sodipodi:docname="SKYREPLAY.svg">
  <defs
     id="defs951">
    <linearGradient
       inkscape:collect="always"
       xlink:href="#linearGradient720"
       id="linearGradient891"
       gradientUnits="userSpaceOnUse"
       gradientTransform="matrix(-1.0703598,-30.651103,30.651103,-1.0703598,-47.992216,147.46798)"
       x1="0"
       y1="0"
       x2="1"
       y2="0"
       spreadMethod="pad" />
    <linearGradient
       x1="0"
       y1="0"
       x2="1"
       y2="0"
       gradientUnits="userSpaceOnUse"
       gradientTransform="matrix(-4.0454544,-115.84669,115.84669,-4.0454544,-2193.5897,494.50227)"
       spreadMethod="pad"
       id="linearGradient720">
      <stop
         style="stop-opacity:1;stop-color:#ffffff"
         offset="0"
         id="stop714" />
      <stop
         style="stop-opacity:0.25000381;stop-color:#ffffff"
         offset="0.5145727"
         id="stop716" />
      <stop
         style="stop-opacity:0.25000381;stop-color:#ffffff"
         offset="1"
         id="stop718" />
    </linearGradient>
    <linearGradient
       inkscape:collect="always"
       xlink:href="#linearGradient646"
       id="linearGradient889"
       gradientUnits="userSpaceOnUse"
       gradientTransform="matrix(-1.5915379,-45.575677,45.575677,-1.5915379,189.80318,140.7586)"
       x1="0"
       y1="0"
       x2="1"
       y2="0"
       spreadMethod="pad" />
    <linearGradient
       x1="0"
       y1="0"
       x2="1"
       y2="0"
       gradientUnits="userSpaceOnUse"
       gradientTransform="matrix(-6.0152616,-172.25453,172.25453,-6.0152616,-1293.4463,469.14398)"
       spreadMethod="pad"
       id="linearGradient646">
      <stop
         style="stop-opacity:1;stop-color:#ffffff"
         offset="0"
         id="stop640" />
      <stop
         style="stop-opacity:0.25000381;stop-color:#ffffff"
         offset="0.5145727"
         id="stop642" />
      <stop
         style="stop-opacity:0.25000381;stop-color:#ffffff"
         offset="1"
         id="stop644" />
    </linearGradient>
    <linearGradient
       inkscape:collect="always"
       xlink:href="#linearGradient917"
       id="linearGradient887"
       gradientUnits="userSpaceOnUse"
       gradientTransform="matrix(316.7997,0,0,316.7997,31.303283,145.05264)"
       x1="0"
       y1="0"
       x2="0.85076338"
       y2="6.1006755e-14"
       spreadMethod="pad" />
    <linearGradient
       x1="0"
       y1="0"
       x2="1"
       y2="0"
       gradientUnits="userSpaceOnUse"
       gradientTransform="matrix(316.79971,0,0,316.79971,-501.09173,128.42172)"
       spreadMethod="pad"
       id="linearGradient917">
      <stop
         style="stop-opacity:1;stop-color:#00e1b9"
         offset="0"
         id="stop913" />
      <stop
         style="stop-opacity:1;stop-color:#00abd7"
         offset="1"
         id="stop915" />
    </linearGradient>
  </defs>
  <sodipodi:namedview
     id="base"
     pagecolor="#ffffff"
     bordercolor="#666666"
     borderopacity="1.0"
     inkscape:pageopacity="0.0"
     inkscape:pageshadow="2"
     inkscape:zoom="0.91655831"
     inkscape:cx="785.5474"
     inkscape:cy="172.94338"
     inkscape:document-units="mm"
     inkscape:current-layer="layer1"
     showgrid="false"
     fit-margin-top="0"
     fit-margin-left="0"
     fit-margin-right="0"
     fit-margin-bottom="0"
     inkscape:window-width="1920"
     inkscape:window-height="1027"
     inkscape:window-x="-8"
     inkscape:window-y="-8"
     inkscape:window-maximized="1" />
  <metadata
     id="metadata954">
    <rdf:RDF>
      <cc:Work
         rdf:about="">
        <dc:format>image/svg+xml</dc:format>
        <dc:type
           rdf:resource="http://purl.org/dc/dcmitype/StillImage" />
        <dc:title></dc:title>
      </cc:Work>
    </rdf:RDF>
  </metadata>
  <g
     inkscape:label="Layer 1"
     inkscape:groupmode="layer"
     id="layer1"
     transform="translate(114.86061,-99.295641)">
    <path
       sodipodi:nodetypes="sssssssss"
       style="opacity:1;fill:url(#linearGradient887);stroke:none;stroke-width:6.04902887"
       d="m 37.406693,99.295641 c -3.3693,0 -6.1035,2.734199 -6.1035,6.103499 V 184.708 c 0,3.36931 2.7342,6.10351 6.1035,6.10351 H 294.7214 c 3.36928,0 6.10349,-2.7342 6.10349,-6.10351 v -79.30886 c 0,-3.3693 -2.73421,-6.103499 -6.10349,-6.103499 z"
       id="path875"
       inkscape:connector-curvature="0" />
    <path
       inkscape:connector-curvature="0"
       id="path893"
       d="m 77.147693,127.24149 q 0,2.21638 -1.0037,2.92729 -1.0036,0.6691 -3.3036,0.6691 -4.6419,0 -8.4055,2.30001 -3.7637,2.30001 -6.231,7.31822 v 24.33832 q 0,1.3382 -0.8782,2.04911 -0.8363,0.71091 -3.0527,0.71091 -0.9618,0 -1.9237,-0.12545 -0.92,-0.0836 -1.5054,-0.25092 v -43.15661 q 0.5854,-0.16727 1.5054,-0.25091 0.9619,-0.12545 1.9237,-0.12545 2.2164,0 3.0527,0.75273 0.8782,0.75273 0.8782,2.0491 v 6.02185 q 6.4819,-9.86914 18.5674,-8.53095 0.042,0.16727 0.084,0.41818 0.2928,1.25455 0.2928,2.88547 z"
       style="fill:#ffffff" />
    <path
       inkscape:connector-curvature="0"
       id="path896"
       d="m 87.184593,142.50521 h 26.512897 q -0.2509,-5.64548 -3.5964,-9.36732 -3.3454,-3.72184 -9.0746,-3.72184 -4.976401,0 -8.907297,3.34547 -3.9309,3.34548 -4.9346,9.74369 z m 33.412997,5.77095 H 87.184593 q 0.8364,6.27276 4.851,9.66005 4.014496,3.34548 10.412797,3.34548 5.52,0 9.2837,-1.50547 1.38,-0.58545 2.0909,-0.79455 0.7527,-0.20909 1.2963,-0.20909 1.5473,0 2.4255,1.38001 0.8782,1.33819 0.6273,4.26548 -2.9273,1.33819 -7.151,2.46728 -4.1818,1.1291 -8.8236,1.1291 -10.120097,0 -16.351097,-6.18913 -6.1891,-6.23094 -6.1891,-16.351 0,-9.70187 6.2728,-15.97463 6.2727,-6.31459 15.096397,-6.31459 6.6492,0 11.0401,3.05275 4.4328,3.01092 6.6073,7.77823 2.2164,4.72548 2.2164,9.91096 0,1.92365 -0.2927,4.34912 z"
       style="fill:#ffffff" />
    <path
       inkscape:connector-curvature="0"
       id="path898"
       d="m 137.36459,137.82155 v 15.51464 q 4.8091,8.19641 13.5491,8.19641 6.35641,0 10.4965,-4.39094 4.14001,-4.43275 4.14001,-11.50006 0,-7.15095 -4.14001,-11.58371 -4.14009,-4.43275 -10.4965,-4.43275 -8.74,0 -13.5491,8.19641 z m -7.2764,43.53298 v -57.2076 q 0.5018,-0.20909 1.4218,-0.33455 0.9618,-0.16727 1.8818,-0.16727 3.9728,0.0418 3.9728,3.38729 v 3.59638 q 2.4254,-3.34547 6.2309,-5.39457 3.8473,-2.04911 8.65641,-2.04911 5.52008,0 10.24549,2.67638 4.72551,2.67638 7.611,7.69459 2.9273,5.01821 2.9273,12.08553 0,6.98367 -2.9273,12.00188 -2.88549,5.01821 -7.611,7.69459 -4.72541,2.67638 -10.24549,2.67638 -4.80911,0 -8.65641,-2.0491 -3.8055,-2.09092 -6.2309,-5.4364 v 18.40011 q 0,1.29637 -0.92,2.0491 -0.92,0.75273 -3.1364,0.75273 -0.92,0 -1.84,-0.12545 -0.8782,-0.12545 -1.38,-0.25091 z"
       style="fill:#ffffff" />
    <path
       inkscape:connector-curvature="0"
       id="path900"
       d="m 182.4212,167.2199 v -55.86941 q 0,-1.29637 0.87818,-2.04911 0.87821,-0.75273 3.09462,-0.75273 0.91998,0 1.8818,0.12546 0.96178,0.0836 1.54731,0.25091 v 55.86941 q 0,1.3382 -0.87821,2.04911 -0.8782,0.71091 -3.09451,0.71091 -0.9619,0 -1.92371,-0.12545 -0.91998,-0.0836 -1.50548,-0.2091 z"
       style="fill:#ffffff" />
    <path
       inkscape:connector-curvature="0"
       id="path902"
       d="m 228.45428,154.63256 v -8.1546 q -6.27269,-0.50182 -11.4164,0.0418 -5.10188,0.54364 -8.19639,2.46729 -3.0946,1.92365 -3.0946,5.64549 0,2.84365 2.2582,5.01821 2.29999,2.17456 6.5655,2.17456 8.6146,0 13.88369,-7.19277 z m 7.3601,-15.09645 v 27.68379 q -0.54369,0.12546 -1.4637,0.2091 -0.87818,0.12545 -1.83999,0.12545 -3.97269,0 -3.97269,-2.76002 v -3.80547 q -5.6873,7.02549 -15.26382,7.02549 -7.19269,0 -11.04,-3.97275 -3.84728,-4.01457 -3.84728,-9.11641 0,-7.82005 7.8618,-11.24916 7.90369,-3.47093 22.20558,-2.5091 v -1.54729 q 0,-5.31094 -2.09089,-7.65277 -2.0909,-2.38365 -8.2382,-2.38365 -2.55101,0 -5.52008,0.54364 -2.9691,0.54364 -5.14361,1.21274 -1.84002,0.58545 -3.1364,0.58545 -1.54731,0 -2.38371,-1.38 -0.83629,-1.38001 -0.33448,-4.18184 3.38727,-1.25456 7.86188,-2.21638 4.4745,-0.96183 9.03271,-0.96183 9.4928,0 13.38189,4.18185 3.93099,4.18184 3.93099,12.16916 z"
       style="fill:#ffffff" />
    <path
       inkscape:connector-curvature="0"
       id="path904"
       d="m 256.67749,181.73089 q -2.50909,0 -4.85089,-1.21273 l 7.27638,-15.26372 -19.02738,-40.35478 q 1.9236,-1.25455 4.68368,-1.25455 2.96911,0 4.0563,2.38365 l 14.26012,30.77836 13.75831,-30.77836 q 0.62727,-1.38001 1.46359,-1.88183 0.87818,-0.50182 2.38369,-0.50182 2.63451,0 4.72551,1.17091 l -24.9238,54.36395 q -0.5437,1.25455 -1.4218,1.88183 -0.8364,0.66909 -2.38371,0.66909 z"
       style="fill:#ffffff" />
    <path
       style="opacity:0.4;fill:url(#linearGradient889);fill-opacity:1;stroke:none;stroke-width:6.04902744"
       d="m 37.406593,99.295641 c -3.3693,0 -6.1034,2.734199 -6.1034,6.103499 v 43.99474 c 0,-3.41847 2.3755,-4.63363 4.9722,-4.72426 l 259.994697,-9.07435 c 2.2928,-0.08 4.54879,-1.79042 4.5548,-4.6395 v -25.55663 c 0,-3.3693 -2.73421,-6.103499 -6.10349,-6.103499 z"
       id="path881"
       inkscape:connector-curvature="0"
       sodipodi:nodetypes="sscsscsss" />
    <path
       inkscape:connector-curvature="0"
       id="path883"
       style="opacity:1;fill:#00e1b9;fill-opacity:1;fill-rule:nonzero;stroke:none;stroke-width:6.0490284"
       d="m -74.035706,154.21238 c 0,7.86375 -5.135602,13.58613 -15.576301,14.71124 -7.5612,0.80453 -18.497903,-0.14517 -23.706103,-0.73798 -0.1694,-0.84082 -0.3146,-1.8994 -0.3146,-2.7402 0,-6.84751 3.696,-8.42631 7.1742,-8.42631 3.6234,0 9.321503,0.63515 13.537703,0.63515 4.6759,0 6.085301,-1.5788 6.085301,-3.09106 0,-1.96592 -1.863101,-2.77045 -5.486401,-3.47818 l -9.914403,-1.89334 c -8.2327,-1.5788 -12.6243,-7.2649 -12.6243,-13.30183 0,-7.33747 5.2022,-13.48328 15.437103,-14.60235 7.7367,-0.84686 17.161101,0.10283 22.327001,0.73798 0.1754,0.87106 0.2843,1.71793 0.2843,2.63133 0,6.84146 -3.6234,8.31742 -7.1076,8.31742 -2.667601,0 -6.817301,-0.48998 -11.565801,-0.48998 -4.821003,0 -6.823303,1.33079 -6.823303,2.94589 0,1.72396 1.8994,2.42566 4.923903,2.95191 l 9.4607,1.75422 c 9.7027,1.79051 13.888601,7.30118 13.888601,14.07609 m 16.973601,8.42631 c 0,4.21011 -1.657501,6.63577 -9.884201,6.63577 -1.0888,0 -2.038501,-0.0726 -2.951901,-0.21171 v -55.81439 c 0,-4.24642 1.439701,-8.6743 9.739,-8.6743 1.0525,0 2.1111,0.10888 3.097102,0.32059 z m 33.6326,21.58898 c 1.0888,0.55651 3.302699,1.22795 6.0853,1.30054 4.778698,0.10283 7.3857979,-1.72397 9.3154979,-6.00669 L 17.607093,122.44288 c -1.0526,-0.56256 -3.4117,-1.19165 -5.3111,-1.22795 -3.3028004,-0.0665 -7.7367004,0.59886 -10.5495001,7.33747 l -8.2993,19.55046 -16.2778979,-26.4645 c -1.052502,-0.32059 -3.6234,-0.77427 -5.486501,-0.77427 -5.764699,0 -8.964599,2.10506 -12.3097,5.72238 l -15.8243,17.26997 12.7332,20.0102 c 2.353101,3.64755 5.450199,5.51066 10.476899,5.51066 3.3088,0 6.0491,-0.77428 7.3133,-1.36709 l -15.328198,-23.06493 10.864,-11.51131 17.826498,27.94047 z" />
    <path
       inkscape:connector-curvature="0"
       style="opacity:0.4;fill:url(#linearGradient891);fill-opacity:1;stroke:none;stroke-width:6.04902744"
       d="m -60.157908,104.57646 c -8.299299,0 -9.738997,4.42798 -9.738997,8.6744 v 38.2478 c 0,-1.53645 1.179398,-3.16339 3.157498,-3.23598 1.379101,-0.0484 5.2745,-0.17537 6.4239,-0.22376 1.270201,-0.0423 3.224102,-0.90166 3.248301,-3.26078 v -39.88697 c -0.985901,-0.21172 -2.0382,-0.31471 -3.090702,-0.31471 z m 31.835702,16.28996 c -5.7647,0 -8.964499,2.10533 -12.303599,5.72265 l -15.824301,17.26975 1.2645,1.98437 c 0.5383,0.73798 1.627298,1.96586 3.744399,1.88723 0.750102,-0.0242 8.3961,-0.29051 9.019101,-0.31471 1.965999,-0.0726 3.2121,0.76837 3.9864,1.7725 l -2.8252,-4.24677 10.863901,-11.51093 7.301399,11.44478 c 1.330801,1.72397 3.3088,1.75396 3.7383,1.73581 0.381101,-0.0121 9.9443989,-0.34462 10.3677989,-0.36276 0.6654,-0.0181 1.4337,0.34469 2.0144,1.16737 L -22.835706,121.63485 c -1.052499,-0.31455 -3.617301,-0.76843 -5.4865,-0.76843 z m -64.294701,0.0847 c -2.3168,0 -4.6397,0.0969 -6.8234,0.3328 h 0.012 c -10.228903,1.12512 -15.431103,7.26489 -15.431103,14.60841 0,3.7625 1.7059,7.39769 4.9966,9.97458 2.4982,1.63929 5.033,2.27454 7.5918,2.71612 2.105,0.36294 6.974103,0.68948 10.585403,0.55035 1.119,-0.0363 9.472901,-0.33262 11.287601,-0.38706 4.1403,-0.14216 6.422901,3.31729 6.2948,6.85747 0.056,-0.45928 0.057,-0.92455 0.057,-1.39526 0,-6.76887 -4.1861,-12.27944 -13.8948,-14.06995 l -9.454701,-1.7601 c -3.030603,-0.52022 -4.923703,-1.22814 -4.923703,-2.94607 0,-1.61509 2.0022,-2.95176 6.823303,-2.95176 4.7485,0 8.8921,0.48989 11.565699,0.48989 3.478202,0 7.101401,-1.46982 7.101401,-8.31732 0,-0.90736 -0.1026,-1.75425 -0.278,-2.63136 -3.7141,-0.45368 -9.6119,-1.07074 -15.5097,-1.07074 z m 18.5136,34.65267 c 0,0.0129 0,0.0259 0,0.0388 0,0.0181 -0.01,0.0243 -0.01,0.0424 0.01,0.0484 0.01,0.0963 0,0.14469 0.01,-0.0753 0.01,-0.15056 0.01,-0.22583 z m 85.9771,-34.39274 c -3.2543004,0 -7.4405004,0.87718 -10.1384001,7.33754 l -8.0935,19.07894 v 0.0119 c 0,-0.0242 0.5265,-1.49999 2.0872,-1.55443 0,0 7.9662997,-0.27847 8.5771997,-0.29662 2.5951,-0.0907 3.6356,-1.88742 3.9078,-2.44998 l 9.3881004,-20.8933 c -1.0586,-0.56256 -3.4114,-1.19169 -5.3108,-1.23403 h -0.4114 z"
       id="path885" />
  </g>
</svg>
