<svg xmlns="http://www.w3.org/2000/svg" xmlns:xlink="http://www.w3.org/1999/xlink" width="1000" height="188.229" viewBox="0 0 264.583 49.802"><defs><linearGradient id="i" spreadMethod="pad" gradientTransform="rotate(-90 715.079 103.213) scale(784.77167)" gradientUnits="userSpaceOnUse" y2="0" x2="1" y1="0" x1="0"><stop offset="0" style="stop-opacity:1;stop-color:#fff"/><stop offset="1" style="stop-opacity:0;stop-color:#fff"/></linearGradient><linearGradient id="c"><stop offset="0" style="stop-color:#fff;stop-opacity:.3877551"/><stop offset="1" style="stop-color:#fff;stop-opacity:.13265306"/></linearGradient><linearGradient xlink:href="#c" id="n" gradientUnits="userSpaceOnUse" x1="995.277" y1="376.424" x2="991.761" y2="273.726"/><linearGradient id="d"><stop style="stop-color:#ff5901;stop-opacity:1" offset="0"/><stop style="stop-color:#ffa90f;stop-opacity:1" offset="1"/></linearGradient><linearGradient id="b"><stop style="stop-color:#f30;stop-opacity:1" offset="0"/><stop style="stop-color:#ff9600;stop-opacity:1" offset="1"/></linearGradient><linearGradient xlink:href="#b" id="j" gradientUnits="userSpaceOnUse" x1="259.67" y1="168.488" x2="259.67" y2="27.881"/><linearGradient xlink:href="#d" id="k" gradientUnits="userSpaceOnUse" x1="628.952" y1="158.564" x2="628.952" y2="35.602"/><linearGradient xlink:href="#b" id="m" gradientUnits="userSpaceOnUse" x1="259.67" y1="168.488" x2="259.67" y2="98.44"/><linearGradient id="a"><stop style="stop-color:#fff;stop-opacity:.33673468" offset="0"/><stop style="stop-color:#fff;stop-opacity:.19897959" offset="1"/></linearGradient><clipPath id="g" clipPathUnits="userSpaceOnUse"><path d="M322.83 318.634h160.8v-83.04h-160.8z"/></clipPath><clipPath id="f" clipPathUnits="userSpaceOnUse"><path d="M508.635 326.281h80.956V225.446h-80.956z"/></clipPath><clipPath id="e" clipPathUnits="userSpaceOnUse"><path d="M228.342 498.135h206.88v-132.48h-206.88z"/></clipPath><clipPath id="h" clipPathUnits="userSpaceOnUse"><path d="M42.2 498.135h206.88v-132.48H42.2z"/></clipPath><filter style="color-interpolation-filters:sRGB" id="l" x="-.011" width="1.021" y="-.041" height="1.082"><feGaussianBlur stdDeviation="9.541"/></filter></defs><g style="stroke-width:3.18775439"><path d="M161.221 113.454c0 13.633-8.912 23.59-27.015 25.56-13.117 1.402-32.105-.25-41.11-1.282-.344-1.48-.609-3.306-.609-4.747 0-11.927 6.467-14.651 12.496-14.651 6.268 0 16.159 1.084 23.511 1.084 8.08 0 10.539-2.737 10.539-5.355 0-3.412-3.266-4.84-9.534-6.043l-17.164-3.306C98.041 101.977 90.411 92.086 90.411 81.6c0-12.747 9.019-23.418 26.777-25.388 13.422-1.455 29.752.185 38.717 1.282a21.4 21.4 0 0 1 .503 4.602c0 11.887-6.268 14.453-12.31 14.453-4.655 0-11.849-.873-20.073-.873-8.384 0-11.848 2.327-11.848 5.144 0 2.975 3.305 4.205 8.555 5.117l16.41 3.041c16.86 3.108 24.08 12.695 24.08 24.476m29.46 14.638c0 7.313-2.882 11.531-17.15 11.531-1.891 0-3.544-.132-5.13-.37V42.248c0-7.365 2.512-15.048 16.925-15.048 1.811 0 3.65.185 5.355.542zm58.34 37.528c1.865.952 5.713 2.115 10.553 2.247 8.277.186 12.813-3.001 16.158-10.42l44.47-99.199c-1.825-.992-5.885-2.09-9.217-2.169-5.712-.092-13.395 1.071-18.3 12.774l-14.4 33.997-28.245-46.017c-1.825-.555-6.268-1.349-9.534-1.349-9.957 0-15.537 3.676-21.316 9.944l-27.464 30.03 22.096 34.763c4.072 6.334 9.454 9.56 18.195 9.56 5.712 0 10.472-1.295 12.667-2.353l-26.591-40.092 18.843-19.967 30.915 48.515z" style="fill:url(#j);fill-opacity:1;fill-rule:nonzero;stroke:none;stroke-width:1.12456894" transform="matrix(.3153 0 0 .3121 -28.507 -5.537)"/><path d="M354.5 18.15h564.15c5.812 0 10.49 4.678 10.49 10.49v137.769c0 5.812-4.678 10.49-10.49 10.49H354.5a10.467 10.467 0 0 1-10.49-10.49V28.639c0-5.811 4.678-10.49 10.49-10.49z" style="opacity:1;fill:url(#k);fill-opacity:1;stroke:none;stroke-width:102.64569855;stroke-linecap:square;stroke-linejoin:miter;stroke-miterlimit:4;stroke-dasharray:none;stroke-opacity:1" transform="matrix(.3153 0 0 .3121 -28.507 -5.537)"/><path d="M543.3 60.252c-2.063-.024-4.554.236-6.422.702v75.103c2.717.678 6.752.919 8.87.487 2.6-.53 3.924-1.97 3.924-4.383V65.276c0-2.414-1.324-4.28-3.924-4.81-.662-.134-1.51-.203-2.448-.214zM582.518 88.432v47.625c2.718.678 6.752.919 8.87.487 2.6-.53 3.924-1.97 3.924-4.383V87.77c0-20.4-12.745-28.108-23.405-28.108-9.223 0-13.416 2.746-17.605 5.996-1.245.966-3.451 3.249-1.993 6.194 1.415 2.856 4.385 2.716 6.331 1.654 5.863-3.2 13.075-2.996 17.66.11 4.374 2.961 6.218 8.526 6.218 14.815zM628.16 88.432v47.625c2.717.678 6.751.919 8.87.487 2.6-.53 3.923-1.97 3.923-4.383V87.204c0-20.4-12.745-27.541-23.405-27.541-9.224 0-13.65 2.312-19.175 6.698-1.235.98-3.752 3.616-2.294 6.56 1.415 2.857 4.463 2.85 6.331 1.655 7.2-4.603 14.945-4.065 19.53-.96 4.375 2.962 6.22 8.527 6.22 14.816zM485.127 59.498c-23.324 0-38.459 17.435-38.459 38.942 0 5.131.81 10.049 2.492 14.515 1.434 3.81 5.11 5.199 8.53 3.841 3.422-1.357 4.692-4.75 3.418-8.662-.978-3.001-1.424-6.281-1.424-9.694 0-15.184 9.654-27.494 25.443-27.494 15.789 0 25.443 12.31 25.443 27.494 0 15.185-9.653 27.495-25.443 27.495-6.986 0-12.654-2.54-17.049-6.414-2.05-1.807-6.024-1.976-8.407 1.18-2.383 3.155-1.488 6.38.74 8.3 6.277 5.412 14.83 8.381 24.716 8.381 23.325 0 38.46-17.435 38.46-38.942s-15.136-38.942-38.46-38.942zM824.023 62.022c-.258.116-.499.232-.72.345l25.816 55.365a6.397 6.397 0 0 0 11.596-5.407l-22.49-48.228c-2.643-5.67-10.328-3.819-14.202-2.075zM843.893 158.786c11.14 4.227 13.38 1.373 15.494-3.246l42.66-93.228a16.6 16.6 0 0 0-.707-.327c-3.79-1.649-11.309-3.563-13.81 1.987l-24.298 53.893c-6.067 13.456-11.484 24.935-19.339 40.92zM806.725 34.2c1.5-.018 3.57.113 5.438.58v101.277c-2.718.678-6.752.919-8.87.487-2.6-.53-3.924-1.97-3.924-4.383V39.29c0-2.413 1.324-4.28 3.924-4.809.662-.135 1.932-.265 3.432-.282zM411.54 59.498c-22.367 0-37.833 17.435-37.833 38.942s15.466 38.943 37.833 38.943c8.082 0 17.959-1.662 26.378-6.071.466-4.198.132-8.301-2.724-9.618-2.855-1.316-6.661.764-10.017 2-4.05 1.49-8.34 2.322-12.548 2.322-16.234 0-25.92-12.346-25.92-27.576s9.686-27.576 25.92-27.576c4.207 0 8.498.832 12.548 2.323 3.356 1.235 7.87 3.079 10.395 1.857 2.525-1.221 3.095-5.466 2.346-9.475-8.42-4.41-18.296-6.071-26.378-6.071zM774.932 59.498c-19.824 0-35.894 15.734-35.894 38.942 0 23.207 15.692 38.942 35.894 38.942 7.406 0 14.533-2.093 20.098-6.463 1.713-1.345 3.002-3.888 1.779-6.318-1.223-2.43-4.097-3.194-6.195-2.052-3.816 2.076-8.148 3.59-12.742 3.59-14.288 0-25.871-10.88-25.871-27.7 0-16.818 11.583-27.432 25.87-27.432 4.595 0 8.833 1.39 12.648 3.465 2.099 1.142 4.972.379 6.195-2.051 1.223-2.43-.065-4.973-1.779-6.319-5.564-4.37-12.597-6.604-20.003-6.604z" style="opacity:1;fill:#09166c;fill-opacity:1;stroke:none;stroke-width:102.64569855;stroke-linecap:square;stroke-linejoin:miter;stroke-miterlimit:4;stroke-dasharray:none;stroke-opacity:1" transform="matrix(.3153 0 0 .3121 -28.507 -5.537)"/><path d="M691.537 59.498c-22.43 0-37.395 18.335-37.395 39.374 0 21.614 15.34 38.51 38.093 38.51 15.767 0 23.007-4.012 28.992-6.036.563-8.444-2.68-11.126-7.884-9.621-5.323 1.539-9.437 3.875-20.483 3.875-15.895 0-25.622-11.002-25.622-27.128 0-16.125 9.078-27.93 23.92-27.93 14.843 0 22.05 11.428 22.05 22.451h-37.52a5.078 5.078 0 0 0-5.078 5.078 5.078 5.078 0 0 0 5.078 5.079h49.548c3.521-24.835-10.42-43.652-33.699-43.652z" style="fill:#09166c;fill-opacity:1;stroke:none;stroke-width:.84342664px;stroke-linecap:butt;stroke-linejoin:miter;stroke-opacity:1" transform="matrix(.3153 0 0 .3121 -28.507 -5.537)"/><path transform="matrix(.0834 0 0 .0826 -28.507 -5.537)" d="M1352.701 89.95c-17.627 0-31.15 13.522-31.15 31.15v494.992c0 17.627 13.523 31.152 31.15 31.152h2106.512c17.627 0 31.15-13.525 31.15-31.152V121.1c0-17.628-13.523-31.15-31.15-31.15zm0 16.63h2106.512c8.702 0 14.52 5.818 14.52 14.52v494.992c0 8.702-5.818 14.521-14.52 14.521H1352.7c-8.702 0-14.527-5.82-14.527-14.521V121.1c0-8.702 5.825-14.52 14.527-14.52z" style="color:#000;font-style:normal;font-variant:normal;font-weight:400;font-stretch:normal;font-size:medium;line-height:normal;font-family:sans-serif;font-variant-ligatures:normal;font-variant-position:normal;font-variant-caps:normal;font-variant-numeric:normal;font-variant-alternates:normal;font-feature-settings:normal;text-indent:0;text-align:start;text-decoration:none;text-decoration-line:none;text-decoration-style:solid;text-decoration-color:#000;letter-spacing:normal;word-spacing:normal;text-transform:none;writing-mode:lr-tb;direction:ltr;text-orientation:mixed;dominant-baseline:auto;baseline-shift:baseline;text-anchor:start;white-space:normal;shape-padding:0;clip-rule:nonzero;display:inline;overflow:visible;visibility:visible;opacity:1;isolation:auto;mix-blend-mode:normal;color-interpolation:sRGB;color-interpolation-filters:linearRGB;solid-color:#000;solid-opacity:1;vector-effect:none;fill:#ffed1f;fill-opacity:1;fill-rule:nonzero;stroke:none;stroke-width:242.16894531;stroke-linecap:square;stroke-linejoin:miter;stroke-miterlimit:4;stroke-dasharray:none;stroke-dashoffset:0;stroke-opacity:1;color-rendering:auto;image-rendering:auto;shape-rendering:auto;text-rendering:auto;enable-background:accumulate"/><path style="color:#000;font-style:normal;font-variant:normal;font-weight:400;font-stretch:normal;font-size:medium;line-height:normal;font-family:sans-serif;font-variant-ligatures:normal;font-variant-position:normal;font-variant-caps:normal;font-variant-numeric:normal;font-variant-alternates:normal;font-feature-settings:normal;text-indent:0;text-align:start;text-decoration:none;text-decoration-line:none;text-decoration-style:solid;text-decoration-color:#000;letter-spacing:normal;word-spacing:normal;text-transform:none;writing-mode:lr-tb;direction:ltr;text-orientation:mixed;dominant-baseline:auto;baseline-shift:baseline;text-anchor:start;white-space:normal;shape-padding:0;clip-rule:nonzero;display:inline;overflow:visible;visibility:visible;opacity:1;isolation:auto;mix-blend-mode:normal;color-interpolation:sRGB;color-interpolation-filters:linearRGB;solid-color:#000;solid-opacity:1;vector-effect:none;fill:#ffed1f;fill-opacity:1;fill-rule:nonzero;stroke:none;stroke-width:242.16894531;stroke-linecap:square;stroke-linejoin:miter;stroke-miterlimit:4;stroke-dasharray:none;stroke-dashoffset:0;stroke-opacity:1;filter:url(#l);color-rendering:auto;image-rendering:auto;shape-rendering:auto;text-rendering:auto;enable-background:accumulate" d="M1352.701 89.95c-17.627 0-31.15 13.522-31.15 31.15v494.992c0 17.627 13.523 31.152 31.15 31.152h2106.512c17.627 0 31.15-13.525 31.15-31.152V121.1c0-17.628-13.523-31.15-31.15-31.15zm0 16.63h2106.512c8.702 0 14.52 5.818 14.52 14.52v494.992c0 8.702-5.818 14.521-14.52 14.521H1352.7c-8.702 0-14.527-5.82-14.527-14.521V121.1c0-8.702 5.825-14.52 14.527-14.52z" transform="matrix(.0834 0 0 .0826 -28.507 -5.537)"/><path style="fill:url(#m);fill-opacity:1;fill-rule:nonzero;stroke:none;stroke-width:1.12456894" d="M161.221 113.454c0 13.633-8.912 23.59-27.015 25.56-13.117 1.402-32.105-.25-41.11-1.282-.344-1.48-.609-3.306-.609-4.747 0-11.927 6.467-14.651 12.496-14.651 6.268 0 16.159 1.084 23.511 1.084 8.08 0 10.539-2.737 10.539-5.355 0-3.412-3.266-4.84-9.534-6.043l-17.164-3.306C98.041 101.977 90.411 92.086 90.411 81.6c0-12.747 9.019-23.418 26.777-25.388 13.422-1.455 29.752.185 38.717 1.282a21.4 21.4 0 0 1 .503 4.602c0 11.887-6.268 14.453-12.31 14.453-4.655 0-11.849-.873-20.073-.873-8.384 0-11.848 2.327-11.848 5.144 0 2.975 3.305 4.205 8.555 5.117l16.41 3.041c16.86 3.108 24.08 12.695 24.08 24.476m29.46 14.638c0 7.313-2.882 11.531-17.15 11.531-1.891 0-3.544-.132-5.13-.37V42.248c0-7.365 2.512-15.048 16.925-15.048 1.811 0 3.65.185 5.355.542zm58.34 37.528c1.865.952 5.713 2.115 10.553 2.247 8.277.186 12.813-3.001 16.158-10.42l44.47-99.199c-1.825-.992-5.885-2.09-9.217-2.169-5.712-.092-13.395 1.071-18.3 12.774l-14.4 33.997-28.245-46.017c-1.825-.555-6.268-1.349-9.534-1.349-9.957 0-15.537 3.676-21.316 9.944l-27.464 30.03 22.096 34.763c4.072 6.334 9.454 9.56 18.195 9.56 5.712 0 10.472-1.295 12.667-2.353l-26.591-40.092 18.843-19.967 30.915 48.515z" transform="matrix(.3153 0 0 .3121 -28.507 -5.537)"/><path transform="matrix(.0834 0 0 .0826 -28.507 -5.537)" d="M1339.842 68.596c-21.966 0-39.649 17.683-39.649 39.648v284.877c0-7.531 9.574-25.84 27.157-26.455l2155.86-75.322c13.87-.485 28.505-10.88 28.505-29.569v-153.53c0-21.966-17.683-39.65-39.649-39.65zm-639.395 34.207c-54.475 0-63.97 29.037-63.97 56.875v251.127c0-12.48 11.657-20.408 20.662-20.723l41.605-1.453c9.074-.317 21.945-7.54 21.945-20.23V104.851c-6.447-1.35-13.395-2.05-20.242-2.05zm208.555 106.902c-37.633 0-58.723 13.893-80.563 37.582L724.637 360.785l9.531 14.996c5.063 7.966 14.155 11.116 20.48 10.895l64.084-2.239c11.659-.407 18.435 4.933 23.596 10.643l-18.037-27.197 71.217-75.467 48.13 75.531c3.054 4.792 10.694 11.753 22.618 11.336l70.709-2.47c5.407-.19 7.66 1.718 11.584 6.632L945.035 214.803c-6.897-2.1-23.689-5.098-36.033-5.098zm-422.803.582c-14.72.035-29.412.663-43.283 2.166-67.12 7.447-101.203 47.78-101.203 95.957 0 25.464 11.905 50 34.746 67.031 32.12 20 85.705 21.455 105.914 20.748l85.604-2.992c22.07-.77 41.24 16.822 41.24 40.965.691-22.742-3.33-31.949-7.248-42.152-11.906-26.96-38.7-47.43-83.637-55.713l-62.021-11.494c-19.841-3.449-32.336-8.097-32.336-19.342 0-10.645 13.093-19.441 44.779-19.441 31.086 0 58.273 3.298 75.865 3.298 22.84 0 46.53-9.695 46.53-54.625 0-6.047-.652-11.545-1.901-17.392-23.296-2.852-59.748-6.672-96.74-6.994a566.854 566.854 0 0 0-6.309-.02zm685.049 1.666c-21.048.357-47.654 6.814-65.037 48.28L1053.746 384.1c3.385-7.991 10.38-8.236 14.652-8.385l56.256-1.965c8.368-.292 18.835-4.751 22.57-13.084l62.99-140.516c-6.896-3.748-22.239-7.897-34.833-8.197-1.35-.022-2.73-.024-4.133 0z" style="opacity:1;fill:url(#n);fill-opacity:1;stroke:none;stroke-width:387.95223999;stroke-linecap:square;stroke-linejoin:miter;stroke-miterlimit:4;stroke-dasharray:none;stroke-opacity:1"/></g></svg>