<?xml version="1.0" encoding="utf-8"?>
<!-- Generator: Adobe Illustrator 23.0.1, SVG Export Plug-In . SVG Version: 6.00 Build 0)  -->
<!DOCTYPE svg PUBLIC "-//W3C//DTD SVG 1.1//EN" "http://www.w3.org/Graphics/SVG/1.1/DTD/svg11.dtd" [
	<!ENTITY ns_extend "http://ns.adobe.com/Extensibility/1.0/">
	<!ENTITY ns_ai "http://ns.adobe.com/AdobeIllustrator/10.0/">
	<!ENTITY ns_graphs "http://ns.adobe.com/Graphs/1.0/">
	<!ENTITY ns_vars "http://ns.adobe.com/Variables/1.0/">
	<!ENTITY ns_imrep "http://ns.adobe.com/ImageReplacement/1.0/">
	<!ENTITY ns_sfw "http://ns.adobe.com/SaveForWeb/1.0/">
	<!ENTITY ns_custom "http://ns.adobe.com/GenericCustomNamespace/1.0/">
	<!ENTITY ns_adobe_xpath "http://ns.adobe.com/XPath/1.0/">
]>
<svg version="1.1" id="Livello_1" xmlns:x="&ns_extend;" xmlns:i="&ns_ai;" xmlns:graph="&ns_graphs;"
	 xmlns="http://www.w3.org/2000/svg" xmlns:xlink="http://www.w3.org/1999/xlink" x="0px" y="0px" viewBox="0 0 3053.1 500"
	 enable-background="new 0 0 3053.1 500" xml:space="preserve">
<metadata>
	<sfw  xmlns="&ns_sfw;">
		<slices></slices>
		<sliceSourceBounds  bottomLeftOrigin="true" height="500" width="3053.1" x="-6.1" y="-853.4"></sliceSourceBounds>
	</sfw>
</metadata>
<g>
	<g>
		<path fill="#9B001F" d="M3019.8,0h-607.9c-18.4,0-33.3,14.9-33.3,33.3v433.3c0,18.4,14.8,33.3,33.3,33.3h607.9
			c18.4,0,33.3-14.9,33.3-33.3V33.4C3053.1,14.9,3038.3,0,3019.8,0 M3019.8,10c12.9,0,23.3,10.5,23.3,23.3v433.3
			c0,12.8-10.5,23.3-23.3,23.3h-607.9c-12.9,0-23.3-10.5-23.3-23.3V33.4c0-12.9,10.5-23.3,23.3-23.3H3019.8"/>
		<path fill="#FFFFFF" d="M3019.8,10c12.9,0,23.3,10.5,23.3,23.3v433.3c0,12.8-10.5,23.3-23.3,23.3h-607.9
			c-12.9,0-23.3-10.5-23.3-23.3V33.4c0-12.9,10.5-23.3,23.3-23.3H3019.8"/>
		<path fill="#B2002B" d="M2724.8,153.8v184.7c0,8.1-4.1,12.6-16.7,12.6c-5.7,0-11-0.8-15.1-1.6v-85h-105.4v74.1
			c0,8.1-4.1,12.6-16.7,12.6c-6.1,0-12.2-0.8-15.1-1.6V164.8c0-7.8,4.1-12.6,17.1-12.6c5.7,0,11.3,0.8,14.6,1.6V236h104.9v-71.2
			c0-7.8,4.5-12.6,17.5-12.6C2715.9,152.2,2721.5,153,2724.8,153.8"/>
		<path fill="#B2002B" d="M2941,251.4c0,55.4-38.7,97.3-99.3,97.3h-56.5c-12.2,0-16.7-4.9-16.7-12.6V167.2c0-7.7,4.5-12.6,16.7-12.6
			h56.5C2902.3,154.6,2941,196.1,2941,251.4 M2908.8,251.4c0-41.5-26-68.4-67.1-68.4h-41.5v137.1h41.5
			C2882.8,320.2,2908.8,293.3,2908.8,251.4"/>
	</g>
	<g id="layer1_1_" transform="translate(-15.060659,-164.8585)">
		<path id="path15585_1_" fill="#FF0031" d="M238.3,464.7c0,43-28,74.2-85.2,80.4c-41.2,4.4-101-0.8-129.4-4c-1-4.6-1.8-10.4-1.8-15
			c0-37.4,20.2-46,39.2-46c19.8,0,51,3.4,74,3.4c25.6,0,33.2-8.6,33.2-16.8c0-10.8-10.2-15.2-30-19l-54.2-10.4
			c-45-8.6-69-39.6-69-72.6c0-40,28.4-73.6,84.4-79.8c42.2-4.6,93.8,0.6,122,4c1,4.8,1.6,9.4,1.6,14.4c0,37.4-19.8,45.4-38.8,45.4
			c-14.6,0-37.2-2.6-63.2-2.6c-26.4,0-37.2,7.2-37.2,16c0,9.4,10.4,13.2,26.8,16.2l51.6,9.6C215.5,397.5,238.3,427.7,238.3,464.7
			 M330.9,510.7c0,23-9,36.2-54,36.2c-6,0-11.2-0.4-16.2-1.2V240.9c0-23.2,7.8-47.4,53.2-47.4c5.8,0,11.6,0.6,17,1.8V510.7z
			 M514.7,628.7c6,3,18,6.8,33.2,7c26.2,0.6,40.4-9.4,51-32.8l140-311.6c-5.8-3-18.6-6.6-29-6.8c-18-0.4-42.2,3.2-57.6,40
			l-45.6,106.6l-89-144.6c-5.8-1.8-19.8-4.2-30-4.2c-31.6,0-49,11.6-67.2,31.2l-86.4,94.4l69.6,109.4c12.8,20,29.8,30.2,57.2,30.2
			c18,0,33-4.2,40-7.4l-83.8-126l59.4-63l97.4,152.6L514.7,628.7z"/>
		
			<linearGradient id="path15335_2_" gradientUnits="userSpaceOnUse" x1="749.6072" y1="-1582.4252" x2="969.6575" y2="-1582.4252" gradientTransform="matrix(7.5001 0 0 -7.5001 -4808.668 -11453.4883)">
			<stop  offset="0" style="stop-color:#FF0031"/>
			<stop  offset="1" style="stop-color:#9B001F"/>
		</linearGradient>
		<path id="path15335_1_" fill="url(#path15335_2_)" d="M2430.7,164.9H846.9c-18.4,0-33.4,15-33.4,33.4v433.2
			c0,18.4,15,33.4,33.4,33.4h1583.6c18.4,0,33.4-15,33.4-33.4V198.1C2463.7,179.7,2449.1,164.9,2430.7,164.9"/>
		
			<linearGradient id="path15297-4_2_" gradientUnits="userSpaceOnUse" x1="858.5753" y1="-1058.7648" x2="863.0178" y2="-1058.7648" gradientTransform="matrix(-1.3157 -37.6778 -37.6778 1.3157 -38381.9727 34169.7969)">
			<stop  offset="0" style="stop-color:#FFFFFF"/>
			<stop  offset="0.5" style="stop-color:#FFFFFF;stop-opacity:0.4"/>
			<stop  offset="1" style="stop-color:#FFFFFF;stop-opacity:0.25"/>
		</linearGradient>
		<path id="path15297-4_1_" opacity="0.3" fill="url(#path15297-4_2_)" enable-background="new    " d="M260.9,240.9v209
			c0-8.4,6.4-17.2,17.2-17.6l0,0c7.6-0.2,28.8-1,35.2-1.2l0,0c7-0.2,17.6-5,17.8-17.8l0,0v-218c-5.4-1.2-11.2-1.8-17-1.8l0,0
			C268.7,193.7,260.9,217.7,260.9,240.9 M420.9,313.7l-86.4,94.4l7,10.8c3,4,8.8,10.8,20.4,10.4l0,0c4.2-0.2,45.8-1.6,49.2-1.8l0,0
			c10.8-0.4,17.6,4.2,21.8,9.8l0,0l0,0l-15.4-23.2l59.4-63l39.8,62.6l0,0c7.2,9.4,18,9.6,20.4,9.6l0,0c2,0,54.4-1.8,56.6-2l0,0
			c3.6-0.2,7.8,1.8,11,6.4l0,0l-86.6-140.8c-5.8-1.8-19.8-4.2-30-4.2l0,0C456.5,282.5,439.1,293.9,420.9,313.7 M99.5,284.7
			c-56,6.2-84.4,39.6-84.4,79.8l0,0c0,20.6,9.4,40.4,27.4,54.6l0,0c13.6,9,27.6,12.4,41.4,14.8l0,0c11.4,2,38,3.8,57.8,3l0,0
			c6.2-0.2,51.8-1.8,61.6-2.2l0,0c23.2-0.8,35.6,19,34.4,38.8l0,0c0-0.2,0-0.6,0-0.8l0,0v-0.2l0,0c0.2-2.6,0.4-5.2,0.4-7.8l0,0
			c0-37-22.8-67.2-75.8-77l0,0l-51.6-9.6c-16.6-2.8-26.8-6.8-26.8-16.2l0,0c0-8.8,11-16.2,37.2-16.2l0,0c26,0,48.6,2.6,63.2,2.6l0,0
			c19,0,38.8-8,38.8-45.4l0,0c0-5-0.6-9.6-1.6-14.4l0,0c-20.2-2.4-52.6-5.8-84.8-5.8l0,0C124.1,282.9,111.5,283.5,99.5,284.7
			 M652.1,324.5l-44.2,104.2l0,0c0-0.2,2.8-8.2,11.4-8.6l0,0c0,0,43.6-1.6,46.8-1.6l0,0c14.2-0.6,19.8-10.2,21.4-13.4l0,0
			l51.2-114.2c-5.8-3-18.6-6.6-29-6.8l0,0c-0.8,0-1.4,0-2.2,0l0,0C689.7,284.3,666.9,289.1,652.1,324.5"/>
		
			<linearGradient id="path15555_2_" gradientUnits="userSpaceOnUse" x1="868.5419" y1="-1081.389" x2="872.9849" y2="-1081.389" gradientTransform="matrix(-1.9565 -56.0258 -56.0258 1.9565 -57245.1328 51169.0352)">
			<stop  offset="0" style="stop-color:#FFFFFF"/>
			<stop  offset="0.5" style="stop-color:#FFFFFF;stop-opacity:0.4"/>
			<stop  offset="1" style="stop-color:#FFFFFF;stop-opacity:0.25"/>
		</linearGradient>
		<path id="path15555_1_" opacity="0.3" fill="url(#path15555_2_)" enable-background="new    " d="M846.9,164.9
			c-18.4,0-33.4,15-33.4,33.4l0,0v240.4v0.2v-0.2c0-3.6,1.4-23.4,24-25.6l0,0c0,0,1.2-0.2,3.2-0.2l0,0
			c98.6-3.4,1598.4-56.4,1598.4-56.4l0,0c12.6-0.4,24.8-9.8,24.8-25.4l0,0V198.5c0-18.4-15-33.4-33.4-33.4l0,0L846.9,164.9z"/>
		<g>
			<path fill="#FFFFFF" d="M901.7,417.6c0-70.2,51.5-122.2,119.7-122.2c31.9,0,61.4,8.8,82,18.6c3.4,22.1-3.5,30.9-13.3,30.9
				c-17.2,0-31.9-14.2-67.2-14.2c-44.2,0-80.5,32.9-80.5,86.9c0,53.5,36.3,86.9,80.5,86.9c35.3,0,50.1-14.7,65.8-14.7
				c10.3,0,17.6,9.3,14.7,31.4c-20.6,10.3-50.1,19.1-82,19.1C953.2,540.3,901.7,487.3,901.7,417.6"/>
			<path fill="#FFFFFF" d="M2110.2,380.8v141.9c0,9.8-5.4,15.2-21.6,15.2c-6.9,0-14.7-1-18.6-2V385.7c0-34.4-16.2-54.5-47.1-54.5
				c-26,0-47.6,18.1-56.4,36.8v154.6c0,9.8-5.4,15.2-21.6,15.2c-6.9,0-14.7-1-18.6-2V385.7c0-34.4-16.2-54.5-47.1-54.5
				c-26,0-47.6,18.1-56.4,36.8v154.6c0,9.8-5.4,15.2-21.6,15.2c-6.8,0-14.7-1-18.6-2v-236c3.9-1,11.8-2,19.1-2
				c15.2,0,20.6,5.9,20.6,16.2v16.2c15.2-20.1,38.8-34.9,67.3-34.9c31.4,0,55.9,15.7,68.2,42.7c16.2-24.5,40.7-42.7,75.6-42.7
				C2083.7,295.4,2110.2,333.2,2110.2,380.8"/>
			<path fill="#FFFFFF" d="M1730.8,432.3h-182.6c5.4,45.7,36.8,71.2,83.4,71.2c20.1,0,35.8-4,50.6-8.8c10.3-3.5,14.7-4.9,18.6-4.9
				c11.3,0,18.6,9.3,16.7,30.9c-21.1,9.3-53.5,19.6-87.4,19.6c-73.6,0-123.2-49.5-123.2-123.2c0-70.7,52.6-121.7,116.8-121.7
				c72.7,0,108.5,56.4,108.5,113.4C1732.3,415.7,1731.8,424,1730.8,432.3 M1548.2,400.9H1693c-1.5-40.2-27.5-71.7-69.2-71.7
				C1587.5,329.3,1554.6,354.3,1548.2,400.9"/>
			<path fill="#FFFFFF" d="M1459.2,395.5v127.1c0,9.3-5.4,15.2-21.6,15.2c-6.8,0-14.7-1-18.6-2v-135c0-47.1-23.1-69.7-57.9-69.7
				c-27,0-56.4,18.7-68.2,40.7v150.7c0,9.3-5.4,15.2-21.6,15.2c-6.9,0-14.7-1-18.6-2V299.8c3.9-1,11.8-2,18.6-2
				c16.2,0,21.6,5.9,21.6,15.2v20.1c17.2-21.1,43.2-37.8,78-37.8C1419,295.4,1459.2,325.8,1459.2,395.5"/>
			<path fill="#FFFFFF" d="M2361.1,384.7v151.2c-3.9,1-11.3,2-18.1,2c-14.7,0-21.6-5.4-21.6-15.2V502
				c-21.1,24.1-48.6,38.3-83.5,38.3c-52.5,0-81.5-34.3-81.5-71.7c0-56.9,60.9-82,164.4-75.1v-8.3c0-38.8-11.8-55-56.4-55
				c-18.6,0-43.7,5.4-56.9,8.8c-7.9,2-13.8,3.9-18.6,3.9c-11.3,0-18.7-9.8-14.8-30.4c24.1-8.8,58.9-17.2,92.3-17.2
				C2335.6,295.4,2361.1,326.3,2361.1,384.7 M2320.9,467.2v-44.7c-67.7-4.9-124.2,3.9-124.2,44.7c0,20.6,17.2,39.2,48.1,39.2
				C2276.2,506.4,2303.7,490.8,2320.9,467.2"/>
			<path fill="#FFFFFF" d="M1143.5,246.3c0-14.7,11.8-25.5,25.5-25.5c14.8,0,26,10.8,26,25.5c0,13.3-11.3,25.5-26,25.5
				C1155.3,271.8,1143.5,259.6,1143.5,246.3 M1148.9,535.9V313.1c0-9.3,5.4-15.2,21.6-15.2c6.9,0,14.2,1,18.1,2v222.8
				c0,9.8-4.9,15.2-21.1,15.2C1160.7,537.9,1152.9,536.9,1148.9,535.9"/>
		</g>
	</g>
</g>
</svg>
