<svg viewBox="0 0 3216 500" xml:space="preserve" style="fill-rule:evenodd;clip-rule:evenodd;stroke-linejoin:round;stroke-miterlimit:2" xmlns="http://www.w3.org/2000/svg"><path d="M3182.03 499.996H2077.88c-18.395 0-33.308-14.913-33.308-33.308V33.308c0-18.395 14.913-33.308 33.308-33.308h1104.15c18.396 0 33.305 14.913 33.305 33.308v433.38c0 18.395-14.909 33.308-33.305 33.308" style="fill:#fff;fill-rule:nonzero"/><path style="fill:#fff" d="M2181.23 20.833h457.458v458.333H2181.23z"/><path d="m2577.51 403.536-5.842 18.225h11.629l-5.787-18.225zm7.812 25.517h-15.796l-2.837 8.445h-10.009l14.405-40.325h12.85l14.345 40.325h-10.125l-2.833-8.445zm-32.879-14.871v21.929c-3.758 1.271-8.738 2.083-13.942 2.083-14.004 0-20.6-6.191-20.6-20.887 0-14.579 6.596-20.888 20.6-20.888 4.975 0 9.717.809 13.309 2.254v7.813c-3.938-1.329-8.334-2.142-12.5-2.142-8.446 0-11.109 3.417-11.109 12.963 0 9.95 2.779 13.25 10.763 13.25 1.791 0 3.583-.117 5.262-.35v-9.025h-7.462v-7h15.679zm-51.758-17.009h10.066v40.33h-10.066v-40.33zm-33.659 0h10.067v32.63h17.3v7.695h-27.367v-40.325zm-36.808 38.763v-7.867c4.858 1.617 9.2 2.2 13.479 2.2 4.629 0 6.654-1.216 6.654-4.341 0-2.721-.866-3.53-4.571-4.284l-6.712-1.387c-7-1.446-9.313-4.284-9.313-11.167 0-8.854 5.209-12.671 15.68-12.671 4.741 0 9.2.809 12.845 2.2v7.867c-4.341-1.504-8.333-2.142-12.266-2.142-4.975 0-6.654 1.334-6.654 4.459 0 2.604 1.158 3.354 4.395 4.05l6.538 1.387c7.583 1.621 9.667 4.167 9.667 11.396 0 8.625-5.325 12.558-16.205 12.558-4.741 0-9.312-.754-13.537-2.258m-34.604-38.763h28.237v7.692h-18.171v8.504h15.105v7.584h-15.105v8.85h18.575v7.695h-28.641v-40.325zm-25.442 32.63c5.904 0 7.813-3.067 7.813-12.496 0-9.375-1.909-12.442-7.813-12.442h-7.637v24.938h7.637zm-17.704-32.63h17.996c14.116 0 17.821 5.784 17.821 20.134 0 13.941-4.05 20.191-17.821 20.191h-17.996v-40.325zm-8.283 0v40.325h-12.267l-17.125-29.162v29.162h-9.375v-40.325h12.267l17.125 29.159v-29.159h9.375zm-82.28 27.192v-27.192h10.071v26.904c0 4.455 2.025 6.13 7.463 6.13 5.441 0 7.462-1.675 7.462-6.13v-26.904h10.067v27.192c0 9.487-5.496 13.829-17.529 13.829-12.034 0-17.534-4.342-17.534-13.829m-16.341 1.158c0-3.704-1.504-5.266-4.921-5.266h-9.025v10.416h9.025c3.587 0 4.921-1.508 4.921-5.15m-13.946-11.516h8.45c3.354 0 4.858-1.446 4.858-4.917 0-3.646-1.387-5.092-4.858-5.092h-8.45v10.009zm23.725 12.5c0 7.175-3.358 10.991-12.442 10.991h-20.887v-40.325h20.137c9.371 0 12.613 3.7 12.613 10.529 0 5.209-1.971 7.58-7.525 8.967l-1.042.292.929.171c6.25 1.391 8.217 3.704 8.217 9.375" style="fill:#1d1d1b;fill-rule:nonzero"/><path style="fill:#e3051b" d="M2222.02 62.5h375v300h-375z"/><path d="M2555.3 169.071c-11.504 0-20.833 9.329-20.833 20.834 0 11.508 9.329 20.833 20.833 20.833 11.508 0 20.833-9.325 20.833-20.833 0-11.505-9.325-20.834-20.833-20.834m-24.183 51.363c.208.75-.459 1.258-1.809 2.254l-.82.454.275.542c.187.346-.125.879-.7 1.162l-1.234.625c-.566.292-1.175.229-1.35-.125l-.258-.5-1.55.763.246.525c.171.358-.159.875-.742 1.141l-1.254.584c-.575.266-1.179.191-1.35-.179l-.225-.471c-4.808 2.271-10.183 4.662-15.733 7.233l.308.713c.183.354-.158.862-.725 1.133l-1.258.587c-.58.263-1.192.18-1.346-.175l-.329-.704-1.78.867.334.717c.162.362-.159.866-.746 1.141l-1.25.579c-.588.271-1.183.196-1.35-.166l-.325-.692c-2.513 1.008-5.258 1.429-7.263-2.304-.854-1.738-.895-5.713-1.554-7.842-.341-1.1-1.625-1.296-1.625-1.296-24.429-4.691-32.708.53-48.358-3.341-4.929-1.213-7.604-5.729-13.671-5.804-13.175-.392-17.129-.209-31.475-.75-.612 2.079-.696 2.529-.696 2.529l-50.412-.234 7.712 3.775 2.475 22.242s-2.037.592-2.637.663c.491 4.475.958 10.433 1.204 15.841.217 4.846.479 9.904.421 13.125-.013 1.025-.029 3.384-1.417 6.004-.917 1.725-2.512 3.13-3.775 4.092-.45.346-2.404 1.663-4.658 2.992a102.631 102.631 0 0 1-6.321 3.4c.142.629.55 1.237.717 1.733-30.659 14.8-68.663 19.858-80.967 43.404-1.425 2.725-6.421 1.304-6.567-1.625a66.706 66.706 0 0 1 .029-4.754l-.445-.021c-.4-.012-.7-.541-.671-1.183l.058-1.383c.029-.634.375-1.134.771-1.109l.525.025c.162-1.366.417-2.725.783-4.033l-.471-.167c-.37-.137-.491-.733-.283-1.333l.463-1.292c.22-.604.679-.979 1.075-.85l.45.167c2.187-5.104 6.412-7.392 8.375-12.192l-.317-.112c-.392-.146-.513-.738-.3-1.338l.462-1.3c.221-.596.692-.975 1.071-.837l.338.112c.287-.704.633-1.479 1.016-2.241l-.408-.275c-.35-.221-.346-.83 0-1.363l.754-1.158c.325-.538.871-.792 1.213-.575l.175.096.183.05c.096 0 .146-.055.25-.109.2-.221.408-.425.604-.6 2.021-1.575 4.488-1.308 6.504-.087 1.925 1.166 9.446 5.454 16.705-1.067 11.945-10.725 25.925-25.3 36.437-25.8-2.854-6.142-7.804-19.025-8.367-23.775l-3.533-.754c-1.833-3.95-6.312-22.225-7.575-35.958 0 0-1.496-14.796-.062-20-.809-.084-2.3 1.133-2.709 1.141-1.929-4.712 4.329-44.587 10.504-56.2l9.484-3.779c-.979-.117-7.834-.429-25.859-1.9-10.045 8.9-21.675 18.5-27.562 23.725-.996.725-2.683 6.433-2.683 6.433s-2.988 2.617-5.742 4.55c-3.646 2.555-12.575 4.525-14.504 1.505-.45-.759-.363-1.08.058-1.517 1.388-1.446 6.604-3.942 8.363-7.242-2.842 1.421-6.03 2.959-8.509 2.692-1.087-.063-1.646-2.721-.241-3.208 3.787-1.609 6.787-2.3 9.016-5.438 2.146-3.017 4.771-5.046 8.209-5.112 0 0 16.758-21.892 26.633-32.284 2.733-2.854 7.8-1.908 7.8-1.908l.854-3.317s33.871-4.037 49.621 1.184c-.371-9.575 3.929-22.284 18.908-22.284 7.704 0 19.029 6.813 20.546 15.075.467 2.546-1 4.234-1.779 7.446-1.342 4.875.521 10.271-.046 11.975-.446 1.388-2.017 1.279-3.379 3.171-1.475 2.058-3.096 5.842-3.096 5.842l-2.042 4.579-10.562-.759c-3.858 8.338-11.8 25.321-14.554 42.15h.008c8.292.709 45.858 6.142 45.858 6.142l.909 3.063s15.829 1.9 28.783 8.062c2.892.704 10.179-.383 14.954 1.817.317-.196 1.113-1 1.409-1.217 16.891 5.196 30.85 14.054 47.137 17.988 0 0 7.613 1.854 10.175 2.354 6.021 1.171 9.888 1.421 13.071 1.675 5.225.416 8.112.333 11.925.558 2.704.158 6.004-.292 7.071 3.642" style="fill:#fff;fill-rule:nonzero"/><path d="M2810.53 135.266v222.617c0 9.892-4.945 15.333-20.775 15.333-6.925 0-14.35-.987-18.312-1.979V177.316l-44.521 13.854c-20.775 6.43-29.679-6.433-25.725-30.179l73.713-24.241c16.325-5.442 26.22-4.946 35.62-1.484M3047.97 251.522c0-54.421-31.167-87.563-69.75-87.563-39.088 0-70.25 33.142-70.25 87.563 0 53.921 31.162 88.054 70.25 88.054 38.583 0 69.75-34.133 69.75-88.054m-179.084 0c0-70.746 42.542-123.179 109.334-123.179 66.779 0 108.829 52.433 108.829 123.179 0 70.246-42.05 123.675-108.829 123.675-66.792 0-109.334-53.429-109.334-123.675" style="fill:#253183;fill-rule:nonzero"/><path d="M831.917 0c-18.413 0-33.334 14.921-33.334 33.333v433.334c0 18.412 14.921 33.333 33.334 33.333h1249.56c18.408 0 33.334-14.921 33.334-33.333l-.001-433.334C2114.811 14.921 2099.886 0 2081.477 0H831.917z" style="fill:url(#a);fill-rule:nonzero"/><path d="M245.658 76.233v304.946c4.996.754 10.184 1.142 16.138 1.142 44.954 0 53.992-13.233 53.992-36.246V30.588c-5.388-1.159-11.155-1.734-16.917-1.734-45.338 0-53.213 24.171-53.213 47.379zm159.938 72.871-86.454 94.371 69.546 109.317c12.875 19.941 29.779 30.104 57.258 30.104 18.058 0 33.042-4.217 39.958-7.471l-83.771-126.012 59.367-62.9 97.408 152.662-59.366 124.854c5.958 3.063 18.058 6.704 33.237 7.092 26.129.575 40.35-9.392 50.917-32.796L723.75 126.479c-5.762-3.071-18.633-6.521-29.008-6.712-18.059-.379-42.267 3.262-57.638 40.087l-45.337 106.817-88.954-144.604c-5.767-1.734-19.796-4.217-29.975-4.217-31.509 0-48.992 11.504-67.242 31.254zM84.342 120.15C28.433 126.288 0 159.854 0 199.938c0 32.979 24.017 64.054 68.971 72.679l54.183 10.358c19.784 3.842 29.971 8.246 29.971 18.996 0 8.242-7.687 16.871-33.237 16.871-23.055 0-54.18-3.45-73.971-3.45-19.017 0-39.188 8.629-39.188 46.025 0 4.608.763 10.358 1.725 14.958 28.434 3.267 88.184 8.446 129.492 4.033 57.058-6.141 85.112-37.404 85.112-80.362 0-37.013-22.866-67.129-75.891-76.904l-51.684-9.592c-16.525-2.879-26.895-6.717-26.895-16.117 0-8.816 10.95-16.104 37.27-16.104 25.938 0 48.609 2.684 63.213 2.684 19.017 0 38.804-8.059 38.804-45.455 0-4.987-.575-9.591-1.533-14.383-20.275-2.475-52.525-5.846-84.746-5.842-12.667 0-25.329.517-37.254 1.817zM894.485 359.249c-2.946-20.613 3.433-31.413 15.212-31.413 11.292 0 38.779 12.271 77.063 12.271 40.25 0 55.462-14.233 55.462-32.883 0-13.254-5.887-25.034-42.212-34.85l-41.721-11.292c-46.138-12.267-64.296-35.337-64.296-63.804 0-35.338 27.979-66.754 91.292-66.754 28.47 0 63.808 6.383 85.404 14.729 3.925 20.121-2.454 30.921-14.725 30.921-10.796 0-35.338-10.309-70.188-10.309-37.3 0-51.046 12.759-51.046 29.446 0 11.784 5.4 22.579 38.78 31.909l42.7 11.779c47.608 13.25 66.75 35.337 66.75 66.75 0 36.812-28.467 69.7-97.184 69.7-30.433 0-68.225-7.367-91.291-16.2M1324.99 252.743c0-51.538-34.359-86.88-80.496-86.88-31.413 0-60.375 18.163-73.625 44.667v84.913c13.25 26.504 42.212 44.666 73.625 44.666 46.137 0 80.496-35.341 80.496-87.366m40.737 0c0 77.058-53.991 122.704-113.383 122.704-35.338 0-64.296-16.688-81.475-40.246v99.146c0 9.325-5.396 15.212-21.104 15.212-7.85 0-15.217-.979-19.142-1.958V134.947c3.925-.988 11.292-1.967 19.142-1.967 15.708 0 21.104 5.892 21.104 15.213v22.579c17.179-23.559 46.137-40.246 81.475-40.246 59.392 0 113.383 45.646 113.383 122.217M1604.66 252.743c0-53.992-36.325-86.88-80.496-86.88-43.687 0-80.008 32.888-80.008 86.88 0 53.5 36.321 87.366 80.008 87.366 44.171 0 80.496-33.866 80.496-87.366m-201.242 0c0-70.192 51.538-122.217 120.746-122.217 69.696 0 121.229 52.025 121.229 122.217 0 69.695-51.533 122.704-121.229 122.704-69.208 0-120.746-53.009-120.746-122.704M1840.01 152.613c0 16.2-6.867 19.633-23.559 19.633-33.866 0-62.333 15.704-80 52.517v133.012c0 9.821-5.4 15.221-21.6 15.221-6.87 0-14.725-.983-18.654-1.967V134.946c3.929-.988 11.784-1.967 18.654-1.967 16.2 0 21.6 5.892 21.6 15.213v32.887c23.067-34.846 57.913-52.512 101.596-46.625.492 3.434 1.963 10.796 1.963 18.159M2016.51 359.249c-20.616 9.816-44.179 16.2-67.737 16.2-46.625 0-74.604-27.488-74.604-73.134V99.607c0-10.308 5.891-17.183 21.595-17.183 6.875 0 14.73 1.475 18.655 2.454v51.046h91.783c.492 3.437 1.471 10.308 1.471 16.2 0 14.233-5.888 19.141-14.721 19.141h-78.533V299.37c0 27.487 12.762 40.737 38.775 40.737 23.558 0 36.812-10.304 48.1-10.304 11.779 0 17.67 9.812 15.216 29.446" style="fill:#fff;fill-rule:nonzero"/><path style="opacity:.9;fill:#e3051b;fill-opacity:1;stroke-width:2.84854" d="M1229.144 339.122c-23.141-5.13-43.452-18.489-53.957-35.485-5.195-8.407-5.862-14.078-5.862-49.883 0-44.45 1.362-49.47 17.56-64.731 17.51-16.496 32.51-22.28 57.926-22.334 20.042-.044 24.65.98 38.23 8.496 38.115 21.095 53.29 73.692 34.118 118.258-6.723 15.628-25.484 34.588-40.386 40.815-12.786 5.342-35.166 7.628-47.629 4.864zM1507.545 338.808c-16.557-4.028-31.664-12.74-41.476-23.915-12.748-14.52-17.095-24.174-20.817-46.233-7.93-47.002 16.879-89.657 58.733-100.983 28.41-7.688 65.458 4.93 83.237 28.35 26.755 35.242 22.348 93.688-9.262 122.825-6.767 6.238-16.68 13.17-22.03 15.406-13.397 5.597-35.529 7.679-48.385 4.55z"/><path style="opacity:.9;fill:#e3051b;fill-opacity:1;stroke-width:2.84854" d="M817.384 496.923c-19.369-9.559-18.369 4.002-18.369-249.112V19.37l9.685-9.686L818.385 0h635.65c562.604 0 636.611.497 644.007 4.321 17.697 9.152 16.998-1.024 16.998 247.25 0 225.09-.03 226.253-5.949 233.778-13.534 17.206 35.871 16-652.634 15.929-555.605-.057-631.412-.574-639.073-4.355zm348.38-53.293c2.618-2.061 3.561-16.669 3.561-55.153 0-28.792.432-52.35.96-52.35.529 0 6.11 4.899 12.404 10.886 40.664 38.683 108.983 35.436 149.202-7.09 36.117-38.188 43.359-98.237 17.968-148.99-11.65-23.287-26.563-37.49-51.998-49.522-16.816-7.955-21.655-8.922-44.504-8.895-22.017.026-28.05 1.15-42.728 7.964-9.4 4.363-22.54 13.262-29.198 19.776l-12.106 11.842v-16.16c0-18.907-3.43-22.057-24.025-22.057h-13.006v312.961l7.834 1.113c9.55 1.357 20.84-.547 25.636-4.325zm-137.263-74.916c29.814-8.167 49.85-28.928 51.912-53.79 1.833-22.1-1.211-34.396-11.383-45.98-12.165-13.856-28.788-21.636-76.594-35.846-47.725-14.187-57.83-20.824-57.83-37.981 0-26.953 38.545-36.677 96.565-24.363 22.649 4.807 26.384 4.96 32.046 1.31 4.862-3.134 6.41-6.84 6.41-15.35 0-10.997-.281-11.301-14.228-15.443-58.169-17.274-118.028-11.138-143.101 14.668-12.626 12.995-16.433 22.403-16.433 40.61 0 36.323 17.727 51.05 83.883 69.692 53.486 15.07 62.946 21.405 62.412 41.784-.355 13.52-8.579 23.508-23.514 28.56-15.287 5.17-55.224 3.826-84.325-2.84-23.12-5.295-26.282-5.45-32.202-1.577-5.41 3.54-6.412 6.375-5.697 16.121l.868 11.827 19.94 5.139c39.51 10.182 81.917 11.5 111.271 3.46zm549.34-6.415c73.089-34.202 89.509-142.718 30.016-198.366-57.89-54.15-155.419-38.343-189.209 30.666-31.54 64.415-6.997 141.01 54.156 169.006 30.035 13.75 74.03 13.204 105.038-1.306zm417.56 4.039c17.845-5.977 18.547-6.572 19.379-16.427 1.078-12.783-5.721-20.573-16.277-18.648-4.056.74-15.766 3.539-26.022 6.22-15.306 4-20.82 4.289-30.772 1.609-26.354-7.096-28.879-16.005-28.9-101.951l-.015-66.229h42.524c49.052 0 51.477-1.016 51.477-21.567V136.73h-94.001v-25.332c0-20.472-.865-25.664-4.506-27.061-8.403-3.225-20.475-1.75-26.64 3.256-6.135 4.98-6.14 5.095-5.3 123.199l.839 118.214 7.909 13.455c18.031 30.674 61.753 40.138 110.305 23.877zm-263.378 1.03c3.444-2.857 4.161-15.579 4.161-73.76v-70.307l8.246-13.002c14.804-23.343 36.33-35.595 67.683-38.523 22.991-2.147 27.176-5.887 26.049-23.285l-.855-13.185-19.94.161c-25.938.21-47.523 9.813-66.997 29.806l-14.186 14.565v-18.264c0-23.33-4.618-28.422-24.623-27.149l-13.832.88-.744 117.288c-.696 109.902-.427 117.378 4.273 118.734 7.775 2.242 26.141-.12 30.765-3.958z"/><defs><linearGradient id="a" x1="0" y1="0" x2="1" y2="0" gradientUnits="userSpaceOnUse" gradientTransform="rotate(-92 972.053 -459.583) scale(492.1088)"><stop offset="0" style="stop-color:#cc1316;stop-opacity:1"/><stop offset=".2" style="stop-color:#cc1316;stop-opacity:1"/><stop offset=".55" style="stop-color:#e30613;stop-opacity:1"/><stop offset="1" style="stop-color:#e30613;stop-opacity:1"/></linearGradient></defs></svg>