<?xml version="1.0" encoding="UTF-8" standalone="no"?>
<svg
   width="923.292"
   height="121.047"
   version="1.1"
   id="svg2481"
   sodipodi:docname="sky-sport-f1-hd-logo-min.svg"
   inkscape:version="1.1.1 (3bf5ae0d25, 2021-09-20)"
   xmlns:inkscape="http://www.inkscape.org/namespaces/inkscape"
   xmlns:sodipodi="http://sodipodi.sourceforge.net/DTD/sodipodi-0.dtd"
   xmlns="http://www.w3.org/2000/svg"
   xmlns:svg="http://www.w3.org/2000/svg">
  <defs
     id="defs2453" />
  <sodipodi:namedview
     id="namedview2451"
     pagecolor="#ffffff"
     bordercolor="#666666"
     borderopacity="1.0"
     inkscape:pageshadow="2"
     inkscape:pageopacity="0.0"
     inkscape:pagecheckerboard="0"
     showgrid="false"
     inkscape:zoom="1.3029464"
     inkscape:cx="461.646"
     inkscape:cy="60.248064"
     inkscape:window-width="1920"
     inkscape:window-height="1017"
     inkscape:window-x="-8"
     inkscape:window-y="-8"
     inkscape:window-maximized="1"
     inkscape:current-layer="svg2481" />
  <path
     style="stroke-width:0.464317;fill:#ffffff"
     d="M0 0h923.292v121.047H0z"
     id="path2419" />
  <path
     style="fill:#002a91"
     d="M916.228.323h-399.6c-4.5 0-8.1 3.6-8.1 8.1v105c0 4.5 3.6 8.1 8.1 8.1h399.6c4.5 0 8.1-3.6 8.1-8.1v-105c0-4.4-3.5-8-7.9-8.1h-.2m.1 2.4c3.1 0 5.6 2.5 5.6 5.6v105c0 3.1-2.5 5.6-5.6 5.6h-399.7c-3.1 0-5.6-2.5-5.7-5.6v-105c0-3.1 2.5-5.6 5.7-5.6h399.7"
     id="path2421" />
  <path
     d="M596.928 63.323c-6.2 5.9-19.8 19-27 26.1h-32.2s25.8-25.7 40.1-39.8c14.8-14.1 22.1-17.3 49.2-17.3h98.5l-21.3 21.3h-75.2c-19 .1-23.3 1.4-32.1 9.7m103.8-6.1h-69c-21 0-24.7 1.1-33.7 10.1l-22.1 22.1h29.9l7.1-7.1c4.7-4.7 7.1-5.2 17-5.2h51zm8.1 32.2 57-57h-34.3l-57 57zm14.5-6h2.3v6.1h1.3v-6.1h2.3v-1.1h-5.8v1.1zm6.6 6h1.2v-5.5l2 5.5h1l2-5.5v5.5h1.2v-7.1h-1.8l-1.9 5.6-2-5.6h-1.8z"
     id="path2423"
     style="fill:#ff1e00" />
  <path
     style="fill:#002a91"
     d="M777.228 106.123c-.9 0-1.6-.7-1.6-1.6v-87.2c0-.9.7-1.6 1.6-1.6.9 0 1.6.7 1.6 1.6v87.2c0 .9-.7 1.6-1.6 1.6m68.5-68.5v44.7c0 2-1 3-4 3-1.2 0-2.5-.1-3.7-.4v-20.6h-25.5v17.9c0 2-1 3-4 3-1.2 0-2.5-.1-3.7-.4v-44.8c0-1.9 1-3.1 4.1-3.1 1.2 0 2.4.1 3.6.4v19.9h25.4v-17.2c0-1.9 1.1-3.1 4.2-3.1 1.3.3 2.5.4 3.6.7m52.3 23.6c0 13.4-9.3 23.5-24 23.5h-13.7c-3 0-4-1.2-4-3.1v-40.9c0-1.9 1.1-3.1 4-3.1h13.7c14.7.2 24 10.2 24 23.6m-7.8 0c0-10-6.3-16.6-16.3-16.6h-10v33.3h10c10.1 0 16.4-6.5 16.3-16.7"
     id="path2425" />
  <linearGradient
     id="SVGID_1_"
     gradientUnits="userSpaceOnUse"
     x1="401.92"
     y1="-76.87"
     x2="401.92"
     y2="-198.01"
     gradientTransform="matrix(1 0 0 -1 -35.692 -76.517)">
    <stop
       offset=".4"
       stop-color="red"
       id="stop2427" />
    <stop
       offset="1"
       stop-color="#D42321"
       id="stop2429" />
  </linearGradient>
  <path
     d="M214.928.323h302.6c4.5 0 8.1 3.6 8.1 8.1v105c0 4.5-3.6 8.1-8.1 8.1h-302.6c-4.5 0-8.1-3.6-8.1-8.1v-105c0-4.5 3.6-8.1 8.1-8.1z"
     id="path2432"
     style="fill:url(#SVGID_1_)" />
  <linearGradient
     id="SVGID_2_"
     gradientUnits="userSpaceOnUse"
     x1="402.586"
     y1="-133.49"
     x2="400.476"
     y2="-73.16"
     gradientTransform="matrix(1 0 0 -1 -35.692 -76.517)">
    <stop
       offset="0"
       stop-color="#ffffff"
       id="stop2434" />
    <stop
       offset=".12"
       stop-color="#ffffff"
       stop-opacity=".83"
       id="stop2436" />
    <stop
       offset=".27"
       stop-color="#ffffff"
       stop-opacity=".66"
       id="stop2438" />
    <stop
       offset=".42"
       stop-color="#ffffff"
       stop-opacity=".51"
       id="stop2440" />
    <stop
       offset=".57"
       stop-color="#ffffff"
       stop-opacity=".4"
       id="stop2442" />
    <stop
       offset=".72"
       stop-color="#ffffff"
       stop-opacity=".32"
       id="stop2444" />
    <stop
       offset=".86"
       stop-color="#ffffff"
       stop-opacity=".27"
       id="stop2446" />
    <stop
       offset="1"
       stop-color="#ffffff"
       stop-opacity=".25"
       id="stop2448" />
  </linearGradient>
  <path
     d="M212.628 60.423h.8c23.9-.9 306.1-10.7 306.1-10.7 3.3 0 6-2.8 6-6.1v-35.2c0-4.5-3.6-8.1-8.1-8.1h-302.5c-4.5 0-8.1 3.6-8.1 8.1v58.3c-.1-3.3 2.5-6.1 5.8-6.3z"
     id="path2451"
     style="fill:url(#SVGID_2_);opacity:.4;enable-background:new" />
  <linearGradient
     id="SVGID_3_"
     gradientUnits="userSpaceOnUse"
     x1="136.69"
     y1="-83.85"
     x2="136.69"
     y2="-191.017"
     gradientTransform="matrix(1 0 0 -1 -35.692 -76.517)">
    <stop
       offset="0"
       stop-color="#002A91"
       id="stop2453" />
    <stop
       offset=".8"
       stop-color="#002672"
       id="stop2455" />
  </linearGradient>
  <path
     d="M134.428 112.823c2.5 1.1 5.2 1.7 8 1.7 6.3.1 9.8-2.3 12.3-7.9l33.9-75.6c-2.2-1-4.6-1.5-7-1.6-4.4-.1-10.3.8-14 9.7l-11 25.9-21.6-35c-2.4-.6-4.8-1-7.3-1-7.6 0-11.9 2.8-16.3 7.6l-21 22.9 17 26.5c3.1 4.8 7.2 7.3 13.9 7.3 3.3.1 6.6-.6 9.7-1.8l-20.2-30.7 14.4-15.2 23.6 37zm-44.5-28.6c0 5.6-2.2 8.8-13.1 8.8-1.3 0-2.6-.1-3.9-.3v-73.9c0-5.6 1.9-11.5 12.9-11.5 1.4 0 2.8.1 4.1.4zm-22.5-11.2c0 10.4-6.8 18-20.6 19.5-10 1.1-24.5-.2-31.4-1-.2-1.2-.4-2.4-.4-3.6 0-9.1 4.9-11.1 9.5-11.1 4.8 0 12.3.8 17.9.8 6.2 0 8-2.1 8-4.1 0-2.6-2.5-3.7-7.3-4.6l-13.1-2.5c-10.9-2.1-16.7-9.6-16.7-17.6 0-9.7 6.9-17.8 20.4-19.3 10.3-1.1 22.7.1 29.6 1 .2 1.1.4 2.3.4 3.5 0 9.1-4.8 11-9.4 11-3.5 0-9-.7-15.3-.7-6.3 0-9 1.8-9 3.9 0 2.3 2.5 3.2 6.5 3.9l12.5 2.3c12.8 2.3 18.4 9.7 18.4 18.6z"
     id="path2458"
     style="fill:url(#SVGID_3_)" />
  <linearGradient
     id="SVGID_4_"
     gradientUnits="userSpaceOnUse"
     x1="137.559"
     y1="-140.64"
     x2="136.149"
     y2="-100.06"
     gradientTransform="matrix(1 0 0 -1 -35.692 -76.517)">
    <stop
       offset="0"
       stop-color="#ffffff"
       id="stop2460" />
    <stop
       offset=".12"
       stop-color="#ffffff"
       stop-opacity=".83"
       id="stop2462" />
    <stop
       offset=".27"
       stop-color="#ffffff"
       stop-opacity=".66"
       id="stop2464" />
    <stop
       offset=".42"
       stop-color="#ffffff"
       stop-opacity=".51"
       id="stop2466" />
    <stop
       offset=".57"
       stop-color="#ffffff"
       stop-opacity=".4"
       id="stop2468" />
    <stop
       offset=".72"
       stop-color="#ffffff"
       stop-opacity=".32"
       id="stop2470" />
    <stop
       offset=".86"
       stop-color="#ffffff"
       stop-opacity=".27"
       id="stop2472" />
    <stop
       offset="1"
       stop-color="#ffffff"
       stop-opacity=".25"
       id="stop2474" />
  </linearGradient>
  <path
     d="m188.728 31.023-12.4 27.7c-1 2-3 3.2-5.2 3.2l-11.3.4c-1.2.1-2.3.9-2.8 2.1l10.7-25.3c3.7-8.9 9.6-9.8 14-9.7 2.4 0 4.8.6 7 1.6zm-32.6 33-21-34.1c-2.4-.6-4.8-1-7.3-1-7.6 0-11.9 2.8-16.3 7.6l-21 22.9 1.7 2.6c1.1 1.7 3 2.6 5 2.5 1 0 11.1-.4 12-.4 2.1-.2 4 .7 5.3 2.4l-3.7-5.7 14.4-15.2 9.6 15.1c1.2 1.5 3 2.4 4.9 2.3l13.7-.5c1.2 0 2.2.6 2.7 1.5zm-70.3-56.7c-11 0-12.9 5.9-12.9 11.5v50.6c0-2.3 1.9-4.2 4.2-4.3l8.5-.3c2.4 0 4.3-1.9 4.3-4.3v-52.8c-1.3-.2-2.7-.4-4.1-.4zm-36.8 47-12.5-2.3c-4-.7-6.5-1.6-6.5-3.9 0-2.1 2.7-3.9 9-3.9s11.8.7 15.3.7c4.6 0 9.4-2 9.4-11 0-1.2-.1-2.3-.4-3.5-6.8-.9-19.3-2.1-29.5-1-13.6 1.5-20.5 9.6-20.5 19.3 0 5.2 2.5 10.1 6.6 13.2 3.1 1.9 6.5 3.1 10.1 3.6 4.6.6 9.3.9 14 .7 1.5 0 12.5-.4 15-.5 5.6-.2 8.6 4.6 8.3 9.4v-.2c.1-.6.1-1.3.1-1.9 0-8.9-5.6-16.3-18.4-18.7z"
     id="path2477"
     style="fill:url(#SVGID_4_);opacity:.25;enable-background:new" />
  <path
     style="fill:#ffffff"
     d="M230.028 87.423c-.7-5 .8-7.6 3.7-7.6 2.7 0 9.4 3 18.6 3 9.8 0 13.4-3.5 13.4-8 0-3.2-1.4-6.1-10.2-8.5l-10.1-2.7c-11.2-3-15.6-8.6-15.6-15.5 0-8.6 6.8-16.2 22.1-16.2 7 .1 14 1.3 20.7 3.6.9 4.9-.6 7.5-3.6 7.5-2.6 0-8.6-2.5-17-2.5-9 0-12.4 3.1-12.4 7.1 0 2.8 1.3 5.5 9.4 7.7l10.3 2.9c11.6 3.2 16.2 8.5 16.2 16.1 0 8.9-6.9 16.9-23.5 16.9-7.4 0-14.9-1.4-22-3.8m114.1-25.8c0 18.6-13.1 29.7-27.5 29.7-7.8.1-15.1-3.5-19.7-9.7v24c0 2.3-1.3 3.7-5.1 3.7-1.6 0-3.1-.2-4.6-.5v-75.8c1.5-.3 3.1-.5 4.6-.5 3.8 0 5.1 1.4 5.1 3.7v5.4c4.6-6.2 12-9.8 19.7-9.7 14.5 0 27.5 11.1 27.5 29.7m-9.8 0c0-12.5-8.3-21.1-19.5-21.1-7.5 0-14.4 4.2-17.8 10.8v20.6c3.5 6.7 10.3 10.9 17.9 10.9 11.1-.1 19.4-8.6 19.4-21.2m19 0c0-17 12.5-29.6 29.2-29.6s29.4 12.6 29.4 29.6-12.5 29.7-29.4 29.7-29.2-12.9-29.2-29.7m48.7 0c0-13.1-8.8-21.1-19.5-21.1s-19.4 8-19.4 21.1c0 13.1 8.8 21.1 19.4 21.1 10.6 0 19.5-8.2 19.5-21.1m57-24.3c0 3.9-1.6 4.7-5.7 4.7-8.2 0-15.1 3.8-19.4 12.7v32.2c0 2.4-1.3 3.7-5.2 3.7-1.5 0-3-.2-4.5-.5v-57.2c1.5-.3 3-.5 4.5-.5 3.9 0 5.2 1.4 5.2 3.7v8c5.6-8.4 14-12.7 24.6-11.3.3 1.6.5 3.1.5 4.5m42.8 50.1c-5.1 2.5-10.7 3.8-16.4 3.9-11.3 0-18.1-6.7-18.1-17.7v-49.1c0-2.5 1.4-4.2 5.2-4.2 1.5 0 3 .2 4.5.6v12.4h22.2c.2 1.3.3 2.6.4 3.9 0 3.4-1.4 4.6-3.6 4.6h-19v31.1c0 6.6 3.1 9.9 9.4 9.9 5.7 0 8.9-2.5 11.7-2.5 2.8 0 4.3 2.3 3.7 7.1"
     id="path2479" />
</svg>
