<?xml version="1.0" encoding="UTF-8" standalone="no"?>
<svg
   width="100%"
   height="100%"
   viewBox="0 0 2605 500"
   version="1.1"
   xml:space="preserve"
   style="fill-rule:evenodd;clip-rule:evenodd;stroke-linejoin:round;stroke-miterlimit:2;"
   id="svg47"
   sodipodi:docname="sky-sport-1.svg"
   inkscape:version="1.1.1 (3bf5ae0d25, 2021-09-20)"
   xmlns:inkscape="http://www.inkscape.org/namespaces/inkscape"
   xmlns:sodipodi="http://sodipodi.sourceforge.net/DTD/sodipodi-0.dtd"
   xmlns:xlink="http://www.w3.org/1999/xlink"
   xmlns="http://www.w3.org/2000/svg"
   xmlns:svg="http://www.w3.org/2000/svg"><sodipodi:namedview
   id="namedview49"
   pagecolor="#ffffff"
   bordercolor="#666666"
   borderopacity="1.0"
   inkscape:pageshadow="2"
   inkscape:pageopacity="0.0"
   inkscape:pagecheckerboard="0"
   showgrid="false"
   inkscape:zoom="0.43339731"
   inkscape:cx="1604.7631"
   inkscape:cy="250.34765"
   inkscape:window-width="1920"
   inkscape:window-height="1017"
   inkscape:window-x="-8"
   inkscape:window-y="-8"
   inkscape:window-maximized="1"
   inkscape:current-layer="PRIMARY" />
<g
   id="PRIMARY">
<path
   d="m 2575.411,499.996 h -430.6355 c -16.0584,0 -29.0771,-14.913 -29.0771,-33.308 V 33.308 C 2115.6984,14.913 2128.7171,0 2144.7755,0 h 430.6355 c 16.0593,0 29.078,14.913 29.078,33.308 v 433.38 c 0,18.395 -13.0187,33.308 -29.078,33.308"
   style="fill:#ffffff;fill-rule:nonzero;stroke-width:0.934332"
   id="path2" />
<path
   d="M2396.69,135.266l0,222.617c0,9.892 -4.946,15.333 -20.775,15.333c-6.925,0 -14.35,-0.987 -18.308,-1.979l0,-193.921l-44.521,13.854c-20.779,6.43 -29.679,-6.433 -25.725,-30.179l73.708,-24.241c16.325,-5.442 26.221,-4.946 35.621,-1.484"
   style="fill:#253183;fill-rule:nonzero;"
   id="path4" />
<path
   d="M831.917,0c-18.413,0 -33.334,14.921 -33.334,33.333l0,433.334c0,18.412 14.921,33.333 33.334,33.333l1249.56,0c18.408,0 33.334,-14.921 33.334,-33.333l-0.001,-433.334c0.001,-18.412 -14.924,-33.333 -33.333,-33.333l-1249.56,0Z"
   style="fill:url(#_Linear1);fill-rule:nonzero;"
   id="path6" />
<path
   d="m 831.917,0 c 2444.0455,6.5412283 11471.37,-9.6657624 -0.003,0 z"
   style="fill:#e30613;fill-rule:nonzero;fill-opacity:1"
   id="path8"
   sodipodi:nodetypes="ccc" />
<use
   xlink:href="#_Image3"
   x="798"
   y="0"
   width="1317px"
   height="274px"
   id="use10" />
<path
   d="M245.658,76.233l0,304.946c4.996,0.754 10.184,1.142 16.138,1.142c44.954,0 53.992,-13.233 53.992,-36.246l0,-315.487c-5.388,-1.159 -11.155,-1.734 -16.917,-1.734c-45.338,0 -53.213,24.171 -53.213,47.379Zm159.938,72.871l-86.454,94.371l69.546,109.317c12.875,19.941 29.779,30.104 57.258,30.104c18.058,0 33.042,-4.217 39.958,-7.471l-83.771,-126.012l59.367,-62.9l97.408,152.662l-59.366,124.854c5.958,3.063 18.058,6.704 33.237,7.092c26.129,0.575 40.35,-9.392 50.917,-32.796l140.054,-311.846c-5.762,-3.071 -18.633,-6.521 -29.008,-6.712c-18.059,-0.379 -42.267,3.262 -57.638,40.087l-45.337,106.817l-88.954,-144.604c-5.767,-1.734 -19.796,-4.217 -29.975,-4.217c-31.509,0 -48.992,11.504 -67.242,31.254Zm-321.254,-28.954c-55.909,6.138 -84.342,39.704 -84.342,79.788c0,32.979 24.017,64.054 68.971,72.679l54.183,10.358c19.784,3.842 29.971,8.246 29.971,18.996c0,8.242 -7.687,16.871 -33.237,16.871c-23.055,0 -54.18,-3.45 -73.971,-3.45c-19.017,0 -39.188,8.629 -39.188,46.025c0,4.608 0.763,10.358 1.725,14.958c28.434,3.267 88.184,8.446 129.492,4.033c57.058,-6.141 85.112,-37.404 85.112,-80.362c0,-37.013 -22.866,-67.129 -75.891,-76.904l-51.684,-9.592c-16.525,-2.879 -26.895,-6.717 -26.895,-16.117c0,-8.816 10.95,-16.104 37.27,-16.104c25.938,0 48.609,2.684 63.213,2.684c19.017,0 38.804,-8.059 38.804,-45.455c0,-4.987 -0.575,-9.591 -1.533,-14.383c-20.275,-2.475 -52.525,-5.846 -84.746,-5.842c-12.667,0 -25.329,0.517 -37.254,1.817Z"
   style="fill:url(#_Linear4);fill-rule:nonzero;"
   id="path12" />
<use
   xlink:href="#_Image5"
   x="0"
   y="103"
   width="724px"
   height="206px"
   id="use14" />
<path
   d="M894.485,359.249c-2.946,-20.613 3.433,-31.413 15.212,-31.413c11.292,0 38.779,12.271 77.063,12.271c40.25,0 55.462,-14.233 55.462,-32.883c0,-13.254 -5.887,-25.034 -42.212,-34.85l-41.721,-11.292c-46.138,-12.267 -64.296,-35.337 -64.296,-63.804c0,-35.338 27.979,-66.754 91.292,-66.754c28.47,0 63.808,6.383 85.404,14.729c3.925,20.121 -2.454,30.921 -14.725,30.921c-10.796,0 -35.338,-10.309 -70.188,-10.309c-37.3,0 -51.046,12.759 -51.046,29.446c0,11.784 5.4,22.579 38.78,31.909l42.7,11.779c47.608,13.25 66.75,35.337 66.75,66.75c0,36.812 -28.467,69.7 -97.184,69.7c-30.433,0 -68.225,-7.367 -91.291,-16.2"
   style="fill:#fff;fill-rule:nonzero;"
   id="path16" />
<path
   d="M1324.99,252.743c0,-51.538 -34.359,-86.88 -80.496,-86.88c-31.413,0 -60.375,18.163 -73.625,44.667l0,84.913c13.25,26.504 42.212,44.666 73.625,44.666c46.137,0 80.496,-35.341 80.496,-87.366m40.737,0c0,77.058 -53.991,122.704 -113.383,122.704c-35.338,0 -64.296,-16.688 -81.475,-40.246l0,99.146c0,9.325 -5.396,15.212 -21.104,15.212c-7.85,0 -15.217,-0.979 -19.142,-1.958l0,-312.654c3.925,-0.988 11.292,-1.967 19.142,-1.967c15.708,0 21.104,5.892 21.104,15.213l0,22.579c17.179,-23.559 46.137,-40.246 81.475,-40.246c59.392,0 113.383,45.646 113.383,122.217"
   style="fill:#fff;fill-rule:nonzero;"
   id="path18" />
<path
   d="M1604.66,252.743c0,-53.992 -36.325,-86.88 -80.496,-86.88c-43.687,0 -80.008,32.888 -80.008,86.88c0,53.5 36.321,87.366 80.008,87.366c44.171,0 80.496,-33.866 80.496,-87.366m-201.242,0c0,-70.192 51.538,-122.217 120.746,-122.217c69.696,0 121.229,52.025 121.229,122.217c0,69.695 -51.533,122.704 -121.229,122.704c-69.208,0 -120.746,-53.009 -120.746,-122.704"
   style="fill:#fff;fill-rule:nonzero;"
   id="path20" />
<path
   d="M1840.01,152.613c0,16.2 -6.867,19.633 -23.559,19.633c-33.866,0 -62.333,15.704 -80,52.517l0,133.012c0,9.821 -5.4,15.221 -21.6,15.221c-6.87,0 -14.725,-0.983 -18.654,-1.967l0,-236.083c3.929,-0.988 11.784,-1.967 18.654,-1.967c16.2,0 21.6,5.892 21.6,15.213l0,32.887c23.067,-34.846 57.913,-52.512 101.596,-46.625c0.492,3.434 1.963,10.796 1.963,18.159"
   style="fill:#fff;fill-rule:nonzero;"
   id="path22" />
<path
   d="M2016.51,359.249c-20.616,9.816 -44.179,16.2 -67.737,16.2c-46.625,0 -74.604,-27.488 -74.604,-73.134l0,-202.708c0,-10.308 5.891,-17.183 21.595,-17.183c6.875,0 14.73,1.475 18.655,2.454l0,51.046l91.783,0c0.492,3.437 1.471,10.308 1.471,16.2c0,14.233 -5.888,19.141 -14.721,19.141l-78.533,0l0,128.105c0,27.487 12.762,40.737 38.775,40.737c23.558,0 36.812,-10.304 48.1,-10.304c11.779,0 17.67,9.812 15.216,29.446"
   style="fill:#fff;fill-rule:nonzero;"
   id="path24" />
<path
   style="opacity:0.9;fill:#e30613;fill-opacity:1;stroke-width:2.30735"
   d="m 798.30804,212.60745 c 0,-178.500401 0.20652,-187.894552 4.29882,-195.548055 2.36435,-4.421853 7.81547,-10.1163491 12.1136,-12.6544359 7.76369,-4.5845358 11.95794,-4.6147033 641.59044,-4.6147033 h 633.7756 l 6.3719,4.7572713 c 3.5045,2.6164994 8.5126,7.6239829 11.1291,11.1277399 4.6873,6.27673 4.7666,8.812544 5.393,172.331963 l 0.6358,165.9615 -9.8652,0.24703 c -5.4258,0.1359 -27.2585,0.91459 -48.517,1.73051 l -38.6519,1.48349 v -9.55064 c 0.01,-18.72337 -11.8173,-24.14117 -34.6065,-15.85584 -5.7107,2.0762 -17.1321,4.29871 -25.3809,4.93896 -17.8607,1.38623 -28.1635,-2.88899 -36.2948,-15.0608 -5.1634,-7.72788 -5.2384,-8.8592 -5.2384,-79.0268 v -71.18669 h 40.4836 c 40.1343,0 40.5334,-0.0499 46.2671,-5.78355 4.9501,-4.95015 5.6831,-7.52693 5.0866,-17.88198 l -0.6969,-12.09842 -45.5702,-0.62561 -45.5702,-0.62562 v -25.4045 c 0,-28.976105 0.3948,-28.42187 -20.3782,-28.609476 -10.7037,-0.09668 -13.0457,0.736349 -17.8888,6.362653 l -5.5726,6.473882 V 199.08107 c 0,126.65784 1.0558,135.21786 19.0143,154.15051 l 6.961,7.33858 -7.7961,1.21235 c -4.2879,0.66678 -30.6389,1.79883 -58.5579,2.51566 -27.919,0.71682 -61.4333,1.9445 -74.4763,2.72817 l -23.7146,1.42488 2.3716,-6.23779 c 1.4276,-3.75485 2.3716,-33.09178 2.3716,-73.70269 v -67.46493 l 6.6221,-10.25798 c 15.5238,-24.04727 35.764,-35.54114 68.4138,-38.85052 24.5256,-2.48591 26.4875,-4.32105 26.4875,-24.77618 v -14.4154 l -9.8987,-1.48441 c -13.1036,-1.96501 -36.6895,2.49201 -52.3237,9.88759 -6.9379,3.2819 -18.6188,11.8063 -25.9577,18.94311 l -13.3433,12.97602 -0.23,-12.80364 c -0.1265,-7.042 -0.9459,-15.39941 -1.8208,-18.57202 -2.1859,-7.92661 -16.3262,-12.76503 -30.913,-10.5776 l -10.8759,1.63095 V 251.10356 369.4614 l -55.9533,1.54876 c -30.7743,0.85183 -64.7789,2.03347 -75.5658,2.62584 l -19.6125,1.07705 11.8878,-3.06885 c 43.2894,-11.17522 78.203,-47.49157 87.4053,-90.91711 15.104,-71.27553 -24.3569,-134.96828 -92.573,-149.41982 -20.1536,-4.26952 -32.5484,-4.26158 -52.8268,0.0339 -42.6027,9.02422 -73.9051,36.80691 -87.4743,77.63842 -15.7967,47.53462 -5.3787,96.64593 27.6711,130.44425 14.9008,15.23821 40.0741,29.47768 56.9299,32.20276 4.787,0.77393 9.1273,2.09256 9.645,2.93027 0.5177,0.8377 -68.8123,3.84109 -154.0668,6.67419 -85.2546,2.83311 -160.4594,5.72011 -167.1218,6.41557 l -12.1136,1.26448 v -25.86265 -25.86262 l 11.209,10.48473 c 27.9119,26.10835 67.5178,34.05653 105.7506,21.22223 46.6414,-15.65702 74.3766,-54.05633 78.2223,-108.2988 3.2831,-46.30575 -16.4745,-90.13373 -50.9471,-113.01532 -42.7912,-28.40318 -98.9018,-24.73312 -133.8519,8.75494 l -10.3829,9.94864 v -13.28378 c 0,-8.69057 -1.1886,-14.47231 -3.4373,-16.72107 -4.8261,-4.8261 -15.9863,-6.84704 -27.9248,-5.05676 l -10.1703,1.52513 V 260.4964 388.24701 l -12.1136,1.23406 c -12.5006,1.2735 -284.16034,10.7649 -305.72406,10.68156 l -12.1136,-0.0468 z m 223.66766,158.54217 c 28.3953,-6.45839 51.8175,-25.39033 57.724,-46.6579 6.0583,-21.81412 1.5889,-44.01645 -11.9591,-59.40778 -11.874,-13.48954 -29.5557,-21.72888 -74.01049,-34.48741 -20.05672,-5.75629 -39.43332,-12.00005 -43.05911,-13.87501 -15.37382,-7.95011 -20.73967,-24.833 -11.5897,-36.46531 11.79212,-14.99124 48.65794,-18.3703 94.3264,-8.64578 23.7931,5.06645 24.023,5.07125 29.9955,0.62611 5.0174,-3.73426 6.1324,-6.60027 6.7021,-17.22726 l 0.6836,-12.74776 -20.296,-4.91911 c -40.9812,-9.93255 -69.40238,-11.72006 -96.17219,-6.04861 -40.84282,8.65295 -61.27704,30.18067 -61.33892,64.62135 -0.0247,13.73106 1.00093,17.94731 6.84398,28.13535 11.62933,20.27713 25.88675,28.00611 78.24291,42.41559 43.21302,11.89313 55.58832,18.40309 60.16782,31.65096 3.1824,9.20635 3.1007,10.51328 -1.1537,18.45881 -3.1376,5.85975 -8.2095,10.36645 -16.1153,14.31936 -10.375,5.18748 -14.209,5.75296 -38.07133,5.61542 -19.09497,-0.11006 -32.24616,-1.56563 -46.90605,-5.19154 -33.97649,-8.40358 -40.13307,-6.63193 -44.16145,12.70806 -2.35848,11.32289 1.47913,15.71835 17.71314,20.28792 36.9838,10.41029 84.1159,13.27533 112.43389,6.83454 z"
   id="path5959" /><path
   style="opacity:0.9;fill:#e30613;fill-opacity:1;stroke-width:2.30735"
   d="m 1503.1255,336.18468 c -21.6276,-6.13497 -39.5852,-22.2537 -50.3358,-45.18147 -5.4143,-11.54721 -6.0802,-15.74694 -6.0802,-38.34821 0,-22.66143 0.6577,-26.78388 6.1385,-38.47542 16.7757,-35.78575 53.4778,-54.01286 89.9823,-44.68729 42.4435,10.84274 64.8619,47.81558 59.2207,97.66781 -4.5126,39.87881 -33.8015,68.45268 -72.7604,70.98416 -9.0694,0.58931 -20.0888,-0.23596 -26.1651,-1.95958 z"
   id="path5998" /><path
   style="opacity:0.9;fill:#e30613;fill-opacity:1;stroke-width:2.30735"
   d="m 820.26351,496.75844 c -1.90357,-0.69586 -5.89588,-3.46924 -8.8718,-6.16306 -10.66744,-9.65622 -11.89437,-15.1275 -11.89437,-53.0408 v -35.68167 l 16.7283,-1.22751 c 9.20057,-0.67514 71.23948,-2.95065 137.86426,-5.0567 66.6248,-2.10606 133.3081,-4.49761 148.1852,-5.31457 l 27.0492,-1.48538 0.639,29.99557 0.639,29.99557 14.6489,0.69286 c 10.3921,0.49152 16.2588,-0.36204 20.1893,-2.93738 5.3178,-3.48434 5.5405,-4.69743 5.5405,-30.18401 0,-19.18772 0.8,-26.8227 2.8841,-27.52324 1.5864,-0.53322 33.5143,-2.0872 70.9511,-3.45331 37.4368,-1.3661 109.0801,-4.0923 159.2073,-6.05823 50.1272,-1.96593 103.6001,-3.90242 118.8286,-4.30331 15.2285,-0.4009 55.2034,-1.59728 88.833,-2.65862 64.1089,-2.02326 75.2211,-1.98039 98.428,0.37976 9.3666,0.9526 15.9991,0.48741 19.4601,-1.36489 6.4043,-3.42746 11.3225,-3.77329 96.1553,-6.76124 37.1396,-1.30812 68.2888,-2.60593 69.2205,-2.88402 0.9317,-0.2781 7.84,2.53092 15.3516,6.24226 25.001,12.35243 68.7414,9.92226 100.8785,-5.60471 8.8075,-4.25533 15.8382,-5.0351 56.921,-6.31313 l 46.8724,-1.45813 -0.7192,61.04696 c -0.7957,67.54375 -1.0767,68.88234 -16.4192,78.23727 -7.2632,4.42863 -16.8538,4.49333 -640.7415,4.32239 -348.3525,-0.0955 -634.92553,-0.74287 -636.82909,-1.43873 z"
   id="path6037" /><path
   style="opacity:0.9;fill:#e30613;fill-opacity:1;stroke-width:2.30735"
   d="m 1222.8964,336.09533 c -15.4146,-5.13812 -27.2638,-12.22308 -35.9963,-21.52316 -16.2027,-17.25578 -15.9191,-16.15895 -15.9191,-61.58138 0,-46.99392 0.5607,-48.84323 19.9968,-65.95159 20.8319,-18.33696 53.7565,-24.59676 80.9764,-15.39566 28.8929,9.76662 48.9624,39.28632 50.8748,74.8306 2.1946,40.78736 -14.6977,71.79373 -46.8655,86.02306 -13.5811,6.00758 -40.3862,7.82505 -53.0671,3.59813 z"
   id="path6106" /></g>
<defs
   id="defs45">
<linearGradient
   id="_Linear1"
   x1="0"
   y1="0"
   x2="1"
   y2="0"
   gradientUnits="userSpaceOnUse"
   gradientTransform="matrix(-17.1743,-491.809,491.809,-17.1743,1465.28,495.838)">
<stop
   offset="0"
   style="stop-color:#cc1316;stop-opacity:1"
   id="stop27" />
<stop
   offset="0.2"
   style="stop-color:#cc1316;stop-opacity:1"
   id="stop29" />
<stop
   offset="0.55"
   style="stop-color:#e30613;stop-opacity:1"
   id="stop31" />
<stop
   offset="1"
   style="stop-color:#e30613;stop-opacity:1"
   id="stop33" />
</linearGradient>
<linearGradient
   id="_Linear2"
   x1="0"
   y1="0"
   x2="1"
   y2="0"
   gradientUnits="userSpaceOnUse"
   gradientTransform="matrix(-17.1692,-491.662,491.662,-17.1692,1465.28,495.829)">
<stop
   offset="0"
   style="stop-color:#cc1316;stop-opacity:1"
   id="stop36" />
<stop
   offset="0.2"
   style="stop-color:#cc1316;stop-opacity:1"
   id="stop38" />
<stop
   offset="0.55"
   style="stop-color:#e84250;stop-opacity:1"
   id="stop40" />
<stop
   offset="1"
   style="stop-color:#e30613;stop-opacity:1"
   id="stop42" />
</linearGradient>
</defs>
<path
   d="m 245.658,76.233 v 304.946 c 4.996,0.754 10.184,1.142 16.138,1.142 44.954,0 53.992,-13.233 53.992,-36.246 V 30.587998 c -5.388,-1.159 -11.155,-1.734 -16.917,-1.734 -45.338,0 -53.213,24.171 -53.213,47.379002 z m 159.938,72.871 -86.454,94.371 69.546,109.317 c 12.875,19.941 29.779,30.104 57.258,30.104 18.058,0 33.042,-4.217 39.958,-7.471 l -83.771,-126.012 59.367,-62.9 97.408,152.662 -59.366,124.854 c 5.958,3.063 18.058,6.704 33.237,7.092 26.129,0.575 40.35,-9.392 50.917,-32.796 L 723.75,126.479 c -5.762,-3.071 -18.633,-6.521 -29.008,-6.712 -18.059,-0.379 -42.267,3.262 -57.638,40.087 L 591.767,266.671 502.813,122.067 c -5.767,-1.734 -19.796,-4.217 -29.975,-4.217 -31.509,0 -48.992,11.504 -67.242,31.254 z M 84.342,120.15 C 28.433,126.288 0,159.854 0,199.938 c 0,32.979 24.017,64.054 68.971,72.679 l 54.183,10.358 c 19.784,3.842 29.971,8.246 29.971,18.996 0,8.242 -7.687,16.871 -33.237,16.871 -23.055,0 -54.18,-3.45 -73.971,-3.45 -19.017,0 -39.188,8.629 -39.188,46.025 0,4.608 0.763,10.358 1.725,14.958 28.434,3.267 88.184,8.446 129.492,4.033 57.058,-6.141 85.112,-37.404 85.112,-80.362 0,-37.013 -22.866,-67.129 -75.891,-76.904 L 95.483,213.55 c -16.525,-2.879 -26.895,-6.717 -26.895,-16.117 0,-8.816 10.95,-16.104 37.27,-16.104 25.938,0 48.609,2.684 63.213,2.684 19.017,0 38.804,-8.059 38.804,-45.455 0,-4.987 -0.575,-9.591 -1.533,-14.383 -20.275,-2.475 -52.525,-5.846 -84.746,-5.842 -12.667,0 -25.329,0.517 -37.254,1.817 z"
   style="clip-rule:evenodd;fill:#e6e6e6;fill-rule:nonzero;stroke-linejoin:round;stroke-miterlimit:2"
   id="path10" /></svg>
