<svg xmlns="http://www.w3.org/2000/svg" overflow="visible" viewBox="0 0 585.799 56.875"  xmlns:v="https://vecta.io/nano"><path fill="#ff0031" d="M25.39 34.101c0 4.893-3.185 8.441-9.691 9.146-4.687.5-11.489-.092-14.72-.455-.113-.523-.205-1.184-.205-1.707 0-4.254 2.298-5.232 4.459-5.232 2.253 0 5.802.387 8.418.387 2.912 0 3.776-.979 3.776-1.91 0-1.229-1.16-1.729-3.412-2.162L7.85 30.986C2.73 30.007 0 26.48 0 22.727c0-4.549 3.23-8.371 9.601-9.076 4.801-.523 10.671.068 13.878.455a7.82 7.82 0 0 1 .183 1.637c0 4.254-2.253 5.164-4.414 5.164-1.66 0-4.231-.295-7.189-.295-3.003 0-4.231.818-4.231 1.82 0 1.068 1.184 1.502 3.049 1.842l5.87 1.092c6.049 1.093 8.643 4.526 8.643 8.735m10.534 5.232c0 2.617-1.024 4.119-6.144 4.119-.682 0-1.273-.045-1.843-.137V8.645c0-2.639.888-5.393 6.052-5.393.66 0 1.32.068 1.935.205v35.876zm20.907 13.424c.683.342 2.048.773 3.776.797 2.98.068 4.596-1.07 5.802-3.732l15.926-35.445c-.66-.34-2.116-.75-3.299-.773-2.048-.045-4.801.365-6.553 4.551L67.296 30.28 57.173 13.832c-.66-.205-2.253-.479-3.413-.479-3.595 0-5.574 1.32-7.645 3.549L36.287 27.64l7.917 12.445c1.456 2.275 3.391 3.436 6.507 3.436 2.048 0 3.754-.479 4.551-.842l-9.533-14.333 6.757-7.166 11.08 17.359-6.735 14.218z"/><path fill="#fff" d="M94.62 0a3.805 3.805 0 0 0-3.8 3.799v49.277a3.805 3.805 0 0 0 3.8 3.799H582a3.806 3.806 0 0 0 3.799-3.799v-49.3a3.767 3.767 0 0 0-3.777-3.775H94.62z"/><linearGradient id="A" x1="90.82" x2="279.856" y1="28.438" y2="28.438" gradientUnits="userSpaceOnUse"><stop offset="0" stop-color="#ff0031"/><stop offset="1" stop-color="#9d001f"/></linearGradient><path fill="url(#A)" d="M94.62 0a3.805 3.805 0 0 0-3.8 3.799v49.277a3.805 3.805 0 0 0 3.8 3.799h181.437a3.806 3.806 0 0 0 3.799-3.799v-49.3a3.767 3.767 0 0 0-3.777-3.775H94.62z"/><linearGradient id="B" x1="178.746" x2="188.412" y1="45.405" y2="-4.596" gradientUnits="userSpaceOnUse"><stop offset="0" stop-color="#ff5272"/><stop offset=".556" stop-color="#e82146"/><stop offset="1" stop-color="#a60d2a"/></linearGradient><path fill="url(#B)" d="M94.62 0a3.805 3.805 0 0 0-3.8 3.799v27.368c0-.433.159-2.685 2.73-2.935 0 0 .137-.023.363-.023l183.122-6.453c1.434-.045 2.82-1.115 2.82-2.889V3.799A3.806 3.806 0 0 0 276.056 0H94.62z"/><path d="M109.771 41.15c-1.613-.697-2.988-1.66-4.125-2.889a12.786 12.786 0 0 1-2.613-4.289c-.605-1.632-.907-3.383-.907-5.253s.302-3.63.907-5.28 1.476-3.089 2.613-4.318 2.512-2.19 4.125-2.887 3.41-1.045 5.39-1.045c1.87 0 3.456.192 4.757.577s2.484.871 3.547 1.458c.073.843-.055 1.503-.385 1.98s-.752.715-1.265.715c-.33 0-.669-.083-1.018-.248a18.027 18.027 0 0 0-1.237-.522 14.244 14.244 0 0 0-1.732-.522c-.679-.165-1.513-.248-2.503-.248a9.604 9.604 0 0 0-3.63.688 8.71 8.71 0 0 0-2.998 2.007c-.862.88-1.549 1.962-2.063 3.245s-.77 2.75-.77 4.4c0 1.613.257 3.053.77 4.317s1.201 2.338 2.063 3.218 1.861 1.55 2.998 2.007a9.604 9.604 0 0 0 3.63.688c1.027 0 1.916-.082 2.668-.247s1.393-.349 1.925-.55l1.348-.55c.367-.165.697-.247.99-.247.587 0 1.027.229 1.32.688s.403 1.145.33 2.063l-1.87.879a15.42 15.42 0 0 1-1.98.66 16.12 16.12 0 0 1-2.228.413c-.788.091-1.677.138-2.667.138-1.98-.001-3.777-.35-5.39-1.046zm20.486-30.141c-.458-.477-.688-1.027-.688-1.65a2.28 2.28 0 0 1 .688-1.678 2.28 2.28 0 0 1 1.678-.688c.66 0 1.219.229 1.677.688s.688 1.018.688 1.678c0 .623-.229 1.173-.688 1.65s-1.018.715-1.677.715a2.24 2.24 0 0 1-1.678-.715zm.523 31.02a3.109 3.109 0 0 1-.77-.164V16.949c0-.44.138-.797.413-1.072s.779-.413 1.513-.413a8.88 8.88 0 0 1 .99.055c.33.037.587.092.77.165v24.915c0 .44-.138.798-.413 1.072s-.779.413-1.512.413a8.88 8.88 0 0 1-.991-.055zm11.99 0a3.098 3.098 0 0 1-.77-.164V15.739a4.867 4.867 0 0 1 1.54-.275c1.393 0 2.09.807 2.09 2.42v1.54h.11c.954-1.283 2.173-2.337 3.658-3.163s3.236-1.237 5.252-1.237c3.19 0 5.628 1.017 7.315 3.052s2.53 4.721 2.53 8.058v14.465c0 .44-.138.798-.413 1.072s-.779.413-1.512.413a8.88 8.88 0 0 1-.99-.056 3.098 3.098 0 0 1-.77-.164V26.519c0-2.86-.651-4.959-1.953-6.297s-3.052-2.007-5.252-2.007c-.733 0-1.494.11-2.282.33s-1.54.541-2.255.962a9.742 9.742 0 0 0-1.952 1.512 7.586 7.586 0 0 0-1.43 1.98v17.6c0 .44-.138.798-.413 1.072s-.779.413-1.513.413a8.88 8.88 0 0 1-.99-.055zm36.134-.715c-1.687-.696-3.108-1.668-4.263-2.914s-2.035-2.695-2.64-4.346-.907-3.447-.907-5.39.321-3.75.962-5.417 1.531-3.108 2.667-4.318 2.466-2.163 3.988-2.86 3.162-1.045 4.922-1.045c2.017 0 3.777.394 5.28 1.183s2.741 1.787 3.713 2.997a12.54 12.54 0 0 1 2.172 4.015c.476 1.467.715 2.878.715 4.235 0 1.174-.055 1.98-.165 2.42h-20.625c.073 1.504.376 2.823.908 3.96s1.237 2.099 2.118 2.888a8.936 8.936 0 0 0 3.052 1.787c1.155.403 2.393.605 3.712.605 1.1 0 2.063-.092 2.888-.275s1.558-.385 2.2-.605l1.677-.604c.476-.182.917-.274 1.32-.274.513 0 .935.247 1.265.742s.422 1.146.275 1.952c-.99.514-2.319 1.026-3.988 1.54s-3.511.77-5.527.77c-2.126-.001-4.033-.349-5.719-1.046zm13.145-14.189a11.67 11.67 0 0 0-.743-3.52 9.61 9.61 0 0 0-1.705-2.888 7.787 7.787 0 0 0-2.585-1.953c-1.008-.477-2.136-.715-3.382-.715s-2.393.229-3.438.688-1.953 1.1-2.723 1.925a9.593 9.593 0 0 0-1.842 2.888 11.886 11.886 0 0 0-.853 3.575h17.271zm11.274 14.904a3.109 3.109 0 0 1-.77-.164V15.739a4.867 4.867 0 0 1 1.54-.275c1.394 0 2.09.807 2.09 2.42v1.265h.055c.733-1.173 1.769-2.154 3.107-2.943s2.759-1.182 4.263-1.182c1.723 0 3.309.44 4.757 1.32s2.466 2.2 3.053 3.96c.99-1.687 2.19-2.988 3.603-3.905s3.052-1.375 4.923-1.375c1.539 0 2.85.256 3.932.77s1.953 1.201 2.613 2.063 1.137 1.87 1.43 3.025.439 2.374.439 3.657v16.06c0 .44-.137.798-.412 1.072s-.779.413-1.512.413a8.88 8.88 0 0 1-.99-.056 3.108 3.108 0 0 1-.771-.164v-17.16c0-2.09-.505-3.694-1.513-4.813s-2.338-1.677-3.987-1.677c-1.76 0-3.199.458-4.317 1.375s-1.971 1.998-2.558 3.245v17.765c0 .44-.138.798-.413 1.072s-.779.413-1.513.413a8.88 8.88 0 0 1-.99-.056 3.098 3.098 0 0 1-.77-.164v-17.16c0-2.09-.513-3.694-1.54-4.813s-2.42-1.677-4.18-1.677c-1.54 0-2.896.458-4.07 1.375s-2.035 1.98-2.585 3.19v17.82c0 .44-.138.798-.413 1.072s-.779.413-1.513.413a8.87 8.87 0 0 1-.988-.055zm46.447-.412c-1.154-.422-2.117-.999-2.887-1.732a6.82 6.82 0 0 1-1.705-2.558c-.367-.972-.55-1.989-.55-3.052 0-2.531.89-4.565 2.667-6.105s4.648-2.31 8.607-2.31c2.237 0 4.84.275 7.811.825V24.43c0-2.237-.514-3.841-1.54-4.813s-2.786-1.458-5.28-1.458c-1.32 0-2.438.073-3.355.22a20.34 20.34 0 0 0-2.337.495l-1.622.495c-.44.146-.844.22-1.211.22-.549 0-.971-.248-1.265-.743s-.366-1.219-.22-2.172c.916-.293 2.282-.642 4.098-1.045s3.822-.605 6.022-.605c2.017 0 3.685.238 5.005.715s2.365 1.164 3.135 2.063 1.311 1.998 1.623 3.3.467 2.778.467 4.428v16.06c-.215.146-.385.266-.629.357s-.547.138-.904.138c-.457 0-.832-.11-1.125-.33s-.437-.501-.581-.825c-.163-.367-.226-.875-.226-1.567v-1.897h-.109a11.51 11.51 0 0 1-3.548 3.245c-1.669 1.026-3.768 1.54-6.298 1.54-1.539-.001-2.887-.212-4.043-.634zm10.148-3.933c1.54-.989 2.805-2.42 3.795-4.29v-4.125c-2.787-.514-5.133-.77-7.04-.77-2.86 0-4.978.494-6.353 1.484s-2.063 2.365-2.063 4.125c0 1.504.55 2.723 1.65 3.658s2.604 1.402 4.51 1.402c2.128.001 3.961-.494 5.501-1.484z" fill="#fff" stroke="#fff"/><path d="M293.182 47.964a2.546 2.546 0 0 1-.649-.135V18.084c.464-.15.896-.225 1.298-.225 1.174 0 1.762.66 1.762 1.98v1.53h.046c.896-1.2 1.946-2.145 3.151-2.835s2.704-1.035 4.496-1.035c1.391 0 2.711.27 3.963.81a9.92 9.92 0 0 1 3.291 2.295c.942.99 1.684 2.175 2.225 3.555s.811 2.91.811 4.59c0 1.92-.309 3.578-.926 4.973s-1.422 2.543-2.41 3.442a9.787 9.787 0 0 1-3.314 2.003 10.912 10.912 0 0 1-3.686.652c-1.761 0-3.29-.346-4.588-1.035s-2.303-1.471-3.013-2.34v10.35c0 .36-.116.652-.348.878s-.657.337-1.274.337a7.51 7.51 0 0 1-.835-.045zm12.583-11.295c.942-.39 1.754-.945 2.434-1.665s1.213-1.604 1.599-2.655.58-2.25.58-3.6c0-1.11-.154-2.183-.464-3.217a8.09 8.09 0 0 0-1.437-2.768c-.649-.81-1.453-1.455-2.41-1.935s-2.086-.72-3.384-.72c-1.391 0-2.735.368-4.032 1.103s-2.303 1.792-3.013 3.173v8.82c.587 1.141 1.491 2.1 2.712 2.88s2.664 1.17 4.333 1.17c1.112-.001 2.14-.195 3.082-.586zm14.206 2.926a2.678 2.678 0 0 1-.648-.136V18.084c.463-.15.896-.225 1.297-.225 1.175 0 1.762.66 1.762 1.98v2.07h.093c.741-1.62 1.723-2.752 2.942-3.397s2.573-.968 4.057-.968c.896 0 1.746.12 2.549.36.154.9.047 1.567-.324 2.002s-.865.623-1.483.563a8.503 8.503 0 0 0-2.827.112c-.928.195-1.762.57-2.503 1.125s-1.337 1.32-1.784 2.295-.672 2.183-.672 3.623v10.801c0 .359-.117.652-.348.877s-.657.338-1.275.338a7.79 7.79 0 0 1-.836-.045zm20.764-.586c-1.421-.57-2.618-1.365-3.592-2.385s-1.715-2.205-2.225-3.555-.765-2.82-.765-4.41.271-3.067.812-4.433 1.289-2.542 2.248-3.532 2.078-1.77 3.359-2.34 2.666-.855 4.148-.855c1.699 0 3.184.323 4.45.968s2.31 1.462 3.128 2.452 1.43 2.085 1.832 3.285.602 2.355.602 3.465c0 .96-.046 1.62-.139 1.98h-17.381c.062 1.23.316 2.31.765 3.24a7.262 7.262 0 0 0 1.784 2.362 7.6 7.6 0 0 0 2.572 1.462c.974.33 2.017.495 3.129.495.927 0 1.738-.075 2.434-.225l1.854-.495 1.414-.495c.401-.149.772-.226 1.112-.226.433 0 .788.203 1.065.607s.355.938.232 1.598c-.834.42-1.955.84-3.36 1.261s-2.959.63-4.658.63c-1.791.002-3.398-.283-4.82-.854zm11.078-11.61a9.37 9.37 0 0 0-.625-2.88 7.799 7.799 0 0 0-1.438-2.362 6.541 6.541 0 0 0-2.178-1.598c-.851-.39-1.801-.585-2.852-.585s-2.016.188-2.896.563a6.9 6.9 0 0 0-2.295 1.575 7.858 7.858 0 0 0-1.553 2.362 9.497 9.497 0 0 0-.718 2.925h14.555zm9.084 12.196a2.689 2.689 0 0 1-.648-.136V18.084c.463-.15.896-.225 1.298-.225 1.175 0 1.761.66 1.761 1.98v1.035h.047c.618-.96 1.49-1.762 2.619-2.407a7.119 7.119 0 0 1 3.592-.968c1.452 0 2.789.36 4.009 1.08s2.078 1.8 2.573 3.24c.834-1.38 1.846-2.445 3.035-3.195s2.572-1.125 4.148-1.125c1.298 0 2.402.21 3.314.63s1.645.982 2.201 1.688.958 1.53 1.205 2.475.371 1.942.371 2.993v13.141c0 .359-.116.652-.348.877s-.656.338-1.275.338a8.05 8.05 0 0 1-.834-.045 2.689 2.689 0 0 1-.648-.136V25.42c0-1.71-.426-3.022-1.275-3.938s-1.969-1.373-3.359-1.373c-1.484 0-2.696.375-3.639 1.125s-1.661 1.635-2.155 2.655v14.536c0 .359-.116.652-.348.877s-.657.338-1.274.338a8.02 8.02 0 0 1-.834-.045 2.677 2.677 0 0 1-.649-.136v-14.04c0-1.71-.433-3.022-1.298-3.938s-2.039-1.373-3.522-1.373c-1.298 0-2.441.375-3.431 1.125s-1.715 1.62-2.178 2.61v14.581c0 .359-.116.652-.348.877s-.656.338-1.275.338a7.547 7.547 0 0 1-.835-.044zm36.502-25.381c-.387-.39-.58-.84-.58-1.35a1.84 1.84 0 0 1 .58-1.373 1.95 1.95 0 0 1 1.413-.563 1.95 1.95 0 0 1 1.413.563 1.84 1.84 0 0 1 .58 1.373c0 .51-.193.96-.58 1.35a1.91 1.91 0 0 1-1.413.585 1.91 1.91 0 0 1-1.413-.585zm.439 25.381a2.689 2.689 0 0 1-.648-.136V19.075c0-.36.115-.653.348-.877s.656-.338 1.274-.338a7.77 7.77 0 0 1 .834.045c.278.03.495.075.649.135v20.386c0 .359-.116.652-.348.877s-.656.338-1.275.338a8.067 8.067 0 0 1-.834-.046zm14.229-.586c-1.422-.57-2.619-1.365-3.592-2.385a10.42 10.42 0 0 1-2.225-3.555c-.51-1.35-.766-2.82-.766-4.41s.271-3.067.812-4.433 1.29-2.542 2.248-3.532 2.078-1.77 3.36-2.34 2.665-.855 4.148-.855c1.699 0 3.183.323 4.449.968s2.311 1.462 3.129 2.452 1.43 2.085 1.831 3.285.603 2.355.603 3.465c0 .96-.047 1.62-.139 1.98h-17.382c.062 1.23.317 2.31.765 3.24a7.265 7.265 0 0 0 1.785 2.362 7.582 7.582 0 0 0 2.572 1.462c.973.33 2.016.495 3.129.495.926 0 1.737-.075 2.433-.225l1.854-.495 1.414-.495c.4-.149.771-.226 1.111-.226.434 0 .788.203 1.066.607s.355.938.232 1.598c-.835.42-1.955.84-3.361 1.261s-2.959.63-4.658.63c-1.79.002-3.396-.283-4.818-.854zm11.078-11.61a9.372 9.372 0 0 0-.626-2.88 7.816 7.816 0 0 0-1.437-2.362 6.555 6.555 0 0 0-2.179-1.598c-.851-.39-1.8-.585-2.851-.585s-2.016.188-2.896.563a6.9 6.9 0 0 0-2.295 1.575c-.648.675-1.166 1.462-1.553 2.362s-.625 1.875-.719 2.925h14.556zm8.898 12.196a2.678 2.678 0 0 1-.648-.136V18.084c.463-.15.896-.225 1.297-.225 1.175 0 1.762.66 1.762 1.98v2.07h.093c.741-1.62 1.723-2.752 2.942-3.397s2.573-.968 4.057-.968c.896 0 1.746.12 2.549.36.154.9.047 1.567-.324 2.002s-.865.623-1.483.563a8.503 8.503 0 0 0-2.827.112c-.928.195-1.762.57-2.503 1.125s-1.337 1.32-1.784 2.295-.672 2.183-.672 3.623v10.801c0 .359-.117.652-.348.877s-.657.338-1.275.338a7.79 7.79 0 0 1-.836-.045zm20.858-.586c-1.422-.57-2.619-1.365-3.592-2.385a10.42 10.42 0 0 1-2.225-3.555c-.51-1.35-.766-2.82-.766-4.41s.271-3.067.812-4.433 1.29-2.542 2.248-3.532 2.078-1.77 3.36-2.34 2.665-.855 4.148-.855c1.699 0 3.183.323 4.449.968s2.311 1.462 3.129 2.452 1.43 2.085 1.831 3.285.603 2.355.603 3.465c0 .96-.047 1.62-.139 1.98h-17.382c.062 1.23.317 2.31.765 3.24a7.265 7.265 0 0 0 1.785 2.362 7.582 7.582 0 0 0 2.572 1.462c.973.33 2.016.495 3.129.495.926 0 1.737-.075 2.433-.225l1.854-.495 1.414-.495c.4-.149.771-.226 1.111-.226.434 0 .788.203 1.066.607s.355.938.232 1.598c-.835.42-1.955.84-3.361 1.261s-2.959.63-4.658.63c-1.79.002-3.396-.283-4.818-.854zm11.078-11.61a9.372 9.372 0 0 0-.626-2.88 7.816 7.816 0 0 0-1.437-2.362 6.555 6.555 0 0 0-2.179-1.598c-.851-.39-1.8-.585-2.851-.585s-2.016.188-2.896.563a6.9 6.9 0 0 0-2.295 1.575c-.648.675-1.166 1.462-1.553 2.362s-.625 1.875-.719 2.925h14.556zm9.084 12.196a2.678 2.678 0 0 1-.648-.136V18.084c.463-.15.896-.225 1.297-.225 1.174 0 1.762.66 1.762 1.98v1.26h.093c.804-1.05 1.831-1.913 3.082-2.587s2.728-1.013 4.427-1.013c2.688 0 4.742.833 6.164 2.498s2.133 3.862 2.133 6.592v11.836c0 .359-.117.652-.348.877s-.657.338-1.275.338c-.277 0-.557-.016-.834-.045a2.678 2.678 0 0 1-.648-.136V26.905c0-2.34-.549-4.058-1.646-5.153s-2.572-1.643-4.426-1.643c-.618 0-1.26.09-1.924.27a8.056 8.056 0 0 0-1.9.788 8.237 8.237 0 0 0-1.645 1.238 6.194 6.194 0 0 0-1.205 1.62v14.401c0 .359-.117.652-.348.877s-.657.338-1.275.338a8.045 8.045 0 0 1-.836-.046zM504 47.808a1.366 1.366 0 0 1-.438-.141V8.965c0-.343.078-.624.236-.843s.438-.328.844-.328a2.12 2.12 0 0 1 .539.07c.181.047.326.102.439.164v38.656c0 .344-.079.624-.236.842s-.439.328-.844.328c-.18.001-.36-.015-.54-.046zm21.326-9.908a1.777 1.777 0 0 1-.386-.09v-6.871h-6.459a5.409 5.409 0 0 1-.062-.389c-.021-.16-.03-.33-.03-.511 0-.36.076-.61.23-.75s.366-.21.634-.21h5.687v-5.85c0-.22.076-.4.23-.54s.418-.21.789-.21a3.99 3.99 0 0 1 .51.03c.155.02.283.05.386.09v6.48h6.644l.063.391c.02.159.03.329.03.51 0 .359-.077.609-.231.75s-.366.209-.634.209h-5.871v6.24a.7.7 0 0 1-.231.541c-.154.14-.418.209-.788.209-.187 0-.357-.01-.511-.029zm11.604 1.057a3.938 3.938 0 0 1-.035-.544c0-.242.053-.517.16-.825s.291-.572.553-.792l7.875-6.665a43.157 43.157 0 0 0 1.658-1.486 12.52 12.52 0 0 0 1.336-1.468 6.643 6.643 0 0 0 .891-1.518 4.212 4.212 0 0 0 .321-1.633c0-1.386-.481-2.475-1.443-3.267s-2.286-1.188-3.974-1.188c-.855 0-1.604.099-2.246.297s-1.199.413-1.674.644l-1.23.627c-.344.187-.635.28-.873.28a.948.948 0 0 1-.802-.412c-.202-.275-.327-.644-.374-1.105.356-.264.783-.534 1.283-.809a13.009 13.009 0 0 1 3.67-1.32 11.405 11.405 0 0 1 2.246-.214c1.235 0 2.34.154 3.314.462s1.8.748 2.477 1.32a5.9 5.9 0 0 1 1.568 2.046c.368.792.553 1.661.553 2.607a5.47 5.47 0 0 1-.41 2.112 8.407 8.407 0 0 1-1.105 1.897 13.837 13.837 0 0 1-1.604 1.749 42.491 42.491 0 0 1-1.871 1.635l-7.021 5.84v.066h12.331l.072.43a4.32 4.32 0 0 1 .035.561c0 .418-.096.703-.285.857s-.428.231-.713.231h-14.612a6.556 6.556 0 0 1-.071-.415zm31.987.529a1.86 1.86 0 0 1-.518-.083v-5.181h-11.617l-.072-.413c-.023-.165-.035-.335-.035-.511 0-.242.035-.479.107-.71s.201-.468.391-.71l11.121-13.958h2.494v14.289h3.813c.025.11.043.253.055.43l.018.527c0 .374-.09.639-.268.792a.972.972 0 0 1-.658.231h-2.959v4.488c0 .549-.416.824-1.248.824a14.16 14.16 0 0 1-.624-.015zm-.518-7.244V21.154l-8.91 11.088h8.91z" fill="#b2002b" stroke="#b2002b" stroke-width=".75"/><linearGradient id="C" x1="41.167" x2="41.167" y1="3.252" y2="30.522" gradientUnits="userSpaceOnUse"><stop offset="0" stop-color="#ff0031"/><stop offset=".188" stop-color="#ff0535"/><stop offset=".421" stop-color="#ff1542"/><stop offset=".679" stop-color="#ff2e56"/><stop offset=".952" stop-color="#ff5172"/><stop offset="1" stop-color="#ff5878"/></linearGradient><path fill="url(#C)" d="M53.76 13.354c-3.595 0-5.574 1.32-7.645 3.549l-9.828 10.738.82 1.289c.342.455 1.008 1.223 2.328 1.178l5.596-.205c1.229-.047 2.021.512 2.499 1.15l-1.8-2.707 6.757-7.166 4.55 7.129c.819 1.07 2.071 1.083 2.343 1.083l6.438-.227c.41-.023.893.23 1.257.752l-9.901-16.085c-.661-.205-2.254-.478-3.414-.478zM16.745 25.365l-5.87-1.092c-1.865-.34-3.049-.773-3.049-1.842 0-1.002 1.229-1.82 4.231-1.82l7.189.295c2.161 0 4.414-.91 4.414-5.164 0-.568-.068-1.092-.183-1.637-3.207-.387-9.077-.979-13.878-.455C3.23 14.355 0 18.178 0 22.727c0 2.375 1.097 4.658 3.197 6.263 1.537 1.01 3.07 1.338 4.629 1.609 1.297.227 4.323.432 6.575.34l7.007-.25c2.629-.09 4.055 2.17 3.932 4.412a10.56 10.56 0 0 0 .05-1c0-4.209-2.594-7.642-8.645-8.736zm11.193-16.72v23.808c0-.955.728-1.99 1.956-2.037l4.004-.137c.797-.021 2.004-.568 2.026-2.023V3.457a8.964 8.964 0 0 0-1.935-.205c-5.164 0-6.051 2.754-6.051 5.393zm51.098 4.959c-2.048-.045-4.801.365-6.553 4.551l-5.011 11.714c.124-.252.49-.805 1.257-.84l5.324-.182c1.615-.068 2.257-1.102 2.439-1.467l5.842-13.003c-.659-.34-2.115-.75-3.298-.773z"/><defs /></svg>