<?xml version="1.0" encoding="UTF-8"?>
<!DOCTYPE svg PUBLIC "-//W3C//DTD SVG 1.1//EN" "http://www.w3.org/Graphics/SVG/1.1/DTD/svg11.dtd">
<svg xmlns="http://www.w3.org/2000/svg" version="1.1" width="640px" height="151px" style="shape-rendering:geometricPrecision; text-rendering:geometricPrecision; image-rendering:optimizeQuality; fill-rule:evenodd; clip-rule:evenodd" xmlns:xlink="http://www.w3.org/1999/xlink">
<g><path style="opacity:1" fill="#b9b2b2" d="M 4.5,-0.5 C 86.5,-0.5 168.5,-0.5 250.5,-0.5C 250.832,49.0028 250.499,98.3362 249.5,147.5C 249.5,99.1667 249.5,50.8333 249.5,2.5C 168.833,2.33334 88.166,2.5 7.5,3C 5.33333,3.83333 3.83333,5.33333 3,7.5C 2.50002,36.4981 2.33336,65.4981 2.5,94.5C 1.27187,95.3065 0.271873,96.3065 -0.5,97.5C -0.5,66.5 -0.5,35.5 -0.5,4.5C 1.5,3.16667 3.16667,1.5 4.5,-0.5 Z"/></g>
<g><path style="opacity:1" fill="#cb0102" d="M 250.5,-0.5 C 378.833,-0.5 507.167,-0.5 635.5,-0.5C 637.167,0.5 638.5,1.83333 639.5,3.5C 639.5,51.1667 639.5,98.8333 639.5,146.5C 637.833,147.5 636.5,148.833 635.5,150.5C 506.833,150.5 378.167,150.5 249.5,150.5C 249.5,149.5 249.5,148.5 249.5,147.5C 250.499,98.3362 250.832,49.0028 250.5,-0.5 Z"/></g>
<g><path style="opacity:1" fill="#fcfcfc" d="M 249.5,147.5 C 168.833,147.667 88.166,147.5 7.5,147C 5.33333,146.167 3.83333,144.667 3,142.5C 2.50007,126.503 2.33341,110.503 2.5,94.5C 2.33336,65.4981 2.50002,36.4981 3,7.5C 3.83333,5.33333 5.33333,3.83333 7.5,3C 88.166,2.5 168.833,2.33334 249.5,2.5C 249.5,50.8333 249.5,99.1667 249.5,147.5 Z"/></g>
<g><path style="opacity:1" fill="#030303" d="M 118.5,13.5 C 119.321,33.0936 119.821,52.7603 120,72.5C 120.717,71.9558 121.217,71.2891 121.5,70.5C 129.986,60.5142 138.986,51.0142 148.5,42C 155.83,38.0766 163.33,37.5766 171,40.5C 178.67,52.9896 186.503,65.323 194.5,77.5C 199.454,65.5916 204.954,53.925 211,42.5C 216.72,38.3972 222.887,37.5638 229.5,40C 230.022,40.5613 230.355,41.228 230.5,42C 217.529,70.7744 204.696,99.6077 192,128.5C 189.032,134.055 184.365,136.388 178,135.5C 175.833,135.333 173.667,135.167 171.5,135C 170.572,134.612 169.905,133.945 169.5,133C 174.64,121.887 179.64,110.721 184.5,99.5C 176.597,85.3647 167.931,71.698 158.5,58.5C 153.848,63.6519 149.015,68.6519 144,73.5C 143.333,74.5 143.333,75.5 144,76.5C 151.955,87.4277 159.122,98.761 165.5,110.5C 157.978,112.267 150.644,111.767 143.5,109C 142,107.5 140.5,106 139,104.5C 133.406,94.9704 127.573,85.6371 121.5,76.5C 121.217,75.7109 120.717,75.0442 120,74.5C 119.5,84.1609 119.334,93.8276 119.5,103.5C 118.94,106.997 116.94,109.497 113.5,111C 108.657,112.605 103.823,112.771 99,111.5C 98.3333,81.5 98.3333,51.5 99,21.5C 101.599,15.1079 106.432,12.1079 113.5,12.5C 115.258,12.5916 116.924,12.925 118.5,13.5 Z"/></g>
<g><path style="opacity:1" fill="#aaaaaa" d="M 118.5,13.5 C 120.163,32.3114 121.163,51.3114 121.5,70.5C 121.217,71.2891 120.717,71.9558 120,72.5C 119.821,52.7603 119.321,33.0936 118.5,13.5 Z"/></g>
<g><path style="opacity:1" fill="#020202" d="M 53.5,38.5 C 65.4492,38.117 77.2826,38.7837 89,40.5C 91.459,51.1924 87.2923,56.8591 76.5,57.5C 69.5181,56.4912 62.5181,56.3245 55.5,57C 50.1162,59.938 50.4496,62.2713 56.5,64C 66.5829,65.2809 76.2495,67.9475 85.5,72C 93.3561,78.9928 95.5227,87.4928 92,97.5C 89.4383,103.061 85.2716,106.894 79.5,109C 64.3381,112.127 49.1714,112.294 34,109.5C 31.9214,99.2766 35.9214,93.61 46,92.5C 53.8172,93.508 61.6506,93.6746 69.5,93C 73.3624,92.2345 74.3624,90.0678 72.5,86.5C 63.6119,83.8889 54.6119,81.7222 45.5,80C 32.2665,73.2475 28.7665,63.0808 35,49.5C 39.7462,43.3794 45.9129,39.7127 53.5,38.5 Z"/></g>
<g><path style="opacity:1" fill="#fdf4f4" d="M 288.5,39.5 C 296.035,38.5339 299.535,41.8672 299,49.5C 307.521,40.1066 318.021,36.94 330.5,40C 340.756,43.9914 346.589,51.4914 348,62.5C 348.667,77.5 348.667,92.5 348,107.5C 345.177,110.571 341.844,111.238 338,109.5C 337.667,94.5 337.333,79.5 337,64.5C 335.373,54.204 329.373,48.8707 319,48.5C 310.725,49.3028 304.059,52.9695 299,59.5C 298.667,75.5 298.333,91.5 298,107.5C 295.177,110.571 291.844,111.238 288,109.5C 287.178,86.0941 287.345,62.7608 288.5,39.5 Z"/></g>
<g><path style="opacity:1" fill="#fdf7f7" d="M 387.5,39.5 C 415.876,37.0421 429.376,50.0421 428,78.5C 409.91,79.4924 391.743,79.8257 373.5,79.5C 375.62,94.1141 384.12,101.447 399,101.5C 404.646,101.047 410.146,99.8805 415.5,98C 422.915,96.0639 425.582,98.8972 423.5,106.5C 413.138,110.129 402.471,111.629 391.5,111C 368.476,104.475 358.976,89.3083 363,65.5C 366.925,52.7443 375.092,44.0776 387.5,39.5 Z"/></g>
<g><path style="opacity:1" fill="#fdf4f3" d="M 565.5,39.5 C 572.841,39.3337 580.174,39.5003 587.5,40C 591.846,40.6273 596.012,41.794 600,43.5C 600.944,46.3471 600.444,48.8471 598.5,51C 588.633,49.0267 578.633,48.3601 568.5,49C 559.192,51.3767 557.192,56.3767 562.5,64C 571.321,67.4572 580.321,70.4572 589.5,73C 603.332,77.842 607.499,87.0087 602,100.5C 594.834,108.449 585.834,112.116 575,111.5C 565.994,111.444 557.327,109.777 549,106.5C 548.218,103.743 548.718,101.243 550.5,99C 555.622,98.5272 560.622,99.1938 565.5,101C 571.833,101.667 578.167,101.667 584.5,101C 591.334,99.5062 594.168,95.3395 593,88.5C 592.215,86.714 591.049,85.214 589.5,84C 580.239,80.8021 570.906,77.8021 561.5,75C 549.909,69.9708 546.409,61.4708 551,49.5C 555.023,44.7581 559.857,41.4248 565.5,39.5 Z"/></g>
<g><path style="opacity:1" fill="#fdf3f2" d="M 439.5,39.5 C 443.355,38.8454 446.188,40.1788 448,43.5C 452.702,61.65 457.702,79.65 463,97.5C 468.942,78.5548 475.109,59.7215 481.5,41C 486.194,38.6727 490.528,39.1727 494.5,42.5C 500.63,60.7248 506.464,79.0581 512,97.5C 517.143,79.267 522.143,60.9337 527,42.5C 528.182,40.6431 529.849,39.6431 532,39.5C 534.137,40.0767 536.304,40.41 538.5,40.5C 532.85,62.6205 526.683,84.6205 520,106.5C 516.692,110.327 512.526,111.494 507.5,110C 506.572,109.612 505.905,108.945 505.5,108C 499.793,89.7137 493.793,71.547 487.5,53.5C 481.373,71.047 475.54,88.7137 470,106.5C 466.206,110.457 461.706,111.457 456.5,109.5C 449.726,89.7486 443.559,69.7486 438,49.5C 437.047,46.5682 436.547,43.5682 436.5,40.5C 437.791,40.7373 438.791,40.404 439.5,39.5 Z"/></g>
<g><path style="opacity:1" fill="#cb0806" d="M 417.5,69.5 C 403.167,69.5 388.833,69.5 374.5,69.5C 374.5,68.5 374.5,67.5 374.5,66.5C 378.514,53.1508 387.514,47.3175 401.5,49C 411.517,52.2099 416.85,59.0433 417.5,69.5 Z"/></g>
<g><path style="opacity:1" fill="#dc5757" d="M 374.5,66.5 C 374.5,67.5 374.5,68.5 374.5,69.5C 388.833,69.5 403.167,69.5 417.5,69.5C 403.01,70.496 388.343,70.8293 373.5,70.5C 373.232,68.901 373.566,67.5676 374.5,66.5 Z"/></g>
<g><path style="opacity:1" fill="#a8a8a8" d="M 121.5,76.5 C 120.833,85.5 120.167,94.5 119.5,103.5C 119.334,93.8276 119.5,84.1609 120,74.5C 120.717,75.0442 121.217,75.7109 121.5,76.5 Z"/></g>
<g><path style="opacity:1" fill="#9d9d9c" d="M 2.5,94.5 C 2.33341,110.503 2.50007,126.503 3,142.5C 3.83333,144.667 5.33333,146.167 7.5,147C 88.166,147.5 168.833,147.667 249.5,147.5C 249.5,148.5 249.5,149.5 249.5,150.5C 167.833,150.5 86.1667,150.5 4.5,150.5C 3.16667,148.5 1.5,146.833 -0.5,145.5C -0.5,129.5 -0.5,113.5 -0.5,97.5C 0.271873,96.3065 1.27187,95.3065 2.5,94.5 Z"/></g>
</svg>
