<svg viewBox="0 0 3519.01 500" xml:space="preserve" xmlns="http://www.w3.org/2000/svg"><path fill="#FFF" d="M3485.676 499.999H2077.807c-18.395.049-33.333-14.85-33.333-33.245V33.511c-.098-18.478 14.855-33.51 33.333-33.51h1407.604c18.513-.147 33.6 14.82 33.599 33.333v433.243c0 18.395-14.938 33.294-33.334 33.245"/><path fill="#002A91" d="M3485.715 9.797c12.79 0 23.131 10.613 23.131 23.403v432.868c0 12.79-10.34 23.131-23.131 23.131H2077.85c-13.063 0-23.404-10.341-23.404-23.13V33.198c0-12.79 10.341-23.402 23.404-23.402h1407.864m0-9.797H2077.85c-18.505 0-33.472 14.967-33.472 33.2v432.868c0 18.233 14.967 33.2 33.472 33.2h1407.864c18.233 0 33.2-14.967 33.2-33.2V33.2c0-18.233-14.967-33.2-33.2-33.2"/><path fill="#D20515" d="M2221.805 362.687H2596.8V62.526h-374.995zm0 0"/><path fill="#FFF" d="M2554.89 169.199c-11.426 0-20.68 9.253-20.68 20.685 0 11.699 9.254 20.952 20.68 20.952 11.705 0 20.958-9.253 20.958-20.952 0-11.432-9.253-20.685-20.957-20.685m-23.946 51.434c0 .543-.543 1.086-1.907 2.178l-.815.544.272.543c.271.272-.272.815-.815 1.087l-1.087.548c-.549.272-1.092.272-1.364 0l-.271-.548-1.63.82.271.544c.272.271-.272.815-.815 1.086l-1.092.544c-.543.271-1.358.271-1.358-.272l-.272-.543c-4.901 2.45-10.068 4.9-15.784 7.346l.271.815c.272.277 0 .82-.543 1.092l-1.364.543c-.543.272-1.087.272-1.358 0l-.272-.815-1.907.815.543.815c0 .272-.271.82-.815 1.092l-1.358.544c-.544.272-1.092.272-1.364-.272l-.272-.543c-2.45.815-5.167 1.358-7.346-2.45-.815-1.636-.815-5.717-1.358-7.624-.277-1.358-1.636-1.358-1.636-1.358-24.489-4.624-32.655.543-48.44-3.538-4.895-1.086-7.617-5.716-13.605-5.716-13.334-.271-17.143-.271-31.569-.815-.543 2.18-.543 2.723-.543 2.723l-50.614-.272 7.89 3.809 2.45 22.315s-2.178.544-2.722.544c.544 4.352 1.087 10.34 1.087 15.784.272 4.896.549 10.068.549 13.062 0 1.087 0 3.537-1.364 5.983-.815 1.907-2.45 3.27-3.809 4.085-.543.544-2.45 1.902-4.624 2.994-2.45 1.359-4.901 2.723-6.26 3.538 0 .543.544 1.086.544 1.63-30.482 14.969-68.577 19.865-80.824 43.544-1.358 2.717-6.53 1.087-6.53-1.636-.272-1.358 0-3.537 0-4.895h-.544c-.272 0-.544-.549-.544-1.092v-1.359c0-.543.272-1.363.816-1.092h.543c0-1.358.272-2.717.815-4.08l-.543-.272c-.544 0-.544-.543-.272-1.087l.272-1.363c.271-.544.82-1.087 1.363-.816h.272c2.174-5.167 6.531-7.346 8.433-12.247h-.272c-.543 0-.543-.815-.271-1.358l.271-1.359c.272-.548.815-.82 1.092-.82l.272.272c.272-.815.815-1.63 1.087-2.445l-.272-.272c-.543 0-.543-.82 0-1.364l.815-1.087c.272-.543.815-.815 1.092-.543h.272v.272c.272 0 .272-.272.272-.272.271-.272.543-.543.815-.543 1.901-1.636 4.352-1.364 6.259 0 1.902 1.086 9.525 5.439 16.871-1.092 11.976-10.884 25.853-25.31 36.465-25.853-2.994-6.26-7.89-19.05-8.433-23.674l-3.543-.815c-1.902-4.086-6.254-22.316-7.618-35.921 0 0-1.358-14.97 0-20.137-.815 0-2.45 1.087-2.722 1.087-1.902-4.624 4.358-44.631 10.34-56.058l9.525-3.809c-.815 0-7.618-.548-25.847-1.907-10.074 8.982-21.5 18.507-27.488 23.674-1.087.82-2.723 6.531-2.723 6.531s-2.993 2.722-5.716 4.358c-3.537 2.717-12.513 4.624-14.42 1.63-.544-.815-.544-1.087 0-1.63 1.358-1.364 6.53-3.814 8.438-7.08-2.994 1.364-5.988 2.994-8.71 2.722-.815 0-1.63-2.722 0-3.265 3.537-1.63 6.531-2.174 8.982-5.44 2.173-2.993 4.623-5.172 8.16-5.172 0 0 16.6-21.772 26.669-32.112 2.722-2.994 7.623-1.902 7.623-1.902l.815-3.537s34.014-3.814 49.798 1.358c-.543-9.525 3.809-22.315 18.778-22.315 7.618 0 19.05 6.803 20.68 14.969.272 2.717-1.086 4.352-1.901 7.618-1.364 4.624.543 10.068 0 11.975-.544 1.359-1.908 1.087-3.266 2.994-1.635 2.174-3.266 5.983-3.266 5.983l-1.907 4.357-10.611-.543c-3.81 8.161-11.976 25.304-14.698 42.175 8.438.549 45.99 5.988 45.99 5.988l.82 3.265s15.784 1.907 28.846 7.895c2.989.815 10.069-.272 14.964 1.902.272-.272 1.087-1.087 1.364-1.358 16.871 5.172 31.02 14.148 47.076 17.957 0 0 7.618 1.908 10.34 2.45 5.988 1.088 9.797 1.365 13.062 1.636 5.173.544 8.167.544 11.704.544 2.722.271 6.26-.272 7.346 3.809"/><path d="m2577.206 403.503-5.716 18.235h11.432zm7.895 25.581h-15.784l-2.994 8.433h-9.797l14.15-40.273h13.061l14.15 40.273h-10.069zm-32.932-14.697v21.772c-3.81 1.358-8.705 2.179-13.878 2.179-14.149 0-20.68-6.26-20.68-20.957 0-14.693 6.531-20.952 20.68-20.952 4.901 0 9.797.815 13.334 2.173v7.895c-4.08-1.364-8.433-2.179-12.519-2.179-8.433 0-11.155 3.538-11.155 13.063 0 9.796 2.722 13.333 10.612 13.333 1.907 0 3.814-.271 5.444-.543v-8.982h-7.617v-6.802zm-51.7-17.143h10.068v40.273h-10.069zm-33.748 0h10.068v32.655h17.42v7.618h-27.488zm-36.736 38.643v-7.618c4.9 1.359 9.253 2.174 13.334 2.174 4.63 0 6.803-1.359 6.803-4.353 0-2.722-.816-3.537-4.624-4.352l-6.803-1.364c-6.803-1.63-9.254-4.352-9.254-11.155 0-8.981 5.168-12.79 15.785-12.79 4.624 0 8.976.815 12.79 2.173v7.895c-4.357-1.364-8.438-2.179-12.247-2.179-4.9 0-6.802 1.364-6.802 4.63 0 2.445 1.358 3.265 4.623 4.08l6.532 1.359c7.351 1.635 9.525 4.085 9.525 11.432 0 8.433-5.445 12.518-16.056 12.518-4.896 0-9.525-.82-13.606-2.45m-34.563-38.643h28.304v7.618h-18.23v8.438h14.964v7.618h-14.964v8.981h18.501v7.618h-28.575zm-25.575 32.655c5.982 0 7.89-2.994 7.89-12.519 0-9.253-1.908-12.518-7.89-12.518h-7.623v25.037zm-17.692-32.655h17.963c14.15 0 17.958 5.716 17.958 20.136 0 13.878-4.08 20.137-17.958 20.137h-17.963zm-8.161 0v40.273h-12.247l-17.143-29.113v29.113h-9.525v-40.273h12.247l17.143 29.118v-29.118zm-82.454 27.211v-27.211h10.068v26.94c0 4.357 2.174 5.987 7.618 5.987s7.347-1.63 7.347-5.988v-26.94h10.068v27.212c0 9.525-5.44 13.882-17.415 13.882s-17.686-4.357-17.686-13.882m-16.333 1.092c0-3.809-1.358-5.173-4.896-5.173h-8.981v10.34h8.981c3.81 0 4.896-1.358 4.896-5.167m-13.877-11.432h8.438c3.537 0 4.896-1.359 4.896-4.896 0-3.809-1.359-5.172-4.896-5.172h-8.438zm23.679 12.519c0 7.074-3.27 10.883-12.247 10.883h-20.957v-40.273h20.142c9.248 0 12.513 3.809 12.513 10.612 0 5.172-1.901 7.623-7.346 8.981l-1.087.272h.816c6.259 1.363 8.166 3.809 8.166 9.525"/><path fill="#002A91" d="M2710.957 436.694a6.72 6.72 0 0 1-6.63-6.72V70.029a6.72 6.72 0 0 1 13.35 0v359.947a6.72 6.72 0 0 1-6.72 6.72M2994.164 153.758v107.427c0 55.349-30.15 91.954-84.615 91.954-54.465 0-84.262-36.605-84.262-91.954V164.81c0-7.78 4.51-12.644 17.065-12.644a67.905 67.905 0 0 1 14.677 1.592v110.345c0 38.638 17.684 60.565 52.166 60.565 34.483 0 53.05-21.927 53.05-60.565V164.81c0-7.78 4.51-12.644 17.065-12.644a67.905 67.905 0 0 1 14.678 1.592M3204.686 153.758V338.55c0 8.134-4.067 12.555-16.71 12.555a79.576 79.576 0 0 1-15.032-1.591v-85.058h-105.393v74.094c0 8.134-4.067 12.555-16.711 12.555a65.606 65.606 0 0 1-15.03-1.591V164.81c0-7.78 4.066-12.644 17.064-12.644a67.905 67.905 0 0 1 14.677 1.592v82.228h105.04v-70.734c0-7.78 4.42-12.644 17.683-12.644a67.905 67.905 0 0 1 14.677 1.592M3420.867 251.459c0 55.35-38.639 97.259-99.293 97.259h-56.499c-12.201 0-16.71-4.863-16.71-12.644V167.197c0-7.692 4.509-12.643 16.71-12.643h56.499c60.654 0 99.293 41.556 99.293 97.259m-32.096 0c0-41.557-26.083-68.347-67.197-68.347h-41.291v136.782h41.468c41.114 0 67.197-26.526 67.197-68.79"/><g><linearGradient id="a" gradientUnits="userSpaceOnUse" x1="1456.658" y1="198" x2="1456.658" y2="698" gradientTransform="translate(0 -198)"><stop offset=".4" style="stop-color:red"/><stop offset="1" style="stop-color:#d42321"/></linearGradient><path fill="url(#a)" d="M832.1 0h1249.2c18.4 0 33.3 14.9 33.3 33.3v433.4c0 18.4-14.9 33.3-33.3 33.3H832.1c-18.4 0-33.3-14.9-33.3-33.3V33.3c0-18.4 14.9-33.3 33.3-33.3z"/><linearGradient id="b" gradientUnits="userSpaceOnUse" x1="1459.466" y1="431.728" x2="1450.769" y2="182.675" gradientTransform="translate(0 -198)"><stop offset="0" style="stop-color:#fff"/><stop offset=".12" style="stop-color:#fff;stop-opacity:.8347"/><stop offset=".269" style="stop-color:#fff;stop-opacity:.6576"/><stop offset=".419" style="stop-color:#fff;stop-opacity:.5107"/><stop offset=".568" style="stop-color:#fff;stop-opacity:.3965"/><stop offset=".716" style="stop-color:#fff;stop-opacity:.3152"/><stop offset=".86" style="stop-color:#fff;stop-opacity:.2664"/><stop offset="1" style="stop-color:#fff;stop-opacity:.25"/></linearGradient><path opacity=".4" fill="url(#b)" d="M822.8 248s1.1-.1 3.2-.2c98.6-3.5 1263.7-44.1 1263.7-44.1 13.9-.1 25-11.5 24.9-25.3V33.3c0-18.4-14.9-33.3-33.3-33.3H832.1c-18.4 0-33.3 14.9-33.3 33.3V274c-.4-13.7 10.3-25.3 24-26z"/><linearGradient id="c" gradientUnits="userSpaceOnUse" x1="361.923" y1="226.806" x2="361.923" y2="669.22" gradientTransform="translate(0 -198)"><stop offset="0" style="stop-color:#002a91"/><stop offset=".8" style="stop-color:#002672"/></linearGradient><path fill="url(#c)" d="M499.6 464.1c10.5 4.6 21.8 7.1 33.2 7.1 26.1.6 40.4-9.4 50.9-32.8l140.1-311.9c-9.1-4.1-19-6.4-29-6.7-18.1-.4-42.3 3.3-57.6 40.1l-45.3 106.8-89-144.6c-9.8-2.6-19.9-4-30-4.2-31.5 0-49 11.5-67.2 31.3l-86.5 94.4L388.7 353c12.9 19.9 29.8 30.1 57.3 30.1 13.7.2 27.3-2.3 40-7.5l-83.8-126 59.4-62.9L559 339.4l-59.4 124.7zM315.9 346.2c0 23-9 36.2-54 36.2-5.4 0-10.8-.4-16.1-1.1V76.2c0-23.2 7.9-47.4 53.2-47.4 5.7 0 11.4.6 16.9 1.7v315.7zm-92.8-46.1c0 43-28.1 74.2-85.1 80.4-41.3 4.4-101.1-.8-129.5-4-1-4.9-1.6-9.9-1.7-15 0-37.4 20.2-46 39.2-46 19.8 0 50.9 3.5 74 3.5 25.5 0 33.2-8.6 33.2-16.9 0-10.7-10.2-15.2-30-19L69 272.7C24 264.1 0 233 0 200c0-40.1 28.4-73.6 84.3-79.8 42.3-4.6 93.8.6 122 4 1 4.7 1.5 9.5 1.5 14.4 0 37.4-19.8 45.5-38.8 45.5-14.6 0-37.3-2.7-63.2-2.7-26.3 0-37.3 7.3-37.3 16.1 0 9.4 10.4 13.2 26.9 16.1l51.7 9.6c53.1 9.7 76 39.9 76 76.9z" style="fill:#fff"/><path fill="#FFF" d="M894.4 359.3c-3-20.6 3.4-31.4 15.2-31.4 11.2 0 38.7 12.3 77 12.3 40.3 0 55.5-14.3 55.5-32.9 0-13.2-5.9-25-42.2-34.9l-41.7-11.2c-46.1-12.3-64.3-35.4-64.3-63.9 0-35.3 28-66.8 91.3-66.8 28.5 0 63.9 6.4 85.4 14.8 3.9 20.1-2.5 30.9-14.7 30.9-10.8 0-35.3-10.3-70.2-10.3-37.3 0-51.1 12.7-51.1 29.4 0 11.7 5.4 22.6 38.8 31.9l42.7 11.8c47.7 13.2 66.8 35.3 66.8 66.7 0 36.9-28.5 69.7-97.2 69.7-30.4.1-68.3-7.3-91.3-16.1M1365.6 252.8c0 77-54 122.7-113.4 122.7-35.3 0-64.3-16.7-81.5-40.2v99.2c0 9.3-5.4 15.2-21.1 15.2-7.9 0-15.2-1-19.1-1.9V135c3.9-1 11.2-2 19.1-2 15.7 0 21.1 5.9 21.1 15.2v22.5c17.2-23.5 46.2-40.2 81.5-40.2 59.4 0 113.4 45.7 113.4 122.3m-40.7 0c0-51.5-34.3-86.9-80.5-86.9-31.4 0-60.4 18.2-73.6 44.7v84.9c13.2 26.5 42.2 44.7 73.6 44.7 46.1-.1 80.5-35.4 80.5-87.4M1403.3 252.8c0-70.2 51.5-122.2 120.7-122.2 69.7 0 121.2 52 121.2 122.2 0 69.7-51.5 122.7-121.2 122.7-69.2-.1-120.7-53.1-120.7-122.7m201.2 0c0-54-36.4-86.9-80.5-86.9-43.6 0-80 32.9-80 86.9 0 53.5 36.4 87.3 80 87.3 44.1 0 80.5-33.8 80.5-87.3M1839.8 152.6c0 16.2-6.8 19.6-23.6 19.6-33.8 0-62.3 15.7-80 52.5v133.1c0 9.8-5.4 15.2-21.6 15.2-6.9 0-14.8-1-18.7-1.9V134.9c3.9-1 11.7-1.9 18.7-1.9 16.1 0 21.6 5.9 21.6 15.2v32.9c23-34.9 57.9-52.5 101.6-46.6.5 3.4 2 10.8 2 18.1M2016.3 359.3c-20.6 9.8-44.2 16.2-67.7 16.2-46.6 0-74.6-27.5-74.6-73.1V99.7c0-10.3 5.9-17.2 21.6-17.2 6.8 0 14.7 1.4 18.7 2.5v51h91.7c.5 3.4 1.5 10.3 1.5 16.2 0 14.2-5.9 19.1-14.7 19.1h-78.5v128.2c0 27.4 12.7 40.7 38.7 40.7 23.6 0 36.8-10.3 48.1-10.3 11.8-.1 17.7 9.7 15.2 29.4"/></g></svg>