<svg viewBox="0 0 11970 2084" xml:space="preserve" style="fill-rule:evenodd;clip-rule:evenodd;stroke-linejoin:round;stroke-miterlimit:2" xmlns:xlink="http://www.w3.org/1999/xlink" xmlns="http://www.w3.org/2000/svg"><path d="M11898.2 2083.32H8878.04c-39.47 0-71.469-62.138-71.469-138.784V138.786c0-76.645 31.999-138.783 71.471-138.783h3020.16c39.473 0 71.462 62.138 71.462 138.783v1805.75c0 76.646-31.989 138.784-71.462 138.784" style="fill:#fff;fill-rule:nonzero"/><g style="fill:navy"><path d="M9850.97 629.671v447.587c0 230.588-125.471 383.175-352.642 383.175-225.5 0-350.954-152.587-350.954-383.175V675.45c0-32.221 18.646-52.567 71.2-52.567 23.729 0 47.479 3.4 61.042 6.788l1.683 459.462c0 161.059 74.6 252.621 217.029 252.621 144.1 0 220.4-91.562 220.4-252.621V675.45c0-32.221 18.646-52.567 71.2-52.567 23.75 0 47.479 3.4 61.042 6.788m877.13 0v769.721c0 33.908-16.962 52.554-69.512 52.554-23.733 0-45.783-3.388-62.725-6.771v-354.358h-439.117v308.575c0 33.908-16.962 52.554-69.512 52.554-25.434 0-50.867-3.388-62.725-6.771V675.45c0-32.221 16.941-52.567 71.196-52.567 23.733 0 47.483 3.4 61.041 6.788v342.483h437.413V675.45c0-32.221 18.65-52.567 72.9-52.567 23.75 0 47.483 3.4 61.041 6.788m766.9 406.899c0-172.933-108.509-284.825-279.742-284.825h-172.933v571.354h172.933c171.233 0 279.742-111.892 279.742-286.529m133.941 0c0 230.575-161.062 405.208-413.683 405.208H10979.6c-50.867 0-69.513-20.346-69.513-52.566V685.616c0-32.204 18.646-52.55 69.513-52.55h235.658c252.621 0 413.683 172.933 413.683 403.504" style="fill:navy;fill-rule:nonzero"/></g><path d="M3466.32 0c-76.721 0-138.892 62.171-138.892 138.888v1805.56c0 76.717 62.171 138.887 138.892 138.887h5206.5c76.7 0 138.891-62.17 138.891-138.887l-.004-1805.56C8811.712 62.172 8749.524.001 8672.82.001h-5206.5z" style="fill:url(#a);fill-rule:nonzero"/><path d="M3466.32 0c-2310.88 0-1155.44 0 0 0z" style="fill:url(#b);fill-rule:nonzero"/><path d="M1023.58 317.638v1270.61c20.817 3.142 42.433 4.758 67.242 4.758 187.308 0 224.966-55.137 224.966-151.025V127.451c-22.45-4.829-46.479-7.225-70.487-7.225-188.908 0-221.721 100.713-221.721 197.413zm666.408 303.629-360.225 393.212 289.775 455.488c53.646 83.087 124.08 125.433 238.575 125.433 75.242 0 137.675-17.571 166.492-31.129l-349.046-525.05 247.363-262.084 405.866 636.092-247.358 520.225c24.825 12.763 75.242 27.933 138.488 29.55 108.87 2.396 168.125-39.133 212.154-136.65l583.558-1299.36c-24.008-12.796-77.637-27.171-120.867-27.967-75.245-1.579-176.112 13.592-240.158 167.029l-188.904 445.071-370.642-602.517c-24.029-7.225-82.483-17.57-124.896-17.57-131.287 0-204.133 47.933-280.175 130.225zM351.428 500.625C118.474 526.2.003 666.058.003 833.075c0 137.412 100.071 266.892 287.379 302.829l225.763 43.159c82.433 16.008 124.879 34.358 124.879 79.149 0 34.342-32.029 70.296-138.488 70.296-96.062 0-225.75-14.375-308.212-14.375-79.238 0-163.283 35.954-163.283 191.771 0 19.2 3.179 43.158 7.187 62.325 118.475 13.613 367.433 35.192 539.55 16.804 237.742-25.587 354.633-155.85 354.633-334.841 0-154.221-95.275-279.705-316.212-320.434l-215.35-39.966c-68.854-11.996-112.063-27.988-112.063-67.155 0-36.733 45.625-67.1 155.292-67.1 108.075 0 202.538 11.184 263.388 11.184 79.237 0 161.683-33.579 161.683-189.396 0-20.779-2.396-39.963-6.388-59.929-84.479-10.313-218.854-24.359-353.108-24.342-52.779 0-105.537 2.154-155.225 7.571z" style="fill:#e6e6e6;fill-rule:nonzero"/><use xlink:href="#_Image5" width="724" height="206" transform="translate(0 429.167) scale(4.16667)"/><path d="M3727.02 1496.87c-12.275-85.888 14.304-130.888 63.383-130.888 47.05 0 161.579 51.13 321.096 51.13 167.708-.001 231.092-59.305 231.092-137.013 0-55.225-24.529-104.308-175.884-145.208l-173.837-47.05c-192.242-51.113-267.9-147.238-267.9-265.85 0-147.242 116.579-278.142 380.383-278.142 118.625 0 265.867 26.596 355.85 61.371 16.354 83.837-10.225 128.837-61.354 128.837-44.983 0-147.242-42.954-292.45-42.954-155.417 0-212.692 53.163-212.692 122.692 0 49.1 22.5 94.079 161.584 132.954l177.916 49.079c198.367 55.208 278.125 147.238 278.125 278.125 0 153.383-118.612 290.417-404.933 290.417-126.804 0-284.271-30.696-380.379-67.5m1793.77-443.77c0-214.742-143.163-362-335.4-362-130.888 0-251.563 75.679-306.771 186.112v353.805c55.208 110.433 175.883 186.108 306.771 186.108 192.237 0 335.4-147.254 335.4-364.025m169.737 0c0 321.075-224.962 511.267-472.429 511.267-147.242 0-267.9-69.534-339.479-167.692v413.108c0 38.854-22.483 63.384-87.933 63.384-32.709 0-63.405-4.08-79.759-8.159V562.278c16.354-4.116 47.05-8.196 79.759-8.196 65.45 0 87.933 24.55 87.933 63.388v94.079c71.579-98.162 192.237-167.692 339.479-167.692 247.467 0 472.429 190.192 472.429 509.238m995.553.005c0-224.967-151.354-362-335.4-362-182.029 0-333.366 137.033-333.366 362 0 222.917 151.337 364.025 333.366 364.025 184.046 0 335.4-141.109 335.4-364.025m-838.508 0c0-292.467 214.742-509.238 503.108-509.238 290.4 0 505.121 216.771 505.121 509.238 0 290.396-214.721 511.267-505.121 511.267-288.366 0-503.108-220.871-503.108-511.267M7666.71 635.888c0 67.5-28.612 81.804-98.162 81.804-141.108 0-259.721 65.433-333.333 218.821l-.001 554.216c.001 40.921-22.499 63.421-89.999 63.421-28.625 0-61.355-4.096-77.725-8.196V562.275c16.37-4.117 49.1-8.196 77.725-8.196 67.5 0 89.999 24.55 89.999 63.388l.001 137.029c96.112-145.192 241.304-218.8 423.316-194.271 2.05 14.308 8.179 44.983 8.179 75.662m735.41 860.983c-85.9 40.9-184.079 67.5-282.238 67.5-194.27 0-310.849-114.534-310.849-304.725V415.028c0-42.95 24.545-71.596 89.979-71.596 28.646 0 61.375 6.146 77.729 10.225v212.692h382.429c2.05 14.321 6.129 42.95 6.129 67.5 0 59.304-24.533 79.754-61.337 79.754h-327.221v533.771c0 114.529 53.175 169.737 161.562 169.737 98.159 0 153.384-42.933 200.417-42.933 49.079 0 73.625 40.884 63.4 122.692" style="fill:#fff;fill-rule:nonzero"/><defs><linearGradient id="a" x1="0" y1="0" x2="1" y2="0" gradientUnits="userSpaceOnUse" gradientTransform="rotate(-92 4050.217 -1914.93) scale(2050.4491)"><stop offset="0" style="stop-color:#cc1316;stop-opacity:1"/><stop offset=".2" style="stop-color:#cc1316;stop-opacity:1"/><stop offset=".55" style="stop-color:#e30613;stop-opacity:1"/><stop offset="1" style="stop-color:#e30613;stop-opacity:1"/></linearGradient><linearGradient id="b" x1="0" y1="0" x2=".55" y2="0" gradientUnits="userSpaceOnUse" gradientTransform="rotate(-92 4050.197 -1914.95) scale(2049.8387)"><stop offset="0" style="stop-color:#cc1316;stop-opacity:1"/><stop offset=".364" style="stop-color:#cc1316;stop-opacity:1"/><stop offset="1" style="stop-color:#e84250;stop-opacity:1"/></linearGradient></defs><path style="opacity:.9;fill:#e30613;fill-opacity:1;stroke-width:9.95012" d="M3333.329 889.579c.036-760.641.641-786.093 19.425-816.9 10.664-17.488 31.718-39.876 46.789-49.75 26.236-17.191 139.681-17.954 2670.033-17.954s2643.798.763 2670.034 17.953c15.07 9.875 36.125 32.263 46.788 49.751 18.724 30.708 19.39 55.413 19.425 720.843l.037 689.047-32.338 1.065c-17.786.586-107.344 3.944-199.019 7.462l-166.68 6.398.02-40.074c.03-85.171-45.339-102.579-167.535-64.274-110.028 34.49-188.301 20.109-234.722-43.125-19.603-26.704-20.755-42.826-23.633-330.842l-3.029-302.77H8158c173.772 0 179.535-.655 194.565-22.114 9.27-13.233 15.49-43.203 15.49-74.626v-52.512H7980v-108.29c0-103.891-.91-108.535-22.388-114.291-65.85-17.647-139.375 4.639-150.339 45.568-11.062 41.297-7.059 876.121 4.502 938.657 12.96 70.109 30.846 108.127 70.588 150.04l29.487 31.099-62.939 5.905c-34.616 3.248-172.639 8.488-306.716 11.645-134.078 3.157-260.974 8.236-281.991 11.286-36.018 5.228-37.59 4.382-27.363-14.726 7.121-13.306 10.85-119.984 10.85-310.432 0-280.859.687-291.165 21.46-321.546 72.188-105.573 147.823-152.071 270.264-166.151 44.773-5.149 84.764-9.395 88.868-9.437 21.294-.215 47.253-42.732 47.127-77.188-.238-65.435-8.062-79.265-48.497-85.731-98.363-15.73-244.064 38.583-327.598 122.118l-51.624 51.624-.146-57.687c-.08-31.728-5.678-68.6-12.438-81.938-15.133-29.856-65.593-44.39-123.809-35.66l-42.71 6.404v981.49l-82.088 5.899c-45.149 3.244-180.595 8.466-300.991 11.604l-218.903 5.705 65.736-23.893c82.048-29.821 142.085-70.705 202.492-137.892 87.43-97.244 124.802-202.614 124.802-351.885 0-154.508-49.527-273.422-154.953-372.043-74.46-69.653-149.407-107.152-256.221-128.195-193.047-38.033-402.777 46.064-511.01 204.9-61.25 89.887-87.247 181.79-86.439 305.572.795 121.749 24.126 198.682 89.74 295.918 74.036 109.718 190 183.012 325.325 205.62 50.701 8.471 50.827 8.58 11.2 9.73-208.6 6.055-1197.964 41.331-1280.803 45.668l-106.964 5.6v-201.047l46.03 40.516c176.963 155.77 460.08 138.235 623.83-38.635 91.968-99.336 136.1-217.683 136.1-364.97 0-156.315-40.68-268.656-133.648-369.071-166.643-179.996-447.653-198.52-626.282-41.284l-46.03 40.517v-43.407c0-23.874-6.691-52.961-14.87-64.638-17.391-24.829-75.797-37.374-128.218-27.54l-36.014 6.757v1061.547l-32.338 4.835c-17.786 2.66-260.693 11.96-539.794 20.668-279.101 8.708-573.5 18.618-654.22 22.02l-146.765 6.189zm895.474 668.51c173.826-31.061 271.226-118.826 285.398-257.163 6.722-65.608-8.286-122.098-46.423-174.746-51.201-70.68-103.106-94.098-412.507-186.109-66.64-19.817-97.216-34.715-121.889-59.387-54.26-54.26-41.618-122.777 29.86-161.825 44.028-24.052 241.786-23.925 342.151.221 92.22 22.186 117.938 21.704 142.313-2.671 14.45-14.45 19.9-33.167 19.9-68.34v-48.44l-57.213-15.692c-204.259-56.025-400.78-57.155-523.214-3.009-163.494 72.305-218.063 266.533-110.265 392.47 47.565 55.57 130.217 94.803 296.259 140.629 163.738 45.19 213.41 66.732 244.24 105.927 43.498 55.298 17.129 132.288-56.979 166.366-67.542 31.059-228.3 30.086-366.41-2.218-55.524-12.987-111.845-20.879-125.159-17.537-29.371 7.371-47.518 43.957-47.518 95.8 0 34.772 3.177 39.565 32.338 48.79 172.409 54.544 339.933 71.092 475.118 46.935z"/><path style="opacity:.9;fill:#e30613;fill-opacity:1;stroke-width:9.95012" d="M5108.222 1404.1c-74.566-19.302-133.702-57.655-190.373-123.47l-32.338-37.557V868.647l28.665-39.57c15.765-21.764 50.378-53.954 76.918-71.533 176.28-116.763 402.018-57.823 490.302 128.017 23.35 49.153 25.998 66.377 25.998 169.152 0 104.911-2.293 119.096-27.581 170.574-32.115 65.377-99.463 131.376-162.527 159.272-48.897 21.63-160.644 32.075-209.064 19.54zM6271.888 1403.961c-58.097-14.92-137.18-67.038-173.023-114.025-54.664-71.66-73.986-135.245-72.99-240.198 1.456-153.575 62.904-262.404 180.87-320.333 49.662-24.387 68.193-27.896 146.41-27.724 104.39.23 161.887 22.388 226.96 87.462 98.438 98.438 128.641 291.738 67.264 430.49-27.885 63.041-101.878 137.511-162.746 163.797-55.985 24.178-159.608 34.178-212.745 20.531zM3403.556 2061.394c-60.397-32.39-70.264-65.67-70.264-236.985v-151.002l82.088-5.778c45.149-3.178 305.967-12.898 579.595-21.6 273.628-8.7 545.64-18.912 604.47-22.692l106.964-6.872v251.615l40.76 6.518c50.867 8.134 103.791-1.265 120.575-21.413 7.941-9.532 14.679-57.249 17.767-125.823l4.975-110.467 164.177-6.732c144.104-5.909 721.813-26.675 1228.84-44.172 216.765-7.48 222.57-7.845 218.883-13.771-1.702-2.737 55.815-3.655 127.815-2.04 72 1.614 198.072-1.017 280.16-5.848 82.09-4.83 151.491-5.712 154.227-1.958 11.757 16.127 90.21 19.336 131.368 5.374 30.7-10.415 133.969-17.603 366.139-25.486 184.59-6.267 324.812-15.036 326.719-20.432 1.837-5.199 16.093-.371 31.68 10.728 98.771 70.33 272.195 72.637 439.164 5.838 60.039-24.019 81.743-26.785 255.903-32.61l190.3-6.365v247.994c0 278.196-4.293 298.598-70.265 333.98-32.589 17.477-135.843 18.181-2666.02 18.181s-2633.431-.704-2666.02-18.181z"/></svg>