<svg width="3717.68" height="499.95" data-name="Livello 1" xmlns="http://www.w3.org/2000/svg"><defs><linearGradient y2=".522" x2="1.006" y1=".522" x1=".006" id="b"><stop stop-color="#ff0031" offset="0"/><stop stop-color="#cc0029" offset=".64"/><stop stop-color="#b40026" offset="1"/></linearGradient><linearGradient y2=".541" x2="1.006" y1=".541" x1=".006" id="d"><stop stop-color="#ff0031" offset="0"/><stop stop-color="#d6002a" offset=".57"/><stop stop-color="#bc0026" offset="1"/></linearGradient><clipPath id="a"><path fill="none" d="M831.86 0a33.29 33.29 0 0 0-33.36 33.29v433.36a33.33 33.33 0 0 0 33.36 33.28h1593.77a33.37 33.37 0 0 0 33.37-33.28V33.29A33.32 33.32 0 0 0 2425.63 0H831.86z"/></clipPath><clipPath id="c"><path fill="none" d="M831.86 0a33.29 33.29 0 0 0-33.36 33.29v240.37c0-3.51 1.36-23.48 24-25.62l3.15-.22 1608.44-56.19c12.53-.43 24.84-9.74 24.84-25.27l.07-133.07A33.32 33.32 0 0 0 2425.63 0H831.86z"/></clipPath></defs><path fill="#b40026" d="M3684.41 0H2413.88a33.29 33.29 0 0 0-33.27 33.33v433.35a33.28 33.28 0 0 0 33.27 33.32h1270.53a33.28 33.28 0 0 0 33.27-33.27V33.33A33.29 33.29 0 0 0 3684.41 0m0 10a23.36 23.36 0 0 1 23.32 23.32v433.36a23.36 23.36 0 0 1-23.32 23.32H2413.88a23.34 23.34 0 0 1-23.26-23.32V33.33A23.34 23.34 0 0 1 2413.88 10h1270.53"/><path fill="#fff" d="M3684.41 10a23.36 23.36 0 0 1 23.32 23.32v433.36a23.36 23.36 0 0 1-23.32 23.32H2413.88a23.34 23.34 0 0 1-23.26-23.32V33.33A23.34 23.34 0 0 1 2413.88 10h1270.53"/><path fill="#b40026" d="M2721.72 225v125.3a68.73 68.73 0 0 1-15.07 1.65c-12.23 0-17.92-4.5-17.92-12.63v-17.09c-17.46 19.9-40.27 31.73-69.16 31.73-43.52 0-67.52-28.49-67.52-59.43 0-47.15 50.45-67.91 136.28-62.23v-6.94c0-32.13-9.78-45.55-46.81-45.55-15.41 0-36.17 4.49-47.15 7.33-6.54 1.65-11.43 3.25-15.47 3.25-9.39 0-15.47-8.14-12.23-25.2 20-7.34 48.86-14.28 76.5-14.28 57.39 0 78.55 25.66 78.55 74.06m-33.39 68.36v-37c-56.14-4-102.95 3.24-102.95 37 0 17.07 14.28 32.54 39.87 32.54 26.05 0 48.86-13 63.08-32.54M2761.56 252.24c0-58.19 42.72-101.3 99.25-101.3a162.68 162.68 0 0 1 68 15.47c2.85 18.32-2.84 25.6-11 25.6-14.22 0-26.44-11.78-55.74-11.78-36.63 0-66.71 27.25-66.71 72 0 44.36 30.08 72 66.71 72 29.3 0 41.52-12.18 54.49-12.18 8.59 0 14.68 7.68 12.23 26a155.87 155.87 0 0 1-68 15.87c-56.53 0-99.25-43.91-99.25-101.7M3082.86 340.53c-17.06 8.13-36.63 13.42-56.14 13.42-38.67 0-61.82-22.8-61.82-60.63v-168c0-8.52 4.83-14.27 17.86-14.27a72.11 72.11 0 0 1 15.47 2v42.35h76.1a103.21 103.21 0 0 1 1.19 13.42c0 11.83-4.89 15.87-12.17 15.87h-65.12v106.19c0 22.8 10.58 33.78 32.13 33.78 19.57 0 30.55-8.53 39.88-8.53 9.78 0 14.67 8.13 12.62 24.4M3108.75 110.22a21 21 0 0 1 21.16-21.11c12.23 0 21.56 8.93 21.56 21.11a21.57 21.57 0 0 1-21.56 21.15c-11.37 0-21.16-10.12-21.16-21.15m4.5 240.07V165.56c0-7.74 4.49-12.57 17.91-12.57a72.08 72.08 0 0 1 15 1.59v184.74c0 8.13-4 12.63-17.46 12.63a75.58 75.58 0 0 1-15.47-1.66M3186.6 252.24c0-58.19 42.71-101.3 100.1-101.3 57.79 0 100.5 43.11 100.5 101.3 0 57.79-42.71 101.7-100.5 101.7-57.39 0-100.1-43.91-100.1-101.7m166.82 0c0-44.76-30.09-72-66.72-72-36.23 0-66.32 27.25-66.32 72 0 44.36 30.09 72.4 66.32 72.4 36.63 0 66.72-28 66.72-72.4M3600.59 233.93v105.39c0 7.74-4.49 12.57-17.92 12.57a76.84 76.84 0 0 1-15.47-1.59V238.42c0-39.07-19.11-57.78-48-57.78-22.35 0-46.76 15.47-56.54 33.78v124.9c0 7.74-4.49 12.57-17.91 12.57a76.86 76.86 0 0 1-15.48-1.59V154.59a76.29 76.29 0 0 1 15.48-1.65c13.42 0 17.91 4.89 17.91 12.62v16.73c14.22-17.52 35.78-31.34 64.67-31.34 39.87 0 73.26 25.19 73.26 83"/><g clip-path="url(#a)"><path fill="url(#b)" d="M798.5 0h1660.49v499.93H798.5z"/></g><g clip-path="url(#c)"><path fill="url(#d)" d="M798.5 0h1660.49v273.66H798.5z"/></g><path fill="#ff0031" d="M499.5 464c5.94 3 18 6.66 33.21 7.09 26.13.57 40.38-9.38 51-32.78l140-311.81c-5.72-3.08-18.61-6.59-29-6.73-18-.43-42.3 3.22-57.62 40.08L591.7 266.63 502.79 122a131.26 131.26 0 0 0-30-4.23c-31.5 0-49 11.53-67.22 31.29L319.1 243.4l69.58 109.31c12.81 19.9 29.78 30.06 57.27 30.06 18 0 33-4.22 39.94-7.44l-83.75-126 59.34-62.92 97.35 152.69L499.5 464zM315.75 346c0 23-9 36.22-54 36.22a101.7 101.7 0 0 1-16.11-1.15V76.23c0-23.27 7.87-47.39 53.19-47.39a81.17 81.17 0 0 1 16.89 1.72l.03 315.44zm-92.7-46c0 42.95-28.06 74.23-85.11 80.39-41.3 4.36-101.07-.79-129.49-4.08a81.28 81.28 0 0 1-1.72-15c0-37.37 20.19-46 39.23-46 19.75 0 50.89 3.51 73.94 3.51 25.56 0 33.21-8.66 33.21-16.9 0-10.73-10.16-15.17-30-19L69 272.57c-45-8.66-69-39.72-69-72.65 0-40.09 28.42-73.66 84.32-79.81 42.31-4.59 93.78.57 122.05 4a74.45 74.45 0 0 1 1.51 14.39c0 37.44-19.76 45.46-38.8 45.46-14.6 0-37.3-2.65-63.21-2.65-26.34 0-37.29 7.3-37.29 16.1 0 9.38 10.38 13.25 26.91 16.11l51.68 9.59c53.05 9.74 75.88 39.87 75.88 76.88"/><path fill="#fff" d="M892.45 252.69c0-70.15 51.54-122.19 119.75-122.19a196.19 196.19 0 0 1 82 18.61c3.43 22.12-3.44 30.92-13.24 30.92-17.19 0-31.93-14.24-67.22-14.24-44.24 0-80.53 32.93-80.53 86.9 0 53.47 36.29 86.9 80.53 86.9 35.29 0 50-14.75 65.71-14.75 10.31 0 17.68 9.31 14.75 31.43a188.7 188.7 0 0 1-82 19.11c-68.21 0-119.75-53-119.75-122.69M1134.68 81.42a25.32 25.32 0 0 1 25.48-25.55c14.75 0 26.06 10.81 26.06 25.55 0 13.24-11.31 25.48-26.06 25.48-13.74 0-25.48-12.24-25.48-25.48m5.37 289.58V148.14c0-9.31 5.37-15.18 21.62-15.18a83.32 83.32 0 0 1 18.11 1.93v222.84c0 9.8-4.87 15.17-21 15.17a89.82 89.82 0 0 1-18.68-1.93M1449.78 230.61v127.13c0 9.3-5.37 15.17-21.62 15.17a89.08 89.08 0 0 1-18.61-1.93V236c0-47.11-23-69.65-57.91-69.65-27 0-56.48 18.61-68.22 40.73v150.66c0 9.3-5.44 15.17-21.62 15.17a88.53 88.53 0 0 1-18.61-1.93V134.9a88.53 88.53 0 0 1 18.61-1.9c16.18 0 21.62 5.87 21.62 15.17v20.12c17.18-21.12 43.17-37.8 78-37.8 48.1 0 88.33 30.42 88.33 100.15M1721.64 267.43h-182.53c5.36 45.59 36.79 71.15 83.39 71.15 20.18 0 35.86-3.94 50.61-8.8 10.3-3.44 14.67-4.94 18.61-4.94 11.31 0 18.68 9.3 16.68 30.92-21.12 9.31-53.48 19.61-87.33 19.61-73.59 0-123.2-49.53-123.2-123.19 0-70.65 52.55-121.69 116.83-121.69 72.58 0 108.44 56.41 108.44 113.39a205.44 205.44 0 0 1-1.5 23.55M1539.11 236h144.8c-1.5-40.23-27.48-71.65-69.21-71.65-36.37 0-69.22 25.05-75.59 71.65M2101.35 215.88v141.8c0 9.88-5.37 15.25-21.62 15.25a94 94 0 0 1-18.61-1.93V220.82c0-34.36-16.18-54.47-47.1-54.47-26.06 0-47.6 18.11-56.48 36.79v154.54c0 9.88-5.37 15.25-21.62 15.25a94.1 94.1 0 0 1-18.61-1.93V220.82c0-34.36-16.18-54.47-47.1-54.47-26.06 0-47.6 18.11-56.48 36.79v154.54c0 9.88-5.37 15.25-21.54 15.25a94.92 94.92 0 0 1-18.69-1.93V134.92a90.34 90.34 0 0 1 19.11-2c15.25 0 20.62 5.94 20.62 16.25v16.17c15.25-20.11 38.8-34.86 67.29-34.86 31.42 0 55.9 15.68 68.21 42.67 16.18-24.48 40.73-42.67 75.59-42.67 50.54 0 77 37.8 77 85.4M2351.83 219.8V371a84.38 84.38 0 0 1-18.11 1.93c-14.75 0-21.62-5.37-21.62-15.17v-20.64c-21.12 24.05-48.61 38.3-83.47 38.3-52.47 0-81.46-34.36-81.46-71.66 0-57 60.85-82 164.43-75.09v-8.37c0-38.8-11.81-55-56.41-55-18.68 0-43.74 5.44-57 8.88-7.87 1.93-13.74 3.86-18.61 3.86-11.31 0-18.68-9.8-14.75-30.42 24.06-8.8 58.92-17.18 92.27-17.18 69.22 0 94.71 30.93 94.71 89.34m-40.23 82.46v-44.65c-67.72-4.87-124.2 3.94-124.2 44.67 0 20.61 17.18 39.3 48.11 39.3 31.42 0 58.91-15.75 76.09-39.3"/></svg>