<svg viewBox="0 0 2734 500" xml:space="preserve" style="fill-rule:evenodd;clip-rule:evenodd;stroke-linejoin:round;stroke-miterlimit:2" xmlns="http://www.w3.org/2000/svg"><path d="M2699.98 499.996h-622.092c-18.396 0-33.309-14.913-33.309-33.308V33.308c0-18.395 14.913-33.308 33.309-33.308h622.092c18.395 0 33.308 14.913 33.308 33.308v433.38c0 18.395-14.913 33.308-33.309 33.308" style="fill:#fff;fill-rule:nonzero"/><path d="M2328.32 135.266v222.617c0 9.892-4.945 15.333-20.775 15.333-6.925 0-14.35-.987-18.308-1.979V177.316l-44.521 13.854c-20.779 6.43-29.679-6.433-25.725-30.179l73.709-24.241c16.325-5.442 26.22-4.946 35.62-1.484M2565.76 251.522c0-54.421-31.162-87.563-69.75-87.563-39.083 0-70.25 33.142-70.25 87.563 0 53.921 31.167 88.054 70.25 88.054 38.588 0 69.75-34.133 69.75-88.054m-179.079 0c0-70.746 42.542-123.179 109.329-123.179 66.784 0 108.834 52.433 108.834 123.179 0 70.246-42.05 123.675-108.834 123.675-66.787 0-109.329-53.429-109.329-123.675" style="fill:#e6e6e6;fill-rule:nonzero"/><path d="M831.917 0c-18.413 0-33.334 14.921-33.334 33.333v433.334c0 18.412 14.921 33.333 33.334 33.333h1249.56c18.408 0 33.334-14.921 33.334-33.333l-.001-433.334C2114.811 14.921 2099.886 0 2081.477 0H831.917z" style="fill:url(#a);fill-rule:nonzero"/><path d="M831.917 0c2444.046 6.541 11471.37-9.666-.003 0z" style="fill:#e30613;fill-rule:nonzero;fill-opacity:1"/><path d="M245.658 76.233v304.946c4.996.754 10.184 1.142 16.138 1.142 44.954 0 53.992-13.233 53.992-36.246V30.588c-5.388-1.159-11.155-1.734-16.917-1.734-45.338 0-53.213 24.171-53.213 47.379zm159.938 72.871-86.454 94.371 69.546 109.317c12.875 19.941 29.779 30.104 57.258 30.104 18.058 0 33.042-4.217 39.958-7.471l-83.771-126.012 59.367-62.9 97.408 152.662-59.366 124.854c5.958 3.063 18.058 6.704 33.237 7.092 26.129.575 40.35-9.392 50.917-32.796L723.75 126.479c-5.762-3.071-18.633-6.521-29.008-6.712-18.059-.379-42.267 3.262-57.638 40.087l-45.337 106.817-88.954-144.604c-5.767-1.734-19.796-4.217-29.975-4.217-31.509 0-48.992 11.504-67.242 31.254zM84.342 120.15C28.433 126.288 0 159.854 0 199.938c0 32.979 24.017 64.054 68.971 72.679l54.183 10.358c19.784 3.842 29.971 8.246 29.971 18.996 0 8.242-7.687 16.871-33.237 16.871-23.055 0-54.18-3.45-73.971-3.45-19.017 0-39.188 8.629-39.188 46.025 0 4.608.763 10.358 1.725 14.958 28.434 3.267 88.184 8.446 129.492 4.033 57.058-6.141 85.112-37.404 85.112-80.362 0-37.013-22.866-67.129-75.891-76.904l-51.684-9.592c-16.525-2.879-26.895-6.717-26.895-16.117 0-8.816 10.95-16.104 37.27-16.104 25.938 0 48.609 2.684 63.213 2.684 19.017 0 38.804-8.059 38.804-45.455 0-4.987-.575-9.591-1.533-14.383-20.275-2.475-52.525-5.846-84.746-5.842-12.667 0-25.329.517-37.254 1.817z" style="fill:#e6e6e6;fill-rule:nonzero"/><path d="M894.485 359.249c-2.946-20.613 3.433-31.413 15.212-31.413 11.292 0 38.779 12.271 77.063 12.271 40.25 0 55.462-14.233 55.462-32.883 0-13.254-5.887-25.034-42.212-34.85l-41.721-11.292c-46.138-12.267-64.296-35.337-64.296-63.804 0-35.338 27.979-66.754 91.292-66.754 28.47 0 63.808 6.383 85.404 14.729 3.925 20.121-2.454 30.921-14.725 30.921-10.796 0-35.338-10.309-70.188-10.309-37.3 0-51.046 12.759-51.046 29.446 0 11.784 5.4 22.579 38.78 31.909l42.7 11.779c47.608 13.25 66.75 35.337 66.75 66.75 0 36.812-28.467 69.7-97.184 69.7-30.433 0-68.225-7.367-91.291-16.2M1324.99 252.743c0-51.538-34.359-86.88-80.496-86.88-31.413 0-60.375 18.163-73.625 44.667v84.913c13.25 26.504 42.212 44.666 73.625 44.666 46.137 0 80.496-35.341 80.496-87.366m40.737 0c0 77.058-53.991 122.704-113.383 122.704-35.338 0-64.296-16.688-81.475-40.246v99.146c0 9.325-5.396 15.212-21.104 15.212-7.85 0-15.217-.979-19.142-1.958V134.947c3.925-.988 11.292-1.967 19.142-1.967 15.708 0 21.104 5.892 21.104 15.213v22.579c17.179-23.559 46.137-40.246 81.475-40.246 59.392 0 113.383 45.646 113.383 122.217M1604.66 252.743c0-53.992-36.325-86.88-80.496-86.88-43.687 0-80.008 32.888-80.008 86.88 0 53.5 36.321 87.366 80.008 87.366 44.171 0 80.496-33.866 80.496-87.366m-201.242 0c0-70.192 51.538-122.217 120.746-122.217 69.696 0 121.229 52.025 121.229 122.217 0 69.695-51.533 122.704-121.229 122.704-69.208 0-120.746-53.009-120.746-122.704M1840.01 152.613c0 16.2-6.867 19.633-23.559 19.633-33.866 0-62.333 15.704-80 52.517v133.012c0 9.821-5.4 15.221-21.6 15.221-6.87 0-14.725-.983-18.654-1.967V134.946c3.929-.988 11.784-1.967 18.654-1.967 16.2 0 21.6 5.892 21.6 15.213v32.887c23.067-34.846 57.913-52.512 101.596-46.625.492 3.434 1.963 10.796 1.963 18.159M2016.51 359.249c-20.616 9.816-44.179 16.2-67.737 16.2-46.625 0-74.604-27.488-74.604-73.134V99.607c0-10.308 5.891-17.183 21.595-17.183 6.875 0 14.73 1.475 18.655 2.454v51.046h91.783c.492 3.437 1.471 10.308 1.471 16.2 0 14.233-5.888 19.141-14.721 19.141h-78.533V299.37c0 27.487 12.762 40.737 38.775 40.737 23.558 0 36.812-10.304 48.1-10.304 11.779 0 17.67 9.812 15.216 29.446" style="fill:#fff;fill-rule:nonzero"/><path style="opacity:.9;fill:#e30613;fill-opacity:1;stroke-width:2.42161" d="M799.136 215.112c.003-173.498.315-187.874 4.238-195.567 2.328-4.567 7.31-10.56 11.07-13.319l6.838-5.015h1270.636l6.837 5.015c15.896 11.66 15.304 4.495 15.309 185.48v163.858l-17.557 1.397c-9.656.769-31.451 1.68-48.433 2.023l-30.876.625v-9.753c0-20.797-9.299-24.451-39.155-15.383-28.958 8.796-48.778 3.7-58.31-14.992-3.74-7.335-4.234-16.428-4.238-77.925v-69.622h42.003c49.542 0 50.018-.215 50.018-22.59V135.61h-91.857l-.687-26.032-.688-26.032-14.154-.734c-9.449-.489-15.96.45-19.584 2.825l-5.43 3.558-1.505 104.96c-1.864 130.053-.614 141.155 18.122 160.915l7.176 7.568-12.896 1.428c-7.093.786-41.229 2.076-75.858 2.866-34.629.79-65.965 2.007-69.636 2.702-6.456 1.223-6.587 1.04-4.018-5.591 1.772-4.576 2.38-29.099 1.83-73.757l-.824-66.9 9.593-13.933c15.906-23.102 35.378-33.3 69.492-36.394 21.033-1.908 24.344-5.376 23.357-24.463l-.735-14.197-21.794.051c-19.425.045-23.589.895-38.298 7.817-10.726 5.047-21.11 12.485-29.665 21.247l-13.161 13.48v-18.097c0-23.512-2.084-25.708-24.39-25.708h-16.777V369.93l-22.4 1.444c-12.32.795-45.284 2.061-73.254 2.814l-50.854 1.37 15.796-5.553c44.238-15.552 73.065-50.44 80.28-97.165 9.737-63.052-25.644-120.557-85.013-138.171-17.29-5.13-53.267-5.13-70.558 0-59.171 17.556-94.783 75.202-85.067 137.7 8.765 56.38 49.358 96.306 104.605 102.89l15.74 1.875-24.215.478c-13.32.263-92.597 2.858-176.173 5.767l-151.956 5.289v-48.893l10.15 9.655c29.557 28.117 79.188 34.51 119.454 15.388 40.855-19.402 64.125-59.96 64.125-111.76 0-52.051-22.69-91.129-65.075-112.077-17.979-8.885-18.604-9.004-47.404-9.004-27.631 0-30.03.4-45.067 7.526-8.735 4.14-20.45 11.87-26.032 17.182l-10.15 9.655v-11.464c0-7.313-1.536-13.362-4.24-16.701-3.738-4.616-6.246-5.15-21.19-4.506l-16.949.73-.627 127.508-.626 127.508-24.8 1.453c-13.64.799-77.108 3.07-141.038 5.048-63.93 1.977-126.862 4.24-139.848 5.027l-23.61 1.432zm237.443 153.222c25.912-9.796 40.953-26.153 45.882-49.893 6.175-29.748-7.227-54.271-38.23-69.954-6.277-3.175-27.76-10.332-47.738-15.904-19.978-5.573-40.841-12.76-46.363-15.97-20.02-11.646-18.708-32.62 2.769-44.278 10.518-5.709 54.159-5.425 81.483.53 11.516 2.51 23.588 3.899 26.828 3.086 6.964-1.748 11.564-10.64 11.564-22.353 0-10.031-2.574-11.368-35.113-18.231-47.925-10.109-96.855-4.792-120.27 13.067-29.41 22.432-32.105 67.756-5.422 91.184 12.583 11.049 24.051 16.077 58.262 25.547 56.005 15.502 67.203 21.358 70.07 36.641 6.009 32.03-33.994 44.819-98.267 31.418-16.633-3.469-32.162-6.306-34.508-6.306-8.25 0-13.951 8.829-13.951 21.606 0 11.311.402 12.05 7.87 14.47 44.787 14.508 104.63 16.873 135.134 5.34z"/><path style="opacity:.9;fill:#e30613;fill-opacity:1;stroke-width:2.42161" d="M819.716 496.549c-6.633-2.753-14.89-12.044-18.001-20.254-1.42-3.75-2.583-21.953-2.583-40.453v-33.635l7.87-1.294c4.329-.712 74.889-3.493 156.8-6.18 81.91-2.687 152.47-5.473 156.799-6.19l7.87-1.305v60.668l6.186 1.552c10.658 2.676 30.629-.386 34.177-5.239 2.21-3.02 3.226-12.546 3.226-30.214v-25.803l28.454-1.465c15.65-.806 89.165-3.386 163.368-5.734 74.203-2.348 133.968-4.853 132.812-5.566-1.156-.714 12.506-1.143 30.36-.954 17.856.19 32.463-.356 32.46-1.21 0-.856 13.893-1.233 30.876-.84 16.984.395 47.225-.243 67.203-1.417 19.979-1.174 36.688-1.224 37.132-.111 1.451 3.638 33.627 2.356 37.477-1.494 1.935-1.934 4.038-2.997 4.673-2.36 2.02 2.018 155.583-3.913 156.325-6.038.391-1.12 6.93 1.377 14.53 5.546 13.45 7.377 14.63 7.577 44.09 7.46 27.451-.107 31.848-.755 47.22-6.962 14.83-5.986 21.651-7.093 54.487-8.843 20.644-1.1 42.711-2.438 49.038-2.974l11.502-.974v59.095c0 63.667-.433 66.219-13.284 78.226l-6.479 6.054-634.872.46c-349.18.252-637.053-.446-639.716-1.552zM1219.086 334.761c-14.937-5.342-29.926-16.051-39.727-28.384l-7.299-9.185v-87.98l7.346-9.988c28.832-39.205 91.48-42.417 123.254-6.32 14.461 16.428 20.307 33.744 20.307 60.154 0 26.411-5.846 43.727-20.307 60.156-19.64 22.312-55.548 31.57-83.574 21.547zM1502.61 335.784c-16.496-5.466-24.384-10.627-36.024-23.574-29.012-32.268-27.749-92.243 2.582-122.574 15.87-15.87 29.83-21.238 55.237-21.238 18.202 0 23.773.973 33.8 5.904 27.205 13.378 42.68 38.413 44.446 71.907 2.74 51.949-27.666 89.415-74.614 91.939-8.96.481-19.913-.537-25.427-2.364zM2291.45 371.324c-2.35-.948-3.027-22.748-3.027-97.526v-96.305l-26.611 8.068c-20.64 6.257-27.986 7.545-32.735 5.74-7.051-2.68-11.44-12.252-10.393-22.668.71-7.065 1.549-7.482 43.102-21.39 31.532-10.554 45.167-14.013 53.275-13.514l10.897.67.658 115.027c.656 114.85.649 115.033-4.506 119.264-4.948 4.061-23.23 5.632-30.66 2.634z"/><path style="opacity:.9;fill:#252381;fill-opacity:1;stroke-width:2.42161" d="M2472.466 372.691c-38.691-7.556-69.59-39.415-81.106-83.628-4.704-18.06-4.691-56.329.025-74.847 15.609-61.286 68.303-95.639 127.578-83.171 40.566 8.532 69.478 38.046 81.036 82.724 5.07 19.593 5.066 56.576-.01 76.182-15.671 60.58-67.805 94.403-127.527 82.74zm49.643-39.446c22.78-10.788 37.693-33.796 42.107-64.962 4.964-35.052-5-68.203-26.241-87.3-13.294-11.953-25.1-16.324-43.995-16.29-25.45.046-46.875 15.292-59.523 42.355-6.265 13.404-6.788 16.78-6.755 43.589.03 24.425.902 31.214 5.468 42.57 15.579 38.747 54.584 56.306 88.939 40.038zM2296.542 371.246c-2.194-.55-4.631-3.392-5.415-6.318-.785-2.925-1.442-46.583-1.46-97.017-.03-86.176-.288-91.624-4.27-90.47-2.331.676-14.347 4.183-26.701 7.794-24.89 7.275-32.243 6.78-36.452-2.46-4.799-10.531-3.53-17.627 3.823-21.382 15.996-8.168 75.866-25.783 87.633-25.783h12.258l-.033 110.789c-.018 60.934-.693 113.253-1.5 116.264-.853 3.183-3.88 5.97-7.232 6.66-11.864 2.437-16.772 2.894-20.65 1.923z"/><defs><linearGradient id="a" x1="0" y1="0" x2="1" y2="0" gradientUnits="userSpaceOnUse" gradientTransform="rotate(-92 972.053 -459.583) scale(492.1088)"><stop offset="0" style="stop-color:#cc1316;stop-opacity:1"/><stop offset=".2" style="stop-color:#cc1316;stop-opacity:1"/><stop offset=".55" style="stop-color:#e30613;stop-opacity:1"/><stop offset="1" style="stop-color:#e30613;stop-opacity:1"/></linearGradient></defs></svg>