<?xml version="1.0" encoding="UTF-8" standalone="no"?>
<svg
   viewBox="0 0 2605 500"
   xml:space="preserve"
   style="fill-rule:evenodd;clip-rule:evenodd;stroke-linejoin:round;stroke-miterlimit:2"
   version="1.1"
   id="svg27"
   sodipodi:docname="sky-sport-9.svg"
   inkscape:version="1.1.1 (3bf5ae0d25, 2021-09-20)"
   xmlns:inkscape="http://www.inkscape.org/namespaces/inkscape"
   xmlns:sodipodi="http://sodipodi.sourceforge.net/DTD/sodipodi-0.dtd"
   xmlns:xlink="http://www.w3.org/1999/xlink"
   xmlns="http://www.w3.org/2000/svg"
   xmlns:svg="http://www.w3.org/2000/svg"><sodipodi:namedview
     id="namedview29"
     pagecolor="#ffffff"
     bordercolor="#666666"
     borderopacity="1.0"
     inkscape:pageshadow="2"
     inkscape:pageopacity="0.0"
     inkscape:pagecheckerboard="0"
     showgrid="false"
     inkscape:zoom="0.43339731"
     inkscape:cx="1302.5"
     inkscape:cy="250.34765"
     inkscape:window-width="1920"
     inkscape:window-height="1017"
     inkscape:window-x="-8"
     inkscape:window-y="-8"
     inkscape:window-maximized="1"
     inkscape:current-layer="svg27" /><path
     d="M2571.18 499.996h-493.296c-18.395 0-33.308-14.913-33.308-33.308V33.308c0-18.395 14.913-33.308 33.308-33.308h493.296c18.396 0 33.309 14.913 33.309 33.308v433.38c0 18.395-14.913 33.308-33.309 33.308"
     style="fill:#fff;fill-rule:nonzero"
     id="path2" /><path
     d="M2354.71 251.522c24.242 0 47.492-6.929 65.304-18.8-4.95-44.521-28.2-68.763-64.313-68.763-32.154 0-55.408 15.829-55.408 46.504 0 25.23 21.275 41.059 54.417 41.059m104.879-.992c0 76.183-40.071 124.667-111.804 124.667-26.713 0-56.888-7.421-76.675-15.338-1.983-19.291 4.946-31.166 16.325-31.166 10.883 0 29.683 10.883 60.35 10.883 41.058 0 67.279-23.742 72.229-71.729-18.8 10.387-40.071 18.304-68.767 18.304-53.92 0-90.033-28.692-90.033-75.688 0-47.491 38.092-82.12 94.488-82.12 60.85 0 103.887 42.541 103.887 122.187"
     style="fill:#253183;fill-rule:nonzero"
     id="path4" /><path
     d="M831.917 0c-18.413 0-33.334 14.921-33.334 33.333v433.334c0 18.412 14.921 33.333 33.334 33.333h1249.56c18.408 0 33.334-14.921 33.334-33.333l-.001-433.334C2114.811 14.921 2099.886 0 2081.477 0H831.917z"
     style="fill:#e30613;fill-rule:nonzero;fill-opacity:1"
     id="path6" /><use
     xlink:href="#_Image3"
     x="798"
     width="1317"
     height="274"
     id="use8" /><path
     d="M245.658 76.233v304.946c4.996.754 10.184 1.142 16.138 1.142 44.954 0 53.992-13.233 53.992-36.246V30.588c-5.388-1.159-11.155-1.734-16.917-1.734-45.338 0-53.213 24.171-53.213 47.379zm159.938 72.871-86.454 94.371 69.546 109.317c12.875 19.941 29.779 30.104 57.258 30.104 18.058 0 33.042-4.217 39.958-7.471l-83.771-126.012 59.367-62.9 97.408 152.662-59.366 124.854c5.958 3.063 18.058 6.704 33.237 7.092 26.129.575 40.35-9.392 50.917-32.796L723.75 126.479c-5.762-3.071-18.633-6.521-29.008-6.712-18.059-.379-42.267 3.262-57.638 40.087l-45.337 106.817-88.954-144.604c-5.767-1.734-19.796-4.217-29.975-4.217-31.509 0-48.992 11.504-67.242 31.254zM84.342 120.15C28.433 126.288 0 159.854 0 199.938c0 32.979 24.017 64.054 68.971 72.679l54.183 10.358c19.784 3.842 29.971 8.246 29.971 18.996 0 8.242-7.687 16.871-33.237 16.871-23.055 0-54.18-3.45-73.971-3.45-19.017 0-39.188 8.629-39.188 46.025 0 4.608.763 10.358 1.725 14.958 28.434 3.267 88.184 8.446 129.492 4.033 57.058-6.141 85.112-37.404 85.112-80.362 0-37.013-22.866-67.129-75.891-76.904l-51.684-9.592c-16.525-2.879-26.895-6.717-26.895-16.117 0-8.816 10.95-16.104 37.27-16.104 25.938 0 48.609 2.684 63.213 2.684 19.017 0 38.804-8.059 38.804-45.455 0-4.987-.575-9.591-1.533-14.383-20.275-2.475-52.525-5.846-84.746-5.842-12.667 0-25.329.517-37.254 1.817z"
     style="fill:#e6e6e6;fill-rule:nonzero"
     id="path10" /><use
     xlink:href="#_Image5"
     y="103"
     width="724"
     height="206"
     id="use12" /><path
     d="M894.485 359.249c-2.946-20.613 3.433-31.413 15.212-31.413 11.292 0 38.779 12.271 77.063 12.271 40.25 0 55.462-14.233 55.462-32.883 0-13.254-5.887-25.034-42.212-34.85l-41.721-11.292c-46.138-12.267-64.296-35.337-64.296-63.804 0-35.338 27.979-66.754 91.292-66.754 28.47 0 63.808 6.383 85.404 14.729 3.925 20.121-2.454 30.921-14.725 30.921-10.796 0-35.338-10.309-70.188-10.309-37.3 0-51.046 12.759-51.046 29.446 0 11.784 5.4 22.579 38.78 31.909l42.7 11.779c47.608 13.25 66.75 35.337 66.75 66.75 0 36.812-28.467 69.7-97.184 69.7-30.433 0-68.225-7.367-91.291-16.2M1324.99 252.743c0-51.538-34.359-86.88-80.496-86.88-31.413 0-60.375 18.163-73.625 44.667v84.913c13.25 26.504 42.212 44.666 73.625 44.666 46.137 0 80.496-35.341 80.496-87.366m40.737 0c0 77.058-53.991 122.704-113.383 122.704-35.338 0-64.296-16.688-81.475-40.246v99.146c0 9.325-5.396 15.212-21.104 15.212-7.85 0-15.217-.979-19.142-1.958V134.947c3.925-.988 11.292-1.967 19.142-1.967 15.708 0 21.104 5.892 21.104 15.213v22.579c17.179-23.559 46.137-40.246 81.475-40.246 59.392 0 113.383 45.646 113.383 122.217M1604.66 252.743c0-53.992-36.325-86.88-80.496-86.88-43.687 0-80.008 32.888-80.008 86.88 0 53.5 36.321 87.366 80.008 87.366 44.171 0 80.496-33.866 80.496-87.366m-201.242 0c0-70.192 51.538-122.217 120.746-122.217 69.696 0 121.229 52.025 121.229 122.217 0 69.695-51.533 122.704-121.229 122.704-69.208 0-120.746-53.009-120.746-122.704M1840.01 152.613c0 16.2-6.867 19.633-23.559 19.633-33.866 0-62.333 15.704-80 52.517v133.012c0 9.821-5.4 15.221-21.6 15.221-6.87 0-14.725-.983-18.654-1.967V134.946c3.929-.988 11.784-1.967 18.654-1.967 16.2 0 21.6 5.892 21.6 15.213v32.887c23.067-34.846 57.913-52.512 101.596-46.625.492 3.434 1.963 10.796 1.963 18.159M2016.51 359.249c-20.616 9.816-44.179 16.2-67.737 16.2-46.625 0-74.604-27.488-74.604-73.134V99.607c0-10.308 5.891-17.183 21.595-17.183 6.875 0 14.73 1.475 18.655 2.454v51.046h91.783c.492 3.437 1.471 10.308 1.471 16.2 0 14.233-5.888 19.141-14.721 19.141h-78.533V299.37c0 27.487 12.762 40.737 38.775 40.737 23.558 0 36.812-10.304 48.1-10.304 11.779 0 17.67 9.812 15.216 29.446"
     style="fill:#fff;fill-rule:nonzero"
     id="path14" /><defs
     id="defs25"><linearGradient
       id="a"
       x1="0"
       y1="0"
       x2="1"
       y2="0"
       gradientUnits="userSpaceOnUse"
       gradientTransform="rotate(-92 972.053 -459.583) scale(492.1088)"><stop
         offset="0"
         style="stop-color:#cc1316;stop-opacity:1"
         id="stop16" /><stop
         offset=".2"
         style="stop-color:#cc1316;stop-opacity:1"
         id="stop18" /><stop
         offset=".55"
         style="stop-color:#e30613;stop-opacity:1"
         id="stop20" /><stop
         offset="1"
         style="stop-color:#e30613;stop-opacity:1"
         id="stop22" /></linearGradient></defs></svg>
