<?xml version="1.0" encoding="UTF-8"?>
<!DOCTYPE svg PUBLIC "-//W3C//DTD SVG 1.1//EN" "http://www.w3.org/Graphics/SVG/1.1/DTD/svg11.dtd">
<svg xmlns="http://www.w3.org/2000/svg" version="1.1" width="640px" height="134px" style="shape-rendering:geometricPrecision; text-rendering:geometricPrecision; image-rendering:optimizeQuality; fill-rule:evenodd; clip-rule:evenodd" xmlns:xlink="http://www.w3.org/1999/xlink">
<g><path style="opacity:0.992" fill="#020202" d="M 639.5,12.5 C 639.5,48.5 639.5,84.5 639.5,120.5C 637.35,126.148 633.35,129.981 627.5,132C 422.167,132.667 216.833,132.667 11.5,132C 6.66667,129.833 3.16667,126.333 1,121.5C 0.333333,84.8333 0.333333,48.1667 1,11.5C 3.25629,6.24251 7.08963,2.74251 12.5,1C 217.5,0.333333 422.5,0.333333 627.5,1C 633.325,2.99253 637.325,6.82586 639.5,12.5 Z"/></g>
<g><path style="opacity:1" fill="#fdfdfd" d="M 624.5,129.5 C 510.999,129.833 397.665,129.5 284.5,128.5C 294.739,124.727 301.906,117.727 306,107.5C 308.462,101.319 310.462,94.9857 312,88.5C 314.706,68.2155 318.706,48.2155 324,28.5C 328.193,16.3073 336.359,8.14067 348.5,4C 441.167,3.33333 533.833,3.33333 626.5,4C 631.206,5.1045 634.373,7.93783 636,12.5C 636.667,48.1667 636.667,83.8333 636,119.5C 634.488,125.513 630.655,128.846 624.5,129.5 Z"/></g>
<g><path style="opacity:1" fill="#090909" d="M 395.5,40.5 C 402.175,40.3337 408.842,40.5004 415.5,41C 424.274,56.2557 433.608,71.089 443.5,85.5C 451.029,78.8048 458.029,71.6381 464.5,64C 457.696,56.3613 450.696,48.8613 443.5,41.5C 450.811,40.3354 458.144,40.1687 465.5,41C 468.679,45.5124 472.512,49.3457 477,52.5C 481.455,49.0478 485.622,45.2144 489.5,41C 496.524,40.1689 503.524,40.3356 510.5,41.5C 503.078,48.7765 495.745,56.2765 488.5,64C 496.531,71.6968 504.198,79.6968 511.5,88C 504.167,88.6667 496.833,88.6667 489.5,88C 485.685,83.0181 481.352,78.5181 476.5,74.5C 472.376,79.1252 468.043,83.6252 463.5,88C 450.167,88.6667 436.833,88.6667 423.5,88C 422.084,85.1651 420.417,82.4985 418.5,80C 409.482,79.168 400.482,79.3347 391.5,80.5C 390.167,82.8333 388.833,85.1667 387.5,87.5C 380.524,88.6644 373.524,88.8311 366.5,88C 376.392,72.2812 386.059,56.4478 395.5,40.5 Z"/></g>
<g><path style="opacity:1" fill="#040404" d="M 560.5,62.5 C 560.811,63.4778 561.478,64.1445 562.5,64.5C 563.498,56.5277 563.831,48.5277 563.5,40.5C 569.833,40.5 576.167,40.5 582.5,40.5C 582.5,56.5 582.5,72.5 582.5,88.5C 576.491,88.6662 570.491,88.4995 564.5,88C 555.631,79.4623 546.464,71.2956 537,63.5C 536.5,71.8267 536.334,80.16 536.5,88.5C 530.5,88.5 524.5,88.5 518.5,88.5C 518.5,72.5 518.5,56.5 518.5,40.5C 524.176,40.3339 529.843,40.5006 535.5,41C 543.492,48.6477 551.825,55.8143 560.5,62.5 Z"/></g>
<g><path style="opacity:1" fill="#b4b4b4" d="M 563.5,40.5 C 563.831,48.5277 563.498,56.5277 562.5,64.5C 561.478,64.1445 560.811,63.4778 560.5,62.5C 562.152,55.3899 563.152,48.0566 563.5,40.5 Z"/></g>
<g><path style="opacity:1" fill="#f2f2f2" d="M 60.5,46.5 C 68.5614,45.7076 76.2281,47.0409 83.5,50.5C 85.1789,48.8955 87.1789,48.2289 89.5,48.5C 89.5,52.5 89.5,56.5 89.5,60.5C 87.8333,60.5 86.1667,60.5 84.5,60.5C 84.7035,58.6096 84.0368,57.1096 82.5,56C 74.4205,52.2241 66.0872,51.5574 57.5,54C 54.6736,56.5219 55.0069,58.5219 58.5,60C 68.8866,60.2106 78.8866,62.2106 88.5,66C 93.8333,71.3333 93.8333,76.6667 88.5,82C 76.9389,87.8251 65.2722,87.9918 53.5,82.5C 52.6143,83.325 52.281,84.325 52.5,85.5C 50.5,85.5 48.5,85.5 46.5,85.5C 46.5,80.8333 46.5,76.1667 46.5,71.5C 48.5,71.5 50.5,71.5 52.5,71.5C 54.2662,77.2452 58.2662,80.4119 64.5,81C 70.0642,82.01 75.3975,81.3433 80.5,79C 83.1667,77 83.1667,75 80.5,73C 71.7842,71.9577 63.1175,70.6244 54.5,69C 47.1713,66.6698 44.6713,61.8365 47,54.5C 50.6013,50.1232 55.1013,47.4565 60.5,46.5 Z"/></g>
<g><path style="opacity:1" fill="#f4f4f4" d="M 120.5,46.5 C 132.942,44.9235 143.442,48.5901 152,57.5C 156.876,72.3227 151.709,81.8227 136.5,86C 124.027,88.8959 113.193,86.0626 104,77.5C 97.4467,65.8407 99.9467,56.6741 111.5,50C 114.598,48.7724 117.598,47.6057 120.5,46.5 Z"/></g>
<g><path style="opacity:1" fill="#979797" d="M 244.5,49.5 C 236.5,49.5 228.5,49.5 220.5,49.5C 220.5,50.8333 220.5,52.1667 220.5,53.5C 219.549,52.0813 219.216,50.4147 219.5,48.5C 228.017,48.1739 236.35,48.5073 244.5,49.5 Z"/></g>
<g><path style="opacity:1" fill="#f5f5f5" d="M 159.5,48.5 C 165.509,48.3338 171.509,48.5005 177.5,49C 185.333,56.1667 193.167,63.3333 201,70.5C 201.667,65.1667 201.667,59.8333 201,54.5C 198.959,53.5769 196.792,53.2436 194.5,53.5C 194.5,51.8333 194.5,50.1667 194.5,48.5C 201.5,48.5 208.5,48.5 215.5,48.5C 215.5,50.1667 215.5,51.8333 215.5,53.5C 213.208,53.2436 211.041,53.5769 209,54.5C 208.5,64.4944 208.334,74.4944 208.5,84.5C 204.781,84.9975 201.447,84.1642 198.5,82C 190.333,74.5 182.167,67 174,59.5C 173.333,66.1667 173.333,72.8333 174,79.5C 176.041,80.4231 178.208,80.7564 180.5,80.5C 180.5,81.8333 180.5,83.1667 180.5,84.5C 173.833,84.5 167.167,84.5 160.5,84.5C 160.5,83.1667 160.5,81.8333 160.5,80.5C 162.467,80.7394 164.301,80.4061 166,79.5C 166.667,71.1667 166.667,62.8333 166,54.5C 163.959,53.5769 161.792,53.2436 159.5,53.5C 159.5,51.8333 159.5,50.1667 159.5,48.5 Z"/></g>
<g><path style="opacity:1" fill="#f6f6f6" d="M 220.5,53.5 C 220.5,52.1667 220.5,50.8333 220.5,49.5C 228.5,49.5 236.5,49.5 244.5,49.5C 244.5,50.8333 244.5,52.1667 244.5,53.5C 243.127,53.3433 241.793,53.51 240.5,54C 243.342,57.6724 246.342,61.1724 249.5,64.5C 252.658,61.1724 255.658,57.6724 258.5,54C 257.207,53.51 255.873,53.3433 254.5,53.5C 254.5,51.8333 254.5,50.1667 254.5,48.5C 261.167,48.5 267.833,48.5 274.5,48.5C 274.5,50.1667 274.5,51.8333 274.5,53.5C 272.143,53.3367 269.81,53.5034 267.5,54C 262.667,59.5 257.833,65 253,70.5C 252.333,73.5 252.333,76.5 253,79.5C 255.041,80.4231 257.208,80.7564 259.5,80.5C 259.5,81.8333 259.5,83.1667 259.5,84.5C 251.5,84.5 243.5,84.5 235.5,84.5C 235.5,83.1667 235.5,81.8333 235.5,80.5C 237.5,80.5 239.5,80.5 241.5,80.5C 241.665,76.8183 241.499,73.1516 241,69.5C 236.051,64.4287 231.217,59.262 226.5,54C 224.527,53.5045 222.527,53.3379 220.5,53.5 Z"/></g>
<g><path style="opacity:1" fill="#040404" d="M 120.5,52.5 C 136.652,49.8242 143.819,56.4908 142,72.5C 137.585,79.9759 131.085,82.8092 122.5,81C 113.303,77.1007 110.136,70.2674 113,60.5C 115.028,57.3078 117.528,54.6411 120.5,52.5 Z"/></g>
<g><path style="opacity:1" fill="#e6e6e6" d="M 404.5,57.5 C 405.496,57.4142 406.329,57.7476 407,58.5C 409.067,61.7264 410.9,65.0597 412.5,68.5C 407.833,69.8333 403.167,69.8333 398.5,68.5C 400.258,64.6462 402.258,60.9795 404.5,57.5 Z"/></g>
<g><path style="opacity:1" fill="#767676" d="M 284.5,128.5 C 397.665,129.5 510.999,129.833 624.5,129.5C 510.334,130.666 396.001,130.833 281.5,130C 282.527,129.487 283.527,128.987 284.5,128.5 Z"/></g>
</svg>
