<?xml version="1.0" encoding="UTF-8"?>
<!DOCTYPE svg PUBLIC "-//W3C//DTD SVG 1.1//EN" "http://www.w3.org/Graphics/SVG/1.1/DTD/svg11.dtd">
<svg xmlns="http://www.w3.org/2000/svg" version="1.1" width="640px" height="134px" style="shape-rendering:geometricPrecision; text-rendering:geometricPrecision; image-rendering:optimizeQuality; fill-rule:evenodd; clip-rule:evenodd" xmlns:xlink="http://www.w3.org/1999/xlink">
<g><path style="opacity:0.992" fill="#020202" d="M 639.5,12.5 C 639.5,48.5 639.5,84.5 639.5,120.5C 637.35,126.148 633.35,129.981 627.5,132C 422.167,132.667 216.833,132.667 11.5,132C 6.66667,129.833 3.16667,126.333 1,121.5C 0.333333,84.8333 0.333333,48.1667 1,11.5C 3.25629,6.24251 7.08963,2.74251 12.5,1C 217.5,0.333333 422.5,0.333333 627.5,1C 633.325,2.99253 637.325,6.82586 639.5,12.5 Z"/></g>
<g><path style="opacity:1" fill="#fefefe" d="M 624.5,129.5 C 510.999,129.833 397.665,129.5 284.5,128.5C 294.739,124.727 301.906,117.727 306,107.5C 308.462,101.319 310.462,94.9857 312,88.5C 314.706,68.2155 318.706,48.2155 324,28.5C 328.193,16.3073 336.359,8.14067 348.5,4C 441.167,3.33333 533.833,3.33333 626.5,4C 631.206,5.1045 634.373,7.93783 636,12.5C 636.667,48.1667 636.667,83.8333 636,119.5C 634.488,125.513 630.655,128.846 624.5,129.5 Z"/></g>
<g><path style="opacity:1" fill="#f2f2f2" d="M 60.5,46.5 C 68.5614,45.7076 76.2281,47.0409 83.5,50.5C 85.1789,48.8955 87.1789,48.2289 89.5,48.5C 89.5,52.5 89.5,56.5 89.5,60.5C 87.8333,60.5 86.1667,60.5 84.5,60.5C 84.7035,58.6096 84.0368,57.1096 82.5,56C 74.4205,52.2241 66.0872,51.5574 57.5,54C 54.6736,56.5219 55.0069,58.5219 58.5,60C 68.8866,60.2106 78.8866,62.2106 88.5,66C 93.8333,71.3333 93.8333,76.6667 88.5,82C 76.9389,87.8251 65.2722,87.9918 53.5,82.5C 52.6143,83.325 52.281,84.325 52.5,85.5C 50.5,85.5 48.5,85.5 46.5,85.5C 46.5,80.8333 46.5,76.1667 46.5,71.5C 48.5,71.5 50.5,71.5 52.5,71.5C 54.2662,77.2452 58.2662,80.4119 64.5,81C 70.0642,82.01 75.3975,81.3433 80.5,79C 83.1667,77 83.1667,75 80.5,73C 71.7842,71.9577 63.1175,70.6244 54.5,69C 47.1713,66.6698 44.6713,61.8365 47,54.5C 50.6013,50.1232 55.1013,47.4565 60.5,46.5 Z"/></g>
<g><path style="opacity:1" fill="#f4f4f4" d="M 120.5,46.5 C 132.942,44.9235 143.442,48.5901 152,57.5C 156.876,72.3227 151.709,81.8227 136.5,86C 124.027,88.8959 113.193,86.0626 104,77.5C 97.4467,65.8407 99.9467,56.6741 111.5,50C 114.598,48.7724 117.598,47.6057 120.5,46.5 Z"/></g>
<g><path style="opacity:1" fill="#979797" d="M 244.5,49.5 C 236.5,49.5 228.5,49.5 220.5,49.5C 220.5,50.8333 220.5,52.1667 220.5,53.5C 219.549,52.0813 219.216,50.4147 219.5,48.5C 228.017,48.1739 236.35,48.5073 244.5,49.5 Z"/></g>
<g><path style="opacity:1" fill="#f5f5f5" d="M 159.5,48.5 C 165.509,48.3338 171.509,48.5005 177.5,49C 185.333,56.1667 193.167,63.3333 201,70.5C 201.667,65.1667 201.667,59.8333 201,54.5C 198.959,53.5769 196.792,53.2436 194.5,53.5C 194.5,51.8333 194.5,50.1667 194.5,48.5C 201.5,48.5 208.5,48.5 215.5,48.5C 215.5,50.1667 215.5,51.8333 215.5,53.5C 213.208,53.2436 211.041,53.5769 209,54.5C 208.5,64.4944 208.334,74.4944 208.5,84.5C 204.781,84.9975 201.447,84.1642 198.5,82C 190.333,74.5 182.167,67 174,59.5C 173.333,66.1667 173.333,72.8333 174,79.5C 176.041,80.4231 178.208,80.7564 180.5,80.5C 180.5,81.8333 180.5,83.1667 180.5,84.5C 173.833,84.5 167.167,84.5 160.5,84.5C 160.5,83.1667 160.5,81.8333 160.5,80.5C 162.467,80.7394 164.301,80.4061 166,79.5C 166.667,71.1667 166.667,62.8333 166,54.5C 163.959,53.5769 161.792,53.2436 159.5,53.5C 159.5,51.8333 159.5,50.1667 159.5,48.5 Z"/></g>
<g><path style="opacity:1" fill="#f6f6f6" d="M 220.5,53.5 C 220.5,52.1667 220.5,50.8333 220.5,49.5C 228.5,49.5 236.5,49.5 244.5,49.5C 244.5,50.8333 244.5,52.1667 244.5,53.5C 243.127,53.3433 241.793,53.51 240.5,54C 243.342,57.6724 246.342,61.1724 249.5,64.5C 252.658,61.1724 255.658,57.6724 258.5,54C 257.207,53.51 255.873,53.3433 254.5,53.5C 254.5,51.8333 254.5,50.1667 254.5,48.5C 261.167,48.5 267.833,48.5 274.5,48.5C 274.5,50.1667 274.5,51.8333 274.5,53.5C 272.143,53.3367 269.81,53.5034 267.5,54C 262.667,59.5 257.833,65 253,70.5C 252.333,73.5 252.333,76.5 253,79.5C 255.041,80.4231 257.208,80.7564 259.5,80.5C 259.5,81.8333 259.5,83.1667 259.5,84.5C 251.5,84.5 243.5,84.5 235.5,84.5C 235.5,83.1667 235.5,81.8333 235.5,80.5C 237.5,80.5 239.5,80.5 241.5,80.5C 241.665,76.8183 241.499,73.1516 241,69.5C 236.051,64.4287 231.217,59.262 226.5,54C 224.527,53.5045 222.527,53.3379 220.5,53.5 Z"/></g>
<g><path style="opacity:1" fill="#040404" d="M 120.5,52.5 C 136.652,49.8242 143.819,56.4908 142,72.5C 137.585,79.9759 131.085,82.8092 122.5,81C 113.303,77.1007 110.136,70.2674 113,60.5C 115.028,57.3078 117.528,54.6411 120.5,52.5 Z"/></g>
<g><path style="opacity:1" fill="#171717" d="M 358.5,53.5 C 362.106,53.2108 365.606,53.5442 369,54.5C 369.781,55.9437 369.614,57.277 368.5,58.5C 358.358,56.8201 354.524,61.1535 357,71.5C 358.167,72.6667 359.333,73.8333 360.5,75C 363.758,75.2117 366.924,75.7117 370,76.5C 370.658,78.108 370.158,79.2747 368.5,80C 355.712,81.1806 349.878,75.3473 351,62.5C 352.642,58.6997 355.142,55.6997 358.5,53.5 Z"/></g>
<g><path style="opacity:1" fill="#060606" d="M 403.5,64.5 C 404.479,61.3752 404.813,58.0419 404.5,54.5C 405.833,54.5 407.167,54.5 408.5,54.5C 408.5,62.8333 408.5,71.1667 408.5,79.5C 406.833,79.5 405.167,79.5 403.5,79.5C 403.5,75.8333 403.5,72.1667 403.5,68.5C 400.167,68.5 396.833,68.5 393.5,68.5C 393.5,72.1667 393.5,75.8333 393.5,79.5C 391.833,79.5 390.167,79.5 388.5,79.5C 388.5,70.8333 388.5,62.1667 388.5,53.5C 390.167,53.5 391.833,53.5 393.5,53.5C 393.5,57.1667 393.5,60.8333 393.5,64.5C 396.833,64.5 400.167,64.5 403.5,64.5 Z"/></g>
<g><path style="opacity:1" fill="#444444" d="M 408.5,79.5 C 408.5,71.1667 408.5,62.8333 408.5,54.5C 407.167,54.5 405.833,54.5 404.5,54.5C 404.813,58.0419 404.479,61.3752 403.5,64.5C 403.5,60.8333 403.5,57.1667 403.5,53.5C 405.5,53.5 407.5,53.5 409.5,53.5C 409.826,62.3494 409.493,71.0161 408.5,79.5 Z"/></g>
<g><path style="opacity:1" fill="#0c0c0c" d="M 435.5,53.5 C 438.119,53.2317 440.619,53.565 443,54.5C 446.536,62.6081 449.369,70.9414 451.5,79.5C 447.612,80.0113 445.279,78.3447 444.5,74.5C 440.833,73.1667 437.167,73.1667 433.5,74.5C 433.023,79.1872 430.689,80.5205 426.5,78.5C 429.312,70.0621 432.312,61.7287 435.5,53.5 Z"/></g>
<g><path style="opacity:1" fill="#050505" d="M 475.5,64.5 C 475.217,63.7109 474.717,63.0442 474,62.5C 473.501,68.1569 473.334,73.8236 473.5,79.5C 472.167,79.5 470.833,79.5 469.5,79.5C 469.5,70.8333 469.5,62.1667 469.5,53.5C 471.288,53.2148 472.955,53.5481 474.5,54.5C 478.197,59.6981 481.697,65.0314 485,70.5C 485.499,64.8431 485.666,59.1764 485.5,53.5C 487.167,53.5 488.833,53.5 490.5,53.5C 490.5,62.1667 490.5,70.8333 490.5,79.5C 488.801,79.6602 487.134,79.4935 485.5,79C 481.946,74.2863 478.613,69.453 475.5,64.5 Z"/></g>
<g><path style="opacity:1" fill="#0a0a0a" d="M 509.5,53.5 C 511.467,53.2606 513.301,53.5939 515,54.5C 518.085,59.672 521.419,64.672 525,69.5C 525.499,64.1771 525.666,58.8437 525.5,53.5C 527.167,53.5 528.833,53.5 530.5,53.5C 530.5,62.1667 530.5,70.8333 530.5,79.5C 528.533,79.7394 526.699,79.4061 525,78.5C 521.915,73.328 518.581,68.328 515,63.5C 514.501,68.8229 514.334,74.1563 514.5,79.5C 512.833,79.5 511.167,79.5 509.5,79.5C 509.5,70.8333 509.5,62.1667 509.5,53.5 Z"/></g>
<g><path style="opacity:1" fill="#080808" d="M 565.5,57.5 C 561.833,57.5 558.167,57.5 554.5,57.5C 554.198,60.0593 554.532,62.3926 555.5,64.5C 558.5,64.5 561.5,64.5 564.5,64.5C 564.5,65.8333 564.5,67.1667 564.5,68.5C 561.167,68.5 557.833,68.5 554.5,68.5C 554.5,70.8333 554.5,73.1667 554.5,75.5C 558.167,75.5 561.833,75.5 565.5,75.5C 565.5,76.8333 565.5,78.1667 565.5,79.5C 560.167,79.5 554.833,79.5 549.5,79.5C 549.5,70.8333 549.5,62.1667 549.5,53.5C 554.833,53.5 560.167,53.5 565.5,53.5C 565.5,54.8333 565.5,56.1667 565.5,57.5 Z"/></g>
<g><path style="opacity:1" fill="#020202" d="M 598.5,75.5 C 598.5,76.8333 598.5,78.1667 598.5,79.5C 593.5,79.5 588.5,79.5 583.5,79.5C 583.5,70.8333 583.5,62.1667 583.5,53.5C 585.167,53.5 586.833,53.5 588.5,53.5C 588.5,60.8333 588.5,68.1667 588.5,75.5C 591.833,75.5 595.167,75.5 598.5,75.5 Z"/></g>
<g><path style="opacity:1" fill="#888888" d="M 565.5,57.5 C 562.375,58.4794 559.042,58.8128 555.5,58.5C 555.5,60.5 555.5,62.5 555.5,64.5C 554.532,62.3926 554.198,60.0593 554.5,57.5C 558.167,57.5 561.833,57.5 565.5,57.5 Z"/></g>
<g><path style="opacity:1" fill="#dadada" d="M 438.5,58.5 C 440.99,61.6257 442.323,65.2924 442.5,69.5C 440.167,69.5 437.833,69.5 435.5,69.5C 436.297,65.7768 437.297,62.1101 438.5,58.5 Z"/></g>
<g><path style="opacity:1" fill="#545454" d="M 475.5,64.5 C 474.833,69.5 474.167,74.5 473.5,79.5C 473.334,73.8236 473.501,68.1569 474,62.5C 474.717,63.0442 475.217,63.7109 475.5,64.5 Z"/></g>
<g><path style="opacity:1" fill="#a6a6a6" d="M 598.5,75.5 C 599.451,76.9187 599.784,78.5853 599.5,80.5C 593.974,80.8214 588.64,80.4881 583.5,79.5C 588.5,79.5 593.5,79.5 598.5,79.5C 598.5,78.1667 598.5,76.8333 598.5,75.5 Z"/></g>
<g><path style="opacity:1" fill="#767676" d="M 284.5,128.5 C 397.665,129.5 510.999,129.833 624.5,129.5C 510.334,130.666 396.001,130.833 281.5,130C 282.527,129.487 283.527,128.987 284.5,128.5 Z"/></g>
</svg>
