<?xml version="1.0" encoding="UTF-8"?>
<!DOCTYPE svg PUBLIC "-//W3C//DTD SVG 1.1//EN" "http://www.w3.org/Graphics/SVG/1.1/DTD/svg11.dtd">
<svg xmlns="http://www.w3.org/2000/svg" version="1.1" width="220px" height="67px" style="shape-rendering:geometricPrecision; text-rendering:geometricPrecision; image-rendering:optimizeQuality; fill-rule:evenodd; clip-rule:evenodd" xmlns:xlink="http://www.w3.org/1999/xlink">
<g><path style="opacity:1" fill="#ffffff" d="M -0.5,25.5 C -0.5,18.1667 -0.5,10.8333 -0.5,3.5C 4.08148,2.39322 8.74815,2.22656 13.5,3C 14.435,5.3806 14.7683,7.8806 14.5,10.5C 12.5,10.5 10.5,10.5 8.5,10.5C 8.5,9.5 8.5,8.5 8.5,7.5C 7.16667,7.5 5.83333,7.5 4.5,7.5C 4.5,8.83333 4.5,10.1667 4.5,11.5C 7.83333,11.5 11.1667,11.5 14.5,11.5C 17.7948,25.2073 12.7948,29.874 -0.5,25.5 Z M 4.5,16.5 C 5.83333,16.5 7.16667,16.5 8.5,16.5C 8.5,18.1667 8.5,19.8333 8.5,21.5C 7.16667,21.5 5.83333,21.5 4.5,21.5C 4.5,19.8333 4.5,18.1667 4.5,16.5 Z"/></g>
<g><path style="opacity:1" fill="#ffffff" d="M 16.5,2.5 C 22.3027,1.91317 27.8027,2.57983 33,4.5C 36.1494,2.63753 39.6494,1.97086 43.5,2.5C 42.651,6.43756 41.9844,10.4376 41.5,14.5C 41.9844,18.5624 42.651,22.5624 43.5,26.5C 40.1667,26.5 36.8333,26.5 33.5,26.5C 34.349,22.5624 35.0156,18.5624 35.5,14.5C 34.3952,2.61834 33.5618,2.61834 33,14.5C 30.1737,16.3398 27.0071,17.0065 23.5,16.5C 24.1667,19.8333 24.8333,23.1667 25.5,26.5C 22.5,26.5 19.5,26.5 16.5,26.5C 17.8333,18.5 17.8333,10.5 16.5,2.5 Z M 23.5,7.5 C 24.8333,7.5 26.1667,7.5 27.5,7.5C 27.5,8.83333 27.5,10.1667 27.5,11.5C 26.1667,11.5 24.8333,11.5 23.5,11.5C 23.5,10.1667 23.5,8.83333 23.5,7.5 Z"/></g>
<g><path style="opacity:1" fill="#ffffff" d="M 44.5,2.5 C 50.1667,2.5 55.8333,2.5 61.5,2.5C 61.5,5.16667 61.5,7.83333 61.5,10.5C 59.5,10.5 57.5,10.5 55.5,10.5C 55.5,9.5 55.5,8.5 55.5,7.5C 54.1667,7.5 52.8333,7.5 51.5,7.5C 51.5,8.83333 51.5,10.1667 51.5,11.5C 53.8333,11.5 56.1667,11.5 58.5,11.5C 58.5,13.1667 58.5,14.8333 58.5,16.5C 59.5,16.5 60.5,16.5 61.5,16.5C 61.5,19.8333 61.5,23.1667 61.5,26.5C 55.8333,26.5 50.1667,26.5 44.5,26.5C 45.349,22.5624 46.0156,18.5624 46.5,14.5C 46.0156,10.4376 45.349,6.43756 44.5,2.5 Z M 51.5,16.5 C 53.1992,16.3398 54.8659,16.5065 56.5,17C 55.6198,18.3561 55.2865,19.8561 55.5,21.5C 54.1667,21.5 52.8333,21.5 51.5,21.5C 51.5,19.8333 51.5,18.1667 51.5,16.5 Z"/></g>
<g><path style="opacity:1" fill="#ffffff" d="M 64.5,2.5 C 68.8461,2.33432 73.1794,2.50098 77.5,3C 78.435,5.3806 78.7683,7.8806 78.5,10.5C 76.5,10.5 74.5,10.5 72.5,10.5C 72.5,9.5 72.5,8.5 72.5,7.5C 71.1667,7.5 69.8333,7.5 68.5,7.5C 68.5,12.1667 68.5,16.8333 68.5,21.5C 69.8333,21.5 71.1667,21.5 72.5,21.5C 72.5,19.8333 72.5,18.1667 72.5,16.5C 71.5,16.5 70.5,16.5 69.5,16.5C 69.5,14.8333 69.5,13.1667 69.5,11.5C 72.5,11.5 75.5,11.5 78.5,11.5C 78.5,16.5 78.5,21.5 78.5,26.5C 73.7668,26.7768 69.1001,26.4435 64.5,25.5C 63.2022,17.7756 63.2022,10.109 64.5,2.5 Z"/></g>
<g><path style="opacity:1" fill="#ffffff" d="M 79.5,2.5 C 85.1667,2.5 90.8333,2.5 96.5,2.5C 96.5,5.16667 96.5,7.83333 96.5,10.5C 94.5,10.5 92.5,10.5 90.5,10.5C 90.5,9.5 90.5,8.5 90.5,7.5C 89.1667,7.5 87.8333,7.5 86.5,7.5C 86.5,8.83333 86.5,10.1667 86.5,11.5C 88.8333,11.5 91.1667,11.5 93.5,11.5C 93.5,13.1667 93.5,14.8333 93.5,16.5C 94.5,16.5 95.5,16.5 96.5,16.5C 96.5,19.8333 96.5,23.1667 96.5,26.5C 90.8333,26.5 85.1667,26.5 79.5,26.5C 80.349,22.5624 81.0156,18.5624 81.5,14.5C 81.0156,10.4376 80.349,6.43756 79.5,2.5 Z M 86.5,16.5 C 88.1992,16.3398 89.8659,16.5065 91.5,17C 90.6198,18.3561 90.2865,19.8561 90.5,21.5C 89.1667,21.5 87.8333,21.5 86.5,21.5C 86.5,19.8333 86.5,18.1667 86.5,16.5 Z"/></g>
<g><path style="opacity:1" fill="#ffffff" d="M 98.5,2.5 C 101.5,2.5 104.5,2.5 107.5,2.5C 105.994,8.71863 105.327,15.052 105.5,21.5C 106.833,21.5 108.167,21.5 109.5,21.5C 109.5,19.8333 109.5,18.1667 109.5,16.5C 111.5,16.5 113.5,16.5 115.5,16.5C 115.5,19.8333 115.5,23.1667 115.5,26.5C 109.833,26.5 104.167,26.5 98.5,26.5C 98.2289,24.1789 98.8955,22.1789 100.5,20.5C 99.1915,16.3024 99.1915,12.1357 100.5,8C 98.8078,6.59928 98.1412,4.76595 98.5,2.5 Z"/></g>
<g><path style="opacity:1" fill="#ffffff" d="M 121.5,2.5 C 127.167,2.5 132.833,2.5 138.5,2.5C 138.5,5.16667 138.5,7.83333 138.5,10.5C 136.833,10.5 135.167,10.5 133.5,10.5C 133.649,9.44802 133.483,8.44802 133,7.5C 132.833,9.83333 132.667,12.1667 132.5,14.5C 132.984,18.5624 133.651,22.5624 134.5,26.5C 131.167,26.5 127.833,26.5 124.5,26.5C 124.5,24.8333 124.5,23.1667 124.5,21.5C 125.552,21.6495 126.552,21.4828 127.5,21C 126.167,16.6667 126.167,12.3333 127.5,8C 125.939,7.81194 125.272,8.64527 125.5,10.5C 124.167,10.5 122.833,10.5 121.5,10.5C 121.5,7.83333 121.5,5.16667 121.5,2.5 Z"/></g>
<g><path style="opacity:1" fill="#ffffff" d="M 139.5,2.5 C 142.167,2.5 144.833,2.5 147.5,2.5C 147.881,7.23744 148.714,11.9041 150,16.5C 150.772,11.8087 151.605,7.14208 152.5,2.5C 154.833,2.5 157.167,2.5 159.5,2.5C 156.857,9.86314 155.023,17.5298 154,25.5C 151.333,26.8333 148.667,26.8333 146,25.5C 144.757,17.3804 142.591,9.71376 139.5,2.5 Z"/></g>
<g><path style="opacity:1" fill="#ffffff" d="M 170.5,2.5 C 171.833,2.5 173.167,2.5 174.5,2.5C 174.5,12.1667 174.5,21.8333 174.5,31.5C 179.5,31.5 184.5,31.5 189.5,31.5C 189.5,21.8333 189.5,12.1667 189.5,2.5C 190.833,2.5 192.167,2.5 193.5,2.5C 193.5,23.5 193.5,44.5 193.5,65.5C 192.167,65.5 190.833,65.5 189.5,65.5C 189.5,55.5 189.5,45.5 189.5,35.5C 184.5,35.5 179.5,35.5 174.5,35.5C 174.5,45.5 174.5,55.5 174.5,65.5C 173.167,65.5 171.833,65.5 170.5,65.5C 170.5,44.5 170.5,23.5 170.5,2.5 Z"/></g>
<g><path style="opacity:1" fill="#ffffff" d="M 219.5,6.5 C 219.5,24.5 219.5,42.5 219.5,60.5C 217.918,62.9697 215.585,64.4697 212.5,65C 207.511,65.4993 202.511,65.6659 197.5,65.5C 197.5,44.5 197.5,23.5 197.5,2.5C 203.176,2.33391 208.843,2.50058 214.5,3C 216.323,3.99728 217.99,5.16394 219.5,6.5 Z M 200.5,6.5 C 205.074,5.16533 209.74,5.332 214.5,7C 215.126,7.75044 215.626,8.58377 216,9.5C 216.667,25.8333 216.667,42.1667 216,58.5C 215.167,59.3333 214.333,60.1667 213.5,61C 209.167,61.6667 204.833,61.6667 200.5,61C 201.831,42.7356 201.831,24.5689 200.5,6.5 Z"/></g>
<g><path style="opacity:1" fill="#ffffff" d="M -0.5,31.5 C 52.8333,31.5 106.167,31.5 159.5,31.5C 159.5,32.8333 159.5,34.1667 159.5,35.5C 106.167,35.5 52.8333,35.5 -0.5,35.5C -0.5,34.1667 -0.5,32.8333 -0.5,31.5 Z"/></g>
<g><path style="opacity:1" fill="#ffffff" d="M 63.5,38.5 C 70.0498,38.2312 73.0498,41.2312 72.5,47.5C 71.5,47.5 70.5,47.5 69.5,47.5C 70.0468,43.71 68.3801,41.71 64.5,41.5C 59.9455,41.8625 58.6122,44.0292 60.5,48C 64.4367,49.6441 68.2701,51.4774 72,53.5C 74.5085,64.1971 70.3419,68.0304 59.5,65C 56.8748,62.8038 55.8748,59.9705 56.5,56.5C 57.5,56.5 58.5,56.5 59.5,56.5C 59.2606,58.4672 59.5939,60.3005 60.5,62C 63.4294,62.7772 66.2628,62.6105 69,61.5C 69.6667,59.5 69.6667,57.5 69,55.5C 64.5043,53.9222 60.5043,51.5888 57,48.5C 55.4434,42.5925 57.6101,39.2592 63.5,38.5 Z"/></g>
<g><path style="opacity:1" fill="#ffffff" d="M 92.5,38.5 C 99.0498,38.2312 102.05,41.2312 101.5,47.5C 100.5,47.5 99.5,47.5 98.5,47.5C 99.0468,43.71 97.3801,41.71 93.5,41.5C 92.2638,42.2458 90.9305,42.5792 89.5,42.5C 89.2011,44.604 89.5344,46.604 90.5,48.5C 94.1461,49.8809 97.6461,51.5475 101,53.5C 103.821,63.8532 99.9876,67.6866 89.5,65C 85.1803,62.8921 84.5136,60.0587 87.5,56.5C 88.2304,58.3413 88.8971,60.1746 89.5,62C 92.4294,62.7772 95.2628,62.6105 98,61.5C 98.6667,59.5 98.6667,57.5 98,55.5C 93.5043,53.9222 89.5043,51.5888 86,48.5C 84.788,42.8913 86.9547,39.5579 92.5,38.5 Z"/></g>
<g><path style="opacity:1" fill="#ffffff" d="M -0.5,39.5 C 0.822066,39.33 1.98873,39.6634 3,40.5C 4.19136,45.9337 5.69136,51.267 7.5,56.5C 9.15288,51.5572 10.6529,46.5572 12,41.5C 12.8261,39.5946 13.9928,39.2612 15.5,40.5C 17.312,46.4148 18.812,52.4148 20,58.5C 21.9756,52.2651 23.4756,45.9318 24.5,39.5C 25.5,39.5 26.5,39.5 27.5,39.5C 26.3015,47.6287 24.4682,55.6287 22,63.5C 21.2904,64.9733 20.1238,65.6399 18.5,65.5C 16.8474,59.222 15.3474,52.8887 14,46.5C 12.3333,52.5 10.6667,58.5 9,64.5C 7.98873,65.3366 6.82207,65.67 5.5,65.5C 4.25777,57.5265 2.25777,49.8599 -0.5,42.5C -0.5,41.5 -0.5,40.5 -0.5,39.5 Z"/></g>
<g><path style="opacity:1" fill="#ffffff" d="M 39.5,39.5 C 40.5,39.5 41.5,39.5 42.5,39.5C 42.5,48.1667 42.5,56.8333 42.5,65.5C 41.5,65.5 40.5,65.5 39.5,65.5C 39.5,56.8333 39.5,48.1667 39.5,39.5 Z"/></g>
<g><path style="opacity:1" fill="#ffffff" d="M 115.5,39.5 C 120.167,39.5 124.833,39.5 129.5,39.5C 129.5,40.5 129.5,41.5 129.5,42.5C 125.833,42.5 122.167,42.5 118.5,42.5C 118.5,45.1667 118.5,47.8333 118.5,50.5C 122.167,50.5 125.833,50.5 129.5,50.5C 129.5,51.5 129.5,52.5 129.5,53.5C 125.833,53.5 122.167,53.5 118.5,53.5C 118.5,56.5 118.5,59.5 118.5,62.5C 122.5,62.5 126.5,62.5 130.5,62.5C 130.5,63.5 130.5,64.5 130.5,65.5C 125.5,65.5 120.5,65.5 115.5,65.5C 115.5,56.8333 115.5,48.1667 115.5,39.5 Z"/></g>
<g><path style="opacity:1" fill="#ffffff" d="M 143.5,39.5 C 144.675,39.281 145.675,39.6143 146.5,40.5C 149.667,46.1667 152.833,51.8333 156,57.5C 156.499,51.5092 156.666,45.5092 156.5,39.5C 157.5,39.5 158.5,39.5 159.5,39.5C 159.5,48.1667 159.5,56.8333 159.5,65.5C 158.325,65.719 157.325,65.3857 156.5,64.5C 153.333,58.8333 150.167,53.1667 147,47.5C 146.501,53.4908 146.334,59.4908 146.5,65.5C 145.5,65.5 144.5,65.5 143.5,65.5C 143.5,56.8333 143.5,48.1667 143.5,39.5 Z"/></g>
</svg>
