<?xml version="1.0" encoding="utf-8"?>
<svg version="1.1" id="Spiegel_x5F_05" xmlns="http://www.w3.org/2000/svg" xmlns:xlink="http://www.w3.org/1999/xlink" x="0px"
	 y="0px" viewBox="0 0 2500 1170.7" style="enable-background:new 0 0 2500 1170.7;" xml:space="preserve">
<g id="Geschichte">
	<path fill="#FFFFFF" d="M330.2,861c4.4,0,7.4,1.5,7.4,5.9v95.7c0,33.5-13.8,60.7-63.1,60.7c-48.8,0-62.1-27.1-62.1-60.7v-222
		c0-33.5,13.3-60.7,62.1-60.7c49.3,0,63.1,27.1,63.1,60.7v34c0,3.9-2,5.9-6.4,5.9h-15.8c-4.4,0-5.9-2-5.9-5.9v-36
		c0-19.7-7.9-34-35-34c-26.6,0-34,14.3-34,34v225.9c0,19.2,7.4,34,34,34c27.1,0,35-14.3,35-33.5v-79.4h-28.6c-3.9,0-5.9-2-5.9-6.4
		V867c0-4.4,1.5-5.9,5.9-5.9H330.2z"/>
	<path fill="#FFFFFF" d="M453,1019.4c-3.9,0-5.4-2-5.4-6.4V690.4c0-4.4,1.5-6.4,5.9-6.4h94.7c4.4,0,6.4,1.5,6.4,6.4v12.3
		c0,4.4-2,5.9-6.4,5.9h-72.5V831h67.6c4.4,0,6.4,2,6.4,6.4v11.3c0,4.4-2,6.4-6.4,6.4h-67.6v139.6h76c4.4,0,6.4,1.5,6.4,5.9v12.3
		c0,4.9-2,6.4-6.4,6.4H453z"/>
	<path fill="#FFFFFF" d="M751.9,738.2c0-19.2-7.9-34-35-34c-26.6,0-34.5,14.8-34.5,34v34c0,22.2,6.9,34,21.2,44.4l44.9,33
		c14.8,10.8,32.1,26.6,32.1,59.2v53.8c0,33.5-15.3,60.7-64.1,60.7c-48.8,0-63.6-27.1-63.6-60.7v-35.5c0-4.9,2-6.9,5.9-6.9h15.8
		c3.9,0,5.9,2,5.9,6.9v37c0,20.2,7.9,35,35.5,35c27.6,0,36.5-14.8,36.5-35v-47.8c0-21.2-9.9-34-24.2-44.4l-45.4-33
		c-15.8-11.3-28.6-30.1-28.6-59.7v-38.5c0-33.5,12.8-60.7,62.6-60.7c49.8,0,62.6,27.1,62.6,60.7v33.5c0,4.4-1.5,6.4-6.4,6.4h-15.3
		c-4.4,0-5.9-2-5.9-6.4V738.2z"/>
	<path fill="#FFFFFF" d="M1009.9,962.7c0,33.5-13.8,60.7-62.6,60.7c-48.3,0-61.7-27.1-61.7-60.7v-222c0-33.5,13.3-60.7,61.7-60.7
		c48.8,0,62.6,27.1,62.6,60.7v35c0,4.9-2,6.9-6.4,6.9h-15.3c-4.4,0-6.4-2-6.4-6.9v-37c0-19.7-7.4-34-34-34c-26.6,0-34,14.3-34,34
		v225.9c0,19.7,7.4,34,34,34c26.6,0,34-14.3,34-34v-43.4c0-3.9,1.5-5.9,6.4-5.9h15.3c4.4,0,6.4,2,6.4,5.9V962.7z"/>
	<path fill="#FFFFFF" d="M1143.5,828.5h70.5V690.4c0-4.4,2-6.4,6.4-6.4h16.3c4.4,0,5.9,2,5.9,6.4V1013c0,4.4-1.5,6.4-5.9,6.4h-16.3
		c-4.4,0-6.4-2-6.4-6.4V853.2h-70.5V1013c0,4.4-1.5,6.4-5.9,6.4h-16.3c-4.4,0-5.9-2-5.9-6.4V690.4c0-4.4,1.5-6.4,5.9-6.4h16.3
		c4.4,0,5.9,2,5.9,6.4V828.5z"/>
	<path fill="#FFFFFF" d="M1386.7,1013c0,4.4-1.5,6.4-5.9,6.4h-16.3c-4.4,0-5.9-2-5.9-6.4V690.4c0-4.4,1.5-6.4,5.9-6.4h16.3
		c4.4,0,5.9,2,5.9,6.4V1013z"/>
	<path fill="#FFFFFF" d="M1623.9,962.7c0,33.5-13.8,60.7-62.6,60.7c-48.3,0-61.7-27.1-61.7-60.7v-222c0-33.5,13.3-60.7,61.7-60.7
		c48.8,0,62.6,27.1,62.6,60.7v35c0,4.9-2,6.9-6.4,6.9h-15.3c-4.4,0-6.4-2-6.4-6.9v-37c0-19.7-7.4-34-34-34c-26.6,0-34,14.3-34,34
		v225.9c0,19.7,7.4,34,34,34c26.6,0,34-14.3,34-34v-43.4c0-3.9,1.5-5.9,6.4-5.9h15.3c4.4,0,6.4,2,6.4,5.9V962.7z"/>
	<path fill="#FFFFFF" d="M1757.6,828.5h70.5V690.4c0-4.4,2-6.4,6.4-6.4h16.3c4.4,0,5.9,2,5.9,6.4V1013c0,4.4-1.5,6.4-5.9,6.4h-16.3
		c-4.4,0-6.4-2-6.4-6.4V853.2h-70.5V1013c0,4.4-1.5,6.4-5.9,6.4h-16.3c-4.4,0-5.9-2-5.9-6.4V690.4c0-4.4,1.5-6.4,5.9-6.4h16.3
		c4.4,0,5.9,2,5.9,6.4V828.5z"/>
	<path fill="#FFFFFF" d="M2074.7,684c4.4,0,6.4,1.5,6.4,6.4v12.3c0,4.4-2,5.9-6.4,5.9h-43.9V1013c0,4.4-2,6.4-5.9,6.4h-16.3
		c-4.9,0-6.4-2-6.4-6.4V708.6h-44.4c-4.4,0-5.9-1.5-5.9-5.9v-12.3c0-4.9,1.5-6.4,5.9-6.4H2074.7z"/>
	<path fill="#FFFFFF" d="M2182.2,1019.4c-3.9,0-5.4-2-5.4-6.4V690.4c0-4.4,1.5-6.4,5.9-6.4h94.7c4.4,0,6.4,1.5,6.4,6.4v12.3
		c0,4.4-2,5.9-6.4,5.9h-72.5V831h67.6c4.4,0,6.4,2,6.4,6.4v11.3c0,4.4-2,6.4-6.4,6.4h-67.6v139.6h76c4.4,0,6.4,1.5,6.4,5.9v12.3
		c0,4.9-2,6.4-6.4,6.4H2182.2z"/>
</g>
<rect id="Linie" x="211.4" y="576.2" fill="#FFFFFF" width="2072.8" height="24.9"/>
<g id="Spiegel">
	<path fill="#FFFFFF" d="M389.9,139.5h-98.5h-42c-20.6,0-37.9,17.3-37.9,37.9V340h42h104.2v97.8h-35.2h-42v-67.1h-27.1h-42v86.8
		c0,21.1,17.3,38.8,38.4,38.8h42h98.5c21.1,0,37.9-16.8,37.9-37.4V280.5H322.6h-42V199h42h35.2v49.4h42h28.5v-71.4
		C428.3,155.8,411,139.5,389.9,139.5z"/>
	<path fill="#FFFFFF" d="M730.5,139.5H563h-42v8.6V199h14h13.8v238.8H535h-13.5v49.6v8.9h42h82.2v-58.5h-26.4V340h42h69.3
		c21.1,0,37.9-17.7,37.9-38.8V177.4C768.4,156.3,751.6,139.5,730.5,139.5z M698.9,280.5h-37.6h-42V199h42h37.6V280.5z"/>
	<polygon fill="#FFFFFF" points="848.2,139.5 848.2,146 848.2,199 864.8,199 875.1,199 875.1,437.8 848.2,437.8 848.2,496.3 
		890.2,496.3 970.5,496.3 970.5,437.8 944.1,437.8 944.1,199 970.5,199 970.5,139.5 890.2,139.5 	"/>
	<polygon fill="#FFFFFF" points="1077.3,139.5 1060.5,139.5 1060.5,199 1077.3,199 1086.4,199 1086.4,437.8 1077.3,437.8 1060.5,437.8 
		1060.5,496.3 1077.3,496.3 1102.5,496.3 1304.6,496.3 1304.6,370.7 1278,370.7 1236,370.7 1236,437.8 1197,437.8 1155,437.8 
		1155,340 1197,340 1262.8,340 1262.8,280.5 1197,280.5 1155,280.5 1155,199 1197,199 1236,199 1236,248.4 1278,248.4 1304.6,248.4 
		1304.6,139.5 1102.5,139.5 	"/>
	<path fill="#FFFFFF" d="M1508.5,280.5h-19.4V340h19.4h22.5h15.1v97.8h-37.6h-42V199h42h35.2v49.4h42h29.9v-70.5
		c0-21.1-16.8-38.4-37.9-38.4h-99h-42c-9.5,0-18.1,3.7-24.7,9.5c-8,7-13.2,17.3-13.2,28.9v70.5v122.3v88.2c0,11,5.2,20.7,13.2,27.6
		c7,6,16,9.8,25.7,9.8h42h136.4V280.5h-85.1H1508.5z"/>
	<polygon fill="#FFFFFF" points="1699.8,139.5 1699.8,150.2 1699.8,199 1711.4,199 1725.7,199 1725.7,437.8 1711.9,437.8 1699.8,437.8 
		1699.8,496.3 1711.9,496.3 1741.8,496.3 1943.8,496.3 1943.8,370.7 1917.3,370.7 1875.3,370.7 1875.3,437.8 1836.3,437.8 
		1794.3,437.8 1794.3,340 1836.3,340 1902.1,340 1902.1,280.5 1836.3,280.5 1794.3,280.5 1794.3,199 1836.3,199 1875.3,199 
		1875.3,248.4 1917.3,248.4 1943.8,248.4 1943.8,139.5 1741.8,139.5 	"/>
	<polygon fill="#FFFFFF" points="2215.6,370.7 2215.6,437.8 2178,437.8 2136,437.8 2136,199 2165.7,199 2165.7,139.5 2081.1,139.5 
		2052.8,139.5 2039.1,139.5 2039.1,199 2052.8,199 2065.9,199 2065.9,437.8 2052.8,437.8 2038.6,437.8 2038.6,496.3 2052.8,496.3 
		2080.6,496.3 2283.7,496.3 2283.7,370.7 2257.6,370.7 	"/>
</g>
</svg>
