<?xml version="1.0" encoding="UTF-8"?>
<!DOCTYPE svg PUBLIC "-//W3C//DTD SVG 1.1//EN" "http://www.w3.org/Graphics/SVG/1.1/DTD/svg11.dtd">
<svg xmlns="http://www.w3.org/2000/svg" version="1.1" width="389px" height="120px" style="shape-rendering:geometricPrecision; text-rendering:geometricPrecision; image-rendering:optimizeQuality; fill-rule:evenodd; clip-rule:evenodd" xmlns:xlink="http://www.w3.org/1999/xlink">
<g><path style="opacity:1" fill="#ffffff" d="M 5.5,0.5 C 13.6112,0.0647614 21.6112,0.564761 29.5,2C 30,2.5 30.5,3 31,3.5C 31.499,7.82056 31.6657,12.1539 31.5,16.5C 28.1667,16.5 24.8333,16.5 21.5,16.5C 21.5,14.1667 21.5,11.8333 21.5,9.5C 18.5,9.5 15.5,9.5 12.5,9.5C 12.5,12.8333 12.5,16.1667 12.5,19.5C 18.8333,19.5 25.1667,19.5 31.5,19.5C 31.6664,28.1731 31.4998,36.8397 31,45.5C 30.5,46.6667 29.6667,47.5 28.5,48C 20.5,48.6667 12.5,48.6667 4.5,48C 4,47.5 3.5,47 3,46.5C 2.50074,41.5111 2.33407,36.5111 2.5,31.5C 5.83333,31.5 9.16667,31.5 12.5,31.5C 12.5,34.1667 12.5,36.8333 12.5,39.5C 15.5,39.5 18.5,39.5 21.5,39.5C 21.5,35.8333 21.5,32.1667 21.5,28.5C 15.1667,28.5 8.83333,28.5 2.5,28.5C 2.3336,20.16 2.50027,11.8267 3,3.5C 3.69794,2.30943 4.53128,1.30943 5.5,0.5 Z"/></g>
<g><path style="opacity:1" fill="#ffffff" d="M 42.5,0.5 C 52.5056,0.333518 62.5056,0.500185 72.5,1C 73.3333,1.83333 74.1667,2.66667 75,3.5C 75.6667,10.8333 75.6667,18.1667 75,25.5C 74.0975,26.7014 72.9308,27.5348 71.5,28C 66.5111,28.4993 61.5111,28.6659 56.5,28.5C 56.5,32.1667 56.5,35.8333 56.5,39.5C 57.5,39.5 58.5,39.5 59.5,39.5C 59.5,42.5 59.5,45.5 59.5,48.5C 53.8333,48.5 48.1667,48.5 42.5,48.5C 42.5,45.5 42.5,42.5 42.5,39.5C 43.8333,39.5 45.1667,39.5 46.5,39.5C 46.5,29.5 46.5,19.5 46.5,9.5C 45.1667,9.5 43.8333,9.5 42.5,9.5C 42.5,6.5 42.5,3.5 42.5,0.5 Z M 56.5,9.5 C 59.5,9.5 62.5,9.5 65.5,9.5C 65.5,12.8333 65.5,16.1667 65.5,19.5C 62.5,19.5 59.5,19.5 56.5,19.5C 56.5,16.1667 56.5,12.8333 56.5,9.5 Z"/></g>
<g><path style="opacity:1" fill="#ffffff" d="M 85.5,0.5 C 91.1667,0.5 96.8333,0.5 102.5,0.5C 102.5,3.5 102.5,6.5 102.5,9.5C 101.167,9.5 99.8333,9.5 98.5,9.5C 98.5,19.5 98.5,29.5 98.5,39.5C 99.8333,39.5 101.167,39.5 102.5,39.5C 102.5,42.5 102.5,45.5 102.5,48.5C 96.8333,48.5 91.1667,48.5 85.5,48.5C 85.5,45.5 85.5,42.5 85.5,39.5C 86.5,39.5 87.5,39.5 88.5,39.5C 88.5,29.5 88.5,19.5 88.5,9.5C 87.5,9.5 86.5,9.5 85.5,9.5C 85.5,6.5 85.5,3.5 85.5,0.5 Z"/></g>
<g><path style="opacity:1" fill="#ffffff" d="M 112.5,0.5 C 123.5,0.5 134.5,0.5 145.5,0.5C 145.5,5.83333 145.5,11.1667 145.5,16.5C 142.167,16.5 138.833,16.5 135.5,16.5C 135.5,14.1667 135.5,11.8333 135.5,9.5C 132.5,9.5 129.5,9.5 126.5,9.5C 126.5,12.8333 126.5,16.1667 126.5,19.5C 131.167,19.5 135.833,19.5 140.5,19.5C 140.5,22.5 140.5,25.5 140.5,28.5C 135.833,28.5 131.167,28.5 126.5,28.5C 126.5,32.1667 126.5,35.8333 126.5,39.5C 129.5,39.5 132.5,39.5 135.5,39.5C 135.5,36.8333 135.5,34.1667 135.5,31.5C 138.833,31.5 142.167,31.5 145.5,31.5C 145.5,37.1667 145.5,42.8333 145.5,48.5C 134.5,48.5 123.5,48.5 112.5,48.5C 112.5,45.5 112.5,42.5 112.5,39.5C 113.833,39.5 115.167,39.5 116.5,39.5C 116.5,29.5 116.5,19.5 116.5,9.5C 115.167,9.5 113.833,9.5 112.5,9.5C 112.5,6.5 112.5,3.5 112.5,0.5 Z"/></g>
<g><path style="opacity:1" fill="#ffffff" d="M 160.5,0.5 C 168.611,0.0647614 176.611,0.564761 184.5,2C 185,2.5 185.5,3 186,3.5C 186.499,7.82056 186.666,12.1539 186.5,16.5C 183.167,16.5 179.833,16.5 176.5,16.5C 176.5,14.1667 176.5,11.8333 176.5,9.5C 173.5,9.5 170.5,9.5 167.5,9.5C 167.5,19.5 167.5,29.5 167.5,39.5C 170.5,39.5 173.5,39.5 176.5,39.5C 176.5,35.8333 176.5,32.1667 176.5,28.5C 173.833,28.5 171.167,28.5 168.5,28.5C 168.5,25.5 168.5,22.5 168.5,19.5C 174.5,19.5 180.5,19.5 186.5,19.5C 186.5,29.1667 186.5,38.8333 186.5,48.5C 177.827,48.6664 169.16,48.4998 160.5,48C 159.584,47.6258 158.75,47.1258 158,46.5C 157.333,32.1667 157.333,17.8333 158,3.5C 159.045,2.62656 159.878,1.62656 160.5,0.5 Z"/></g>
<g><path style="opacity:1" fill="#ffffff" d="M 196.5,0.5 C 207.5,0.5 218.5,0.5 229.5,0.5C 229.5,5.83333 229.5,11.1667 229.5,16.5C 226.167,16.5 222.833,16.5 219.5,16.5C 219.5,14.1667 219.5,11.8333 219.5,9.5C 216.167,9.5 212.833,9.5 209.5,9.5C 209.5,12.8333 209.5,16.1667 209.5,19.5C 214.167,19.5 218.833,19.5 223.5,19.5C 223.5,22.5 223.5,25.5 223.5,28.5C 218.833,28.5 214.167,28.5 209.5,28.5C 209.5,32.1667 209.5,35.8333 209.5,39.5C 212.833,39.5 216.167,39.5 219.5,39.5C 219.5,36.8333 219.5,34.1667 219.5,31.5C 222.833,31.5 226.167,31.5 229.5,31.5C 229.5,37.1667 229.5,42.8333 229.5,48.5C 218.5,48.5 207.5,48.5 196.5,48.5C 196.5,45.5 196.5,42.5 196.5,39.5C 197.5,39.5 198.5,39.5 199.5,39.5C 199.5,29.5 199.5,19.5 199.5,9.5C 198.5,9.5 197.5,9.5 196.5,9.5C 196.5,6.5 196.5,3.5 196.5,0.5 Z"/></g>
<g><path style="opacity:1" fill="#ffffff" d="M 240.5,0.5 C 246.5,0.5 252.5,0.5 258.5,0.5C 258.5,3.5 258.5,6.5 258.5,9.5C 257.167,9.5 255.833,9.5 254.5,9.5C 254.5,19.5 254.5,29.5 254.5,39.5C 257.5,39.5 260.5,39.5 263.5,39.5C 263.5,36.8333 263.5,34.1667 263.5,31.5C 266.833,31.5 270.167,31.5 273.5,31.5C 273.5,37.1667 273.5,42.8333 273.5,48.5C 262.5,48.5 251.5,48.5 240.5,48.5C 240.5,45.5 240.5,42.5 240.5,39.5C 241.833,39.5 243.167,39.5 244.5,39.5C 244.5,29.5 244.5,19.5 244.5,9.5C 243.167,9.5 241.833,9.5 240.5,9.5C 240.5,6.5 240.5,3.5 240.5,0.5 Z"/></g>
<g><path style="opacity:1" fill="#ffffff" d="M 295.5,0.5 C 297.167,0.5 298.833,0.5 300.5,0.5C 300.5,19.1667 300.5,37.8333 300.5,56.5C 310.833,56.5 321.167,56.5 331.5,56.5C 331.5,37.8333 331.5,19.1667 331.5,0.5C 333.167,0.5 334.833,0.5 336.5,0.5C 336.5,39.1667 336.5,77.8333 336.5,116.5C 334.833,116.5 333.167,116.5 331.5,116.5C 331.5,98.5 331.5,80.5 331.5,62.5C 321.167,62.5 310.833,62.5 300.5,62.5C 300.5,80.5 300.5,98.5 300.5,116.5C 298.833,116.5 297.167,116.5 295.5,116.5C 295.5,77.8333 295.5,39.1667 295.5,0.5 Z"/></g>
<g><path style="opacity:1" fill="#ffffff" d="M 345.5,0.5 C 355.557,0.135465 365.557,0.635465 375.5,2C 381.202,4.36481 384.702,8.53148 386,14.5C 386.667,44.1667 386.667,73.8333 386,103.5C 384.464,110.369 380.298,114.536 373.5,116C 364.173,116.5 354.839,116.666 345.5,116.5C 345.5,77.8333 345.5,39.1667 345.5,0.5 Z M 350.5,6.5 C 357.508,6.33371 364.508,6.50038 371.5,7C 377.583,8.41661 380.749,12.2499 381,18.5C 381.667,45.5 381.667,72.5 381,99.5C 380.584,106.173 377.084,110.006 370.5,111C 363.842,111.5 357.175,111.666 350.5,111.5C 350.5,76.5 350.5,41.5 350.5,6.5 Z"/></g>
<g><path style="opacity:1" fill="#ffffff" d="M 2.5,57.5 C 92.8333,57.5 183.167,57.5 273.5,57.5C 273.5,59.1667 273.5,60.8333 273.5,62.5C 183.167,62.5 92.8333,62.5 2.5,62.5C 2.5,60.8333 2.5,59.1667 2.5,57.5 Z"/></g>
<g><path style="opacity:1" fill="#ffffff" d="M 6.5,71.5 C 17.0535,70.3869 21.3868,75.0536 19.5,85.5C 17.8333,85.5 16.1667,85.5 14.5,85.5C 14.6641,82.8127 14.4974,80.146 14,77.5C 11.8797,74.9199 9.713,74.9199 7.5,77.5C 6.35613,88.4534 6.18947,99.4534 7,110.5C 8.9879,113.838 11.3212,114.172 14,111.5C 14.4988,107.514 14.6655,103.514 14.5,99.5C 13.1667,99.5 11.8333,99.5 10.5,99.5C 10.5,98.1667 10.5,96.8333 10.5,95.5C 13.5,95.5 16.5,95.5 19.5,95.5C 19.6662,101.509 19.4995,107.509 19,113.5C 14.5224,117.935 9.52242,118.602 4,115.5C 2.37099,102.261 2.03766,88.9281 3,75.5C 3.68972,73.6498 4.85639,72.3164 6.5,71.5 Z"/></g>
<g><path style="opacity:1" fill="#ffffff" d="M 64.5,71.5 C 74.9984,70.3338 79.3317,75.0005 77.5,85.5C 75.8333,85.5 74.1667,85.5 72.5,85.5C 72.6641,82.8127 72.4974,80.146 72,77.5C 69.7564,75.0062 67.4231,75.0062 65,77.5C 64.3333,80.5 64.3333,83.5 65,86.5C 69.1937,90.2721 73.1937,94.2721 77,98.5C 77.6667,103.167 77.6667,107.833 77,112.5C 74.1034,117.155 69.9367,118.655 64.5,117C 60.765,115.2 59.0983,112.2 59.5,108C 58.5877,103.573 60.0877,102.073 64,103.5C 64.3333,106.167 64.6667,108.833 65,111.5C 67.2436,113.994 69.5769,113.994 72,111.5C 72.7666,107.442 72.5999,103.442 71.5,99.5C 66.4484,96.6161 62.615,92.6161 60,87.5C 59.3333,84.1667 59.3333,80.8333 60,77.5C 60.5985,74.7458 62.0985,72.7458 64.5,71.5 Z"/></g>
<g><path style="opacity:1" fill="#ffffff" d="M 94.5,71.5 C 105.16,70.3278 109.327,74.9945 107,85.5C 105.667,86.8333 104.333,86.8333 103,85.5C 102.782,82.5738 102.282,79.7405 101.5,77C 98.7934,74.9284 96.6268,75.4284 95,78.5C 94.3333,89.1667 94.3333,99.8333 95,110.5C 96.9034,113.955 99.2368,114.288 102,111.5C 102.498,108.518 102.665,105.518 102.5,102.5C 104.167,102.5 105.833,102.5 107.5,102.5C 109.842,113.65 105.508,118.483 94.5,117C 92.6667,116.5 91.5,115.333 91,113.5C 90.3333,100.5 90.3333,87.5 91,74.5C 92.1451,73.3636 93.3117,72.3636 94.5,71.5 Z"/></g>
<g><path style="opacity:1" fill="#ffffff" d="M 174.5,71.5 C 185.16,70.3278 189.327,74.9945 187,85.5C 185.667,86.8333 184.333,86.8333 183,85.5C 182.667,82.8333 182.333,80.1667 182,77.5C 178.78,74.6819 176.446,75.3485 175,79.5C 174.333,89.5 174.333,99.5 175,109.5C 176.446,113.651 178.78,114.318 182,111.5C 182.498,108.518 182.665,105.518 182.5,102.5C 184.167,102.5 185.833,102.5 187.5,102.5C 189.468,115.039 184.468,119.539 172.5,116C 171.874,115.25 171.374,114.416 171,113.5C 170.333,100.833 170.333,88.1667 171,75.5C 171.69,73.6498 172.856,72.3164 174.5,71.5 Z"/></g>
<g><path style="opacity:1" fill="#ffffff" d="M 32.5,72.5 C 37.5,72.5 42.5,72.5 47.5,72.5C 47.5,73.8333 47.5,75.1667 47.5,76.5C 44.1667,76.5 40.8333,76.5 37.5,76.5C 37.5,81.5 37.5,86.5 37.5,91.5C 40.8333,91.5 44.1667,91.5 47.5,91.5C 47.5,92.8333 47.5,94.1667 47.5,95.5C 44.1667,95.5 40.8333,95.5 37.5,95.5C 37.5,101.167 37.5,106.833 37.5,112.5C 41.1667,112.5 44.8333,112.5 48.5,112.5C 48.5,113.833 48.5,115.167 48.5,116.5C 43.1667,116.5 37.8333,116.5 32.5,116.5C 32.5,101.833 32.5,87.1667 32.5,72.5 Z"/></g>
<g><path style="opacity:1" fill="#ffffff" d="M 120.5,72.5 C 121.833,72.5 123.167,72.5 124.5,72.5C 124.5,78.8333 124.5,85.1667 124.5,91.5C 127.167,91.5 129.833,91.5 132.5,91.5C 132.5,85.1667 132.5,78.8333 132.5,72.5C 134.167,72.5 135.833,72.5 137.5,72.5C 137.5,87.1667 137.5,101.833 137.5,116.5C 135.833,116.5 134.167,116.5 132.5,116.5C 132.5,109.5 132.5,102.5 132.5,95.5C 129.833,95.5 127.167,95.5 124.5,95.5C 124.5,102.5 124.5,109.5 124.5,116.5C 123.167,116.5 121.833,116.5 120.5,116.5C 120.5,101.833 120.5,87.1667 120.5,72.5 Z"/></g>
<g><path style="opacity:1" fill="#ffffff" d="M 151.5,72.5 C 153.167,72.5 154.833,72.5 156.5,72.5C 156.5,87.1667 156.5,101.833 156.5,116.5C 154.833,116.5 153.167,116.5 151.5,116.5C 151.5,101.833 151.5,87.1667 151.5,72.5 Z"/></g>
<g><path style="opacity:1" fill="#ffffff" d="M 200.5,72.5 C 202.167,72.5 203.833,72.5 205.5,72.5C 205.5,78.8333 205.5,85.1667 205.5,91.5C 208.167,91.5 210.833,91.5 213.5,91.5C 213.5,85.1667 213.5,78.8333 213.5,72.5C 214.833,72.5 216.167,72.5 217.5,72.5C 217.5,87.1667 217.5,101.833 217.5,116.5C 216.167,116.5 214.833,116.5 213.5,116.5C 213.5,109.5 213.5,102.5 213.5,95.5C 210.833,95.5 208.167,95.5 205.5,95.5C 205.5,102.5 205.5,109.5 205.5,116.5C 203.833,116.5 202.167,116.5 200.5,116.5C 200.5,101.833 200.5,87.1667 200.5,72.5 Z"/></g>
<g><path style="opacity:1" fill="#ffffff" d="M 229.5,72.5 C 235.5,72.5 241.5,72.5 247.5,72.5C 247.5,73.8333 247.5,75.1667 247.5,76.5C 245.167,76.5 242.833,76.5 240.5,76.5C 240.5,89.8333 240.5,103.167 240.5,116.5C 238.833,116.5 237.167,116.5 235.5,116.5C 235.5,103.167 235.5,89.8333 235.5,76.5C 233.5,76.5 231.5,76.5 229.5,76.5C 229.5,75.1667 229.5,73.8333 229.5,72.5 Z"/></g>
<g><path style="opacity:1" fill="#ffffff" d="M 258.5,72.5 C 263.5,72.5 268.5,72.5 273.5,72.5C 273.5,73.8333 273.5,75.1667 273.5,76.5C 270.167,76.5 266.833,76.5 263.5,76.5C 263.5,81.5 263.5,86.5 263.5,91.5C 266.833,91.5 270.167,91.5 273.5,91.5C 273.67,92.8221 273.337,93.9887 272.5,95C 269.518,95.498 266.518,95.6646 263.5,95.5C 263.5,101.167 263.5,106.833 263.5,112.5C 266.85,112.335 270.183,112.502 273.5,113C 274.337,114.011 274.67,115.178 274.5,116.5C 269.167,116.5 263.833,116.5 258.5,116.5C 258.5,101.833 258.5,87.1667 258.5,72.5 Z"/></g>
</svg>
