<?xml version="1.0" encoding="UTF-8"?>
<!DOCTYPE svg PUBLIC "-//W3C//DTD SVG 1.1//EN" "http://www.w3.org/Graphics/SVG/1.1/DTD/svg11.dtd">
<svg xmlns="http://www.w3.org/2000/svg" version="1.1" width="409px" height="120px" style="shape-rendering:geometricPrecision; text-rendering:geometricPrecision; image-rendering:optimizeQuality; fill-rule:evenodd; clip-rule:evenodd" xmlns:xlink="http://www.w3.org/1999/xlink">
<g><path style="opacity:1" fill="#ffffff" d="M 5.5,2.5 C 12.175,2.33375 18.8417,2.50042 25.5,3C 26.3333,3.83333 27.1667,4.66667 28,5.5C 28.4983,8.81677 28.665,12.1501 28.5,15.5C 25.8333,15.5 23.1667,15.5 20.5,15.5C 20.5,13.5 20.5,11.5 20.5,9.5C 17.1667,9.5 13.8333,9.5 10.5,9.5C 10.5,12.8333 10.5,16.1667 10.5,19.5C 16.5,19.5 22.5,19.5 28.5,19.5C 28.6663,26.8409 28.4997,34.1742 28,41.5C 27.1667,42.3333 26.3333,43.1667 25.5,44C 18.8333,44.6667 12.1667,44.6667 5.5,44C 4.29857,43.0975 3.46524,41.9308 3,40.5C 2.50137,36.8484 2.3347,33.1817 2.5,29.5C 5.16667,29.5 7.83333,29.5 10.5,29.5C 10.5,32.1667 10.5,34.8333 10.5,37.5C 13.5,37.5 16.5,37.5 19.5,37.5C 19.5,33.8333 19.5,30.1667 19.5,26.5C 13.9066,26.8066 8.40655,26.4732 3,25.5C 2.33333,19.1667 2.33333,12.8333 3,6.5C 3.66218,5.01608 4.49551,3.68275 5.5,2.5 Z"/></g>
<g><path style="opacity:1" fill="#ffffff" d="M 33.5,2.5 C 42.1731,2.33358 50.8397,2.50025 59.5,3C 60.3333,3.83333 61.1667,4.66667 62,5.5C 62.6667,11.5 62.6667,17.5 62,23.5C 61.0975,24.7014 59.9308,25.5348 58.5,26C 54.1794,26.499 49.8461,26.6657 45.5,26.5C 45.5,30.1667 45.5,33.8333 45.5,37.5C 46.5,37.5 47.5,37.5 48.5,37.5C 48.5,39.8333 48.5,42.1667 48.5,44.5C 43.5,44.5 38.5,44.5 33.5,44.5C 33.5,42.1667 33.5,39.8333 33.5,37.5C 34.5,37.5 35.5,37.5 36.5,37.5C 36.5,28.1667 36.5,18.8333 36.5,9.5C 35.5,9.5 34.5,9.5 33.5,9.5C 33.5,7.16667 33.5,4.83333 33.5,2.5 Z M 45.5,9.5 C 48.5,9.5 51.5,9.5 54.5,9.5C 54.5,12.8333 54.5,16.1667 54.5,19.5C 51.5,19.5 48.5,19.5 45.5,19.5C 45.5,16.1667 45.5,12.8333 45.5,9.5 Z"/></g>
<g><path style="opacity:1" fill="#ffffff" d="M 66.5,2.5 C 71.1667,2.5 75.8333,2.5 80.5,2.5C 80.5,4.83333 80.5,7.16667 80.5,9.5C 79.5,9.5 78.5,9.5 77.5,9.5C 77.5,18.8333 77.5,28.1667 77.5,37.5C 78.5,37.5 79.5,37.5 80.5,37.5C 80.5,39.8333 80.5,42.1667 80.5,44.5C 75.8333,44.5 71.1667,44.5 66.5,44.5C 66.5,42.1667 66.5,39.8333 66.5,37.5C 67.5,37.5 68.5,37.5 69.5,37.5C 69.5,28.1667 69.5,18.8333 69.5,9.5C 68.5,9.5 67.5,9.5 66.5,9.5C 66.5,7.16667 66.5,4.83333 66.5,2.5 Z"/></g>
<g><path style="opacity:1" fill="#ffffff" d="M 85.5,2.5 C 94.8393,2.33355 104.173,2.50021 113.5,3C 114.464,7.06588 114.797,11.2325 114.5,15.5C 111.833,15.5 109.167,15.5 106.5,15.5C 106.739,13.5328 106.406,11.6995 105.5,10C 102.518,9.50204 99.5184,9.33537 96.5,9.5C 96.2161,12.7766 96.5495,15.9433 97.5,19C 101.486,19.4988 105.486,19.6655 109.5,19.5C 109.756,21.7925 109.423,23.9592 108.5,26C 104.514,26.4988 100.514,26.6655 96.5,26.5C 96.5,30.1667 96.5,33.8333 96.5,37.5C 99.8333,37.5 103.167,37.5 106.5,37.5C 106.5,34.8333 106.5,32.1667 106.5,29.5C 109.167,29.5 111.833,29.5 114.5,29.5C 114.5,34.5 114.5,39.5 114.5,44.5C 104.833,44.5 95.1667,44.5 85.5,44.5C 85.5,42.1667 85.5,39.8333 85.5,37.5C 86.5,37.5 87.5,37.5 88.5,37.5C 88.5,28.1667 88.5,18.8333 88.5,9.5C 87.5,9.5 86.5,9.5 85.5,9.5C 85.5,7.16667 85.5,4.83333 85.5,2.5 Z"/></g>
<g><path style="opacity:1" fill="#ffffff" d="M 122.5,2.5 C 129.175,2.33375 135.842,2.50042 142.5,3C 143.701,3.90252 144.535,5.06919 145,6.5C 145.498,9.48162 145.665,12.4816 145.5,15.5C 142.5,15.5 139.5,15.5 136.5,15.5C 136.5,13.5 136.5,11.5 136.5,9.5C 133.5,9.5 130.5,9.5 127.5,9.5C 127.5,18.8333 127.5,28.1667 127.5,37.5C 130.5,37.5 133.5,37.5 136.5,37.5C 136.5,33.8333 136.5,30.1667 136.5,26.5C 134.5,26.5 132.5,26.5 130.5,26.5C 130.5,24.1667 130.5,21.8333 130.5,19.5C 135.5,19.5 140.5,19.5 145.5,19.5C 145.666,27.5069 145.5,35.5069 145,43.5C 137.58,44.6466 130.08,44.8132 122.5,44C 121.667,43.1667 120.833,42.3333 120,41.5C 119.333,29.5 119.333,17.5 120,5.5C 121.045,4.62656 121.878,3.62656 122.5,2.5 Z"/></g>
<g><path style="opacity:1" fill="#ffffff" d="M 149.5,2.5 C 158.833,2.5 168.167,2.5 177.5,2.5C 177.5,6.83333 177.5,11.1667 177.5,15.5C 174.833,15.5 172.167,15.5 169.5,15.5C 169.5,13.5 169.5,11.5 169.5,9.5C 166.5,9.5 163.5,9.5 160.5,9.5C 160.5,12.8333 160.5,16.1667 160.5,19.5C 164.833,19.5 169.167,19.5 173.5,19.5C 173.756,21.7925 173.423,23.9592 172.5,26C 168.514,26.4988 164.514,26.6655 160.5,26.5C 160.5,30.1667 160.5,33.8333 160.5,37.5C 163.5,37.5 166.5,37.5 169.5,37.5C 169.5,34.8333 169.5,32.1667 169.5,29.5C 172.167,29.5 174.833,29.5 177.5,29.5C 177.5,34.5 177.5,39.5 177.5,44.5C 168.167,44.5 158.833,44.5 149.5,44.5C 149.5,42.1667 149.5,39.8333 149.5,37.5C 150.5,37.5 151.5,37.5 152.5,37.5C 152.5,28.1667 152.5,18.8333 152.5,9.5C 151.5,9.5 150.5,9.5 149.5,9.5C 149.5,7.16667 149.5,4.83333 149.5,2.5 Z"/></g>
<g><path style="opacity:1" fill="#ffffff" d="M 183.5,2.5 C 188.5,2.5 193.5,2.5 198.5,2.5C 198.5,4.83333 198.5,7.16667 198.5,9.5C 197.167,9.5 195.833,9.5 194.5,9.5C 194.5,18.8333 194.5,28.1667 194.5,37.5C 197.833,37.5 201.167,37.5 204.5,37.5C 204.5,34.8333 204.5,32.1667 204.5,29.5C 206.833,29.5 209.167,29.5 211.5,29.5C 211.5,34.5 211.5,39.5 211.5,44.5C 202.167,44.5 192.833,44.5 183.5,44.5C 183.5,42.1667 183.5,39.8333 183.5,37.5C 184.5,37.5 185.5,37.5 186.5,37.5C 186.5,28.1667 186.5,18.8333 186.5,9.5C 185.5,9.5 184.5,9.5 183.5,9.5C 183.5,7.16667 183.5,4.83333 183.5,2.5 Z"/></g>
<g><path style="opacity:1" fill="#ffffff" d="M 225.5,2.5 C 235.167,2.5 244.833,2.5 254.5,2.5C 254.5,6.83333 254.5,11.1667 254.5,15.5C 252.5,15.5 250.5,15.5 248.5,15.5C 248.66,13.8008 248.494,12.1341 248,10.5C 246.667,9.16667 245.333,9.16667 244,10.5C 243.333,19.1667 243.333,27.8333 244,36.5C 245.356,37.3802 246.856,37.7135 248.5,37.5C 248.5,39.8333 248.5,42.1667 248.5,44.5C 242.833,44.5 237.167,44.5 231.5,44.5C 231.5,42.1667 231.5,39.8333 231.5,37.5C 233.144,37.7135 234.644,37.3802 236,36.5C 236.667,27.8333 236.667,19.1667 236,10.5C 234.644,9.61983 233.144,9.28649 231.5,9.5C 231.5,11.5 231.5,13.5 231.5,15.5C 229.5,15.5 227.5,15.5 225.5,15.5C 225.5,11.1667 225.5,6.83333 225.5,2.5 Z"/></g>
<g><path style="opacity:1" fill="#ffffff" d="M 259.5,2.5 C 263.167,2.5 266.833,2.5 270.5,2.5C 271.847,12.408 274.014,22.0746 277,31.5C 279.029,21.8574 280.862,12.1907 282.5,2.5C 286.167,2.5 289.833,2.5 293.5,2.5C 293.5,4.83333 293.5,7.16667 293.5,9.5C 292.167,9.5 290.833,9.5 289.5,9.5C 287.423,20.8847 285.09,32.218 282.5,43.5C 278.555,44.4909 274.555,44.8242 270.5,44.5C 268.4,33.5008 266.234,22.5008 264,11.5C 262.951,9.89339 261.451,9.22672 259.5,9.5C 259.5,7.16667 259.5,4.83333 259.5,2.5 Z"/></g>
<g><path style="opacity:1" fill="#ffffff" d="M 315.5,2.5 C 316.833,2.5 318.167,2.5 319.5,2.5C 319.5,20.5 319.5,38.5 319.5,56.5C 329.833,56.5 340.167,56.5 350.5,56.5C 350.5,38.5 350.5,20.5 350.5,2.5C 351.833,2.5 353.167,2.5 354.5,2.5C 354.5,40.1667 354.5,77.8333 354.5,115.5C 353.167,115.5 351.833,115.5 350.5,115.5C 350.5,97.1667 350.5,78.8333 350.5,60.5C 340.167,60.5 329.833,60.5 319.5,60.5C 319.5,78.8333 319.5,97.1667 319.5,115.5C 318.167,115.5 316.833,115.5 315.5,115.5C 315.5,77.8333 315.5,40.1667 315.5,2.5 Z"/></g>
<g><path style="opacity:1" fill="#ffffff" d="M 364.5,2.5 C 372.507,2.33362 380.507,2.50029 388.5,3C 397.667,4.16667 402.833,9.33333 404,18.5C 404.667,45.5 404.667,72.5 404,99.5C 403.034,107.796 398.534,112.963 390.5,115C 381.84,115.5 373.173,115.666 364.5,115.5C 364.5,77.8333 364.5,40.1667 364.5,2.5 Z M 368.5,7.5 C 376.174,7.33365 383.841,7.50031 391.5,8C 395.333,9.16667 397.833,11.6667 399,15.5C 399.167,30 399.333,44.5 399.5,59C 399.644,74.5644 399.144,90.0644 398,105.5C 395.658,108.754 392.491,110.588 388.5,111C 381.842,111.5 375.175,111.666 368.5,111.5C 368.5,76.8333 368.5,42.1667 368.5,7.5 Z"/></g>
<g><path style="opacity:1" fill="#ffffff" d="M 2.5,56.5 C 99.5,56.5 196.5,56.5 293.5,56.5C 293.5,57.8333 293.5,59.1667 293.5,60.5C 196.5,60.5 99.5,60.5 2.5,60.5C 2.5,59.1667 2.5,57.8333 2.5,56.5 Z"/></g>
<g><path style="opacity:1" fill="#ffffff" d="M 118.5,69.5 C 123.446,69.5888 128.113,70.7555 132.5,73C 134.263,76.2432 134.929,79.7432 134.5,83.5C 133.5,83.5 132.5,83.5 131.5,83.5C 131.579,80.7294 131.079,78.0627 130,75.5C 123.736,71.445 117.736,71.7784 112,76.5C 111.071,80.2441 111.571,83.7441 113.5,87C 120.221,89.4466 126.721,92.28 133,95.5C 137.84,113.656 131.006,120.156 112.5,115C 110.333,114.167 108.833,112.667 108,110.5C 107.503,107.854 107.336,105.187 107.5,102.5C 108.5,102.5 109.5,102.5 110.5,102.5C 110.735,111.482 115.402,114.982 124.5,113C 127.276,112.934 129.442,111.768 131,109.5C 131.667,106.167 131.667,102.833 131,99.5C 130.167,98.6667 129.333,97.8333 128.5,97C 122.5,94.3333 116.5,91.6667 110.5,89C 106.3,83.0667 106.633,77.4 111.5,72C 113.927,71.0977 116.26,70.2644 118.5,69.5 Z"/></g>
<g><path style="opacity:1" fill="#ffffff" d="M 171.5,69.5 C 176.446,69.5888 181.113,70.7555 185.5,73C 187.263,76.2432 187.929,79.7432 187.5,83.5C 186.5,83.5 185.5,83.5 184.5,83.5C 185.396,76.0602 182.062,72.3935 174.5,72.5C 164.526,73.1317 161.859,77.7984 166.5,86.5C 171.713,88.96 177.046,91.1266 182.5,93C 188.049,96.6909 189.882,101.858 188,108.5C 187.654,110.848 186.487,112.681 184.5,114C 178.307,116.836 171.974,117.169 165.5,115C 163.333,114.167 161.833,112.667 161,110.5C 160.503,107.854 160.336,105.187 160.5,102.5C 161.5,102.5 162.5,102.5 163.5,102.5C 163.746,111.486 168.413,114.986 177.5,113C 180.276,112.934 182.442,111.768 184,109.5C 184.76,105.775 184.593,102.108 183.5,98.5C 176.985,95.0766 170.319,91.91 163.5,89C 159.437,83.0529 159.771,77.3863 164.5,72C 166.927,71.0977 169.26,70.2644 171.5,69.5 Z"/></g>
<g><path style="opacity:1" fill="#ffffff" d="M 3.5,70.5 C 4.83333,70.5 6.16667,70.5 7.5,70.5C 10.3497,83.2321 13.5164,95.8988 17,108.5C 20.4836,95.8988 23.6503,83.2321 26.5,70.5C 27.8333,70.5 29.1667,70.5 30.5,70.5C 33.3497,83.2321 36.5164,95.8988 40,108.5C 43.4836,95.8988 46.6503,83.2321 49.5,70.5C 50.5,70.5 51.5,70.5 52.5,70.5C 49.634,85.2981 46.134,99.9648 42,114.5C 40.6439,115.38 39.1439,115.714 37.5,115.5C 35.1058,102.922 31.9392,90.5888 28,78.5C 25,90.5 22,102.5 19,114.5C 17.6439,115.38 16.1439,115.714 14.5,115.5C 10.9913,100.465 7.32467,85.4652 3.5,70.5 Z"/></g>
<g><path style="opacity:1" fill="#ffffff" d="M 77.5,70.5 C 78.5,70.5 79.5,70.5 80.5,70.5C 80.5,85.5 80.5,100.5 80.5,115.5C 79.5,115.5 78.5,115.5 77.5,115.5C 77.5,100.5 77.5,85.5 77.5,70.5 Z"/></g>
<g><path style="opacity:1" fill="#ffffff" d="M 215.5,70.5 C 223.5,70.5 231.5,70.5 239.5,70.5C 239.5,71.5 239.5,72.5 239.5,73.5C 232.5,73.5 225.5,73.5 218.5,73.5C 218.5,79.1667 218.5,84.8333 218.5,90.5C 224.833,90.5 231.167,90.5 237.5,90.5C 237.5,91.5 237.5,92.5 237.5,93.5C 231.167,93.5 224.833,93.5 218.5,93.5C 218.5,99.8333 218.5,106.167 218.5,112.5C 225.5,112.5 232.5,112.5 239.5,112.5C 239.5,113.5 239.5,114.5 239.5,115.5C 231.5,115.5 223.5,115.5 215.5,115.5C 215.5,100.5 215.5,85.5 215.5,70.5 Z"/></g>
<g><path style="opacity:1" fill="#ffffff" d="M 265.5,70.5 C 267.39,70.2965 268.89,70.9632 270,72.5C 276.414,84.3295 283.08,95.9962 290,107.5C 290.5,95.1712 290.667,82.8378 290.5,70.5C 291.5,70.5 292.5,70.5 293.5,70.5C 293.5,85.5 293.5,100.5 293.5,115.5C 292.022,115.762 290.689,115.429 289.5,114.5C 283.086,102.671 276.42,91.0038 269.5,79.5C 268.501,91.4815 268.168,103.482 268.5,115.5C 267.5,115.5 266.5,115.5 265.5,115.5C 265.5,100.5 265.5,85.5 265.5,70.5 Z"/></g>
</svg>
