<?xml version="1.0" encoding="utf-8"?>
<svg version="1.1" id="Spiegel_x5F_tv_x5F_wissen" xmlns="http://www.w3.org/2000/svg" xmlns:xlink="http://www.w3.org/1999/xlink"
	 x="0px" y="0px" viewBox="0 0 2500 1113" style="enable-background:new 0 0 2500 1113;" xml:space="preserve">
<g>
	<g id="WISSEN">
		<path fill="#FFFFFF" d="M458.2,899.4c3.9,14.4,7.2,35.6,7.2,35.6s3.9-21.2,7.7-35.6l62.6-243.7c1-3.9,2.9-5.8,6.7-5.8H555
			c4.3,0,5.8,1.4,4.8,5.8l-80.4,315.9c-1,3.9-3.4,5.8-7.2,5.8h-14.4c-3.9,0-5.8-1.9-6.7-5.8l-63.1-247.5c-2.9-9.6-5.8-27.5-6.3-30.8
			l-6.7,30.8l-62.6,247.5c-1,3.9-3.4,5.8-7.2,5.8h-14.4c-3.9,0-6.3-1.9-7.2-5.8l-79.9-315.9c-1-4.3,0.5-5.8,4.3-5.8h14.9
			c3.9,0,5.8,1.9,6.7,5.8l61.6,243.7l7.7,33.7c0.5-2.4,4.3-21.7,7.7-33.7l62.6-243.7c1-3.9,2.4-5.8,6.7-5.8h13.5
			c3.9,0,5.8,1.9,6.7,5.8L458.2,899.4z"/>
		<path fill="#FFFFFF" d="M756.8,971.7c0,3.9-1.4,5.8-5.3,5.8h-14.4c-3.9,0-5.8-1.9-5.8-5.8V655.7c0-3.9,1.9-5.8,5.8-5.8h14.4
			c3.9,0,5.3,1.9,5.3,5.8V971.7z"/>
		<path fill="#FFFFFF" d="M1125.3,716.9c0-28.9-15.9-49.1-71.8-49.1c-55.9,0-71.8,20.2-71.8,49.1v17.8c0,24.6,17.3,36.1,30.3,40.9
			l92.5,35.2c24.1,9.1,48.2,27.4,48.2,60.2v42.4c0,37.6-23.1,67.9-99.7,67.9c-76.6,0-100.2-30.3-100.2-67.9v-25
			c0-4.3,1.9-6.3,5.8-6.3h14c3.9,0,5.8,1.9,5.8,6.3v22.1c0,28.9,17.8,49.1,74.2,49.1c56.8,0,75.1-20.2,75.1-49.1v-34.2
			c0-26-21.2-37.6-40-44.8l-89.6-34.7c-19.3-7.2-41.4-26.5-41.4-56.8v-26c0-37.6,21.2-67.9,96.8-67.9c75.1,0,96.8,30.3,96.8,67.9
			v23.6c0,3.9-1.4,5.8-5.8,5.8h-14c-3.9,0-5.3-1.9-5.3-5.8V716.9z"/>
		<path fill="#FFFFFF" d="M1509.6,716.9c0-28.9-15.9-49.1-71.8-49.1c-55.9,0-71.8,20.2-71.8,49.1v17.8c0,24.6,17.3,36.1,30.3,40.9
			l92.5,35.2c24.1,9.1,48.2,27.4,48.2,60.2v42.4c0,37.6-23.1,67.9-99.7,67.9c-76.6,0-100.2-30.3-100.2-67.9v-25
			c0-4.3,1.9-6.3,5.8-6.3h14c3.9,0,5.8,1.9,5.8,6.3v22.1c0,28.9,17.8,49.1,74.2,49.1c56.8,0,75.1-20.2,75.1-49.1v-34.2
			c0-26-21.2-37.6-40-44.8l-89.6-34.7c-19.3-7.2-41.4-26.5-41.4-56.8v-26c0-37.6,21.2-67.9,96.8-67.9c75.1,0,96.8,30.3,96.8,67.9
			v23.6c0,3.9-1.4,5.8-5.8,5.8h-14c-3.9,0-5.3-1.9-5.3-5.8V716.9z"/>
		<path fill="#FFFFFF" d="M1736.4,977.4c-3.4,0-5.3-1.9-5.3-5.8V655.7c0-3.9,1.9-5.8,5.8-5.8h164.2c3.8,0,5.8,1.4,5.8,5.8v10.6
			c0,4.3-1.9,5.8-5.8,5.8h-144.5v122.3h135.8c3.9,0,5.8,1.5,5.8,5.8v10.1c0,3.9-1.9,5.8-5.8,5.8h-135.8v139.2h150.3
			c3.9,0,5.8,1.5,5.8,5.8v10.6c0,4.3-1.9,5.8-5.8,5.8H1736.4z"/>
		<path fill="#FFFFFF" d="M2299,971.7c0,3.9-1.4,5.8-5.3,5.8h-13c-2.9,0-4.3-1-5.3-2.9l-137.7-245.1c-7.2-11.6-14.9-27.5-15.4-28.9
			v271.1c0,3.9-1.4,5.8-5.3,5.8h-13c-3.9,0-5.8-1.9-5.8-5.8V655.7c0-3.9,1.9-5.8,5.8-5.8h13c2.4,0,3.9,1,4.8,2.4l139.2,247.1
			c4.3,7.7,14,27.4,14,27.4V655.7c0-3.9,1.9-5.8,5.8-5.8h13c3.9,0,5.3,1.9,5.3,5.8V971.7z"/>
	</g>
	<rect id="Linie_1_" x="196.8" y="550.3" fill="#FFFFFF" width="2102.1" height="30.6"/>
	<polygon fill="#FFFFFF" points="1808.9,184.1 1808.9,210.1 1808.9,252.5 1853.9,252.5 1853.9,210.1 1884.5,210.1 1884.5,411 1854,411 
		1854,460 1971.9,460 1971.9,411 1941.4,411 1941.4,210.1 1971.9,210.1 1971.9,252.5 2016.9,252.5 2016.9,210.1 2016.9,184.1 
		2016.9,160.1 1808.9,160.1 	"/>
	<polygon fill="#FFFFFF" points="2298.9,160.1 2223.1,160.1 2223.1,160.1 2223,160 2177.8,387.6 2132.6,160.1 2132.5,160.1 
		2132.5,160.1 2056.7,160.1 2056.7,210 2084.4,210 2134,459.5 2134.1,459.5 2134.1,460 2221.5,460 2221.5,459.5 2221.6,459.5 
		2271.1,210 2298.9,210 	"/>
	<path fill="#FFFFFF" d="M347.5,160.2h-82.8h-35.3c-17.3,0-31.8,14.5-31.8,31.8v136.6h35.3h87.6v82.2h-29.6h-35.3v-56.4h-22.7h-35.3
		v72.9c0,17.7,14.5,32.6,32.2,32.6h35.3h82.8c17.7,0,31.9-14.1,31.9-31.4V278.6h-88.8h-35.3v-68.5h35.3h29.6v41.5h35.3h23.9v-60
		C379.7,173.9,365.2,160.2,347.5,160.2z"/>
	<path fill="#FFFFFF" d="M595.7,160.2H454.8h-35.3v7.2v42.7h11.8h11.6v200.7h-11.6H420v41.7v7.5h35.3h69.1v-49.2h-22.2v-82.2h35.3h58.2
		c17.7,0,31.8-14.9,31.8-32.6V192C627.5,174.3,613.4,160.2,595.7,160.2z M569.1,278.6h-31.6h-35.3v-68.5h35.3h31.6V278.6z"/>
	<polygon fill="#FFFFFF" points="656.5,160.2 656.5,165.6 656.5,210.1 670.4,210.1 679,210.1 679,410.8 656.5,410.8 656.5,460 
		691.8,460 759.2,460 759.2,410.8 737.1,410.8 737.1,210.1 759.2,210.1 759.2,160.2 691.8,160.2 	"/>
	<polygon fill="#FFFFFF" points="811,160.2 796.8,160.2 796.8,210.1 811,210.1 818.6,210.1 818.6,410.8 811,410.8 796.8,410.8 
		796.8,460 811,460 832.1,460 1001.9,460 1001.9,354.4 979.6,354.4 944.3,354.4 944.3,410.8 911.5,410.8 876.2,410.8 876.2,328.6 
		911.5,328.6 966.9,328.6 966.9,278.6 911.5,278.6 876.2,278.6 876.2,210.1 911.5,210.1 944.3,210.1 944.3,251.6 979.6,251.6 
		1001.9,251.6 1001.9,160.2 832.1,160.2 	"/>
	<path fill="#FFFFFF" d="M1135.3,278.6H1119v50h16.3h18.9h12.7v82.2h-31.6H1100V210.1h35.3h29.6v41.5h35.3h25.1v-59.2
		c0-17.7-14.1-32.2-31.8-32.2h-83.2H1075c-8,0-15.2,3.1-20.8,8c-6.7,5.9-11.1,14.6-11.1,24.3v59.2v102.8v74.1
		c0,9.2,4.4,17.4,11.1,23.2c5.9,5.1,13.5,8.2,21.6,8.2h35.3h114.6V278.6h-71.5H1135.3z"/>
	<polygon fill="#FFFFFF" points="1258,160.2 1258,169.2 1258,210.1 1267.7,210.1 1279.7,210.1 1279.7,410.8 1268.2,410.8 1258,410.8 
		1258,460 1268.2,460 1293.3,460 1463.1,460 1463.1,354.4 1440.7,354.4 1405.4,354.4 1405.4,410.8 1372.7,410.8 1337.4,410.8 
		1337.4,328.6 1372.7,328.6 1428,328.6 1428,278.6 1372.7,278.6 1337.4,278.6 1337.4,210.1 1372.7,210.1 1405.4,210.1 1405.4,251.6 
		1440.7,251.6 1463.1,251.6 1463.1,160.2 1293.3,160.2 	"/>
	<polygon fill="#FFFFFF" points="1653.4,354.4 1653.4,410.8 1621.8,410.8 1586.5,410.8 1586.5,210.1 1611.5,210.1 1611.5,160.2 
		1540.4,160.2 1516.5,160.2 1505.1,160.2 1505.1,210.1 1516.5,210.1 1527.6,210.1 1527.6,410.8 1516.5,410.8 1504.7,410.8 
		1504.7,460 1516.5,460 1540,460 1710.6,460 1710.6,354.4 1688.7,354.4 	"/>
</g>
</svg>
