<?xml version="1.0" encoding="UTF-8" standalone="no"?>
<!-- Created with Inkscape (http://www.inkscape.org/) -->

<svg
   version="1.0"
   width="545"
   height="90.17955"
   id="svg2354"
   sodipodi:docname="SPIEGEL TV.svg"
   inkscape:version="1.1.1 (3bf5ae0d25, 2021-09-20)"
   xmlns:inkscape="http://www.inkscape.org/namespaces/inkscape"
   xmlns:sodipodi="http://sodipodi.sourceforge.net/DTD/sodipodi-0.dtd"
   xmlns="http://www.w3.org/2000/svg"
   xmlns:svg="http://www.w3.org/2000/svg">
  <sodipodi:namedview
     id="namedview7"
     pagecolor="#ffffff"
     bordercolor="#666666"
     borderopacity="1.0"
     inkscape:pageshadow="2"
     inkscape:pageopacity="0.0"
     inkscape:pagecheckerboard="0"
     showgrid="false"
     inkscape:zoom="2.0715596"
     inkscape:cx="272.5"
     inkscape:cy="45.135075"
     inkscape:window-width="1920"
     inkscape:window-height="1017"
     inkscape:window-x="-8"
     inkscape:window-y="-8"
     inkscape:window-maximized="1"
     inkscape:current-layer="svg2354" />
  <defs
     id="defs2356" />
  <path
     d="M 401.76174,4.0000021 L 401.76174,21.003071 L 419.51949,21.003071 L 419.48596,86.109461 L 440.68275,86.117845 L 440.68275,21.003071 L 456.55324,21.003071 L 456.55324,4.0000021 L 401.76174,4.0000021 z M 459.16184,4.0000021 L 492.077,86.109461 L 508.10678,86.109461 L 537.28073,4.0000021 L 515.71483,4.0000021 L 499.64313,52.366056 L 481.88539,4.0000021 L 459.16184,4.0000021 z"
     id="TV"
     style="fill:#ffffff;fill-opacity:1" />
  <path
     d="M 63.876485,4.0622285 L 63.836199,20.121297 L 69.810033,20.129355 L 69.874492,45.282121 L 69.874492,70.313963 L 63.836199,70.313963 L 63.836199,86.123115 L 102.7424,86.123115 L 102.7424,70.313963 L 97.179696,70.313963 L 97.179696,51.231718 C 102.74382,51.231718 95.501386,51.227636 117.06012,51.126919 L 121.20385,51.19141 C 126.02081,51.19141 130.12023,45.930538 130.12023,40.944888 L 130.12023,27.53814 C 130.12023,27.53814 130.12023,18.383981 130.12023,12.825391 C 130.12023,7.7295955 125.98389,4.0783539 121.37316,4.0783539 L 63.876485,4.0622285 z M 37.982067,4.0702857 C 34.674447,4.0737482 19.110477,4.084092 16.474368,4.1025368 C 12.648969,4.1293 7.728267,7.4821711 7.743457,12.728649 L 7.735399,51.231718 L 40.400563,51.231718 C 40.400563,58.675411 40.400454,70.313669 40.505417,70.313963 L 34.797658,70.313963 C 34.797658,70.313963 34.632201,55.484459 34.652551,55.568963 L 7.743457,55.593146 C 7.743457,55.593146 7.719274,70.786708 7.719274,77.456694 C 7.719274,81.104463 10.916519,86.123126 16.482436,86.123115 C 19.453696,86.123115 38.088162,86.115046 43.915505,86.115057 C 50.283277,86.115057 56.095421,86.179559 58.660582,86.179548 C 62.900682,86.179548 67.633256,82.705458 67.633256,77.44058 C 67.663635,64.419841 67.688568,48.499237 67.64948,35.430624 L 35.144318,35.285505 C 34.66002,34.883577 34.797658,20.121297 34.797658,20.121297 C 34.797658,20.121297 34.64641,20.117813 40.505417,20.129355 L 40.400563,30.690449 L 67.64948,30.690449 L 67.689766,12.825391 C 67.677571,8.3050718 64.129093,4.0906359 58.854066,4.1025368 C 58.854066,4.1025368 47.904958,4.0599093 37.982067,4.0702857 z M 160.25518,4.0702857 L 122.00196,4.0783539 L 121.97779,20.121297 L 127.69357,20.129355 L 127.69357,70.313963 L 121.97779,70.313963 L 121.97779,86.123115 L 160.2713,86.123115 L 160.25518,70.313963 L 154.53929,70.313963 L 154.53929,20.121297 L 160.25518,20.121297 L 160.25518,4.0702857 z M 155.41002,4.0702857 L 155.41002,20.121297 L 160.81941,20.121297 L 160.87592,70.313963 L 155.41002,70.313963 L 155.41808,86.123115 L 220.93612,86.002189 L 220.93612,69.346542 L 220.93612,55.778562 L 194.66279,55.657637 L 194.62251,70.313963 C 194.62251,70.313963 187.97153,70.313952 187.97153,70.313963 L 187.97153,51.231718 C 187.97153,51.231718 206.49091,51.231729 211.89888,51.231718 L 211.89888,35.430624 L 187.97153,35.430624 C 187.97153,27.689628 187.9785,20.124716 188.00377,20.129355 L 194.62251,20.121297 C 194.62251,20.121297 194.62251,30.690449 194.62251,30.690449 L 220.94429,30.690449 L 220.94429,4.0702857 L 155.41002,4.0702857 z M 272.42673,4.0702857 L 272.42673,20.121297 L 277.95719,20.121297 L 277.95719,70.313963 L 272.42673,70.313963 L 272.42673,86.123115 C 272.42673,86.123115 284.29492,86.123408 338.03362,86.123115 L 338.03362,55.657637 L 311.63932,55.657637 L 311.6231,70.313963 C 311.6231,70.313963 305.31892,70.313952 305.31892,70.313963 L 305.31892,51.231718 C 305.31892,51.231718 323.48258,51.231729 328.75444,51.231718 L 328.83502,35.559617 L 305.31892,35.430624 C 305.31892,27.689628 305.31892,30.779276 305.31892,20.121297 L 311.6231,20.121297 C 311.6231,20.121297 311.6231,30.690449 311.6231,30.690449 L 337.96905,30.690449 L 338.03362,4.0783539 L 272.42673,4.0702857 z M 374.11007,4.0702857 L 334.6476,4.0783539 L 334.61536,20.121297 L 340.71006,20.121297 C 340.71006,38.520272 340.71006,55.57738 340.71006,70.313963 L 334.6476,70.451014 L 334.61536,86.123115 L 400.34312,86.123115 L 400.34312,55.57702 L 373.98911,55.57702 L 373.98911,70.313963 L 367.69287,70.313963 L 367.69287,20.121297 C 367.69287,20.121297 374.11007,20.121297 374.11007,20.121297 L 374.11007,4.0702857 z M 267.76711,4.1025368 C 258.18263,4.1025368 236.04335,4.1992788 225.43471,4.1992788 C 220.10992,4.1992788 216.82473,8.9285653 216.82473,12.285247 L 216.76015,44.604938 C 216.68949,80.838506 216.6393,74.561107 216.6393,77.424453 C 216.6393,80.302804 218.99334,86.171491 225.83769,86.171491 C 232.69053,86.171491 248.38941,86.106989 255.87595,86.107 L 276.2803,86.123115 L 276.2803,35.430624 L 236.7857,35.430624 L 236.81554,51.279822 L 248.65258,51.231718 C 248.65258,51.231718 248.87024,70.313963 248.87024,70.313963 L 243.17862,70.313963 L 243.21891,20.129355 L 248.87024,20.121297 L 248.87024,30.690449 L 276.29642,30.827499 L 276.30447,12.93019 C 276.30447,8.2742363 272.58962,4.1025368 267.76711,4.1025368 z M 97.179696,20.121297 L 103.30674,20.121297 C 103.30674,20.121297 103.30674,27.689628 103.30674,35.430624 C 103.03932,35.595918 97.179696,35.430624 97.179696,35.430624 C 97.179696,27.689628 97.303176,20.181259 97.179696,20.121297 z"
     id="orange"
     style="fill:#ff4500;fill-opacity:1;stroke:none;stroke-width:0.25;stroke-linejoin:miter;stroke-miterlimit:4;stroke-dasharray:none;stroke-opacity:1" />
  <path
     d="M 19.180869,84.575177 C 13.61493,84.575177 10.412187,79.553509 10.412187,75.905751 C 10.412187,69.235765 10.43663,57.138101 10.43663,57.138101 L 24.973338,57.114429 C 24.952977,57.029925 25.118697,71.861204 25.118697,71.861204 L 42.697655,71.861487 C 42.592693,71.861204 42.592693,57.124621 42.592693,49.680939 L 10.433854,49.680939 L 10.439352,14.279233 C 10.424174,9.0327658 15.343809,5.6762689 19.169218,5.6495056 C 29.713676,5.5757378 49.178338,5.6495056 49.178338,5.6495056 C 54.453365,5.6376157 58.002932,9.8544035 58.015017,14.374712 L 57.968416,29.233483 L 42.592693,29.233483 L 42.697655,18.580154 C 36.838638,18.568612 25.118697,18.575505 25.118697,18.575505 C 25.118697,18.575505 24.98022,36.431994 25.464518,36.833922 L 57.968416,36.974479 C 58.007614,50.043092 57.98758,62.872012 57.957202,75.89275 C 57.957202,81.157619 53.223102,84.634572 48.983002,84.634572 C 46.417841,84.634572 40.605371,84.568426 34.237698,84.568426 C 28.410332,84.568426 22.152108,84.575177 19.180869,84.575177 z M 66.028547,71.861204 L 72.060525,71.861204 L 72.064009,45.281359 L 72.002381,18.580154 L 66.028547,18.575505 L 66.068833,5.6117996 L 111.69689,5.6258345 C 116.30763,5.6258345 120.43993,9.2781432 120.43993,14.373928 C 120.43993,19.932528 120.43993,27.541112 120.43993,27.541112 L 120.43993,40.945018 C 120.43993,45.930669 116.34443,49.639803 111.52747,49.639803 L 107.38318,49.580212 C 85.824466,49.680939 93.068736,49.680939 87.504736,49.680939 L 87.504736,71.861204 L 93.068736,71.861204 L 93.068736,84.576647 L 66.028547,84.576647 L 66.028547,71.861204 z M 105.49691,36.974479 C 105.49691,29.233483 105.49691,18.575505 105.49691,18.575505 L 87.504736,18.575505 C 87.628096,18.635477 87.504736,29.233483 87.504736,36.974479 C 87.504736,36.974479 105.22949,37.139773 105.49691,36.974479 z M 124.16502,71.861204 L 129.88505,71.861204 L 129.88526,18.580154 L 124.16502,18.575505 L 124.19387,5.6231125 L 150.5812,5.6205538 L 150.5812,18.575505 L 144.86116,18.575505 L 144.86116,71.861204 L 150.5812,71.861204 L 150.5923,84.576353 L 124.16502,84.576647 L 124.16502,71.861204 z M 157.60128,71.861204 L 163.065,71.861487 L 163.00937,18.575505 L 157.60128,18.575505 L 157.60128,5.6205538 L 211.26573,5.6205538 L 211.26573,29.233483 L 196.80962,29.233483 C 196.80962,29.233483 196.80962,18.575505 196.80962,18.575505 L 178.32281,18.580154 C 178.29744,18.575505 178.29744,29.233483 178.29744,36.974479 L 202.21771,36.974479 L 202.21771,49.680939 C 196.80962,49.680939 178.29744,49.680939 178.29744,49.680939 L 178.29744,71.861204 C 178.29744,71.861204 196.80962,71.861204 196.80962,71.861204 L 196.85013,57.201905 L 211.26039,57.330223 L 211.26039,70.892739 L 211.26039,84.455253 L 157.6076,84.578454 L 157.60128,71.861204 z M 228.03035,84.622998 C 221.18601,84.622998 218.82925,78.752319 218.82925,75.873968 C 218.82925,73.01061 218.87575,80.835664 218.9463,44.602096 L 219.01032,13.834873 C 219.01032,10.478191 222.29705,5.7442007 227.62183,5.7442007 C 238.23047,5.7442007 248.50178,5.6495056 258.08616,5.6495056 C 262.90867,5.6495056 266.62722,9.8192018 266.62722,14.475145 L 266.62232,29.364349 L 251.059,29.233483 L 251.059,18.575505 L 233.54166,18.580154 L 233.49822,71.861204 L 251.059,71.861204 C 251.11692,64.467738 251.08589,57.074415 251.059,49.680939 L 238.9775,49.680939 L 238.9775,36.974479 L 266.5988,36.974479 L 266.60021,84.576353 L 246.19587,84.559465 C 238.70933,84.559465 234.88309,84.622998 228.03035,84.622998 z M 274.61941,84.576647 L 274.61941,71.861204 L 280.1453,71.861204 L 280.1453,18.575505 L 274.61941,18.575505 L 274.61941,5.6205538 L 328.35811,5.6231125 L 328.2905,29.233483 L 313.80892,29.233483 C 313.80892,29.233483 313.80892,18.575505 313.80892,18.575505 L 295.6433,18.575505 C 295.6433,29.233483 295.6433,29.233483 295.6433,36.974479 L 319.15493,37.107523 L 319.08067,49.680939 C 313.80892,49.680939 295.6433,49.680939 295.6433,49.680939 L 295.6433,71.861204 C 295.6433,71.861204 313.80892,71.861204 313.80892,71.861204 L 313.82688,57.209136 L 328.35811,57.209136 L 328.35811,84.576353 C 274.61941,84.576647 274.61941,84.576647 274.61941,84.576647 z M 336.83461,71.997481 L 342.89925,71.861204 C 342.89925,57.124621 342.89925,36.974479 342.89925,18.575505 L 336.80173,18.575505 L 336.83461,5.6231125 L 364.43119,5.6205538 L 364.43119,18.575505 C 364.43119,18.575505 358.01605,18.575505 358.01605,18.575505 L 358.01605,71.861204 L 376.18167,71.861204 L 376.18167,57.124621 L 390.66336,57.124621 L 390.66336,84.576647 L 336.80173,84.576647 L 336.83461,71.997481 z"
     id="SPIEGEL"
     style="fill:#ffffff;fill-opacity:1" />
</svg>
