<?xml version="1.0" encoding="UTF-8"?>
<!DOCTYPE svg PUBLIC "-//W3C//DTD SVG 1.1//EN" "http://www.w3.org/Graphics/SVG/1.1/DTD/svg11.dtd">
<svg xmlns="http://www.w3.org/2000/svg" version="1.1" width="580px" height="202px" style="shape-rendering:geometricPrecision; text-rendering:geometricPrecision; image-rendering:optimizeQuality; fill-rule:evenodd; clip-rule:evenodd" xmlns:xlink="http://www.w3.org/1999/xlink">
<g><path style="opacity:1" fill="#d61808" d="M -0.5,-0.5 C 192.833,-0.5 386.167,-0.5 579.5,-0.5C 579.5,66.8333 579.5,134.167 579.5,201.5C 386.167,201.5 192.833,201.5 -0.5,201.5C -0.5,134.167 -0.5,66.8333 -0.5,-0.5 Z"/></g>
<g><path style="opacity:1" fill="#ee9e94" d="M 128.5,23.5 C 116.167,23.5 103.833,23.5 91.5,23.5C 91.5,26.5 91.5,29.5 91.5,32.5C 90.5206,29.3752 90.1872,26.0419 90.5,22.5C 103.344,22.1713 116.011,22.5046 128.5,23.5 Z"/></g>
<g><path style="opacity:1" fill="#ec9991" d="M 168.5,23.5 C 161.833,23.5 155.167,23.5 148.5,23.5C 148.5,26.5 148.5,29.5 148.5,32.5C 147.521,29.3752 147.187,26.0419 147.5,22.5C 154.687,22.1755 161.687,22.5088 168.5,23.5 Z"/></g>
<g><path style="opacity:1" fill="#ec9b91" d="M 226.5,23.5 C 212.833,23.5 199.167,23.5 185.5,23.5C 185.5,26.5 185.5,29.5 185.5,32.5C 184.521,29.3752 184.187,26.0419 184.5,22.5C 198.677,22.1709 212.677,22.5042 226.5,23.5 Z"/></g>
<g><path style="opacity:1" fill="#ec9b91" d="M 376.5,32.5 C 376.5,29.5 376.5,26.5 376.5,23.5C 369.833,23.5 363.167,23.5 356.5,23.5C 356.5,26.5 356.5,29.5 356.5,32.5C 355.521,29.3752 355.187,26.0419 355.5,22.5C 362.833,22.5 370.167,22.5 377.5,22.5C 377.813,26.0419 377.479,29.3752 376.5,32.5 Z"/></g>
<g><path style="opacity:1" fill="#fcf8f6" d="M 41.5,22.5 C 51.6051,22.0505 61.6051,22.5505 71.5,24C 72,24.5 72.5,25 73,25.5C 73.4993,30.4889 73.6659,35.4889 73.5,40.5C 69.8333,40.5 66.1667,40.5 62.5,40.5C 62.7683,37.8806 62.435,35.3806 61.5,33C 57.1794,32.501 52.8461,32.3343 48.5,32.5C 48.5,37.5 48.5,42.5 48.5,47.5C 56.8333,47.5 65.1667,47.5 73.5,47.5C 73.6665,58.505 73.4998,69.505 73,80.5C 72.5348,81.9308 71.7014,83.0975 70.5,84C 60.5,84.6667 50.5,84.6667 40.5,84C 39.6667,83.1667 38.8333,82.3333 38,81.5C 37.5005,75.5092 37.3338,69.5092 37.5,63.5C 41.1667,63.5 44.8333,63.5 48.5,63.5C 48.2065,67.4367 48.5399,71.27 49.5,75C 53.5,75.6667 57.5,75.6667 61.5,75C 62.8333,69 62.8333,63 61.5,57C 53.5069,56.5003 45.5069,56.3336 37.5,56.5C 37.3335,46.1613 37.5002,35.828 38,25.5C 39.1451,24.3636 40.3117,23.3636 41.5,22.5 Z"/></g>
<g><path style="opacity:1" fill="#fcf9f8" d="M 128.5,23.5 C 130.371,23.8588 131.871,24.8588 133,26.5C 133.667,35.5 133.667,44.5 133,53.5C 132.097,54.7014 130.931,55.5348 129.5,56C 122.5,56.3333 115.5,56.6667 108.5,57C 107.524,63.0758 107.19,69.2424 107.5,75.5C 108.833,75.5 110.167,75.5 111.5,75.5C 111.5,78.1667 111.5,80.8333 111.5,83.5C 104.833,83.5 98.1667,83.5 91.5,83.5C 91.5,80.8333 91.5,78.1667 91.5,75.5C 93.1667,75.5 94.8333,75.5 96.5,75.5C 96.8291,61.3234 96.4958,47.3234 95.5,33.5C 94.4324,32.5655 93.099,32.2322 91.5,32.5C 91.5,29.5 91.5,26.5 91.5,23.5C 103.833,23.5 116.167,23.5 128.5,23.5 Z"/></g>
<g><path style="opacity:1" fill="#fdfdfc" d="M 168.5,23.5 C 168.5,26.5 168.5,29.5 168.5,32.5C 166.856,32.2865 165.356,32.6198 164,33.5C 163.333,47.1667 163.333,60.8333 164,74.5C 165.356,75.3802 166.856,75.7135 168.5,75.5C 168.5,78.1667 168.5,80.8333 168.5,83.5C 161.833,83.5 155.167,83.5 148.5,83.5C 148.5,80.8333 148.5,78.1667 148.5,75.5C 150.167,75.5 151.833,75.5 153.5,75.5C 153.829,61.3234 153.496,47.3234 152.5,33.5C 151.432,32.5655 150.099,32.2322 148.5,32.5C 148.5,29.5 148.5,26.5 148.5,23.5C 155.167,23.5 161.833,23.5 168.5,23.5 Z"/></g>
<g><path style="opacity:1" fill="#fcf9f8" d="M 226.5,23.5 C 226.5,29.1667 226.5,34.8333 226.5,40.5C 223.167,40.5 219.833,40.5 216.5,40.5C 216.802,37.9407 216.468,35.6074 215.5,33.5C 211.019,32.3516 206.352,32.1849 201.5,33C 200.368,37.4132 200.201,41.9132 201,46.5C 207.076,47.4764 213.242,47.8097 219.5,47.5C 219.5,50.5 219.5,53.5 219.5,56.5C 213.242,56.1903 207.076,56.5236 201,57.5C 200.333,63.1667 200.333,68.8333 201,74.5C 205.413,75.6324 209.913,75.7991 214.5,75C 215.056,74.6174 215.389,74.1174 215.5,73.5C 216.479,70.3752 216.813,67.0419 216.5,63.5C 219.833,63.5 223.167,63.5 226.5,63.5C 226.5,70.5 226.5,77.5 226.5,84.5C 212.833,84.5 199.167,84.5 185.5,84.5C 185.5,81.5 185.5,78.5 185.5,75.5C 186.822,75.67 187.989,75.3366 189,74.5C 189.5,60.504 189.667,46.504 189.5,32.5C 188.167,32.5 186.833,32.5 185.5,32.5C 185.5,29.5 185.5,26.5 185.5,23.5C 199.167,23.5 212.833,23.5 226.5,23.5 Z"/></g>
<g><path style="opacity:1" fill="#fcfaf9" d="M 280.5,26.5 C 280.5,31.1667 280.5,35.8333 280.5,40.5C 276.833,40.5 273.167,40.5 269.5,40.5C 269.768,37.8806 269.435,35.3806 268.5,33C 263.913,32.2009 259.413,32.3676 255,33.5C 254.333,46.8333 254.333,60.1667 255,73.5C 255.5,74 256,74.5 256.5,75C 260.755,75.7961 264.921,75.6295 269,74.5C 269.818,68.6513 269.652,62.9846 268.5,57.5C 266.052,56.5269 263.385,56.1936 260.5,56.5C 260.5,53.5 260.5,50.5 260.5,47.5C 267.167,47.5 273.833,47.5 280.5,47.5C 280.5,59.5 280.5,71.5 280.5,83.5C 269.833,83.5 259.167,83.5 248.5,83.5C 246.589,83.4257 245.422,82.4257 245,80.5C 244.333,62.1667 244.333,43.8333 245,25.5C 245.903,24.2986 247.069,23.4652 248.5,23C 257.833,22.3333 267.167,22.3333 276.5,23C 278.093,23.9487 279.426,25.1154 280.5,26.5 Z"/></g>
<g><path style="opacity:1" fill="#fcf7f5" d="M 296.5,22.5 C 310.5,22.5 324.5,22.5 338.5,22.5C 338.5,28.5 338.5,34.5 338.5,40.5C 334.833,40.5 331.167,40.5 327.5,40.5C 327.768,37.8806 327.435,35.3806 326.5,33C 321.845,32.5008 317.179,32.3342 312.5,32.5C 312.5,37.5 312.5,42.5 312.5,47.5C 318.5,47.5 324.5,47.5 330.5,47.5C 330.5,50.5 330.5,53.5 330.5,56.5C 324.575,56.1918 318.741,56.5251 313,57.5C 312.501,63.4908 312.334,69.4908 312.5,75.5C 317.179,75.6658 321.845,75.4992 326.5,75C 327.46,71.27 327.793,67.4367 327.5,63.5C 331.167,63.5 334.833,63.5 338.5,63.5C 338.5,70.5 338.5,77.5 338.5,84.5C 324.5,84.5 310.5,84.5 296.5,84.5C 296.5,81.5 296.5,78.5 296.5,75.5C 298.144,75.7135 299.644,75.3802 301,74.5C 301.667,60.8333 301.667,47.1667 301,33.5C 299.644,32.6198 298.144,32.2865 296.5,32.5C 296.5,29.1667 296.5,25.8333 296.5,22.5 Z"/></g>
<g><path style="opacity:1" fill="#fcfdfc" d="M 376.5,32.5 C 374.856,32.2865 373.356,32.6198 372,33.5C 371.333,46.8333 371.333,60.1667 372,73.5C 372.5,74 373,74.5 373.5,75C 377.5,75.6667 381.5,75.6667 385.5,75C 386.46,71.27 386.793,67.4367 386.5,63.5C 390.167,63.5 393.833,63.5 397.5,63.5C 397.5,70.1667 397.5,76.8333 397.5,83.5C 383.833,83.5 370.167,83.5 356.5,83.5C 356.5,80.8333 356.5,78.1667 356.5,75.5C 357.791,75.7373 358.791,75.404 359.5,74.5C 360.661,61.0062 360.827,47.3396 360,33.5C 358.989,32.6634 357.822,32.33 356.5,32.5C 356.5,29.5 356.5,26.5 356.5,23.5C 363.167,23.5 369.833,23.5 376.5,23.5C 376.5,26.5 376.5,29.5 376.5,32.5 Z"/></g>
<g><path style="opacity:1" fill="#fcf3f0" d="M 495.5,22.5 C 506.172,22.3335 516.839,22.5002 527.5,23C 537.927,24.0989 544.761,29.5989 548,39.5C 548.667,77.8333 548.667,116.167 548,154.5C 547.298,164.537 542.131,171.037 532.5,174C 520.214,175.37 507.88,175.87 495.5,175.5C 495.5,124.5 495.5,73.5 495.5,22.5 Z"/></g>
<g><path style="opacity:1" fill="#fcfbfa" d="M 433.5,23.5 C 433.333,47.8356 433.5,72.1689 434,96.5C 448.265,97.8301 462.431,97.8301 476.5,96.5C 477.498,72.3391 477.831,48.0057 477.5,23.5C 478.833,23.5 480.167,23.5 481.5,23.5C 481.5,74.1667 481.5,124.833 481.5,175.5C 479.833,175.5 478.167,175.5 476.5,175.5C 476.5,151.167 476.5,126.833 476.5,102.5C 462.255,102.176 448.088,102.51 434,103.5C 433.5,127.164 433.333,150.831 433.5,174.5C 432.167,174.5 430.833,174.5 429.5,174.5C 429.5,124.167 429.5,73.8333 429.5,23.5C 430.833,23.5 432.167,23.5 433.5,23.5 Z"/></g>
<g><path style="opacity:1" fill="#f9dfd9" d="M 481.5,23.5 C 480.167,23.5 478.833,23.5 477.5,23.5C 477.831,48.0057 477.498,72.3391 476.5,96.5C 476.5,71.8333 476.5,47.1667 476.5,22.5C 478.415,22.2155 480.081,22.5489 481.5,23.5 Z"/></g>
<g><path style="opacity:1" fill="#fceae3" d="M 433.5,23.5 C 432.167,23.5 430.833,23.5 429.5,23.5C 429.5,73.8333 429.5,124.167 429.5,174.5C 430.833,174.5 432.167,174.5 433.5,174.5C 432.081,175.451 430.415,175.784 428.5,175.5C 428.5,124.5 428.5,73.5 428.5,22.5C 430.415,22.2155 432.081,22.5489 433.5,23.5 Z"/></g>
<g><path style="opacity:1" fill="#d61506" d="M 500.5,27.5 C 510.172,27.3335 519.839,27.5002 529.5,28C 536.262,29.7633 540.762,33.9299 543,40.5C 543.167,60 543.333,79.5 543.5,99C 543.65,119.562 543.15,140.062 542,160.5C 539.28,165.551 535.113,168.718 529.5,170C 519.839,170.5 510.172,170.666 500.5,170.5C 500.5,122.833 500.5,75.1667 500.5,27.5 Z"/></g>
<g><path style="opacity:1" fill="#d25655" d="M 107.5,32.5 C 112.167,32.5 116.833,32.5 121.5,32.5C 121.5,37.5 121.5,42.5 121.5,47.5C 116.833,47.5 112.167,47.5 107.5,47.5C 107.5,42.5 107.5,37.5 107.5,32.5 Z"/></g>
<g><path style="opacity:1" fill="#c20102" d="M 108.5,33.5 C 112.5,33.5 116.5,33.5 120.5,33.5C 120.5,37.8333 120.5,42.1667 120.5,46.5C 116.5,46.5 112.5,46.5 108.5,46.5C 108.5,42.1667 108.5,37.8333 108.5,33.5 Z"/></g>
<g><path style="opacity:1" fill="#eeaea8" d="M 95.5,33.5 C 96.4958,47.3234 96.8291,61.3234 96.5,75.5C 94.8333,75.5 93.1667,75.5 91.5,75.5C 92.5676,74.5655 93.901,74.2322 95.5,74.5C 95.5,60.8333 95.5,47.1667 95.5,33.5 Z"/></g>
<g><path style="opacity:1" fill="#e67972" d="M 215.5,33.5 C 216.468,35.6074 216.802,37.9407 216.5,40.5C 219.833,40.5 223.167,40.5 226.5,40.5C 223.038,41.4816 219.371,41.815 215.5,41.5C 215.5,38.8333 215.5,36.1667 215.5,33.5 Z"/></g>
<g><path style="opacity:1" fill="#e67c73" d="M 280.5,26.5 C 281.487,31.3054 281.821,36.3054 281.5,41.5C 277.298,41.8168 273.298,41.4834 269.5,40.5C 273.167,40.5 276.833,40.5 280.5,40.5C 280.5,35.8333 280.5,31.1667 280.5,26.5 Z"/></g>
<g><path style="opacity:1" fill="#e8968d" d="M 152.5,33.5 C 153.496,47.3234 153.829,61.3234 153.5,75.5C 151.833,75.5 150.167,75.5 148.5,75.5C 149.568,74.5655 150.901,74.2322 152.5,74.5C 152.5,60.8333 152.5,47.1667 152.5,33.5 Z"/></g>
<g><path style="opacity:1" fill="#e78378" d="M 260.5,47.5 C 260.5,50.5 260.5,53.5 260.5,56.5C 263.385,56.1936 266.052,56.5269 268.5,57.5C 265.5,57.5 262.5,57.5 259.5,57.5C 259.187,53.9581 259.521,50.6248 260.5,47.5 Z"/></g>
<g><path style="opacity:1" fill="#e8837c" d="M 226.5,63.5 C 223.167,63.5 219.833,63.5 216.5,63.5C 216.813,67.0419 216.479,70.3752 215.5,73.5C 215.5,69.8333 215.5,66.1667 215.5,62.5C 219.371,62.185 223.038,62.5184 226.5,63.5 Z"/></g>
<g><path style="opacity:1" fill="#eb988a" d="M 91.5,75.5 C 91.5,78.1667 91.5,80.8333 91.5,83.5C 98.1667,83.5 104.833,83.5 111.5,83.5C 111.5,80.8333 111.5,78.1667 111.5,75.5C 112.477,78.2869 112.81,81.2869 112.5,84.5C 105.167,84.5 97.8333,84.5 90.5,84.5C 90.19,81.2869 90.5233,78.2869 91.5,75.5 Z"/></g>
<g><path style="opacity:1" fill="#eca597" d="M 148.5,75.5 C 148.5,78.1667 148.5,80.8333 148.5,83.5C 155.167,83.5 161.833,83.5 168.5,83.5C 161.687,84.4912 154.687,84.8245 147.5,84.5C 147.19,81.2869 147.523,78.2869 148.5,75.5 Z"/></g>
<g><path style="opacity:1" fill="#f0b1a4" d="M 280.5,47.5 C 281.495,59.6554 281.829,71.9887 281.5,84.5C 270.321,84.8279 259.321,84.4946 248.5,83.5C 259.167,83.5 269.833,83.5 280.5,83.5C 280.5,71.5 280.5,59.5 280.5,47.5 Z"/></g>
<g><path style="opacity:1" fill="#f0b1a7" d="M 359.5,74.5 C 358.791,75.404 357.791,75.7373 356.5,75.5C 356.5,78.1667 356.5,80.8333 356.5,83.5C 370.167,83.5 383.833,83.5 397.5,83.5C 383.677,84.4958 369.677,84.8291 355.5,84.5C 355.5,81.1667 355.5,77.8333 355.5,74.5C 356.833,74.5 358.167,74.5 359.5,74.5 Z"/></g>
<g><path style="opacity:1" fill="#fcfaf9" d="M 37.5,99.5 C 157.5,99.5 277.5,99.5 397.5,99.5C 397.5,100.5 397.5,101.5 397.5,102.5C 277.5,102.5 157.5,102.5 37.5,102.5C 37.5,101.5 37.5,100.5 37.5,99.5 Z"/></g>
<g><path style="opacity:1" fill="#f9efed" d="M 119.5,117.5 C 132.003,115.671 137.003,121.005 134.5,133.5C 133.5,133.5 132.5,133.5 131.5,133.5C 133.457,122.274 129.29,118.607 119,122.5C 118.333,127.5 118.333,132.5 119,137.5C 124.635,142.133 129.968,147.133 135,152.5C 135.667,158.5 135.667,164.5 135,170.5C 130.844,176.47 125.344,177.97 118.5,175C 116.951,173.786 115.785,172.286 115,170.5C 114.501,166.848 114.335,163.182 114.5,159.5C 115.5,159.5 116.5,159.5 117.5,159.5C 115.156,169.313 118.823,173.48 128.5,172C 131.041,169.251 132.041,165.918 131.5,162C 131.572,158.71 131.072,155.544 130,152.5C 126.117,148.95 121.951,145.783 117.5,143C 116.54,141.581 115.707,140.081 115,138.5C 114.333,133.5 114.333,128.5 115,123.5C 115.599,120.746 117.099,118.746 119.5,117.5 Z"/></g>
<g><path style="opacity:1" fill="#fae6e3" d="M 384.5,171.5 C 388.634,172.485 392.968,172.818 397.5,172.5C 397.5,173.5 397.5,174.5 397.5,175.5C 391.5,175.5 385.5,175.5 379.5,175.5C 379.333,156.497 379.5,137.497 380,118.5C 385.741,117.525 391.575,117.192 397.5,117.5C 397.5,118.833 397.5,120.167 397.5,121.5C 392.833,121.5 388.167,121.5 383.5,121.5C 383.334,128.508 383.5,135.508 384,142.5C 388.066,143.464 392.233,143.797 396.5,143.5C 396.5,144.5 396.5,145.5 396.5,146.5C 392.233,146.203 388.066,146.536 384,147.5C 383.177,155.677 383.344,163.677 384.5,171.5 Z"/></g>
<g><path style="opacity:1" fill="#fce8e6" d="M 237.5,117.5 C 238.822,117.33 239.989,117.663 241,118.5C 241.5,137.497 241.667,156.497 241.5,175.5C 240.167,175.5 238.833,175.5 237.5,175.5C 237.5,156.167 237.5,136.833 237.5,117.5 Z"/></g>
<g><path style="opacity:1" fill="#fae5e0" d="M 361.5,118.5 C 354.913,120.461 347.913,121.128 340.5,120.5C 340.5,119.5 340.5,118.5 340.5,117.5C 347.687,117.175 354.687,117.509 361.5,118.5 Z"/></g>
<g><path style="opacity:1" fill="#fae4e0" d="M 302.5,117.5 C 303.5,117.5 304.5,117.5 305.5,117.5C 305.334,125.84 305.5,134.173 306,142.5C 310.333,143.833 314.667,143.833 319,142.5C 319.5,134.173 319.666,125.84 319.5,117.5C 320.822,117.33 321.989,117.663 323,118.5C 323.5,137.497 323.667,156.497 323.5,175.5C 322.167,175.5 320.833,175.5 319.5,175.5C 319.666,166.161 319.5,156.827 319,147.5C 314.667,146.167 310.333,146.167 306,147.5C 305.5,156.827 305.334,166.161 305.5,175.5C 304.167,175.5 302.833,175.5 301.5,175.5C 301.18,156.091 301.513,136.757 302.5,117.5 Z"/></g>
<g><path style="opacity:1" fill="#f6cac6" d="M 361.5,118.5 C 362.404,119.209 362.737,120.209 362.5,121.5C 359.287,121.19 356.287,121.523 353.5,122.5C 352.167,122.5 350.833,122.5 349.5,122.5C 346.39,121.912 343.39,121.245 340.5,120.5C 347.913,121.128 354.913,120.461 361.5,118.5 Z"/></g>
<g><path style="opacity:1" fill="#fbeae6" d="M 195.5,117.5 C 196.5,117.5 197.5,117.5 198.5,117.5C 198.334,125.84 198.5,134.173 199,142.5C 203.066,143.464 207.233,143.797 211.5,143.5C 211.334,135.16 211.5,126.827 212,118.5C 213.011,117.663 214.178,117.33 215.5,117.5C 215.5,136.833 215.5,156.167 215.5,175.5C 214.167,175.5 212.833,175.5 211.5,175.5C 211.5,165.833 211.5,156.167 211.5,146.5C 207.233,146.203 203.066,146.536 199,147.5C 198.5,156.827 198.334,166.161 198.5,175.5C 197.167,175.5 195.833,175.5 194.5,175.5C 194.18,156.091 194.513,136.757 195.5,117.5 Z"/></g>
<g><path style="opacity:1" fill="#faefed" d="M 48.5,151.5 C 50.9878,149.612 53.9878,148.945 57.5,149.5C 57.9321,157.279 57.4321,164.946 56,172.5C 49.1455,178.376 43.1455,177.709 38,170.5C 37.3333,154.167 37.3333,137.833 38,121.5C 42.7865,117.097 48.2865,116.264 54.5,119C 55.3333,119.833 56.1667,120.667 57,121.5C 57.4988,125.486 57.6655,129.486 57.5,133.5C 56.1667,133.5 54.8333,133.5 53.5,133.5C 53.6653,129.818 53.4986,126.152 53,122.5C 50.1592,120.496 46.9926,119.996 43.5,121C 42.2986,121.903 41.4652,123.069 41,124.5C 40.3333,139.167 40.3333,153.833 41,168.5C 43.0527,172.292 46.2194,173.458 50.5,172C 51.4162,171.626 52.2496,171.126 53,170.5C 53.4995,164.509 53.6662,158.509 53.5,152.5C 51.5853,152.784 49.9187,152.451 48.5,151.5 Z"/></g>
<g><path style="opacity:1" fill="#fae6e3" d="M 78.5,117.5 C 84.1667,117.5 89.8333,117.5 95.5,117.5C 95.5,118.833 95.5,120.167 95.5,121.5C 91.1667,121.5 86.8333,121.5 82.5,121.5C 82.5,128.833 82.5,136.167 82.5,143.5C 86.5,143.5 90.5,143.5 94.5,143.5C 94.5,144.5 94.5,145.5 94.5,146.5C 90.5,146.5 86.5,146.5 82.5,146.5C 82.5,155.167 82.5,163.833 82.5,172.5C 87.1667,172.5 91.8333,172.5 96.5,172.5C 96.5,173.5 96.5,174.5 96.5,175.5C 90.5,175.5 84.5,175.5 78.5,175.5C 78.5,156.167 78.5,136.833 78.5,117.5 Z"/></g>
<g><path style="opacity:1" fill="#fdfaf8" d="M 349.5,122.5 C 350.833,122.5 352.167,122.5 353.5,122.5C 353.5,140.167 353.5,157.833 353.5,175.5C 352.167,175.5 350.833,175.5 349.5,175.5C 349.5,157.833 349.5,140.167 349.5,122.5 Z"/></g>
<g><path style="opacity:1" fill="#fbeeec" d="M 266.5,117.5 C 279.221,115.555 284.555,120.888 282.5,133.5C 281.167,133.5 279.833,133.5 278.5,133.5C 281.005,124.196 277.671,120.029 268.5,121C 267.667,121.833 266.833,122.667 266,123.5C 265.333,138.833 265.333,154.167 266,169.5C 269.17,172.607 272.837,173.274 277,171.5C 278.367,167.3 278.867,162.967 278.5,158.5C 279.833,158.5 281.167,158.5 282.5,158.5C 285.345,172.153 280.012,177.653 266.5,175C 264.448,174.07 262.948,172.57 262,170.5C 261.333,154.5 261.333,138.5 262,122.5C 263.366,120.638 264.866,118.972 266.5,117.5 Z"/></g>
<g><path style="opacity:1" fill="#f9eeec" d="M 159.5,117.5 C 171.909,115.909 177.242,121.242 175.5,133.5C 174.167,133.5 172.833,133.5 171.5,133.5C 174.005,124.196 170.671,120.029 161.5,121C 160.667,121.833 159.833,122.667 159,123.5C 158.333,138.833 158.333,154.167 159,169.5C 159.374,170.416 159.874,171.25 160.5,172C 170.678,173.3 174.344,168.8 171.5,158.5C 172.833,158.5 174.167,158.5 175.5,158.5C 177.996,171.08 172.996,176.913 160.5,176C 158,174.833 156.167,173 155,170.5C 154.333,154.5 154.333,138.5 155,122.5C 156.025,120.313 157.525,118.646 159.5,117.5 Z"/></g>
<g><path style="opacity:1" fill="#eb9e94" d="M 57.5,149.5 C 53.9878,148.945 50.9878,149.612 48.5,151.5C 47.596,150.791 47.2627,149.791 47.5,148.5C 51.0419,148.187 54.3752,148.521 57.5,149.5 Z"/></g>
<g><path style="opacity:1" fill="#e68275" d="M 384.5,171.5 C 389.167,171.5 393.833,171.5 398.5,171.5C 398.768,173.099 398.434,174.432 397.5,175.5C 397.5,174.5 397.5,173.5 397.5,172.5C 392.968,172.818 388.634,172.485 384.5,171.5 Z"/></g>
</svg>
