<svg width="800" height="248.53" xmlns="http://www.w3.org/2000/svg">
<defs>
<mask id="a" x="83" y="155.64" width="200.26" height="200.06" maskUnits="userSpaceOnUse">
<path d="M83 255.68a100.08 100.08 0 0 0 100.13 100 100.08 100.08 0 0 0 100.13-100 100.09 100.09 0 0 0-100.13-100A100.09 100.09 0 0 0 83 255.68" fill="#fff" fill-rule="evenodd"/>
</mask>
<mask id="b" x="83" y="151.81" width="800" height="207.73" maskUnits="userSpaceOnUse">
<path fill="#ffffff" fill-rule="evenodd" d="M883 151.81H83v207.73h800z"/>
</mask>
<mask id="c" x="83" y="155.54" width="200.26" height="200.26" maskUnits="userSpaceOnUse">
<path d="M83 255.68a100.13 100.13 0 0 0 100.13 100.13 100.13 100.13 0 0 0 100.13-100.13 100.13 100.13 0 0 0-100.13-100.14A100.13 100.13 0 0 0 83 255.68" fill="#ffffff" fill-rule="evenodd"/>
</mask>
<linearGradient id="d" x1="7.21" y1="1071.58" x2="7.21" y2="1064.02" gradientTransform="matrix(25.89 0 0 -13.96 -86.6 14964.07)" gradientUnits="userSpaceOnUse">
<stop offset="0" stop-color="#ffffff" stop-opacity=".1"/>
<stop offset="1" stop-color="#ffffff" stop-opacity=".1"/>
</linearGradient></defs>
<g mask="url(#a)" transform="translate(-83 -155.34)">
<path d="M83 255.68a100.08 100.08 0 0 0 100.13 100 100.08 100.08 0 0 0 100.13-100 100.09 100.09 0 0 0-100.13-100A100.09 100.09 0 0 0 83 255.68" fill="none"/>
</g>
<path fill-rule="evenodd" transform="translate(-83 -155.34)" style="fill:#ffffff" d="M356.04 288.49h-30.1v42.24h-17.67v-99.54h56.38v16.35h-38.71v24.6h30.1z"/>
<path d="M356.93 75.84v83.62c-8.5 10.67-19.88 17.35-32.05 17.35-12.17 0-23.67-6.68-32-17.35V75.84h17.62v78.36a20.55 20.55 0 0 0 14.38 6.26 20.79 20.79 0 0 0 14.39-6.26V75.84zM432.47 159.89c-8.1 10.38-19.23 16.92-31.13 16.92-11.64 0-23-6.54-31.13-16.92v-16.36h17.66v11.24a18.74 18.74 0 0 0 13.47 5.69 19.35 19.35 0 0 0 13.48-5.69v-5.11c0-7.25-9.16-12.52-19.24-18.49-11.63-7-24.45-15.78-24.45-29.15v-11.1c7.59-10.24 18.7-16.5 30.21-16.5 11.9 0 22.63 6.26 30.34 16.5v14.79H414v-9.67a18 18 0 0 0-12.69-5.26 17.05 17.05 0 0 0-12.42 5.26v4c0 7.25 9.28 12.23 19.22 17.78 11.78 6.54 24.33 14.93 24.33 28.43zM508.08 159.89c-8.08 10.38-19.23 16.92-31.08 16.92-11.64 0-23-6.54-31.13-16.92v-16.36h17.66v11.24a18.74 18.74 0 0 0 13.47 5.69 19.32 19.32 0 0 0 13.47-5.69v-5.11c0-7.25-9.15-12.52-19.23-18.49-11.64-7-24.46-15.78-24.46-29.15v-11.1c7.59-10.24 18.71-16.5 30.22-16.5 11.9 0 22.63 6.26 30.34 16.5v14.79h-17.7v-9.67A18 18 0 0 0 477 90.78a17 17 0 0 0-12.42 5.26v4c0 7.25 9.28 12.23 19.22 17.78 11.77 6.54 24.33 14.93 24.33 28.43zM541.57 131.59v27.45h13.21a18 18 0 0 0 13.22-6.12v-15.79a18.8 18.8 0 0 0-13.21-5.54zm0-39.39v23.18h12.16a15.66 15.66 0 0 0 11.38-4.84V97.6a15.2 15.2 0 0 0-11.38-5.4zm33 30.86a31.56 31.56 0 0 1 11.12 9.1v25.88c-7.85 10.67-18.71 17.35-30.87 17.35h-30.91V75.85h29.82c11 0 21.45 6.54 29 16.63v23a22.94 22.94 0 0 1-8.24 7zM618 131.73h24.73v-18.48l-12.3-17.35L618 113.25zm24.73 43.66v-27.31H618v27.31h-17.7v-66.84l19.49-27.16v-5.61h21.06v5.61l19.49 27.16v66.84z" fill-rule="evenodd" style="fill:#fff"/>
<path fill-rule="evenodd" transform="translate(-83 -155.34)" style="fill:#ffffff" d="M761.27 330.73v-99.55h17.65v83.2h38.04v16.35zM827.43 330.73v-99.55h17.66v83.2H883v16.35z"/>
<path d="M248.2 51.72a9.48 9.48 0 0 1-3.58 7.83q-3.57 2.87-9.95 2.86a23.32 23.32 0 0 1-10.4-2.21v-7.23a42.46 42.46 0 0 0 6.29 2.34 18.77 18.77 0 0 0 4.71.68 6.65 6.65 0 0 0 3.92-1 3.35 3.35 0 0 0 1.38-2.92 3.11 3.11 0 0 0-.61-1.91 6.57 6.57 0 0 0-1.77-1.62 44.53 44.53 0 0 0-4.75-2.49 21.89 21.89 0 0 1-5.05-3 11.42 11.42 0 0 1-2.69-3.39 9.74 9.74 0 0 1-1-4.51 9.49 9.49 0 0 1 3.3-7.66c2.2-1.86 5.25-2.79 9.13-2.79a21.67 21.67 0 0 1 5.46.68 37.33 37.33 0 0 1 5.43 1.91l-2.51 6a35.65 35.65 0 0 0-4.86-1.68 15.47 15.47 0 0 0-3.77-.48 5 5 0 0 0-3.39 1 3.65 3.65 0 0 0-.71 4.48 5.38 5.38 0 0 0 1.52 1.48 45.76 45.76 0 0 0 4.93 2.57c3.43 1.64 5.79 3.29 7.06 4.94a9.64 9.64 0 0 1 1.91 6.06M263.66 42.48h2.56a8.5 8.5 0 0 0 5.37-1.42 5 5 0 0 0 1.78-4.13 5.11 5.11 0 0 0-1.48-4 7.06 7.06 0 0 0-4.69-1.3h-3.54zm17.57-5.82c0 3.94-1.23 7-3.7 9.06-2.47 2.06-6 3.14-10.53 3.14h-3.34v13.05h-7.78v-36.7h11.72q6.69 0 10.16 2.87 3.47 2.87 3.47 8.58zM295.72 43.51q0 6.15 2.33 9.26c1.56 2.08 3.88 3.12 7 3.12q9.32 0 9.31-12.38-.01-12.38-9.26-12.4-4.65 0-7 3.13-2.35 3.13-2.36 9.27m26.78 0q0 9.1-4.52 14t-13 4.89q-8.43 0-12.95-4.89t-4.52-14.06q0-9.17 4.53-14t13-4.84q8.46 0 12.94 4.87 4.48 4.87 4.48 14M338.91 41.5h2.51a9.61 9.61 0 0 0 5.45-1.23 4.39 4.39 0 0 0 1.76-3.86 4 4 0 0 0-1.79-3.72 11 11 0 0 0-5.57-1.1h-2.36zm0 6.33v14.08h-7.78v-36.7h10.7q7.47 0 11.07 2.72 3.6 2.72 3.58 8.28a9.69 9.69 0 0 1-1.78 5.76 11.8 11.8 0 0 1-5 3.95q8.28 12.38 10.79 16h-8.63l-8.77-14.08z" fill-rule="evenodd" style="fill:#fff"/>
<path fill-rule="evenodd" transform="translate(-83 -155.34)" style="fill:#ffffff" d="M445.51 180.55h27.71v6.48h-9.96v30.22h-7.78v-30.22h-9.97z"/>
<path d="M419.27 43.41q0-11.82-10.44-11.82h-4.15v23.89H408q11.25 0 11.25-12.07m8.08-.2q0 9.06-5.15 13.88t-14.91 4.82H396.9v-36.7h11.52q9 0 14 4.74t5 13.26" fill-rule="evenodd" style="fill:#fff"/>
<g mask="url(#b)" transform="translate(-83 -155.34)" style="fill:#ffffff">
<path fill-rule="evenodd" style="fill:#ffffff" d="M518.99 217.25h7.78v-36.7h-7.78z"/></g>
<g mask="url(#b)" transform="translate(-83 -155.34)" style="fill:#ffffff">
<path d="M551 196.64h14.56v19a41.23 41.23 0 0 1-6.67 1.62 43.3 43.3 0 0 1-6.39.46q-8.31 0-12.68-4.88c-2.93-3.26-4.39-7.92-4.39-14q0-8.88 5.09-13.86 5.09-4.98 14.09-5a27.31 27.31 0 0 1 10.89 2.26l-2.58 6.23a18.42 18.42 0 0 0-8.36-2 10.31 10.31 0 0 0-8.08 3.39q-3 3.39-3 9.11c0 4 .81 7 2.45 9.12a8.44 8.44 0 0 0 7.11 3.16 24.76 24.76 0 0 0 4.95-.51v-7.65H551z" fill-rule="evenodd" style="fill:#fff"/></g>
<g mask="url(#b)" transform="translate(-83 -155.34)" style="fill:#ffffff">
<path fill-rule="evenodd" style="fill:#ffffff" d="M575.29 217.25h7.78v-36.7h-7.78z"/></g>
<g mask="url(#b)" transform="translate(-83 -155.34)" style="fill:#ffffff">
<path fill-rule="evenodd" style="fill:#ffffff" d="M589.75 180.55h27.71v6.48h-9.97v30.22h-7.78v-30.22h-9.96z"/></g>
<g mask="url(#b)" transform="translate(-83 -155.34)" style="fill:#ffffff">
<path d="M642.08 202q-3.69-11.88-4.15-13.43c-.31-1-.53-1.86-.67-2.46q-.82 3.21-4.74 15.89zm4.52 15.26-2.66-8.73h-13.38l-2.66 8.73h-8.38l13-36.85H642l13 36.85z" fill-rule="evenodd" style="fill:#fff"/></g>
<g mask="url(#b)" transform="translate(-83 -155.34)" style="fill:#ffffff">
<path fill-rule="evenodd" style="fill:#ffffff" d="M683.3 210.82v6.43h-22.67v-36.7h7.79v30.27z"/>
</g>
<g mask="url(#c)" transform="translate(-83 -155.34)">
<path d="M183.13 318a62 62 0 1 1 62.05-62 62.11 62.11 0 0 1-62.05 62" fill="#00aec2" fill-rule="evenodd"/></g>
<path d="M100.13 200.47A100.14 100.14 0 1 0 0 100.34a100.13 100.13 0 0 0 100.13 100.13z" fill="#003669" fill-rule="evenodd"/>
<path d="M100.57 38.82a61.76 61.76 0 0 1 61.76 61.75 61.76 61.76 0 0 1-61.76 61.76 61.76 61.76 0 0 1-61.75-61.76 61.75 61.75 0 0 1 61.75-61.75z" fill="#01afc2" fill-rule="evenodd"/>
<path fill="#ffffff" fill-rule="evenodd" d="M95.42 201.15h9.42V0h-9.42z"/>
<path d="M100.13 81.89a18.69 18.69 0 1 1-18.69 18.69 18.69 18.69 0 0 1 18.69-18.69z" fill="#ffffff" fill-rule="evenodd"/>
<path d="M100.13 33.82a66.76 66.76 0 1 0 66.76 66.76 66.76 66.76 0 0 0-66.76-66.76m0 9.42a57.34 57.34 0 1 1-57.34 57.34 57.41 57.41 0 0 1 57.34-57.34" fill="#ffffff" fill-rule="evenodd"/>
<path d="M195.34 108.05a2.21 2.21 0 0 0 2.47-2.05c.11-1.86.18-3.73.18-5.62a97.9 97.9 0 0 0-195.8 0c0 1.86.07 3.71.18 5.55a2.22 2.22 0 0 0 2.47 2.05 857.76 857.76 0 0 1 190.5.07" fill-rule="evenodd" fill="url(#d)" style="fill:url(#d)"/>
<path fill="#01afc2" fill-rule="evenodd" d="M636.45 181.99H794l-13.67 66.54H620.08z"/>
<text transform="translate(667.33 242.48)" font-size="72.59" fill="#ffffff" font-family="OpenSans-Semibold, 'Open Sans'" font-weight="600" letter-spacing="-.1em" style="isolation:isolate">HD</text>
</svg>
