<?xml version="1.0" encoding="UTF-8" standalone="no"?>
<!-- Created with Inkscape (http://www.inkscape.org/) -->

<svg
   width="475.03937"
   height="91.416031"
   id="svg81437"
   version="1.1"
   inkscape:version="1.1.1 (3bf5ae0d25, 2021-09-20)"
   sodipodi:docname="Sport1 HD.svg"
   xmlns:inkscape="http://www.inkscape.org/namespaces/inkscape"
   xmlns:sodipodi="http://sodipodi.sourceforge.net/DTD/sodipodi-0.dtd"
   xmlns="http://www.w3.org/2000/svg"
   xmlns:svg="http://www.w3.org/2000/svg"
   xmlns:rdf="http://www.w3.org/1999/02/22-rdf-syntax-ns#"
   xmlns:cc="http://creativecommons.org/ns#"
   xmlns:dc="http://purl.org/dc/elements/1.1/">
  <defs
     id="defs3" />
  <sodipodi:namedview
     inkscape:document-units="mm"
     id="base"
     pagecolor="#ffffff"
     bordercolor="#ffffff"
     borderopacity="1.0"
     inkscape:pageopacity="0.0"
     inkscape:pageshadow="2"
     inkscape:zoom="1.979899"
     inkscape:cx="250.26529"
     inkscape:cy="50.255089"
     inkscape:current-layer="layer1"
     showgrid="false"
     units="mm"
     fit-margin-top="0.5"
     fit-margin-left="0.5"
     fit-margin-right="0.5"
     fit-margin-bottom="0.5"
     inkscape:window-width="1920"
     inkscape:window-height="1017"
     inkscape:window-x="-8"
     inkscape:window-y="-8"
     inkscape:window-maximized="1"
     inkscape:pagecheckerboard="0" />
  <metadata
     id="metadata4">
    <rdf:RDF>
      <cc:Work
         rdf:about="">
        <dc:format>image/svg+xml</dc:format>
        <dc:type
           rdf:resource="http://purl.org/dc/dcmitype/StillImage" />
        <dc:title />
      </cc:Work>
    </rdf:RDF>
  </metadata>
  <g
     inkscape:label="Layer 1"
     inkscape:groupmode="layer"
     id="layer1"
     transform="translate(-186.28041,-290.85689)">
    <g
       transform="matrix(10.397908,0,0,-10.397908,-11226.475,4870.9075)"
       id="g81388">
      <g
         transform="translate(1097.7715,433.4787)"
         id="g75807">
        <path
           inkscape:connector-curvature="0"
           id="path75809"
           style="fill:#ffffff;fill-opacity:1;fill-rule:nonzero;stroke:none"
           d="m 0,0 0.327,1.219 4.332,0 c 0.205,0 0.396,0.167 0.425,0.373 C 5.098,1.694 5.069,1.796 5.003,1.871 4.943,1.94 4.861,1.978 4.771,1.978 L 2,1.978 C 1.575,1.978 1.205,2.14 0.958,2.433 0.712,2.727 0.617,3.12 0.692,3.541 0.865,4.504 1.677,5.114 2.545,5.114 l 4.53,0 -0.327,-1.219 -4.391,0 C 2.167,3.895 1.993,3.742 1.934,3.523 1.911,3.434 1.929,3.345 1.985,3.271 2.045,3.193 2.14,3.147 2.238,3.147 l 2.785,0 C 5.45,3.147 5.819,2.985 6.065,2.69 6.31,2.396 6.395,2.002 6.325,1.578 6.167,0.627 5.428,0 4.456,0 L 0,0" />
      </g>
      <g
         transform="translate(1121.0475,438.5927)"
         id="g75811">
        <path
           inkscape:connector-curvature="0"
           id="path75813"
           style="fill:#ffffff;fill-opacity:1;fill-rule:nonzero;stroke:none"
           d="m 0,0 c -1.52,0 -2.152,-0.786 -2.569,-2.346 l -0.743,-2.768 1.318,0 0.736,2.768 c 0.156,0.584 0.531,1.127 1.258,1.127 l 1.549,0 L 1.87,0 0,0" />
      </g>
      <g
         transform="translate(1126.7885,438.5927)"
         id="g75815">
        <path
           inkscape:connector-curvature="0"
           id="path75817"
           style="fill:#ffffff;fill-opacity:1;fill-rule:nonzero;stroke:none"
           d="m 0,0 -2.039,0 0.459,1.715 -1.317,0 -1.83,-6.829 1.318,0 1.042,3.896 2.041,0 L 0,0 z" />
      </g>
      <g
         transform="translate(1109.7334,436.3537)"
         id="g75819">
        <path
           inkscape:connector-curvature="0"
           id="path75821"
           style="fill:#ffffff;fill-opacity:1;fill-rule:nonzero;stroke:none"
           d="m 0,0 -0.191,-0.714 c -0.135,-0.502 -0.58,-0.942 -1.2,-0.942 l -2.474,0 0.717,2.676 2.439,0 C 0.159,1.02 0.063,0.229 0,0 m -0.709,2.239 -2.112,0 -1.318,0 -1.805,-6.736 1.318,0 0.435,1.622 2.8,0 c 1.203,0 2.119,0.759 2.413,1.845 l 0.192,0.715 C 1.505,0.764 1.205,2.239 -0.709,2.239" />
      </g>
      <g
         transform="translate(1116.6484,436.3537)"
         id="g75823">
        <path
           inkscape:connector-curvature="0"
           id="path75825"
           style="fill:#ffffff;fill-opacity:1;fill-rule:nonzero;stroke:none"
           d="m 0,0 -0.191,-0.714 c -0.135,-0.502 -0.58,-0.942 -1.2,-0.942 l -1.88,0 c -0.867,0 -0.771,0.79 -0.708,1.02 l 0.191,0.714 c 0.134,0.502 0.6,0.942 1.2,0.942 l 1.879,0 C 0.159,1.02 0.063,0.229 0,0 m -0.709,2.239 -1.879,0 c -1.127,0 -2.119,-0.759 -2.414,-1.846 l -0.191,-0.714 c -0.292,-1.08 -0.022,-2.554 1.922,-2.554 l 1.88,0 c 1.203,0 2.119,0.759 2.413,1.845 l 0.192,0.715 C 1.505,0.764 1.205,2.239 -0.709,2.239" />
      </g>
      <g
         transform="translate(1129.6785,440.3067)"
         id="g75827">
        <path
           inkscape:connector-curvature="0"
           id="path75829"
           style="fill:#f9ae0c;fill-opacity:1;fill-rule:nonzero;stroke:none"
           d="m 0,0 c -0.336,-1.016 -1.294,-1.714 -2.374,-1.714 l -0.311,-1.219 1.466,0 -1.045,-3.895 1.745,0 L 1.335,0 0,0" />
      </g>
      <g
         transform="translate(1135.8824,436.6447)"
         id="g75831" />
      <g
         transform="translate(1141.4495,438.5927)"
         id="g75835">
        <path
           inkscape:connector-curvature="0"
           id="path75837"
           style="fill:#918f90;fill-opacity:1;fill-rule:nonzero;stroke:none"
           d="m -5.7703919,0 -0.522,-1.948 -3.0680001,0 0.522,1.948 -1.318,0 -1.369997,-5.114 1.317997,0 0.521,1.948 3.068,0 -0.521,-1.948 1.3180001,0 L -4.4523918,0 -5.7703919,0 z" />
      </g>
      <g
         transform="translate(1147.5775,436.3537)"
         id="g75839">
        <path
           inkscape:connector-curvature="0"
           id="path75841"
           style="fill:#918f90;fill-opacity:1;fill-rule:nonzero;stroke:none"
           d="m -5.7703919,0 -0.191,-0.714 c -0.135,-0.502 -0.5800001,-0.942 -1.2000001,-0.942 l -2.479,0 0.717,2.676 2.444,0 c 0.8680001,0 0.7720001,-0.791 0.7090001,-1.02 m -0.7090001,2.239 -3.4349996,0 -1.3699984,-5.114 4.122998,0 c 1.2030001,0 2.1190002,0.759 2.4130002,1.845 l 0.192,0.714 c 0.291,1.08 -0.009,2.555 -1.9230002,2.555" />
      </g>
    </g>
    <path
       style="fill:#ffffff;stroke-width:0.505076"
       d="m 2.2728432,72.413709 c 0,-0.174499 0.717442,-3.015553 1.5943156,-6.313452 L 5.4614744,60.104076 H 28.891392 52.32131 l 1.23973,-1.239732 c 1.417967,-1.417967 1.663519,-4.047893 0.523653,-5.608531 -0.678257,-0.928634 -1.631982,-0.993758 -18.056474,-1.232957 L 18.687822,51.770318 16.087276,50.398746 C 10.835073,47.628646 8.2230887,42.366713 9.2120441,36.548354 10.615514,28.291261 16.944983,21.718064 24.943944,20.210667 c 4.233769,-0.79785 50.234083,-0.688537 49.930547,0.118653 -0.130572,0.34724 -0.868837,3.066219 -1.640589,6.042175 l -1.403187,5.41083 -23.656207,0.145009 -23.656205,0.145009 -1.261508,1.262691 c -0.69383,0.69448 -1.406054,1.986298 -1.58272,2.870708 -0.260498,1.304086 -0.07622,1.853007 0.974961,2.904188 l 1.296171,1.296172 h 16.374435 c 17.698035,0 18.912071,0.152089 22.390138,2.804943 0.915708,0.698443 2.295021,2.341795 3.065141,3.651894 1.241503,2.111993 1.397475,2.868634 1.375999,6.675146 -0.03081,5.459938 -1.375838,9.065155 -4.765819,12.774334 -2.897067,3.169857 -6.663223,5.155146 -11.165188,5.885607 -3.469581,0.562953 -48.9470698,0.763352 -48.9470698,0.215683 z"
       id="path80"
       transform="translate(186.28041,290.85689)" />
    <path
       style="fill:#ffffff;stroke-width:0.505076"
       d="m 65.065201,88.262078 c 0.154393,-0.625032 4.328841,-16.305665 9.276549,-34.845849 l 8.995834,-33.709427 18.435286,-5.99e-4 c 10.1394,-3.29e-4 19.91263,0.23124 21.71828,0.514597 4.48577,0.703945 9.08323,3.032269 11.57332,5.861163 4.68245,5.319538 5.50004,12.544098 2.62132,23.162973 -2.23362,8.239302 -4.08558,11.946261 -7.8527,15.71834 -3.22504,3.22929 -6.21106,5.020956 -10.88763,6.532785 -2.37197,0.766802 -5.25971,0.929239 -19.760783,1.111567 l -16.982866,0.213531 -2.158966,8.28867 -2.158967,8.288671 h -6.549696 c -6.538736,0 -6.549227,-0.0019 -6.268981,-1.136422 z M 116.81511,59.320864 c 2.11204,-0.880905 4.7638,-3.261606 6.15991,-5.530241 0.51285,-0.833376 1.54371,-3.768541 2.29077,-6.522588 2.18464,-8.053582 1.60674,-12.382277 -1.90946,-14.302673 -1.428,-0.779913 -3.4199,-0.912887 -15.8709,-1.059496 l -14.237954,-0.167649 -0.574223,2.187368 c -0.315823,1.203052 -1.820763,6.846697 -3.344311,12.541432 -1.523549,5.694735 -2.965164,11.092737 -3.203589,11.995561 l -0.4335,1.641498 h 14.622717 c 12.06636,0 14.95101,-0.136922 16.50054,-0.783212 z"
       id="path119"
       transform="translate(186.28041,290.85689)" />
    <path
       style="fill:#ffffff;stroke-width:0.505076"
       d="m 159.45941,72.217255 c -6.22522,-0.861176 -11.552,-4.321443 -13.98203,-9.082721 -1.64198,-3.217207 -2.46469,-7.720745 -2.08588,-11.418153 0.48491,-4.732973 3.65242,-15.660767 5.45017,-18.802919 3.5246,-6.160357 10.1937,-10.953575 17.32842,-12.454286 4.2483,-0.893584 23.96097,-1.044499 29.04189,-0.222337 7.06643,1.143447 12.74871,5.310894 14.81404,10.8648 1.71268,4.605596 1.67286,9.222836 -0.14423,16.721495 -1.95665,8.07463 -4.19594,12.928899 -7.64783,16.578762 -3.19353,3.376681 -6.26916,5.376335 -10.55752,6.864073 -3.026,1.049801 -4.2912,1.148801 -16.16244,1.264741 -7.08369,0.06918 -14.30826,-0.07188 -16.05459,-0.313455 z m 30.98205,-13.894298 c 3.09631,-1.915423 5.00322,-4.932764 6.59347,-10.432925 2.49021,-8.612852 2.00284,-12.567 -1.82295,-14.790355 -1.64675,-0.957004 -2.6149,-1.027334 -14.14214,-1.027334 -14.02149,0 -15.00898,0.184575 -18.59726,3.476082 -2.73231,2.506321 -3.71697,4.597946 -5.36114,11.38817 -1.63978,6.772134 -1.06768,10.364586 1.94733,12.228005 1.4446,0.892828 2.53054,0.951577 15.2336,0.824148 l 13.67812,-0.13721 z"
       id="path158"
       transform="translate(186.28041,290.85689)" />
    <path
       style="fill:#ffffff;stroke-width:0.505076"
       d="m 209.86053,72.352176 c 7.4e-4,-0.208344 2.04968,-7.992832 4.55319,-17.298863 5.45806,-20.288655 7.18786,-24.375772 12.36708,-29.220684 5.47106,-5.117904 9.66424,-6.108803 25.91764,-6.12465 9.53622,-0.0093 10.2438,0.05249 10.00689,0.873879 -0.14021,0.486136 -0.86265,3.187128 -1.60542,6.002205 l -1.35048,5.118322 -9.66657,0.215507 c -10.54975,0.235197 -11.98169,0.587031 -15.10634,3.711677 -3.06814,3.06814 -3.83118,5.231504 -9.47862,26.873619 l -2.66891,10.227795 h -6.4849 c -3.5667,0 -6.4843,-0.170463 -6.48356,-0.378807 z"
       id="path197"
       transform="translate(186.28041,290.85689)" />
    <path
       style="fill:#ffffff;stroke-width:0.505076"
       d="m 254.81098,72.421942 c 0,-0.321345 17.31768,-65.1757042 18.29318,-68.5076009 l 0.55453,-1.894036 h 6.52008 c 5.96971,0 6.49863,0.07461 6.26592,0.8838834 -0.59553,2.0710407 -4.35959,16.3719625 -4.35959,16.5635595 0,0.115575 4.72917,0.271478 10.50928,0.346451 l 10.50928,0.136314 -1.55114,5.808377 -1.55114,5.808377 -10.66698,0.136142 -10.66698,0.136142 -0.48986,1.884163 c -0.26943,1.03629 -2.71862,10.236862 -5.44265,20.445716 l -4.95279,18.561553 h -6.48557 c -3.56707,0 -6.48557,-0.139068 -6.48557,-0.309041 z"
       id="path236"
       transform="translate(186.28041,290.85689)" />
    <path
       style="fill:#f9f9f9;stroke-width:0.505076"
       d="m 336.61957,72.352176 c -0.008,-0.208344 3.11759,-12.138311 6.9448,-26.511038 l 6.95856,-26.13223 6.60952,-0.0055 6.60951,-0.0055 -2.69292,9.975257 c -1.4811,5.486391 -2.69393,10.035226 -2.69517,10.108522 -10e-4,0.0733 7.30674,0.0733 16.23996,0 l 16.24222,-0.133266 1.95316,-7.323606 c 1.07423,-4.027983 2.29475,-8.516848 2.71225,-9.975256 l 0.75909,-2.651651 h 6.58592 c 6.21868,0 6.56909,0.05301 6.28419,0.950657 -0.39247,1.23655 -13.90848,51.680326 -13.90848,51.908515 0,0.09561 -2.9547,0.173837 -6.56599,0.173837 -3.6113,0 -6.56599,-0.09936 -6.56599,-0.220815 0,-0.121445 1.13642,-4.454124 2.52538,-9.628173 1.38896,-5.174048 2.52538,-9.620369 2.52538,-9.880712 0,-0.28452 -6.42445,-0.473351 -16.10448,-0.473351 h -16.10449 l -0.99169,3.661803 c -0.54543,2.013992 -1.7559,6.559678 -2.68993,10.101525 l -1.69825,6.439723 h -6.45939 c -3.55267,0 -6.46559,-0.170463 -6.47316,-0.378807 z"
       id="path275"
       transform="translate(186.28041,290.85689)" />
    <path
       style="fill:#f9f9f9;stroke-width:0.505076"
       d="m 403.02145,71.377727 c 0.17549,-0.783565 3.33613,-12.675238 7.02364,-26.425939 l 6.70456,-25.001275 h 20.17219 c 20.00921,0 20.20279,0.0099 23.96026,1.231671 3.24862,1.056272 4.21963,1.66765 6.81853,4.293148 3.61681,3.653839 4.77989,6.403324 5.14083,12.15285 0.21954,3.497053 0.0127,4.970863 -1.53747,10.955779 -2.11021,8.147007 -4.02963,12.211412 -7.49947,15.880255 -3.11795,3.296781 -6.20382,5.303732 -10.49857,6.827931 -3.21947,1.142588 -3.74079,1.168468 -26.94328,1.337689 l -23.66029,0.172559 z m 49.06268,-13.059556 c 3.36703,-2.078027 5.1982,-5.292956 6.98273,-12.259378 1.99665,-7.794484 1.41381,-11.032598 -2.3564,-13.091469 -1.43296,-0.782526 -3.41321,-0.914715 -15.90515,-1.061736 -7.84762,-0.09236 -14.26982,0.02102 -14.27156,0.251951 -0.002,0.230934 -1.67415,6.622673 -3.71647,14.203863 l -3.71331,13.783983 15.24782,-0.146923 15.24783,-0.146924 z"
       id="path351"
       transform="translate(186.28041,290.85689)" />
  </g>
</svg>
