<?xml version="1.0" encoding="utf-8"?>
<!-- Generator: Adobe Illustrator 16.0.4, SVG Export Plug-In . SVG Version: 6.00 Build 0)  -->
<!DOCTYPE svg PUBLIC "-//W3C//DTD SVG 1.1//EN" "http://www.w3.org/Graphics/SVG/1.1/DTD/svg11.dtd">
<svg version="1.1" id="Layer_1" xmlns="http://www.w3.org/2000/svg" xmlns:xlink="http://www.w3.org/1999/xlink" x="0px" y="0px"
	 width="72px" height="72px" viewBox="0 0 72 72" enable-background="new 0 0 72 72" xml:space="preserve">
	 <text transform="matrix(1 0 0 1 7.1079 13.5215)" opacity="0" font-family="'MyriadPro-Regular'" font-size="12">a</text>
<path fill="#ffffff" d="M20.513,34.285c0-9.258-11.676-7.503-11.676-12.11c0-1.667,1.302-2.896,4.123-2.896
	c1.736,0,3.56,0.307,5.209,0.79l0.39-5.923c-1.823-0.351-3.776-0.526-5.338-0.526c-7.336,0-11.633,3.686-11.633,9.258
	c0,9.916,11.676,7.327,11.676,12.373c0,2.106-1.779,3.16-4.253,3.16c-2.127,0-4.514-0.481-6.164-1.099L2.5,43.631
	c1.866,0.439,3.95,0.658,5.989,0.658C15.955,44.289,20.513,40.033,20.513,34.285L20.513,34.285z M46.77,43.764l-6.205-9.521
	c-0.737-1.097-1.477-2.194-2.258-3.335c3.905-0.965,6.467-4.212,6.467-8.205c0-6.274-4.166-8.775-11.068-8.775
	c-3.516,0-6.684,0.044-9.158,0.219v29.618h6.771V32.179h0.261l6.944,11.584H46.77L46.77,43.764z M37.698,23.272
	c0,2.501-1.823,4.037-4.687,4.037c-0.652,0-1.346-0.044-1.694-0.088v-7.59c0.391-0.044,1.172-0.088,1.867-0.088
	C36.354,19.542,37.698,20.946,37.698,23.272L37.698,23.272z M70.377,43.764V37.27c-3.301,0-5.902,0-9.246,0.176L61.089,37.4
	l1.779-2.02c4.729-5.396,6.771-9.521,6.771-13.207c0-4.695-2.908-8.512-9.158-8.512c-3.473,0-6.121,0.79-8.073,1.755l1.043,6.055
	c1.345-0.877,3.341-1.58,5.163-1.58c2.39,0,3.646,1.448,3.646,3.466c0,1.93-1.171,4.871-6.338,10.618l-3.688,4.081v5.705h18.143
	V43.764z"/>
<path fill="#ffffff" d="M41.723,52.465c-0.17,0-0.32-0.008-0.396-0.018v-1.67c0.109-0.019,0.271-0.025,0.433-0.025
	c0.692,0,1.033,0.273,1.033,0.83C42.792,52.123,42.384,52.465,41.723,52.465z M54.84,50.777c-0.255,0-0.492,0.008-0.67,0.025v3.898
	c0.153,0.025,0.383,0.043,0.604,0.043c1.076,0,1.856-0.617,1.856-1.988C56.63,51.514,56.146,50.777,54.84,50.777z M36.578,51.582
	c0-0.557-0.34-0.83-1.035-0.83c-0.161,0-0.322,0.007-0.432,0.025v1.67c0.076,0.01,0.229,0.018,0.398,0.018
	C36.17,52.465,36.578,52.123,36.578,51.582z M48.412,51.154h-0.008c-0.069,0.299-0.162,0.635-0.272,0.969l-0.516,1.473h1.592
	l-0.533-1.516C48.564,51.761,48.479,51.479,48.412,51.154z M70.516,46.979V58.5H1.5V46.979H70.516z M7.705,55.662l-2.187-2.99
	l2.093-2.795H6.272L4.416,52.5v-2.623H3.313v5.785h1.103v-2.777l1.839,2.777H7.705z M14.224,49.877H13.13v3.607
	c0,0.986-0.356,1.346-1.204,1.346c-0.95,0-1.187-0.514-1.187-1.242v-3.711H9.637v3.779c0,1.104,0.407,2.1,2.213,2.1
	c1.509,0,2.374-0.754,2.374-2.34V49.877z M19.835,54.686h-1.857v-4.809h-1.102v5.785h2.959V54.686z M24.769,49.877H20.7v0.951h1.483
	v4.834h1.102v-4.834h1.484V49.877z M31.356,49.877h-1.094v3.607c0,0.986-0.356,1.346-1.203,1.346c-0.95,0-1.187-0.514-1.187-1.242
	v-3.711H26.77v3.779c0,1.104,0.407,2.1,2.212,2.1c1.509,0,2.374-0.754,2.374-2.34V49.877z M38.111,55.662l-1.373-1.945
	c-0.145-0.197-0.305-0.42-0.466-0.635c0.865-0.137,1.458-0.754,1.458-1.611c0-1.182-0.812-1.629-2.078-1.629
	c-0.661,0-1.196,0.01-1.645,0.035v5.785h1.102v-2.391h0.042l1.595,2.391H38.111z M44.325,55.662l-1.373-1.945
	c-0.144-0.197-0.306-0.42-0.466-0.635c0.865-0.137,1.459-0.754,1.459-1.611c0-1.182-0.813-1.629-2.077-1.629
	c-0.661,0-1.196,0.01-1.646,0.035v5.785h1.104v-2.391h0.042l1.595,2.391H44.325z M51.117,55.662l-2.044-5.785h-1.247l-1.999,5.785
	h1.108l0.399-1.184h2.162l0.397,1.184H51.117z M57.814,52.672c0-2.033-1.127-2.83-2.898-2.83c-0.704,0-1.398,0.027-1.848,0.043
	v5.768c0.482,0.019,0.998,0.043,1.594,0.043C56.527,55.695,57.814,54.658,57.814,52.672z M61.174,49.877h-1.102v5.785h1.102V49.877z
	 M68.794,52.688c0-1.979-1.076-2.903-2.603-2.903c-1.534,0-2.799,1.147-2.799,3.059c0,1.793,0.856,2.914,2.604,2.914
	C67.548,55.756,68.794,54.6,68.794,52.688z M66.089,50.785c-0.788,0-1.517,0.635-1.517,1.938c0,1.225,0.476,2.021,1.501,2.021
	c0.745,0,1.542-0.582,1.542-1.971C67.615,51.488,67.072,50.785,66.089,50.785z"/>
</svg>
