<?xml version="1.0" encoding="utf-8"?>
<!-- Generator: Adobe Illustrator 16.0.4, SVG Export Plug-In . SVG Version: 6.00 Build 0)  -->
<!DOCTYPE svg PUBLIC "-//W3C//DTD SVG 1.1//EN" "http://www.w3.org/Graphics/SVG/1.1/DTD/svg11.dtd">
<svg version="1.1" id="Layer_1" xmlns="http://www.w3.org/2000/svg" xmlns:xlink="http://www.w3.org/1999/xlink" x="0px" y="0px"
	 width="72px" height="72px" viewBox="0 0 72 72" enable-background="new 0 0 72 72" xml:space="preserve">
	 <text transform="matrix(1 0 0 1 7.1079 13.5215)" opacity="0" font-family="'MyriadPro-Regular'" font-size="12">a</text>
	 <defs>
         <style type="text/css"><![CDATA[
           * {
             fill: white;
             stroke: none;
           }
         ]]></style>
       </defs>
<path fill="#ffffff" d="M20.225,34.545c0-9.238-11.777-7.486-11.777-12.084c0-1.664,1.312-2.889,4.16-2.889
	c1.751,0,3.59,0.306,5.253,0.788l0.395-5.911c-1.839-0.351-3.81-0.526-5.387-0.526c-7.399,0-11.733,3.678-11.733,9.239
	c0,9.895,11.778,7.311,11.778,12.346c0,2.103-1.795,3.151-4.291,3.151c-2.146,0-4.553-0.479-6.217-1.094l-0.35,6.306
	c1.883,0.438,3.984,0.655,6.042,0.655C15.628,44.526,20.225,40.28,20.225,34.545L20.225,34.545z"/>
<path fill="#ffffff" d="M46.711,44.003l-6.262-9.502c-0.744-1.095-1.489-2.188-2.277-3.327c3.941-0.964,6.523-4.204,6.523-8.188
	c0-6.261-4.203-8.757-11.164-8.757c-3.547,0-6.743,0.043-9.239,0.219v29.555h6.831v-11.56h0.262l7.006,11.56H46.711L46.711,44.003z
	 M37.561,23.555c0,2.496-1.839,4.028-4.729,4.028c-0.657,0-1.357-0.044-1.708-0.087v-7.575c0.394-0.043,1.182-0.087,1.882-0.087
	C36.202,19.834,37.561,21.235,37.561,23.555L37.561,23.555z"/>
<path fill="#ffffff" d="M71.002,34.632c0-3.195-1.883-5.954-5.254-6.829l0.088-0.132c2.715-0.964,4.555-3.328,4.555-6.479
	c0-4.204-3.108-7.225-8.846-7.225c-2.54,0-5.21,0.526-7.093,1.313l0.569,5.517c1.443-0.701,3.021-1.138,4.641-1.138
	c2.583,0,3.678,1.313,3.678,2.977c0,1.971-1.795,3.984-7.881,3.81v5.341c6.742-0.963,8.318,1.139,8.318,3.24
	c0,2.058-1.926,3.678-5.035,3.678c-1.532,0-2.846-0.175-4.071-0.612l-0.524,5.779c1.226,0.394,2.89,0.611,4.729,0.611
	C66.186,44.483,71.002,40.631,71.002,34.632L71.002,34.632z"/>
<g>
	<g>
		<path fill="#ffffff" d="M20.268,50.979c-0.063,0-0.126,0-0.186,0.004v1.205c0.047,0,0.099,0.002,0.151,0.002
			c0.249,0,0.828-0.062,0.828-0.632C21.061,51.257,20.964,50.979,20.268,50.979z M29.752,52.046
			c-0.014,0.043-0.028,0.087-0.042,0.13l-0.405,1.144h0.899l-0.42-1.182C29.773,52.106,29.762,52.075,29.752,52.046z M15.198,52.045
			c-0.014,0.044-0.028,0.088-0.042,0.131l-0.405,1.144h0.899l-0.42-1.182C15.219,52.106,15.208,52.075,15.198,52.045z
			 M41.384,51.004c-0.151,0-0.296,0.003-0.426,0.009v3.438c0.11,0.01,0.235,0.015,0.356,0.015c1.047,0,1.623-0.616,1.623-1.733
			C42.938,51.521,42.473,51.004,41.384,51.004z M1,47.116V58.5h69.586V47.116H1z M4.145,55.973c-0.451,0-0.881-0.05-1.243-0.146
			l-0.2-0.053l0.104-1.566l0.309,0.105c0.27,0.094,0.708,0.191,1.125,0.191c0.342,0,0.75-0.089,0.75-0.512
			c0-0.276-0.246-0.4-0.807-0.619c-0.681-0.266-1.613-0.629-1.613-1.877c0-1.206,0.96-1.985,2.447-1.985
			c0.394,0,0.808,0.058,1.086,0.106l0.22,0.037l-0.092,1.51l-0.3-0.086c-0.328-0.096-0.662-0.146-0.965-0.146
			c-0.268,0-0.716,0.06-0.716,0.452c0,0.264,0.307,0.4,0.808,0.604c0.684,0.276,1.621,0.656,1.621,1.852
			C6.678,55.116,5.66,55.973,4.145,55.973z M16.518,55.878l-0.401-1.18h-1.823l-0.402,1.18H10.82l-0.402-1.18H8.594l-0.402,1.18
			h-1.65l2.193-6.271h1.61l2.066,5.785l2.023-5.785h1.61l2.239,6.271H16.518z M21.349,55.878l-1.267-1.88v1.88H18.47V49.62
			l0.236-0.014c0.427-0.023,0.943-0.035,1.673-0.035c1.938,0,2.345,1.021,2.345,1.875c0,0.838-0.496,1.496-1.294,1.762
			c0.041,0.055,0.081,0.109,0.121,0.163l0.124,0.168l1.67,2.339H21.349z M31.072,55.878l-0.402-1.18h-1.823l-0.402,1.18H23.56
			v-6.271h1.611v4.799h1.874v0.759l1.943-5.558h1.611l2.239,6.271H31.072z M38.305,55.878h-1.832l-1.765-3.039
			c-0.04-0.068-0.078-0.137-0.115-0.203c0.006,0.321,0.009,0.648,0.009,0.934v2.31h-1.578v-6.271h1.839l1.68,2.877
			c0.068,0.113,0.134,0.229,0.198,0.348c-0.009-0.401-0.013-0.82-0.013-1.18v-2.045h1.578v6.27H38.305z M41.204,55.913
			c-0.491,0-0.933-0.018-1.343-0.033l-0.516-0.02v-6.235l0.239-0.011c0.455-0.018,1.16-0.043,1.874-0.043
			c2.077,0,3.175,1.062,3.175,3.072C44.635,54.659,43.32,55.913,41.204,55.913z M51.398,55.878h-1.756l-0.871-3.305l-0.863,3.305
			h-1.68l-1.597-6.271h1.706l0.818,3.32l0.906-3.32h1.562l0.926,3.344l0.816-3.344h1.629L51.398,55.878z M57.016,51.039h-2.027
			v0.919h1.926v1.406h-1.926v1.064h2.027v1.448h-3.639v-6.271h3.639V51.039z M61.26,55.878h-3.484v-6.271h1.611v4.799h1.873V55.878z
			 M65.109,55.878h-3.483v-6.271h1.61v4.799h1.873V55.878z M69.113,51.039h-2.026v0.919h1.925v1.406h-1.925v1.064h2.026v1.448
			h-3.639v-6.271h3.639V51.039z M9.499,52.045c-0.014,0.044-0.028,0.088-0.042,0.131l-0.405,1.144h0.899l-0.42-1.182
			C9.52,52.106,9.509,52.075,9.499,52.045z"/>
	</g>
</g>
</svg>
