<?xml version="1.0" encoding="UTF-8"?>
<!DOCTYPE svg PUBLIC "-//W3C//DTD SVG 1.1//EN" "http://www.w3.org/Graphics/SVG/1.1/DTD/svg11.dtd">
<svg xmlns="http://www.w3.org/2000/svg" version="1.1" width="250px" height="101px" style="shape-rendering:geometricPrecision; text-rendering:geometricPrecision; image-rendering:optimizeQuality; fill-rule:evenodd; clip-rule:evenodd" xmlns:xlink="http://www.w3.org/1999/xlink">
<g><path style="opacity:1" fill="#ffffff" d="M -0.5,40.5 C -0.5,33.8333 -0.5,27.1667 -0.5,20.5C 3.44223,12.4001 9.77557,6.90014 18.5,4C 29.7747,2.42426 41.108,2.09093 52.5,3C 53.673,9.79741 53.5063,16.6307 52,23.5C 43.2081,19.9691 34.3747,19.8025 25.5,23C 22.0018,26.7642 22.0018,30.4309 25.5,34C 33.986,37.7435 42.3193,41.7435 50.5,46C 58.9433,53.335 61.7766,62.5017 59,73.5C 54.1462,87.3697 44.3128,95.2031 29.5,97C 20.0865,97.7918 10.7531,97.2918 1.5,95.5C 1.5015,88.4803 1.83484,81.4803 2.5,74.5C 10.659,77.038 18.9924,77.8713 27.5,77C 35.7261,74.5627 37.3928,69.896 32.5,63C 23.8735,59.5712 15.5401,55.5712 7.5,51C 3.95246,48.0247 1.2858,44.5247 -0.5,40.5 Z"/></g>
<g><path style="opacity:1" fill="#ffffff" d="M 142.5,94.5 C 133.5,94.5 124.5,94.5 115.5,94.5C 108.442,84.0676 101.608,73.401 95,62.5C 94.5002,73.495 94.3335,84.495 94.5,95.5C 86.8333,95.5 79.1667,95.5 71.5,95.5C 71.1668,64.8261 71.5002,34.1594 72.5,3.5C 85.4544,2.35252 98.4544,2.18585 111.5,3C 132.868,6.88715 140.701,19.3872 135,40.5C 131.394,48.2275 125.561,53.5609 117.5,56.5C 125.859,69.1844 134.193,81.851 142.5,94.5 Z M 94.5,21.5 C 99.742,21.0227 104.742,21.8561 109.5,24C 112.36,27.6814 113.193,31.8481 112,36.5C 110.332,40.1655 107.499,42.3322 103.5,43C 100.518,43.498 97.5184,43.6646 94.5,43.5C 94.5,36.1667 94.5,28.8333 94.5,21.5 Z"/></g>
<g><path style="opacity:1" fill="#ffffff" d="M 153.5,2.5 C 157.5,2.5 161.5,2.5 165.5,2.5C 165.5,9.16667 165.5,15.8333 165.5,22.5C 171.833,22.5 178.167,22.5 184.5,22.5C 184.5,15.8333 184.5,9.16667 184.5,2.5C 188.167,2.5 191.833,2.5 195.5,2.5C 195.5,20.1667 195.5,37.8333 195.5,55.5C 191.833,55.5 188.167,55.5 184.5,55.5C 184.5,48.1667 184.5,40.8333 184.5,33.5C 178.167,33.5 171.833,33.5 165.5,33.5C 165.5,40.8333 165.5,48.1667 165.5,55.5C 161.5,55.5 157.5,55.5 153.5,55.5C 153.5,37.8333 153.5,20.1667 153.5,2.5 Z"/></g>
<g><path style="opacity:1" fill="#ffffff" d="M 205.5,2.5 C 213.507,2.33362 221.507,2.50029 229.5,3C 243.962,5.69276 250.295,14.5261 248.5,29.5C 250.094,43.0399 244.427,51.5399 231.5,55C 222.506,55.4998 213.506,55.6664 204.5,55.5C 204.181,37.7566 204.514,20.0899 205.5,2.5 Z M 216.5,13.5 C 230.177,10.0655 237.177,15.2322 237.5,29C 237.331,34.0423 235.998,38.709 233.5,43C 228.047,45.1183 222.38,45.9516 216.5,45.5C 216.5,34.8333 216.5,24.1667 216.5,13.5 Z"/></g>
<g><path style="opacity:1" fill="#ffffff" d="M 115.5,94.5 C 124.5,94.5 133.5,94.5 142.5,94.5C 143.547,95.0778 143.38,95.7445 142,96.5C 133.068,95.846 124.235,95.1793 115.5,94.5 Z"/></g>
</svg>
