<?xml version="1.0" encoding="UTF-8"?>
<!DOCTYPE svg PUBLIC "-//W3C//DTD SVG 1.1//EN" "http://www.w3.org/Graphics/SVG/1.1/DTD/svg11.dtd">
<svg xmlns="http://www.w3.org/2000/svg" version="1.1" width="200px" height="120px" style="shape-rendering:geometricPrecision; text-rendering:geometricPrecision; image-rendering:optimizeQuality; fill-rule:evenodd; clip-rule:evenodd" xmlns:xlink="http://www.w3.org/1999/xlink">
<g><path style="opacity:0.879" fill="#fefffe" d="M 26.5,3.5 C 33.8578,3.41829 41.1912,3.75163 48.5,4.5C 48.5644,10.2536 47.8977,15.9203 46.5,21.5C 39.2619,18.9424 32.0952,18.9424 25,21.5C 23.3695,23.9554 23.2028,26.4554 24.5,29C 29.2951,31.7125 34.2951,34.0459 39.5,36C 48.3328,39.6408 52.9994,46.3075 53.5,56C 49.9783,74.5121 38.8116,82.6788 20,80.5C 15.1406,80.372 10.3072,80.0387 5.5,79.5C 5.50811,73.427 6.17477,67.427 7.5,61.5C 13.9248,64.2024 20.5915,65.0357 27.5,64C 33.7271,60.5224 34.0605,56.5224 28.5,52C 21.7742,50.3872 15.6076,47.5538 10,43.5C -0.106943,32.2936 0.0597235,21.1269 10.5,10C 15.7603,7.31074 21.0936,5.14407 26.5,3.5 Z"/></g>
<g><path style="opacity:0.622" fill="#fefffe" d="M 131.5,3.5 C 134.119,3.23166 136.619,3.565 139,4.5C 139.499,10.1569 139.666,15.8236 139.5,21.5C 144.833,21.5 150.167,21.5 155.5,21.5C 155.5,15.5 155.5,9.5 155.5,3.5C 157.833,3.5 160.167,3.5 162.5,3.5C 162.5,18.1667 162.5,32.8333 162.5,47.5C 160.167,47.5 157.833,47.5 155.5,47.5C 155.5,41.1667 155.5,34.8333 155.5,28.5C 150.167,28.5 144.833,28.5 139.5,28.5C 139.666,34.5092 139.499,40.5092 139,46.5C 136.619,47.435 134.119,47.7683 131.5,47.5C 131.5,32.8333 131.5,18.1667 131.5,3.5 Z"/></g>
<g><path style="opacity:0.726" fill="#fefffe" d="M 165.5,3.5 C 171.176,3.33391 176.843,3.50058 182.5,4C 192.619,7.21039 197.286,14.2104 196.5,25C 196.974,36.174 191.974,43.5074 181.5,47C 176.177,47.4994 170.844,47.666 165.5,47.5C 165.5,32.8333 165.5,18.1667 165.5,3.5 Z M 171.5,9.5 C 187.163,9.35625 192.997,17.0229 189,32.5C 188.117,35.1024 186.617,37.2691 184.5,39C 180.249,40.1946 175.915,40.6946 171.5,40.5C 171.5,30.1667 171.5,19.8333 171.5,9.5 Z"/></g>
<g><path style="opacity:0.897" fill="#fefffe" d="M 61.5,4.5 C 72.8382,4.33348 84.1716,4.50014 95.5,5C 110.782,8.36462 116.948,17.8646 114,33.5C 111.307,40.5911 106.474,45.5911 99.5,48.5C 106.091,57.7836 112.591,67.1169 119,76.5C 119.483,77.448 119.649,78.448 119.5,79.5C 111.804,79.8308 104.138,79.4975 96.5,78.5C 91.7948,69.891 86.6282,61.5576 81,53.5C 80.5002,62.1603 80.3336,70.8269 80.5,79.5C 74.1667,79.5 67.8333,79.5 61.5,79.5C 61.5,54.5 61.5,29.5 61.5,4.5 Z M 80.5,19.5 C 84.7924,19.0349 88.7924,19.8682 92.5,22C 96.3716,32.9812 92.3716,38.1479 80.5,37.5C 80.5,31.5 80.5,25.5 80.5,19.5 Z"/></g>
<g><path style="opacity:0.828" fill="#122793" d="M 2.5,85.5 C 41.5,85.5 80.5,85.5 119.5,85.5C 119.5,95.8333 119.5,106.167 119.5,116.5C 80.5,116.5 41.5,116.5 2.5,116.5C 2.5,106.167 2.5,95.8333 2.5,85.5 Z"/></g>
<g><path style="opacity:1" fill="#7f85c3" d="M 25.5,94.5 C 23.1667,94.5 20.8333,94.5 18.5,94.5C 18.5,98.8333 18.5,103.167 18.5,107.5C 20.8333,107.5 23.1667,107.5 25.5,107.5C 23.0521,108.473 20.3854,108.806 17.5,108.5C 17.5,103.5 17.5,98.5 17.5,93.5C 20.3854,93.1936 23.0521,93.5269 25.5,94.5 Z"/></g>
<g><path style="opacity:1" fill="#6871b8" d="M 41.5,94.5 C 41.1744,98.8839 41.5078,103.217 42.5,107.5C 43.1667,104.833 43.8333,102.167 44.5,99.5C 45.2975,99.9569 45.6309,100.624 45.5,101.5C 44.5318,103.607 44.1984,105.941 44.5,108.5C 43.1667,108.5 41.8333,108.5 40.5,108.5C 40.1805,103.637 40.5139,98.97 41.5,94.5 Z"/></g>
<g><path style="opacity:1" fill="#7e87c3" d="M 86.5,94.5 C 87.209,93.596 88.209,93.2627 89.5,93.5C 89.5,98.5 89.5,103.5 89.5,108.5C 88.1667,108.5 86.8333,108.5 85.5,108.5C 85.5,106.5 85.5,104.5 85.5,102.5C 83.8333,102.5 82.1667,102.5 80.5,102.5C 82.1667,102.5 83.8333,102.5 85.5,102.5C 85.5,104.5 85.5,106.5 85.5,108.5C 86.8333,108.5 88.1667,108.5 89.5,108.5C 89.5,103.5 89.5,98.5 89.5,93.5C 88.209,93.2627 87.209,93.596 86.5,94.5 Z"/></g>
<g><path style="opacity:1" fill="#8f96cb" d="M 100.5,94.5 C 98.1667,94.5 95.8333,94.5 93.5,94.5C 93.5,98.8333 93.5,103.167 93.5,107.5C 95.8333,107.5 98.1667,107.5 100.5,107.5C 98.0521,108.473 95.3854,108.806 92.5,108.5C 92.5,103.5 92.5,98.5 92.5,93.5C 95.3854,93.1936 98.0521,93.5269 100.5,94.5 Z"/></g>
<g><path style="opacity:1" fill="#f6f7fb" d="M 10.5,96.5 C 10.5,97.5 10.5,98.5 10.5,99.5C 11.6085,100.29 12.9419,100.79 14.5,101C 12.9419,101.21 11.6085,101.71 10.5,102.5C 10.5,104.167 10.5,105.833 10.5,107.5C 8.56977,103.627 7.9031,99.294 8.5,94.5C 10.5273,94.3379 12.5273,94.5045 14.5,95C 12.9419,95.21 11.6085,95.71 10.5,96.5 Z"/></g>
<g><path style="opacity:1" fill="#e3e4f2" d="M 25.5,94.5 C 24.4479,96.256 22.7812,96.9227 20.5,96.5C 20.5,97.5 20.5,98.5 20.5,99.5C 22.7812,99.0773 24.4479,99.744 25.5,101.5C 23.8333,101.5 22.1667,101.5 20.5,101.5C 20.2322,103.099 20.5655,104.432 21.5,105.5C 23.4832,105.157 24.8166,105.824 25.5,107.5C 23.1667,107.5 20.8333,107.5 18.5,107.5C 18.5,103.167 18.5,98.8333 18.5,94.5C 20.8333,94.5 23.1667,94.5 25.5,94.5 Z"/></g>
<g><path style="opacity:1" fill="#ecedf6" d="M 74.5,94.5 C 73.4479,96.256 71.7812,96.9227 69.5,96.5C 69.5,97.5 69.5,98.5 69.5,99.5C 70.6085,100.29 71.9419,100.79 73.5,101C 71.9419,101.21 70.6085,101.71 69.5,102.5C 69.5,103.5 69.5,104.5 69.5,105.5C 71.7812,105.077 73.4479,105.744 74.5,107.5C 72.1667,107.5 69.8333,107.5 67.5,107.5C 67.5,103.167 67.5,98.8333 67.5,94.5C 69.8333,94.5 72.1667,94.5 74.5,94.5 Z"/></g>
<g><path style="opacity:1" fill="#eff0f7" d="M 80.5,94.5 C 80.5,96.1667 80.5,97.8333 80.5,99.5C 82.5,99.5 84.5,99.5 86.5,99.5C 86.5,97.8333 86.5,96.1667 86.5,94.5C 87.8001,96.223 88.4668,98.3897 88.5,101C 87.9016,109.224 87.235,109.39 86.5,101.5C 84.2646,101.205 82.2646,101.539 80.5,102.5C 80.5,104.167 80.5,105.833 80.5,107.5C 79.1999,105.777 78.5332,103.61 78.5,101C 78.5332,98.3897 79.1999,96.223 80.5,94.5 Z"/></g>
<g><path style="opacity:1" fill="#e8e9f4" d="M 100.5,94.5 C 99.4479,96.256 97.7812,96.9227 95.5,96.5C 95.5,97.5 95.5,98.5 95.5,99.5C 96.6085,100.29 97.9419,100.79 99.5,101C 97.9419,101.21 96.6085,101.71 95.5,102.5C 95.5,103.5 95.5,104.5 95.5,105.5C 97.7812,105.077 99.4479,105.744 100.5,107.5C 98.1667,107.5 95.8333,107.5 93.5,107.5C 93.5,103.167 93.5,98.8333 93.5,94.5C 95.8333,94.5 98.1667,94.5 100.5,94.5 Z"/></g>
<g><path style="opacity:1" fill="#f5f5fa" d="M 107.5,94.5 C 108.847,97.1932 110.18,99.8599 111.5,102.5C 111.56,103.043 111.893,103.376 112.5,103.5C 113.321,100.553 113.821,97.5535 114,94.5C 114.499,98.8206 114.666,103.154 114.5,107.5C 113.5,107.5 112.5,107.5 111.5,107.5C 109.914,105.33 108.58,102.996 107.5,100.5C 107.44,99.9569 107.107,99.6236 106.5,99.5C 105.682,102.107 105.182,104.774 105,107.5C 104.501,103.179 104.334,98.8461 104.5,94.5C 105.5,94.5 106.5,94.5 107.5,94.5 Z"/></g>
<g><path style="opacity:1" fill="#959dce" d="M 10.5,96.5 C 11.6085,95.71 12.9419,95.21 14.5,95C 12.5273,94.5045 10.5273,94.3379 8.5,94.5C 7.9031,99.294 8.56977,103.627 10.5,107.5C 9.79105,108.404 8.79105,108.737 7.5,108.5C 7.5,103.5 7.5,98.5 7.5,93.5C 10.1667,93.5 12.8333,93.5 15.5,93.5C 15.5,94.5 15.5,95.5 15.5,96.5C 13.8333,96.5 12.1667,96.5 10.5,96.5 Z"/></g>
<g><path style="opacity:1" fill="#5f65b3" d="M 52.5,94.5 C 53.4861,98.97 53.8195,103.637 53.5,108.5C 51.901,108.768 50.5676,108.434 49.5,107.5C 50.5,107.5 51.5,107.5 52.5,107.5C 52.5,103.167 52.5,98.8333 52.5,94.5 Z"/></g>
<g><path style="opacity:1" fill="#8a91c8" d="M 74.5,94.5 C 72.1667,94.5 69.8333,94.5 67.5,94.5C 67.5,98.8333 67.5,103.167 67.5,107.5C 69.8333,107.5 72.1667,107.5 74.5,107.5C 72.0521,108.473 69.3854,108.806 66.5,108.5C 66.5,103.5 66.5,98.5 66.5,93.5C 69.3854,93.1936 72.0521,93.5269 74.5,94.5 Z"/></g>
<g><path style="opacity:1" fill="#b5b8db" d="M 80.5,94.5 C 79.1999,96.223 78.5332,98.3897 78.5,101C 78.5332,103.61 79.1999,105.777 80.5,107.5C 79.791,108.404 78.791,108.737 77.5,108.5C 77.5,103.5 77.5,98.5 77.5,93.5C 78.791,93.2627 79.791,93.596 80.5,94.5 Z"/></g>
<g><path style="opacity:1" fill="#aeb2d9" d="M 107.5,94.5 C 106.5,94.5 105.5,94.5 104.5,94.5C 104.334,98.8461 104.501,103.179 105,107.5C 105.182,104.774 105.682,102.107 106.5,99.5C 107.107,99.6236 107.44,99.9569 107.5,100.5C 106.527,102.948 106.194,105.615 106.5,108.5C 105.5,108.5 104.5,108.5 103.5,108.5C 103.5,103.5 103.5,98.5 103.5,93.5C 105.099,93.2322 106.432,93.5655 107.5,94.5 Z"/></g>
<g><path style="opacity:1" fill="#9fa5d2" d="M 111.5,107.5 C 112.5,107.5 113.5,107.5 114.5,107.5C 114.666,103.154 114.499,98.8206 114,94.5C 113.821,97.5535 113.321,100.553 112.5,103.5C 111.893,103.376 111.56,103.043 111.5,102.5C 112.477,99.7131 112.81,96.7131 112.5,93.5C 113.5,93.5 114.5,93.5 115.5,93.5C 115.5,98.5 115.5,103.5 115.5,108.5C 113.901,108.768 112.568,108.434 111.5,107.5 Z"/></g>
<g><path style="opacity:1" fill="#9fa5d2" d="M 10.5,99.5 C 12.1667,99.5 13.8333,99.5 15.5,99.5C 15.5,100.5 15.5,101.5 15.5,102.5C 13.8333,102.5 12.1667,102.5 10.5,102.5C 11.6085,101.71 12.9419,101.21 14.5,101C 12.9419,100.79 11.6085,100.29 10.5,99.5 Z"/></g>
<g><path style="opacity:1" fill="#737abc" d="M 25.5,101.5 C 24.4324,102.434 23.099,102.768 21.5,102.5C 21.5,103.5 21.5,104.5 21.5,105.5C 20.5655,104.432 20.2322,103.099 20.5,101.5C 22.1667,101.5 23.8333,101.5 25.5,101.5 Z"/></g>
<g><path style="opacity:1" fill="#d2d4ea" d="M 58.5,93.5 C 60.1667,93.5 61.8333,93.5 63.5,93.5C 63.5,94.5 63.5,95.5 63.5,96.5C 57.242,97.127 57.242,98.7937 63.5,101.5C 65.1123,104.753 64.1123,106.92 60.5,108C 58.8659,108.494 57.1992,108.66 55.5,108.5C 55.5,107.5 55.5,106.5 55.5,105.5C 63.0909,105.27 63.2576,103.604 56,100.5C 54.9164,97.3411 55.7498,95.0078 58.5,93.5 Z"/></g>
<g><path style="opacity:1" fill="#9196ca" d="M 69.5,99.5 C 71.1667,99.5 72.8333,99.5 74.5,99.5C 74.5,100.5 74.5,101.5 74.5,102.5C 72.8333,102.5 71.1667,102.5 69.5,102.5C 70.6085,101.71 71.9419,101.21 73.5,101C 71.9419,100.79 70.6085,100.29 69.5,99.5 Z"/></g>
<g><path style="opacity:1" fill="#9096cb" d="M 95.5,99.5 C 97.1667,99.5 98.8333,99.5 100.5,99.5C 100.5,100.5 100.5,101.5 100.5,102.5C 98.8333,102.5 97.1667,102.5 95.5,102.5C 96.6085,101.71 97.9419,101.21 99.5,101C 97.9419,100.79 96.6085,100.29 95.5,99.5 Z"/></g>
<g><path style="opacity:1" fill="#ebebf5" d="M 52.5,94.5 C 52.5,98.8333 52.5,103.167 52.5,107.5C 51.5,107.5 50.5,107.5 49.5,107.5C 47.684,105.882 46.3507,103.882 45.5,101.5C 45.6309,100.624 45.2975,99.9569 44.5,99.5C 43.8333,102.167 43.1667,104.833 42.5,107.5C 41.5078,103.217 41.1744,98.8839 41.5,94.5C 45.3567,95.1462 47.69,97.4795 48.5,101.5C 48.7828,102.289 49.2828,102.956 50,103.5C 50.498,100.518 50.6646,97.5184 50.5,94.5C 51.1667,93.1667 51.8333,93.1667 52.5,94.5 Z"/></g>
<g><path style="opacity:1" fill="#646bb5" d="M 50.5,94.5 C 50.6646,97.5184 50.498,100.518 50,103.5C 49.2828,102.956 48.7828,102.289 48.5,101.5C 49.1667,99.1667 49.8333,96.8333 50.5,94.5 Z"/></g>
<g><path style="opacity:1" fill="#c9cbe5" d="M 28.5,93.5 C 36.9524,92.4344 39.2857,95.6011 35.5,103C 36.2887,104.626 37.2887,106.126 38.5,107.5C 37.635,108.583 36.635,108.749 35.5,108C 32.5767,102.161 31.2434,102.327 31.5,108.5C 30.5,108.5 29.5,108.5 28.5,108.5C 28.5,103.5 28.5,98.5 28.5,93.5 Z"/></g>
<g><path style="opacity:1" fill="#242991" d="M 31.5,96.5 C 32.5,96.5 33.5,96.5 34.5,96.5C 34.5674,97.9587 34.2341,99.2921 33.5,100.5C 31.8235,99.8166 31.1568,98.4832 31.5,96.5 Z"/></g>
<g><path style="opacity:1" fill="#f8f8fb" d="M 31.5,96.5 C 31.1568,98.4832 31.8235,99.8166 33.5,100.5C 34.7383,100.81 34.7383,101.31 33.5,102C 32.552,102.483 31.552,102.649 30.5,102.5C 30.6602,104.199 30.4935,105.866 30,107.5C 29.501,103.179 29.3343,98.8461 29.5,94.5C 31.1992,94.3398 32.8659,94.5065 34.5,95C 33.2625,95.2321 32.2625,95.7321 31.5,96.5 Z"/></g>
</svg>
