<?xml version="1.0" encoding="utf-8"?>
<!-- Generator: Adobe Illustrator 16.0.4, SVG Export Plug-In . SVG Version: 6.00 Build 0)  -->
<!DOCTYPE svg PUBLIC "-//W3C//DTD SVG 1.1//EN" "http://www.w3.org/Graphics/SVG/1.1/DTD/svg11.dtd">
<svg version="1.1" id="Layer_1" xmlns="http://www.w3.org/2000/svg" xmlns:xlink="http://www.w3.org/1999/xlink" x="0px" y="0px"
	 width="72px" height="72px" viewBox="0.5 0.5 48 48" enable-background="new 0.5 0.5 48 48" xml:space="preserve">
<g>
	<g>
		<path fill="#FFFFFF" d="M1.233,31.833V39.5H48.1v-7.667H1.233z"/>
	</g>
</g>
<path fill="#FFFFFF" d="M13.967,23.366c0-6.199-7.934-5-7.934-8.133c0-1.135,0.867-1.935,2.8-1.935c1.2,0,2.4,0.2,3.533,0.533
	l0.267-4c-1.267-0.267-2.533-0.333-3.6-0.333c-4.933,0-7.867,2.467-7.867,6.2c0,6.666,7.934,4.933,7.934,8.267
	c0,1.399-1.2,2.133-2.867,2.133c-1.467,0-3.067-0.333-4.2-0.732l-0.267,4.2c1.267,0.267,2.667,0.467,4.067,0.467
	C10.9,30.033,13.967,27.167,13.967,23.366L13.967,23.366z"/>
<path fill="#FFFFFF" d="M31.768,29.7l-4.201-6.4c-0.465-0.732-1-1.467-1.532-2.267c2.667-0.667,4.399-2.8,4.399-5.467
	c0-4.2-2.8-5.866-7.467-5.866c-2.4,0-4.533,0-6.2,0.133V29.7h4.6v-7.733h0.2L26.3,29.7H31.768L31.768,29.7z M25.633,15.967
	c0,1.667-1.267,2.733-3.2,2.733c-0.467,0-0.934,0-1.134-0.066v-5.066c0.267,0,0.8-0.066,1.267-0.066
	C24.7,13.5,25.633,14.434,25.633,15.967L25.633,15.967z"/>
<polygon fill="#FFFFFF" points="47.9,29.7 47.9,9.833 44.7,9.833 39.434,11.5 40.1,15.767 43.232,14.566 43.232,29.7 "/>
</svg>
