<svg version="1.1" id="Ebene_1" x="0" y="0" xml:space="preserve" width="388.501" height="95" xmlns="http://www.w3.org/2000/svg">
<style type="text/css" id="style2">.st0{fill:#ffb600}.st1{fill:#fff}
</style>
<g id="g25">  
<path style="opacity:1" fill="#ffb600" id="rect6" d="M69.3 0h231.2v95H69.3z"/>
<path style="opacity:1" fill="#ffffff" id="rect8" d="M261.2 22.3h17.5v50.8h-17.5z"/>
<path style="opacity:1" fill="#ffffff" d="M239.8 42c-.1-3-.7-5.4-1.6-7-.9-1.6-2.7-2.4-5.4-2.4-2.5 0-4.3.6-5.5 1.9-1.2 1.3-2 3.8-2.2 7.5zm13 29.8c-.4.1-1.2.3-2.3.6-1.1.2-2.5.5-4.2.8-1.6.3-3.4.6-5.3.8-1.9.2-3.9.4-6 .4-4.7 0-8.7-.5-12.1-1.4-3.4-1-6.2-2.5-8.4-4.6-2.2-2.1-3.8-4.8-4.8-8.2-1.1-3.4-1.6-7.5-1.6-12.3 0-8.8 2.1-15.4 6.2-20 4.1-4.5 10.3-6.8 18.4-6.8 3.8 0 7.1.5 9.9 1.3 2.8.9 5.1 2.3 7 4.3 1.9 2 3.3 4.5 4.2 7.5.9 3.1 1.4 6.8 1.4 11.2v7.2H225c.2 1.7.6 3 1.1 4.1.5 1.1 1.3 2 2.3 2.6 1 .6 2.2 1.1 3.6 1.4 1.4.3 3.2.4 5.3.4 4.2 0 7.8-.2 10.6-.8 2.9-.5 4.9-.9 6-1.1z" id="path10"/>
<path style="opacity:1" fill="#ffffff" id="polygon12" d="M159.6 45.4 156 22.3h-19.3l11.9 50.9h16.5l7.1-25.8 7.2 25.8h16.5l11.9-50.9h-18.4l-3.5 23.1-6.1-23.1h-14.1z"/>
<path style="opacity:1" fill="#ffffff" id="polygon14" d="M89.6 73.2H134V57.1h-19.8l19.2-23.8-1.1-11H90.4v16.1h18.2l-19 23.7z"/>
<path style="opacity:1" fill="#ffb600" id="rect16" d="M0 0h62.4v95H0z"/>
<path style="opacity:1" fill="#ffffff" d="M28.4 24.2h-6.3v-12c0-.9-.3-1.2-1.2-1.2h-3.2c-.9 0-1.2.3-1.2 1.2v17.5c0 .9.3 1.2 1.2 1.2h27.1c.9 0 1.3-.3 1.3-1.2v-4.2c0-.9-.3-1.2-1.3-1.2H34.1V13.2c0-.9-.3-1.2-1.2-1.2h-3.2c-.9 0-1.2.3-1.2 1.2z" id="path18"/>
<path style="opacity:1" fill="#ffffff" d="m30.7 47.9 1.9.5c.6.1.8.2 1 .2.5 0 .8-.1 1.4-.5l9.8-5.5c.8-.5 1.1-.8 1.1-1.9v-5c0-.6-.4-1.4-1.6-.7l-11.1 6.7c-1.4-2.2-3.4-4.8-7.9-4.8-5.8 0-9 3.2-9 10.3v10.2c0 .9.3 1.2 1.2 1.2h27.1c.9 0 1.2-.3 1.2-1.2v-4.2c0-.9-.3-1.2-1.2-1.2H21.9v-4.4c0-2.8 1-4.1 3.6-4.1 2.3 0 3.1 1.1 3.5 2.1.6 1.5 0 1.9 1.7 2.3" id="path20"/>
<path style="opacity:1" fill="#ffffff" d="m41.2 83.5 3.6.6c.7.1 1-.2 1.1-.8.2-1.3.4-4.7.4-7.9 0-7.3-2.4-12.7-9.2-12.7-4 0-7 1.7-8.5 7.8l-.9 3.4c-.6 2.3-1.3 3.4-3 3.4-2.4 0-2.8-2.2-2.8-4.3 0-2.9.2-5.7.3-6.9.1-1.2 0-1.5-1.1-1.7l-3.4-.6c-.7-.1-1 .2-1.1.8-.2 1.3-.4 4.3-.4 8 0 7.6 3.3 11.2 8.6 11.2 4.7 0 7.5-2.6 8.7-7l.9-3.4c.7-2.8 1.6-4 3.3-4 2.6 0 3 1.7 3 6 0 1.9-.3 5.3-.4 6.4-.2 1.2-.1 1.5.9 1.7" id="path22"/>
<path id="rect3010" d="M313.9 22.1c-.6 0-1 .5-1 .9v49.2c0 .6.5 1 1 1h12.5c.6 0 .9-.5.9-1V55.8c0-.6.5-1 1-1h12.5c.6 0 .9.5.9 1v16.4c0 .6.5 1 1 1h12.5c.6 0 1-.5 1-1V36.7c0-.5.3-.8 1-.8h9.2s7.8-.6 8 12.2c.2 12.8-5.5 12-11.4 12.3-.9 0-1.1.2-1.1 1v11c0 .7.5 1.1 1.3 1.1 19.2 0 25.2-9.1 25.3-26 .1-16.8-7.8-25.1-23.9-25.1h-21.8c-.6 0-1 .5-1 .9v16.6c0 .6-.5.9-.9.9h-12.5c-.6 0-1-.5-1-.9V23.1c0-.6-.5-.9-.9-.9h-12.6z" style="fill:#fff"/>
</g>
</svg>