<svg xmlns="http://www.w3.org/2000/svg" viewBox="0 0 252.3 95" style="enable-background:new 0 0 252.3 95" xml:space="preserve">
<path style="opacity:1" fill="#fff" d="M177.7 22.1c-.6 0-1 .5-1 .9v49.2c0 .6.5 1 1 1h12.5c.6 0 .9-.5.9-1V55.8c0-.6.5-1 1-1h12.5c.6 0 .9.5.9 1v16.4c0 .6.5 1 1 1H219c.6 0 1-.5 1-1V36.7c0-.5.3-.8 1-.8h9.2s7.8-.6 8 12.2-5.5 12-11.4 12.3c-.9 0-1.1.2-1.1 1v11c0 .7.5 1.1 1.3 1.1 19.2 0 25.2-9.1 25.3-26 .1-16.8-7.8-25.1-23.9-25.1h-21.8c-.6 0-1 .5-1 .9v16.6c0 .6-.5.9-.9.9h-12.5c-.6 0-1-.5-1-.9V23.1c0-.6-.5-.9-.9-.9h-12.6v-.1z"/>
<path style="opacity:1" fill="#AF001E" d="M0 0h62.4v95H0z"/>
<path style="opacity:1" fill="#fff" d="M28.4 24.2h-6.3v-12c0-.9-.3-1.2-1.2-1.2h-3.2c-.9 0-1.2.3-1.2 1.2v17.5c0 .9.3 1.2 1.2 1.2h27.1c.9 0 1.2-.3 1.2-1.2v-4.2c0-.9-.3-1.2-1.2-1.2H34.1V13.2c0-.9-.3-1.2-1.2-1.2h-3.2c-.9 0-1.2.3-1.2 1.2v11zM30.7 47.9l1.9.5c.6.1.8.2 1 .2.5 0 .8-.1 1.4-.5l9.8-5.5c.8-.5 1.1-.8 1.1-1.9v-5c0-.6-.4-1.4-1.6-.7l-11.1 6.7c-1.4-2.3-3.4-4.8-7.9-4.8-5.8 0-9 3.2-9 10.3v10.2c0 .9.3 1.2 1.2 1.2h27.1c.9 0 1.2-.3 1.2-1.2v-4.2c0-.9-.3-1.2-1.2-1.2H21.9v-4.4c0-2.8 1-4.1 3.6-4.1 2.3 0 3.1 1.1 3.5 2.1.6 1.5 0 1.9 1.7 2.3M41.2 83.5l3.5.6c.7.1 1-.2 1.1-.8.2-1.3.4-4.7.4-7.9 0-7.3-2.4-12.6-9.2-12.6-4 0-7 1.8-8.6 7.8l-.9 3.4c-.6 2.3-1.3 3.4-3 3.4-2.4 0-2.9-2.2-2.9-4.3 0-2.8.2-5.7.3-6.9.1-1.2 0-1.5-1.1-1.7l-3.4-.6c-.7-.1-1 .2-1.1.8-.2 1.3-.4 4.3-.4 8 0 7.6 3.3 11.3 8.6 11.3 4.7 0 7.5-2.6 8.7-7l.9-3.4c.7-2.8 1.6-4 3.3-4 2.6 0 3 1.8 3 6 0 1.9-.3 5.3-.4 6.4.1 1 .2 1.3 1.2 1.5"/>
<path style="opacity:1" fill="#AF001E" d="M69.3 0h95v95h-95z"/>
<path style="opacity:1" fill="#fff" d="M107.5 25v54.7h18.6V11.9z"/>
</svg>