<svg version="1.1" id="svg2" xmlns="http://www.w3.org/2000/svg" x="0" y="0" viewBox="0 0 935.5 250" style="enable-background:new 0 0 935.5 250" xml:space="preserve">
<path style="opacity:1" fill="#fff" d="M739.2 58.2c-1.6 0-2.6 1.3-2.6 2.4V190c0 1.6 1.3 2.6 2.6 2.6h32.9c1.6 0 2.4-1.3 2.4-2.6V146.9c0-1.6 1.3-2.6 2.6-2.6H810c1.6 0 2.4 1.3 2.4 2.6V190c0 1.6 1.3 2.6 2.6 2.6h32.9c1.6 0 2.6-1.3 2.6-2.6V96.6c0-1.3.8-2.1 2.6-2.1h24.2s20.5-1.6 21.1 32.1c.5 33.7-14.5 31.6-30 32.4-2.4 0-2.9.5-2.9 2.6v28.9c0 1.8 1.3 2.9 3.4 2.9 50.5 0 66.3-23.9 66.6-68.4.3-44.2-20.5-66.1-62.9-66.1h-57.4c-1.6 0-2.6 1.3-2.6 2.4V105c0 1.6-1.3 2.4-2.4 2.4h-32.9c-1.6 0-2.6-1.3-2.6-2.4V60.8c0-1.6-1.3-2.4-2.4-2.4h-33.2v-.2z" />
<path style="opacity:1" fill="#af001e" d="M182.4 0H704v250H182.4z"/>
<path style="opacity:1" fill="#fff" d="M615.5 144.7c-.8 4.4-2.2 7.9-4 10.4-1.7 2.2-3.7 3.8-6.2 4.6-2.8 1.1-6.5 1.6-10.7 1.6s-7.8-.6-10.7-1.6c-2.5-.9-4.5-2.4-6.2-4.6-1.8-2.4-3.2-5.9-4-10.4-1-4.9-1.5-11.3-1.5-19s.5-14.1 1.5-19.1c.8-4.6 2.2-8.1 4-10.4 1.7-2.2 3.7-3.8 6.2-4.7 2.8-1.1 6.5-1.6 10.7-1.6 4.2 0 7.8.6 10.7 1.6 2.5.9 4.5 2.4 6.2 4.7 1.8 2.4 3.1 5.9 4 10.4 1 5 1.5 11.4 1.5 19.1s-.5 14.1-1.5 19m36-50.5c-3-8.8-7.2-16-12.5-21.4-5.5-5.5-12-9.5-19.8-11.8-7.3-2.2-15.6-3.5-24.6-3.5S577.4 58.7 570 61c-7.7 2.3-14.3 6.3-19.7 11.8-5.3 5.4-9.5 12.7-12.5 21.4-2.8 8.5-4.3 19.1-4.3 31.4 0 12.1 1.4 22.6 4.2 31.1 2.8 8.8 7 16.1 12.4 21.5 5.4 5.5 12 9.5 19.7 11.9 7.3 2.2 15.7 3.4 24.8 3.4s17.5-1.1 24.8-3.4c7.7-2.4 14.3-6.4 19.7-11.9s9.5-12.7 12.4-21.5c2.8-8.6 4.2-19.1 4.2-31.2.1-12.1-1.3-22.7-4.2-31.3M510.5 112.4h-41V93.5h47.8c3 0 5.4-2.4 5.4-5.3V64c0-3-2.4-5.3-5.4-5.3H436c-3 0-5.4 2.4-5.4 5.3v123.2c0 2.9 2.4 5.4 5.4 5.4h28.2c3 0 5.4-2.4 5.4-5.4v-39.9h41c2.9 0 5.4-2.4 5.4-5.4v-24c-.1-3.1-2.5-5.5-5.5-5.5M399 68.7c-4-3.6-8.9-6.2-14.5-7.8-5.4-1.5-11.2-2.2-17.5-2.2h-64.2c-3 0-5.4 2.4-5.4 5.4v123.1c0 2.9 2.4 5.4 5.4 5.4h28.5c3 0 5.4-2.4 5.4-5.4V94.8h22.8c3.5 0 8.3.6 10.4 3.2 2 2.5 3 6.4 3 11.6v77.6c0 2.9 2.4 5.4 5.4 5.4h28.2c3 0 5.4-2.4 5.4-5.4v-84.6c0-7.6-1.1-14.2-3.3-19.8-2.4-5.7-5.6-10.5-9.6-14.1M273.3 58.7h-28.2c-2.9 0-5.4 2.4-5.4 5.3v123.1c0 2.9 2.4 5.4 5.4 5.4h28.2c3 0 5.4-2.4 5.4-5.4V64c-.1-3-2.5-5.3-5.4-5.3"/>
<path style="opacity:1" fill="#af001e" d="M0 0h164.1v250H0z"/>
<path style="opacity:1" fill="#fff" d="M74.7 63.7H58.2V32c0-2.5-.8-3.1-3.2-3.1h-8.5c-2.4 0-3.2.7-3.2 3.1v46c0 2.4.8 3.1 3.2 3.1h71.2c2.4 0 3.3-.7 3.3-3.1V66.8c0-2.4-.8-3.2-3.3-3.2H89.6V34.8c0-2.4-.8-3.1-3.2-3.1H78c-2.4 0-3.2.7-3.2 3.1l-.1 28.9zM80.8 126.2l5.1 1.2c1.4.3 2.2.4 2.7.4 1.2 0 2.2-.3 3.7-1.2l25.9-14.4c2.1-1.2 2.9-2.2 2.9-5.1V93.9c0-1.7-1.1-3.8-4.1-1.8l-29.3 17.7c-3.8-5.9-9.1-12.6-20.8-12.6-15.2 0-23.6 8.4-23.6 27.1v26.9c0 2.4.8 3.1 3.2 3.1h71.2c2.4 0 3.2-.8 3.2-3.1v-11.1c0-2.4-.8-3.1-3.2-3.1H57.5v-11.5c0-7.2 2.7-10.8 9.5-10.8 6.2 0 8.1 2.8 9.3 5.6 1.5 3.5-.1 4.8 4.5 5.9M108.5 219.7l9.3 1.4c1.8.2 2.6-.6 2.8-2.2.5-3.5 1.1-12.4 1.1-20.9 0-19.2-6.3-33.3-24.2-33.3-10.6 0-18.4 4.6-22.5 20.6l-2.3 8.9c-1.6 6.1-3.5 8.9-7.9 8.9-6.3 0-7.5-5.8-7.5-11.4 0-7.5.6-15.1.8-18.1.2-3.1-.1-4-2.8-4.5l-9-1.4c-1.8-.2-2.5.6-2.8 2.1-.5 3.5-1.1 11.2-1.1 21.1 0 19.9 8.7 29.6 22.5 29.6 12.4 0 19.8-6.8 22.8-18.5l2.3-8.9c1.9-7.4 4.1-10.6 8.7-10.6 6.8 0 8 4.6 8 15.8 0 5.1-.8 13.9-.9 16.9-.3 3.2 0 4 2.7 4.5"/>
</svg>