<?xml version="1.0" encoding="utf-8"?>
<!-- Generator: Adobe Illustrator 23.0.1, SVG Export Plug-In . SVG Version: 6.00 Build 0)  -->
<!DOCTYPE svg PUBLIC "-//W3C//DTD SVG 1.1//EN" "http://www.w3.org/Graphics/SVG/1.1/DTD/svg11.dtd" [
	<!ENTITY ns_extend "http://ns.adobe.com/Extensibility/1.0/">
	<!ENTITY ns_ai "http://ns.adobe.com/AdobeIllustrator/10.0/">
	<!ENTITY ns_graphs "http://ns.adobe.com/Graphs/1.0/">
	<!ENTITY ns_vars "http://ns.adobe.com/Variables/1.0/">
	<!ENTITY ns_imrep "http://ns.adobe.com/ImageReplacement/1.0/">
	<!ENTITY ns_sfw "http://ns.adobe.com/SaveForWeb/1.0/">
	<!ENTITY ns_custom "http://ns.adobe.com/GenericCustomNamespace/1.0/">
	<!ENTITY ns_adobe_xpath "http://ns.adobe.com/XPath/1.0/">
]>
<svg version="1.1" id="Ebene_1" xmlns:x="&ns_extend;" xmlns:i="&ns_ai;" xmlns:graph="&ns_graphs;"
	 xmlns="http://www.w3.org/2000/svg" xmlns:xlink="http://www.w3.org/1999/xlink" x="0px" y="0px" viewBox="0 0 252.3 95"
	 style="enable-background:new 0 0 252.3 95;" xml:space="preserve">
<style type="text/css">
	.st0{fill:#333333;}
	.st1{fill:#AF001E;}
	.st2{fill:#FFFFFF;}
</style>
<metadata>
	<sfw  xmlns="&ns_sfw;">
		<slices></slices>
		<sliceSourceBounds  bottomLeftOrigin="true" height="95" width="252.3" x="136.2" y="0"></sliceSourceBounds>
	</sfw>
</metadata>
<g>
	<path id="rect3010" class="st0" d="M177.7,22.1c-0.6,0-1,0.5-1,0.9v49.2c0,0.6,0.5,1,1,1h12.5c0.6,0,0.9-0.5,0.9-1V56.3v-0.5
		c0-0.6,0.5-1,1-1h12.5c0.6,0,0.9,0.5,0.9,1v0.5v15.9c0,0.6,0.5,1,1,1H219c0.6,0,1-0.5,1-1V36.7c0-0.5,0.3-0.8,1-0.8h9.2
		c0,0,7.8-0.6,8,12.2s-5.5,12-11.4,12.3c-0.9,0-1.1,0.2-1.1,1v11c0,0.7,0.5,1.1,1.3,1.1c19.2,0,25.2-9.1,25.3-26
		c0.1-16.8-7.8-25.1-23.9-25.1h-21.8c-0.6,0-1,0.5-1,0.9v15.6v1c0,0.6-0.5,0.9-0.9,0.9h-12.5c-0.6,0-1-0.5-1-0.9v-1V23.1
		c0-0.6-0.5-0.9-0.9-0.9h-12.6V22.1z"/>
	<g>
		<rect class="st1" width="62.4" height="95"/>
		<path class="st2" d="M28.4,24.2h-6.3v-12c0-0.9-0.3-1.2-1.2-1.2h-3.2c-0.9,0-1.2,0.3-1.2,1.2v17.5c0,0.9,0.3,1.2,1.2,1.2h27.1
			c0.9,0,1.2-0.3,1.2-1.2v-4.2c0-0.9-0.3-1.2-1.2-1.2H34.1V13.2c0-0.9-0.3-1.2-1.2-1.2h-3.2c-0.9,0-1.2,0.3-1.2,1.2V24.2z"/>
		<path class="st2" d="M30.7,47.9l1.9,0.5c0.6,0.1,0.8,0.2,1,0.2c0.5,0,0.8-0.1,1.4-0.5l9.8-5.5c0.8-0.5,1.1-0.8,1.1-1.9v-5
			c0-0.6-0.4-1.4-1.6-0.7l-11.1,6.7c-1.4-2.3-3.4-4.8-7.9-4.8c-5.8,0-9,3.2-9,10.3v10.2c0,0.9,0.3,1.2,1.2,1.2h27.1
			c0.9,0,1.2-0.3,1.2-1.2v-4.2c0-0.9-0.3-1.2-1.2-1.2H21.9v-4.4c0-2.8,1-4.1,3.6-4.1c2.3,0,3.1,1.1,3.5,2.1
			C29.6,47.1,29,47.5,30.7,47.9"/>
		<path class="st2" d="M41.2,83.5l3.5,0.6c0.7,0.1,1-0.2,1.1-0.8c0.2-1.3,0.4-4.7,0.4-7.9c0-7.3-2.4-12.6-9.2-12.6
			c-4,0-7,1.8-8.6,7.8l-0.9,3.4c-0.6,2.3-1.3,3.4-3,3.4c-2.4,0-2.9-2.2-2.9-4.3c0-2.8,0.2-5.7,0.3-6.9c0.1-1.2,0-1.5-1.1-1.7
			l-3.4-0.6c-0.7-0.1-1,0.2-1.1,0.8c-0.2,1.3-0.4,4.3-0.4,8c0,7.6,3.3,11.3,8.6,11.3c4.7,0,7.5-2.6,8.7-7l0.9-3.4
			c0.7-2.8,1.6-4,3.3-4c2.6,0,3,1.8,3,6c0,1.9-0.3,5.3-0.4,6.4C40.1,83,40.2,83.3,41.2,83.5"/>
		<rect x="69.3" class="st1" width="95" height="95"/>
		<polygon class="st2" points="107.5,25 107.5,79.7 126.1,79.7 126.1,11.9 		"/>
	</g>
</g>
</svg>
