<?xml version="1.0" encoding="utf-8"?>
<!-- Generator: Adobe Illustrator 23.0.1, SVG Export Plug-In . SVG Version: 6.00 Build 0)  -->
<!DOCTYPE svg PUBLIC "-//W3C//DTD SVG 1.1//EN" "http://www.w3.org/Graphics/SVG/1.1/DTD/svg11.dtd" [
	<!ENTITY ns_extend "http://ns.adobe.com/Extensibility/1.0/">
	<!ENTITY ns_ai "http://ns.adobe.com/AdobeIllustrator/10.0/">
	<!ENTITY ns_graphs "http://ns.adobe.com/Graphs/1.0/">
	<!ENTITY ns_vars "http://ns.adobe.com/Variables/1.0/">
	<!ENTITY ns_imrep "http://ns.adobe.com/ImageReplacement/1.0/">
	<!ENTITY ns_sfw "http://ns.adobe.com/SaveForWeb/1.0/">
	<!ENTITY ns_custom "http://ns.adobe.com/GenericCustomNamespace/1.0/">
	<!ENTITY ns_adobe_xpath "http://ns.adobe.com/XPath/1.0/">
]>
<svg version="1.1" id="Livello_1" xmlns:x="&ns_extend;" xmlns:i="&ns_ai;" xmlns:graph="&ns_graphs;"
	 xmlns="http://www.w3.org/2000/svg" xmlns:xlink="http://www.w3.org/1999/xlink" x="0px" y="0px" viewBox="0 0 1729.3 1000"
	 enable-background="new 0 0 1729.3 1000" xml:space="preserve">
<metadata>
	<sfw  xmlns="&ns_sfw;">
		<slices></slices>
		<sliceSourceBounds  bottomLeftOrigin="true" height="1000" width="1729.3" x="563" y="334.3"></sliceSourceBounds>
	</sfw>
</metadata>
<g>
	<rect fill="#AF001E" width="656.8" height="1000"/>
	<path fill="#FFFFFF" d="M298.7,254.5h-65.8V127.7c0-9.7-3.4-12.6-13.1-12.6h-33.9c-9.7,0-13,2.8-13,12.6v183.9
		c0,9.7,3.3,12.5,13,12.5h285c9.7,0,13.1-2.8,13.1-12.5v-44.6c0-9.7-3.4-12.6-13.1-12.6H358.6V139.3c0-9.7-3.4-12.6-13.1-12.6h-33.8
		c-9.7,0-13.1,2.9-13.1,12.6V254.5z"/>
	<path fill="#FFFFFF" d="M323.3,504.5l20.4,4.9c5.8,1.4,8.7,1.9,10.6,1.9c4.9,0,8.7-1.4,14.5-4.8l103.6-57.6
		c8.2-4.8,11.6-8.7,11.6-20.3v-52.8c0-6.7-4.4-14.9-16.5-7.3l-117.1,70.7c-14.9-23.7-36.3-50.3-83.2-50.3
		c-60.5,0-94.4,33.8-94.4,108.4v107.9c0,9.7,3.4,12.7,13.1,12.7h285c9.7,0,13.1-2.9,13.1-12.7v-44.5c0-9.7-3.4-12.6-13.1-12.6H230.4
		v-46c0-29,10.7-43,37.8-43c24.7,0,32.4,11.1,37.3,22.2C311.2,495.3,304.9,500.2,323.3,504.5"/>
	<path fill="#FFFFFF" d="M434.1,878.8l37.3,5.8c7.2,1,10.1-2.5,11.1-8.8c1.9-14,4.4-49.3,4.4-83.7c0-76.9-25.2-133.1-96.8-133.1
		c-42.1,0-73.5,18.4-90,82.3l-9.2,35.8c-6.3,24.1-14,35.3-31.9,35.3c-25.2,0-30-23.3-30-45.5c0-29.9,2.4-60.5,3.3-72.5
		c1-12.7-0.5-16-11.1-17.9l-36.3-5.8c-7.2-1-10.1,2.4-11.1,8.7c-1.9,14-4.4,45-4.4,84.2c0,79.9,34.8,118.5,90,118.5
		c49.8,0,79.4-27,91.5-74l9.2-35.8c7.8-29.5,16.5-42.1,34.8-42.1c27.2,0,32,18.4,32,63c0,20.3-2.9,55.6-3.9,67.7
		C422.1,873.4,423.5,876.9,434.1,878.8"/>
	<rect x="729.3" fill="#AF001E" width="1000" height="1000"/>
	<polygon fill="#FFFFFF" points="1131.7,263 1131.7,839.3 1327.4,839.3 1327.4,125.7 	"/>
</g>
</svg>
