<?xml version="1.0" encoding="UTF-8"?>
<!DOCTYPE svg PUBLIC "-//W3C//DTD SVG 1.1//EN" "http://www.w3.org/Graphics/SVG/1.1/DTD/svg11.dtd">
<svg xmlns="http://www.w3.org/2000/svg" version="1.1" width="395px" height="120px" style="shape-rendering:geometricPrecision; text-rendering:geometricPrecision; image-rendering:optimizeQuality; fill-rule:evenodd; clip-rule:evenodd" xmlns:xlink="http://www.w3.org/1999/xlink">
<g><path style="opacity:1" fill="#ffffff" d="M 184.5,2.5 C 193.086,0.295803 199.086,3.12914 202.5,11C 199.985,12.7129 197.318,12.8795 194.5,11.5C 191.944,7.91022 189.278,7.74356 186.5,11C 187.444,12.4768 188.777,13.4768 190.5,14C 199.452,14.2774 203.285,18.7774 202,27.5C 194.413,35.4236 186.746,35.4236 179,27.5C 178.51,26.2068 178.343,24.8734 178.5,23.5C 181.187,23.3359 183.854,23.5026 186.5,24C 189.366,27.2642 192.033,27.2642 194.5,24C 194.355,23.228 194.022,22.5613 193.5,22C 189.724,21.4079 186.057,20.4079 182.5,19C 176.98,12.7641 177.647,7.2641 184.5,2.5 Z"/></g>
<g><path style="opacity:1" fill="#ffffff" d="M 204.5,2.5 C 212.167,2.5 219.833,2.5 227.5,2.5C 227.5,4.83333 227.5,7.16667 227.5,9.5C 224.833,9.5 222.167,9.5 219.5,9.5C 219.5,17.5 219.5,25.5 219.5,33.5C 217.167,33.5 214.833,33.5 212.5,33.5C 212.5,25.5 212.5,17.5 212.5,9.5C 209.833,9.5 207.167,9.5 204.5,9.5C 204.5,7.16667 204.5,4.83333 204.5,2.5 Z"/></g>
<g><path style="opacity:1" fill="#ffffff" d="M 232.5,2.5 C 235.119,2.23166 237.619,2.565 240,3.5C 240.667,13.1667 240.667,22.8333 240,32.5C 237.619,33.435 235.119,33.7683 232.5,33.5C 232.5,23.1667 232.5,12.8333 232.5,2.5 Z"/></g>
<g><path style="opacity:1" fill="#ffffff" d="M 246.5,2.5 C 248.857,2.33669 251.19,2.50335 253.5,3C 257.788,8.41026 261.955,13.9103 266,19.5C 266.499,13.8431 266.666,8.17645 266.5,2.5C 268.833,2.5 271.167,2.5 273.5,2.5C 273.5,12.8333 273.5,23.1667 273.5,33.5C 271.143,33.6633 268.81,33.4966 266.5,33C 262.333,27.5 258.167,22 254,16.5C 253.501,22.1569 253.334,27.8236 253.5,33.5C 251.167,33.5 248.833,33.5 246.5,33.5C 246.5,23.1667 246.5,12.8333 246.5,2.5 Z"/></g>
<g><path style="opacity:1" fill="#ffffff" d="M 286.5,2.5 C 291.628,2.11151 296.628,2.61151 301.5,4C 304.892,6.28536 306.559,9.45202 306.5,13.5C 302.733,14.0738 299.733,12.9071 297.5,10C 290.504,7.66603 286.504,10.166 285.5,17.5C 285.358,23.0232 288.024,26.0232 293.5,26.5C 295.854,26.4889 297.854,25.6556 299.5,24C 298.207,23.51 296.873,23.3433 295.5,23.5C 295.5,21.1667 295.5,18.8333 295.5,16.5C 300.5,16.5 305.5,16.5 310.5,16.5C 310.5,18.5 310.5,20.5 310.5,22.5C 307.654,22.8087 306.154,24.4754 306,27.5C 297.293,35.4937 288.626,35.4937 280,27.5C 275.016,17.039 277.183,8.70568 286.5,2.5 Z"/></g>
<g><path style="opacity:1" fill="#ffffff" d="M 314.5,2.5 C 319.511,2.33407 324.511,2.50074 329.5,3C 335.468,5.53177 337.634,10.0318 336,16.5C 335.086,18.6641 333.919,20.6641 332.5,22.5C 334.699,25.8895 336.032,29.5561 336.5,33.5C 334.143,33.6633 331.81,33.4966 329.5,33C 327.873,30.2458 326.373,27.4125 325,24.5C 323.989,23.6634 322.822,23.33 321.5,23.5C 321.5,26.8333 321.5,30.1667 321.5,33.5C 319.167,33.5 316.833,33.5 314.5,33.5C 314.5,23.1667 314.5,12.8333 314.5,2.5 Z M 321.5,9.5 C 323.857,9.33669 326.19,9.50335 328.5,10C 331.21,12.3506 330.877,14.3506 327.5,16C 325.527,16.4955 323.527,16.6621 321.5,16.5C 321.5,14.1667 321.5,11.8333 321.5,9.5 Z"/></g>
<g><path style="opacity:1" fill="#ffffff" d="M 349.5,2.5 C 351.924,2.19244 354.257,2.52577 356.5,3.5C 360.039,13.4503 363.372,23.4503 366.5,33.5C 361.039,34.6745 357.706,32.6745 356.5,27.5C 350.713,25.3418 347.713,27.3418 347.5,33.5C 344.833,33.5 342.167,33.5 339.5,33.5C 342.546,23.0742 345.88,12.7408 349.5,2.5 Z M 352.5,15.5 C 353.339,16.6412 354.006,17.9745 354.5,19.5C 353.277,20.6139 351.944,20.7805 350.5,20C 351.582,18.6703 352.249,17.1703 352.5,15.5 Z"/></g>
<g><path style="opacity:1" fill="#ffffff" d="M 364.5,2.5 C 367.572,2.18259 370.572,2.51592 373.5,3.5C 375.025,6.56301 377.025,9.22968 379.5,11.5C 381.23,8.6301 382.564,5.6301 383.5,2.5C 386.167,2.5 388.833,2.5 391.5,2.5C 391.657,3.87344 391.49,5.20677 391,6.5C 386.667,15.1667 382.333,23.8333 378,32.5C 375.281,33.4438 372.448,33.7771 369.5,33.5C 371.105,29.0341 373.105,24.7007 375.5,20.5C 371.309,14.7779 367.642,8.77786 364.5,2.5 Z"/></g>
<g><path style="opacity:1" fill="#ffffff" d="M 32.5,47.5 C 47.0291,45.7396 58.8624,50.4062 68,61.5C 69.4114,63.6504 70.2447,65.9837 70.5,68.5C 64.1463,69.004 57.9796,70.3373 52,72.5C 42.2219,63.8492 33.5552,64.8492 26,75.5C 24.0185,82.4048 25.5185,88.5715 30.5,94C 37.1303,98.7667 43.6303,98.6001 50,93.5C 51.9927,91.1825 53.1594,88.5158 53.5,85.5C 60.1453,83.85 66.812,82.1833 73.5,80.5C 74.6332,97.2339 67.2998,108.734 51.5,115C 18.5939,119.759 3.42719,105.593 6,72.5C 10.5139,59.4835 19.3472,51.1502 32.5,47.5 Z"/></g>
<g><path style="opacity:1" fill="#ffffff" d="M 108.5,47.5 C 117.899,46.9627 125.566,50.296 131.5,57.5C 144.371,44.6428 157.537,44.3094 171,56.5C 174.204,61.3066 175.871,66.64 176,72.5C 176.667,86.5 176.667,100.5 176,114.5C 169.256,115.479 162.422,115.812 155.5,115.5C 155.667,101.829 155.5,88.1626 155,74.5C 152.347,66.9239 147.514,65.0905 140.5,69C 138.959,70.5793 137.792,72.4127 137,74.5C 136.5,87.8292 136.333,101.163 136.5,114.5C 129.578,114.812 122.744,114.479 116,113.5C 115.667,99.8333 115.333,86.1667 115,72.5C 111.799,66.2415 107.299,65.0748 101.5,69C 99.5125,70.3189 98.3459,72.1523 98,74.5C 97.5001,87.8292 97.3334,101.163 97.5,114.5C 90.5,114.5 83.5,114.5 76.5,114.5C 76.5,92.8333 76.5,71.1667 76.5,49.5C 83.1667,49.5 89.8333,49.5 96.5,49.5C 96.3433,50.8734 96.51,52.2068 97,53.5C 100.574,50.8224 104.407,48.8224 108.5,47.5 Z"/></g>
<g><path style="opacity:1" fill="#ffffff" d="M 262.5,47.5 C 273.578,45.8049 283.078,48.8049 291,56.5C 293.285,60.1869 294.452,64.1869 294.5,68.5C 287.468,68.8303 280.468,68.497 273.5,67.5C 270.5,63.5 267.5,63.5 264.5,67.5C 264.968,69.1338 265.968,70.3005 267.5,71C 275.613,72.941 283.28,75.941 290.5,80C 298.395,89.902 298.395,99.902 290.5,110C 281.473,116.186 271.473,118.186 260.5,116C 249.938,112.711 244.271,105.545 243.5,94.5C 250.175,94.3337 256.842,94.5004 263.5,95C 266.061,100.41 269.894,101.576 275,98.5C 275.743,96.5594 275.576,94.7261 274.5,93C 267.086,90.1954 259.753,87.1954 252.5,84C 245.501,79.3514 243.001,72.8514 245,64.5C 246.32,58.6902 249.487,54.1902 254.5,51C 257.476,50.2952 260.142,49.1286 262.5,47.5 Z"/></g>
<g><path style="opacity:1" fill="#ffffff" d="M 347.5,47.5 C 365.548,44.6919 378.881,51.1919 387.5,67C 380.839,68.8321 374.172,70.6654 367.5,72.5C 357.98,63.7989 349.48,64.7989 342,75.5C 339.773,87.0064 344.273,94.3397 355.5,97.5C 359.226,97.0723 362.559,95.739 365.5,93.5C 367.639,90.7071 369.639,87.8737 371.5,85C 377.698,83.4951 383.864,81.9951 390,80.5C 389.635,103.034 378.135,115.034 355.5,116.5C 329.975,113.465 318.809,99.1319 322,73.5C 325.674,59.9939 334.174,51.3272 347.5,47.5 Z"/></g>
<g><path style="opacity:1" fill="#ffffff" d="M 179.5,49.5 C 186.5,49.5 193.5,49.5 200.5,49.5C 200.333,63.1707 200.5,76.8374 201,90.5C 202.034,95.3027 205.034,97.6361 210,97.5C 214.457,97.6399 217.457,95.6399 219,91.5C 219.5,77.504 219.667,63.504 219.5,49.5C 226.5,49.5 233.5,49.5 240.5,49.5C 240.5,71.1667 240.5,92.8333 240.5,114.5C 234.167,114.5 227.833,114.5 221.5,114.5C 221.657,113.127 221.49,111.793 221,110.5C 218.33,113.25 215.164,115.083 211.5,116C 193.467,119.583 182.967,112.416 180,94.5C 179.5,79.5037 179.333,64.5037 179.5,49.5 Z"/></g>
<g><path style="opacity:1" fill="#ffffff" d="M 298.5,49.5 C 305.422,49.1878 312.256,49.5212 319,50.5C 319.667,71.8333 319.667,93.1667 319,114.5C 312.256,115.479 305.422,115.812 298.5,115.5C 298.5,93.5 298.5,71.5 298.5,49.5 Z"/></g>
</svg>
