<?xml version="1.0" encoding="UTF-8" standalone="no"?>
<svg
   xmlns:dc="http://purl.org/dc/elements/1.1/"
   xmlns:cc="http://creativecommons.org/ns#"
   xmlns:rdf="http://www.w3.org/1999/02/22-rdf-syntax-ns#"
   xmlns:svg="http://www.w3.org/2000/svg"
   xmlns="http://www.w3.org/2000/svg"
   viewBox="0 0 382.61334 95.666664"
   height="95.666664"
   width="382.61334"
   xml:space="preserve"
   id="svg2"
   version="1.1"><metadata
     id="metadata8"><rdf:RDF><cc:Work
         rdf:about=""><dc:format>image/svg+xml</dc:format><dc:type
           rdf:resource="http://purl.org/dc/dcmitype/StillImage" /></cc:Work></rdf:RDF></metadata><defs
     id="defs6" /><g
     transform="matrix(1.3333333,0,0,-1.3333333,0,95.666667)"
     id="g10"><g
       transform="scale(0.1)"
       id="g12"><path
         id="path14"
         style="fill:#474343;fill-opacity:1;fill-rule:nonzero;stroke:none"
         d="m 1691.19,679.902 h 53.58 V 529.484 h 35.85 v 150.418 h 53.18 v 33.711 h -142.61 v -33.711" /><path
         id="path16"
         style="fill:#474343;fill-opacity:1;fill-rule:nonzero;stroke:none"
         d="m 1871.05,529.484 h 36.61 v 184.129 h -36.61 V 529.484" /><path
         id="path18"
         style="fill:#474343;fill-opacity:1;fill-rule:nonzero;stroke:none"
         d="m 2082.88,593.352 -90.03,120.261 h -34.91 V 529.484 h 35.87 v 119.961 l 90.04,-119.961 h 34.88 v 184.129 h -35.85 V 593.352" /><path
         id="path20"
         style="fill:#474343;fill-opacity:1;fill-rule:nonzero;stroke:none"
         d="m 2265.52,591.563 h 34.32 c -5.95,-20.571 -23.13,-32.293 -47.53,-32.293 -41.13,0 -59.87,32.039 -59.87,61.757 0,30.457 20.22,62.797 57.66,62.797 21.15,0 38.64,-10.797 42.51,-26.23 l 1.35,-5.18 h 35.66 l -1.18,7.895 c -5.04,33.152 -38.19,57.207 -78.83,57.207 -60.73,0 -93.48,-49.825 -93.48,-96.719 0,-47.32 32.75,-95.192 95.42,-95.192 44.18,0 76.98,25.211 85.99,65.958 H 2357 v 33.691 h -91.48 v -33.691" /><path
         id="path22"
         style="fill:#474343;fill-opacity:1;fill-rule:nonzero;stroke:none"
         d="m 2829.92,713.613 -36.55,-72.527 -45.47,72.527 h -42.01 l 68.79,-109.949 -37.37,-74.156 h 39.75 l 92.58,184.105 h -39.72" /><path
         id="path24"
         style="fill:#474343;fill-opacity:1;fill-rule:nonzero;stroke:none"
         d="m 2458.38,624.367 h -35.26 v 55.535 h 34.96 c 15.14,0 27.58,-12.464 27.58,-27.769 0,-15.184 -12.26,-27.625 -27.28,-27.766 m 30.97,-25.027 c 18.57,11.051 29.98,31.066 29.98,52.793 0,33.644 -27.33,61.25 -60.9,61.457 h -71.11 V 529.738 h 35.8 v 60.871 h 29.79 l 27.94,-61.152 h 40.39 l -31.89,69.883" /><path
         id="path26"
         style="fill:#474343;fill-opacity:1;fill-rule:nonzero;stroke:none"
         d="m 2607.64,600.707 19.37,58.531 19.4,-58.531 z m 35.78,111.324 -0.53,1.559 h -31.79 l -63.63,-184.133 h 39 l 13.62,41.094 h 53.87 l 13.63,-41.094 h 38.98 l -63.15,182.574" /><path
         id="path28"
         style="fill:#474343;fill-opacity:1;fill-rule:nonzero;stroke:none"
         d="m 1623.33,635.328 -33.18,7.703 c -13.68,3.254 -20.48,9.473 -20.48,19.875 0,13.051 11.57,21.313 28.74,21.313 18.97,0 29.37,-9.469 33.51,-21.637 h 37.67 c -5.93,30.879 -29.95,52.82 -71.48,52.82 -38.26,0 -65.49,-23.144 -65.49,-56.066 0,-29.926 20.15,-43.863 46.22,-49.828 l 32.62,-7.379 c 15.77,-3.578 22.22,-9.473 22.22,-20.477 0,-14.539 -12.14,-22.824 -30.5,-22.824 -17.79,0 -31.16,7.402 -36.13,23.43 h -39.19 c 6.2,-34.715 34.99,-54.84 75.59,-54.84 38.57,0 67.61,21.312 67.61,56.645 0,27.535 -18.09,44.464 -47.73,51.265" /><path
         id="path30"
         style="fill:#b19451;fill-opacity:1;fill-rule:nonzero;stroke:none"
         d="M 628.277,35.6836 V 620.031 H 613.77 l -1.489,-2.179 c -14.406,-21.098 -32.832,-38.817 -54.761,-52.68 -21.821,-13.813 -46.055,-22.031 -72.028,-24.418 l -4.539,-0.422 v -16.09 h 10.152 c 4.442,0 7.016,-1.316 7.016,-8.054 V 35.6836 c 0,-5.3203 -1.773,-7.1172 -7.016,-7.1172 H 480.953 V 12.0313 h 163.633 v 16.5351 h -10.148 c -3.993,0 -6.161,1.1328 -6.161,7.1172" /><path
         id="path32"
         style="fill:#b19451;fill-opacity:1;fill-rule:nonzero;stroke:none"
         d="m 841.02,40.0703 c -11.563,12.1289 -18.477,31.8047 -20.54,58.4844 -2.16,27.6093 -2.941,59.4533 -2.32,94.7183 v 43.915 c -0.621,34.542 0.16,66.226 2.32,94.171 2.063,26.918 8.946,46.407 20.458,57.918 8.425,8.426 19.167,12.524 32.832,12.524 h 1.867 c 25.91,0 50.816,-5.039 74.019,-14.981 23.203,-9.945 43.836,-24.16 61.384,-42.293 5.91,-5.937 8.79,-13.324 8.79,-22.582 V 108.41 c 0,-9.7186 -3.07,-17.0037 -9.79,-22.6287 C 993.152,68.2813 972.973,54.2188 950.055,43.9766 927.195,33.75 902.164,28.5664 875.637,28.5664 h -1.867 c -13.196,0 -24.008,3.8672 -32.75,11.5039 z M 1095.4,363.109 c -23.54,13.582 -43.74,31.485 -60.04,53.219 l -1.51,2 h -14.02 V 359.34 c -18.16,18.308 -39.322,32.672 -62.982,42.746 -25.399,10.781 -52.723,16.242 -81.211,16.242 -27.895,0 -54.606,-5.473 -79.399,-16.265 -24.73,-10.793 -46.59,-25.743 -64.968,-44.442 -18.36,-18.668 -33.125,-40.332 -43.891,-64.402 -10.809,-24.145 -16.289,-49.938 -16.289,-76.645 0,-28.554 5.64,-55.597 16.758,-80.363 11.082,-24.715 26.179,-46.5626 44.882,-64.9297 18.665,-18.3711 40.676,-33 65.43,-43.4571 24.738,-10.4804 50.809,-15.7929 77.477,-15.7929 29.168,0 56.691,5.8007 81.801,17.2382 23.316,10.625 44.272,24.7344 62.392,41.9922 V 35.6836 c 0,-5.3203 -1.8,-7.1172 -7.12,-7.1172 h -10.6 V 12.0313 h 176.91 v 16.5351 h -10.6 c -6.74,0 -8.05,2.6055 -8.05,7.1172 V 314.492 c 0,4.508 1.31,7.121 8.05,7.121 h 10.6 v 16.035 l -4.48,0.461 c -28.99,3.02 -55.62,11.434 -79.14,25" /><path
         id="path34"
         style="fill:#b19451;fill-opacity:1;fill-rule:nonzero;stroke:none"
         d="M 1961.86,35.6836 V 418.328 h -13.77 l -1.49,-2.191 c -14.71,-21.672 -33.49,-39.535 -55.81,-53.078 -22.35,-13.551 -47.15,-21.946 -73.73,-24.95 l -4.44,-0.5 v -15.996 h 10.26 c 4.14,0 6.38,-1.133 6.38,-7.121 V 35.6836 c 0,-5.9844 -2.24,-7.1172 -6.38,-7.1172 h -10.26 V 12.0313 h 166.76 v 16.5351 h -10.25 c -5.43,0 -7.27,1.7969 -7.27,7.1172" /><path
         id="path36"
         style="fill:#b19451;fill-opacity:1;fill-rule:nonzero;stroke:none"
         d="m 2544.08,28.5664 h -1.87 c -13.19,0 -24.01,3.8672 -32.74,11.5039 -11.57,12.1289 -18.49,31.8047 -20.56,58.4844 -2.16,27.6093 -2.94,59.4533 -2.31,94.7183 v 43.915 c -0.63,34.542 0.15,66.226 2.31,94.171 2.07,26.918 8.96,46.407 20.47,57.918 8.43,8.426 19.17,12.524 32.83,12.524 h 1.87 c 25.91,0 50.81,-5.039 74.02,-14.981 23.21,-9.953 43.84,-24.168 61.37,-42.293 5.92,-5.937 8.8,-13.324 8.8,-22.582 V 108.41 c 0,-9.7186 -3.08,-17.0037 -9.79,-22.6287 -16.89,-17.5 -37.07,-31.5625 -59.99,-41.8047 C 2595.64,33.75 2570.6,28.5664 2544.08,28.5664 Z m 292.79,293.0466 h 10.59 v 16.035 l -4.49,0.461 c -28.98,3.02 -55.61,11.434 -79.13,25 -23.55,13.59 -43.75,31.496 -60.04,53.219 l -1.5,2 h -14.03 V 359.34 c -18.16,18.308 -39.32,32.672 -62.98,42.746 -25.4,10.781 -52.73,16.242 -81.21,16.242 -27.9,0 -54.61,-5.473 -79.4,-16.262 -24.73,-10.796 -46.59,-25.746 -64.97,-44.445 -18.37,-18.676 -33.13,-40.34 -43.88,-64.402 -10.83,-24.156 -16.3,-49.946 -16.3,-76.645 0,-28.547 5.63,-55.586 16.75,-80.363 11.08,-24.715 26.19,-46.5626 44.89,-64.9297 18.67,-18.379 40.69,-33 65.43,-43.4571 24.73,-10.4804 50.81,-15.7929 77.48,-15.7929 29.17,0 56.69,5.8007 81.79,17.2382 23.31,10.625 44.28,24.7344 62.4,41.9922 V 35.6836 c 0,-5.3203 -1.8,-7.1172 -7.12,-7.1172 h -10.6 V 12.0313 h 176.91 v 16.5351 h -10.59 c -6.74,0 -8.06,2.6055 -8.06,7.1172 V 314.492 c 0,4.508 1.32,7.121 8.06,7.121" /><path
         id="path38"
         style="fill:#b19451;fill-opacity:1;fill-rule:nonzero;stroke:none"
         d="m 439.719,498.02 c -23,16.71 -48.551,30.085 -75.953,39.75 -27.512,9.687 -57.094,14.597 -88.711,14.597 -37.653,0 -73.739,-7.429 -107.242,-22.09 -33.434,-14.621 -62.848,-34.5 -87.4224,-59.074 -24.5742,-24.578 -44.3242,-54 -58.707,-87.453 C 7.29297,350.266 0,314.195 0,275.82 0,238.164 7.29297,202.102 21.6836,168.613 36.0547,135.176 55.8047,105.754 80.3906,81.1641 104.965,56.5938 134.375,36.7188 167.813,22.0781 201.313,7.43359 237.398,0 275.828,0 c 30.848,0 60.434,4.91406 87.942,14.5898 27.414,9.6797 52.968,23.0586 76.019,39.8047 0.234,0.1758 0.723,0.461 1.742,0.7735 l 3.524,1.0937 v 21.6289 l -8.075,-6.289 C 415.141,54.5898 390.66,40.9102 364.215,30.9492 336.746,20.6367 307.27,15.4102 276.602,15.4102 h -4.645 c -29.07,0 -53.141,4.0234 -71.523,11.9726 -18.36,7.9492 -30.289,14.836 -35.485,20.5 -7.183,7.6641 -12.797,17.8203 -16.672,30.1836 -4.007,12.7617 -6.933,27.8046 -8.699,44.6796 -1.773,16.981 -2.808,35.703 -3.062,55.645 -0.266,20.105 -0.387,41.23 -0.387,63.386 v 68.809 c 0,22.152 0.121,43.293 0.387,63.391 0.254,19.929 1.289,38.652 3.062,55.644 1.766,16.879 4.692,31.906 8.699,44.676 3.875,12.359 9.489,22.516 16.711,30.226 5.168,5.633 17.09,12.52 35.442,20.457 18.371,7.942 42.437,11.969 71.527,11.969 h 4.645 c 30.695,0 60.171,-5.23 87.609,-15.539 26.457,-9.961 50.941,-23.633 72.769,-40.648 l 8.075,-6.289 v 21.636 l -3.524,1.09 c -1.011,0.313 -1.511,0.594 -1.812,0.821" /><path
         id="path40"
         style="fill:#b19451;fill-opacity:1;fill-rule:nonzero;stroke:none"
         d="m 1472.88,170.813 c -8.31,15.429 -18.96,30.371 -31.63,44.382 -12.57,13.907 -26.15,27.481 -40.36,40.383 -13.96,12.625 -27.35,25.449 -39.8,38.106 -12.18,12.347 -22.36,24.961 -30.27,37.472 -7.59,11.989 -11.44,24.453 -11.44,37.051 0,8.281 3.54,15.07 10.84,20.738 7.7,5.981 16.25,8.887 26.16,8.887 13.82,0 27.2,-1.844 39.76,-5.477 12.53,-3.64 24.02,-8.785 34.16,-15.3 4.93,-3.172 8.72,-6.153 11.25,-8.856 2.23,-2.379 3.72,-3.965 4.48,-4.758 1.19,-1.988 3.18,-5.242 5.99,-9.765 2.52,-4.113 3.8,-9.539 3.8,-16.117 v -28.266 h 14.53 v 80.941 h -14.53 l -0.03,-16.171 -4.51,4.503 c -3.3,3.286 -7.78,6.75 -13.21,10.243 -11,7.457 -23.71,13.222 -37.78,17.14 -29.59,8.207 -64.72,7.606 -93.57,-0.879 -15.2,-4.488 -28.68,-10.836 -40.06,-18.875 -11.5,-8.129 -20.76,-17.996 -27.51,-29.324 -6.87,-11.519 -10.36,-24.508 -10.36,-38.609 0,-16.043 4.66,-31.465 13.85,-45.821 8.86,-13.875 20.18,-27.636 33.61,-40.886 13.21,-13.02 27.61,-26.27 42.82,-39.387 14.9,-12.859 29.11,-26.309 42.21,-39.961 12.89,-13.445 23.72,-27.734 32.2,-42.449 8.21,-14.2971 12.38,-29.8752 12.38,-46.3205 0,-9.9687 -1.84,-17.957 -5.46,-23.7305 -3.75,-5.9453 -8.26,-10.3007 -13.77,-13.3086 -5.74,-3.1171 -11.97,-5.2265 -18.54,-6.2617 -6.9,-1.0937 -13.32,-1.6406 -19.08,-1.6406 -13.89,0 -27.11,1.6602 -39.29,4.9414 -12.21,3.2734 -23.45,7.8711 -33.41,13.6836 -9.91,5.75 -18.58,12.6836 -25.77,20.6055 -2.49,2.7343 -4.86,5.8086 -7.26,9.4023 l -1.49,2.2266 h -16.04 l 4.94,-7.6953 c 6.77,-10.5547 15.49,-19.8907 25.92,-27.7539 11.91,-8.9922 25.95,-16.2188 41.72,-21.4727 15.76,-5.2461 32.81,-7.91016 50.68,-7.91016 18.96,0 36.92,2.55469 53.39,7.58596 16.59,5.0781 31.27,12.6289 43.64,22.4414 12.45,9.875 22.28,22.1094 29.19,36.3476 6.93,14.2579 10.45,30.6566 10.45,48.7226 0,18.145 -4.31,35.371 -12.8,51.18 v 0.012" /><path
         id="path42"
         style="fill:#b19451;fill-opacity:1;fill-rule:nonzero;stroke:none"
         d="m 1764.5,170.813 c -8.32,15.437 -18.97,30.378 -31.63,44.382 -12.52,13.86 -26.1,27.434 -40.37,40.371 -13.95,12.637 -27.34,25.461 -39.8,38.118 -12.18,12.355 -22.36,24.964 -30.26,37.472 -7.59,11.973 -11.44,24.442 -11.44,37.051 0,8.281 3.55,15.07 10.84,20.738 7.7,5.981 16.25,8.887 26.16,8.887 13.82,0 27.2,-1.844 39.75,-5.484 12.54,-3.625 24.03,-8.774 34.17,-15.293 4.93,-3.172 8.72,-6.153 11.25,-8.856 2.24,-2.379 3.72,-3.965 4.48,-4.758 1.19,-1.988 3.18,-5.242 5.99,-9.765 2.51,-4.106 3.79,-9.531 3.79,-16.117 v -28.266 h 14.54 v 80.941 h -14.54 l -0.03,-16.16 -4.49,4.492 c -3.31,3.286 -7.79,6.75 -13.22,10.243 -11,7.457 -23.71,13.222 -37.78,17.14 -29.59,8.207 -64.73,7.606 -93.57,-0.879 -15.2,-4.488 -28.68,-10.836 -40.06,-18.875 -11.5,-8.129 -20.76,-17.996 -27.51,-29.324 -6.87,-11.5 -10.35,-24.488 -10.35,-38.609 0,-16.055 4.65,-31.473 13.83,-45.821 8.87,-13.886 20.19,-27.644 33.63,-40.886 13.2,-13.02 27.6,-26.27 42.8,-39.387 14.96,-12.91 29.17,-26.355 42.23,-39.961 12.89,-13.445 23.72,-27.734 32.19,-42.449 8.22,-14.2971 12.39,-29.8752 12.39,-46.3205 0,-9.9687 -1.85,-17.957 -5.47,-23.7305 -3.75,-5.9453 -8.26,-10.3007 -13.78,-13.3203 -5.72,-3.1054 -11.95,-5.2148 -18.54,-6.25 -6.89,-1.0937 -13.31,-1.6406 -19.07,-1.6406 -13.89,0 -27.11,1.6602 -39.29,4.9414 -12.2,3.2734 -23.44,7.8711 -33.41,13.6836 -9.91,5.75 -18.58,12.6836 -25.78,20.6055 -2.46,2.7031 -4.83,5.7812 -7.25,9.4023 l -1.49,2.2266 h -16.03 l 4.93,-7.6953 c 6.76,-10.5547 15.48,-19.8907 25.91,-27.7539 11.9,-8.9844 25.95,-16.211 41.73,-21.4727 15.76,-5.2461 32.81,-7.91016 50.68,-7.91016 18.96,0 36.92,2.55469 53.39,7.58596 16.59,5.0703 31.27,12.6172 43.63,22.4414 12.44,9.8555 22.27,22.082 29.22,36.3476 6.92,14.2696 10.43,30.6646 10.43,48.7226 0,18.145 -4.31,35.371 -12.8,51.18 v 0.012" /><path
         id="path44"
         style="fill:#b19451;fill-opacity:1;fill-rule:nonzero;stroke:none"
         d="m 2212.89,414.445 c -27.25,0 -53.72,-5.429 -78.68,-16.132 -24.91,-10.665 -47.22,-25.602 -66.33,-44.387 -19.13,-18.805 -34.39,-40.961 -45.38,-65.863 -9.81,-22.25 -15.31,-46.54 -16.37,-72.282 h -0.26 l 0.03,-6.386 -0.03,-2.911 0.11,-5 h 0.15 c 1.06,-25.742 6.56,-50.039 16.37,-72.293 11,-24.914 26.26,-47.0699 45.38,-65.8629 19.09,-18.7773 41.41,-33.707 66.33,-44.3828 24.96,-10.70311 51.43,-16.1328 78.68,-16.1328 41.1,0 78.95,11.125 112.49,33.0664 l 2.26,1.4766 v 20.1836 l -7.8,-5.293 c -32.06,-21.7383 -68.04,-32.7617 -106.95,-32.7617 -13.99,0 -24.99,4.1992 -33.64,12.832 -11.77,11.7852 -18.82,31.4063 -20.93,58.3086 -2.21,27.961 -3.01,60.02 -2.37,95.383 v 45.332 c -0.64,35.281 0.16,67.336 2.37,95.285 2.11,26.906 9.16,46.531 20.93,58.316 8.65,8.633 19.64,12.832 33.64,12.832 38.91,0 74.9,-11.019 106.95,-32.753 l 7.8,-5.297 v 20.183 l -2.26,1.481 c -33.54,21.933 -71.39,33.058 -112.49,33.058" /></g></g></svg>