<?xml version="1.0" encoding="UTF-8"?>
<!DOCTYPE svg PUBLIC "-//W3C//DTD SVG 1.1//EN" "http://www.w3.org/Graphics/SVG/1.1/DTD/svg11.dtd">
<svg xmlns="http://www.w3.org/2000/svg" version="1.1" width="637px" height="120px" style="shape-rendering:geometricPrecision; text-rendering:geometricPrecision; image-rendering:optimizeQuality; fill-rule:evenodd; clip-rule:evenodd" xmlns:xlink="http://www.w3.org/1999/xlink">
<g><path style="opacity:1" fill="#ed7900" d="M 494.5,-0.5 C 534.833,-0.5 575.167,-0.5 615.5,-0.5C 626.599,2.93175 633.599,10.2651 636.5,21.5C 636.5,47.1667 636.5,72.8333 636.5,98.5C 634.052,108.951 627.719,115.951 617.5,119.5C 575.5,119.5 533.5,119.5 491.5,119.5C 483.186,116.018 477.353,110.018 474,101.5C 472.39,75.869 472.057,50.2024 473,24.5C 475.012,11.66 482.178,3.32665 494.5,-0.5 Z"/></g>
<g><path style="opacity:1" fill="#ffffff" d="M -0.5,87.5 C -0.5,82.5 -0.5,77.5 -0.5,72.5C 17.1667,72.5 34.8333,72.5 52.5,72.5C 52.5,70.8333 52.5,69.1667 52.5,67.5C 37.8295,67.6666 23.1629,67.4999 8.5,67C 4.08561,66.0773 1.08561,63.5773 -0.5,59.5C -0.5,52.8333 -0.5,46.1667 -0.5,39.5C 1.37197,36.4713 4.03864,34.3046 7.5,33C 28.4974,32.5 49.4974,32.3334 70.5,32.5C 70.5,37.5 70.5,42.5 70.5,47.5C 52.8333,47.5 35.1667,47.5 17.5,47.5C 17.5,49.5 17.5,51.5 17.5,53.5C 32.5037,53.3334 47.5037,53.5001 62.5,54C 66.7703,55.2704 69.2703,58.1037 70,62.5C 71.113,69.7149 70.4463,76.7149 68,83.5C 66.4207,85.0412 64.5873,86.2078 62.5,87C 41.5026,87.5 20.5026,87.6666 -0.5,87.5 Z"/></g>
<g><path style="opacity:1" fill="#ffffff" d="M 81.5,32.5 C 104.167,32.5 126.833,32.5 149.5,32.5C 149.5,37.5 149.5,42.5 149.5,47.5C 141.167,47.5 132.833,47.5 124.5,47.5C 124.5,60.8333 124.5,74.1667 124.5,87.5C 118.167,87.5 111.833,87.5 105.5,87.5C 105.5,74.1667 105.5,60.8333 105.5,47.5C 97.5,47.5 89.5,47.5 81.5,47.5C 81.5,42.5 81.5,37.5 81.5,32.5 Z"/></g>
<g><path style="opacity:1" fill="#ffffff" d="M 158.5,32.5 C 164.5,32.5 170.5,32.5 176.5,32.5C 176.5,45.8333 176.5,59.1667 176.5,72.5C 187.5,72.5 198.5,72.5 209.5,72.5C 209.333,59.4957 209.5,46.4957 210,33.5C 215.741,32.5251 221.575,32.1918 227.5,32.5C 227.667,48.5035 227.5,64.5035 227,80.5C 225.833,83.6667 223.667,85.8333 220.5,87C 202.5,87.6667 184.5,87.6667 166.5,87C 162.51,85.0096 160.01,81.8429 159,77.5C 158.5,62.5037 158.333,47.5037 158.5,32.5 Z"/></g>
<g><path style="opacity:1" fill="#ffffff" d="M 240.5,32.5 C 261.234,32.0347 281.9,32.5347 302.5,34C 306.498,35.4864 308.998,38.3197 310,42.5C 310.667,54.1667 310.667,65.8333 310,77.5C 309.3,81.0662 307.467,83.8995 304.5,86C 283.233,87.4664 261.9,87.9664 240.5,87.5C 240.5,69.1667 240.5,50.8333 240.5,32.5 Z M 258.5,47.5 C 269.833,47.5 281.167,47.5 292.5,47.5C 292.5,55.8333 292.5,64.1667 292.5,72.5C 281.167,72.5 269.833,72.5 258.5,72.5C 258.5,64.1667 258.5,55.8333 258.5,47.5 Z"/></g>
<g><path style="opacity:1" fill="#ffffff" d="M 322.5,32.5 C 328.5,32.5 334.5,32.5 340.5,32.5C 340.5,50.8333 340.5,69.1667 340.5,87.5C 334.5,87.5 328.5,87.5 322.5,87.5C 322.5,69.1667 322.5,50.8333 322.5,32.5 Z"/></g>
<g><path style="opacity:1" fill="#ffffff" d="M 361.5,32.5 C 380.503,32.3334 399.503,32.5001 418.5,33C 423.336,34.8186 426.169,38.3186 427,43.5C 427.667,54.8333 427.667,66.1667 427,77.5C 425.99,81.8429 423.49,85.0096 419.5,87C 398.744,87.9763 378.077,87.6429 357.5,86C 355.19,84.3626 353.69,82.196 353,79.5C 352.333,66.5 352.333,53.5 353,40.5C 355.098,36.8972 357.932,34.2305 361.5,32.5 Z M 370.5,47.5 C 383.5,47.5 396.5,47.5 409.5,47.5C 409.5,55.8333 409.5,64.1667 409.5,72.5C 396.5,72.5 383.5,72.5 370.5,72.5C 370.5,64.1667 370.5,55.8333 370.5,47.5 Z"/></g>
<g><path style="opacity:1" fill="#ed7900" d="M 516.5,33.5 C 523.677,32.1806 531.01,32.1806 538.5,33.5C 538.376,34.1067 538.043,34.44 537.5,34.5C 530.687,33.5088 523.687,33.1755 516.5,33.5 Z"/></g>
<g><path style="opacity:1" fill="#ed7900" d="M 618.5,49.5 C 618.5,44.1667 618.5,38.8333 618.5,33.5C 598.167,33.5 577.833,33.5 557.5,33.5C 557.5,41.5 557.5,49.5 557.5,57.5C 556.507,49.3501 556.174,41.0168 556.5,32.5C 577.5,32.5 598.5,32.5 619.5,32.5C 619.822,38.358 619.489,44.0247 618.5,49.5 Z"/></g>
<g><path style="opacity:1" fill="#000000" d="M 516.5,33.5 C 523.687,33.1755 530.687,33.5088 537.5,34.5C 528.934,45.9529 520.6,57.6196 512.5,69.5C 511.957,69.56 511.624,69.8933 511.5,70.5C 518.656,71.8188 525.656,71.8188 532.5,70.5C 532.5,67.8333 532.5,65.1667 532.5,62.5C 538.833,62.5 545.167,62.5 551.5,62.5C 551.5,70.5 551.5,78.5 551.5,86.5C 531.167,86.5 510.833,86.5 490.5,86.5C 490.334,80.8236 490.501,75.1569 491,69.5C 499.719,57.6207 508.219,45.6207 516.5,33.5 Z"/></g>
<g><path style="opacity:1" fill="#000000" d="M 618.5,49.5 C 609.833,61.8333 601.167,74.1667 592.5,86.5C 585.313,86.8245 578.313,86.4912 571.5,85.5C 580.057,74.0763 588.39,62.4097 596.5,50.5C 589.866,49.5033 583.2,49.17 576.5,49.5C 576.5,52.1667 576.5,54.8333 576.5,57.5C 570.167,57.5 563.833,57.5 557.5,57.5C 557.5,49.5 557.5,41.5 557.5,33.5C 577.833,33.5 598.167,33.5 618.5,33.5C 618.5,38.8333 618.5,44.1667 618.5,49.5 Z"/></g>
<g><path style="opacity:1" fill="#ed7900" d="M 512.5,69.5 C 518.979,70.4907 525.646,70.824 532.5,70.5C 525.656,71.8188 518.656,71.8188 511.5,70.5C 511.624,69.8933 511.957,69.56 512.5,69.5 Z"/></g>
<g><path style="opacity:1" fill="#ed7900" d="M 571.5,85.5 C 578.313,86.4912 585.313,86.8245 592.5,86.5C 585.323,87.8194 577.99,87.8194 570.5,86.5C 570.624,85.8933 570.957,85.56 571.5,85.5 Z"/></g>
</svg>
