<svg xmlns="http://www.w3.org/2000/svg" viewBox="0 0 109.1 28.3">
  <path fill="#ffffff" d="M86.5 26H80l-5.5-9.1h-.2V26h-5.4V2.8c2-.1 4.5-.2 7.3-.2 5.5 0 8.7 2 8.7 6.9 0 3.1-1.9 5.7-5 6.4.6.9 1.2 1.8 1.8 2.6l4.8 7.5zm-7.2-16c0-1.8-1.1-2.9-3.6-2.9-.6 0-1.2 0-1.5.1v6c.3 0 .8.1 1.4.1 2.2-.2 3.7-1.4 3.7-3.3M32.5 26.4c-1.6 0-3.3-.2-4.8-.5l.2-5.1c1.3.5 3.3 1 5 1 2 0 3.4-.8 3.4-2.5 0-4-9.1-2-9.3-9.7-.1-4.4 3.4-7.3 9.3-7.3 1.2 0 2.8.1 4.2.4v4.7c-1.3-.4-3.1-.7-4.4-.7-2.3 0-3.3 1-3.3 2.3 0 3.6 9.3 2.2 9.3 9.5 0 4.5-3.6 7.9-9.6 7.9M62.1 2.8l-2.4 14.4-2.3-14.4H52l-2.4 14.4-2.3-14.4h-5.4L46 26h6l2.7-14.9L57.3 26h6.1l4.1-23.2h-5.4zM0 1.5v8.4l4.5 4.5L0 18.9v8.4l12.8-12.9L0 1.5zm0 0v8.4l4.5 4.5L0 18.9v8.4l12.8-12.9L0 1.5zm11.5 0v8.4l4.5 4.5-4.5 4.5v8.4l12.8-12.9L11.5 1.5zm97.6 26.4v-6.2h-2.7c-2.5 0-5.1 0-7.1.1v-.1l2.1-2c5.4-4.9 6.9-7.8 6.9-11.4 0-4.1-2.8-8.1-9.6-8.1-3.1 0-6 .8-8.1 1.9l1 5.9C93 7 95 6.3 97.2 6.3c2.6 0 3.9 1.4 3.9 3.3s-1 3.8-7.9 10.4l-2.8 2.7v5.2h18.7z"/>
</svg>
