<svg xmlns="http://www.w3.org/2000/svg" width="365.567" height="71.122">
<path d="M-118.645 441.874c0-4.946-2.91-7.932-9.765-7.932-1.502 0-3.191.094-4.037.187v16.144c.752.093 2.254.186 3.662.186 6.196 0 10.14-3.266 10.14-8.585zm19.495 43.583h-17.72l-15.013-24.64h-.563v24.64h-14.576v-63.042c5.326-.375 12.146-.469 19.74-.469 14.899 0 23.587 5.342 23.587 18.715 0 8.492-5.23 15.397-13.642 17.45 1.682 2.426 3.271 4.76 4.86 7.092l13.327 20.254zM-245.328 486.41c-4.384 0-8.975-.469-12.985-1.405l.645-13.813c3.545 1.308 8.889 2.666 13.461 2.666 5.348 0 9.194-2.242 9.194-6.727 0-10.744-24.763-5.421-25.24-26.345-.27-11.85 9.328-19.678 25.146-19.678 3.358 0 7.556.373 11.473 1.118l-.03 12.867c-3.544-1.028-8.271-1.968-12.006-1.968-6.097 0-9.006 2.616-9.006 6.166 0 9.81 25.24 6.073 25.24 25.785 0 12.248-9.794 21.333-25.892 21.333z" style="fill:#fff;fill-rule:evenodd;stroke:#fff;stroke-width:.53537226" transform="translate(260.527 -418.391)"/>
<path style="fill:#fff;fill-rule:evenodd;stroke:#fff" transform="translate(-5.037 -8.19) scale(1.06214)" d="m75.563 32.772 6.72 38.11H97.77l10.492-59.376H94.437l-5.983 36.756-5.982-36.756H68.655l-5.983 36.756-5.982-36.756H42.866l10.492 59.376h15.486z"/>
<path style="fill:#e20030;fill-rule:evenodd;stroke:#e20030" transform="translate(-5.037 -8.19) scale(1.06214)" d="m166.761 74.171 32.71-32.98-32.71-32.98v21.457l11.523 11.523-11.523 11.523z"/>
<path style="fill:#e20030;fill-rule:evenodd;stroke:#e20030" transform="translate(-5.037 -8.19) scale(1.06214)" d="m196.151 74.171 32.71-32.98-32.71-32.98v21.457l11.523 11.523-11.523 11.523z"/>
<path style="font-size:96.67694855px;font-style:normal;font-variant:normal;font-weight:500;font-stretch:normal;text-align:start;line-height:125%;letter-spacing:0;word-spacing:0;writing-mode:lr-tb;text-anchor:start;fill:#fff;fill-opacity:1;stroke:none;font-family:TheSansCorrespondence;-inkscape-font-specification:TheSansCorrespondence Medium" d="M44.225 486.387h-8.314V456.03H1.88v30.357H-6.53V421.13h8.41v27.843h34.03V421.13h8.315v65.257M105.04 453.033c0 5.608-.902 10.506-2.707 14.695-1.804 4.19-4.318 7.702-7.54 10.538-3.223 2.771-7.026 4.866-11.408 6.284-4.383 1.418-9.152 2.127-14.309 2.127-1.289 0-2.739-.032-4.35-.097-1.547 0-3.255-.032-5.124-.097a106.052 106.052 0 0 0-4.157-.096h-2.707v-65.16h2.417c.902 0 1.901-.033 2.997-.097 6.058-.193 10.699-.29 13.921-.29 10.57 0 18.691 2.642 24.363 7.927 5.736 5.285 8.604 13.374 8.604 24.266m-8.797.58c0-17.337-8.347-26.006-25.04-26.006-1.289 0-2.513.065-3.673.194-1.096.064-2.868.096-5.318.096H61.15v51.239c1.225.193 2.642.354 4.254.483 1.611.065 3.126.097 4.544.097 3.996 0 7.605-.548 10.827-1.643 3.223-1.096 5.962-2.74 8.218-4.93 2.32-2.192 4.093-4.9 5.317-8.122 1.29-3.287 1.934-7.09 1.934-11.408" transform="translate(260.527 -418.391)"/>
</svg>