<?xml version="1.0" encoding="UTF-8"?>
<!DOCTYPE svg PUBLIC "-//W3C//DTD SVG 1.1//EN" "http://www.w3.org/Graphics/SVG/1.1/DTD/svg11.dtd">
<svg xmlns="http://www.w3.org/2000/svg" version="1.1" width="320px" height="106px" style="shape-rendering:geometricPrecision; text-rendering:geometricPrecision; image-rendering:optimizeQuality; fill-rule:evenodd; clip-rule:evenodd" xmlns:xlink="http://www.w3.org/1999/xlink">
<g><path fill="#ffffff" d="M 284.5,-0.5 C 292.833,-0.5 301.167,-0.5 309.5,-0.5C 309.167,16.8461 309.5,34.1795 310.5,51.5C 313.484,52.2746 316.484,52.9413 319.5,53.5C 319.5,61.5 319.5,69.5 319.5,77.5C 300.833,77.5 282.167,77.5 263.5,77.5C 263.5,69.5 263.5,61.5 263.5,53.5C 268.15,52.7404 272.817,52.0738 277.5,51.5C 277.83,45.1318 277.496,38.7985 276.5,32.5C 273.618,34.1079 270.618,35.4413 267.5,36.5C 266.914,36.2907 266.414,35.9574 266,35.5C 264.43,26.5727 262.597,17.7393 260.5,9C 268.639,5.90405 276.639,2.73739 284.5,-0.5 Z"/></g>
<g><path fill="#e10030" d="M -0.5,0.5 C 12.8123,13.1457 25.8123,26.1457 38.5,39.5C 25.8123,52.8543 12.8123,65.8543 -0.5,78.5C -0.5,69.5 -0.5,60.5 -0.5,51.5C 3.8123,47.8544 7.8123,43.8544 11.5,39.5C 7.8123,35.1456 3.8123,31.1456 -0.5,27.5C -0.5,18.5 -0.5,9.5 -0.5,0.5 Z"/></g>
<g><path fill="#e20030" d="M 33.5,0.5 C 46.952,13.1193 59.952,26.286 72.5,40C 60.361,53.306 47.6943,66.1394 34.5,78.5C 33.3348,69.8525 33.1681,61.1858 34,52.5C 38.3487,48.3184 42.5154,43.9851 46.5,39.5C 42.5154,35.0149 38.3487,30.6816 34,26.5C 33.5002,17.8397 33.3336,9.17307 33.5,0.5 Z"/></g>
<g><path fill="#ffffff" d="M 106.5,2.5 C 111.734,2.95912 116.9,3.62578 122,4.5C 122.499,9.48892 122.666,14.4889 122.5,19.5C 116.277,17.7314 109.943,17.2314 103.5,18C 98.1832,20.5799 97.5165,23.9132 101.5,28C 107.252,30.4735 112.919,33.1402 118.5,36C 126.063,41.6979 128.563,49.1979 126,58.5C 122.993,67.5051 116.827,73.0051 107.5,75C 99.1316,75.7404 90.7982,75.5737 82.5,74.5C 83.1942,69.1951 83.5276,63.8617 83.5,58.5C 88.4649,59.6057 93.4649,60.6057 98.5,61.5C 101.272,60.9743 103.938,60.1409 106.5,59C 109.425,55.304 109.092,51.9707 105.5,49C 100.997,46.6105 96.3308,44.6105 91.5,43C 81.6092,36.6658 78.4425,27.8325 82,16.5C 87.5785,7.29436 95.7451,2.62769 106.5,2.5 Z"/></g>
<g><path fill="#ffffff" d="M 125.5,4.5 C 131.167,4.5 136.833,4.5 142.5,4.5C 144.557,17.84 146.723,31.1734 149,44.5C 151.061,31.1364 153.227,17.8031 155.5,4.5C 161.206,4.17124 166.872,4.50457 172.5,5.5C 174.88,17.7801 177.047,30.1134 179,42.5C 181.704,29.9461 183.87,17.2795 185.5,4.5C 191.509,4.33385 197.509,4.50051 203.5,5C 199.07,27.7428 194.903,50.5761 191,73.5C 184.59,74.4777 178.09,74.811 171.5,74.5C 169.196,60.811 166.696,47.1443 164,33.5C 161.667,46.8333 159.333,60.1667 157,73.5C 150.556,74.81 144.056,74.81 137.5,73.5C 132.985,50.5931 128.985,27.5931 125.5,4.5 Z"/></g>
<g><path fill="#ffffff" d="M 214.5,3.5 C 225.067,2.82635 235.401,3.99302 245.5,7C 249.817,9.31513 252.65,12.8151 254,17.5C 257.295,30.6645 252.795,39.8311 240.5,45C 247.205,54.242 253.539,63.742 259.5,73.5C 252.5,74.8333 245.5,74.8333 238.5,73.5C 233.468,65.6313 228.635,57.6313 224,49.5C 223.5,57.8267 223.334,66.16 223.5,74.5C 217.5,74.5 211.5,74.5 205.5,74.5C 205.5,51.1667 205.5,27.8333 205.5,4.5C 208.713,4.81 211.713,4.47667 214.5,3.5 Z M 223.5,18.5 C 235.998,17.1325 239.665,21.9659 234.5,33C 231.077,34.9039 227.41,35.7372 223.5,35.5C 223.5,29.8333 223.5,24.1667 223.5,18.5 Z"/></g>
<g><path fill="#f8c903" d="M 282.5,57.5 C 283.824,46.3265 283.824,34.9931 282.5,23.5C 281.893,23.6236 281.56,23.9569 281.5,24.5C 277.901,25.6988 274.235,26.6988 270.5,27.5C 269.965,23.4893 269.298,19.4893 268.5,15.5C 268.57,14.2284 268.903,13.0617 269.5,12C 274.833,10 280.167,8 285.5,6C 291.491,5.50051 297.491,5.33385 303.5,5.5C 303.5,22.8333 303.5,40.1667 303.5,57.5C 307.179,57.7244 310.846,58.0578 314.5,58.5C 314.5,62.8333 314.5,67.1667 314.5,71.5C 299.5,71.5 284.5,71.5 269.5,71.5C 269.5,67.1667 269.5,62.8333 269.5,58.5C 273.81,57.9198 278.143,57.5865 282.5,57.5 Z"/></g>
<g><path fill="#304f46" d="M 281.5,24.5 C 281.56,23.9569 281.893,23.6236 282.5,23.5C 283.824,34.9931 283.824,46.3265 282.5,57.5C 282.828,46.3206 282.495,35.3206 281.5,24.5 Z"/></g>
<g><path fill="#ffffff" d="M 143.5,80.5 C 147.846,80.3343 152.179,80.501 156.5,81C 159.343,84.6187 159.01,87.952 155.5,91C 157,93.1667 158.5,95.3333 160,97.5C 160.499,91.8431 160.666,86.1764 160.5,80.5C 161.833,80.5 163.167,80.5 164.5,80.5C 164.34,82.1992 164.506,83.8659 165,85.5C 167.42,84.5119 169.753,84.8452 172,86.5C 172.499,90.8206 172.666,95.1539 172.5,99.5C 171.5,99.5 170.5,99.5 169.5,99.5C 169.665,96.1501 169.498,92.8168 169,89.5C 167.667,88.1667 166.333,88.1667 165,89.5C 164.502,92.8168 164.335,96.1501 164.5,99.5C 161.428,99.8174 158.428,99.4841 155.5,98.5C 153.896,94.2153 150.896,91.882 146.5,91.5C 146.5,94.1667 146.5,96.8333 146.5,99.5C 145.5,99.5 144.5,99.5 143.5,99.5C 143.5,93.1667 143.5,86.8333 143.5,80.5 Z M 146.5,83.5 C 148.857,83.3367 151.19,83.5034 153.5,84C 154.925,85.7141 154.592,87.0475 152.5,88C 150.527,88.4955 148.527,88.6621 146.5,88.5C 146.5,86.8333 146.5,85.1667 146.5,83.5 Z"/></g>
<g><path fill="#ffffff" d="M 207.5,80.5 C 208.833,80.5 210.167,80.5 211.5,80.5C 211.5,86.8333 211.5,93.1667 211.5,99.5C 210.167,99.5 208.833,99.5 207.5,99.5C 207.5,93.1667 207.5,86.8333 207.5,80.5 Z"/></g>
<g><path fill="#ffffff" d="M 249.5,80.5 C 250.5,80.5 251.5,80.5 252.5,80.5C 252.5,86.8333 252.5,93.1667 252.5,99.5C 249.644,99.0717 246.644,98.905 243.5,99C 240.572,95.7428 239.738,91.9094 241,87.5C 243.192,85.2629 245.692,84.5962 248.5,85.5C 249.452,83.9547 249.785,82.288 249.5,80.5 Z M 244.5,88.5 C 248.648,88.4531 250.148,90.4531 249,94.5C 246.188,97.1905 244.355,96.5238 243.5,92.5C 243.846,91.1508 244.179,89.8175 244.5,88.5 Z"/></g>
<g><path fill="#ffffff" d="M 300.5,80.5 C 301.5,80.5 302.5,80.5 303.5,80.5C 303.5,86.8333 303.5,93.1667 303.5,99.5C 302.5,99.5 301.5,99.5 300.5,99.5C 300.5,93.1667 300.5,86.8333 300.5,80.5 Z"/></g>
<g><path fill="#ffffff" d="M 188.5,80.5 C 189.5,80.5 190.5,80.5 191.5,80.5C 191.5,81.8333 191.5,83.1667 191.5,84.5C 190.5,84.5 189.5,84.5 188.5,84.5C 188.5,83.1667 188.5,81.8333 188.5,80.5 Z"/></g>
<g><path fill="#ffffff" d="M 178.5,84.5 C 185.661,84.7642 187.995,87.9309 185.5,94C 186.167,94.3333 186.833,94.6667 187.5,95C 184.917,99.3273 181.251,100.494 176.5,98.5C 172.668,93.1689 173.334,88.5022 178.5,84.5 Z M 178.5,88.5 C 180.429,88.2308 182.095,88.7308 183.5,90C 181.5,90.6667 179.5,90.6667 177.5,90C 178.056,89.6174 178.389,89.1174 178.5,88.5 Z M 177.5,94.5 C 179.364,93.2072 181.364,93.2072 183.5,94.5C 181.604,96.9994 179.604,96.9994 177.5,94.5 Z"/></g>
<g><path fill="#ffffff" d="M 199.5,84.5 C 201.582,84.472 203.416,85.1387 205,86.5C 205.499,90.8206 205.666,95.1539 205.5,99.5C 204.5,99.5 203.5,99.5 202.5,99.5C 202.665,96.1501 202.498,92.8168 202,89.5C 200.667,88.1667 199.333,88.1667 198,89.5C 197.502,92.8168 197.335,96.1501 197.5,99.5C 196.5,99.5 195.5,99.5 194.5,99.5C 194.5,94.8333 194.5,90.1667 194.5,85.5C 196.415,85.7845 198.081,85.4511 199.5,84.5 Z"/></g>
<g><path fill="#ffffff" d="M 217.5,84.5 C 219.936,84.317 222.103,84.9837 224,86.5C 225.29,90.7305 225.79,95.0638 225.5,99.5C 222.846,98.1785 220.179,98.1785 217.5,99.5C 213.5,99.3371 212,97.3371 213,93.5C 213.5,92.3333 214.333,91.5 215.5,91C 212.015,90.5073 211.515,89.0073 214,86.5C 215.302,85.9152 216.469,85.2485 217.5,84.5 Z M 218.5,87.5 C 219.643,87.9081 220.643,88.5748 221.5,89.5C 219.833,90.8333 218.167,90.8333 216.5,89.5C 217.243,88.8182 217.909,88.1515 218.5,87.5 Z M 217.5,93.5 C 222.508,93.3557 222.674,94.3557 218,96.5C 216.317,95.8235 216.15,94.8235 217.5,93.5 Z"/></g>
<g><path fill="#ffffff" d="M 232.5,84.5 C 234.582,84.472 236.416,85.1387 238,86.5C 238.499,90.8206 238.666,95.1539 238.5,99.5C 237.5,99.5 236.5,99.5 235.5,99.5C 235.665,96.1501 235.498,92.8168 235,89.5C 233.667,88.1667 232.333,88.1667 231,89.5C 230.502,92.8168 230.335,96.1501 230.5,99.5C 229.5,99.5 228.5,99.5 227.5,99.5C 227.5,94.8333 227.5,90.1667 227.5,85.5C 229.415,85.7845 231.081,85.4511 232.5,84.5 Z"/></g>
<g><path fill="#ffffff" d="M 283.5,79.5 C 285.532,80.0478 286.532,81.3812 286.5,83.5C 285.325,83.281 284.325,83.6143 283.5,84.5C 286.283,86.412 289.283,86.412 292.5,84.5C 294.697,84.8481 296.53,85.8481 298,87.5C 298.499,91.4862 298.666,95.4862 298.5,99.5C 294.921,99.0804 291.254,98.9138 287.5,99C 284.735,96.0337 285.068,93.367 288.5,91C 287.1,89.5619 285.433,88.7286 283.5,88.5C 283.5,92.1667 283.5,95.8333 283.5,99.5C 282.5,99.5 281.5,99.5 280.5,99.5C 280.823,95.774 280.489,92.1073 279.5,88.5C 278.914,88.2907 278.414,87.9574 278,87.5C 275.342,91.5626 271.509,93.2293 266.5,92.5C 266.5,94.8333 266.5,97.1667 266.5,99.5C 265.5,99.5 264.5,99.5 263.5,99.5C 263.5,93.1667 263.5,86.8333 263.5,80.5C 267.514,80.3345 271.514,80.5012 275.5,81C 276.726,82.6349 278.059,84.1349 279.5,85.5C 279.975,82.7993 281.308,80.7993 283.5,79.5 Z M 266.5,83.5 C 268.527,83.3379 270.527,83.5045 272.5,84C 274.592,84.9525 274.925,86.2859 273.5,88C 271.19,88.4966 268.857,88.6633 266.5,88.5C 266.5,86.8333 266.5,85.1667 266.5,83.5 Z M 290.5,88.5 C 291.978,88.238 293.311,88.5713 294.5,89.5C 292.926,90.6309 291.259,90.7975 289.5,90C 290.056,89.6174 290.389,89.1174 290.5,88.5 Z M 290.5,93.5 C 295.276,93.6708 295.609,94.6708 291.5,96.5C 289.197,96.1237 288.863,95.1237 290.5,93.5 Z"/></g>
<g><path fill="#ffffff" d="M 305.5,85.5 C 309.167,85.5 312.833,85.5 316.5,85.5C 315.569,89.8413 313.236,93.3413 309.5,96C 312.146,96.4974 314.813,96.6641 317.5,96.5C 317.5,97.5 317.5,98.5 317.5,99.5C 313.167,99.5 308.833,99.5 304.5,99.5C 305.319,95.1474 307.652,91.6474 311.5,89C 309.527,88.5045 307.527,88.3379 305.5,88.5C 305.5,87.5 305.5,86.5 305.5,85.5 Z"/></g>
<g><path fill="#ffffff" d="M 188.5,85.5 C 189.5,85.5 190.5,85.5 191.5,85.5C 191.5,90.1667 191.5,94.8333 191.5,99.5C 190.5,99.5 189.5,99.5 188.5,99.5C 188.5,94.8333 188.5,90.1667 188.5,85.5 Z"/></g>
<g><path fill="#ffffff" d="M 253.5,90.5 C 256.167,90.5 258.833,90.5 261.5,90.5C 261.5,91.5 261.5,92.5 261.5,93.5C 258.833,93.5 256.167,93.5 253.5,93.5C 253.5,92.5 253.5,91.5 253.5,90.5 Z"/></g>
</svg>
