<svg xmlns="http://www.w3.org/2000/svg" id="SWR4" viewBox="0 0 300 76.1">
  <path fill="#93C030" d="M0 2.8v23.3l12 12-12 13v22.8l35.3-35.6zm91.2 20.8c0-3.6 2.9-6.3 9.1-6.3 3.8 0 8.1.8 11.7 1.8v-13c-3.9-.7-7.7-1-11.1-1-16 0-25.8 8-25.5 20 .5 21.2 25.6 15.8 25.6 26.7 0 4.5-3.9 6.8-9.3 6.8-4.7 0-10.1-1.2-13.7-2.5l-1 14c4.1.9 9.1 1.2 13.5 1.2 16.3 0 26.3-9.2 26.3-21.5 0-20-25.6-16.2-25.6-26.2zm80.6-17.3L165.3 46l-6.4-39.7H144L137.5 46l-6.4-39.7h-14.9L127 70.1h17l7.4-40.8 7.6 40.8h16l11.7-63.8h-14.9zM291 44.1V.1h-25l-26.4 45.1 1.4 14.9h32v16h17v-16h10v-16h-9zm-18 0h-15l15-26v26zm-52.7-1.6c8.5-2.1 13.8-9.1 13.8-17.7 0-13.6-8.8-19-23.9-19-7.7 0-14.8-.1-20.2.3v64h15V45.3h.6L221 70.1h18l-13.8-20.4c-1.6-2.4-3.2-4.7-4.9-7.2zM209 34.1c-1.4 0-3.2.1-4 0v-16c.9-.1 2.7-.1 4.2-.1 6.9 0 9.9 3.1 9.9 8.1 0 5.4-3.8 8-10.1 8z"/>
  <path fill="#93C030" d="M31 26l13.1 12.3L31 51.2v22.9l35.9-35.8L31 3.1z"/>
</svg>
