<?xml version="1.0" encoding="UTF-8"?>
<!DOCTYPE svg PUBLIC "-//W3C//DTD SVG 1.1//EN" "http://www.w3.org/Graphics/SVG/1.1/DTD/svg11.dtd">
<svg xmlns="http://www.w3.org/2000/svg" version="1.1" width="276px" height="59px" style="shape-rendering:geometricPrecision; text-rendering:geometricPrecision; image-rendering:optimizeQuality; fill-rule:evenodd; clip-rule:evenodd" xmlns:xlink="http://www.w3.org/1999/xlink">
<g><path fill="#e6fc00" d="M 10.5,1.5 C 23.5,1.5 36.5,1.5 49.5,1.5C 49.5,8.83333 49.5,16.1667 49.5,23.5C 41.5,23.5 33.5,23.5 25.5,23.5C 25.5,24.8333 25.5,26.1667 25.5,27.5C 33.1739,27.3336 40.8406,27.5003 48.5,28C 49.6406,33.7504 49.8072,39.5837 49,45.5C 45.8333,48.6667 42.6667,51.8333 39.5,55C 26.8333,55.6667 14.1667,55.6667 1.5,55C 0.166667,48 0.166667,41 1.5,34C 9.15943,33.5003 16.8261,33.3336 24.5,33.5C 24.5,32.1667 24.5,30.8333 24.5,29.5C 16.5803,29.815 8.74695,29.4817 1,28.5C 0.333333,22.8333 0.333333,17.1667 1,11.5C 4.37086,8.29747 7.53753,4.96414 10.5,1.5 Z"/></g>
<g><path fill="#e6fc00" d="M 54.5,1.5 C 62.4197,1.18496 70.253,1.51829 78,2.5C 78.4997,10.8267 78.6664,19.16 78.5,27.5C 79.8333,27.5 81.1667,27.5 82.5,27.5C 82.3336,19.16 82.5003,10.8267 83,2.5C 91,1.16667 99,1.16667 107,2.5C 107.667,11.5 107.667,20.5 107,29.5C 102.333,34.1667 97.6667,38.8333 93,43.5C 92.5012,47.4862 92.3345,51.4862 92.5,55.5C 84.5,55.5 76.5,55.5 68.5,55.5C 68.6655,51.4862 68.4988,47.4862 68,43.5C 63.3333,38.8333 58.6667,34.1667 54,29.5C 53.1954,20.0891 53.362,10.7557 54.5,1.5 Z"/></g>
<g><path fill="#e6fc00" d="M 121.5,1.5 C 134.413,1.17755 147.246,1.51089 160,2.5C 160.811,9.41431 160.645,16.2476 159.5,23C 151.841,23.4997 144.174,23.6664 136.5,23.5C 136.5,24.8333 136.5,26.1667 136.5,27.5C 144.174,27.3336 151.841,27.5003 159.5,28C 160.833,34.6667 160.833,41.3333 159.5,48C 151.841,48.4997 144.174,48.6664 136.5,48.5C 136.756,50.7925 136.423,52.9592 135.5,55C 127.507,55.4997 119.507,55.6664 111.5,55.5C 111.333,40.8295 111.5,26.1629 112,11.5C 115.371,8.29747 118.538,4.96414 121.5,1.5 Z"/></g>
<g><path fill="#e6fc00" d="M 165.5,1.5 C 173.42,1.18496 181.253,1.51829 189,2.5C 189.5,10.8267 189.666,19.16 189.5,27.5C 190.833,27.5 192.167,27.5 193.5,27.5C 193.334,19.16 193.5,10.8267 194,2.5C 201.747,1.51829 209.58,1.18496 217.5,1.5C 217.666,10.8393 217.5,20.1726 217,29.5C 212.299,33.8658 207.966,38.5325 204,43.5C 203.501,47.4862 203.334,51.4862 203.5,55.5C 195.5,55.5 187.5,55.5 179.5,55.5C 179.666,51.4862 179.499,47.4862 179,43.5C 174.333,38.8333 169.667,34.1667 165,29.5C 164.195,20.0891 164.362,10.7557 165.5,1.5 Z"/></g>
<g><path fill="#e6fc00" d="M 234.5,1.5 C 235.833,1.5 237.167,1.5 238.5,1.5C 238.5,4.16667 238.5,6.83333 238.5,9.5C 241.167,9.5 243.833,9.5 246.5,9.5C 246.5,6.83333 246.5,4.16667 246.5,1.5C 248.167,1.5 249.833,1.5 251.5,1.5C 251.5,8.16667 251.5,14.8333 251.5,21.5C 249.833,21.5 248.167,21.5 246.5,21.5C 246.5,18.5 246.5,15.5 246.5,12.5C 243.833,12.5 241.167,12.5 238.5,12.5C 238.5,15.5 238.5,18.5 238.5,21.5C 237.167,21.5 235.833,21.5 234.5,21.5C 234.5,14.8333 234.5,8.16667 234.5,1.5 Z"/></g>
<g><path fill="#e6fc00" d="M 256.5,1.5 C 260.846,1.33432 265.179,1.50098 269.5,2C 275.24,7.04151 275.907,12.7082 271.5,19C 266.777,21.2355 261.777,22.0688 256.5,21.5C 256.5,14.8333 256.5,8.16667 256.5,1.5 Z M 261.5,4.5 C 269.632,5.32229 271.632,9.32229 267.5,16.5C 265.591,17.3482 263.591,17.6816 261.5,17.5C 261.5,13.1667 261.5,8.83333 261.5,4.5 Z"/></g>
</svg>
