<?xml version="1.0" encoding="UTF-8"?>
<!DOCTYPE svg PUBLIC "-//W3C//DTD SVG 1.1//EN" "http://www.w3.org/Graphics/SVG/1.1/DTD/svg11.dtd">
<svg xmlns="http://www.w3.org/2000/svg" version="1.1" width="460px" height="90px" style="shape-rendering:geometricPrecision; text-rendering:geometricPrecision; image-rendering:optimizeQuality; fill-rule:evenodd; clip-rule:evenodd" xmlns:xlink="http://www.w3.org/1999/xlink">
<g><path style="opacity:1" fill="#d61d29" d="M -0.5,-0.5 C 152.5,-0.5 305.5,-0.5 458.5,-0.5C 458.5,0.166667 458.833,0.5 459.5,0.5C 459.5,29.5 459.5,58.5 459.5,87.5C 458.5,87.8333 457.833,88.5 457.5,89.5C 305.167,89.5 152.833,89.5 0.5,89.5C 0.5,88.8333 0.166667,88.5 -0.5,88.5C -0.5,58.8333 -0.5,29.1667 -0.5,-0.5 Z"/></g>
<g><path style="opacity:1" fill="#f6f4f4" d="M 6.5,4.5 C 113.501,4.33333 220.501,4.5 327.5,5C 328,5.5 328.5,6 329,6.5C 329.667,31.8333 329.667,57.1667 329,82.5C 328.5,83 328,83.5 327.5,84C 220.5,84.6667 113.5,84.6667 6.5,84C 6,83.5 5.5,83 5,82.5C 4.33333,57.1667 4.33333,31.8333 5,6.5C 5.71719,5.9558 6.21719,5.28913 6.5,4.5 Z"/></g>
<g><path style="opacity:1" fill="#d83432" d="M 67.5,17.5 C 72.3276,17.3852 73.6609,19.5519 71.5,24C 66.1766,24.1802 64.8433,22.0136 67.5,17.5 Z"/></g>
<g><path style="opacity:1" fill="#d93834" d="M 77.5,17.5 C 81.9346,17.7521 83.268,19.9188 81.5,24C 75.7377,24.4178 74.4044,22.2511 77.5,17.5 Z"/></g>
<g><path style="opacity:1" fill="#efafb3" d="M 350.5,24.5 C 363.656,23.5044 376.99,23.1711 390.5,23.5C 390.5,26.5 390.5,29.5 390.5,32.5C 385.833,32.5 381.167,32.5 376.5,32.5C 380.634,31.5151 384.968,31.1818 389.5,31.5C 389.5,29.1667 389.5,26.8333 389.5,24.5C 376.5,24.5 363.5,24.5 350.5,24.5 Z"/></g>
<g><path style="opacity:1" fill="#fcfcfd" d="M 350.5,24.5 C 363.5,24.5 376.5,24.5 389.5,24.5C 389.5,26.8333 389.5,29.1667 389.5,31.5C 384.968,31.1818 380.634,31.5151 376.5,32.5C 375.505,43.3206 375.172,54.3206 375.5,65.5C 371.833,65.5 368.167,65.5 364.5,65.5C 364.828,54.3206 364.495,43.3206 363.5,32.5C 359.167,32.5 354.833,32.5 350.5,32.5C 350.5,29.8333 350.5,27.1667 350.5,24.5 Z"/></g>
<g><path style="opacity:1" fill="#fcf4f5" d="M 393.5,23.5 C 397.5,23.5 401.5,23.5 405.5,23.5C 408.165,33.1605 411.665,42.4938 416,51.5C 419.53,42.5771 422.863,33.5771 426,24.5C 430.118,23.2023 434.285,23.2023 438.5,24.5C 433.432,38.2056 428.265,51.8722 423,65.5C 418.263,66.4692 413.43,66.8025 408.5,66.5C 403.211,52.2576 398.211,37.9243 393.5,23.5 Z"/></g>
<g><path style="opacity:1" fill="#d83130" d="M 31.5,25.5 C 37.9566,24.0877 42.9566,26.0877 46.5,31.5C 43.6768,35.6099 41.0101,35.4432 38.5,31C 32.7442,29.8137 31.0776,31.9803 33.5,37.5C 38.478,40.6445 42.6447,44.6445 46,49.5C 48.2117,56.3394 46.045,61.1727 39.5,64C 32.3588,65.2636 27.3588,62.597 24.5,56C 25.2125,54.558 26.3791,53.7247 28,53.5C 30.0736,56.0779 32.5736,58.0779 35.5,59.5C 38.9936,58.7693 40.9936,56.6026 41.5,53C 36.5884,47.9489 31.755,42.7822 27,37.5C 25.4783,32.2412 26.9783,28.2412 31.5,25.5 Z"/></g>
<g><path style="opacity:1" fill="#d72d2f" d="M 248.5,25.5 C 269.546,23.7047 278.046,33.038 274,53.5C 267.933,63.1891 259.433,66.3558 248.5,63C 238.62,57.7383 234.787,49.5716 237,38.5C 239.3,32.7063 243.133,28.373 248.5,25.5 Z"/></g>
<g><path style="opacity:1" fill="#db423a" d="M 62.5,25.5 C 64.1439,25.2865 65.6439,25.6198 67,26.5C 67.3333,36.1667 67.6667,45.8333 68,55.5C 72.2861,60.8148 76.6194,60.8148 81,55.5C 81.3333,45.8333 81.6667,36.1667 82,26.5C 83.6667,25.1667 85.3333,25.1667 87,26.5C 87.6667,35.1667 87.6667,43.8333 87,52.5C 84.0489,63.891 77.2156,67.0577 66.5,62C 64.3834,60.2691 62.8834,58.1024 62,55.5C 61.1934,45.4229 61.36,35.4229 62.5,25.5 Z"/></g>
<g><path style="opacity:1" fill="#da3b36" d="M 103.5,25.5 C 111.832,24.684 119.832,25.8507 127.5,29C 134.137,34.7106 136.304,41.8772 134,50.5C 132.5,57.3333 128.333,61.5 121.5,63C 115.251,63.8087 109.084,63.642 103,62.5C 102.188,50.0911 102.355,37.7577 103.5,25.5 Z"/></g>
<g><path style="opacity:1" fill="#d83030" d="M 153.5,62.5 C 153.5,51.8333 153.5,41.1667 153.5,30.5C 150.833,30.5 148.167,30.5 145.5,30.5C 145.5,28.8333 145.5,27.1667 145.5,25.5C 152.5,25.5 159.5,25.5 166.5,25.5C 166.5,27.5 166.5,29.5 166.5,31.5C 163.833,31.5 161.167,31.5 158.5,31.5C 158.5,42.1667 158.5,52.8333 158.5,63.5C 156.585,63.7845 154.919,63.4511 153.5,62.5 Z"/></g>
<g><path style="opacity:1" fill="#d6232b" d="M 178.5,25.5 C 180.167,25.5 181.833,25.5 183.5,25.5C 183.5,38.1667 183.5,50.8333 183.5,63.5C 181.833,63.5 180.167,63.5 178.5,63.5C 178.5,50.8333 178.5,38.1667 178.5,25.5 Z"/></g>
<g><path style="opacity:1" fill="#d83332" d="M 199.5,25.5 C 204.844,25.334 210.177,25.5006 215.5,26C 224.88,30.9916 225.88,37.3249 218.5,45C 216.5,45.8333 214.5,46.6667 212.5,47.5C 216.411,52.3224 220.078,57.3224 223.5,62.5C 221.579,63.641 219.579,63.8077 217.5,63C 213.333,57.5 209.167,52 205,46.5C 204.501,52.1569 204.334,57.8236 204.5,63.5C 202.833,63.5 201.167,63.5 199.5,63.5C 199.5,50.8333 199.5,38.1667 199.5,25.5 Z"/></g>
<g><path style="opacity:1" fill="#d61d29" d="M 290.5,26.5 C 291.833,26.5 293.167,26.5 294.5,26.5C 294.172,37.3464 294.506,48.0131 295.5,58.5C 299.833,58.5 304.167,58.5 308.5,58.5C 308.5,60.1667 308.5,61.8333 308.5,63.5C 302.5,63.5 296.5,63.5 290.5,63.5C 290.5,51.1667 290.5,38.8333 290.5,26.5 Z"/></g>
<g><path style="opacity:1" fill="#df6551" d="M 290.5,26.5 C 291.919,25.5489 293.585,25.2155 295.5,25.5C 295.5,36.5 295.5,47.5 295.5,58.5C 294.506,48.0131 294.172,37.3464 294.5,26.5C 293.167,26.5 291.833,26.5 290.5,26.5 Z"/></g>
<g><path style="opacity:1" fill="#f6f3f2" d="M 250.5,30.5 C 259.264,28.8021 265.764,31.8021 270,39.5C 271.86,52.9606 266.027,59.4606 252.5,59C 242.354,54.2272 239.521,46.7272 244,36.5C 246.063,34.2659 248.229,32.2659 250.5,30.5 Z"/></g>
<g><path style="opacity:1" fill="#f6f6f5" d="M 108.5,31.5 C 116.142,30.1021 122.642,32.1021 128,37.5C 131.517,53.4894 125.017,60.4894 108.5,58.5C 108.5,49.5 108.5,40.5 108.5,31.5 Z"/></g>
<g><path style="opacity:1" fill="#ecb6a6" d="M 145.5,30.5 C 148.167,30.5 150.833,30.5 153.5,30.5C 153.5,41.1667 153.5,51.8333 153.5,62.5C 152.506,52.3468 152.172,42.0135 152.5,31.5C 149.941,31.8016 147.607,31.4682 145.5,30.5 Z"/></g>
<g><path style="opacity:1" fill="#f6f5f4" d="M 204.5,31.5 C 208.182,31.3347 211.848,31.5014 215.5,32C 217.68,34.4177 218.013,37.0844 216.5,40C 212.605,41.2662 208.605,41.7662 204.5,41.5C 204.5,38.1667 204.5,34.8333 204.5,31.5 Z"/></g>
<g><path style="opacity:1" fill="#e78584" d="M 363.5,32.5 C 364.495,43.3206 364.828,54.3206 364.5,65.5C 368.167,65.5 371.833,65.5 375.5,65.5C 375.172,54.3206 375.505,43.3206 376.5,32.5C 376.5,43.8333 376.5,55.1667 376.5,66.5C 372.167,66.5 367.833,66.5 363.5,66.5C 363.5,55.1667 363.5,43.8333 363.5,32.5 Z"/></g>
</svg>
