<svg width="1279.032" height="204.542" xmlns="http://www.w3.org/2000/svg">
<g style="fill:#ffffff;fill-opacity:1">
<path d="M312.688 318.969c-19.33 0-35 15.67-35 35s15.67 35 35 35 35-15.67 35-35-15.67-35-35-35z" style="fill:#fff;fill-opacity:0" transform="matrix(4.26167 0 0 4.21545 -206.691 -1395.086)"/>
<path d="M562.839 16.93v126.594h21.72v-41.628c0-15.091 8.712-27.927 19.779-27.927 8.001 0 10.343 5.471 10.343 14.492v55.063h21.72V83.057c0-15.091-6.144-27.527-25.212-27.527-13.106 0-22.857 6.353-27.793 16.07l-.389-.131c1.192-5.033 1.552-12.318 1.552-17.524V16.93zM33.937 25.098l-12.796 3.688v28.581H2.781v10.277h18.36v51.77c0 17.87 4.952 25.559 21.977 25.559 5.278 0 11.215-.675 15.642-1.712v-11.33c-3.405 1.04-7.765 1.58-12.022 1.58-10.045 0-12.8-3.925-12.8-19.366V67.65H58.76V57.372H33.937zM450.36 55.526c-23.83 0-35.94 12.44-35.94 27.531 0 29.319 34.132 20.572 34.132 35.831 0 5.725-5.362 9.224-13.706 9.224-6.467 0-12.95-1.117-18.228-2.504l-.517 18.181c5.448.869 11.583 1.58 17.71 1.58 23.156 0 37.751-11.452 37.751-28.453 0-27.932-34.648-21.782-34.648-35.832 0-5.379 4.03-8.827 12.544-8.827 5.275 0 10.876.852 15.642 2.239l.646-17.52c-5.106-.868-10.447-1.45-15.386-1.45zm239.95 0c-10.892 0-21.736 2.15-30.25 5.27L662 79.368c7.15-4.161 17.294-6.716 24.951-6.716 12.259 0 16.549 4.68 16.549 13.7v4.612c-28.774 0-48.872 10.973-48.872 31.616 0 13.877 8.854 22.789 24.177 22.789 12.598 0 22.936-6.753 27.02-16.466l.26.127c-.682 4.51-.906 9.464-.906 14.493h20.558a485.71 485.71 0 0 1-.518-22.132V85.43c0-18.733-7.666-29.904-34.908-29.904zm-582.162.266c-11.406 0-21.219 2.811-29.22 6.453l1.163 11.462c7.492-4.856 17.686-7.507 25.856-7.507 14.646 0 19.267 7.275 19.267 20.284V93.6c-33.03 0-51.457 12.52-51.457 30.562 0 13.7 9.693 20.942 23.143 20.942 14.471 0 25.389-8.831 29.476-19.757h.39c-.853 5.029-.907 11.588-.907 18.177h12.54c-.34-7.63-.257-17.318-.257-25.82V83.85c0-16.306-6.673-28.058-29.994-28.058zm92.568 0c-22.986 0-36.845 15.285-36.845 33.327 0 11.103 4.153 19.998 12.668 25.031-5.958 2.774-9.437 8.064-9.437 13.962 0 5.552 3.256 10.087 8.53 12.516-8 4.16-14.607 12.165-14.607 22.919 0 16.482 13.842 25.293 35.293 25.293 26.047 0 44.345-13.532 44.345-31.747 0-15.091-10.053-24.239-28.442-24.239H195.8c-10.554 0-15.386-2.213-15.386-7.246 0-3.12 2.081-6.34 6.338-7.904 3.061.695 7.592 1.184 11.505 1.184 24.347 0 36.845-14.016 36.845-32.404 0-8.152-3.206-14.847-8.146-18.839h15.258V57.372h-28.703c-4.427-1.04-8.03-1.58-12.796-1.58zm92.306 0c-23.494 0-37.105 19.336-37.105 45.185 0 30.183 13.64 44.127 39.178 44.127 10.55 0 20.09-1.842 27.925-5.138l-1.166-11.066c-6.301 3.297-15.713 5.535-24.566 5.535-18.894 0-28.906-10.775-28.05-36.624h56.496c.34-2.6.385-4.89.385-6.45 0-19.083-9.772-35.57-33.097-35.57zm83.776 0c-21.45 0-32.968 10.892-32.968 25.292 0 30.701 41.114 17.781 41.114 38.597 0 9.021-8.427 14.493-20.685 14.493-6.64 0-13.557-1.206-19.006-2.77l-.256 11.989c5.105 1.041 11.542 1.711 17.839 1.711 22.133 0 35.425-11.87 35.425-27.135 0-29.318-41.37-17.561-41.37-38.204 0-8.498 6.189-13.7 18.617-13.7 5.787 0 11.832.99 17.454 2.9l.385-11.196c-5.275-1.042-11.27-1.982-16.549-1.982zm151.265 0c-29.965 0-43.7 20.668-43.7 47.554 0 29.319 14.645 41.758 38.14 41.758 9.022 0 17.354-1.694 23.142-3.95l-1.68-18.969c-4.6 2.428-10.892 3.688-16.68 3.688-14.472 0-20.169-10.02-20.169-24.765 0-16.306 7.025-26.743 20.814-26.743 5.449 0 10.79 1.425 15.39 3.161l2.193-19.235a65.317 65.317 0 0 0-17.45-2.5zm220.945 1.58v60.597c0 15.092 6.143 27.532 25.211 27.532 13.959 0 23.594-7.154 28.7-17.39l.26.266c-.853 4.511-1.035 11.159-1.035 15.147h20.425V57.372h-21.848V99c0 15.091-8.456 27.927-19.523 27.927-8.17 0-10.599-5.34-10.599-14.358V57.372zm-456.631 8.296c12.937 0 20.768 9.038 20.429 22.397h-42.927c2.044-13.532 10.579-22.397 22.498-22.397zm-95.025.266c.869-.072 1.8 0 2.714 0 13.963 0 22.241 7.858 22.241 21.735 0 13.877-9.056 21.604-23.014 21.604-14.302 0-22.626-7.554-22.626-21.604 0-11.87 7.67-20.677 20.685-21.735zm-72.138 37.281v1.316c0 14.922-9.842 30.035-24.823 30.035-8.344 0-13.834-4.975-13.834-12.777 0-8.326 6.822-18.574 38.657-18.574zm578.286 2.239v2.108c0 10.412-7.373 20.815-18.1 20.815-6.3 0-9.954-3.671-9.954-9.223 0-6.939 5.072-13.7 28.054-13.7zM185.847 143.92c1.53.173 3.728.13 5.432.13h17.45c12.941 0 19.262 5.565 19.262 14.755 0 11.449-10.917 19.496-29.472 19.496-14.132 0-24.699-5.889-24.699-16.992 0-7.285 4.708-13.574 12.027-17.39z" style="fill:#fff;fill-rule:evenodd;stroke-width:4.17608" transform="translate(-2.781 10.699)"/>
<g style="fill:#ffffff">
<path d="M1103.313 190.594v349.25h89.406c162.239 0 187.312-82.537 187.312-175.844 0-84.266-26.292-173.406-187.312-173.406zm89.406 75.156h24.937c57.177 0 72.97 54.112 72.969 100.844 0 49.63-16.525 101.656-68.687 101.656h-29.22z" style="fill:#fff;fill-opacity:1;fill-rule:evenodd;stroke:none" transform="matrix(.31865 0 0 .3152 815.027 -15.358)"/>
<path d="M804.813 190.594v349.25h88.218V393.625h103.782v146.219h88.218v-349.25h-88.219V316.28h-103.78V190.594z" style="fill:#ffffff;fill-opacity:1;stroke:none" transform="matrix(.31865 0 0 .3152 815.027 -15.358)"/>
</g>
<path style="opacity:.9;fill:#ffffff" d="M1045.424 39.191h.268v83.782h-.268z" transform="translate(-2.781 10.699)"/>
<path d="M908.127 31.945c-5.821 0-11.783.594-17.844 1.711C884.227 34.727 878 36.312 871.8 38.4V62.24c5.82-3.692 11.31-6.45 16.42-8.296 5.1-1.897 9.797-2.9 14.09-2.9 5.586 0 10.104 1.631 13.446 4.742 3.389 3.111 5.04 7.15 5.043 12.25 0 3.31-.786 6.556-2.457 9.62-1.671 3.06-4.274 6.142-7.757 9.354l-39.046 35.17v20.55h77.699v-20.55h-47.06l22.887-20.42c9.64-8.6 15.87-15.445 18.873-20.55a32.832 32.832 0 0 0 4.526-16.727c0-10.26-3.492-18.24-10.603-23.978-7.058-5.733-16.946-8.561-29.733-8.561zm91.533 1.977-42.794 64.943v24.108h47.32v19.758h26.113v-19.758h15.125v-20.42H1030.3V33.923zm4.526 23.05v45.582H973.93z" style="fill:#ffffff;fill-opacity:1;fill-rule:evenodd;stroke-width:4.17608" transform="translate(-2.781 10.699)"/></g>
</svg>
