<?xml version="1.0" encoding="UTF-8" standalone="no"?>
<svg
   viewBox="0 0 167.37489 118.23265"
   id="logo"
   version="1.1"
   xmlns="http://www.w3.org/2000/svg"
   xmlns:svg="http://www.w3.org/2000/svg">
  <defs
     id="defs14833" />
  <g
     id="g10457">
    <path
       id="rect7718"
       style="fill:#ff23ff;fill-opacity:1;stroke-width:115.091"
       d="M 0,0.157572 V 58.836032 H 1.28364 2.60956 34.00492 34.8043 36.61446 V 0.157572 H 35.30776 2.60956 Z M 2.60956,2.767126 H 34.00492 V 56.226478 H 2.60956 Z" />
    <path
       id="rect3371"
       style="display:inline;fill:#ff23ff;stroke-width:39.2186"
       d="M 16.63674,10.855724 C 12.62602,10.855724 9.20032,14.476486 9.20032,18.435706 V 25.89952 H 27.41798 V 18.435706 C 27.41798,14.476488 23.99278,10.855724 19.98206,10.855724 Z M 16.63674,14.346476 H 19.98206 C 22.76502,14.346476 24.68724,16.40564 24.68724,19.13373 V 22.439726 H 11.9296 V 19.13373 C 11.9296,16.40564 13.63924,14.346476 16.63674,14.346476 Z" />
    <path
       id="path2899"
       style="fill:#ff23ff;fill-opacity:1;stroke-width:1.67537"
       d="M 9.1547,32.423662 V 35.88156 H 16.9881 C 16.99376,38.50316 16.99068,41.124756 16.9881,43.746354 H 9.1547 V 47.20041 H 27.46362 V 43.746354 H 19.84716 V 35.88156 H 27.46362 V 32.423662 Z" />
    <path
       d="M 76.99806,0.003936 V 69.622384 H 119.6192 V 35.692738 H 162.84049 V 0.003936 Z"
       id="path827"
       style="fill:#ff23ff;fill-opacity:1;stroke-width:1.96773" />
    <path
       d="M 162.4253,48.803752 A 48.162272,48.162272 0 1 1 75.82332,90.974272 Z"
       id="path829"
       style="fill:#ff23ff;fill-opacity:1;stroke-width:1.96773" />
    <path
       d="M 52.73196,89.443374 V 101.60201 H 68.19836 V 105.81886 H 52.73196 V 117.97946 H 49.33172 V 89.443374 Z"
       id="path831"
       style="fill:#ff23ff;fill-opacity:1;stroke-width:1.96773" />
    <path
       d="M 56.98818,60.008034 H 60.33332 V 80.167474 H 64.80206 V 59.630228 H 68.1964 V 84.35678 H 49.33566 V 59.630228 H 52.73196 V 80.167474 H 56.99014 Z"
       id="path833"
       style="fill:#ff23ff;fill-opacity:1;stroke-width:1.96773" />
    <path
       d="M 64.74892,29.87021 H 68.1964 V 53.239026 H 49.33566 V 49.022172 H 64.74892 Z"
       id="path835"
       style="fill:#ff23ff;fill-opacity:1;stroke-width:1.96773" />
    <path
       d="M 56.98818,0.38174 H 60.33332 V 20.541182 H 64.80206 V 0 H 68.1964 V 24.734424 H 49.33566 V 0 H 52.73196 V 20.541182 H 56.99014 Z"
       id="path837"
       style="fill:#ff23ff;fill-opacity:1;stroke-width:1.96773" />
  </g>
</svg>
