<?xml version="1.0" encoding="utf-8"?>
<!-- Generator: Adobe Illustrator 24.1.2, SVG Export Plug-In . SVG Version: 6.00 Build 0)  -->
<svg version="1.1"
	 id="svg2985" xmlns:cc="http://creativecommons.org/ns#" xmlns:dc="http://purl.org/dc/elements/1.1/" xmlns:rdf="http://www.w3.org/1999/02/22-rdf-syntax-ns#" xmlns:svg="http://www.w3.org/2000/svg"
	 xmlns="http://www.w3.org/2000/svg" xmlns:xlink="http://www.w3.org/1999/xlink" x="0px" y="0px" viewBox="0 0 538.9 171"
	 enable-background="new 0 0 538.9 171" xml:space="preserve">
<g id="g61819_1_" transform="matrix(38.945465,0,0,-38.94987,-18493.459,8723.4304)">
	<path id="path149833_1_" fill="#FFF0E6" d="M482.8,219.8L482.8,219.8v-0.1l0,0V219.8h0.1l0,0H482.8"/>
	<path id="path149837_1_" fill="#FFF0E6" d="M483.1,219.9v-0.1V219.9H483v-0.2l0,0v0.1v-0.1l0,0L483.1,219.9L483.1,219.9v-0.2l0,0
		V219.9"/>
</g>
<g>
	<g id="g3" transform="translate(-3.78,-3.9340013)">
		<g id="g5">
			<g id="g7">
				<path id="SVGID_3_" fill="#EE2E24" d="M16.5,4.7C10,4.7,4.8,10,4.8,16.4v146.3c0,6.5,5.3,11.7,11.7,11.7H104
					c6.5,0,11.7-5.3,11.7-11.7V16.5c0-6.4-5.3-11.7-11.7-11.7C104,4.7,16.5,4.7,16.5,4.7z"/>
			</g>
			<g id="g10">
				<g>
					<g>
						<g>
							<defs>
								<path id="SVGID_1_" d="M16.5,4.7C10,4.7,4.8,10,4.8,16.4v146.3c0,6.5,5.3,11.7,11.7,11.7H104c6.5,0,11.7-5.3,11.7-11.7V16.5
									c0-6.4-5.3-11.7-11.7-11.7C104,4.7,16.5,4.7,16.5,4.7z"/>
							</defs>
							<clipPath id="SVGID_2_">
								<use xlink:href="#SVGID_1_"  overflow="visible"/>
							</clipPath>
							<rect id="rect18" x="4.8" y="4.7" clip-path="url(#SVGID_2_)" fill="#EE2E24" width="111" height="169.7"/>
						</g>
					</g>
				</g>
			</g>
		</g>
	</g>
	<g id="g20" transform="translate(-3.78,-3.9340013)">
		<g id="g22">
			<g id="g24">
				<path id="SVGID_9_" fill="#EE2E24" d="M138.1,4.7c-6.4,0-11.7,5.3-11.7,11.7v146.3c0,6.5,5.3,11.7,11.7,11.7h87.5
					c6.5,0,11.8-5.3,11.8-11.7V16.5c0-6.4-5.3-11.7-11.8-11.7C225.6,4.7,138.1,4.7,138.1,4.7z"/>
			</g>
			<g id="g27">
				<g>
					<g>
						<g>
							<defs>
								<path id="SVGID_4_" d="M138.1,4.7c-6.4,0-11.7,5.3-11.7,11.7v146.3c0,6.5,5.3,11.7,11.7,11.7h87.5c6.5,0,11.8-5.3,11.8-11.7
									V16.5c0-6.4-5.3-11.7-11.8-11.7C225.6,4.7,138.1,4.7,138.1,4.7z"/>
							</defs>
							<clipPath id="SVGID_5_">
								<use xlink:href="#SVGID_4_"  overflow="visible"/>
							</clipPath>
							<rect id="rect35" x="126.3" y="4.7" clip-path="url(#SVGID_5_)" fill="#EE2E24" width="111" height="169.7"/>
						</g>
					</g>
				</g>
			</g>
		</g>
	</g>
	<g id="g37" transform="translate(-3.78,-3.9340013)">
		<g id="g39">
			<g id="g41">
				<path id="SVGID_15_" fill="#EE2E24" d="M259.6,4.7c-6.5,0-11.7,5.3-11.7,11.7v146.3c0,6.5,5.3,11.7,11.7,11.7h87.5
					c6.4,0,11.7-5.3,11.7-11.7V16.5c0-6.4-5.3-11.7-11.7-11.7C347.2,4.7,259.6,4.7,259.6,4.7z"/>
			</g>
			<g id="g44">
				<g>
					<g>
						<g>
							<defs>
								<path id="SVGID_6_" d="M259.6,4.7c-6.5,0-11.7,5.3-11.7,11.7v146.3c0,6.5,5.3,11.7,11.7,11.7h87.5c6.4,0,11.7-5.3,11.7-11.7
									V16.5c0-6.4-5.3-11.7-11.7-11.7C347.2,4.7,259.6,4.7,259.6,4.7z"/>
							</defs>
							<use xlink:href="#SVGID_6_"  overflow="visible" fill="#EE2E24"/>
							<clipPath id="SVGID_7_">
								<use xlink:href="#SVGID_6_"  overflow="visible"/>
							</clipPath>
							<rect id="rect52" x="247.9" y="4.7" clip-path="url(#SVGID_7_)" fill="#EE2E24" width="111" height="169.7"/>
						</g>
					</g>
				</g>
			</g>
		</g>
	</g>
	<path id="path56" fill="#FFFFFF" d="M87.3,47.6H22.6c-0.7,0-1.4,0.6-1.4,1.4v12.8c0,0.8,0.6,1.4,1.4,1.4h19.2
		c3.2,0,5.8,2.6,5.8,5.8v57.8c0,0.8,0.6,1.4,1.4,1.4h12.8c0.8,0,1.4-0.6,1.4-1.4V69c0-3.2,2.6-5.8,5.8-5.8h18.4
		c0.8,0,1.4-0.6,1.4-1.4V49C88.7,48.2,88.1,47.6,87.3,47.6"/>
	<path id="path58" fill="#FFFFFF" d="M201.4,112.6h-23.6c-4.1,0-7.4-3.3-7.4-7.4V49c0-0.7-0.6-1.4-1.4-1.4h-12.8
		c-0.8,0-1.4,0.6-1.4,1.4v61.1c0,10.2,5.3,18,17.6,18h29c0.8,0,1.4-0.6,1.4-1.4v-12.8C202.8,113.2,202.2,112.6,201.4,112.6"/>
	<path id="path60" fill="#FFFFFF" d="M330.5,115.6l-9-9c-0.5-0.5-1.5-0.5-2,0l0,0c-4.4,4-10.3,6.4-16.7,6.4c-13.8,0-25-11.2-25-25
		s11.2-25,25-25c6.4,0,12.2,2.4,16.7,6.4l0,0c0.5,0.5,1.5,0.5,2,0l9-9.1c0.5-0.5,0.5-1.3,0.1-1.8c-7.3-6.8-17-11-27.8-11
		c-22.4,0-40.6,18.2-40.6,40.6s18.2,40.5,40.6,40.5c10.8,0,20.5-4.2,27.8-11C330.9,116.9,330.9,116.1,330.5,115.6"/>
</g>
<g>
	<path fill="#EE2E24" d="M530.7,62.2c-3.1-10.8-11.1-16.1-22.3-17.6c-10.7-1.3-21.7-0.9-32.1-0.9c-4.3,0-5.6,1.6-5.5,5.7
		c0.2,12.1,0.1,24.2,0.1,36.4c0,12.1,0.1,24.2-0.1,36.4c-0.1,3.8,0.9,5.3,5.1,5.3c10.1,0,20.3,0.2,30.4-0.3
		c11.8-0.6,20.3-6.3,24-17.9C535.3,93.7,535.1,77.9,530.7,62.2z M516.9,101.6c-2,9.4-7.7,13.6-17.6,13.8
		c-16.1,0.3-16.1,0.3-16.1-15.1c0.1-4.8,0.1-9.7,0.1-14.6c0-8.3,0.1-16.6-0.1-24.9c-0.1-3.1,1.1-4.4,4.3-4.2
		c4.6,0.2,9.2-0.1,13.7,0.1c9.4,0.2,13.9,3.7,15.7,12.5C519.1,80,519.2,90.9,516.9,101.6z"/>
	<polygon fill="#EE2E24" points="393.1,43.7 406.7,43.7 406.7,79 442.8,79 442.8,43.7 456.5,43.7 456.5,127.5 442.8,127.5 
		442.8,92.3 407,92 407,127.5 393.1,127.5 	"/>
	<rect x="470.5" y="43.7" fill="#EE2E24" width="13.6" height="83.8"/>
</g>
</svg>
