<?xml version="1.0" encoding="UTF-8" standalone="no"?>
<svg
   xmlns:dc="http://purl.org/dc/elements/1.1/"
   xmlns:cc="http://creativecommons.org/ns#"
   xmlns:rdf="http://www.w3.org/1999/02/22-rdf-syntax-ns#"
   xmlns:svg="http://www.w3.org/2000/svg"
   xmlns="http://www.w3.org/2000/svg"
   viewBox="0 0 566.93335 281.56"
   height="281.56"
   width="566.93335"
   xml:space="preserve"
   id="svg2"
   version="1.1"><metadata
     id="metadata8"><rdf:RDF><cc:Work
         rdf:about=""><dc:format>image/svg+xml</dc:format><dc:type
           rdf:resource="http://purl.org/dc/dcmitype/StillImage" /></cc:Work></rdf:RDF></metadata><defs
     id="defs6"><clipPath
       id="clipPath20"
       clipPathUnits="userSpaceOnUse"><path
         id="path18"
         d="m 2169.5,2111.74 c -187.2,0 -351.13,-101.36 -440,-252.04 -90.98,83.66 -212.24,134.89 -345.26,134.89 H 0 v -234.28 h 403.477 v -278.9 h 0.308 C 405,1038.2 702.348,663.551 1107.93,544.699 l 97.04,216.383 C 879.918,841 638.023,1134.8 638.023,1484.15 v 0.03 h -0.242 v 276.13 h 278.766 c 30.547,34.49 67.074,63.55 107.943,85.6 -93.045,-92.53 -150.709,-220.52 -150.709,-361.76 0,-281.47 228.959,-510.42 510.389,-510.42 187.26,0 351.2,101.35 440.03,252.03 90.98,-83.67 212.27,-134.9 345.3,-134.9 166.76,0 315.1,80.42 408.31,204.48 -9.31,-36.26 -23.59,-70.57 -42.25,-102.04 92.33,-132.56 245.7,-219.57 419.15,-219.57 204.43,0 381.11,120.87 462.53,294.88 -2.94,-35.77 -10.71,-70.14 -22.62,-102.63 91.16,-84.6 213.08,-136.45 346.92,-136.45 281.43,0 510.43,228.96 510.43,510.45 0,281.44 -229,510.44 -510.43,510.44 -171.73,0 -323.76,-85.34 -416.29,-215.76 -93.1,98.39 -224.72,159.93 -370.54,159.93 -133.08,0 -254.21,-51.38 -345.16,-135.1 -88.81,150.79 -252.78,252.25 -440.05,252.25 z m -276.16,-510.45 c 0,152.3 123.92,276.16 276.16,276.16 111.62,0 207.73,-66.66 251.26,-162.21 h 383.25 c 43.39,28.41 95.09,45.07 150.7,45.07 111.96,0 208.41,-67.09 251.68,-163.13 h 265.02 c 26.44,124.93 137.48,218.96 270.13,218.96 152.25,0 276.15,-123.91 276.15,-276.16 0,-152.28 -123.9,-276.17 -276.15,-276.17 -145.21,0 -264.36,112.75 -275.08,255.27 h -171 -67.07 -294.67 v -188.2 h 250.53 c -49.63,-74.02 -133.95,-122.87 -229.54,-122.87 -152.28,0 -276.15,123.87 -276.15,276.14 0,56.59 17.16,109.2 46.42,153.01 h -214.77 -67.17 -298.46 v -189.14 h 254.47 c -49.58,-74.01 -133.95,-122.85 -229.55,-122.85 -152.24,0 -276.16,123.85 -276.16,276.12 m -785.25,-117.14 c 0,152.3 123.83,276.16 276.08,276.16 152.31,0 276.22,-123.86 276.22,-276.16 0,-152.27 -123.91,-276.14 -276.22,-276.14 -152.25,0 -276.08,123.87 -276.08,276.14" /></clipPath><linearGradient
       id="linearGradient34"
       spreadMethod="pad"
       gradientTransform="matrix(0,1567.04,1567.04,0,2125.98,544.7)"
       gradientUnits="userSpaceOnUse"
       y2="0"
       x2="1"
       y1="0"
       x1="0"><stop
         id="stop22"
         offset="0"
         style="stop-opacity:1;stop-color:#d43339" /><stop
         id="stop24"
         offset="0.00549316"
         style="stop-opacity:1;stop-color:#d63239" /><stop
         id="stop26"
         offset="0.13723464"
         style="stop-opacity:1;stop-color:#d63239" /><stop
         id="stop28"
         offset="0.43"
         style="stop-opacity:1;stop-color:#f57c14" /><stop
         id="stop30"
         offset="0.59319332"
         style="stop-opacity:1;stop-color:#fab215" /><stop
         id="stop32"
         offset="1"
         style="stop-opacity:1;stop-color:#fab215" /></linearGradient></defs><g
     transform="matrix(1.3333333,0,0,-1.3333333,0,281.56)"
     id="g10"><g
       transform="scale(0.1)"
       id="g12"><g
         id="g14"><g
           clip-path="url(#clipPath20)"
           id="g16"><path
             id="path36"
             style="fill:url(#linearGradient34);fill-opacity:1;fill-rule:nonzero;stroke:none"
             d="m 2169.5,2111.74 c -187.2,0 -351.13,-101.36 -440,-252.04 -90.98,83.66 -212.24,134.89 -345.26,134.89 H 0 v -234.28 h 403.477 v -278.9 h 0.308 C 405,1038.2 702.348,663.551 1107.93,544.699 l 97.04,216.383 C 879.918,841 638.023,1134.8 638.023,1484.15 v 0.03 h -0.242 v 276.13 h 278.766 c 30.547,34.49 67.074,63.55 107.943,85.6 -93.045,-92.53 -150.709,-220.52 -150.709,-361.76 0,-281.47 228.959,-510.42 510.389,-510.42 187.26,0 351.2,101.35 440.03,252.03 90.98,-83.67 212.27,-134.9 345.3,-134.9 166.76,0 315.1,80.42 408.31,204.48 -9.31,-36.26 -23.59,-70.57 -42.25,-102.04 92.33,-132.56 245.7,-219.57 419.15,-219.57 204.43,0 381.11,120.87 462.53,294.88 -2.94,-35.77 -10.71,-70.14 -22.62,-102.63 91.16,-84.6 213.08,-136.45 346.92,-136.45 281.43,0 510.43,228.96 510.43,510.45 0,281.44 -229,510.44 -510.43,510.44 -171.73,0 -323.76,-85.34 -416.29,-215.76 -93.1,98.39 -224.72,159.93 -370.54,159.93 -133.08,0 -254.21,-51.38 -345.16,-135.1 -88.81,150.79 -252.78,252.25 -440.05,252.25 z m -276.16,-510.45 c 0,152.3 123.92,276.16 276.16,276.16 111.62,0 207.73,-66.66 251.26,-162.21 h 383.25 c 43.39,28.41 95.09,45.07 150.7,45.07 111.96,0 208.41,-67.09 251.68,-163.13 h 265.02 c 26.44,124.93 137.48,218.96 270.13,218.96 152.25,0 276.15,-123.91 276.15,-276.16 0,-152.28 -123.9,-276.17 -276.15,-276.17 -145.21,0 -264.36,112.75 -275.08,255.27 h -171 -67.07 -294.67 v -188.2 h 250.53 c -49.63,-74.02 -133.95,-122.87 -229.54,-122.87 -152.28,0 -276.15,123.87 -276.15,276.14 0,56.59 17.16,109.2 46.42,153.01 h -214.77 -67.17 -298.46 v -189.14 h 254.47 c -49.58,-74.01 -133.95,-122.85 -229.55,-122.85 -152.24,0 -276.16,123.85 -276.16,276.12 m -785.25,-117.14 c 0,152.3 123.83,276.16 276.08,276.16 152.31,0 276.22,-123.86 276.22,-276.16 0,-152.27 -123.91,-276.14 -276.22,-276.14 -152.25,0 -276.08,123.87 -276.08,276.14" /></g></g><path
         id="path38"
         style="fill:#d63239;fill-opacity:1;fill-rule:nonzero;stroke:none"
         d="M 3138.79,849.988 V 163.07 h 120.24 v 686.918 h -120.24" /><path
         id="path40"
         style="fill:#d63239;fill-opacity:1;fill-rule:nonzero;stroke:none"
         d="m 2814.61,269.68 c -85.63,0 -155.05,69.422 -155.05,155.05 v 0 0 0 c 0,85.641 69.42,155.059 155.05,155.059 85.64,0 155.05,-69.418 155.05,-155.059 0,-85.621 -69.41,-155.05 -155.05,-155.05 z m 0,430.351 c -152.04,0 -275.3,-123.25 -275.3,-275.301 v 0 0 -424.7417188 h 120.25 V 197.238 c 44.16,-30.16 97.54,-47.797 155.05,-47.797 152.04,0 275.3,123.25 275.3,275.289 0,152.051 -123.26,275.301 -275.3,275.301" /><path
         id="path42"
         style="fill:#d63239;fill-opacity:1;fill-rule:nonzero;stroke:none"
         d="m 4171.14,687.441 c -125.52,0 -227.28,-101.761 -227.28,-227.293 l -0.01,-69.859 c -0.03,-59.09 -47.94,-106.98 -107.04,-106.98 h -35.24 V 163.07 h 35.24 c 125.53,0 227.29,101.762 227.29,227.289 v 69.86 c 0.04,59.09 47.95,106.98 107.04,106.98 h 35.25 v 120.242 h -35.25" /><path
         id="path44"
         style="fill:#d63239;fill-opacity:1;fill-rule:nonzero;stroke:none"
         d="M 3661.33,687.441 V 376.852 c -0.02,-58.911 -47.77,-106.653 -106.68,-106.653 -58.91,0 -106.68,47.762 -106.68,106.68 V 687.441 H 3327.73 V 376.879 c 0,-125.32 101.6,-226.918 226.92,-226.918 125.32,0 226.93,101.598 226.93,226.918 v 310.562 h -120.25" /></g></g></svg>