<svg xmlns="http://www.w3.org/2000/svg" height="281.56" width="566.933" xml:space="preserve">
<defs><linearGradient id="b" spreadMethod="pad" gradientTransform="matrix(0 1567.04 1567.04 0 2125.98 544.7)" gradientUnits="userSpaceOnUse" y2="0" x2="1" y1="0" x1="0">
<stop offset="0" style="stop-opacity:1;stop-color:#d43339"/>
<stop offset=".005" style="stop-opacity:1;stop-color:#d63239"/>
<stop offset=".137" style="stop-opacity:1;stop-color:#d63239"/>
<stop offset=".43" style="stop-opacity:1;stop-color:#f57c14"/>
<stop offset=".593" style="stop-opacity:1;stop-color:#fab215"/>
<stop offset="1" style="stop-opacity:1;stop-color:#fab215"/>
</linearGradient>
<clipPath id="a" clipPathUnits="userSpaceOnUse">
<path d="M2169.5 2111.74c-187.2 0-351.13-101.36-440-252.04-90.98 83.66-212.24 134.89-345.26 134.89H0v-234.28h403.477v-278.9h.308C405 1038.2 702.348 663.551 1107.93 544.699l97.04 216.383C879.918 841 638.023 1134.8 638.023 1484.15v.03h-.242v276.13h278.766a394.493 394.493 0 0 0 107.943 85.6c-93.045-92.53-150.709-220.52-150.709-361.76 0-281.47 228.959-510.42 510.389-510.42 187.26 0 351.2 101.35 440.03 252.03 90.98-83.67 212.27-134.9 345.3-134.9 166.76 0 315.1 80.42 408.31 204.48-9.31-36.26-23.59-70.57-42.25-102.04 92.33-132.56 245.7-219.57 419.15-219.57 204.43 0 381.11 120.87 462.53 294.88-2.94-35.77-10.71-70.14-22.62-102.63 91.16-84.6 213.08-136.45 346.92-136.45 281.43 0 510.43 228.96 510.43 510.45 0 281.44-229 510.44-510.43 510.44-171.73 0-323.76-85.34-416.29-215.76-93.1 98.39-224.72 159.93-370.54 159.93-133.08 0-254.21-51.38-345.16-135.1-88.81 150.79-252.78 252.25-440.05 252.25zm-276.16-510.45c0 152.3 123.92 276.16 276.16 276.16 111.62 0 207.73-66.66 251.26-162.21h383.25c43.39 28.41 95.09 45.07 150.7 45.07 111.96 0 208.41-67.09 251.68-163.13h265.02c26.44 124.93 137.48 218.96 270.13 218.96 152.25 0 276.15-123.91 276.15-276.16 0-152.28-123.9-276.17-276.15-276.17-145.21 0-264.36 112.75-275.08 255.27h-532.74v-188.2h250.53c-49.63-74.02-133.95-122.87-229.54-122.87-152.28 0-276.15 123.87-276.15 276.14 0 56.59 17.16 109.2 46.42 153.01h-580.4v-189.14h254.47c-49.58-74.01-133.95-122.85-229.55-122.85-152.24 0-276.16 123.85-276.16 276.12m-785.25-117.14c0 152.3 123.83 276.16 276.08 276.16 152.31 0 276.22-123.86 276.22-276.16 0-152.27-123.91-276.14-276.22-276.14-152.25 0-276.08 123.87-276.08 276.14"/>
</clipPath></defs>
<g clip-path="url(#a)" transform="matrix(.13333 0 0 -.13333 0 281.56)">
<path style="fill:url(#b);fill-opacity:1;fill-rule:nonzero;stroke:none" d="M2169.5 2111.74c-187.2 0-351.13-101.36-440-252.04-90.98 83.66-212.24 134.89-345.26 134.89H0v-234.28h403.477v-278.9h.308C405 1038.2 702.348 663.551 1107.93 544.699l97.04 216.383C879.918 841 638.023 1134.8 638.023 1484.15v.03h-.242v276.13h278.766a394.493 394.493 0 0 0 107.943 85.6c-93.045-92.53-150.709-220.52-150.709-361.76 0-281.47 228.959-510.42 510.389-510.42 187.26 0 351.2 101.35 440.03 252.03 90.98-83.67 212.27-134.9 345.3-134.9 166.76 0 315.1 80.42 408.31 204.48-9.31-36.26-23.59-70.57-42.25-102.04 92.33-132.56 245.7-219.57 419.15-219.57 204.43 0 381.11 120.87 462.53 294.88-2.94-35.77-10.71-70.14-22.62-102.63 91.16-84.6 213.08-136.45 346.92-136.45 281.43 0 510.43 228.96 510.43 510.45 0 281.44-229 510.44-510.43 510.44-171.73 0-323.76-85.34-416.29-215.76-93.1 98.39-224.72 159.93-370.54 159.93-133.08 0-254.21-51.38-345.16-135.1-88.81 150.79-252.78 252.25-440.05 252.25zm-276.16-510.45c0 152.3 123.92 276.16 276.16 276.16 111.62 0 207.73-66.66 251.26-162.21h383.25c43.39 28.41 95.09 45.07 150.7 45.07 111.96 0 208.41-67.09 251.68-163.13h265.02c26.44 124.93 137.48 218.96 270.13 218.96 152.25 0 276.15-123.91 276.15-276.16 0-152.28-123.9-276.17-276.15-276.17-145.21 0-264.36 112.75-275.08 255.27h-532.74v-188.2h250.53c-49.63-74.02-133.95-122.87-229.54-122.87-152.28 0-276.15 123.87-276.15 276.14 0 56.59 17.16 109.2 46.42 153.01h-580.4v-189.14h254.47c-49.58-74.01-133.95-122.85-229.55-122.85-152.24 0-276.16 123.85-276.16 276.12m-785.25-117.14c0 152.3 123.83 276.16 276.08 276.16 152.31 0 276.22-123.86 276.22-276.16 0-152.27-123.91-276.14-276.22-276.14-152.25 0-276.08 123.87-276.08 276.14"/></g>
<path style="fill:#ffffff;fill-opacity:1;fill-rule:nonzero;stroke:none" d="M3138.79 849.988V163.07h120.24v686.918h-120.24M2814.61 269.68c-85.63 0-155.05 69.422-155.05 155.05 0 85.641 69.42 155.059 155.05 155.059 85.64 0 155.05-69.418 155.05-155.059 0-85.621-69.41-155.05-155.05-155.05zm0 430.351c-152.04 0-275.3-123.25-275.3-275.301V-.012h120.25v197.25c44.16-30.16 97.54-47.797 155.05-47.797 152.04 0 275.3 123.25 275.3 275.289 0 152.051-123.26 275.301-275.3 275.301M4171.14 687.441c-125.52 0-227.28-101.761-227.28-227.293l-.01-69.859c-.03-59.09-47.94-106.98-107.04-106.98h-35.24V163.07h35.24c125.53 0 227.29 101.762 227.29 227.289v69.86c.04 59.09 47.95 106.98 107.04 106.98h35.25v120.242h-35.25M3661.33 687.441V376.852c-.02-58.911-47.77-106.653-106.68-106.653-58.91 0-106.68 47.762-106.68 106.68v310.562h-120.24V376.879c0-125.32 101.6-226.918 226.92-226.918s226.93 101.598 226.93 226.918v310.562h-120.25" transform="matrix(.13333 0 0 -.13333 0 281.56)"/>
</svg>