<?xml version="1.0" encoding="UTF-8"?>
<!DOCTYPE svg PUBLIC "-//W3C//DTD SVG 1.1//EN" "http://www.w3.org/Graphics/SVG/1.1/DTD/svg11.dtd">
<svg xmlns="http://www.w3.org/2000/svg" version="1.1" width="320px" height="183px" style="shape-rendering:geometricPrecision; text-rendering:geometricPrecision; image-rendering:optimizeQuality; fill-rule:evenodd; clip-rule:evenodd" xmlns:xlink="http://www.w3.org/1999/xlink">
<g><path style="opacity:0.996" fill="#97bf10" d="M 155.5,-0.5 C 204.167,-0.5 252.833,-0.5 301.5,-0.5C 305.343,0.754663 309.01,2.588 312.5,5C 315.5,8.51357 317.833,12.3469 319.5,16.5C 319.5,66.1667 319.5,115.833 319.5,165.5C 317.833,169.653 315.5,173.486 312.5,177C 309.01,179.412 305.343,181.245 301.5,182.5C 252.5,182.5 203.5,182.5 154.5,182.5C 146.698,180.205 141.198,175.205 138,167.5C 136.278,151.698 136.111,136.031 137.5,120.5C 152.5,120.5 167.5,120.5 182.5,120.5C 182.5,117.167 182.5,113.833 182.5,110.5C 179.421,110.74 176.421,110.407 173.5,109.5C 172.194,108.088 171.36,106.421 171,104.5C 170.333,94.1667 170.333,83.8333 171,73.5C 174.457,61.8581 181.957,57.6914 193.5,61C 196.135,62.9605 197.969,65.4605 199,68.5C 199.667,81.1667 199.667,93.8333 199,106.5C 196.303,109.87 192.803,111.204 188.5,110.5C 188.5,113.833 188.5,117.167 188.5,120.5C 201.5,120.5 214.5,120.5 227.5,120.5C 227.5,117.167 227.5,113.833 227.5,110.5C 223.046,111.383 219.546,110.05 217,106.5C 216.333,95.5 216.333,84.5 217,73.5C 220.436,60.6988 228.269,56.8654 240.5,62C 242.81,63.6374 244.31,65.804 245,68.5C 245.667,80.8333 245.667,93.1667 245,105.5C 242.468,109.907 238.635,111.574 233.5,110.5C 233.5,113.833 233.5,117.167 233.5,120.5C 248.5,120.5 263.5,120.5 278.5,120.5C 278.5,117.167 278.5,113.833 278.5,110.5C 274.818,110.665 271.152,110.499 267.5,110C 265.714,109.215 264.214,108.049 263,106.5C 262.667,91.8333 262.333,77.1667 262,62.5C 259.64,54.1422 254.14,49.3088 245.5,48C 232.947,45.6936 223.78,50.1936 218,61.5C 211.662,49.5835 201.828,45.0835 188.5,48C 180.808,50.5051 175.142,55.3385 171.5,62.5C 170.508,58.2172 170.174,53.8839 170.5,49.5C 159.5,49.5 148.5,49.5 137.5,49.5C 136.342,40.3425 136.176,31.0092 137,21.5C 137.991,9.68503 144.158,2.3517 155.5,-0.5 Z"/></g>
<g><path style="opacity:1" fill="#d4e49d" d="M 190.5,18.5 C 186.988,17.9455 183.988,18.6122 181.5,20.5C 180.596,19.791 180.263,18.791 180.5,17.5C 184.042,17.1872 187.375,17.5206 190.5,18.5 Z"/></g>
<g><path style="opacity:1" fill="#d3e49b" d="M 209.5,18.5 C 212.287,17.5233 215.287,17.19 218.5,17.5C 218.737,18.791 218.404,19.791 217.5,20.5C 215.365,18.631 212.698,17.9644 209.5,18.5 Z"/></g>
<g><path style="opacity:1" fill="#fafbf3" d="M 155.5,24.5 C 155.539,23.2438 155.039,22.2438 154,21.5C 153.501,25.4862 153.334,29.4862 153.5,33.5C 151.554,28.6042 150.887,23.2709 151.5,17.5C 153.144,17.2865 154.644,17.6198 156,18.5C 157,21.8333 158,25.1667 159,28.5C 160.166,25.1724 161.332,21.8391 162.5,18.5C 163.689,17.5713 165.022,17.238 166.5,17.5C 166.828,22.8746 166.495,28.2079 165.5,33.5C 164.993,17.7967 163.326,17.7967 160.5,33.5C 159.5,33.5 158.5,33.5 157.5,33.5C 156.99,30.4606 156.323,27.4606 155.5,24.5 Z"/></g>
<g><path style="opacity:1" fill="#dce9af" d="M 175.5,18.5 C 173.558,23.0557 172.892,28.0557 173.5,33.5C 172.512,28.3595 172.179,23.0262 172.5,17.5C 173.791,17.2627 174.791,17.596 175.5,18.5 Z"/></g>
<g><path style="opacity:1" fill="#fefffe" d="M 175.5,18.5 C 176.108,23.9443 175.442,28.9443 173.5,33.5C 172.892,28.0557 173.558,23.0557 175.5,18.5 Z"/></g>
<g><path style="opacity:1" fill="#fefefd" d="M 190.5,18.5 C 190.179,20.0481 189.179,20.7148 187.5,20.5C 187.5,24.8333 187.5,29.1667 187.5,33.5C 186.5,33.5 185.5,33.5 184.5,33.5C 184.5,29.1667 184.5,24.8333 184.5,20.5C 183.5,20.5 182.5,20.5 181.5,20.5C 183.988,18.6122 186.988,17.9455 190.5,18.5 Z"/></g>
<g><path style="opacity:1" fill="#f6f9e9" d="M 194.5,17.5 C 197.833,17.5 201.167,17.5 204.5,17.5C 204.5,18.5 204.5,19.5 204.5,20.5C 203.5,20.5 202.5,20.5 201.5,20.5C 201.5,24.8333 201.5,29.1667 201.5,33.5C 200.5,33.5 199.5,33.5 198.5,33.5C 198.5,29.1667 198.5,24.8333 198.5,20.5C 197.167,20.5 195.833,20.5 194.5,20.5C 194.5,19.5 194.5,18.5 194.5,17.5 Z"/></g>
<g><path style="opacity:1" fill="#fcfdf9" d="M 209.5,18.5 C 212.698,17.9644 215.365,18.631 217.5,20.5C 215.833,20.5 214.167,20.5 212.5,20.5C 212.5,21.8333 212.5,23.1667 212.5,24.5C 219.167,25.1667 219.167,25.8333 212.5,26.5C 212.5,28.1667 212.5,29.8333 212.5,31.5C 214.604,31.2011 216.604,31.5344 218.5,32.5C 215.572,33.4841 212.572,33.8174 209.5,33.5C 209.5,28.5 209.5,23.5 209.5,18.5 Z"/></g>
<g><path style="opacity:1" fill="#deeab4" d="M 226.5,18.5 C 224.558,23.0557 223.892,28.0557 224.5,33.5C 223.512,28.3595 223.179,23.0262 223.5,17.5C 224.791,17.2627 225.791,17.596 226.5,18.5 Z"/></g>
<g><path style="opacity:1" fill="#fdfefc" d="M 226.5,18.5 C 226.5,22.8333 226.5,27.1667 226.5,31.5C 228.604,31.2011 230.604,31.5344 232.5,32.5C 229.914,33.48 227.247,33.8134 224.5,33.5C 223.892,28.0557 224.558,23.0557 226.5,18.5 Z"/></g>
<g><path style="opacity:1" fill="#f2f6e1" d="M 237.5,17.5 C 240.602,17.154 243.435,17.8207 246,19.5C 246.896,22.025 246.396,24.1917 244.5,26C 245.786,28.0223 246.786,30.1889 247.5,32.5C 246.635,33.5827 245.635,33.7494 244.5,33C 241.961,25.6107 240.628,25.7774 240.5,33.5C 239.167,33.5 237.833,33.5 236.5,33.5C 236.218,28.0735 236.551,22.7401 237.5,17.5 Z"/></g>
<g><path style="opacity:1" fill="#fafcf4" d="M 252.5,17.5 C 253.5,17.5 254.5,17.5 255.5,17.5C 255.5,19.8333 255.5,22.1667 255.5,24.5C 257.167,24.5 258.833,24.5 260.5,24.5C 260.5,22.1667 260.5,19.8333 260.5,17.5C 261.5,17.5 262.5,17.5 263.5,17.5C 263.5,22.8333 263.5,28.1667 263.5,33.5C 262.5,33.5 261.5,33.5 260.5,33.5C 260.5,31.1667 260.5,28.8333 260.5,26.5C 258.833,26.5 257.167,26.5 255.5,26.5C 255.5,28.8333 255.5,31.1667 255.5,33.5C 254.5,33.5 253.5,33.5 252.5,33.5C 252.5,28.1667 252.5,22.8333 252.5,17.5 Z"/></g>
<g><path style="opacity:1" fill="#f7faec" d="M 269.5,17.5 C 272.167,17.5 274.833,17.5 277.5,17.5C 277.5,18.5 277.5,19.5 277.5,20.5C 275.833,20.5 274.167,20.5 272.5,20.5C 272.5,21.8333 272.5,23.1667 272.5,24.5C 279.167,25.1667 279.167,25.8333 272.5,26.5C 272.5,28.1667 272.5,29.8333 272.5,31.5C 274.604,31.2011 276.604,31.5344 278.5,32.5C 275.572,33.4841 272.572,33.8174 269.5,33.5C 269.5,28.1667 269.5,22.8333 269.5,17.5 Z"/></g>
<g><path style="opacity:1" fill="#fcfdf9" d="M 283.5,17.5 C 284.5,17.5 285.5,17.5 286.5,17.5C 286.5,22.8333 286.5,28.1667 286.5,33.5C 285.5,33.5 284.5,33.5 283.5,33.5C 283.5,28.1667 283.5,22.8333 283.5,17.5 Z"/></g>
<g><path style="opacity:1" fill="#f7faed" d="M 292.5,17.5 C 293.978,17.238 295.311,17.5713 296.5,18.5C 297.726,21.9518 299.226,25.2852 301,28.5C 301.499,24.8484 301.665,21.1817 301.5,17.5C 302.5,17.5 303.5,17.5 304.5,17.5C 304.5,22.8333 304.5,28.1667 304.5,33.5C 302.856,33.7135 301.356,33.3802 300,32.5C 296.145,20.2715 294.645,20.6049 295.5,33.5C 294.5,33.5 293.5,33.5 292.5,33.5C 292.5,28.1667 292.5,22.8333 292.5,17.5 Z"/></g>
<g><path style="opacity:1" fill="#a2c531" d="M 239.5,20.5 C 240.833,20.5 242.167,20.5 243.5,20.5C 243.5,21.8333 243.5,23.1667 243.5,24.5C 242.167,24.5 240.833,24.5 239.5,24.5C 239.5,23.1667 239.5,21.8333 239.5,20.5 Z"/></g>
<g><path style="opacity:1" fill="#d6e5a0" d="M 155.5,24.5 C 154.833,27.5 154.167,30.5 153.5,33.5C 153.334,29.4862 153.501,25.4862 154,21.5C 155.039,22.2438 155.539,23.2438 155.5,24.5 Z"/></g>
<g><path style="opacity:0.985" fill="#9c9e9f" d="M -0.5,60.5 C -0.5,56.8333 -0.5,53.1667 -0.5,49.5C 5.44763,50.4718 9.94763,48.4718 13,43.5C 14.2052,39.3837 15.7052,35.3837 17.5,31.5C 21.7828,30.5078 26.1161,30.1744 30.5,30.5C 30.5,36.8333 30.5,43.1667 30.5,49.5C 49.1667,49.5 67.8333,49.5 86.5,49.5C 86.5,53.1667 86.5,56.8333 86.5,60.5C 83.0172,59.9159 80.0172,60.7492 77.5,63C 81.4044,76.3801 85.9044,89.5468 91,102.5C 95.4692,89.5925 99.6359,76.5925 103.5,63.5C 103.392,62.5581 103.059,61.7247 102.5,61C 99.1832,60.5017 95.8499,60.335 92.5,60.5C 92.5,56.8333 92.5,53.1667 92.5,49.5C 104.833,49.5 117.167,49.5 129.5,49.5C 129.5,53.1667 129.5,56.8333 129.5,60.5C 126.07,60.1065 122.904,60.7732 120,62.5C 112.663,81.6795 105.829,101.013 99.5,120.5C 91.8045,120.831 84.1378,120.497 76.5,119.5C 69.8489,100.043 62.5156,80.8762 54.5,62C 46.6112,60.5648 38.6112,60.0648 30.5,60.5C 30.0467,76.2377 30.5467,91.9043 32,107.5C 34.7467,110.034 37.4133,110.034 40,107.5C 41.6705,100.969 42.5038,94.3027 42.5,87.5C 46.4367,87.2065 50.27,87.5399 54,88.5C 55.6688,98.8232 54.0022,108.49 49,117.5C 38.7099,125.191 28.2099,125.358 17.5,118C 13.853,113.87 12.0196,109.036 12,103.5C 11.5001,89.1705 11.3334,74.8372 11.5,60.5C 7.5,60.5 3.5,60.5 -0.5,60.5 Z"/></g>
<g><path style="opacity:1" fill="#fefefd" d="M 137.5,120.5 C 137.5,117.167 137.5,113.833 137.5,110.5C 140.85,110.665 144.183,110.498 147.5,110C 149.329,109.727 150.829,108.893 152,107.5C 153.135,99.9327 153.635,92.2661 153.5,84.5C 153.333,77.5 153.167,70.5 153,63.5C 151.786,61.9512 150.286,60.7845 148.5,60C 144.848,59.5014 141.182,59.3347 137.5,59.5C 137.5,56.1667 137.5,52.8333 137.5,49.5C 148.5,49.5 159.5,49.5 170.5,49.5C 170.174,53.8839 170.508,58.2172 171.5,62.5C 175.142,55.3385 180.808,50.5051 188.5,48C 201.828,45.0835 211.662,49.5835 218,61.5C 223.78,50.1936 232.947,45.6936 245.5,48C 254.14,49.3088 259.64,54.1422 262,62.5C 262.333,77.1667 262.667,91.8333 263,106.5C 264.214,108.049 265.714,109.215 267.5,110C 271.152,110.499 274.818,110.665 278.5,110.5C 278.5,113.833 278.5,117.167 278.5,120.5C 263.5,120.5 248.5,120.5 233.5,120.5C 233.5,117.167 233.5,113.833 233.5,110.5C 238.635,111.574 242.468,109.907 245,105.5C 245.667,93.1667 245.667,80.8333 245,68.5C 244.31,65.804 242.81,63.6374 240.5,62C 228.269,56.8654 220.436,60.6988 217,73.5C 216.333,84.5 216.333,95.5 217,106.5C 219.546,110.05 223.046,111.383 227.5,110.5C 227.5,113.833 227.5,117.167 227.5,120.5C 214.5,120.5 201.5,120.5 188.5,120.5C 188.5,117.167 188.5,113.833 188.5,110.5C 192.803,111.204 196.303,109.87 199,106.5C 199.667,93.8333 199.667,81.1667 199,68.5C 197.969,65.4605 196.135,62.9605 193.5,61C 181.957,57.6914 174.457,61.8581 171,73.5C 170.333,83.8333 170.333,94.1667 171,104.5C 171.36,106.421 172.194,108.088 173.5,109.5C 176.421,110.407 179.421,110.74 182.5,110.5C 182.5,113.833 182.5,117.167 182.5,120.5C 167.5,120.5 152.5,120.5 137.5,120.5 Z"/></g>
<g><path style="opacity:1" fill="#9abf16" d="M 137.5,59.5 C 141.182,59.3347 144.848,59.5014 148.5,60C 150.286,60.7845 151.786,61.9512 153,63.5C 153.167,70.5 153.333,77.5 153.5,84.5C 153.635,92.2661 153.135,99.9327 152,107.5C 150.829,108.893 149.329,109.727 147.5,110C 144.183,110.498 140.85,110.665 137.5,110.5C 136.167,93.5 136.167,76.5 137.5,59.5 Z"/></g>
</svg>
