<?xml version="1.0" encoding="UTF-8"?>
<!DOCTYPE svg PUBLIC "-//W3C//DTD SVG 1.1//EN" "http://www.w3.org/Graphics/SVG/1.1/DTD/svg11.dtd">
<svg xmlns="http://www.w3.org/2000/svg" version="1.1" width="640px" height="150px" style="shape-rendering:geometricPrecision; text-rendering:geometricPrecision; image-rendering:optimizeQuality; fill-rule:evenodd; clip-rule:evenodd" xmlns:xlink="http://www.w3.org/1999/xlink">
<g><path style="opacity:1" fill="#c82027" d="M 181.5,-0.5 C 191.833,-0.5 202.167,-0.5 212.5,-0.5C 212.168,12.1842 212.501,24.8508 213.5,37.5C 227.111,28.7512 241.111,28.2512 255.5,36C 262.618,41.3956 266.784,48.5622 268,57.5C 270.236,75.5575 269.903,93.5575 267,111.5C 262.135,127.367 251.302,135.034 234.5,134.5C 225.937,134.702 218.437,132.035 212,126.5C 211.503,128.81 211.337,131.143 211.5,133.5C 201.5,133.5 191.5,133.5 181.5,133.5C 181.5,88.8333 181.5,44.1667 181.5,-0.5 Z M 220.5,59.5 C 230.571,58.0741 236.071,62.4074 237,72.5C 238.06,81.9789 237.393,91.3122 235,100.5C 230.402,105.645 224.902,106.812 218.5,104C 216.106,102.048 214.606,99.5478 214,96.5C 211.689,85.2853 212.356,74.2853 216,63.5C 217.397,61.9297 218.897,60.5964 220.5,59.5 Z"/></g>
<g><path style="opacity:1" fill="#c82027" d="M 453.5,-0.5 C 464.167,-0.5 474.833,-0.5 485.5,-0.5C 485.333,33.835 485.5,68.1683 486,102.5C 486.465,103.931 487.299,105.097 488.5,106C 493.155,106.499 497.821,106.666 502.5,106.5C 502.5,115.5 502.5,124.5 502.5,133.5C 494.826,133.666 487.159,133.5 479.5,133C 464.092,130.258 455.592,121.092 454,105.5C 453.5,70.1682 453.333,34.8349 453.5,-0.5 Z"/></g>
<g><path style="opacity:1" fill="#c82027" d="M 510.5,-0.5 C 521.167,-0.5 531.833,-0.5 542.5,-0.5C 542.5,7.5 542.5,15.5 542.5,23.5C 531.833,23.5 521.167,23.5 510.5,23.5C 510.5,15.5 510.5,7.5 510.5,-0.5 Z"/></g>
<g><path style="opacity:1" fill="#ffffff" d="M -0.5,56.5 C -0.5,48.1667 -0.5,39.8333 -0.5,31.5C 2.83333,31.5 6.16667,31.5 9.5,31.5C 9.5,23.1667 9.5,14.8333 9.5,6.5C 20.1667,6.5 30.8333,6.5 41.5,6.5C 41.5,14.8333 41.5,23.1667 41.5,31.5C 45.5546,31.1758 49.5546,31.5091 53.5,32.5C 56.6507,40.283 58.984,48.283 60.5,56.5C 54.1667,56.5 47.8333,56.5 41.5,56.5C 41.3334,71.837 41.5001,87.1703 42,102.5C 42.4652,103.931 43.2986,105.097 44.5,106C 50.1569,106.499 55.8236,106.666 61.5,106.5C 61.5,115.5 61.5,124.5 61.5,133.5C 51.1106,133.87 40.7773,133.37 30.5,132C 17.19,127.23 10.3567,117.73 10,103.5C 9.50008,87.8369 9.33341,72.1702 9.5,56.5C 6.16667,56.5 2.83333,56.5 -0.5,56.5 Z"/></g>
<g><path style="opacity:1" fill="#c82027" d="M 313.5,30.5 C 330.835,28.4479 345.335,33.7812 357,46.5C 365.848,60.573 369.015,75.9063 366.5,92.5C 346.5,92.5 326.5,92.5 306.5,92.5C 307.318,99.9714 311.318,104.805 318.5,107C 328.473,108.842 337.14,106.342 344.5,99.5C 350.986,105.485 357.319,111.652 363.5,118C 348.14,133.296 329.807,138.296 308.5,133C 288.803,128.296 277.97,115.796 276,95.5C 273.285,78.8576 275.952,63.1909 284,48.5C 291.471,38.51 301.304,32.51 313.5,30.5 Z M 318.5,56.5 C 328.883,56.2191 334.55,61.2191 335.5,71.5C 325.833,71.5 316.167,71.5 306.5,71.5C 306.885,63.4623 310.885,58.4623 318.5,56.5 Z"/></g>
<g><path style="opacity:1" fill="#c82027" d="M 421.5,30.5 C 430.842,29.4676 439.508,31.3009 447.5,36C 449.019,37.3513 450.352,38.8513 451.5,40.5C 443.848,48.6524 436.015,56.6524 428,64.5C 423.002,59.3933 417.168,58.2266 410.5,61C 408.622,62.5429 407.122,64.3762 406,66.5C 405.5,88.8308 405.333,111.164 405.5,133.5C 394.833,133.5 384.167,133.5 373.5,133.5C 373.5,99.5 373.5,65.5 373.5,31.5C 383.833,31.5 394.167,31.5 404.5,31.5C 404.337,33.8568 404.503,36.1902 405,38.5C 409.966,34.5759 415.466,31.9092 421.5,30.5 Z"/></g>
<g><path style="opacity:1" fill="#c82027" d="M 639.5,56.5 C 639.5,82.1667 639.5,107.833 639.5,133.5C 629.167,133.5 618.833,133.5 608.5,133.5C 608.667,112.497 608.5,91.4974 608,70.5C 605.072,59.6212 598.572,56.7878 588.5,62C 586.683,63.7998 585.516,65.9664 585,68.5C 584.5,90.1641 584.333,111.831 584.5,133.5C 573.833,133.5 563.167,133.5 552.5,133.5C 552.5,99.5 552.5,65.5 552.5,31.5C 562.833,31.5 573.167,31.5 583.5,31.5C 583.337,33.8568 583.503,36.1902 584,38.5C 598.193,28.4844 612.693,27.9844 627.5,37C 633.702,42.2533 637.702,48.7533 639.5,56.5 Z"/></g>
<g><path style="opacity:1" fill="#ffffff" d="M 60.5,31.5 C 71.748,31.1793 82.9146,31.5126 94,32.5C 99.3333,49.1667 104.667,65.8333 110,82.5C 115.326,65.5269 120.492,48.5269 125.5,31.5C 136.853,31.1678 148.186,31.5012 159.5,32.5C 146.566,65.9718 134.232,99.6384 122.5,133.5C 114.14,133.831 105.807,133.498 97.5,132.5C 84.8748,98.9208 72.5415,65.2542 60.5,31.5 Z"/></g>
<g><path style="opacity:1" fill="#b92f2d" d="M 510.5,31.5 C 521.167,31.5 531.833,31.5 542.5,31.5C 542.5,65.5 542.5,99.5 542.5,133.5C 531.833,133.5 521.167,133.5 510.5,133.5C 510.5,99.5 510.5,65.5 510.5,31.5 Z"/></g>
<g><path style="opacity:1" fill="#b92f2d" d="M 171.5,149.5 C 159.833,149.5 148.167,149.5 136.5,149.5C 136.5,138.167 136.5,126.833 136.5,115.5C 148.167,115.5 159.833,115.5 171.5,115.5C 171.5,126.833 171.5,138.167 171.5,149.5 Z"/></g>
</svg>
