<svg xmlns="http://www.w3.org/2000/svg" xmlns:xlink="http://www.w3.org/1999/xlink" x="0px" y="0px" width="480.986px" height="83.334px" viewBox="0 0 480.986 83.334" enable-background="new 0 0 480.986 83.334" xml:space="preserve">
<path fill="#FFFFFF" d="M23.762,54.26c2.169,0,4.773-0.474,7.813-1.424v9.235c-3.094,1.384-6.892,2.076-11.394,2.076c-4.964,0-8.579-1.253-10.844-3.764c-2.265-2.509-3.396-6.271-3.396-11.291V27.162h-5.941v-5.249l6.836-4.15l3.581-9.603h7.934v9.685h12.735v9.317H18.35v21.931c0,1.765,0.495,3.065,1.485,3.906S22.134,54.26,23.762,54.26z M59.933,43.761c-1.058,3.147-1.668,6.253-1.83,9.318h-0.326c-0.271-3.391-0.854-6.496-1.75-9.318l-8.788-25.917H34.259l17.333,45.488h12.736L81.66,17.844H68.681L59.933,43.761z M98.546,52.144c-0.65-0.542-1.404-0.937-2.258-1.181c-0.854-0.244-1.757-0.366-2.706-0.366c-1.004,0-1.94,0.122-2.808,0.366c-0.868,0.244-1.627,0.639-2.278,1.181c-0.651,0.543-1.159,1.255-1.526,2.136c-0.365,0.883-0.549,1.962-0.549,3.235c0,1.22,0.184,2.266,0.549,3.133c0.367,0.868,0.875,1.586,1.526,2.156c0.651,0.569,1.41,0.983,2.278,1.241c0.867,0.258,1.804,0.386,2.808,0.386c0.949,0,1.852-0.128,2.706-0.386c0.854-0.258,1.607-0.672,2.258-1.241c0.651-0.57,1.166-1.288,1.546-2.156c0.38-0.867,0.57-1.913,0.57-3.133c0-1.273-0.19-2.353-0.57-3.235C99.712,53.399,99.198,52.687,98.546,52.144z M115.089,2.587c-2.111,0-3.167,1.194-3.167,3.583c0,2.445,1.056,3.666,3.167,3.666c2.22,0,3.333-1.221,3.333-3.666C118.422,3.781,117.309,2.587,115.089,2.587z M112.756,63.333h4.665V19.002h-4.665V63.333z M151.92,18.169c-3.779,0-6.933,0.807-9.459,2.417c-2.528,1.611-4.375,3.64-5.541,6.083h-0.332l-0.668-7.667h-3.833v44.331h4.666V39.168c0-11.221,4.89-16.833,14.667-16.833c3.721,0,6.54,1,8.457,3c1.916,2.001,2.876,5.112,2.876,9.334v28.664h4.749V34.335c0-5.555-1.333-9.638-4-12.249C160.836,19.474,156.975,18.169,151.92,18.169z M213.165,19.002h3.833v45.749c0,5.834-1.487,10.386-4.457,13.665c-2.972,3.278-7.847,4.917-14.625,4.917c-3.332,0-6.277-0.278-8.832-0.833c-2.557-0.556-4.889-1.279-6.999-2.167V75.75c2.11,1.055,4.512,1.901,7.208,2.543c2.693,0.637,5.624,0.957,8.789,0.957c4.835,0,8.403-1.279,10.71-3.835c2.304-2.555,3.457-6.027,3.457-10.415v-2.582c0-1.168,0.026-2.333,0.084-3.502c0.054-1.165,0.109-2.303,0.164-3.415h-0.248c-1.223,2.889-3.112,5.055-5.667,6.5c-2.556,1.444-5.611,2.167-9.165,2.167c-5.778,0-10.264-1.945-13.457-5.833c-3.195-3.889-4.792-9.501-4.792-16.834c0-7.166,1.597-12.846,4.792-17.041c3.193-4.193,7.845-6.291,13.956-6.291c3.501,0,6.402,0.667,8.709,2c2.306,1.333,4.152,3.195,5.541,5.583h0.25L213.165,19.002z M212.333,40.001c0-5.666-1.041-10.026-3.124-13.082c-2.084-3.055-5.682-4.584-10.792-4.584c-4.778,0-8.361,1.682-10.751,5.042c-2.389,3.361-3.582,8.098-3.582,14.208c0,6.055,1.18,10.666,3.541,13.833s5.792,4.75,10.291,4.75c3.668,0,6.542-0.752,8.625-2.25c2.084-1.5,3.568-3.555,4.457-6.167c0.89-2.61,1.335-5.584,1.335-8.916V40.001z M266.497,29.085c1.5,3.445,2.247,7.473,2.247,12.083c0,4.612-0.762,8.639-2.29,12.083c-1.527,3.445-3.777,6.125-6.75,8.042s-6.598,2.875-10.874,2.875c-4.111,0-7.64-0.944-10.584-2.835c-2.945-1.888-5.208-4.554-6.789-7.998c-1.584-3.445-2.377-7.5-2.377-12.167c0-7.222,1.793-12.86,5.376-16.916c3.584-4.055,8.485-6.083,14.708-6.083c4.221,0,7.792,0.958,10.706,2.875C262.789,22.961,264.996,25.641,266.497,29.085z M263.83,41.168c0-3.666-0.501-6.916-1.5-9.749c-1.001-2.834-2.584-5.055-4.75-6.667c-2.167-1.61-5-2.417-8.5-2.417c-5.055,0-8.834,1.667-11.334,5.001c-2.498,3.332-3.749,7.944-3.749,13.832c0,5.667,1.194,10.237,3.583,13.708c2.388,3.473,6.139,5.209,11.25,5.209c5.168,0,8.958-1.736,11.374-5.209C262.622,51.405,263.83,46.835,263.83,41.168z M280.828,63.333h4.749V0.004h-4.749V63.333z M321.033,41.501c-2.138-1-4.515-1.944-7.126-2.832c-2.555-0.889-4.721-1.709-6.5-2.459c-1.777-0.75-3.139-1.638-4.082-2.667c-0.943-1.026-1.416-2.429-1.416-4.208c0-2.333,0.971-4.109,2.916-5.333c1.945-1.222,4.666-1.833,8.168-1.833c2.166,0,4.33,0.25,6.497,0.75s4.112,1.14,5.835,1.916l1.666-3.916c-1.889-0.777-3.986-1.431-6.292-1.958c-2.305-0.528-4.792-0.792-7.458-0.792c-4.832,0-8.693,1-11.582,3s-4.333,4.778-4.333,8.332c0,2.612,0.583,4.681,1.749,6.209c1.167,1.528,2.791,2.764,4.875,3.708c2.083,0.945,4.485,1.889,7.208,2.833c4.055,1.39,7.096,2.737,9.127,4.041c2.025,1.306,3.041,3.181,3.041,5.625c0,2.557-0.974,4.571-2.919,6.041c-1.945,1.473-5.082,2.21-9.414,2.21c-2.612,0-5.167-0.319-7.668-0.958c-2.5-0.64-4.722-1.459-6.667-2.46v4.583c1.612,0.78,3.598,1.447,5.96,2c2.358,0.557,5.096,0.835,8.208,0.835c5.499,0,9.734-1.085,12.707-3.252c2.971-2.166,4.457-5.276,4.457-9.332c0-2.61-0.624-4.693-1.873-6.25C324.865,43.78,323.172,42.501,321.033,41.501z M351.655,60.168c-4.999,0-7.499-3.111-7.499-9.334V22.836h13.668v-3.834h-13.668V8.42h-2.998l-1.666,10.249l-6.584,1.499v2.668h6.584v28.165c0,4.612,0.999,7.959,2.999,10.042c1.999,2.083,4.833,3.125,8.499,3.125c1.442,0,2.763-0.112,3.957-0.335c1.193-0.221,2.236-0.5,3.124-0.833v-3.834c-0.777,0.279-1.734,0.516-2.875,0.709C354.059,60.07,352.877,60.168,351.655,60.168z M394.32,21.919c2.444,2.445,3.667,6.306,3.667,11.583v29.831h-3.583l-0.917-7.498h-0.167c-1.558,2.5-3.5,4.514-5.833,6.04c-2.334,1.527-5.557,2.293-9.666,2.293c-4.223,0-7.57-1.056-10.041-3.168c-2.475-2.109-3.709-5.194-3.709-9.249c0-4.388,1.792-7.75,5.376-10.083c3.581-2.333,8.845-3.639,15.79-3.916l8.083-0.417v-3.083c0-4.389-0.875-7.485-2.625-9.291c-1.75-1.805-4.32-2.709-7.708-2.709c-2.279,0-4.471,0.291-6.583,0.875c-2.112,0.583-4.222,1.431-6.333,2.542l-1.5-3.833c2.056-1.055,4.333-1.917,6.833-2.584c2.5-0.666,5.083-1,7.749-1C388.155,18.252,391.874,19.474,394.32,21.919z M393.32,41.001l-7.499,0.334c-5.668,0.222-9.889,1.181-12.666,2.874c-2.779,1.696-4.167,4.237-4.167,7.625c0,2.723,0.861,4.792,2.583,6.207c1.723,1.419,4.084,2.127,7.082,2.127c4.611,0,8.182-1.306,10.707-3.917c2.529-2.611,3.848-6.278,3.96-11V41.001z M442.733,0.004h4.75v63.329h-3.835l-0.665-7.665h-0.25c-1.168,2.333-2.917,4.333-5.25,5.998c-2.334,1.667-5.473,2.502-9.415,2.502c-5.945,0-10.515-1.902-13.709-5.708c-3.195-3.805-4.79-9.403-4.79-16.792c0-7.667,1.678-13.499,5.04-17.499c3.36-4,7.985-6,13.875-6c3.722,0,6.749,0.807,9.083,2.417c2.333,1.611,4.055,3.64,5.166,6.083h0.334c-0.057-1.334-0.126-2.805-0.21-4.417c-0.084-1.61-0.124-3.027-0.124-4.249V0.004z M442.816,41.168c0-6.111-1.083-10.791-3.249-14.041c-2.167-3.25-5.696-4.875-10.584-4.875c-4.777,0-8.389,1.681-10.831,5.042c-2.446,3.362-3.669,8.152-3.669,14.374c0,6.055,1.168,10.639,3.501,13.75c2.333,3.112,5.888,4.667,10.667,4.667c5.11,0,8.749-1.555,10.916-4.667c2.166-3.111,3.249-7.583,3.249-13.417V41.168z M478.108,59.875c-1.14,0.195-2.32,0.293-3.543,0.293c-4.997,0-7.498-3.111-7.498-9.334V22.836h13.668v-3.834h-13.668V8.42h-2.999L462.4,18.669l-6.584,1.499v2.668h6.584v28.165c0,4.612,1.001,7.959,3.001,10.042s4.834,3.125,8.499,3.125c1.445,0,2.763-0.112,3.956-0.335c1.196-0.221,2.236-0.5,3.125-0.833v-3.834C480.203,59.445,479.246,59.681,478.108,59.875z"/>
</svg>
