<?xml version="1.0" encoding="UTF-8"?>
<!DOCTYPE svg PUBLIC "-//W3C//DTD SVG 1.1//EN" "http://www.w3.org/Graphics/SVG/1.1/DTD/svg11.dtd">
<svg xmlns="http://www.w3.org/2000/svg" version="1.1" width="1143px" height="120px" style="shape-rendering:geometricPrecision; text-rendering:geometricPrecision; image-rendering:optimizeQuality; fill-rule:evenodd; clip-rule:evenodd" xmlns:xlink="http://www.w3.org/1999/xlink">
<g><path style="opacity:1" fill="#ffffff" d="M 463.5,5.5 C 489.287,1.58171 510.287,9.58171 526.5,29.5C 539.247,52.2049 538.081,74.2049 523,95.5C 507.007,110.967 487.841,117.134 465.5,114C 429.757,106.224 414.257,84.057 419,47.5C 425.455,24.5383 440.288,10.5383 463.5,5.5 Z M 472.5,41.5 C 488.959,41.7211 496.126,50.0544 494,66.5C 489.133,78.1859 480.633,82.0192 468.5,78C 458.249,71.067 455.749,61.9003 461,50.5C 463.586,45.7306 467.419,42.7306 472.5,41.5 Z"/></g>
<g><path style="opacity:18" fill="#ffffff" d="M 1.5,7.5 C 39.8348,7.33335 78.1681,7.50001 116.5,8C 121.963,25.7692 127.297,43.6026 132.5,61.5C 138.151,43.5557 143.484,25.5557 148.5,7.5C 163.837,7.33341 179.17,7.50008 194.5,8C 179.808,42.1641 165.474,76.6641 151.5,111.5C 138.851,112.499 126.184,112.832 113.5,112.5C 104.39,89.1901 95.0569,65.8568 85.5,42.5C 79.2015,41.5037 72.8682,41.1703 66.5,41.5C 66.5,65.1667 66.5,88.8333 66.5,112.5C 52.8333,112.5 39.1667,112.5 25.5,112.5C 25.5,89.1667 25.5,65.8333 25.5,42.5C 17.5803,42.815 9.74695,42.4817 2,41.5C 1.50014,30.1716 1.33348,18.8382 1.5,7.5 Z"/></g>
<g><path style="opacity:1" fill="#ffffff" d="M 197.5,7.5 C 223.5,7.5 249.5,7.5 275.5,7.5C 275.819,17.7491 275.486,27.9158 274.5,38C 258.833,38.3333 243.167,38.6667 227.5,39C 226.833,41 226.167,43 225.5,45C 229.487,44.6756 233.487,44.0089 237.5,43C 254.08,41.2143 267.58,46.7143 278,59.5C 286.564,83.8754 278.731,100.709 254.5,110C 230.542,116.682 206.875,115.682 183.5,107C 182.376,106.161 181.709,104.994 181.5,103.5C 182.488,94.2566 184.488,85.2566 187.5,76.5C 201.419,83.7643 216.085,85.931 231.5,83C 241.898,77.2894 241.231,72.2894 229.5,68C 225.324,67.5731 221.158,67.0731 217,66.5C 207.05,67.0922 197.217,68.4256 187.5,70.5C 190.687,49.4825 194.021,28.4825 197.5,7.5 Z"/></g>
<g><path style="opacity:1" fill="#ffffff" d="M 297.5,7.5 C 311.183,7.16746 324.85,7.50079 338.5,8.5C 343.001,24.8522 347.501,41.1855 352,57.5C 356.504,40.8142 361.004,24.1476 365.5,7.5C 379.167,7.5 392.833,7.5 406.5,7.5C 412.256,42.4536 417.923,77.4536 423.5,112.5C 410.5,112.5 397.5,112.5 384.5,112.5C 383.056,95.5032 381.556,78.5032 380,61.5C 374.673,78.4781 369.507,95.4781 364.5,112.5C 356.167,112.5 347.833,112.5 339.5,112.5C 334.845,95.3656 329.678,78.3656 324,61.5C 322.444,78.508 320.944,95.508 319.5,112.5C 306.5,112.5 293.5,112.5 280.5,112.5C 286.24,77.4999 291.907,42.4999 297.5,7.5 Z"/></g>
<g><path style="opacity:1" fill="#ffffff" d="M 537.5,7.5 C 550.171,7.33345 562.838,7.50012 575.5,8C 585.714,25.5923 595.547,43.4256 605,61.5C 605.5,43.5031 605.667,25.5031 605.5,7.5C 618.167,7.5 630.833,7.5 643.5,7.5C 643.5,42.5 643.5,77.5 643.5,112.5C 630.496,112.667 617.496,112.5 604.5,112C 594.935,95.4598 585.435,78.9598 576,62.5C 575.5,79.1633 575.333,95.83 575.5,112.5C 562.833,112.5 550.167,112.5 537.5,112.5C 537.5,77.5 537.5,42.5 537.5,7.5 Z"/></g>
<g><path style="opacity:1" fill="#ffffff" d="M 646.5,7.5 C 665.836,7.33338 685.17,7.50005 704.5,8C 739.725,16.9069 753.892,39.4069 747,75.5C 741.065,96.1035 727.565,108.27 706.5,112C 686.503,112.5 666.503,112.667 646.5,112.5C 646.5,77.5 646.5,42.5 646.5,7.5 Z M 686.5,41.5 C 703.66,41.8311 710.827,50.4978 708,67.5C 703.596,76.2887 696.429,80.2887 686.5,79.5C 686.5,66.8333 686.5,54.1667 686.5,41.5 Z"/></g>
<g><path style="opacity:1" fill="#ffffff" d="M 749.5,7.5 C 773.5,7.5 797.5,7.5 821.5,7.5C 821.5,17.5 821.5,27.5 821.5,37.5C 810.833,37.5 800.167,37.5 789.5,37.5C 789.5,39.8333 789.5,42.1667 789.5,44.5C 799.167,44.5 808.833,44.5 818.5,44.5C 818.5,54.5 818.5,64.5 818.5,74.5C 808.833,74.5 799.167,74.5 789.5,74.5C 789.5,76.8333 789.5,79.1667 789.5,81.5C 800.5,81.5 811.5,81.5 822.5,81.5C 822.5,91.8333 822.5,102.167 822.5,112.5C 798.167,112.5 773.833,112.5 749.5,112.5C 749.5,77.5 749.5,42.5 749.5,7.5 Z"/></g>
<g><path style="opacity:1" fill="#ffffff" d="M 888.5,18.5 C 891.372,19.5262 893.872,21.1929 896,23.5C 915.417,44.2452 934.751,64.9119 954,85.5C 954.5,64.5026 954.667,43.5026 954.5,22.5C 958.833,22.5 963.167,22.5 967.5,22.5C 967.667,54.1684 967.5,85.8351 967,117.5C 945.024,95.1893 923.357,72.5226 902,49.5C 901.5,70.8307 901.333,92.1641 901.5,113.5C 897.167,113.5 892.833,113.5 888.5,113.5C 888.5,81.8333 888.5,50.1667 888.5,18.5 Z"/></g>
<g><path style="opacity:1" fill="#ffffff" d="M 1081.5,20.5 C 1102.01,17.6847 1118.51,24.3513 1131,40.5C 1141.83,58.2326 1142.17,76.2326 1132,94.5C 1119.66,111.079 1103.16,117.912 1082.5,115C 1055.04,108.206 1042.2,90.7059 1044,62.5C 1047.8,40.6929 1060.3,26.6929 1081.5,20.5 Z M 1087.5,32.5 C 1116.47,35.096 1128.63,50.7626 1124,79.5C 1117.86,93.8015 1107.03,101.802 1091.5,103.5C 1064.49,98.4731 1053.65,82.4731 1059,55.5C 1064.52,42.8076 1074.02,35.1409 1087.5,32.5 Z"/></g>
<g><path style="opacity:1" fill="#ffffff" d="M 855.5,22.5 C 859.833,22.5 864.167,22.5 868.5,22.5C 868.5,52.8333 868.5,83.1667 868.5,113.5C 864.167,113.5 859.833,113.5 855.5,113.5C 855.5,83.1667 855.5,52.8333 855.5,22.5 Z"/></g>
<g><path style="opacity:1" fill="#ffffff" d="M 987.5,22.5 C 1002.83,22.5 1018.17,22.5 1033.5,22.5C 1033.5,26.5 1033.5,30.5 1033.5,34.5C 1022.83,34.5 1012.17,34.5 1001.5,34.5C 1001.5,42.1667 1001.5,49.8333 1001.5,57.5C 1011.5,57.5 1021.5,57.5 1031.5,57.5C 1031.5,61.8333 1031.5,66.1667 1031.5,70.5C 1021.5,70.5 1011.5,70.5 1001.5,70.5C 1001.67,84.504 1001.5,98.504 1001,112.5C 996.599,113.467 992.099,113.8 987.5,113.5C 987.5,83.1667 987.5,52.8333 987.5,22.5 Z"/></g>
</svg>
