<?xml version="1.0" encoding="UTF-8"?>
<!DOCTYPE svg PUBLIC "-//W3C//DTD SVG 1.1//EN" "http://www.w3.org/Graphics/SVG/1.1/DTD/svg11.dtd">
<svg xmlns="http://www.w3.org/2000/svg" version="1.1" width="615px" height="120px" style="shape-rendering:geometricPrecision; text-rendering:geometricPrecision; image-rendering:optimizeQuality; fill-rule:evenodd; clip-rule:evenodd" xmlns:xlink="http://www.w3.org/1999/xlink">
<g><path style="opacity:1" fill="#ffffff" d="M 346.5,19.5 C 363.067,17.488 376.9,22.488 388,34.5C 398.112,49.5199 399.112,65.1866 391,81.5C 379.009,97.2269 363.175,103.06 343.5,99C 316.966,90.9501 306.966,73.2834 313.5,46C 319.621,31.0411 330.621,22.2077 346.5,19.5 Z M 351.5,46.5 C 360.805,46.4645 366.139,51.1311 367.5,60.5C 366.561,68.6052 362.061,73.2718 354,74.5C 343.398,71.9812 339.398,65.3145 342,54.5C 344.002,50.2752 347.169,47.6086 351.5,46.5 Z"/></g>
<g><path style="opacity:1" fill="#ffffff" d="M 7.5,20.5 C 35.8333,20.5 64.1667,20.5 92.5,20.5C 95.1508,33.8145 98.9842,46.8145 104,59.5C 106.859,46.4682 110.359,33.6349 114.5,21C 145.031,20.5816 175.698,20.7482 206.5,21.5C 207.82,28.6968 207.82,35.8634 206.5,43C 194.833,43.3333 183.167,43.6667 171.5,44C 172.337,45.0113 172.67,46.1779 172.5,47.5C 185.959,44.4392 197.459,47.7726 207,57.5C 214.788,73.1852 211.288,85.6852 196.5,95C 192.685,96.9087 188.685,98.242 184.5,99C 169.564,100.434 154.898,99.1007 140.5,95C 139.643,94.3109 138.977,93.4776 138.5,92.5C 140.038,85.5874 141.038,78.5874 141.5,71.5C 145.062,71.9652 148.395,73.1319 151.5,75C 160.214,78.0759 168.881,78.0759 177.5,75C 180.083,72.2132 179.75,69.7132 176.5,67.5C 172.659,65.8731 168.659,64.8731 164.5,64.5C 157.127,65.3381 149.793,66.3381 142.5,67.5C 144.28,52.7838 146.113,38.1172 148,23.5C 137.997,48.3324 127.497,72.999 116.5,97.5C 107.518,98.6653 98.5185,98.832 89.5,98C 82.2674,81.6968 75.434,65.1968 69,48.5C 64.287,47.2317 59.4537,46.565 54.5,46.5C 54.5,63.8333 54.5,81.1667 54.5,98.5C 44.5,98.5 34.5,98.5 24.5,98.5C 24.5,81.1667 24.5,63.8333 24.5,46.5C 18.8387,46.9068 13.172,47.2401 7.5,47.5C 7.5,38.5 7.5,29.5 7.5,20.5 Z"/></g>
<g><path style="opacity:1" fill="#ffffff" d="M 222.5,20.5 C 232.5,20.5 242.5,20.5 252.5,20.5C 255.134,32.6366 258.301,44.6366 262,56.5C 265,44.6675 268.5,33.0009 272.5,21.5C 282.167,20.1667 291.833,20.1667 301.5,21.5C 306.337,47.038 310.337,72.7047 313.5,98.5C 303.917,98.8184 294.417,98.4851 285,97.5C 284.587,85.7833 283.587,74.1166 282,62.5C 278.059,74.3737 274.559,86.3737 271.5,98.5C 265.167,98.5 258.833,98.5 252.5,98.5C 249.101,86.4709 245.601,74.4709 242,62.5C 241.124,74.1796 240.124,85.8462 239,97.5C 229.25,98.4856 219.416,98.819 209.5,98.5C 213.981,72.485 218.314,46.485 222.5,20.5 Z"/></g>
<g><path style="opacity:1" fill="#ffffff" d="M 399.5,20.5 C 408.857,20.1684 418.19,20.5017 427.5,21.5C 434.319,33.8015 441.152,46.1348 448,58.5C 448.5,45.8377 448.667,33.1711 448.5,20.5C 457.833,20.5 467.167,20.5 476.5,20.5C 476.5,46.5 476.5,72.5 476.5,98.5C 466.81,98.8318 457.144,98.4984 447.5,97.5C 440.8,85.9609 434.3,74.2942 428,62.5C 427.5,74.4954 427.333,86.4954 427.5,98.5C 418.167,98.5 408.833,98.5 399.5,98.5C 399.5,72.5 399.5,46.5 399.5,20.5 Z"/></g>
<g><path style="opacity:1" fill="#ffffff" d="M 480.5,20.5 C 495.198,20.197 509.865,20.697 524.5,22C 544.415,27.0842 554.415,39.9175 554.5,60.5C 554.477,80.0783 545.143,92.5783 526.5,98C 511.17,98.4999 495.837,98.6666 480.5,98.5C 480.5,72.5 480.5,46.5 480.5,20.5 Z M 509.5,46.5 C 523.479,46.9997 528.313,53.9997 524,67.5C 520.148,71.8427 515.314,74.1761 509.5,74.5C 509.5,65.1667 509.5,55.8333 509.5,46.5 Z"/></g>
<g><path style="opacity:1" fill="#ffffff" d="M 556.5,20.5 C 573.833,20.5 591.167,20.5 608.5,20.5C 608.5,28.1667 608.5,35.8333 608.5,43.5C 601.167,43.5 593.833,43.5 586.5,43.5C 586.5,45.1667 586.5,46.8333 586.5,48.5C 593.532,48.1697 600.532,48.503 607.5,49.5C 608.833,56.1667 608.833,62.8333 607.5,69.5C 600.532,70.497 593.532,70.8303 586.5,70.5C 586.5,72.1667 586.5,73.8333 586.5,75.5C 594.167,75.5 601.833,75.5 609.5,75.5C 609.5,83.1667 609.5,90.8333 609.5,98.5C 591.833,98.5 574.167,98.5 556.5,98.5C 556.5,72.5 556.5,46.5 556.5,20.5 Z"/></g>
</svg>
