<?xml version="1.0" encoding="UTF-8" standalone="no"?>
<!-- Generator: Adobe Illustrator 21.1.0, SVG Export Plug-In . SVG Version: 6.00 Build 0)  -->

<svg
   version="1.1"
   id="svg2"
   inkscape:version="1.1.1 (3bf5ae0d25, 2021-09-20)"
   sodipodi:docname="tvb.svg"
   x="0px"
   y="0px"
   viewBox="0 0 512 120.5"
   style="enable-background:new 0 0 512 120.5;"
   xml:space="preserve"
   xmlns:inkscape="http://www.inkscape.org/namespaces/inkscape"
   xmlns:sodipodi="http://sodipodi.sourceforge.net/DTD/sodipodi-0.dtd"
   xmlns="http://www.w3.org/2000/svg"
   xmlns:svg="http://www.w3.org/2000/svg"><defs
   id="defs24" />
<style
   type="text/css"
   id="style9">
	.st0{fill:#1A1A1A;}
	.st1{fill:#BA302D;}
</style>
<sodipodi:namedview
   bordercolor="#666666"
   borderopacity="1"
   gridtolerance="10"
   guidetolerance="10"
   id="namedview78"
   inkscape:current-layer="g35813"
   inkscape:cx="285.46869"
   inkscape:cy="66.241353"
   inkscape:pageopacity="0"
   inkscape:pageshadow="2"
   inkscape:window-height="858"
   inkscape:window-maximized="1"
   inkscape:window-width="1587"
   inkscape:window-x="0"
   inkscape:window-y="0"
   inkscape:zoom="0.63404502"
   objecttolerance="10"
   pagecolor="#ffffff"
   showgrid="false"
   inkscape:pagecheckerboard="0">
	</sodipodi:namedview>
<g
   id="layer1"
   transform="matrix(0.89676609,0,0,0.89676609,410.57956,-14.725572)">
	<g
   id="g35813">
		<path
   id="path30909"
   inkscape:connector-curvature="0"
   class="st0"
   d="M-420.1,135.6c-19.9,0-28-14.2-28-26.6V66.6h-9.8V45.6h9.8    V23.3h27.5v22.3h10.4l6.8,21.1h-17.2V107c0,3.5,1.8,5.5,5.5,5.5h11.9v23.1H-420.1z"
   style="fill:#ffffff" />
		<path
   id="path30913"
   inkscape:connector-curvature="0"
   class="st0"
   d="M-348.9,135.6h-20.9L-403,45.6h28.8l14.9,46.7l14.7-46.7    h28.8L-348.9,135.6L-348.9,135.6z"
   style="fill:#ffffff" />
		<path
   id="path30917"
   inkscape:connector-curvature="0"
   class="st1"
   d="M-256.5,69.3c-10.2,0-11.4,8.2-11.4,21.3    c0,13.1,1.2,21.3,11.4,21.3c10.2,0,11.4-8.2,11.4-21.3C-245.1,77.5-246.3,69.3-256.5,69.3 M-226,128.4c-5.2,5.2-13.2,8.2-21.9,8.2    c-9.4,0-15.2-2.8-20.8-8.4v7.4h-26.6V16.4h27.5v35.7c5-5,11.2-7.5,20.1-7.5c8.7,0,16.6,3,21.8,8.2c8.9,8.9,8.4,24.6,8.4,37.8    C-217.7,103.8-217.2,119.6-226,128.4" />
		<path
   id="path30921"
   inkscape:connector-curvature="0"
   class="st1"
   d="M-159.3,74.2c-1.7-3.9-5.4-7-11.9-7c-6.5,0-10.2,3.2-11.9,7    c-1.2,2.3-1.5,4.9-1.5,7h26.8C-157.8,79-158.1,76.5-159.3,74.2 M-184.6,99.5c0,7.4,5.7,14.1,15.9,14.1c9.5,0,13.7-2.7,18.6-7.5    l16.4,16.4c-9.2,9.2-18.2,14.2-35,14.2c-19.9,0-42.9-7.2-42.9-46c0-29.5,16.7-46,40.4-46c26.1,0,40.5,19.1,40.5,42.7v12.2    L-184.6,99.5L-184.6,99.5z" />
		<path
   id="path30925"
   inkscape:connector-curvature="0"
   class="st1"
   d="M-75.6,74c-2.7-2.7-5.2-4.7-9.9-4.7    c-3.7,0-11.1,2.2-11.1,12.4v53.9h-27.5V45.6h26.8v7.4c4-4,11.9-8.4,21.3-8.4c8.9,0,14.9,2.2,21.1,8.4L-75.6,74z" />
		<path
   id="path30929"
   inkscape:connector-curvature="0"
   class="st1"
   d="M-24,135.6c-19.9,0-28-14.2-28-26.6V16.4h27.4V107    c0,3.5,1.9,5.5,5.5,5.5h9.5v23.1H-24z" />
		<path
   id="path30931"
   inkscape:connector-curvature="0"
   class="st1"
   d="M-1.4,45.6h27.5v90.1H-1.4C-1.4,135.6-1.4,45.6-1.4,45.6z     M-1.4,37.3l-0.1-20.9H26l0.1,20.9C26.1,37.3-1.4,37.3-1.4,37.3z" />
		<path
   id="path30935"
   inkscape:connector-curvature="0"
   class="st1"
   d="M85.6,135.6V81.7c0-10.4-7.4-12.4-11.1-12.4    c-3.7,0-11.1,2-11.1,12.4v53.9H36.1V45.6h26.8v7.4c5.5-5.5,13.7-8.4,20.9-8.4c8.5,0,15.4,2.8,20.3,7.7c7.7,7.7,9,16.2,9,25.8v57.6    H85.6z" />
		<path
   id="path30937"
   inkscape:connector-curvature="0"
   class="st1"
   d="M-335.3,120.7h30.1v30.1h-30.1V120.7z" />
	</g>
</g>
<path
   style="opacity:0.9;fill:#ff0000;fill-opacity:1;stroke-width:1.57718"
   d="m 180.91624,107.30637 c -2.85472,-0.69502 -6.5808,-2.52196 -8.28016,-4.05986 -2.97741,-2.69452 -3.08976,-2.6726 -3.08976,0.6026 0,3.17816 -0.76787,3.39879 -11.82881,3.39879 H 145.88869 V 53.623952 0 h 12.6174 12.61741 V 15.023665 30.04733 l 4.6532,-2.406264 c 6.91402,-3.575379 19.73569,-3.083523 27.06971,1.038429 10.19586,5.730396 12.44439,12.558555 12.40335,37.665516 -0.0282,17.237719 -0.58158,22.392517 -2.96812,27.647468 -4.81044,10.592171 -18.56445,16.430431 -31.3654,13.313891 z m 6.89917,-26.061313 c 1.98011,-3.022041 2.43905,-6.807191 1.99933,-16.489979 -0.31692,-6.978733 -1.42029,-13.41714 -2.48113,-14.477978 -2.9635,-2.963501 -11.61349,-2.336517 -14.06759,1.019672 -3.10162,4.241713 -2.87955,25.807865 0.31267,30.365401 3.45338,4.930391 10.87538,4.712936 14.23672,-0.417116 z"
   id="path7982" /><path
   style="opacity:0.9;fill:#ff0000;fill-opacity:1;stroke-width:1.57718"
   d="m 247.95953,107.10347 c -19.21987,-4.52575 -26.95697,-16.061361 -26.8779,-40.073529 0.0509,-15.463641 2.05698,-21.995006 9.45659,-30.788944 8.90214,-10.579596 28.55019,-14.323281 42.32659,-8.064793 13.154,5.975732 22.03536,22.562911 20.9736,39.171123 l -0.48385,7.568489 -23.89374,0.434521 c -23.07274,0.41959 -23.8652,0.543695 -23.06287,3.611807 1.01136,3.867457 8.14232,7.782485 14.17526,7.782485 2.44141,0 6.99033,-1.367479 10.10873,-3.038841 l 5.66982,-3.038839 7.50834,7.622966 7.50835,7.622967 -6.5784,4.765358 c -9.86885,7.14896 -23.59083,9.54282 -36.83052,6.42523 z m 20.94882,-51.974033 c 0,-3.202159 -7.79556,-9.39136 -11.82881,-9.39136 -4.03326,0 -11.82882,6.189201 -11.82882,9.39136 0,1.000472 4.65153,1.648866 11.82882,1.648866 7.17729,0 11.82881,-0.648394 11.82881,-1.648866 z"
   id="path8021" /><path
   style="opacity:0.9;fill:#ff0000;fill-opacity:1;stroke-width:1.57718"
   d="M 298.87468,66.241353 V 25.234801 h 12.6174 c 11.49381,0 12.6174,0.27616 12.6174,3.10116 0,3.048348 0.0949,3.045183 5.5711,-0.185874 6.87325,-4.055315 21.17311,-3.563129 28.0463,0.965325 l 4.43966,2.925105 -9.71866,9.805829 c -9.59682,9.682885 -9.77535,9.777556 -14.23896,7.55081 -5.11307,-2.550733 -9.71555,-1.017601 -12.48612,4.159257 -0.90761,1.69588 -1.61332,14.098314 -1.61332,28.353006 V 107.2479 h -12.6174 -12.6174 z"
   id="path8060" /><path
   style="opacity:0.9;fill:#ff0000;fill-opacity:1;stroke-width:1.57718"
   d="m 375.77934,103.99509 c -3.60388,-1.90271 -7.1304,-5.53102 -9.06875,-9.330516 -2.9543,-5.790904 -3.17174,-9.248784 -3.17174,-50.44084 V 0 h 12.59164 12.59164 l 0.42006,42.189433 0.42005,42.189433 6.3087,0.788588 6.3087,0.788587 0.46636,10.645932 0.46635,10.645927 -10.71799,-0.0697 c -7.5211,-0.0489 -12.47692,-0.99834 -16.61502,-3.1831 z"
   id="path8099" /><path
   style="opacity:0.9;fill:#ff0000;fill-opacity:1;stroke-width:1.57718"
   d="M 409.27693,66.241353 V 25.234801 h 12.6174 12.6174 V 66.241353 107.2479 h -12.6174 -12.6174 z"
   id="path8138" /><path
   style="opacity:0.9;fill:#ff0000;fill-opacity:1;stroke-width:1.57718"
   d="M 409.27693,9.4630504 V 0 h 12.6174 12.6174 v 9.4630504 9.4630506 h -12.6174 -12.6174 z"
   id="path8177" /><path
   style="opacity:0.9;fill:#ff0000;fill-opacity:1;stroke-width:1.57718"
   d="M 442.39761,66.241353 V 25.234801 h 12.6174 c 11.53481,0 12.6174,0.268658 12.6174,3.131168 0,3.122232 0.0147,3.122249 5.12582,0.0059 11.46833,-6.992384 27.23587,-2.83051 35.4489,9.356809 3.43834,5.10214 3.58618,6.644839 3.58618,37.420376 V 107.2479 h -12.6174 -12.6174 V 80.737374 c 0,-27.979382 -0.58442,-30.529297 -7.46532,-32.572226 -2.56917,-0.762782 -4.59652,0.02834 -7.49159,2.923404 -3.92094,3.920949 -3.96919,4.286388 -3.96919,30.064274 V 107.2479 h -12.6174 -12.6174 z"
   id="path8216" /><path
   style="opacity:0.9;fill:#ff0000;fill-opacity:1;stroke-width:1.57718"
   d="M 109.61367,107.30931 V 93.053329 h 14.25598 14.25598 l -0.4557,13.800281 -0.4557,13.80028 -13.80028,0.4557 -13.80028,0.4557 z"
   id="path8255" /></svg>
