<?xml version="1.0" encoding="UTF-8"?>
<!DOCTYPE svg PUBLIC "-//W3C//DTD SVG 1.1//EN" "http://www.w3.org/Graphics/SVG/1.1/DTD/svg11.dtd">
<svg xmlns="http://www.w3.org/2000/svg" version="1.1" width="591px" height="120px" style="shape-rendering:geometricPrecision; text-rendering:geometricPrecision; image-rendering:optimizeQuality; fill-rule:evenodd; clip-rule:evenodd" xmlns:xlink="http://www.w3.org/1999/xlink">
<g><path style="opacity:1" fill="#000000" d="M 209.5,2.5 C 228.503,2.33338 247.503,2.50005 266.5,3C 282.49,3.54968 292.657,11.383 297,26.5C 298.107,37.4534 298.607,48.4534 298.5,59.5C 298.595,70.8737 298.095,82.2071 297,93.5C 292.749,108.062 282.915,115.562 267.5,116C 248.503,116.5 229.503,116.667 210.5,116.5C 210.821,78.4571 210.488,40.4571 209.5,2.5 Z M 236.5,23.5 C 245.891,23.1473 255.225,23.6473 264.5,25C 266.609,26.1411 268.442,27.6411 270,29.5C 271.101,39.6192 271.601,49.7858 271.5,60C 271.614,69.8898 271.114,79.7231 270,89.5C 267.406,93.0473 263.906,94.8807 259.5,95C 251.841,95.4997 244.174,95.6664 236.5,95.5C 236.5,71.5 236.5,47.5 236.5,23.5 Z"/></g>
<g><path style="opacity:1" fill="#000000" d="M 1.5,2.5 C 10.5,2.5 19.5,2.5 28.5,2.5C 28.0421,30.8757 28.5421,59.209 30,87.5C 30.504,91.0202 32.3374,93.5202 35.5,95C 43.5,97 51.5,97 59.5,95C 61.7089,93.1266 63.5422,90.96 65,88.5C 66.412,59.8587 66.912,31.1921 66.5,2.5C 75.5,2.5 84.5,2.5 93.5,2.5C 93.6666,29.1687 93.5,55.8354 93,82.5C 92.5599,101.573 83.0599,113.073 64.5,117C 48.4442,119.882 32.7775,118.548 17.5,113C 7.66648,106.136 2.49981,96.6359 2,84.5C 1.50002,57.1687 1.33336,29.8354 1.5,2.5 Z"/></g>
<g><path style="opacity:1" fill="#000000" d="M 167.5,47.5 C 169.484,32.8706 170.15,17.8706 169.5,2.5C 177.833,2.5 186.167,2.5 194.5,2.5C 194.5,40.5 194.5,78.5 194.5,116.5C 186.167,116.5 177.833,116.5 169.5,116.5C 170.151,100.132 169.485,84.1317 167.5,68.5C 156.167,68.5 144.833,68.5 133.5,68.5C 133.5,84.5 133.5,100.5 133.5,116.5C 124.5,116.5 115.5,116.5 106.5,116.5C 106.5,78.5 106.5,40.5 106.5,2.5C 115.5,2.5 124.5,2.5 133.5,2.5C 133.5,17.5 133.5,32.5 133.5,47.5C 144.833,47.5 156.167,47.5 167.5,47.5 Z"/></g>
<g><path style="opacity:1" fill="#000000" d="M 169.5,2.5 C 170.15,17.8706 169.484,32.8706 167.5,47.5C 166.85,32.1294 167.516,17.1294 169.5,2.5 Z"/></g>
<g><path style="opacity:1" fill="#000000" d="M 339.5,2.5 C 347.5,2.5 355.5,2.5 363.5,2.5C 363.5,40.5 363.5,78.5 363.5,116.5C 354.5,116.5 345.5,116.5 336.5,116.5C 336.667,90.8312 336.5,65.1645 336,39.5C 329.723,44.645 322.89,48.645 315.5,51.5C 313.25,44.9933 310.417,38.6599 307,32.5C 306.009,30.5527 305.675,28.5527 306,26.5C 317.348,18.6369 328.514,10.6369 339.5,2.5 Z"/></g>
<g><path style="opacity:1" fill="#ffffff" d="M 7.5,8.5 C 12.5,8.5 17.5,8.5 22.5,8.5C 22.0351,35.551 22.5351,62.551 24,89.5C 28.1782,100.177 36.0115,104.51 47.5,102.5C 58.6965,103.99 66.5298,99.6565 71,89.5C 72.4557,62.5428 72.9557,35.5428 72.5,8.5C 77.1667,8.5 81.8333,8.5 86.5,8.5C 86.6666,35.5021 86.5,62.5021 86,89.5C 83.2706,102.229 75.4372,109.396 62.5,111C 50.4422,111.915 38.4422,111.581 26.5,110C 14.8124,105.155 8.64574,96.3215 8,83.5C 7.50003,58.5022 7.33336,33.5022 7.5,8.5 Z"/></g>
<g><path style="opacity:1" fill="#ffffff" d="M 113.5,8.5 C 113.5,42.1667 113.5,75.8333 113.5,109.5C 117.833,109.5 122.167,109.5 126.5,109.5C 126.17,93.6578 126.504,77.9911 127.5,62.5C 127.5,62.8333 127.5,63.1667 127.5,63.5C 127.5,79.1667 127.5,94.8333 127.5,110.5C 122.5,110.5 117.5,110.5 112.5,110.5C 112.168,76.3292 112.502,42.3292 113.5,8.5 Z"/></g>
<g><path style="opacity:1" fill="#ffffff" d="M 113.5,8.5 C 118.167,8.5 122.833,8.5 127.5,8.5C 127.5,23.1667 127.5,37.8333 127.5,52.5C 142.991,53.4963 158.658,53.8296 174.5,53.5C 174.5,38.5 174.5,23.5 174.5,8.5C 179.167,8.5 183.833,8.5 188.5,8.5C 188.5,42.5 188.5,76.5 188.5,110.5C 183.833,110.5 179.167,110.5 174.5,110.5C 174.5,94.5 174.5,78.5 174.5,62.5C 158.833,62.5 143.167,62.5 127.5,62.5C 126.504,77.9911 126.17,93.6578 126.5,109.5C 122.167,109.5 117.833,109.5 113.5,109.5C 113.5,75.8333 113.5,42.1667 113.5,8.5 Z"/></g>
<g><path style="opacity:1" fill="#ffffff" d="M 215.5,8.5 C 232.503,8.3334 249.503,8.50006 266.5,9C 274.486,9.87504 281.32,13.0417 287,18.5C 288.711,20.9562 290.044,23.6229 291,26.5C 292.12,37.2782 292.62,48.1115 292.5,59C 292.333,68.5 292.167,78 292,87.5C 289.425,102.076 280.592,109.576 265.5,110C 248.837,110.5 232.17,110.667 215.5,110.5C 215.5,76.5 215.5,42.5 215.5,8.5 Z M 236.5,23.5 C 236.5,47.5 236.5,71.5 236.5,95.5C 244.174,95.6664 251.841,95.4997 259.5,95C 263.906,94.8807 267.406,93.0473 270,89.5C 271.114,79.7231 271.614,69.8898 271.5,60C 271.601,49.7858 271.101,39.6192 270,29.5C 268.442,27.6411 266.609,26.1411 264.5,25C 255.225,23.6473 245.891,23.1473 236.5,23.5 Z"/></g>
<g><path style="opacity:1" fill="#ffffff" d="M 356.5,8.5 C 356.5,42.1667 356.5,75.8333 356.5,109.5C 352.167,109.5 347.833,109.5 343.5,109.5C 343.833,82.1585 343.5,54.8252 342.5,27.5C 341.893,27.6236 341.56,27.9569 341.5,28.5C 334.476,33.3526 327.309,38.0193 320,42.5C 316.333,38.5046 314.333,33.838 314,28.5C 323.254,22.1229 332.421,15.6229 341.5,9C 346.489,8.50074 351.489,8.33407 356.5,8.5 Z"/></g>
<g><path style="opacity:1" fill="#ffffff" d="M 356.5,8.5 C 357.498,42.3292 357.832,76.3292 357.5,110.5C 352.833,110.5 348.167,110.5 343.5,110.5C 343.5,110.167 343.5,109.833 343.5,109.5C 347.833,109.5 352.167,109.5 356.5,109.5C 356.5,75.8333 356.5,42.1667 356.5,8.5 Z"/></g>
<g><path style="opacity:1" fill="#000000" d="M 230.5,17.5 C 240.506,17.3335 250.506,17.5002 260.5,18C 268.759,18.695 274.259,22.8617 277,30.5C 277.667,49.5 277.667,68.5 277,87.5C 274.572,96.9077 268.405,101.408 258.5,101C 249.173,101.5 239.839,101.666 230.5,101.5C 230.5,73.5 230.5,45.5 230.5,17.5 Z M 236.5,23.5 C 236.5,47.5 236.5,71.5 236.5,95.5C 244.174,95.6664 251.841,95.4997 259.5,95C 263.906,94.8807 267.406,93.0473 270,89.5C 271.114,79.7231 271.614,69.8898 271.5,60C 271.601,49.7858 271.101,39.6192 270,29.5C 268.442,27.6411 266.609,26.1411 264.5,25C 255.225,23.6473 245.891,23.1473 236.5,23.5 Z"/></g>
<g><path style="opacity:1" fill="#000000" d="M 440.5,27.5 C 489.167,27.5 537.833,27.5 586.5,27.5C 586.5,50.8333 586.5,74.1667 586.5,97.5C 537.833,97.5 489.167,97.5 440.5,97.5C 440.5,74.1667 440.5,50.8333 440.5,27.5 Z"/></g>
<g><path style="opacity:1" fill="#000000" d="M 341.5,28.5 C 341.56,27.9569 341.893,27.6236 342.5,27.5C 343.5,54.8252 343.833,82.1585 343.5,109.5C 343.5,109.833 343.5,110.167 343.5,110.5C 342.833,83.1667 342.167,55.8333 341.5,28.5 Z"/></g>
<g><path style="opacity:1" fill="#ffffff" d="M 514.5,30.5 C 537.5,30.5 560.5,30.5 583.5,30.5C 583.5,51.8333 583.5,73.1667 583.5,94.5C 560.5,94.5 537.5,94.5 514.5,94.5C 514.5,73.1667 514.5,51.8333 514.5,30.5 Z"/></g>
<g><path style="opacity:1" fill="#000000" d="M 385.5,49.5 C 386.5,49.5 387.5,49.5 388.5,49.5C 388.5,52.1667 388.5,54.8333 388.5,57.5C 391.518,57.3354 394.518,57.502 397.5,58C 398,58.5 398.5,59 399,59.5C 403.19,73.9776 398.19,78.9776 384,74.5C 382.915,65.9028 383.415,57.5694 385.5,49.5 Z M 389.5,61.5 C 393.49,60.8238 395.157,62.4905 394.5,66.5C 394.923,70.9084 392.923,72.5751 388.5,71.5C 388.253,68.0613 388.586,64.728 389.5,61.5 Z"/></g>
<g><path style="opacity:1" fill="#ffffff" d="M 454.5,50.5 C 455.5,50.5 456.5,50.5 457.5,50.5C 457.187,54.0419 457.521,57.3752 458.5,60.5C 462.833,60.5 467.167,60.5 471.5,60.5C 471.5,57.1667 471.5,53.8333 471.5,50.5C 472.833,50.5 474.167,50.5 475.5,50.5C 475.5,58.8333 475.5,67.1667 475.5,75.5C 474.167,75.5 472.833,75.5 471.5,75.5C 471.5,71.8333 471.5,68.1667 471.5,64.5C 467.167,64.5 462.833,64.5 458.5,64.5C 457.521,67.6248 457.187,70.9581 457.5,74.5C 456.5,74.5 455.5,74.5 454.5,74.5C 454.5,66.5 454.5,58.5 454.5,50.5 Z"/></g>
<g><path style="opacity:1" fill="#000000" d="M 454.5,50.5 C 455.568,49.5655 456.901,49.2322 458.5,49.5C 458.5,53.1667 458.5,56.8333 458.5,60.5C 457.521,57.3752 457.187,54.0419 457.5,50.5C 456.5,50.5 455.5,50.5 454.5,50.5 Z"/></g>
<g><path style="opacity:1" fill="#ffffff" d="M 479.5,50.5 C 495.977,46.8157 502.81,53.1491 500,69.5C 498.809,72.5341 496.642,74.2007 493.5,74.5C 488.833,74.5 484.167,74.5 479.5,74.5C 479.5,66.5 479.5,58.5 479.5,50.5 Z"/></g>
<g><path style="opacity:1" fill="#000000" d="M 174.5,8.5 C 174.5,23.5 174.5,38.5 174.5,53.5C 158.658,53.8296 142.991,53.4963 127.5,52.5C 142.833,52.5 158.167,52.5 173.5,52.5C 173.171,37.6572 173.504,22.9905 174.5,8.5 Z"/></g>
<g><path style="opacity:1" fill="#000000" d="M 559.5,64.5 C 556.5,64.5 553.5,64.5 550.5,64.5C 550.5,67.5 550.5,70.5 550.5,73.5C 549.432,74.4345 548.099,74.7678 546.5,74.5C 546.5,71.1667 546.5,67.8333 546.5,64.5C 543.5,64.5 540.5,64.5 537.5,64.5C 537.5,63.5 537.5,62.5 537.5,61.5C 540.5,61.5 543.5,61.5 546.5,61.5C 546.5,58.1667 546.5,54.8333 546.5,51.5C 547.833,51.5 549.167,51.5 550.5,51.5C 550.5,54.8333 550.5,58.1667 550.5,61.5C 553.5,61.5 556.5,61.5 559.5,61.5C 559.5,62.5 559.5,63.5 559.5,64.5 Z"/></g>
<g><path style="opacity:1" fill="#000000" d="M 483.5,53.5 C 483.5,59.5 483.5,65.5 483.5,71.5C 486.167,71.5 488.833,71.5 491.5,71.5C 488.713,72.4767 485.713,72.81 482.5,72.5C 482.177,65.9779 482.51,59.6446 483.5,53.5 Z"/></g>
<g><path style="opacity:1" fill="#000000" d="M 483.5,53.5 C 495.119,52.0214 499.286,57.0214 496,68.5C 494.871,70.1412 493.371,71.1412 491.5,71.5C 488.833,71.5 486.167,71.5 483.5,71.5C 483.5,65.5 483.5,59.5 483.5,53.5 Z"/></g>
<g><path style="opacity:1" fill="#000000" d="M 400.5,57.5 C 402.604,57.2011 404.604,57.5344 406.5,58.5C 407.765,61.7957 408.932,65.129 410,68.5C 411.674,64.9793 412.84,61.3127 413.5,57.5C 415.5,57.5 417.5,57.5 419.5,57.5C 417.738,65.5359 414.905,73.2025 411,80.5C 409.005,82.747 406.505,83.747 403.5,83.5C 403.12,80.2084 404.453,77.8751 407.5,76.5C 404.963,70.22 402.63,63.8867 400.5,57.5 Z"/></g>
<g><path style="opacity:1" fill="#000000" d="M 127.5,63.5 C 127.5,63.1667 127.5,62.8333 127.5,62.5C 143.167,62.5 158.833,62.5 174.5,62.5C 174.5,78.5 174.5,94.5 174.5,110.5C 173.504,95.0089 173.17,79.3422 173.5,63.5C 158.167,63.5 142.833,63.5 127.5,63.5 Z"/></g>
<g><path style="opacity:1" fill="#000000" d="M 454.5,50.5 C 454.5,58.5 454.5,66.5 454.5,74.5C 455.5,74.5 456.5,74.5 457.5,74.5C 457.187,70.9581 457.521,67.6248 458.5,64.5C 458.5,68.1667 458.5,71.8333 458.5,75.5C 456.833,75.5 455.167,75.5 453.5,75.5C 453.174,66.9832 453.507,58.6499 454.5,50.5 Z"/></g>
<g><path style="opacity:1" fill="#ffffff" d="M 559.5,64.5 C 557.052,65.4731 554.385,65.8064 551.5,65.5C 551.806,68.3854 551.473,71.0521 550.5,73.5C 550.5,70.5 550.5,67.5 550.5,64.5C 553.5,64.5 556.5,64.5 559.5,64.5 Z"/></g>
<g><path style="opacity:1" fill="#000000" d="M 167.5,68.5 C 169.485,84.1317 170.151,100.132 169.5,116.5C 167.515,100.868 166.849,84.8683 167.5,68.5 Z"/></g>
<g><path style="opacity:1" fill="#ffffff" d="M 479.5,50.5 C 479.5,58.5 479.5,66.5 479.5,74.5C 484.167,74.5 488.833,74.5 493.5,74.5C 488.695,75.4872 483.695,75.8205 478.5,75.5C 478.174,66.9832 478.507,58.6499 479.5,50.5 Z"/></g>
<g><path style="opacity:1" fill="#000000" d="M 440.5,27.5 C 440.5,50.8333 440.5,74.1667 440.5,97.5C 489.167,97.5 537.833,97.5 586.5,97.5C 537.67,98.4988 488.67,98.8322 439.5,98.5C 439.169,74.6608 439.502,50.9941 440.5,27.5 Z"/></g>
</svg>
