<?xml version="1.0" encoding="UTF-8" standalone="no"?>
<svg
   viewBox="0 0 695.51349 79.697068"
   height="79.697067"
   width="695.51349"
   xml:space="preserve"
   id="svg2"
   version="1.1"
   sodipodi:docname="Universal TV.svg"
   inkscape:version="1.1.1 (3bf5ae0d25, 2021-09-20)"
   xmlns:inkscape="http://www.inkscape.org/namespaces/inkscape"
   xmlns:sodipodi="http://sodipodi.sourceforge.net/DTD/sodipodi-0.dtd"
   xmlns="http://www.w3.org/2000/svg"
   xmlns:svg="http://www.w3.org/2000/svg"
   xmlns:rdf="http://www.w3.org/1999/02/22-rdf-syntax-ns#"
   xmlns:cc="http://creativecommons.org/ns#"
   xmlns:dc="http://purl.org/dc/elements/1.1/"><sodipodi:namedview
     id="namedview166"
     pagecolor="#ffffff"
     bordercolor="#666666"
     borderopacity="1.0"
     inkscape:pageshadow="2"
     inkscape:pageopacity="0.0"
     inkscape:pagecheckerboard="0"
     showgrid="false"
     inkscape:zoom="1.2821866"
     inkscape:cx="363.83159"
     inkscape:cy="40.16576"
     inkscape:window-width="1920"
     inkscape:window-height="1017"
     inkscape:window-x="-8"
     inkscape:window-y="-8"
     inkscape:window-maximized="1"
     inkscape:current-layer="g12" /><metadata
     id="metadata8"><rdf:RDF><cc:Work
         rdf:about=""><dc:format>image/svg+xml</dc:format><dc:type
           rdf:resource="http://purl.org/dc/dcmitype/StillImage" /></cc:Work></rdf:RDF></metadata><defs
     id="defs6"><clipPath
       id="clipPath20"
       clipPathUnits="userSpaceOnUse"><path
         id="path18"
         d="m 2496.1,1435.6 v 137.63 H 2068.39 V 986.309 h 431.75 v 137.611 h -279.28 v 94.46 h 249.59 v 128.17 h -249.59 v 89.05 z" /></clipPath><radialGradient
       id="radialGradient34"
       spreadMethod="pad"
       gradientTransform="matrix(3160,-2815,-2815,-3160,1765.41,2233.07)"
       gradientUnits="userSpaceOnUse"
       r="1"
       cy="0"
       cx="0"
       fy="0"
       fx="0"><stop
         id="stop22"
         offset="0"
         style="stop-opacity:1;stop-color:#f35e28" /><stop
         id="stop24"
         offset="0.1"
         style="stop-opacity:1;stop-color:#f35e28" /><stop
         id="stop26"
         offset="0.25"
         style="stop-opacity:1;stop-color:#f14e3d" /><stop
         id="stop28"
         offset="0.35"
         style="stop-opacity:1;stop-color:#f1474c" /><stop
         id="stop30"
         offset="0.65"
         style="stop-opacity:1;stop-color:#ed1850" /><stop
         id="stop32"
         offset="1"
         style="stop-opacity:1;stop-color:#ea1543" /></radialGradient><clipPath
       id="clipPath44"
       clipPathUnits="userSpaceOnUse"><path
         id="path42"
         d="m 2841.5,1293.93 h -94.45 v 143.02 h 94.45 c 51.27,0 82.31,-25.64 82.31,-72.85 0,-41.82 -29.69,-70.17 -82.31,-70.17 z m 121.44,-102.53 c 66.11,31.02 109.31,89.05 109.31,179.44 0,126.83 -89.08,202.39 -226.69,202.39 H 2597.29 V 986.309 h 149.76 v 179.471 h 75.57 l 94.45,-179.471 h 172.7 z" /></clipPath><radialGradient
       id="radialGradient58"
       spreadMethod="pad"
       gradientTransform="matrix(3160,-2815,-2815,-3160,1765.41,2233.07)"
       gradientUnits="userSpaceOnUse"
       r="1"
       cy="0"
       cx="0"
       fy="0"
       fx="0"><stop
         id="stop46"
         offset="0"
         style="stop-opacity:1;stop-color:#f35e28" /><stop
         id="stop48"
         offset="0.1"
         style="stop-opacity:1;stop-color:#f35e28" /><stop
         id="stop50"
         offset="0.25"
         style="stop-opacity:1;stop-color:#f14e3d" /><stop
         id="stop52"
         offset="0.35"
         style="stop-opacity:1;stop-color:#f1474c" /><stop
         id="stop54"
         offset="0.65"
         style="stop-opacity:1;stop-color:#ed1850" /><stop
         id="stop56"
         offset="1"
         style="stop-opacity:1;stop-color:#ea1543" /></radialGradient><clipPath
       id="clipPath68"
       clipPathUnits="userSpaceOnUse"><path
         id="path66"
         d="m 4417.41,1118.52 v 412.88 l -148.4,6.74 V 986.309 h 400.72 v 129.521 z" /></clipPath><radialGradient
       id="radialGradient82"
       spreadMethod="pad"
       gradientTransform="matrix(3160,-2815,-2815,-3160,1765.41,2233.07)"
       gradientUnits="userSpaceOnUse"
       r="1"
       cy="0"
       cx="0"
       fy="0"
       fx="0"><stop
         id="stop70"
         offset="0"
         style="stop-opacity:1;stop-color:#f35e28" /><stop
         id="stop72"
         offset="0.1"
         style="stop-opacity:1;stop-color:#f35e28" /><stop
         id="stop74"
         offset="0.25"
         style="stop-opacity:1;stop-color:#f14e3d" /><stop
         id="stop76"
         offset="0.35"
         style="stop-opacity:1;stop-color:#f1474c" /><stop
         id="stop78"
         offset="0.65"
         style="stop-opacity:1;stop-color:#ed1850" /><stop
         id="stop80"
         offset="1"
         style="stop-opacity:1;stop-color:#ea1543" /></radialGradient><clipPath
       id="clipPath92"
       clipPathUnits="userSpaceOnUse"><path
         id="path90"
         d="m 3385.26,1346.55 c -74.21,18.9 -93.1,37.8 -93.1,58.02 0,21.59 17.53,36.43 53.97,36.43 47.22,0 99.83,-20.23 149.76,-58.01 l 72.86,110.63 c -58.02,51.27 -128.19,80.96 -218.56,80.96 -128.2,0 -207.79,-74.21 -207.79,-183.51 0,-103.87 87.7,-155.15 202.37,-184.84 71.53,-18.89 89.05,-31.02 89.05,-56.64 0,-25.67 -21.57,-39.15 -60.71,-39.15 -62.06,0 -120.09,24.29 -172.71,70.17 L 3118.11,1074 c 64.75,-64.75 155.15,-97.148 249.6,-97.148 129.54,0 215.86,70.168 215.86,186.218 0,109.29 -75.53,152.44 -198.31,183.48 z" /></clipPath><radialGradient
       id="radialGradient106"
       spreadMethod="pad"
       gradientTransform="matrix(3160,-2815,-2815,-3160,1765.41,2233.07)"
       gradientUnits="userSpaceOnUse"
       r="1"
       cy="0"
       cx="0"
       fy="0"
       fx="0"><stop
         id="stop94"
         offset="0"
         style="stop-opacity:1;stop-color:#f35e28" /><stop
         id="stop96"
         offset="0.1"
         style="stop-opacity:1;stop-color:#f35e28" /><stop
         id="stop98"
         offset="0.25"
         style="stop-opacity:1;stop-color:#f14e3d" /><stop
         id="stop100"
         offset="0.35"
         style="stop-opacity:1;stop-color:#f1474c" /><stop
         id="stop102"
         offset="0.65"
         style="stop-opacity:1;stop-color:#ed1850" /><stop
         id="stop104"
         offset="1"
         style="stop-opacity:1;stop-color:#ea1543" /></radialGradient><clipPath
       id="clipPath116"
       clipPathUnits="userSpaceOnUse"><path
         id="path114"
         d="m 3845.33,1210.28 60.72,159.21 59.37,-160.57 z m 133.6,341.36 -143.02,4.05 -228.04,-569.381 h 155.17 l 39.13,101.191 h 205.08 l 39.13,-101.191 h 159.2 z" /></clipPath><radialGradient
       id="radialGradient130"
       spreadMethod="pad"
       gradientTransform="matrix(3160,-2815,-2815,-3160,1765.41,2233.07)"
       gradientUnits="userSpaceOnUse"
       r="1"
       cy="0"
       cx="0"
       fy="0"
       fx="0"><stop
         id="stop118"
         offset="0"
         style="stop-opacity:1;stop-color:#f35e28" /><stop
         id="stop120"
         offset="0.1"
         style="stop-opacity:1;stop-color:#f35e28" /><stop
         id="stop122"
         offset="0.25"
         style="stop-opacity:1;stop-color:#f14e3d" /><stop
         id="stop124"
         offset="0.35"
         style="stop-opacity:1;stop-color:#f1474c" /><stop
         id="stop126"
         offset="0.65"
         style="stop-opacity:1;stop-color:#ed1850" /><stop
         id="stop128"
         offset="1"
         style="stop-opacity:1;stop-color:#ea1543" /></radialGradient><clipPath
       id="clipPath140"
       clipPathUnits="userSpaceOnUse"><path
         id="path138"
         d="m 1214.32,986.309 h 151.12 v 578.831 c -49.93,-1.37 -101.19,-2.7 -151.12,-2.7 z" /></clipPath><radialGradient
       id="radialGradient154"
       spreadMethod="pad"
       gradientTransform="matrix(3160,-2815,-2815,-3160,1765.41,2233.07)"
       gradientUnits="userSpaceOnUse"
       r="1"
       cy="0"
       cx="0"
       fy="0"
       fx="0"><stop
         id="stop142"
         offset="0"
         style="stop-opacity:1;stop-color:#f35e28" /><stop
         id="stop144"
         offset="0.1"
         style="stop-opacity:1;stop-color:#f35e28" /><stop
         id="stop146"
         offset="0.25"
         style="stop-opacity:1;stop-color:#f14e3d" /><stop
         id="stop148"
         offset="0.35"
         style="stop-opacity:1;stop-color:#f1474c" /><stop
         id="stop150"
         offset="0.65"
         style="stop-opacity:1;stop-color:#ed1850" /><stop
         id="stop152"
         offset="1"
         style="stop-opacity:1;stop-color:#ea1543" /></radialGradient><clipPath
       id="clipPath164"
       clipPathUnits="userSpaceOnUse"><path
         id="path162"
         d="m 1597.51,1569.19 -164.62,-2.71 217.23,-580.171 h 143.03 l 210.46,586.921 c -55.31,0 -109.28,-1.35 -163.24,-1.35 l -114.69,-371.04 z" /></clipPath><radialGradient
       id="radialGradient178"
       spreadMethod="pad"
       gradientTransform="matrix(3160,-2815,-2815,-3160,1765.41,2233.07)"
       gradientUnits="userSpaceOnUse"
       r="1"
       cy="0"
       cx="0"
       fy="0"
       fx="0"><stop
         id="stop166"
         offset="0"
         style="stop-opacity:1;stop-color:#f35e28" /><stop
         id="stop168"
         offset="0.1"
         style="stop-opacity:1;stop-color:#f35e28" /><stop
         id="stop170"
         offset="0.25"
         style="stop-opacity:1;stop-color:#f14e3d" /><stop
         id="stop172"
         offset="0.35"
         style="stop-opacity:1;stop-color:#f1474c" /><stop
         id="stop174"
         offset="0.65"
         style="stop-opacity:1;stop-color:#ed1850" /><stop
         id="stop176"
         offset="1"
         style="stop-opacity:1;stop-color:#ea1543" /></radialGradient><clipPath
       id="clipPath188"
       clipPathUnits="userSpaceOnUse"><path
         id="path186"
         d="m 348.105,1226.48 c 0,-76.89 -39.14,-113.36 -98.503,-113.36 -60.723,0 -98.489,35.09 -98.489,113.36 v 300.87 C 101.191,1524.66 49.9219,1521.96 0,1520.62 v -299.53 c 0,-167.34 95.7891,-244.238 248.262,-244.238 151.113,0 249.621,78.278 249.621,256.368 v 307.63 l -149.778,-5.39 z" /></clipPath><radialGradient
       id="radialGradient202"
       spreadMethod="pad"
       gradientTransform="matrix(3160,-2815,-2815,-3160,1765.41,2233.07)"
       gradientUnits="userSpaceOnUse"
       r="1"
       cy="0"
       cx="0"
       fy="0"
       fx="0"><stop
         id="stop190"
         offset="0"
         style="stop-opacity:1;stop-color:#f35e28" /><stop
         id="stop192"
         offset="0.1"
         style="stop-opacity:1;stop-color:#f35e28" /><stop
         id="stop194"
         offset="0.25"
         style="stop-opacity:1;stop-color:#f14e3d" /><stop
         id="stop196"
         offset="0.35"
         style="stop-opacity:1;stop-color:#f1474c" /><stop
         id="stop198"
         offset="0.65"
         style="stop-opacity:1;stop-color:#ed1850" /><stop
         id="stop200"
         offset="1"
         style="stop-opacity:1;stop-color:#ea1543" /></radialGradient><clipPath
       id="clipPath212"
       clipPathUnits="userSpaceOnUse"><path
         id="path210"
         d="m 1103.67,1559.75 -147.061,-4.06 V 1254.8 L 736.688,1548.93 599.07,1544.89 V 986.309 h 145.703 v 308.971 l 228.02,-308.971 h 130.877 z" /></clipPath><radialGradient
       id="radialGradient226"
       spreadMethod="pad"
       gradientTransform="matrix(3160,-2815,-2815,-3160,1765.41,2233.07)"
       gradientUnits="userSpaceOnUse"
       r="1"
       cy="0"
       cx="0"
       fy="0"
       fx="0"><stop
         id="stop214"
         offset="0"
         style="stop-opacity:1;stop-color:#f35e28" /><stop
         id="stop216"
         offset="0.1"
         style="stop-opacity:1;stop-color:#f35e28" /><stop
         id="stop218"
         offset="0.25"
         style="stop-opacity:1;stop-color:#f14e3d" /><stop
         id="stop220"
         offset="0.35"
         style="stop-opacity:1;stop-color:#f1474c" /><stop
         id="stop222"
         offset="0.65"
         style="stop-opacity:1;stop-color:#ed1850" /><stop
         id="stop224"
         offset="1"
         style="stop-opacity:1;stop-color:#ea1543" /></radialGradient><clipPath
       id="clipPath236"
       clipPathUnits="userSpaceOnUse"><path
         id="path234"
         d="M 0,0 H 4670 V 2543 H 0 Z" /></clipPath><clipPath
       id="clipPath242"
       clipPathUnits="userSpaceOnUse"><path
         id="path240"
         d="m 2330.16,2438.09 c 500.56,0 936.36,-327.84 1103.66,-773.13 h 60.72 c -164.6,508.69 -640.9,878.37 -1206.21,878.37 -549.15,0 -1018.7,-350.79 -1194.1,-841.91 l 187.54,4.03 c 171.36,438.51 564,732.64 1048.39,732.64 z" /></clipPath><radialGradient
       id="radialGradient256"
       spreadMethod="pad"
       gradientTransform="matrix(3160,-2815,-2815,-3160,1765.41,2233.07)"
       gradientUnits="userSpaceOnUse"
       r="1"
       cy="0"
       cx="0"
       fy="0"
       fx="0"><stop
         id="stop244"
         offset="0"
         style="stop-opacity:1;stop-color:#f35e28" /><stop
         id="stop246"
         offset="0.1"
         style="stop-opacity:1;stop-color:#f35e28" /><stop
         id="stop248"
         offset="0.25"
         style="stop-opacity:1;stop-color:#f14e3d" /><stop
         id="stop250"
         offset="0.35"
         style="stop-opacity:1;stop-color:#f1474c" /><stop
         id="stop252"
         offset="0.65"
         style="stop-opacity:1;stop-color:#ed1850" /><stop
         id="stop254"
         offset="1"
         style="stop-opacity:1;stop-color:#ea1543" /></radialGradient><clipPath
       id="clipPath266"
       clipPathUnits="userSpaceOnUse"><path
         id="path264"
         d="m 2323.39,74.2305 c -547.79,0 -941.77,317.0585 -1103.67,765.0075 H 1103.67 C 1265.58,344.059 1731.07,0 2284.28,0 c 420.96,0 783.91,184.859 1006.53,487.078 h -67.48 C 3012.86,234.762 2703.9,74.2305 2323.39,74.2305 Z" /></clipPath><radialGradient
       id="radialGradient280"
       spreadMethod="pad"
       gradientTransform="matrix(3160,-2815,-2815,-3160,1765.41,2233.07)"
       gradientUnits="userSpaceOnUse"
       r="1"
       cy="0"
       cx="0"
       fy="0"
       fx="0"><stop
         id="stop268"
         offset="0"
         style="stop-opacity:1;stop-color:#f35e28" /><stop
         id="stop270"
         offset="0.1"
         style="stop-opacity:1;stop-color:#f35e28" /><stop
         id="stop272"
         offset="0.25"
         style="stop-opacity:1;stop-color:#f14e3d" /><stop
         id="stop274"
         offset="0.35"
         style="stop-opacity:1;stop-color:#f1474c" /><stop
         id="stop276"
         offset="0.65"
         style="stop-opacity:1;stop-color:#ed1850" /><stop
         id="stop278"
         offset="1"
         style="stop-opacity:1;stop-color:#ea1543" /></radialGradient><clipPath
       id="clipPath290"
       clipPathUnits="userSpaceOnUse"><path
         id="path288"
         d="m 3420.33,659.789 -80.96,206.43 h -51.26 L 3398.75,595.02 h 41.81 l 112,271.199 h -51.28 z" /></clipPath><radialGradient
       id="radialGradient304"
       spreadMethod="pad"
       gradientTransform="matrix(3160,-2815,-2815,-3160,1765.41,2233.07)"
       gradientUnits="userSpaceOnUse"
       r="1"
       cy="0"
       cx="0"
       fy="0"
       fx="0"><stop
         id="stop292"
         offset="0"
         style="stop-opacity:1;stop-color:#f35e28" /><stop
         id="stop294"
         offset="0.1"
         style="stop-opacity:1;stop-color:#f35e28" /><stop
         id="stop296"
         offset="0.25"
         style="stop-opacity:1;stop-color:#f14e3d" /><stop
         id="stop298"
         offset="0.35"
         style="stop-opacity:1;stop-color:#f1474c" /><stop
         id="stop300"
         offset="0.65"
         style="stop-opacity:1;stop-color:#ed1850" /><stop
         id="stop302"
         offset="1"
         style="stop-opacity:1;stop-color:#ea1543" /></radialGradient><clipPath
       id="clipPath314"
       clipPathUnits="userSpaceOnUse"><path
         id="path312"
         d="m 3154.47,594.941 0.07,226.758 h 85 v 44.52 l -217.29,0.011 v -44.511 l 85.06,-0.02 -0.02,-226.758 z" /></clipPath><radialGradient
       id="radialGradient328"
       spreadMethod="pad"
       gradientTransform="matrix(3160,-2815,-2815,-3160,1765.41,2233.07)"
       gradientUnits="userSpaceOnUse"
       r="1"
       cy="0"
       cx="0"
       fy="0"
       fx="0"><stop
         id="stop316"
         offset="0"
         style="stop-opacity:1;stop-color:#f35e28" /><stop
         id="stop318"
         offset="0.1"
         style="stop-opacity:1;stop-color:#f35e28" /><stop
         id="stop320"
         offset="0.25"
         style="stop-opacity:1;stop-color:#f14e3d" /><stop
         id="stop322"
         offset="0.35"
         style="stop-opacity:1;stop-color:#f1474c" /><stop
         id="stop324"
         offset="0.65"
         style="stop-opacity:1;stop-color:#ed1850" /><stop
         id="stop326"
         offset="1"
         style="stop-opacity:1;stop-color:#ea1543" /></radialGradient></defs><g
     transform="matrix(1.3333333,0,0,-1.3333333,0,209.94399)"
     id="g10"><g
       transform="scale(0.1)"
       id="g12"><g
         id="g14"
         transform="matrix(1,0,0,1.0148416,0,-23.349205)"
         style="fill:#ffffff"><g
           clip-path="url(#clipPath20)"
           id="g16"
           style="fill:#ffffff"><path
             id="path36"
             style="fill:#ffffff;fill-opacity:1;fill-rule:nonzero;stroke:none"
             d="m 2496.1,1435.6 v 137.63 H 2068.39 V 986.309 h 431.75 v 137.611 h -279.28 v 94.46 h 249.59 v 128.17 h -249.59 v 89.05 h 275.24" /></g></g><g
         id="g38"
         transform="matrix(1,0,0,1.0289294,0,-45.512656)"
         style="fill:#ffffff"><g
           clip-path="url(#clipPath44)"
           id="g40"
           style="fill:#ffffff"><path
             id="path60"
             style="fill:#ffffff;fill-opacity:1;fill-rule:nonzero;stroke:none"
             d="m 2841.5,1293.93 h -94.45 v 143.02 h 94.45 c 51.27,0 82.31,-25.64 82.31,-72.85 0,-41.82 -29.69,-70.17 -82.31,-70.17 z m 121.44,-102.53 c 66.11,31.02 109.31,89.05 109.31,179.44 0,126.83 -89.08,202.39 -226.69,202.39 H 2597.29 V 986.309 h 149.76 v 179.471 h 75.57 l 94.45,-179.471 h 172.7 L 2962.94,1191.4" /></g></g><g
         id="g62"
         transform="matrix(1,0,0,1.074953,0,-73.926805)"
         style="fill:#ffffff"><g
           clip-path="url(#clipPath68)"
           id="g64"
           style="fill:#ffffff"><path
             id="path84"
             style="fill:#ffffff;fill-opacity:1;fill-rule:nonzero;stroke:none"
             d="m 4417.41,1118.52 v 412.88 l -148.4,6.74 V 986.309 h 400.72 v 129.521 l -252.32,2.69" /></g></g><g
         id="g86"
         style="fill:#ffffff"><g
           clip-path="url(#clipPath92)"
           id="g88"
           style="fill:#ffffff"><path
             id="path108"
             style="fill:#ffffff;fill-opacity:1;fill-rule:nonzero;stroke:none"
             d="m 3385.26,1346.55 c -74.21,18.9 -93.1,37.8 -93.1,58.02 0,21.59 17.53,36.43 53.97,36.43 47.22,0 99.83,-20.23 149.76,-58.01 l 72.86,110.63 c -58.02,51.27 -128.19,80.96 -218.56,80.96 -128.2,0 -207.79,-74.21 -207.79,-183.51 0,-103.87 87.7,-155.15 202.37,-184.84 71.53,-18.89 89.05,-31.02 89.05,-56.64 0,-25.67 -21.57,-39.15 -60.71,-39.15 -62.06,0 -120.09,24.29 -172.71,70.17 L 3118.11,1074 c 64.75,-64.75 155.15,-97.148 249.6,-97.148 129.54,0 215.86,70.168 215.86,186.218 0,109.29 -75.53,152.44 -198.31,183.48" /></g></g><g
         id="g110"
         transform="matrix(1,0,0,1.0581141,0,-65.590807)"
         style="fill:#ffffff"><g
           clip-path="url(#clipPath116)"
           id="g112"
           style="fill:#ffffff"><path
             id="path132"
             style="fill:#ffffff;fill-opacity:1;fill-rule:nonzero;stroke:none"
             d="m 3845.33,1210.28 60.72,159.21 59.37,-160.57 z m 133.6,341.36 -143.02,4.05 -228.04,-569.381 h 155.17 l 39.13,101.191 h 205.08 l 39.13,-101.191 h 159.2 l -226.65,565.331" /></g></g><g
         id="g134"
         transform="matrix(1,0,0,1.042874,0,-58.831614)"
         style="fill:#ffffff"><g
           clip-path="url(#clipPath140)"
           id="g136"
           style="fill:#ffffff"><path
             id="path156"
             style="fill:#ffffff;fill-opacity:1;fill-rule:nonzero;stroke:none"
             d="m 1214.32,986.309 h 151.12 v 578.831 c -49.93,-1.37 -101.19,-2.7 -151.12,-2.7 V 986.309" /></g></g><g
         id="g158"
         transform="matrix(1,0,0,1.0226942,0,-31.122932)"
         style="fill:#ffffff"><g
           clip-path="url(#clipPath164)"
           id="g160"
           style="fill:#ffffff"><path
             id="path180"
             style="fill:#ffffff;fill-opacity:1;fill-rule:nonzero;stroke:none"
             d="m 1597.51,1569.19 -164.62,-2.71 217.23,-580.171 h 143.03 l 210.46,586.921 c -55.31,0 -109.28,-1.35 -163.24,-1.35 l -114.69,-371.04 -128.17,368.35" /></g></g><g
         id="g182"
         transform="matrix(1,0,0,1.0888859,0,-86.828361)"
         style="fill:#ffffff"><g
           clip-path="url(#clipPath188)"
           id="g184"
           style="fill:#ffffff"><path
             id="path204"
             style="fill:#ffffff;fill-opacity:1;fill-rule:nonzero;stroke:none"
             d="m 348.105,1226.48 c 0,-76.89 -39.14,-113.36 -98.503,-113.36 -60.723,0 -98.489,35.09 -98.489,113.36 v 300.87 C 101.191,1524.66 49.9219,1521.96 0,1520.62 v -299.53 c 0,-167.34 95.7891,-244.238 248.262,-244.238 151.113,0 249.621,78.278 249.621,256.368 v 307.63 l -149.778,-5.39 v -308.98" /></g></g><g
         id="g206"
         transform="matrix(1,0,0,1.0657528,0,-73.124878)"
         style="fill:#ffffff"><g
           clip-path="url(#clipPath212)"
           id="g208"
           style="fill:#ffffff"><path
             id="path228"
             style="fill:#ffffff;fill-opacity:1;fill-rule:nonzero;stroke:none"
             d="m 1103.67,1559.75 -147.061,-4.06 V 1254.8 L 736.688,1548.93 599.07,1544.89 V 986.309 h 145.703 v 308.971 l 228.02,-308.971 h 130.877 v 573.441" /></g></g><g
         id="g284"
         transform="translate(1663.7912,694.87121)"
         style="fill:#ffffff"><g
           clip-path="url(#clipPath290)"
           id="g286"
           style="fill:#ffffff"><path
             id="path306"
             style="fill:#ffffff;fill-opacity:1;fill-rule:nonzero;stroke:none"
             d="m 3420.33,659.789 -80.96,206.43 h -51.26 L 3398.75,595.02 h 41.81 l 112,271.199 h -51.28 l -80.95,-206.43" /></g></g><g
         id="g308"
         transform="translate(1712.3612,694.87121)"
         style="fill:#ffffff"><g
           clip-path="url(#clipPath314)"
           id="g310"
           style="fill:#ffffff"><path
             id="path330"
             style="fill:#ffffff;fill-opacity:1;fill-rule:nonzero;stroke:none"
             d="m 3154.47,594.941 0.07,226.758 h 85 v 44.52 l -217.29,0.011 v -44.511 l 85.06,-0.02 -0.02,-226.758 h 47.18" /></g></g></g></g></svg>
