<?xml version="1.0" encoding="UTF-8" standalone="no"?>
<!-- Created with Inkscape (http://www.inkscape.org/) -->

<svg
   xmlns:dc="http://purl.org/dc/elements/1.1/"
   xmlns:cc="http://creativecommons.org/ns#"
   xmlns:rdf="http://www.w3.org/1999/02/22-rdf-syntax-ns#"
   xmlns:svg="http://www.w3.org/2000/svg"
   xmlns="http://www.w3.org/2000/svg"
   xmlns:sodipodi="http://sodipodi.sourceforge.net/DTD/sodipodi-0.dtd"
   xmlns:inkscape="http://www.inkscape.org/namespaces/inkscape"
   width="867.44879"
   height="572.91815"
   id="svg5115"
   version="1.1"
   inkscape:version="0.48.4 r9939"
   sodipodi:docname="Logo Universal Channel mit Claim.svg">
  <defs
     id="defs3" />
  <sodipodi:namedview
     inkscape:document-units="mm"
     id="base"
     pagecolor="#ffffff"
     bordercolor="#666666"
     borderopacity="1.0"
     inkscape:pageopacity="0.0"
     inkscape:pageshadow="2"
     inkscape:zoom="0.49497475"
     inkscape:cx="86.503576"
     inkscape:cy="-60.20475"
     inkscape:current-layer="layer1"
     showgrid="false"
     units="px"
     fit-margin-top="1"
     fit-margin-right="1"
     fit-margin-bottom="1"
     fit-margin-left="1"
     inkscape:window-width="1920"
     inkscape:window-height="1028"
     inkscape:window-x="1358"
     inkscape:window-y="-8"
     inkscape:window-maximized="1" />
  <metadata
     id="metadata4">
    <rdf:RDF>
      <cc:Work
         rdf:about="">
        <dc:format>image/svg+xml</dc:format>
        <dc:type
           rdf:resource="http://purl.org/dc/dcmitype/StillImage" />
        <dc:title></dc:title>
      </cc:Work>
    </rdf:RDF>
  </metadata>
  <g
     inkscape:label="Layer 1"
     inkscape:groupmode="layer"
     id="layer1"
     transform="translate(-175.17021,373.73018)">
    <g
       id="g5194"
       transform="matrix(10.711159,0,0,10.711159,-1512.9229,-3737.5341)">
      <path
         inkscape:connector-curvature="0"
         id="path4519"
         style="fill:#ffffff;fill-opacity:1;fill-rule:nonzero;stroke:none"
         d="m 216.74221,346.33879 -0.3575,0 c -2.47875,9.775 -11.35,17.0275 -21.885,17.0275 -10.53375,0 -19.40625,-7.2525 -21.885,-17.0275 l -4.1875,0 c 0.90625,4.28125 2.83875,8.1825 5.53,11.43375 l 3.6675,-0.2575 -0.3875,3.58125 c 4.65,3.95625 10.67625,6.345 17.26125,6.345 12.81625,0 23.5175,-9.04625 26.07125,-21.1025 l -3.8275,0" />
      <path
         d="m 172.95846,334.03004 c 2.88,-9.15625 11.4475,-15.815 21.54125,-15.815 10.09375,0 18.66125,6.65875 21.54125,15.815 l 4.24125,0 c -2.9925,-11.445 -13.40125,-19.89 -25.785,-19.89 -12.4875,0 -22.8325,8.42 -25.79625,19.89 l 4.2575,0"
         style="fill:#ffffff;fill-opacity:1;fill-rule:nonzero;stroke:none"
         id="path4523"
         inkscape:connector-curvature="0" />
      <path
         d="m 176.04346,348.87254 0,-0.0138 c 0,-1.385 1.04375,-2.51875 2.53875,-2.51875 0.91875,0 1.46875,0.30625 1.92,0.75125 l -0.68125,0.78625 c -0.37625,-0.34 -0.75875,-0.54875 -1.245,-0.54875 -0.82125,0 -1.4125,0.68125 -1.4125,1.51625 l 0,0.0138 c 0,0.83375 0.5775,1.53 1.4125,1.53 0.55625,0 0.8975,-0.2225 1.28,-0.57 l 0.68125,0.68875 c -0.50125,0.535 -1.0575,0.86875 -1.99625,0.86875 -1.4325,0 -2.4975,-1.10625 -2.4975,-2.50375"
         style="fill:#ffffff;fill-opacity:1;fill-rule:nonzero;stroke:none"
         id="path4527"
         inkscape:connector-curvature="0" />
      <path
         d="m 181.64596,346.42379 1.07125,0 0,1.9275 1.975,0 0,-1.9275 1.0725,0 0,4.87 -1.0725,0 0,-1.955 -1.975,0 0,1.955 -1.07125,0 0,-4.87"
         style="fill:#ffffff;fill-opacity:1;fill-rule:nonzero;stroke:none"
         id="path4531"
         inkscape:connector-curvature="0" />
      <path
         d="m 189.94966,349.25504 -0.6475,-1.57875 -0.64625,1.57875 1.29375,0 z m -1.1275,-2.86625 0.98875,0 2.08625,4.905 -1.12,0 -0.445,-1.0925 -2.05875,0 -0.44625,1.0925 -1.09125,0 2.08625,-4.905"
         style="fill:#ffffff;fill-opacity:1;fill-rule:nonzero;stroke:none"
         id="path4535"
         inkscape:connector-curvature="0" />
      <path
         d="m 192.75846,346.42379 0.9875,0 2.28125,2.9975 0,-2.9975 1.0575,0 0,4.87 -0.91125,0 -2.3575,-3.09625 0,3.09625 -1.0575,0 0,-4.87"
         style="fill:#ffffff;fill-opacity:1;fill-rule:nonzero;stroke:none"
         id="path4539"
         inkscape:connector-curvature="0" />
      <path
         d="m 198.58596,346.42379 0.9875,0 2.2825,2.9975 0,-2.9975 1.05625,0 0,4.87 -0.91,0 -2.35875,-3.09625 0,3.09625 -1.0575,0 0,-4.87"
         style="fill:#ffffff;fill-opacity:1;fill-rule:nonzero;stroke:none"
         id="path4543"
         inkscape:connector-curvature="0" />
      <path
         d="m 204.40976,346.42379 3.6725,0 0,0.9525 -2.60875,0 0,0.98875 2.29625,0 0,0.9525 -2.29625,0 0,1.0225 2.64375,0 0,0.95375 -3.7075,0 0,-4.87"
         style="fill:#ffffff;fill-opacity:1;fill-rule:nonzero;stroke:none"
         id="path4547"
         inkscape:connector-curvature="0" />
      <path
         d="m 209.51596,346.42379 1.07125,0 0,3.895 2.4275,0 0,0.975 -3.49875,0 0,-4.87"
         style="fill:#ffffff;fill-opacity:1;fill-rule:nonzero;stroke:none"
         id="path4551"
         inkscape:connector-curvature="0" />
      <path
         d="m 163.62471,340.76379 c 0,0.3125 -0.0412,0.58375 -0.11625,0.8175 -0.2325,0.71625 -0.80125,1.06 -1.57875,1.06 -0.49125,0 -0.89875,-0.14875 -1.19125,-0.44875 -0.31125,-0.32125 -0.48875,-0.815 -0.48875,-1.49375 l 0,-5.07 -2.555,0 0,5.12125 c 0,0.835 0.14,1.53625 0.40125,2.1125 0.59125,1.30625 1.8075,1.9675 3.455,2.04875 l 0.71125,0 c 2.275,-0.11125 3.76875,-1.31 3.905,-3.84 0.006,-0.125 0.0112,-0.25375 0.0112,-0.38625 l 0,-5.05625 -2.55375,0 0,5.135"
         style="fill:#ffffff;fill-opacity:1;fill-rule:nonzero;stroke:none"
         id="path4555"
         inkscape:connector-curvature="0" />
      <path
         d="m 173.33846,340.05254 0,0.39875 -0.285,-0.36625 -3.46875,-4.455 -2.35875,0 0,9.1225 2.5025,0 0,-5.005 0.5475,0.70125 3.3625,4.30375 2.2025,0 0,-9.1225 -2.5025,0 0,4.4225"
         style="fill:#ffffff;fill-opacity:1;fill-rule:nonzero;stroke:none"
         id="path4559"
         inkscape:connector-curvature="0" />
      <path
         d="m 176.98596,339.70129 0,5.05 2.52875,0 0,-9.1225 -2.52875,0 0,4.0725"
         style="fill:#ffffff;fill-opacity:1;fill-rule:nonzero;stroke:none"
         id="path4563"
         inkscape:connector-curvature="0" />
      <path
         d="m 185.79216,339.14629 -0.815,2.25625 -2.07125,-5.77375 -2.815,0 3.6875,9.18875 2.34625,0 3.70125,-9.18875 -2.7625,0 -1.27125,3.5175"
         style="fill:#ffffff;fill-opacity:1;fill-rule:nonzero;stroke:none"
         id="path4567"
         inkscape:connector-curvature="0" />
      <path
         d="m 193.00226,341.15504 4.37875,0 0,-1.99375 -4.37875,0 0,-1.39375 4.83375,0 0,-2.1375 -7.33625,0 0,9.1225 7.4025,0 0,-2.15 -4.9,0 0,-1.4475"
         style="fill:#ffffff;fill-opacity:1;fill-rule:nonzero;stroke:none"
         id="path4571"
         inkscape:connector-curvature="0" />
      <path
         d="m 203.09476,340.00754 -1.68125,0 0,-2.2025 1.66875,0 c 0.83375,0 1.3675,0.365 1.3675,1.095 l 0,0.0263 c 0,0.16125 -0.03,0.30625 -0.0875,0.43625 -0.17875,0.405 -0.62625,0.645 -1.2675,0.645 z m 3.8,-0.48125 c 0.0538,-0.23875 0.0838,-0.49375 0.0838,-0.77 l 0,-0.0263 c 0,-0.89875 -0.27375,-1.58875 -0.80875,-2.12375 -0.6125,-0.6125 -1.57625,-0.9775 -2.97125,-0.9775 l -4.31375,0 0,9.1225 2.52875,0 0,-2.7625 1.12125,0 1.83625,2.7625 2.90625,0 -2.17625,-3.18 c 0.9125,-0.3875 1.57,-1.0625 1.79375,-2.045"
         style="fill:#ffffff;fill-opacity:1;fill-rule:nonzero;stroke:none"
         id="path4575"
         inkscape:connector-curvature="0" />
      <path
         d="m 215.19096,341.91129 c 0,-0.74375 -0.2475,-1.29125 -0.69875,-1.71125 -0.585,-0.54375 -1.51375,-0.8725 -2.69,-1.13 -1.2775,-0.28625 -1.59,-0.46875 -1.59,-0.88625 l 0,-0.0263 c 0,-0.33875 0.3,-0.58625 0.9125,-0.58625 0.8075,0 1.72,0.3 2.555,0.89875 l 1.26375,-1.785 c -0.99125,-0.795 -2.2025,-1.21125 -3.75375,-1.21125 -2.19,0 -3.53125,1.225 -3.53125,2.91875 l 0,0.0263 c 0,0.4675 0.0937,0.8525 0.26625,1.17375 0.51375,0.9575 1.72,1.34875 3.17375,1.68 1.25125,0.3 1.55125,0.495 1.55125,0.88625 l 0,0.0263 c 0,0.39125 -0.365,0.625 -1.05625,0.625 -1.055,0 -2.045,-0.3775 -2.9575,-1.095 l -1.40875,1.68125 c 1.135,1.00375 2.66,1.5125 4.27625,1.5125 2.215,0 3.6875,-1.1075 3.6875,-2.97125 l 0,-0.0263"
         style="fill:#ffffff;fill-opacity:1;fill-rule:nonzero;stroke:none"
         id="path4579"
         inkscape:connector-curvature="0" />
      <path
         d="m 218.97226,341.14129 0.16125,-0.405 0.86875,-2.175 0.95625,2.4275 0.06,0.1525 -2.04625,0 z m 2.2675,-5.5775 -2.43625,0 -2.0525,4.87125 -1.81875,4.31625 2.645,0 0.65125,-1.6425 3.5325,0 0.65125,1.6425 2.71125,0 -1.415,-3.34625 -2.46875,-5.84125"
         style="fill:#ffffff;fill-opacity:1;fill-rule:nonzero;stroke:none"
         id="path4583"
         inkscape:connector-curvature="0" />
      <path
         d="m 230.21596,342.53629 -1.93125,0 0,-6.9075 -2.52875,0 0,9.1225 6.9475,0 0,-2.215 -2.4875,0"
         style="fill:#ffffff;fill-opacity:1;fill-rule:nonzero;stroke:none"
         id="path4587"
         inkscape:connector-curvature="0" />
      <path
         d="m 225.75346,323.70129 1.43875,0 0,2.43875 2.75125,0 0,-2.43875 1.43875,0 0,6.3525 -1.43875,0 0,-2.60875 -2.75125,0 0,2.60875 -1.43875,0 0,-6.3525"
         style="fill:#ffffff;fill-opacity:1;fill-rule:nonzero;stroke:none"
         id="path4643"
         inkscape:connector-curvature="0" />
      <path
         d="m 235.01726,328.77754 c 0.635,0 1.12375,-0.16625 1.46625,-0.5 0.34375,-0.33375 0.515,-0.7925 0.515,-1.37625 0,-0.2925 -0.04,-0.5575 -0.11875,-0.795 -0.08,-0.23875 -0.2,-0.44125 -0.3625,-0.61 -0.1625,-0.16875 -0.36625,-0.29875 -0.61375,-0.39 -0.24875,-0.0925 -0.54375,-0.13875 -0.88625,-0.13875 l -0.87625,0 0,3.81 0.87625,0 z m -2.315,-5.07625 2.4,0 c 0.49,0 0.9425,0.0638 1.3575,0.19 0.41625,0.1275 0.775,0.32125 1.07625,0.58125 0.3025,0.26 0.5375,0.59375 0.705,1 0.16875,0.40625 0.2525,0.88625 0.2525,1.43875 0,0.52625 -0.0862,0.985 -0.2575,1.37625 -0.17125,0.39 -0.4075,0.7175 -0.70875,0.98 -0.3025,0.26375 -0.66125,0.46125 -1.07625,0.59125 -0.41625,0.13 -0.86875,0.195 -1.3575,0.195 l -2.39125,0 0,-6.3525"
         style="fill:#ffffff;fill-opacity:1;fill-rule:nonzero;stroke:none"
         id="path4647"
         inkscape:connector-curvature="0" />
    </g>
  </g>
</svg>
