<svg width="984.627" height="172.335" xmlns="http://www.w3.org/2000/svg"><g style="fill:#fff"><path d="M176.043 348.873v-.014c0-1.385 1.044-2.519 2.54-2.519.918 0 1.468.306 1.92.751l-.682.786c-.376-.34-.759-.548-1.245-.548-.821 0-1.413.681-1.413 1.516v.014c0 .834.578 1.53 1.413 1.53.556 0 .897-.223 1.28-.57l.681.689c-.501.535-1.057.868-1.996.868-1.433 0-2.498-1.106-2.498-2.503M181.646 346.424h1.071v1.927h1.975v-1.927h1.073v4.87h-1.073v-1.955h-1.975v1.955h-1.071v-4.87M189.95 349.255l-.648-1.579-.646 1.579zm-1.128-2.866h.989l2.086 4.905h-1.12l-.445-1.093h-2.059l-.446 1.093h-1.091l2.086-4.905M192.758 346.424h.988l2.281 2.997v-2.997h1.058v4.87h-.912l-2.357-3.096v3.096h-1.058v-4.87M198.586 346.424h.987l2.283 2.997v-2.997h1.056v4.87h-.91l-2.359-3.096v3.096h-1.057v-4.87M204.41 346.424h3.672v.952h-2.608v.989h2.296v.953h-2.296v1.022h2.643v.954h-3.707v-4.87M209.516 346.424h1.071v3.895h2.428v.975h-3.499v-4.87M163.625 340.764c0 .312-.041.584-.117.817-.232.717-.8 1.06-1.578 1.06-.492 0-.899-.148-1.192-.448-.31-.322-.488-.815-.488-1.494v-5.07h-2.555v5.121c0 .835.14 1.536.401 2.113.591 1.306 1.807 1.967 3.455 2.048h.711c2.275-.111 3.769-1.31 3.905-3.84.006-.125.011-.253.011-.386v-5.056h-2.553v5.135M173.338 340.053v.398l-.285-.366-3.468-4.455h-2.359v9.123h2.502v-5.005l.548.7 3.362 4.305h2.203v-9.123h-2.503v4.423M176.986 339.701v5.05h2.529v-9.122h-2.529v4.072M185.792 339.146l-.815 2.257-2.071-5.774h-2.815l3.687 9.189h2.347l3.7-9.19h-2.762l-1.27 3.518M193.002 341.155h4.379v-1.994h-4.379v-1.393h4.834v-2.138H190.5v9.123h7.402v-2.15h-4.9v-1.448M203.095 340.008h-1.681v-2.203h1.668c.834 0 1.368.365 1.368 1.095v.026c0 .162-.03.307-.088.437-.178.405-.626.645-1.267.645zm3.8-.482c.054-.238.084-.493.084-.77v-.026c0-.899-.274-1.589-.81-2.124-.612-.612-1.575-.977-2.97-.977h-4.314v9.122h2.529v-2.762h1.12l1.837 2.762h2.906l-2.176-3.18c.913-.387 1.57-1.062 1.794-2.045M215.191 341.911c0-.743-.248-1.291-.699-1.711-.585-.544-1.514-.872-2.69-1.13-1.277-.286-1.59-.469-1.59-.886v-.027c0-.338.3-.586.913-.586.807 0 1.72.3 2.555.899l1.263-1.785c-.99-.795-2.202-1.211-3.753-1.211-2.19 0-3.532 1.225-3.532 2.918v.027c0 .467.094.852.267 1.174.513.957 1.72 1.348 3.173 1.68 1.252.3 1.552.495 1.552.886v.026c0 .391-.365.625-1.057.625-1.055 0-2.045-.377-2.957-1.095l-1.409 1.681c1.135 1.004 2.66 1.513 4.276 1.513 2.215 0 3.688-1.108 3.688-2.971v-.027M218.972 341.141l.162-.405.868-2.175.957 2.428.06.152zm2.268-5.577h-2.436l-2.053 4.871-1.819 4.316h2.645l.652-1.642h3.532l.651 1.642h2.712l-1.415-3.346-2.47-5.841M230.216 342.536h-1.931v-6.907h-2.529v9.122h6.947v-2.215h-2.487M236.693 338.413h1.439v2.44h2.751v-2.44h1.439v6.353h-1.439v-2.609h-2.751v2.609h-1.439v-6.353M245.957 343.49c.635 0 1.124-.167 1.466-.5.344-.334.515-.793.515-1.377 0-.292-.04-.557-.118-.795-.08-.238-.2-.44-.363-.61a1.607 1.607 0 0 0-.614-.39 2.542 2.542 0 0 0-.886-.138h-.876v3.81zm-2.315-5.077h2.4c.49 0 .943.064 1.358.19.416.128.775.322 1.076.582a2.6 2.6 0 0 1 .705 1c.169.406.252.886.252 1.438 0 .527-.086.985-.257 1.377a2.74 2.74 0 0 1-.709.98 2.964 2.964 0 0 1-1.076.59c-.416.13-.869.196-1.358.196h-2.391v-6.353" style="fill:#fff;fill-opacity:1;fill-rule:nonzero;stroke:none" transform="matrix(10.71116 0 0 10.71116 -1688.093 -3592.313)"/></g></svg>