<?xml version="1.0" encoding="UTF-8"?>
<!DOCTYPE svg PUBLIC "-//W3C//DTD SVG 1.1//EN" "http://www.w3.org/Graphics/SVG/1.1/DTD/svg11.dtd">
<svg xmlns="http://www.w3.org/2000/svg" version="1.1" width="301px" height="222px" style="shape-rendering:geometricPrecision; text-rendering:geometricPrecision; image-rendering:optimizeQuality; fill-rule:evenodd; clip-rule:evenodd" xmlns:xlink="http://www.w3.org/1999/xlink">
<g><path style="opacity:1" fill="#e7387d" d="M -0.5,-0.5 C 99.8333,-0.5 200.167,-0.5 300.5,-0.5C 300.5,51.5 300.5,103.5 300.5,155.5C 200.167,155.5 99.8333,155.5 -0.5,155.5C -0.5,103.5 -0.5,51.5 -0.5,-0.5 Z"/></g>
<g><path style="opacity:1" fill="#fefdfd" d="M 18.5,27.5 C 28.2199,27.1924 37.8865,27.5257 47.5,28.5C 52.9769,45.5973 58.6436,62.5973 64.5,79.5C 70.3986,62.4036 76.0653,45.2369 81.5,28C 101.164,27.5 120.831,27.3334 140.5,27.5C 140.5,39.1667 140.5,50.8333 140.5,62.5C 149.418,62.8172 158.251,62.4839 167,61.5C 167.5,50.1716 167.667,38.8382 167.5,27.5C 177.083,27.1816 186.583,27.5149 196,28.5C 196.5,39.8284 196.667,51.1618 196.5,62.5C 205.833,62.5 215.167,62.5 224.5,62.5C 224.666,71.8393 224.5,81.1726 224,90.5C 215,91.1667 206,91.8333 197,92.5C 196.667,103.5 196.333,114.5 196,125.5C 186.583,126.485 177.083,126.818 167.5,126.5C 167.812,115.115 167.478,103.782 166.5,92.5C 157.859,91.502 149.192,91.1686 140.5,91.5C 140.5,103.167 140.5,114.833 140.5,126.5C 130.917,126.818 121.417,126.485 112,125.5C 111.833,94.4946 111.333,63.4946 110.5,32.5C 98.8875,63.3929 87.5541,94.3929 76.5,125.5C 68.5208,126.665 60.5208,126.832 52.5,126C 40.9335,93.8007 29.2668,61.6341 17.5,29.5C 17.8627,28.8165 18.1961,28.1499 18.5,27.5 Z"/></g>
<g><path style="opacity:1" fill="#fefcfd" d="M 244.5,27.5 C 253.221,27.1956 261.888,27.5289 270.5,28.5C 271.667,60.8282 271.833,93.1615 271,125.5C 261.667,126.833 252.333,126.833 243,125.5C 242.667,105.167 242.333,84.8333 242,64.5C 241.5,64 241,63.5 240.5,63C 235.511,62.5007 230.511,62.3341 225.5,62.5C 225.334,55.4921 225.5,48.4921 226,41.5C 232.067,36.5858 238.234,31.9191 244.5,27.5 Z"/></g>
<g><path style="opacity:1" fill="#e7397e" d="M 245.5,221.5 C 182.833,221.5 120.167,221.5 57.5,221.5C 57.5,206.5 57.5,191.5 57.5,176.5C 120.167,176.5 182.833,176.5 245.5,176.5C 245.5,191.5 245.5,206.5 245.5,221.5 Z"/></g>
<g><path style="opacity:1" fill="#fdf3f7" d="M 75.5,187.5 C 80.7654,186.571 85.2654,187.904 89,191.5C 89.4828,192.448 89.6495,193.448 89.5,194.5C 87.2841,194.725 85.6174,193.892 84.5,192C 75.1617,190.341 71.6617,194.175 74,203.5C 76.0527,207.292 79.2194,208.458 83.5,207C 84.9783,204.961 86.9783,204.128 89.5,204.5C 89.2007,207.642 87.5341,209.809 84.5,211C 72.7386,212.572 67.572,207.405 69,195.5C 70.3046,192.039 72.4713,189.372 75.5,187.5 Z"/></g>
<g><path style="opacity:1" fill="#fdf4f8" d="M 94.5,187.5 C 96.1667,187.5 97.8333,187.5 99.5,187.5C 99.5,194.167 99.5,200.833 99.5,207.5C 103.167,207.5 106.833,207.5 110.5,207.5C 110.5,208.833 110.5,210.167 110.5,211.5C 105.167,211.5 99.8333,211.5 94.5,211.5C 94.5,203.5 94.5,195.5 94.5,187.5 Z"/></g>
<g><path style="opacity:1" fill="#fef4f8" d="M 120.5,187.5 C 122.288,187.215 123.955,187.548 125.5,188.5C 128.972,195.919 131.639,203.585 133.5,211.5C 129.849,211.838 128.183,210.172 128.5,206.5C 124.774,206.177 121.107,206.511 117.5,207.5C 116.988,210.351 115.321,211.684 112.5,211.5C 114.559,203.322 117.226,195.322 120.5,187.5 Z"/></g>
<g><path style="opacity:1" fill="#fef4f7" d="M 139.5,187.5 C 142.85,187.335 146.183,187.502 149.5,188C 152.693,189.026 154.026,191.192 153.5,194.5C 151.284,194.725 149.617,193.892 148.5,192C 145.854,191.503 143.187,191.336 140.5,191.5C 140.286,193.144 140.62,194.644 141.5,196C 145.846,196.696 149.846,198.196 153.5,200.5C 155.663,205.419 154.33,208.919 149.5,211C 144.243,212.426 139.743,211.259 136,207.5C 135.51,206.207 135.343,204.873 135.5,203.5C 138.245,203.373 140.245,204.54 141.5,207C 144.429,207.777 147.263,207.61 150,206.5C 150.72,204.888 150.554,203.388 149.5,202C 144.907,201.491 140.74,199.991 137,197.5C 134.701,193.362 135.535,190.028 139.5,187.5 Z"/></g>
<g><path style="opacity:1" fill="#fef5f8" d="M 162.5,187.5 C 166.911,187.021 171.078,187.688 175,189.5C 176.009,191.025 176.509,192.692 176.5,194.5C 173.522,193.339 170.522,192.005 167.5,190.5C 162.879,190.879 161.879,192.712 164.5,196C 167.044,197.092 169.711,197.759 172.5,198C 178.252,201.181 178.919,205.181 174.5,210C 169.184,212.316 164.184,211.816 159.5,208.5C 158.691,206.929 158.357,205.262 158.5,203.5C 159.833,203.5 161.167,203.5 162.5,203.5C 162.375,206.893 164.042,208.226 167.5,207.5C 170.271,207.918 172.271,206.918 173.5,204.5C 171.041,201.24 167.708,199.74 163.5,200C 157.272,196.169 156.939,192.002 162.5,187.5 Z"/></g>
<g><path style="opacity:1" fill="#fefcfd" d="M 182.5,187.5 C 183.833,187.5 185.167,187.5 186.5,187.5C 186.5,195.5 186.5,203.5 186.5,211.5C 185.167,211.5 183.833,211.5 182.5,211.5C 182.5,203.5 182.5,195.5 182.5,187.5 Z"/></g>
<g><path style="opacity:1" fill="#fef5f8" d="M 197.5,187.5 C 200.85,187.335 204.183,187.502 207.5,188C 210.033,189.033 211.699,190.867 212.5,193.5C 210.034,194.881 208.034,194.381 206.5,192C 197.237,190.302 193.737,194.135 196,203.5C 196.465,204.931 197.299,206.097 198.5,207C 202.886,208.149 206.72,207.316 210,204.5C 210.833,204.667 211.667,204.833 212.5,205C 207.889,212.002 201.889,213.335 194.5,209C 191.637,204.219 190.804,199.052 192,193.5C 193.36,190.977 195.193,188.977 197.5,187.5 Z"/></g>
<g><path style="opacity:1" fill="#fef3f7" d="M 219.5,187.5 C 222.85,187.335 226.183,187.502 229.5,188C 232.693,189.026 234.026,191.192 233.5,194.5C 230.522,193.339 227.522,192.005 224.5,190.5C 220.976,191.05 219.976,192.884 221.5,196C 226.038,196.512 230.204,198.012 234,200.5C 235.004,203.993 234.504,207.159 232.5,210C 226.986,212.365 221.819,211.865 217,208.5C 215.991,206.975 215.491,205.308 215.5,203.5C 218.55,202.923 220.55,204.09 221.5,207C 224.429,207.777 227.263,207.61 230,206.5C 230.72,204.888 230.554,203.388 229.5,202C 224.907,201.491 220.74,199.991 217,197.5C 216.219,196.271 215.719,194.938 215.5,193.5C 216.432,191.235 217.765,189.235 219.5,187.5 Z"/></g>
<g><path style="opacity:1" fill="#e94986" d="M 122.5,193.5 C 124.006,195.975 125.339,198.642 126.5,201.5C 124.167,202.833 121.833,202.833 119.5,201.5C 120.508,198.805 121.508,196.138 122.5,193.5 Z"/></g>
</svg>
