<svg width="989.48" height="513.02" xmlns="http://www.w3.org/2000/svg" >
<g><path style="fill:#ffffff" d="M70.64 93.51h90.09a8.7 8.7 0 0 1 7.82 5.79l50.66 164.14a2.25 2.25 0 0 0 2.12 1.46 2.33 2.33 0 0 0 2.11-1.46L274.1 99.3a8.66 8.66 0 0 1 7.8-5.79h185.71a6.07 6.07 0 0 1 6.05 6.09v108.32h78.61a6.06 6.06 0 0 0 6-6V99.55a6.1 6.1 0 0 1 6.05-6h85a6.11 6.11 0 0 1 6.1 6v102.33a6.07 6.07 0 0 0 6 6h88.53v-62a11.83 11.83 0 0 1 4.92-9.54L807.53 97a19.11 19.11 0 0 1 11.08-3.47h77.31a6.06 6.06 0 0 1 6 6.09v313.85a6.07 6.07 0 0 1-6 6H810.8a6.06 6.06 0 0 1-6-6V214a6.1 6.1 0 0 0-6-6.05h-48.72v91.14a6.07 6.07 0 0 1-6.1 6H661.5a6.07 6.07 0 0 0-6 6.1v102.28a6.11 6.11 0 0 1-6.1 6h-85a6.07 6.07 0 0 1-6.05-6V311.2a6.11 6.11 0 0 0-6-6.1h-78.69v108.37a6.07 6.07 0 0 1-6.05 6h-85.1a6 6 0 0 1-6-6v-303a2.35 2.35 0 0 0-2.16-2.06 2.26 2.26 0 0 0-2.17 1.56L263.42 413.82a9.27 9.27 0 0 1-8.11 5.7h-68a9.24 9.24 0 0 1-8.1-5.7L66.67 99.25c-1.16-3.17.65-5.74 4-5.74"/></g>
<g><path style="fill:#ffffff" d="M183.24 418.105c-1.081-.736-2.446-2.008-3.032-2.826C178.78 413.29 66.587 99.541 66.509 97.327c-.04-1.136.405-2.111 1.289-2.826 1.283-1.04 3.618-1.093 47.847-1.093 44.12 0 46.604.056 48.553 1.102 1.13.605 2.522 1.743 3.094 2.528.572.785 12.514 38.624 26.537 84.088 17.307 56.111 25.817 82.862 26.495 83.29.704.445 1.296.444 2.004-.003.684-.432 9.112-26.925 26.494-83.29 14.02-45.462 25.96-83.3 26.532-84.085.573-.785 1.97-1.925 3.104-2.534 1.99-1.067 5.414-1.1 96.86-.952l94.795.154 1.736 1.942 1.736 1.943V207.64h81.005l1.74-1.74 1.739-1.739v-52.42c0-43.96.136-52.748.845-54.445 1.692-4.05-.303-3.888 47.94-3.888 48.245 0 46.25-.162 47.942 3.888.709 1.697.845 10.485.845 54.444v52.421l1.74 1.74 1.738 1.739h91.12v-32.45c0-31.543.034-32.515 1.22-34.84 1.012-1.983 5.868-5.867 28.41-22.725 14.954-11.184 28.785-21.14 30.736-22.127l3.548-1.792h84.203l1.65 1.65 1.65 1.649.151 159.193.153 159.194-2.027 2.026-2.026 2.026h-44.116c-47.316 0-46.606.043-48.203-2.942-.413-.772-.613-33.962-.613-101.99 0-61.403-.218-101.42-.558-102.314-.307-.808-1.161-2.03-1.897-2.716-1.316-1.226-1.772-1.248-26.81-1.248h-25.47v45.842c0 50.308.14 48.325-3.551 50.234-1.513.782-7.456.902-44.578.902h-42.834l-1.669 1.436-1.67 1.436-.297 53.944-.297 53.944-1.956 1.747-1.955 1.747-44.835-.16c-43.091-.153-44.884-.204-46.084-1.29-.687-.622-1.517-2.094-1.844-3.272-.376-1.353-.596-21.295-.598-54.098l-.003-51.956-1.74-1.739-1.738-1.739h-81.006v54.766c0 59.482.125 57.214-3.256 58.755-1.164.53-12.653.71-45.29.71-47.473 0-46.198.088-47.721-3.255-.545-1.196-.711-37.034-.711-153.798 0-137.605-.09-152.328-.935-153.173-1.052-1.053-1.423-1.12-2.483-.446-.407.258-25.256 68.994-55.219 152.745-29.963 83.752-54.954 152.945-55.537 153.763-.583.818-1.944 2.09-3.026 2.826l-1.967 1.339h-72.233z"/></g>
</svg>
