<svg xmlns="http://www.w3.org/2000/svg" version="1.1" id="svg34" width="100" height="37">
<defs id="defs4"><style id="style2"></style></defs>
<g id="#d32727ff" transform="translate(185.445 -7.74) scale(.01656)" style="fill:#fff">
<g id="#336699ff" transform="translate(-12942.258 -2969.572) scale(5.98363)">
<path style="opacity:1;fill:#fff;stroke-width:1.00472319" d="m1294.251 578.533-37.948 34.684-161.137 276.841-52.729-168.471s-15.542-4.833-23.308-7.244l26.614 87.018-86.708 97.548 104.482-33.164 23.812 77.775 61.77-108.953 117.533-41.162-79.736-25.491zm-65.146 59.11-116.568 105.685-34.894-10.83 28.333 78.58zm-918.056 85.79c-8.767.024-15.07.22-14.859.736l64.02 154.757 60.354.01 68.381-154.767-40.701-.021-43.475 111.695-43.222-111.695s-31.21-.77-50.498-.715zm556.337.709c-16.31.001-29.36.006-29.36.006v154.788s52.216.01 78.32 0c23.861-.02 48.034-7.354 66.863-22.234 13.363-10.489 23.5-25.29 27.43-41.898 3.817-16.337 2.943-34.25-4.703-49.382-6.52-13.001-18.065-22.898-31.006-29.217-18.135-8.872-38.582-11.976-58.616-12.047-13.046-.015-32.618-.017-48.928-.016zm-369.83.006v154.788h59.59V724.148zm132.102 0-65.408.02 64.082 154.768 60.352-.01 68.402-154.757-40.742-.021s-44.747 111.334-43.484 111.695zm135.656 0v154.788l59.59.01V724.149zm136.284 23.538c9.898-.06 20.042.825 28.763 5.87 10.85 5.848 17.602 17.332 19.682 29.248 2.02 11.584 1.327 23.531-.773 35.056-2.371 12.327-8.33 24.896-19.482 31.517-9.655 6.029-21.4 6.26-32.412 6.008V747.76c1.399-.037 2.808-.065 4.222-.073z" id="path2"/>
</g></g></svg>