<?xml version="1.0" encoding="UTF-8"?>
<!DOCTYPE svg PUBLIC "-//W3C//DTD SVG 1.1//EN" "http://www.w3.org/Graphics/SVG/1.1/DTD/svg11.dtd">
<svg xmlns="http://www.w3.org/2000/svg" version="1.1" width="288px" height="60px" style="shape-rendering:geometricPrecision; text-rendering:geometricPrecision; image-rendering:optimizeQuality; fill-rule:evenodd; clip-rule:evenodd" xmlns:xlink="http://www.w3.org/1999/xlink">
<g><path style="opacity:1" fill="#ffffff" d="M 186.5,0.5 C 189.5,0.5 192.5,0.5 195.5,0.5C 195.5,8.16667 195.5,15.8333 195.5,23.5C 204.5,23.5 213.5,23.5 222.5,23.5C 222.5,15.8333 222.5,8.16667 222.5,0.5C 225.5,0.5 228.5,0.5 231.5,0.5C 231.5,19.8333 231.5,39.1667 231.5,58.5C 228.5,58.5 225.5,58.5 222.5,58.5C 222.5,50.1667 222.5,41.8333 222.5,33.5C 213.5,33.5 204.5,33.5 195.5,33.5C 195.5,41.8333 195.5,50.1667 195.5,58.5C 192.5,58.5 189.5,58.5 186.5,58.5C 186.5,39.1667 186.5,19.8333 186.5,0.5 Z"/></g>
<g><path style="opacity:1" fill="#ffffff" d="M 240.5,0.5 C 248.84,0.3336 257.173,0.500266 265.5,1C 274.372,2.86645 280.538,8.03312 284,16.5C 286.757,27.5774 285.757,38.244 281,48.5C 277.211,53.308 272.378,56.4747 266.5,58C 257.84,58.4998 249.173,58.6664 240.5,58.5C 240.5,39.1667 240.5,19.8333 240.5,0.5 Z M 249.5,9.5 C 271.553,6.89566 280.387,16.5623 276,38.5C 273.948,45.2189 269.448,49.0523 262.5,50C 258.179,50.499 253.846,50.6657 249.5,50.5C 249.5,36.8333 249.5,23.1667 249.5,9.5 Z"/></g>
<g><path style="opacity:1" fill="#ffffff" d="M 0.5,1.5 C 9.83928,1.33355 19.1726,1.50021 28.5,2C 32.7151,8.92829 36.5484,16.095 40,23.5C 43.8333,16.5 47.6667,9.5 51.5,2.5C 59.4792,1.33506 67.4792,1.16839 75.5,2C 62.5537,10.833 57.3871,22.9997 60,38.5C 56.6265,44.7479 53.1265,50.9145 49.5,57C 42.9184,57.81 36.4184,57.6433 30,56.5C 19.6129,38.3881 9.77952,20.0548 0.5,1.5 Z"/></g>
<g><path style="opacity:1" fill="#ffffff" d="M 104.5,2.5 C 112.656,1.34345 120.99,1.17678 129.5,2C 131.333,4.5 133.167,7 135,9.5C 137.316,7.52962 139.149,5.19629 140.5,2.5C 151.485,1.33425 162.485,1.16758 173.5,2C 166.354,10.6475 159.02,19.1475 151.5,27.5C 159.646,37.4801 167.979,47.3134 176.5,57C 165.833,57.6667 155.167,57.6667 144.5,57C 141.333,53.1667 138.167,49.3333 135,45.5C 132.02,49.3142 128.854,52.9809 125.5,56.5C 117.855,57.6648 110.188,57.8315 102.5,57C 117.651,48.8556 123.151,36.3556 119,19.5C 116.116,12.1204 111.283,6.45377 104.5,2.5 Z"/></g>
<g><path style="opacity:1" fill="#d40e41" d="M 85.5,14.5 C 100.638,13.8021 106.472,20.8021 103,35.5C 96.9148,43.6505 89.4148,45.1505 80.5,40C 72.6129,29.5814 74.2796,21.0814 85.5,14.5 Z"/></g>
</svg>
