<?xml version="1.0" encoding="UTF-8" standalone="no"?>
<svg
   id="svg8"
   version="1.1"
   viewBox="0 0 703.25299 103.288"
   height="103.28799mm"
   width="703.25299mm"
   sodipodi:docname="VOXup HD.svg"
   inkscape:version="1.1.1 (3bf5ae0d25, 2021-09-20)"
   xmlns:inkscape="http://www.inkscape.org/namespaces/inkscape"
   xmlns:sodipodi="http://sodipodi.sourceforge.net/DTD/sodipodi-0.dtd"
   xmlns="http://www.w3.org/2000/svg"
   xmlns:svg="http://www.w3.org/2000/svg"
   xmlns:rdf="http://www.w3.org/1999/02/22-rdf-syntax-ns#"
   xmlns:cc="http://creativecommons.org/ns#"
   xmlns:dc="http://purl.org/dc/elements/1.1/">
  <sodipodi:namedview
     id="namedview11"
     pagecolor="#ffffff"
     bordercolor="#ffffff"
     borderopacity="1.0"
     inkscape:pageshadow="2"
     inkscape:pageopacity="0.0"
     inkscape:pagecheckerboard="0"
     inkscape:document-units="mm"
     showgrid="false"
     inkscape:zoom="0.4247612"
     inkscape:cx="1327.8049"
     inkscape:cy="194.22678"
     inkscape:window-width="1920"
     inkscape:window-height="1017"
     inkscape:window-x="-8"
     inkscape:window-y="-8"
     inkscape:window-maximized="1"
     inkscape:current-layer="svg8" />
  <defs
     id="defs2" />
  <metadata
     id="metadata5">
    <rdf:RDF>
      <cc:Work
         rdf:about="">
        <dc:format>image/svg+xml</dc:format>
        <dc:type
           rdf:resource="http://purl.org/dc/dcmitype/StillImage" />
        <dc:title />
      </cc:Work>
    </rdf:RDF>
  </metadata>
  <g
     transform="translate(154.13693,-75.000805)"
     id="layer1">
    <path
       d="m 199.7123,149.54826 c -5.64576,-0.80402 -10.17699,-2.93751 -14.29721,-6.73177 -2.66347,-2.45274 -5.55546,-7.14825 -6.66374,-10.8194 -1.42169,-4.70931 -1.3398,-2.9868 -1.43926,-30.2715 l -0.0924,-25.336502 h 5.07598 5.07599 l 0.10066,23.5585 c 0.10876,25.449422 0.0891,25.070962 1.49865,28.892502 1.22192,3.31295 4.10487,7.02622 6.79564,8.75286 2.88176,1.84923 6.53217,2.72071 10.30278,2.45967 2.88645,-0.19983 4.55173,-0.6483 7.11616,-1.91643 5.96354,-2.94904 10.18584,-9.01006 12.13811,-17.4241 0.51094,-2.20208 0.53365,-3.05777 0.61854,-23.304502 l 0.0881,-21.0185 h 5.19603 5.19603 v 35.941002 35.941 h -5.207 -5.207 l -0.008,-5.6515 c -0.006,-4.30261 -0.0755,-5.53025 -0.29175,-5.1435 -0.61495,1.09997 -3.01358,4.11927 -4.05835,5.10852 -3.15794,2.99011 -7.25138,5.24097 -11.52315,6.33629 -2.81554,0.72194 -7.68949,1.01553 -10.41514,0.62736 z M 293.44541,139.526 c 4.87817,-1.16679 8.64084,-3.2644 12.06656,-6.7269 5.09566,-5.15035 7.63796,-11.14396 8.03592,-18.94501 0.4363,-8.55369 -2.53296,-16.512172 -8.20438,-21.990132 -5.44809,-5.26222 -11.10478,-7.33211 -19.20149,-7.02609 -5.31132,0.20074 -8.79599,1.30267 -12.99825,4.11038 -6.17258,4.12414 -10.2111,10.75129 -11.46253,18.809842 -0.47176,3.03781 -0.40407,7.90572 0.1466,10.541 2.40152,11.4927 10.117,19.44637 20.82666,21.4695 2.48907,0.47022 8.3628,0.33817 10.79091,-0.24259 z m -41.57751,38.27259 c -0.0432,-0.10478 -0.0494,-22.96478 -0.0137,-50.8 l 0.0647,-50.609502 h 5.07876 5.07876 v 5.54566 c 0,3.05012 0.0701,5.61576 0.15575,5.70143 0.0857,0.0857 0.5825,-0.38105 1.10403,-1.03717 2.32873,-2.92949 6.07213,-5.88142 10.17022,-8.01997 6.78225,-3.5392 15.30362,-4.51223 23.241,-2.65379 13.69249,3.2059 24.29366,14.8292 26.94859,29.546842 0.61024,3.38293 0.61386,10.44262 0.007,13.77587 -2.35849,12.95572 -10.59222,23.39343 -22.10469,28.02157 -7.44261,2.99202 -15.93474,3.30116 -23.43424,0.85307 -5.39235,-1.76024 -11.71591,-5.93921 -14.55431,-9.61829 -0.59804,-0.77507 -1.18767,-1.40922 -1.31038,-1.40922 -0.12631,0 -0.22311,8.87219 -0.22311,20.447 v 20.447 h -5.06502 c -2.78574,0 -5.10032,-0.0857 -5.1435,-0.1905 z"
       style="fill:#ce132f;fill-opacity:1;stroke-width:0.25399998"
       id="path1380" />
    <path
       d="m 9.4210556,154.70607 c -13.12973,-0.20317 -25.1124496,-10.62265 -27.1541496,-23.57951 -2.15805,-11.33813 3.2577,-23.69587 13.3485596,-29.43204 9.76742,-5.935232 23.0541304,-5.230812 31.9769204,1.98914 9.62904,7.35378 14.024405,21.16751 9.22923,32.50724 -4.39085,10.86966 -15.52712,18.87551 -27.4005604,18.51517 z"
       id="path3013"
       style="fill:#ce132f;fill-opacity:1;stroke-width:0.54123408" />
    <path
       style="display:inline;fill:#ffffff;fill-opacity:1;stroke-width:0.50994414"
       id="path3005"
       d="m -154.13693,76.299708 56.034646,101.988862 h 32.79541 l 20.54997,-36.71935 c -1.41444,-5.03719 -2.16493,-10.35299 -2.16493,-15.84804 0,-20.88703 10.93441,-39.197862 27.34924,-49.421472 h -39.3917 L -81.171804,119.27709 -104.1066,76.299708 Z m 224.172407,0 -29.142075,0.051 c 16.373057,10.23258 27.281584,28.515552 27.281584,49.370702 0,23.25401 -13.571914,43.30446 -33.15059,52.56739 h 38.630587 l 19.213811,-23.30689 v -0.10152 l 19.281476,23.40841 h 55.32427 l -46.98589,-54.02197 41.21836,-47.882332 -45.93724,-0.0845 h -9.20099 l -13.666159,16.7106 -13.66616,-16.7106 h -9.200984 z" />
    <path
       style="display:inline;fill:#ffffff;fill-opacity:1;stroke-width:0.50994414"
       id="path3915"
       d="m 430.98924,178.15831 c -7.27977,0 -14.55955,0 -21.83927,0 0,-14.57314 0,-29.14626 0,-43.71946 -15.85764,0 -31.71526,0 -47.57287,0 0,14.5732 0,29.14632 0,43.71946 -7.30515,0 -14.61035,0 -21.91555,0 0,-33.93183 0,-67.86369 0,-101.795522 7.3052,0 14.6104,0 21.91555,0 0,13.63525 0,27.270472 0,40.905802 15.85761,0 31.71523,0 47.57287,0 0,-13.63533 0,-27.270552 0,-40.905802 7.27972,0 14.5595,0 21.83927,0 0,33.931832 0,67.863692 0,101.795522 z" />
    <path
       style="display:inline;fill:#ffffff;fill-opacity:1;stroke-width:0.50994414"
       id="path3917"
       d="m 448.23761,76.427558 c 16.58604,0.0714 33.17732,-0.15002 49.75955,0.12462 15.96152,0.58353 32.03247,7.61928 41.67294,20.64916 10.07223,13.363102 11.88611,31.951702 6.41106,47.536242 -6.75187,18.18589 -24.69316,31.06131 -43.83439,32.96681 -10.26353,0.94488 -20.59263,0.35211 -30.8877,0.51867 -7.70713,0 -15.41423,0 -23.12146,0 0,-33.93184 0,-67.86367 0,-101.795502 z m 23.28341,84.625182 c 8.06464,-0.13595 16.15752,0.31771 24.19872,-0.32592 14.36891,-2.1001 27.69555,-13.87118 29.00526,-28.77452 1.37755,-11.37076 -1.95823,-24.10508 -11.5796,-31.10902 -7.29273,-5.999452 -16.95627,-7.763692 -26.16602,-7.317552 -5.15278,0 -10.30557,0 -15.45836,0 0,22.508972 0,45.018032 0,67.527012 z" />
  </g>
  <path
     style="opacity:0.9;fill:#ffffff;stroke-width:2.35426"
     d="M 205.22378,378.44794 C 201.37073,371.65 154.02606,285.57222 100.01339,187.16399 46.000732,88.755753 1.3391051,7.4453599 0.76533497,6.474226 0.19156505,5.5030921 42.426248,4.7339122 94.620185,4.7649373 l 94.898065,0.05641 42.37675,79.9557367 c 23.30722,43.975656 43.01012,79.970516 43.78423,79.988566 0.77413,0.0181 19.72259,-35.54612 42.10771,-79.031513 C 340.17206,42.248751 359.67859,6.2125974 361.1348,5.6537996 362.59101,5.0950019 396.08378,4.9185714 435.56316,5.2617318 L 507.34389,5.88566 495.65888,13.995687 C 456.73178,41.013162 423.99,90.230511 411.58964,140.3683 c -6.38271,25.80699 -7.16223,73.85425 -1.56601,96.5249 l 3.55838,14.41525 -38.95547,69.74969 -38.95548,69.74968 h -61.72087 -61.72087 z"
     id="path1872"
     transform="scale(0.26458333)" />
  <path
     style="opacity:0.9;fill:#ffffff;stroke-width:2.35426"
     d="m 721.35793,387.72654 c 51.11728,-31.96587 77.46892,-59.81603 97.94862,-103.51859 5.13737,-10.96284 11.66662,-29.33688 14.50946,-40.83122 7.25094,-29.31738 7.25094,-73.69104 0,-103.00843 C 822.14517,93.180112 793.93508,48.466487 758.30928,20.688446 749.76284,14.024637 741.76385,7.7030518 740.53374,6.6404787 739.30364,5.5779059 770.62227,4.708528 810.13071,4.708528 h 71.83351 l 23.39647,28.639403 c 12.86805,15.751671 24.47009,30.092699 25.7823,31.868949 1.8461,2.498929 8.23732,-3.977833 28.25116,-28.629298 L 985.25949,4.7287379 1089.846,4.718633 l 104.5866,-0.010105 -4.7494,5.297094 c -2.6122,2.913402 -37.8686,43.792103 -78.3477,90.841558 l -73.5982,85.54447 5.8207,6.27183 c 6.4455,6.94511 163.4455,187.72642 168.5877,194.12425 3.0372,3.77885 -3.0379,4.01833 -101.2334,3.99052 l -104.4644,-0.0296 -35.314,-43.37159 c -19.42268,-23.85437 -36.05544,-43.44032 -36.96168,-43.52429 -0.90626,-0.084 -17.81578,19.44652 -37.57673,43.40116 l -35.92899,43.55388 -71.89656,-0.13845 c -56.60793,-0.109 -70.94292,-0.73479 -67.41201,-2.94283 z"
     id="path1911"
     transform="scale(0.26458333)" />
  <path
     style="opacity:0.9;fill:#ffffff;stroke-width:2.35426"
     d="M 1866.9314,197.75818 V 4.708528 h 41.1996 41.1996 v 77.690712 77.69071 h 89.462 89.4621 V 82.39924 4.708528 h 41.1996 41.1996 V 197.81377 390.91902 l -40.6111,-0.64418 -40.611,-0.64415 -0.6187,-82.9878 -0.6187,-82.98781 h -89.4319 -89.4319 v 83.57637 83.57637 h -41.1996 -41.1996 z"
     id="path1950"
     transform="scale(0.26458333)" />
  <path
     style="opacity:0.9;fill:#ffffff;stroke-width:2.35426"
     d="M 2276.5733,197.55161 V 4.2954017 l 105.3533,1.0941461 c 110.9325,1.1520886 116.1252,1.610621 149.5044,13.2016582 53.2799,18.501608 94.9436,57.889968 113.8077,107.592464 13.0311,34.33363 15.902,73.53725 8.1399,111.1535 -7.8185,37.89002 -24.745,67.50845 -55,96.24069 -33.5456,31.85719 -74.7513,50.20731 -123.0202,54.78452 -14.1607,1.34282 -64.6803,2.44238 -112.2659,2.44347 l -86.5192,0.002 z m 191.6744,123.75811 c 23.9316,-6.23339 43.5038,-17.47133 61.4208,-35.26664 26.4554,-26.27559 36.5095,-50.60531 36.4445,-88.19097 -0.1105,-63.83577 -35.0604,-109.622563 -94.3434,-123.59646 -10.7624,-2.536842 -28.4411,-3.56812 -61.5918,-3.592932 l -46.4967,-0.0348 V 197.75818 324.88843 h 45.4135 c 33.0391,0 49.1573,-0.97513 59.1531,-3.57871 z"
     id="path1989"
     transform="scale(0.26458333)" />
</svg>
