<?xml version="1.0" encoding="UTF-8" standalone="no"?>
<svg
   width="478.29285"
   height="103.40123"
   version="1.1"
   id="svg13"
   sodipodi:docname="VOXup 2.svg"
   inkscape:version="1.1.1 (3bf5ae0d25, 2021-09-20)"
   xmlns:inkscape="http://www.inkscape.org/namespaces/inkscape"
   xmlns:sodipodi="http://sodipodi.sourceforge.net/DTD/sodipodi-0.dtd"
   xmlns="http://www.w3.org/2000/svg"
   xmlns:svg="http://www.w3.org/2000/svg">
  <defs
     id="defs17" />
  <sodipodi:namedview
     id="namedview15"
     pagecolor="#ffffff"
     bordercolor="#666666"
     borderopacity="1.0"
     inkscape:pageshadow="2"
     inkscape:pageopacity="0.0"
     inkscape:pagecheckerboard="0"
     showgrid="false"
     inkscape:zoom="1.6790201"
     inkscape:cx="335.91022"
     inkscape:cy="51.518145"
     inkscape:window-width="1920"
     inkscape:window-height="1017"
     inkscape:window-x="-8"
     inkscape:window-y="-8"
     inkscape:window-maximized="1"
     inkscape:current-layer="svg13" />
  <metadata
     id="metadata5">image/svg+xml</metadata>
  <g
     id="g11">
    <title
       id="title3">Layer 1</title>
    <g
       id="layer1">
      <path
         stroke-width="0.254"
         fill="#ce132f"
         id="path1380"
         d="m 353.84923,74.54745 c -5.64576,-0.80402 -10.17699,-2.93751 -14.29721,-6.73177 -2.66347,-2.45274 -5.55546,-7.14825 -6.66374,-10.8194 -1.42169,-4.70931 -1.3398,-2.9868 -1.43926,-30.2715 l -0.0924,-25.3365 h 5.07598 5.07599 l 0.10066,23.5585 c 0.10876,25.44942 0.0891,25.07096 1.49865,28.8925 1.22192,3.31295 4.10487,7.02622 6.79564,8.75286 2.88176,1.84923 6.53217,2.72071 10.30278,2.45967 2.88645,-0.19983 4.55173,-0.6483 7.11616,-1.91643 5.96354,-2.94904 10.18584,-9.01006 12.13811,-17.4241 0.51094,-2.20208 0.53365,-3.05777 0.61854,-23.3045 l 0.0881,-21.0185 h 5.19603 5.19603 v 35.941 35.941 h -5.207 -5.207 l -0.008,-5.6515 c -0.006,-4.30261 -0.0755,-5.53025 -0.29175,-5.1435 -0.61495,1.09997 -3.01358,4.11927 -4.05835,5.10852 -3.15794,2.99011 -7.25138,5.24097 -11.52315,6.33629 -2.81554,0.72194 -7.68949,1.01553 -10.41514,0.62736 z m 93.73311,-10.02226 c 4.87817,-1.16679 8.64084,-3.2644 12.06656,-6.7269 5.09566,-5.15035 7.63796,-11.14396 8.03592,-18.94501 0.4363,-8.55369 -2.53296,-16.51217 -8.20438,-21.99013 -5.44809,-5.26222 -11.10478,-7.33211 -19.20149,-7.02609 -5.31132,0.20074 -8.79599,1.30267 -12.99825,4.11038 -6.17258,4.12414 -10.2111,10.75129 -11.46253,18.80984 -0.47176,3.03781 -0.40407,7.90572 0.1466,10.541 2.40152,11.4927 10.117,19.44637 20.82666,21.4695 2.48907,0.47022 8.3628,0.33817 10.79091,-0.24259 z m -41.57751,38.27259 c -0.0432,-0.10478 -0.0494,-22.96478 -0.0137,-50.8 l 0.0647,-50.6095 h 5.07876 5.07876 v 5.54566 c 0,3.05012 0.0701,5.61576 0.15575,5.70143 0.0857,0.0857 0.5825,-0.38105 1.10403,-1.03717 2.32873,-2.92949 6.07213,-5.88142 10.17022,-8.01997 6.78225,-3.5392 15.30362,-4.51223 23.241,-2.65379 13.69249,3.2059 24.29366,14.8292 26.94859,29.54684 0.61024,3.38293 0.61386,10.44262 0.007,13.77587 -2.35849,12.95572 -10.59222,23.39343 -22.10469,28.02157 -7.44261,2.99202 -15.93474,3.30116 -23.43424,0.85307 -5.39235,-1.76024 -11.71591,-5.93921 -14.55431,-9.61829 -0.59804,-0.77507 -1.18767,-1.40922 -1.31038,-1.40922 -0.12631,0 -0.22311,8.87219 -0.22311,20.447 v 20.447 h -5.06502 c -2.78574,0 -5.10032,-0.0857 -5.1435,-0.1905 z" />
      <path
         stroke-width="0.54123"
         fill="#ce132f"
         id="path3013"
         d="m 163.55799,79.70526 c -13.12973,-0.20317 -25.11245,-10.62265 -27.15415,-23.57951 -2.15805,-11.33813 3.2577,-23.69587 13.34856,-29.43204 9.76742,-5.93523 23.05413,-5.23081 31.97692,1.98914 9.62904,7.35378 14.0244,21.16751 9.22923,32.50724 -4.39085,10.86966 -15.52712,18.87551 -27.40056,18.51517 z" />
      <path
         stroke-width="0.50994"
         fill="#12100b"
         d="m 0,1.2989 56.03465,101.98886 h 32.79541 l 20.54997,-36.71935 c -1.41444,-5.03719 -2.16493,-10.35299 -2.16493,-15.84804 0,-20.88703 10.93441,-39.19786 27.34924,-49.42147 H 95.17264 L 72.96513,44.27628 50.03033,1.2989 Z m 224.17241,0 -29.14208,0.051 c 16.37306,10.23258 27.28159,28.51555 27.28159,49.3707 0,23.25401 -13.57192,43.30446 -33.15059,52.56739 h 38.63058 L 247.00572,79.9811 v -0.10152 l 19.28148,23.40841 h 55.32427 L 274.62558,49.26602 315.84394,1.38369 269.9067,1.29919 h -9.20099 l -13.66616,16.7106 -13.66616,-16.7106 h -9.20098 z"
         id="path3005" />
    </g>
    <path
       stroke-width="0.6229"
       fill="#ffffff"
       opacity="0.9"
       id="path1872"
       d="M 54.29879,100.13102 C 53.27934,98.33239 40.75273,75.55765 26.46188,49.52047 12.17103,23.48329 0.3543,1.96992 0.20249,1.71297 0.05068,1.45603 11.22528,1.25251 25.03492,1.26072 L 50.14337,1.27565 61.35555,22.4306 c 6.1667,11.63523 11.37976,21.15887 11.58458,21.16364 0.20482,0.0048 5.21827,-9.40491 11.141,-20.91042 C 90.00386,11.17831 95.16496,1.64375 95.55025,1.4959 c 0.38529,-0.14785 9.24692,-0.19453 19.6925,-0.10373 l 18.99199,0.16508 -3.09166,2.14578 c -10.29946,7.14837 -18.96239,20.17046 -22.24332,33.43608 -1.68876,6.8281 -1.89501,19.54061 -0.41434,25.53888 l 0.94149,3.81404 -10.30697,18.4546 -10.30697,18.4546 H 72.48265 56.15234 Z" />
    <path
       stroke-width="0.6229"
       fill="#ffffff"
       opacity="0.9"
       id="path1911"
       d="m 190.85928,102.58598 c 13.52478,-8.45764 20.49699,-15.82633 25.91558,-27.38929 1.35926,-2.90059 3.08679,-7.76205 3.83896,-10.80326 1.91847,-7.75689 1.91847,-19.49742 0,-27.25432 C 217.52591,24.6539 210.06199,12.82342 200.63599,5.47382 198.37475,3.71068 196.25835,2.0381 195.93288,1.75696 195.60742,1.47582 203.89381,1.2458 214.34708,1.2458 h 19.00595 l 6.19032,7.57751 c 3.40467,4.16763 6.47437,7.96202 6.82156,8.43199 0.48845,0.66117 2.17946,-1.05247 7.47479,-7.57484 l 6.84354,-8.42932 27.67184,-0.00267 27.67187,-0.00267 -1.25661,1.40153 c -0.69114,0.77083 -10.0194,11.58665 -20.72949,24.03515 l -19.47286,22.63364 1.54006,1.65943 c 1.70537,1.83756 43.24496,49.66928 44.6055,51.36204 0.80359,0.99982 -0.80378,1.06318 -26.78467,1.05582 l -27.63954,-0.008 -9.3435,-11.4754 c -5.13892,-6.31147 -9.53967,-11.49359 -9.77944,-11.5158 -0.23978,-0.02223 -4.71376,5.14522 -9.94218,11.48322 l -9.50621,11.52363 -19.02263,-0.0366 c -14.97752,-0.0288 -18.77032,-0.19441 -17.8361,-0.77862 z" />
  </g>
</svg>
