<?xml version="1.0" encoding="UTF-8"?>
<!DOCTYPE svg PUBLIC "-//W3C//DTD SVG 1.1//EN" "http://www.w3.org/Graphics/SVG/1.1/DTD/svg11.dtd">
<svg xmlns="http://www.w3.org/2000/svg" version="1.1" width="537px" height="119px" style="shape-rendering:geometricPrecision; text-rendering:geometricPrecision; image-rendering:optimizeQuality; fill-rule:evenodd; clip-rule:evenodd" xmlns:xlink="http://www.w3.org/1999/xlink">
<g><path style="opacity:1" fill="#ffffff" d="M 40.5,-0.5 C 44.8333,-0.5 49.1667,-0.5 53.5,-0.5C 59.1687,0.980291 65.0021,2.31362 71,3.5C 72.7134,4.95436 73.8801,6.78769 74.5,9C 77.1724,9.83441 79.839,10.6677 82.5,11.5C 83.3184,13.1083 83.9851,14.7749 84.5,16.5C 87.6954,17.4517 90.6954,18.785 93.5,20.5C 94.2748,24.632 94.9414,28.7987 95.5,33C 94.6229,39.4817 93.9562,45.9817 93.5,52.5C 108.491,51.994 116.824,59.1607 118.5,74C 117.775,87.8926 110.441,95.3926 96.5,96.5C 89.1567,96.2461 83.3234,93.2461 79,87.5C 70.677,99.3217 60.8437,109.655 49.5,118.5C 47.8333,118.5 46.1667,118.5 44.5,118.5C 20.1342,100.768 5.1342,77.1015 -0.5,47.5C -0.5,38.5 -0.5,29.5 -0.5,20.5C 2.73041,18.9772 6.06375,17.6439 9.5,16.5C 10.0149,14.7749 10.6816,13.1083 11.5,11.5C 14.161,10.6677 16.8276,9.83441 19.5,9C 20.8613,7.4157 21.528,5.58236 21.5,3.5C 28.0197,2.47407 34.353,1.14074 40.5,-0.5 Z M 40.5,14.5 C 41.8327,28.3172 42.4993,42.4839 42.5,57C 42.3333,71.1667 42.1667,85.3333 42,99.5C 35.9566,91.7462 31.7899,83.0796 29.5,73.5C 26.9954,73.9802 24.6621,74.9802 22.5,76.5C 14.9142,62.8237 11.0808,48.1571 11,32.5C 12.6667,30.8333 14.3333,29.1667 16,27.5C 16.0446,41.32 18.5446,54.6533 23.5,67.5C 25.1233,68.4756 26.4567,67.9756 27.5,66C 24.0514,51.3928 22.8847,36.5594 24,21.5C 25.2419,20.1279 26.7419,19.1279 28.5,18.5C 29.3333,30.5 30.1667,42.5 31,54.5C 31.6625,62.1554 33.4958,69.4888 36.5,76.5C 37.7467,56.1598 37.7467,35.8265 36.5,15.5C 38.099,15.7678 39.4324,15.4345 40.5,14.5 Z M 51.5,14.5 C 60.6754,14.8315 68.5087,18.1648 75,24.5C 76.7007,26.9 77.534,29.5666 77.5,32.5C 76.71,36.7317 75.3766,40.7317 73.5,44.5C 76.6421,44.7993 78.8088,46.4659 80,49.5C 80.6667,52.8333 80.6667,56.1667 80,59.5C 74.1525,75.1674 64.8192,88.5007 52,99.5C 51.5,71.1686 51.3334,42.8353 51.5,14.5 Z M 82.5,66.5 C 87.8746,66.1718 93.2079,66.5052 98.5,67.5C 99.3832,70.3252 100.55,72.9919 102,75.5C 103.197,72.9109 104.197,70.2442 105,67.5C 106.494,66.2528 107.994,66.2528 109.5,67.5C 107.624,72.4612 105.957,77.4612 104.5,82.5C 102.712,82.7852 101.045,82.4519 99.5,81.5C 97.5862,77.6772 96.2529,73.6772 95.5,69.5C 93.8333,69.5 92.1667,69.5 90.5,69.5C 90.5,73.8333 90.5,78.1667 90.5,82.5C 89.1667,82.5 87.8333,82.5 86.5,82.5C 86.5,78.1667 86.5,73.8333 86.5,69.5C 85.1667,69.5 83.8333,69.5 82.5,69.5C 82.5,68.5 82.5,67.5 82.5,66.5 Z"/></g>
<g><path style="opacity:1" fill="#ffffff" d="M 151.5,4.5 C 158.841,4.33368 166.174,4.50034 173.5,5C 178.754,6.56338 183.587,9.06338 188,12.5C 188.667,14.8333 188.667,17.1667 188,19.5C 185.49,25.205 183.99,31.205 183.5,37.5C 177.869,36.3433 172.202,35.0099 166.5,33.5C 157.079,33.409 155.746,36.2423 162.5,42C 187.289,51.7781 195.956,69.6114 188.5,95.5C 187.5,95.5 186.5,95.5 185.5,95.5C 183.021,103.457 177.687,108.791 169.5,111.5C 158.376,113.086 147.376,112.586 136.5,110C 133.652,108.076 130.652,106.409 127.5,105C 126.427,103.687 125.76,102.187 125.5,100.5C 128,93.5 130.5,86.5 133,79.5C 134.388,78.4464 135.888,78.2797 137.5,79C 139.336,80.419 141.336,81.5857 143.5,82.5C 149.128,83.4954 154.794,83.8288 160.5,83.5C 160.968,79.9661 159.968,76.9661 157.5,74.5C 153.63,72.3671 149.63,70.5338 145.5,69C 139.272,65.2708 134.606,60.1041 131.5,53.5C 130.893,48.2933 129.559,43.2933 127.5,38.5C 129.118,30.5181 131.618,22.8514 135,15.5C 140.207,11.14 145.707,7.47334 151.5,4.5 Z"/></g>
<g><path style="opacity:1" fill="#ffffff" d="M 193.5,6.5 C 213.169,6.33338 232.836,6.50005 252.5,7C 253.833,15.6667 253.833,24.3333 252.5,33C 241.839,33.4998 231.172,33.6665 220.5,33.5C 220.5,37.5 220.5,41.5 220.5,45.5C 229.167,45.5 237.833,45.5 246.5,45.5C 246.5,54.1667 246.5,62.8333 246.5,71.5C 237.833,71.5 229.167,71.5 220.5,71.5C 220.5,75.5 220.5,79.5 220.5,83.5C 231.172,83.3335 241.839,83.5002 252.5,84C 253.65,92.755 253.816,101.588 253,110.5C 252.5,111 252,111.5 251.5,112C 232.833,112.667 214.167,112.667 195.5,112C 194.333,111.5 193.5,110.667 193,109.5C 192.174,75.0952 192.341,40.7619 193.5,6.5 Z"/></g>
<g><path style="opacity:1" fill="#ffffff" d="M 256.5,6.5 C 273.17,6.3334 289.837,6.50007 306.5,7C 312.187,9.02579 316.687,12.5258 320,17.5C 320.261,25.8915 321.094,34.2248 322.5,42.5C 321.631,50.8357 319.631,58.8357 316.5,66.5C 315.5,66.5 314.5,66.5 313.5,66.5C 312.652,68.4815 312.152,70.4815 312,72.5C 316.219,81.1286 320.386,89.7953 324.5,98.5C 325.167,68.1667 325.833,37.8333 326.5,7.5C 336.03,6.1768 345.53,6.1768 355,7.5C 355.829,42.0714 355.662,76.5714 354.5,111C 349.944,112.109 345.278,112.609 340.5,112.5C 336.075,112.463 331.909,111.796 328,110.5C 327.5,111 327,111.5 326.5,112C 317.5,112.667 308.5,112.667 299.5,112C 298.646,110.978 297.646,110.145 296.5,109.5C 292.359,100.399 288.859,91.0656 286,81.5C 285.82,91.4105 285.32,101.244 284.5,111C 279.944,112.109 275.278,112.609 270.5,112.5C 266.5,112.333 262.5,112.167 258.5,112C 257.692,111.692 257.025,111.192 256.5,110.5C 255.167,75.8036 255.167,41.137 256.5,6.5 Z M 283.5,30.5 C 285.833,30.5 288.167,30.5 290.5,30.5C 292.343,33.189 294.01,36.0223 295.5,39C 293.651,43.2145 291.318,47.0478 288.5,50.5C 286.833,50.5 285.167,50.5 283.5,50.5C 283.5,43.8333 283.5,37.1667 283.5,30.5 Z"/></g>
<g><path style="opacity:1" fill="#ffffff" d="M 362.5,6.5 C 381.833,6.5 401.167,6.5 420.5,6.5C 420.5,15.5 420.5,24.5 420.5,33.5C 410.5,33.5 400.5,33.5 390.5,33.5C 390.5,37.5 390.5,41.5 390.5,45.5C 398.174,45.3336 405.841,45.5003 413.5,46C 414.833,54.3333 414.833,62.6667 413.5,71C 405.841,71.4997 398.174,71.6664 390.5,71.5C 390.5,75.5 390.5,79.5 390.5,83.5C 400.5,83.5 410.5,83.5 420.5,83.5C 421.574,91.7982 421.74,100.132 421,108.5C 420.691,109.766 420.191,110.933 419.5,112C 400.833,112.667 382.167,112.667 363.5,112C 362.667,111.167 361.833,110.333 361,109.5C 360.833,92.5 360.667,75.5 360.5,58.5C 360.514,40.948 361.18,23.6147 362.5,6.5 Z"/></g>
<g><path style="opacity:0.004" fill="#ffffff" d="M 317.5,8.5 C 319.225,8.84254 319.725,9.84254 319,11.5C 317.961,10.7562 317.461,9.75618 317.5,8.5 Z"/></g>
<g><path style="opacity:1" fill="#ffffff" d="M 57.5,21.5 C 69.7671,22.3944 73.6004,28.3944 69,39.5C 65.9416,43.0617 62.4416,46.0617 58.5,48.5C 57.5018,39.5246 57.1685,30.5246 57.5,21.5 Z"/></g>
<g><path style="opacity:1" fill="#ffffff" d="M 67.5,49.5 C 70.368,49.085 72.5347,50.085 74,52.5C 72.9858,65.1953 67.6524,75.862 58,84.5C 57.3333,74.8333 57.3333,65.1667 58,55.5C 60.8426,52.8373 64.0093,50.8373 67.5,49.5 Z"/></g>
<g><path style="opacity:1" fill="#ffffff" d="M 431.5,60.5 C 437.176,60.3339 442.843,60.5006 448.5,61C 449.471,66.0717 449.805,71.2384 449.5,76.5C 452.833,76.5 456.167,76.5 459.5,76.5C 459.5,71.1667 459.5,65.8333 459.5,60.5C 465.425,60.1918 471.259,60.5251 477,61.5C 477.5,77.1631 477.667,92.8298 477.5,108.5C 471.5,108.5 465.5,108.5 459.5,108.5C 459.5,102.833 459.5,97.1667 459.5,91.5C 456.167,91.5 452.833,91.5 449.5,91.5C 449.5,97.1667 449.5,102.833 449.5,108.5C 443.5,108.5 437.5,108.5 431.5,108.5C 431.5,92.5 431.5,76.5 431.5,60.5 Z"/></g>
<g><path style="opacity:1" fill="#ffffff" d="M 482.5,60.5 C 490.507,60.3336 498.507,60.5003 506.5,61C 520.033,63.3861 526.367,71.5528 525.5,85.5C 526.428,93.2196 524.094,99.7196 518.5,105C 516.283,106.275 513.949,107.275 511.5,108C 501.506,108.5 491.506,108.666 481.5,108.5C 481.183,92.4225 481.516,76.4225 482.5,60.5 Z M 499.5,75.5 C 505.959,75.1925 508.959,78.3592 508.5,85C 509.326,92.0051 506.326,95.1718 499.5,94.5C 499.5,88.1667 499.5,81.8333 499.5,75.5 Z"/></g>
</svg>
