<?xml version="1.0" encoding="UTF-8"?>
<!DOCTYPE svg PUBLIC "-//W3C//DTD SVG 1.1//EN" "http://www.w3.org/Graphics/SVG/1.1/DTD/svg11.dtd">
<svg xmlns="http://www.w3.org/2000/svg" version="1.1" width="537px" height="119px" style="shape-rendering:geometricPrecision; text-rendering:geometricPrecision; image-rendering:optimizeQuality; fill-rule:evenodd; clip-rule:evenodd" xmlns:xlink="http://www.w3.org/1999/xlink">
<g><path style="opacity:1" fill="#ffffff" d="M 40.5,-0.5 C 44.8333,-0.5 49.1667,-0.5 53.5,-0.5C 59.1687,0.980291 65.0021,2.31362 71,3.5C 72.7134,4.95436 73.8801,6.78769 74.5,9C 77.1724,9.83441 79.839,10.6677 82.5,11.5C 83.3184,13.1083 83.9851,14.7749 84.5,16.5C 87.6954,17.4517 90.6954,18.785 93.5,20.5C 94.2748,24.632 94.9414,28.7987 95.5,33C 94.6229,39.4817 93.9562,45.9817 93.5,52.5C 108.491,51.994 116.824,59.1607 118.5,74C 117.775,87.8926 110.441,95.3926 96.5,96.5C 89.1567,96.2461 83.3234,93.2461 79,87.5C 70.677,99.3217 60.8437,109.655 49.5,118.5C 47.8333,118.5 46.1667,118.5 44.5,118.5C 20.1342,100.768 5.1342,77.1015 -0.5,47.5C -0.5,38.5 -0.5,29.5 -0.5,20.5C 2.73041,18.9772 6.06375,17.6439 9.5,16.5C 10.0149,14.7749 10.6816,13.1083 11.5,11.5C 14.161,10.6677 16.8276,9.83441 19.5,9C 20.8613,7.4157 21.528,5.58236 21.5,3.5C 28.0197,2.47407 34.353,1.14074 40.5,-0.5 Z M 40.5,14.5 C 41.8327,28.3172 42.4993,42.4839 42.5,57C 42.3333,71.1667 42.1667,85.3333 42,99.5C 35.9566,91.7462 31.7899,83.0796 29.5,73.5C 26.9954,73.9802 24.6621,74.9802 22.5,76.5C 14.9142,62.8237 11.0808,48.1571 11,32.5C 12.6667,30.8333 14.3333,29.1667 16,27.5C 16.0446,41.32 18.5446,54.6533 23.5,67.5C 25.1233,68.4756 26.4567,67.9756 27.5,66C 24.0514,51.3928 22.8847,36.5594 24,21.5C 25.2419,20.1279 26.7419,19.1279 28.5,18.5C 29.3333,30.5 30.1667,42.5 31,54.5C 31.6625,62.1554 33.4958,69.4888 36.5,76.5C 37.7467,56.1598 37.7467,35.8265 36.5,15.5C 38.099,15.7678 39.4324,15.4345 40.5,14.5 Z M 51.5,14.5 C 60.6754,14.8315 68.5087,18.1648 75,24.5C 76.7007,26.9 77.534,29.5666 77.5,32.5C 76.71,36.7317 75.3766,40.7317 73.5,44.5C 76.6421,44.7993 78.8088,46.4659 80,49.5C 80.6667,52.8333 80.6667,56.1667 80,59.5C 74.1525,75.1674 64.8192,88.5007 52,99.5C 51.5,71.1686 51.3334,42.8353 51.5,14.5 Z M 82.5,66.5 C 87.8746,66.1718 93.2079,66.5052 98.5,67.5C 99.3832,70.3252 100.55,72.9919 102,75.5C 103.197,72.9109 104.197,70.2442 105,67.5C 106.494,66.2528 107.994,66.2528 109.5,67.5C 107.624,72.4612 105.957,77.4612 104.5,82.5C 102.712,82.7852 101.045,82.4519 99.5,81.5C 97.5862,77.6772 96.2529,73.6772 95.5,69.5C 93.8333,69.5 92.1667,69.5 90.5,69.5C 90.5,73.8333 90.5,78.1667 90.5,82.5C 89.1667,82.5 87.8333,82.5 86.5,82.5C 86.5,78.1667 86.5,73.8333 86.5,69.5C 85.1667,69.5 83.8333,69.5 82.5,69.5C 82.5,68.5 82.5,67.5 82.5,66.5 Z"/></g>
<g><path style="opacity:1" fill="#ffffff" d="M 141.5,4.5 C 161.167,4.5 180.833,4.5 200.5,4.5C 200.5,12.5 200.5,20.5 200.5,28.5C 189.5,28.5 178.5,28.5 167.5,28.5C 167.5,33.8333 167.5,39.1667 167.5,44.5C 176.5,44.5 185.5,44.5 194.5,44.5C 194.5,52.5 194.5,60.5 194.5,68.5C 185.5,68.5 176.5,68.5 167.5,68.5C 167.5,81.8333 167.5,95.1667 167.5,108.5C 158.833,108.5 150.167,108.5 141.5,108.5C 141.5,73.8333 141.5,39.1667 141.5,4.5 Z"/></g>
<g><path style="opacity:1" fill="#ffffff" d="M 211.5,4.5 C 220.167,4.5 228.833,4.5 237.5,4.5C 237.325,39.1685 236.991,73.8352 236.5,108.5C 228.167,108.5 219.833,108.5 211.5,108.5C 211.5,73.8333 211.5,39.1667 211.5,4.5 Z"/></g>
<g><path style="opacity:1" fill="#ffffff" d="M 251.5,4.5 C 260.167,4.5 268.833,4.5 277.5,4.5C 277.5,31.1667 277.5,57.8333 277.5,84.5C 288.833,84.5 300.167,84.5 311.5,84.5C 311.5,92.5 311.5,100.5 311.5,108.5C 291.5,108.5 271.5,108.5 251.5,108.5C 251.5,73.8333 251.5,39.1667 251.5,4.5 Z"/></g>
<g><path style="opacity:1" fill="#ffffff" d="M 323.5,5.5 C 332.525,5.16849 341.525,5.50182 350.5,6.5C 356.171,24.0118 362.337,41.3452 369,58.5C 375.663,41.3452 381.829,24.0118 387.5,6.5C 396.475,5.50182 405.475,5.16849 414.5,5.5C 414.5,40.1667 414.5,74.8333 414.5,109.5C 406.167,109.5 397.833,109.5 389.5,109.5C 389.667,94.8295 389.5,80.1629 389,65.5C 385.928,74.2161 382.762,82.8827 379.5,91.5C 372.532,92.497 365.532,92.8303 358.5,92.5C 355.637,83.0793 352.471,73.746 349,64.5C 348.5,79.4963 348.333,94.4963 348.5,109.5C 340.167,109.5 331.833,109.5 323.5,109.5C 323.5,74.8333 323.5,40.1667 323.5,5.5 Z"/></g>
<g><path style="opacity:1" fill="#ffffff" d="M 57.5,21.5 C 69.7671,22.3944 73.6004,28.3944 69,39.5C 65.9416,43.0617 62.4416,46.0617 58.5,48.5C 57.5018,39.5246 57.1685,30.5246 57.5,21.5 Z"/></g>
<g><path style="opacity:1" fill="#ffffff" d="M 138.5,47.5 C 139.653,53.6529 139.82,59.9863 139,66.5C 138.5,60.1754 138.334,53.8421 138.5,47.5 Z"/></g>
<g><path style="opacity:1" fill="#ffffff" d="M 67.5,49.5 C 70.368,49.085 72.5347,50.085 74,52.5C 72.9858,65.1953 67.6524,75.862 58,84.5C 57.3333,74.8333 57.3333,65.1667 58,55.5C 60.8426,52.8373 64.0093,50.8373 67.5,49.5 Z"/></g>
<g><path style="opacity:1" fill="#ffffff" d="M 431.5,60.5 C 437.176,60.3339 442.843,60.5006 448.5,61C 449.471,66.0717 449.805,71.2384 449.5,76.5C 452.833,76.5 456.167,76.5 459.5,76.5C 459.5,71.1667 459.5,65.8333 459.5,60.5C 465.425,60.1918 471.259,60.5251 477,61.5C 477.5,77.1631 477.667,92.8298 477.5,108.5C 471.5,108.5 465.5,108.5 459.5,108.5C 459.5,102.833 459.5,97.1667 459.5,91.5C 456.167,91.5 452.833,91.5 449.5,91.5C 449.5,97.1667 449.5,102.833 449.5,108.5C 443.5,108.5 437.5,108.5 431.5,108.5C 431.5,92.5 431.5,76.5 431.5,60.5 Z"/></g>
<g><path style="opacity:1" fill="#ffffff" d="M 482.5,60.5 C 490.507,60.3336 498.507,60.5003 506.5,61C 520.033,63.3861 526.367,71.5528 525.5,85.5C 526.428,93.2196 524.094,99.7196 518.5,105C 516.283,106.275 513.949,107.275 511.5,108C 501.506,108.5 491.506,108.666 481.5,108.5C 481.183,92.4225 481.516,76.4225 482.5,60.5 Z M 499.5,75.5 C 505.959,75.1925 508.959,78.3592 508.5,85C 509.326,92.0051 506.326,95.1718 499.5,94.5C 499.5,88.1667 499.5,81.8333 499.5,75.5 Z"/></g>
</svg>
