<?xml version="1.0" encoding="UTF-8"?>
<!DOCTYPE svg PUBLIC "-//W3C//DTD SVG 1.1//EN" "http://www.w3.org/Graphics/SVG/1.1/DTD/svg11.dtd">
<svg xmlns="http://www.w3.org/2000/svg" version="1.1" width="706px" height="119px" style="shape-rendering:geometricPrecision; text-rendering:geometricPrecision; image-rendering:optimizeQuality; fill-rule:evenodd; clip-rule:evenodd" xmlns:xlink="http://www.w3.org/1999/xlink">
<g><path style="opacity:1" fill="#ffffff" d="M 40.5,-0.5 C 44.8333,-0.5 49.1667,-0.5 53.5,-0.5C 59.1687,0.980291 65.0021,2.31362 71,3.5C 72.7134,4.95436 73.8801,6.78769 74.5,9C 77.1724,9.83441 79.839,10.6677 82.5,11.5C 83.3184,13.1083 83.9851,14.7749 84.5,16.5C 87.6954,17.4517 90.6954,18.785 93.5,20.5C 94.2748,24.632 94.9414,28.7987 95.5,33C 94.6229,39.4817 93.9562,45.9817 93.5,52.5C 108.491,51.994 116.824,59.1607 118.5,74C 117.775,87.8926 110.441,95.3926 96.5,96.5C 89.1567,96.2461 83.3234,93.2461 79,87.5C 70.677,99.3217 60.8437,109.655 49.5,118.5C 47.8333,118.5 46.1667,118.5 44.5,118.5C 20.1342,100.768 5.1342,77.1015 -0.5,47.5C -0.5,38.5 -0.5,29.5 -0.5,20.5C 2.73041,18.9772 6.06375,17.6439 9.5,16.5C 10.0149,14.7749 10.6816,13.1083 11.5,11.5C 14.161,10.6677 16.8276,9.83441 19.5,9C 20.8613,7.4157 21.528,5.58236 21.5,3.5C 28.0197,2.47407 34.353,1.14074 40.5,-0.5 Z M 40.5,14.5 C 41.8327,28.3172 42.4993,42.4839 42.5,57C 42.3333,71.1667 42.1667,85.3333 42,99.5C 35.9566,91.7462 31.7899,83.0796 29.5,73.5C 26.9954,73.9802 24.6621,74.9802 22.5,76.5C 14.9142,62.8237 11.0808,48.1571 11,32.5C 12.6667,30.8333 14.3333,29.1667 16,27.5C 16.0446,41.32 18.5446,54.6533 23.5,67.5C 25.1233,68.4756 26.4567,67.9756 27.5,66C 24.0514,51.3928 22.8847,36.5594 24,21.5C 25.2419,20.1279 26.7419,19.1279 28.5,18.5C 29.3333,30.5 30.1667,42.5 31,54.5C 31.6625,62.1554 33.4958,69.4888 36.5,76.5C 37.7467,56.1598 37.7467,35.8265 36.5,15.5C 38.099,15.7678 39.4324,15.4345 40.5,14.5 Z M 51.5,14.5 C 60.6754,14.8315 68.5087,18.1648 75,24.5C 76.7007,26.9 77.534,29.5666 77.5,32.5C 76.71,36.7317 75.3766,40.7317 73.5,44.5C 76.6421,44.7993 78.8088,46.4659 80,49.5C 80.6667,52.8333 80.6667,56.1667 80,59.5C 74.1525,75.1674 64.8192,88.5007 52,99.5C 51.5,71.1686 51.3334,42.8353 51.5,14.5 Z M 82.5,66.5 C 87.8746,66.1718 93.2079,66.5052 98.5,67.5C 99.3832,70.3252 100.55,72.9919 102,75.5C 103.197,72.9109 104.197,70.2442 105,67.5C 106.494,66.2528 107.994,66.2528 109.5,67.5C 107.624,72.4612 105.957,77.4612 104.5,82.5C 102.712,82.7852 101.045,82.4519 99.5,81.5C 97.5862,77.6772 96.2529,73.6772 95.5,69.5C 93.8333,69.5 92.1667,69.5 90.5,69.5C 90.5,73.8333 90.5,78.1667 90.5,82.5C 89.1667,82.5 87.8333,82.5 86.5,82.5C 86.5,78.1667 86.5,73.8333 86.5,69.5C 85.1667,69.5 83.8333,69.5 82.5,69.5C 82.5,68.5 82.5,67.5 82.5,66.5 Z"/></g>
<g><path style="opacity:1" fill="#ffffff" d="M 170.5,3.5 C 180.464,2.64456 190.13,3.81123 199.5,7C 201.167,8.16667 202.833,9.33333 204.5,10.5C 201.875,17.6663 199.875,24.9996 198.5,32.5C 193.873,30.4375 189.04,29.1041 184,28.5C 182.167,28.6667 180.333,28.8333 178.5,29C 172.656,32.1632 168.823,36.9965 167,43.5C 164.131,55.6902 165.464,67.3569 171,78.5C 179.159,85.8244 187.993,86.4911 197.5,80.5C 198.086,80.7093 198.586,81.0426 199,81.5C 200.262,87.2852 201.928,92.9518 204,98.5C 204.667,100.167 204.667,101.833 204,103.5C 185.848,113.864 168.681,112.531 152.5,99.5C 144.213,90.1588 139.713,79.1588 139,66.5C 137.223,49.3836 140.556,33.3836 149,18.5C 154.78,11.3724 161.947,6.37241 170.5,3.5 Z"/></g>
<g><path style="opacity:1" fill="#ffffff" d="M 231.5,3.5 C 256.145,0.736077 271.312,11.4027 277,35.5C 281.496,56.0701 279.163,75.7368 270,94.5C 257.5,110.167 242,114 223.5,106C 214.986,99.8088 209.153,91.6421 206,81.5C 201.007,61.071 202.341,41.071 210,21.5C 214.966,12.6869 222.132,6.6869 231.5,3.5 Z M 240.5,27.5 C 247.194,30.5114 250.694,35.8448 251,43.5C 251.667,52.1667 251.667,60.8333 251,69.5C 250.853,76.8366 247.519,81.8366 241,84.5C 236.859,83.9109 234.192,81.5776 233,77.5C 227.831,61.8837 228.498,46.5504 235,31.5C 236.5,29.5313 238.333,28.198 240.5,27.5 Z"/></g>
<g><path style="opacity:1" fill="#ffffff" d="M 285.5,4.5 C 294.525,4.16849 303.525,4.50182 312.5,5.5C 318.171,23.0118 324.337,40.3452 331,57.5C 337.663,40.3452 343.829,23.0118 349.5,5.5C 358.475,4.50182 367.475,4.16849 376.5,4.5C 376.5,39.1667 376.5,73.8333 376.5,108.5C 368.167,108.5 359.833,108.5 351.5,108.5C 351.667,93.8295 351.5,79.1629 351,64.5C 347.928,73.2161 344.762,81.8827 341.5,90.5C 334.532,91.497 327.532,91.8303 320.5,91.5C 317.637,82.0793 314.471,72.746 311,63.5C 310.5,78.4963 310.333,93.4963 310.5,108.5C 302.167,108.5 293.833,108.5 285.5,108.5C 285.5,73.8333 285.5,39.1667 285.5,4.5 Z"/></g>
<g><path style="opacity:1" fill="#ffffff" d="M 386.5,4.5 C 406.167,4.5 425.833,4.5 445.5,4.5C 445.5,12.5 445.5,20.5 445.5,28.5C 434.5,28.5 423.5,28.5 412.5,28.5C 412.5,33.8333 412.5,39.1667 412.5,44.5C 421.5,44.5 430.5,44.5 439.5,44.5C 439.5,52.5 439.5,60.5 439.5,68.5C 430.5,68.5 421.5,68.5 412.5,68.5C 412.5,73.8333 412.5,79.1667 412.5,84.5C 423.833,84.5 435.167,84.5 446.5,84.5C 446.5,92.5 446.5,100.5 446.5,108.5C 426.5,108.5 406.5,108.5 386.5,108.5C 386.5,73.8333 386.5,39.1667 386.5,4.5 Z"/></g>
<g><path style="opacity:1" fill="#ffffff" d="M 452.5,4.5 C 507.439,-3.72712 530.939,19.6062 523,74.5C 518.996,93.5056 507.496,104.672 488.5,108C 476.505,108.5 464.505,108.667 452.5,108.5C 452.5,73.8333 452.5,39.1667 452.5,4.5 Z M 479.5,28.5 C 486.005,28.1684 490.838,30.8351 494,36.5C 498.667,49.8333 498.667,63.1667 494,76.5C 491.104,82.6352 486.271,85.3018 479.5,84.5C 479.5,65.8333 479.5,47.1667 479.5,28.5 Z"/></g>
<g><path style="opacity:1" fill="#ffffff" d="M 518.5,4.5 C 527.839,4.33355 537.173,4.50021 546.5,5C 550.073,15.887 553.74,26.7203 557.5,37.5C 561.269,26.6927 564.936,15.8594 568.5,5C 577.518,4.16803 586.518,4.3347 595.5,5.5C 587.037,26.7526 578.87,48.086 571,69.5C 570.5,82.4957 570.333,95.4957 570.5,108.5C 561.5,108.5 552.5,108.5 543.5,108.5C 543.667,95.1625 543.5,81.8292 543,68.5C 534.542,47.2561 526.376,25.9228 518.5,4.5 Z"/></g>
<g><path style="opacity:1" fill="#ffffff" d="M 57.5,21.5 C 69.7671,22.3944 73.6004,28.3944 69,39.5C 65.9416,43.0617 62.4416,46.0617 58.5,48.5C 57.5018,39.5246 57.1685,30.5246 57.5,21.5 Z"/></g>
<g><path style="opacity:1" fill="#ffffff" d="M 67.5,49.5 C 70.368,49.085 72.5347,50.085 74,52.5C 72.9858,65.1953 67.6524,75.862 58,84.5C 57.3333,74.8333 57.3333,65.1667 58,55.5C 60.8426,52.8373 64.0093,50.8373 67.5,49.5 Z"/></g>
<g><path style="opacity:1" fill="#ffffff" d="M 607.5,60.5 C 613.176,60.3339 618.843,60.5006 624.5,61C 625.471,66.0717 625.805,71.2384 625.5,76.5C 628.833,76.5 632.167,76.5 635.5,76.5C 635.5,71.1667 635.5,65.8333 635.5,60.5C 641.425,60.1918 647.259,60.5251 653,61.5C 653.5,77.1631 653.667,92.8298 653.5,108.5C 647.5,108.5 641.5,108.5 635.5,108.5C 635.5,102.833 635.5,97.1667 635.5,91.5C 632.167,91.5 628.833,91.5 625.5,91.5C 625.5,97.1667 625.5,102.833 625.5,108.5C 619.5,108.5 613.5,108.5 607.5,108.5C 607.5,92.5 607.5,76.5 607.5,60.5 Z"/></g>
<g><path style="opacity:1" fill="#ffffff" d="M 658.5,60.5 C 666.507,60.3336 674.507,60.5003 682.5,61C 696.033,63.3861 702.367,71.5528 701.5,85.5C 702.428,93.2196 700.094,99.7196 694.5,105C 692.283,106.275 689.949,107.275 687.5,108C 677.506,108.5 667.506,108.666 657.5,108.5C 657.183,92.4225 657.516,76.4225 658.5,60.5 Z M 675.5,75.5 C 681.959,75.1925 684.959,78.3592 684.5,85C 685.326,92.0051 682.326,95.1718 675.5,94.5C 675.5,88.1667 675.5,81.8333 675.5,75.5 Z"/></g>
</svg>
