<?xml version="1.0" encoding="utf-8"?>
<!-- Generator: Adobe Illustrator 23.0.4, SVG Export Plug-In . SVG Version: 6.00 Build 0)  -->
<svg version="1.1"
	 id="svg2" xmlns:cc="http://creativecommons.org/ns#" xmlns:dc="http://purl.org/dc/elements/1.1/" xmlns:inkscape="http://www.inkscape.org/namespaces/inkscape" xmlns:rdf="http://www.w3.org/1999/02/22-rdf-syntax-ns#" xmlns:sodipodi="http://sodipodi.sourceforge.net/DTD/sodipodi-0.dtd" xmlns:svg="http://www.w3.org/2000/svg"
	 xmlns="http://www.w3.org/2000/svg" xmlns:xlink="http://www.w3.org/1999/xlink" x="0px" y="0px" width="275.2px" height="111.5px"
	 viewBox="0 0 275.2 111.5" style="enable-background:new 0 0 275.2 111.5;" xml:space="preserve">
<style type="text/css">
	.st0{fill:#ffffff;}
</style>
<g id="layer1" transform="translate(-192.57144,-54.380275)" inkscape:groupmode="layer" inkscape:label="Layer 1">
	<path id="path3551" inkscape:connector-curvature="0" fill="#ffffff" d="M381.4,84.5h-10.5V69h9.7c6.6,0,9.2,2.6,9.2,7.9
		C390,81.5,387.4,84.5,381.4,84.5 M314.5,107.8h-5.8V70.1h5.2c12.7,0,18.4,5.6,18.4,18.5C332.5,101.2,326.7,107.8,314.5,107.8
		 M396,94.7v-0.2c6.4-2.2,13.5-7.9,13.5-18.9c0-13.9-9.9-21-27.5-21h-30v24h-0.2c-3.6-14.4-15.9-24-38.2-24h-42.2l-6.4,28.3
		c-1.3,5.8-2.4,13.1-2.4,13.1h-0.2c0,0-1.5-8.2-2.8-14.1L254,54.4h-23.2l-5.4,27.4c-1.3,5.8-2.8,14.1-2.8,14.1h-0.2
		c0,0-1.1-7.3-2.4-13.1l-6.4-28.3h-21l18.5,69.1h21.2l10.5-44.4h0.2l10.5,44.4h20.8l15.4-57.3h0.2v57.3h23.6
		c22.7,0,35-10.3,38.8-25.3h0.2v25.3h19.1V99.2h1.5c2.2,0,7.7-0.2,10.7,4.7l11.8,19.7h20.6l-10.7-18C401.3,99.5,398.3,96.3,396,94.7
		"/>
</g>
<path fill="#ffffff" d="M217.9,103.5c-0.6-0.8-1.2-1.7-1.8-2.5c-0.3-0.4-0.7-0.7-1.1-1.1c0,0-0.1-0.1-0.1-0.1c0.1,0,0.2,0,0.3-0.1
	c1-0.1,2-0.4,2.9-0.9c1.6-0.9,2.7-2.1,3.1-3.9c0.4-1.4,0.3-2.9-0.1-4.3c-0.3-1.2-1-2.2-2-3c-0.7-0.5-1.4-0.9-2.2-1.2
	c-1.5-0.6-3.1-0.7-4.6-0.7c-2.6,0-5.1,0-7.7,0c-0.1,0-0.1,0-0.2,0c0,0.1,0,0.1,0,0.2c0,8.5,0,16.9,0,25.4c0,0.2,0.1,0.2,0.2,0.2
	c1.3,0,2.6,0,3.9,0c0.3,0,0.3,0,0.3-0.3c0-3.5,0-7.1,0-10.6c0-0.1,0-0.2,0-0.3c0.2,0,0.4,0,0.6,0c0.7,0,1.2,0.2,1.6,0.7
	c0.3,0.3,0.6,0.6,0.8,0.9c0.6,0.8,1.2,1.6,1.8,2.5c1.6,2.3,3.1,4.6,4.7,6.9c0.1,0.1,0.2,0.2,0.3,0.2c1.5,0,3,0,4.5,0
	c0.1,0,0.1,0,0.2,0c-0.1-0.1-0.1-0.2-0.2-0.2C221.5,108.7,219.7,106.1,217.9,103.5z M212.8,97.1c-1.3,0-2.5,0-3.8,0c0,0-0.1,0-0.1,0
	c0-2.6,0-5.3,0-7.9c0,0,0.1,0,0.1,0c1.4,0,2.7,0,4.1,0.1c0.6,0,1.1,0.2,1.7,0.3c1.4,0.5,2.2,1.5,2.4,2.9c0.1,0.8,0,1.5-0.2,2.2
	c-0.3,0.8-0.8,1.3-1.5,1.7C214.5,96.9,213.6,97,212.8,97.1z M254,111.3c-1.8-4.7-3.7-9.5-5.5-14.2c-1.4-3.7-2.9-7.4-4.3-11.2
	c-0.1-0.2-0.1-0.2-0.3-0.2c-1.3,0-2.5,0-3.8,0c-0.2,0-0.3,0.1-0.3,0.2c-1.4,3.6-2.7,7.2-4.1,10.8c-1.9,4.9-3.7,9.7-5.6,14.6
	c0,0.1-0.1,0.2-0.1,0.3c0.1,0,0.2,0,0.2,0c1.3,0,2.6,0,3.9,0c0.2,0,0.3-0.1,0.3-0.2c0.6-1.7,1.2-3.4,1.8-5.1
	c0.1-0.2,0.1-0.3,0.4-0.3c3.5,0,7,0,10.5,0c0.2,0,0.3,0,0.3,0.2c0.6,1.7,1.2,3.4,1.8,5.1c0.1,0.2,0.1,0.2,0.3,0.2c1.4,0,2.9,0,4.3,0
	c0.1,0,0.1,0,0.2,0C254,111.5,254,111.4,254,111.3z M237.6,102.4c1.4-3.9,3-7.8,4.2-11.8c1.2,4,2.8,7.9,4.2,11.8
	C243.1,102.4,240.4,102.4,237.6,102.4z M193.8,108.2c0,1,0,2.1,0,3.1c0,0.2,0,0.2-0.2,0.2c-4.7,0-9.3,0-14,0c-0.1,0-0.1,0-0.2,0
	c0-8.6,0-17.2,0-25.8c0.1,0,0.2,0,0.2,0c4.5,0,9.1,0,13.6,0c0.3,0,0.3,0,0.3,0.3c0,1,0,2.1,0,3.1c0,0.2-0.1,0.2-0.3,0.2
	c-3.1,0-6.2,0-9.3,0c-0.1,0-0.2,0-0.3,0c0,2.3,0,4.6,0,6.9c0.1,0,0.2,0,0.3,0c2.7,0,5.4,0,8.1,0c0.2,0,0.3,0.1,0.3,0.3c0,1,0,2,0,3
	c0,0.2-0.1,0.2-0.2,0.2c-2.7,0-5.4,0-8.1,0c-0.1,0-0.2,0-0.3,0c0,2.7,0,5.4,0,8.1c0.1,0,0.2,0,0.3,0c3.2,0,6.3,0,9.5,0
	C193.8,107.9,193.8,107.9,193.8,108.2z M170.1,85.7c0.1,0,0.1,0,0.2,0c0,0.1-0.1,0.2-0.1,0.2c-3.2,8.5-6.3,16.9-9.5,25.4
	c-0.1,0.2-0.1,0.2-0.3,0.2c-1.3,0-2.5,0-3.8,0c-0.2,0-0.2-0.1-0.3-0.2c-1.9-5-3.8-9.9-5.7-14.9c-1.4-3.5-2.7-7-4.1-10.5
	c0-0.1-0.1-0.1-0.1-0.2c0.1,0,0.2,0,0.2,0c1.4,0,2.9,0,4.3,0c0.1,0,0.2,0,0.3,0.2c2,5.5,4,11,6,16.5c0.5,1.3,0.9,2.7,1.3,4
	c0,0.1,0.1,0.2,0.1,0.3c0-0.1,0.1-0.1,0.1-0.2c1-3.3,2.2-6.5,3.3-9.7c1.3-3.6,2.5-7.2,3.8-10.8c0.1-0.2,0.1-0.2,0.3-0.2
	C167.5,85.7,168.8,85.7,170.1,85.7z"/>
</svg>
