<?xml version="1.0" encoding="UTF-8"?>
<!DOCTYPE svg PUBLIC "-//W3C//DTD SVG 1.1//EN" "http://www.w3.org/Graphics/SVG/1.1/DTD/svg11.dtd">
<svg xmlns="http://www.w3.org/2000/svg" version="1.1" width="300px" height="86px" style="shape-rendering:geometricPrecision; text-rendering:geometricPrecision; image-rendering:optimizeQuality; fill-rule:evenodd; clip-rule:evenodd" xmlns:xlink="http://www.w3.org/1999/xlink">
<g><path fill="#EF2E2E" d="M 168.5,1.5 C 183.167,1.5 197.833,1.5 212.5,1.5C 205.953,28.6853 198.62,55.6853 190.5,82.5C 175.848,83.4993 161.182,83.8326 146.5,83.5C 153.222,56 160.556,28.6666 168.5,1.5 Z"/></g>
<g><path fill="#ffffff" d="M 263.5,17.5 C 290.013,13.5093 300.513,24.5093 295,50.5C 291.706,57.4045 286.206,61.2378 278.5,62C 273.511,62.4993 268.511,62.6659 263.5,62.5C 263.5,47.5 263.5,32.5 263.5,17.5 Z M 268.5,22.5 C 286.84,21.1669 294.006,29.5002 290,47.5C 285.409,55.9085 278.409,58.9085 269,56.5C 268.5,45.1716 268.333,33.8382 268.5,22.5 Z"/></g>
<g><path fill="#ffffff" d="M 2.5,18.5 C 7.5,18.5 12.5,18.5 17.5,18.5C 18.7637,25.3162 20.5971,31.9829 23,38.5C 24.1236,31.8768 25.6236,25.3768 27.5,19C 33.1569,18.5006 38.8236,18.3339 44.5,18.5C 45.4699,25.3358 46.9699,32.0024 49,38.5C 50.6977,31.8403 52.1977,25.1736 53.5,18.5C 66.1711,18.3334 78.8377,18.5001 91.5,19C 97.6913,20.2078 102.525,23.3745 106,28.5C 106.498,25.1832 106.665,21.8499 106.5,18.5C 116.172,18.3335 125.839,18.5002 135.5,19C 145.977,23.0415 148.81,30.2081 144,40.5C 142.457,42.3783 140.624,43.8783 138.5,45C 143.593,50.3577 147.26,56.5243 149.5,63.5C 144.456,63.8275 139.456,63.4941 134.5,62.5C 131.833,58.5 129.167,54.5 126.5,50.5C 125.15,49.0499 123.484,48.3832 121.5,48.5C 121.5,53.5 121.5,58.5 121.5,63.5C 116.5,63.5 111.5,63.5 106.5,63.5C 106.665,60.1501 106.498,56.8168 106,53.5C 101.976,58.5924 96.8094,61.7591 90.5,63C 82.1733,63.4997 73.84,63.6664 65.5,63.5C 65.6665,54.1607 65.4998,44.8274 65,35.5C 62.6508,44.5661 60.1508,53.5661 57.5,62.5C 52.2079,63.4948 46.8746,63.8282 41.5,63.5C 39.8603,55.8049 38.027,48.1382 36,40.5C 33.645,47.7732 31.4783,55.1066 29.5,62.5C 24.2805,63.8042 19.1139,63.8042 14,62.5C 9.43984,47.9924 5.6065,33.3257 2.5,18.5 Z M 121.5,29.5 C 123.857,29.3367 126.19,29.5034 128.5,30C 131.473,31.2242 132.14,33.2242 130.5,36C 127.607,37.1488 124.607,37.6488 121.5,37.5C 121.5,34.8333 121.5,32.1667 121.5,29.5 Z M 80.5,30.5 C 91.6831,29.5227 95.8498,34.5227 93,45.5C 90.4731,50.633 86.3065,52.633 80.5,51.5C 80.5,44.5 80.5,37.5 80.5,30.5 Z"/></g>
<g><path fill="#ffffff" d="M 222.5,17.5 C 224.5,17.5 226.5,17.5 228.5,17.5C 228.5,23.8333 228.5,30.1667 228.5,36.5C 235.833,36.5 243.167,36.5 250.5,36.5C 250.5,30.1667 250.5,23.8333 250.5,17.5C 252.5,17.5 254.5,17.5 256.5,17.5C 256.5,32.5 256.5,47.5 256.5,62.5C 254.5,62.5 252.5,62.5 250.5,62.5C 250.5,55.5 250.5,48.5 250.5,41.5C 243.167,41.5 235.833,41.5 228.5,41.5C 228.666,48.175 228.5,54.8417 228,61.5C 226.301,62.4061 224.467,62.7394 222.5,62.5C 222.5,47.5 222.5,32.5 222.5,17.5 Z"/></g>
</svg>
