<?xml version="1.0" encoding="UTF-8" standalone="no"?>
<!-- Created with Inkscape (http://www.inkscape.org/) -->

<svg
   xmlns:dc="http://purl.org/dc/elements/1.1/"
   xmlns:cc="http://creativecommons.org/ns#"
   xmlns:rdf="http://www.w3.org/1999/02/22-rdf-syntax-ns#"
   xmlns:svg="http://www.w3.org/2000/svg"
   xmlns="http://www.w3.org/2000/svg"
   xmlns:xlink="http://www.w3.org/1999/xlink"
   xmlns:sodipodi="http://sodipodi.sourceforge.net/DTD/sodipodi-0.dtd"
   xmlns:inkscape="http://www.inkscape.org/namespaces/inkscape"
   width="97.092377mm"
   height="39.326046mm"
   viewBox="0 0 344.02811 139.34426"
   id="svg2"
   version="1.1"
   inkscape:version="0.91 r13725"
   sodipodi:docname="wdr_event_logo.svg">
  <defs
     id="defs4">
    <defs
       id="defs3543">
      <rect
         x="0"
         id="SVGID_9_"
         y="13.6"
         width="147"
         height="60.299999" />
    </defs>
    <clipPath
       id="SVGID_10_">
      <use
         height="100%"
         width="100%"
         y="0"
         x="0"
         xlink:href="#SVGID_9_"
         style="overflow:visible"
         id="use3547" />
    </clipPath>
    <defs
       id="defs3529">
      <rect
         x="0"
         id="SVGID_7_"
         y="13.6"
         width="147"
         height="60.299999" />
    </defs>
    <clipPath
       id="SVGID_8_">
      <use
         height="100%"
         width="100%"
         y="0"
         x="0"
         xlink:href="#SVGID_7_"
         style="overflow:visible"
         id="use3533" />
    </clipPath>
    <defs
       id="defs3515">
      <rect
         x="0"
         id="SVGID_5_"
         y="13.6"
         width="147"
         height="60.299999" />
    </defs>
    <clipPath
       id="SVGID_6_">
      <use
         height="100%"
         width="100%"
         y="0"
         x="0"
         xlink:href="#SVGID_5_"
         style="overflow:visible"
         id="use3519" />
    </clipPath>
    <defs
       id="defs3501">
      <rect
         x="0"
         id="SVGID_3_"
         y="13.6"
         width="147"
         height="60.299999" />
    </defs>
    <clipPath
       id="SVGID_4_">
      <use
         height="100%"
         width="100%"
         y="0"
         x="0"
         xlink:href="#SVGID_3_"
         style="overflow:visible"
         id="use3505" />
    </clipPath>
    <defs
       id="defs3487">
      <rect
         x="0"
         id="SVGID_1_"
         y="13.6"
         width="147"
         height="60.299999" />
    </defs>
    <clipPath
       id="SVGID_2_">
      <use
         height="100%"
         width="100%"
         y="0"
         x="0"
         xlink:href="#SVGID_1_"
         style="overflow:visible"
         id="use3491" />
    </clipPath>
  </defs>
  <sodipodi:namedview
     id="base"
     pagecolor="#ffffff"
     bordercolor="#666666"
     borderopacity="1.0"
     inkscape:pageopacity="0.0"
     inkscape:pageshadow="2"
     inkscape:zoom="0.51123083"
     inkscape:cx="179.4758"
     inkscape:cy="-306.38517"
     inkscape:document-units="px"
     inkscape:current-layer="layer1"
     showgrid="false"
     inkscape:window-width="1366"
     inkscape:window-height="705"
     inkscape:window-x="-8"
     inkscape:window-y="-8"
     inkscape:window-maximized="1"
     fit-margin-top="0"
     fit-margin-left="0"
     fit-margin-right="0"
     fit-margin-bottom="0" />
  <metadata
     id="metadata7">
    <rdf:RDF>
      <cc:Work
         rdf:about="">
        <dc:format>image/svg+xml</dc:format>
        <dc:type
           rdf:resource="http://purl.org/dc/dcmitype/StillImage" />
        <dc:title></dc:title>
      </cc:Work>
    </rdf:RDF>
  </metadata>
  <g
     inkscape:label="Layer 1"
     inkscape:groupmode="layer"
     id="layer1"
     transform="translate(-192.57144,-54.380275)">
    <polygon
       style="fill:#ffffff"
       class="st5"
       points="77.2,74 77.2,60.1 85.2,60.1 85.2,62.1 79.5,62.1 79.5,65.8 84.5,65.8 84.5,67.6 79.5,67.6 79.5,72 85.3,72 85.3,74 "
       id="polygon3493"
       clip-path="url(#SVGID_2_)"
       transform="matrix(2.3419204,0,0,2.3419204,192.33725,20.656621)" />
    <path
       style="fill:#ffffff"
       inkscape:connector-curvature="0"
       class="st0"
       d="m 89.2,60.1 2.5,0 3.2,8.8 c 0.4,1.1 0.6,2 0.8,2.3 l 0,0 c 0.1,-0.3 0.4,-1.3 0.7,-2.3 l 3.1,-8.8 2.3,0 -5.1,13.8 -2.2,0 -5.3,-13.8 z"
       id="path3507"
       clip-path="url(#SVGID_4_)"
       transform="matrix(2.3419204,0,0,2.3419204,192.33725,20.656621)" />
    <polygon
       style="fill:#ffffff"
       class="st1"
       points="106.5,74 106.5,60.1 114.4,60.1 114.4,62.1 108.8,62.1 108.8,65.8 113.8,65.8 113.8,67.6 108.8,67.6 108.8,72 114.6,72 114.6,74 "
       id="polygon3521"
       clip-path="url(#SVGID_6_)"
       transform="matrix(2.3419204,0,0,2.3419204,192.33725,20.656621)" />
    <path
       style="fill:#ffffff"
       inkscape:connector-curvature="0"
       class="st2"
       d="m 120,60.1 2.3,0 5.7,8.1 c 0.8,1.1 1.2,1.9 1.4,2.2 l 0,0 c 0,-0.2 -0.1,-1 -0.1,-2 l 0,-8.3 2.1,0 0,13.8 -2.2,0 -6,-8.7 c -0.6,-0.8 -1,-1.6 -1.2,-1.9 l 0,0 c 0,0.2 0.1,0.9 0.1,1.7 l 0,8.9 -2.1,0 0,-13.8 0,0 z"
       id="path3535"
       clip-path="url(#SVGID_8_)"
       transform="matrix(2.3419204,0,0,2.3419204,192.33725,20.656621)" />
    <polygon
       style="fill:#ffffff"
       class="st3"
       points="140.3,74 140.3,62.1 136,62.1 136,60.1 147,60.1 147,62.1 142.7,62.1 142.7,74 "
       id="polygon3549"
       clip-path="url(#SVGID_10_)"
       transform="matrix(2.3419204,0,0,2.3419204,192.33725,20.656621)" />
    <path
       style="fill:#ffffff"
       inkscape:connector-curvature="0"
       class="st4"
       d="m 428.63702,92.085193 -13.11476,0 0,-19.437939 12.17799,0 c 8.19672,0 11.47541,3.278688 11.47541,9.836066 0.23419,5.854801 -3.0445,9.601873 -10.53864,9.601873 m -83.60656,29.039817 -7.25995,0 0,-47.072604 6.55737,0 c 15.92506,0 22.95082,7.025761 22.95082,23.185012 0.2342,15.690862 -7.02576,23.887592 -22.24824,23.887592 m 101.87354,-16.39345 0,-0.23419 c 7.96253,-2.8103 16.86182,-9.836064 16.86182,-23.653395 0,-17.330211 -12.41217,-26.229508 -34.42623,-26.229508 l -37.47072,0 0,29.976581 -0.23419,0 C 387.18503,66.558261 371.72835,54.614467 343.8595,54.614467 l -52.69321,0 -7.96253,35.362998 c -1.63934,7.259953 -3.0445,16.393445 -3.0445,16.393445 l -0.23419,0 c 0,0 -1.87353,-10.304452 -3.51288,-17.564405 l -7.02576,-34.42623 -29.03981,0 -6.79157,34.192038 c -1.63935,7.259953 -3.51288,17.564407 -3.51288,17.564407 l -0.23419,0 c 0,0 -1.40516,-9.133494 -3.0445,-16.393447 l -7.96253,-35.362998 -26.22951,0 23.18501,86.416865 26.4637,0 13.11476,-55.503516 0.23419,0 13.11476,55.503516 25.99531,0 19.20375,-71.662767 0.23419,0 0,71.662767 29.5082,0 c 28.33723,0 43.79391,-12.88056 48.47775,-31.61593 l 0.23419,0 0,31.61593 23.88759,0 0,-30.44497 1.87354,0 c 2.8103,0 9.60187,-0.23419 13.34894,5.8548 l 14.7541,24.59017 25.76113,0 -13.34895,-22.48244 c -5.15223,-7.49414 -8.8993,-11.47541 -11.7096,-13.58314"
       id="path3551" />
  </g>
  <style
     id="style3"
     type="text/css"><![CDATA[
	.st0{fill:#00A591;}
]]></style>
  <style
     id="style3381"
     type="text/css"><![CDATA[
	.st0{fill:#FFFF00;}
	.st1{display:inline;}
	.st2{fill:#00A591;}
	.st3{display:none;}
]]></style>
  <style
     id="style3477"
     type="text/css"><![CDATA[
	.st0{clip-path:url(#SVGID_4_);fill:#ffffff;}
	.st1{clip-path:url(#SVGID_6_);fill:#ffffff;}
	.st2{clip-path:url(#SVGID_8_);fill:#ffffff;}
	.st3{clip-path:url(#SVGID_10_);fill:#ffffff;}
	.st4{fill:#ffffff;}
	.st5{clip-path:url(#SVGID_2_);fill:#ffffff;}
]]></style>
</svg>
