<?xml version="1.0" encoding="UTF-8"?>
<svg width="169.9" height="70" xml:space="preserve" xmlns="http://www.w3.org/2000/svg">
<g><path style="fill:#ed2727;fill-opacity:1" transform="matrix(1 0 0 1.03387 -26 0)" d="M177.4 68H143l18.5-68h34.4z"/></g>
<g><path style="opacity:1" fill="#ffffff" transform="translate(-26)" d="M139.1 43.112c-1.9-3.308-3.5-5.066-4.7-6.1v-.103c3.5-1.24 7.2-4.239 7.2-10.545 0-7.651-5.3-11.58-14.7-11.58h-16V28.225h-.1c-1.9-8.065-8.4-13.234-20.4-13.234H68.1L64.6 30.5c-.7 3.205-1.4 7.237-1.4 7.237h-.1s-.7-4.549-1.5-7.754l-2.9-15.094H46.4l-2.9 15.094c-.7 3.205-1.5 7.754-1.5 7.754h-.1s-.6-4.032-1.4-7.237L37 14.888H26l9.9 38.253h11.2l4-17.576c.8-3.515 1.6-6.927 1.6-6.927h.1s.7 3.412 1.6 6.927l4 17.472h11l8.2-31.636h.1s-.1 1.24-.1 2.895v28.741h12.6c12.1 0 18.8-5.79 20.7-13.853h.1V53.244h10.2v-13.75h.8c1.2 0 4.1-.104 5.7 2.584l6.2 10.856h11zm-48 1.24H88v-20.78h2.8c6.8 0 9.8 3.102 9.8 10.235 0 6.824-3 10.546-9.5 10.546m35.6-12.82h-5.6v-8.478h5.2c3.5 0 4.9 1.448 4.9 4.24.1 2.584-1.4 4.238-4.5 4.238"/></g>
</svg>
