<?xml version="1.0" encoding="UTF-8"?>
<!DOCTYPE svg PUBLIC "-//W3C//DTD SVG 1.1//EN" "http://www.w3.org/Graphics/SVG/1.1/DTD/svg11.dtd">
<svg xmlns="http://www.w3.org/2000/svg" version="1.1" width="320px" height="128px" style="shape-rendering:geometricPrecision; text-rendering:geometricPrecision; image-rendering:optimizeQuality; fill-rule:evenodd; clip-rule:evenodd" xmlns:xlink="http://www.w3.org/1999/xlink">
<g><path fill="#e1082a" d="M 253.5,-0.5 C 275.5,-0.5 297.5,-0.5 319.5,-0.5C 319.5,0.833333 319.5,2.16667 319.5,3.5C 307.595,44.5673 296.261,85.9007 285.5,127.5C 263.5,127.5 241.5,127.5 219.5,127.5C 231.147,84.9137 242.48,42.2471 253.5,-0.5 Z"/></g>
<g><path fill="#ffffff" d="M -0.5,26.5 C 6.83333,26.5 14.1667,26.5 21.5,26.5C 23.8877,39.2723 26.721,51.939 30,64.5C 32.5669,51.8326 35.0669,39.1659 37.5,26.5C 45.8333,26.5 54.1667,26.5 62.5,26.5C 64.0507,39.0877 66.5507,51.4211 70,63.5C 72.662,51.1875 75.162,38.8542 77.5,26.5C 97.2129,26.0624 116.88,26.5624 136.5,28C 146.845,30.5733 154.012,36.74 158,46.5C 158.5,39.8417 158.666,33.175 158.5,26.5C 172.171,26.3334 185.837,26.5001 199.5,27C 215.097,31.0946 220.597,40.9279 216,56.5C 213.768,61.7306 209.935,65.2306 204.5,67C 212.028,75.8873 218.695,85.3873 224.5,95.5C 217.167,96.8333 209.833,96.8333 202.5,95.5C 198.667,89.1667 194.833,82.8333 191,76.5C 187.901,73.1877 184.067,71.521 179.5,71.5C 179.5,79.8333 179.5,88.1667 179.5,96.5C 172.833,96.5 166.167,96.5 159.5,96.5C 159.666,89.4921 159.5,82.4921 159,75.5C 153.323,88.1049 143.49,94.9382 129.5,96C 118.505,96.4998 107.505,96.6665 96.5,96.5C 96.6666,79.1635 96.4999,61.8301 96,44.5C 91.4954,61.8524 86.9954,79.1857 82.5,96.5C 75.1365,96.8306 67.8032,96.4973 60.5,95.5C 57.0026,81.5105 53.5026,67.5105 50,53.5C 46.383,67.7535 43.2164,82.0869 40.5,96.5C 32.8045,96.8308 25.1378,96.4975 17.5,95.5C 11.6307,73.6775 5.6307,52.0108 -0.5,30.5C -0.5,29.1667 -0.5,27.8333 -0.5,26.5 Z M 179.5,41.5 C 185.352,40.8608 190.852,41.8608 196,44.5C 198.254,49.4035 197.087,53.2368 192.5,56C 188.179,56.499 183.846,56.6657 179.5,56.5C 179.5,51.5 179.5,46.5 179.5,41.5 Z M 116.5,42.5 C 137.305,42.6327 144.139,52.6327 137,72.5C 131.648,78.9212 124.815,81.2545 116.5,79.5C 116.5,67.1667 116.5,54.8333 116.5,42.5 Z"/></g>
<g><path fill="#ffffff" d="M 289.5,73.5 C 277.833,73.5 266.167,73.5 254.5,73.5C 254.5,71.5 254.5,69.5 254.5,67.5C 259.105,63.3977 263.605,59.0643 268,54.5C 271.893,49.823 273.56,44.4897 273,38.5C 271.136,35.7928 268.636,34.9595 265.5,36C 263.336,36.9143 261.336,38.081 259.5,39.5C 257.142,37.9757 255.309,35.9757 254,33.5C 253.493,32.0039 253.993,30.8373 255.5,30C 265.716,23.6161 275.55,24.1161 285,31.5C 287.905,36.6512 288.238,41.9845 286,47.5C 283.033,54.2737 278.533,59.7737 272.5,64C 278.157,64.4994 283.824,64.6661 289.5,64.5C 289.5,67.5 289.5,70.5 289.5,73.5 Z"/></g>
<g><path fill="#e1082a" d="M 254.5,67.5 C 254.5,69.5 254.5,71.5 254.5,73.5C 266.167,73.5 277.833,73.5 289.5,73.5C 277.678,74.4951 265.678,74.8284 253.5,74.5C 253.198,71.9407 253.532,69.6074 254.5,67.5 Z"/></g>
</svg>
