<?xml version="1.0" encoding="UTF-8" standalone="no"?>
<!-- Generator: Adobe Illustrator 15.0.2, SVG Export Plug-In . SVG Version: 6.00 Build 0)  -->

<svg
   version="1.1"
   id="Ebene_1_Kopie"
   x="0px"
   y="0px"
   width="195.89999"
   height="77"
   viewBox="0 0 195.9 77"
   xml:space="preserve"
   inkscape:version="1.1.1 (3bf5ae0d25, 2021-09-20)"
   sodipodi:docname="WDR.svg"
   xmlns:inkscape="http://www.inkscape.org/namespaces/inkscape"
   xmlns:sodipodi="http://sodipodi.sourceforge.net/DTD/sodipodi-0.dtd"
   xmlns="http://www.w3.org/2000/svg"
   xmlns:svg="http://www.w3.org/2000/svg"
   xmlns:rdf="http://www.w3.org/1999/02/22-rdf-syntax-ns#"
   xmlns:cc="http://creativecommons.org/ns#"
   xmlns:dc="http://purl.org/dc/elements/1.1/"><defs
   id="defs21" /><sodipodi:namedview
   id="namedview19"
   pagecolor="#ffffff"
   bordercolor="#666666"
   borderopacity="1.0"
   inkscape:pageshadow="2"
   inkscape:pageopacity="0.0"
   inkscape:pagecheckerboard="0"
   showgrid="false"
   inkscape:zoom="6.6207251"
   inkscape:cx="97.949997"
   inkscape:cy="38.439899"
   inkscape:window-width="1920"
   inkscape:window-height="1017"
   inkscape:window-x="-8"
   inkscape:window-y="-8"
   inkscape:window-maximized="1"
   inkscape:current-layer="Ebene_1_Kopie" />
<metadata
   id="metadata17">
<rdf:RDF>
<cc:Work
   rdf:about="">
<dc:format>image/svg+xml</dc:format>
<dc:type
   rdf:resource="http://purl.org/dc/dcmitype/StillImage" />

</cc:Work>
</rdf:RDF>
</metadata>
<g
   id="g12">
<polygon
   style="opacity:1"
   fill="#ed2727"
   points="143,68 161.5,0 195.9,0 177.4,68 "
   id="polygon10" />
</g>
<g
   id="g16"
   style="fill:#ffffff">
<path
   style="fill:#ffffff"
   fill="#ffffff"
   d="m 139.1,41.7 c -1.9,-3.2 -3.5,-4.9 -4.7,-5.9 l 0,-0.1 c 3.5,-1.2 7.2,-4.1 7.2,-10.2 0,-7.4 -5.3,-11.2 -14.7,-11.2 l -16,0 0,11.7 c 0,0 0,1.1 0,1.3 l -0.1,0 C 108.9,19.5 102.4,14.5 90.4,14.5 l -22.3,0 -3.5,15 c -0.7,3.1 -1.4,7 -1.4,7 l -0.1,0 c 0,0 -0.7,-4.4 -1.5,-7.5 L 58.7,14.4 46.4,14.4 43.5,29 C 42.8,32.1 42,36.5 42,36.5 l -0.1,0 c 0,0 -0.6,-3.9 -1.4,-7 L 37,14.4 l -11,0 9.9,37 11.2,0 4,-17 c 0.8,-3.4 1.6,-6.7 1.6,-6.7 l 0.1,0 0,0 c 0,0 0.7,3.3 1.6,6.7 l 4,16.9 11,0 8.2,-30.6 0,0 0.1,0 c 0,0 -0.1,1.2 -0.1,2.8 l 0,27.8 12.6,0 c 12.1,0 18.8,-5.6 20.7,-13.4 l 0.1,0 c 0,0.1 0,1.3 0,1.3 l 0,12.3 10.2,0 0,-13.3 0.8,0 c 1.2,0 4.1,-0.1 5.7,2.5 l 6.2,10.5 11,0 -5.8,-9.5 0,0 z m -48,1.2 -3.1,0 0,-20.1 2.8,0 c 6.8,0 9.8,3 9.8,9.9 0,6.6 -3,10.2 -9.5,10.2 m 35.6,-12.4 -5.6,0 0,-8.2 5.2,0 c 3.5,0 4.9,1.4 4.9,4.1 0.1,2.5 -1.4,4.1 -4.5,4.1"
   id="path9"
   inkscape:connector-curvature="0" /><path
   class="st0"
   d="m 0,74.7 2,0 0,-6 5.7,0 0,-1.7 -5.7,0 0,-4.4 6.4,0 0,-1.6 -8.4,0 0,13.7 0,0 z m 13.1,0 8.7,0 0,-1.6 -6.7,0 0,-4.8 5.9,0 0,-1.6 -5.9,0 0,-4 6.6,0 0,-1.7 -8.6,0 0,13.7 0,0 z m 13.6,0 2,0 0,-6 0.8,0 c 0.9,0 1.1,0.2 2.7,2.2 l 2.7,3.8 2.4,0 -3.3,-4.5 c -0.8,-1.1 -1.3,-1.6 -1.6,-1.8 l 0,-0.1 c 2.2,-0.2 3.7,-1.4 3.7,-3.8 0,-2.5 -1.8,-3.8 -4.9,-3.8 l -4.4,0 0,14 -0.1,0 z m 2,-7.6 0,-4.6 2.2,0 c 2.1,0 3.1,0.6 3.1,2.2 0,1.5 -0.9,2.4 -2.9,2.4 l -2.4,0 0,0 z m 12.8,7.6 1.9,0 0,-9.6 c 0,-0.6 -0.1,-1.5 -0.1,-1.7 l 0,0 c 0.2,0.4 0.7,1.3 1.2,2 l 6.9,9.3 1.8,0 0,-13.8 -1.8,0 0,9.1 c 0,0.8 0.1,1.7 0.1,2.1 l -0.1,0 C 51.2,71.7 50.7,70.7 50,69.9 l -6.5,-8.9 -2,0 0,13.7 0,0 z M 62.2,75 c 2.9,0 4.9,-1.5 4.9,-3.8 0,-2.6 -2.2,-3.6 -4.1,-4.4 -1.5,-0.6 -2.7,-1.1 -2.7,-2.5 0,-1.3 1.2,-1.9 2.6,-1.9 1.4,0 2.6,0.6 3.1,1 l 0.9,-1.5 c -0.5,-0.4 -1.8,-1.2 -4,-1.2 -2.3,0 -4.5,1.3 -4.5,3.7 0,2.2 1.7,3.2 3.5,3.9 2,0.9 3.5,1.4 3.5,2.9 0,1.3 -1.3,2.1 -3,2.1 -1.9,0 -3,-0.9 -3.4,-1.3 l -0.9,1.5 c 0.4,0.6 1.8,1.5 4.1,1.5 m 9.8,-0.3 8.7,0 0,-1.6 -6.7,0 0,-4.8 5.9,0 0,-1.6 -5.9,0 0,-4 6.6,0 0,-1.7 -8.6,0 0,13.7 0,0 z m 13.5,0 2,0 0,-6.4 7.9,0 0,6.4 2,0 0,-13.8 -2,0 0,5.8 -7.9,0 0,-5.8 -2,0 0,13.8 0,0 z m 17.7,0 8.7,0 0,-1.6 -6.7,0 0,-4.8 5.9,0 0,-1.6 -5.9,0 0,-4 6.6,0 0,-1.7 -8.6,0 0,13.7 0,0 z m 13.6,0 1.9,0 0,-9.6 c 0,-0.6 -0.1,-1.5 -0.1,-1.7 l 0,0 c 0.2,0.4 0.7,1.3 1.2,2 l 6.9,9.3 1.8,0 0,-13.8 -1.8,0 0,9.1 c 0,0.8 0.1,1.7 0.1,2.1 l -0.1,0 c -0.2,-0.4 -0.7,-1.4 -1.4,-2.2 l -6.5,-8.9 -2,0 0,13.7 0,0 z"
   id="path11"
   inkscape:connector-curvature="0"
   style="fill:#ffffff" />
</g>
</svg>
