<?xml version="1.0" encoding="UTF-8" standalone="no"?>
<!-- Generator: Adobe Illustrator 15.0.2, SVG Export Plug-In . SVG Version: 6.00 Build 0)  -->

<svg
   version="1.1"
   id="Ebene_2"
   x="0px"
   y="0px"
   width="170.1px"
   height="75px"
   viewBox="0 0 170.1 75"
   style="enable-background:new 0 0 170.1 75;"
   xml:space="preserve"
   sodipodi:docname="WDR2.svg"
   inkscape:version="1.1.1 (3bf5ae0d25, 2021-09-20)"
   xmlns:inkscape="http://www.inkscape.org/namespaces/inkscape"
   xmlns:sodipodi="http://sodipodi.sourceforge.net/DTD/sodipodi-0.dtd"
   xmlns="http://www.w3.org/2000/svg"
   xmlns:svg="http://www.w3.org/2000/svg"><defs
   id="defs18" /><sodipodi:namedview
   id="namedview16"
   pagecolor="#ffffff"
   bordercolor="#666666"
   borderopacity="1.0"
   inkscape:pageshadow="2"
   inkscape:pageopacity="0.0"
   inkscape:pagecheckerboard="0"
   showgrid="false"
   inkscape:zoom="6.637272"
   inkscape:cx="85.050003"
   inkscape:cy="37.440081"
   inkscape:window-width="1920"
   inkscape:window-height="1017"
   inkscape:window-x="-8"
   inkscape:window-y="-8"
   inkscape:window-maximized="1"
   inkscape:current-layer="Ebene_2" />
<style
   type="text/css"
   id="style2">
<![CDATA[
	.st0{fill:#E1072A;}
	.st1{fill:#17375C;}
	.st2{fill:#FFFFFF;}
]]>
</style>
<g
   id="g13">
	<g
   id="Logo">
		<g
   id="g10">
			<polygon
   class="st0"
   points="135.7,0 170.1,0 151.6,68 117.2,68    "
   id="polygon4" />
			<path
   class="st2"
   d="M135.3,36.2c5.3-4.5,10.4-9.1,10.4-13.8c0-2-1.2-3.1-2.8-3.1c-1.8,0-3.7,1-5,2.3l-3.1-4.3     c1.8-1.7,4.5-3.4,9-3.4c6.5,0,9.3,3.5,9.3,7.7c0,5-3.2,8.8-8.1,13c0,0,1.7-0.2,2.7-0.2h6.6v5.3h-19V36.2L135.3,36.2z"
   id="path6" />
			<path
   class="st1"
   d="M100.9,30.5h-5.6v-8.3h5.2c3.5,0,4.9,1.4,4.9,4.2C105.5,28.9,104,30.5,100.9,30.5 M65.2,42.9h-3.1V22.8h2.8     c6.8,0,9.8,3,9.8,9.9C74.7,39.4,71.7,42.9,65.2,42.9 M113.2,41.7c-1.9-3.2-3.4-4.9-4.7-5.8v-0.1c3.4-1.2,7.2-4.2,7.2-10.1     c0-7.4-5.3-11.3-14.8-11.3h-16V26c0,0,0,1.1,0,1.2h-0.1c-1.9-7.7-8.5-12.8-20.4-12.8H42.1l-3.4,15.1c-0.7,3.1-1.3,7-1.3,7h-0.1     c0,0-0.8-4.4-1.5-7.5L33,14.4H20.6L17.7,29c-0.7,3.1-1.5,7.5-1.5,7.5H16c0,0-0.6-3.9-1.3-7l-3.4-15.1H0.1L10,51.3h11.3l4-17     c0.8-3.4,1.6-6.7,1.6-6.7H27h0.1c0,0,0.7,3.3,1.6,6.7l4,17h11.1L52,20.6l0,0h0.1c0,0-0.1,1.2-0.1,2.9v27.8h12.6     c12.1,0,18.8-5.5,20.7-13.5h0.1c0,0.1,0,1.2,0,1.2v12.2h10.2v-13h0.8c1.2,0,4.1-0.1,5.7,2.5l6.3,10.5h11L113.2,41.7z"
   id="path8" />
		</g>
	</g>
</g>
<path
   style="opacity:0.9;fill:#ffffff;stroke-width:0.150664"
   d="M 10.009231,51.338864 C 10.003761,51.318147 7.7741344,43.029727 5.0545045,32.920152 2.3348746,22.810577 0.13988573,14.488257 0.17675143,14.426108 0.2684797,14.27147 11.18751,14.282047 11.283193,14.436866 c 0.154771,0.250425 3.709096,16.306321 4.158386,18.784614 0.561362,3.096471 0.602489,3.291185 0.679002,3.214672 0.03309,-0.03309 1.04466,-4.959563 2.247927,-10.947715 1.203268,-5.988151 2.227778,-10.952298 2.276689,-11.031437 0.109038,-0.176427 12.223296,-0.198701 12.332087,-0.02268 0.0412,0.06667 0.720695,3.473566 1.509981,7.570882 0.789287,4.097316 1.757578,9.042941 2.151758,10.990277 l 0.716691,3.540611 0.196553,-1.129982 c 0.552964,-3.178973 1.11386,-5.862959 2.69202,-12.881799 0.950233,-4.226134 1.765247,-7.80813 1.811145,-7.959992 0.08026,-0.265568 0.567657,-0.273499 12.762814,-0.207675 12.976855,0.07004 13.498912,0.09254 16.473508,0.709775 4.037564,0.837806 7.435138,2.636414 9.825469,5.201409 1.55083,1.664149 2.516242,3.315142 3.345778,5.721762 l 0.41546,1.205315 0.01044,-6.440899 0.01044,-6.4409 7.947542,0.0013 c 8.581557,0.0014 11.286747,0.124661 13.563117,0.617855 4.85292,1.051426 7.89835,3.64843 8.93818,7.622088 0.4002,1.529326 0.43578,4.327587 0.0743,5.841684 -0.51817,2.170335 -1.84772,4.265618 -3.52631,5.557267 -0.90535,0.696651 -2.80386,1.752012 -3.15419,1.75338 -0.10359,4.52e-4 -0.18833,0.02389 -0.18833,0.05219 0,0.0283 0.5598,0.621543 1.24402,1.318313 0.68421,0.69677 1.66799,1.910945 2.18618,2.698166 0.51819,0.787221 2.39629,3.668676 4.17354,6.403233 l 3.23138,4.971922 -5.44794,0.03958 c -4.23581,0.03077 -5.48688,-0.0027 -5.62299,-0.150664 -0.0963,-0.104633 -1.55214,-2.495406 -3.23526,-5.312829 -1.68311,-2.817422 -3.22304,-5.339204 -3.42207,-5.603957 -0.874,-1.162623 -2.639754,-1.853926 -4.73536,-1.853926 h -1.328633 v 6.478565 6.478565 H 90.47393 85.351344 l -0.0058,-6.666895 -0.0058,-6.666896 -0.426513,1.280647 c -0.606752,1.821838 -0.965209,2.582546 -1.872367,3.973483 -2.900223,4.446893 -7.467553,6.980359 -14.338007,7.953192 -0.951398,0.134715 -3.648604,0.193465 -9.039858,0.196902 l -7.68388,0.0049 V 36.05298 c -9e-6,-12.771946 -0.0318,-15.133056 -0.195803,-14.539104 -0.107688,0.39001 -1.94297,7.251707 -4.078406,15.248216 l -3.882612,14.539106 -5.479336,0.03957 c -3.013634,0.02177 -5.529158,-0.01213 -5.590052,-0.07533 -0.09141,-0.09487 -2.67261,-10.828968 -5.088721,-21.161789 -0.30409,-1.300478 -0.595146,-2.406763 -0.646792,-2.45841 -0.05165,-0.05165 -0.267249,0.639487 -0.479113,1.535853 C 23.525212,41.929245 21.319,51.291183 21.319,51.329155 c 0,0.05561 -11.295089,0.0653 -11.309769,0.0097 z m 58.184794,-8.78537 c 3.240197,-0.721544 5.31966,-2.833143 6.110749,-6.20519 0.385067,-1.641361 0.385905,-5.663506 0.0015,-7.301452 -0.586418,-2.498873 -1.7811,-4.112431 -3.771079,-5.093281 -1.541037,-0.759569 -2.80828,-1.002925 -5.937893,-1.140287 l -2.448295,-0.107458 v 10.140328 10.140328 l 2.46672,-0.09273 c 1.375926,-0.05172 2.958254,-0.202188 3.578277,-0.340258 z M 102.81535,30.198109 c 1.14542,-0.340152 2.05696,-1.225267 2.36967,-2.300972 0.35965,-1.23713 0.20952,-2.812761 -0.36535,-3.834489 -0.8588,-1.526363 -2.59324,-1.97596 -7.264529,-1.883094 l -2.184633,0.04343 -0.04009,4.105602 -0.04009,4.105603 h 3.365022 c 2.61635,0 3.54189,-0.05252 4.15999,-0.236082 z"
   id="path173" /></svg>
