<?xml version="1.0" encoding="UTF-8" standalone="no"?>
<svg
   version="1.0"
   width="1126.2117"
   height="231.21915"
   id="svg2"
   xml:space="preserve"
   sodipodi:docname="Welt der Wunder.svg"
   inkscape:version="1.1.1 (3bf5ae0d25, 2021-09-20)"
   xmlns:inkscape="http://www.inkscape.org/namespaces/inkscape"
   xmlns:sodipodi="http://sodipodi.sourceforge.net/DTD/sodipodi-0.dtd"
   xmlns="http://www.w3.org/2000/svg"
   xmlns:svg="http://www.w3.org/2000/svg"><sodipodi:namedview
     id="namedview6"
     pagecolor="#ffffff"
     bordercolor="#666666"
     borderopacity="1.0"
     inkscape:pageshadow="2"
     inkscape:pageopacity="0.0"
     inkscape:pagecheckerboard="0"
     showgrid="false"
     inkscape:zoom="1.1203908"
     inkscape:cx="553.82461"
     inkscape:cy="74.527567"
     inkscape:window-width="1920"
     inkscape:window-height="1017"
     inkscape:window-x="-8"
     inkscape:window-y="-8"
     inkscape:window-maximized="1"
     inkscape:current-layer="svg2" /><defs
     id="defs5" /><path
     d="m 358.2341,74.163739 h -2.55232 c -1.39245,0 -2.4753,1.534821 -3.17299,4.604388 l -4.87358,23.627853 v 49.7084 L 361.3286,86.629393 c 0.30959,-2.111262 0.61918,-3.837009 0.61918,-5.753643 0,-2.107623 -0.38661,-3.836997 -0.92877,-4.795352 -0.69624,-1.340193 -1.62354,-1.916659 -2.78491,-1.916659 m -75.96985,0 h -2.55232 c -2.47619,0 -3.71414,2.302213 -3.71414,6.712011 0,1.725709 0.23229,3.642381 0.61906,5.753643 l 16.8655,83.224317 c 0.54068,2.49312 1.31542,4.40979 2.47529,5.75 1.00582,1.34386 2.08868,1.91665 3.40409,1.91665 1.23692,0 2.39827,-0.57279 3.48112,-1.91665 0.92878,-1.34021 1.70205,-3.06594 2.24273,-5.36815 l 14.00299,-64.24123 13.69337,64.0503 c 0.46366,2.3022 1.23839,4.21887 2.24423,5.36812 0.92729,0.95834 2.01015,1.72574 3.24854,1.72574 1.15987,0 2.32124,-0.7674 3.32707,-1.91666 1.15987,-1.34387 1.93312,-3.06961 2.31974,-5.36812 l 1.54799,-7.39497 v -49.55782 l -7.11778,34.51462 -14.00298,-63.855727 c -0.54069,-2.684063 -1.2369,-4.600723 -2.24272,-5.944594 -0.92881,-1.149267 -2.01165,-1.916659 -3.01746,-1.916659 -1.23692,0 -2.24274,0.767392 -3.17152,2.302175 -1.00583,1.149281 -1.77908,3.06594 -2.24274,5.559078 l -14.08001,63.855727 -14.23555,-68.647413 -1.31543,-3.451455 -1.77907,-1.152933 m 65.37096,28.232241 -2.1657,10.50494 v 49.55782 l 2.1657,-10.35436 v -49.7084 m 0,0 -2.1657,10.50494 v 49.55782 l 2.1657,-10.35436 v -49.7084 m 57.4029,-28.232241 h -17.48262 c -6.88668,0 -12.30094,2.875014 -16.40126,8.823273 -3.94625,5.940929 -5.9579,14.187701 -5.9579,24.351198 v 38.54252 c 0,9.01418 1.70206,16.87545 5.18464,23.58742 1.54652,3.06962 3.86777,5.56276 6.80672,7.28847 2.94043,1.53115 6.49858,2.48947 10.75444,2.48947 h 5.95642 c 2.32124,0 3.4811,-3.06591 3.4811,-8.81958 v -1.91667 c 0,-5.75366 -1.15986,-8.62865 -3.4811,-8.62865 h -6.96224 c -8.12361,0 -12.14689,-7.28845 -12.14689,-21.86173 h 46.41738 c 0.85177,0 1.54799,-0.95832 1.93462,-2.87498 0.46364,-1.91668 0.69622,-4.02792 0.69622,-6.71199 v -25.31318 c 0,-9.205127 -1.93462,-16.680842 -5.72533,-22.052635 -3.55815,-4.600723 -7.89102,-6.902936 -13.0742,-6.902936 m -30.47979,43.914351 v -12.27471 c 0,-4.02427 1.39244,-7.093846 4.25438,-9.396059 2.47531,-1.916672 5.72535,-2.684064 9.74713,-2.684064 h 13.61635 c 3.32709,0 6.34304,0.958317 8.81982,3.451456 2.55233,2.302213 3.71222,4.795347 3.71222,7.861257 v 13.04212 h -40.1499 m 66.06719,-72.29345 h -2.39826 c -2.32124,0 -3.48113,2.684064 -3.48113,8.437732 V 170.42651 c 0,5.75367 1.15989,8.81958 3.48113,8.81958 h 2.39826 c 2.32123,0 3.40411,-3.06591 3.40411,-8.81958 V 54.222372 c 0,-5.753668 -1.08288,-8.437732 -3.40411,-8.437732 m 24.21375,0 h -2.47527 c -2.32125,0 -3.48114,2.684064 -3.48114,8.437732 v 20.708759 h -3.24855 c -2.32123,0 -3.48258,2.684088 -3.48258,8.628682 v 2.111263 c 0,5.749966 1.16135,8.628648 3.48258,8.628648 h 3.24855 v 76.126786 c 0,5.75367 1.15989,8.81958 3.48114,8.81958 h 2.47527 c 2.32125,0 3.4041,-3.06591 3.4041,-8.81958 V 94.299724 h 14.77626 c 2.32121,0 3.4811,-2.878682 3.4811,-8.628648 v -2.111263 c 0,-5.944594 -1.15989,-8.628682 -3.4811,-8.628682 H 468.24336 V 54.222372 c 0,-5.753668 -1.08285,-8.437732 -3.4041,-8.437732 m 110.39738,0 h -2.39827 c -2.24422,0 -3.4811,2.874989 -3.4811,8.628657 v 20.517834 h -27.7734 c -7.58145,0 -13.22973,3.26053 -17.02046,9.396074 -3.40407,5.562718 -5.02762,13.233049 -5.10613,23.201925 l -0.0771,41.99767 c -0.077,8.62866 1.4695,15.34063 4.48694,20.32691 3.79072,6.13552 9.6701,9.39238 17.7937,9.39238 h 14.31258 c 7.1948,0 12.99569,-3.64238 17.17451,-10.54533 3.7122,-6.13551 5.56978,-13.42396 5.56978,-21.6671 V 54.413297 c 0,-5.753668 -1.16135,-8.628657 -3.48112,-8.628657 m -33.65269,114.09655 c -4.71952,0 -8.1236,-0.95835 -9.97972,-3.06961 -1.9346,-1.91667 -2.78487,-5.75366 -2.78487,-11.50364 v -37.39326 c 0,-4.60442 0.92731,-8.055903 2.93894,-10.163501 2.01165,-2.11125 5.18315,-3.451455 9.59307,-3.451455 h 28.00598 v 52.348416 c 0,4.02793 -1.16137,7.28846 -3.63665,9.58698 -2.47531,2.49312 -5.95644,3.64607 -10.75298,3.64607 h -13.38377 m 87.49605,-85.717451 h -17.4841 c -6.88519,0 -12.29948,2.875014 -16.32275,8.823273 -3.94479,5.940929 -6.03493,14.187701 -6.03493,24.351198 v 38.54252 c 0,9.01418 1.70204,16.87545 5.26168,23.58742 1.54651,3.06962 3.86774,5.56276 6.80817,7.28847 2.93896,1.53115 6.42006,2.48947 10.75297,2.48947 h 5.95642 c 2.32123,0 3.40408,-3.06591 3.40408,-8.81958 v -1.91667 c 0,-5.75366 -1.08285,-8.62865 -3.40408,-8.62865 h -6.96225 c -8.1236,0 -12.14541,-7.28845 -12.14541,-21.86173 h 46.3389 c 0.85175,0 1.54798,-0.95832 2.01163,-2.87498 0.38661,-1.91668 0.69621,-4.02792 0.69621,-6.71199 v -25.31318 c 0,-9.205127 -2.01163,-16.680842 -5.80235,-22.052635 -3.48111,-4.600723 -7.81251,-6.902936 -13.07419,-6.902936 m -30.47978,43.914351 v -12.27471 c 0,-4.02427 1.39245,-7.093846 4.33138,-9.396059 2.39828,-1.916672 5.6483,-2.684064 9.74863,-2.684064 h 13.53783 c 3.4041,0 6.42153,0.958317 8.89684,3.451456 2.4753,2.302213 3.71372,4.795347 3.71372,7.861257 v 13.04212 h -40.2284 m 84.40156,-43.914351 h -3.63519 c -6.34452,0 -11.29511,2.875014 -14.93178,8.628645 -3.63517,5.562743 -5.41425,13.614937 -5.49278,23.972996 l -0.077,63.66113 c 0,5.75367 1.08284,8.81958 3.40409,8.81958 h 2.63083 c 2.24271,0 3.4041,-3.06591 3.4041,-8.81958 v -63.66113 c 0,-4.02792 0.6177,-7.097529 2.01015,-9.205126 1.62501,-2.493138 4.48695,-3.836997 8.4332,-3.836997 h 4.25437 c 2.32125,0 3.55963,-3.069607 3.55963,-8.819585 v -2.111288 c 0,-5.753631 -1.23838,-8.628645 -3.55963,-8.628645 m 126.25646,0 h -2.63078 c -1.31544,0 -2.39827,1.534821 -3.09452,4.604388 L 789.37577,147.41554 775.37278,83.559813 c -0.54067,-2.684063 -1.23689,-4.600723 -2.24272,-5.944594 -1.00583,-1.149267 -2.01166,-1.916659 -3.01746,-1.916659 -1.23838,0 -2.24422,0.767392 -3.17153,2.302175 -1.00581,1.149281 -1.78056,3.06594 -2.2442,5.559078 l -14.08002,63.855727 -14.23408,-68.647413 -1.31541,-3.451455 -1.77909,-1.152933 h -2.55379 c -2.47527,0 -3.79073,2.302213 -3.79073,6.712011 0,1.725709 0.30961,3.642381 0.69625,5.753643 l 16.86492,83.224317 c 0.54215,2.49312 1.3154,4.40979 2.39825,5.75 1.08434,1.34386 2.16717,1.91665 3.48112,1.91665 1.23838,0 2.39826,-0.57279 3.40409,-1.91665 1.00581,-1.34021 1.77908,-3.06594 2.2442,-5.36815 l 14.08002,-64.24123 13.69338,64.0503 c 0.46366,2.3022 1.23692,4.21887 2.16571,5.36812 1.00582,0.95834 2.08864,1.72574 3.32706,1.72574 1.15986,0 2.31974,-0.7674 3.32556,-1.91666 1.16137,-1.34387 1.93464,-3.06961 2.32125,-5.36812 l 17.40707,-83.224317 c 0.30961,-2.111262 0.61918,-3.837009 0.61918,-5.753643 0,-2.107623 -0.38809,-3.836997 -1.0058,-4.795352 -0.69622,-1.340193 -1.54801,-1.916659 -2.70785,-1.916659 m 64.90728,0 h -2.47529 c -2.32124,0 -3.48261,2.875014 -3.48261,8.628645 v 65.390556 c 0,4.02792 -1.15986,6.71197 -3.55812,8.62864 -2.32125,2.11126 -5.5698,3.06961 -9.59311,3.06961 h -13.92594 c -4.25437,0 -7.50294,-1.15295 -9.82417,-3.06961 -2.39824,-2.10759 -3.63663,-5.1772 -3.63663,-9.01053 V 82.792384 c 0,-5.753631 -1.08289,-8.628645 -3.40262,-8.628645 h -2.39974 c -2.31976,0 -3.48113,2.875014 -3.48113,8.628645 v 65.008666 c 0,9.20145 1.47097,16.48991 4.40991,21.6671 3.71369,6.52108 9.82563,9.77794 18.33438,9.77794 h 13.92594 c 7.50443,0 13.22977,-3.25686 17.25156,-9.39238 3.55961,-5.56275 5.3387,-12.85121 5.3387,-22.05266 V 82.792384 c 0,-5.753631 -1.16137,-8.628645 -3.48113,-8.628645 m 51.60054,0 h -15.31841 c -7.42587,0 -12.91864,2.684064 -16.40124,7.861253 -3.24854,4.795352 -4.87357,12.274732 -4.87357,21.861748 v 66.53977 c 0,5.75367 1.08285,8.81958 3.4041,8.81958 h 2.39827 c 2.32124,0 3.48112,-3.06591 3.48112,-8.81958 v -66.73073 c 0,-4.027929 1.00581,-7.097534 3.17299,-8.437739 1.62354,-1.149243 4.56399,-1.534784 8.97387,-1.534784 h 15.16287 c 4.17733,0 7.11777,0.385541 8.74133,1.725747 2.08865,1.534783 3.09447,4.218847 3.09447,8.246776 v 66.73073 c 0,5.75367 1.08287,8.81958 3.4041,8.81958 h 2.55381 c 2.31976,0 3.40409,-3.06591 3.40409,-8.81958 v -66.73073 c 0,-9.586982 -1.70205,-17.066387 -5.26168,-21.861713 -3.40409,-5.17719 -8.7413,-7.670328 -15.93612,-7.670328 M 1014.887,45.78464 h -2.3983 c -2.2427,0 -3.404,2.874989 -3.404,8.628657 v 20.517834 h -27.85045 c -7.5814,0 -13.22824,3.26053 -17.01896,9.396074 -3.32708,5.562718 -5.02911,13.233049 -5.10613,23.201925 l -0.077,41.99767 c -0.0786,8.62866 1.46949,15.34063 4.48697,20.32691 3.79071,6.13552 9.74711,9.39238 17.79367,9.39238 h 14.31113 c 7.19477,0 12.99717,-3.64238 17.25157,-10.54533 3.6366,-6.13551 5.5712,-13.42396 5.5712,-21.6671 V 54.413297 c 0,-5.753668 -1.2384,-8.628657 -3.5596,-8.628657 m -33.65279,114.09655 c -4.71804,0 -8.0451,-0.95835 -9.97971,-3.06961 -1.85609,-1.91667 -2.70785,-5.75366 -2.70785,-11.50364 v -37.39326 c 0,-4.60442 0.92879,-8.055903 2.86339,-10.163501 2.01163,-2.11125 5.18316,-3.451455 9.59308,-3.451455 h 28.08148 v 52.348416 c 0,4.02793 -1.2369,7.28846 -3.6352,9.58698 -2.4752,2.49312 -6.03487,3.64607 -10.75292,3.64607 h -13.4623 m 87.49742,-85.717451 h -17.407 c -6.8852,0 -12.301,2.875014 -16.3998,8.823273 -3.9462,5.940929 -6.0349,14.187701 -6.0349,24.351198 v 38.54252 c 0,9.01418 1.7791,16.87545 5.2601,23.58742 1.548,3.06962 3.8678,5.56276 6.8082,7.28847 2.9405,1.53115 6.4986,2.48947 10.753,2.48947 h 5.9579 c 2.3197,0 3.4041,-3.06591 3.4041,-8.81958 v -1.91667 c 0,-5.75366 -1.0844,-8.62865 -3.4041,-8.62865 h -6.9637 c -8.1221,0 -12.1454,-7.28845 -12.1454,-21.86173 h 46.4174 c 0.8517,0 1.5479,-0.95832 1.9346,-2.87498 0.4636,-1.91668 0.6962,-4.02792 0.6962,-6.71199 v -25.31318 c 0,-9.205127 -2.0117,-16.680842 -5.7253,-22.052635 -3.5582,-4.600723 -7.8911,-6.902936 -13.1513,-6.902936 m -30.4042,43.914351 v -12.27471 c 0,-4.02427 1.3925,-7.093846 4.2559,-9.396059 2.3982,-1.916672 5.7253,-2.684064 9.7471,-2.684064 h 13.6163 c 3.3271,0 6.3431,0.958317 8.8199,3.451456 2.5523,2.302213 3.7122,4.795347 3.7122,7.861257 v 13.04212 h -40.1514 m 84.4031,-43.914351 h -3.7137 c -6.2661,0 -11.2952,2.875014 -14.8533,8.628645 -3.6367,5.562743 -5.4927,13.614937 -5.5698,23.972996 l -0.077,63.66113 c 0,5.75367 1.1599,8.81958 3.4811,8.81958 h 2.5524 c 2.2441,0 3.4811,-3.06591 3.4811,-8.81958 v -63.66113 c 0,-4.02792 0.5421,-7.097529 1.9346,-9.205126 1.625,-2.493138 4.4868,-3.836997 8.4316,-3.836997 h 4.333 c 2.3212,0 3.4811,-3.069607 3.4811,-8.819585 v -2.111288 c 0,-5.753631 -1.1599,-8.628645 -3.4811,-8.628645"
     id="welt der wunder"
     style="fill:#ffffff;fill-opacity:1;fill-rule:nonzero;stroke:none;stroke-width:2.04122"
     inkscape:transform-center-x="21.759771"
     inkscape:transform-center-y="46.895581" /><path
     d="M 115.63927,0 C 51.79271,0 0,51.792711 0,115.63928 c 0,63.84656 51.79271,115.57986 115.63927,115.57986 63.84656,0 115.57987,-51.7333 115.57987,-115.57986 C 231.21914,51.792711 179.48583,0 115.63927,0 m 0,222.80543 C 56.44744,222.80543 8.4731102,174.83225 8.4731102,115.63928 8.4731102,56.447439 56.44744,8.4731136 115.63927,8.4731136 c 59.19298,0 107.16617,47.9743254 107.16617,107.1661664 0,59.19297 -47.97319,107.16615 -107.16617,107.16615 m 0,-206.157406 c -19.87,0 -38.36781,5.847546 -53.88128,15.931649 L 88.07194,56.029268 115.63927,31.445125 143.2066,56.029268 169.5217,32.579673 C 154.00708,22.49557 135.50927,16.648024 115.63927,16.648024 M 196.13386,58.058428 143.2066,105.25697 115.63927,80.61341 88.07194,105.25697 35.14468,58.058428 C 23.50901,74.288281 16.70743,94.158286 16.70743,115.63928 h 197.86368 c 0,-21.480994 -6.80157,-41.350999 -18.43725,-57.580852 m -25.35993,71.305102 -27.56733,24.58414 -27.56733,-24.58414 -27.56733,24.58414 -27.62674,-24.58414 -27.56732,24.64355 55.19406,49.16714 27.56733,-24.583 27.56733,24.583 55.19407,-49.16714 -27.62674,-24.64355"
     id="Logo"
     style="fill:#e50900;fill-opacity:1;fill-rule:nonzero;stroke:none" /><path
     style="opacity:1;fill:#ffffff;stroke-width:0.892546"
     d="M 101.8705,222.12372 C 48.678749,215.29283 8.4791842,169.43392 8.4791842,115.58467 8.4791842,63.420504 46.089704,18.813881 97.733755,9.7274523 107.86423,7.9450621 126.81446,8.3169101 137.00577,10.498062 c 33.20779,7.107154 59.78846,27.64793 74.77206,57.781685 12.20255,24.540758 14.42416,54.390843 5.97918,80.337703 -15.91846,48.90887 -65.00009,80.0411 -115.88651,73.50627 z m 0.1858,-31.64389 13.55576,-12.12805 10.32263,9.22728 c 5.67746,5.07499 11.92018,10.58536 13.87274,12.24523 l 3.5501,3.01798 2.40253,-2.21029 c 1.32139,-1.21566 13.54819,-12.13478 27.17067,-24.2647 13.62248,-12.12993 24.76814,-22.20072 24.76814,-22.37955 0,-0.70091 -26.11118,-23.67606 -26.90776,-23.67606 -0.46651,0 -6.6937,5.2214 -13.83819,11.6031 -7.1445,6.3817 -13.35004,11.60309 -13.7901,11.60309 -0.44006,0 -6.59445,-5.22139 -13.67644,-11.60309 -7.08198,-6.3817 -13.29393,-11.6031 -13.80432,-11.6031 -0.51039,0 -6.77719,5.25999 -13.92624,11.68886 -7.149027,6.42887 -13.49229,11.49927 -14.09613,11.26755 -0.60384,-0.23171 -6.959002,-5.65664 -14.122581,-12.05539 l -13.02469,-11.63409 -13.579048,12.11441 -13.579049,12.11441 2.066299,2.04628 c 4.030097,3.99104 52.057129,46.67118 52.564392,46.71234 0.283544,0.023 6.615625,-5.41579 14.071287,-12.08621 z m 112.09194,-81.36612 c -0.90309,-9.738108 -3.53738,-21.571068 -6.50744,-29.230869 -3.21454,-8.290283 -10.54995,-21.218425 -11.80241,-20.800934 -0.47223,0.157408 -12.50795,10.664884 -26.74604,23.349948 l -25.88746,23.063755 -6.80882,-6.112297 c -14.3647,-12.895206 -20.3811,-18.136657 -20.8114,-18.130755 -0.24545,0.0034 -4.06108,3.260004 -8.47919,7.236972 -4.4181,3.976968 -10.523707,9.422797 -13.56801,12.10184 L 88.002366,105.46234 61.9239,82.185182 C 47.580744,69.382741 35.529825,58.908017 35.144081,58.908017 c -1.122092,0 -7.601266,11.448907 -10.594977,18.72166 -3.431011,8.335109 -6.128198,18.770891 -6.744011,26.093493 -0.259654,3.08752 -0.631549,6.91903 -0.826433,8.51445 l -0.354335,2.90078 h 99.041315 99.04132 z M 102.15062,43.242029 115.647,31.146224 129.19409,43.253051 c 7.4509,6.658755 13.85647,12.001456 14.23459,11.872669 0.37812,-0.128788 6.32504,-5.211474 13.21537,-11.294859 14.46022,-12.766739 14.41578,-10.995657 0.44194,-17.615126 -27.47264,-13.013912 -59.534823,-12.248337 -87.28522,2.084181 -6.498711,3.356452 -7.691979,4.285564 -6.719697,5.232144 4.009128,3.903144 24.492174,21.764111 24.980788,21.782943 0.32581,0.01256 6.665751,-5.420281 14.088759,-12.072974 z"
     id="path124" /></svg>
