<svg version="1.1" id="svg4" x="0" y="0" viewBox="0 0 737 163.7" style="enable-background:new 0 0 737 163.7" xml:space="preserve" xmlns="http://www.w3.org/2000/svg">
<path style="fill:#ffffff;fill-opacity:1" d="M527.4 39.2h-44.3V6.1h125.8v33.1h-44.2v118.4h-37.2V39.2zM402 6.1h37.2v118.3h64.7v33.1H402V6.1zm-26.6 132.3-.5.4c-16.3 15-36.1 21.9-62.2 21.9-46.1 0-77-31.6-77-78.5 0-47.5 30.2-79.5 75-79.5 43 0 72 31.7 72.1 78.8 0 4.6-.3 10.2-.8 13.6H275.9l.4 1.8c4.6 20.2 18 30.8 38.8 30.8 13.5 0 26.4-4.8 37.1-13.9l.5-.4 22.7 25zm-31.6-70.6-.4-1.7c-4.2-19.5-15.6-29.8-33-29.8-18.1 0-29.9 10.3-34.1 29.8l-.4 1.7h67.9zm-174.5 47.3-29.7-109H99.5L69.8 114.9 41.5 6.1H2.8l42.8 151.4h44.9l28.8-98 28.8 98H193L235.8 6.1h-38.1l-28.4 109z"/>
<path style="fill:#ffffff;fill-opacity:1" d="M663.2 60.9V38.1h-20.3v22.8H630V6.1h12.9v21h20.3v-21h12.9v54.8z"/>
<path style="fill:#ffffff;fill-opacity:1" d="M704 16.8c-2.3 0-4.1 0-5.5.2v32.9c1.1.2 2.9.3 5 .3 9.3 0 16.2-5.3 16.2-16.7 0-10.1-3.5-16.7-15.7-16.7zm-1.7 44.1c-6.2 0-12 .2-17.3 0V6.1c4.6-.2 12 .3 19.9.3 17.6 0 29.3 7 29.3 26.1 0 18.4-12.8 28.4-31.9 28.4z"/>
<path style="fill:#ffffff;fill-opacity:1" d="M45.898 157.124C45.68 156.764 4.34 10.675 3.582 7.592l-.348-1.415H41.241l14.063 54.176c7.735 29.797 14.208 54.34 14.385 54.54.177.2 7.018-24.182 15.202-54.182l14.88-54.546 19.804.135 19.803.134 14.31 52.504c17.04 62.525 15.424 56.897 15.967 55.591.235-.566 6.587-24.771 14.115-53.79 7.528-29.018 13.806-53.166 13.952-53.661.246-.837 1.604-.901 19.073-.901 14.834 0 18.757.136 18.564.643-.135.354-9.439 33.188-20.676 72.965-11.237 39.776-20.781 73.539-21.21 75.028l-.78 2.708-22.191-.134-22.192-.134-14.401-49.047c-7.92-26.976-14.558-48.866-14.75-48.643-.192.222-6.323 20.788-13.624 45.701-7.302 24.914-13.744 46.86-14.317 48.772l-1.04 3.474H68.153c-12.113 0-22.129-.174-22.256-.386z"/>
<path style="fill:#ffffff;fill-opacity:1" d="M303.834 160.062c-19.153-2.001-35.778-9.758-47.407-22.12-12.649-13.445-19.487-31.002-20.245-51.98-1.532-42.336 20.856-73.774 57.973-81.41 6.977-1.434 21.216-1.824 28.072-.767 16.726 2.579 31.24 10.298 41.273 21.952 10.99 12.764 16.955 28.115 18.703 48.128.529 6.059.361 15.804-.334 19.431l-.272 1.416H328.62c-30.526 0-52.977.194-52.977.457 0 .252.591 2.499 1.314 4.993 5.262 18.156 18.096 27.534 37.744 27.578 3.573.008 8.002-.253 9.842-.581 8.685-1.548 17.236-5.186 24.032-10.225l4.143-3.072 11.105 12.173 11.106 12.172-2.416 2.211c-8 7.322-20.518 13.827-32.27 16.769-10.62 2.658-26.487 3.912-36.409 2.875zm40.268-92.245c0-.07-.588-2.33-1.305-5.019-3.553-13.333-11.3-22.147-22.372-25.454-4.255-1.27-12.286-1.547-17.501-.6a31.446 31.446 0 0 0-21.505 14.987c-1.951 3.316-4.677 10.507-5.512 14.542l-.346 1.673h34.271c18.85 0 34.27-.058 34.27-.13z"/>
<path style="fill:#ffffff;fill-opacity:1" d="M402.269 81.844V6.177h36.546v118.39h64.857v32.943H402.27z"/>
<path style="fill:#ffffff;fill-opacity:1" d="M527.865 98.315V39.12H483.598V6.177H608.678V39.12H564.412v118.39h-36.547z"/>
<path style="fill:#ffffff;fill-opacity:1" d="M630.298 33.458V6.177h12.354V27.28h20.589V6.177h12.354v54.562h-12.354V38.091h-20.589v22.648h-12.354z"/>
<path style="fill:#ffffff;fill-opacity:1" d="M685.375 33.518V6.177l2.445.027c11.145.122 25.99 1.047 28.669 1.786 11.687 3.227 17.243 11.098 17.264 24.46.022 13.844-7.135 23.245-20.42 26.825-3.364.906-5.98 1.124-15.99 1.334l-11.968.25zm25.804 15.49c5.42-2.382 8.171-7.01 8.57-14.411.365-6.804-.772-10.824-3.965-14.017-2.95-2.95-5.77-3.824-12.393-3.84l-4.89-.011-.136 16.21c-.075 8.915-.013 16.532.139 16.926.428 1.117 9.593.497 12.675-.857z"/>
</svg>