<?xml version="1.0" encoding="UTF-8"?>
<!DOCTYPE svg PUBLIC "-//W3C//DTD SVG 1.1//EN" "http://www.w3.org/Graphics/SVG/1.1/DTD/svg11.dtd">
<svg xmlns="http://www.w3.org/2000/svg" version="1.1" width="227px" height="60px" style="shape-rendering:geometricPrecision; text-rendering:geometricPrecision; image-rendering:optimizeQuality; fill-rule:evenodd; clip-rule:evenodd" xmlns:xlink="http://www.w3.org/1999/xlink">
<g><path style="opacity:1" fill="#ffffff" d="M195.995 14.036h-16.556V1.686h46.964v12.35h-16.515v44.186h-13.893zM149.157 1.687h13.893V45.87h24.165v12.35h-38.058zm-9.909 49.401l-.178.165c-6.081 5.59-13.46 8.194-23.22 8.194-17.197 0-28.752-11.783-28.752-29.32C87.098 12.383 98.354.46 115.106.46c16.044 0 26.862 11.828 26.92 29.434 0 1.735-.117 3.807-.288 5.077h-39.647l.135.656c1.702 7.528 6.711 11.506 14.484 11.506 5.044 0 9.838-1.794 13.86-5.188l.18-.152 8.498 9.294zm-11.8-26.384l-.14-.645c-1.577-7.27-5.837-11.113-12.318-11.113-6.758 0-11.156 3.843-12.718 11.115l-.137.643h25.314zM62.304 42.362L51.214 1.687H36.236L25.147 42.28 14.584 1.687H.147L16.11 58.222h16.763l10.752-36.569 10.752 36.569H71.14L87.102 1.687H72.866z"/></g>
</svg>
