<?xml version="1.0" encoding="UTF-8" standalone="no"?>
<!-- Created with Inkscape (http://www.inkscape.org/) -->

<svg
   xmlns:dc="http://purl.org/dc/elements/1.1/"
   xmlns:cc="http://creativecommons.org/ns#"
   xmlns:rdf="http://www.w3.org/1999/02/22-rdf-syntax-ns#"
   xmlns:svg="http://www.w3.org/2000/svg"
   xmlns="http://www.w3.org/2000/svg"
   version="1.1"
   width="100%"
   height="100%"
   viewBox="0 0 396.3 85.7"
   id="Ebene_1"
   xml:space="preserve"><metadata
     id="metadata52"><rdf:RDF><cc:Work
         rdf:about=""><dc:format>image/svg+xml</dc:format><dc:type
           rdf:resource="http://purl.org/dc/dcmitype/StillImage" /><dc:title></dc:title></cc:Work></rdf:RDF></metadata><defs
     id="defs50" /><style
     type="text/css"
     id="style3" /><radialGradient
     cx="2512.2314"
     cy="63.961601"
     r="44.2286"
     id="SVGID_1_"
     gradientUnits="userSpaceOnUse"
     gradientTransform="matrix(-1,0,0,1,2550.7495,0)"><stop
       id="stop22"
       style="stop-color:#f6a117;stop-opacity:1"
       offset="0.01000259" /><stop
       id="stop24"
       style="stop-color:#ffda40;stop-opacity:1"
       offset="1" /></radialGradient><g
     id="g3213"><g
       id="g5"><path
         d="m 56.7,18.1 9.7,-6.5 c 0.6,-0.4 1.4,0.2 1.1,0.9 l -4.6,10.6 c -0.2,0.5 -0.9,0.6 -1.2,0.2 -1.5,-1.5 -3.1,-2.9 -4.9,-4 -0.5,-0.3 -0.5,-0.9 -0.1,-1.2 z"
         id="path7"
         style="fill:#ffdb00" /><path
         d="m 46,15.4 c -1.1,-0.1 -2.1,-0.2 -3.2,-0.1 -0.5,0 -0.9,-0.5 -0.7,-1 L 46.8,3.6 c 0.3,-0.7 1.3,-0.5 1.4,0.2 L 50,15.2 c 0.1,0.5 -0.4,1 -0.9,0.8 -1,-0.2 -2,-0.5 -3.1,-0.6 z"
         id="path9"
         style="fill:#ffdb00" /><path
         d="M 27.7,18.8 25.8,7.3 C 25.7,6.6 26.6,6.1 27.1,6.7 l 7.8,8.7 c 0.4,0.4 0.2,1 -0.3,1.2 -2,0.7 -4,1.6 -5.8,2.7 -0.4,0.3 -1,0 -1.1,-0.5 z"
         id="path11"
         style="fill:#ffdb00" /><path
         d="M 22.6,24.6 C 21.2,26.2 20.1,28 19.2,30 19,30.5 18.3,30.6 18,30.2 L 10.3,21.4 C 9.8,20.8 10.4,20 11.1,20.2 l 11.2,3.2 c 0.5,0.2 0.7,0.8 0.3,1.2 z"
         id="path13"
         style="fill:#ffdb00" /><path
         d="m 66.9,29 c 2.5,-0.1 8.3,-0.3 11.7,-0.5 0.7,0 1.1,0.9 0.5,1.3 l -9.5,6.7 c -0.4,0.3 -1,0.1 -1.1,-0.5 -0.4,-2.1 -1.1,-4.1 -2.1,-6 -0.3,-0.4 0,-1 0.5,-1 z"
         id="path15"
         style="fill:#ffdb00" /><path
         d="M 15.7,45.1 4.6,41.5 C 3.9,41.3 3.9,40.3 4.6,40.1 L 15.9,37 c 0.5,-0.1 1,0.3 0.9,0.8 -0.3,2.1 -0.3,4.3 -0.1,6.4 0,0.6 -0.5,1 -1,0.9 z"
         id="path17"
         style="fill:#ffdb00" /><path
         d="m 21.8,58.8 -11.3,3 C 9.8,62 9.3,61.1 9.8,60.6 l 7.8,-8.7 c 0.4,-0.4 1,-0.3 1.2,0.2 0.9,2 2,3.8 3.3,5.4 0.5,0.6 0.3,1.2 -0.3,1.3 z"
         id="path19"
         style="fill:#ffdb00" /></g><path
       d="m 61.1,36.9 c -7.6,0 -14.2,4 -18,9.9 -1.2,-0.2 -2.5,-0.4 -3.7,-0.4 -5.6,0 -10.6,2.4 -14.1,6.3 -2.2,-3.3 -3.5,-7.3 -3.5,-11.6 0,-11.5 9.3,-20.8 20.8,-20.8 10.1,0 18.5,7.1 20.4,16.6 -0.6,0.1 -1.2,0 -1.9,0 z"
       id="path26"
       style="fill:url(#SVGID_1_)" /><path
       d="m 79.1,59.4 c 0.1,-0.7 0.1,-1.3 0.1,-2 0,-9.8 -7.9,-17.7 -17.7,-17.7 -7.5,0 -13.8,4.6 -16.5,11.1 -1.7,-0.6 -3.5,-1 -5.4,-1 -8.8,0 -15.9,7.1 -15.9,15.9 0,8.8 7.1,15.9 15.9,15.9 h 39.6 v 0 c 5.9,-0.2 10.7,-5.1 10.7,-11.1 0,-6 -4.8,-10.9 -10.8,-11.1 z m -14.6,7.8 -10.7,6.2 c -1,0.6 -2.3,-0.1 -2.3,-1.3 V 59.7 c 0,-1.2 1.3,-1.9 2.3,-1.3 l 10.7,6.2 c 1,0.5 1,2 0,2.6 z"
       id="path28"
       style="fill:#ffffff" /></g><path
     d="m 331.6,60.3 v -18 h -5.7 v -7.9 h 5.7 V 25 h 9.1 v 9.4 h 7 v 7.9 h -7 v 15.6 c 0,2.1 1.1,3.8 3.1,3.8 1.4,0 2.6,-0.5 3.1,-1 l 1.9,6.8 c -1.4,1.2 -3.8,2.2 -7.6,2.2 -6.2,0 -9.6,-3.3 -9.6,-9.4 z"
     id="path30"
     style="fill:#ffdb02" /><path
     d="m 352.5,34.4 h 9.7 l 9,24 9,-24 h 9.8 l -13.8,34.5 h -9.8 L 352.5,34.4 z"
     id="path32"
     style="fill:#ffdb02" /><path
     d="m 129.8,46.2 -7.3,23.5 h -9.7 L 102.3,35.2 h 9.4 l 6.4,23.2 7.6,-23.2 h 8.1 l 7.6,23.2 6.4,-23.2 h 9.4 l -10.5,34.5 h -9.6 l -7.3,-23.5 z"
     id="path34"
     style="fill:#ffffff" /><path
     d="m 177.3,34.4 c 10.3,0 17.3,7.7 17.3,19 v 2 H 169 c 0.6,4.4 4.1,8 9.9,8 3.2,0 7,-1.3 9.2,-3.4 l 4,5.8 c -3.5,3.2 -8.8,4.8 -14.2,4.8 -10.5,0 -18.4,-7.1 -18.4,-18.1 0,-10.1 7.3,-18.1 17.8,-18.1 z m -8.5,14.8 h 17 c -0.2,-3.3 -2.5,-7.6 -8.5,-7.6 -5.6,0 -8.1,4.2 -8.5,7.6 z"
     id="path36"
     style="fill:#ffffff" /><path
     d="m 202.9,61.1 v -18 h -5.7 v -7.9 h 5.7 v -9.4 h 9.1 v 9.4 h 7 v 7.9 h -7 v 15.6 c 0,2.1 1.1,3.8 3.1,3.8 1.4,0 2.6,-0.5 3.1,-1 l 1.9,6.8 c -1.4,1.2 -3.8,2.2 -7.6,2.2 -6.2,0 -9.6,-3.2 -9.6,-9.4 z"
     id="path38"
     style="fill:#ffffff" /><path
     d="m 230.6,61.1 v -18 h -5.7 v -7.9 h 5.7 v -9.4 h 9.1 v 9.4 h 7 v 7.9 h -7 v 15.6 c 0,2.1 1.1,3.8 3.1,3.8 1.4,0 2.6,-0.5 3.1,-1 l 1.9,6.8 c -1.4,1.2 -3.8,2.2 -7.6,2.2 -6.2,0 -9.6,-3.2 -9.6,-9.4 z"
     id="path40"
     style="fill:#ffffff" /><path
     d="m 268.5,34.4 c 10.3,0 17.3,7.7 17.3,19 v 2 h -25.6 c 0.6,4.4 4.1,8 9.9,8 3.2,0 7,-1.3 9.2,-3.4 l 4,5.8 c -3.5,3.2 -8.8,4.8 -14.2,4.8 -10.5,0 -18.4,-7.1 -18.4,-18.1 0,-10.1 7.3,-18.1 17.8,-18.1 z M 260,49.2 h 17 c -0.2,-3.3 -2.5,-7.6 -8.5,-7.6 -5.6,0 -8,4.2 -8.5,7.6 z"
     id="path42"
     style="fill:#ffffff" /><path
     d="m 292.4,35.2 h 9.1 v 4.7 c 2.4,-3.1 6.7,-5.5 11,-5.5 v 8.8 C 311.9,43.1 311,43 310,43 c -3,0 -7,1.6 -8.5,3.9 v 22.8 h -9.1 V 35.2 z"
     id="path44"
     style="fill:#ffffff" /><circle
     cx="318.20001"
     cy="65"
     r="4.6999998"
     id="circle46"
     style="fill:#ffdb02" /></svg>