<?xml version="1.0" encoding="UTF-8"?>
<!DOCTYPE svg PUBLIC "-//W3C//DTD SVG 1.1//EN" "http://www.w3.org/Graphics/SVG/1.1/DTD/svg11.dtd">
<svg xmlns="http://www.w3.org/2000/svg" version="1.1" width="2592px" height="842px" style="shape-rendering:geometricPrecision; text-rendering:geometricPrecision; image-rendering:optimizeQuality; fill-rule:evenodd; clip-rule:evenodd" xmlns:xlink="http://www.w3.org/1999/xlink">
<g><path style="opacity:1" fill="#ffffff" d="M 40.5,-0.5 C 225.833,-0.5 411.167,-0.5 596.5,-0.5C 619.599,5.76974 633.099,20.7697 637,44.5C 637.5,216.166 637.667,387.833 637.5,559.5C 735.822,556.786 834.155,554.62 932.5,553C 969.282,513.562 1001.45,470.729 1029,424.5C 1058.86,372.075 1072.19,315.742 1069,255.5C 1066.86,220.259 1054.53,189.259 1032,162.5C 1008.91,139.79 981.079,127.29 948.5,125C 910.439,122.01 875.106,130.344 842.5,150C 815.427,168.729 791.093,190.729 769.5,216C 767.721,215.956 766.055,215.289 764.5,214C 760.652,209.984 756.652,206.151 752.5,202.5C 781.191,166.31 809.691,129.977 838,93.5C 874.63,57.7699 918.463,36.2699 969.5,29C 1023.04,20.2676 1074.04,27.9343 1122.5,52C 1181.92,86.9219 1214.42,139.089 1220,208.5C 1224.39,275.664 1206.39,335.997 1166,389.5C 1143.76,419.417 1118.93,447.251 1091.5,473C 1062.06,500.783 1031.72,527.45 1000.5,553C 1082.85,553.964 1165.19,555.798 1247.5,558.5C 1247.83,-125.5 1248.17,-125.5 1248.5,558.5C 1258.53,558.538 1268.53,558.705 1278.5,559C 1378.83,446.333 1480.99,335.166 1585,225.5C 1646.17,161.667 1707.33,97.8333 1768.5,34C 1787.5,33.5001 1806.5,33.3334 1825.5,33.5C 1792.95,208.794 1760.62,384.127 1728.5,559.5C 1765.5,559.5 1802.5,559.5 1839.5,559.5C 1835.15,577.572 1830.48,595.572 1825.5,613.5C 1788.78,613.842 1752.28,614.842 1716,616.5C 1706.07,667.99 1697.23,719.657 1689.5,771.5C 1689.22,788.789 1697.22,800.289 1713.5,806C 1735.38,812.591 1757.71,816.925 1780.5,819C 1781.02,819.561 1781.36,820.228 1781.5,821C 1779.39,827.821 1777.39,834.655 1775.5,841.5C 1659.5,841.5 1543.5,841.5 1427.5,841.5C 1429.18,834.107 1431.18,826.774 1433.5,819.5C 1456.62,817.793 1479.28,813.626 1501.5,807C 1520.31,800.193 1533.14,787.359 1540,768.5C 1544.14,757.404 1547.48,746.07 1550,734.5C 1558.41,694.599 1566.25,654.599 1573.5,614.5C 1467.5,614.5 1361.5,614.5 1255.5,614.5C 1256.96,602.841 1258.46,591.174 1260,579.5C 1265.5,573.333 1271,567.167 1276.5,561C 1177.15,564.045 1077.82,567.712 978.5,572C 920.201,620.478 861.534,668.478 802.5,716C 895.5,716.667 988.5,716.667 1081.5,716C 1104.11,716.459 1124.78,710.459 1143.5,698C 1161.2,682.476 1176.53,664.976 1189.5,645.5C 1194.67,648.588 1200.01,651.421 1205.5,654C 1206.02,654.561 1206.36,655.228 1206.5,656C 1178.25,716.67 1152.91,778.503 1130.5,841.5C 965.167,841.5 799.833,841.5 634.5,841.5C 634.132,833.07 637.132,826.236 643.5,821C 737.448,743.403 827.448,661.07 913.5,574C 608.422,583.721 303.756,600.887 -0.5,625.5C -0.5,619.5 -0.5,613.5 -0.5,607.5C 1.19919,607.66 2.86586,607.494 4.5,607C 2.73496,603.37 1.56829,599.537 1,595.5C 0.333333,410.5 0.333333,225.5 1,40.5C 5.90379,18.7646 19.0705,5.09789 40.5,-0.5 Z M 38.5,94.5 C 73.8333,94.5 109.167,94.5 144.5,94.5C 164.934,206.44 184.934,318.44 204.5,430.5C 205.086,430.291 205.586,429.957 206,429.5C 210.568,400.758 215.568,372.091 221,343.5C 237.901,260.494 254.734,177.494 271.5,94.5C 306.833,94.5 342.167,94.5 377.5,94.5C 390.665,164.155 403.832,233.821 417,303.5C 424.265,344.355 430.598,385.355 436,426.5C 436.308,427.308 436.808,427.975 437.5,428.5C 445.998,377.504 454.831,326.504 464,275.5C 476.286,215.239 488.119,154.905 499.5,94.5C 533.168,94.3333 566.835,94.5 600.5,95C 562.44,241.074 524.606,387.241 487,533.5C 451.24,534.496 415.406,534.83 379.5,534.5C 364.681,460.24 350.181,385.907 336,311.5C 329.718,277.363 324.885,243.03 321.5,208.5C 320.5,208.5 319.5,208.5 318.5,208.5C 313.641,242.655 307.807,276.655 301,310.5C 284.562,384.858 268.062,459.192 251.5,533.5C 215.173,534.5 178.839,534.833 142.5,534.5C 108.148,387.758 73.4811,241.091 38.5,94.5 Z M 1659.5,188.5 C 1660.24,188.369 1660.91,188.536 1661.5,189C 1636.08,312.076 1610.92,435.243 1586,558.5C 1497.9,559.665 1409.74,559.832 1321.5,559C 1359.26,514.574 1397.76,470.74 1437,427.5C 1511.37,347.964 1585.54,268.297 1659.5,188.5 Z"/></g>
<g><path style="opacity:0.212" fill="#ffffff" d="M 1205.5,-0.5 C 1207.83,-0.5 1210.17,-0.5 1212.5,-0.5C 1212.5,-0.166667 1212.5,0.166667 1212.5,0.5C 1209.94,0.801552 1207.61,0.468218 1205.5,-0.5 Z"/></g>
<g><path style="opacity:0.195" fill="#ffffff" d="M 1212.5,0.5 C 1213.79,0.262695 1214.79,0.596028 1215.5,1.5C 1214.21,1.73731 1213.21,1.40397 1212.5,0.5 Z"/></g>
<g><path style="opacity:0.201" fill="#ffffff" d="M 1215.5,1.5 C 1216.79,1.26269 1217.79,1.59603 1218.5,2.5C 1217.21,2.73731 1216.21,2.40397 1215.5,1.5 Z"/></g>
<g><path style="opacity:0.194" fill="#ffffff" d="M 1218.5,2.5 C 1219.49,2.32842 1220.16,2.66175 1220.5,3.5C 1219.51,3.67158 1218.84,3.33825 1218.5,2.5 Z"/></g>
<g><path style="opacity:0.212" fill="#ffffff" d="M 1220.5,3.5 C 1221.49,3.32842 1222.16,3.66175 1222.5,4.5C 1221.51,4.67158 1220.84,4.33825 1220.5,3.5 Z"/></g>
<g><path style="opacity:0.178" fill="#ffffff" d="M 1222.5,4.5 C 1223.49,4.32842 1224.16,4.66175 1224.5,5.5C 1223.51,5.67158 1222.84,5.33825 1222.5,4.5 Z"/></g>
<g><path style="opacity:0.16" fill="#ffffff" d="M 1224.5,5.5 C 1226.03,5.42702 1227.03,6.09368 1227.5,7.5C 1225.97,7.57298 1224.97,6.90632 1224.5,5.5 Z"/></g>
<g><path style="opacity:0.176" fill="#ffffff" d="M 1227.5,7.5 C 1228.17,7.5 1228.5,7.83333 1228.5,8.5C 1228.17,8.16667 1227.83,7.83333 1227.5,7.5 Z"/></g>
<g><path style="opacity:0.188" fill="#ffffff" d="M 1228.5,8.5 C 1232.17,10.1667 1234.83,12.8333 1236.5,16.5C 1233.5,14.1667 1230.83,11.5 1228.5,8.5 Z"/></g>
<g><path style="opacity:0.176" fill="#ffffff" d="M 1236.5,16.5 C 1237.17,16.5 1237.5,16.8333 1237.5,17.5C 1237.17,17.1667 1236.83,16.8333 1236.5,16.5 Z"/></g>
<g><path style="opacity:0.168" fill="#ffffff" d="M 1237.5,17.5 C 1238.91,17.9731 1239.57,18.9731 1239.5,20.5C 1238.09,20.0269 1237.43,19.0269 1237.5,17.5 Z"/></g>
<g><path style="opacity:0.184" fill="#ffffff" d="M 1239.5,20.5 C 1241.87,22.5792 1243.21,25.2459 1243.5,28.5C 1241.66,26.1515 1240.33,23.4848 1239.5,20.5 Z"/></g>
<g><path style="opacity:0.186" fill="#ffffff" d="M 1243.5,28.5 C 1244.34,28.8417 1244.67,29.5084 1244.5,30.5C 1243.66,30.1583 1243.33,29.4916 1243.5,28.5 Z"/></g>
<g><path style="opacity:0.153" fill="#ffffff" d="M 1244.5,30.5 C 1245.4,31.209 1245.74,32.209 1245.5,33.5C 1244.6,32.791 1244.26,31.791 1244.5,30.5 Z"/></g>
<g><path style="opacity:0.168" fill="#ffffff" d="M 1245.5,33.5 C 1246.43,34.5676 1246.77,35.901 1246.5,37.5C 1245.57,36.4324 1245.23,35.099 1245.5,33.5 Z"/></g>
<g><path style="opacity:0.21" fill="#ffffff" d="M 1246.5,37.5 C 1247.63,39.6282 1247.8,41.9615 1247,44.5C 1246.5,42.1902 1246.34,39.8568 1246.5,37.5 Z"/></g>
<g><path style="opacity:1" fill="#ffffff" d="M 2016.5,211.5 C 2019.9,211.18 2023.23,211.513 2026.5,212.5C 2029.11,217.617 2033.11,221.117 2038.5,223C 2128.17,223.667 2217.83,223.667 2307.5,223C 2315.33,221.419 2322,217.752 2327.5,212C 2330.82,211.502 2334.15,211.335 2337.5,211.5C 2329.91,244.94 2323.41,278.607 2318,312.5C 2314.51,314.377 2310.67,315.044 2306.5,314.5C 2306.82,299.762 2305.99,285.095 2304,270.5C 2301.37,254.207 2291.87,245.041 2275.5,243C 2252.86,241.658 2230.19,241.158 2207.5,241.5C 2188.12,344.571 2168.29,447.571 2148,550.5C 2145.96,561.091 2144.46,571.758 2143.5,582.5C 2143.92,598.757 2152.25,607.924 2168.5,610C 2177.76,612.043 2187.09,613.543 2196.5,614.5C 2196.28,618.179 2195.94,621.846 2195.5,625.5C 2131.5,625.667 2067.5,625.5 2003.5,625C 2004.54,621.6 2005.21,618.1 2005.5,614.5C 2020.01,614.118 2034.01,611.285 2047.5,606C 2054.49,601.346 2059.66,595.179 2063,587.5C 2066.78,576.715 2069.78,565.715 2072,554.5C 2092.31,450.449 2112.81,346.449 2133.5,242.5C 2110.12,241.062 2086.79,241.562 2063.5,244C 2054.47,245.515 2046.47,249.182 2039.5,255C 2029.27,264.31 2021.1,275.144 2015,287.5C 2010.56,296.045 2006.39,304.711 2002.5,313.5C 1998.86,314.46 1995.19,314.46 1991.5,313.5C 2001.72,279.972 2010.05,245.972 2016.5,211.5 Z"/></g>
<g><path style="opacity:1" fill="#ffffff" d="M 711.5,237.5 C 737.433,236.266 749.933,248.6 749,274.5C 746.54,288.96 738.04,297.46 723.5,300C 697.012,300.844 684.845,288.01 687,261.5C 690.458,248.541 698.624,240.541 711.5,237.5 Z"/></g>
<g><path style="opacity:1" fill="#ffffff" d="M 882.5,307.5 C 891.25,307.255 899.917,307.922 908.5,309.5C 909.519,327.171 909.519,344.838 908.5,362.5C 874.376,354.445 854.543,367.778 849,402.5C 848.744,445.859 849.577,489.193 851.5,532.5C 833.503,532.967 815.503,533.3 797.5,533.5C 795.877,480.842 794.377,428.175 793,375.5C 792.254,355.138 791.087,334.805 789.5,314.5C 806.165,314.115 822.832,313.782 839.5,313.5C 839.261,319.565 839.761,325.565 841,331.5C 852.186,318.665 866.019,310.665 882.5,307.5 Z"/></g>
<g><path style="opacity:1" fill="#ffffff" d="M 718.5,316.5 C 727.833,316.5 737.167,316.5 746.5,316.5C 749.35,389.485 752.017,462.485 754.5,535.5C 736.782,535.621 719.116,536.287 701.5,537.5C 701.167,536.833 700.833,536.167 700.5,535.5C 697.535,462.856 694.869,390.189 692.5,317.5C 701.349,317.826 710.016,317.493 718.5,316.5 Z"/></g>
<g><path style="opacity:1" fill="#ffffff" d="M 2591.5,343.5 C 2591.5,345.833 2591.5,348.167 2591.5,350.5C 2585.38,352.416 2579.05,353.916 2572.5,355C 2560.34,359.824 2550.5,367.657 2543,378.5C 2490.95,462.084 2439.79,546.251 2389.5,631C 2386.18,631.498 2382.85,631.665 2379.5,631.5C 2368.63,547.929 2356.13,464.595 2342,381.5C 2340.75,373.397 2337.75,366.063 2333,359.5C 2326.64,354.824 2319.47,352.324 2311.5,352C 2310.71,349.25 2310.71,346.417 2311.5,343.5C 2349.83,343.5 2388.17,343.5 2426.5,343.5C 2426.38,346.48 2425.71,349.313 2424.5,352C 2415.87,352.654 2407.87,355.154 2400.5,359.5C 2397.34,363.566 2395.68,368.233 2395.5,373.5C 2403.86,433.521 2412.36,493.521 2421,553.5C 2457.21,495.759 2490.88,436.425 2522,375.5C 2526.03,366.235 2523.53,359.735 2514.5,356C 2507.89,354.41 2501.22,353.077 2494.5,352C 2493.71,349.25 2493.71,346.417 2494.5,343.5C 2526.83,343.5 2559.17,343.5 2591.5,343.5 Z"/></g>
<g><path style="opacity:1" fill="#ffffff" d="M 1926.5,548.5 C 1952.95,549.12 1966.62,562.62 1967.5,589C 1966.99,616.847 1952.82,631.681 1925,633.5C 1901.42,630.92 1889.25,617.754 1888.5,594C 1889.47,568.88 1902.13,553.713 1926.5,548.5 Z"/></g>
</svg>
