<svg xmlns="http://www.w3.org/2000/svg" width="533.709" height="307.593">
<path style="fill:#9c9e9f;fill-opacity:1;fill-rule:nonzero;stroke:none" fill="#9c9e9f" d="m646.875 649.374 19.824-59.734c1.302-4.694 2.352-8.87 2.352-11.222 0-4.43-2.09-5.732-9.394-5.732h-9.128V555.21h61.04v17.477h-5.222c-10.169 0-11.218 1.041-18.517 22.172l-27.908 79.558h-35.219l-29.213-79.558c-7.304-21.13-8.353-22.172-19.572-22.172h-30.844v60.779c0 13.819 0 12.778.78 15.91 1.044 4.437 4.433 7.041 9.397 7.041 9.647 0 10.688-3.65 10.688-37.04h18.26c.527 8.868.527 12.783.527 16.955 0 28.177-10.957 41.738-33.655 41.738-14.599 0-26.083-5.744-31.814-15.913-3.658-7.046-4.18-9.916-4.18-28.691v-60.779h-20.571V555.21h8.374c10.173 0 11.214-1.045 18.518-22.171l3.06-8.715h20.616v30.886h93.983v17.477h-6.001c-6.267 0-8.871 1.568-8.614 5.732.261 2.878 1.045 6.528 2.613 11.222l19.82 59.734z" transform="translate(-178.86 -401.423)"/>
<path style="fill:#fabb00;fill-opacity:1;fill-rule:nonzero;stroke:none" fill="#fabb00" d="M458.06 515.358c0 6.086-2.592 9.605-7.658 9.605h-1.82v-18.826h1.323c5.289 0 8.155 2.912 8.155 9.221m5.6-.114c0-8.213-4.526-13.241-12.259-13.241h-8.155v27.022h6.764c9.318 0 13.65-5.183 13.65-13.78m-28.176 13.78v-4.214H426.6v-22.766h-5.335v26.98h14.219zm-29.867-10.439h-6.924l3.594-12.019 3.33 12.02zm8.428 10.44-8.706-26.98h-5.867l-9.006 26.98h5.218l1.93-6.386h9.12l1.782 6.385h5.53zm-27.401-26.98h-4.724l-3.856 20.409-3.945-20.41h-6.414l-3.793 20.41-3.713-20.41h-5.217l5.6 26.98h6.267l4.017-21.96 4.024 21.96h6.339l5.415-26.98zm-43.446 7.8c0 2.052-1.39 3.793-3.982 3.793h-2.39v-7.616h2.356c2.55 0 4.016 1.387 4.016 3.823m6.57 19.18-3.122-9.626c-.856-2.63-1.707-3.406-3.287-3.793 3.169-.814 5.255-3.01 5.255-6.414 0-3.751-1.888-7.148-8.117-7.148h-8.85v26.98h5.327V517.66h.97c1.85 0 2.94.582 3.666 2.975l2.558 8.391h5.6zm-26.849 0v-4.14h-9.82V517.2h8.85v-4.139h-8.85v-6.924h9.323v-4.134H307.84v27.022h15.08zm-22.96-22.77v-4.21h-17.358v4.21h5.997v22.77h5.369v-22.77h5.993zm-23.532 14.842c0-3.173-1.513-5.373-4.564-6.958l-1.935-1.003c-3.358-1.736-4.012-2.63-4.012-4.176 0-1.968 1.505-3.283 3.856-3.283 1.863 0 3.793.577 5.066 1.277l.156-4.295c-1.703-.695-3.898-1.007-5.837-1.007-4.91 0-8.656 2.63-8.656 7.426 0 3.477 1.083 5.6 5.719 7.838 3.822 1.863 4.677 2.828 4.677 4.763 0 1.93-1.348 3.552-4.252 3.552-2.086 0-4.404-.969-5.605-1.66l-.236 4.716a19.45 19.45 0 0 0 6.419 1.12c5.76 0 9.204-3.206 9.204-8.31m-23.765 7.927v-4.138h-9.82V517.2h8.855v-4.139h-8.854v-6.924h9.322v-4.134h-14.582v27.022h15.08zm-22.264-26.98h-4.716l-3.86 20.41-3.95-20.41h-6.413l-3.789 20.41-3.709-20.41h-5.213l5.601 26.98h6.263l4.02-21.96 4.02 21.96h6.335l5.41-26.98zm-50.538-62.852c0-20.31 16.46-36.77 36.765-36.77h232.07c20.305 0 36.762 16.46 36.762 36.77v116.016h-54.52v17.477h7.041c4.965 0 7.312 1.824 7.312 5.744 0 2.086 0 2.865-2.094 11.737l-17.477 60.513-18.78-60.513c-2.869-10.44-3.13-11.219-3.13-12.525 0-3.132 3.396-4.956 8.344-4.956h7.868v-17.477h-63.32v17.477h7.207c5.735 0 8.862 2.086 8.6 6.52-.26 2.612-.26 2.612-2.608 10.96l-17.485 60.514-18.775-60.513c-2.874-10.44-3.127-11.219-3.127-12.525 0-3.132 3.384-4.956 8.353-4.956h6.916v-17.477H281.99v17.477h8.618c5.736 0 8.863 2.086 8.601 6.52-.265 2.612-.265 2.612-2.613 10.96l-17.468 60.514-19.575-60.513c-3.123-9.651-3.123-9.651-3.123-11.999 0-3.658 3.123-5.482 9.128-5.482h5.512v-17.477h-65.246v17.477h6.52c6 0 10.434 2.612 12.52 7.568l.523 1.282c.455 1.129.83 2.296 4.434 13.325l26.09 79.554h34.697l19.293-65.208 21.126 65.208h32.88l19.302-65.208 21.118 65.208h33.651l25.038-79.554c6.262-19.306 8.095-22.175 15.137-22.175h7.304v98.577c0 20.304-16.457 36.753-36.762 36.753h-232.07c-20.304 0-36.765-16.449-36.765-36.753v-232.07z" transform="translate(-178.86 -401.423)"/>
</svg>
