<?xml version="1.0" encoding="UTF-8" standalone="no"?>
<svg
   width="811.96613"
   height="322.39014"
   viewBox="0 0 811.96613 322.39014"
   version="1.1"
   id="svg17"
   sodipodi:docname="Xplore Reisen.svg"
   inkscape:version="1.1.1 (3bf5ae0d25, 2021-09-20)"
   xmlns:inkscape="http://www.inkscape.org/namespaces/inkscape"
   xmlns:sodipodi="http://sodipodi.sourceforge.net/DTD/sodipodi-0.dtd"
   xmlns="http://www.w3.org/2000/svg"
   xmlns:svg="http://www.w3.org/2000/svg">
  <defs
     id="defs21" />
  <sodipodi:namedview
     id="namedview19"
     pagecolor="#ffffff"
     bordercolor="#666666"
     borderopacity="1.0"
     inkscape:pageshadow="2"
     inkscape:pageopacity="0.0"
     inkscape:pagecheckerboard="0"
     showgrid="false"
     inkscape:zoom="1.3510417"
     inkscape:cx="402.28219"
     inkscape:cy="172.82961"
     inkscape:window-width="1920"
     inkscape:window-height="1017"
     inkscape:window-x="-8"
     inkscape:window-y="-8"
     inkscape:window-maximized="1"
     inkscape:current-layer="svg17" />
  <path
     d="m 530.51219,160.69778 h -0.05 v 0 l -147.81,-152.6599992 -5.37,-5.59 102.3,139.8599992 -71.1,18.48 h 4.31 117.7 v -0.06"
     fill-rule="evenodd"
     id="path11"
     style="fill:#ffffff" />
  <path
     d="m 530.42219,160.66778 v 0 0 l 147.86,-152.6299992 5.43,-5.56 -135.43,105.5599992 -17.91,-73.369999 v 4.43 121.539999 0 m 0.13,-0.06 v 0.06 0 l -147.82,152.64 -5.4,5.56 135.42,-105.64 17.91,73.39 v -4.44 -121.51 0"
     fill-rule="evenodd"
     id="path13"
     style="fill:#ffffff" />
  <path
     d="m 530.46219,160.56778 v 0 0 l 147.82,152.65 5.39,5.62 -102.27,-139.86 71.07,-18.47 h -4.31 -117.69 v 0 m -493.000002,35.23 21.42,-35.7 h 13 l -21.38,34.6 23.12,36.75 h -13 l -21.7,-35.58 z m 4,-2.05 -23.01,37.7 H 5.2821884 l 23.1099996,-36.75 -21.4199996,-34.55 H 20.032188 l 20,33.08 z m 134.490002,18 c -0.15,6.31 3.25,9.52 9.36,9.52 h 6.66 l 1.42,9.52 c -2.7,1.32 -9.22,1.9 -12.62,1.9 -10.22,0 -16.88,-6.44 -16.88,-18.15 v -85.58 h 11.98 v 82.86 m 198.58,-19.61 c 6.24,0 7.52,-5.27 7.52,-10.54 -0.15,-9.08 -4.68,-12.75 -17,-12.75 -14.46,0 -19.28,5.28 -19.71,23.29 z m -29.07,9.66 c 1.27,17 7.66,20.79 21.84,20.79 a 185.45,185.45 0 0 0 24,-1.75 l 1.28,8.34 c -6.53,2.78 -18.87,4 -26.81,4 -23.82,0 -33,-10.24 -33,-37.62 0,-28 9.49,-37.19 31.76,-37.19 20.84,0 29.64,7.9 29.64,23.28 0.14,12.73 -5,20.2 -16.45,20.2 z m -31,-43.51 c -9.88,0 -17,1.92 -22,6.26 l -0.51,-4.48 h -9.3 v 71.31 h 12.05 v -43.78 c 1.29,-15.8 8.77,-20.21 20.84,-19.75 a 78.83,78.83 0 0 1 11.28,1.63 l 1.3,-8.18 a 37.46,37.46 0 0 0 -13.64,-3 m -197.63,64.44 c -15,0 -19.860002,-6.14 -19.860002,-26.94 0,-20.8 4.820002,-26.95 19.860002,-26.95 15.04,0 20,6.16 20,26.95 0,20.79 -4.97,26.94 -20,26.94 z m 0,-64.43 c -23.370002,0 -32.230002,10 -32.460002,36.45 h -0.07 v 65.68 h 12.03 v -20.6 c 0,-3.91 0,-7.45 -0.22,-11.19 5.000002,3.21 11.800002,4.63 20.690002,4.63 23.82,0 32.48,-10.1 32.48,-37.48 0.05,-27.23 -8.63,-37.49 -32.45,-37.49 z m 96.87,37.49 c 0,20.79 4.82,26.94 19.85,26.94 15.03,0 20,-6.14 20,-26.94 0,-20.8 -5,-26.95 -20,-26.95 -15,0 -19.85,6.18 -19.85,26.95 z m 52.33,0 c 0,27.37 -8.66,37.48 -32.48,37.48 -23.82,0 -32.48,-10.1 -32.48,-37.48 0,-27.23 8.8,-37.49 32.48,-37.49 23.68,0 32.48,10.26 32.48,37.49 z m 407.3,-35.6 h 9.66 v 31.17 h 38.18 v -31.17 h 9.65 v 72.51 h -9.66 v -33.21 h -38.23 v 33.21 h -9.6 z m 83,64.39 h 16 a 37.67,37.67 0 0 0 4.07,-0.26 23.71,23.71 0 0 0 10.62,-4 18.62,18.62 0 0 0 4.82,-5 28.11,28.11 0 0 0 3.5,-7.88 41.59,41.59 0 0 0 1.34,-11.42 48.45,48.45 0 0 0 -1.27,-11.63 22.52,22.52 0 0 0 -4.16,-8.73 18.34,18.34 0 0 0 -7.47,-5.49 29.78,29.78 0 0 0 -11.27,-1.87 h -16.25 v 56.26 z m -9.65,-64.4 h 24.88 q 16.76,0 25.8,8.54 9.04,8.54 9,26 a 58.8,58.8 0 0 1 -2,16.2 30.44,30.44 0 0 1 -6.3,11.89 27.26,27.26 0 0 1 -10.87,7.36 43.6,43.6 0 0 1 -15.64,2.54 h -24.94 v -72.52 z"
     fill-rule="evenodd"
     id="path15"
     style="fill:#ffffff" />
</svg>
