<?xml version="1.0" encoding="UTF-8"?>
<!DOCTYPE svg PUBLIC "-//W3C//DTD SVG 1.1//EN" "http://www.w3.org/Graphics/SVG/1.1/DTD/svg11.dtd">
<svg xmlns="http://www.w3.org/2000/svg" version="1.1" width="411px" height="120px" style="shape-rendering:geometricPrecision; text-rendering:geometricPrecision; image-rendering:optimizeQuality; fill-rule:evenodd; clip-rule:evenodd" xmlns:xlink="http://www.w3.org/1999/xlink">
<g><path style="opacity:1" fill="#ffffff" d="M -0.5,-0.5 C 17.1667,-0.5 34.8333,-0.5 52.5,-0.5C 54.795,2.29709 57.295,4.96376 60,7.5C 62.705,4.96376 65.205,2.29709 67.5,-0.5C 85.1667,-0.5 102.833,-0.5 120.5,-0.5C 120.667,22.5024 120.5,45.5024 120,68.5C 102.965,85.3681 86.1316,102.368 69.5,119.5C 46.1667,119.5 22.8333,119.5 -0.5,119.5C -0.5,102.5 -0.5,85.5 -0.5,68.5C 2.29091,66.8776 4.62424,64.7109 6.5,62C 4.67994,59.0135 2.34661,56.5135 -0.5,54.5C -0.5,36.1667 -0.5,17.8333 -0.5,-0.5 Z M 18.5,18.5 C 27.5246,18.1685 36.5246,18.5018 45.5,19.5C 49.8722,24.3735 54.7055,28.7069 60,32.5C 65.1225,28.3799 69.9558,23.8799 74.5,19C 83.4938,18.5002 92.4938,18.3336 101.5,18.5C 101.667,32.1707 101.5,45.8374 101,59.5C 87.1667,73.3333 73.3333,87.1667 59.5,101C 45.8374,101.5 32.1707,101.667 18.5,101.5C 18.3336,93.16 18.5003,84.8267 19,76.5C 24.0151,71.6519 28.8485,66.6519 33.5,61.5C 28.8485,56.3481 24.0151,51.3481 19,46.5C 18.5002,37.1726 18.3335,27.8393 18.5,18.5 Z"/></g>
<g><path style="opacity:1" fill="#ffffff" d="M 235.5,22.5 C 266.487,23.185 280.32,38.8516 277,69.5C 269.722,89.9 255.222,98.7333 233.5,96C 214.54,91.2061 204.54,79.0394 203.5,59.5C 204.967,39.0431 215.633,26.7098 235.5,22.5 Z M 237.5,41.5 C 256.969,43.4313 262.803,53.4313 255,71.5C 246.535,78.7971 237.701,79.2971 228.5,73C 222.839,65.773 222.006,57.9397 226,49.5C 228.954,45.3497 232.787,42.683 237.5,41.5 Z"/></g>
<g><path style="opacity:1" fill="#ffffff" d="M 143.5,24.5 C 150.863,24.1694 158.197,24.5027 165.5,25.5C 168.624,33.081 172.291,40.4144 176.5,47.5C 180.16,40.2019 183.827,32.8685 187.5,25.5C 194.833,24.1667 202.167,24.1667 209.5,25.5C 202.014,39.1349 194.514,52.8016 187,66.5C 186.5,75.8274 186.334,85.1607 186.5,94.5C 179.833,94.5 173.167,94.5 166.5,94.5C 166.666,85.4938 166.5,76.4938 166,67.5C 158.275,53.2773 150.775,38.9439 143.5,24.5 Z"/></g>
<g><path style="opacity:1" fill="#ffffff" d="M 283.5,24.5 C 289.833,24.5 296.167,24.5 302.5,24.5C 302.333,40.5035 302.5,56.5035 303,72.5C 304.8,76.235 307.8,77.9017 312,77.5C 315.545,77.9614 318.212,76.6281 320,73.5C 320.5,57.1701 320.667,40.8367 320.5,24.5C 326.833,24.5 333.167,24.5 339.5,24.5C 339.667,42.8364 339.5,61.1697 339,79.5C 333.772,91.3713 324.605,97.038 311.5,96.5C 299.448,97.0603 290.615,92.0603 285,81.5C 283.551,62.5549 283.051,43.5549 283.5,24.5 Z"/></g>
<g><path style="opacity:1" fill="#ffffff" d="M 348.5,24.5 C 356.167,24.5 363.833,24.5 371.5,24.5C 371.5,27.8333 371.5,31.1667 371.5,34.5C 367.5,34.5 363.5,34.5 359.5,34.5C 359.5,35.8333 359.5,37.1667 359.5,38.5C 363.5,38.5 367.5,38.5 371.5,38.5C 371.5,41.8333 371.5,45.1667 371.5,48.5C 367.5,48.5 363.5,48.5 359.5,48.5C 359.5,52.5 359.5,56.5 359.5,60.5C 355.894,60.7892 352.394,60.4558 349,59.5C 348.5,47.8381 348.333,36.1714 348.5,24.5 Z"/></g>
<g><path style="opacity:1" fill="#ffffff" d="M 410.5,24.5 C 410.5,36.5 410.5,48.5 410.5,60.5C 407.223,60.7839 404.057,60.4505 401,59.5C 400.667,54.8333 400.333,50.1667 400,45.5C 398.149,49.2134 395.816,52.5468 393,55.5C 390.205,52.6089 387.872,49.2755 386,45.5C 385.667,50.1667 385.333,54.8333 385,59.5C 381.606,60.4558 378.106,60.7892 374.5,60.5C 374.5,48.5 374.5,36.5 374.5,24.5C 378.226,24.1774 381.893,24.5108 385.5,25.5C 387.802,29.633 390.302,33.633 393,37.5C 395.75,33.6682 398.25,29.6682 400.5,25.5C 403.768,24.513 407.102,24.1796 410.5,24.5 Z"/></g>
</svg>
