<?xml version="1.0" encoding="iso-8859-1"?>
<!-- Generator: Adobe Illustrator 19.1.0, SVG Export Plug-In . SVG Version: 6.00 Build 0)  -->
<svg version="1.1" id="Ebene_1" xmlns="http://www.w3.org/2000/svg" xmlns:xlink="http://www.w3.org/1999/xlink" x="0px" y="0px"
	 viewBox="-44 272 510 257" style="enable-background:new -44 272 510 257;" xml:space="preserve">
<g>
	<path style="fill:#FA7D19;" d="M239.798,374.803h30.35v-14.378h-36.542c-19.684,0-27.742,10.995-27.742,28.242v1.685
		c-3.293-20.306-15.365-29.927-37.459-29.927h-37.056C116.459,330.517,85.6,310,49.922,310C-0.252,310-41,350.699-41,400.909
		c0,50.253,40.748,90.938,90.922,90.938c35.449,0,66.086-20.271,81.132-49.796h37.769c9.043,0,17.167-0.54,25.475-7.148
		c5.972-4.786,9.703-11.433,11.472-20.22v27.266h17.32l0.016-32.08h40.9v-14.267H223.09l0.214-5.773
		C223.304,380.469,226.126,374.803,239.798,374.803 M168.055,427.68h-19.11v-52.877h19.11c15.018,0,20.414,6.437,20.414,26.426
		C188.469,421.232,183.072,427.68,168.055,427.68"/>
	<path style="fill:#FFFFFF;" d="M90.209,394.218h11.278c8.959,0,14.289-1.794,14.289-9.383c0-7.836-5.33-10.033-14.522-10.033H62.96
		v-14.375h44.573c22.59,0,25.792,15.804,25.792,24.608c0,9.416-3.818,24.312-25.841,24.312H96.547
		c-13.655,0-16.611,4.941-16.611,14.271v4.373h51.127v13.96H62.462v-20.262C62.463,404.467,70.55,394.218,90.209,394.218"/>
	<path style="fill:#FFFFFF;" d="M288.076,390.299v-12.854h8.736v-18.414h21.278v18.414h10.885v12.854H318.09v28.163
		c0,4.303,0.562,7.149,1.676,8.55c1.117,1.387,3.214,2.098,6.277,2.098c0.675,0,1.2-0.016,1.58-0.03
		c0.387-0.021,0.757-0.057,1.108-0.102v13.576c-2.227,0.429-4.404,0.775-6.542,1.017c-2.137,0.238-4.209,0.354-6.192,0.354
		c-7.372,0-12.416-1.801-15.126-5.399c-2.704-3.615-4.059-11.292-4.059-23.059V390.3L288.076,390.299L288.076,390.299z"/>
	<path style="fill:#FFFFFF;" d="M336.94,354.364h21.164v17.165H336.94V354.364z M336.94,377.446h21.164v64.984H336.94V377.446z"/>
	<polygon style="fill:#FFFFFF;" points="387.118,442.43 363.022,377.445 385.566,377.445 398.001,422.706 410.617,377.445 
		433.04,377.445 408.942,442.43 	"/>
	<path style="fill:#FFFFFF;" d="M437.84,354.364H459v17.165h-21.16V354.364z M437.84,377.446H459v64.984h-21.16V377.446z"/>
</g>
</svg>
