<?xml version="1.0" encoding="UTF-8" standalone="no"?>
<svg
   viewBox="456.329 66.361 626.3933 371.89123"
   version="1.1"
   id="svg19"
   sodipodi:docname="zdf_neo HD.svg"
   width="626.39331"
   height="371.89124"
   inkscape:version="1.1.1 (3bf5ae0d25, 2021-09-20)"
   xmlns:inkscape="http://www.inkscape.org/namespaces/inkscape"
   xmlns:sodipodi="http://sodipodi.sourceforge.net/DTD/sodipodi-0.dtd"
   xmlns="http://www.w3.org/2000/svg"
   xmlns:svg="http://www.w3.org/2000/svg">
  <defs
     id="defs23" />
  <sodipodi:namedview
     id="namedview21"
     pagecolor="#ffffff"
     bordercolor="#666666"
     borderopacity="1.0"
     inkscape:pageshadow="2"
     inkscape:pageopacity="0.0"
     inkscape:pagecheckerboard="0"
     showgrid="false"
     inkscape:zoom="0.78428118"
     inkscape:cx="145.99356"
     inkscape:cy="119.85497"
     inkscape:window-width="1342"
     inkscape:window-height="1040"
     inkscape:window-x="221"
     inkscape:window-y="23"
     inkscape:window-maximized="0"
     inkscape:current-layer="svg19" />
  <g
     id="Ebene_1"
     transform="matrix(0.945176,0,0,0.945176,465.88095,75.375485)">
    <polygon
       points="79.167,113.5 53.417,153.125 68.917,150 69.167,142.25 81.667,139.5 81.667,160.5 33.542,170.5 33.542,157 59.417,117.5 45.167,120.375 44.667,127.375 33.667,129.625 33.667,109.75 79.167,100 "
       style="fill:#ffffff"
       id="polygon2" />
    <path
       d="m 120.417,63.625 22.5,-5 v 72.091 c 0,3.165 2.023,3.118 6.167,2.034 v 13.417 L 137.25,148.5 c -4.572,0.98 -8.396,0.206 -9.083,-6.5 -4.185,10.287 -13.897,13.417 -20.917,13.417 -12.162,0 -18.417,-9.246 -18.417,-26.667 0,-30.543 17.045,-37 27.251,-37 5.67,0 8.25,3.167 9.833,4.917 V 75.25 l -5.583,1.417 z m -13.5,61.792 c 0,9.599 3.037,15.167 8.667,15.167 5,0 10.416,-4.39 10.416,-18.833 0,-12.865 -3.884,-17.25 -8.333,-17.25 -3.45,-0.001 -10.75,4.169 -10.75,20.916 z"
       style="fill:#ffffff"
       id="path4" />
    <path
       d="M 156.5,96.75 V 83.584 l 6.083,-1.333 V 71.584 c 0,-16.922 11.584,-23.917 37.584,-23.75 V 64.25 L 188.5,66.584 v -5.417 c -5.659,-0.306 -9.583,1.725 -9.583,7 V 78.75 l 14.5,-3 v 13.108 l -13.584,3.021 v 34.404 l 8.584,-1.783 v 13.25 l -31.667,6.583 v -13.167 l 6,-1.25 V 95.334 Z"
       style="fill:#ffffff"
       id="path6" />
    <path
       d="M 33.417,240.124 V 201.5 l 40.5,-8.625 c 10.153,-2.176 13.74,2.706 14.75,11.998 C 103.45,185.975 125.821,178 136.042,178 c 14.896,0 22.518,9.83 22.518,28.873 v 82.625 l -51.893,11 v -69.125 c 0,-4.125 -3.625,-6 -8,-5.125 l -4.125,0.75 v 76.125 l -52,11.125 v -76 z"
       style="fill:#ffffff"
       id="path8" />
    <path
       d="m 237.918,157.25 c 30.598,0 46.875,22.75 44.125,59.248 l -64.876,13.75 c 0.864,8.646 4.671,12.625 9.751,12.625 5.78,0 14.69,-3.955 20.25,-11.5 l 29.875,-6.25 v 25.375 c -16.559,17.741 -46.063,28.875 -67.251,28.875 -31.161,0 -43.5,-21.667 -43.5,-49.875 0,-51.267 42.114,-72.248 71.626,-72.248 z m -3.5,49.249 c -0.617,-7.204 -3.231,-12.498 -7.375,-12.498 -5.508,0 -9.294,5.752 -10.376,16.248 z"
       style="fill:#ffffff"
       id="path10" />
    <path
       d="m 362.918,130.625 c 26.629,0 45.625,17.652 45.625,48.875 0,51.644 -41.988,73.748 -75.5,73.748 -28.753,0 -43.875,-18.162 -43.875,-48.25 0,-57.245 48.346,-74.373 73.75,-74.373 z m -23.5,64.625 c 0,16.391 3.05,23.623 8,23.623 4.696,0 10.25,-4.882 10.25,-27.248 0,-15.165 -1.601,-23.679 -7.59,-23.679 -6.302,0 -10.66,8.063 -10.66,27.304 z"
       style="fill:#ffffff"
       id="path12" />
    <polygon
       points="403.918,286.249 403.918,265.874 294.793,289.124 294.793,309.249 "
       style="fill:#ffffff"
       id="polygon14" />
    <polygon
       points="213.695,326.812 213.374,371.632 447.489,323.31 447.489,63.911 233.852,109.231 233.118,2.787 -0.106,52.232 -0.106,371.328 "
       style="fill:none;stroke:#ffffff;stroke-width:20px;paint-order:stroke"
       id="polygon16" />
  </g>
  <g
     transform="matrix(4.4069292,-0.7785071,0,11.578583,2705.915,-510.30392)"
     fill="#000000"
     aria-label="HD"
     id="g26"
     style="fill:#ffffff">
    <g
       fill="#000000"
       id="g24"
       style="fill:#ffffff">
      <path
         d="m -389.57,37.057 -6.0649,0.07827 v 7.7909 l -3.894,0.04522 v -16.502 l 3.894,-0.04522 v 7.2499 l 6.0649,-0.07827 v -7.2499 l 3.9553,-0.0411 v 16.471 l -3.9553,0.0411 z"
         stroke-width="0.54435"
         id="path20"
         style="fill:#ffffff" />
      <path
         d="m -381.83,28.237 c 0,0 5.0438,-0.07462 7.574,-0.09594 2.5896,-0.02182 5.9221,0.88073 5.9282,2.089 l 3.5e-4,11.892 c 0.0169,1.789 -3.3749,2.6173 -7.6301,2.6726 -1.3989,0.01819 -5.8724,0 -5.8724,0 z m 9.7319,2.9223 c -0.0329,-1.2919 -0.69746,-1.6469 -5.7158,-1.5818 v 13.676 c 5.7864,0.14372 5.7124,-0.84077 5.7152,-2.189 z"
         stroke-width="0.55191"
         id="path22"
         style="fill:#ffffff" />
    </g>
  </g>
</svg>
