<?xml version="1.0" encoding="utf-8"?>
<svg viewBox="456.329 66.361 443.622 375.065" xmlns="http://www.w3.org/2000/svg">
  <g id="Ebene_1" transform="matrix(0.945176, 0, 0, 0.945176, 466.712341, 76.947342)" style="">
    <polygon points="33.667,109.75 79.167,100 79.167,113.5 53.417,153.125 68.917,150      69.167,142.25 81.667,139.5 81.667,160.5 33.542,170.5 33.542,157 59.417,117.5 45.167,120.375 44.667,127.375 33.667,129.625      " style="fill: rgb(255, 255, 255);"/>
    <path d="M120.417,63.625l22.5-5v72.091c0,3.165,2.023,3.118,6.167,2.034v13.417L137.25,148.5     c-4.572,0.98-8.396,0.206-9.083-6.5c-4.185,10.287-13.897,13.417-20.917,13.417c-12.162,0-18.417-9.246-18.417-26.667     c0-30.543,17.045-37,27.251-37c5.67,0,8.25,3.167,9.833,4.917V75.25l-5.583,1.417L120.417,63.625z M106.917,125.417     c0,9.599,3.037,15.167,8.667,15.167c5,0,10.416-4.39,10.416-18.833c0-12.865-3.884-17.25-8.333-17.25     C114.217,104.5,106.917,108.67,106.917,125.417z" style="fill: rgb(255, 255, 255);"/>
    <path d="M156.5,96.75V83.584l6.083-1.333V71.584c0-16.922,11.584-23.917,37.584-23.75V64.25     L188.5,66.584v-5.417c-5.659-0.306-9.583,1.725-9.583,7V78.75l14.5-3v13.108l-13.584,3.021v34.404l8.584-1.783v13.25     l-31.667,6.583v-13.167l6-1.25V95.334L156.5,96.75z" style="fill: rgb(255, 255, 255);"/>
    <path d="M33.417,240.124V201.5l40.5-8.625c10.153-2.176,13.74,2.706,14.75,11.998     C103.45,185.975,125.821,178,136.042,178c14.896,0,22.518,9.83,22.518,28.873v82.625l-51.893,11v-69.125c0-4.125-3.625-6-8-5.125     l-4.125,0.75v76.125l-52,11.125v-76L33.417,240.124z" style="fill: rgb(255, 255, 255);"/>
    <path d="M237.918,157.25c30.598,0,46.875,22.75,44.125,59.248l-64.876,13.75     c0.864,8.646,4.671,12.625,9.751,12.625c5.78,0,14.69-3.955,20.25-11.5l29.875-6.25v25.375     c-16.559,17.741-46.063,28.875-67.251,28.875c-31.161,0-43.5-21.667-43.5-49.875C166.292,178.231,208.406,157.25,237.918,157.25z      M234.418,206.499c-0.617-7.204-3.231-12.498-7.375-12.498c-5.508,0-9.294,5.752-10.376,16.248L234.418,206.499z" style="fill: rgb(255, 255, 255);"/>
    <path d="M362.918,130.625c26.629,0,45.625,17.652,45.625,48.875     c0,51.644-41.988,73.748-75.5,73.748c-28.753,0-43.875-18.162-43.875-48.25C289.168,147.753,337.514,130.625,362.918,130.625z      M339.418,195.25c0,16.391,3.05,23.623,8,23.623c4.696,0,10.25-4.882,10.25-27.248c0-15.165-1.601-23.679-7.59-23.679     C343.776,167.946,339.418,176.009,339.418,195.25z" style="fill: rgb(255, 255, 255);"/>
    <polygon points="294.793,289.124 294.793,309.249 403.918,286.249 403.918,265.874 " style="fill: rgb(255, 255, 255);"/>
    <polygon points="-0.106 52.232 -0.106 371.328 213.695 326.812 213.374 371.632 447.489 323.31 447.489 63.911 233.852 109.231 233.118 2.787" style="fill: none; paint-order: stroke; stroke-width: 20px; stroke: rgb(255, 255, 255);"/>
  </g>
</svg>