<svg xmlns="http://www.w3.org/2000/svg" width="560" height="164"><g style="fill:#ff7e09;fill-opacity:1"><path d="M2.5 52h81v17.5L31 125h31.5v-18h21v36H0v-17l52.6-55.6H24V87H2.5M197 143h49v-19h-13V72h17V52h-17v-4c0-7.326.783-8 7-8h11.5V21H228c-12.506 0-19 7.666-19 19v12h-12.5v20H209v52h-12" style="fill:#ff7e09;fill-opacity:1;stroke:none"/><g style="font-size:40px;font-style:normal;font-variant:normal;font-weight:400;font-stretch:normal;line-height:125%;letter-spacing:0;word-spacing:0;fill:#ff7e09;fill-opacity:1;stroke:none;font-family:Playbill;-inkscape-font-specification:Playbill"><path d="M-109.833-91.877v22.543h1.2v4.29h-3.599v-2.518c-1.163 2.517-1.536 2.517-2.64 2.517-1.386 0-2.83.468-2.83-7.82v-3.885c0-8.01 1.161-8.309 2.83-8.309 1.484 0 1.72.4 2.64 2.2v-4.73h-1.152v-4.288zm-4.74 11.201c-.755.028-.773 1.596-.775 3.144l-.007 5.832c-.002 1.71.42 2.337.58 2.342l1.336.041c.408.013 1.207-.652 1.207-.652v-9.921s-.518-.852-1.261-.825z" style="fill:#ff7e09;fill-opacity:1" transform="matrix(10.4188 0 0 4.54682 1319.323 438.748)"/></g></g><path d="M297.714 0h241.572A20.669 20.669 0 0 1 560 20.714v122.572A20.669 20.669 0 0 1 539.286 164H297.714A20.669 20.669 0 0 1 277 143.286V120l-29-29h29V20.714A20.669 20.669 0 0 1 297.714 0z" style="fill:#000;fill-opacity:1;stroke:none"/><g style="fill:#fff"><path d="M303.5 76.5h28v52h9v15h-37l-.018-15.125 9.518.125v-37h-9.5" style="fill:#fff;stroke:none"/><path d="M312 52h19v16h-19z" style="fill:#fff;fill-opacity:1;stroke:none"/></g><path d="M347.5 76.5h27V85c10.9-9.255 12.976-8.503 20.28-8.5 14.873.007 19.205 3.286 19.22 17.5v34.5h9v15h-34.5v-15h7V97c0-4.935-1.502-5.92-9-6-4.064-.043-7.49.646-12 3v34.5h7v15H347v-15h9V91h-8.5" style="fill:#fff;stroke:none"/><path d="M489.446 76.5h29.608c8.557 0 15.446 9.677 15.446 21.696v23.608c0 12.02-6.89 21.696-15.446 21.696h-29.608c-8.557 0-15.446-9.677-15.446-21.696V98.196c0-12.02 6.89-21.696 15.446-21.696z" style="fill:#fff;fill-opacity:1;stroke:none"/><path d="M495.82 91h16.86c1.84 0 3.32 4.66 3.32 10.446v16.608c0 5.787-1.48 10.446-3.32 10.446h-16.86c-1.84 0-3.32-4.66-3.32-10.446v-16.608c0-5.787 1.48-10.446 3.32-10.446z" style="fill:#000;fill-opacity:1;stroke:none"/><path d="M429.368 143.5H466v-15h-9.5V91.218H469V76.491h-12.5v-2.946c0-5.394.454-5.89 5.032-5.89H470V53.663h-17.805c-9.208 0-13.99 5.645-13.99 13.99v8.837H429v14.727h9.205V128.5h-8.837" style="fill:#fff;stroke:none"/></svg>